<?xml version="1.0" standalone="no"?>
<!DOCTYPE svg PUBLIC "-//W3C//DTD SVG 1.1//EN" "http://www.w3.org/Graphics/SVG/1.1/DTD/svg11.dtd" >
<svg xmlns="http://www.w3.org/2000/svg" xmlns:xlink="http://www.w3.org/1999/xlink" version="1.1">
<metadata>
Created by FontForge 20170731 at Wed Sep  8 12:09:13 2021
 By Aleksey,,,
(C)2010 House Industries/Brand Design Co., Inc. All Rights Reserved.
</metadata>
<defs>
<font id="EamesCenturyModern-BoldItalic" horiz-adv-x="1228" >
  <font-face 
    font-family="Eames Century Modern Bold"
    font-weight="700"
    font-style="italic"
    font-stretch="normal"
    units-per-em="2048"
    panose-1="2 0 8 3 7 7 5 2 2 3"
    ascent="1679"
    descent="-369"
    x-height="989"
    cap-height="1411"
    bbox="-453 -563 2429 2256.75"
    underline-thickness="102"
    underline-position="-307"
    slope="-8.5"
    unicode-range="U+0020-FB04"
  />
<missing-glyph horiz-adv-x="1024" 
 />
    <glyph glyph-name="f_f" unicode="ff" horiz-adv-x="1366" 
d="M1395 1354q-90 0 -148 -93t-100 -315l223 6l-16 -104l-224 6l-14 -102q-44 -320 -107 -547t-146 -362.5t-180 -197t-218 -61.5q-116 0 -172 54t-37 133q10 49 45 76.5t86 27.5q54 0 82 -33t16 -84q-10 -43 -49 -64t-86 -16q21 -18 68 -18q35 0 63.5 9.5t52.5 34t43 53.5
t36.5 81t30.5 102.5t28 132.5t27 156t28 187q37 255 96 442h-286q-13 -65 -17 -106q-122 -1168 -651 -1168q-116 0 -172 54t-37 133q10 49 45 76.5t86 27.5q54 0 82 -33t16 -84q-10 -43 -49 -64t-86 -16q21 -18 68 -18q35 0 63.5 9.5t52.5 34t43 53.5t36.5 81t30.5 102.5
t28 132.5t27 156t28 187q36 248 94 436l-127 -4l15 106l145 -6q44 118 99 209t108 146t112 89.5t108.5 47t100.5 12.5q113 0 173.5 -56t58.5 -145q158 201 364 201q122 0 182.5 -64.5t47.5 -162.5q-12 -86 -57.5 -130t-114.5 -44q-63 0 -99 36t-26 95q11 59 62.5 90
t127.5 10q-12 34 -42 53t-68 19zM799 1354q-89 0 -147.5 -94t-100.5 -316h301q21 53 49 115q-21 -8 -57 -8q-63 0 -99 36t-26 95q11 59 62.5 90t127.5 10q-12 34 -42 53t-68 19z" />
    <glyph glyph-name="f_i" unicode="fi" horiz-adv-x="1212" 
d="M819 1354q-102 0 -163.5 -89.5t-104.5 -320.5q436 4 573 10q-50 -218 -135 -637q-12 -63 -17.5 -97.5t-6.5 -63.5t6 -39.5t22 -10.5q39 0 69 76t48 205l80 -4q-8 -82 -31 -156t-61 -135.5t-96.5 -98t-129.5 -36.5q-149 0 -191.5 91.5t5.5 326.5l100 475l-251 4
q-9 -50 -15 -102q-44 -320 -107 -547t-146 -362.5t-180 -197t-218 -61.5q-116 0 -172 54t-37 133q10 49 45.5 76.5t85.5 27.5q54 0 82 -33t16 -84q-10 -42 -49.5 -63.5t-83.5 -16.5q21 -18 66 -18q35 0 63.5 9.5t52.5 34t43 53.5t36.5 81t30.5 102.5t28 132.5t27 156t28 187
q39 262 94 434l-127 -2l15 106l145 -6q44 118 99.5 209t110 146t114.5 89.5t111 47t104 12.5q144 0 208.5 -63.5t51.5 -163.5q-12 -85 -58 -129.5t-114 -44.5q-64 0 -99.5 36t-25.5 95t60.5 90t125.5 12q-15 33 -48.5 51.5t-78.5 18.5z" />
    <glyph glyph-name="f_l" unicode="fl" horiz-adv-x="1269" 
d="M819 1354q-102 0 -163.5 -89.5t-104.5 -318.5l190 6l-16 -104l-190 4q-9 -45 -15 -100q-44 -320 -107 -547t-146 -362.5t-180 -197t-218 -61.5q-116 0 -172 54t-37 133q10 49 45.5 76.5t85.5 27.5q54 0 82 -33t16 -84q-10 -42 -49.5 -63.5t-83.5 -16.5q21 -18 66 -18
q35 0 63.5 9.5t52.5 34t43 53.5t36.5 81t30.5 102.5t28 132.5t27 156t28 187q39 262 94 434l-127 -2l15 106l145 -6q44 118 99.5 209t110 146t114.5 89.5t111 47t104 12.5q110 0 174 -39h270q0 -130 -29 -256q-114 -508 -174 -858q-15 -85 -17 -125.5t6 -51.5t30 -11
q72 0 106 276l80 -4q-8 -84 -30 -156t-60.5 -134t-101.5 -98t-144 -36q-145 0 -190 87.5t2 301.5q78 351 149 703q-58 5 -88 40t-20 91q10 59 60.5 90t125.5 12q-15 33 -48.5 51.5t-78.5 18.5z" />
    <glyph glyph-name="f_f_i" unicode="ffi" horiz-adv-x="1816" 
d="M1415 1354q-102 0 -163.5 -89.5t-104.5 -320.5q454 5 582 10q-78 -342 -134 -637q-13 -66 -18 -98t-6.5 -62t5.5 -40.5t23 -10.5q76 0 115 281l80 -4q-7 -82 -29.5 -156t-60.5 -135.5t-96.5 -98t-130.5 -36.5q-148 0 -190.5 91.5t5.5 326.5l99 475l-261 4l-14 -102
q-44 -320 -107 -547t-146 -362.5t-180 -197t-218 -61.5q-116 0 -172 54t-37 133q10 49 45.5 76.5t85.5 27.5q54 0 82 -33t16 -84q-10 -42 -49.5 -63.5t-83.5 -16.5q21 -18 66 -18q35 0 63.5 9.5t52.5 34t43 53.5t36.5 81t30.5 102.5t28 132.5t27 156t28 187q37 253 96 440
h-288l-15 -104q-44 -320 -107 -547t-146 -362.5t-180 -197t-218 -61.5q-116 0 -172 54t-37 133q10 49 45 76.5t86 27.5q54 0 82 -33t16 -84q-10 -43 -49 -64t-86 -16q21 -18 68 -18q35 0 63.5 9.5t52.5 34t43 53.5t36.5 81t30.5 102.5t28 132.5t27 156t28 187q39 265 94 436
l-127 -4l15 106l145 -6q44 118 99 209t108 146t112 89.5t108.5 47t100.5 12.5q113 0 173.5 -57t58.5 -146q161 203 375 203q144 0 208.5 -63.5t51.5 -163.5q-12 -85 -58 -129.5t-114 -44.5q-64 0 -99.5 36t-25.5 95t60.5 90t125.5 12q-15 33 -48.5 51.5t-78.5 18.5z
M799 1354q-89 0 -147.5 -94t-100.5 -316h301q21 53 49 115q-21 -8 -57 -8q-63 0 -99 36t-26 95q11 59 62.5 90t127.5 10q-12 34 -42 53t-68 19z" />
    <glyph glyph-name="f_f_l" unicode="ffl" horiz-adv-x="1845" 
d="M98 848l15 106l145 -6q44 118 99 209t108 146t112 89.5t108.5 47t100.5 12.5q113 0 173.5 -57t58.5 -146q161 203 375 203q110 0 174 -39h250q3 -119 -29 -256q-37 -164 -92 -437t-80 -421q-12 -66 -16.5 -102.5t-1.5 -56t10.5 -24.5t23.5 -5q73 0 107 276l80 -4
q-8 -84 -30 -156t-60.5 -134t-101.5 -98t-144 -36q-145 0 -189.5 87.5t2.5 301.5q59 254 150 705q-49 9 -74 43.5t-16 85.5q10 59 59.5 89.5t124.5 12.5v2q-15 32 -48.5 50t-76.5 18q-102 0 -163.5 -89t-104.5 -317l164 4l-17 -104l-164 6q-6 -35 -14 -102
q-44 -320 -107 -547t-146 -362.5t-180 -197t-218 -61.5q-116 0 -172 54t-37 133q10 49 45.5 76.5t85.5 27.5q54 0 82 -33t16 -84q-10 -42 -49.5 -63.5t-83.5 -16.5q21 -18 66 -18q35 0 63.5 9.5t52.5 34t43 53.5t36.5 81t30.5 102.5t28 132.5t27 156t28 187q37 255 96 442
h-286q-15 -88 -17 -106q-44 -320 -107 -547t-146 -362.5t-180 -197t-218 -61.5q-116 0 -172 54t-37 133q10 49 45 76.5t86 27.5q54 0 82 -33t16 -84q-10 -43 -49 -64t-86 -16q21 -18 68 -18q35 0 63.5 9.5t52.5 34t43 53.5t36.5 81t30.5 102.5t28 132.5t27 156t28 187
q36 248 94 436zM799 1354q-89 0 -147.5 -94t-100.5 -316h301q21 53 49 115q-21 -8 -57 -8q-63 0 -99 36t-26 95q11 59 62.5 90t127.5 10q-12 34 -42 53t-68 19z" />
    <glyph glyph-name="f_j" unicode="fj" horiz-adv-x="1161" 
d="M819 1354q-102 0 -163.5 -89.5t-104.5 -320.5q454 4 590 10q-4 -18 -22.5 -123t-57 -306.5t-86.5 -426.5q-54 -262 -168 -369.5t-313 -107.5q-115 0 -180.5 56t-43.5 137q11 48 46 76t92 28q55 0 81.5 -35.5t12.5 -85.5q-13 -44 -55 -63.5t-91 -12.5q23 -26 70 -26
q33 0 60 10t47.5 28t37 46t28.5 62t23.5 78.5t21 92t20.5 105.5q5 29 8 43l131 688l-268 6q-9 -50 -15 -102q-44 -320 -107 -547t-146 -362.5t-180 -197t-218 -61.5q-116 0 -172 54t-37 133q10 49 45.5 76.5t85.5 27.5q54 0 82 -33t16 -84q-10 -42 -49.5 -63.5t-83.5 -16.5
q21 -18 66 -18q35 0 63.5 9.5t52.5 34t43 53.5t36.5 81t30.5 102.5t28 132.5t27 156t28 187q39 262 94 434l-127 -2l15 106l145 -6q44 118 99.5 209t110 146t114.5 89.5t111 47t104 12.5q144 0 208.5 -63.5t51.5 -163.5q-12 -85 -58 -129.5t-114 -44.5q-64 0 -99.5 36
t-25.5 95t60.5 90t125.5 12q-15 33 -48.5 51.5t-78.5 18.5z" />
    <glyph glyph-name="f_t" unicode="ft" horiz-adv-x="1341" 
d="M98 848l15 106l145 -6q44 118 99 209t108 146t112 89.5t108.5 47t100.5 12.5q122 0 182.5 -64.5t47.5 -162.5q-12 -86 -57.5 -130t-114.5 -44q-63 0 -99 36t-26 95q11 59 62.5 90t127.5 10q-12 34 -42 53t-68 19q-90 0 -148 -93.5t-100 -316.5h139v2q114 0 191.5 16.5
t126 54t74.5 86.5t44 124h101q-33 -123 -64 -279l187 4l-17 -104l-188 2q-9 -49 -32 -172.5t-39 -213.5t-19 -110q-21 -142 -17 -195t43 -53q35 0 66 76t41 205l80 -4q-7 -97 -29.5 -173.5t-62 -134t-101.5 -88t-143 -30.5q-155 0 -208.5 87.5t-27.5 248.5q11 67 54.5 277
t56.5 278l-272 2q-9 -48 -15 -98q-44 -320 -107 -547t-146 -362.5t-180 -197t-218 -61.5q-116 0 -172 54t-37 133q10 49 45 76.5t86 27.5q54 0 82 -33t16 -84q-10 -43 -49 -64t-86 -16q21 -18 68 -18q35 0 63.5 9.5t52.5 34t43 53.5t36.5 81t30.5 102.5t28 132.5t27 156
t28 187q39 262 94 434z" />
    <glyph glyph-name="t_t" unicode="tt" horiz-adv-x="1417" 
d="M1262 387l79 -4q-9 -131 -45 -223.5t-109.5 -147.5t-180.5 -55q-155 0 -208.5 87.5t-27.5 248.5q10 61 53.5 269t57.5 290h-342q-85 -437 -93 -498q-21 -142 -17.5 -195t42.5 -53q38 0 66 64t32 197l80 -5q-7 -97 -25.5 -167t-55 -126t-98 -84t-148.5 -28
q-293 0 -234 336q10 60 53 266.5t58 288.5h-82l10 104q76 0 133.5 15t96 39.5t69.5 69.5t50.5 90t43.5 116h107q-25 -94 -72 -334h223q56 1 101.5 6.5t82 18.5t64 26.5t50.5 38.5t38.5 45.5t32.5 58t27.5 65t27.5 75.5h107q-10 -37 -35.5 -154t-36.5 -180l186 4l-16 -104
l-188 2q-10 -56 -32.5 -175t-39 -210.5t-19.5 -110.5q-7 -53 -10.5 -85t-5.5 -63.5t-0.5 -47.5t6.5 -29.5t14 -18t23 -4.5q35 0 66 76t41 205z" />
    <glyph glyph-name=".notdef" horiz-adv-x="1024" 
 />
    <glyph glyph-name=".null" horiz-adv-x="0" 
 />
    <glyph glyph-name="nonmarkingreturn" horiz-adv-x="682" 
 />
    <glyph glyph-name="space" unicode=" " horiz-adv-x="409" 
 />
    <glyph glyph-name="exclam" unicode="!" horiz-adv-x="751" 
d="M471 133q-3 -79 -52.5 -124.5t-137.5 -45.5q-82 0 -127.5 44t-42.5 130q3 78 54.5 126t131.5 48q87 0 132 -49t42 -129zM375 461q-4 -25 -13 -34t-26 -7q-19 4 -24.5 15t-2.5 36q14 70 22.5 126t10 106t1.5 83t-7.5 79t-13 71t-19 81t-20.5 89q-37 162 20 255t195 93
q100 0 154.5 -61.5t47.5 -157.5t-75 -191q-12 -17 -41.5 -57.5t-38 -54t-31.5 -47.5t-30.5 -51.5t-24.5 -52t-25 -62.5t-20 -69.5t-21 -87t-18 -101.5z" />
    <glyph glyph-name="quotedbl" unicode="&#x22;" horiz-adv-x="747" 
d="M246 870q-10 -32 -35 -32q-12 0 -18.5 8.5t0.5 25.5q79 249 65 361q-10 99 25 156t98 57q46 0 64 -36.5t1 -95t-65 -118.5q-41 -53 -71 -126t-64 -200zM553 870q-10 -32 -35 -32q-12 0 -18.5 8.5t0.5 25.5q79 249 65 361q-10 99 25 156t98 57q46 0 64 -36.5t1 -95
t-65 -118.5q-41 -53 -71 -126t-64 -200z" />
    <glyph glyph-name="numbersign" unicode="#" horiz-adv-x="1212" 
d="M258 0h-70q59 192 131 446q-52 0 -136 -1t-111 -1l24 86q126 -4 246 -4l96 344q-59 0 -153 -1t-125 -1q4 7 13.5 44.5t10.5 39.5q140 -4 275 -4q68 246 121 461h73q-63 -190 -141 -461h330q28 107 116 461h74q-52 -165 -137 -461q112 0 238 4q-1 -6 -11.5 -42t-11.5 -42
q-27 0 -107 1t-129 1q-17 -57 -94 -344q118 0 244 4q-21 -73 -23 -86q-28 0 -110 1t-133 1q-85 -330 -111 -446h-69q76 249 129 446h-336q-56 -206 -113 -446zM489 870q-42 -146 -96 -344h336q78 288 92 344h-332z" />
    <glyph glyph-name="dollar" unicode="$" 
d="M446 -203h-96l45 236q-188 24 -282.5 110t-69.5 203q12 57 52.5 86t99.5 29q61 0 93 -35.5t21 -91.5q-15 -76 -88 -98q71 -56 201 -70l72 373q-177 44 -258.5 170t-38.5 307q35 146 146 242t271 126l31 228h94l-41 -217q16 2 50 2q35 0 51 -2l30 217h95l-41 -226
q149 -24 222.5 -98.5t59.5 -177.5q-9 -64 -48.5 -98.5t-104.5 -34.5q-62 0 -94 34t-23 91q14 86 100 102q-55 34 -137 49l-63 -346q210 -39 292.5 -153t49.5 -310q-26 -166 -150.5 -273t-322.5 -136l-33 -238h-99l43 230h-96zM885 334q10 70 -25.5 109t-128.5 59l-47 -330
q184 39 201 162zM528 160q51 0 74 2l68 350q-22 4 -63.5 8t-57.5 6l-51 -366h30zM614 932q106 -16 121 -17l47 347q-12 2 -37 2t-71 -4zM438 1120q-18 -64 9.5 -106.5t111.5 -67.5l39 301q-68 -18 -108.5 -51.5t-51.5 -75.5z" />
    <glyph glyph-name="percent" unicode="%" 
d="M215 221q0 8 5.5 13.5t12.5 5.5t13 -6t6 -13t-5.5 -12.5t-13.5 -5.5q-7 0 -12.5 5.5t-5.5 12.5zM289 326q0 12 9 21t21 9t20.5 -9t8.5 -21t-8.5 -21.5t-20.5 -9.5t-21 9.5t-9 21.5zM365 430q0 17 12 29t29 12t28.5 -12t11.5 -29t-11.5 -29t-28.5 -12t-29 12t-12 29z
M442 537q0 19 15 33t35 14t34.5 -14t14.5 -33q0 -20 -14.5 -35t-34.5 -15t-35 15t-15 35zM524 641q0 22 16 37.5t38 15.5q23 0 39 -15.5t16 -37.5q0 -23 -16 -39t-39 -16q-22 0 -38 16t-16 39zM608 745q0 23 16.5 39.5t39.5 16.5t40 -16.5t17 -39.5t-17 -39t-40 -16
t-39.5 16t-16.5 39zM696 850q0 23 16 39t38 16q23 0 39 -16t16 -39q0 -22 -16 -37.5t-39 -15.5q-22 0 -38 15.5t-16 37.5zM786 956q0 19 15 33.5t35 14.5t34.5 -14.5t14.5 -33.5q0 -20 -14.5 -34.5t-34.5 -14.5t-35 14.5t-15 34.5zM881 1061q0 17 12 29t29 12t29 -12t12 -29
t-12 -29t-29 -12t-29 12t-12 29zM979 1165q0 12 8.5 21.5t20.5 9.5t21 -9.5t9 -21.5t-9 -21t-21 -9t-20.5 9t-8.5 21zM1075 1270q0 7 5.5 12.5t13.5 5.5t13 -5t5 -13t-5.5 -13.5t-12.5 -5.5q-8 0 -13.5 5.5t-5.5 13.5zM766 33q41 0 72 50t55 183q23 129 15 185.5t-48 56.5
t-72.5 -52.5t-56.5 -189.5q-23 -132 -13.5 -182.5t48.5 -50.5zM756 -59q-44 0 -82 10t-73 33t-55 60.5t-28 92.5t6 129q17 94 52.5 160.5t84.5 101.5t99.5 50.5t109.5 15.5q135 0 196.5 -80t33.5 -248q-16 -93 -51.5 -159t-84 -101t-99 -50t-109.5 -15zM389 907
q41 0 71.5 50.5t55.5 183.5q23 129 15 185t-48 56t-72.5 -52.5t-56.5 -188.5q-23 -132 -13.5 -183t48.5 -51zM379 815q-56 0 -101.5 16t-83 54t-48.5 100.5t1 155.5q17 94 53 160.5t84.5 101.5t99.5 50t110 15q135 0 196 -79t33 -248q-16 -93 -51.5 -159t-84 -101t-99 -50.5
t-109.5 -15.5z" />
    <glyph glyph-name="ampersand" unicode="&#x26;" horiz-adv-x="1628" 
d="M1501 279q-37 -170 -132 -240t-269 -70q-106 0 -181 26.5t-143 94.5q-147 -129 -385 -129q-104 0 -182 32t-120 86t-59 119.5t-7 137.5q15 106 74 190t141.5 135t183.5 74q-52 178 -31 328q26 185 143.5 278t309.5 93q174 0 259 -90t66 -232q-18 -142 -110.5 -250
t-224.5 -168q26 -54 47 -90q12 -22 39.5 -71t40 -72t32 -55t35.5 -54q86 89 105 183q15 94 -54 94h-57q4 13 11 63t7 64q160 -4 250 -4l250 4q-8 -35 -18 -127h-82q-42 0 -67 -21t-50 -73q-85 -184 -215 -275q62 -59 143 -59q54 0 86 20.5t56 73.5zM618 158q52 0 93 10
q-83 111 -164 274q-52 99 -74 154q-85 -57 -98 -162q-17 -118 50.5 -197t192.5 -79zM743 1104q-16 -149 45 -309q129 87 162 311q19 160 -82 160q-105 0 -125 -162z" />
    <glyph glyph-name="quotesingle" unicode="'" horiz-adv-x="440" 
d="M246 870q-10 -32 -35 -32q-12 0 -18.5 8.5t0.5 25.5q79 249 65 361q-10 99 25 156t98 57q46 0 64 -36.5t1 -95t-65 -118.5q-41 -53 -71 -126t-64 -200z" />
    <glyph glyph-name="parenleft" unicode="(" horiz-adv-x="655" 
d="M410 678q-60 -442 -48 -634t103 -347l-88 -64q-372 268 -264 1045q31 223 85.5 396t130.5 295.5t160.5 205.5t192.5 147l70 -65q-92 -105 -151 -221t-105.5 -297t-85.5 -461z" />
    <glyph glyph-name="parenright" unicode=")" horiz-adv-x="655" 
d="M252 678q57 394 45.5 610t-102.5 369l88 65q374 -269 266 -1044q-25 -179 -66.5 -327t-93 -257.5t-119 -198.5t-137.5 -150t-156 -112l-69 64q82 95 130.5 171.5t88 191t66 250t59.5 368.5z" />
    <glyph glyph-name="asterisk" unicode="*" horiz-adv-x="1024" 
d="M692 1202q-31 -36 -43 -98l27 -23q62 26 88 64q6 9 18.5 30t20.5 33t25.5 27.5t39.5 24.5q52 19 95.5 0t62.5 -64q19 -49 -2.5 -92t-71.5 -62q-19 -9 -44.5 -8t-41.5 5.5t-37 10.5t-32 7q-46 8 -109 -15l-6 -28q31 -25 53 -35.5t49 -11.5q10 -1 34 -1t39 -1.5t37.5 -9.5
t41.5 -23q42 -33 47.5 -81.5t-25.5 -86.5q-34 -38 -82 -42t-88 30q-23 19 -35 45t-18.5 56t-11.5 40q-16 43 -66 88l-30 -14q-8 -63 12 -107q3 -8 20.5 -37.5t24.5 -54t2 -55.5q-7 -55 -46 -84t-89 -21q-51 7 -78 48t-18 94q5 28 21.5 51t40.5 46t30 30q29 36 41 96l-27 22
q-35 -15 -53 -28t-33 -35q-3 -4 -22.5 -36t-37.5 -49t-46 -28q-51 -21 -94.5 -2t-61.5 66q-19 47 2.5 90.5t71.5 62.5q37 9 58 7t52.5 -11t44.5 -10q45 -8 107 12l6 31q-55 42 -100 47h-34.5t-40.5 1t-36 9t-41 23q-42 33 -47.5 81.5t25.5 86.5q32 40 81 43t89 -31
q22 -18 34 -44.5t19 -56.5t12 -40q13 -43 66 -88l28 12q8 69 -12 111q-3 6 -20.5 37t-23.5 55t-1 55q7 53 45 81.5t88 20.5q51 -6 78 -46t18 -93q-4 -28 -20.5 -51.5t-40 -45t-29.5 -30.5z" />
    <glyph glyph-name="plus" unicode="+" 
d="M596 53h-176q63 289 100 398q-195 -25 -399 -25l31 176q210 0 389 -27q5 162 45 394h176q-37 -210 -96 -394q188 27 399 27l-31 -176q-208 0 -391 25q-5 -111 -47 -398z" />
    <glyph glyph-name="comma" unicode="," horiz-adv-x="532" 
d="M162 49q-56 0 -87.5 34t-27.5 95q6 71 54 113.5t118 42.5q77 0 116 -52.5t30 -138.5q-15 -144 -117.5 -241t-263.5 -125l-11 51q271 59 308 283q-40 -62 -119 -62z" />
    <glyph glyph-name="hyphen" unicode="-" horiz-adv-x="585" 
d="M35 395q22 189 24 213q252 -8 504 0q-16 -101 -24 -213q-252 8 -504 0z" />
    <glyph glyph-name="period" unicode="." horiz-adv-x="583" 
d="M432 152q-6 -84 -60.5 -132.5t-144.5 -48.5q-86 0 -132.5 46.5t-39.5 136.5q8 80 65 130t140 50q89 0 134.5 -51t37.5 -131z" />
    <glyph glyph-name="slash" unicode="/" horiz-adv-x="778" 
d="M791 1413q-126 -317 -313.5 -884t-272.5 -891q-29 3 -117 3t-117 -3q125 318 312 885.5t274 889.5q41 -3 117 -3t117 3z" />
    <glyph glyph-name="zero" unicode="0" horiz-adv-x="1179" 
d="M514 131q93 0 156.5 122.5t101.5 387.5q25 227 4 305t-96 78q-94 0 -158.5 -120.5t-101.5 -387.5q-26 -230 -4.5 -307.5t98.5 -77.5zM506 -37q-520 0 -455 584q34 303 204.5 475t432.5 172q243 0 360.5 -143.5t90.5 -438.5q-29 -308 -196.5 -478.5t-436.5 -170.5z" />
    <glyph glyph-name="one" unicode="1" horiz-adv-x="958" 
d="M285 293q33 147 84 504l-226 -6q25 106 31 174h92q152 0 229.5 54t118.5 191q104 -8 207 0q-57 -208 -90 -415l-80 -502q-10 -61 13 -93t90 -32h100q-10 -30 -19.5 -85t-11.5 -87q-262 4 -409 4l-408 -4l31 172h108q66 0 97.5 31.5t42.5 93.5z" />
    <glyph glyph-name="two" unicode="2" horiz-adv-x="1110" 
d="M1030 457q16 -65 16.5 -132t-19 -133.5t-58.5 -117.5t-108.5 -83t-160.5 -32q-37 0 -67.5 4t-63 18t-48.5 20.5t-52.5 33.5t-43.5 33t-50 41q-38 33 -73.5 50t-84.5 17q-68 -3 -102 -43q15 6 32 6q49 0 71.5 -26.5t17.5 -67.5q-4 -39 -31.5 -59.5t-69.5 -20.5
q-56 0 -83.5 46t-18.5 122q6 53 24.5 100.5t58 99.5t112.5 101t175 90q155 63 229 133t89 168q14 97 -31.5 156t-144.5 59q-73 0 -141 -31t-109 -89q28 4 49 4q75 0 117.5 -44.5t30.5 -113.5q-10 -66 -58.5 -101.5t-120.5 -35.5q-82 0 -124.5 63t-16.5 180q32 139 179 234.5
t327 95.5q218 0 320 -95t81 -251q-21 -161 -169 -267t-390 -145q-183 -29 -284 -108q58 31 145 31q77 0 199 -33q108 -31 188 -31q81 2 117.5 32t42.5 107z" />
    <glyph glyph-name="three" unicode="3" horiz-adv-x="1214" 
d="M1141 825q-20 -130 -109.5 -218.5t-230.5 -119.5q159 -25 233.5 -122.5t55.5 -231.5q-16 -111 -72 -194t-144.5 -133.5t-200.5 -75t-247 -23.5q-227 1 -335.5 98.5t-80.5 260.5q17 96 76.5 149t144.5 53q78 0 118.5 -45.5t31.5 -116.5q-9 -76 -59.5 -116t-126.5 -37
q-35 0 -58 10q20 -59 84 -86t148 -27q141 0 216 70.5t97 218.5q20 133 -39 201t-192 68h-56l21 127h53q248 3 293 260q19 111 -28.5 177t-155.5 66q-84 0 -152.5 -31.5t-106.5 -88.5q24 8 62 8q77 -1 115.5 -43t29.5 -109q-8 -67 -55.5 -106t-124.5 -39q-88 0 -131 57
t-25 158q29 153 177.5 255.5t365.5 102.5q223 0 330 -98.5t78 -278.5z" />
    <glyph glyph-name="four" unicode="4" horiz-adv-x="1161" 
d="M420 23q3 12 15 63.5t20 83.5q-211 2 -469 -2l18 106l750 938q40 -2 139.5 -2t140.5 2q-98 -462 -172 -931l211 6q-4 -12 -13 -63.5t-9 -63.5l-207 4q-20 -136 -21 -141q-6 -49 11.5 -71t72.5 -22h84q-10 -37 -28 -166q-255 5 -396 5l-403 -5q6 23 26 166h109
q57 0 82 19.5t39 73.5zM590 844q-60 -82 -208 -293t-196 -275q90 -2 291 -2q74 328 113 570z" />
    <glyph glyph-name="five" unicode="5" horiz-adv-x="1175" 
d="M422 479q-57 0 -109.5 -14t-80.5 -27.5t-68 -38.5l-43 54q208 315 225 757q47 -18 156.5 -30.5t226.5 -12.5q115 0 228 18t184 48q5 -74 14 -129q-132 -270 -469 -270q-185 0 -295 65q-50 -208 -121 -342q180 90 383 90q232 0 337.5 -127.5t72.5 -333.5
q-36 -226 -202 -352.5t-449 -126.5q-230 0 -335 102t-75 265q15 90 73 142t144 52q76 0 118 -44t34 -118q-9 -75 -57 -115t-121 -40q-38 0 -68 12q18 -53 71.5 -83t137.5 -30q135 0 207.5 82.5t97.5 235.5q24 150 -29 230.5t-188 80.5z" />
    <glyph glyph-name="six" unicode="6" horiz-adv-x="1230" 
d="M891 1335q-158 0 -243.5 -131.5t-139.5 -453.5q53 68 135.5 107.5t185.5 39.5q197 0 283.5 -115t52.5 -327q-35 -227 -199.5 -357.5t-402.5 -130.5q-285 0 -394 166t-52 524q31 200 101 354t166.5 250t213 144.5t248.5 48.5q193 0 284 -83.5t78 -211.5q-7 -96 -63.5 -147
t-151.5 -51q-81 0 -122 43t-33 110q7 71 59 110.5t133 39.5q25 0 53 -7q-54 78 -192 78zM463 440q-13 -103 -11 -174t35.5 -108t102.5 -37q88 0 136.5 79t74.5 240q24 156 -4 228.5t-109 72.5q-93 0 -147.5 -70t-77.5 -231z" />
    <glyph glyph-name="seven" unicode="7" horiz-adv-x="1138" 
d="M313 1200q0 -33 4 -115q33 53 91.5 83t132.5 30q68 0 121 -23.5t112 -78.5q78 -69 122.5 -94t88.5 -25q58 0 80 37h-16q-56 -6 -87.5 22.5t-31.5 73.5q0 51 31 81t81 30q62 0 96 -46.5t21 -127.5q-13 -83 -63.5 -155t-157.5 -167q-72 -62 -119.5 -111.5t-94.5 -119
t-72.5 -144t-40 -177.5t-11.5 -230q3 -120 -58.5 -182t-158.5 -62q-107 0 -162 60.5t-49 185.5q10 240 154.5 421t412.5 318q153 76 219 145q-104 -71 -235 -71q-56 0 -103.5 13.5t-111.5 45.5q-73 39 -121 39q-96 0 -117 -149q-19 3 -78 3t-79 -3q25 94 46.5 241t24.5 252
q19 -3 63 -3t66 3z" />
    <glyph glyph-name="eight" unicode="8" horiz-adv-x="1189" 
d="M520 -29q-272 0 -393 93t-96 260q17 106 92.5 181t198.5 111q-191 132 -140 406q38 203 192.5 317.5t393.5 114.5q215 0 323.5 -94.5t86.5 -241.5q-27 -177 -215 -268q128 -72 171.5 -181.5t18.5 -256.5q-34 -208 -199.5 -324.5t-433.5 -116.5zM524 528q-56 15 -102 33
q-66 -36 -109 -93.5t-53 -129.5q-14 -97 55.5 -151.5t225.5 -55.5q158 -3 248.5 40.5t101.5 113.5q6 37 -4.5 63.5t-48.5 56t-114 59t-200 64.5zM770 926l82 -25q102 85 119 207q11 89 -43 142.5t-183 54.5q-122 2 -201.5 -45.5t-88.5 -129.5q-5 -39 5 -64.5t47.5 -49
t96.5 -43t166 -47.5z" />
    <glyph glyph-name="nine" unicode="9" horiz-adv-x="1185" 
d="M344 -180q114 0 184 48.5t120 174t87 358.5q-48 -67 -124.5 -106t-176.5 -39q-198 0 -284 111t-56 319q33 231 195 369.5t407 138.5q544 0 437 -709q-118 -778 -740 -778q-202 0 -309 88.5t-78 241.5q17 85 78.5 132.5t142.5 47.5q89 0 135.5 -47.5t32.5 -124.5
q-8 -42 -32 -72.5t-56.5 -45t-63 -21t-61.5 -6.5q-33 0 -63 10q32 -40 91 -65t134 -25zM786 735q28 167 5 249.5t-113 82.5q-94 0 -141.5 -79t-73.5 -253q-24 -181 0 -252t104 -71q60 0 100 27t70 98.5t49 197.5z" />
    <glyph glyph-name="colon" unicode=":" horiz-adv-x="520" 
d="M475 760q-4 -67 -49 -106.5t-117 -39.5q-70 0 -108 38.5t-31 109.5q4 64 51 105.5t115 41.5q72 0 108.5 -41.5t30.5 -107.5zM373 242q-5 -68 -49 -107t-117 -39q-70 0 -108 38.5t-31 109.5q6 66 51.5 106.5t113.5 40.5q73 0 110.5 -41.5t29.5 -107.5z" />
    <glyph glyph-name="semicolon" unicode=";" horiz-adv-x="520" 
d="M166 113q-52 0 -77 32t-19 93q5 61 47.5 99t111.5 38q76 0 110 -52t26 -141q-12 -141 -123.5 -239.5t-280.5 -130.5l-10 51q158 35 242 117.5t92 203.5q-30 -71 -119 -71zM463 760q-5 -68 -49 -107t-117 -39q-70 0 -108 38.5t-31 109.5q6 65 52.5 106t113.5 41
q73 0 110 -41.5t29 -107.5z" />
    <glyph glyph-name="less" unicode="&#x3c;" 
d="M246 477l16 80q405 222 649 377l47 -152q-162 -86 -577 -270q317 -180 469 -281l-92 -145q-92 87 -512 391z" />
    <glyph glyph-name="equal" unicode="=" 
d="M119 266q17 68 28 164q453 -8 902 0q-19 -83 -29 -164q-449 8 -901 0zM178 600q22 91 31 162q449 -8 901 0q-23 -94 -31 -162q-449 8 -901 0z" />
    <glyph glyph-name="greater" unicode="&#x3e;" 
d="M965 543l-15 -80q-333 -182 -651 -377l-45 147q185 100 573 275q-111 63 -254.5 150.5t-212.5 136.5l93 139q107 -102 512 -391z" />
    <glyph glyph-name="question" unicode="?" horiz-adv-x="1222" 
d="M815 575l21 -59q-146 -99 -308 -96q-74 1 -113.5 38.5t-33.5 96.5q4 53 47 95.5t131 86.5q107 55 165 124t71 169q15 122 -37 187.5t-160 68.5q-81 0 -151.5 -32.5t-110.5 -86.5q52 19 106 19q72 -3 107.5 -46.5t23.5 -123.5q-11 -68 -64.5 -110.5t-137.5 -39.5
q-82 2 -126.5 63t-27.5 169q24 152 169.5 254t361.5 102q126 0 217 -29.5t140 -82t67.5 -119.5t7.5 -148q-22 -156 -142 -256.5t-336 -177.5q-98 -35 -129.5 -55t-33.5 -43q-3 -40 55 -43q100 -3 221 75zM705 133q-3 -79 -52 -124.5t-137 -45.5q-82 0 -128 44.5t-42 129.5
q3 78 54 126t130 48q87 0 132.5 -49t42.5 -129z" />
    <glyph glyph-name="at" unicode="@" horiz-adv-x="1679" 
d="M1337 891q-26 -101 -59.5 -259.5t-46.5 -248.5q-35 -193 69 -193q70 0 126 75t81 194q25 128 24.5 238.5t-38 200t-103.5 153.5t-173 98.5t-246 34.5q-190 0 -341 -73t-254.5 -224.5t-137.5 -368.5q-55 -359 88 -544t440 -185q157 0 291 45.5t223 122.5l45 -47
q-91 -95 -241.5 -151t-313.5 -56q-133 0 -244.5 27t-193.5 78.5t-142 124.5t-90 164.5t-38 199t14 227.5q38 230 166 399.5t315 255t410 85.5q376 0 547 -216.5t85 -590.5q-40 -177 -139.5 -276t-263.5 -99q-114 0 -182 46.5t-72 137.5q-51 -93 -128 -135.5t-165 -42.5
q-120 0 -182 84.5t-37 255.5q18 129 61 227.5t101 155.5t123 85t135 28q96 0 147 -41t62 -109q84 68 106 117q86 -4 172 0zM793 229q51 0 98 82.5t82 263.5q41 218 -53 218q-56 0 -104.5 -87t-82.5 -270q-38 -207 60 -207z" />
    <glyph glyph-name="A" unicode="A" horiz-adv-x="1798" 
d="M1024 436q-201 6 -487 2l-25 -51q-47 -98 -33 -145t96 -47h76q-16 -81 -30 -199q-205 4 -322 4l-326 -4q21 114 31 199h51q84 0 134.5 40t105.5 140q104 189 280.5 526t270.5 526q122 -4 190 -4l189 4q38 -185 118 -522t132 -530q27 -103 62 -141.5t97 -38.5h66
q-14 -57 -31 -199q-274 4 -428 4l-428 -4q21 113 31 199h82q73 0 97 47.5t9 146.5q-1 4 -2.5 13t-3 17.5t-2.5 16.5zM594 551q208 -3 405 0q-81 386 -120 553q-21 -40 -128.5 -247.5t-156.5 -305.5z" />
    <glyph glyph-name="B" unicode="B" horiz-adv-x="1478" 
d="M1391 367q-28 -192 -184.5 -280.5t-477.5 -88.5q-225 2 -362 2l-394 -4q27 168 31 199h74q64 0 85.5 19t35.5 81q18 70 71.5 418.5t53.5 408.5q2 53 -17 75t-71 22h-86q8 33 17.5 97.5t10.5 94.5q5 0 87 -1t178.5 -2t136.5 -1q50 0 181 1t165 1q149 0 255 -29.5
t161.5 -83t76 -121t8.5 -151.5q-17 -117 -96.5 -194t-202.5 -111q139 -35 211.5 -125.5t51.5 -226.5zM731 651h-100q-49 -323 -49 -372q-1 -49 16 -71t57 -22h70q125 0 186 55t80 181q18 124 -46 176.5t-214 52.5zM713 1137q-14 -46 -62 -361l94 2q147 3 209.5 48.5
t83.5 181.5q17 109 -29.5 165t-148.5 56h-49q-69 0 -98 -92z" />
    <glyph glyph-name="C" unicode="C" horiz-adv-x="1462" 
d="M854 1454q178 0 344 -90q111 -60 131 59q26 -3 84 -3t84 3q-39 -91 -70 -246t-41 -286q-2 0 -49 2t-65 2q-17 0 -68.5 -2t-54.5 -2q26 168 -35 261t-215 93q-107 0 -179.5 -49t-125 -167.5t-82.5 -319.5q-17 -110 -19 -196t10.5 -144t33.5 -98t54 -61.5t68 -30.5t80 -9
q167 0 259.5 95.5t127.5 285.5q16 -4 125 -4q113 0 129 4q-52 -306 -215.5 -454t-472.5 -148q-344 0 -498.5 183.5t-97.5 576.5q39 252 144 420.5t258.5 246.5t355.5 78z" />
    <glyph glyph-name="D" unicode="D" horiz-adv-x="1640" 
d="M969 1409q350 0 500 -176.5t100 -546.5q-96 -688 -803 -688q-266 2 -399 2l-394 -4q6 25 17.5 100.5t13.5 98.5h76q62 0 85.5 25.5t39.5 94.5q15 72 65.5 404.5t53.5 388.5q3 62 -15.5 86.5t-72.5 24.5h-86q6 24 16 96t12 98q216 -6 395 -6q90 0 227.5 1t168.5 1z
M584 291q-3 -54 19 -79.5t71 -25.5h53q97 0 167.5 23t128 79.5t95.5 155.5t60 246q19 126 19.5 215t-16 152.5t-55.5 100t-96 53t-141 16.5h-66q-84 0 -110 -86q-12 -40 -69 -415t-60 -435z" />
    <glyph glyph-name="E" unicode="E" horiz-adv-x="1482" 
d="M938 971l8 55h156q-41 -180 -60 -311q-22 -145 -32 -320h-154l6 49q14 105 -16.5 153t-126.5 52h-92q-41 -255 -45 -340q-4 -64 23.5 -89t84.5 -25h203q82 0 134 14t90.5 53.5t60.5 104.5t39 172l2 20q26 -1 104 -1t104 1q-43 -177 -94 -567q-117 8 -418 8h-536l-404 -4
q27 168 31 199h74q32 0 52.5 6.5t33.5 24t19.5 35.5t15.5 54q17 64 69.5 397t55.5 394q3 59 -17.5 86t-72.5 27h-84q6 24 16 96t12 98q4 0 84.5 -1.5t177.5 -3t142 -1.5h491q76 0 244 4t231 12q-23 -94 -52 -262.5t-40 -265.5q-28 1 -99.5 1t-94.5 -1l4 27q9 65 10.5 111.5
t-8 79.5t-25 53t-46 31.5t-66 15.5t-89.5 4h-206q-60 0 -89 -23.5t-44 -89.5q-15 -59 -60 -328h74q106 0 155 44t64 151z" />
    <glyph glyph-name="F" unicode="F" horiz-adv-x="1466" 
d="M946 1026h156q-34 -146 -60 -315q-19 -123 -34 -316h-152l8 58q15 107 -23.5 151.5t-154.5 44.5h-59q-44 -278 -47 -350q-4 -66 20 -85t94 -19h119q-10 -40 -29 -199q-260 4 -407 4l-402 -4q14 57 31 199h74q33 0 52.5 4.5t32.5 20t19.5 32.5t16.5 55q17 63 69.5 400.5
t55.5 398.5q5 60 -15.5 86.5t-72.5 26.5h-84q24 132 28 194q32 0 198.5 -3t203.5 -3h483q355 0 483 16q-24 -105 -56 -289t-44 -284q-25 2 -96.5 2t-96.5 -2l13 78q8 58 9 100.5t-4 74t-20.5 52t-33.5 33t-50.5 19t-64 8.5t-80.5 2h-186q-61 0 -90.5 -24t-44.5 -89
q-19 -70 -58 -328h64q110 0 160 45t69 164z" />
    <glyph glyph-name="G" unicode="G" horiz-adv-x="1632" 
d="M743 166q273 0 316 280q11 81 -9.5 116.5t-86.5 35.5h-66l23 156q217 -4 340 -4l337 4l-22 -156h-53q-44 0 -64 -25t-28 -84q-48 -327 -50 -489q-31 3 -117.5 3t-117.5 -3q-13 99 -31 195q-71 -110 -196 -178t-281 -68q-79 0 -147.5 12.5t-131 39.5t-111 69.5
t-86.5 102.5t-56.5 138.5t-22.5 177.5t16 220q29 189 98.5 332.5t170 233t224.5 134.5t271 45q112 0 193.5 -21t154.5 -65q49 -31 87.5 -17.5t48.5 72.5q26 -3 83.5 -3t83.5 3q-39 -90 -69.5 -245t-40.5 -287q-70 2 -113 2l-125 -2q33 172 -32 263t-228 91
q-110 0 -184 -48.5t-126.5 -167t-82.5 -320.5q-16 -110 -17.5 -196t11 -144.5t34 -99t54.5 -62.5t68.5 -31.5t80.5 -9.5z" />
    <glyph glyph-name="H" unicode="H" horiz-adv-x="1742" 
d="M-27 -4q7 29 29 199h76q64 0 83.5 17.5t37.5 82.5q18 69 73.5 417.5t55.5 407.5q0 55 -18.5 77t-69.5 22h-84q6 24 16 95.5t12 96.5q242 -4 377 -4q80 0 225.5 2t149.5 2q-22 -116 -27 -192h-73q-55 0 -84.5 -25t-46.5 -86q-18 -68 -62 -358q241 -4 508 0q46 301 49 358
q4 59 -19 85t-79 26h-74q6 26 16.5 98t10.5 94q244 -4 381 -4q80 0 227.5 2t151.5 2q-6 -23 -16.5 -95t-12.5 -97h-84q-54 0 -80.5 -24.5t-44.5 -86.5q-14 -58 -68 -405.5t-59 -407.5q-3 -57 18.5 -78.5t87.5 -21.5h76q-6 -24 -16 -99.5t-10 -99.5q-244 4 -379 4l-381 -4
q20 112 26 199h72q65 0 89 21.5t40 78.5q12 45 57 323q-195 3 -507 -2q-40 -245 -45 -321q-3 -56 16.5 -78t85.5 -22h74q-6 -24 -16.5 -99.5t-10.5 -99.5q-242 4 -377 4z" />
    <glyph glyph-name="I" unicode="I" horiz-adv-x="864" 
d="M-29 -4q7 29 29 199h76q64 0 84.5 18t36.5 82q17 58 71.5 404.5t57.5 408.5q5 61 -14 86t-74 25h-84q7 28 28 192q242 -4 377 -4q80 0 225.5 2t149.5 2q-22 -116 -27 -192h-73q-55 0 -85 -25.5t-47 -85.5q-15 -59 -69.5 -409.5t-57.5 -403.5q-3 -56 16.5 -78t86.5 -22h74
q-22 -123 -27 -199q-242 4 -377 4z" />
    <glyph glyph-name="J" unicode="J" horiz-adv-x="1196" 
d="M139 145h-18q64 -61 168 -61q111 0 177.5 70.5t96.5 238.5q113 624 115 715q3 61 -15 86t-73 25h-82q26 142 29 192q237 -4 370 -4q79 0 222 2t147 2q-6 -23 -16.5 -95t-12.5 -97h-69q-54 0 -82 -23t-39 -88q-20 -102 -115 -705q-69 -454 -584 -454q-204 0 -301.5 94
t-76.5 242q14 90 76.5 145t152.5 55q82 0 123.5 -48t29.5 -128q-8 -50 -32.5 -85t-58.5 -51.5t-66 -23t-66 -4.5z" />
    <glyph glyph-name="K" unicode="K" horiz-adv-x="1697" 
d="M-27 -4q11 47 31 199h74q62 0 84.5 22.5t40.5 91.5q14 61 68 403t57 394q3 60 -18.5 86.5t-80.5 26.5h-73q11 61 28 192q242 -4 379 -4q80 0 226.5 2t150.5 2q-15 -79 -29 -192h-82q-95 0 -122 -113q-16 -59 -66 -385l465 356q36 27 42.5 60.5t-16.5 57.5t-67 24h-68
q13 55 31 192q240 -4 373 -4q79 0 223 2t148 2q-15 -56 -31 -192h-74q-102 0 -181.5 -32.5t-182.5 -109.5l-209 -155q59 -125 155 -311.5t154 -288.5q42 -75 71.5 -101t90.5 -26h45q-25 -140 -29 -199q-244 4 -381 4l-383 -4q25 138 29 199h53q64 0 80.5 42.5t-16.5 114.5
q-47 108 -181 338l-164 -121q-34 -219 -34 -260q-2 -55 16.5 -84.5t67.5 -29.5h75q-23 -120 -28 -199q-232 4 -369 4z" />
    <glyph glyph-name="L" unicode="L" horiz-adv-x="1374" 
d="M958 1411l-28 -192h-82q-63 0 -97 -27.5t-49 -93.5q-16 -72 -67.5 -402.5t-54.5 -392.5q-3 -63 22 -85.5t84 -22.5h107q132 0 208 72t111 251l16 82q23 -2 95.5 -2t95.5 2q-23 -114 -55 -308t-45 -300q-96 8 -404 8h-547q-28 0 -154 -2t-141 -2q11 47 31 199h78
q62 0 83 25t38 95q16 69 69 397.5t56 385.5q3 65 -14 93t-72 28h-86q7 28 28 192q248 -4 387 -4q61 0 152 1t160 2t75 1z" />
    <glyph glyph-name="M" unicode="M" horiz-adv-x="2019" 
d="M813 111q-117 364 -297 870q-73 -438 -92 -641q-16 -145 113 -145h86q-6 -22 -16.5 -97.5t-12.5 -101.5q-192 4 -303 4l-316 -4q25 138 29 199h74q121 0 151 145q14 63 62.5 377.5t54.5 380.5q9 121 -104 121h-82q6 24 16 95.5t12 96.5q318 -8 631 0q80 -249 252 -733
q200 315 451 733q286 -8 571 0q-10 -52 -27 -192h-81q-105 0 -134 -127q-15 -58 -63.5 -373t-54.5 -387q-5 -75 14 -106t86 -31h84q-5 -25 -15.5 -100.5t-11.5 -98.5q-254 4 -397 4l-397 -4q9 38 30 199h78q64 0 97.5 35t46.5 104q31 154 102 653q-279 -437 -545 -876h-92z
" />
    <glyph glyph-name="N" unicode="N" horiz-adv-x="1691" 
d="M770 1411q53 -126 455 -881q67 399 80 557q6 72 -19.5 102t-83.5 30h-110q6 24 16 95.5t12 96.5q21 0 139.5 -2t184.5 -2l321 4q-6 -22 -16 -94t-12 -98h-86q-57 0 -91 -30t-51 -102q-25 -114 -80.5 -494t-80.5 -595q-44 3 -162 3t-162 -3q-51 112 -500 973
q-75 -434 -96 -645q-5 -61 27 -96t100 -35h90q-5 -28 -16.5 -102t-12.5 -97q-208 4 -325 4l-324 -4q15 80 29 199h70q66 0 106.5 35t54.5 96q20 90 67 393.5t50 378.5q3 63 -21 92t-90 29h-83q11 61 28 192q294 -8 592 0z" />
    <glyph glyph-name="O" unicode="O" horiz-adv-x="1626" 
d="M750 158q168 0 256 127.5t133 425.5q19 125 21.5 215t-10 152t-43.5 98.5t-76 52.5t-111 16q-163 0 -255 -121t-135 -415q-33 -203 -18.5 -325.5t71 -174t167.5 -51.5zM721 -51q-167 0 -294 49t-208.5 143t-111.5 238.5t-3 329.5q29 189 103.5 332.5t185.5 233
t250.5 134.5t304.5 45q360 0 515.5 -188.5t99.5 -554.5q-23 -155 -77.5 -281t-132.5 -215t-178.5 -149t-214 -88.5t-239.5 -28.5z" />
    <glyph glyph-name="P" unicode="P" horiz-adv-x="1452" 
d="M784 465q-98 0 -180 8q-20 -130 -20 -160q-3 -64 19 -91t89 -27h101q-9 -36 -29 -199q-252 4 -395 4l-389 -4q18 97 30 199h66q62 0 87 22.5t40 87.5q18 66 71 409t56 404q4 56 -16 78.5t-72 22.5h-86q6 24 16 96.5t12 97.5q129 -6 389 -6h351q136 0 235.5 -25t170 -79
t99.5 -146t13 -221q-30 -239 -202.5 -355t-455.5 -116zM713 1130q-20 -77 -86 -501h104q141 0 215.5 72t97.5 227q24 165 -22.5 229t-169.5 64h-39q-79 0 -100 -91z" />
    <glyph glyph-name="Q" unicode="Q" horiz-adv-x="1626" 
d="M721 -51q-167 0 -294 49t-208.5 143t-111.5 238.5t-3 329.5q29 189 103.5 332.5t185.5 233t250.5 134.5t304.5 45q360 0 515.5 -188.5t99.5 -554.5q-40 -271 -171 -447t-329 -254q3 -129 26 -178t80 -49q61 0 93 46.5t43 139.5l81 -4q-11 -81 -35.5 -143t-66.5 -111
t-108.5 -74.5t-155.5 -25.5q-336 0 -272 338h-27zM786 473q172 0 236 -162q76 130 117 400q19 125 21.5 215t-10 152t-43.5 98.5t-76 52.5t-111 16q-163 0 -255 -121t-135 -415q-49 -314 9 -441q12 104 77 154.5t170 50.5zM737 158q52 0 70 4q27 120 5 177.5t-85 57.5
q-50 0 -84.5 -31.5t-40.5 -86.5q-6 -58 27 -89.5t108 -31.5z" />
    <glyph glyph-name="R" unicode="R" horiz-adv-x="1648" 
d="M1298 377q-1 -123 15 -172t57 -49q42 0 62 79t12 179l115 10q6 -93 -9 -173.5t-53 -148.5t-111.5 -107.5t-175.5 -39.5q-109 0 -179 26.5t-101.5 76.5t-41.5 121t1 159q8 84 -0.5 139.5t-36.5 85t-66.5 40.5t-97.5 11h-70q-40 -261 -40 -311q0 -59 22.5 -83.5t79.5 -24.5
h80q-5 -28 -16.5 -102t-12.5 -97q-246 4 -383 4l-375 -4q14 57 31 199h68q62 0 86 18.5t43 81.5q15 59 69.5 406.5t57.5 406.5q5 62 -13.5 86.5t-74.5 24.5h-84q16 85 26 194q11 0 184.5 -3t219.5 -3q48 0 185 1t177 1q294 0 422.5 -98.5t106.5 -288.5q-16 -146 -117.5 -236
t-249.5 -122q103 -28 145.5 -99.5t42.5 -187.5zM707 1130q-14 -44 -68 -382h135q142 0 211 56.5t88 184.5q17 120 -30 178t-166 58h-48q-54 0 -81 -23t-41 -72z" />
    <glyph glyph-name="S" unicode="S" horiz-adv-x="1396" 
d="M774 1278q-287 0 -311 -158q-14 -89 55 -129t268 -57q150 -9 258 -53t168.5 -116.5t80.5 -169t1 -214.5q-30 -196 -189 -312t-419 -116q-116 0 -227 27t-185 71q-98 57 -124 -53q-28 3 -87.5 3t-87.5 -3q40 92 68.5 226t36.5 253q25 -3 82 -3t80 3q-6 -166 99 -250
t335 -84q296 0 317 168q11 95 -60.5 139.5t-270.5 61.5q-269 17 -399 157t-93 367q23 141 106.5 237.5t208.5 140t285 40.5q173 -2 340 -84q46 -28 77.5 -18t47.5 71q26 -3 81 -3t81 3q-44 -101 -65 -203.5t-27 -236.5q-25 1 -77 1t-75 -1q-5 135 -104.5 215t-274.5 80z" />
    <glyph glyph-name="T" unicode="T" horiz-adv-x="1503" 
d="M1161 1200h-133q-123 -727 -135 -895q-5 -54 20 -82t91 -28h81q-7 -28 -28 -199q-255 4 -398 4l-399 -4q6 24 16.5 99t12.5 100h80q68 0 100.5 25t46.5 85q46 193 137 895h-127q-81 0 -125 -46.5t-65 -143.5l-35 -160q-94 7 -199 0q19 105 43 284.5t33 282.5
q205 -10 379 -10h635q96 0 170 2t131 4.5t76 3.5q-75 -388 -96 -567q-99 8 -197 0l18 160q9 93 -22 141.5t-111 48.5z" />
    <glyph glyph-name="U" unicode="U" horiz-adv-x="1683" 
d="M225 553q10 56 44 273.5t38 271.5q3 66 -15.5 93.5t-74.5 27.5h-63q11 61 28 192q248 -4 385 -4q81 0 229 2t152 2q-13 -49 -30 -192h-80q-58 0 -89.5 -27.5t-50.5 -93.5q-5 -21 -12 -60.5t-15.5 -100t-16 -113.5t-18.5 -137.5t-18 -133.5q-29 -198 28.5 -282.5
t203.5 -84.5q147 0 227.5 82.5t114.5 284.5q74 439 82 545q9 121 -100 121h-72q6 24 16 95.5t12 96.5q203 -4 318 -4q66 0 186 2t127 2q-13 -65 -28 -192h-64q-54 0 -83.5 -29.5t-41.5 -91.5q-13 -66 -80 -547q-48 -308 -222.5 -453t-467.5 -145q-106 0 -190 13.5t-153 43
t-114 76.5t-73.5 113.5t-31 154.5t12.5 199z" />
    <glyph glyph-name="V" unicode="V" horiz-adv-x="1648" 
d="M770 1042q34 -248 127 -702q236 488 320 700q37 88 23.5 133.5t-85.5 45.5h-51q9 37 29 192q194 -4 305 -4q65 0 181.5 2t123.5 2q-22 -116 -27 -192h-55q-84 0 -133.5 -33.5t-97.5 -130.5q-94 -188 -253 -528t-247 -539q-193 8 -385 0q-117 734 -193 1077
q-18 85 -53 119.5t-117 34.5h-43q23 125 27 192q256 -4 399 -4q85 0 240 2t158 2q-6 -23 -16.5 -95t-12.5 -97h-60q-127 0 -104 -177z" />
    <glyph glyph-name="W" unicode="W" horiz-adv-x="2328" 
d="M1663 -12q-195 8 -391 0q-37 387 -98 796q-173 -385 -345 -796q-179 8 -358 0q-69 677 -131 1095q-10 73 -42.5 104.5t-113.5 31.5h-51q26 142 29 192q254 -4 395 -4q63 0 155 1t162 2t78 1q-24 -123 -28 -192h-58q-62 0 -85 -32t-17 -104q3 -43 37 -317t53 -414
q213 476 311 731q52 136 -67 136h-45q6 25 17.5 97t12.5 95q211 -4 330 -4q71 0 198 2t130 2q-21 -107 -31 -192h-51q-52 0 -76 -31.5t-20 -100.5q19 -234 92 -741q15 35 71 167t89.5 211.5t75.5 183t63 163.5q54 148 -68 148h-47q6 25 18 97t13 95q180 -4 280 -4
q59 0 165.5 2t113.5 2q-6 -24 -18 -96t-13 -96h-69q-72 0 -118.5 -31.5t-86.5 -116.5q-142 -300 -461 -1083z" />
    <glyph glyph-name="X" unicode="X" horiz-adv-x="1654" 
d="M786 381q-46 103 -92 199q-157 -171 -174 -197q-46 -64 -57.5 -108t4 -62t51.5 -18h47q-11 -43 -30 -199q-185 4 -289 4l-291 -4q11 47 31 199h28q56 0 104 12t83.5 29t78.5 53t71.5 66t80.5 87q3 3 52 57t91.5 101.5t69.5 81.5q-114 230 -192 379q-46 89 -98 123.5
t-142 34.5h-74q15 80 29 192q293 -4 457 -4l456 4q-25 -135 -28 -192h-47q-62 0 -84.5 -48.5t8.5 -128.5q47 -113 98 -217l170 215q33 41 45.5 76t6 57t-24.5 34t-45 12h-31q26 143 29 192q180 -4 278 -4l287 4q-15 -79 -29 -192h-41q-67 0 -115 -11t-90 -40t-69 -56.5
t-74 -83.5q-60 -71 -248 -307q152 -301 197 -383q40 -76 93.5 -109.5t137.5 -33.5h56q-5 -28 -16.5 -102t-12.5 -97q-283 4 -445 4l-444 -4q6 24 16.5 99t12.5 100h63q33 0 53 18.5t23 60t-25 107.5z" />
    <glyph glyph-name="Y" unicode="Y" horiz-adv-x="1718" 
d="M1425 1067q-153 -208 -385 -569l-26 -187q-10 -64 10.5 -90t93.5 -26h96q-12 -64 -28 -199q-272 4 -426 4l-428 -4q6 24 16 98.5t12 100.5h91q75 0 103 24.5t36 87.5l26 180q-96 286 -223 605q-29 70 -76 98.5t-143 28.5h-33q6 24 16.5 96t12.5 96q278 -4 436 -4l438 4
q-6 -24 -16 -95.5t-12 -96.5h-62q-142 0 -96 -175q32 -109 135 -356q175 257 230 356q22 42 32.5 71.5t10 54.5t-20 37t-59.5 12h-51q6 24 16 95.5t12 96.5q207 -4 324 -4l319 4q-6 -22 -16 -94t-12 -98h-41q-88 0 -147 -19t-91.5 -48t-73.5 -85z" />
    <glyph glyph-name="Z" unicode="Z" horiz-adv-x="1370" 
d="M-25 0q26 133 29 184q314 335 907 1033h-229q-94 0 -152.5 -11.5t-101.5 -43t-66.5 -83.5t-39.5 -137l-17 -90q-90 8 -176 0q19 93 47 277t39 288q253 -10 434 -10h772q-5 -26 -16 -93.5t-12 -88.5q-321 -349 -899 -1030h272q76 0 133.5 14.5t105.5 48.5t78.5 96.5
t42.5 153.5l11 78q92 -8 180 0q-50 -263 -92 -594q-156 8 -398 8h-852z" />
    <glyph glyph-name="bracketleft" unicode="[" horiz-adv-x="667" 
d="M63 152l162 993q16 104 31 227t22 194l7 72q233 -8 467 0q-17 -78 -23 -155h-49q-55 0 -80 -21.5t-43 -79.5q-17 -57 -132 -753t-118 -754t17 -79t88 -21h32q-21 -97 -26 -158q-230 8 -461 0q57 233 106 535z" />
    <glyph glyph-name="backslash" unicode="\" horiz-adv-x="778" 
d="M537 -362q-55 319 -186 885t-224 890q38 -3 111.5 -3t111.5 3q55 -320 185.5 -886t222.5 -889q-25 3 -110 3t-111 -3z" />
    <glyph glyph-name="bracketright" unicode="]" horiz-adv-x="667" 
d="M586 1116l-162 -964q-22 -137 -37.5 -271t-20.5 -199l-4 -65q-225 8 -450 0q5 20 14.5 84t10.5 84h30q66 0 91.5 21t41.5 79q15 62 132 752t120 745q5 57 -15 79t-75 22h-49q20 91 25 155q228 -8 456 0q-71 -280 -108 -522z" />
    <glyph glyph-name="asciicircum" unicode="^" 
d="M719 1454h37q22 -33 70.5 -120t86.5 -158t94.5 -179.5t59.5 -113.5l-139 -72q-30 66 -98.5 251t-106.5 300q-275 -421 -379 -551l-121 72q77 98 251 299t245 272z" />
    <glyph glyph-name="underscore" unicode="_" horiz-adv-x="1024" 
d="M-16 -383q11 43 32 197q161 -3 510.5 -3t513.5 3q-11 -48 -32 -197q-161 3 -510.5 3t-513.5 -3z" />
    <glyph glyph-name="grave" unicode="`" horiz-adv-x="1089" 
d="M778 1124l-16 -24q-86 21 -183.5 58.5t-160.5 78.5q-65 39 -66 93.5t48 72.5t118 -12q113 -70 260 -267z" />
    <glyph glyph-name="a" unicode="a" horiz-adv-x="1179" 
d="M1163 383q-18 -196 -105 -311t-229 -115q-114 0 -163.5 53t-42.5 174q-53 -112 -136.5 -169.5t-185.5 -57.5q-132 0 -195.5 102t-35.5 322q20 154 68 273.5t112.5 191t137.5 107.5t151 36q211 0 239 -188q97 89 131 151q23 -2 88 -2t88 2q-28 -120 -69.5 -324t-59.5 -319
q-17 -114 -14 -159.5t29 -45.5q36 0 65 77t47 206zM459 106q66 0 126.5 113.5t100.5 337.5q19 104 21 163.5t-16 89.5t-60 30q-138 0 -217 -455q-20 -112 -21.5 -171.5t14 -83.5t52.5 -24z" />
    <glyph glyph-name="b" unicode="b" horiz-adv-x="1116" 
d="M184 1249h-41l13 162q220 -8 440 0q0 -27 -2 -56t-4.5 -51t-7 -52.5t-7.5 -45.5t-9 -46.5t-7 -39.5l-65 -336q106 205 303 205q131 0 197.5 -108t39.5 -314q-21 -161 -67.5 -281.5t-110.5 -191t-137.5 -104t-157.5 -33.5q-246 0 -246 256q-116 -109 -168 -215
q-19 3 -62 3t-62 -3q180 841 229 1143q9 55 -3.5 81.5t-64.5 26.5zM643 840q-66 0 -126.5 -113.5t-100.5 -337.5q-15 -79 -19.5 -129.5t1 -86.5t23.5 -51.5t50 -15.5q138 0 215 457q20 112 22 170.5t-13 82.5t-52 24z" />
    <glyph glyph-name="c" unicode="c" horiz-adv-x="970" 
d="M426 -43q-221 0 -306 124.5t-38 391.5q50 256 188.5 386t345.5 130q162 0 239.5 -67t72.5 -181q-4 -95 -51.5 -145.5t-128.5 -50.5q-66 0 -107 41.5t-25 118.5q11 57 57 83t103 21q-27 55 -104 55q-45 0 -76 -13.5t-62 -54t-57 -117.5t-53 -200q-32 -135 -27 -211.5
t32 -104.5t85 -28q70 0 115 50t69 161q175 -10 179 -10q-78 -379 -451 -379z" />
    <glyph glyph-name="d" unicode="d" horiz-adv-x="1177" 
d="M1118 1155q-126 -576 -170 -844q-21 -121 -18.5 -164t35.5 -43q37 0 64.5 76.5t43.5 206.5l80 -4q-16 -190 -101 -308t-231 -118q-105 0 -153.5 51.5t-44.5 169.5q-52 -109 -133 -165t-181 -56q-134 0 -200.5 102t-38.5 322q20 154 68 273.5t113.5 191t139.5 107.5
t152 36q170 0 200 -145l60 297q10 52 -2.5 80t-65.5 28h-41q16 74 23 162q214 -8 428 0q0 -124 -27 -256zM461 106q66 0 126.5 113.5t100.5 337.5q15 79 19.5 129.5t-1 86.5t-23.5 51.5t-50 15.5q-66 0 -119.5 -106t-95.5 -349q-20 -113 -22 -171.5t13 -83t52 -24.5z" />
    <glyph glyph-name="e" unicode="e" horiz-adv-x="978" 
d="M700 346q169 -10 179 -10q-18 -90 -49.5 -156.5t-83 -118t-130 -78t-182.5 -26.5q-231 0 -316 123.5t-36 392.5q48 256 187 386t345 130q181 0 257 -87t53 -226q-10 -66 -44 -114.5t-81.5 -76.5t-113.5 -44t-130 -20.5t-143 -2.5q-29 -155 -7 -219t101 -64
q76 0 121.5 46.5t72.5 164.5zM602 862q-39 0 -63.5 -26t-52 -107.5t-62.5 -243.5q100 0 148 33.5t73 138.5q21 79 11.5 142t-54.5 63z" />
    <glyph glyph-name="f" unicode="f" horiz-adv-x="770" 
d="M799 1354q-89 0 -147.5 -93t-100.5 -313l190 4l-16 -104l-190 4l-15 -100q-44 -320 -107 -547t-146 -362.5t-180 -197t-218 -61.5q-116 0 -172 54t-37 133q10 49 45 76.5t86 27.5q54 0 82 -33t16 -84q-10 -43 -49 -64t-86 -16q21 -18 68 -18q35 0 63.5 9.5t52.5 34
t43 53.5t36.5 81t30.5 102.5t28 132.5t27 156t28 187q39 262 94 434l-127 -2l15 106l145 -6q44 118 99 209t108 146t112 89.5t108.5 47t100.5 12.5q122 0 182.5 -64.5t47.5 -162.5q-12 -86 -57.5 -130t-114.5 -44q-63 0 -99 36t-26 95q11 59 62.5 90t127.5 10q-12 34 -42 53
t-68 19z" />
    <glyph glyph-name="g" unicode="g" horiz-adv-x="1093" 
d="M598 117l10 51q-106 -211 -303 -211q-132 0 -197.5 102t-37.5 322q20 154 68 273.5t112.5 191t137.5 107.5t151 36q124 0 180.5 -54t62.5 -157q127 86 164 205q17 -1 68.5 -1t70.5 1q-37 -157 -92 -432.5t-84 -444.5q-24 -139 -78 -241.5t-132 -163t-170.5 -89
t-202.5 -28.5q-171 0 -245.5 70t-47.5 164q14 51 51 79.5t94 28.5q58 0 90 -34t23 -87t-53 -81.5t-103 -16.5q54 -57 166 -57q59 0 104 23t71 50t49 92.5t32.5 105t27.5 132.5q9 42 13 64zM459 106q66 0 126.5 113.5t100.5 337.5q19 104 21 163.5t-16 89.5t-60 30
q-138 0 -217 -455q-20 -112 -21.5 -171.5t14 -83.5t52.5 -24z" />
    <glyph glyph-name="h" unicode="h" horiz-adv-x="1181" 
d="M1071 387l80 -4q-9 -85 -32.5 -158t-63 -135t-102 -97.5t-142.5 -35.5q-304 0 -195 389l64 229q73 265 -16 265q-48 0 -87.5 -43.5t-84 -163.5t-91.5 -326l-61 -309q-103 6 -158 6l-159 -6q52 233 125 592t106 551q7 54 -5.5 81t-64.5 27h-41q13 88 13 162q221 -8 442 0
q-2 -97 -37 -293l-65 -334q115 205 325 205q105 0 159.5 -50.5t59 -143t-25.5 -222.5l-66 -262q-15 -55 -21.5 -89.5t-8 -63t8 -41.5t29.5 -13q69 0 115 283z" />
    <glyph glyph-name="i" unicode="i" horiz-adv-x="727" 
d="M672 1288q-10 -77 -67.5 -129.5t-149.5 -52.5q-78 0 -122 52t-36 130q8 77 64.5 131t148.5 54q82 0 126 -53.5t36 -131.5zM565 606l-84 -325q-16 -65 -19 -103.5t7 -55t33 -16.5q70 0 108 281l80 -4q-6 -65 -20 -123.5t-41 -114.5t-63.5 -97t-91 -66t-120.5 -25
q-145 0 -197.5 92.5t-0.5 278.5l94 342q16 55 20.5 94t-2 57.5t-22.5 18.5q-48 0 -80.5 -78.5t-46.5 -208.5l-80 4q10 87 33 161.5t61 136.5t96 98t131 36q151 0 200 -100t5 -283z" />
    <glyph glyph-name="j" unicode="j" horiz-adv-x="626" 
d="M662 1288q-8 -76 -66 -129t-150 -53q-87 0 -126 52t-31 130q6 76 63 130.5t148 54.5q89 0 130.5 -54t31.5 -131zM543 606l-105 -545q-51 -259 -178 -368t-346 -109q-129 0 -193.5 50.5t-52.5 134.5q9 59 47.5 92t96.5 33q59 0 85.5 -32.5t18.5 -84.5q-8 -53 -55.5 -75.5
t-100.5 -12.5q30 -35 99 -35q43 0 76.5 11.5t59 40t44 62t36 93t29.5 116t29 146.5l96 514q10 48 15 81t6.5 63t-4.5 44.5t-19 14.5q-45 0 -77 -79t-46 -208l-79 4q22 195 103.5 313.5t223.5 118.5q264 0 191 -383z" />
    <glyph glyph-name="k" unicode="k" horiz-adv-x="1153" 
d="M1036 387l82 -4q-8 -87 -30 -160.5t-61 -134.5t-101.5 -96t-143.5 -35q-136 0 -196.5 75.5t-24.5 209.5q29 115 1 153t-132 35l-20 -90l-68 -346q-103 6 -158 6q-92 0 -161 -6q189 833 233 1147q7 54 -5.5 81t-64.5 27h-41q13 88 13 162q79 -3 225.5 -3t226.5 3
q-7 -88 -47 -293l-65 -332q110 203 307 203q73 0 123.5 -21.5t73 -58t29 -84.5t-8.5 -102q-22 -89 -100.5 -151t-182.5 -89q177 -31 152 -254q-14 -125 39 -125q77 0 106 283zM655 834q-40 0 -72.5 -29t-67 -106t-69.5 -210q107 7 169.5 64.5t84.5 146.5q13 64 0 99t-45 35z
" />
    <glyph glyph-name="l" unicode="l" horiz-adv-x="628" 
d="M567 1155q-112 -550 -170 -856q-22 -115 -17.5 -155t36.5 -40q36 0 65.5 77t44.5 206l80 -4q-10 -114 -46 -207t-109 -156t-172 -63q-142 0 -185.5 89.5t2.5 301.5q76 319 158 793q10 52 -3.5 80t-66.5 28h-39q13 61 21 162q214 -8 428 0q2 -112 -27 -256z" />
    <glyph glyph-name="m" unicode="m" horiz-adv-x="1804" 
d="M104 553l-79 4q9 84 31.5 157.5t59.5 137t95.5 100.5t132.5 37q109 0 158 -60t49 -173q62 120 150.5 176.5t191.5 56.5q108 0 161 -52t54 -167q60 113 147.5 166t188.5 53q96 0 149 -41.5t66.5 -134t-25.5 -240.5l-67 -270q-29 -114 -25.5 -156.5t37.5 -42.5
q72 0 111 283l79 -4q-6 -67 -20.5 -127t-42 -115.5t-64.5 -95.5t-91 -64t-119 -24q-301 0 -193 389l61 229q17 63 25 109.5t8.5 76t-5.5 47.5t-17 25t-27 7q-64 0 -118 -86.5t-111 -307.5l-2 -8l-97 -440q-107 6 -168 6l-167 -6q83 313 139 580q31 151 25 206.5t-50 55.5
q-149 0 -246 -465l-77 -377q-103 6 -160 6l-158 -6q78 330 135 643q29 149 25 175q-3 24 -27 24q-44 0 -75.5 -78.5t-47.5 -208.5z" />
    <glyph glyph-name="n" unicode="n" horiz-adv-x="1257" 
d="M104 553l-79 4q9 84 31.5 157.5t60 137t97.5 100.5t136 37q203 0 199 -239q118 239 344 239q307 0 197 -416l-72 -270q-28 -107 -25 -153t39 -46q70 0 109 283l80 -4q-7 -84 -30 -157.5t-62.5 -135.5t-102.5 -97.5t-143 -35.5q-102 0 -158.5 50t-63 136.5t24.5 202.5
l68 229q77 265 -19 265q-49 0 -90.5 -46t-88 -176t-91.5 -352l-55 -268q-101 6 -158 6l-158 -6q77 326 137 643q23 110 22.5 154.5t-30.5 44.5q-41 0 -73 -79.5t-46 -207.5z" />
    <glyph glyph-name="o" unicode="o" horiz-adv-x="1050" 
d="M451 98q68 0 124 133t93 379q17 96 11 149t-24 71t-55 18q-142 0 -215 -483q-20 -155 -3.5 -211t69.5 -56zM442 -43q-207 0 -309.5 117t-75.5 350q19 159 88.5 285.5t189.5 203t271 76.5q203 0 304 -108.5t83 -327.5q-10 -122 -49.5 -228t-106.5 -189t-169 -131t-226 -48
z" />
    <glyph glyph-name="p" unicode="p" horiz-adv-x="1191" 
d="M350 989q204 0 201 -244q52 120 136 182t190 62q134 0 198.5 -107.5t36.5 -314.5q-22 -162 -68.5 -282t-110 -190.5t-137 -104t-157.5 -33.5q-157 0 -211 100l-31 -153q-10 -55 7.5 -78t70.5 -23h60q-6 -20 -19 -81t-16 -82q-192 4 -301 4l-301 -4q16 53 32 163h37
q48 0 75.5 24t39.5 77q114 522 149 737q20 117 20 158t-28 41q-40 0 -72.5 -80.5t-46.5 -206.5l-79 4q7 65 22 124t41.5 116.5t61.5 99t86.5 67t113.5 25.5zM721 840q-67 0 -128.5 -114t-100.5 -337q-29 -151 -17.5 -217t74.5 -66q137 0 217 457q20 111 21.5 170t-14 83
t-52.5 24z" />
    <glyph glyph-name="q" unicode="q" horiz-adv-x="1146" 
d="M1087 983q-44 -189 -112 -533t-107 -567q-8 -41 5.5 -60.5t54.5 -19.5h65q-11 -43 -35 -163q-194 4 -305 4l-305 -4q23 75 37 163h74q78 0 98 93l53 266q-106 -205 -301 -205q-134 0 -201 102.5t-38 321.5q21 154 69 273.5t113 191t139 107.5t152 36q224 0 241 -211
q131 87 166 205q17 -1 67.5 -1t69.5 1zM461 106q66 0 126.5 113.5t100.5 337.5q15 79 19.5 129.5t-1 86.5t-23.5 51.5t-50 15.5q-138 0 -215 -455q-20 -113 -22 -171.5t13 -83t52 -24.5z" />
    <glyph glyph-name="r" unicode="r" horiz-adv-x="964" 
d="M651 702q8 44 38 71t65 34t73 2q-17 59 -79 59q-34 0 -63 -13t-58.5 -44.5t-55 -91t-43.5 -144.5q-97 -448 -118 -579q-101 4 -158 4l-158 -4q12 53 131 627q31 154 28 186q-2 31 -24 31q-44 0 -77.5 -80t-47.5 -207l-79 4q9 84 31.5 157.5t60 137t97.5 100.5t136 37
q176 0 197 -180q42 95 108 137.5t138 42.5q97 0 145 -62t33 -177q-14 -104 -64 -154.5t-125 -50.5q-67 0 -107 41.5t-24 115.5z" />
    <glyph glyph-name="s" unicode="s" horiz-adv-x="901" 
d="M604 905q-87 0 -138.5 -25t-66.5 -65q-23 -64 13 -109t155 -83q340 -109 240 -412q-40 -121 -153.5 -187.5t-284.5 -66.5q-187 0 -284 65t-71 177q11 47 48 75.5t90 28.5q59 0 88 -37t14 -92q-11 -40 -46.5 -61t-76.5 -19q65 -47 186 -47q87 0 144.5 27t70.5 82
q15 61 -20 106t-150 84q-317 109 -225 391q36 109 148 180.5t278 71.5q169 0 256.5 -64t65.5 -165q-11 -46 -45 -71t-86 -25q-59 0 -88.5 34t-14.5 86q19 76 105 84q-66 37 -152 37z" />
    <glyph glyph-name="t" unicode="t" horiz-adv-x="735" 
d="M580 387l79 -4q-9 -131 -45 -223.5t-109.5 -147.5t-180.5 -55q-155 0 -208.5 87.5t-27.5 248.5q10 61 53.5 268t57.5 289l-82 -2l10 104q76 0 133.5 15t96 39.5t69.5 69.5t50.5 90t43.5 116h107q-10 -37 -35.5 -154t-36.5 -180l188 4l-14 -104l-192 2l-91 -496
q-24 -140 -19 -194t46 -54q35 0 66 76t41 205z" />
    <glyph glyph-name="u" unicode="u" horiz-adv-x="1259" 
d="M1151 387l80 -4q-8 -82 -31 -156t-61 -135.5t-96.5 -98t-129.5 -36.5q-116 0 -166.5 53t-46.5 178q-113 -231 -331 -231q-107 0 -162 51t-59.5 144t24.5 223l68 262q28 109 28 156t-28 47q-46 0 -78.5 -79t-46.5 -208l-80 4q9 84 31.5 157.5t60 137t97.5 100.5t136 37
q81 0 132.5 -30t71.5 -85t19 -123t-22 -151l-57 -227q-35 -141 -30 -204t50 -63q28 0 55.5 19.5t60 67t66 145.5t62.5 237l80 379q103 -4 160 -4l157 4q-50 -218 -135 -637q-12 -63 -17.5 -98t-6.5 -64t6 -40t22 -11q38 0 68.5 76.5t48.5 206.5z" />
    <glyph glyph-name="v" unicode="v" horiz-adv-x="1038" 
d="M113 553l-82 4q10 84 32.5 157t60.5 137t98 101t136 37q79 0 131.5 -29.5t76.5 -83.5t23.5 -126.5t-24.5 -161.5l-59 -228q-18 -69 -25 -113.5t-4 -78t21 -48t51 -14.5q69 0 132 74t103 181t58 225q13 84 10 139q-6 -2 -21 -2q-56 0 -90.5 37.5t-25.5 103.5q9 63 47.5 95
t89.5 30q164 -3 117 -301q-10 -64 -26 -129.5t-43 -138.5t-60.5 -138t-80 -125.5t-100 -104t-122.5 -69.5t-146 -26q-118 0 -178 48t-66 139t25 223l68 272q2 9 7 28q12 45 16.5 67t7.5 51.5t-5.5 42t-27.5 12.5q-46 0 -78.5 -79t-46.5 -208z" />
    <glyph glyph-name="w" unicode="w" horiz-adv-x="1560" 
d="M360 -43q-299 0 -188 418l72 276q49 189 -4 189q-43 0 -77 -80.5t-48 -206.5l-80 4q9 84 31.5 157.5t60 137t97.5 100.5t136 37q80 0 134.5 -31t78 -85t23.5 -123t-23 -150l-63 -227q-76 -267 16 -267q127 0 226 457l84 393q109 -4 168 -4l165 4q-32 -104 -145 -577
q-36 -152 -25.5 -212.5t72.5 -60.5q70 0 134.5 73.5t106 181.5t58.5 225q13 93 10 153h-18q-54 0 -87 35.5t-24 97.5q9 58 45.5 88.5t83.5 28.5q158 -3 111 -301q-14 -90 -41 -184t-75 -194t-108 -177t-145.5 -126.5t-181.5 -49.5q-253 0 -256 231q-56 -115 -140 -173
t-184 -58z" />
    <glyph glyph-name="x" unicode="x" horiz-adv-x="1198" 
d="M1071 385q5 -205 -86 -316.5t-278 -111.5q-135 0 -211 50t-101 151q-39 -92 -101.5 -141.5t-143.5 -49.5q-95 0 -138.5 60t-21.5 161q15 72 59.5 114t104.5 42q59 0 83.5 -34.5t12.5 -94.5q-7 -34 -26.5 -56.5t-44.5 -30.5t-50.5 -6.5t-46.5 11.5q4 -74 82 -74
q87 0 142 95t106 297q23 92 34 156.5t12.5 121t-17 85t-56.5 28.5q-70 0 -105 -77t-32 -214l-74 6q-12 195 76.5 313.5t257.5 118.5q224 0 270 -194q41 94 105 144t141 50q91 0 134.5 -56t33.5 -163q-9 -98 -53 -147.5t-111 -49.5q-61 0 -93.5 39.5t-16.5 110.5
q9 46 40 73.5t66 28.5t68 -10q-12 76 -88 76q-85 0 -140 -89t-104 -288q-38 -154 -43.5 -247t19 -134t81.5 -41q90 0 134 77.5t42 215.5h78z" />
    <glyph glyph-name="y" unicode="y" horiz-adv-x="1183" 
d="M115 553l-80 4q9 84 31.5 157.5t60 137t97.5 100.5t136 37q300 0 201 -389l-59 -227q-33 -126 -27 -196.5t49 -70.5q27 0 55.5 20.5t61 68t65.5 142.5t60 228l80 391q40 -4 155 -4l156 4q-14 -63 -85 -416t-85 -434q-25 -139 -80.5 -241.5t-135 -163t-173 -89
t-203.5 -28.5q-158 0 -233 63t-62 150q9 61 49 95t99 34q54 0 85.5 -29.5t28.5 -80.5q-4 -61 -50.5 -91t-106.5 -18q54 -57 166 -57q44 0 80 11.5t62 30.5t47.5 50t36 64.5t27.5 79.5t22.5 88.5t20.5 97.5l9 45l8 41q-112 -201 -315 -201q-111 0 -167 54t-57.5 147t27.5 217
l66 262q28 110 28 156.5t-28 46.5q-92 0 -123 -287z" />
    <glyph glyph-name="z" unicode="z" horiz-adv-x="1007" 
d="M260 539l-67 4q-41 227 29.5 349t221.5 122q156 0 293 -131q56 -54 101.5 -76t93.5 -8q-34 11 -55 38t-21 62q0 49 23 75.5t63 26.5q44 0 67.5 -34t18.5 -90q-4 -41 -24 -77t-66.5 -77t-98.5 -77t-145 -95q-11 -10 -71 -46.5t-147.5 -90.5t-145.5 -92q120 56 227 12
q39 -17 58.5 -24t47.5 -13t58 -6q67 0 111.5 33t48.5 104l63 -6q19 -95 9 -179.5t-40.5 -148t-92.5 -100.5t-146 -37q-104 0 -179 31.5t-145 107.5q-110 119 -217 68q34 -9 51 -38.5t17 -68.5q0 -44 -22 -71t-64 -27q-36 0 -61 28t-25 81q1 84 72 158t255 190q17 13 78 48
t153.5 87t147.5 84q-32 -9 -61.5 -10t-58 6.5t-51 17t-52.5 25.5q-69 41 -125 41q-63 0 -95 -40t-32 -136z" />
    <glyph glyph-name="braceleft" unicode="{" horiz-adv-x="663" 
d="M78 647l12 86h27q38 0 65 14.5t43 35t23.5 56.5t9.5 65.5t-1.5 77t-7.5 75.5t-11 75q-1 9 -2 13q-22 139 2.5 240.5t92.5 164.5t170 94t242 35l-8 -118q-50 -2 -82.5 -11t-62.5 -34t-47 -69.5t-26.5 -116.5t-10.5 -177q0 -82 -5.5 -142.5t-23.5 -121.5t-49 -100.5
t-84 -66.5t-127 -32q59 -6 99.5 -24.5t61 -50.5t29.5 -67.5t3.5 -87.5t-15 -97t-26.5 -109q-14 -53 -23.5 -89.5t-19 -77.5t-14 -68t-7 -57t0 -48.5t8.5 -38t17 -30.5t27 -20t38 -13t50 -5l-20 -118q-65 -2 -122 4.5t-109.5 24t-91 45.5t-63 71.5t-29.5 99.5t13.5 132
t61.5 167q84 177 104 240q47 150 -49 171q-17 3 -37 3h-26z" />
    <glyph glyph-name="bar" unicode="|" horiz-adv-x="614" 
d="M139 -213q0 7 7.5 15t15.5 8q9 0 15.5 -7.5t6.5 -15.5q0 -9 -6.5 -16t-15.5 -7q-8 0 -15.5 7t-7.5 16zM154 -49q0 14 10.5 24.5t23.5 10.5q14 0 24.5 -11t10.5 -24t-10.5 -24t-24.5 -11q-13 0 -23.5 10.5t-10.5 24.5zM170 115q0 20 13 32.5t32 12.5t32 -12.5t13 -32.5
q0 -19 -13 -32t-32 -13t-32 13t-13 32zM186 281q0 22 16.5 37.5t39.5 15.5q22 0 37.5 -15.5t15.5 -37.5q0 -23 -15.5 -39.5t-37.5 -16.5q-23 0 -39.5 16.5t-16.5 39.5zM207 444q0 25 17.5 43.5t41.5 18.5q26 0 45 -18.5t19 -43.5q0 -26 -18.5 -43.5t-45.5 -17.5
q-25 0 -42 17.5t-17 43.5zM229 608q0 26 19 46t45 20q27 0 46 -19.5t19 -46.5q0 -28 -18.5 -46.5t-46.5 -18.5q-27 0 -45.5 18.5t-18.5 46.5zM254 772q0 26 19.5 45t45.5 19q28 0 47 -19t19 -45q0 -28 -19 -46.5t-47 -18.5q-27 0 -46 19t-19 46zM285 936q0 25 18 43t43 18
q26 0 44 -18t18 -43q0 -26 -18 -44t-44 -18q-25 0 -43 18t-18 44zM317 1100q0 23 16.5 39t39.5 16t39 -16t16 -39t-16 -39.5t-39 -16.5t-39.5 16.5t-16.5 39.5zM354 1264q0 19 13 32t32 13t32 -13t13 -32t-13 -32t-32 -13t-32 13t-13 32zM391 1427q0 14 10 24.5t23 10.5
q15 0 25 -10.5t10 -24.5t-10 -24t-25 -10q-13 0 -23 10t-10 24zM428 1591q0 9 7.5 16t15.5 7q9 0 15.5 -7t6.5 -16q0 -8 -6.5 -15t-15.5 -7q-8 0 -15.5 7.5t-7.5 14.5z" />
    <glyph glyph-name="braceright" unicode="}" horiz-adv-x="653" 
d="M604 733l-12 -86h-27q-39 0 -68 -11.5t-46 -30t-26 -50.5t-11.5 -63t2 -78.5t10.5 -85.5t16 -95q13 -72 13 -134.5t-10.5 -111t-32 -89t-49.5 -70.5t-64.5 -53.5t-76 -38.5t-86 -25.5t-91 -15.5t-94.5 -6l8 118q56 4 93.5 21t63 47t39.5 84.5t20.5 122.5t8.5 172
q2 81 8.5 137.5t25 113.5t49.5 92t83.5 60.5t126.5 32.5q-61 4 -102.5 22.5t-62 51t-29 71t-2 93t18 105.5t32.5 120q38 131 50.5 212.5t-1 126.5t-44 61t-87.5 18l12 119q271 6 364.5 -138.5t-34.5 -406.5q-19 -38 -32.5 -66t-31 -68t-27 -70t-17.5 -64t-5.5 -58
t11.5 -44.5t31.5 -31t56.5 -10.5h26z" />
    <glyph glyph-name="asciitilde" unicode="~" horiz-adv-x="1089" 
d="M936 1384l65 2q13 -87 -2 -152t-54 -100.5t-89 -52t-111 -14.5q-89 6 -138.5 44.5t-96.5 117.5q-37 60 -58 80t-57 20q-44 0 -67.5 -47t-12.5 -145l-65 -4q-26 172 46 248t210 73q81 -3 132 -39.5t101 -118.5q33 -59 56.5 -81.5t58.5 -22.5q101 0 82 192z" />
    <glyph glyph-name="exclamdown" unicode="&#xa1;" horiz-adv-x="751" 
d="M246 819q3 79 51.5 124.5t136.5 45.5q82 0 128 -44.5t42 -129.5q-3 -78 -54 -126t-130 -48q-87 0 -132 49t-42 129zM352 494q3 23 11.5 31.5t25.5 6.5q33 -3 27 -49q-21 -150 -22 -251.5t12 -174.5t49 -211q43 -159 -13 -253.5t-194 -94.5q-98 0 -155 61t-53.5 157
t71.5 192q56 82 76 112t53.5 90t48 105.5t32 116t31.5 162.5z" />
    <glyph glyph-name="cent" unicode="&#xa2;" horiz-adv-x="1107" 
d="M629 713l-90 -371q32 -4 53 -4q102 0 174 37q-84 20 -74 119q5 55 44.5 91t107.5 36q74 0 107.5 -44.5t21.5 -117.5q-20 -122 -151.5 -201.5t-319.5 -79.5h-2l-58 -244h-96l74 248q-196 22 -282.5 152t-45.5 350q44 245 200.5 381.5t397.5 136.5h2l58 242h96l-74 -248
q135 -17 206 -84.5t62 -159.5q-7 -67 -51 -106t-112 -39q-64 0 -94.5 33.5t-22.5 87.5q13 74 80 108q-50 16 -111 19zM428 692q-46 -254 47 -323l103 344l77 336q-89 -18 -143 -100t-84 -257z" />
    <glyph glyph-name="sterling" unicode="&#xa3;" 
d="M270 492l11 118q31 -2 118 -2q-13 58 -20.5 100.5t-13.5 97.5t-3 108.5t15 105.5q41 184 193 302t376 118q193 0 281 -94.5t59 -249.5q-18 -98 -81 -147.5t-148 -49.5q-69 0 -107.5 41.5t-25.5 106.5q12 60 58 94.5t114 34.5q32 0 63 -17q-3 53 -45 85t-110 32
q-111 0 -180.5 -72t-104.5 -227q-12 -53 -22 -108.5t-24 -145t-18 -111.5q130 6 215 13l-12 -119q-15 0 -93 1t-128 1q-16 -81 -47 -176q140 -39 233 -39q86 0 143 18.5t91 69.5l100 -16q-9 -180 -111 -292t-282 -112q-183 0 -324 102q-101 -96 -252 -96q-114 0 -165.5 58.5
t-28.5 158.5q21 85 103 140t204 55q55 0 133 -12q0 55 -14 137zM188 49q110 0 168 80q-47 40 -83 60t-76 20q-44 0 -73.5 -18.5t-35.5 -49.5q-8 -40 17.5 -66t82.5 -26z" />
    <glyph glyph-name="yen" unicode="&#xa5;" 
d="M205 827l143 -4q-20 128 -47 238q-23 93 -53 125.5t-86 32.5h-29q23 126 27 194q204 -6 323 -6l322 6q-23 -126 -27 -194h-30q-53 0 -78 -35.5t-15 -104.5q26 -170 88 -364q144 243 191 366q12 31 17 53.5t3 43t-17.5 31t-45.5 10.5h-27q23 126 27 194q174 -6 256 -6
l219 6q-23 -126 -27 -194h-26q-74 0 -117 -31t-104 -131q-38 -62 -131 -234l153 4q-18 -95 -22 -151l-207 8l-62 -119l252 8q-16 -81 -20 -153l-279 10l-18 -125q-8 -61 11.5 -85.5t92.5 -24.5h58q-6 -24 -16.5 -98t-12.5 -99q-203 6 -359 6l-366 -6q6 24 16.5 98t12.5 99
h59q38 0 62 6t37.5 22t19 33t10.5 49l18 125l-258 -10q18 74 23 153l225 -8q-2 10 -7.5 51.5t-10.5 65.5l-191 -6q20 103 23 151z" />
    <glyph glyph-name="brokenbar" unicode="&#xa6;" horiz-adv-x="614" 
d="M139 -213q0 7 7.5 15t15.5 8q9 0 15.5 -7.5t6.5 -15.5q0 -9 -6.5 -16t-15.5 -7q-8 0 -15.5 7t-7.5 16zM154 -49q0 14 10.5 24.5t23.5 10.5q14 0 24.5 -11t10.5 -24t-10.5 -24t-24.5 -11q-13 0 -23.5 10.5t-10.5 24.5zM170 115q0 20 13 32.5t32 12.5t32 -12.5t13 -32.5
q0 -19 -13 -32t-32 -13t-32 13t-13 32zM186 281q0 22 16.5 37.5t39.5 15.5q22 0 37.5 -15.5t15.5 -37.5q0 -23 -15.5 -39.5t-37.5 -16.5q-23 0 -39.5 16.5t-16.5 39.5zM207 444q0 25 17.5 43.5t41.5 18.5q26 0 45 -18.5t19 -43.5q0 -26 -18.5 -43.5t-45.5 -17.5
q-25 0 -42 17.5t-17 43.5zM285 936q0 25 18 43t43 18q26 0 44 -18t18 -43q0 -26 -18 -44t-44 -18q-25 0 -43 18t-18 44zM317 1100q0 23 16.5 39t39.5 16t39 -16t16 -39t-16 -39.5t-39 -16.5t-39.5 16.5t-16.5 39.5zM354 1264q0 19 13 32t32 13t32 -13t13 -32t-13 -32
t-32 -13t-32 13t-13 32zM391 1427q0 14 10 24.5t23 10.5q15 0 25 -10.5t10 -24.5t-10 -24t-25 -10q-13 0 -23 10t-10 24zM428 1591q0 9 7.5 16t15.5 7q9 0 15.5 -7t6.5 -16q0 -8 -6.5 -15t-15.5 -7q-8 0 -15.5 7.5t-7.5 14.5z" />
    <glyph glyph-name="section" unicode="&#xa7;" horiz-adv-x="1484" 
d="M963 1348l10 -25q-62 -60 -100.5 -114.5t-78 -153t-71.5 -249t-68 -384.5q-24 -156 -58 -282.5t-70.5 -212.5t-80.5 -150t-85 -100t-89 -58t-86 -28.5t-82 -6.5q-126 0 -187.5 69.5t-45.5 170.5q10 68 54 115t118 47q65 0 98.5 -35t24.5 -96q-10 -60 -61 -91t-130 -10
q26 -71 121 -71q79 0 128.5 55t96.5 225.5t93 499.5q19 130 48.5 241t63 192.5t77 149.5t84.5 113.5t91.5 83.5t92.5 61t92 44zM479 -311l-10 24q62 61 99.5 115t77 152.5t72 249t68.5 384.5q24 158 58 285t70.5 213t81 149.5t85 99.5t89 57t86.5 27.5t83 6.5
q128 0 186.5 -70.5t43.5 -169.5q-10 -68 -54 -114.5t-116 -46.5q-63 0 -98.5 34t-26.5 97q8 59 59.5 90t130.5 10q-11 33 -40 52.5t-74 19.5q-40 0 -70 -11.5t-59.5 -43t-53.5 -86.5t-48.5 -141.5t-46.5 -209t-46 -289.5q-25 -180 -71.5 -323t-98.5 -233t-121.5 -159
t-126.5 -103.5t-129 -65.5z" />
    <glyph glyph-name="dieresis" unicode="&#xa8;" horiz-adv-x="1093" 
d="M473 1241q-6 -57 -44 -90t-91 -33t-85 33t-26 90q6 58 44 91.5t91 33.5t85 -33.5t26 -91.5zM852 1241q-6 -57 -44.5 -90t-92.5 -33q-53 0 -85 33t-26 90q6 58 44 91.5t91 33.5t86 -33.5t27 -91.5z" />
    <glyph glyph-name="copyright" unicode="&#xa9;" horiz-adv-x="1724" 
d="M786 76q129 0 236.5 32t185.5 88t135 135.5t90 172.5t46 201q17 138 -3 249t-80.5 198t-176 135t-279.5 48q-153 0 -278.5 -48.5t-210 -134.5t-136 -199t-67.5 -248q-13 -88 -6.5 -169t26.5 -150.5t63.5 -127t105 -98t150 -62.5t199.5 -22zM772 -33q-182 0 -318.5 53.5
t-217.5 151.5t-113 233t-12 300q27 217 142 385t298 261t403 93q232 0 391.5 -93.5t227.5 -260t41 -385.5q-27 -221 -131 -385.5t-286.5 -258.5t-424.5 -94zM909 1153q125 0 203 -55q59 -38 74 32q82 -5 121 0q-20 -53 -44.5 -149.5t-31.5 -157.5q-41 2 -70 2l-80 -2
q29 187 -129 187q-60 0 -101 -23.5t-73.5 -89.5t-50.5 -182q-11 -93 -11.5 -150.5t19 -90t45 -43.5t66.5 -11q89 0 137 50.5t66 154.5l6 -1q6 0 15 -0.5t20 -1t23 -1t22 -0.5q11 0 24 0.5t23 1t18.5 1t13.5 0.5l5 1q-30 -178 -125.5 -264.5t-278.5 -86.5q-204 0 -300 108
t-60 333q33 215 153.5 326.5t300.5 111.5z" />
    <glyph glyph-name="ordfeminine" unicode="&#xaa;" horiz-adv-x="1011" 
d="M92 424q22 91 33 182q382 -7 768 0q-22 -95 -33 -182q-382 7 -768 0zM954 1012q-11 -139 -73 -223t-164 -84q-76 0 -112.5 35t-35.5 112q-36 -72 -94.5 -109.5t-128.5 -37.5q-93 0 -138 72.5t-24 226.5q14 111 47.5 196t79.5 135t97 74.5t106 24.5q147 0 168 -131
q68 56 92 102q17 -1 63.5 -1t63.5 1q-55 -242 -90 -451q-12 -76 -10 -106.5t20 -30.5q24 0 45 54t33 143zM461 819q44 0 85.5 77t69.5 232q20 104 13 147.5t-49 43.5q-94 0 -150 -313q-20 -110 -13 -148.5t44 -38.5z" />
    <glyph glyph-name="guillemotleft" unicode="&#xab;" horiz-adv-x="899" 
d="M510 879l20 -21q-31 -78 -102 -177t-149 -165q42 -66 80.5 -167t48.5 -177l-31 -20q-49 56 -147.5 153t-163.5 154q4 14 13 67t11 70q161 106 420 283zM858 879l21 -21q-31 -78 -102.5 -177t-149.5 -165q42 -66 80.5 -167t48.5 -177l-31 -20q-49 56 -147.5 153
t-163.5 154q4 14 13 67t11 70q161 106 420 283z" />
    <glyph glyph-name="registered" unicode="&#xae;" horiz-adv-x="1724" 
d="M786 76q129 0 236.5 32t185.5 88t135 135.5t90 172.5t46 201q17 138 -3 249t-80.5 198t-176 135t-279.5 48q-153 0 -278.5 -48.5t-210 -134.5t-136 -199t-67.5 -248q-13 -88 -6.5 -169t26.5 -150.5t63.5 -127t105 -98t150 -62.5t199.5 -22zM772 -33q-182 0 -318.5 53.5
t-217.5 151.5t-113 233t-12 300q27 217 142 385t298 261t403 93q232 0 391.5 -93.5t227.5 -260t41 -385.5q-27 -221 -131 -385.5t-286.5 -258.5t-424.5 -94zM1186 530q0 -114 39 -114q24 0 33 42.5t4 94.5l69 6q6 -73 -11 -132t-68.5 -99.5t-133.5 -40.5q-125 0 -165.5 54.5
t-30.5 164.5q9 95 -19.5 131.5t-97.5 36.5h-25q-20 -137 -20 -166q-3 -35 9 -51.5t46 -16.5h39q-12 -60 -18 -129q-148 4 -228 4l-233 -4l20 129h41q32 0 48.5 14t25.5 48q9 37 39 218.5t31 215.5q2 37 -8.5 51t-41.5 14h-45q1 3 19 127q19 0 113.5 -2t121.5 -2h230
q183 0 259 -52t62 -165q-11 -84 -70 -136.5t-145 -72.5q61 -18 86 -60t25 -108zM829 950q-9 -18 -36 -211h67q76 0 114.5 33t49.5 102q20 132 -102 132h-25q-30 0 -45 -13t-23 -43z" />
    <glyph glyph-name="macron" unicode="&#xaf;" horiz-adv-x="1089" 
d="M244 1141q7 23 17.5 84t12.5 88q94 -3 283 -3t283 3q-21 -84 -31 -172q-94 3 -282.5 3t-282.5 -3z" />
    <glyph glyph-name="degree" unicode="&#xb0;" horiz-adv-x="716" 
d="M406 842q86 0 140.5 58t76.5 192q22 137 -15 194t-123 57q-178 0 -219 -251q-22 -138 14.5 -194t125.5 -56zM393 766q-133 0 -198 83t-39 243q26 164 115 245.5t227 81.5q134 0 199 -83t38 -244q-26 -161 -115 -243.5t-227 -82.5z" />
    <glyph glyph-name="plusminus" unicode="&#xb1;" 
d="M63 0q23 92 31 164q180 -4 348 -4q42 190 78 291q-195 -25 -399 -25l31 176q210 0 389 -27q5 162 45 394h176q-37 -210 -96 -394q188 27 399 27l-31 -176q-208 0 -391 25q-3 -69 -33 -291q185 0 385 4q-21 -91 -30 -164q-449 8 -902 0z" />
    <glyph glyph-name="acute" unicode="&#xb4;" horiz-adv-x="1089" 
d="M338 1100l-16 24q147 197 260 267q69 30 118 12t48 -72.5t-66 -93.5q-64 -42 -161 -79.5t-183 -57.5z" />
    <glyph glyph-name="paragraph" unicode="&#xb6;" horiz-adv-x="1153" 
d="M502 63q1 5 15 74t32 157t26 130q-235 4 -345.5 137t-67.5 357q50 256 224.5 374.5t473.5 118.5h363l-31 -158h-45q-52 0 -80.5 -22.5t-38.5 -77.5l-203 -1069q-51 -270 -175 -387t-365 -117q-149 0 -216 60t-57 147q5 41 21.5 70.5t39.5 44.5t46.5 21.5t48.5 6.5
q59 0 88.5 -32t26.5 -80q-6 -67 -60.5 -94t-124.5 -5q26 -71 123 -71q105 0 167.5 89t113.5 326z" />
    <glyph glyph-name="periodcentered" unicode="&#xb7;" horiz-adv-x="604" 
d="M502 502q-6 -84 -60.5 -132t-144.5 -48q-86 0 -132.5 46t-39.5 136q8 80 65 130t140 50q89 0 134.5 -51t37.5 -131z" />
    <glyph glyph-name="cedilla" unicode="&#xb8;" horiz-adv-x="1089" 
d="M436 -225l-22 47q72 32 107 77t46 115l56 -14q6 -80 -60 -143q94 7 159.5 -35.5t61.5 -128.5q-3 -90 -72 -141.5t-184 -51.5q-76 0 -133 33t-88 88l49 41q54 -70 133 -70q53 0 82.5 26.5t32.5 74.5q3 64 -48.5 86.5t-119.5 -4.5z" />
    <glyph glyph-name="ordmasculine" unicode="&#xba;" horiz-adv-x="903" 
d="M86 424q22 91 33 182q342 -6 686 0q-22 -95 -33 -182q-342 6 -686 0zM483 815q46 0 84 89t64 257q13 98 3.5 130t-46.5 32q-99 0 -148 -319q-16 -107 -5 -148t48 -41zM475 705q-145 0 -217.5 84t-52.5 247q19 184 122 291t265 107q144 0 214.5 -79t57.5 -237
q-13 -183 -114 -298t-275 -115z" />
    <glyph glyph-name="guillemotright" unicode="&#xbb;" horiz-adv-x="899" 
d="M154 858l28 21q187 -187 314 -304q-19 -74 -25 -139q-88 -55 -219.5 -144t-198.5 -140l-22 20q33 78 104.5 180.5t143.5 167.5q-45 71 -81.5 167t-43.5 171zM504 858l28 21q187 -187 314 -304q-19 -74 -25 -139q-88 -55 -219.5 -144t-198.5 -140l-22 20
q33 78 104.5 180.5t143.5 167.5q-45 71 -81.5 167t-43.5 171z" />
    <glyph glyph-name="onequarter" unicode="&#xbc;" horiz-adv-x="774" 
d="M18 705q0 19 13.5 32t34.5 13q19 0 32 -13t13 -32q0 -21 -13 -34.5t-32 -13.5q-22 0 -35 13t-13 35zM154 705q0 18 10.5 29t30.5 11q17 0 29 -11.5t12 -28.5q0 -20 -11.5 -30.5t-29.5 -10.5q-41 0 -41 41zM287 705q0 16 9.5 26t27.5 10q15 0 25.5 -10.5t10.5 -25.5
q0 -18 -10 -27.5t-26 -9.5q-37 0 -37 37zM416 705q0 16 9.5 26t27.5 10q15 0 25.5 -10.5t10.5 -25.5q0 -18 -10 -27.5t-26 -9.5q-37 0 -37 37zM541 705q0 18 10.5 29t30.5 11q17 0 29 -11.5t12 -28.5q0 -20 -11.5 -30.5t-29.5 -10.5q-41 0 -41 41zM664 705q0 19 13 32t34 13
q19 0 32 -13t13 -32q0 -21 -13 -34.5t-32 -13.5q-22 0 -34.5 13t-12.5 35zM377 983l43 258l-119 -2q3 13 9.5 53t6.5 51h39q158 0 197 119q15 -2 61.5 -2t61.5 2q-40 -145 -58 -264l-32 -215q-7 -55 51 -55h63l-18 -99q-147 2 -229 2l-234 -2q17 68 17 99h69q65 0 72 55z
M260 94q0 3 2.5 15t3.5 20q-59 0 -145 -1t-92 -1l8 47l362 412q25 -2 89.5 -2t89.5 2q-25 -101 -72 -406l98 2l-10 -59l-96 2q-4 -24 -4 -29q-3 -22 6.5 -32.5t36.5 -10.5h45q-3 -9 -10 -48.5t-7 -49.5q-145 4 -221 4l-211 -4q3 11 10 50t7 48h51q28 0 41.5 9t17.5 32z
M274 176q22 116 41 236l-186 -236h145z" />
    <glyph glyph-name="onehalf" unicode="&#xbd;" horiz-adv-x="774" 
d="M18 705q0 19 13.5 32t34.5 13q19 0 32 -13t13 -32q0 -21 -13 -34.5t-32 -13.5q-22 0 -35 13t-13 35zM154 705q0 18 10.5 29t30.5 11q17 0 29 -11.5t12 -28.5q0 -20 -11.5 -30.5t-29.5 -10.5q-41 0 -41 41zM287 705q0 16 9.5 26t27.5 10q15 0 25.5 -10.5t10.5 -25.5
q0 -18 -10 -27.5t-26 -9.5q-37 0 -37 37zM416 705q0 16 9.5 26t27.5 10q15 0 25.5 -10.5t10.5 -25.5q0 -18 -10 -27.5t-26 -9.5q-37 0 -37 37zM541 705q0 18 10.5 29t30.5 11q17 0 29 -11.5t12 -28.5q0 -20 -11.5 -30.5t-29.5 -10.5q-41 0 -41 41zM664 705q0 19 13 32t34 13
q19 0 32 -13t13 -32q0 -21 -13 -34.5t-32 -13.5q-22 0 -34.5 13t-12.5 35zM598 182q10 -27 11.5 -59t-9 -64t-31.5 -58.5t-59 -43t-88 -16.5q-37 0 -71 10.5t-54.5 22.5t-52.5 34q-47 33 -82 33q-31 0 -31 -15q-1 -6 8 -12q17 -10 22 -28t-5.5 -32.5t-32.5 -14.5
q-27 0 -42 20.5t-15 54.5q0 114 180 201q95 45 137.5 87.5t50.5 96.5q8 50 -15 81.5t-81 31.5q-64 0 -117 -43q21 6 43 6q41 -1 59 -22.5t13 -49.5q-5 -31 -33.5 -50t-71.5 -19q-45 0 -69 24.5t-17 67.5q10 72 91 120t190 48q126 0 178.5 -51.5t40.5 -130.5
q-27 -178 -360 -242q-87 -18 -119 -64q38 20 101.5 20.5t117.5 -7.5q40 -1 74 -1t57.5 14.5t24.5 43.5zM377 983l43 258l-119 -2q3 13 9.5 53t6.5 51h39q158 0 197 119q15 -2 61.5 -2t61.5 2q-40 -145 -58 -264l-32 -215q-7 -55 51 -55h63l-18 -99q-147 2 -229 2l-234 -2
q17 68 17 99h69q65 0 72 55z" />
    <glyph glyph-name="threequarters" unicode="&#xbe;" horiz-adv-x="774" 
d="M18 705q0 19 13.5 32t34.5 13q19 0 32 -13t13 -32q0 -21 -13 -34.5t-32 -13.5q-22 0 -35 13t-13 35zM154 705q0 18 10.5 29t30.5 11q17 0 29 -11.5t12 -28.5q0 -20 -11.5 -30.5t-29.5 -10.5q-41 0 -41 41zM287 705q0 16 9.5 26t27.5 10q15 0 25.5 -10.5t10.5 -25.5
q0 -18 -10 -27.5t-26 -9.5q-37 0 -37 37zM416 705q0 16 9.5 26t27.5 10q15 0 25.5 -10.5t10.5 -25.5q0 -18 -10 -27.5t-26 -9.5q-37 0 -37 37zM541 705q0 18 10.5 29t30.5 11q17 0 29 -11.5t12 -28.5q0 -20 -11.5 -30.5t-29.5 -10.5q-41 0 -41 41zM664 705q0 19 13 32t34 13
q19 0 32 -13t13 -32q0 -21 -13 -34.5t-32 -13.5q-22 0 -34.5 13t-12.5 35zM756 1313q-8 -114 -144 -158q64 -17 94 -53.5t27 -85.5q-7 -101 -93.5 -151t-240.5 -50q-110 0 -172.5 41t-56.5 109q5 50 38 79t85 29q45 0 66.5 -19t19.5 -50q-1 -39 -31.5 -60t-75.5 -18
q-14 0 -22 2q37 -43 106 -43q67 0 107.5 32t46.5 99q4 52 -25 78t-90 26h-33l13 60h24q131 4 142 114q3 42 -19 67t-76 25q-68 0 -114 -34q20 4 28 4q41 0 62.5 -19t19.5 -47q-3 -35 -28 -55.5t-70 -20.5q-44 0 -69.5 22t-22.5 62q6 73 88 121.5t199 48.5q115 0 169 -42
t48 -113zM260 94q0 3 2.5 15t3.5 20q-59 0 -145 -1t-92 -1l8 47l362 412q25 -2 89.5 -2t89.5 2q-25 -101 -72 -406l98 2l-10 -59l-96 2q-4 -24 -4 -29q-3 -22 6.5 -32.5t36.5 -10.5h45q-3 -9 -10 -48.5t-7 -49.5q-145 4 -221 4l-211 -4q3 11 10 50t7 48h51q28 0 41.5 9
t17.5 32zM274 176q22 116 41 236l-186 -236h145z" />
    <glyph glyph-name="questiondown" unicode="&#xbf;" horiz-adv-x="1222" 
d="M446 379l-20 57q66 46 146 72.5t159 23.5q74 -1 114.5 -38t35.5 -95q-4 -53 -47 -94t-134 -88q-105 -54 -163.5 -123.5t-71.5 -171.5q-17 -122 36 -187.5t163 -68.5q79 0 148.5 32.5t109.5 86.5q-50 -18 -103 -18q-74 3 -109 46.5t-22 123.5q11 67 64.5 109.5t138.5 41.5
q81 -2 125.5 -63.5t25.5 -169.5q-30 -164 -178 -260.5t-352 -96.5q-126 0 -217 29.5t-140 82t-67 119.5t-6 148q22 158 142 260t335 174q98 34 130 55t32 46q0 38 -55 41q-96 6 -220 -74zM555 819q3 79 52.5 124.5t137.5 45.5q82 0 127.5 -44t42.5 -130q-3 -78 -54.5 -126
t-131.5 -48q-87 0 -132 49t-42 129z" />
    <glyph glyph-name="Agrave" unicode="&#xc0;" horiz-adv-x="1798" 
d="M1024 436q-201 6 -487 2l-25 -51q-47 -98 -33 -145t96 -47h76q-16 -81 -30 -199q-205 4 -322 4l-326 -4q21 114 31 199h51q84 0 134.5 40t105.5 140q104 189 280.5 526t270.5 526q122 -4 190 -4l189 4q38 -185 118 -522t132 -530q27 -103 62 -141.5t97 -38.5h66
q-14 -57 -31 -199q-274 4 -428 4l-428 -4q21 113 31 199h82q73 0 97 47.5t9 146.5q-1 4 -2.5 13t-3 17.5t-2.5 16.5zM594 551q208 -3 405 0q-81 386 -120 553q-21 -40 -128.5 -247.5t-156.5 -305.5zM1180 1554l-17 -24q-86 21 -183.5 58.5t-160.5 78.5q-65 39 -65.5 93.5
t48.5 72.5t118 -12q113 -70 260 -267z" />
    <glyph glyph-name="Aacute" unicode="&#xc1;" horiz-adv-x="1798" 
d="M1024 436q-201 6 -487 2l-25 -51q-47 -98 -33 -145t96 -47h76q-16 -81 -30 -199q-205 4 -322 4l-326 -4q21 114 31 199h51q84 0 134.5 40t105.5 140q104 189 280.5 526t270.5 526q122 -4 190 -4l189 4q38 -185 118 -522t132 -530q27 -103 62 -141.5t97 -38.5h66
q-14 -57 -31 -199q-274 4 -428 4l-428 -4q21 113 31 199h82q73 0 97 47.5t9 146.5q-1 4 -2.5 13t-3 17.5t-2.5 16.5zM594 551q208 -3 405 0q-81 386 -120 553q-21 -40 -128.5 -247.5t-156.5 -305.5zM983 1530l-16 24q147 197 260 267q69 30 118 12t48 -72.5t-66 -93.5
q-64 -42 -161 -79.5t-183 -57.5z" />
    <glyph glyph-name="Acircumflex" unicode="&#xc2;" horiz-adv-x="1798" 
d="M1024 436q-201 6 -487 2l-25 -51q-47 -98 -33 -145t96 -47h76q-16 -81 -30 -199q-205 4 -322 4l-326 -4q21 114 31 199h51q84 0 134.5 40t105.5 140q104 189 280.5 526t270.5 526q122 -4 190 -4l189 4q38 -185 118 -522t132 -530q27 -103 62 -141.5t97 -38.5h66
q-14 -57 -31 -199q-274 4 -428 4l-428 -4q21 113 31 199h82q73 0 97 47.5t9 146.5q-1 4 -2.5 13t-3 17.5t-2.5 16.5zM594 551q208 -3 405 0q-81 386 -120 553q-21 -40 -128.5 -247.5t-156.5 -305.5zM1343 1550l-24 -20q-61 25 -126.5 70t-115.5 98q-53 -45 -147 -97
t-154 -71l-18 22q39 81 118 163t156 136h139q47 -44 95.5 -129t76.5 -172z" />
    <glyph glyph-name="Atilde" unicode="&#xc3;" horiz-adv-x="1798" 
d="M1024 436q-201 6 -487 2l-25 -51q-47 -98 -33 -145t96 -47h76q-16 -81 -30 -199q-205 4 -322 4l-326 -4q21 114 31 199h51q84 0 134.5 40t105.5 140q104 189 280.5 526t270.5 526q122 -4 190 -4l189 4q38 -185 118 -522t132 -530q27 -103 62 -141.5t97 -38.5h66
q-14 -57 -31 -199q-274 4 -428 4l-428 -4q21 113 31 199h82q73 0 97 47.5t9 146.5q-1 4 -2.5 13t-3 17.5t-2.5 16.5zM594 551q208 -3 405 0q-81 386 -120 553q-21 -40 -128.5 -247.5t-156.5 -305.5zM1313 1769l55 3q11 -73 -2 -127.5t-46 -85t-75.5 -44.5t-93.5 -12
q-75 4 -117 36t-82 99q-30 52 -48 69t-48 17q-37 0 -56.5 -39.5t-11.5 -123.5l-55 -2q-22 144 39.5 208.5t177.5 61.5q68 -3 112 -33.5t85 -99.5q29 -50 48 -69t48 -19q86 0 70 161z" />
    <glyph glyph-name="Adieresis" unicode="&#xc4;" horiz-adv-x="1798" 
d="M1024 436q-201 6 -487 2l-25 -51q-47 -98 -33 -145t96 -47h76q-16 -81 -30 -199q-205 4 -322 4l-326 -4q21 114 31 199h51q84 0 134.5 40t105.5 140q104 189 280.5 526t270.5 526q122 -4 190 -4l189 4q38 -185 118 -522t132 -530q27 -103 62 -141.5t97 -38.5h66
q-14 -57 -31 -199q-274 4 -428 4l-428 -4q21 113 31 199h82q73 0 97 47.5t9 146.5q-1 4 -2.5 13t-3 17.5t-2.5 16.5zM594 551q208 -3 405 0q-81 386 -120 553q-21 -40 -128.5 -247.5t-156.5 -305.5zM995 1671q-6 -57 -44 -90t-91 -33t-84.5 33t-25.5 90q6 58 44 91.5
t91 33.5t84.5 -33.5t25.5 -91.5zM1374 1671q-6 -57 -44.5 -90t-92.5 -33q-53 0 -85 33t-26 90q6 58 44.5 91.5t91.5 33.5t85.5 -33.5t26.5 -91.5z" />
    <glyph glyph-name="Aring" unicode="&#xc5;" horiz-adv-x="1798" 
d="M1024 436q-201 6 -487 2l-25 -51q-47 -98 -33 -145t96 -47h76q-16 -81 -30 -199q-205 4 -322 4l-326 -4q21 114 31 199h51q84 0 134.5 40t105.5 140q104 189 280.5 526t270.5 526q122 -4 190 -4l189 4q38 -185 118 -522t132 -530q27 -103 62 -141.5t97 -38.5h66
q-14 -57 -31 -199q-274 4 -428 4l-428 -4q21 113 31 199h82q73 0 97 47.5t9 146.5q-1 4 -2.5 13t-3 17.5t-2.5 16.5zM594 551q208 -3 405 0q-81 386 -120 553q-21 -40 -128.5 -247.5t-156.5 -305.5zM958 1724q-4 -49 18 -74.5t66 -25.5t72.5 26t34.5 74q4 49 -18.5 76
t-65.5 27t-72 -27t-35 -76zM868 1724q9 83 63.5 134t139.5 51q82 0 128.5 -51.5t37.5 -133.5q-9 -83 -63 -133.5t-138 -50.5q-82 0 -129.5 51.5t-38.5 132.5z" />
    <glyph glyph-name="AE" unicode="&#xc6;" horiz-adv-x="2226" 
d="M2173 559q-45 -174 -96 -567q-94 8 -435 8q-489 2 -565 2l-366 -4q6 24 17 98.5t13 98.5h64q67 0 99.5 32.5t45.5 100.5l21 110q-184 3 -365 0q-21 -30 -33 -51q-119 -192 27 -192h62q-6 -24 -19 -98.5t-14 -98.5q-211 6 -330 6l-328 -6q6 26 19 100.5t14 96.5h51
q84 0 146 41t139 139q351 445 545 715q42 57 29.5 97t-80.5 40h-39q7 30 18 95.5t14 98.5q113 -12 488 -12h514q353 0 467 14q-25 -99 -52 -258t-40 -272q-29 1 -97.5 0.5t-97.5 -2.5l4 24q11 66 13 113.5t-7.5 81t-25 54t-46 31.5t-65 15t-86.5 4h-211q-63 0 -92 -25.5
t-43 -88.5q-15 -73 -57 -324h84q97 0 142.5 45.5t63.5 149.5l9 55h155q-40 -166 -63 -313q-24 -149 -31 -318h-156l9 49q16 106 -16 155.5t-134 49.5h-84q-42 -263 -47 -330q-12 -124 105 -124h204q164 0 231 70.5t95 273.5l2 20q28 -1 105.5 -1t105.5 1zM686 555
q211 0 305 2q58 343 76 518q-197 -254 -381 -520z" />
    <glyph glyph-name="Ccedilla" unicode="&#xc7;" horiz-adv-x="1462" 
d="M508 -225l-23 47q103 46 138 129q-632 36 -527 758q39 252 144 420.5t258.5 246.5t355.5 78q178 0 344 -90q111 -60 131 59q26 -3 84 -3t84 3q-39 -91 -70 -246t-41 -286q-2 0 -49 2t-65 2q-17 0 -68.5 -2t-54.5 -2q26 168 -35 261t-215 93q-107 0 -179.5 -49
t-125 -167.5t-82.5 -319.5q-17 -110 -19 -196t10.5 -144t33.5 -98t54 -61.5t68 -30.5t80 -9q167 0 259.5 95.5t127.5 285.5q16 -4 125 -4q113 0 129 4q-52 -306 -215.5 -454t-472.5 -148h-2q-12 -49 -55 -92q94 7 159.5 -35.5t61.5 -128.5q-3 -90 -72 -141.5t-184 -51.5
q-76 0 -133 33t-88 88l49 41q54 -70 133 -70q53 0 82.5 26.5t32.5 74.5q3 64 -48.5 86.5t-119.5 -4.5z" />
    <glyph glyph-name="Egrave" unicode="&#xc8;" horiz-adv-x="1482" 
d="M938 971l8 55h156q-41 -180 -60 -311q-22 -145 -32 -320h-154l6 49q14 105 -16.5 153t-126.5 52h-92q-41 -255 -45 -340q-4 -64 23.5 -89t84.5 -25h203q82 0 134 14t90.5 53.5t60.5 104.5t39 172l2 20q26 -1 104 -1t104 1q-43 -177 -94 -567q-117 8 -418 8h-536l-404 -4
q27 168 31 199h74q32 0 52.5 6.5t33.5 24t19.5 35.5t15.5 54q17 64 69.5 397t55.5 394q3 59 -17.5 86t-72.5 27h-84q6 24 16 96t12 98q4 0 84.5 -1.5t177.5 -3t142 -1.5h491q76 0 244 4t231 12q-23 -94 -52 -262.5t-40 -265.5q-28 1 -99.5 1t-94.5 -1l4 27q9 65 10.5 111.5
t-8 79.5t-25 53t-46 31.5t-66 15.5t-89.5 4h-206q-60 0 -89 -23.5t-44 -89.5q-15 -59 -60 -328h74q106 0 155 44t64 151zM1032 1554l-16 -24q-86 21 -183.5 58.5t-160.5 78.5q-65 39 -66 93.5t48 72.5t118 -12q113 -70 260 -267z" />
    <glyph glyph-name="Eacute" unicode="&#xc9;" horiz-adv-x="1482" 
d="M829 1530l-16 24q147 197 260 267q69 30 118 12t48.5 -72.5t-65.5 -93.5q-64 -42 -161 -79.5t-184 -57.5zM938 971l8 55h156q-41 -180 -60 -311q-22 -145 -32 -320h-154l6 49q14 105 -16.5 153t-126.5 52h-92q-41 -255 -45 -340q-4 -64 23.5 -89t84.5 -25h203
q82 0 134 14t90.5 53.5t60.5 104.5t39 172l2 20q26 -1 104 -1t104 1q-43 -177 -94 -567q-117 8 -418 8h-536l-404 -4q27 168 31 199h74q32 0 52.5 6.5t33.5 24t19.5 35.5t15.5 54q17 64 69.5 397t55.5 394q3 59 -17.5 86t-72.5 27h-84q6 24 16 96t12 98q4 0 84.5 -1.5
t177.5 -3t142 -1.5h491q76 0 244 4t231 12q-23 -94 -52 -262.5t-40 -265.5q-28 1 -99.5 1t-94.5 -1l4 27q9 65 10.5 111.5t-8 79.5t-25 53t-46 31.5t-66 15.5t-89.5 4h-206q-60 0 -89 -23.5t-44 -89.5q-15 -59 -60 -328h74q106 0 155 44t64 151z" />
    <glyph glyph-name="Ecircumflex" unicode="&#xca;" horiz-adv-x="1482" 
d="M1225 1550l-25 -20q-61 25 -126.5 70t-115.5 98q-53 -45 -147 -97t-154 -71l-18 22q39 81 118 163t156 136h140q47 -44 95.5 -129t76.5 -172zM938 971l8 55h156q-41 -180 -60 -311q-22 -145 -32 -320h-154l6 49q14 105 -16.5 153t-126.5 52h-92q-41 -255 -45 -340
q-4 -64 23.5 -89t84.5 -25h203q82 0 134 14t90.5 53.5t60.5 104.5t39 172l2 20q26 -1 104 -1t104 1q-43 -177 -94 -567q-117 8 -418 8h-536l-404 -4q27 168 31 199h74q32 0 52.5 6.5t33.5 24t19.5 35.5t15.5 54q17 64 69.5 397t55.5 394q3 59 -17.5 86t-72.5 27h-84
q6 24 16 96t12 98q4 0 84.5 -1.5t177.5 -3t142 -1.5h491q76 0 244 4t231 12q-23 -94 -52 -262.5t-40 -265.5q-28 1 -99.5 1t-94.5 -1l4 27q9 65 10.5 111.5t-8 79.5t-25 53t-46 31.5t-66 15.5t-89.5 4h-206q-60 0 -89 -23.5t-44 -89.5q-15 -59 -60 -328h74q106 0 155 44
t64 151z" />
    <glyph glyph-name="Edieresis" unicode="&#xcb;" horiz-adv-x="1482" 
d="M874 1671q-6 -57 -44 -90t-91 -33t-84.5 33t-25.5 90q6 58 44 91.5t91 33.5t84.5 -33.5t25.5 -91.5zM1253 1671q-6 -57 -44.5 -90t-92.5 -33q-53 0 -84.5 33t-25.5 90q6 58 44 91.5t91 33.5t85.5 -33.5t26.5 -91.5zM938 971l8 55h156q-41 -180 -60 -311
q-22 -145 -32 -320h-154l6 49q14 105 -16.5 153t-126.5 52h-92q-41 -255 -45 -340q-4 -64 23.5 -89t84.5 -25h203q82 0 134 14t90.5 53.5t60.5 104.5t39 172l2 20q26 -1 104 -1t104 1q-43 -177 -94 -567q-117 8 -418 8h-536l-404 -4q27 168 31 199h74q32 0 52.5 6.5t33.5 24
t19.5 35.5t15.5 54q17 64 69.5 397t55.5 394q3 59 -17.5 86t-72.5 27h-84q6 24 16 96t12 98q4 0 84.5 -1.5t177.5 -3t142 -1.5h491q76 0 244 4t231 12q-23 -94 -52 -262.5t-40 -265.5q-28 1 -99.5 1t-94.5 -1l4 27q9 65 10.5 111.5t-8 79.5t-25 53t-46 31.5t-66 15.5
t-89.5 4h-206q-60 0 -89 -23.5t-44 -89.5q-15 -59 -60 -328h74q106 0 155 44t64 151z" />
    <glyph glyph-name="Igrave" unicode="&#xcc;" horiz-adv-x="864" 
d="M-29 -4q7 29 29 199h76q64 0 84.5 18t36.5 82q17 58 71.5 404.5t57.5 408.5q5 61 -14 86t-74 25h-84q7 28 28 192q242 -4 377 -4q80 0 225.5 2t149.5 2q-22 -116 -27 -192h-73q-55 0 -85 -25.5t-47 -85.5q-15 -59 -69.5 -409.5t-57.5 -403.5q-3 -56 16.5 -78t86.5 -22h74
q-22 -123 -27 -199q-242 4 -377 4zM711 1554l-17 -24q-86 21 -183.5 58.5t-160.5 78.5q-65 39 -65.5 93.5t48.5 72.5t118 -12q113 -70 260 -267z" />
    <glyph glyph-name="Iacute" unicode="&#xcd;" horiz-adv-x="864" 
d="M-29 -4q7 29 29 199h76q64 0 84.5 18t36.5 82q17 58 71.5 404.5t57.5 408.5q5 61 -14 86t-74 25h-84q7 28 28 192q242 -4 377 -4q80 0 225.5 2t149.5 2q-22 -116 -27 -192h-73q-55 0 -85 -25.5t-47 -85.5q-15 -59 -69.5 -409.5t-57.5 -403.5q-3 -56 16.5 -78t86.5 -22h74
q-22 -123 -27 -199q-242 4 -377 4zM506 1530l-17 24q60 81 131 155.5t130 111.5q69 30 118 12t48 -72.5t-66 -93.5q-64 -42 -161 -79.5t-183 -57.5z" />
    <glyph glyph-name="Icircumflex" unicode="&#xce;" horiz-adv-x="864" 
d="M-29 -4q7 29 29 199h76q64 0 84.5 18t36.5 82q17 58 71.5 404.5t57.5 408.5q5 61 -14 86t-74 25h-84q7 28 28 192q242 -4 377 -4q80 0 225.5 2t149.5 2q-22 -116 -27 -192h-73q-55 0 -85 -25.5t-47 -85.5q-15 -59 -69.5 -409.5t-57.5 -403.5q-3 -56 16.5 -78t86.5 -22h74
q-22 -123 -27 -199q-242 4 -377 4zM864 1550l-24 -20q-61 25 -126.5 70t-115.5 98q-53 -45 -147 -97t-154 -71l-18 22q39 81 118 163t156 136h139q47 -44 95.5 -129t76.5 -172z" />
    <glyph glyph-name="Idieresis" unicode="&#xcf;" horiz-adv-x="864" 
d="M-29 -4q7 29 29 199h76q64 0 84.5 18t36.5 82q17 58 71.5 404.5t57.5 408.5q5 61 -14 86t-74 25h-84q7 28 28 192q242 -4 377 -4q80 0 225.5 2t149.5 2q-22 -116 -27 -192h-73q-55 0 -85 -25.5t-47 -85.5q-15 -59 -69.5 -409.5t-57.5 -403.5q-3 -56 16.5 -78t86.5 -22h74
q-22 -123 -27 -199q-242 4 -377 4zM532 1671q-6 -57 -44 -90t-91 -33t-84.5 33t-25.5 90q6 58 44 91.5t91 33.5t84.5 -33.5t25.5 -91.5zM911 1671q-6 -57 -44.5 -90t-92.5 -33q-53 0 -84.5 33t-25.5 90q6 58 44 91.5t91 33.5t85.5 -33.5t26.5 -91.5z" />
    <glyph glyph-name="Eth" unicode="&#xd0;" horiz-adv-x="1640" 
d="M969 1409q350 0 500 -176.5t100 -546.5q-96 -688 -803 -688q-266 2 -399 2l-394 -4q6 25 17.5 100.5t13.5 98.5h76q62 0 85.5 25.5t39.5 94.5q5 22 51 316q-30 0 -74.5 -1t-54.5 -1q7 23 17 83t12 87q27 -2 127 -2q40 288 41 311q3 62 -15.5 86.5t-72.5 24.5h-86
q6 24 16 96t12 98q216 -6 395 -6q90 0 227.5 1t168.5 1zM584 291q-3 -54 19 -79.5t71 -25.5h53q97 0 167.5 23t128 79.5t95.5 155.5t60 246q19 126 19.5 215t-16 152.5t-55.5 100t-96 53t-141 16.5h-66q-84 0 -110 -86q-10 -31 -60 -346q162 0 252 4q-17 -65 -28 -170
q-15 0 -101 1t-147 1q-40 -260 -45 -340z" />
    <glyph glyph-name="Ntilde" unicode="&#xd1;" horiz-adv-x="1691" 
d="M770 1411q53 -126 455 -881q67 399 80 557q6 72 -19.5 102t-83.5 30h-110q6 24 16 95.5t12 96.5q21 0 139.5 -2t184.5 -2l321 4q-6 -22 -16 -94t-12 -98h-86q-57 0 -91 -30t-51 -102q-25 -114 -80.5 -494t-80.5 -595q-44 3 -162 3t-162 -3q-51 112 -500 973
q-75 -434 -96 -645q-5 -61 27 -96t100 -35h90q-5 -28 -16.5 -102t-12.5 -97q-208 4 -325 4l-324 -4q15 80 29 199h70q66 0 106.5 35t54.5 96q20 90 67 393.5t50 378.5q3 63 -21 92t-90 29h-83q11 61 28 192q294 -8 592 0zM1298 1780l56 2q11 -73 -2 -127.5t-46 -85
t-75.5 -44.5t-93.5 -12q-52 3 -90 22t-60 44t-49 70q-30 52 -48 69t-48 17q-37 0 -56.5 -40t-11.5 -124l-55 -2q-22 144 39.5 208.5t177.5 61.5q68 -3 112 -33.5t85 -99.5q29 -50 48 -69t48 -19q85 0 69 162z" />
    <glyph glyph-name="Ograve" unicode="&#xd2;" horiz-adv-x="1626" 
d="M750 158q168 0 256 127.5t133 425.5q19 125 21.5 215t-10 152t-43.5 98.5t-76 52.5t-111 16q-163 0 -255 -121t-135 -415q-33 -203 -18.5 -325.5t71 -174t167.5 -51.5zM721 -51q-167 0 -294 49t-208.5 143t-111.5 238.5t-3 329.5q29 189 103.5 332.5t185.5 233
t250.5 134.5t304.5 45q360 0 515.5 -188.5t99.5 -554.5q-23 -155 -77.5 -281t-132.5 -215t-178.5 -149t-214 -88.5t-239.5 -28.5zM1063 1554l-16 -24q-86 21 -184 58.5t-161 78.5q-65 39 -65.5 93.5t48.5 72.5t118 -12q113 -70 260 -267z" />
    <glyph glyph-name="Oacute" unicode="&#xd3;" horiz-adv-x="1626" 
d="M911 1530l-16 24q147 197 260 267q69 30 118 12t48 -72.5t-66 -93.5q-64 -42 -161 -79.5t-183 -57.5zM750 158q168 0 256 127.5t133 425.5q19 125 21.5 215t-10 152t-43.5 98.5t-76 52.5t-111 16q-163 0 -255 -121t-135 -415q-33 -203 -18.5 -325.5t71 -174t167.5 -51.5z
M721 -51q-167 0 -294 49t-208.5 143t-111.5 238.5t-3 329.5q29 189 103.5 332.5t185.5 233t250.5 134.5t304.5 45q360 0 515.5 -188.5t99.5 -554.5q-23 -155 -77.5 -281t-132.5 -215t-178.5 -149t-214 -88.5t-239.5 -28.5z" />
    <glyph glyph-name="Ocircumflex" unicode="&#xd4;" horiz-adv-x="1626" 
d="M1272 1550l-25 -20q-135 56 -241 168q-53 -45 -147 -97t-154 -71l-19 22q39 81 118 163t157 136h139q47 -44 95.5 -129t76.5 -172zM750 158q168 0 256 127.5t133 425.5q19 125 21.5 215t-10 152t-43.5 98.5t-76 52.5t-111 16q-163 0 -255 -121t-135 -415
q-33 -203 -18.5 -325.5t71 -174t167.5 -51.5zM721 -51q-167 0 -294 49t-208.5 143t-111.5 238.5t-3 329.5q29 189 103.5 332.5t185.5 233t250.5 134.5t304.5 45q360 0 515.5 -188.5t99.5 -554.5q-23 -155 -77.5 -281t-132.5 -215t-178.5 -149t-214 -88.5t-239.5 -28.5z" />
    <glyph glyph-name="Otilde" unicode="&#xd5;" horiz-adv-x="1626" 
d="M750 158q168 0 256 127.5t133 425.5q19 125 21.5 215t-10 152t-43.5 98.5t-76 52.5t-111 16q-163 0 -255 -121t-135 -415q-33 -203 -18.5 -325.5t71 -174t167.5 -51.5zM721 -51q-167 0 -294 49t-208.5 143t-111.5 238.5t-3 329.5q29 189 103.5 332.5t185.5 233
t250.5 134.5t304.5 45q360 0 515.5 -188.5t99.5 -554.5q-23 -155 -77.5 -281t-132.5 -215t-178.5 -149t-214 -88.5t-239.5 -28.5zM1268 1780l55 2q11 -73 -2 -127.5t-46 -85t-75.5 -44.5t-93.5 -12q-52 3 -90 22t-60 44t-49 70q-30 52 -48 69t-48 17q-37 0 -56.5 -40
t-11.5 -124l-55 -2q-22 144 39.5 208.5t177.5 61.5q68 -3 112 -33.5t85 -99.5q29 -50 48 -69t48 -19q86 0 70 162z" />
    <glyph glyph-name="Odieresis" unicode="&#xd6;" horiz-adv-x="1626" 
d="M920 1671q-6 -57 -44.5 -90t-91.5 -33t-84.5 33t-25.5 90q6 58 44 91.5t91 33.5t85 -33.5t26 -91.5zM1298 1671q-6 -57 -44.5 -90t-92.5 -33q-53 0 -84.5 33t-25.5 90q6 58 44 91.5t91 33.5t85.5 -33.5t26.5 -91.5zM750 158q168 0 256 127.5t133 425.5q19 125 21.5 215
t-10 152t-43.5 98.5t-76 52.5t-111 16q-163 0 -255 -121t-135 -415q-33 -203 -18.5 -325.5t71 -174t167.5 -51.5zM721 -51q-167 0 -294 49t-208.5 143t-111.5 238.5t-3 329.5q29 189 103.5 332.5t185.5 233t250.5 134.5t304.5 45q360 0 515.5 -188.5t99.5 -554.5
q-23 -155 -77.5 -281t-132.5 -215t-178.5 -149t-214 -88.5t-239.5 -28.5z" />
    <glyph glyph-name="multiply" unicode="&#xd7;" 
d="M950 250l-149 -125q-32 41 -99 136t-106 163q-100 -107 -297 -277l-100 125q171 138 325 240q-58 52 -131.5 130t-116.5 130l148 125q133 -168 205 -297q62 66 151 149.5t146 131.5l100 -125q-58 -49 -156.5 -123.5t-171.5 -122.5q96 -85 252 -260z" />
    <glyph glyph-name="Oslash" unicode="&#xd8;" horiz-adv-x="1626" 
d="M721 -51q-234 0 -385 92l-127 -127l-49 39l100 145q-216 197 -156 611q29 189 103.5 332.5t185.5 233t250.5 134.5t304.5 45q222 0 371 -76l127 131l45 -36l-96 -142q233 -181 168 -620q-23 -155 -77.5 -281t-132.5 -215t-178.5 -149t-214 -88.5t-239.5 -28.5zM750 158
q168 0 256 127.5t133 425.5q31 221 18 327l-309 -350l-313 -405q26 -66 78 -95.5t137 -29.5zM530 709q-29 -189 -20 -312l305 348l10 13l301 389q-28 53 -78.5 75.5t-127.5 22.5q-163 0 -255 -121t-135 -415z" />
    <glyph glyph-name="Ugrave" unicode="&#xd9;" horiz-adv-x="1683" 
d="M225 553q10 56 44 273.5t38 271.5q3 66 -15.5 93.5t-74.5 27.5h-63q11 61 28 192q248 -4 385 -4q81 0 229 2t152 2q-13 -49 -30 -192h-80q-58 0 -89.5 -27.5t-50.5 -93.5q-5 -21 -12 -60.5t-15.5 -100t-16 -113.5t-18.5 -137.5t-18 -133.5q-29 -198 28.5 -282.5
t203.5 -84.5q147 0 227.5 82.5t114.5 284.5q74 439 82 545q9 121 -100 121h-72q6 24 16 95.5t12 96.5q203 -4 318 -4q66 0 186 2t127 2q-13 -65 -28 -192h-64q-54 0 -83.5 -29.5t-41.5 -91.5q-13 -66 -80 -547q-48 -308 -222.5 -453t-467.5 -145q-106 0 -190 13.5t-153 43
t-114 76.5t-73.5 113.5t-31 154.5t12.5 199zM1151 1554l-16 -24q-86 21 -183.5 58.5t-160.5 78.5q-65 39 -66 93.5t48 72.5t118 -12q113 -70 260 -267z" />
    <glyph glyph-name="Uacute" unicode="&#xda;" horiz-adv-x="1683" 
d="M981 1530l-16 24q147 197 260 267q69 30 118 12t48 -72.5t-66 -93.5q-64 -42 -161 -79.5t-183 -57.5zM225 553q10 56 44 273.5t38 271.5q3 66 -15.5 93.5t-74.5 27.5h-63q11 61 28 192q248 -4 385 -4q81 0 229 2t152 2q-13 -49 -30 -192h-80q-58 0 -89.5 -27.5
t-50.5 -93.5q-5 -21 -12 -60.5t-15.5 -100t-16 -113.5t-18.5 -137.5t-18 -133.5q-29 -198 28.5 -282.5t203.5 -84.5q147 0 227.5 82.5t114.5 284.5q74 439 82 545q9 121 -100 121h-72q6 24 16 95.5t12 96.5q203 -4 318 -4q66 0 186 2t127 2q-13 -65 -28 -192h-64
q-54 0 -83.5 -29.5t-41.5 -91.5q-13 -66 -80 -547q-48 -308 -222.5 -453t-467.5 -145q-106 0 -190 13.5t-153 43t-114 76.5t-73.5 113.5t-31 154.5t12.5 199z" />
    <glyph glyph-name="Ucircumflex" unicode="&#xdb;" horiz-adv-x="1683" 
d="M1354 1550l-25 -20q-61 25 -126.5 70t-115.5 98q-53 -45 -147 -97t-154 -71l-18 22q39 81 118 163t156 136h140q47 -44 95.5 -129t76.5 -172zM225 553q10 56 44 273.5t38 271.5q3 66 -15.5 93.5t-74.5 27.5h-63q11 61 28 192q248 -4 385 -4q81 0 229 2t152 2
q-13 -49 -30 -192h-80q-58 0 -89.5 -27.5t-50.5 -93.5q-5 -21 -12 -60.5t-15.5 -100t-16 -113.5t-18.5 -137.5t-18 -133.5q-29 -198 28.5 -282.5t203.5 -84.5q147 0 227.5 82.5t114.5 284.5q74 439 82 545q9 121 -100 121h-72q6 24 16 95.5t12 96.5q203 -4 318 -4
q66 0 186 2t127 2q-13 -65 -28 -192h-64q-54 0 -83.5 -29.5t-41.5 -91.5q-13 -66 -80 -547q-48 -308 -222.5 -453t-467.5 -145q-106 0 -190 13.5t-153 43t-114 76.5t-73.5 113.5t-31 154.5t12.5 199z" />
    <glyph glyph-name="Udieresis" unicode="&#xdc;" horiz-adv-x="1683" 
d="M1004 1671q-6 -57 -44.5 -90t-91.5 -33t-84.5 33t-25.5 90q6 58 44 91.5t91 33.5t85 -33.5t26 -91.5zM1382 1671q-6 -57 -44.5 -90t-92.5 -33q-53 0 -84.5 33t-25.5 90q6 58 44 91.5t91 33.5t85.5 -33.5t26.5 -91.5zM225 553q10 56 44 273.5t38 271.5q3 66 -15.5 93.5
t-74.5 27.5h-63q11 61 28 192q248 -4 385 -4q81 0 229 2t152 2q-13 -49 -30 -192h-80q-58 0 -89.5 -27.5t-50.5 -93.5q-5 -21 -12 -60.5t-15.5 -100t-16 -113.5t-18.5 -137.5t-18 -133.5q-29 -198 28.5 -282.5t203.5 -84.5q147 0 227.5 82.5t114.5 284.5q74 439 82 545
q9 121 -100 121h-72q6 24 16 95.5t12 96.5q203 -4 318 -4q66 0 186 2t127 2q-13 -65 -28 -192h-64q-54 0 -83.5 -29.5t-41.5 -91.5q-13 -66 -80 -547q-48 -308 -222.5 -453t-467.5 -145q-106 0 -190 13.5t-153 43t-114 76.5t-73.5 113.5t-31 154.5t12.5 199z" />
    <glyph glyph-name="Yacute" unicode="&#xdd;" horiz-adv-x="1718" 
d="M1425 1067q-153 -208 -385 -569l-26 -187q-10 -64 10.5 -90t93.5 -26h96q-12 -64 -28 -199q-272 4 -426 4l-428 -4q6 24 16 98.5t12 100.5h91q75 0 103 24.5t36 87.5l26 180q-96 286 -223 605q-29 70 -76 98.5t-143 28.5h-33q6 24 16.5 96t12.5 96q278 -4 436 -4l438 4
q-6 -24 -16 -95.5t-12 -96.5h-62q-142 0 -96 -175q32 -109 135 -356q175 257 230 356q22 42 32.5 71.5t10 54.5t-20 37t-59.5 12h-51q6 24 16 95.5t12 96.5q207 -4 324 -4l319 4q-6 -22 -16 -94t-12 -98h-41q-88 0 -147 -19t-91.5 -48t-73.5 -85zM1094 1530l-17 24
q147 197 260 267q69 30 118 12t48.5 -72.5t-65.5 -93.5q-64 -42 -161 -79.5t-183 -57.5z" />
    <glyph glyph-name="Thorn" unicode="&#xde;" horiz-adv-x="1378" 
d="M-25 -4q7 29 29 199h76q64 0 84.5 18t36.5 82q17 58 71.5 404.5t57.5 408.5q5 61 -14 86t-74 25h-84q7 28 28 192q242 -4 377 -4q80 0 225.5 2t149.5 2q-22 -116 -27 -192h-73q-55 0 -84.5 -25t-46.5 -86l-7 -21q131 15 226 15q265 0 395 -108.5t90 -317.5
q-40 -200 -199 -280.5t-471 -80.5q-73 0 -159 11q-7 -81 12.5 -106t87.5 -25h74q-22 -123 -27 -199q-242 4 -377 4zM776 926q-38 0 -104 -4l-68 -430q63 -5 78 -5q150 0 217 43.5t88 161.5q43 234 -211 234z" />
    <glyph glyph-name="germandbls" unicode="&#xdf;" horiz-adv-x="1236" 
d="M98 848l15 98l141 -2q44 120 99.5 211.5t111 146.5t120.5 90t123 47.5t123 12.5q85 0 151.5 -22.5t106 -61t64.5 -90.5t28 -110.5t-5 -120.5q-39 -240 -252 -297q167 -20 232 -134t34 -294q-30 -179 -140.5 -267t-289.5 -88q-163 0 -222 98.5t7 282.5l76 -6
q-87 -238 55 -238q56 0 94.5 60.5t67.5 200.5q36 180 -15 256.5t-184 68.5q11 38 18 88q76 0 123 56.5t76 203.5q60 303 -70 303q-36 0 -63 -12t-57 -49t-53.5 -102t-48 -175.5t-46.5 -265.5q-46 -321 -109 -545t-145 -357t-178 -192t-217 -59q-116 0 -172 54t-37 133
q10 49 45 76.5t86 27.5q54 0 82 -33t16 -84q-10 -43 -49 -64t-86 -16q21 -18 68 -18q40 0 72 15t57.5 40.5t47 74.5t38 103t33.5 140.5t30.5 171.5t30.5 211q34 251 90 434z" />
    <glyph glyph-name="agrave" unicode="&#xe0;" horiz-adv-x="1179" 
d="M1163 383q-18 -196 -105 -311t-229 -115q-114 0 -163.5 53t-42.5 174q-53 -112 -136.5 -169.5t-185.5 -57.5q-132 0 -195.5 102t-35.5 322q20 154 68 273.5t112.5 191t137.5 107.5t151 36q211 0 239 -188q97 89 131 151q23 -2 88 -2t88 2q-28 -120 -69.5 -324t-59.5 -319
q-17 -114 -14 -159.5t29 -45.5q36 0 65 77t47 206zM459 106q66 0 126.5 113.5t100.5 337.5q19 104 21 163.5t-16 89.5t-60 30q-138 0 -217 -455q-20 -112 -21.5 -171.5t14 -83.5t52.5 -24zM823 1104l-16 -25q-85 20 -183 58t-161 80q-65 39 -66 93t48 72t118 -12
q114 -71 260 -266z" />
    <glyph glyph-name="aacute" unicode="&#xe1;" horiz-adv-x="1179" 
d="M1163 383q-18 -196 -105 -311t-229 -115q-114 0 -163.5 53t-42.5 174q-53 -112 -136.5 -169.5t-185.5 -57.5q-132 0 -195.5 102t-35.5 322q20 154 68 273.5t112.5 191t137.5 107.5t151 36q211 0 239 -188q97 89 131 151q23 -2 88 -2t88 2q-28 -120 -69.5 -324t-59.5 -319
q-17 -114 -14 -159.5t29 -45.5q36 0 65 77t47 206zM459 106q66 0 126.5 113.5t100.5 337.5q19 104 21 163.5t-16 89.5t-60 30q-138 0 -217 -455q-20 -112 -21.5 -171.5t14 -83.5t52.5 -24zM639 1079l-16 25q146 195 260 266q69 30 118 12t48 -72t-66 -93q-64 -42 -161 -80
t-183 -58z" />
    <glyph glyph-name="acircumflex" unicode="&#xe2;" horiz-adv-x="1179" 
d="M1163 383q-18 -196 -105 -311t-229 -115q-114 0 -163.5 53t-42.5 174q-53 -112 -136.5 -169.5t-185.5 -57.5q-132 0 -195.5 102t-35.5 322q20 154 68 273.5t112.5 191t137.5 107.5t151 36q211 0 239 -188q97 89 131 151q23 -2 88 -2t88 2q-28 -120 -69.5 -324t-59.5 -319
q-17 -114 -14 -159.5t29 -45.5q36 0 65 77t47 206zM459 106q66 0 126.5 113.5t100.5 337.5q19 104 21 163.5t-16 89.5t-60 30q-138 0 -217 -455q-20 -112 -21.5 -171.5t14 -83.5t52.5 -24zM1038 1100l-24 -21q-61 25 -126.5 70t-115.5 98q-53 -45 -147 -97t-154 -71l-18 23
q39 81 118 163t156 136h139q47 -44 95.5 -129t76.5 -172z" />
    <glyph glyph-name="atilde" unicode="&#xe3;" horiz-adv-x="1179" 
d="M1163 383q-18 -196 -105 -311t-229 -115q-114 0 -163.5 53t-42.5 174q-53 -112 -136.5 -169.5t-185.5 -57.5q-132 0 -195.5 102t-35.5 322q20 154 68 273.5t112.5 191t137.5 107.5t151 36q211 0 239 -188q97 89 131 151q23 -2 88 -2t88 2q-28 -120 -69.5 -324t-59.5 -319
q-17 -114 -14 -159.5t29 -45.5q36 0 65 77t47 206zM459 106q66 0 126.5 113.5t100.5 337.5q19 104 21 163.5t-16 89.5t-60 30q-138 0 -217 -455q-20 -112 -21.5 -171.5t14 -83.5t52.5 -24zM1020 1329l55 2q11 -73 -2 -127.5t-46 -84.5t-75.5 -44t-93.5 -12q-75 4 -117 36
t-82 99q-30 52 -48 69t-48 17q-37 0 -56 -40t-11 -124l-56 -2q-11 74 1 129t43.5 85.5t74.5 44.5t98 12q68 -3 112 -34t85 -100q29 -50 48 -69t48 -19q86 0 70 162z" />
    <glyph glyph-name="adieresis" unicode="&#xe4;" horiz-adv-x="1179" 
d="M1163 383q-18 -196 -105 -311t-229 -115q-114 0 -163.5 53t-42.5 174q-53 -112 -136.5 -169.5t-185.5 -57.5q-132 0 -195.5 102t-35.5 322q20 154 68 273.5t112.5 191t137.5 107.5t151 36q211 0 239 -188q97 89 131 151q23 -2 88 -2t88 2q-28 -120 -69.5 -324t-59.5 -319
q-17 -114 -14 -159.5t29 -45.5q36 0 65 77t47 206zM459 106q66 0 126.5 113.5t100.5 337.5q19 104 21 163.5t-16 89.5t-60 30q-138 0 -217 -455q-20 -112 -21.5 -171.5t14 -83.5t52.5 -24zM684 1210q-6 -57 -44 -90t-91 -33t-85 33t-26 90q6 58 44 91.5t91 33.5t85 -33.5
t26 -91.5zM1063 1210q-6 -57 -44.5 -90t-92.5 -33q-53 0 -85 33t-26 90q6 58 44 91.5t91 33.5t86 -33.5t27 -91.5z" />
    <glyph glyph-name="aring" unicode="&#xe5;" horiz-adv-x="1179" 
d="M1163 383q-18 -196 -105 -311t-229 -115q-114 0 -163.5 53t-42.5 174q-53 -112 -136.5 -169.5t-185.5 -57.5q-132 0 -195.5 102t-35.5 322q20 154 68 273.5t112.5 191t137.5 107.5t151 36q211 0 239 -188q97 89 131 151q23 -2 88 -2t88 2q-28 -120 -69.5 -324t-59.5 -319
q-17 -114 -14 -159.5t29 -45.5q36 0 65 77t47 206zM459 106q66 0 126.5 113.5t100.5 337.5q19 104 21 163.5t-16 89.5t-60 30q-138 0 -217 -455q-20 -112 -21.5 -171.5t14 -83.5t52.5 -24zM627 1257q-4 -49 18 -74.5t66 -25.5t72 25.5t34 74.5q4 49 -18.5 76t-65.5 27
t-71.5 -27t-34.5 -76zM537 1257q9 83 63 134t139 51q82 0 128.5 -51.5t37.5 -133.5q-9 -83 -62.5 -133.5t-137.5 -50.5q-82 0 -129.5 51.5t-38.5 132.5z" />
    <glyph glyph-name="ae" unicode="&#xe6;" horiz-adv-x="1574" 
d="M1296 346q6 0 49.5 -3.5t78.5 -5.5t51 -1q-19 -90 -51 -156.5t-83.5 -118t-130 -78t-182.5 -26.5q-171 0 -260 67t-104 209q-56 -134 -151.5 -205t-209.5 -71q-132 0 -197.5 102t-37.5 322q20 154 68 273.5t112.5 191t137.5 107.5t151 36q239 0 243 -235q146 235 430 235
q180 0 256 -84t54 -223q-13 -82 -60.5 -138t-122 -82.5t-153.5 -36t-178 -7.5q-28 -155 -6 -219t100 -64q75 0 122.5 47t73.5 164zM457 106q66 0 126.5 113.5t100.5 337.5q19 104 21 163.5t-16 89.5t-60 30q-66 0 -118.5 -105t-98.5 -350q-20 -112 -21.5 -171.5t14 -83.5
t52.5 -24zM1198 862q-40 0 -65 -26.5t-52 -106.5t-63 -244q69 1 108 13.5t68.5 51.5t46.5 114q21 80 11.5 139t-54.5 59z" />
    <glyph glyph-name="ccedilla" unicode="&#xe7;" horiz-adv-x="970" 
d="M256 -225l-23 47q58 27 91.5 59.5t48.5 77.5q-192 14 -264 139t-27 375q49 256 188 386t346 130q162 0 239.5 -67t72.5 -181q-4 -95 -51.5 -145.5t-128.5 -50.5q-66 0 -107 41.5t-25 118.5q11 57 57 83t103 21q-27 55 -104 55q-45 0 -76 -13.5t-62 -54t-57 -117.5
t-53 -200q-32 -135 -27 -211.5t32 -104.5t85 -28q70 0 115 50t69 161q175 -10 179 -10q-77 -371 -437 -379q-13 -56 -57 -100q94 7 159.5 -35.5t61.5 -128.5q-3 -90 -72 -141.5t-184 -51.5q-76 0 -133 33t-88 88l49 41q54 -70 133 -70q53 0 82.5 26.5t32.5 74.5
q3 64 -48.5 86.5t-119.5 -4.5z" />
    <glyph glyph-name="egrave" unicode="&#xe8;" horiz-adv-x="978" 
d="M700 346q169 -10 179 -10q-18 -90 -49.5 -156.5t-83 -118t-130 -78t-182.5 -26.5q-231 0 -316 123.5t-36 392.5q48 256 187 386t345 130q181 0 257 -87t53 -226q-10 -66 -44 -114.5t-81.5 -76.5t-113.5 -44t-130 -20.5t-143 -2.5q-29 -155 -7 -219t101 -64
q76 0 121.5 46.5t72.5 164.5zM602 862q-39 0 -63.5 -26t-52 -107.5t-62.5 -243.5q100 0 148 33.5t73 138.5q21 79 11.5 142t-54.5 63zM805 1104l-17 -25q-85 20 -183 58t-161 80q-65 39 -65.5 93t48.5 72t118 -12q114 -71 260 -266z" />
    <glyph glyph-name="eacute" unicode="&#xe9;" horiz-adv-x="978" 
d="M547 1079l-17 25q145 194 261 266q69 30 118 12t48 -72t-66 -93q-64 -42 -161 -80t-183 -58zM700 346q169 -10 179 -10q-18 -90 -49.5 -156.5t-83 -118t-130 -78t-182.5 -26.5q-231 0 -316 123.5t-36 392.5q48 256 187 386t345 130q181 0 257 -87t53 -226
q-10 -66 -44 -114.5t-81.5 -76.5t-113.5 -44t-130 -20.5t-143 -2.5q-29 -155 -7 -219t101 -64q76 0 121.5 46.5t72.5 164.5zM602 862q-39 0 -63.5 -26t-52 -107.5t-62.5 -243.5q100 0 148 33.5t73 138.5q21 79 11.5 142t-54.5 63z" />
    <glyph glyph-name="ecircumflex" unicode="&#xea;" horiz-adv-x="978" 
d="M909 1100l-24 -21q-61 25 -126.5 70t-115.5 98q-53 -45 -147 -97t-154 -71l-18 23q39 81 118 163t156 136h139q47 -44 95.5 -129t76.5 -172zM700 346q169 -10 179 -10q-18 -90 -49.5 -156.5t-83 -118t-130 -78t-182.5 -26.5q-231 0 -316 123.5t-36 392.5q48 256 187 386
t345 130q181 0 257 -87t53 -226q-10 -66 -44 -114.5t-81.5 -76.5t-113.5 -44t-130 -20.5t-143 -2.5q-29 -155 -7 -219t101 -64q76 0 121.5 46.5t72.5 164.5zM602 862q-39 0 -63.5 -26t-52 -107.5t-62.5 -243.5q100 0 148 33.5t73 138.5q21 79 11.5 142t-54.5 63z" />
    <glyph glyph-name="edieresis" unicode="&#xeb;" horiz-adv-x="978" 
d="M578 1221q-6 -57 -44.5 -90t-91.5 -33t-84.5 33t-25.5 90q6 58 44 91.5t91 33.5t85 -33.5t26 -91.5zM956 1221q-6 -57 -44.5 -90t-92.5 -33q-53 0 -84.5 33t-25.5 90q6 58 44 91.5t91 33.5t85.5 -33.5t26.5 -91.5zM700 346q169 -10 179 -10q-18 -90 -49.5 -156.5
t-83 -118t-130 -78t-182.5 -26.5q-231 0 -316 123.5t-36 392.5q48 256 187 386t345 130q181 0 257 -87t53 -226q-10 -66 -44 -114.5t-81.5 -76.5t-113.5 -44t-130 -20.5t-143 -2.5q-29 -155 -7 -219t101 -64q76 0 121.5 46.5t72.5 164.5zM602 862q-39 0 -63.5 -26
t-52 -107.5t-62.5 -243.5q100 0 148 33.5t73 138.5q21 79 11.5 142t-54.5 63z" />
    <glyph glyph-name="igrave" unicode="&#xec;" horiz-adv-x="727" 
d="M565 606l-84 -325q-41 -175 21 -175q73 0 112 281l80 -4q-7 -83 -29 -156t-61 -135.5t-101 -98.5t-141 -36q-309 0 -206 371l94 342q16 55 20.5 94t-2 57.5t-22.5 18.5q-48 0 -80.5 -78.5t-46.5 -208.5l-80 4q10 87 33 161.5t61 136.5t96 98t131 36q152 0 202 -100.5
t3 -282.5zM567 1104l-16 -25q-85 20 -183 58t-161 80q-65 39 -66 93t48 72t118 -12q114 -71 260 -266z" />
    <glyph glyph-name="iacute" unicode="&#xed;" horiz-adv-x="727" 
d="M373 1079l-17 25q146 195 260 266q69 30 118 12t48.5 -72t-65.5 -93q-64 -42 -161 -80t-183 -58zM565 606l-84 -325q-41 -175 21 -175q73 0 112 281l80 -4q-7 -83 -29 -156t-61 -135.5t-101 -98.5t-141 -36q-309 0 -206 371l94 342q16 55 20.5 94t-2 57.5t-22.5 18.5
q-48 0 -80.5 -78.5t-46.5 -208.5l-80 4q10 87 33 161.5t61 136.5t96 98t131 36q152 0 202 -100.5t3 -282.5z" />
    <glyph glyph-name="icircumflex" unicode="&#xee;" horiz-adv-x="727" 
d="M719 1100l-25 -21q-135 56 -241 168q-53 -45 -147 -97t-154 -71l-19 23q39 81 118 163t157 136h139q47 -44 95.5 -129t76.5 -172zM565 606l-84 -325q-41 -175 21 -175q73 0 112 281l80 -4q-7 -83 -29 -156t-61 -135.5t-101 -98.5t-141 -36q-309 0 -206 371l94 342
q16 55 20.5 94t-2 57.5t-22.5 18.5q-48 0 -80.5 -78.5t-46.5 -208.5l-80 4q10 87 33 161.5t61 136.5t96 98t131 36q152 0 202 -100.5t3 -282.5z" />
    <glyph glyph-name="idieresis" unicode="&#xef;" horiz-adv-x="727" 
d="M391 1221q-6 -57 -44 -90t-91 -33t-85 33t-26 90q6 58 44.5 91.5t91.5 33.5t84.5 -33.5t25.5 -91.5zM770 1221q-6 -57 -44.5 -90t-92.5 -33q-53 0 -85 33t-26 90q6 58 44 91.5t91 33.5t86 -33.5t27 -91.5zM565 606l-84 -325q-41 -175 21 -175q73 0 112 281l80 -4
q-7 -83 -29 -156t-61 -135.5t-101 -98.5t-141 -36q-309 0 -206 371l94 342q16 55 20.5 94t-2 57.5t-22.5 18.5q-48 0 -80.5 -78.5t-46.5 -208.5l-80 4q10 87 33 161.5t61 136.5t96 98t131 36q152 0 202 -100.5t3 -282.5z" />
    <glyph glyph-name="eth" unicode="&#xf0;" horiz-adv-x="1083" 
d="M532 1073l-34 53l129 82q-88 52 -279 43l23 160q261 12 415 -90q72 62 123 96l35 -53q-10 -7 -28 -18.5t-44.5 -28.5t-42.5 -27q129 -105 172 -287t13 -411q-41 -328 -186.5 -481.5t-366.5 -153.5q-100 0 -176.5 26.5t-132 82t-76.5 152t-2 226.5q20 135 65 238.5
t106 164.5t129.5 91.5t143.5 30.5q158 0 203 -107q25 231 -53 314q-126 -96 -136 -103zM403 395q-25 -157 -11.5 -227t71.5 -70q63 0 112.5 105.5t92.5 347.5q30 152 19 224.5t-73 72.5q-66 0 -121.5 -113.5t-89.5 -339.5z" />
    <glyph glyph-name="ntilde" unicode="&#xf1;" horiz-adv-x="1257" 
d="M104 553l-79 4q9 84 31.5 157.5t60 137t97.5 100.5t136 37q203 0 199 -239q118 239 344 239q307 0 197 -416l-72 -270q-28 -107 -25 -153t39 -46q70 0 109 283l80 -4q-7 -84 -30 -157.5t-62.5 -135.5t-102.5 -97.5t-143 -35.5q-102 0 -158.5 50t-63 136.5t24.5 202.5
l68 229q77 265 -19 265q-49 0 -90.5 -46t-88 -176t-91.5 -352l-55 -268q-101 6 -158 6l-158 -6q77 326 137 643q23 110 22.5 154.5t-30.5 44.5q-41 0 -73 -79.5t-46 -207.5zM1032 1329l55 2q11 -73 -2 -127.5t-46 -84.5t-75.5 -44t-93.5 -12q-75 4 -116.5 36t-81.5 99
q-30 51 -48.5 68.5t-48.5 17.5q-37 0 -56 -40t-11 -124l-55 -2q-11 74 1 129t43.5 85.5t74.5 44.5t98 12q68 -3 111 -34t85 -100q28 -49 48 -68.5t49 -19.5q85 0 69 162z" />
    <glyph glyph-name="ograve" unicode="&#xf2;" horiz-adv-x="1050" 
d="M451 98q68 0 124 133t93 379q17 96 11 149t-24 71t-55 18q-142 0 -215 -483q-20 -155 -3.5 -211t69.5 -56zM442 -43q-207 0 -309.5 117t-75.5 350q19 159 88.5 285.5t189.5 203t271 76.5q203 0 304 -108.5t83 -327.5q-10 -122 -49.5 -228t-106.5 -189t-169 -131t-226 -48
zM788 1104l-16 -25q-85 20 -183 58t-161 80q-65 39 -66 93t48 72t118 -12q114 -71 260 -266z" />
    <glyph glyph-name="oacute" unicode="&#xf3;" horiz-adv-x="1050" 
d="M571 1079l-16 25q146 195 260 266q69 30 118 12t48 -72t-66 -93q-64 -42 -161 -80t-183 -58zM451 98q68 0 124 133t93 379q17 96 11 149t-24 71t-55 18q-142 0 -215 -483q-20 -155 -3.5 -211t69.5 -56zM442 -43q-207 0 -309.5 117t-75.5 350q19 159 88.5 285.5t189.5 203
t271 76.5q203 0 304 -108.5t83 -327.5q-10 -122 -49.5 -228t-106.5 -189t-169 -131t-226 -48z" />
    <glyph glyph-name="ocircumflex" unicode="&#xf4;" horiz-adv-x="1050" 
d="M940 1100l-25 -21q-135 56 -241 168q-53 -45 -147 -97t-154 -71l-19 23q39 81 118 163t157 136h139q47 -44 95.5 -129t76.5 -172zM451 98q68 0 124 133t93 379q17 96 11 149t-24 71t-55 18q-142 0 -215 -483q-20 -155 -3.5 -211t69.5 -56zM442 -43q-207 0 -309.5 117
t-75.5 350q19 159 88.5 285.5t189.5 203t271 76.5q203 0 304 -108.5t83 -327.5q-10 -122 -49.5 -228t-106.5 -189t-169 -131t-226 -48z" />
    <glyph glyph-name="otilde" unicode="&#xf5;" horiz-adv-x="1050" 
d="M451 98q68 0 124 133t93 379q17 96 11 149t-24 71t-55 18q-142 0 -215 -483q-20 -155 -3.5 -211t69.5 -56zM442 -43q-207 0 -309.5 117t-75.5 350q19 159 88.5 285.5t189.5 203t271 76.5q203 0 304 -108.5t83 -327.5q-10 -122 -49.5 -228t-106.5 -189t-169 -131t-226 -48
zM944 1329l55 2q11 -73 -2 -127.5t-46 -84.5t-75.5 -44t-93.5 -12q-75 4 -116.5 36t-81.5 99q-30 51 -48.5 68.5t-48.5 17.5q-37 0 -56 -40t-11 -124l-55 -2q-11 74 1 129t43.5 85.5t74.5 44.5t98 12q68 -3 111 -34t85 -100q29 -50 48 -69t48 -19q86 0 70 162z" />
    <glyph glyph-name="odieresis" unicode="&#xf6;" horiz-adv-x="1050" 
d="M602 1221q-6 -57 -44 -90t-91 -33t-85 33t-26 90q6 58 44.5 91.5t91.5 33.5t84.5 -33.5t25.5 -91.5zM981 1221q-6 -57 -44.5 -90t-92.5 -33q-53 0 -85 33t-26 90q6 58 44 91.5t91 33.5t86 -33.5t27 -91.5zM451 98q68 0 124 133t93 379q17 96 11 149t-24 71t-55 18
q-142 0 -215 -483q-20 -155 -3.5 -211t69.5 -56zM442 -43q-207 0 -309.5 117t-75.5 350q19 159 88.5 285.5t189.5 203t271 76.5q203 0 304 -108.5t83 -327.5q-10 -122 -49.5 -228t-106.5 -189t-169 -131t-226 -48z" />
    <glyph glyph-name="divide" unicode="&#xf7;" 
d="M698 225q0 -59 -35.5 -92t-99.5 -33q-63 0 -99 31.5t-36 95.5q0 56 38.5 92.5t96.5 36.5q64 0 99.5 -37.5t35.5 -93.5zM162 426l33 176q92 0 227 -10.5t201 -28.5q73 18 212.5 28.5t231.5 10.5l-33 -176q-90 0 -227 10t-203 27q-74 -17 -213 -27t-229 -10zM801 797
q0 -58 -35.5 -91.5t-99.5 -33.5q-62 0 -99 32t-37 95q0 55 38.5 92t97.5 37q64 0 99.5 -36.5t35.5 -94.5z" />
    <glyph glyph-name="oslash" unicode="&#xf8;" horiz-adv-x="1050" 
d="M442 -43q-117 0 -198 37l-90 -113l-31 23l65 119q-164 114 -131 401q19 159 88.5 285.5t189.5 203t271 76.5q124 0 203 -39l113 144l26 -19l-82 -155q147 -110 127 -367q-10 -122 -49.5 -228t-106.5 -189t-169 -131t-226 -48zM385 365q-9 -58 -10 -74l151 213l152 244
q-1 57 -20 78.5t-58 21.5q-142 0 -215 -483zM451 98q69 0 128 145.5t93 391.5l-121 -166l-176 -281q8 -90 76 -90z" />
    <glyph glyph-name="ugrave" unicode="&#xf9;" horiz-adv-x="1259" 
d="M1151 387l80 -4q-8 -82 -31 -156t-61 -135.5t-96.5 -98t-129.5 -36.5q-116 0 -166.5 53t-46.5 178q-113 -231 -331 -231q-107 0 -162 51t-59.5 144t24.5 223l68 262q28 109 28 156t-28 47q-46 0 -78.5 -79t-46.5 -208l-80 4q9 84 31.5 157.5t60 137t97.5 100.5t136 37
q81 0 132.5 -30t71.5 -85t19 -123t-22 -151l-57 -227q-35 -141 -30 -204t50 -63q28 0 55.5 19.5t60 67t66 145.5t62.5 237l80 379q103 -4 160 -4l157 4q-50 -218 -135 -637q-12 -63 -17.5 -98t-6.5 -64t6 -40t22 -11q38 0 68.5 76.5t48.5 206.5zM819 1104l-16 -25
q-85 20 -183 58t-161 80q-65 39 -66 93t48 72t118 -12q114 -71 260 -266z" />
    <glyph glyph-name="uacute" unicode="&#xfa;" horiz-adv-x="1259" 
d="M618 1079l-16 25q146 195 260 266q69 30 118 12t48.5 -72t-65.5 -93q-64 -42 -161.5 -80t-183.5 -58zM1151 387l80 -4q-8 -82 -31 -156t-61 -135.5t-96.5 -98t-129.5 -36.5q-116 0 -166.5 53t-46.5 178q-113 -231 -331 -231q-107 0 -162 51t-59.5 144t24.5 223l68 262
q28 109 28 156t-28 47q-46 0 -78.5 -79t-46.5 -208l-80 4q9 84 31.5 157.5t60 137t97.5 100.5t136 37q81 0 132.5 -30t71.5 -85t19 -123t-22 -151l-57 -227q-35 -141 -30 -204t50 -63q28 0 55.5 19.5t60 67t66 145.5t62.5 237l80 379q103 -4 160 -4l157 4
q-50 -218 -135 -637q-12 -63 -17.5 -98t-6.5 -64t6 -40t22 -11q38 0 68.5 76.5t48.5 206.5z" />
    <glyph glyph-name="ucircumflex" unicode="&#xfb;" horiz-adv-x="1259" 
d="M1012 1100l-25 -21q-61 25 -126.5 70t-115.5 98q-53 -45 -147 -97t-154 -71l-18 23q39 81 118 163t156 136h140q47 -44 95.5 -129t76.5 -172zM1151 387l80 -4q-8 -82 -31 -156t-61 -135.5t-96.5 -98t-129.5 -36.5q-116 0 -166.5 53t-46.5 178q-113 -231 -331 -231
q-107 0 -162 51t-59.5 144t24.5 223l68 262q28 109 28 156t-28 47q-46 0 -78.5 -79t-46.5 -208l-80 4q9 84 31.5 157.5t60 137t97.5 100.5t136 37q81 0 132.5 -30t71.5 -85t19 -123t-22 -151l-57 -227q-35 -141 -30 -204t50 -63q28 0 55.5 19.5t60 67t66 145.5t62.5 237
l80 379q103 -4 160 -4l157 4q-50 -218 -135 -637q-12 -63 -17.5 -98t-6.5 -64t6 -40t22 -11q38 0 68.5 76.5t48.5 206.5z" />
    <glyph glyph-name="udieresis" unicode="&#xfc;" horiz-adv-x="1259" 
d="M676 1221q-6 -57 -44 -90t-91 -33t-85 33t-26 90q6 58 44 91.5t91 33.5t85 -33.5t26 -91.5zM1055 1221q-6 -57 -44.5 -90t-92.5 -33q-53 0 -85 33t-26 90q6 58 44 91.5t91 33.5t86 -33.5t27 -91.5zM1151 387l80 -4q-8 -82 -31 -156t-61 -135.5t-96.5 -98t-129.5 -36.5
q-116 0 -166.5 53t-46.5 178q-113 -231 -331 -231q-107 0 -162 51t-59.5 144t24.5 223l68 262q28 109 28 156t-28 47q-46 0 -78.5 -79t-46.5 -208l-80 4q9 84 31.5 157.5t60 137t97.5 100.5t136 37q81 0 132.5 -30t71.5 -85t19 -123t-22 -151l-57 -227q-35 -141 -30 -204
t50 -63q28 0 55.5 19.5t60 67t66 145.5t62.5 237l80 379q103 -4 160 -4l157 4q-50 -218 -135 -637q-12 -63 -17.5 -98t-6.5 -64t6 -40t22 -11q38 0 68.5 76.5t48.5 206.5z" />
    <glyph glyph-name="yacute" unicode="&#xfd;" horiz-adv-x="1183" 
d="M115 553l-80 4q9 84 31.5 157.5t60 137t97.5 100.5t136 37q300 0 201 -389l-59 -227q-33 -126 -27 -196.5t49 -70.5q27 0 55.5 20.5t61 68t65.5 142.5t60 228l80 391q40 -4 155 -4l156 4q-14 -63 -85 -416t-85 -434q-25 -139 -80.5 -241.5t-135 -163t-173 -89
t-203.5 -28.5q-158 0 -233 63t-62 150q9 61 49 95t99 34q54 0 85.5 -29.5t28.5 -80.5q-4 -61 -50.5 -91t-106.5 -18q54 -57 166 -57q44 0 80 11.5t62 30.5t47.5 50t36 64.5t27.5 79.5t22.5 88.5t20.5 97.5l9 45l8 41q-112 -201 -315 -201q-111 0 -167 54t-57.5 147t27.5 217
l66 262q28 110 28 156.5t-28 46.5q-92 0 -123 -287zM631 1079l-17 25q146 195 260 266q69 30 118 12t48.5 -72t-65.5 -93q-64 -42 -161 -80t-183 -58z" />
    <glyph glyph-name="thorn" unicode="&#xfe;" horiz-adv-x="1118" 
d="M561 1120l-67 -340q107 209 303 209q133 0 199.5 -107.5t39.5 -314.5q-21 -161 -67.5 -281.5t-111 -191t-137.5 -104t-157 -33.5q-157 0 -215 104q-4 -22 -12 -58.5t-12.5 -60.5t-6.5 -38q-9 -57 8 -79t70 -22h60q-33 -147 -35 -163q-193 4 -299 4l-301 -4q18 60 33 163
h34q48 0 75.5 24t39.5 77q38 165 130 608.5t122 628.5q9 54 -4.5 82t-65.5 28h-39l11 162q221 -8 442 0q-2 -102 -37 -293zM645 840q-67 0 -128.5 -114t-100.5 -337q-28 -151 -17 -217t72 -66q137 0 217 457q29 164 19.5 220.5t-62.5 56.5z" />
    <glyph glyph-name="ydieresis" unicode="&#xff;" horiz-adv-x="1183" 
d="M115 553l-80 4q9 84 31.5 157.5t60 137t97.5 100.5t136 37q300 0 201 -389l-59 -227q-33 -126 -27 -196.5t49 -70.5q27 0 55.5 20.5t61 68t65.5 142.5t60 228l80 391q40 -4 155 -4l156 4q-14 -63 -85 -416t-85 -434q-25 -139 -80.5 -241.5t-135 -163t-173 -89
t-203.5 -28.5q-158 0 -233 63t-62 150q9 61 49 95t99 34q54 0 85.5 -29.5t28.5 -80.5q-4 -61 -50.5 -91t-106.5 -18q54 -57 166 -57q44 0 80 11.5t62 30.5t47.5 50t36 64.5t27.5 79.5t22.5 88.5t20.5 97.5l9 45l8 41q-112 -201 -315 -201q-111 0 -167 54t-57.5 147t27.5 217
l66 262q28 110 28 156.5t-28 46.5q-92 0 -123 -287zM662 1221q-6 -57 -44.5 -90t-91.5 -33t-84.5 33t-25.5 90q6 58 44 91.5t91 33.5t85 -33.5t26 -91.5zM1040 1221q-6 -57 -44.5 -90t-92.5 -33q-53 0 -84.5 33t-25.5 90q6 58 44 91.5t91 33.5t85.5 -33.5t26.5 -91.5z" />
    <glyph glyph-name="Amacron" unicode="&#x100;" horiz-adv-x="1798" 
d="M1024 436q-201 6 -487 2l-25 -51q-47 -98 -33 -145t96 -47h76q-16 -81 -30 -199q-205 4 -322 4l-326 -4q21 114 31 199h51q84 0 134.5 40t105.5 140q104 189 280.5 526t270.5 526q122 -4 190 -4l189 4q38 -185 118 -522t132 -530q27 -103 62 -141.5t97 -38.5h66
q-14 -57 -31 -199q-274 4 -428 4l-428 -4q21 113 31 199h82q73 0 97 47.5t9 146.5q-1 4 -2.5 13t-3 17.5t-2.5 16.5zM594 551q208 -3 405 0q-81 386 -120 553q-21 -40 -128.5 -247.5t-156.5 -305.5zM768 1571q7 23 18 84.5t13 87.5q94 -3 282.5 -3t282.5 3q-21 -84 -31 -172
q-94 3 -282.5 3t-282.5 -3z" />
    <glyph glyph-name="amacron" unicode="&#x101;" horiz-adv-x="1179" 
d="M1163 383q-18 -196 -105 -311t-229 -115q-114 0 -163.5 53t-42.5 174q-53 -112 -136.5 -169.5t-185.5 -57.5q-132 0 -195.5 102t-35.5 322q20 154 68 273.5t112.5 191t137.5 107.5t151 36q211 0 239 -188q97 89 131 151q23 -2 88 -2t88 2q-28 -120 -69.5 -324t-59.5 -319
q-17 -114 -14 -159.5t29 -45.5q36 0 65 77t47 206zM459 106q66 0 126.5 113.5t100.5 337.5q19 104 21 163.5t-16 89.5t-60 30q-138 0 -217 -455q-20 -112 -21.5 -171.5t14 -83.5t52.5 -24zM418 1102q7 23 18 84.5t13 87.5q94 -3 282.5 -3t282.5 3q-21 -84 -31 -172
q-94 3 -282.5 3t-282.5 -3z" />
    <glyph glyph-name="Abreve" unicode="&#x102;" horiz-adv-x="1798" 
d="M1024 436q-201 6 -487 2l-25 -51q-47 -98 -33 -145t96 -47h76q-16 -81 -30 -199q-205 4 -322 4l-326 -4q21 114 31 199h51q84 0 134.5 40t105.5 140q104 189 280.5 526t270.5 526q122 -4 190 -4l189 4q38 -185 118 -522t132 -530q27 -103 62 -141.5t97 -38.5h66
q-14 -57 -31 -199q-274 4 -428 4l-428 -4q21 113 31 199h82q73 0 97 47.5t9 146.5q-1 4 -2.5 13t-3 17.5t-2.5 16.5zM594 551q208 -3 405 0q-81 386 -120 553q-21 -40 -128.5 -247.5t-156.5 -305.5zM1030 1532q-149 0 -202 83t-17 214l49 4q-3 -70 43.5 -97.5t151.5 -27.5
t157.5 27.5t67.5 97.5l51 -4q0 -131 -76 -214t-225 -83z" />
    <glyph glyph-name="abreve" unicode="&#x103;" horiz-adv-x="1179" 
d="M1163 383q-18 -196 -105 -311t-229 -115q-114 0 -163.5 53t-42.5 174q-53 -112 -136.5 -169.5t-185.5 -57.5q-132 0 -195.5 102t-35.5 322q20 154 68 273.5t112.5 191t137.5 107.5t151 36q211 0 239 -188q97 89 131 151q23 -2 88 -2t88 2q-28 -120 -69.5 -324t-59.5 -319
q-17 -114 -14 -159.5t29 -45.5q36 0 65 77t47 206zM459 106q66 0 126.5 113.5t100.5 337.5q19 104 21 163.5t-16 89.5t-60 30q-138 0 -217 -455q-20 -112 -21.5 -171.5t14 -83.5t52.5 -24zM713 1096q-149 0 -202 83t-17 214l49 4q-3 -70 43 -97.5t151 -27.5t158 27.5
t68 97.5l51 -4q0 -131 -76 -214t-225 -83z" />
    <glyph glyph-name="Aogonek" unicode="&#x104;" horiz-adv-x="1798" 
d="M1565 -141q-24 -281 -281 -281q-97 0 -155.5 49t-49.5 140q7 79 61 139t138 94h-37l-428 -4q21 113 31 199h82q73 0 97 47.5t9 146.5q-1 4 -2.5 13t-3 17.5t-2.5 16.5q-201 6 -487 2l-25 -51q-47 -98 -33 -145t96 -47h76q-16 -81 -30 -199q-205 4 -322 4l-326 -4
q21 114 31 199h51q84 0 134.5 40t105.5 140q104 189 280.5 526t270.5 526q122 -4 190 -4l189 4q38 -185 118 -522t132 -530q27 -103 62 -141.5t97 -38.5h66q-14 -57 -31 -199q-146 4 -283 4q-61 -25 -96.5 -66.5t-38.5 -93.5q-3 -49 25.5 -73.5t75.5 -24.5q112 0 147 127z
M594 551q208 -3 405 0q-81 386 -120 553q-21 -40 -128.5 -247.5t-156.5 -305.5z" />
    <glyph glyph-name="aogonek" unicode="&#x105;" horiz-adv-x="1179" 
d="M1219 -141q-25 -281 -283 -281q-96 0 -154 49t-49 140q10 117 139 194q-28 -4 -43 -4q-114 0 -163.5 53t-42.5 174q-53 -112 -136.5 -169.5t-185.5 -57.5q-132 0 -195.5 102t-35.5 322q20 154 68 273.5t112.5 191t137.5 107.5t151 36q211 0 239 -188q97 89 131 151
q23 -2 88 -2t88 2q-28 -120 -69.5 -324t-59.5 -319q-17 -114 -14 -159.5t29 -45.5q36 0 65 77t47 206l80 -4q-17 -224 -141 -348q-59 -59 -85.5 -103.5t-27.5 -91.5q-3 -48 23.5 -73t73.5 -25q110 0 145 127zM459 106q66 0 126.5 113.5t100.5 337.5q19 104 21 163.5
t-16 89.5t-60 30q-138 0 -217 -455q-20 -112 -21.5 -171.5t14 -83.5t52.5 -24z" />
    <glyph glyph-name="Cacute" unicode="&#x106;" horiz-adv-x="1462" 
d="M877 1530l-17 24q147 197 260 267q69 30 118 12t48.5 -72.5t-65.5 -93.5q-64 -42 -161 -79.5t-183 -57.5zM854 1454q178 0 344 -90q111 -60 131 59q26 -3 84 -3t84 3q-39 -91 -70 -246t-41 -286q-2 0 -49 2t-65 2q-17 0 -68.5 -2t-54.5 -2q26 168 -35 261t-215 93
q-107 0 -179.5 -49t-125 -167.5t-82.5 -319.5q-17 -110 -19 -196t10.5 -144t33.5 -98t54 -61.5t68 -30.5t80 -9q167 0 259.5 95.5t127.5 285.5q16 -4 125 -4q113 0 129 4q-52 -306 -215.5 -454t-472.5 -148q-344 0 -498.5 183.5t-97.5 576.5q39 252 144 420.5t258.5 246.5
t355.5 78z" />
    <glyph glyph-name="cacute" unicode="&#x107;" horiz-adv-x="970" 
d="M573 1079l-16 25q146 195 260 266q69 30 118 12t48.5 -72t-65.5 -93q-64 -42 -161.5 -80t-183.5 -58zM426 -43q-221 0 -306 124.5t-38 391.5q50 256 188.5 386t345.5 130q162 0 239.5 -67t72.5 -181q-4 -95 -51.5 -145.5t-128.5 -50.5q-66 0 -107 41.5t-25 118.5
q11 57 57 83t103 21q-27 55 -104 55q-45 0 -76 -13.5t-62 -54t-57 -117.5t-53 -200q-32 -135 -27 -211.5t32 -104.5t85 -28q70 0 115 50t69 161q175 -10 179 -10q-78 -379 -451 -379z" />
    <glyph glyph-name="Ccircumflex" unicode="&#x108;" horiz-adv-x="1462" 
d="M1208 1550l-24 -20q-61 25 -126.5 70t-115.5 98q-53 -45 -147 -97t-154 -71l-18 22q39 81 118 163t156 136h139q47 -44 95.5 -129t76.5 -172zM854 1454q178 0 344 -90q111 -60 131 59q26 -3 84 -3t84 3q-39 -91 -70 -246t-41 -286q-2 0 -49 2t-65 2q-17 0 -68.5 -2
t-54.5 -2q26 168 -35 261t-215 93q-107 0 -179.5 -49t-125 -167.5t-82.5 -319.5q-17 -110 -19 -196t10.5 -144t33.5 -98t54 -61.5t68 -30.5t80 -9q167 0 259.5 95.5t127.5 285.5q16 -4 125 -4q113 0 129 4q-52 -306 -215.5 -454t-472.5 -148q-344 0 -498.5 183.5
t-97.5 576.5q39 252 144 420.5t258.5 246.5t355.5 78z" />
    <glyph glyph-name="ccircumflex" unicode="&#x109;" horiz-adv-x="970" 
d="M922 1100l-25 -21q-61 25 -126.5 70t-115.5 98q-53 -45 -147 -97t-154 -71l-18 23q39 81 118 163t156 136h140q47 -44 95.5 -129t76.5 -172zM426 -43q-221 0 -306 124.5t-38 391.5q50 256 188.5 386t345.5 130q162 0 239.5 -67t72.5 -181q-4 -95 -51.5 -145.5
t-128.5 -50.5q-66 0 -107 41.5t-25 118.5q11 57 57 83t103 21q-27 55 -104 55q-45 0 -76 -13.5t-62 -54t-57 -117.5t-53 -200q-32 -135 -27 -211.5t32 -104.5t85 -28q70 0 115 50t69 161q175 -10 179 -10q-78 -379 -451 -379z" />
    <glyph glyph-name="Cdotaccent" unicode="&#x10a;" horiz-adv-x="1462" 
d="M854 1454q178 0 344 -90q111 -60 131 59q26 -3 84 -3t84 3q-39 -91 -70 -246t-41 -286q-2 0 -49 2t-65 2q-17 0 -68.5 -2t-54.5 -2q26 168 -35 261t-215 93q-107 0 -179.5 -49t-125 -167.5t-82.5 -319.5q-17 -110 -19 -196t10.5 -144t33.5 -98t54 -61.5t68 -30.5t80 -9
q167 0 259.5 95.5t127.5 285.5q16 -4 125 -4q113 0 129 4q-52 -306 -215.5 -454t-472.5 -148q-344 0 -498.5 183.5t-97.5 576.5q39 252 144 420.5t258.5 246.5t355.5 78zM1061 1686q-3 -56 -41 -95t-98 -39t-94 39t-31 95q3 58 42 95.5t95 37.5q60 0 95 -37t32 -96z" />
    <glyph glyph-name="cdotaccent" unicode="&#x10b;" horiz-adv-x="970" 
d="M426 -43q-221 0 -306 124.5t-38 391.5q50 256 188.5 386t345.5 130q162 0 239.5 -67t72.5 -181q-4 -95 -51.5 -145.5t-128.5 -50.5q-66 0 -107 41.5t-25 118.5q11 57 57 83t103 21q-27 55 -104 55q-45 0 -76 -13.5t-62 -54t-57 -117.5t-53 -200q-32 -135 -27 -211.5
t32 -104.5t85 -28q70 0 115 50t69 161q175 -10 179 -10q-78 -379 -451 -379zM758 1235q-3 -56 -41.5 -94.5t-98.5 -38.5t-93.5 38.5t-30.5 94.5q3 58 42 95.5t95 37.5q60 0 95 -37t32 -96z" />
    <glyph glyph-name="Ccaron" unicode="&#x10c;" horiz-adv-x="1462" 
d="M664 1841l24 23q58 -25 129.5 -76t124.5 -102q59 50 146 104t143 72l18 -21q-41 -84 -115 -167.5t-145 -133.5h-141q-51 50 -104.5 134t-79.5 167zM854 1454q178 0 344 -90q111 -60 131 59q26 -3 84 -3t84 3q-39 -91 -70 -246t-41 -286q-2 0 -49 2t-65 2q-17 0 -68.5 -2
t-54.5 -2q26 168 -35 261t-215 93q-107 0 -179.5 -49t-125 -167.5t-82.5 -319.5q-17 -110 -19 -196t10.5 -144t33.5 -98t54 -61.5t68 -30.5t80 -9q167 0 259.5 95.5t127.5 285.5q16 -4 125 -4q113 0 129 4q-52 -306 -215.5 -454t-472.5 -148q-344 0 -498.5 183.5
t-97.5 576.5q39 252 144 420.5t258.5 246.5t355.5 78z" />
    <glyph glyph-name="ccaron" unicode="&#x10d;" horiz-adv-x="970" 
d="M381 1391l25 22q58 -25 129 -75.5t124 -102.5q59 50 146 104t143 72l19 -20q-41 -84 -115 -167.5t-145 -133.5h-142q-51 50 -104.5 134t-79.5 167zM426 -43q-221 0 -306 124.5t-38 391.5q50 256 188.5 386t345.5 130q162 0 239.5 -67t72.5 -181q-4 -95 -51.5 -145.5
t-128.5 -50.5q-66 0 -107 41.5t-25 118.5q11 57 57 83t103 21q-27 55 -104 55q-45 0 -76 -13.5t-62 -54t-57 -117.5t-53 -200q-32 -135 -27 -211.5t32 -104.5t85 -28q70 0 115 50t69 161q175 -10 179 -10q-78 -379 -451 -379z" />
    <glyph glyph-name="Dcaron" unicode="&#x10e;" horiz-adv-x="1640" 
d="M635 1841l24 23q58 -25 129.5 -76t124.5 -102q59 50 146 104t143 72l19 -21q-41 -84 -115 -167.5t-145 -133.5h-142q-51 50 -104.5 134t-79.5 167zM969 1409q350 0 500 -176.5t100 -546.5q-96 -688 -803 -688q-266 2 -399 2l-394 -4q6 25 17.5 100.5t13.5 98.5h76
q62 0 85.5 25.5t39.5 94.5q15 72 65.5 404.5t53.5 388.5q3 62 -15.5 86.5t-72.5 24.5h-86q6 24 16 96t12 98q216 -6 395 -6q90 0 227.5 1t168.5 1zM584 291q-3 -54 19 -79.5t71 -25.5h53q97 0 167.5 23t128 79.5t95.5 155.5t60 246q19 126 19.5 215t-16 152.5t-55.5 100
t-96 53t-141 16.5h-66q-84 0 -110 -86q-12 -40 -69 -415t-60 -435z" />
    <glyph glyph-name="dcaron" unicode="&#x10f;" horiz-adv-x="1472" 
d="M1337 1176q-96 0 -90 114q3 55 41 90t98 35q66 0 96 -42.5t25 -115.5q-9 -114 -96.5 -191.5t-224.5 -104.5l-8 40q115 24 180.5 82.5t79.5 143.5q-26 -51 -101 -51zM1118 1155q-126 -576 -170 -844q-21 -121 -18.5 -164t35.5 -43q37 0 64.5 76.5t43.5 206.5l80 -4
q-16 -190 -101 -308t-231 -118q-105 0 -153.5 51.5t-44.5 169.5q-52 -109 -133 -165t-181 -56q-134 0 -200.5 102t-38.5 322q20 154 68 273.5t113.5 191t139.5 107.5t152 36q170 0 200 -145l60 297q10 52 -2.5 80t-65.5 28h-41q16 74 23 162q214 -8 428 0q0 -124 -27 -256z
M461 106q66 0 126.5 113.5t100.5 337.5q15 79 19.5 129.5t-1 86.5t-23.5 51.5t-50 15.5q-66 0 -119.5 -106t-95.5 -349q-20 -113 -22 -171.5t13 -83t52 -24.5z" />
    <glyph glyph-name="Dcroat" unicode="&#x110;" horiz-adv-x="1640" 
d="M969 1409q350 0 500 -176.5t100 -546.5q-96 -688 -803 -688q-266 2 -399 2l-394 -4q6 25 17.5 100.5t13.5 98.5h76q62 0 85.5 25.5t39.5 94.5q5 22 51 316q-30 0 -74.5 -1t-54.5 -1q7 23 17 83t12 87q27 -2 127 -2q40 288 41 311q3 62 -15.5 86.5t-72.5 24.5h-86
q6 24 16 96t12 98q216 -6 395 -6q90 0 227.5 1t168.5 1zM584 291q-3 -54 19 -79.5t71 -25.5h53q97 0 167.5 23t128 79.5t95.5 155.5t60 246q19 126 19.5 215t-16 152.5t-55.5 100t-96 53t-141 16.5h-66q-84 0 -110 -86q-10 -31 -60 -346q162 0 252 4q-17 -65 -28 -170
q-15 0 -101 1t-147 1q-40 -260 -45 -340z" />
    <glyph glyph-name="dcroat" unicode="&#x111;" horiz-adv-x="1177" 
d="M1145 1411q0 -131 -31 -274q57 0 119 4q-11 -36 -19 -101q-14 0 -54 1t-66 1q-108 -491 -146 -731q-21 -121 -18.5 -164t35.5 -43q37 0 64.5 76.5t43.5 206.5l80 -4q-16 -190 -101 -308t-231 -118q-105 0 -153.5 51.5t-44.5 169.5q-52 -109 -133 -165t-181 -56
q-134 0 -200.5 102t-38.5 322q20 154 68 273.5t113.5 191t139.5 107.5t152 36q170 0 200 -145l39 198q-28 0 -72.5 -1t-58.5 -1q14 55 17 101q66 -4 135 -4q10 56 -2.5 84t-65.5 28h-41q16 74 23 162q214 -8 428 0zM461 106q66 0 126.5 113.5t100.5 337.5q15 79 19.5 129.5
t-1 86.5t-23.5 51.5t-50 15.5q-66 0 -119.5 -106t-95.5 -349q-20 -113 -22 -171.5t13 -83t52 -24.5z" />
    <glyph glyph-name="Emacron" unicode="&#x112;" horiz-adv-x="1482" 
d="M938 971l8 55h156q-41 -180 -60 -311q-22 -145 -32 -320h-154l6 49q14 105 -16.5 153t-126.5 52h-92q-41 -255 -45 -340q-4 -64 23.5 -89t84.5 -25h203q82 0 134 14t90.5 53.5t60.5 104.5t39 172l2 20q26 -1 104 -1t104 1q-43 -177 -94 -567q-117 8 -418 8h-536l-404 -4
q27 168 31 199h74q32 0 52.5 6.5t33.5 24t19.5 35.5t15.5 54q17 64 69.5 397t55.5 394q3 59 -17.5 86t-72.5 27h-84q6 24 16 96t12 98q4 0 84.5 -1.5t177.5 -3t142 -1.5h491q76 0 244 4t231 12q-23 -94 -52 -262.5t-40 -265.5q-28 1 -99.5 1t-94.5 -1l4 27q9 65 10.5 111.5
t-8 79.5t-25 53t-46 31.5t-66 15.5t-89.5 4h-206q-60 0 -89 -23.5t-44 -89.5q-15 -59 -60 -328h74q106 0 155 44t64 151zM651 1571q7 23 18 84.5t13 87.5q94 -3 282.5 -3t282.5 3q-20 -77 -30 -172q-94 3 -283 3t-283 -3z" />
    <glyph glyph-name="emacron" unicode="&#x113;" horiz-adv-x="978" 
d="M700 346q169 -10 179 -10q-18 -90 -49.5 -156.5t-83 -118t-130 -78t-182.5 -26.5q-231 0 -316 123.5t-36 392.5q48 256 187 386t345 130q181 0 257 -87t53 -226q-10 -66 -44 -114.5t-81.5 -76.5t-113.5 -44t-130 -20.5t-143 -2.5q-29 -155 -7 -219t101 -64
q76 0 121.5 46.5t72.5 164.5zM602 862q-39 0 -63.5 -26t-52 -107.5t-62.5 -243.5q100 0 148 33.5t73 138.5q21 79 11.5 142t-54.5 63zM344 1102q7 23 18 84.5t13 87.5q94 -3 282.5 -3t282.5 3q-21 -84 -31 -172q-94 3 -282.5 3t-282.5 -3z" />
    <glyph glyph-name="Ebreve" unicode="&#x114;" horiz-adv-x="1482" 
d="M938 971l8 55h156q-41 -180 -60 -311q-22 -145 -32 -320h-154l6 49q14 105 -16.5 153t-126.5 52h-92q-41 -255 -45 -340q-4 -64 23.5 -89t84.5 -25h203q82 0 134 14t90.5 53.5t60.5 104.5t39 172l2 20q26 -1 104 -1t104 1q-43 -177 -94 -567q-117 8 -418 8h-536l-404 -4
q27 168 31 199h74q32 0 52.5 6.5t33.5 24t19.5 35.5t15.5 54q17 64 69.5 397t55.5 394q3 59 -17.5 86t-72.5 27h-84q6 24 16 96t12 98q4 0 84.5 -1.5t177.5 -3t142 -1.5h491q76 0 244 4t231 12q-23 -94 -52 -262.5t-40 -265.5q-28 1 -99.5 1t-94.5 -1l4 27q9 65 10.5 111.5
t-8 79.5t-25 53t-46 31.5t-66 15.5t-89.5 4h-206q-60 0 -89 -23.5t-44 -89.5q-15 -59 -60 -328h74q106 0 155 44t64 151zM932 1532q-149 0 -202 83t-17 214l49 4q-3 -70 43 -97.5t151 -27.5t158 27.5t68 97.5l51 -4q0 -131 -76 -214t-225 -83z" />
    <glyph glyph-name="ebreve" unicode="&#x115;" horiz-adv-x="978" 
d="M700 346q169 -10 179 -10q-18 -90 -49.5 -156.5t-83 -118t-130 -78t-182.5 -26.5q-231 0 -316 123.5t-36 392.5q48 256 187 386t345 130q181 0 257 -87t53 -226q-10 -66 -44 -114.5t-81.5 -76.5t-113.5 -44t-130 -20.5t-143 -2.5q-29 -155 -7 -219t101 -64
q76 0 121.5 46.5t72.5 164.5zM602 862q-39 0 -63.5 -26t-52 -107.5t-62.5 -243.5q100 0 148 33.5t73 138.5q21 79 11.5 142t-54.5 63zM643 1096q-149 0 -202 83t-17 214l49 4q-3 -70 43.5 -97.5t151.5 -27.5t157.5 27.5t67.5 97.5l51 -4q0 -131 -76 -214t-225 -83z" />
    <glyph glyph-name="Edotaccent" unicode="&#x116;" horiz-adv-x="1482" 
d="M938 971l8 55h156q-41 -180 -60 -311q-22 -145 -32 -320h-154l6 49q14 105 -16.5 153t-126.5 52h-92q-41 -255 -45 -340q-4 -64 23.5 -89t84.5 -25h203q82 0 134 14t90.5 53.5t60.5 104.5t39 172l2 20q26 -1 104 -1t104 1q-43 -177 -94 -567q-117 8 -418 8h-536l-404 -4
q27 168 31 199h74q32 0 52.5 6.5t33.5 24t19.5 35.5t15.5 54q17 64 69.5 397t55.5 394q3 59 -17.5 86t-72.5 27h-84q6 24 16 96t12 98q4 0 84.5 -1.5t177.5 -3t142 -1.5h491q76 0 244 4t231 12q-23 -94 -52 -262.5t-40 -265.5q-28 1 -99.5 1t-94.5 -1l4 27q9 65 10.5 111.5
t-8 79.5t-25 53t-46 31.5t-66 15.5t-89.5 4h-206q-60 0 -89 -23.5t-44 -89.5q-15 -59 -60 -328h74q106 0 155 44t64 151zM1026 1686q-3 -56 -41 -95t-98 -39t-94 39t-31 95q3 58 42 95.5t95 37.5q60 0 95 -37t32 -96z" />
    <glyph glyph-name="edotaccent" unicode="&#x117;" horiz-adv-x="978" 
d="M700 346q169 -10 179 -10q-18 -90 -49.5 -156.5t-83 -118t-130 -78t-182.5 -26.5q-231 0 -316 123.5t-36 392.5q48 256 187 386t345 130q181 0 257 -87t53 -226q-10 -66 -44 -114.5t-81.5 -76.5t-113.5 -44t-130 -20.5t-143 -2.5q-29 -155 -7 -219t101 -64
q76 0 121.5 46.5t72.5 164.5zM602 862q-39 0 -63.5 -26t-52 -107.5t-62.5 -243.5q100 0 148 33.5t73 138.5q21 79 11.5 142t-54.5 63zM756 1235q-3 -56 -41.5 -94.5t-98.5 -38.5t-93.5 38.5t-30.5 94.5q3 58 42 95.5t95 37.5q60 0 95 -37t32 -96z" />
    <glyph glyph-name="Eogonek" unicode="&#x118;" horiz-adv-x="1482" 
d="M938 971l8 55h156q-41 -180 -60 -311q-22 -145 -32 -320h-154l6 49q14 105 -16.5 153t-126.5 52h-92q-41 -255 -45 -340q-4 -64 23.5 -89t84.5 -25h203q82 0 134 14t90.5 53.5t60.5 104.5t39 172l2 20q26 -1 104 -1t104 1q-43 -177 -94 -567q-50 4 -186 8
q-59 -27 -93.5 -68.5t-37.5 -91.5q-3 -49 25 -73.5t75 -24.5q113 0 148 127l65 -10q-24 -281 -280 -281q-97 0 -155.5 49t-49.5 140q7 79 61 139t137 94h-663l-404 -4q27 168 31 199h74q32 0 52.5 6.5t33.5 24t19.5 35.5t15.5 54q17 64 69.5 397t55.5 394q3 59 -17.5 86
t-72.5 27h-84q6 24 16 96t12 98q4 0 84.5 -1.5t177.5 -3t142 -1.5h491q76 0 244 4t231 12q-23 -94 -52 -262.5t-40 -265.5q-28 1 -99.5 1t-94.5 -1l4 27q9 65 10.5 111.5t-8 79.5t-25 53t-46 31.5t-66 15.5t-89.5 4h-206q-60 0 -89 -23.5t-44 -89.5q-15 -59 -60 -328h74
q106 0 155 44t64 151z" />
    <glyph glyph-name="eogonek" unicode="&#x119;" horiz-adv-x="980" 
d="M889 -141q-25 -281 -283 -281q-96 0 -154 49t-49 140q12 123 150 200q-58 -10 -119 -10q-230 0 -316.5 124t-35.5 392q49 256 188 386t346 130q180 0 256 -87t54 -226q-9 -55 -34 -98t-63 -71.5t-83.5 -47.5t-102.5 -28t-112 -12t-119 -1q-28 -155 -6 -219t100 -64
q77 0 123 46.5t73 164.5q6 0 49.5 -3.5t78.5 -5.5t51 -1q-24 -114 -64 -179.5t-119 -131.5q-62 -53 -88.5 -95.5t-29.5 -89.5q-3 -48 23 -73t73 -25q110 0 145 127zM604 862q-40 0 -65 -26.5t-52 -106.5t-63 -244q102 0 150 32.5t73 139.5q21 79 11.5 142t-54.5 63z" />
    <glyph glyph-name="Ecaron" unicode="&#x11a;" horiz-adv-x="1482" 
d="M610 1841l25 23q58 -25 129.5 -76t124.5 -102q59 50 146 104t143 72l18 -21q-41 -84 -115 -167.5t-145 -133.5h-141q-52 50 -105.5 134t-79.5 167zM938 971l8 55h156q-41 -180 -60 -311q-22 -145 -32 -320h-154l6 49q14 105 -16.5 153t-126.5 52h-92q-41 -255 -45 -340
q-4 -64 23.5 -89t84.5 -25h203q82 0 134 14t90.5 53.5t60.5 104.5t39 172l2 20q26 -1 104 -1t104 1q-43 -177 -94 -567q-117 8 -418 8h-536l-404 -4q27 168 31 199h74q32 0 52.5 6.5t33.5 24t19.5 35.5t15.5 54q17 64 69.5 397t55.5 394q3 59 -17.5 86t-72.5 27h-84
q6 24 16 96t12 98q4 0 84.5 -1.5t177.5 -3t142 -1.5h491q76 0 244 4t231 12q-23 -94 -52 -262.5t-40 -265.5q-28 1 -99.5 1t-94.5 -1l4 27q9 65 10.5 111.5t-8 79.5t-25 53t-46 31.5t-66 15.5t-89.5 4h-206q-60 0 -89 -23.5t-44 -89.5q-15 -59 -60 -328h74q106 0 155 44
t64 151z" />
    <glyph glyph-name="ecaron" unicode="&#x11b;" horiz-adv-x="978" 
d="M371 1391l24 22q58 -25 129.5 -76t124.5 -102q59 50 146 104t143 72l18 -20q-41 -84 -115 -167.5t-145 -133.5h-141q-51 50 -104.5 134t-79.5 167zM700 346q169 -10 179 -10q-18 -90 -49.5 -156.5t-83 -118t-130 -78t-182.5 -26.5q-231 0 -316 123.5t-36 392.5
q48 256 187 386t345 130q181 0 257 -87t53 -226q-10 -66 -44 -114.5t-81.5 -76.5t-113.5 -44t-130 -20.5t-143 -2.5q-29 -155 -7 -219t101 -64q76 0 121.5 46.5t72.5 164.5zM602 862q-39 0 -63.5 -26t-52 -107.5t-62.5 -243.5q100 0 148 33.5t73 138.5q21 79 11.5 142
t-54.5 63z" />
    <glyph glyph-name="Gcircumflex" unicode="&#x11c;" horiz-adv-x="1632" 
d="M1196 1550l-25 -20q-135 56 -241 168q-53 -45 -147 -97t-154 -71l-19 22q39 81 118 163t157 136h139q47 -44 95.5 -129t76.5 -172zM743 166q273 0 316 280q11 81 -9.5 116.5t-86.5 35.5h-66l23 156q217 -4 340 -4l337 4l-22 -156h-53q-44 0 -64 -25t-28 -84
q-48 -327 -50 -489q-31 3 -117.5 3t-117.5 -3q-13 99 -31 195q-71 -110 -196 -178t-281 -68q-79 0 -147.5 12.5t-131 39.5t-111 69.5t-86.5 102.5t-56.5 138.5t-22.5 177.5t16 220q29 189 98.5 332.5t170 233t224.5 134.5t271 45q112 0 193.5 -21t154.5 -65
q49 -31 87.5 -17.5t48.5 72.5q26 -3 83.5 -3t83.5 3q-39 -90 -69.5 -245t-40.5 -287q-70 2 -113 2l-125 -2q33 172 -32 263t-228 91q-110 0 -184 -48.5t-126.5 -167t-82.5 -320.5q-16 -110 -17.5 -196t11 -144.5t34 -99t54.5 -62.5t68.5 -31.5t80.5 -9.5z" />
    <glyph glyph-name="gcircumflex" unicode="&#x11d;" horiz-adv-x="1093" 
d="M987 1100l-24 -21q-61 25 -126.5 70t-115.5 98q-53 -45 -147 -97t-154 -71l-19 23q39 81 118 163t157 136h139q47 -44 95.5 -129t76.5 -172zM598 117l10 51q-106 -211 -303 -211q-132 0 -197.5 102t-37.5 322q20 154 68 273.5t112.5 191t137.5 107.5t151 36
q124 0 180.5 -54t62.5 -157q127 86 164 205q17 -1 68.5 -1t70.5 1q-37 -157 -92 -432.5t-84 -444.5q-24 -139 -78 -241.5t-132 -163t-170.5 -89t-202.5 -28.5q-171 0 -245.5 70t-47.5 164q14 51 51 79.5t94 28.5q58 0 90 -34t23 -87t-53 -81.5t-103 -16.5q54 -57 166 -57
q59 0 104 23t71 50t49 92.5t32.5 105t27.5 132.5q9 42 13 64zM459 106q66 0 126.5 113.5t100.5 337.5q19 104 21 163.5t-16 89.5t-60 30q-138 0 -217 -455q-20 -112 -21.5 -171.5t14 -83.5t52.5 -24z" />
    <glyph glyph-name="Gbreve" unicode="&#x11e;" horiz-adv-x="1632" 
d="M743 166q273 0 316 280q11 81 -9.5 116.5t-86.5 35.5h-66l23 156q217 -4 340 -4l337 4l-22 -156h-53q-44 0 -64 -25t-28 -84q-48 -327 -50 -489q-31 3 -117.5 3t-117.5 -3q-13 99 -31 195q-71 -110 -196 -178t-281 -68q-79 0 -147.5 12.5t-131 39.5t-111 69.5
t-86.5 102.5t-56.5 138.5t-22.5 177.5t16 220q29 189 98.5 332.5t170 233t224.5 134.5t271 45q112 0 193.5 -21t154.5 -65q49 -31 87.5 -17.5t48.5 72.5q26 -3 83.5 -3t83.5 3q-39 -90 -69.5 -245t-40.5 -287q-70 2 -113 2l-125 -2q33 172 -32 263t-228 91
q-110 0 -184 -48.5t-126.5 -167t-82.5 -320.5q-16 -110 -17.5 -196t11 -144.5t34 -99t54.5 -62.5t68.5 -31.5t80.5 -9.5zM889 1532q-149 0 -202 83t-17 214l49 4q-3 -70 43 -97.5t151 -27.5t158 27.5t68 97.5l51 -4q0 -131 -76 -214t-225 -83z" />
    <glyph glyph-name="gbreve" unicode="&#x11f;" horiz-adv-x="1093" 
d="M598 117l10 51q-106 -211 -303 -211q-132 0 -197.5 102t-37.5 322q20 154 68 273.5t112.5 191t137.5 107.5t151 36q124 0 180.5 -54t62.5 -157q127 86 164 205q17 -1 68.5 -1t70.5 1q-37 -157 -92 -432.5t-84 -444.5q-24 -139 -78 -241.5t-132 -163t-170.5 -89
t-202.5 -28.5q-171 0 -245.5 70t-47.5 164q14 51 51 79.5t94 28.5q58 0 90 -34t23 -87t-53 -81.5t-103 -16.5q54 -57 166 -57q59 0 104 23t71 50t49 92.5t32.5 105t27.5 132.5q9 42 13 64zM459 106q66 0 126.5 113.5t100.5 337.5q19 104 21 163.5t-16 89.5t-60 30
q-138 0 -217 -455q-20 -112 -21.5 -171.5t14 -83.5t52.5 -24zM700 1096q-149 0 -202 83t-17 214l49 4q-3 -70 43.5 -97.5t151.5 -27.5t157.5 27.5t67.5 97.5l51 -4q0 -131 -76 -214t-225 -83z" />
    <glyph glyph-name="Gdotaccent" unicode="&#x120;" horiz-adv-x="1632" 
d="M743 166q273 0 316 280q11 81 -9.5 116.5t-86.5 35.5h-66l23 156q217 -4 340 -4l337 4l-22 -156h-53q-44 0 -64 -25t-28 -84q-48 -327 -50 -489q-31 3 -117.5 3t-117.5 -3q-13 99 -31 195q-71 -110 -196 -178t-281 -68q-79 0 -147.5 12.5t-131 39.5t-111 69.5
t-86.5 102.5t-56.5 138.5t-22.5 177.5t16 220q29 189 98.5 332.5t170 233t224.5 134.5t271 45q112 0 193.5 -21t154.5 -65q49 -31 87.5 -17.5t48.5 72.5q26 -3 83.5 -3t83.5 3q-39 -90 -69.5 -245t-40.5 -287q-70 2 -113 2l-125 -2q33 172 -32 263t-228 91
q-110 0 -184 -48.5t-126.5 -167t-82.5 -320.5q-16 -110 -17.5 -196t11 -144.5t34 -99t54.5 -62.5t68.5 -31.5t80.5 -9.5zM1075 1688q-3 -56 -41 -95t-98 -39t-94 39t-31 95q3 58 42 95.5t95 37.5q60 0 95 -37t32 -96z" />
    <glyph glyph-name="gdotaccent" unicode="&#x121;" horiz-adv-x="1093" 
d="M598 117l10 51q-106 -211 -303 -211q-132 0 -197.5 102t-37.5 322q20 154 68 273.5t112.5 191t137.5 107.5t151 36q124 0 180.5 -54t62.5 -157q127 86 164 205q17 -1 68.5 -1t70.5 1q-37 -157 -92 -432.5t-84 -444.5q-24 -139 -78 -241.5t-132 -163t-170.5 -89
t-202.5 -28.5q-171 0 -245.5 70t-47.5 164q14 51 51 79.5t94 28.5q58 0 90 -34t23 -87t-53 -81.5t-103 -16.5q54 -57 166 -57q59 0 104 23t71 50t49 92.5t32.5 105t27.5 132.5q9 42 13 64zM459 106q66 0 126.5 113.5t100.5 337.5q19 104 21 163.5t-16 89.5t-60 30
q-138 0 -217 -455q-20 -112 -21.5 -171.5t14 -83.5t52.5 -24zM807 1235q-3 -56 -41 -94.5t-98 -38.5t-94 38.5t-31 94.5q3 58 42 95.5t95 37.5q60 0 95 -37t32 -96z" />
    <glyph glyph-name="Gcommaaccent" unicode="&#x122;" horiz-adv-x="1632" 
d="M682 -348q-46 0 -69.5 29.5t-20.5 85.5q3 55 40.5 89.5t98.5 34.5q66 0 96 -42.5t25 -114.5q-9 -114 -97 -192t-225 -105l-8 41q115 24 180.5 82t79.5 143q-26 -51 -100 -51zM743 166q273 0 316 280q11 81 -9.5 116.5t-86.5 35.5h-66l23 156q217 -4 340 -4l337 4
l-22 -156h-53q-44 0 -64 -25t-28 -84q-48 -327 -50 -489q-31 3 -117.5 3t-117.5 -3q-13 99 -31 195q-71 -110 -196 -178t-281 -68q-79 0 -147.5 12.5t-131 39.5t-111 69.5t-86.5 102.5t-56.5 138.5t-22.5 177.5t16 220q29 189 98.5 332.5t170 233t224.5 134.5t271 45
q112 0 193.5 -21t154.5 -65q49 -31 87.5 -17.5t48.5 72.5q26 -3 83.5 -3t83.5 3q-39 -90 -69.5 -245t-40.5 -287q-70 2 -113 2l-125 -2q33 172 -32 263t-228 91q-110 0 -184 -48.5t-126.5 -167t-82.5 -320.5q-16 -110 -17.5 -196t11 -144.5t34 -99t54.5 -62.5t68.5 -31.5
t80.5 -9.5z" />
    <glyph glyph-name="gcommaaccent" unicode="&#x123;" horiz-adv-x="1093" 
d="M715 1313q46 0 69.5 -29.5t20.5 -85.5q-3 -55 -41 -90t-98 -35q-66 0 -96 42.5t-25 115.5q9 114 97 192t224 105l8 -41q-115 -24 -180.5 -82t-79.5 -143q26 51 101 51zM598 117l10 51q-106 -211 -303 -211q-132 0 -197.5 102t-37.5 322q20 154 68 273.5t112.5 191
t137.5 107.5t151 36q124 0 180.5 -54t62.5 -157q127 86 164 205q17 -1 68.5 -1t70.5 1q-37 -157 -92 -432.5t-84 -444.5q-24 -139 -78 -241.5t-132 -163t-170.5 -89t-202.5 -28.5q-171 0 -245.5 70t-47.5 164q14 51 51 79.5t94 28.5q58 0 90 -34t23 -87t-53 -81.5
t-103 -16.5q54 -57 166 -57q59 0 104 23t71 50t49 92.5t32.5 105t27.5 132.5q9 42 13 64zM459 106q66 0 126.5 113.5t100.5 337.5q19 104 21 163.5t-16 89.5t-60 30q-138 0 -217 -455q-20 -112 -21.5 -171.5t14 -83.5t52.5 -24z" />
    <glyph glyph-name="Hcircumflex" unicode="&#x124;" horiz-adv-x="1742" 
d="M1323 1550l-25 -20q-135 56 -241 168q-53 -45 -147 -97t-154 -71l-19 22q39 81 118 163t157 136h139q47 -44 95.5 -129t76.5 -172zM-27 -4q7 29 29 199h76q64 0 83.5 17.5t37.5 82.5q18 69 73.5 417.5t55.5 407.5q0 55 -18.5 77t-69.5 22h-84q6 24 16 95.5t12 96.5
q242 -4 377 -4q80 0 225.5 2t149.5 2q-22 -116 -27 -192h-73q-55 0 -84.5 -25t-46.5 -86q-18 -68 -62 -358q241 -4 508 0q46 301 49 358q4 59 -19 85t-79 26h-74q6 26 16.5 98t10.5 94q244 -4 381 -4q80 0 227.5 2t151.5 2q-6 -23 -16.5 -95t-12.5 -97h-84
q-54 0 -80.5 -24.5t-44.5 -86.5q-14 -58 -68 -405.5t-59 -407.5q-3 -57 18.5 -78.5t87.5 -21.5h76q-6 -24 -16 -99.5t-10 -99.5q-244 4 -379 4l-381 -4q20 112 26 199h72q65 0 89 21.5t40 78.5q12 45 57 323q-195 3 -507 -2q-40 -245 -45 -321q-3 -56 16.5 -78t85.5 -22h74
q-6 -24 -16.5 -99.5t-10.5 -99.5q-242 4 -377 4z" />
    <glyph glyph-name="hcircumflex" unicode="&#x125;" horiz-adv-x="1181" 
d="M709 1491l-25 -21q-61 25 -126.5 70t-115.5 98q-53 -45 -147 -97t-154 -71l-18 23q39 81 118 163t156 136h140q47 -44 95.5 -129t76.5 -172zM1071 387l80 -4q-9 -85 -32.5 -158t-63 -135t-102 -97.5t-142.5 -35.5q-304 0 -195 389l64 229q73 265 -16 265
q-48 0 -87.5 -43.5t-84 -163.5t-91.5 -326l-61 -309q-103 6 -158 6l-159 -6q52 233 125 592t106 551q7 54 -5.5 81t-64.5 27h-41q13 88 13 162q221 -8 442 0q-2 -97 -37 -293l-65 -334q115 205 325 205q105 0 159.5 -50.5t59 -143t-25.5 -222.5l-66 -262
q-15 -55 -21.5 -89.5t-8 -63t8 -41.5t29.5 -13q69 0 115 283z" />
    <glyph glyph-name="Hbar" unicode="&#x126;" horiz-adv-x="1742" 
d="M-27 -4q7 29 29 199h76q64 0 83.5 17.5t37.5 82.5q11 47 45.5 250.5t58.5 365.5h-110q17 53 22 127q16 -2 104 -2q2 15 4 34.5t3.5 31.5t1.5 18q0 55 -18.5 77t-69.5 22h-84q6 24 16 95.5t12 96.5q242 -4 377 -4q80 0 225.5 2t149.5 2q-22 -116 -27 -192h-73
q-55 0 -84.5 -25t-46.5 -86q-9 -27 -17 -74h504l8 74q6 59 -18 85t-80 26h-74q6 26 16.5 98t10.5 94q244 -4 381 -4q80 0 227.5 2t151.5 2q-6 -23 -16.5 -95t-12.5 -97h-84q-54 0 -80.5 -24.5t-44.5 -86.5q-3 -10 -14 -72q98 0 116 2q-10 -26 -24 -127h-115
q-80 -489 -90 -616q-3 -57 18.5 -78.5t87.5 -21.5h76q-6 -24 -16 -99.5t-10 -99.5q-244 4 -379 4l-381 -4q20 112 26 199h72q65 0 89 21.5t40 78.5q12 45 57 323q-195 3 -507 -2q-40 -245 -45 -321q-3 -56 16.5 -78t85.5 -22h74q-6 -24 -16.5 -99.5t-10.5 -99.5
q-242 4 -377 4zM1176 913h-508l-25 -163q241 -4 508 0z" />
    <glyph glyph-name="hbar" unicode="&#x127;" horiz-adv-x="1181" 
d="M106 1040q14 55 17 101q66 -4 131 -4v4q7 54 -5.5 81t-64.5 27h-41q13 88 13 162q221 -8 442 0q-2 -106 -33 -274q61 0 123 4q-9 -30 -18 -101q-14 0 -56 1t-67 1l-51 -258q115 205 325 205q105 0 159.5 -50.5t59 -143t-25.5 -222.5l-66 -262q-15 -55 -21.5 -89.5t-8 -63
t8 -41.5t29.5 -13q69 0 115 283l80 -4q-9 -85 -32.5 -158t-63 -135t-102 -97.5t-142.5 -35.5q-304 0 -195 389l64 229q73 265 -16 265q-48 0 -87.5 -43.5t-84 -163.5t-91.5 -326l-61 -309q-103 6 -158 6l-159 -6q118 529 213 1044q-28 0 -72 -1t-58 -1z" />
    <glyph glyph-name="Itilde" unicode="&#x128;" horiz-adv-x="864" 
d="M-29 -4q7 29 29 199h76q64 0 84.5 18t36.5 82q17 58 71.5 404.5t57.5 408.5q5 61 -14 86t-74 25h-84q7 28 28 192q242 -4 377 -4q80 0 225.5 2t149.5 2q-22 -116 -27 -192h-73q-55 0 -85 -25.5t-47 -85.5q-15 -59 -69.5 -409.5t-57.5 -403.5q-3 -56 16.5 -78t86.5 -22h74
q-22 -123 -27 -199q-242 4 -377 4zM842 1780l55 2q11 -73 -2 -127.5t-46 -85t-75.5 -44.5t-93.5 -12q-52 3 -90 22t-60 44t-49 70q-30 52 -48 69t-48 17q-37 0 -56.5 -40t-11.5 -124l-55 -2q-22 144 39.5 208.5t177.5 61.5q68 -3 112 -33.5t85 -99.5q29 -50 48 -69t48 -19
q86 0 70 162z" />
    <glyph glyph-name="itilde" unicode="&#x129;" horiz-adv-x="727" 
d="M565 606l-84 -325q-41 -175 21 -175q73 0 112 281l80 -4q-7 -83 -29 -156t-61 -135.5t-101 -98.5t-141 -36q-309 0 -206 371l94 342q16 55 20.5 94t-2 57.5t-22.5 18.5q-48 0 -80.5 -78.5t-46.5 -208.5l-80 4q10 87 33 161.5t61 136.5t96 98t131 36q152 0 202 -100.5
t3 -282.5zM711 1329l55 2q11 -73 -2 -127.5t-46 -84.5t-75.5 -44t-93.5 -12q-75 4 -117 36t-82 99q-30 52 -48 69t-48 17q-37 0 -56.5 -40t-11.5 -124l-55 -2q-11 74 1 129t43.5 85.5t74.5 44.5t98 12q68 -3 112 -34t85 -100q29 -50 48 -69t48 -19q86 0 70 162z" />
    <glyph glyph-name="Imacron" unicode="&#x12a;" horiz-adv-x="864" 
d="M-29 -4q7 29 29 199h76q64 0 84.5 18t36.5 82q17 58 71.5 404.5t57.5 408.5q5 61 -14 86t-74 25h-84q7 28 28 192q242 -4 377 -4q80 0 225.5 2t149.5 2q-22 -116 -27 -192h-73q-55 0 -85 -25.5t-47 -85.5q-15 -59 -69.5 -409.5t-57.5 -403.5q-3 -56 16.5 -78t86.5 -22h74
q-22 -123 -27 -199q-242 4 -377 4zM297 1571q7 23 18 84.5t13 87.5q94 -3 282.5 -3t282.5 3q-21 -84 -31 -172q-94 3 -282.5 3t-282.5 -3z" />
    <glyph glyph-name="imacron" unicode="&#x12b;" horiz-adv-x="727" 
d="M565 606l-84 -325q-41 -175 21 -175q73 0 112 281l80 -4q-7 -83 -29 -156t-61 -135.5t-101 -98.5t-141 -36q-309 0 -206 371l94 342q16 55 20.5 94t-2 57.5t-22.5 18.5q-48 0 -80.5 -78.5t-46.5 -208.5l-80 4q10 87 33 161.5t61 136.5t96 98t131 36q152 0 202 -100.5
t3 -282.5zM164 1102q7 23 18 84.5t13 87.5q94 -3 282.5 -3t282.5 3q-21 -84 -31 -172q-94 3 -282.5 3t-282.5 -3z" />
    <glyph glyph-name="Ibreve" unicode="&#x12c;" horiz-adv-x="864" 
d="M-29 -4q7 29 29 199h76q64 0 84.5 18t36.5 82q17 58 71.5 404.5t57.5 408.5q5 61 -14 86t-74 25h-84q7 28 28 192q242 -4 377 -4q80 0 225.5 2t149.5 2q-22 -116 -27 -192h-73q-55 0 -85 -25.5t-47 -85.5q-15 -59 -69.5 -409.5t-57.5 -403.5q-3 -56 16.5 -78t86.5 -22h74
q-22 -123 -27 -199q-242 4 -377 4zM559 1532q-149 0 -202 83t-17 214l49 4q-3 -70 43.5 -97.5t151.5 -27.5t157.5 27.5t67.5 97.5l51 -4q0 -131 -76 -214t-225 -83z" />
    <glyph glyph-name="ibreve" unicode="&#x12d;" horiz-adv-x="727" 
d="M565 606l-84 -325q-41 -175 21 -175q73 0 112 281l80 -4q-7 -83 -29 -156t-61 -135.5t-101 -98.5t-141 -36q-309 0 -206 371l94 342q16 55 20.5 94t-2 57.5t-22.5 18.5q-48 0 -80.5 -78.5t-46.5 -208.5l-80 4q10 87 33 161.5t61 136.5t96 98t131 36q152 0 202 -100.5
t3 -282.5zM444 1096q-149 0 -202 83t-17 214l49 4q-3 -70 43.5 -97.5t151.5 -27.5t157.5 27.5t67.5 97.5l51 -4q0 -131 -76 -214t-225 -83z" />
    <glyph glyph-name="Iogonek" unicode="&#x12e;" horiz-adv-x="864" 
d="M618 -141q-24 -281 -280 -281q-97 0 -155.5 49t-49.5 140q7 79 61 139t138 94l-361 -4q7 29 29 199h76q64 0 84.5 18t36.5 82q17 58 71.5 404.5t57.5 408.5q5 61 -14 86t-74 25h-84q7 28 28 192q242 -4 377 -4q80 0 225.5 2t149.5 2q-22 -116 -27 -192h-73
q-55 0 -85 -25.5t-47 -85.5q-15 -59 -69.5 -409.5t-57.5 -403.5q-3 -56 16.5 -78t86.5 -22h74q-22 -123 -27 -199q-154 4 -285 4q-61 -25 -96.5 -66.5t-38.5 -93.5q-3 -49 25.5 -73.5t75.5 -24.5q112 0 147 127z" />
    <glyph glyph-name="iogonek" unicode="&#x12f;" horiz-adv-x="727" 
d="M743 -141q-25 -281 -280 -281q-97 0 -155.5 49t-49.5 140q13 121 145 196q-27 -6 -55 -6q-143 0 -192.5 91t0.5 280l94 342q47 170 -4 170q-48 0 -80.5 -78.5t-46.5 -208.5l-80 4q10 87 33 161.5t61 136.5t96 98t131 36q152 0 202 -100.5t3 -282.5l-84 -325
q-16 -65 -19 -103.5t7 -55t33 -16.5q70 0 108 281l80 -4q-20 -222 -143 -348q-57 -57 -83.5 -102.5t-29.5 -92.5q-3 -48 23.5 -73t72.5 -25q113 0 148 127zM672 1288q-10 -77 -67.5 -129.5t-149.5 -52.5q-78 0 -122 52t-36 130q8 77 64.5 131t148.5 54q82 0 126 -53.5
t36 -131.5z" />
    <glyph glyph-name="Idotaccent" unicode="&#x130;" horiz-adv-x="864" 
d="M-29 -4q7 29 29 199h76q64 0 84.5 18t36.5 82q17 58 71.5 404.5t57.5 408.5q5 61 -14 86t-74 25h-84q7 28 28 192q242 -4 377 -4q80 0 225.5 2t149.5 2q-22 -116 -27 -192h-73q-55 0 -85 -25.5t-47 -85.5q-15 -59 -69.5 -409.5t-57.5 -403.5q-3 -56 16.5 -78t86.5 -22h74
q-22 -123 -27 -199q-242 4 -377 4zM725 1686q-3 -56 -41 -95t-98 -39t-94 39t-31 95q3 58 42 95.5t95 37.5q60 0 95 -37t32 -96z" />
    <glyph glyph-name="dotlessi" unicode="&#x131;" horiz-adv-x="727" 
d="M565 606l-84 -325q-41 -175 21 -175q73 0 112 281l80 -4q-7 -83 -29 -156t-61 -135.5t-101 -98.5t-141 -36q-309 0 -206 371l94 342q16 55 20.5 94t-2 57.5t-22.5 18.5q-48 0 -80.5 -78.5t-46.5 -208.5l-80 4q10 87 33 161.5t61 136.5t96 98t131 36q152 0 202 -100.5
t3 -282.5z" />
    <glyph glyph-name="IJ" unicode="&#x132;" horiz-adv-x="2019" 
d="M-29 -4q7 29 29 199h76q64 0 84.5 18t36.5 82q17 58 71.5 404.5t57.5 408.5q5 61 -14 86t-74 25h-84q7 28 28 192q242 -4 377 -4q80 0 225.5 2t149.5 2q-22 -116 -27 -192h-73q-55 0 -85 -25.5t-47 -85.5q-15 -59 -69.5 -409.5t-57.5 -403.5q-3 -56 16.5 -78t86.5 -22h74
q-22 -123 -27 -199q-242 4 -377 4zM963 145h-19q64 -61 168 -61q111 0 177.5 70.5t96.5 238.5q113 624 115 715q3 61 -15 86t-73 25h-82q26 142 29 192q238 -4 371 -4q79 0 221.5 2t146.5 2q-6 -22 -16 -94t-12 -98h-70q-54 0 -82 -23t-39 -88q-20 -102 -115 -705
q-69 -454 -583 -454q-204 0 -302 94t-77 242q14 90 76.5 145t152.5 55q82 0 124 -48t30 -128q-8 -50 -32.5 -85t-58.5 -51.5t-66 -23t-66 -4.5z" />
    <glyph glyph-name="ij" unicode="&#x133;" horiz-adv-x="1212" 
d="M682 1278q-8 -73 -62 -124.5t-139 -51.5q-74 0 -115.5 50.5t-33.5 125.5q8 74 60.5 126t137.5 52q77 0 119 -52t33 -126zM1147 1278q-8 -73 -62 -124.5t-139 -51.5q-74 0 -115.5 50.5t-33.5 125.5q8 74 60.5 126t137.5 52q77 0 119 -52t33 -126zM115 553l-80 4
q9 84 31.5 157.5t60 137t97.5 100.5t136 37q300 0 201 -389l-59 -227q-33 -126 -27 -196.5t49 -70.5q27 0 55.5 20.5t61 68t65.5 142.5t60 228l80 391q40 -4 155 -4l156 4q-14 -63 -85 -416t-85 -434q-25 -139 -80.5 -241.5t-135 -163t-173 -89t-203.5 -28.5q-158 0 -233 63
t-62 150q9 61 49 95t99 34q54 0 85.5 -29.5t28.5 -80.5q-4 -61 -50.5 -91t-106.5 -18q54 -57 166 -57q44 0 80 11.5t62 30.5t47.5 50t36 64.5t27.5 79.5t22.5 88.5t20.5 97.5l9 45l8 41q-112 -201 -315 -201q-111 0 -167 54t-57.5 147t27.5 217l66 262q28 110 28 156.5
t-28 46.5q-92 0 -123 -287z" />
    <glyph glyph-name="Jcircumflex" unicode="&#x134;" horiz-adv-x="1196" 
d="M1214 1550l-24 -20q-61 25 -126.5 70t-115.5 98q-53 -45 -147 -97t-154 -71l-18 22q39 81 118 163t156 136h139q47 -44 95.5 -129t76.5 -172zM139 145h-18q64 -61 168 -61q111 0 177.5 70.5t96.5 238.5q113 624 115 715q3 61 -15 86t-73 25h-82q26 142 29 192
q237 -4 370 -4q79 0 222 2t147 2q-6 -23 -16.5 -95t-12.5 -97h-69q-54 0 -82 -23t-39 -88q-20 -102 -115 -705q-69 -454 -584 -454q-204 0 -301.5 94t-76.5 242q14 90 76.5 145t152.5 55q82 0 123.5 -48t29.5 -128q-8 -50 -32.5 -85t-58.5 -51.5t-66 -23t-66 -4.5z" />
    <glyph glyph-name="jcircumflex" unicode="&#x135;" horiz-adv-x="626" 
d="M543 606l-105 -545q-51 -259 -178 -368t-346 -109q-129 0 -193.5 50.5t-52.5 134.5q9 59 47.5 92t96.5 33q59 0 85.5 -32.5t18.5 -84.5q-8 -53 -55.5 -75.5t-100.5 -12.5q30 -35 99 -35q43 0 76.5 11.5t59 40t44 62t36 93t29.5 116t29 146.5l96 514q10 48 15 81t6.5 63
t-4.5 44.5t-19 14.5q-45 0 -77 -79t-46 -208l-79 4q22 195 103.5 313.5t223.5 118.5q268 0 191 -383zM688 1100l-24 -21q-61 25 -126.5 70t-115.5 98q-53 -45 -147 -97t-154 -71l-19 23q39 81 118 163t157 136h139q47 -44 95.5 -129t76.5 -172z" />
    <glyph glyph-name="Kcommaaccent" unicode="&#x136;" horiz-adv-x="1697" 
d="M684 -348q-46 0 -69.5 29.5t-20.5 85.5q3 55 40.5 89.5t98.5 34.5q66 0 96 -42.5t25 -114.5q-9 -114 -97 -192t-225 -105l-8 41q115 24 180.5 82t79.5 143q-26 -51 -100 -51zM-27 -4q11 47 31 199h74q62 0 84.5 22.5t40.5 91.5q14 61 68 403t57 394q3 60 -18.5 86.5
t-80.5 26.5h-73q11 61 28 192q242 -4 379 -4q80 0 226.5 2t150.5 2q-15 -79 -29 -192h-82q-95 0 -122 -113q-16 -59 -66 -385l465 356q36 27 42.5 60.5t-16.5 57.5t-67 24h-68q13 55 31 192q240 -4 373 -4q79 0 223 2t148 2q-15 -56 -31 -192h-74q-102 0 -181.5 -32.5
t-182.5 -109.5l-209 -155q59 -125 155 -311.5t154 -288.5q42 -75 71.5 -101t90.5 -26h45q-25 -140 -29 -199q-244 4 -381 4l-383 -4q25 138 29 199h53q64 0 80.5 42.5t-16.5 114.5q-47 108 -181 338l-164 -121q-34 -219 -34 -260q-2 -55 16.5 -84.5t67.5 -29.5h75
q-23 -120 -28 -199q-232 4 -369 4z" />
    <glyph glyph-name="kcommaaccent" unicode="&#x137;" horiz-adv-x="1153" 
d="M1036 387l82 -4q-8 -87 -30 -160.5t-61 -134.5t-101.5 -96t-143.5 -35q-136 0 -196.5 75.5t-24.5 209.5q29 115 1 153t-132 35l-20 -90l-68 -346q-103 6 -158 6q-92 0 -161 -6q189 833 233 1147q7 54 -5.5 81t-64.5 27h-41q13 88 13 162q79 -3 225.5 -3t226.5 3
q-7 -88 -47 -293l-65 -332q110 203 307 203q73 0 123.5 -21.5t73 -58t29 -84.5t-8.5 -102q-22 -89 -100.5 -151t-182.5 -89q177 -31 152 -254q-14 -125 39 -125q77 0 106 283zM440 -348q-46 0 -69.5 29.5t-20.5 85.5q3 55 40.5 89.5t98.5 34.5q66 0 96 -42.5t25 -114.5
q-9 -114 -97 -192t-224 -105l-8 41q115 24 180.5 82t79.5 143q-26 -51 -101 -51zM655 834q-40 0 -72.5 -29t-67 -106t-69.5 -210q107 7 169.5 64.5t84.5 146.5q13 64 0 99t-45 35z" />
    <glyph glyph-name="kgreenlandic" unicode="&#x138;" horiz-adv-x="1224" 
d="M104 553l-79 4q9 84 31.5 157.5t60 137t97.5 100.5t136 37q203 0 199 -239q109 239 325 239q143 0 194 -74.5t24 -191.5q-22 -89 -99.5 -151t-181.5 -89q177 -31 152 -254q-14 -125 36 -125q77 0 109 283l80 -4q-8 -87 -30 -160.5t-61 -134.5t-101 -96t-142 -35
q-137 0 -197.5 75t-25.5 210q29 115 1 153t-132 35l-90 -432q-101 6 -158 6l-158 -6q50 211 137 643q22 110 21.5 154.5t-29.5 44.5q-41 0 -73 -79.5t-46 -207.5zM725 834q-40 0 -72.5 -29t-67 -106t-69.5 -210q109 7 171.5 64.5t82.5 146.5q13 66 0 100t-45 34z" />
    <glyph glyph-name="Lacute" unicode="&#x139;" horiz-adv-x="1374" 
d="M500 1530l-17 24q147 197 260 267q69 30 118 12t48.5 -72.5t-65.5 -93.5q-64 -42 -161 -79.5t-183 -57.5zM958 1411l-28 -192h-82q-63 0 -97 -27.5t-49 -93.5q-16 -72 -67.5 -402.5t-54.5 -392.5q-3 -63 22 -85.5t84 -22.5h107q132 0 208 72t111 251l16 82q23 -2 95.5 -2
t95.5 2q-23 -114 -55 -308t-45 -300q-96 8 -404 8h-547q-28 0 -154 -2t-141 -2q11 47 31 199h78q62 0 83 25t38 95q16 69 69 397.5t56 385.5q3 65 -14 93t-72 28h-86q7 28 28 192q248 -4 387 -4q61 0 152 1t160 2t75 1z" />
    <glyph glyph-name="lacute" unicode="&#x13a;" horiz-adv-x="628" 
d="M344 1479l-16 24q146 195 260 266q69 30 118 12t48 -72t-66 -93q-64 -42 -161 -79.5t-183 -57.5zM567 1155q-112 -550 -170 -856q-22 -115 -17.5 -155t36.5 -40q36 0 65.5 77t44.5 206l80 -4q-10 -114 -46 -207t-109 -156t-172 -63q-142 0 -185.5 89.5t2.5 301.5
q76 319 158 793q10 52 -3.5 80t-66.5 28h-39q13 61 21 162q214 -8 428 0q2 -112 -27 -256z" />
    <glyph glyph-name="Lcommaaccent" unicode="&#x13b;" horiz-adv-x="1376" 
d="M485 -348q-46 0 -69.5 29.5t-20.5 85.5q3 55 41 89.5t99 34.5q66 0 95.5 -42t24.5 -115q-9 -114 -97 -192t-224 -105l-8 41q115 24 180.5 82t79.5 143q-26 -51 -101 -51zM961 1411l-29 -192h-82q-63 0 -96.5 -27.5t-48.5 -93.5q-16 -72 -68 -402.5t-55 -392.5
q-3 -63 22 -85.5t84 -22.5h107q132 0 208 72t111 251l16 82q23 -2 95.5 -2t95.5 2q-23 -114 -55 -308t-45 -300q-96 8 -404 8h-547q-28 0 -154 -2t-141 -2q11 47 31 199h78q62 0 83 25t38 95q16 69 69 397.5t56 385.5q3 65 -14 93t-72 28h-86q7 28 28 192q248 -4 387 -4
q61 0 152.5 1t160.5 2t75 1z" />
    <glyph glyph-name="lcommaaccent" unicode="&#x13c;" horiz-adv-x="628" 
d="M188 -348q-46 0 -69.5 29.5t-20.5 85.5q3 55 41 89.5t99 34.5q66 0 95.5 -42t24.5 -115q-9 -114 -97 -192t-224 -105l-8 41q115 24 180.5 82t79.5 143q-26 -51 -101 -51zM567 1155q-112 -550 -170 -856q-22 -115 -17.5 -155t36.5 -40q36 0 65.5 77t44.5 206l80 -4
q-10 -114 -46 -207t-109 -156t-172 -63q-142 0 -185.5 89.5t2.5 301.5q76 319 158 793q10 52 -3.5 80t-66.5 28h-39q13 61 21 162q214 -8 428 0q2 -112 -27 -256z" />
    <glyph glyph-name="Lcaron" unicode="&#x13d;" horiz-adv-x="1374" 
d="M1208 1202q-46 0 -69.5 29.5t-20.5 85.5q3 55 41 90t98 35q66 0 96 -42.5t25 -115.5q-9 -114 -97 -192t-224 -105l-8 41q115 24 180.5 82t79.5 143q-26 -51 -101 -51zM958 1411l-28 -192h-82q-63 0 -97 -27.5t-49 -93.5q-16 -72 -67.5 -402.5t-54.5 -392.5
q-3 -63 22 -85.5t84 -22.5h107q132 0 208 72t111 251l16 82q23 -2 95.5 -2t95.5 2q-23 -114 -55 -308t-45 -300q-96 8 -404 8h-547q-28 0 -154 -2t-141 -2q11 47 31 199h78q62 0 83 25t38 95q16 69 69 397.5t56 385.5q3 65 -14 93t-72 28h-86q7 28 28 192q248 -4 387 -4
q61 0 152 1t160 2t75 1z" />
    <glyph glyph-name="lcaron" unicode="&#x13e;" horiz-adv-x="921" 
d="M786 1176q-96 0 -90 114q3 55 41 90t99 35q66 0 95.5 -42.5t24.5 -115.5q-9 -114 -96.5 -191.5t-224.5 -104.5l-8 40q115 24 180.5 82.5t79.5 143.5q-26 -51 -101 -51zM567 1155q-112 -550 -170 -856q-22 -115 -17.5 -155t36.5 -40q36 0 65.5 77t44.5 206l80 -4
q-10 -114 -46 -207t-109 -156t-172 -63q-142 0 -185.5 89.5t2.5 301.5q76 319 158 793q10 52 -3.5 80t-66.5 28h-39q13 61 21 162q214 -8 428 0q2 -112 -27 -256z" />
    <glyph glyph-name="Ldot" unicode="&#x13f;" horiz-adv-x="1374" 
d="M958 1411l-28 -192h-82q-63 0 -97 -27.5t-49 -93.5q-16 -72 -67.5 -402.5t-54.5 -392.5q-3 -63 22 -85.5t84 -22.5h107q132 0 208 72t111 251l16 82q23 -2 95.5 -2t95.5 2q-23 -114 -55 -308t-45 -300q-96 8 -404 8h-547q-28 0 -154 -2t-141 -2q11 47 31 199h78
q62 0 83 25t38 95q16 69 69 397.5t56 385.5q3 65 -14 93t-72 28h-86q7 28 28 192q248 -4 387 -4q61 0 152 1t160 2t75 1zM1106 795q-3 -56 -41 -94.5t-98 -38.5t-94 38.5t-31 94.5q3 58 42 95.5t95 37.5q60 0 95 -37t32 -96z" />
    <glyph glyph-name="ldot" unicode="&#x140;" horiz-adv-x="897" 
d="M567 1155q-112 -550 -170 -856q-22 -115 -17.5 -155t36.5 -40q36 0 65.5 77t44.5 206l80 -4q-10 -114 -46 -207t-109 -156t-172 -63q-142 0 -185.5 89.5t2.5 301.5q76 319 158 793q10 52 -3.5 80t-66.5 28h-39q13 61 21 162q214 -8 428 0q2 -112 -27 -256zM899 688
q-3 -56 -41 -94.5t-98 -38.5t-94 38.5t-31 94.5q3 58 42 95.5t95 37.5q60 0 95 -37t32 -96z" />
    <glyph glyph-name="Lslash" unicode="&#x141;" horiz-adv-x="1374" 
d="M958 1411l-28 -192h-82q-63 0 -97 -27.5t-49 -93.5q-13 -50 -43 -242q84 34 121 51l39 -112q-11 -4 -180 -70q-56 -356 -59 -422q-3 -63 22 -85.5t84 -22.5h107q132 0 208 72t111 251l16 82q23 -2 95.5 -2t95.5 2q-23 -114 -55 -308t-45 -300q-96 8 -404 8h-547
q-28 0 -154 -2t-141 -2q11 47 31 199h78q63 0 86.5 26t34.5 94l45 250l-66 -26l-39 110l125 49q58 355 60 400q3 65 -14 93t-72 28h-86q7 28 28 192q248 -4 387 -4q61 0 152 1t160 2t75 1z" />
    <glyph glyph-name="lslash" unicode="&#x142;" horiz-adv-x="628" 
d="M567 1155l-59 -287q18 9 47.5 22.5t40.5 18.5l41 -108q-21 -8 -74 -31t-82 -35l-84 -436q-22 -115 -17.5 -155t36.5 -40q36 0 65.5 77t44.5 206l80 -4q-10 -114 -46 -207t-109 -156t-172 -63q-142 0 -185.5 89.5t2.5 301.5q37 159 54 242q-10 -4 -29 -13t-27 -12l-41 109
l123 49q42 215 78 418q10 52 -3.5 80t-66.5 28h-39q13 61 21 162q214 -8 428 0q2 -112 -27 -256z" />
    <glyph glyph-name="Nacute" unicode="&#x143;" horiz-adv-x="1691" 
d="M948 1530l-16 24q147 197 260 267q69 30 118 12t48 -72.5t-66 -93.5q-64 -42 -161 -79.5t-183 -57.5zM770 1411q53 -126 455 -881q67 399 80 557q6 72 -19.5 102t-83.5 30h-110q6 24 16 95.5t12 96.5q21 0 139.5 -2t184.5 -2l321 4q-6 -22 -16 -94t-12 -98h-86
q-57 0 -91 -30t-51 -102q-25 -114 -80.5 -494t-80.5 -595q-44 3 -162 3t-162 -3q-51 112 -500 973q-75 -434 -96 -645q-5 -61 27 -96t100 -35h90q-5 -28 -16.5 -102t-12.5 -97q-208 4 -325 4l-324 -4q15 80 29 199h70q66 0 106.5 35t54.5 96q20 90 67 393.5t50 378.5
q3 63 -21 92t-90 29h-83q11 61 28 192q294 -8 592 0z" />
    <glyph glyph-name="nacute" unicode="&#x144;" horiz-adv-x="1257" 
d="M668 1079l-17 25q146 195 260 266q69 30 118 12t48.5 -72t-65.5 -93q-64 -42 -161 -80t-183 -58zM104 553l-79 4q9 84 31.5 157.5t60 137t97.5 100.5t136 37q203 0 199 -239q118 239 344 239q307 0 197 -416l-72 -270q-28 -107 -25 -153t39 -46q70 0 109 283l80 -4
q-7 -84 -30 -157.5t-62.5 -135.5t-102.5 -97.5t-143 -35.5q-102 0 -158.5 50t-63 136.5t24.5 202.5l68 229q77 265 -19 265q-49 0 -90.5 -46t-88 -176t-91.5 -352l-55 -268q-101 6 -158 6l-158 -6q77 326 137 643q23 110 22.5 154.5t-30.5 44.5q-41 0 -73 -79.5t-46 -207.5z
" />
    <glyph glyph-name="Ncommaaccent" unicode="&#x145;" horiz-adv-x="1691" 
d="M707 -348q-46 0 -70 29.5t-21 85.5q3 55 41 89.5t99 34.5q66 0 96 -42.5t25 -114.5q-9 -114 -97 -192t-225 -105l-8 41q115 24 180.5 82t79.5 143q-26 -51 -100 -51zM770 1411q53 -126 455 -881q67 399 80 557q6 72 -19.5 102t-83.5 30h-110q6 24 16 95.5t12 96.5
q21 0 139.5 -2t184.5 -2l321 4q-6 -22 -16 -94t-12 -98h-86q-57 0 -91 -30t-51 -102q-25 -114 -80.5 -494t-80.5 -595q-44 3 -162 3t-162 -3q-51 112 -500 973q-75 -434 -96 -645q-5 -61 27 -96t100 -35h90q-5 -28 -16.5 -102t-12.5 -97q-208 4 -325 4l-324 -4q15 80 29 199
h70q66 0 106.5 35t54.5 96q20 90 67 393.5t50 378.5q3 63 -21 92t-90 29h-83q11 61 28 192q294 -8 592 0z" />
    <glyph glyph-name="ncommaaccent" unicode="&#x146;" horiz-adv-x="1257" 
d="M500 -348q-46 0 -69.5 29.5t-20.5 85.5q3 55 40.5 89.5t98.5 34.5q66 0 96 -42.5t25 -114.5q-9 -114 -97 -192t-225 -105l-8 41q115 24 180.5 82t79.5 143q-26 -51 -100 -51zM104 553l-79 4q9 84 31.5 157.5t60 137t97.5 100.5t136 37q203 0 199 -239q118 239 344 239
q307 0 197 -416l-72 -270q-28 -107 -25 -153t39 -46q70 0 109 283l80 -4q-7 -84 -30 -157.5t-62.5 -135.5t-102.5 -97.5t-143 -35.5q-102 0 -158.5 50t-63 136.5t24.5 202.5l68 229q77 265 -19 265q-49 0 -90.5 -46t-88 -176t-91.5 -352l-55 -268q-101 6 -158 6l-158 -6
q77 326 137 643q23 110 22.5 154.5t-30.5 44.5q-41 0 -73 -79.5t-46 -207.5z" />
    <glyph glyph-name="Ncaron" unicode="&#x147;" horiz-adv-x="1691" 
d="M737 1841l25 23q58 -25 129.5 -76t124.5 -102q59 50 146 104t143 72l18 -21q-41 -84 -115 -167.5t-145 -133.5h-141q-52 50 -105.5 134t-79.5 167zM770 1411q53 -126 455 -881q67 399 80 557q6 72 -19.5 102t-83.5 30h-110q6 24 16 95.5t12 96.5q21 0 139.5 -2t184.5 -2
l321 4q-6 -22 -16 -94t-12 -98h-86q-57 0 -91 -30t-51 -102q-25 -114 -80.5 -494t-80.5 -595q-44 3 -162 3t-162 -3q-51 112 -500 973q-75 -434 -96 -645q-5 -61 27 -96t100 -35h90q-5 -28 -16.5 -102t-12.5 -97q-208 4 -325 4l-324 -4q15 80 29 199h70q66 0 106.5 35
t54.5 96q20 90 67 393.5t50 378.5q3 63 -21 92t-90 29h-83q11 61 28 192q294 -8 592 0z" />
    <glyph glyph-name="ncaron" unicode="&#x148;" horiz-adv-x="1257" 
d="M461 1391l24 22q58 -25 129.5 -76t124.5 -102q59 50 146 104t143 72l19 -20q-41 -84 -115 -167.5t-146 -133.5h-141q-51 50 -104.5 134t-79.5 167zM104 553l-79 4q9 84 31.5 157.5t60 137t97.5 100.5t136 37q203 0 199 -239q118 239 344 239q307 0 197 -416l-72 -270
q-28 -107 -25 -153t39 -46q70 0 109 283l80 -4q-7 -84 -30 -157.5t-62.5 -135.5t-102.5 -97.5t-143 -35.5q-102 0 -158.5 50t-63 136.5t24.5 202.5l68 229q77 265 -19 265q-49 0 -90.5 -46t-88 -176t-91.5 -352l-55 -268q-101 6 -158 6l-158 -6q77 326 137 643
q23 110 22.5 154.5t-30.5 44.5q-41 0 -73 -79.5t-46 -207.5z" />
    <glyph glyph-name="napostrophe" unicode="&#x149;" horiz-adv-x="1257" 
d="M301 1237q-46 0 -69.5 29.5t-20.5 85.5q3 55 41 90t98 35q66 0 96 -42.5t25 -115.5q-9 -114 -97 -192t-224 -105l-9 41q115 24 180.5 82t79.5 143q-26 -51 -100 -51zM104 553l-79 4q9 84 31.5 157.5t60 137t97.5 100.5t136 37q203 0 199 -239q118 239 344 239
q307 0 197 -416l-72 -270q-28 -107 -25 -153t39 -46q70 0 109 283l80 -4q-7 -84 -30 -157.5t-62.5 -135.5t-102.5 -97.5t-143 -35.5q-102 0 -158.5 50t-63 136.5t24.5 202.5l68 229q77 265 -19 265q-49 0 -90.5 -46t-88 -176t-91.5 -352l-55 -268q-101 6 -158 6l-158 -6
q77 326 137 643q23 110 22.5 154.5t-30.5 44.5q-41 0 -73 -79.5t-46 -207.5z" />
    <glyph glyph-name="Eng" unicode="&#x14a;" horiz-adv-x="1691" 
d="M770 1411q53 -126 455 -881q67 399 80 557q6 72 -19.5 102t-83.5 30h-110q6 24 16 95.5t12 96.5q21 0 139.5 -2t184.5 -2l321 4q-6 -22 -16 -94t-12 -98h-86q-57 0 -91 -30t-51 -102q-24 -110 -77.5 -479.5t-83.5 -609.5q-52 -414 -488 -414q-134 0 -201 51t-53 134
q10 60 49.5 92.5t96.5 32.5q59 0 85.5 -32.5t18.5 -84.5q-8 -49 -49.5 -72t-91.5 -16q41 -35 127 -35q44 0 82 9t76 33t65.5 61.5t46.5 99.5t23 143q-91 0 -111 -2q-51 112 -500 973q-75 -434 -96 -645q-5 -61 27 -96t100 -35h90q-5 -28 -16.5 -102t-12.5 -97q-208 4 -325 4
l-324 -4q15 80 29 199h70q66 0 106.5 35t54.5 96q20 90 67 393.5t50 378.5q3 63 -21 92t-90 29h-83q11 61 28 192q294 -8 592 0z" />
    <glyph glyph-name="eng" unicode="&#x14b;" horiz-adv-x="1169" 
d="M104 553l-79 4q9 84 31.5 157.5t60 137t97.5 100.5t136 37q203 0 199 -239q118 239 344 239q287 0 190 -420l-125 -540q-55 -237 -186 -341t-342 -104q-129 0 -193.5 50.5t-52.5 134.5q9 60 49 92.5t97 32.5q60 0 86.5 -33t17.5 -84q-6 -36 -32 -59t-58.5 -27.5
t-67.5 0.5q32 -37 101 -37q44 0 79 18.5t59.5 47t45.5 77.5t34.5 95t29.5 114l127 543q25 112 29.5 177t-7 89.5t-39.5 24.5q-34 0 -65 -22.5t-63.5 -75t-64.5 -151.5t-61 -241l-71 -352q-101 6 -158 6l-158 -6q50 211 137 643q22 110 21.5 154.5t-29.5 44.5
q-41 0 -73 -79.5t-46 -207.5z" />
    <glyph glyph-name="Omacron" unicode="&#x14c;" horiz-adv-x="1626" 
d="M705 1571q7 23 17.5 84t12.5 88q94 -3 282.5 -3t282.5 3q-20 -77 -30 -172q-94 3 -282.5 3t-282.5 -3zM750 158q168 0 256 127.5t133 425.5q19 125 21.5 215t-10 152t-43.5 98.5t-76 52.5t-111 16q-163 0 -255 -121t-135 -415q-33 -203 -18.5 -325.5t71 -174t167.5 -51.5
zM721 -51q-167 0 -294 49t-208.5 143t-111.5 238.5t-3 329.5q29 189 103.5 332.5t185.5 233t250.5 134.5t304.5 45q360 0 515.5 -188.5t99.5 -554.5q-23 -155 -77.5 -281t-132.5 -215t-178.5 -149t-214 -88.5t-239.5 -28.5z" />
    <glyph glyph-name="omacron" unicode="&#x14d;" horiz-adv-x="1050" 
d="M371 1102q7 23 17.5 84t12.5 88q94 -3 283 -3t283 3q-21 -84 -31 -172q-94 3 -282.5 3t-282.5 -3zM451 98q68 0 124 133t93 379q17 96 11 149t-24 71t-55 18q-142 0 -215 -483q-20 -155 -3.5 -211t69.5 -56zM442 -43q-207 0 -309.5 117t-75.5 350q19 159 88.5 285.5
t189.5 203t271 76.5q203 0 304 -108.5t83 -327.5q-10 -122 -49.5 -228t-106.5 -189t-169 -131t-226 -48z" />
    <glyph glyph-name="Obreve" unicode="&#x14e;" horiz-adv-x="1626" 
d="M750 158q168 0 256 127.5t133 425.5q19 125 21.5 215t-10 152t-43.5 98.5t-76 52.5t-111 16q-163 0 -255 -121t-135 -415q-33 -203 -18.5 -325.5t71 -174t167.5 -51.5zM721 -51q-167 0 -294 49t-208.5 143t-111.5 238.5t-3 329.5q29 189 103.5 332.5t185.5 233
t250.5 134.5t304.5 45q360 0 515.5 -188.5t99.5 -554.5q-23 -155 -77.5 -281t-132.5 -215t-178.5 -149t-214 -88.5t-239.5 -28.5zM987 1532q-149 0 -202 83t-17 214l49 4q-3 -70 43.5 -97.5t151.5 -27.5t157.5 27.5t67.5 97.5l51 -4q0 -131 -76 -214t-225 -83z" />
    <glyph glyph-name="obreve" unicode="&#x14f;" horiz-adv-x="1050" 
d="M451 98q68 0 124 133t93 379q17 96 11 149t-24 71t-55 18q-142 0 -215 -483q-20 -155 -3.5 -211t69.5 -56zM442 -43q-207 0 -309.5 117t-75.5 350q19 159 88.5 285.5t189.5 203t271 76.5q203 0 304 -108.5t83 -327.5q-10 -122 -49.5 -228t-106.5 -189t-169 -131t-226 -48
zM680 1096q-149 0 -202 83t-17 214l49 4q-3 -70 43.5 -97.5t151.5 -27.5t157.5 27.5t67.5 97.5l51 -4q0 -131 -76 -214t-225 -83z" />
    <glyph glyph-name="Ohungarumlaut" unicode="&#x150;" horiz-adv-x="1626" 
d="M748 1528l-21 16q93 211 186 301q50 49 103 41.5t61 -52.5t-37 -101q-51 -54 -134.5 -112t-157.5 -93zM1083 1528l-20 16q93 211 186 301q52 49 104.5 41.5t60 -52.5t-37.5 -101q-51 -54 -135 -112t-158 -93zM750 158q168 0 256 127.5t133 425.5q19 125 21.5 215t-10 152
t-43.5 98.5t-76 52.5t-111 16q-163 0 -255 -121t-135 -415q-33 -203 -18.5 -325.5t71 -174t167.5 -51.5zM721 -51q-167 0 -294 49t-208.5 143t-111.5 238.5t-3 329.5q29 189 103.5 332.5t185.5 233t250.5 134.5t304.5 45q360 0 515.5 -188.5t99.5 -554.5
q-23 -155 -77.5 -281t-132.5 -215t-178.5 -149t-214 -88.5t-239.5 -28.5z" />
    <glyph glyph-name="ohungarumlaut" unicode="&#x151;" horiz-adv-x="1050" 
d="M455 1077l-21 17q92 209 187 301q50 49 103 41t61 -53t-37 -101q-51 -54 -135 -112t-158 -93zM791 1077l-21 17q93 211 186 301q52 49 104.5 41t60 -53t-37.5 -101q-51 -54 -134.5 -112t-157.5 -93zM451 98q68 0 124 133t93 379q17 96 11 149t-24 71t-55 18
q-142 0 -215 -483q-20 -155 -3.5 -211t69.5 -56zM442 -43q-207 0 -309.5 117t-75.5 350q19 159 88.5 285.5t189.5 203t271 76.5q203 0 304 -108.5t83 -327.5q-10 -122 -49.5 -228t-106.5 -189t-169 -131t-226 -48z" />
    <glyph glyph-name="OE" unicode="&#x152;" horiz-adv-x="2293" 
d="M1749 971l8 55h158q-46 -201 -62 -313q-22 -146 -32 -318h-152l6 49q13 106 -17.5 153.5t-127.5 51.5h-90q-44 -273 -47 -340q-3 -64 25 -89t85 -25h201q110 0 171 28.5t96.5 101t56.5 214.5l2 20q28 -1 105.5 -1t105.5 1q-49 -203 -97 -567q-94 8 -430 8h-678
q-143 -51 -315 -51q-167 0 -294 49t-208.5 143t-111.5 238.5t-3 329.5q29 189 103.5 332.5t185.5 233t250.5 134.5t304.5 45q179 0 301 -45h639q359 0 473 14q-23 -99 -52.5 -268.5t-39.5 -261.5q-28 1 -98.5 0.5t-95.5 -2.5l4 31q12 66 14.5 113.5t-6.5 80.5t-25 52.5
t-47.5 30.5t-66.5 14.5t-90 3.5h-207q-60 0 -89 -23.5t-46 -89.5q-10 -37 -58 -328h72q106 0 155 44t64 151zM1004 225q14 61 78.5 470.5t70.5 473.5q-25 32 -81 55t-138 23q-173 0 -266 -120t-138 -418q-46 -306 5 -428.5t221 -122.5q68 0 141 22t107 45z" />
    <glyph glyph-name="oe" unicode="&#x153;" horiz-adv-x="1548" 
d="M1001 -43q-179 0 -280 94q-116 -94 -279 -94q-207 0 -309.5 117t-75.5 350q19 159 88.5 285.5t189.5 203t271 76.5q187 0 293 -100q127 100 285 100q180 0 255.5 -84t53.5 -223q-13 -82 -60.5 -138t-122 -82.5t-153.5 -36t-178 -7.5q-28 -155 -6 -219t100 -64
q75 0 123 47t74 164q6 0 49 -3.5t78 -5.5t51 -1q-19 -90 -51 -156.5t-83.5 -118t-130 -78t-182.5 -26.5zM451 98q68 0 124 133t93 379q17 96 11 149t-24 71t-55 18q-142 0 -215 -483q-20 -155 -3.5 -211t69.5 -56zM1171 862q-40 0 -65 -26.5t-52 -106.5t-63 -244
q69 1 108 13.5t68.5 51.5t46.5 114q21 80 11.5 139t-54.5 59z" />
    <glyph glyph-name="Racute" unicode="&#x154;" horiz-adv-x="1648" 
d="M840 1530l-17 24q147 197 260 267q69 30 118 12t48.5 -72.5t-65.5 -93.5q-64 -42 -161 -79.5t-183 -57.5zM1298 377q-1 -123 15 -172t57 -49q42 0 62 79t12 179l115 10q6 -93 -9 -173.5t-53 -148.5t-111.5 -107.5t-175.5 -39.5q-109 0 -179 26.5t-101.5 76.5t-41.5 121
t1 159q8 84 -0.5 139.5t-36.5 85t-66.5 40.5t-97.5 11h-70q-40 -261 -40 -311q0 -59 22.5 -83.5t79.5 -24.5h80q-5 -28 -16.5 -102t-12.5 -97q-246 4 -383 4l-375 -4q14 57 31 199h68q62 0 86 18.5t43 81.5q15 59 69.5 406.5t57.5 406.5q5 62 -13.5 86.5t-74.5 24.5h-84
q16 85 26 194q11 0 184.5 -3t219.5 -3q48 0 185 1t177 1q294 0 422.5 -98.5t106.5 -288.5q-16 -146 -117.5 -236t-249.5 -122q103 -28 145.5 -99.5t42.5 -187.5zM707 1130q-14 -44 -68 -382h135q142 0 211 56.5t88 184.5q17 120 -30 178t-166 58h-48q-54 0 -81 -23t-41 -72z
" />
    <glyph glyph-name="racute" unicode="&#x155;" horiz-adv-x="964" 
d="M561 1079l-16 25q146 195 260 266q69 30 118 12t48 -72t-66 -93q-64 -42 -161 -80t-183 -58zM651 702q8 44 38 71t65 34t73 2q-17 59 -79 59q-34 0 -63 -13t-58.5 -44.5t-55 -91t-43.5 -144.5q-97 -448 -118 -579q-101 4 -158 4l-158 -4q12 53 131 627q31 154 28 186
q-2 31 -24 31q-44 0 -77.5 -80t-47.5 -207l-79 4q9 84 31.5 157.5t60 137t97.5 100.5t136 37q176 0 197 -180q42 95 108 137.5t138 42.5q97 0 145 -62t33 -177q-14 -104 -64 -154.5t-125 -50.5q-67 0 -107 41.5t-24 115.5z" />
    <glyph glyph-name="Rcommaaccent" unicode="&#x156;" horiz-adv-x="1648" 
d="M608 -348q-46 0 -69.5 29.5t-20.5 85.5q3 55 40.5 89.5t98.5 34.5q66 0 96 -42.5t25 -114.5q-9 -114 -97 -192t-224 -105l-8 41q115 24 180.5 82t79.5 143q-26 -51 -101 -51zM1298 377q-1 -123 15 -172t57 -49q42 0 62 79t12 179l115 10q6 -93 -9 -173.5t-53 -148.5
t-111.5 -107.5t-175.5 -39.5q-109 0 -179 26.5t-101.5 76.5t-41.5 121t1 159q8 84 -0.5 139.5t-36.5 85t-66.5 40.5t-97.5 11h-70q-40 -261 -40 -311q0 -59 22.5 -83.5t79.5 -24.5h80q-5 -28 -16.5 -102t-12.5 -97q-246 4 -383 4l-375 -4q14 57 31 199h68q62 0 86 18.5
t43 81.5q15 59 69.5 406.5t57.5 406.5q5 62 -13.5 86.5t-74.5 24.5h-84q16 85 26 194q11 0 184.5 -3t219.5 -3q48 0 185 1t177 1q294 0 422.5 -98.5t106.5 -288.5q-16 -146 -117.5 -236t-249.5 -122q103 -28 145.5 -99.5t42.5 -187.5zM707 1130q-14 -44 -68 -382h135
q142 0 211 56.5t88 184.5q17 120 -30 178t-166 58h-48q-54 0 -81 -23t-41 -72z" />
    <glyph glyph-name="rcommaaccent" unicode="&#x157;" horiz-adv-x="948" 
d="M170 -348q-46 0 -69.5 29.5t-20.5 85.5q3 55 40.5 89.5t98.5 34.5q66 0 96 -42.5t25 -114.5q-9 -114 -97 -192t-225 -105l-8 41q115 24 180.5 82t79.5 143q-26 -51 -100 -51zM651 702q8 44 38 71t65 34t73 2q-17 59 -79 59q-34 0 -63 -13t-58.5 -44.5t-55 -91
t-43.5 -144.5q-97 -448 -118 -579q-101 4 -158 4l-158 -4q12 53 131 627q31 154 28 186q-2 31 -24 31q-44 0 -77.5 -80t-47.5 -207l-79 4q9 84 31.5 157.5t60 137t97.5 100.5t136 37q176 0 197 -180q42 95 108 137.5t138 42.5q97 0 145 -62t33 -177q-14 -104 -64 -154.5
t-125 -50.5q-67 0 -107 41.5t-24 115.5z" />
    <glyph glyph-name="Rcaron" unicode="&#x158;" horiz-adv-x="1648" 
d="M637 1841l25 23q58 -25 129 -75.5t124 -102.5q59 50 146 104t143 72l19 -21q-41 -84 -115 -167.5t-145 -133.5h-142q-51 50 -104.5 134t-79.5 167zM1298 377q-1 -123 15 -172t57 -49q42 0 62 79t12 179l115 10q6 -93 -9 -173.5t-53 -148.5t-111.5 -107.5t-175.5 -39.5
q-109 0 -179 26.5t-101.5 76.5t-41.5 121t1 159q8 84 -0.5 139.5t-36.5 85t-66.5 40.5t-97.5 11h-70q-40 -261 -40 -311q0 -59 22.5 -83.5t79.5 -24.5h80q-5 -28 -16.5 -102t-12.5 -97q-246 4 -383 4l-375 -4q14 57 31 199h68q62 0 86 18.5t43 81.5q15 59 69.5 406.5
t57.5 406.5q5 62 -13.5 86.5t-74.5 24.5h-84q16 85 26 194q11 0 184.5 -3t219.5 -3q48 0 185 1t177 1q294 0 422.5 -98.5t106.5 -288.5q-16 -146 -117.5 -236t-249.5 -122q103 -28 145.5 -99.5t42.5 -187.5zM707 1130q-14 -44 -68 -382h135q142 0 211 56.5t88 184.5
q17 120 -30 178t-166 58h-48q-54 0 -81 -23t-41 -72z" />
    <glyph glyph-name="rcaron" unicode="&#x159;" horiz-adv-x="964" 
d="M317 1391l25 22q58 -25 129.5 -76t124.5 -102q59 50 146 104t143 72l18 -20q-41 -84 -115 -167.5t-145 -133.5h-141q-52 50 -105.5 134t-79.5 167zM651 702q8 44 38 71t65 34t73 2q-17 59 -79 59q-34 0 -63 -13t-58.5 -44.5t-55 -91t-43.5 -144.5q-97 -448 -118 -579
q-101 4 -158 4l-158 -4q12 53 131 627q31 154 28 186q-2 31 -24 31q-44 0 -77.5 -80t-47.5 -207l-79 4q9 84 31.5 157.5t60 137t97.5 100.5t136 37q176 0 197 -180q42 95 108 137.5t138 42.5q97 0 145 -62t33 -177q-14 -104 -64 -154.5t-125 -50.5q-67 0 -107 41.5
t-24 115.5z" />
    <glyph glyph-name="Sacute" unicode="&#x15a;" horiz-adv-x="1396" 
d="M762 1530l-17 24q60 81 131 155.5t130 111.5q69 30 118 12t48 -72.5t-66 -93.5q-64 -42 -161 -79.5t-183 -57.5zM774 1278q-287 0 -311 -158q-14 -89 55 -129t268 -57q150 -9 258 -53t168.5 -116.5t80.5 -169t1 -214.5q-30 -196 -189 -312t-419 -116q-116 0 -227 27
t-185 71q-98 57 -124 -53q-28 3 -87.5 3t-87.5 -3q40 92 68.5 226t36.5 253q25 -3 82 -3t80 3q-6 -166 99 -250t335 -84q296 0 317 168q11 95 -60.5 139.5t-270.5 61.5q-269 17 -399 157t-93 367q23 141 106.5 237.5t208.5 140t285 40.5q173 -2 340 -84q46 -28 77.5 -18
t47.5 71q26 -3 81 -3t81 3q-44 -101 -65 -203.5t-27 -236.5q-25 1 -77 1t-75 -1q-5 135 -104.5 215t-274.5 80z" />
    <glyph glyph-name="sacute" unicode="&#x15b;" horiz-adv-x="901" 
d="M506 1079l-17 25q145 194 261 266q69 30 118 12t48 -72t-66 -93q-64 -42 -161 -80t-183 -58zM604 905q-87 0 -138.5 -25t-66.5 -65q-23 -64 13 -109t155 -83q340 -109 240 -412q-40 -121 -153.5 -187.5t-284.5 -66.5q-187 0 -284 65t-71 177q11 47 48 75.5t90 28.5
q59 0 88 -37t14 -92q-11 -40 -46.5 -61t-76.5 -19q65 -47 186 -47q87 0 144.5 27t70.5 82q15 61 -20 106t-150 84q-317 109 -225 391q36 109 148 180.5t278 71.5q169 0 256.5 -64t65.5 -165q-11 -46 -45 -71t-86 -25q-59 0 -88.5 34t-14.5 86q19 76 105 84q-66 37 -152 37z
" />
    <glyph glyph-name="Scircumflex" unicode="&#x15c;" horiz-adv-x="1396" 
d="M1098 1550l-25 -20q-61 25 -126.5 70t-115.5 98q-53 -45 -147 -97t-154 -71l-18 22q39 81 118 163t156 136h140q47 -44 95.5 -129t76.5 -172zM774 1278q-287 0 -311 -158q-14 -89 55 -129t268 -57q150 -9 258 -53t168.5 -116.5t80.5 -169t1 -214.5q-30 -196 -189 -312
t-419 -116q-116 0 -227 27t-185 71q-98 57 -124 -53q-28 3 -87.5 3t-87.5 -3q40 92 68.5 226t36.5 253q25 -3 82 -3t80 3q-6 -166 99 -250t335 -84q296 0 317 168q11 95 -60.5 139.5t-270.5 61.5q-269 17 -399 157t-93 367q23 141 106.5 237.5t208.5 140t285 40.5
q173 -2 340 -84q46 -28 77.5 -18t47.5 71q26 -3 81 -3t81 3q-44 -101 -65 -203.5t-27 -236.5q-25 1 -77 1t-75 -1q-5 135 -104.5 215t-274.5 80z" />
    <glyph glyph-name="scircumflex" unicode="&#x15d;" horiz-adv-x="901" 
d="M870 1100l-24 -21q-61 25 -126.5 70t-115.5 98q-53 -45 -147 -97t-154 -71l-18 23q39 81 118 163t156 136h139q47 -44 95.5 -129t76.5 -172zM604 905q-87 0 -138.5 -25t-66.5 -65q-23 -64 13 -109t155 -83q340 -109 240 -412q-40 -121 -153.5 -187.5t-284.5 -66.5
q-187 0 -284 65t-71 177q11 47 48 75.5t90 28.5q59 0 88 -37t14 -92q-11 -40 -46.5 -61t-76.5 -19q65 -47 186 -47q87 0 144.5 27t70.5 82q15 61 -20 106t-150 84q-317 109 -225 391q36 109 148 180.5t278 71.5q169 0 256.5 -64t65.5 -165q-11 -46 -45 -71t-86 -25
q-59 0 -88.5 34t-14.5 86q19 76 105 84q-66 37 -152 37z" />
    <glyph glyph-name="Scedilla" unicode="&#x15e;" horiz-adv-x="1396" 
d="M520 -225l-22 47q108 48 137 133q-102 4 -198.5 30.5t-162.5 65.5q-98 57 -124 -53q-28 3 -87.5 3t-87.5 -3q40 92 68.5 226t36.5 253q25 -3 82 -3t80 3q-6 -166 99 -250t335 -84q296 0 317 168q11 95 -60.5 139.5t-270.5 61.5q-269 17 -399 157t-93 367
q23 141 106.5 237.5t208.5 140t285 40.5q173 -2 340 -84q46 -28 77.5 -18t47.5 71q26 -3 81 -3t81 3q-44 -101 -65 -203.5t-27 -236.5q-25 1 -77 1t-75 -1q-5 135 -104.5 215t-274.5 80q-287 0 -311 -158q-14 -89 55 -129t268 -57q150 -9 258 -53t168.5 -116.5t80.5 -169
t1 -214.5q-30 -193 -184.5 -308.5t-407.5 -119.5q-8 -49 -55 -96q94 7 159.5 -35.5t61.5 -128.5q-3 -90 -72 -141.5t-184 -51.5q-76 0 -133 33t-88 88l49 41q54 -70 133 -70q53 0 82.5 26.5t32.5 74.5q3 64 -48.5 86.5t-119.5 -4.5z" />
    <glyph glyph-name="scedilla" unicode="&#x15f;" horiz-adv-x="901" 
d="M223 -225l-22 47q56 26 89 58.5t50 78.5q-174 5 -262.5 69t-63.5 171q11 47 48 75.5t90 28.5q59 0 88 -37t14 -92q-11 -40 -46.5 -61t-76.5 -19q65 -47 186 -47q87 0 144.5 27t70.5 82q15 61 -20 106t-150 84q-317 109 -225 391q36 109 148 180.5t278 71.5
q169 0 256.5 -64t65.5 -165q-11 -46 -45 -71t-86 -25q-59 0 -87.5 34t-15.5 86q21 77 105 84q-66 37 -152 37q-87 0 -138.5 -25t-66.5 -65q-23 -64 13 -109t155 -83q340 -109 240 -412q-38 -114 -141 -179.5t-258 -72.5q-12 -56 -58 -102q94 7 159.5 -35.5t61.5 -128.5
q-3 -90 -72 -141.5t-184 -51.5q-76 0 -133 33t-88 88l49 41q54 -70 133 -70q53 0 82.5 26.5t32.5 74.5q3 64 -48.5 86.5t-119.5 -4.5z" />
    <glyph glyph-name="Scaron" unicode="&#x160;" horiz-adv-x="1396" 
d="M582 1841l24 23q58 -25 129.5 -76t124.5 -102q59 50 146 104t143 72l18 -21q-41 -84 -115 -167.5t-145 -133.5h-141q-51 50 -104.5 134t-79.5 167zM774 1278q-287 0 -311 -158q-14 -89 55 -129t268 -57q150 -9 258 -53t168.5 -116.5t80.5 -169t1 -214.5
q-30 -196 -189 -312t-419 -116q-116 0 -227 27t-185 71q-98 57 -124 -53q-28 3 -87.5 3t-87.5 -3q40 92 68.5 226t36.5 253q25 -3 82 -3t80 3q-6 -166 99 -250t335 -84q296 0 317 168q11 95 -60.5 139.5t-270.5 61.5q-269 17 -399 157t-93 367q23 141 106.5 237.5t208.5 140
t285 40.5q173 -2 340 -84q46 -28 77.5 -18t47.5 71q26 -3 81 -3t81 3q-44 -101 -65 -203.5t-27 -236.5q-25 1 -77 1t-75 -1q-5 135 -104.5 215t-274.5 80z" />
    <glyph glyph-name="scaron" unicode="&#x161;" horiz-adv-x="901" 
d="M330 1391l24 22q58 -25 129.5 -76t124.5 -102q59 50 146 104t143 72l18 -20q-41 -84 -115 -167.5t-145 -133.5h-141q-51 50 -104.5 134t-79.5 167zM604 905q-87 0 -138.5 -25t-66.5 -65q-23 -64 13 -109t155 -83q340 -109 240 -412q-40 -121 -153.5 -187.5t-284.5 -66.5
q-187 0 -284 65t-71 177q11 47 48 75.5t90 28.5q59 0 88 -37t14 -92q-11 -40 -46.5 -61t-76.5 -19q65 -47 186 -47q87 0 144.5 27t70.5 82q15 61 -20 106t-150 84q-317 109 -225 391q36 109 148 180.5t278 71.5q169 0 256.5 -64t65.5 -165q-11 -46 -45 -71t-86 -25
q-59 0 -88.5 34t-14.5 86q19 76 105 84q-66 37 -152 37z" />
    <glyph glyph-name="Tcommaaccent" unicode="&#x162;" horiz-adv-x="1503" 
d="M522 -225l-22 47q68 30 103.5 72t47.5 106l-391 -4q6 24 16.5 99t12.5 100h80q68 0 100.5 25t46.5 85q46 193 137 895h-127q-81 0 -125 -46.5t-65 -143.5l-35 -160q-94 7 -199 0q19 105 43 284.5t33 282.5q205 -10 379 -10h635q96 0 170 2t131 4.5t76 3.5
q-75 -388 -96 -567q-99 8 -197 0l18 160q9 93 -22 141.5t-111 48.5h-133q-123 -727 -135 -895q-5 -54 20 -82t91 -28h81q-7 -28 -28 -199q-203 4 -348 4q6 -80 -60 -143q94 7 159.5 -35.5t61.5 -128.5q-3 -90 -72 -141.5t-184 -51.5q-76 0 -133 33t-88 88l49 41
q54 -70 133 -70q53 0 82.5 26.5t32.5 74.5q3 64 -48.5 86.5t-119.5 -4.5z" />
    <glyph glyph-name="tcommaaccent" unicode="&#x163;" horiz-adv-x="745" 
d="M160 -225l-23 47q111 51 139 137q-240 24 -188 334q10 61 53.5 268t57.5 289l-82 -2l10 104q76 0 133.5 15t96 39.5t69.5 69.5t50.5 90t43.5 116h107q-10 -37 -35.5 -154t-36.5 -180l188 4l-14 -104l-192 2l-91 -496q-24 -140 -19 -194t46 -54q35 0 66 76t41 205l79 -4
q-30 -412 -315 -426q-13 -56 -57 -100q94 7 159.5 -35.5t61.5 -128.5q-3 -90 -72 -141.5t-184 -51.5q-76 0 -133 33t-88 88l49 41q54 -70 133 -70q53 0 82.5 26.5t32.5 74.5q3 64 -48.5 86.5t-119.5 -4.5z" />
    <glyph glyph-name="Tcaron" unicode="&#x164;" horiz-adv-x="1503" 
d="M625 1841l24 23q58 -25 129.5 -76t124.5 -102q59 50 146 104t143 72l18 -21q-41 -84 -115 -167.5t-145 -133.5h-141q-51 50 -104.5 134t-79.5 167zM1161 1200h-133q-123 -727 -135 -895q-5 -54 20 -82t91 -28h81q-7 -28 -28 -199q-255 4 -398 4l-399 -4q6 24 16.5 99
t12.5 100h80q68 0 100.5 25t46.5 85q46 193 137 895h-127q-81 0 -125 -46.5t-65 -143.5l-35 -160q-94 7 -199 0q19 105 43 284.5t33 282.5q205 -10 379 -10h635q96 0 170 2t131 4.5t76 3.5q-75 -388 -96 -567q-99 8 -197 0l18 160q9 93 -22 141.5t-111 48.5z" />
    <glyph glyph-name="tcaron" unicode="&#x165;" horiz-adv-x="997" 
d="M580 387l79 -4q-9 -131 -45 -223.5t-109.5 -147.5t-180.5 -55q-155 0 -208.5 87.5t-27.5 248.5q10 61 53.5 268t57.5 289l-82 -2l10 104q76 0 133.5 15t96 39.5t69.5 69.5t50.5 90t43.5 116h107q-10 -37 -35.5 -154t-36.5 -180l188 4l-14 -104l-192 2l-91 -496
q-24 -140 -19 -194t46 -54q35 0 66 76t41 205zM885 1204q-46 0 -69.5 29.5t-20.5 85.5q3 55 41 90t98 35q66 0 96 -42.5t25 -115.5q-9 -114 -97 -192t-225 -105l-8 41q115 24 180.5 82t79.5 143q-26 -51 -100 -51z" />
    <glyph glyph-name="Tbar" unicode="&#x166;" horiz-adv-x="1503" 
d="M1161 1200h-133q-43 -244 -90 -547l231 13l-20 -121q-25 0 -225 8q-29 -196 -31 -248q-5 -54 20 -82t91 -28h81q-7 -28 -28 -199q-255 4 -398 4l-399 -4q6 24 16.5 99t12.5 100h80q68 0 100.5 25t46.5 85q19 88 45 250q-173 -10 -235 -10l20 121q12 0 229 -13
q47 307 78 547h-127q-81 0 -125 -46.5t-65 -143.5l-35 -160q-94 7 -199 0q19 105 43 284.5t33 282.5q205 -10 379 -10h635q96 0 170 2t131 4.5t76 3.5q-75 -388 -96 -567q-99 8 -197 0l18 160q9 93 -22 141.5t-111 48.5z" />
    <glyph glyph-name="tbar" unicode="&#x167;" horiz-adv-x="733" 
d="M578 387l79 -4q-9 -131 -45 -223.5t-109.5 -147.5t-180.5 -55q-155 0 -208.5 87.5t-27.5 248.5q10 60 55 274q-66 -4 -84 -4l13 96l88 -6l39 197l-82 -2l10 104q76 0 133.5 15t96 39.5t69.5 69.5t50.5 90t43.5 116h107q-10 -37 -35.5 -154t-36.5 -180l188 4l-14 -104
l-192 2l-37 -201l192 10l-18 -96l-187 10l-41 -219q-24 -140 -19 -194t46 -54q35 0 66 76t41 205z" />
    <glyph glyph-name="Utilde" unicode="&#x168;" horiz-adv-x="1683" 
d="M225 553q10 56 44 273.5t38 271.5q3 66 -15.5 93.5t-74.5 27.5h-63q11 61 28 192q248 -4 385 -4q81 0 229 2t152 2q-13 -49 -30 -192h-80q-58 0 -89.5 -27.5t-50.5 -93.5q-5 -21 -12 -60.5t-15.5 -100t-16 -113.5t-18.5 -137.5t-18 -133.5q-29 -198 28.5 -282.5
t203.5 -84.5q147 0 227.5 82.5t114.5 284.5q74 439 82 545q9 121 -100 121h-72q6 24 16 95.5t12 96.5q203 -4 318 -4q66 0 186 2t127 2q-13 -65 -28 -192h-64q-54 0 -83.5 -29.5t-41.5 -91.5q-13 -66 -80 -547q-48 -308 -222.5 -453t-467.5 -145q-106 0 -190 13.5t-153 43
t-114 76.5t-73.5 113.5t-31 154.5t12.5 199zM1315 1780l55 2q11 -73 -2 -127.5t-46 -85t-75.5 -44.5t-93.5 -12q-52 3 -90 22t-60 44t-49 70q-30 52 -48 69t-48 17q-37 0 -56 -40t-11 -124l-56 -2q-22 144 39.5 208.5t177.5 61.5q68 -3 112 -33.5t85 -99.5q29 -50 48 -69
t48 -19q86 0 70 162z" />
    <glyph glyph-name="utilde" unicode="&#x169;" horiz-adv-x="1259" 
d="M1151 387l80 -4q-8 -82 -31 -156t-61 -135.5t-96.5 -98t-129.5 -36.5q-116 0 -166.5 53t-46.5 178q-113 -231 -331 -231q-107 0 -162 51t-59.5 144t24.5 223l68 262q28 109 28 156t-28 47q-46 0 -78.5 -79t-46.5 -208l-80 4q9 84 31.5 157.5t60 137t97.5 100.5t136 37
q81 0 132.5 -30t71.5 -85t19 -123t-22 -151l-57 -227q-35 -141 -30 -204t50 -63q28 0 55.5 19.5t60 67t66 145.5t62.5 237l80 379q103 -4 160 -4l157 4q-50 -218 -135 -637q-12 -63 -17.5 -98t-6.5 -64t6 -40t22 -11q38 0 68.5 76.5t48.5 206.5zM971 1329l55 2
q11 -73 -2 -127.5t-46 -84.5t-75.5 -44t-93.5 -12q-75 4 -117 36t-82 99q-30 52 -48 69t-48 17q-37 0 -56.5 -40t-11.5 -124l-55 -2q-11 74 1 129t43.5 85.5t74.5 44.5t98 12q68 -3 112 -34t85 -100q29 -50 48 -69t48 -19q86 0 70 162z" />
    <glyph glyph-name="Umacron" unicode="&#x16a;" horiz-adv-x="1683" 
d="M225 553q10 56 44 273.5t38 271.5q3 66 -15.5 93.5t-74.5 27.5h-63q11 61 28 192q248 -4 385 -4q81 0 229 2t152 2q-13 -49 -30 -192h-80q-58 0 -89.5 -27.5t-50.5 -93.5q-5 -21 -12 -60.5t-15.5 -100t-16 -113.5t-18.5 -137.5t-18 -133.5q-29 -198 28.5 -282.5
t203.5 -84.5q147 0 227.5 82.5t114.5 284.5q74 439 82 545q9 121 -100 121h-72q6 24 16 95.5t12 96.5q203 -4 318 -4q66 0 186 2t127 2q-13 -65 -28 -192h-64q-54 0 -83.5 -29.5t-41.5 -91.5q-13 -66 -80 -547q-48 -308 -222.5 -453t-467.5 -145q-106 0 -190 13.5t-153 43
t-114 76.5t-73.5 113.5t-31 154.5t12.5 199zM772 1571q7 23 18 84.5t13 87.5q94 -3 282.5 -3t282.5 3q-21 -84 -31 -172q-94 3 -282.5 3t-282.5 -3z" />
    <glyph glyph-name="umacron" unicode="&#x16b;" horiz-adv-x="1259" 
d="M1151 387l80 -4q-8 -82 -31 -156t-61 -135.5t-96.5 -98t-129.5 -36.5q-116 0 -166.5 53t-46.5 178q-113 -231 -331 -231q-107 0 -162 51t-59.5 144t24.5 223l68 262q28 109 28 156t-28 47q-46 0 -78.5 -79t-46.5 -208l-80 4q9 84 31.5 157.5t60 137t97.5 100.5t136 37
q81 0 132.5 -30t71.5 -85t19 -123t-22 -151l-57 -227q-35 -141 -30 -204t50 -63q28 0 55.5 19.5t60 67t66 145.5t62.5 237l80 379q103 -4 160 -4l157 4q-50 -218 -135 -637q-12 -63 -17.5 -98t-6.5 -64t6 -40t22 -11q38 0 68.5 76.5t48.5 206.5zM440 1102q7 23 18 84.5
t13 87.5q94 -3 282.5 -3t282.5 3q-20 -77 -30 -172q-94 3 -283 3t-283 -3z" />
    <glyph glyph-name="Ubreve" unicode="&#x16c;" horiz-adv-x="1683" 
d="M225 553q10 56 44 273.5t38 271.5q3 66 -15.5 93.5t-74.5 27.5h-63q11 61 28 192q248 -4 385 -4q81 0 229 2t152 2q-13 -49 -30 -192h-80q-58 0 -89.5 -27.5t-50.5 -93.5q-5 -21 -12 -60.5t-15.5 -100t-16 -113.5t-18.5 -137.5t-18 -133.5q-29 -198 28.5 -282.5
t203.5 -84.5q147 0 227.5 82.5t114.5 284.5q74 439 82 545q9 121 -100 121h-72q6 24 16 95.5t12 96.5q203 -4 318 -4q66 0 186 2t127 2q-13 -65 -28 -192h-64q-54 0 -83.5 -29.5t-41.5 -91.5q-13 -66 -80 -547q-48 -308 -222.5 -453t-467.5 -145q-106 0 -190 13.5t-153 43
t-114 76.5t-73.5 113.5t-31 154.5t12.5 199zM1028 1532q-149 0 -202 83t-17 214l49 4q-3 -70 43.5 -97.5t151.5 -27.5t157.5 27.5t67.5 97.5l51 -4q0 -131 -76 -214t-225 -83z" />
    <glyph glyph-name="ubreve" unicode="&#x16d;" horiz-adv-x="1259" 
d="M1151 387l80 -4q-8 -82 -31 -156t-61 -135.5t-96.5 -98t-129.5 -36.5q-116 0 -166.5 53t-46.5 178q-113 -231 -331 -231q-107 0 -162 51t-59.5 144t24.5 223l68 262q28 109 28 156t-28 47q-46 0 -78.5 -79t-46.5 -208l-80 4q9 84 31.5 157.5t60 137t97.5 100.5t136 37
q81 0 132.5 -30t71.5 -85t19 -123t-22 -151l-57 -227q-35 -141 -30 -204t50 -63q28 0 55.5 19.5t60 67t66 145.5t62.5 237l80 379q103 -4 160 -4l157 4q-50 -218 -135 -637q-12 -63 -17.5 -98t-6.5 -64t6 -40t22 -11q38 0 68.5 76.5t48.5 206.5zM715 1096q-149 0 -202 83
t-17 214l49 4q-3 -70 43 -97.5t151 -27.5t158 27.5t68 97.5l51 -4q0 -131 -76 -214t-225 -83z" />
    <glyph glyph-name="Uring" unicode="&#x16e;" horiz-adv-x="1683" 
d="M985 1724q-4 -49 18 -74.5t66 -25.5t72.5 26t34.5 74q4 49 -18.5 76t-65.5 27t-72 -27t-35 -76zM895 1724q9 83 63.5 134t139.5 51q82 0 128.5 -51.5t37.5 -133.5q-9 -83 -63 -133.5t-138 -50.5q-82 0 -129.5 51.5t-38.5 132.5zM225 553q10 56 44 273.5t38 271.5
q3 66 -15.5 93.5t-74.5 27.5h-63q11 61 28 192q248 -4 385 -4q81 0 229 2t152 2q-13 -49 -30 -192h-80q-58 0 -89.5 -27.5t-50.5 -93.5q-5 -21 -12 -60.5t-15.5 -100t-16 -113.5t-18.5 -137.5t-18 -133.5q-29 -198 28.5 -282.5t203.5 -84.5q147 0 227.5 82.5t114.5 284.5
q74 439 82 545q9 121 -100 121h-72q6 24 16 95.5t12 96.5q203 -4 318 -4q66 0 186 2t127 2q-13 -65 -28 -192h-64q-54 0 -83.5 -29.5t-41.5 -91.5q-13 -66 -80 -547q-48 -308 -222.5 -453t-467.5 -145q-106 0 -190 13.5t-153 43t-114 76.5t-73.5 113.5t-31 154.5t12.5 199z
" />
    <glyph glyph-name="uring" unicode="&#x16f;" horiz-adv-x="1259" 
d="M645 1257q-4 -49 18 -74.5t66 -25.5t72.5 26t34.5 74q4 49 -18.5 76t-65.5 27t-72 -27t-35 -76zM555 1257q9 83 63.5 134t139.5 51q82 0 128.5 -51.5t37.5 -133.5q-9 -83 -63 -133.5t-138 -50.5q-82 0 -129.5 51.5t-38.5 132.5zM1151 387l80 -4q-8 -82 -31 -156
t-61 -135.5t-96.5 -98t-129.5 -36.5q-116 0 -166.5 53t-46.5 178q-113 -231 -331 -231q-107 0 -162 51t-59.5 144t24.5 223l68 262q28 109 28 156t-28 47q-46 0 -78.5 -79t-46.5 -208l-80 4q9 84 31.5 157.5t60 137t97.5 100.5t136 37q81 0 132.5 -30t71.5 -85t19 -123
t-22 -151l-57 -227q-35 -141 -30 -204t50 -63q28 0 55.5 19.5t60 67t66 145.5t62.5 237l80 379q103 -4 160 -4l157 4q-50 -218 -135 -637q-12 -63 -17.5 -98t-6.5 -64t6 -40t22 -11q38 0 68.5 76.5t48.5 206.5z" />
    <glyph glyph-name="Uhungarumlaut" unicode="&#x170;" horiz-adv-x="1683" 
d="M225 553q10 56 44 273.5t38 271.5q3 66 -15.5 93.5t-74.5 27.5h-63q11 61 28 192q248 -4 385 -4q81 0 229 2t152 2q-13 -49 -30 -192h-80q-58 0 -89.5 -27.5t-50.5 -93.5q-5 -21 -12 -60.5t-15.5 -100t-16 -113.5t-18.5 -137.5t-18 -133.5q-29 -198 28.5 -282.5
t203.5 -84.5q147 0 227.5 82.5t114.5 284.5q74 439 82 545q9 121 -100 121h-72q6 24 16 95.5t12 96.5q203 -4 318 -4q66 0 186 2t127 2q-13 -65 -28 -192h-64q-54 0 -83.5 -29.5t-41.5 -91.5q-13 -66 -80 -547q-48 -308 -222.5 -453t-467.5 -145q-106 0 -190 13.5t-153 43
t-114 76.5t-73.5 113.5t-31 154.5t12.5 199zM844 1528l-21 16q92 209 187 301q50 49 103 41.5t61 -52.5t-37 -101q-51 -54 -135 -112t-158 -93zM1180 1528l-21 16q92 209 187 301q52 49 104.5 41.5t60 -52.5t-37.5 -101q-51 -54 -135 -112t-158 -93z" />
    <glyph glyph-name="uhungarumlaut" unicode="&#x171;" horiz-adv-x="1259" 
d="M1151 387l80 -4q-8 -82 -31 -156t-61 -135.5t-96.5 -98t-129.5 -36.5q-116 0 -166.5 53t-46.5 178q-113 -231 -331 -231q-107 0 -162 51t-59.5 144t24.5 223l68 262q28 109 28 156t-28 47q-46 0 -78.5 -79t-46.5 -208l-80 4q9 84 31.5 157.5t60 137t97.5 100.5t136 37
q81 0 132.5 -30t71.5 -85t19 -123t-22 -151l-57 -227q-35 -141 -30 -204t50 -63q28 0 55.5 19.5t60 67t66 145.5t62.5 237l80 379q103 -4 160 -4l157 4q-50 -218 -135 -637q-12 -63 -17.5 -98t-6.5 -64t6 -40t22 -11q38 0 68.5 76.5t48.5 206.5zM539 1077l-21 17
q92 209 187 301q30 30 63.5 39t56.5 -2.5t37 -32.5t6.5 -53.5t-37.5 -63.5q-51 -54 -134.5 -112t-157.5 -93zM874 1077l-20 17q93 211 186 301q52 49 104.5 41t60 -53t-37.5 -101q-51 -54 -135 -112t-158 -93z" />
    <glyph glyph-name="Uogonek" unicode="&#x172;" horiz-adv-x="1683" 
d="M225 553q10 56 44 273.5t38 271.5q3 66 -15.5 93.5t-74.5 27.5h-63q11 61 28 192q248 -4 385 -4q81 0 229 2t152 2q-13 -49 -30 -192h-80q-58 0 -89.5 -27.5t-50.5 -93.5q-5 -21 -12 -60.5t-15.5 -100t-16 -113.5t-18.5 -137.5t-18 -133.5q-29 -198 28.5 -282.5
t203.5 -84.5q147 0 227.5 82.5t114.5 284.5q74 439 82 545q9 121 -100 121h-72q6 24 16 95.5t12 96.5q203 -4 318 -4q66 0 186 2t127 2q-13 -65 -28 -192h-64q-54 0 -83.5 -29.5t-41.5 -91.5q-13 -66 -80 -547q-90 -571 -637 -596q-40 -65 -43 -115q-3 -48 24 -73t73 -25
q112 0 147 127l66 -10q-25 -281 -281 -281q-97 0 -155.5 49t-49.5 140q10 114 127 186q-119 3 -209 24.5t-158.5 66.5t-104.5 114t-48.5 167.5t10.5 227.5z" />
    <glyph glyph-name="uogonek" unicode="&#x173;" horiz-adv-x="1259" 
d="M1284 -141q-25 -281 -280 -281q-97 0 -155.5 49t-49.5 140q13 119 143 194q-28 -4 -43 -4q-103 0 -152 54.5t-45 181.5q-112 -236 -333 -236q-107 0 -162 51t-59.5 144t24.5 223l68 262q28 109 28 156t-28 47q-46 0 -78.5 -79t-46.5 -208l-80 4q9 84 31.5 157.5t60 137
t97.5 100.5t136 37q81 0 132.5 -30t71.5 -85t19 -123t-22 -151l-57 -227q-35 -141 -30 -204t50 -63q27 0 55.5 21.5t61 70.5t65.5 145.5t62 231.5l80 379q103 -4 160 -4l157 4q-50 -218 -135 -637q-12 -63 -17.5 -98t-6.5 -64t6 -40t22 -11q38 0 68.5 76.5t48.5 206.5l80 -4
q-20 -227 -144 -348q-57 -60 -83 -104.5t-29 -90.5q-3 -48 23.5 -73t72.5 -25q113 0 148 127z" />
    <glyph glyph-name="Wcircumflex" unicode="&#x174;" horiz-adv-x="2328" 
d="M1720 1550l-24 -20q-61 25 -126.5 70t-115.5 98q-53 -45 -147 -97t-154 -71l-18 22q39 81 118 163t156 136h139q47 -44 95.5 -129t76.5 -172zM1663 -12q-195 8 -391 0q-37 387 -98 796q-173 -385 -345 -796q-179 8 -358 0q-69 677 -131 1095q-10 73 -42.5 104.5
t-113.5 31.5h-51q26 142 29 192q254 -4 395 -4q63 0 155 1t162 2t78 1q-24 -123 -28 -192h-58q-62 0 -85 -32t-17 -104q3 -43 37 -317t53 -414q213 476 311 731q52 136 -67 136h-45q6 25 17.5 97t12.5 95q211 -4 330 -4q71 0 198 2t130 2q-21 -107 -31 -192h-51
q-52 0 -76 -31.5t-20 -100.5q19 -234 92 -741q15 35 71 167t89.5 211.5t75.5 183t63 163.5q54 148 -68 148h-47q6 25 18 97t13 95q180 -4 280 -4q59 0 165.5 2t113.5 2q-6 -24 -18 -96t-13 -96h-69q-72 0 -118.5 -31.5t-86.5 -116.5q-142 -300 -461 -1083z" />
    <glyph glyph-name="wcircumflex" unicode="&#x175;" horiz-adv-x="1560" 
d="M1300 1100l-24 -21q-61 25 -126.5 70t-115.5 98q-53 -45 -147 -97t-154 -71l-18 23q39 81 118 163t156 136h139q47 -44 95.5 -129t76.5 -172zM360 -43q-299 0 -188 418l72 276q49 189 -4 189q-43 0 -77 -80.5t-48 -206.5l-80 4q9 84 31.5 157.5t60 137t97.5 100.5t136 37
q80 0 134.5 -31t78 -85t23.5 -123t-23 -150l-63 -227q-76 -267 16 -267q127 0 226 457l84 393q109 -4 168 -4l165 4q-32 -104 -145 -577q-36 -152 -25.5 -212.5t72.5 -60.5q70 0 134.5 73.5t106 181.5t58.5 225q13 93 10 153h-18q-54 0 -87 35.5t-24 97.5q9 58 45.5 88.5
t83.5 28.5q158 -3 111 -301q-14 -90 -41 -184t-75 -194t-108 -177t-145.5 -126.5t-181.5 -49.5q-253 0 -256 231q-56 -115 -140 -173t-184 -58z" />
    <glyph glyph-name="Ycircumflex" unicode="&#x176;" horiz-adv-x="1718" 
d="M1425 1067q-153 -208 -385 -569l-26 -187q-10 -64 10.5 -90t93.5 -26h96q-12 -64 -28 -199q-272 4 -426 4l-428 -4q6 24 16 98.5t12 100.5h91q75 0 103 24.5t36 87.5l26 180q-96 286 -223 605q-29 70 -76 98.5t-143 28.5h-33q6 24 16.5 96t12.5 96q278 -4 436 -4l438 4
q-6 -24 -16 -95.5t-12 -96.5h-62q-142 0 -96 -175q32 -109 135 -356q175 257 230 356q22 42 32.5 71.5t10 54.5t-20 37t-59.5 12h-51q6 24 16 95.5t12 96.5q207 -4 324 -4l319 4q-6 -22 -16 -94t-12 -98h-41q-88 0 -147 -19t-91.5 -48t-73.5 -85zM1401 1550l-25 -20
q-135 56 -241 168q-53 -45 -147 -97t-154 -71l-19 22q39 81 118 163t157 136h139q47 -44 95.5 -129t76.5 -172z" />
    <glyph glyph-name="ycircumflex" unicode="&#x177;" horiz-adv-x="1183" 
d="M115 553l-80 4q9 84 31.5 157.5t60 137t97.5 100.5t136 37q300 0 201 -389l-59 -227q-33 -126 -27 -196.5t49 -70.5q27 0 55.5 20.5t61 68t65.5 142.5t60 228l80 391q40 -4 155 -4l156 4q-14 -63 -85 -416t-85 -434q-25 -139 -80.5 -241.5t-135 -163t-173 -89
t-203.5 -28.5q-158 0 -233 63t-62 150q9 61 49 95t99 34q54 0 85.5 -29.5t28.5 -80.5q-4 -61 -50.5 -91t-106.5 -18q54 -57 166 -57q44 0 80 11.5t62 30.5t47.5 50t36 64.5t27.5 79.5t22.5 88.5t20.5 97.5l9 45l8 41q-112 -201 -315 -201q-111 0 -167 54t-57.5 147t27.5 217
l66 262q28 110 28 156.5t-28 46.5q-92 0 -123 -287zM999 1100l-24 -21q-61 25 -126.5 70t-115.5 98q-53 -45 -147 -97t-154 -71l-18 23q39 81 118 163t156 136h139q47 -44 95.5 -129t76.5 -172z" />
    <glyph glyph-name="Ydieresis" unicode="&#x178;" horiz-adv-x="1718" 
d="M1425 1067q-153 -208 -385 -569l-26 -187q-10 -64 10.5 -90t93.5 -26h96q-12 -64 -28 -199q-272 4 -426 4l-428 -4q6 24 16 98.5t12 100.5h91q75 0 103 24.5t36 87.5l26 180q-96 286 -223 605q-29 70 -76 98.5t-143 28.5h-33q6 24 16.5 96t12.5 96q278 -4 436 -4l438 4
q-6 -24 -16 -95.5t-12 -96.5h-62q-142 0 -96 -175q32 -109 135 -356q175 257 230 356q22 42 32.5 71.5t10 54.5t-20 37t-59.5 12h-51q6 24 16 95.5t12 96.5q207 -4 324 -4l319 4q-6 -22 -16 -94t-12 -98h-41q-88 0 -147 -19t-91.5 -48t-73.5 -85zM1069 1671q-6 -57 -44 -90
t-91 -33t-85 33t-26 90q6 58 44 91.5t91 33.5t85 -33.5t26 -91.5zM1448 1671q-6 -57 -44.5 -90t-92.5 -33q-53 0 -85 33t-26 90q6 58 44 91.5t91 33.5t86 -33.5t27 -91.5z" />
    <glyph glyph-name="Zacute" unicode="&#x179;" horiz-adv-x="1370" 
d="M756 1530l-17 24q147 197 260 267q69 30 118 12t48.5 -72.5t-65.5 -93.5q-64 -42 -161 -79.5t-183 -57.5zM-25 0q26 133 29 184q314 335 907 1033h-229q-94 0 -152.5 -11.5t-101.5 -43t-66.5 -83.5t-39.5 -137l-17 -90q-90 8 -176 0q19 93 47 277t39 288q253 -10 434 -10
h772q-5 -26 -16 -93.5t-12 -88.5q-321 -349 -899 -1030h272q76 0 133.5 14.5t105.5 48.5t78.5 96.5t42.5 153.5l11 78q92 -8 180 0q-50 -263 -92 -594q-156 8 -398 8h-852z" />
    <glyph glyph-name="zacute" unicode="&#x17a;" horiz-adv-x="1007" 
d="M575 1079l-16 25q146 195 260 266q69 30 118 12t48.5 -72t-65.5 -93q-64 -42 -161.5 -80t-183.5 -58zM260 539l-67 4q-41 227 29.5 349t221.5 122q156 0 293 -131q56 -54 101.5 -76t93.5 -8q-34 11 -55 38t-21 62q0 49 23 75.5t63 26.5q44 0 67.5 -34t18.5 -90
q-4 -41 -24 -77t-66.5 -77t-98.5 -77t-145 -95q-11 -10 -71 -46.5t-147.5 -90.5t-145.5 -92q120 56 227 12q39 -17 58.5 -24t47.5 -13t58 -6q67 0 111.5 33t48.5 104l63 -6q19 -95 9 -179.5t-40.5 -148t-92.5 -100.5t-146 -37q-104 0 -179 31.5t-145 107.5q-110 119 -217 68
q34 -9 51 -38.5t17 -68.5q0 -44 -22 -71t-64 -27q-36 0 -61 28t-25 81q1 84 72 158t255 190q17 13 78 48t153.5 87t147.5 84q-32 -9 -61.5 -10t-58 6.5t-51 17t-52.5 25.5q-69 41 -125 41q-63 0 -95 -40t-32 -136z" />
    <glyph glyph-name="Zdotaccent" unicode="&#x17b;" horiz-adv-x="1370" 
d="M-25 0q26 133 29 184q314 335 907 1033h-229q-94 0 -152.5 -11.5t-101.5 -43t-66.5 -83.5t-39.5 -137l-17 -90q-90 8 -176 0q19 93 47 277t39 288q253 -10 434 -10h772q-5 -26 -16 -93.5t-12 -88.5q-321 -349 -899 -1030h272q76 0 133.5 14.5t105.5 48.5t78.5 96.5
t42.5 153.5l11 78q92 -8 180 0q-50 -263 -92 -594q-156 8 -398 8h-852zM961 1686q-3 -56 -41.5 -95t-98.5 -39t-94 39t-31 95q3 58 42.5 95.5t95.5 37.5q60 0 95 -37t32 -96z" />
    <glyph glyph-name="zdotaccent" unicode="&#x17c;" horiz-adv-x="1007" 
d="M260 539l-67 4q-41 227 29.5 349t221.5 122q156 0 293 -131q56 -54 101.5 -76t93.5 -8q-34 11 -55 38t-21 62q0 49 23 75.5t63 26.5q44 0 67.5 -34t18.5 -90q-4 -41 -24 -77t-66.5 -77t-98.5 -77t-145 -95q-11 -10 -71 -46.5t-147.5 -90.5t-145.5 -92q120 56 227 12
q39 -17 58.5 -24t47.5 -13t58 -6q67 0 111.5 33t48.5 104l63 -6q19 -95 9 -179.5t-40.5 -148t-92.5 -100.5t-146 -37q-104 0 -179 31.5t-145 107.5q-110 119 -217 68q34 -9 51 -38.5t17 -68.5q0 -44 -22 -71t-64 -27q-36 0 -61 28t-25 81q1 84 72 158t255 190q17 13 78 48
t153.5 87t147.5 84q-32 -9 -61.5 -10t-58 6.5t-51 17t-52.5 25.5q-69 41 -125 41q-63 0 -95 -40t-32 -136zM772 1235q-3 -56 -41 -94.5t-98 -38.5t-94 38.5t-31 94.5q3 58 42 95.5t95 37.5q60 0 95 -37t32 -96z" />
    <glyph glyph-name="Zcaron" unicode="&#x17d;" horiz-adv-x="1370" 
d="M569 1841l25 23q58 -25 129.5 -76t124.5 -102q59 50 146 104t143 72l18 -21q-41 -84 -115 -167.5t-145 -133.5h-141q-52 50 -105.5 134t-79.5 167zM-25 0q26 133 29 184q314 335 907 1033h-229q-94 0 -152.5 -11.5t-101.5 -43t-66.5 -83.5t-39.5 -137l-17 -90
q-90 8 -176 0q19 93 47 277t39 288q253 -10 434 -10h772q-5 -26 -16 -93.5t-12 -88.5q-321 -349 -899 -1030h272q76 0 133.5 14.5t105.5 48.5t78.5 96.5t42.5 153.5l11 78q92 -8 180 0q-50 -263 -92 -594q-156 8 -398 8h-852z" />
    <glyph glyph-name="zcaron" unicode="&#x17e;" horiz-adv-x="1007" 
d="M365 1391l24 22q58 -25 129.5 -76t124.5 -102q59 50 146 104t143 72l18 -20q-41 -84 -115 -167.5t-145 -133.5h-141q-51 50 -104.5 134t-79.5 167zM260 539l-67 4q-41 227 29.5 349t221.5 122q156 0 293 -131q56 -54 101.5 -76t93.5 -8q-34 11 -55 38t-21 62
q0 49 23 75.5t63 26.5q44 0 67.5 -34t18.5 -90q-4 -41 -24 -77t-66.5 -77t-98.5 -77t-145 -95q-11 -10 -71 -46.5t-147.5 -90.5t-145.5 -92q120 56 227 12q39 -17 58.5 -24t47.5 -13t58 -6q67 0 111.5 33t48.5 104l63 -6q19 -95 9 -179.5t-40.5 -148t-92.5 -100.5t-146 -37
q-104 0 -179 31.5t-145 107.5q-110 119 -217 68q34 -9 51 -38.5t17 -68.5q0 -44 -22 -71t-64 -27q-36 0 -61 28t-25 81q1 84 72 158t255 190q17 13 78 48t153.5 87t147.5 84q-32 -9 -61.5 -10t-58 6.5t-51 17t-52.5 25.5q-69 41 -125 41q-63 0 -95 -40t-32 -136z" />
    <glyph glyph-name="longs" unicode="&#x17f;" horiz-adv-x="770" 
d="M799 1354q-71 0 -121 -56.5t-89 -188.5t-69 -357q-44 -320 -107 -547t-146 -362.5t-180 -197t-218 -61.5q-116 0 -172 54t-37 133q10 49 45 76.5t86 27.5q54 0 82 -33t16 -84q-10 -43 -49 -64t-86 -16q21 -18 68 -18q35 0 63.5 9.5t52.5 34t43 53.5t36.5 81t30.5 102.5
t28 132.5t27 156t28 187q26 180 65 330t83 255t97 186.5t104.5 130.5t107.5 80t103 42.5t95 11.5q122 0 182.5 -64.5t47.5 -162.5q-12 -86 -57.5 -130t-114.5 -44q-63 0 -99 36t-26 95q11 59 62.5 90t127.5 10q-12 34 -42 53t-68 19z" />
    <glyph glyph-name="florin" unicode="&#x192;" horiz-adv-x="1099" 
d="M258 666l21 127l131 -5q14 144 52 259t90 189.5t119.5 124t136.5 70.5t144 21q82 0 138.5 -20t83 -55t35 -76t1.5 -89q-11 -69 -53.5 -110t-114.5 -41q-66 0 -95 28t-23 80q7 53 48.5 83t100.5 30q5 0 15.5 -1t15.5 -1q-32 49 -100 49q-42 0 -74 -11t-64.5 -45t-55 -92.5
t-39 -157.5t-21.5 -235l174 7l-21 -129l-158 4q-11 -180 -48.5 -321.5t-91.5 -233t-126 -151t-147.5 -84.5t-161.5 -25q-137 0 -199.5 60t-46.5 157q11 69 56.5 111t115.5 42q60 0 90.5 -30t22.5 -78t-46.5 -76.5t-99.5 -28.5q-10 0 -34 4q34 -49 114 -49q42 0 73 11
t60 39.5t49.5 79t37 128t26.5 188t14 257.5z" />
    <glyph glyph-name="uni01B5" unicode="&#x1b5;" horiz-adv-x="1370" 
d="M-25 0q26 133 29 184q152 161 363 402q-105 -6 -158 -6v112q24 0 242 -12q173 198 460 537h-229q-94 0 -152.5 -11.5t-101.5 -43t-66.5 -83.5t-39.5 -137l-17 -90q-90 8 -176 0q19 93 47 277t39 288q253 -10 434 -10h772q-5 -26 -16 -93.5t-12 -88.5q-176 -187 -480 -541
l154 8v-112q-41 0 -233 12q-73 -84 -340 -397h272q76 0 133.5 14.5t105.5 48.5t78.5 96.5t42.5 153.5l11 78q92 -8 180 0q-50 -263 -92 -594q-156 8 -398 8h-852z" />
    <glyph glyph-name="uni01B6" unicode="&#x1b6;" horiz-adv-x="1007" 
d="M260 539l-67 4q-41 227 29.5 349t221.5 122q156 0 293 -131q56 -54 101.5 -76t93.5 -8q-34 11 -55 38t-21 62q0 49 23 75.5t63 26.5q44 0 67.5 -34t18.5 -90q-4 -41 -24 -77t-66.5 -77t-98.5 -77t-145 -95q-6 -5 -78 -51q168 41 203 47l10 -66q-100 -17 -299 -32
q-146 -91 -200 -127q120 56 227 12q39 -17 58.5 -24t47.5 -13t58 -6q67 0 111.5 33t48.5 104l63 -6q19 -95 9 -179.5t-40.5 -148t-92.5 -100.5t-146 -37q-104 0 -179 31.5t-145 107.5q-110 119 -217 68q34 -9 51 -38.5t17 -68.5q0 -44 -22 -71t-64 -27q-36 0 -61 28t-25 81
q1 82 69 155t242 183q-141 -35 -180 -41l-10 65l280 31q216 122 305 174q-32 -9 -61.5 -10t-58 6.5t-51 17t-52.5 25.5q-69 41 -125 41q-63 0 -95 -40t-32 -136z" />
    <glyph glyph-name="uni01FA" unicode="&#x1fa;" horiz-adv-x="1804" 
d="M1024 436q-201 6 -487 2l-25 -51q-47 -98 -33 -145t96 -47h76q-16 -81 -30 -199q-205 4 -322 4l-326 -4q21 114 31 199h51q84 0 134.5 40t105.5 140q104 189 280.5 526t270.5 526q122 -4 190 -4l189 4q38 -185 118 -522t132 -530q27 -103 62 -141.5t97 -38.5h66
q-14 -57 -31 -199q-274 4 -428 4l-428 -4q21 113 31 199h82q73 0 97 47.5t9 146.5q-1 4 -2.5 13t-3 17.5t-2.5 16.5zM594 551q208 -3 405 0q-81 386 -120 553q-21 -40 -128.5 -247.5t-156.5 -305.5zM969 1948l-17 24q146 195 260 266q69 30 118 12t48.5 -72t-65.5 -93
q-64 -42 -161 -79.5t-183 -57.5zM961 1724q-4 -49 18 -74.5t65 -25.5q44 0 72.5 26t34.5 74q4 49 -18.5 76t-65.5 27t-71.5 -27t-34.5 -76zM870 1724q9 83 63.5 134t139.5 51q82 0 128.5 -51.5t37.5 -133.5q-9 -83 -63 -133.5t-138 -50.5q-82 0 -129.5 51.5t-38.5 132.5z
" />
    <glyph glyph-name="aringacute" unicode="&#x1fb;" horiz-adv-x="1179" 
d="M1163 383q-18 -196 -105 -311t-229 -115q-114 0 -163.5 53t-42.5 174q-53 -112 -136.5 -169.5t-185.5 -57.5q-132 0 -195.5 102t-35.5 322q20 154 68 273.5t112.5 191t137.5 107.5t151 36q211 0 239 -188q97 89 131 151q23 -2 88 -2t88 2q-28 -120 -69.5 -324t-59.5 -319
q-17 -114 -14 -159.5t29 -45.5q36 0 65 77t47 206zM459 106q66 0 126.5 113.5t100.5 337.5q19 104 21 163.5t-16 89.5t-60 30q-138 0 -217 -455q-20 -112 -21.5 -171.5t14 -83.5t52.5 -24zM668 1518l-17 24q146 195 260 266q69 30 118 12t48.5 -72t-65.5 -93
q-64 -42 -161 -79.5t-183 -57.5zM635 1257q-4 -49 18 -74.5t66 -25.5t72 25.5t34 74.5q4 49 -18.5 76t-65.5 27t-71.5 -27t-34.5 -76zM545 1257q9 83 63.5 134t139.5 51q82 0 128 -51.5t37 -133.5q-9 -83 -62.5 -133.5t-137.5 -50.5q-82 0 -129.5 51.5t-38.5 132.5z" />
    <glyph glyph-name="AEacute" unicode="&#x1fc;" horiz-adv-x="2226" 
d="M1473 1499l-17 25q146 195 260 266q69 30 118 12t48.5 -72.5t-65.5 -93.5q-64 -42 -161 -79.5t-183 -57.5zM2173 559q-45 -174 -96 -567q-94 8 -435 8q-489 2 -565 2l-366 -4q6 24 17 98.5t13 98.5h64q67 0 99.5 32.5t45.5 100.5l21 110q-184 3 -365 0q-21 -30 -33 -51
q-119 -192 27 -192h62q-6 -24 -19 -98.5t-14 -98.5q-211 6 -330 6l-328 -6q6 26 19 100.5t14 96.5h51q84 0 146 41t139 139q351 445 545 715q42 57 29.5 97t-80.5 40h-39q7 30 18 95.5t14 98.5q113 -12 488 -12h514q353 0 467 14q-25 -99 -52 -258t-40 -272q-29 1 -97.5 0.5
t-97.5 -2.5l4 24q11 66 13 113.5t-7.5 81t-25 54t-46 31.5t-65 15t-86.5 4h-211q-63 0 -92 -25.5t-43 -88.5q-15 -73 -57 -324h84q97 0 142.5 45.5t63.5 149.5l9 55h155q-40 -166 -63 -313q-24 -149 -31 -318h-156l9 49q16 106 -16 155.5t-134 49.5h-84q-42 -263 -47 -330
q-12 -124 105 -124h204q164 0 231 70.5t95 273.5l2 20q28 -1 105.5 -1t105.5 1zM686 555q211 0 305 2q58 343 76 518q-197 -254 -381 -520z" />
    <glyph glyph-name="aeacute" unicode="&#x1fd;" horiz-adv-x="1574" 
d="M821 1079l-16 25q146 195 260 266q69 30 118 12t48 -72t-66 -93q-64 -42 -161 -80t-183 -58zM1296 346q6 0 49.5 -3.5t78.5 -5.5t51 -1q-19 -90 -51 -156.5t-83.5 -118t-130 -78t-182.5 -26.5q-171 0 -260 67t-104 209q-56 -134 -151.5 -205t-209.5 -71
q-132 0 -197.5 102t-37.5 322q20 154 68 273.5t112.5 191t137.5 107.5t151 36q239 0 243 -235q146 235 430 235q180 0 256 -84t54 -223q-13 -82 -60.5 -138t-122 -82.5t-153.5 -36t-178 -7.5q-28 -155 -6 -219t100 -64q75 0 122.5 47t73.5 164zM457 106q66 0 126.5 113.5
t100.5 337.5q19 104 21 163.5t-16 89.5t-60 30q-66 0 -118.5 -105t-98.5 -350q-20 -112 -21.5 -171.5t14 -83.5t52.5 -24zM1198 862q-40 0 -65 -26.5t-52 -106.5t-63 -244q69 1 108 13.5t68.5 51.5t46.5 114q21 80 11.5 139t-54.5 59z" />
    <glyph glyph-name="Oslashacute" unicode="&#x1fe;" horiz-adv-x="1626" 
d="M721 -51q-234 0 -385 92l-127 -127l-49 39l100 145q-216 197 -156 611q29 189 103.5 332.5t185.5 233t250.5 134.5t304.5 45q222 0 371 -76l127 131l45 -36l-96 -142q233 -181 168 -620q-23 -155 -77.5 -281t-132.5 -215t-178.5 -149t-214 -88.5t-239.5 -28.5zM750 158
q168 0 256 127.5t133 425.5q31 221 18 327l-309 -350l-313 -405q26 -66 78 -95.5t137 -29.5zM530 709q-29 -189 -20 -312l305 348l311 402q-28 53 -78.5 75.5t-127.5 22.5q-163 0 -255 -121t-135 -415zM895 1530l-16 24q147 197 260 267q69 30 118 12t48 -72.5t-66 -93.5
q-64 -42 -161 -79.5t-183 -57.5z" />
    <glyph glyph-name="oslashacute" unicode="&#x1ff;" horiz-adv-x="1050" 
d="M442 -43q-117 0 -198 37l-90 -113l-31 23l65 119q-164 114 -131 401q19 159 88.5 285.5t189.5 203t271 76.5q123 0 205 -39l94 113l27 -19l-66 -124q147 -110 127 -367q-10 -122 -49.5 -228t-106.5 -189t-169 -131t-226 -48zM385 365q-9 -58 -10 -74l151 213l152 244
q-1 57 -20 78.5t-58 21.5q-142 0 -215 -483zM573 1079l-16 25q146 195 260 266q69 30 118 12t48.5 -72t-65.5 -93q-64 -42 -161.5 -80t-183.5 -58zM451 98q70 0 128.5 143.5t92.5 393.5l-121 -166l-176 -281q8 -90 76 -90z" />
    <glyph glyph-name="Scommaaccent" unicode="&#x218;" horiz-adv-x="1396" 
d="M541 -348q-46 0 -69.5 29.5t-20.5 85.5q3 55 40.5 89.5t98.5 34.5q66 0 96 -42.5t25 -114.5q-9 -114 -97 -192t-225 -105l-8 41q115 24 180.5 82t79.5 143q-26 -51 -100 -51zM774 1278q-287 0 -311 -158q-14 -89 55 -129t268 -57q150 -9 258 -53t168.5 -116.5t80.5 -169
t1 -214.5q-30 -196 -189 -312t-419 -116q-116 0 -227 27t-185 71q-98 57 -124 -53q-28 3 -87.5 3t-87.5 -3q40 92 68.5 226t36.5 253q25 -3 82 -3t80 3q-6 -166 99 -250t335 -84q296 0 317 168q11 95 -60.5 139.5t-270.5 61.5q-269 17 -399 157t-93 367q23 141 106.5 237.5
t208.5 140t285 40.5q173 -2 340 -84q46 -28 77.5 -18t47.5 71q26 -3 81 -3t81 3q-44 -101 -65 -203.5t-27 -236.5q-25 1 -77 1t-75 -1q-5 135 -104.5 215t-274.5 80z" />
    <glyph glyph-name="scommaaccent" unicode="&#x219;" horiz-adv-x="901" 
d="M328 -348q-46 0 -69.5 29.5t-20.5 85.5q3 55 40.5 89.5t98.5 34.5q66 0 96 -42.5t25 -114.5q-9 -114 -97 -192t-225 -105l-8 41q115 24 180.5 82t79.5 143q-26 -51 -100 -51zM604 905q-87 0 -138.5 -25t-66.5 -65q-23 -64 13 -109t155 -83q340 -109 240 -412
q-40 -121 -153.5 -187.5t-284.5 -66.5q-187 0 -284 65t-71 177q11 47 48 75.5t90 28.5q59 0 88 -37t14 -92q-11 -40 -46.5 -61t-76.5 -19q65 -47 186 -47q87 0 144.5 27t70.5 82q15 61 -20 106t-150 84q-317 109 -225 391q36 109 148 180.5t278 71.5q169 0 256.5 -64
t65.5 -165q-11 -46 -45 -71t-86 -25q-59 0 -88.5 34t-14.5 86q19 76 105 84q-66 37 -152 37z" />
    <glyph glyph-name="uni021A" unicode="&#x21a;" horiz-adv-x="1503" 
d="M578 -348q-46 0 -70 29.5t-21 85.5q3 55 41 89.5t99 34.5q66 0 96 -42.5t25 -114.5q-9 -114 -97 -192t-225 -105l-8 41q115 24 180.5 82t79.5 143q-26 -51 -100 -51zM1161 1200h-133q-123 -727 -135 -895q-5 -54 20 -82t91 -28h81q-7 -28 -28 -199q-255 4 -398 4l-399 -4
q6 24 16.5 99t12.5 100h80q68 0 100.5 25t46.5 85q46 193 137 895h-127q-81 0 -125 -46.5t-65 -143.5l-35 -160q-94 7 -199 0q19 105 43 284.5t33 282.5q205 -10 379 -10h635q96 0 170 2t131 4.5t76 3.5q-75 -388 -96 -567q-99 8 -197 0l18 160q9 93 -22 141.5t-111 48.5z
" />
    <glyph glyph-name="uni021B" unicode="&#x21b;" horiz-adv-x="745" 
d="M580 387l79 -4q-9 -131 -45 -223.5t-109.5 -147.5t-180.5 -55q-155 0 -208.5 87.5t-27.5 248.5q10 61 53.5 268t57.5 289l-82 -2l10 104q76 0 133.5 15t96 39.5t69.5 69.5t50.5 90t43.5 116h107q-10 -37 -35.5 -154t-36.5 -180l188 4l-14 -104l-192 2l-91 -496
q-24 -140 -19 -194t46 -54q35 0 66 76t41 205zM244 -348q-46 0 -69.5 29.5t-20.5 85.5q3 55 40.5 89.5t98.5 34.5q66 0 96 -42.5t25 -114.5q-9 -114 -97 -192t-225 -105l-8 41q115 24 180.5 82t79.5 143q-26 -51 -100 -51z" />
    <glyph glyph-name="uni0237" unicode="&#x237;" horiz-adv-x="626" 
d="M543 606l-105 -545q-51 -259 -178 -368t-346 -109q-129 0 -193.5 50.5t-52.5 134.5q9 59 47.5 92t96.5 33q59 0 85.5 -32.5t18.5 -84.5q-8 -53 -55.5 -75.5t-100.5 -12.5q30 -35 99 -35q43 0 76.5 11.5t59 40t44 62t36 93t29.5 116t29 146.5l96 514q10 48 15 81t6.5 63
t-4.5 44.5t-19 14.5q-45 0 -77 -79t-46 -208l-79 4q22 195 103.5 313.5t223.5 118.5q268 0 191 -383z" />
    <glyph glyph-name="circumflex" unicode="&#x2c6;" horiz-adv-x="1089" 
d="M819 1120l-24 -20q-61 25 -126.5 70t-115.5 98q-53 -45 -147 -97t-154 -71l-19 22q39 81 118 163t157 136h139q47 -44 95.5 -129t76.5 -172z" />
    <glyph glyph-name="caron" unicode="&#x2c7;" horiz-adv-x="1089" 
d="M246 1411l24 23q58 -25 129.5 -76t124.5 -103q59 50 146 104.5t143 72.5l18 -21q-41 -84 -115 -167.5t-145 -133.5h-141q-51 50 -104.5 134t-79.5 167z" />
    <glyph glyph-name="breve" unicode="&#x2d8;" horiz-adv-x="1089" 
d="M502 1116q-149 0 -202 83t-17 214l49 4q-3 -70 43 -97.5t151 -27.5t158 27.5t68 97.5l51 -4q0 -131 -76 -214t-225 -83z" />
    </font>
</defs>
</svg>
