<?xml version="1.0" standalone="no"?>
<!DOCTYPE svg PUBLIC "-//W3C//DTD SVG 1.1//EN" "http://www.w3.org/Graphics/SVG/1.1/DTD/svg11.dtd" >
<svg xmlns="http://www.w3.org/2000/svg" xmlns:xlink="http://www.w3.org/1999/xlink" version="1.1">
<metadata>
Created by FontForge 20170731 at Wed Sep  8 12:09:13 2021
 By Aleksey,,,
(C)2010 House Industries/Brand Design Co., Inc. All Rights Reserved.
</metadata>
<defs>
<font id="EamesCenturyModern-Regular" horiz-adv-x="1228" >
  <font-face 
    font-family="Eames Century Modern Regular"
    font-weight="400"
    font-stretch="normal"
    units-per-em="2048"
    panose-1="2 0 5 3 7 7 5 2 2 3"
    ascent="1679"
    descent="-369"
    x-height="932"
    cap-height="1413"
    bbox="-449 -573 2204 2230.67"
    underline-thickness="102"
    underline-position="-307"
    unicode-range="U+0020-FB04"
  />
<missing-glyph horiz-adv-x="1024" 
 />
    <glyph glyph-name="f_f" unicode="ff" horiz-adv-x="1370" 
d="M1251 84v-88q-2 0 -51 1t-116 2t-111 1q-28 0 -66.5 -0.5t-74 -1t-67 -1t-52 -1t-21.5 -0.5v88h103q85 0 88 94q2 96 2 678l-479 -2q0 -602 2 -676q3 -94 104 -94h90v-88q-2 0 -51 1t-116 2t-111 1t-112 -1t-118 -2t-51 -1v88h102q39 0 62.5 25.5t25.5 68.5q4 147 0 674
l-174 -4v84l174 -4v61q-5 432 326 432q52 0 93 -12.5t65.5 -32t40.5 -46t22 -51.5t6 -52q0 -62 -30 -96.5t-86 -34.5q-51 0 -80 26.5t-29 71.5q0 49 29 76.5t80 27.5q15 0 35 -4q-50 64 -136 64q-101 0 -139 -82.5t-29 -267.5l5 -82h477v63q-2 94 14.5 168t47 123.5t76.5 81
t99.5 45.5t118.5 14q121 0 189.5 -61.5t68.5 -145.5q0 -56 -31 -87t-86 -31q-50 0 -79 27.5t-29 74.5q0 46 28 73t80 27q15 0 21 -2q-52 62 -139 62q-108 0 -156 -71.5t-49 -254.5v-104l190 4v-84l-190 6v-676q2 -48 20 -71t70 -23h104z" />
    <glyph glyph-name="f_i" unicode="fi" horiz-adv-x="1292" 
d="M59 932l174 -6v26q-2 228 112 348.5t339 120.5q144 0 228.5 -58.5t84.5 -150.5q0 -56 -34.5 -86t-83.5 -30q-53 0 -82 28.5t-29 75.5q0 45 30.5 71.5t80.5 26.5h6q-73 58 -201 58q-139 0 -207.5 -82.5t-68.5 -276.5v-67q551 0 655 8q-1 -69 -1 -365.5t1 -371.5
q1 -74 24.5 -95.5t90.5 -21.5h67v-88q-172 4 -268 4l-272 -4v88h73q63 0 85.5 22t25.5 89q1 72 1 280.5t-1 261.5q-3 63 -24 87.5t-70 27.5q-123 6 -389 2q-1 -130 -0.5 -381.5t2.5 -294.5q2 -25 5.5 -39.5t13.5 -28.5t31 -20t54 -6h90v-88q-178 4 -278 4l-281 -4v88h102
q85 0 88 94q1 37 1 272t-1 402l-174 -4v84z" />
    <glyph glyph-name="f_l" unicode="fl" horiz-adv-x="1294" 
d="M1063 1419v-1198q2 -83 26 -110t99 -27h59v-88q-174 4 -270 4l-275 -4v88h66q76 1 97 27t24 108q1 80 1 489.5t-1 479.5q-3 81 -24.5 111t-100.5 30h-49q26 -45 26 -104q0 -64 -31 -96.5t-89 -32.5q-49 0 -77 28.5t-28 75.5q0 45 30.5 71.5t80.5 26.5q17 0 37 -4
q-47 64 -123 64q-91 0 -123 -80t-17 -256l5 -96l192 6v-84l-192 4q0 -590 2 -672q3 -94 104 -94h90v-90q-178 4 -278 4l-281 -4v90h102q39 0 62.5 25.5t25.5 68.5q4 143 0 672l-174 -4v84l174 -6v84q-1 114 18.5 195t60 127.5t93.5 67.5t125 21q121 0 177 -78v70
q280 0 356 6z" />
    <glyph glyph-name="f_f_i" unicode="ffi" horiz-adv-x="1933" 
d="M1251 84v-88q-178 4 -278 4l-281 -4v88h103q81 0 88 94q4 110 0 676h-477q0 -602 2 -676q3 -94 104 -94h90v-88q-178 4 -278 4l-281 -4v88h102q39 0 62.5 25.5t25.5 68.5q4 141 0 674l-174 -4v84l174 -6v51q-1 126 21.5 215t67.5 137.5t100.5 70t128.5 21.5q65 0 113 -18
t73.5 -48.5t37 -63t11.5 -68.5q0 -61 -30 -94t-86 -33q-52 0 -80.5 28t-28.5 74q0 47 29.5 73.5t77.5 26.5q15 0 39 -4q-57 64 -146 64q-104 0 -139 -85t-21 -284l5 -65h475v41q-2 213 114 334.5t338 121.5q143 0 226 -58t83 -149q0 -59 -32 -88.5t-84 -29.5q-51 0 -80 28.5
t-29 75.5q0 45 31 71.5t82 26.5h4q-75 60 -201 60q-138 0 -207 -79.5t-69 -270.5v-78q546 0 647 8q-2 -69 -2 -365.5t2 -371.5q3 -74 26 -95.5t89 -21.5h67v-88q-172 4 -268 4l-270 -4v88h71q64 0 87 22t24 89q3 72 3 273t-3 269q-1 62 -23 87t-71 28q-41 2 -381 2
q-1 -144 -0.5 -388.5t2.5 -287.5q2 -48 22.5 -71t81.5 -23h90z" />
    <glyph glyph-name="f_f_l" unicode="ffl" horiz-adv-x="1935" 
d="M59 932l174 -6v51q-1 126 22.5 215t69.5 137.5t102.5 70t129.5 21.5q65 0 112 -18t71 -48.5t35 -61.5t11 -64q0 -133 -118 -133q-50 0 -78.5 28t-28.5 74t29 73t82 27q13 0 33 -4q-54 64 -138 64q-105 0 -142.5 -86t-23.5 -283l5 -65h477v86q-3 223 74.5 317t222.5 94
q110 0 168 -65v57q276 0 356 6q-2 -1087 0 -1198q3 -84 27.5 -110.5t99.5 -26.5h57v-88q-174 4 -270 4l-272 -4v88h65q75 1 96 27t23 108q3 80 3 489.5t-3 479.5q-1 41 -4.5 63.5t-16 42.5t-37 27.5t-65.5 7.5h-41q25 -46 25 -100q0 -133 -117 -133q-53 0 -81 29t-28 75
t31 72t78 26q19 0 39 -4q-47 64 -123 64q-88 0 -121 -78.5t-18 -257.5l4 -96l192 6v-84l-192 6q0 -592 2 -674q3 -94 104 -94h90v-90q-178 4 -278 4l-281 -4v90h103q38 0 61.5 25.5t26.5 68.5q4 143 0 676l-477 -2q0 -602 2 -676q3 -94 104 -94h90v-88q-178 4 -278 4
l-281 -4v88h102q39 0 62.5 25.5t25.5 68.5q4 154 0 674l-174 -4v84z" />
    <glyph glyph-name="f_j" unicode="fj" horiz-adv-x="1216" 
d="M59 932l174 -6v26q-2 228 112.5 348.5t338.5 120.5q144 0 228.5 -58.5t84.5 -150.5q0 -56 -36 -86t-82 -30q-51 0 -81 29.5t-30 76.5q0 45 31 73t75 28h7q-71 53 -197 53q-139 0 -207.5 -82.5t-68.5 -276.5v-65q579 0 657 6q-3 -82 -3 -435t3 -507q1 -207 -81.5 -304.5
t-231.5 -97.5q-122 0 -183 52t-61 125q0 60 36 90t83 30q110 0 110 -102q0 -39 -28.5 -73.5t-79.5 -37.5q41 -18 94 -18q31 0 54 6t45 24.5t36 49.5t22.5 84t8.5 125q0 31 1 222.5t1 352.5t-2 219q-2 52 -25.5 78.5t-79.5 26.5h-378q0 -619 2 -670q2 -25 5.5 -39.5
t13.5 -28.5t31 -20t54 -6h90v-88q-178 4 -278 4l-281 -4v88h102q85 0 88 94q1 37 1 272t-1 402l-174 -4v84z" />
    <glyph glyph-name="f_t" unicode="ft" horiz-adv-x="1421" 
d="M1292 289l68 -4q8 -152 -39 -236t-176 -84q-142 0 -203 79.5t-59 244.5q1 54 1 167t-0.5 242.5t-0.5 153.5h-477q0 -590 2 -672q3 -94 104 -94h90v-90q-178 4 -278 4l-281 -4v90h102q39 0 62.5 25.5t25.5 68.5q4 143 0 670l-174 -2v84l174 -6v84q-1 114 18.5 195
t60 127.5t93.5 67.5t125 21q60 0 104.5 -18t67.5 -48.5t33 -61.5t10 -64q0 -133 -118 -133q-50 0 -79.5 28.5t-29.5 73.5q0 46 29.5 73t81.5 27q17 0 37 -4q-47 64 -125 64q-90 0 -120.5 -74.5t-19.5 -251.5l7 -108h256q96 0 152.5 14t98 57.5t62 117t33.5 198.5h75
q-20 -192 -20 -387l252 12v-88l-254 2q0 -78 1 -292.5t1 -260.5q0 -138 23 -187t83 -49q71 0 98 49.5t23 178.5z" />
    <glyph glyph-name="t_t" unicode="tt" horiz-adv-x="1351" 
d="M1227 289l67 -4q4 -74 -3.5 -128.5t-30 -99.5t-68 -68.5t-113.5 -23.5q-142 0 -203 79.5t-59 244.5q1 86 1 278.5t-1 284.5h-473q0 -79 1 -294.5t1 -260.5q0 -138 23.5 -187t83.5 -49q71 0 97.5 49.5t22.5 178.5l68 -4q4 -74 -3.5 -128.5t-30 -99.5t-68 -68.5
t-113.5 -23.5q-142 0 -203 79.5t-59 244.5v561h-135v68q132 10 186.5 96.5t75.5 296.5h76q-21 -206 -21 -393l311 4q54 0 95.5 11t71 34.5t50 53t34.5 76.5t22.5 95.5t15.5 118.5h74q-16 -156 -21 -387l252 12v-88l-254 2q0 -451 2 -553q1 -139 24 -187.5t83 -48.5
q72 0 99.5 50t21.5 178z" />
    <glyph glyph-name=".notdef" horiz-adv-x="1024" 
 />
    <glyph glyph-name=".null" horiz-adv-x="0" 
 />
    <glyph glyph-name="nonmarkingreturn" horiz-adv-x="682" 
 />
    <glyph glyph-name="space" unicode=" " horiz-adv-x="471" 
 />
    <glyph glyph-name="exclam" unicode="!" horiz-adv-x="481" 
d="M373 106q0 -62 -36.5 -95.5t-96.5 -33.5q-58 0 -94.5 33.5t-36.5 95.5q0 60 37 96t94 36q59 0 96 -36t37 -96zM260 416q0 -25 -24 -25q-25 0 -25 25q0 214 -19 365.5t-65 367.5q-33 156 0.5 229.5t108.5 73.5q76 0 110.5 -74t-2.5 -229q-48 -203 -66 -354.5t-18 -378.5z
" />
    <glyph glyph-name="quotedbl" unicode="&#x22;" horiz-adv-x="759" 
d="M248 907q0 -26 -23 -26q-20 0 -20 26v41v41.5t-0.5 37.5t-1 39t-2 35t-3.5 36.5t-5 33t-6.5 34t-9 30t-11.5 31.5q-30 80 -12.5 127t69.5 47q54 0 73 -47t-13 -127q-30 -69 -36 -165.5t1 -193.5zM555 907q0 -26 -23 -26q-20 0 -20 26v41v41.5t-0.5 37.5t-1 39t-2 35
t-3.5 36.5t-5 33t-6.5 34t-9 30t-11.5 31.5q-30 80 -12.5 127t69.5 47q54 0 73 -47t-13 -127q-30 -69 -36 -165.5t1 -193.5z" />
    <glyph glyph-name="numbersign" unicode="#" horiz-adv-x="1220" 
d="M311 0h-55q38 168 96 469q-53 0 -139 -1t-115 -1q1 3 7 30.5t6 30.5q132 -4 254 -4q36 182 65 353q-58 0 -149.5 -1.5t-122.5 -1.5q1 3 6.5 32t5.5 32q140 -4 270 -4q52 274 82 475h60q-34 -142 -101 -475h359q47 281 73 475h62q-25 -111 -94 -475q115 0 247 4
q0 -2 -6 -32t-6 -32q-30 0 -113 1.5t-133 1.5q-18 -91 -63 -353q116 0 242 4q0 -3 -6 -30.5t-7 -30.5q-28 0 -108.5 1t-128.5 1q-50 -276 -76 -469h-55q36 172 90 469q-53 1 -114.5 1t-137 -0.5t-115.5 -0.5q-55 -301 -80 -469zM469 877l-68 -353h367q4 26 27 156t34 197
h-360z" />
    <glyph glyph-name="dollar" unicode="$" horiz-adv-x="1179" 
d="M516 1612l-6 -232q77 7 137 -2l-4 234h82l-4 -242q146 -26 226.5 -97.5t80.5 -174.5q0 -55 -32.5 -88t-84.5 -33q-120 0 -120 106q0 43 31.5 73t84.5 30h2q-59 82 -190 110l-8 -477q216 -41 309.5 -134t93.5 -245q0 -164 -103 -270.5t-292 -134.5l6 -238h-82l4 232
q-66 -6 -135 0l4 -232h-82l4 240q-172 26 -271 105.5t-99 187.5q0 55 34.5 90t90.5 35q59 0 89.5 -29.5t30.5 -83.5q0 -42 -31.5 -69.5t-86.5 -28.5q64 -103 245 -131l11 534q-330 85 -330 357q0 139 87 235.5t230 128.5l-4 244h82zM985 360q0 89 -64 144t-210 92l8 -485
q125 23 195.5 90t70.5 159zM510 102q60 -7 137 0l10 506l-155 27zM502 858q67 -19 157 -29l-10 478q-62 9 -139 2zM246 1071q0 -72 43.5 -120t159.5 -81l-9 426q-97 -24 -145.5 -84t-48.5 -141z" />
    <glyph glyph-name="percent" unicode="%" 
d="M193 176q0 17 16 17t16 -17q0 -16 -16 -16t-16 16zM268 285q0 10 8 18t19 8q9 0 16.5 -8t7.5 -18t-7.5 -17.5t-16.5 -7.5q-11 0 -19 7.5t-8 17.5zM344 393q0 15 10.5 25t24.5 10q15 0 25 -10t10 -25q0 -14 -10 -24.5t-25 -10.5q-13 0 -24 11t-11 24zM422 504q0 15 13 27
t30 12t29 -12t12 -27q0 -19 -12 -31t-29 -12q-18 0 -30.5 12.5t-12.5 30.5zM504 610q0 20 13 33.5t32 13.5q20 0 33.5 -13.5t13.5 -33.5q0 -19 -13.5 -32t-33.5 -13q-19 0 -32 13t-13 32zM588 721q0 19 13.5 32t33.5 13t33.5 -13t13.5 -32q0 -20 -13.5 -33.5t-33.5 -13.5
t-33.5 13.5t-13.5 33.5zM674 829q0 19 13.5 32t33.5 13q19 0 32 -13t13 -32q0 -20 -13 -33.5t-32 -13.5q-20 0 -33.5 13.5t-13.5 33.5zM764 938q0 17 12 29t29 12t30 -12t13 -29t-13 -29t-30 -12t-29 12t-12 29zM856 1047q0 14 10 24t25 10q14 0 24.5 -10.5t10.5 -23.5
q0 -15 -10.5 -25t-24.5 -10q-15 0 -25 10t-10 25zM950 1155q0 10 8 17.5t17 7.5q11 0 18.5 -7.5t7.5 -17.5q0 -11 -8 -19t-18 -8q-9 0 -17 8.5t-8 18.5zM1044 1264q0 16 17 16q16 0 16 -16q0 -17 -16 -17q-17 0 -17 17zM860 -14q75 0 107 59t32 221q0 115 -16.5 178t-45 84
t-77.5 21q-71 0 -106 -61.5t-35 -221.5q0 -116 15.5 -177.5t44 -82t81.5 -20.5zM860 -59q-123 0 -192.5 80.5t-69.5 244.5q0 162 75 245t187 83q123 0 193.5 -81.5t70.5 -246.5q0 -160 -76 -242.5t-188 -82.5zM385 848q75 0 107 59t32 221q0 115 -16.5 178t-45 84t-77.5 21
q-71 0 -106 -61.5t-35 -221.5q0 -116 15.5 -177.5t44 -82t81.5 -20.5zM385 803q-123 0 -192.5 80.5t-69.5 244.5q0 161 75.5 244.5t186.5 83.5q123 0 193.5 -82t70.5 -246q0 -160 -76 -242.5t-188 -82.5z" />
    <glyph glyph-name="ampersand" unicode="&#x26;" horiz-adv-x="1503" 
d="M1487 262q-6 -60 -20.5 -104.5t-46 -87t-90 -65.5t-142.5 -23q-92 0 -163.5 22.5t-141.5 79.5q-146 -123 -367 -123q-197 0 -310.5 95t-113.5 259q0 147 95.5 248t240.5 146q-111 214 -111 381q0 170 90 257t259 87q147 0 227 -84.5t80 -210.5q0 -287 -330 -428
q35 -59 78 -123q134 -210 237 -338q110 120 127 301q4 45 -11 72.5t-64 27.5h-95v82q166 -6 254 -6l252 6v-82h-110q-57 0 -80 -24t-29 -64q-43 -220 -201 -362q70 -78 125 -105.5t119 -27.5q83 0 131.5 57.5t53.5 146.5zM559 61q151 0 268 70q-122 122 -286 383
q-47 72 -78 131q-90 -47 -140.5 -120t-50.5 -165q0 -143 83 -222t204 -77zM496 1124q0 -152 116 -362q119 59 165 146t46 222q0 114 -34.5 169t-122.5 55q-93 0 -131.5 -55t-38.5 -175z" />
    <glyph glyph-name="quotesingle" unicode="'" horiz-adv-x="454" 
d="M250 907q0 -26 -23 -26q-20 0 -20 26v41v41.5t-0.5 37.5t-1 39t-2 35t-3.5 36.5t-5 33t-6.5 34t-9 30t-11.5 31.5q-30 80 -12.5 127t69.5 47q54 0 73 -47t-13 -127q-30 -69 -36 -165.5t1 -193.5z" />
    <glyph glyph-name="parenleft" unicode="(" horiz-adv-x="552" 
d="M246 645q0 -405 49.5 -629.5t175.5 -404.5l-39 -31q-172 181 -265 435.5t-93 629.5q0 374 93 628t265 437l39 -33q-126 -179 -175.5 -403t-49.5 -629z" />
    <glyph glyph-name="parenright" unicode=")" horiz-adv-x="552" 
d="M299 645q0 405 -49.5 629t-175.5 403l41 33q171 -182 263.5 -436.5t92.5 -628.5q0 -256 -46.5 -462t-122 -345.5t-187.5 -257.5l-41 31q126 180 175.5 404.5t49.5 629.5z" />
    <glyph glyph-name="asterisk" unicode="*" horiz-adv-x="1024" 
d="M545 1237q-17 -51 -19 -135l33 -19q69 41 109 84q7 8 36.5 54t59.5 65q39 21 74 11.5t53 -40.5q19 -28 9 -67t-48 -60q-30 -17 -82.5 -17.5t-67.5 -4.5q-59 -13 -129 -53v-35q76 -45 127 -53q13 -2 67 -3t85 -18q38 -21 48.5 -59t-9.5 -68q-19 -30 -53 -39.5t-74 11.5
q-30 19 -58.5 63.5t-37.5 54.5q-39 39 -111 84l-31 -18q0 -79 21 -135q3 -8 27.5 -58t25.5 -84q1 -43 -25.5 -69.5t-62.5 -26.5t-62.5 26.5t-25.5 69.5q1 33 25 80.5t28 61.5q17 62 19 135l-31 18q-80 -50 -109 -84q-6 -7 -36 -53t-60 -65q-39 -22 -73 -12t-54 42
q-17 26 -7.5 65.5t46.5 59.5q31 17 83 18t67 5q59 13 129 53v35q-86 46 -127 53q-14 3 -67.5 3t-84.5 17q-38 21 -48 59t9 68q20 30 53.5 40t73.5 -11q30 -19 58.5 -64t37.5 -55q32 -37 111 -84l29 17q-2 86 -19 137q-4 11 -29 59.5t-26 81.5q-1 44 25.5 70.5t62.5 26.5
t63.5 -27t26.5 -70q-1 -33 -25.5 -79t-29.5 -62z" />
    <glyph glyph-name="plus" unicode="+" 
d="M666 53h-105q12 346 23 430q-95 -13 -426 -22v104q314 -9 426 -24q-14 106 -23 428h105q-8 -303 -25 -428q115 15 430 24v-104q-335 9 -430 22q14 -104 25 -430z" />
    <glyph glyph-name="comma" unicode="," horiz-adv-x="499" 
d="M41 -244q147 22 225 106t64 206q-22 -39 -82 -39q-44 0 -69 25t-25 73q0 47 31.5 79t82.5 32q60 0 94.5 -43.5t34.5 -131.5q0 -41 -8.5 -80.5t-32.5 -84.5t-61 -80.5t-100.5 -64.5t-145.5 -40z" />
    <glyph glyph-name="hyphen" unicode="-" horiz-adv-x="636" 
d="M53 453v120q263 -8 531 0v-120q-268 8 -531 0z" />
    <glyph glyph-name="period" unicode="." horiz-adv-x="483" 
d="M375 106q0 -62 -36.5 -95.5t-96.5 -33.5q-58 0 -95.5 33.5t-37.5 95.5q0 60 38 96t95 36q59 0 96 -36t37 -96z" />
    <glyph glyph-name="slash" unicode="/" horiz-adv-x="800" 
d="M182 -365q-22 3 -64.5 3t-64.5 -3q343 1057 565 1778q22 -3 65 -3t65 3q-352 -1078 -566 -1778z" />
    <glyph glyph-name="zero" unicode="0" horiz-adv-x="1226" 
d="M293 557q0 -153 22.5 -257t66.5 -160.5t99 -79.5t131 -23q59 0 106 15t88.5 51.5t69 95t43 149.5t15.5 211q0 150 -23 255t-68 162.5t-100.5 82t-130.5 24.5q-73 0 -129 -26t-100 -84.5t-67 -163t-23 -252.5zM96 555q0 281 140 441.5t376 160.5q246 0 382 -158.5
t136 -441.5q0 -147 -38 -261t-107 -186.5t-163 -109.5t-210 -37q-250 0 -383 149.5t-133 442.5z" />
    <glyph glyph-name="one" unicode="1" horiz-adv-x="829" 
d="M207 90q69 0 95 23t26 77v680q-48 -27 -115 -36t-121 2v79h64q143 0 196.5 58.5t67.5 204.5h94q-10 -152 -10 -289v-699q0 -54 26 -77t95 -23h123v-92q-213 6 -334 6l-334 -6v92h127z" />
    <glyph glyph-name="two" unicode="2" horiz-adv-x="1077" 
d="M952 383q22 -71 25 -152q3 -128 -61.5 -200.5t-188.5 -73.5q-42 -1 -79.5 7t-61.5 16t-62.5 33.5t-55.5 39t-67 53.5q-76 64 -147 64q-75 0 -100 -49l36 6q41 0 65 -23t24 -63q0 -37 -26.5 -58.5t-64.5 -21.5q-47 0 -74.5 34t-27.5 101q0 142 83.5 241t258.5 167
q179 69 250.5 147t71.5 191q0 110 -64.5 172.5t-193.5 62.5q-111 0 -200 -48t-108 -152q30 18 78 18q54 0 85.5 -30t31.5 -81q0 -50 -33.5 -79t-91.5 -29q-59 0 -95 40.5t-36 117.5q0 146 112.5 234.5t292.5 88.5q199 0 302.5 -83t103.5 -222q0 -164 -108.5 -259
t-356.5 -157q-142 -36 -218.5 -98.5t-98.5 -153.5q48 67 148.5 82.5t221.5 -28.5q65 -24 117.5 -38t107 -16.5t89 14t50.5 61.5t3 118z" />
    <glyph glyph-name="three" unicode="3" horiz-adv-x="1153" 
d="M991 805q0 -138 -76 -228t-210 -118q168 -15 264 -116t96 -251q0 -207 -144 -313.5t-386 -106.5q-202 0 -326.5 96t-124.5 236q0 85 43.5 129.5t108.5 44.5q59 0 91.5 -31.5t32.5 -87.5q0 -53 -36.5 -81.5t-90.5 -28.5q-47 0 -77 20q22 -108 122 -164.5t234 -56.5
q178 0 266 87.5t88 252.5q0 162 -85.5 241t-280.5 79h-58v77h58q168 3 238.5 77.5t70.5 242.5q0 128 -73 199t-199 71q-69 0 -130.5 -16.5t-116.5 -62t-73 -113.5q32 12 62 12q55 0 87.5 -29t32.5 -82q0 -51 -32 -79.5t-88 -28.5q-63 0 -99.5 36.5t-36.5 110.5
q0 139 115.5 236.5t308.5 97.5q196 0 310 -92t114 -260z" />
    <glyph glyph-name="four" unicode="4" horiz-adv-x="1142" 
d="M682 -86q0 16 1 96t1 133q-271 3 -606 -2v80l700 953h78q-4 -305 -4 -955l256 6v-90l-256 4q0 -131 4 -225q1 -51 24 -65.5t87 -14.5h102v-90q-186 6 -301 6l-315 -6v90h108q73 0 97 15.5t24 64.5zM684 217q0 294 -4 688l-514 -688q234 -3 518 0z" />
    <glyph glyph-name="five" unicode="5" horiz-adv-x="1132" 
d="M532 520q-105 0 -183 -35t-148 -90l-43 37q54 114 79.5 331t14.5 400q52 -19 152.5 -33t213.5 -14q250 0 390 70l34 -33q-44 -99 -149 -159t-266 -60q-179 0 -305 78q-3 -133 -21 -273.5t-47 -238.5q149 100 336 100q461 0 461 -457q0 -220 -149 -345.5t-390 -125.5
q-200 0 -314 95t-114 237q0 83 42 128.5t110 45.5q62 0 93 -31t31 -86q0 -53 -35 -82.5t-92 -29.5q-50 0 -81 24q21 -111 119 -168t241 -57q173 0 261.5 95t88.5 307q0 196 -82.5 283t-247.5 87z" />
    <glyph glyph-name="six" unicode="6" horiz-adv-x="1163" 
d="M643 1382q-189 0 -276.5 -157t-90.5 -506q53 82 149.5 130t211.5 48q218 0 327 -117.5t109 -320.5q0 -218 -134 -354t-351 -136q-114 0 -203 37.5t-156 117.5t-103 214.5t-36 318.5q0 160 27.5 291.5t77 224t118 156t149.5 93.5t173 30q94 0 168.5 -26.5t120 -70t69 -97
t23.5 -111.5q0 -77 -34.5 -117.5t-100.5 -40.5q-54 0 -86.5 30t-32.5 81q0 52 33 81t90 29q21 0 45 -8q-18 88 -93.5 134t-193.5 46zM283 449q0 -186 77.5 -294t243.5 -108q144 0 216.5 108t72.5 291q0 185 -72.5 279t-214.5 94q-154 0 -238.5 -90t-84.5 -280z" />
    <glyph glyph-name="seven" unicode="7" horiz-adv-x="1079" 
d="M170 1176l14 -115q68 104 215 104q64 0 121.5 -21t128.5 -71t121 -70t100 -20q77 0 105 41q-8 -2 -25 -2q-39 0 -63.5 21.5t-24.5 56.5q0 42 24.5 63t59.5 21q45 0 69 -30.5t23 -86.5q0 -116 -143 -266q-41 -43 -66.5 -70.5t-61 -71t-57 -78t-48 -85t-41 -99t-29 -112.5
t-19 -133t-3.5 -154t10 -180q6 -58 -26 -91.5t-85 -33.5q-61 0 -90 41t-29 139q-1 260 94 470.5t293 391.5q20 18 57.5 49.5t60.5 51t50 50t45 60.5q-90 -84 -248 -84q-77 -1 -138.5 15.5t-139.5 58.5q-77 41 -127 41q-65 0 -95 -47t-26 -152q-46 7 -88 0q24 180 -2 398
q44 -7 84 0z" />
    <glyph glyph-name="eight" unicode="8" horiz-adv-x="1167" 
d="M1018 1114q0 -202 -217 -338q155 -56 222 -149t67 -226q0 -207 -138.5 -319.5t-367.5 -112.5q-261 0 -380.5 90t-119.5 275q0 121 70.5 213.5t191.5 146.5q-186 112 -186 348q0 184 119.5 297t322.5 113q207 0 311.5 -93.5t104.5 -244.5zM553 618q-85 18 -150 48
q-206 -110 -206 -330q0 -132 97 -206.5t290 -74.5q180 0 284.5 74t104.5 195q0 76 -36.5 126.5t-127.5 91t-256 76.5zM602 1370q-161 0 -240 -74t-79 -186q0 -113 83.5 -182t284.5 -109q18 -3 48 -10.5l38 -9.5q172 133 172 315q0 112 -73.5 184t-233.5 72z" />
    <glyph glyph-name="nine" unicode="9" horiz-adv-x="1159" 
d="M496 -264q200 0 292 159t95 515q-50 -88 -146 -134.5t-217 -46.5q-218 0 -328 118t-110 321q0 220 137 354.5t356 134.5q111 0 198.5 -36.5t155.5 -115.5t105 -214.5t37 -321.5q0 -389 -151.5 -593t-415.5 -204q-193 0 -304.5 89.5t-111.5 220.5q0 73 38 116t103 43
q55 0 88 -29.5t33 -80.5t-33 -81t-90 -30q-39 0 -63 12q27 -98 115.5 -147t216.5 -49zM879 680q0 186 -79 292.5t-241 106.5q-150 0 -224.5 -108t-74.5 -291t76.5 -278t216.5 -95q153 0 239.5 89.5t86.5 283.5z" />
    <glyph glyph-name="colon" unicode=":" horiz-adv-x="534" 
d="M385 698q0 -52 -33 -82t-86 -30q-52 0 -84 29.5t-32 84.5q0 53 33.5 85t82.5 32q53 0 86 -32.5t33 -86.5zM385 205q0 -53 -33 -84t-86 -31q-51 0 -83.5 31t-32.5 86q0 51 33.5 83t82.5 32q53 0 86 -32.5t33 -84.5z" />
    <glyph glyph-name="semicolon" unicode=";" horiz-adv-x="534" 
d="M147 211q0 47 32 79t85 32q63 0 95 -44.5t32 -117.5q0 -126 -89.5 -226t-250.5 -139l-16 43q137 36 218 118t77 206q-22 -51 -90 -51q-44 0 -68.5 25.5t-24.5 74.5zM385 698q0 -52 -33 -82t-86 -30q-52 0 -84 29.5t-32 84.5q0 53 33.5 85t82.5 32q53 0 86 -32.5t33 -86.5
z" />
    <glyph glyph-name="less" unicode="&#x3c;" 
d="M279 483v54q110 72 294.5 199.5t278.5 197.5l61 -88q-84 -47 -301.5 -179t-259.5 -157q42 -25 259.5 -157t301.5 -179l-61 -88q-89 66 -277 196.5t-296 200.5z" />
    <glyph glyph-name="equal" unicode="=" 
d="M164 299q2 17 2 52t-2 52q451 -8 901 0q-4 -50 0 -104q-451 8 -901 0zM164 625q2 17 2 52t-2 52q450 -8 901 0q-1 -17 -1 -52t1 -52q-450 8 -901 0z" />
    <glyph glyph-name="greater" unicode="&#x3e;" 
d="M909 537v-54q-108 -70 -296 -200.5t-277 -196.5l-60 88q84 48 303.5 180.5t258.5 155.5q-39 23 -258.5 155.5t-303.5 180.5l60 88q100 -73 284.5 -201t288.5 -196z" />
    <glyph glyph-name="question" unicode="?" horiz-adv-x="1026" 
d="M729 557l31 -45q-53 -59 -125.5 -95t-145.5 -36q-60 0 -97.5 33t-37.5 88q0 56 38 94.5t130 85.5q59 31 100 63t75 78t50.5 109t16.5 145q0 131 -74 212t-225 81q-52 0 -101.5 -12.5t-94.5 -38t-76 -70.5t-39 -104q40 29 90 29q57 0 89 -33t32 -88q0 -53 -37.5 -86
t-98.5 -33q-68 0 -106.5 45t-38.5 131q0 146 115 244t323 98q216 0 327.5 -100.5t111.5 -270.5q0 -164 -93.5 -266.5t-294.5 -189.5q-85 -36 -116 -61t-31 -56q0 -59 72 -59q126 0 231 108zM659 106q0 -62 -37 -95.5t-98 -33.5q-58 0 -94.5 33.5t-36.5 95.5q0 60 37 96
t94 36q60 0 97.5 -36t37.5 -96z" />
    <glyph glyph-name="at" unicode="@" horiz-adv-x="1693" 
d="M1280 893q-56 -213 -111 -487q-12 -71 -12 -124.5t29 -85.5t88 -32q92 0 153.5 83.5t90.5 211.5q82 351 -58.5 546t-472.5 195q-190 0 -342 -72.5t-257.5 -222t-145.5 -364.5q-34 -202 -12 -348t100.5 -240t195 -139t269.5 -45q135 0 260.5 37t189.5 88l31 -37
q-78 -70 -211 -112t-266 -42q-390 0 -575.5 227t-110.5 615q44 225 172.5 389.5t308.5 247t391 82.5q366 0 526.5 -211.5t73.5 -597.5q-39 -176 -128.5 -271.5t-244.5 -95.5q-111 0 -172 53.5t-57 157.5q-47 -98 -124 -147.5t-159 -49.5q-120 0 -181 83.5t-36 252.5
q34 230 147.5 355t254.5 125q90 0 142 -45.5t60 -124.5q64 91 84 145h109zM774 193q79 0 146.5 96t105.5 291q26 129 -3 189t-101 60q-80 0 -148.5 -94.5t-103.5 -288.5q-23 -127 5 -190t99 -63z" />
    <glyph glyph-name="A" unicode="A" horiz-adv-x="1785" 
d="M1210 279l-63 178q-299 7 -594 0l-66 -183q-34 -86 -8.5 -131t123.5 -45h98l-2 -102q-200 4 -313 4l-313 -4v102h86q87 0 131.5 34t81.5 128q30 73 217.5 563t228.5 604q51 -4 86 -4l88 4q56 -169 210 -569.5t233 -597.5q39 -94 77.5 -128t112.5 -34h90v-102
q-223 4 -348 4l-350 -4l2 102h96q82 0 105 44.5t-9 136.5zM1116 543q-155 425 -262 706l-270 -706q264 -4 532 0z" />
    <glyph glyph-name="B" unicode="B" horiz-adv-x="1431" 
d="M1346 401q0 -96 -27.5 -166.5t-91.5 -125t-177.5 -82t-277.5 -27.5h-344l-340 -2v100h123q73 0 97 15.5t24 66.5q3 94 3 523t-3 511q-1 58 -25.5 79.5t-81.5 21.5h-137v98q13 0 160.5 -2t181.5 -2q48 0 169 1t163 1q254 0 389 -89t135 -265q0 -120 -71 -207t-191 -121
q149 -28 235.5 -114.5t86.5 -213.5zM723 684h-197q0 -380 4 -516q0 -50 21 -67t70 -17h137q202 0 287 75.5t85 237.5q0 68 -20.5 119t-66.5 89.5t-126.5 58.5t-193.5 20zM530 1239q-4 -122 -4 -475h189q194 0 277 65t83 226q0 135 -84 203.5t-260 68.5h-113q-88 0 -88 -88z
" />
    <glyph glyph-name="C" unicode="C" horiz-adv-x="1490" 
d="M1151 1358q69 -40 97 -25.5t38 97.5h96q-15 -104 -22 -236t0 -266q-52 8 -107 0q-11 96 -36.5 169t-75.5 135t-135 95t-203 33q-236 0 -352.5 -155.5t-116.5 -495.5q0 -148 21.5 -261.5t60 -187.5t96 -121t124.5 -66.5t150 -19.5q457 0 484 482q19 -1 58 -1t56 1
q-12 -200 -74.5 -324.5t-191.5 -187t-334 -62.5q-159 0 -282.5 42.5t-214 131.5t-138 233.5t-47.5 340.5q0 192 52.5 337t147 232.5t216.5 130.5t270 43q206 0 363 -94z" />
    <glyph glyph-name="D" unicode="D" horiz-adv-x="1605" 
d="M778 1411q369 0 545 -168t180 -526q2 -155 -35 -278t-102.5 -204.5t-159 -135t-199 -76.5t-229.5 -23h-350l-350 -4v102h133q74 0 97 15.5t24 68.5q2 89 2.5 526.5t-2.5 514.5q-1 55 -22.5 73.5t-78.5 18.5h-153v98q9 0 155.5 -2t202.5 -2q52 0 194 1t148 1zM528 184
q1 -49 27 -74.5t66 -25.5h133q109 0 190 18t147.5 61.5t107.5 116t63 181.5t22 258q0 329 -122.5 467.5t-405.5 138.5h-142q-83 0 -86 -86q-4 -98 -3.5 -526.5t3.5 -528.5z" />
    <glyph glyph-name="E" unicode="E" horiz-adv-x="1492" 
d="M924 1008v28h92q0 -27 -3 -127t-3 -188q0 -224 6 -328h-90v29q-3 139 -59 197.5t-203 58.5h-140q0 -381 4 -479q6 -101 95 -101h372q177 0 243 89.5t69 320.5h100q-20 -223 -16 -516q-96 8 -400 8h-569l-350 -4v102h145q64 0 88 26t27 83q3 75 3 508t-3 508q-3 54 -24 73
t-77 19h-159v98q15 0 172 -2t182 -2q14 0 100.5 0.5t219 1t258.5 0.5q286 0 382 12q-13 -209 -4 -491h-92q0 93 -8 154.5t-27 107.5t-54.5 70.5t-85 35.5t-124.5 11h-377q-43 0 -63 -22t-23 -66q-4 -94 -4 -463h160q132 0 186 54.5t54 193.5z" />
    <glyph glyph-name="F" unicode="F" horiz-adv-x="1423" 
d="M899 1034h90q-6 -117 -6 -315q0 -224 6 -328h-88v43q0 131 -61.5 184.5t-216.5 53.5h-99q0 -351 4 -461q3 -113 107 -113h182v-102q-238 4 -373 4l-372 -4v102h147q64 0 87.5 27.5t25.5 85.5q3 94 3 515.5t-3 496.5q-1 53 -23 72.5t-78 19.5h-159v98q16 0 175 -2t179 -2
q9 0 80.5 0.5t191.5 1t246 0.5q295 0 391 12q-11 -150 -6 -493h-92q-1 118 -15.5 190t-53 116t-96 59.5t-152.5 15.5h-306q-83 0 -86 -88q-4 -98 -4 -463h105q142 0 205.5 50.5t64.5 178.5v45z" />
    <glyph glyph-name="G" unicode="G" horiz-adv-x="1640" 
d="M791 1452q108 0 191.5 -23t168.5 -71q69 -40 97 -25.5t38 97.5h96q-15 -104 -22 -236t0 -266q-52 8 -107 0q-11 96 -36.5 169t-75.5 135t-135 95t-203 33q-236 0 -352.5 -155.5t-116.5 -495.5q0 -148 22 -261.5t60.5 -187.5t96.5 -121t124.5 -66.5t148.5 -19.5
q185 0 301.5 102.5t116.5 290.5q0 102 -25 140.5t-102 38.5h-108v96q196 -6 305 -6l305 6v-96h-86q-47 0 -67.5 -27t-20.5 -96q0 -377 10 -527q-17 3 -54 3t-54 -3q-1 4 -18.5 100t-31.5 154q-59 -116 -184.5 -192t-288.5 -76q-158 0 -281.5 42.5t-214 131t-138.5 233.5
t-48 341q0 192 53 337t148 232.5t217.5 130.5t270.5 43z" />
    <glyph glyph-name="H" unicode="H" horiz-adv-x="1769" 
d="M88 -4v102h123q73 0 96.5 14.5t24.5 65.5q3 95 3 525t-3 509q-1 59 -25.5 81t-81.5 22h-135v98q217 -6 338 -6q72 0 202 3t136 3v-98h-135q-57 0 -81.5 -22t-25.5 -81q-4 -98 -4 -460q476 -5 731 0q0 362 -4 460q-3 59 -27 81t-81 22h-135v98q218 -6 339 -6q71 0 201.5 3
t136.5 3v-98h-137q-57 0 -81 -22t-25 -81q-3 -80 -3 -509.5t3 -524.5q1 -51 24.5 -65.5t96.5 -14.5h122v-102q-217 4 -338 4l-339 -4v102h122q73 0 96.5 14.5t24.5 65.5q4 118 4 486q-432 4 -731 -2q0 -366 4 -484q1 -51 24 -65.5t95 -14.5h123v-102q-217 4 -338 4z" />
    <glyph glyph-name="I" unicode="I" horiz-adv-x="862" 
d="M92 -4v102h121q70 0 94.5 18t24.5 70q3 95 3 521t-3 505q-1 59 -25.5 81t-81.5 22h-133v98q219 -6 340 -6q72 0 202 3t136 3v-98h-133q-57 0 -80.5 -22t-26.5 -81q-4 -89 -3.5 -505t3.5 -521q1 -52 25.5 -70t95.5 -18h119v-102q-217 4 -338 4z" />
    <glyph glyph-name="J" unicode="J" horiz-adv-x="1212" 
d="M213 201q-37 0 -61 12q54 -164 264 -164q143 0 209.5 89.5t72.5 291.5q3 131 3.5 410.5t-3.5 371.5q-3 59 -26.5 81t-79.5 22h-119v98q209 -6 326 -6q69 0 194 3t131 3v-98h-116q-57 0 -81.5 -21.5t-25.5 -81.5q-3 -99 -2.5 -384.5t2.5 -397.5q1 -232 -123 -350.5
t-352 -118.5q-88 0 -159 28t-114.5 73.5t-66.5 101.5t-23 115q0 73 41 120t113 47q60 0 95.5 -32.5t35.5 -89.5q0 -62 -41 -92.5t-94 -30.5z" />
    <glyph glyph-name="K" unicode="K" horiz-adv-x="1718" 
d="M88 -4v102h123q71 0 94.5 20.5t26.5 84.5q4 89 3.5 505.5t-3.5 501.5q-1 59 -26 82t-83 23h-135v98q219 -6 340 -6q72 0 202 3t136 3v-98h-135q-57 0 -81.5 -23t-25.5 -82q-4 -114 -4 -548l600 538q23 21 26.5 47.5t-19 47t-66.5 20.5h-105v98q217 -6 338 -6
q71 0 195.5 3t130.5 3v-98h-80q-93 0 -162 -31.5t-151 -105.5l-359 -320q90 -130 243 -334.5t226 -292.5q45 -53 69.5 -76.5t64 -40t94.5 -16.5h67v-100q-217 6 -338 6l-340 -6v100h80q73 0 91.5 32t-17.5 85q-45 72 -169 240.5t-212 277.5l-207 -184q0 -264 4 -346
q2 -64 22 -84.5t91 -20.5h129v-102q-217 4 -338 4z" />
    <glyph glyph-name="L" unicode="L" horiz-adv-x="1357" 
d="M768 1413v-98h-137q-57 0 -81.5 -22t-25.5 -81q-3 -79 -3 -505t3 -521q1 -49 26 -68.5t81 -19.5h196q84 0 136.5 9t96 33.5t67.5 73t38 121.5t19 185h100q-8 -98 -13.5 -266.5t-4.5 -261.5q-96 8 -396 8h-444q-264 0 -338 -4v102h125q70 0 93.5 17.5t25.5 70.5
q3 95 3 521t-3 505q-1 59 -25.5 81t-81.5 22h-135v98q219 -6 340 -6q66 0 184.5 3t153.5 3z" />
    <glyph glyph-name="M" unicode="M" horiz-adv-x="2029" 
d="M938 92q-223 512 -510 1112q-3 -164 -2 -548t4 -431q3 -72 29.5 -99.5t95.5 -27.5h133v-102q-194 4 -303 4l-303 -4v102h117q71 0 97.5 27t29.5 100q3 52 3 490.5t-3 498.5q-1 53 -28 77t-79 24h-133v98q237 -8 473 0q167 -396 471 -1032q108 234 262.5 579.5
t198.5 452.5q227 -8 448 0v-98h-131q-56 0 -82.5 -26t-27.5 -85q-3 -74 -3 -489.5t3 -495.5q2 -63 27.5 -92t93.5 -29h120v-102q-216 4 -337 4l-342 -4v102h122q68 0 93.5 29t27.5 92q3 66 3.5 454.5t-1.5 543.5q-90 -192 -273.5 -595.5t-236.5 -529.5h-57z" />
    <glyph glyph-name="N" unicode="N" horiz-adv-x="1720" 
d="M524 1413q279 -424 746 -1089q3 170 3 487.5t-3 392.5q-1 61 -28.5 86t-86.5 25h-135v98q7 0 125.5 -3t183.5 -3q50 0 124.5 1.5t129 3t55.5 1.5v-98h-137q-60 0 -87 -24.5t-28 -86.5q-3 -83 -3 -582.5t3 -623.5q-19 2 -67.5 2t-67.5 -2q-411 618 -802 1180
q-2 -228 -1.5 -570.5t3.5 -412.5q2 -54 27.5 -75.5t94.5 -21.5h129v-102q-198 4 -309 4l-311 -4v102h129q69 0 95 21.5t28 75.5q3 103 3.5 515.5t-3.5 501.5q-3 59 -27.5 81t-81.5 22h-141v98q222 -8 440 0z" />
    <glyph glyph-name="O" unicode="O" horiz-adv-x="1583" 
d="M791 53q234 0 351.5 160.5t117.5 495.5q0 336 -116.5 494.5t-352.5 158.5q-223 0 -345 -162.5t-122 -492.5q0 -176 29.5 -301.5t90 -203t145.5 -113.5t202 -36zM791 -39q-329 0 -509 195.5t-180 550.5q0 178 51 320t143 234.5t218 141.5t277 49q337 0 513.5 -196.5
t176.5 -546.5q0 -178 -52 -321t-144.5 -235.5t-218 -142t-275.5 -49.5z" />
    <glyph glyph-name="P" unicode="P" horiz-adv-x="1419" 
d="M729 500q-93 0 -203 4q0 -231 4 -301q1 -61 29.5 -85t89.5 -24h109v-98q-213 4 -334 4l-336 -4v102h111q72 0 102 22.5t31 84.5q3 73 3 500t-3 509q-1 58 -25 79.5t-82 21.5h-137v98q16 0 179.5 -3t183.5 -3q48 0 142 2t136 2q107 0 195 -14.5t162.5 -48t126 -85
t80 -127.5t28.5 -173q0 -229 -158.5 -346t-433.5 -117zM530 1239q-7 -273 -4 -641h172q220 0 310 89t90 278q0 186 -89 274t-302 88h-89q-46 0 -66 -22t-22 -66z" />
    <glyph glyph-name="Q" unicode="Q" horiz-adv-x="1583" 
d="M791 -39q-329 0 -509 195.5t-180 550.5q0 178 51 320t143 234.5t218 141.5t277 49q337 0 513.5 -196.5t176.5 -546.5q0 -255 -101.5 -430.5t-279.5 -255.5q24 -177 65.5 -249.5t126.5 -72.5q152 0 135 229l72 7q16 -166 -53 -266.5t-223 -100.5q-151 0 -226.5 104.5
t-70.5 298.5q-68 -12 -135 -12zM795 451q120 0 186 -76t98 -230q181 152 181 564q0 336 -116.5 494.5t-352.5 158.5q-223 0 -345 -162.5t-122 -492.5q0 -272 71 -423.5t213 -203.5q-51 58 -51 135q0 108 65 172t173 64zM782 53q75 0 148 17q6 167 -33.5 237t-128.5 70
q-63 0 -107.5 -39t-44.5 -121q0 -80 53.5 -122t112.5 -42z" />
    <glyph glyph-name="R" unicode="R" horiz-adv-x="1564" 
d="M1192 381q11 -100 24 -163.5t31.5 -95.5t37.5 -43t48 -11q70 0 90.5 91.5t-12.5 264.5l80 8q22 -96 23 -178t-19 -149t-73.5 -105.5t-137.5 -38.5q-85 0 -141 22t-90.5 72t-51 118t-22.5 171q-5 96 -23 156t-54.5 93.5t-84 45.5t-121.5 12h-170q0 -403 4 -446
q5 -61 31 -86t88 -25h109v-98q-299 4 -334 4l-336 -4v102h111q72 0 101.5 24t31.5 83q3 72 3 500.5t-3 506.5q-2 58 -25 80.5t-82 22.5h-137v98q16 0 169 -2t173 -2q48 0 173 1t167 1q533 0 533 -371q0 -147 -98 -246.5t-242 -117.5q113 -28 164.5 -99.5t64.5 -195.5z
M530 1247q-4 -118 -4 -516h197q188 0 275 70.5t87 236.5q0 154 -74.5 221.5t-260.5 67.5h-146q-42 0 -58 -20.5t-16 -59.5z" />
    <glyph glyph-name="S" unicode="S" horiz-adv-x="1304" 
d="M637 1360q-163 0 -249.5 -68t-86.5 -178q0 -114 92.5 -172.5t319.5 -95.5q275 -43 389.5 -149t114.5 -302q0 -198 -136.5 -316t-375.5 -118q-209 0 -375 96q-36 22 -61.5 26t-40 -9.5t-22 -34.5t-11.5 -55h-91q45 221 25 481h88q33 -208 150 -311t335 -103
q182 1 280.5 73t98.5 198q0 130 -103 194t-355 107q-231 37 -343 137.5t-112 269.5q0 90 30 166t88 133.5t149.5 90t207.5 32.5q171 0 311 -78q47 -25 73.5 -24.5t37.5 19.5t16 61h88q-22 -96 -26.5 -228t8.5 -231h-84q-65 389 -430 389z" />
    <glyph glyph-name="T" unicode="T" horiz-adv-x="1468" 
d="M1061 1313h-234q-2 -161 -1.5 -600t3.5 -504q2 -60 25.5 -85.5t89.5 -25.5h129v-102q-217 4 -338 4l-342 -4v102h123q67 0 94 26t29 85q3 70 3 504t-3 600h-231q-102 0 -147 -43t-50 -135q-1 -14 -4.5 -105t-3.5 -108h-107q3 88 -0.5 246.5t-9.5 252.5q88 -10 287 -10
h725q180 0 282 10q-6 -94 -9.5 -252.5t-0.5 -246.5h-104q0 16 -4 107.5t-5 105.5q-5 92 -49 135t-147 43z" />
    <glyph glyph-name="U" unicode="U" horiz-adv-x="1763" 
d="M307 580q2 509 0 620q-2 65 -24.5 90t-79.5 25h-115v98q209 -6 326 -6q69 0 193 3t130 3v-98h-108q-66 0 -93.5 -24.5t-27.5 -90.5v-639q0 -263 100 -375t303 -112q100 0 172 23t126.5 78t81 150.5t26.5 235.5v635q-1 62 -30 90.5t-89 28.5h-106v98q186 -6 290 -6
q61 0 170 3t117 3v-98h-102q-59 0 -85 -28.5t-28 -92.5q-2 -82 -2 -206.5t1 -255t1 -154.5q0 -307 -135.5 -463t-421.5 -156q-298 0 -444 148t-146 473z" />
    <glyph glyph-name="V" unicode="V" horiz-adv-x="1603" 
d="M494 1157q50 -172 149.5 -473.5t177.5 -515.5q245 635 348 977q15 55 14 92.5t-28.5 57.5t-85.5 20h-74v98q195 -6 293 -6q58 0 162 3t106 3v-98h-55q-82 0 -125 -37t-86 -135q-87 -201 -229.5 -570.5t-216.5 -584.5h-156q-71 223 -201 600.5t-206 580.5
q-22 57 -40.5 85.5t-52.5 44.5t-92 16h-47v98q196 -6 311 -6q50 0 126 1.5t134 3t64 1.5v-98h-92q-144 0 -98 -158z" />
    <glyph glyph-name="W" unicode="W" horiz-adv-x="2248" 
d="M1593 -12h-166q-131 494 -309 1095q-65 -202 -179 -585t-148 -510h-164q-109 418 -334 1183q-25 81 -55 112.5t-97 31.5h-94v98q200 -6 315 -6q50 0 124.5 1.5t130 3t59.5 1.5v-98h-86q-68 0 -91 -33.5t-3 -110.5q42 -167 125 -465.5t145 -504.5q58 184 157 526t124 447
q20 76 0 108.5t-95 32.5h-53v98q177 -6 277 -6q44 0 108.5 1.5t113.5 3t54 1.5v-98h-78q-59 0 -78 -32t-2 -99q136 -528 273 -979q61 203 143.5 505t110.5 437q18 90 -6 129t-109 39h-49v98q180 -6 276 -6q43 0 106.5 1.5t111.5 3t53 1.5v-98h-88q-69 0 -108.5 -38
t-70.5 -132q-58 -177 -182 -594.5t-162 -562.5z" />
    <glyph glyph-name="X" unicode="X" horiz-adv-x="1708" 
d="M1063 256l-250 358q-172 -249 -238 -350q-46 -69 -26.5 -117.5t92.5 -48.5h88v-102q-211 4 -326 4l-317 -4v102h57q112 0 189 47t143 140q230 319 285 405q-65 93 -183.5 257.5t-158.5 221.5q-56 78 -106 112t-136 34h-76v98q248 -4 371 -4l334 4v-98h-66
q-80 0 -104.5 -45.5t16.5 -106.5q66 -103 254 -368q188 248 252 366q22 42 23 76t-25 56t-78 22h-80v98q197 -4 306 -4l305 4v-98h-66q-56 0 -92.5 -6.5t-68 -29t-52 -45.5t-59.5 -75q-232 -314 -314 -436q84 -119 344 -475q57 -79 113 -114.5t131 -35.5h76v-102
q-229 4 -360 4l-345 -4v102h78q77 0 97.5 43t-27.5 115z" />
    <glyph glyph-name="Y" unicode="Y" horiz-adv-x="1646" 
d="M1264 1171q-219 -386 -365 -679v-291q0 -63 22 -84t99 -21h147v-100q-233 4 -364 4l-365 -4v100h146q77 0 100 22t23 83v286q-185 367 -369 693q-43 73 -94.5 104t-145.5 31h-49v98q230 -6 359 -6l356 6v-98h-102q-61 0 -92.5 -18.5t-31.5 -49.5t17 -71q96 -211 305 -578
q215 395 293 578q12 26 17 45t3.5 37.5t-12.5 30.5t-36 19t-64 7h-96v98q204 -6 319 -6l318 6v-98h-68q-114 0 -168 -29.5t-102 -114.5z" />
    <glyph glyph-name="Z" unicode="Z" horiz-adv-x="1341" 
d="M86 0v96q161 207 915 1217h-403q-83 0 -131 -3.5t-92 -18.5t-64.5 -38.5t-37 -70.5t-20.5 -106t-5 -154h-109q7 81 10 248t-2 245q119 -4 437 -4h659v-96q-290 -366 -919 -1217h534q62 0 105 6.5t76.5 24.5t53.5 45t33.5 73t18.5 103.5t6 141.5h104q-15 -306 -6 -496
q-136 4 -362 4h-801z" />
    <glyph glyph-name="bracketleft" unicode="[" horiz-adv-x="559" 
d="M135 281v786q0 222 -33 571q178 -8 355 0v-84h-76q-57 0 -81.5 -22t-25.5 -78q-2 -59 -2 -812.5t2 -809.5q2 -57 27 -78.5t94 -21.5h62v-84q-177 8 -355 0q10 109 21.5 313t11.5 320z" />
    <glyph glyph-name="backslash" unicode="\" horiz-adv-x="800" 
d="M618 -365q-229 749 -565 1778q22 -3 64.5 -3t64.5 3q204 -663 566 -1778q-22 3 -65 3t-65 -3z" />
    <glyph glyph-name="bracketright" unicode="]" horiz-adv-x="559" 
d="M424 1053v-824q0 -232 33 -581q-15 2 -177.5 2t-177.5 -2v84h62q70 0 95.5 22t25.5 78v1622q0 56 -25 78t-82 22h-76v84q15 -2 177.5 -2t177.5 2q-33 -349 -33 -585z" />
    <glyph glyph-name="asciicircum" unicode="^" 
d="M571 1452h37q60 -96 406 -571l-78 -58q-53 55 -175.5 261.5t-170.5 320.5q-58 -128 -172.5 -324t-175.5 -258l-76 58q29 40 121 168t171 239t113 164z" />
    <glyph glyph-name="underscore" unicode="_" horiz-adv-x="1024" 
d="M0 -403q3 63 0 129q163 -3 512 -3t512 3q-3 -64 0 -129q-163 3 -512 3t-512 -3z" />
    <glyph glyph-name="grave" unicode="`" horiz-adv-x="1089" 
d="M735 1075l-14 -20q-220 121 -322 200q-33 25 -28 58t35.5 42.5t68.5 -12.5q25 -19 61 -54t59.5 -60.5t74.5 -82t65 -71.5z" />
    <glyph glyph-name="a" unicode="a" horiz-adv-x="1077" 
d="M819 584v-389q0 -74 17.5 -101.5t48.5 -27.5q47 0 67.5 64t12.5 185l67 7q11 -174 -30.5 -260.5t-157.5 -86.5q-104 0 -149.5 56t-47.5 145q-97 -199 -303 -199q-133 0 -208 62.5t-75 185.5q0 60 23 108.5t67 82t97 57.5t123 39t134.5 23t141.5 12v45q0 63 -5 106.5
t-19 83t-39 62t-65.5 35.5t-98.5 12q-124 -3 -191 -57q57 -1 88 -31.5t31 -79.5q0 -52 -33 -82.5t-90 -30.5q-59 0 -92 32.5t-33 96.5q0 98 106 160t259 62q106 0 177 -26t109 -78.5t53 -117t15 -155.5zM408 72q112 0 175.5 86t63.5 250v90q-387 -25 -387 -267
q0 -75 39.5 -117t108.5 -42z" />
    <glyph glyph-name="b" unicode="b" horiz-adv-x="1167" 
d="M688 -35q-268 0 -340 264q-69 -124 -90 -249h-82q21 122 25 272q3 72 3 486.5t-3 500.5q-1 46 -21 66t-63 20h-99v86q308 0 361 4q-4 -182 -4 -481v-203q83 230 330 230q174 0 269 -122.5t95 -373.5q0 -248 -98 -374t-283 -126zM375 463q0 -66 6 -120.5t23.5 -108
t45.5 -90t74.5 -59t108.5 -22.5q60 0 102.5 17.5t76 61.5t49.5 124t16 199q0 70 -4.5 123t-19.5 107t-41 88.5t-70 56.5t-105 22q-126 0 -194 -104t-68 -295z" />
    <glyph glyph-name="c" unicode="c" horiz-adv-x="995" 
d="M825 264l88 -20q-16 -58 -44 -105.5t-73 -88t-114.5 -63t-157.5 -22.5q-212 0 -324 128t-112 364q0 230 123.5 367t335.5 137q154 0 249 -65t95 -161q0 -61 -33.5 -93t-95.5 -32q-56 0 -87.5 30.5t-31.5 80.5q0 97 98 110q-75 58 -192 58q-140 0 -204 -102t-64 -330
q0 -152 30 -241.5t86 -125t148 -35.5q125 0 189 53.5t91 155.5z" />
    <glyph glyph-name="d" unicode="d" horiz-adv-x="1200" 
d="M481 961q237 0 314 -218v496q0 90 -90 90h-107v84q291 0 371 6q-1 -195 -1 -648.5t1 -594.5q3 -92 90 -92h90v-84q-19 0 -162.5 -2t-191.5 -4v201q-82 -230 -322 -230q-371 0 -371 496q0 251 99 375.5t280 124.5zM795 463q0 399 -252 399q-63 0 -106.5 -17.5t-77 -61.5
t-49 -123t-15.5 -199q0 -71 4.5 -123.5t19 -107t39.5 -89t69 -56.5t105 -22q126 0 194.5 104.5t68.5 295.5z" />
    <glyph glyph-name="e" unicode="e" horiz-adv-x="1046" 
d="M860 260l84 -20q-42 -131 -141 -205t-260 -74q-221 0 -338 133t-117 369q0 120 35 215.5t97 157t144 93.5t177 32q144 0 240.5 -70.5t135.5 -187.5t29 -271h-665q4 -207 76 -294t212 -87q126 0 193 55t98 154zM532 883q-243 0 -251 -389h419q27 0 37.5 11t10.5 42
q0 165 -56 250.5t-160 85.5z" />
    <glyph glyph-name="f" unicode="f" horiz-adv-x="718" 
d="M59 932l174 -6v63q-8 432 347 432q123 0 194.5 -61.5t71.5 -145.5q0 -55 -31.5 -86.5t-85.5 -31.5q-50 0 -79 27.5t-29 74.5q0 46 29 73t81 27q13 0 19 -2q-55 62 -144 62q-103 0 -150 -67.5t-48 -233.5v-131l196 6v-84l-196 4v-674q2 -48 20 -71t70 -23h104v-88
q-9 0 -114.5 3t-163.5 3q-44 0 -109.5 -1.5t-115.5 -3t-56 -1.5v88h102q85 0 88 94q3 301 3 674l-177 -4v84z" />
    <glyph glyph-name="g" unicode="g" horiz-adv-x="1103" 
d="M469 961q147 0 238 -52q20 82 70.5 133.5t127.5 51.5q78 0 119 -39t41 -105q0 -56 -28 -86t-76 -30q-49 0 -77 26t-28 70q0 59 43 86q-55 -1 -93 -37.5t-56 -97.5q110 -87 110 -265q0 -165 -112 -256.5t-295 -91.5q-201 0 -201 -67q0 -13 5.5 -23t24 -20.5t51.5 -17.5
t91 -12t139 -7q169 -3 267 -30.5t137 -78t39 -133.5q0 -128 -133 -215.5t-377 -87.5q-469 0 -469 221q0 67 64.5 116t162.5 71q-70 21 -99.5 58t-29.5 91q0 62 50.5 102t133.5 56q-107 35 -168 118t-61 207q0 162 112 253.5t277 91.5zM471 889q-207 0 -207 -275
q0 -147 52 -209.5t155 -62.5q105 0 155 62.5t50 209.5t-52 211t-153 64zM508 -49q-99 4 -143 10q-209 -30 -209 -145q0 -73 84 -115.5t254 -42.5q205 0 307 44t102 120q0 44 -31 70t-118 41t-246 18z" />
    <glyph glyph-name="h" unicode="h" horiz-adv-x="1290" 
d="M1059 575q0 -35 -0.5 -108.5t-0.5 -134.5t1 -111q3 -86 25.5 -111.5t99.5 -25.5h47v-88q-9 0 -108 3t-154 3q-41 0 -103 -1.5t-109 -3t-52 -1.5v88h53q74 0 100 27t27 108q4 152 0 338q-3 150 -53 227.5t-164 77.5q-135 0 -198.5 -114.5t-63.5 -364.5v-176q0 -81 23 -102
t101 -21h56v-88q-10 0 -110.5 3t-156.5 3q-57 0 -165 -3l-109 -3v88h66q42 1 62.5 4.5t34 18t17.5 35t6 63.5q1 35 1 497.5t-1 499.5q-3 78 -24 102.5t-101 24.5h-57v84q235 0 361 6q-4 -75 -4 -315v-387q76 244 323 244q336 0 330 -386z" />
    <glyph glyph-name="i" unicode="i" horiz-adv-x="634" 
d="M406 938q-4 -637 0 -737q1 -74 24 -95.5t90 -21.5h68v-88q-10 0 -112 3t-159 3t-163 -3t-107 -3v88h78q62 0 82.5 21.5t23.5 93.5q1 73 1 276.5t-1 261.5q-3 64 -24 87.5t-92 23.5h-66v84q277 0 357 6zM422 1270q0 -54 -36.5 -90.5t-90.5 -36.5q-51 0 -88 36.5t-37 90.5
t37 90.5t88 36.5q54 0 90.5 -36.5t36.5 -90.5z" />
    <glyph glyph-name="j" unicode="j" horiz-adv-x="591" 
d="M104 -215q0 -40 -31.5 -72t-90.5 -28q39 -25 98 -25q57 0 92 23t56.5 88t21.5 178q0 31 0.5 222.5t0.5 352.5t-1 219q-2 52 -26 78.5t-79 26.5h-77v84q284 0 364 6q-8 -91 -8 -303v-639q0 -402 -311 -402q-109 0 -175.5 48t-66.5 129q0 58 32 89t87 31q54 0 84 -28
t30 -78zM442 1270q0 -54 -37 -90.5t-90 -36.5t-89 36.5t-36 90.5t36 90.5t89 36.5t90 -36.5t37 -90.5z" />
    <glyph glyph-name="k" unicode="k" horiz-adv-x="1253" 
d="M406 1417q-3 -153 -3 -958l316 256q58 47 49.5 90t-72.5 43h-57v86q170 -6 268 -6q42 0 104.5 1.5t110 3t52.5 1.5v-86h-39q-91 0 -157.5 -33t-213.5 -143l-100 -76q45 -69 133 -191t141 -190q55 -70 102.5 -99.5t126.5 -29.5h33v-90q-10 0 -113.5 3t-160.5 3
q-58 0 -165.5 -3t-109.5 -3v88h49q56 0 65.5 36t-32.5 99q-58 88 -203 277l-127 -95q0 -30 0.5 -69.5t1.5 -68.5t1 -32q1 -85 30 -116t99 -31h55v-88q-10 0 -112 3t-159 3q-59 0 -165 -3l-107 -3v88h72q66 0 87.5 28.5t24.5 116.5q1 51 1 487.5t-1 479.5q-3 76 -26.5 104.5
t-93.5 28.5h-60v84q195 0 355 4z" />
    <glyph glyph-name="l" unicode="l" horiz-adv-x="634" 
d="M406 1419q-4 -1124 0 -1198q5 -85 27.5 -111t96.5 -26h58v-88q-2 0 -107.5 3t-163.5 3q-42 0 -106.5 -1.5t-113 -3t-52.5 -1.5v88h66q75 1 96 26.5t24 108.5q1 54 1 490t-1 479q-3 81 -24.5 111t-100.5 30h-57v84q277 0 357 6z" />
    <glyph glyph-name="m" unicode="m" horiz-adv-x="1931" 
d="M1702 575q-4 -241 0 -354q3 -86 24.5 -111.5t98.5 -25.5h55v-88q-9 0 -109.5 3t-156.5 3q-41 0 -103.5 -1.5t-110 -3t-52.5 -1.5v88h53q74 0 99 26.5t28 108.5q3 167 0 338q-3 151 -51.5 228t-161.5 77q-137 0 -199.5 -119.5t-62.5 -359.5v-162q0 -85 23.5 -111
t101.5 -26h55v-88q-9 0 -109.5 3t-156.5 3q-42 0 -104.5 -1.5t-110 -3t-52.5 -1.5v88h52q74 0 100 27t27 108q6 164 0 338q-3 152 -50.5 228.5t-160.5 76.5q-271 0 -265 -479l3 -162q2 -84 25.5 -110.5t98.5 -26.5h56v-88q-10 0 -112.5 3t-158.5 3q-57 0 -163 -3t-107 -3v88
h66q40 1 62 6.5t34.5 23t16.5 39.5t7 66q3 80 3 249t-3 241q-3 80 -24.5 109.5t-100.5 29.5h-57v84q277 0 357 6v-217q79 240 323 240q144 0 219 -70t96 -203q73 273 334 273q173 0 249.5 -99.5t74.5 -286.5z" />
    <glyph glyph-name="n" unicode="n" horiz-adv-x="1290" 
d="M1059 575q0 -50 -0.5 -129t-0.5 -133t1 -92q3 -86 25.5 -111.5t99.5 -25.5h47v-88q-9 0 -108 3t-154 3q-41 0 -103 -1.5t-109 -3t-52 -1.5v88h53q74 0 100 27t27 108q3 159 0 338q-3 150 -53 227.5t-164 77.5q-133 0 -200.5 -123.5t-64.5 -355.5l3 -162
q2 -84 25.5 -110.5t98.5 -26.5h56v-88q-10 0 -112.5 3t-158.5 3q-57 0 -163 -3t-107 -3v88h66q75 0 96 26t24 109q6 188 0 490q-3 80 -24.5 109.5t-100.5 29.5h-57v84q277 0 357 6v-221q76 244 323 244q336 0 330 -386z" />
    <glyph glyph-name="o" unicode="o" horiz-adv-x="1091" 
d="M88 457q0 248 122.5 376t334.5 128t335.5 -128.5t123.5 -375.5q0 -239 -124 -367.5t-335 -128.5q-214 0 -335.5 127.5t-121.5 368.5zM289 457q0 -104 14 -181t36.5 -122.5t57 -73t69 -36.5t79.5 -9t80 9t70 36.5t58 73.5t37.5 123t14.5 182q0 104 -14.5 182t-38 124.5
t-58.5 75t-70.5 38.5t-78.5 10q-44 0 -79.5 -10.5t-69.5 -39.5t-56.5 -76t-36.5 -124.5t-14 -181.5z" />
    <glyph glyph-name="p" unicode="p" horiz-adv-x="1198" 
d="M719 -35q-234 0 -313 213v-317q0 -75 27.5 -105t105.5 -30h53v-91q-2 0 -109 3.5t-164 3.5q-43 0 -108 -2t-114 -3.5t-52 -1.5v91h64q70 0 93.5 29t28.5 106q4 109 3 420t-3 426q-3 84 -27 112.5t-100 28.5h-59v84q281 0 361 6v-211q80 234 327 234q181 0 273 -124.5
t92 -371.5t-98.5 -373.5t-280.5 -126.5zM406 463q0 -84 11 -150t37.5 -125.5t79 -92t128.5 -32.5q61 0 103.5 18t75 62t48.5 123.5t16 198.5q0 70 -4.5 123t-19.5 107t-40.5 88.5t-69.5 56.5t-105 22q-124 0 -192 -104t-68 -295z" />
    <glyph glyph-name="q" unicode="q" horiz-adv-x="1191" 
d="M477 961q259 0 332 -248q89 143 106 284h64q-8 -68 -16 -354q-6 -334 2 -825q2 -46 21.5 -69t72.5 -23h92v-91q-2 0 -110.5 3.5t-168.5 3.5q-44 0 -110.5 -2t-116.5 -3.5t-53 -1.5v91h100q47 0 73 24t26 68v377q-82 -230 -328 -230q-182 0 -271.5 120.5t-89.5 375.5
q0 254 93.5 377t281.5 123zM528 63q124 0 193.5 104.5t69.5 295.5q0 397 -259 397q-84 0 -133 -31t-76.5 -119t-27.5 -247q0 -72 4 -123.5t18 -107.5t38.5 -90t68 -56.5t104.5 -22.5z" />
    <glyph glyph-name="r" unicode="r" horiz-adv-x="897" 
d="M631 889q-108 0 -166.5 -105t-58.5 -313v-258q0 -82 24 -105.5t100 -23.5h82v-88q-9 0 -116 3t-166 3q-45 0 -111.5 -1.5t-117 -3t-56.5 -1.5v88h66q77 1 97 23.5t23 103.5q7 345 0 504q-1 40 -4.5 61.5t-16 39.5t-37.5 25t-67 7h-57v84q277 0 357 6l-17 -223
q58 246 264 246q104 0 156.5 -56.5t52.5 -144.5q0 -71 -35 -110.5t-96 -39.5q-56 0 -86.5 29t-30.5 84q0 59 45.5 87.5t102.5 18.5q-32 60 -131 60z" />
    <glyph glyph-name="s" unicode="s" horiz-adv-x="917" 
d="M442 872q-103 0 -158 -41t-55 -102q0 -72 58.5 -109t220.5 -61q175 -27 251.5 -101t76.5 -194q0 -146 -86 -224.5t-254 -78.5q-139 0 -269 92q-71 52 -84 -69q-9 2 -32.5 2t-32.5 -2q24 184 10 362h66q38 -139 126 -217t218 -78q103 0 159 42t56 112q0 67 -59 107
t-214 61q-181 25 -259.5 104t-78.5 193q0 133 98.5 214t256.5 77q121 -2 217 -68q27 -23 42.5 -10.5t24.5 71.5h62q-12 -99 -13.5 -163t3.5 -160q-9 1 -31 1t-31 -1q-27 126 -98 183.5t-191 57.5z" />
    <glyph glyph-name="t" unicode="t" horiz-adv-x="700" 
d="M573 297l64 4q32 -328 -223 -328q-131 0 -191.5 78t-58.5 238v561h-135v68q132 10 186.5 96.5t75.5 296.5h76q-21 -202 -21 -387l252 12v-88l-254 2q0 -78 1 -292.5t1 -260.5q0 -133 26 -184.5t85 -51.5q69 -2 97 53t19 183z" />
    <glyph glyph-name="u" unicode="u" horiz-adv-x="1253" 
d="M1030 938q-2 -32 -8 -283q-1 -51 -0.5 -218.5t2.5 -225.5q2 -72 30 -99.5t101 -27.5h51v-84q-276 0 -356 -6v211q-37 -114 -116.5 -178t-203.5 -64q-69 0 -124.5 18.5t-102.5 61t-72 121.5t-24 190q6 229 0 369q-1 38 -5 59.5t-17.5 37.5t-37 22t-63.5 6h-55v84h172
q145 0 186 6q-6 -113 -6 -281v-295q0 -83 18 -143.5t41.5 -89.5t57.5 -46t53.5 -19.5t42.5 -2.5q132 0 194 110.5t62 352.5v199q0 76 -30.5 100.5t-121.5 24.5h-45v84h205q141 0 172 6z" />
    <glyph glyph-name="v" unicode="v" horiz-adv-x="1132" 
d="M1120 848h-59q-66 0 -105.5 -25t-72.5 -104q-41 -95 -152.5 -377.5t-142.5 -372.5h-82q-45 134 -139 378.5t-156 391.5q-11 26 -15 34.5t-17.5 27.5t-27 26t-38.5 14t-58 7h-41v84q170 -4 262 -4l279 4v-84h-45q-138 0 -100 -115q69 -229 192 -547q143 353 205 533
q22 59 3.5 94t-79.5 35h-59v84q141 -4 217 -4l231 4v-84z" />
    <glyph glyph-name="w" unicode="w" horiz-adv-x="1728" 
d="M1085 -31q-36 119 -111.5 334.5t-129.5 355.5q-50 -130 -139 -376t-109 -314h-98q-42 136 -129 381.5t-144 388.5q-12 31 -21 46.5t-25 32.5t-41 23.5t-62 6.5h-41v84q162 -4 252 -4l254 4v-84h-31q-122 0 -90 -115q66 -230 184 -549q47 122 113 303t80 232
q33 129 -88 129h-29v84q131 -4 217 -4l223 4v-84h-26q-61 0 -83 -29.5t-5 -85.5q86 -281 184 -545q37 96 100.5 276t81.5 238q46 146 -76 146h-45v84q148 -4 222 -4l221 4v-84h-56q-71 0 -113 -32t-75 -116q-225 -586 -268 -731h-97z" />
    <glyph glyph-name="x" unicode="x" horiz-adv-x="1206" 
d="M719 201q-41 54 -152 188q-106 -126 -157 -194q-35 -41 -19.5 -76t74.5 -35h57v-86q-155 4 -233 4l-242 -4v86h41q119 0 213 94q17 16 234 252q-191 233 -261 313q-53 63 -86.5 84t-93.5 21h-33v84q164 -4 256 -4l277 4v-84h-64q-67 0 -78.5 -31.5t25.5 -75.5
q45 -61 156 -198l176 205q19 23 21.5 45.5t-17.5 38.5t-61 16h-68v84q141 -4 219 -4l244 4v-84h-57q-56 0 -93.5 -21.5t-105.5 -87.5q-135 -135 -225 -235q236 -287 276 -332q76 -88 170 -88h47v-86q-178 4 -270 4l-277 -4v86h52q60 0 76 34t-21 83z" />
    <glyph glyph-name="y" unicode="y" horiz-adv-x="1148" 
d="M793 735q17 54 -0.5 83.5t-69.5 29.5h-61v84q133 -4 239 -4l215 4v-84h-65q-70 0 -104.5 -25.5t-63.5 -91.5q-30 -70 -83.5 -206t-125 -324t-86.5 -226q-27 -70 -49.5 -117.5t-56.5 -98.5t-70.5 -81t-89 -49.5t-115.5 -19.5q-100 0 -152.5 46.5t-52.5 117.5q0 64 38 97.5
t87 33.5q57 0 88 -27.5t31 -81.5q0 -44 -32.5 -77.5t-88.5 -36.5q37 -13 88 -13t91.5 16t82 57t80.5 116t76 188h-64q-44 128 -128.5 350t-135.5 344q-24 58 -59.5 83.5t-94.5 25.5h-41v84q142 -4 263 -4l264 4v-84h-66q-57 0 -73.5 -28t2.5 -81q60 -193 192 -530
q172 465 191 526z" />
    <glyph glyph-name="z" unicode="z" horiz-adv-x="974" 
d="M600 0h-543v66q431 551 602 790h-241q-125 0 -179.5 -59.5t-64.5 -225.5h-74q22 186 6 371q130 -10 312 -10h463l2 -62q-316 -395 -611 -794h328q107 0 168.5 71t67.5 238h71q-26 -210 -8 -391q-127 6 -299 6z" />
    <glyph glyph-name="braceleft" unicode="{" horiz-adv-x="591" 
d="M82 618v60h16q34 0 58 12t36 36t18.5 50t3.5 64t-6.5 68.5t-14 72t-17 65.5t-16.5 58q-44 160 -27.5 279.5t111 193.5t262.5 88l4 -63q-55 -12 -88 -24t-63 -35t-43.5 -54.5t-21 -84t-4 -122t14.5 -170.5q24 -178 19 -256q-13 -196 -166 -207q49 -4 83 -25.5t51 -56.5
t25.5 -75.5t7 -90.5t-5 -92.5t-9.5 -89.5q-2 -15 -3 -22q-23 -169 -16.5 -274.5t56 -158t163.5 -71.5l-4 -64q-90 8 -159 32t-120.5 68.5t-77 108t-24 153.5t34.5 202q11 38 17.5 60.5t17.5 66.5t14 72t6.5 67t-3.5 63.5t-19 48.5t-36.5 35.5t-58.5 11.5h-16z" />
    <glyph glyph-name="bar" unicode="|" horiz-adv-x="614" 
d="M289 -266q0 8 5.5 13t12.5 5q8 0 13.5 -5.5t5.5 -12.5q0 -8 -6 -13.5t-13 -5.5t-12.5 5.5t-5.5 13.5zM281 -106q0 10 7.5 18t18.5 8t19 -8t8 -18q0 -12 -8 -19.5t-19 -7.5t-18.5 7.5t-7.5 19.5zM270 53q0 14 11 25.5t26 11.5t26 -11.5t11 -25.5q0 -15 -11 -26t-26 -11
t-26 11t-11 26zM262 213q0 17 13 29t32 12t32 -12t13 -29q0 -20 -13 -32.5t-32 -12.5t-32 12.5t-13 32.5zM258 371q0 21 14 35t35 14t35 -14t14 -35t-14 -35t-35 -14t-35 14t-14 35zM254 530q0 22 15.5 38t37.5 16t37.5 -16t15.5 -38q0 -23 -15.5 -38t-37.5 -15t-37.5 15
t-15.5 38zM254 690q0 22 15 37.5t38 15.5t38 -15.5t15 -37.5q0 -23 -15 -39t-38 -16t-38 16t-15 39zM254 848q0 23 15.5 38t37.5 15t37.5 -15t15.5 -38q0 -22 -15.5 -37.5t-37.5 -15.5t-37.5 15.5t-15.5 37.5zM258 1008q0 21 14 35t35 14t35 -14t14 -35q0 -22 -14 -36
t-35 -14t-35 14t-14 36zM262 1165q0 20 13 32.5t32 12.5t32 -12.5t13 -32.5q0 -17 -13 -29t-32 -12t-32 12t-13 29zM270 1325q0 15 11 26t26 11t26 -11t11 -26q0 -14 -11 -25.5t-26 -11.5t-26 11.5t-11 25.5zM281 1485q0 12 7.5 19t18.5 7t19 -7t8 -19q0 -11 -8 -19t-19 -8
q-10 0 -18 8t-8 19zM289 1645q0 7 5.5 12.5t12.5 5.5q8 0 13.5 -5.5t5.5 -12.5t-6 -13t-13 -6t-12.5 5.5t-5.5 13.5z" />
    <glyph glyph-name="braceright" unicode="}" horiz-adv-x="573" 
d="M506 678v-60h-19q-44 0 -72 -19t-35.5 -58.5t-9 -74.5t11.5 -94.5t20.5 -88t23.5 -83.5q1 -5 2 -7q148 -518 -348 -564l-4 64q114 19 163.5 71.5t56 158t-16.5 274.5q-20 168 -17 237q11 202 166 215q-50 4 -85.5 24.5t-51 64.5t-24.5 76t-5 100t7 93.5t13 95.5q1 6 1 9
q11 101 14.5 170.5t-4 122t-21 84t-44 54.5t-64 35t-88.5 24l4 63q169 -14 264 -88t111.5 -193.5t-27.5 -279.5q-11 -36 -17 -58.5t-17 -65.5t-14.5 -72t-7 -67.5t3 -64.5t18 -50t35.5 -36t58 -12h19z" />
    <glyph glyph-name="asciitilde" unicode="~" horiz-adv-x="1089" 
d="M862 1421l45 9q26 -90 20.5 -155t-38 -107.5t-78.5 -62.5t-102 -20q-77 0 -125 34t-97 104q-31 47 -43 64t-33 39.5t-39.5 29t-45.5 6.5q-38 0 -61 -24.5t-29 -79.5t14 -142l-47 -8q-37 119 -14.5 195.5t78 112.5t136.5 36q68 0 115.5 -31.5t99.5 -107.5t85 -106.5
t81 -30.5q38 0 61.5 25.5t30 79.5t-13.5 140z" />
    <glyph glyph-name="exclamdown" unicode="&#xa1;" horiz-adv-x="481" 
d="M104 831q0 62 37 96t97 34q59 0 96 -34t37 -96q0 -60 -37.5 -95.5t-95.5 -35.5q-59 0 -96.5 36t-37.5 95zM217 522q0 25 25 25q24 0 24 -25q0 -214 19 -365.5t65 -367.5q34 -157 1 -230t-109 -73t-111 74t2 229q48 203 66 354.5t18 378.5z" />
    <glyph glyph-name="cent" unicode="&#xa2;" horiz-adv-x="1052" 
d="M522 741l-76 -467q36 -8 89 -8q136 0 221 72q-49 3 -73 32t-24 70q0 48 29 76.5t86 28.5q52 0 83.5 -30t31.5 -89q0 -95 -104 -173.5t-269 -78.5q-44 0 -84 6l-45 -280l-70 12l54 278q-150 39 -226.5 164t-76.5 318q0 233 126 366t332 133h21l43 275l69 -12l-53 -269
q117 -18 189.5 -79t72.5 -136q0 -58 -31.5 -89.5t-84.5 -31.5q-55 0 -84 29.5t-29 75.5q0 42 25.5 70t74.5 32q-58 42 -149 51zM262 674q0 -162 32 -251.5t97 -125.5l90 453l54 342q-140 0 -206.5 -95t-66.5 -323z" />
    <glyph glyph-name="sterling" unicode="&#xa3;" horiz-adv-x="1173" 
d="M182 514v78q41 -4 158 -4q-32 55 -45.5 79t-39.5 76.5t-37.5 89t-21.5 88t-10 101.5q0 132 60.5 229.5t159.5 146t221 48.5q91 0 162 -24t112.5 -64t62.5 -87.5t21 -99.5q0 -95 -35.5 -139.5t-109.5 -44.5q-51 0 -80 28t-29 75q0 45 30 71.5t83 26.5q42 0 74 -25
q-2 80 -69.5 141.5t-193.5 61.5q-141 0 -215 -90.5t-73 -263.5q0 -34 5.5 -72.5t11 -66.5t20 -74t21.5 -67t26.5 -74.5t25.5 -69.5q136 0 250 4v-78q-20 0 -99 2t-128 2q51 -155 51 -285q17 -9 70.5 -40t77.5 -42.5t68.5 -24.5t86.5 -13q202 0 236 159l55 -10
q1 -40 -7.5 -79.5t-30.5 -79t-55.5 -69.5t-86.5 -48.5t-119 -18.5q-108 0 -185.5 33t-148.5 90q-71 -121 -266 -121q-100 0 -152.5 45.5t-52.5 120.5q0 82 59.5 132t149.5 50q118 0 215 -41q-8 108 -84 244q-52 0 -199 -6zM248 27q158 0 203 116q-39 34 -63.5 52.5
t-62.5 34.5t-77 16q-70 0 -106 -31t-36 -84q0 -42 38 -73t104 -31z" />
    <glyph glyph-name="yen" unicode="&#xa5;" horiz-adv-x="1294" 
d="M219 707l244 -7q-84 199 -205 480q-34 75 -71.5 105t-110.5 30h-35v98q170 -6 272 -6l283 6v-98h-49q-129 0 -84 -139q65 -199 215 -537q128 300 203 537q11 34 14 55.5t-2 42.5t-27 31t-61 10h-53v98q172 -6 264 -6l237 6v-98h-47q-90 0 -129.5 -29t-77.5 -115
q-114 -251 -208 -471l245 7q-2 -9 -2 -50.5t2 -48.5l-282 8l-33 -81v-105l315 10q-2 -9 -2 -49t2 -49l-315 10v-149q0 -63 23 -85t98 -22h106v-96q-190 6 -321 6l-324 -6v96h105q76 0 99 22.5t23 84.5l-2 149l-309 -10v98l309 -10v109l-32 77l-277 -8v99z" />
    <glyph glyph-name="brokenbar" unicode="&#xa6;" horiz-adv-x="614" 
d="M289 -266q0 8 5.5 13t12.5 5q8 0 13.5 -5.5t5.5 -12.5q0 -8 -6 -13.5t-13 -5.5t-12.5 5.5t-5.5 13.5zM281 -106q0 10 7.5 18t18.5 8t19 -8t8 -18q0 -12 -8 -19.5t-19 -7.5t-18.5 7.5t-7.5 19.5zM270 53q0 14 11 25.5t26 11.5t26 -11.5t11 -25.5q0 -15 -11 -26t-26 -11
t-26 11t-11 26zM262 213q0 17 13 29t32 12t32 -12t13 -29q0 -20 -13 -32.5t-32 -12.5t-32 12.5t-13 32.5zM258 371q0 21 14 35t35 14t35 -14t14 -35t-14 -35t-35 -14t-35 14t-14 35zM254 530q0 22 15.5 38t37.5 16t37.5 -16t15.5 -38q0 -23 -15.5 -38t-37.5 -15t-37.5 15
t-15.5 38zM254 848q0 23 15.5 38t37.5 15t37.5 -15t15.5 -38q0 -22 -15.5 -37.5t-37.5 -15.5t-37.5 15.5t-15.5 37.5zM258 1008q0 21 14 35t35 14t35 -14t14 -35q0 -22 -14 -36t-35 -14t-35 14t-14 36zM262 1165q0 20 13 32.5t32 12.5t32 -12.5t13 -32.5q0 -17 -13 -29
t-32 -12t-32 12t-13 29zM270 1325q0 15 11 26t26 11t26 -11t11 -26q0 -14 -11 -25.5t-26 -11.5t-26 11.5t-11 25.5zM281 1485q0 12 7.5 19t18.5 7t19 -7t8 -19q0 -11 -8 -19t-19 -8q-10 0 -18 8t-8 19zM289 1645q0 7 5.5 12.5t12.5 5.5q8 0 13.5 -5.5t5.5 -12.5t-6 -13
t-13 -6t-12.5 5.5t-5.5 13.5z" />
    <glyph glyph-name="section" unicode="&#xa7;" horiz-adv-x="1556" 
d="M999 1341l15 -18q-51 -49 -80.5 -83t-65.5 -96.5t-60.5 -143t-51 -207.5t-51.5 -304q-32 -225 -77 -392t-92.5 -263t-106.5 -153.5t-110 -76t-112 -18.5q-104 0 -149 65.5t-33 153.5q9 59 43 99.5t96 40.5q45 0 73 -26.5t21 -76.5q-10 -56 -60 -78t-104 3
q-8 -121 119 -121q86 0 147 70t113.5 248t93.5 485q29 208 70.5 360.5t98 254.5t118.5 166t145 111zM557 -307l-12 18q51 49 80.5 83t65.5 96.5t60.5 143t51 207.5t51.5 304q32 225 77.5 392t93 263t106 153.5t109.5 76t112 18.5q104 0 149 -65.5t33 -153.5
q-8 -61 -41.5 -100t-97.5 -39q-44 0 -73 26t-22 74q9 56 59 79t105 -1q4 121 -118 121q-64 0 -113.5 -38t-93.5 -129.5t-80.5 -248t-67.5 -387.5q-29 -208 -70.5 -361t-98 -255t-119.5 -166t-146 -111z" />
    <glyph glyph-name="dieresis" unicode="&#xa8;" horiz-adv-x="1091" 
d="M457 1194q0 -43 -29.5 -72.5t-73.5 -29.5q-45 0 -74.5 29.5t-29.5 72.5q0 42 29.5 71t74.5 29q44 0 73.5 -29t29.5 -71zM811 1194q0 -43 -29 -72.5t-73 -29.5q-45 0 -75 29.5t-30 72.5q0 42 30 71t75 29q44 0 73 -29t29 -71z" />
    <glyph glyph-name="copyright" unicode="&#xa9;" horiz-adv-x="1720" 
d="M860 45q135 0 243 33.5t182.5 92.5t124.5 142.5t72.5 181t22.5 210.5q0 112 -25 210.5t-77 181t-127.5 142t-181.5 92.5t-234 33t-234 -33t-181.5 -92.5t-127.5 -142t-77 -181t-25 -210.5q0 -140 40 -259t118 -209t203 -141t284 -51zM860 -33q-242 0 -413 94
t-254.5 258.5t-83.5 385.5q0 162 55 300t153 234.5t238 150.5t305 54q232 0 403 -93.5t260 -260t89 -385.5q0 -165 -48.5 -300t-141.5 -233t-236.5 -151.5t-325.5 -53.5zM866 1163q131 0 240 -73q69 -48 72 53q6 -1 31.5 -1t31.5 1q-11 -58 -15.5 -144t-0.5 -145
q-36 4 -68 0q-17 111 -91.5 173.5t-191.5 62.5q-146 0 -211 -90.5t-65 -292.5q0 -108 19.5 -184t56.5 -117.5t83.5 -59.5t108.5 -18q131 0 204.5 73t82.5 203q12 -2 41 -2t41 2q-9 -178 -100 -264t-271 -86q-424 0 -424 453q0 115 32 203.5t90 143t134.5 82t169.5 27.5z" />
    <glyph glyph-name="ordfeminine" unicode="&#xaa;" horiz-adv-x="995" 
d="M698 1165v-270q0 -50 11 -67t32 -17q66 0 54 170l49 4q6 -125 -22.5 -185.5t-110.5 -60.5q-138 0 -142 138q-66 -136 -211 -136q-94 0 -146 43.5t-52 128.5q0 205 409 226v37q0 109 -31 156t-126 46q-85 -3 -127 -32q38 -3 60 -25.5t22 -56.5t-25 -57t-66 -23
q-39 0 -63.5 24t-24.5 66q0 71 75.5 114.5t182.5 43.5q143 0 197.5 -67.5t54.5 -199.5zM121 453v120q95 -3 365.5 -3t365.5 3v-120q-95 3 -365.5 3t-365.5 -3zM408 813q77 0 119 56.5t42 166.5v68q-260 -16 -260 -182q0 -52 26.5 -80.5t72.5 -28.5z" />
    <glyph glyph-name="guillemotleft" unicode="&#xab;" horiz-adv-x="856" 
d="M463 858l22 -18q-44 -68 -128.5 -171t-141.5 -157q56 -53 141 -156.5t129 -169.5l-22 -18q-183 157 -373 303v86q158 121 373 301zM764 858l22 -18q-44 -68 -128.5 -171t-141.5 -157q56 -53 141 -156.5t129 -169.5l-22 -18q-183 157 -373 303v86q158 121 373 301z" />
    <glyph glyph-name="registered" unicode="&#xae;" horiz-adv-x="1720" 
d="M860 45q135 0 243 33.5t182.5 92.5t124.5 142.5t72.5 181t22.5 210.5q0 112 -25 210.5t-77 181t-127.5 142t-181.5 92.5t-234 33t-234 -33t-181.5 -92.5t-127.5 -142t-77 -181t-25 -210.5q0 -140 40 -259t118 -209t203 -141t284 -51zM860 -33q-242 0 -413 94
t-254.5 258.5t-83.5 385.5q0 162 55 300t153 234.5t238 150.5t305 54q232 0 403 -93.5t260 -260t89 -385.5q0 -165 -48.5 -300t-141.5 -233t-236.5 -151.5t-325.5 -53.5zM1147 532q18 -103 36.5 -138.5t49.5 -35.5q34 0 46.5 53t-1.5 148l53 4q12 -56 12 -103.5t-13 -88
t-47.5 -63.5t-88.5 -23q-107 0 -147 53.5t-48 179.5q-6 102 -46.5 135t-133.5 33h-90q0 -196 4 -246q1 -35 18 -50t54 -15h65v-72q-132 4 -208 4l-211 -4v72h63q44 0 62.5 14t19.5 51q2 40 2 289t-2 287q-1 35 -16 49t-50 14h-79v74q4 0 100.5 -2t116.5 -2h213
q331 0 331 -223q0 -89 -58.5 -148t-145.5 -73q65 -14 95 -54.5t44 -118.5zM733 1036q-4 -62 -4 -295h107q119 0 172 41.5t53 137.5q0 87 -46 127t-157 40h-74q-27 0 -38 -12.5t-13 -38.5z" />
    <glyph glyph-name="macron" unicode="&#xaf;" horiz-adv-x="1089" 
d="M258 1165q3 54 0 111q94 -3 268.5 -3t268.5 3q-3 -55 0 -111q-94 3 -268.5 3t-268.5 -3z" />
    <glyph glyph-name="degree" unicode="&#xb0;" horiz-adv-x="665" 
d="M332 821q188 0 188 266q0 149 -50.5 210t-137.5 61q-83 0 -135 -64.5t-52 -206.5q0 -78 13 -131t39 -82t58.5 -41t76.5 -12zM332 762q-129 0 -200 80t-71 245q0 162 77.5 245t193.5 83q129 0 200.5 -81.5t71.5 -246.5q0 -162 -77 -243.5t-195 -81.5z" />
    <glyph glyph-name="plusminus" unicode="&#xb1;" 
d="M164 0q2 17 2 52t-2 52q200 -4 397 -4q5 260 23 383q-95 -13 -426 -22v104q314 -9 426 -24q-14 106 -23 428h105q-8 -303 -25 -428q115 15 430 24v-104q-335 9 -430 22q18 -148 23 -383q201 0 401 4q-4 -50 0 -104q-451 8 -901 0z" />
    <glyph glyph-name="acute" unicode="&#xb4;" horiz-adv-x="1089" 
d="M354 1055l-16 20q11 12 52 57t60 65.5t51 53.5t55.5 55t43.5 37q34 25 67 12.5t35.5 -42.5t-28.5 -58q-107 -83 -320 -200z" />
    <glyph glyph-name="paragraph" unicode="&#xb6;" horiz-adv-x="1071" 
d="M623 -2q2 20 2 530q-252 3 -378 115.5t-126 327.5q0 120 37.5 205.5t109.5 136t166.5 73.5t218.5 23h316v-84h-72q-56 0 -80 -21t-24 -79l2 -1229q0 -210 -78 -306t-232 -96q-122 0 -182.5 51.5t-60.5 125.5q0 63 33 94t81 31q54 0 83.5 -29t29.5 -78q0 -37 -22 -70
t-64 -49q33 -16 72 -16q40 0 67 12.5t50.5 48t36 105.5t14.5 178z" />
    <glyph glyph-name="periodcentered" unicode="&#xb7;" horiz-adv-x="512" 
d="M389 502q0 -62 -36.5 -95.5t-96.5 -33.5q-58 0 -95.5 33.5t-37.5 95.5q0 60 38 95.5t95 35.5q59 0 96 -36t37 -95z" />
    <glyph glyph-name="cedilla" unicode="&#xb8;" horiz-adv-x="1089" 
d="M440 -229l-20 36q76 42 107.5 87.5t37.5 117.5l43 -8q5 -43 -12.5 -88t-58.5 -78q94 15 166.5 -25.5t72.5 -131.5q0 -88 -63 -138.5t-172 -50.5q-149 0 -211 115l37 31q60 -76 149 -76q65 0 98 32t33 89q0 67 -59 94t-148 -6z" />
    <glyph glyph-name="ordmasculine" unicode="&#xba;" horiz-adv-x="950" 
d="M154 1077q0 175 86 265t237 90q149 0 235.5 -90.5t86.5 -264.5q0 -167 -87 -257.5t-235 -90.5q-151 0 -237 90t-86 258zM303 1077q0 -90 13 -149.5t38.5 -89.5t54 -41t68.5 -11q38 0 66.5 11t54.5 40.5t39.5 90t13.5 149.5t-14 150.5t-40 92t-55 42.5t-67 12t-67 -12.5
t-54 -43.5t-38 -91.5t-13 -149.5zM125 453v120q95 -3 349 -3t351 3v-120q-97 3 -351 3t-349 -3z" />
    <glyph glyph-name="guillemotright" unicode="&#xbb;" horiz-adv-x="856" 
d="M70 840l22 18q118 -92 373 -301v-86q-190 -146 -373 -303l-22 18q46 66 131 170t139 156q-56 54 -140.5 157t-129.5 171zM371 840l22 18q118 -92 373 -301v-86q-190 -146 -373 -303l-22 18q46 66 131 170t139 156q-56 54 -140.5 157t-129.5 171z" />
    <glyph glyph-name="onequarter" unicode="&#xbc;" horiz-adv-x="774" 
d="M29 705q0 14 10 24t27 10q14 0 24 -10.5t10 -23.5q0 -17 -10 -27t-24 -10q-37 0 -37 37zM162 705q0 12 9 21t24 9q12 0 21 -9t9 -21q0 -15 -9 -24t-21 -9q-15 0 -24 9t-9 24zM293 705q0 11 9 19.5t22 8.5q10 0 19 -8.5t9 -19.5q0 -13 -8.5 -22t-19.5 -9q-14 0 -22.5 9
t-8.5 22zM422 705q0 11 9 19.5t22 8.5q11 0 19.5 -8.5t8.5 -19.5q0 -13 -8.5 -22t-19.5 -9q-13 0 -22 9t-9 22zM549 705q0 12 9 21t24 9q12 0 21 -9t9 -21q0 -15 -9 -24t-21 -9q-15 0 -24 9t-9 24zM674 705q0 14 10 24t27 10q13 0 23.5 -10.5t10.5 -23.5q0 -17 -10 -27
t-24 -10q-37 0 -37 37zM266 872q62 0 62 50v358q-113 -11 -129 -6v59h34q78 0 113 31.5t43 89.5h64q-7 -106 -7 -223v-309q0 -25 13.5 -37.5t46.5 -12.5h78v-55q-127 2 -197 2l-197 -2v55h76zM358 10q36 0 49 7t13 30v47h-305v41l362 451h58v-451l124 2v-45l-124 2v-47
q0 -22 12.5 -29.5t46.5 -7.5h59v-55q-113 4 -176 4l-178 -4v55h59zM420 133q0 239 -2 313l-246 -313h248z" />
    <glyph glyph-name="onehalf" unicode="&#xbd;" horiz-adv-x="774" 
d="M29 705q0 14 10 24t27 10q14 0 24 -10.5t10 -23.5q0 -17 -10 -27t-24 -10q-37 0 -37 37zM162 705q0 12 9 21t24 9q12 0 21 -9t9 -21q0 -15 -9 -24t-21 -9q-15 0 -24 9t-9 24zM293 705q0 11 9 19.5t22 8.5q10 0 19 -8.5t9 -19.5q0 -13 -8.5 -22t-19.5 -9q-14 0 -22.5 9
t-8.5 22zM422 705q0 11 9 19.5t22 8.5q11 0 19.5 -8.5t8.5 -19.5q0 -13 -8.5 -22t-19.5 -9q-13 0 -22 9t-9 22zM549 705q0 12 9 21t24 9q12 0 21 -9t9 -21q0 -15 -9 -24t-21 -9q-15 0 -24 9t-9 24zM674 705q0 14 10 24t27 10q13 0 23.5 -10.5t10.5 -23.5q0 -17 -10 -27
t-24 -10q-37 0 -37 37zM616 137q29 -82 -5.5 -140t-121.5 -58q-19 0 -36.5 3t-28 5t-28 11t-22 11.5t-25.5 16.5t-25 16q-44 28 -86.5 29.5t-57.5 -23.5q21 3 38.5 -7t17.5 -28q0 -16 -11.5 -25t-27.5 -9q-52 0 -52 63q0 83 45 139t146 107q84 39 121 78t37 98
q0 121 -136 121q-51 0 -95 -20t-58 -58q16 8 43 8q71 0 71 -63q0 -28 -20 -46t-57 -18q-35 0 -57.5 22t-22.5 62q0 73 62 117.5t157 44.5q117 0 173 -45t56 -121q0 -79 -49 -128.5t-158 -80.5q-194 -56 -225 -170q27 33 87.5 41t125.5 -10q39 -11 71.5 -16t64.5 -3t46.5 20
t6.5 52zM266 872q62 0 62 50v358q-113 -11 -129 -6v59h34q78 0 113 31.5t43 89.5h64q-7 -106 -7 -223v-309q0 -25 13.5 -37.5t46.5 -12.5h78v-55q-127 2 -197 2l-197 -2v55h76z" />
    <glyph glyph-name="threequarters" unicode="&#xbe;" horiz-adv-x="774" 
d="M29 705q0 14 10 24t27 10q14 0 24 -10.5t10 -23.5q0 -17 -10 -27t-24 -10q-37 0 -37 37zM162 705q0 12 9 21t24 9q12 0 21 -9t9 -21q0 -15 -9 -24t-21 -9q-15 0 -24 9t-9 24zM293 705q0 11 9 19.5t22 8.5q10 0 19 -8.5t9 -19.5q0 -13 -8.5 -22t-19.5 -9q-14 0 -22.5 9
t-8.5 22zM422 705q0 11 9 19.5t22 8.5q11 0 19.5 -8.5t8.5 -19.5q0 -13 -8.5 -22t-19.5 -9q-13 0 -22 9t-9 22zM549 705q0 12 9 21t24 9q12 0 21 -9t9 -21q0 -15 -9 -24t-21 -9q-15 0 -24 9t-9 24zM674 705q0 14 10 24t27 10q13 0 23.5 -10.5t10.5 -23.5q0 -17 -10 -27
t-24 -10q-37 0 -37 37zM608 1294q0 -57 -36.5 -94t-98.5 -53q81 -10 126.5 -54t45.5 -106q0 -94 -73.5 -139t-204.5 -45q-107 0 -172.5 44t-65.5 109q0 40 24 63t60 23q38 0 59 -18.5t21 -46.5q0 -30 -19.5 -48t-54.5 -18q-15 0 -35 4q38 -67 164 -67q90 0 128 34t38 105
q0 69 -40 100t-132 31h-35v45h33q81 1 115 31.5t34 97.5q0 53 -32.5 83t-98.5 30q-110 0 -147 -66q18 7 37 7q33 0 52 -18t19 -46q0 -27 -19.5 -46t-59.5 -19q-33 0 -56.5 21.5t-23.5 59.5q0 67 63.5 112.5t163.5 45.5q103 0 162 -42.5t59 -119.5zM358 10q36 0 49 7t13 30
v47h-305v41l362 451h58v-451l124 2v-45l-124 2v-47q0 -22 12.5 -29.5t46.5 -7.5h59v-55q-113 4 -176 4l-178 -4v55h59zM420 133q0 239 -2 313l-246 -313h248z" />
    <glyph glyph-name="questiondown" unicode="&#xbf;" horiz-adv-x="1026" 
d="M315 381l-28 45q53 59 124 95t144 36q62 0 99.5 -33t37.5 -88q0 -56 -38.5 -94.5t-131.5 -85.5q-79 -42 -128 -87t-80 -122.5t-31 -185.5q0 -132 73.5 -212.5t225.5 -80.5q71 0 134.5 21t114.5 74t60 130q-45 -29 -90 -29q-57 0 -88 33t-31 88q0 53 37 86t98 33
q67 0 105.5 -45t38.5 -131q0 -146 -115.5 -244t-323.5 -98q-216 0 -327 100.5t-111 270.5q0 164 94 266.5t295 189.5q85 38 115 62t30 55q0 62 -71 62q-121 0 -232 -111zM387 831q0 62 36.5 96t96.5 34q58 0 94.5 -34t36.5 -96q0 -60 -37 -95.5t-94 -35.5q-59 0 -96 36
t-37 95z" />
    <glyph glyph-name="Agrave" unicode="&#xc0;" horiz-adv-x="1785" 
d="M1210 279l-63 178q-299 7 -594 0l-66 -183q-34 -86 -8.5 -131t123.5 -45h98l-2 -102q-200 4 -313 4l-313 -4v102h86q87 0 131.5 34t81.5 128q30 73 217.5 563t228.5 604q51 -4 86 -4l88 4q56 -169 210 -569.5t233 -597.5q39 -94 77.5 -128t112.5 -34h90v-102
q-223 4 -348 4l-350 -4l2 102h96q82 0 105 44.5t-9 136.5zM1116 543q-155 425 -262 706l-270 -706q264 -4 532 0zM989 1550l-14 -20q-216 118 -322 201q-33 25 -28 58t35.5 42.5t68.5 -12.5q25 -19 60.5 -54t60.5 -62t73.5 -80.5t65.5 -72.5z" />
    <glyph glyph-name="Aacute" unicode="&#xc1;" horiz-adv-x="1785" 
d="M1210 279l-63 178q-299 7 -594 0l-66 -183q-34 -86 -8.5 -131t123.5 -45h98l-2 -102q-200 4 -313 4l-313 -4v102h86q87 0 131.5 34t81.5 128q30 73 217.5 563t228.5 604q51 -4 86 -4l88 4q56 -169 210 -569.5t233 -597.5q39 -94 77.5 -128t112.5 -34h90v-102
q-223 4 -348 4l-350 -4l2 102h96q82 0 105 44.5t-9 136.5zM1116 543q-155 425 -262 706l-270 -706q264 -4 532 0zM862 1532l-16 20q15 16 52.5 58t59 64.5t52 54.5t54.5 54.5t44 37.5q34 25 67 12.5t35.5 -42.5t-28.5 -58q-111 -86 -320 -201z" />
    <glyph glyph-name="Acircumflex" unicode="&#xc2;" horiz-adv-x="1785" 
d="M1210 279l-63 178q-299 7 -594 0l-66 -183q-34 -86 -8.5 -131t123.5 -45h98l-2 -102q-200 4 -313 4l-313 -4v102h86q87 0 131.5 34t81.5 128q30 73 217.5 563t228.5 604q51 -4 86 -4l88 4q56 -169 210 -569.5t233 -597.5q39 -94 77.5 -128t112.5 -34h90v-102
q-223 4 -348 4l-350 -4l2 102h96q82 0 105 44.5t-9 136.5zM1116 543q-155 425 -262 706l-270 -706q264 -4 532 0zM1190 1532l-14 -21q-57 39 -142.5 110t-132.5 118q-43 -46 -129 -118t-141 -110l-15 21q60 115 244 299h86q57 -52 132.5 -142.5t111.5 -156.5z" />
    <glyph glyph-name="Atilde" unicode="&#xc3;" horiz-adv-x="1785" 
d="M1210 279l-63 178q-299 7 -594 0l-66 -183q-34 -86 -8.5 -131t123.5 -45h98l-2 -102q-200 4 -313 4l-313 -4v102h86q87 0 131.5 34t81.5 128q30 73 217.5 563t228.5 604q51 -4 86 -4l88 4q56 -169 210 -569.5t233 -597.5q39 -94 77.5 -128t112.5 -34h90v-102
q-223 4 -348 4l-350 -4l2 102h96q82 0 105 44.5t-9 136.5zM1116 543q-155 425 -262 706l-270 -706q264 -4 532 0zM1151 1829l39 8q31 -101 10.5 -165.5t-67.5 -95t-111 -30.5q-65 0 -105.5 28.5t-80.5 88.5q-25 38 -36 53.5t-29 34t-34.5 24t-38.5 5.5q-49 0 -67 -48.5
t4 -158.5l-39 -8q-43 143 9.5 216.5t158.5 73.5q58 0 98.5 -26t83.5 -90q43 -65 70.5 -91t68.5 -26q49 0 68 50t-2 157z" />
    <glyph glyph-name="Adieresis" unicode="&#xc4;" horiz-adv-x="1785" 
d="M1210 279l-63 178q-299 7 -594 0l-66 -183q-34 -86 -8.5 -131t123.5 -45h98l-2 -102q-200 4 -313 4l-313 -4v102h86q87 0 131.5 34t81.5 128q30 73 217.5 563t228.5 604q51 -4 86 -4l88 4q56 -169 210 -569.5t233 -597.5q39 -94 77.5 -128t112.5 -34h90v-102
q-223 4 -348 4l-350 -4l2 102h96q82 0 105 44.5t-9 136.5zM1116 543q-155 425 -262 706l-270 -706q264 -4 532 0zM829 1655q0 -43 -29 -73t-73 -30q-45 0 -74.5 30t-29.5 73q0 42 29.5 71t74.5 29q44 0 73 -29t29 -71zM1184 1655q0 -43 -29.5 -73t-73.5 -30q-45 0 -74.5 30
t-29.5 73q0 42 29.5 71t74.5 29q44 0 73.5 -29t29.5 -71z" />
    <glyph glyph-name="Aring" unicode="&#xc5;" horiz-adv-x="1785" 
d="M1210 279l-63 178q-299 7 -594 0l-66 -183q-34 -86 -8.5 -131t123.5 -45h98l-2 -102q-200 4 -313 4l-313 -4v102h86q87 0 131.5 34t81.5 128q30 73 217.5 563t228.5 604q51 -4 86 -4l88 4q56 -169 210 -569.5t233 -597.5q39 -94 77.5 -128t112.5 -34h90v-102
q-223 4 -348 4l-350 -4l2 102h96q82 0 105 44.5t-9 136.5zM1116 543q-155 425 -262 706l-270 -706q264 -4 532 0zM1008 1696q0 50 -27.5 77t-71.5 27q-45 0 -71.5 -27t-26.5 -77q0 -51 26.5 -80t71.5 -29q44 0 71.5 29.5t27.5 79.5zM1075 1696q0 -73 -47 -119.5t-119 -46.5
q-73 0 -120.5 46.5t-47.5 119.5t46 118.5t120 45.5t121 -45.5t47 -118.5z" />
    <glyph glyph-name="AE" unicode="&#xc6;" horiz-adv-x="2187" 
d="M2101 504q-18 -206 -18 -512q-96 8 -397 8h-570q-293 0 -350 -2v100h145q65 0 90 27t25 84q0 3 1 74t1 129q-242 4 -422 -2l-65 -131q-17 -36 -25.5 -63t-8.5 -50t11.5 -37.5t37 -22.5t65.5 -8h79l-2 -100q-200 4 -313 4l-313 -4v100h88q86 0 134 34.5t105 131.5
q120 202 285.5 493t245.5 449q28 57 9 88t-77 31h-80v92q104 -8 336 -8q2 0 205 1t375 1q287 0 383 12q-12 -205 -4 -477l-92 -2v33q0 190 -64.5 262t-234.5 72h-377q-43 0 -63 -22t-23 -66q-4 -94 -4 -463h131q152 0 210 51t58 197v28h92q0 -27 -3 -127t-3 -188
q0 -224 6 -328h-90v29q-3 139 -60 198.5t-202 59.5h-139q0 -381 4 -479q6 -103 94 -103h373q167 0 238 85.5t71 285.5v35h102zM651 496q188 -3 377 0q3 415 -2 702q-166 -295 -375 -702z" />
    <glyph glyph-name="Ccedilla" unicode="&#xc7;" horiz-adv-x="1490" 
d="M653 -229l-20 36q62 35 93.5 70.5t43.5 83.5q-156 2 -277 46t-209.5 132.5t-135 232t-46.5 337.5q0 192 52.5 337t147 232.5t216.5 130.5t270 43q206 0 363 -94q69 -40 97 -25.5t38 97.5h96q-15 -104 -22 -236t0 -266q-52 8 -107 0q-11 96 -36.5 169t-75.5 135t-135 95
t-203 33q-236 0 -352.5 -155.5t-116.5 -495.5q0 -148 21.5 -261.5t60 -187.5t96 -121t124.5 -66.5t150 -19.5q457 0 484 482q19 -1 58 -1t56 1q-18 -292 -148.5 -429.5t-416.5 -144.5q-11 -75 -69 -123q94 15 166.5 -25.5t72.5 -131.5q0 -88 -63 -138.5t-172 -50.5
q-149 0 -211 115l37 31q60 -76 149 -76q65 0 98 32t33 89q0 67 -59 94t-148 -6z" />
    <glyph glyph-name="Egrave" unicode="&#xc8;" horiz-adv-x="1492" 
d="M924 1008v28h92q0 -27 -3 -127t-3 -188q0 -224 6 -328h-90v29q-3 139 -59 197.5t-203 58.5h-140q0 -381 4 -479q6 -101 95 -101h372q177 0 243 89.5t69 320.5h100q-20 -223 -16 -516q-96 8 -400 8h-569l-350 -4v102h145q64 0 88 26t27 83q3 75 3 508t-3 508q-3 54 -24 73
t-77 19h-159v98q15 0 172 -2t182 -2q14 0 100.5 0.5t219 1t258.5 0.5q286 0 382 12q-13 -209 -4 -491h-92q0 93 -8 154.5t-27 107.5t-54.5 70.5t-85 35.5t-124.5 11h-377q-43 0 -63 -22t-23 -66q-4 -94 -4 -463h160q132 0 186 54.5t54 193.5zM942 1550l-14 -20
q-216 118 -322 201q-33 25 -28 58t35.5 42.5t68.5 -12.5q25 -19 60.5 -54t60.5 -62t73.5 -80.5t65.5 -72.5z" />
    <glyph glyph-name="Eacute" unicode="&#xc9;" horiz-adv-x="1492" 
d="M727 1532l-16 20q15 16 52.5 58t59 64.5t52 54.5t54.5 54.5t44 37.5q34 25 67 12.5t35.5 -42.5t-28.5 -58q-111 -86 -320 -201zM924 1008v28h92q0 -27 -3 -127t-3 -188q0 -224 6 -328h-90v29q-3 139 -59 197.5t-203 58.5h-140q0 -381 4 -479q6 -101 95 -101h372
q177 0 243 89.5t69 320.5h100q-20 -223 -16 -516q-96 8 -400 8h-569l-350 -4v102h145q64 0 88 26t27 83q3 75 3 508t-3 508q-3 54 -24 73t-77 19h-159v98q15 0 172 -2t182 -2q14 0 100.5 0.5t219 1t258.5 0.5q286 0 382 12q-13 -209 -4 -491h-92q0 93 -8 154.5t-27 107.5
t-54.5 70.5t-85 35.5t-124.5 11h-377q-43 0 -63 -22t-23 -66q-4 -94 -4 -463h160q132 0 186 54.5t54 193.5z" />
    <glyph glyph-name="Ecircumflex" unicode="&#xca;" horiz-adv-x="1492" 
d="M1102 1532l-15 -21q-57 39 -142 110t-132 118q-43 -46 -129 -118t-141 -110l-15 21q60 115 244 299h86q57 -52 132.5 -142.5t111.5 -156.5zM924 1008v28h92q0 -27 -3 -127t-3 -188q0 -224 6 -328h-90v29q-3 139 -59 197.5t-203 58.5h-140q0 -381 4 -479q6 -101 95 -101
h372q177 0 243 89.5t69 320.5h100q-20 -223 -16 -516q-96 8 -400 8h-569l-350 -4v102h145q64 0 88 26t27 83q3 75 3 508t-3 508q-3 54 -24 73t-77 19h-159v98q15 0 172 -2t182 -2q14 0 100.5 0.5t219 1t258.5 0.5q286 0 382 12q-13 -209 -4 -491h-92q0 93 -8 154.5
t-27 107.5t-54.5 70.5t-85 35.5t-124.5 11h-377q-43 0 -63 -22t-23 -66q-4 -94 -4 -463h160q132 0 186 54.5t54 193.5z" />
    <glyph glyph-name="Edieresis" unicode="&#xcb;" horiz-adv-x="1492" 
d="M737 1671q0 -43 -29 -72.5t-73 -29.5q-45 0 -75 29.5t-30 72.5q0 42 30 71.5t75 29.5q44 0 73 -29.5t29 -71.5zM1092 1671q0 -43 -29.5 -72.5t-73.5 -29.5q-45 0 -74.5 29.5t-29.5 72.5q0 42 29.5 71.5t74.5 29.5q44 0 73.5 -29.5t29.5 -71.5zM924 1008v28h92
q0 -27 -3 -127t-3 -188q0 -224 6 -328h-90v29q-3 139 -59 197.5t-203 58.5h-140q0 -381 4 -479q6 -101 95 -101h372q177 0 243 89.5t69 320.5h100q-20 -223 -16 -516q-96 8 -400 8h-569l-350 -4v102h145q64 0 88 26t27 83q3 75 3 508t-3 508q-3 54 -24 73t-77 19h-159v98
q15 0 172 -2t182 -2q14 0 100.5 0.5t219 1t258.5 0.5q286 0 382 12q-13 -209 -4 -491h-92q0 93 -8 154.5t-27 107.5t-54.5 70.5t-85 35.5t-124.5 11h-377q-43 0 -63 -22t-23 -66q-4 -94 -4 -463h160q132 0 186 54.5t54 193.5z" />
    <glyph glyph-name="Igrave" unicode="&#xcc;" horiz-adv-x="862" 
d="M92 -4v102h121q70 0 94.5 18t24.5 70q3 95 3 521t-3 505q-1 59 -25.5 81t-81.5 22h-133v98q219 -6 340 -6q72 0 202 3t136 3v-98h-133q-57 0 -80.5 -22t-26.5 -81q-4 -89 -3.5 -505t3.5 -521q1 -52 25.5 -70t95.5 -18h119v-102q-217 4 -338 4zM526 1550l-14 -20
q-216 118 -322 201q-33 25 -28 58t35.5 42.5t68.5 -12.5q25 -19 60.5 -54t60.5 -62t73.5 -80.5t65.5 -72.5z" />
    <glyph glyph-name="Iacute" unicode="&#xcd;" horiz-adv-x="862" 
d="M92 -4v102h121q70 0 94.5 18t24.5 70q3 95 3 521t-3 505q-1 59 -25.5 81t-81.5 22h-133v98q219 -6 340 -6q72 0 202 3t136 3v-98h-133q-57 0 -80.5 -22t-26.5 -81q-4 -89 -3.5 -505t3.5 -521q1 -52 25.5 -70t95.5 -18h119v-102q-217 4 -338 4zM379 1532l-17 20
q11 12 52.5 57.5t60 65.5t51 53.5t56 55.5t43.5 37q34 25 67 12.5t35 -42.5t-29 -58q-113 -88 -319 -201z" />
    <glyph glyph-name="Icircumflex" unicode="&#xce;" horiz-adv-x="862" 
d="M92 -4v102h121q70 0 94.5 18t24.5 70q3 95 3 521t-3 505q-1 59 -25.5 81t-81.5 22h-133v98q219 -6 340 -6q72 0 202 3t136 3v-98h-133q-57 0 -80.5 -22t-26.5 -81q-4 -89 -3.5 -505t3.5 -521q1 -52 25.5 -70t95.5 -18h119v-102q-217 4 -338 4zM717 1538l-15 -20
q-57 39 -142 109.5t-132 117.5q-43 -46 -128.5 -117.5t-141.5 -109.5l-15 20q60 115 244 299h86q57 -52 132.5 -142.5t111.5 -156.5z" />
    <glyph glyph-name="Idieresis" unicode="&#xcf;" horiz-adv-x="862" 
d="M92 -4v102h121q70 0 94.5 18t24.5 70q3 95 3 521t-3 505q-1 59 -25.5 81t-81.5 22h-133v98q219 -6 340 -6q72 0 202 3t136 3v-98h-133q-57 0 -80.5 -22t-26.5 -81q-4 -89 -3.5 -505t3.5 -521q1 -52 25.5 -70t95.5 -18h119v-102q-217 4 -338 4zM356 1671q0 -43 -29 -72.5
t-73 -29.5q-45 0 -74.5 29.5t-29.5 72.5q0 42 29.5 71.5t74.5 29.5q44 0 73 -29.5t29 -71.5zM711 1671q0 -43 -29.5 -72.5t-73.5 -29.5q-45 0 -74.5 29.5t-29.5 72.5q0 42 29.5 71.5t74.5 29.5q44 0 73.5 -29.5t29.5 -71.5z" />
    <glyph glyph-name="Eth" unicode="&#xd0;" horiz-adv-x="1605" 
d="M778 1411q369 0 545 -168t180 -526q2 -155 -35 -278t-102.5 -204.5t-159 -135t-199 -76.5t-229.5 -23h-350l-350 -4v102h133q74 0 97 15.5t24 68.5q0 2 1 179.5t1 314.5q-43 0 -105 -1t-77 -1v102q78 -4 182 -4q0 414 -2 451q-1 55 -22.5 73.5t-78.5 18.5h-153v98
q9 0 155.5 -2t202.5 -2q52 0 194 1t148 1zM528 184q1 -49 27 -74.5t66 -25.5h133q109 0 190 18t147.5 61.5t107.5 116t63 181.5t22 258q0 329 -122.5 467.5t-405.5 138.5h-142q-43 0 -63 -21t-23 -65q-4 -110 -4 -467q146 0 248 4v-102q-51 2 -248 2q0 -378 4 -492z" />
    <glyph glyph-name="Ntilde" unicode="&#xd1;" horiz-adv-x="1720" 
d="M524 1413q279 -424 746 -1089q3 170 3 487.5t-3 392.5q-1 61 -28.5 86t-86.5 25h-135v98q7 0 125.5 -3t183.5 -3q50 0 124.5 1.5t129 3t55.5 1.5v-98h-137q-60 0 -87 -24.5t-28 -86.5q-3 -83 -3 -582.5t3 -623.5q-19 2 -67.5 2t-67.5 -2q-411 618 -802 1180
q-2 -228 -1.5 -570.5t3.5 -412.5q2 -54 27.5 -75.5t94.5 -21.5h129v-102q-198 4 -309 4l-311 -4v102h129q69 0 95 21.5t28 75.5q3 103 3.5 515.5t-3.5 501.5q-3 59 -27.5 81t-81.5 22h-141v98q222 -8 440 0zM1085 1829l39 8q31 -101 10.5 -165.5t-67.5 -95t-111 -30.5
q-65 0 -105.5 28.5t-80.5 88.5q-33 50 -47 68.5t-37.5 33.5t-52.5 15q-49 0 -67 -48.5t3 -158.5l-39 -8q-43 143 9.5 216.5t158.5 73.5q58 0 99 -26t84 -90q43 -65 70.5 -91t68.5 -26q49 0 68 50t-3 157z" />
    <glyph glyph-name="Ograve" unicode="&#xd2;" horiz-adv-x="1583" 
d="M791 53q234 0 351.5 160.5t117.5 495.5q0 336 -116.5 494.5t-352.5 158.5q-223 0 -345 -162.5t-122 -492.5q0 -176 29.5 -301.5t90 -203t145.5 -113.5t202 -36zM791 -39q-329 0 -509 195.5t-180 550.5q0 178 51 320t143 234.5t218 141.5t277 49q337 0 513.5 -196.5
t176.5 -546.5q0 -178 -52 -321t-144.5 -235.5t-218 -142t-275.5 -49.5zM887 1550l-15 -20q-212 116 -321 201q-33 25 -28 58t35.5 42.5t68.5 -12.5q25 -19 60.5 -54t60.5 -62t73.5 -80.5t65.5 -72.5z" />
    <glyph glyph-name="Oacute" unicode="&#xd3;" horiz-adv-x="1583" 
d="M739 1532l-16 20q15 16 52.5 58t59 64.5t52 54.5t54.5 54.5t44 37.5q34 25 67 12.5t35.5 -42.5t-28.5 -58q-111 -86 -320 -201zM791 53q234 0 351.5 160.5t117.5 495.5q0 336 -116.5 494.5t-352.5 158.5q-223 0 -345 -162.5t-122 -492.5q0 -176 29.5 -301.5t90 -203
t145.5 -113.5t202 -36zM791 -39q-329 0 -509 195.5t-180 550.5q0 178 51 320t143 234.5t218 141.5t277 49q337 0 513.5 -196.5t176.5 -546.5q0 -178 -52 -321t-144.5 -235.5t-218 -142t-275.5 -49.5z" />
    <glyph glyph-name="Ocircumflex" unicode="&#xd4;" horiz-adv-x="1583" 
d="M1081 1532l-14 -21q-57 39 -142 110t-132 118q-43 -46 -129 -118t-142 -110l-14 21q60 115 244 299h86q57 -51 132 -141.5t111 -157.5zM791 53q234 0 351.5 160.5t117.5 495.5q0 336 -116.5 494.5t-352.5 158.5q-223 0 -345 -162.5t-122 -492.5q0 -176 29.5 -301.5
t90 -203t145.5 -113.5t202 -36zM791 -39q-329 0 -509 195.5t-180 550.5q0 178 51 320t143 234.5t218 141.5t277 49q337 0 513.5 -196.5t176.5 -546.5q0 -178 -52 -321t-144.5 -235.5t-218 -142t-275.5 -49.5z" />
    <glyph glyph-name="Otilde" unicode="&#xd5;" horiz-adv-x="1583" 
d="M791 53q234 0 351.5 160.5t117.5 495.5q0 336 -116.5 494.5t-352.5 158.5q-223 0 -345 -162.5t-122 -492.5q0 -176 29.5 -301.5t90 -203t145.5 -113.5t202 -36zM791 -39q-329 0 -509 195.5t-180 550.5q0 178 51 320t143 234.5t218 141.5t277 49q337 0 513.5 -196.5
t176.5 -546.5q0 -178 -52 -321t-144.5 -235.5t-218 -142t-275.5 -49.5zM1049 1829l38 8q31 -101 10.5 -165.5t-67 -95t-110.5 -30.5q-65 0 -106 29t-81 88q-33 50 -47 68.5t-37.5 33.5t-52.5 15q-49 0 -67 -48.5t3 -158.5l-38 -8q-43 143 9.5 216.5t158.5 73.5
q58 0 98.5 -26t83.5 -90q43 -65 70.5 -91t68.5 -26q49 0 68 50t-2 157z" />
    <glyph glyph-name="Odieresis" unicode="&#xd6;" horiz-adv-x="1583" 
d="M733 1671q0 -43 -29 -72.5t-73 -29.5q-45 0 -75 29.5t-30 72.5q0 42 30 71.5t75 29.5q44 0 73 -29.5t29 -71.5zM1087 1671q0 -43 -29 -72.5t-73 -29.5q-45 0 -74.5 29.5t-29.5 72.5q0 42 29.5 71.5t74.5 29.5q44 0 73 -29.5t29 -71.5zM791 53q234 0 351.5 160.5
t117.5 495.5q0 336 -116.5 494.5t-352.5 158.5q-223 0 -345 -162.5t-122 -492.5q0 -176 29.5 -301.5t90 -203t145.5 -113.5t202 -36zM791 -39q-329 0 -509 195.5t-180 550.5q0 178 51 320t143 234.5t218 141.5t277 49q337 0 513.5 -196.5t176.5 -546.5q0 -178 -52 -321
t-144.5 -235.5t-218 -142t-275.5 -49.5z" />
    <glyph glyph-name="multiply" unicode="&#xd7;" 
d="M975 223l-74 -73q-57 57 -150.5 158t-140.5 163q-20 -27 -50 -62.5t-68 -78t-62 -68.5t-63 -68l-39 -42l-74 75q56 56 155 146.5t162 136.5q-63 49 -162.5 140.5t-154.5 146.5l74 73q48 -48 142 -152t142 -167q77 103 287 321l74 -73q-224 -216 -322 -287
q34 -26 86.5 -72t94 -84t88.5 -82t55 -51z" />
    <glyph glyph-name="Oslash" unicode="&#xd8;" horiz-adv-x="1583" 
d="M791 -39q-267 0 -435 127l-174 -182l-43 35l152 204q-189 195 -189 562q0 178 51 320t143 234.5t218 141.5t277 49q280 0 456 -143l183 196l40 -32l-161 -224q172 -196 172 -540q0 -178 -52 -321t-144.5 -235.5t-218 -142t-275.5 -49.5zM324 707q0 -279 75 -435l394 459
l358 459q-115 172 -360 172q-223 0 -345 -162.5t-122 -492.5zM791 53q234 0 351.5 160.5t117.5 495.5q0 246 -66 403l-363 -418l-387 -495q112 -146 347 -146z" />
    <glyph glyph-name="Ugrave" unicode="&#xd9;" horiz-adv-x="1763" 
d="M307 580q2 509 0 620q-2 65 -24.5 90t-79.5 25h-115v98q209 -6 326 -6q69 0 193 3t130 3v-98h-108q-66 0 -93.5 -24.5t-27.5 -90.5v-639q0 -263 100 -375t303 -112q100 0 172 23t126.5 78t81 150.5t26.5 235.5v635q-1 62 -30 90.5t-89 28.5h-106v98q186 -6 290 -6
q61 0 170 3t117 3v-98h-102q-59 0 -85 -28.5t-28 -92.5q-2 -82 -2 -206.5t1 -255t1 -154.5q0 -307 -135.5 -463t-421.5 -156q-298 0 -444 148t-146 473zM975 1550l-14 -20q-216 118 -322 201q-33 25 -28 58t35.5 42.5t68.5 -12.5q25 -19 60.5 -54t60.5 -62t73.5 -80.5
t65.5 -72.5z" />
    <glyph glyph-name="Uacute" unicode="&#xda;" horiz-adv-x="1763" 
d="M897 1532l-16 20q15 16 52.5 58t59 64.5t52 54.5t54.5 54.5t44 37.5q34 25 67 12.5t35.5 -42.5t-28.5 -58q-111 -86 -320 -201zM307 580q2 509 0 620q-2 65 -24.5 90t-79.5 25h-115v98q209 -6 326 -6q69 0 193 3t130 3v-98h-108q-66 0 -93.5 -24.5t-27.5 -90.5v-639
q0 -263 100 -375t303 -112q100 0 172 23t126.5 78t81 150.5t26.5 235.5v635q-1 62 -30 90.5t-89 28.5h-106v98q186 -6 290 -6q61 0 170 3t117 3v-98h-102q-59 0 -85 -28.5t-28 -92.5q-2 -82 -2 -206.5t1 -255t1 -154.5q0 -307 -135.5 -463t-421.5 -156q-298 0 -444 148
t-146 473z" />
    <glyph glyph-name="Ucircumflex" unicode="&#xdb;" horiz-adv-x="1763" 
d="M1200 1546l-14 -20q-58 39 -143.5 110t-131.5 117q-43 -46 -128.5 -117.5t-141.5 -109.5l-14 20q33 63 105 148t138 151h86q57 -52 132.5 -142.5t111.5 -156.5zM307 580q2 509 0 620q-2 65 -24.5 90t-79.5 25h-115v98q209 -6 326 -6q69 0 193 3t130 3v-98h-108
q-66 0 -93.5 -24.5t-27.5 -90.5v-639q0 -263 100 -375t303 -112q100 0 172 23t126.5 78t81 150.5t26.5 235.5v635q-1 62 -30 90.5t-89 28.5h-106v98q186 -6 290 -6q61 0 170 3t117 3v-98h-102q-59 0 -85 -28.5t-28 -92.5q-2 -82 -2 -206.5t1 -255t1 -154.5
q0 -307 -135.5 -463t-421.5 -156q-298 0 -444 148t-146 473z" />
    <glyph glyph-name="Udieresis" unicode="&#xdc;" horiz-adv-x="1763" 
d="M848 1671q0 -43 -29.5 -72.5t-73.5 -29.5q-45 0 -74.5 29.5t-29.5 72.5q0 42 29.5 71.5t74.5 29.5q44 0 73.5 -29.5t29.5 -71.5zM1202 1671q0 -43 -29 -72.5t-73 -29.5q-45 0 -75 29.5t-30 72.5q0 42 30 71.5t75 29.5q44 0 73 -29.5t29 -71.5zM307 580q2 509 0 620
q-2 65 -24.5 90t-79.5 25h-115v98q209 -6 326 -6q69 0 193 3t130 3v-98h-108q-66 0 -93.5 -24.5t-27.5 -90.5v-639q0 -263 100 -375t303 -112q100 0 172 23t126.5 78t81 150.5t26.5 235.5v635q-1 62 -30 90.5t-89 28.5h-106v98q186 -6 290 -6q61 0 170 3t117 3v-98h-102
q-59 0 -85 -28.5t-28 -92.5q-2 -82 -2 -206.5t1 -255t1 -154.5q0 -307 -135.5 -463t-421.5 -156q-298 0 -444 148t-146 473z" />
    <glyph glyph-name="Yacute" unicode="&#xdd;" horiz-adv-x="1646" 
d="M1264 1171q-219 -386 -365 -679v-291q0 -63 22 -84t99 -21h147v-100q-233 4 -364 4l-365 -4v100h146q77 0 100 22t23 83v286q-185 367 -369 693q-43 73 -94.5 104t-145.5 31h-49v98q230 -6 359 -6l356 6v-98h-102q-61 0 -92.5 -18.5t-31.5 -49.5t17 -71q96 -211 305 -578
q215 395 293 578q12 26 17 45t3.5 37.5t-12.5 30.5t-36 19t-64 7h-96v98q204 -6 319 -6l318 6v-98h-68q-114 0 -168 -29.5t-102 -114.5zM858 1532l-16 20q15 16 52.5 58t59 64.5t52 54.5t54.5 54.5t44 37.5q34 25 67 12.5t35.5 -42.5t-28.5 -58q-111 -86 -320 -201z" />
    <glyph glyph-name="Thorn" unicode="&#xde;" horiz-adv-x="1441" 
d="M88 -4v102h121q70 0 94.5 18t24.5 70q3 95 3 521t-3 505q-1 59 -25.5 81t-81.5 22h-133v98q219 -6 340 -6q72 0 202 3t136 3v-98h-133q-57 0 -80.5 -22t-26.5 -81q-2 -14 -2 -71q108 22 211 22q171 0 291 -30.5t188 -91.5t97.5 -140t29.5 -186q0 -108 -32 -188.5
t-103 -140t-191.5 -90t-289.5 -30.5q-102 0 -201 15q0 -77 2 -95q1 -52 25.5 -70t95.5 -18h119v-102q-217 4 -338 4zM702 1073q-102 0 -180 -10q-4 -339 0 -701q78 -10 180 -10q122 0 204.5 23t129 71.5t65.5 112.5t19 156q0 95 -19 159t-66 110.5t-128.5 67.5t-204.5 21z
" />
    <glyph glyph-name="germandbls" unicode="&#xdf;" horiz-adv-x="1292" 
d="M72 932l161 -6v47q-2 97 19.5 174t59 127.5t91.5 84t113.5 48t128.5 14.5q191 0 293 -94.5t102 -257.5q0 -262 -219 -326q177 -10 266 -109t89 -259q0 -217 -86 -310.5t-269 -93.5q-145 0 -214.5 86.5t-51.5 255.5l70 4q-13 -264 168 -264q91 0 135.5 72t44.5 248
q0 181 -75 251t-269 60l-2 82q116 0 169.5 74t53.5 229q0 147 -55.5 209.5t-159.5 62.5q-51 0 -89.5 -15t-71 -51.5t-49.5 -106.5t-17 -171q0 -43 -1 -236t-1 -354t2 -229q3 -87 10 -178l-164 4q-56 2 -93 1t-74.5 -3t-41.5 -2v84h96q89 0 92 94q3 185 3 674l-164 -4v84z
" />
    <glyph glyph-name="agrave" unicode="&#xe0;" horiz-adv-x="1077" 
d="M819 584v-389q0 -74 17.5 -101.5t48.5 -27.5q47 0 67.5 64t12.5 185l67 7q11 -174 -30.5 -260.5t-157.5 -86.5q-104 0 -149.5 56t-47.5 145q-97 -199 -303 -199q-133 0 -208 62.5t-75 185.5q0 60 23 108.5t67 82t97 57.5t123 39t134.5 23t141.5 12v45q0 63 -5 106.5
t-19 83t-39 62t-65.5 35.5t-98.5 12q-124 -3 -191 -57q57 -1 88 -31.5t31 -79.5q0 -52 -33 -82.5t-90 -30.5q-59 0 -92 32.5t-33 96.5q0 98 106 160t259 62q106 0 177 -26t109 -78.5t53 -117t15 -155.5zM408 72q112 0 175.5 86t63.5 250v90q-387 -25 -387 -267
q0 -75 39.5 -117t108.5 -42zM598 1075l-14 -20q-220 121 -322 200q-33 25 -28 58t35.5 42.5t68.5 -12.5q25 -19 61 -54t59.5 -60.5t74.5 -82t65 -71.5z" />
    <glyph glyph-name="aacute" unicode="&#xe1;" horiz-adv-x="1077" 
d="M819 584v-389q0 -74 17.5 -101.5t48.5 -27.5q47 0 67.5 64t12.5 185l67 7q11 -174 -30.5 -260.5t-157.5 -86.5q-104 0 -149.5 56t-47.5 145q-97 -199 -303 -199q-133 0 -208 62.5t-75 185.5q0 60 23 108.5t67 82t97 57.5t123 39t134.5 23t141.5 12v45q0 63 -5 106.5
t-19 83t-39 62t-65.5 35.5t-98.5 12q-124 -3 -191 -57q57 -1 88 -31.5t31 -79.5q0 -52 -33 -82.5t-90 -30.5q-59 0 -92 32.5t-33 96.5q0 98 106 160t259 62q106 0 177 -26t109 -78.5t53 -117t15 -155.5zM408 72q112 0 175.5 86t63.5 250v90q-387 -25 -387 -267
q0 -75 39.5 -117t108.5 -42zM420 1055l-17 20q10 11 44 48t49 53.5t44 47.5t47 48.5t40 37.5t39 33q34 25 67 12.5t35 -42.5t-29 -58q-109 -85 -319 -200z" />
    <glyph glyph-name="acircumflex" unicode="&#xe2;" horiz-adv-x="1077" 
d="M819 584v-389q0 -74 17.5 -101.5t48.5 -27.5q47 0 67.5 64t12.5 185l67 7q11 -174 -30.5 -260.5t-157.5 -86.5q-104 0 -149.5 56t-47.5 145q-97 -199 -303 -199q-133 0 -208 62.5t-75 185.5q0 60 23 108.5t67 82t97 57.5t123 39t134.5 23t141.5 12v45q0 63 -5 106.5
t-19 83t-39 62t-65.5 35.5t-98.5 12q-124 -3 -191 -57q57 -1 88 -31.5t31 -79.5q0 -52 -33 -82.5t-90 -30.5q-59 0 -92 32.5t-33 96.5q0 98 106 160t259 62q106 0 177 -26t109 -78.5t53 -117t15 -155.5zM408 72q112 0 175.5 86t63.5 250v90q-387 -25 -387 -267
q0 -75 39.5 -117t108.5 -42zM768 1075l-14 -20q-58 39 -143.5 110t-131.5 117q-43 -46 -128.5 -117.5t-141.5 -109.5l-14 20q33 63 105 148t138 151h86q57 -52 132.5 -142.5t111.5 -156.5z" />
    <glyph glyph-name="atilde" unicode="&#xe3;" horiz-adv-x="1077" 
d="M819 584v-389q0 -74 17.5 -101.5t48.5 -27.5q47 0 67.5 64t12.5 185l67 7q11 -174 -30.5 -260.5t-157.5 -86.5q-104 0 -149.5 56t-47.5 145q-97 -199 -303 -199q-133 0 -208 62.5t-75 185.5q0 60 23 108.5t67 82t97 57.5t123 39t134.5 23t141.5 12v45q0 63 -5 106.5
t-19 83t-39 62t-65.5 35.5t-98.5 12q-124 -3 -191 -57q57 -1 88 -31.5t31 -79.5q0 -52 -33 -82.5t-90 -30.5q-59 0 -92 32.5t-33 96.5q0 98 106 160t259 62q106 0 177 -26t109 -78.5t53 -117t15 -155.5zM408 72q112 0 175.5 86t63.5 250v90q-387 -25 -387 -267
q0 -75 39.5 -117t108.5 -42zM735 1350l39 8q31 -101 10.5 -165.5t-67.5 -95t-111 -30.5q-65 0 -105.5 28.5t-80.5 88.5q-25 38 -36 53t-28.5 33.5t-33.5 24t-39 5.5q-49 0 -67 -48t3 -158l-39 -9q-43 143 9.5 217t158.5 74q58 0 98.5 -26t83.5 -90q42 -64 70.5 -90.5
t69.5 -26.5q49 0 68 50t-3 157z" />
    <glyph glyph-name="adieresis" unicode="&#xe4;" horiz-adv-x="1077" 
d="M819 584v-389q0 -74 17.5 -101.5t48.5 -27.5q47 0 67.5 64t12.5 185l67 7q11 -174 -30.5 -260.5t-157.5 -86.5q-104 0 -149.5 56t-47.5 145q-97 -199 -303 -199q-133 0 -208 62.5t-75 185.5q0 60 23 108.5t67 82t97 57.5t123 39t134.5 23t141.5 12v45q0 63 -5 106.5
t-19 83t-39 62t-65.5 35.5t-98.5 12q-124 -3 -191 -57q57 -1 88 -31.5t31 -79.5q0 -52 -33 -82.5t-90 -30.5q-59 0 -92 32.5t-33 96.5q0 98 106 160t259 62q106 0 177 -26t109 -78.5t53 -117t15 -155.5zM408 72q112 0 175.5 86t63.5 250v90q-387 -25 -387 -267
q0 -75 39.5 -117t108.5 -42zM408 1194q0 -43 -29.5 -72.5t-73.5 -29.5q-45 0 -74.5 29.5t-29.5 72.5q0 42 29.5 71t74.5 29q44 0 73.5 -29t29.5 -71zM762 1194q0 -43 -29.5 -72.5t-73.5 -29.5q-45 0 -74.5 29.5t-29.5 72.5q0 42 29.5 71t74.5 29q44 0 73.5 -29t29.5 -71z
" />
    <glyph glyph-name="aring" unicode="&#xe5;" horiz-adv-x="1077" 
d="M819 584v-389q0 -74 17.5 -101.5t48.5 -27.5q47 0 67.5 64t12.5 185l67 7q11 -174 -30.5 -260.5t-157.5 -86.5q-104 0 -149.5 56t-47.5 145q-97 -199 -303 -199q-133 0 -208 62.5t-75 185.5q0 60 23 108.5t67 82t97 57.5t123 39t134.5 23t141.5 12v45q0 63 -5 106.5
t-19 83t-39 62t-65.5 35.5t-98.5 12q-124 -3 -191 -57q57 -1 88 -31.5t31 -79.5q0 -52 -33 -82.5t-90 -30.5q-59 0 -92 32.5t-33 96.5q0 98 106 160t259 62q106 0 177 -26t109 -78.5t53 -117t15 -155.5zM408 72q112 0 175.5 86t63.5 250v90q-387 -25 -387 -267
q0 -75 39.5 -117t108.5 -42zM575 1237q0 50 -27 77t-71 27q-45 0 -71.5 -27t-26.5 -77q0 -51 26.5 -80t71.5 -29q44 0 71 29.5t27 79.5zM643 1237q0 -73 -47 -119.5t-119 -46.5q-73 0 -120.5 46.5t-47.5 119.5t46 118.5t120 45.5t121 -45.5t47 -118.5z" />
    <glyph glyph-name="ae" unicode="&#xe6;" horiz-adv-x="1585" 
d="M1483 244q-42 -131 -141.5 -205t-260.5 -74q-316 0 -405 234q-36 -101 -119 -161.5t-213 -60.5q-133 0 -208 62.5t-75 185.5q0 60 23 108t66 81.5t96 57.5t122 39t133.5 23.5t141.5 12.5v47q0 145 -47.5 221t-161.5 76q-128 0 -203 -57q58 -3 86.5 -32.5t28.5 -78.5
q0 -52 -34 -82.5t-87 -30.5q-56 0 -90.5 33.5t-34.5 95.5q0 66 50 117t132.5 78t180.5 27q118 0 188 -34.5t111 -101.5q51 66 135 101t182 35q145 0 242 -70.5t136.5 -187.5t29.5 -271h-649q4 -209 68 -293t202 -84q126 0 192 55t97 154zM1071 883q-112 0 -171 -90t-62 -301
h393q28 0 37.5 11.5t9.5 43.5q0 158 -54 247t-153 89zM403 76q113 0 176.5 86t63.5 250v86q-383 -25 -383 -267q0 -75 37 -115t106 -40z" />
    <glyph glyph-name="ccedilla" unicode="&#xe7;" horiz-adv-x="995" 
d="M408 -229l-21 36q64 35 95 71.5t42 86.5q-212 0 -324 128t-112 364q0 230 123.5 367t335.5 137q154 0 249 -65t95 -161q0 -61 -33.5 -93t-95.5 -32q-56 0 -87.5 30.5t-31.5 80.5q0 97 98 110q-75 58 -192 58q-140 0 -204 -102t-64 -330q0 -152 30 -241.5t86 -125
t148 -35.5q125 0 189 53.5t91 155.5l88 -20q-70 -254 -338 -277q-11 -79 -71 -129q94 15 166.5 -25.5t72.5 -131.5q0 -88 -63 -138.5t-172 -50.5q-149 0 -211 115l37 31q60 -76 149 -76q65 0 98 32t33 89q0 67 -58.5 94t-147.5 -6z" />
    <glyph glyph-name="egrave" unicode="&#xe8;" horiz-adv-x="1046" 
d="M860 260l84 -20q-42 -131 -141 -205t-260 -74q-221 0 -338 133t-117 369q0 120 35 215.5t97 157t144 93.5t177 32q144 0 240.5 -70.5t135.5 -187.5t29 -271h-665q4 -207 76 -294t212 -87q126 0 193 55t98 154zM532 883q-243 0 -251 -389h419q27 0 37.5 11t10.5 42
q0 165 -56 250.5t-160 85.5zM647 1075l-14 -20q-220 121 -322 200q-33 25 -28 58t35.5 42.5t68.5 -12.5q25 -19 61 -54t59.5 -60.5t74.5 -82t65 -71.5z" />
    <glyph glyph-name="eacute" unicode="&#xe9;" horiz-adv-x="1046" 
d="M469 1055l-16 20q11 12 52 57t60 65.5t51 53.5t55.5 55t43.5 37q34 25 67 12.5t35 -42.5t-29 -58q-109 -85 -319 -200zM860 260l84 -20q-42 -131 -141 -205t-260 -74q-221 0 -338 133t-117 369q0 120 35 215.5t97 157t144 93.5t177 32q144 0 240.5 -70.5t135.5 -187.5
t29 -271h-665q4 -207 76 -294t212 -87q126 0 193 55t98 154zM532 883q-243 0 -251 -389h419q27 0 37.5 11t10.5 42q0 165 -56 250.5t-160 85.5z" />
    <glyph glyph-name="ecircumflex" unicode="&#xea;" horiz-adv-x="1046" 
d="M831 1075l-14 -20q-57 39 -142 109.5t-132 117.5q-43 -46 -129 -117.5t-142 -109.5l-14 20q60 115 244 299h86q57 -51 132 -141.5t111 -157.5zM860 260l84 -20q-42 -131 -141 -205t-260 -74q-221 0 -338 133t-117 369q0 120 35 215.5t97 157t144 93.5t177 32
q144 0 240.5 -70.5t135.5 -187.5t29 -271h-665q4 -207 76 -294t212 -87q126 0 193 55t98 154zM532 883q-243 0 -251 -389h419q27 0 37.5 11t10.5 42q0 165 -56 250.5t-160 85.5z" />
    <glyph glyph-name="edieresis" unicode="&#xeb;" horiz-adv-x="1046" 
d="M449 1194q0 -43 -29.5 -72.5t-73.5 -29.5q-45 0 -74.5 29.5t-29.5 72.5q0 42 29.5 71t74.5 29q44 0 73.5 -29t29.5 -71zM803 1194q0 -43 -29.5 -72.5t-73.5 -29.5q-45 0 -74.5 29.5t-29.5 72.5q0 42 29.5 71t74.5 29q44 0 73.5 -29t29.5 -71zM860 260l84 -20
q-42 -131 -141 -205t-260 -74q-221 0 -338 133t-117 369q0 120 35 215.5t97 157t144 93.5t177 32q144 0 240.5 -70.5t135.5 -187.5t29 -271h-665q4 -207 76 -294t212 -87q126 0 193 55t98 154zM532 883q-243 0 -251 -389h419q27 0 37.5 11t10.5 42q0 165 -56 250.5
t-160 85.5z" />
    <glyph glyph-name="igrave" unicode="&#xec;" horiz-adv-x="634" 
d="M406 938q-2 -637 0 -737q3 -74 25 -95.5t89 -21.5h68v-88q-10 0 -112 3t-159 3t-163 -3t-107 -3v88h78q62 0 82.5 21.5t23.5 93.5q1 73 1 276.5t-1 261.5q-3 64 -24 87.5t-92 23.5h-66v84q277 0 357 6zM399 1075l-14 -20q-220 121 -322 200q-33 25 -28 58t35.5 42.5
t68.5 -12.5q25 -19 61 -54t59.5 -60.5t74.5 -82t65 -71.5z" />
    <glyph glyph-name="iacute" unicode="&#xed;" horiz-adv-x="634" 
d="M250 1055l-17 20q10 11 44 48t49 53.5t44 47.5t47 48.5t40 37.5t39 33q34 25 67 12.5t35 -42.5t-29 -58q-109 -85 -319 -200zM406 938q-2 -637 0 -737q3 -74 25 -95.5t89 -21.5h68v-88q-10 0 -112 3t-159 3t-163 -3t-107 -3v88h78q62 0 82.5 21.5t23.5 93.5q1 73 1 276.5
t-1 261.5q-3 64 -24 87.5t-92 23.5h-66v84q277 0 357 6z" />
    <glyph glyph-name="icircumflex" unicode="&#xee;" horiz-adv-x="634" 
d="M575 1075l-14 -20q-57 39 -142 109.5t-132 117.5q-43 -46 -129 -117.5t-142 -109.5l-14 20q60 115 244 299h86q57 -51 132 -141.5t111 -157.5zM406 938q-2 -637 0 -737q3 -74 25 -95.5t89 -21.5h68v-88q-10 0 -112 3t-159 3t-163 -3t-107 -3v88h78q62 0 82.5 21.5
t23.5 93.5q1 73 1 276.5t-1 261.5q-3 64 -24 87.5t-92 23.5h-66v84q277 0 357 6z" />
    <glyph glyph-name="idieresis" unicode="&#xef;" horiz-adv-x="634" 
d="M201 1194q0 -43 -29.5 -72.5t-73.5 -29.5q-45 0 -74.5 29.5t-29.5 72.5q0 42 29.5 71t74.5 29q44 0 73.5 -29t29.5 -71zM555 1194q0 -43 -29 -72.5t-73 -29.5q-45 0 -75 29.5t-30 72.5q0 42 30 71t75 29q44 0 73 -29t29 -71zM406 938q-2 -637 0 -737q3 -74 25 -95.5
t89 -21.5h68v-88q-10 0 -112 3t-159 3t-163 -3t-107 -3v88h78q62 0 82.5 21.5t23.5 93.5q1 73 1 276.5t-1 261.5q-3 64 -24 87.5t-92 23.5h-66v84q277 0 357 6z" />
    <glyph glyph-name="eth" unicode="&#xf0;" horiz-adv-x="1091" 
d="M406 1081l-44 66l187 113q-99 67 -244 88l10 65q173 -14 316 -100q132 96 196 139l43 -68q-18 -11 -188 -106q154 -114 231.5 -307t77.5 -424q0 -289 -123 -437.5t-331 -148.5q-209 0 -329 129t-120 367q0 252 123.5 378t331.5 126q61 0 117.5 -24.5t93.5 -64.5
q-38 234 -160 351q-114 -89 -188 -142zM283 457q0 -104 14 -180.5t36.5 -122t57.5 -72.5t70.5 -36t81.5 -9q60 0 104 19t79.5 64.5t54 130.5t18.5 208q0 101 -13 176.5t-35.5 122.5t-56.5 76t-70.5 40t-82.5 11q-44 0 -79.5 -10t-70 -38.5t-57.5 -75t-37 -123.5t-14 -181z
" />
    <glyph glyph-name="ntilde" unicode="&#xf1;" horiz-adv-x="1290" 
d="M1059 575q0 -50 -0.5 -129t-0.5 -133t1 -92q3 -86 25.5 -111.5t99.5 -25.5h47v-88q-9 0 -108 3t-154 3q-41 0 -103 -1.5t-109 -3t-52 -1.5v88h53q74 0 100 27t27 108q3 159 0 338q-3 150 -53 227.5t-164 77.5q-133 0 -200.5 -123.5t-64.5 -355.5l3 -162
q2 -84 25.5 -110.5t98.5 -26.5h56v-88q-10 0 -112.5 3t-158.5 3q-57 0 -163 -3t-107 -3v88h66q75 0 96 26t24 109q6 188 0 490q-3 80 -24.5 109.5t-100.5 29.5h-57v84q277 0 357 6v-221q76 244 323 244q175 0 252.5 -99.5t77.5 -286.5zM881 1350l39 8q31 -101 10.5 -165.5
t-67.5 -95t-111 -30.5q-65 0 -106 29t-81 88q-25 38 -36 53t-28.5 33.5t-34 24t-38.5 5.5q-49 0 -66.5 -48t3.5 -158l-39 -9q-43 143 9.5 217t158.5 74q58 0 98.5 -26t83.5 -90q43 -65 70.5 -91t68.5 -26q49 0 68 50t-2 157z" />
    <glyph glyph-name="ograve" unicode="&#xf2;" horiz-adv-x="1091" 
d="M88 457q0 248 122.5 376t334.5 128t335.5 -128.5t123.5 -375.5q0 -239 -124 -367.5t-335 -128.5q-214 0 -335.5 127.5t-121.5 368.5zM289 457q0 -104 14 -181t36.5 -122.5t57 -73t69 -36.5t79.5 -9t80 9t70 36.5t58 73.5t37.5 123t14.5 182q0 104 -14.5 182t-38 124.5
t-58.5 75t-70.5 38.5t-78.5 10q-44 0 -79.5 -10.5t-69.5 -39.5t-56.5 -76t-36.5 -124.5t-14 -181.5zM655 1075l-14 -20q-220 121 -322 200q-33 25 -28 58t35.5 42.5t68.5 -12.5q25 -19 61 -54t59.5 -60.5t74.5 -82t65 -71.5z" />
    <glyph glyph-name="oacute" unicode="&#xf3;" horiz-adv-x="1091" 
d="M494 1055l-17 20q11 12 52 57t60 65.5t51 53.5t55.5 55t43.5 37q34 25 67 12.5t35.5 -42.5t-28.5 -58q-109 -85 -319 -200zM88 457q0 248 122.5 376t334.5 128t335.5 -128.5t123.5 -375.5q0 -239 -124 -367.5t-335 -128.5q-214 0 -335.5 127.5t-121.5 368.5zM289 457
q0 -104 14 -181t36.5 -122.5t57 -73t69 -36.5t79.5 -9t80 9t70 36.5t58 73.5t37.5 123t14.5 182q0 104 -14.5 182t-38 124.5t-58.5 75t-70.5 38.5t-78.5 10q-44 0 -79.5 -10.5t-69.5 -39.5t-56.5 -76t-36.5 -124.5t-14 -181.5z" />
    <glyph glyph-name="ocircumflex" unicode="&#xf4;" horiz-adv-x="1091" 
d="M831 1075l-14 -20q-57 39 -142 109.5t-132 117.5q-43 -46 -129 -117.5t-142 -109.5l-14 20q60 115 244 299h86q57 -51 132 -141.5t111 -157.5zM88 457q0 248 122.5 376t334.5 128t335.5 -128.5t123.5 -375.5q0 -239 -124 -367.5t-335 -128.5q-214 0 -335.5 127.5
t-121.5 368.5zM289 457q0 -104 14 -181t36.5 -122.5t57 -73t69 -36.5t79.5 -9t80 9t70 36.5t58 73.5t37.5 123t14.5 182q0 104 -14.5 182t-38 124.5t-58.5 75t-70.5 38.5t-78.5 10q-44 0 -79.5 -10.5t-69.5 -39.5t-56.5 -76t-36.5 -124.5t-14 -181.5z" />
    <glyph glyph-name="otilde" unicode="&#xf5;" horiz-adv-x="1091" 
d="M88 457q0 248 122.5 376t334.5 128t335.5 -128.5t123.5 -375.5q0 -239 -124 -367.5t-335 -128.5q-214 0 -335.5 127.5t-121.5 368.5zM289 457q0 -104 14 -181t36.5 -122.5t57 -73t69 -36.5t79.5 -9t80 9t70 36.5t58 73.5t37.5 123t14.5 182q0 104 -14.5 182t-38 124.5
t-58.5 75t-70.5 38.5t-78.5 10q-44 0 -79.5 -10.5t-69.5 -39.5t-56.5 -76t-36.5 -124.5t-14 -181.5zM803 1350l39 8q31 -101 10.5 -165.5t-67.5 -95t-111 -30.5q-65 0 -106 29t-81 88q-25 38 -36 53t-28.5 33.5t-34 24t-38.5 5.5q-49 0 -66.5 -48t3.5 -158l-39 -9
q-43 143 9.5 217t158.5 74q58 0 98.5 -26t83.5 -90q43 -65 70.5 -91t68.5 -26q49 0 68 50t-2 157z" />
    <glyph glyph-name="odieresis" unicode="&#xf6;" horiz-adv-x="1091" 
d="M471 1194q0 -43 -29 -72.5t-73 -29.5q-45 0 -75 29.5t-30 72.5q0 42 30 71t75 29q44 0 73 -29t29 -71zM825 1194q0 -43 -29 -72.5t-73 -29.5q-45 0 -75 29.5t-30 72.5q0 42 30 71t75 29q44 0 73 -29t29 -71zM88 457q0 248 122.5 376t334.5 128t335.5 -128.5t123.5 -375.5
q0 -239 -124 -367.5t-335 -128.5q-214 0 -335.5 127.5t-121.5 368.5zM289 457q0 -104 14 -181t36.5 -122.5t57 -73t69 -36.5t79.5 -9t80 9t70 36.5t58 73.5t37.5 123t14.5 182q0 104 -14.5 182t-38 124.5t-58.5 75t-70.5 38.5t-78.5 10q-44 0 -79.5 -10.5t-69.5 -39.5
t-56.5 -76t-36.5 -124.5t-14 -181.5z" />
    <glyph glyph-name="divide" unicode="&#xf7;" 
d="M723 238q0 -49 -30.5 -77t-78.5 -28q-49 0 -79.5 27t-30.5 78q0 48 31.5 77t78.5 29q49 0 79 -29.5t30 -76.5zM199 461v104q312 -8 415 -28q105 20 416 28v-104q-313 8 -416 28q-105 -20 -415 -28zM723 786q0 -48 -30.5 -76t-78.5 -28q-49 0 -79.5 27t-30.5 79
q0 46 31.5 75.5t78.5 29.5q49 0 79 -29.5t30 -77.5z" />
    <glyph glyph-name="oslash" unicode="&#xf8;" horiz-adv-x="1091" 
d="M88 457q0 248 122.5 376t334.5 128q168 0 284 -84l138 151l30 -24l-116 -173q123 -132 123 -374q0 -239 -124 -367.5t-335 -128.5q-174 0 -291 88l-125 -133l-33 27l109 149q-117 126 -117 365zM805 459q0 141 -31 246l-213 -250l-225 -297q59 -123 209 -123q45 0 80 9
t70 36.5t58 73.5t37.5 123t14.5 182zM289 457q0 -147 24 -236l222 264l213 285q-62 119 -203 119q-44 0 -79.5 -10.5t-69.5 -39.5t-56.5 -76t-36.5 -124.5t-14 -181.5z" />
    <glyph glyph-name="ugrave" unicode="&#xf9;" horiz-adv-x="1253" 
d="M1030 938q-2 -32 -8 -283q-1 -51 -0.5 -218.5t2.5 -225.5q2 -72 30 -99.5t101 -27.5h51v-84q-276 0 -356 -6v211q-37 -114 -116.5 -178t-203.5 -64q-69 0 -124.5 18.5t-102.5 61t-72 121.5t-24 190q6 229 0 369q-1 38 -5 59.5t-17.5 37.5t-37 22t-63.5 6h-55v84h172
q145 0 186 6q-6 -113 -6 -281v-295q0 -83 18 -143.5t41.5 -89.5t57.5 -46t53.5 -19.5t42.5 -2.5q132 0 194 110.5t62 352.5v199q0 76 -30.5 100.5t-121.5 24.5h-45v84h205q141 0 172 6zM686 1075l-14 -20q-220 121 -322 200q-33 25 -28 58t35.5 42.5t68.5 -12.5
q25 -19 61 -54t59.5 -60.5t74.5 -82t65 -71.5z" />
    <glyph glyph-name="uacute" unicode="&#xfa;" horiz-adv-x="1253" 
d="M565 1055l-16 20q11 12 52 57t60 65.5t51 53.5t55.5 55t43.5 37q34 25 67 12.5t35.5 -42.5t-28.5 -58q-107 -83 -320 -200zM1030 938q-2 -32 -8 -283q-1 -51 -0.5 -218.5t2.5 -225.5q2 -72 30 -99.5t101 -27.5h51v-84q-276 0 -356 -6v211q-37 -114 -116.5 -178
t-203.5 -64q-69 0 -124.5 18.5t-102.5 61t-72 121.5t-24 190q6 229 0 369q-1 38 -5 59.5t-17.5 37.5t-37 22t-63.5 6h-55v84h172q145 0 186 6q-6 -113 -6 -281v-295q0 -83 18 -143.5t41.5 -89.5t57.5 -46t53.5 -19.5t42.5 -2.5q132 0 194 110.5t62 352.5v199
q0 76 -30.5 100.5t-121.5 24.5h-45v84h205q141 0 172 6z" />
    <glyph glyph-name="ucircumflex" unicode="&#xfb;" horiz-adv-x="1253" 
d="M856 1075l-14 -20q-58 39 -143.5 110t-131.5 117q-43 -46 -128.5 -117.5t-141.5 -109.5l-14 20q33 63 105 148t138 151h86q57 -52 132.5 -142.5t111.5 -156.5zM1030 938q-2 -32 -8 -283q-1 -51 -0.5 -218.5t2.5 -225.5q2 -72 30 -99.5t101 -27.5h51v-84q-276 0 -356 -6
v211q-37 -114 -116.5 -178t-203.5 -64q-69 0 -124.5 18.5t-102.5 61t-72 121.5t-24 190q6 229 0 369q-1 38 -5 59.5t-17.5 37.5t-37 22t-63.5 6h-55v84h172q145 0 186 6q-6 -113 -6 -281v-295q0 -83 18 -143.5t41.5 -89.5t57.5 -46t53.5 -19.5t42.5 -2.5q132 0 194 110.5
t62 352.5v199q0 76 -30.5 100.5t-121.5 24.5h-45v84h205q141 0 172 6z" />
    <glyph glyph-name="udieresis" unicode="&#xfc;" horiz-adv-x="1253" 
d="M496 1194q0 -43 -29.5 -72.5t-73.5 -29.5q-45 0 -74.5 29.5t-29.5 72.5q0 42 29.5 71t74.5 29q44 0 73.5 -29t29.5 -71zM850 1194q0 -43 -29 -72.5t-73 -29.5q-45 0 -75 29.5t-30 72.5q0 42 30 71t75 29q44 0 73 -29t29 -71zM1030 938q-2 -32 -8 -283q-1 -51 -0.5 -218.5
t2.5 -225.5q2 -72 30 -99.5t101 -27.5h51v-84q-276 0 -356 -6v211q-37 -114 -116.5 -178t-203.5 -64q-69 0 -124.5 18.5t-102.5 61t-72 121.5t-24 190q6 229 0 369q-1 38 -5 59.5t-17.5 37.5t-37 22t-63.5 6h-55v84h172q145 0 186 6q-6 -113 -6 -281v-295q0 -83 18 -143.5
t41.5 -89.5t57.5 -46t53.5 -19.5t42.5 -2.5q132 0 194 110.5t62 352.5v199q0 76 -30.5 100.5t-121.5 24.5h-45v84h205q141 0 172 6z" />
    <glyph glyph-name="yacute" unicode="&#xfd;" horiz-adv-x="1148" 
d="M793 735q17 54 -0.5 83.5t-69.5 29.5h-61v84q133 -4 239 -4l215 4v-84h-65q-70 0 -104.5 -25.5t-63.5 -91.5q-30 -70 -83.5 -206t-125 -324t-86.5 -226q-27 -70 -49.5 -117.5t-56.5 -98.5t-70.5 -81t-89 -49.5t-115.5 -19.5q-100 0 -152.5 46.5t-52.5 117.5q0 64 38 97.5
t87 33.5q57 0 88 -27.5t31 -81.5q0 -44 -32.5 -77.5t-88.5 -36.5q37 -13 88 -13t91.5 16t82 57t80.5 116t76 188h-64q-44 128 -128.5 350t-135.5 344q-24 58 -59.5 83.5t-94.5 25.5h-41v84q142 -4 263 -4l264 4v-84h-66q-57 0 -73.5 -28t2.5 -81q60 -193 192 -530
q172 465 191 526zM590 1055l-17 20q10 11 44 48t49 53.5t44 47.5t47 48.5t40 37.5t39 33q34 25 67 12.5t35 -42.5t-29 -58q-109 -85 -319 -200z" />
    <glyph glyph-name="thorn" unicode="&#xfe;" horiz-adv-x="1198" 
d="M719 -35q-235 0 -313 211v-315q0 -75 27.5 -105t105.5 -30h53v-86q-2 0 -109 3t-164 3q-43 0 -108 -1.5t-113.5 -3t-52.5 -1.5v86h64q71 0 95.5 30t26.5 105q3 74 3 659.5t-3 667.5q-2 82 -26.5 111.5t-100.5 29.5h-59v84q281 0 361 6v-692q80 234 327 234
q181 0 273 -124.5t92 -371.5q0 -244 -97 -372t-282 -128zM406 465q0 -84 11 -150t37.5 -125t79 -91.5t128.5 -32.5q85 0 135.5 31.5t79 120.5t28.5 247q0 70 -4.5 123t-19.5 107t-40.5 88.5t-69.5 56.5t-105 22q-124 0 -192 -102.5t-68 -294.5z" />
    <glyph glyph-name="ydieresis" unicode="&#xff;" horiz-adv-x="1148" 
d="M793 735q17 54 -0.5 83.5t-69.5 29.5h-61v84q133 -4 239 -4l215 4v-84h-65q-70 0 -104.5 -25.5t-63.5 -91.5q-30 -70 -83.5 -206t-125 -324t-86.5 -226q-27 -70 -49.5 -117.5t-56.5 -98.5t-70.5 -81t-89 -49.5t-115.5 -19.5q-100 0 -152.5 46.5t-52.5 117.5q0 64 38 97.5
t87 33.5q57 0 88 -27.5t31 -81.5q0 -44 -32.5 -77.5t-88.5 -36.5q37 -13 88 -13t91.5 16t82 57t80.5 116t76 188h-64q-44 128 -128.5 350t-135.5 344q-24 58 -59.5 83.5t-94.5 25.5h-41v84q142 -4 263 -4l264 4v-84h-66q-57 0 -73.5 -28t2.5 -81q60 -193 192 -530
q172 465 191 526zM539 1194q0 -43 -29.5 -72.5t-73.5 -29.5q-45 0 -74.5 29.5t-29.5 72.5q0 42 29.5 71t74.5 29q44 0 73.5 -29t29.5 -71zM893 1194q0 -43 -29 -72.5t-73 -29.5q-45 0 -75 29.5t-30 72.5q0 42 30 71t75 29q44 0 73 -29t29 -71z" />
    <glyph glyph-name="Amacron" unicode="&#x100;" horiz-adv-x="1785" 
d="M1210 279l-63 178q-299 7 -594 0l-66 -183q-34 -86 -8.5 -131t123.5 -45h98l-2 -102q-200 4 -313 4l-313 -4v102h86q87 0 131.5 34t81.5 128q30 73 217.5 563t228.5 604q51 -4 86 -4l88 4q56 -169 210 -569.5t233 -597.5q39 -94 77.5 -128t112.5 -34h90v-102
q-223 4 -348 4l-350 -4l2 102h96q82 0 105 44.5t-9 136.5zM1116 543q-155 425 -262 706l-270 -706q264 -4 532 0zM647 1577q3 54 0 111q94 -3 268.5 -3t268.5 3q-3 -56 0 -111q-94 3 -268.5 3t-268.5 -3z" />
    <glyph glyph-name="amacron" unicode="&#x101;" horiz-adv-x="1077" 
d="M819 584v-389q0 -74 17.5 -101.5t48.5 -27.5q47 0 67.5 64t12.5 185l67 7q11 -174 -30.5 -260.5t-157.5 -86.5q-104 0 -149.5 56t-47.5 145q-97 -199 -303 -199q-133 0 -208 62.5t-75 185.5q0 60 23 108.5t67 82t97 57.5t123 39t134.5 23t141.5 12v45q0 63 -5 106.5
t-19 83t-39 62t-65.5 35.5t-98.5 12q-124 -3 -191 -57q57 -1 88 -31.5t31 -79.5q0 -52 -33 -82.5t-90 -30.5q-59 0 -92 32.5t-33 96.5q0 98 106 160t259 62q106 0 177 -26t109 -78.5t53 -117t15 -155.5zM408 72q112 0 175.5 86t63.5 250v90q-387 -25 -387 -267
q0 -75 39.5 -117t108.5 -42zM211 1114q3 54 0 111q94 -3 268.5 -3t268.5 3q-3 -55 0 -111q-94 3 -268.5 3t-268.5 -3z" />
    <glyph glyph-name="Abreve" unicode="&#x102;" horiz-adv-x="1785" 
d="M1210 279l-63 178q-299 7 -594 0l-66 -183q-34 -86 -8.5 -131t123.5 -45h98l-2 -102q-200 4 -313 4l-313 -4v102h86q87 0 131.5 34t81.5 128q30 73 217.5 563t228.5 604q51 -4 86 -4l88 4q56 -169 210 -569.5t233 -597.5q39 -94 77.5 -128t112.5 -34h90v-102
q-223 4 -348 4l-350 -4l2 102h96q82 0 105 44.5t-9 136.5zM1116 543q-155 425 -262 706l-270 -706q264 -4 532 0zM907 1548q-145 0 -218.5 84.5t-59.5 212.5l26 4q6 -98 69 -140t183 -42t183 42t69 140l27 -4q14 -128 -60 -212.5t-219 -84.5z" />
    <glyph glyph-name="abreve" unicode="&#x103;" horiz-adv-x="1077" 
d="M819 584v-389q0 -74 17.5 -101.5t48.5 -27.5q47 0 67.5 64t12.5 185l67 7q11 -174 -30.5 -260.5t-157.5 -86.5q-104 0 -149.5 56t-47.5 145q-97 -199 -303 -199q-133 0 -208 62.5t-75 185.5q0 60 23 108.5t67 82t97 57.5t123 39t134.5 23t141.5 12v45q0 63 -5 106.5
t-19 83t-39 62t-65.5 35.5t-98.5 12q-124 -3 -191 -57q57 -1 88 -31.5t31 -79.5q0 -52 -33 -82.5t-90 -30.5q-59 0 -92 32.5t-33 96.5q0 98 106 160t259 62q106 0 177 -26t109 -78.5t53 -117t15 -155.5zM408 72q112 0 175.5 86t63.5 250v90q-387 -25 -387 -267
q0 -75 39.5 -117t108.5 -42zM489 1077q-145 0 -218.5 84.5t-59.5 212.5l27 4q6 -98 68.5 -140t182.5 -42t183 42t69 140l27 -4q14 -128 -60 -212.5t-219 -84.5z" />
    <glyph glyph-name="Aogonek" unicode="&#x104;" horiz-adv-x="1785" 
d="M1618 -172q-6 -117 -69.5 -183.5t-174.5 -66.5q-98 0 -154 50t-53 132q8 155 197 240l-348 -4l2 102h96q82 0 105 44.5t-9 136.5l-63 178q-299 7 -594 0l-66 -183q-34 -86 -8.5 -131t123.5 -45h98l-2 -102q-200 4 -313 4l-313 -4v102h86q87 0 131.5 34t81.5 128
q30 73 217.5 563t228.5 604q51 -4 86 -4l88 4q56 -169 210 -569.5t233 -597.5q39 -94 77.5 -128t112.5 -34h90v-102q-147 4 -270 4q-73 -34 -115 -87t-43 -118q-3 -63 33.5 -94t89.5 -31q67 0 110 46t54 120zM1116 543q-155 425 -262 706l-270 -706q264 -4 532 0z" />
    <glyph glyph-name="aogonek" unicode="&#x105;" horiz-adv-x="1077" 
d="M1186 -172q-9 -113 -76 -181.5t-178 -68.5q-98 0 -151.5 50.5t-47.5 133.5q6 66 47.5 122.5t106.5 95.5q-30 -5 -43 -5q-102 0 -148.5 55.5t-48.5 143.5q-96 -197 -303 -197q-133 0 -208 62.5t-75 185.5q0 60 23 108.5t67 82t97 57.5t123 39t134.5 23t141.5 12v45
q0 64 -4.5 107t-18.5 82.5t-39 62t-66 35.5t-99 12q-124 -3 -191 -57q57 -1 88 -31.5t31 -79.5q0 -52 -33 -82.5t-90 -30.5q-59 0 -92 32.5t-33 96.5q0 97 106.5 159.5t258.5 62.5q85 0 148 -18t102.5 -49t63.5 -79.5t33 -103.5t9 -127v-389q0 -73 17 -101t47 -28
q47 0 67.5 64t12.5 185l67 7q7 -120 -6 -184t-57 -126q-10 -13 -41 -53t-41 -56t-23 -46.5t-14 -61.5q-3 -63 31 -94t88 -31q67 0 111.5 45.5t60.5 120.5zM408 72q114 0 176.5 85.5t62.5 250.5v90q-387 -25 -387 -267q0 -75 39.5 -117t108.5 -42z" />
    <glyph glyph-name="Cacute" unicode="&#x106;" horiz-adv-x="1490" 
d="M750 1532l-17 20q15 16 52.5 58t59 64.5t52 54.5t54.5 54.5t44 37.5q34 25 67 12.5t35.5 -42.5t-28.5 -58q-113 -88 -319 -201zM1151 1358q69 -40 97 -25.5t38 97.5h96q-15 -104 -22 -236t0 -266q-52 8 -107 0q-11 96 -36.5 169t-75.5 135t-135 95t-203 33
q-236 0 -352.5 -155.5t-116.5 -495.5q0 -148 21.5 -261.5t60 -187.5t96 -121t124.5 -66.5t150 -19.5q457 0 484 482q19 -1 58 -1t56 1q-12 -200 -74.5 -324.5t-191.5 -187t-334 -62.5q-159 0 -282.5 42.5t-214 131.5t-138 233.5t-47.5 340.5q0 192 52.5 337t147 232.5
t216.5 130.5t270 43q206 0 363 -94z" />
    <glyph glyph-name="cacute" unicode="&#x107;" horiz-adv-x="995" 
d="M506 1055l-17 20q10 11 44 48t49 53.5t44 47.5t47 48.5t40 37.5t39 33q34 25 67 12.5t35 -42.5t-29 -58q-109 -85 -319 -200zM825 264l88 -20q-16 -58 -44 -105.5t-73 -88t-114.5 -63t-157.5 -22.5q-212 0 -324 128t-112 364q0 230 123.5 367t335.5 137q154 0 249 -65
t95 -161q0 -61 -33.5 -93t-95.5 -32q-56 0 -87.5 30.5t-31.5 80.5q0 97 98 110q-75 58 -192 58q-140 0 -204 -102t-64 -330q0 -152 30 -241.5t86 -125t148 -35.5q125 0 189 53.5t91 155.5z" />
    <glyph glyph-name="Ccircumflex" unicode="&#x108;" horiz-adv-x="1490" 
d="M1059 1538l-15 -20q-57 39 -142 109.5t-132 117.5q-43 -46 -128.5 -117.5t-141.5 -109.5l-15 20q60 115 244 299h86q57 -52 132.5 -142.5t111.5 -156.5zM1151 1358q69 -40 97 -25.5t38 97.5h96q-15 -104 -22 -236t0 -266q-52 8 -107 0q-11 96 -36.5 169t-75.5 135
t-135 95t-203 33q-236 0 -352.5 -155.5t-116.5 -495.5q0 -148 21.5 -261.5t60 -187.5t96 -121t124.5 -66.5t150 -19.5q457 0 484 482q19 -1 58 -1t56 1q-12 -200 -74.5 -324.5t-191.5 -187t-334 -62.5q-159 0 -282.5 42.5t-214 131.5t-138 233.5t-47.5 340.5q0 192 52.5 337
t147 232.5t216.5 130.5t270 43q206 0 363 -94z" />
    <glyph glyph-name="ccircumflex" unicode="&#x109;" horiz-adv-x="995" 
d="M844 1075l-15 -20q-57 39 -142 109.5t-132 117.5q-43 -46 -128.5 -117.5t-141.5 -109.5l-15 20q60 115 244 299h86q57 -52 132.5 -142.5t111.5 -156.5zM825 264l88 -20q-16 -58 -44 -105.5t-73 -88t-114.5 -63t-157.5 -22.5q-212 0 -324 128t-112 364q0 230 123.5 367
t335.5 137q154 0 249 -65t95 -161q0 -61 -33.5 -93t-95.5 -32q-56 0 -87.5 30.5t-31.5 80.5q0 97 98 110q-75 58 -192 58q-140 0 -204 -102t-64 -330q0 -152 30 -241.5t86 -125t148 -35.5q125 0 189 53.5t91 155.5z" />
    <glyph glyph-name="Cdotaccent" unicode="&#x10a;" horiz-adv-x="1490" 
d="M1151 1358q69 -40 97 -25.5t38 97.5h96q-15 -104 -22 -236t0 -266q-52 8 -107 0q-11 96 -36.5 169t-75.5 135t-135 95t-203 33q-236 0 -352.5 -155.5t-116.5 -495.5q0 -148 21.5 -261.5t60 -187.5t96 -121t124.5 -66.5t150 -19.5q457 0 484 482q19 -1 58 -1t56 1
q-12 -200 -74.5 -324.5t-191.5 -187t-334 -62.5q-159 0 -282.5 42.5t-214 131.5t-138 233.5t-47.5 340.5q0 192 52.5 337t147 232.5t216.5 130.5t270 43q206 0 363 -94zM887 1692q0 -43 -30 -73t-71 -30t-70.5 30t-29.5 73q0 41 29.5 70.5t70.5 29.5t71 -29.5t30 -70.5z" />
    <glyph glyph-name="cdotaccent" unicode="&#x10b;" horiz-adv-x="995" 
d="M825 264l88 -20q-16 -58 -44 -105.5t-73 -88t-114.5 -63t-157.5 -22.5q-212 0 -324 128t-112 364q0 230 123.5 367t335.5 137q154 0 249 -65t95 -161q0 -61 -33.5 -93t-95.5 -32q-56 0 -87.5 30.5t-31.5 80.5q0 97 98 110q-75 58 -192 58q-140 0 -204 -102t-64 -330
q0 -152 30 -241.5t86 -125t148 -35.5q125 0 189 53.5t91 155.5zM645 1221q0 -43 -29.5 -73t-70.5 -30t-71 30t-30 73q0 41 30 70.5t71 29.5t70.5 -29.5t29.5 -70.5z" />
    <glyph glyph-name="Ccaron" unicode="&#x10c;" horiz-adv-x="1490" 
d="M500 1849l14 21q57 -39 142 -110t132 -118q42 44 127 115t144 113l14 -21q-60 -115 -244 -299h-86q-57 51 -132 141.5t-111 157.5zM1151 1358q69 -40 97 -25.5t38 97.5h96q-15 -104 -22 -236t0 -266q-52 8 -107 0q-11 96 -36.5 169t-75.5 135t-135 95t-203 33
q-236 0 -352.5 -155.5t-116.5 -495.5q0 -148 21.5 -261.5t60 -187.5t96 -121t124.5 -66.5t150 -19.5q457 0 484 482q19 -1 58 -1t56 1q-12 -200 -74.5 -324.5t-191.5 -187t-334 -62.5q-159 0 -282.5 42.5t-214 131.5t-138 233.5t-47.5 340.5q0 192 52.5 337t147 232.5
t216.5 130.5t270 43q206 0 363 -94z" />
    <glyph glyph-name="ccaron" unicode="&#x10d;" horiz-adv-x="995" 
d="M276 1372l15 21q57 -39 142 -110t132 -118q42 44 127 115t144 113l14 -21q-60 -115 -244 -299h-86q-57 52 -132.5 142.5t-111.5 156.5zM825 264l88 -20q-16 -58 -44 -105.5t-73 -88t-114.5 -63t-157.5 -22.5q-212 0 -324 128t-112 364q0 230 123.5 367t335.5 137
q154 0 249 -65t95 -161q0 -61 -33.5 -93t-95.5 -32q-56 0 -87.5 30.5t-31.5 80.5q0 97 98 110q-75 58 -192 58q-140 0 -204 -102t-64 -330q0 -152 30 -241.5t86 -125t148 -35.5q125 0 189 53.5t91 155.5z" />
    <glyph glyph-name="Dcaron" unicode="&#x10e;" horiz-adv-x="1605" 
d="M469 1849l14 21q57 -39 142.5 -110t132.5 -118q42 45 127 116t143 112l14 -21q-33 -63 -105 -148t-138 -151h-86q-57 52 -132.5 142.5t-111.5 156.5zM778 1411q369 0 545 -168t180 -526q2 -155 -35 -278t-102.5 -204.5t-159 -135t-199 -76.5t-229.5 -23h-350l-350 -4v102
h133q74 0 97 15.5t24 68.5q2 89 2.5 526.5t-2.5 514.5q-1 55 -22.5 73.5t-78.5 18.5h-153v98q9 0 155.5 -2t202.5 -2q52 0 194 1t148 1zM528 184q1 -49 27 -74.5t66 -25.5h133q109 0 190 18t147.5 61.5t107.5 116t63 181.5t22 258q0 329 -122.5 467.5t-405.5 138.5h-142
q-83 0 -86 -86q-4 -98 -3.5 -526.5t3.5 -528.5z" />
    <glyph glyph-name="dcaron" unicode="&#x10f;" horiz-adv-x="1415" 
d="M1102 1055q101 32 155 95.5t50 158.5q-22 -52 -86 -52q-39 0 -61.5 24t-22.5 69q0 43 29 72.5t77 29.5q58 0 86.5 -39.5t28.5 -99.5q0 -101 -61 -179.5t-183 -115.5zM481 961q237 0 314 -218v496q0 90 -90 90h-107v84q291 0 371 6q-1 -195 -1 -648.5t1 -594.5
q3 -92 90 -92h90v-84q-19 0 -162.5 -2t-191.5 -4v201q-82 -230 -322 -230q-371 0 -371 496q0 251 99 375.5t280 124.5zM795 463q0 399 -252 399q-63 0 -106.5 -17.5t-77 -61.5t-49 -123t-15.5 -199q0 -71 4.5 -123.5t19 -107t39.5 -89t69 -56.5t105 -22q126 0 194.5 104.5
t68.5 295.5z" />
    <glyph glyph-name="Dcroat" unicode="&#x110;" horiz-adv-x="1605" 
d="M778 1411q369 0 545 -168t180 -526q2 -155 -35 -278t-102.5 -204.5t-159 -135t-199 -76.5t-229.5 -23h-350l-350 -4v102h133q74 0 97 15.5t24 68.5q0 2 1 179.5t1 314.5q-41 0 -103.5 -1t-78.5 -1v102q82 -4 182 -4q0 414 -2 451q-1 55 -22.5 73.5t-78.5 18.5h-153v98
q9 0 155.5 -2t202.5 -2q52 0 194 1t148 1zM528 184q1 -49 27 -74.5t66 -25.5h133q109 0 190 18t147.5 61.5t107.5 116t63 181.5t22 258q0 329 -122.5 467.5t-405.5 138.5h-142q-43 0 -63 -21t-23 -65q-4 -110 -4 -467q123 0 221 4v-102q-49 2 -221 2q0 -378 4 -492z" />
    <glyph glyph-name="dcroat" unicode="&#x111;" horiz-adv-x="1200" 
d="M481 961q237 0 314 -218v338q-39 0 -101.5 -1t-81.5 -1v82q90 -4 183 -4v82q0 90 -90 90h-107v84q291 0 371 6q0 -24 -1 -115.5t-1 -146.5q90 0 180 4v-82q-19 0 -80.5 1t-99.5 1q0 -770 2 -905q3 -92 90 -92h90v-84q-19 0 -162.5 -2t-191.5 -4v201q-82 -230 -322 -230
q-371 0 -371 496q0 251 99 375.5t280 124.5zM795 463q0 399 -252 399q-63 0 -106.5 -17.5t-77 -61.5t-49 -123t-15.5 -199q0 -71 4.5 -123.5t19 -107t39.5 -89t69 -56.5t105 -22q126 0 194.5 104.5t68.5 295.5z" />
    <glyph glyph-name="Emacron" unicode="&#x112;" horiz-adv-x="1492" 
d="M924 1008v28h92q0 -27 -3 -127t-3 -188q0 -224 6 -328h-90v29q-3 139 -59 197.5t-203 58.5h-140q0 -381 4 -479q6 -101 95 -101h372q177 0 243 89.5t69 320.5h100q-20 -223 -16 -516q-96 8 -400 8h-569l-350 -4v102h145q64 0 88 26t27 83q3 75 3 508t-3 508q-3 54 -24 73
t-77 19h-159v98q15 0 172 -2t182 -2q14 0 100.5 0.5t219 1t258.5 0.5q286 0 382 12q-13 -209 -4 -491h-92q0 93 -8 154.5t-27 107.5t-54.5 70.5t-85 35.5t-124.5 11h-377q-43 0 -63 -22t-23 -66q-4 -94 -4 -463h160q132 0 186 54.5t54 193.5zM545 1577q3 54 0 111
q94 -3 268 -3t268 3q-3 -56 0 -111q-94 3 -268 3t-268 -3z" />
    <glyph glyph-name="emacron" unicode="&#x113;" horiz-adv-x="1046" 
d="M860 260l84 -20q-42 -131 -141 -205t-260 -74q-221 0 -338 133t-117 369q0 120 35 215.5t97 157t144 93.5t177 32q144 0 240.5 -70.5t135.5 -187.5t29 -271h-665q4 -207 76 -294t212 -87q126 0 193 55t98 154zM532 883q-243 0 -251 -389h419q27 0 37.5 11t10.5 42
q0 165 -56 250.5t-160 85.5zM279 1114q3 54 0 111q94 -3 268 -3t268 3q-3 -55 0 -111q-94 3 -268 3t-268 -3z" />
    <glyph glyph-name="Ebreve" unicode="&#x114;" horiz-adv-x="1492" 
d="M924 1008v28h92q0 -27 -3 -127t-3 -188q0 -224 6 -328h-90v29q-3 139 -59 197.5t-203 58.5h-140q0 -381 4 -479q6 -101 95 -101h372q177 0 243 89.5t69 320.5h100q-20 -223 -16 -516q-96 8 -400 8h-569l-350 -4v102h145q64 0 88 26t27 83q3 75 3 508t-3 508q-3 54 -24 73
t-77 19h-159v98q15 0 172 -2t182 -2q14 0 100.5 0.5t219 1t258.5 0.5q286 0 382 12q-13 -209 -4 -491h-92q0 93 -8 154.5t-27 107.5t-54.5 70.5t-85 35.5t-124.5 11h-377q-43 0 -63 -22t-23 -66q-4 -94 -4 -463h160q132 0 186 54.5t54 193.5zM809 1548q-145 0 -219 84.5
t-60 212.5l27 4q6 -98 69 -140t183 -42t183 42t69 140l26 -4q14 -128 -59.5 -212.5t-218.5 -84.5z" />
    <glyph glyph-name="ebreve" unicode="&#x115;" horiz-adv-x="1046" 
d="M860 260l84 -20q-42 -131 -141 -205t-260 -74q-221 0 -338 133t-117 369q0 120 35 215.5t97 157t144 93.5t177 32q144 0 240.5 -70.5t135.5 -187.5t29 -271h-665q4 -207 76 -294t212 -87q126 0 193 55t98 154zM532 883q-243 0 -251 -389h419q27 0 37.5 11t10.5 42
q0 165 -56 250.5t-160 85.5zM539 1077q-145 0 -219 84.5t-60 212.5l27 4q6 -98 69 -140t183 -42t183 42t69 140l26 -4q14 -128 -59.5 -212.5t-218.5 -84.5z" />
    <glyph glyph-name="Edotaccent" unicode="&#x116;" horiz-adv-x="1492" 
d="M924 1008v28h92q0 -27 -3 -127t-3 -188q0 -224 6 -328h-90v29q-3 139 -59 197.5t-203 58.5h-140q0 -381 4 -479q6 -101 95 -101h372q177 0 243 89.5t69 320.5h100q-20 -223 -16 -516q-96 8 -400 8h-569l-350 -4v102h145q64 0 88 26t27 83q3 75 3 508t-3 508q-3 54 -24 73
t-77 19h-159v98q15 0 172 -2t182 -2q14 0 100.5 0.5t219 1t258.5 0.5q286 0 382 12q-13 -209 -4 -491h-92q0 93 -8 154.5t-27 107.5t-54.5 70.5t-85 35.5t-124.5 11h-377q-43 0 -63 -22t-23 -66q-4 -94 -4 -463h160q132 0 186 54.5t54 193.5zM899 1692q0 -43 -29.5 -73
t-70.5 -30t-71 30t-30 73q0 41 30 70.5t71 29.5t70.5 -29.5t29.5 -70.5z" />
    <glyph glyph-name="edotaccent" unicode="&#x117;" horiz-adv-x="1046" 
d="M860 260l84 -20q-42 -131 -141 -205t-260 -74q-221 0 -338 133t-117 369q0 120 35 215.5t97 157t144 93.5t177 32q144 0 240.5 -70.5t135.5 -187.5t29 -271h-665q4 -207 76 -294t212 -87q126 0 193 55t98 154zM532 883q-243 0 -251 -389h419q27 0 37.5 11t10.5 42
q0 165 -56 250.5t-160 85.5zM645 1221q0 -43 -29.5 -73t-70.5 -30t-71 30t-30 73q0 41 30 70.5t71 29.5t70.5 -29.5t29.5 -70.5z" />
    <glyph glyph-name="Eogonek" unicode="&#x118;" horiz-adv-x="1492" 
d="M924 1008v28h92q0 -27 -3 -127t-3 -188q0 -224 6 -328h-90v29q-3 139 -59 197.5t-203 58.5h-140q0 -381 4 -479q6 -101 95 -101h372q177 0 243 89.5t69 320.5h100q-20 -223 -16 -516q-53 6 -136 6q-150 -72 -153 -203q-3 -63 33.5 -94t89.5 -31q67 0 110 46t54 120l45 -8
q-6 -117 -69.5 -183.5t-174.5 -66.5q-98 0 -154 50t-53 132q8 151 195 240h-756l-350 -4v102h145q64 0 88 26t27 83q3 75 3 508t-3 508q-3 54 -24 73t-77 19h-159v98q15 0 172 -2t182 -2q14 0 100.5 0.5t219 1t258.5 0.5q286 0 382 12q-13 -209 -4 -491h-92q0 93 -8 154.5
t-27 107.5t-54.5 70.5t-85 35.5t-124.5 11h-377q-43 0 -63 -22t-23 -66q-4 -94 -4 -463h160q132 0 186 54.5t54 193.5z" />
    <glyph glyph-name="eogonek" unicode="&#x119;" horiz-adv-x="1046" 
d="M991 -172q-9 -113 -76 -181.5t-178 -68.5q-100 0 -152 50.5t-46 133.5q10 127 153 215q-59 -16 -149 -16q-221 0 -338 133t-117 369q0 120 35 215.5t97 157t144 93.5t177 32q144 0 240.5 -70.5t135.5 -187.5t29 -271h-665q4 -207 76 -294t212 -87q126 0 192 55t97 154
l86 -20q-34 -109 -160 -224q-124 -118 -131 -219q-1 -64 33 -95.5t88 -31.5q67 0 111.5 45.5t60.5 120.5zM532 883q-243 0 -251 -389h419q27 0 37.5 11t10.5 42q0 165 -56 250.5t-160 85.5z" />
    <glyph glyph-name="Ecaron" unicode="&#x11a;" horiz-adv-x="1492" 
d="M500 1849l14 21q57 -39 142 -110t132 -118q42 44 127 115t144 113l14 -21q-60 -115 -244 -299h-86q-57 51 -132 141.5t-111 157.5zM924 1008v28h92q0 -27 -3 -127t-3 -188q0 -224 6 -328h-90v29q-3 139 -59 197.5t-203 58.5h-140q0 -381 4 -479q6 -101 95 -101h372
q177 0 243 89.5t69 320.5h100q-20 -223 -16 -516q-96 8 -400 8h-569l-350 -4v102h145q64 0 88 26t27 83q3 75 3 508t-3 508q-3 54 -24 73t-77 19h-159v98q15 0 172 -2t182 -2q14 0 100.5 0.5t219 1t258.5 0.5q286 0 382 12q-13 -209 -4 -491h-92q0 93 -8 154.5t-27 107.5
t-54.5 70.5t-85 35.5t-124.5 11h-377q-43 0 -63 -22t-23 -66q-4 -94 -4 -463h160q132 0 186 54.5t54 193.5z" />
    <glyph glyph-name="ecaron" unicode="&#x11b;" horiz-adv-x="1046" 
d="M250 1372l14 21q57 -39 142.5 -110t132.5 -118q42 45 127 116t143 112l14 -21q-33 -63 -105 -148t-138 -151h-86q-57 52 -132.5 142.5t-111.5 156.5zM860 260l84 -20q-42 -131 -141 -205t-260 -74q-221 0 -338 133t-117 369q0 120 35 215.5t97 157t144 93.5t177 32
q144 0 240.5 -70.5t135.5 -187.5t29 -271h-665q4 -207 76 -294t212 -87q126 0 193 55t98 154zM532 883q-243 0 -251 -389h419q27 0 37.5 11t10.5 42q0 165 -56 250.5t-160 85.5z" />
    <glyph glyph-name="Gcircumflex" unicode="&#x11c;" horiz-adv-x="1640" 
d="M1065 1532l-14 -21q-57 39 -142.5 110t-132.5 118q-43 -46 -129 -118t-141 -110l-14 21q33 63 105 148t138 151h86q57 -52 132.5 -142.5t111.5 -156.5zM791 1452q108 0 191.5 -23t168.5 -71q69 -40 97 -25.5t38 97.5h96q-15 -104 -22 -236t0 -266q-52 8 -107 0
q-11 96 -36.5 169t-75.5 135t-135 95t-203 33q-236 0 -352.5 -155.5t-116.5 -495.5q0 -148 22 -261.5t60.5 -187.5t96.5 -121t124.5 -66.5t148.5 -19.5q185 0 301.5 102.5t116.5 290.5q0 102 -25 140.5t-102 38.5h-108v96q196 -6 305 -6l305 6v-96h-86q-47 0 -67.5 -27
t-20.5 -96q0 -377 10 -527q-17 3 -54 3t-54 -3q-1 4 -18.5 100t-31.5 154q-59 -116 -184.5 -192t-288.5 -76q-158 0 -281.5 42.5t-214 131t-138.5 233.5t-48 341q0 192 53 337t148 232.5t217.5 130.5t270.5 43z" />
    <glyph glyph-name="gcircumflex" unicode="&#x11d;" horiz-adv-x="1103" 
d="M770 1075l-14 -20q-58 39 -143.5 110t-131.5 117q-43 -46 -128.5 -117.5t-141.5 -109.5l-14 20q33 63 105 148t138 151h86q57 -52 132.5 -142.5t111.5 -156.5zM469 961q147 0 238 -52q20 82 70.5 133.5t127.5 51.5q78 0 119 -39t41 -105q0 -56 -28 -86t-76 -30
q-49 0 -77 26t-28 70q0 59 43 86q-55 -1 -93 -37.5t-56 -97.5q110 -87 110 -265q0 -165 -112 -256.5t-295 -91.5q-201 0 -201 -67q0 -13 5.5 -23t24 -20.5t51.5 -17.5t91 -12t139 -7q169 -3 267 -30.5t137 -78t39 -133.5q0 -128 -133 -215.5t-377 -87.5q-469 0 -469 221
q0 67 64.5 116t162.5 71q-70 21 -99.5 58t-29.5 91q0 62 50.5 102t133.5 56q-107 35 -168 118t-61 207q0 162 112 253.5t277 91.5zM471 889q-207 0 -207 -275q0 -147 52 -209.5t155 -62.5q105 0 155 62.5t50 209.5t-52 211t-153 64zM508 -49q-99 4 -143 10
q-209 -30 -209 -145q0 -73 84 -115.5t254 -42.5q205 0 307 44t102 120q0 44 -31 70t-118 41t-246 18z" />
    <glyph glyph-name="Gbreve" unicode="&#x11e;" horiz-adv-x="1640" 
d="M791 1452q108 0 191.5 -23t168.5 -71q69 -40 97 -25.5t38 97.5h96q-15 -104 -22 -236t0 -266q-52 8 -107 0q-11 96 -36.5 169t-75.5 135t-135 95t-203 33q-236 0 -352.5 -155.5t-116.5 -495.5q0 -148 22 -261.5t60.5 -187.5t96.5 -121t124.5 -66.5t148.5 -19.5
q185 0 301.5 102.5t116.5 290.5q0 102 -25 140.5t-102 38.5h-108v96q196 -6 305 -6l305 6v-96h-86q-47 0 -67.5 -27t-20.5 -96q0 -377 10 -527q-17 3 -54 3t-54 -3q-1 4 -18.5 100t-31.5 154q-59 -116 -184.5 -192t-288.5 -76q-158 0 -281.5 42.5t-214 131t-138.5 233.5
t-48 341q0 192 53 337t148 232.5t217.5 130.5t270.5 43zM772 1548q-145 0 -218.5 84.5t-59.5 212.5l26 4q6 -98 69 -140t183 -42t183 42t69 140l27 -4q14 -128 -60 -212.5t-219 -84.5z" />
    <glyph glyph-name="gbreve" unicode="&#x11f;" horiz-adv-x="1103" 
d="M469 961q147 0 238 -52q20 82 70.5 133.5t127.5 51.5q78 0 119 -39t41 -105q0 -56 -28 -86t-76 -30q-49 0 -77 26t-28 70q0 59 43 86q-55 -1 -93 -37.5t-56 -97.5q110 -87 110 -265q0 -165 -112 -256.5t-295 -91.5q-201 0 -201 -67q0 -13 5.5 -23t24 -20.5t51.5 -17.5
t91 -12t139 -7q169 -3 267 -30.5t137 -78t39 -133.5q0 -128 -133 -215.5t-377 -87.5q-469 0 -469 221q0 67 64.5 116t162.5 71q-70 21 -99.5 58t-29.5 91q0 62 50.5 102t133.5 56q-107 35 -168 118t-61 207q0 162 112 253.5t277 91.5zM471 889q-207 0 -207 -275
q0 -147 52 -209.5t155 -62.5q105 0 155 62.5t50 209.5t-52 211t-153 64zM508 -49q-99 4 -143 10q-209 -30 -209 -145q0 -73 84 -115.5t254 -42.5q205 0 307 44t102 120q0 44 -31 70t-118 41t-246 18zM479 1077q-145 0 -218.5 84.5t-59.5 212.5l26 4q6 -98 69 -140t183 -42
t183 42t69 140l27 -4q14 -128 -60 -212.5t-219 -84.5z" />
    <glyph glyph-name="Gdotaccent" unicode="&#x120;" horiz-adv-x="1640" 
d="M791 1452q108 0 191.5 -23t168.5 -71q69 -40 97 -25.5t38 97.5h96q-15 -104 -22 -236t0 -266q-52 8 -107 0q-11 96 -36.5 169t-75.5 135t-135 95t-203 33q-236 0 -352.5 -155.5t-116.5 -495.5q0 -148 22 -261.5t60.5 -187.5t96.5 -121t124.5 -66.5t148.5 -19.5
q185 0 301.5 102.5t116.5 290.5q0 102 -25 140.5t-102 38.5h-108v96q196 -6 305 -6l305 6v-96h-86q-47 0 -67.5 -27t-20.5 -96q0 -377 10 -527q-17 3 -54 3t-54 -3q-1 4 -18.5 100t-31.5 154q-59 -116 -184.5 -192t-288.5 -76q-158 0 -281.5 42.5t-214 131t-138.5 233.5
t-48 341q0 192 53 337t148 232.5t217.5 130.5t270.5 43zM881 1692q0 -43 -30 -73t-71 -30t-70.5 30t-29.5 73q0 41 29.5 70.5t70.5 29.5t71 -29.5t30 -70.5z" />
    <glyph glyph-name="gdotaccent" unicode="&#x121;" horiz-adv-x="1103" 
d="M469 961q147 0 238 -52q20 82 70.5 133.5t127.5 51.5q78 0 119 -39t41 -105q0 -56 -28 -86t-76 -30q-49 0 -77 26t-28 70q0 59 43 86q-55 -1 -93 -37.5t-56 -97.5q110 -87 110 -265q0 -165 -112 -256.5t-295 -91.5q-201 0 -201 -67q0 -13 5.5 -23t24 -20.5t51.5 -17.5
t91 -12t139 -7q169 -3 267 -30.5t137 -78t39 -133.5q0 -128 -133 -215.5t-377 -87.5q-469 0 -469 221q0 67 64.5 116t162.5 71q-70 21 -99.5 58t-29.5 91q0 62 50.5 102t133.5 56q-107 35 -168 118t-61 207q0 162 112 253.5t277 91.5zM471 889q-207 0 -207 -275
q0 -147 52 -209.5t155 -62.5q105 0 155 62.5t50 209.5t-52 211t-153 64zM508 -49q-99 4 -143 10q-209 -30 -209 -145q0 -73 84 -115.5t254 -42.5q205 0 307 44t102 120q0 44 -31 70t-118 41t-246 18zM588 1221q0 -43 -30 -73t-71 -30t-70.5 30t-29.5 73q0 41 29.5 70.5
t70.5 29.5t71 -29.5t30 -70.5z" />
    <glyph glyph-name="Gcommaaccent" unicode="&#x122;" horiz-adv-x="1640" 
d="M627 -537q213 68 204 254q-22 -51 -86 -51q-39 0 -61 23.5t-22 68.5q0 43 29 73t77 30q58 0 86.5 -39.5t28.5 -100.5q0 -100 -61 -178.5t-183 -115.5zM791 1452q108 0 191.5 -23t168.5 -71q69 -40 97 -25.5t38 97.5h96q-15 -104 -22 -236t0 -266q-52 8 -107 0
q-11 96 -36.5 169t-75.5 135t-135 95t-203 33q-236 0 -352.5 -155.5t-116.5 -495.5q0 -148 22 -261.5t60.5 -187.5t96.5 -121t124.5 -66.5t148.5 -19.5q185 0 301.5 102.5t116.5 290.5q0 102 -25 140.5t-102 38.5h-108v96q196 -6 305 -6l305 6v-96h-86q-47 0 -67.5 -27
t-20.5 -96q0 -377 10 -527q-17 3 -54 3t-54 -3q-1 4 -18.5 100t-31.5 154q-59 -116 -184.5 -192t-288.5 -76q-158 0 -281.5 42.5t-214 131t-138.5 233.5t-48 341q0 192 53 337t148 232.5t217.5 130.5t270.5 43z" />
    <glyph glyph-name="gcommaaccent" unicode="&#x123;" horiz-adv-x="1103" 
d="M637 1505q-101 -32 -155 -95.5t-50 -158.5q22 52 86 52q39 0 61.5 -24t22.5 -69q0 -43 -29 -72.5t-77 -29.5q-58 0 -86.5 39.5t-28.5 99.5q0 101 61 179.5t183 115.5zM469 961q147 0 238 -52q20 82 70.5 133.5t127.5 51.5q78 0 119 -39t41 -105q0 -56 -28 -86t-76 -30
q-49 0 -77 26t-28 70q0 59 43 86q-55 -1 -93 -37.5t-56 -97.5q110 -87 110 -265q0 -165 -112 -256.5t-295 -91.5q-201 0 -201 -67q0 -13 5.5 -23t24 -20.5t51.5 -17.5t91 -12t139 -7q169 -3 267 -30.5t137 -78t39 -133.5q0 -128 -133 -215.5t-377 -87.5q-469 0 -469 221
q0 67 64.5 116t162.5 71q-70 21 -99.5 58t-29.5 91q0 62 50.5 102t133.5 56q-107 35 -168 118t-61 207q0 162 112 253.5t277 91.5zM471 889q-207 0 -207 -275q0 -147 52 -209.5t155 -62.5q105 0 155 62.5t50 209.5t-52 211t-153 64zM508 -49q-99 4 -143 10
q-209 -30 -209 -145q0 -73 84 -115.5t254 -42.5q205 0 307 44t102 120q0 44 -31 70t-118 41t-246 18z" />
    <glyph glyph-name="Hcircumflex" unicode="&#x124;" horiz-adv-x="1769" 
d="M1176 1538l-15 -20q-57 39 -142 109.5t-132 117.5q-43 -46 -129 -117.5t-142 -109.5l-14 20q60 115 244 299h86q57 -52 132.5 -142.5t111.5 -156.5zM88 -4v102h123q73 0 96.5 14.5t24.5 65.5q3 95 3 525t-3 509q-1 59 -25.5 81t-81.5 22h-135v98q217 -6 338 -6
q72 0 202 3t136 3v-98h-135q-57 0 -81.5 -22t-25.5 -81q-4 -98 -4 -460q476 -5 731 0q0 362 -4 460q-3 59 -27 81t-81 22h-135v98q218 -6 339 -6q71 0 201.5 3t136.5 3v-98h-137q-57 0 -81 -22t-25 -81q-3 -80 -3 -509.5t3 -524.5q1 -51 24.5 -65.5t96.5 -14.5h122v-102
q-217 4 -338 4l-339 -4v102h122q73 0 96.5 14.5t24.5 65.5q4 118 4 486q-432 4 -731 -2q0 -366 4 -484q1 -51 24 -65.5t95 -14.5h123v-102q-217 4 -338 4z" />
    <glyph glyph-name="hcircumflex" unicode="&#x125;" horiz-adv-x="1290" 
d="M553 1528l-14 -21q-57 39 -142.5 110t-132.5 118q-43 -46 -129 -118t-141 -110l-14 21q33 63 105 148t138 151h86q57 -52 132.5 -142.5t111.5 -156.5zM1059 575q0 -35 -0.5 -108.5t-0.5 -134.5t1 -111q3 -86 25.5 -111.5t99.5 -25.5h47v-88q-9 0 -108 3t-154 3
q-41 0 -103 -1.5t-109 -3t-52 -1.5v88h53q74 0 100 27t27 108q4 152 0 338q-3 150 -53 227.5t-164 77.5q-135 0 -198.5 -114.5t-63.5 -364.5v-176q0 -81 23 -102t101 -21h56v-88q-10 0 -110.5 3t-156.5 3q-57 0 -165 -3l-109 -3v88h66q42 1 62.5 4.5t34 18t17.5 35t6 63.5
q1 35 1 497.5t-1 499.5q-3 78 -24 102.5t-101 24.5h-57v84q235 0 361 6q-4 -75 -4 -315v-387q76 244 323 244q175 0 252.5 -99.5t77.5 -286.5z" />
    <glyph glyph-name="Hbar" unicode="&#x126;" horiz-adv-x="1769" 
d="M88 -4v102h123q73 0 96.5 14.5t24.5 65.5q6 263 2 803q-32 0 -70.5 -1t-42.5 -1v86q18 -2 113 -2q0 41 -1 92t-1 57q-1 59 -25.5 81t-81.5 22h-135v98q217 -6 338 -6q72 0 202 3t136 3v-98h-135q-56 0 -79.5 -22t-27.5 -81q-1 -10 -1.5 -30t-1 -56.5t-1.5 -64.5h729
q0 43 -1 94.5t-1 56.5q-3 59 -27 81t-81 22h-135v98q218 -6 339 -6q71 0 201.5 3t136.5 3v-98h-137q-56 0 -79.5 -22t-26.5 -81q-2 -23 -2 -149q80 0 96 2v-86q-4 0 -38 1t-60 1q0 -713 4 -803q1 -51 24.5 -65.5t96.5 -14.5h122v-102q-217 4 -338 4l-339 -4v102h122
q73 0 96.5 14.5t24.5 65.5q4 118 4 486q-432 4 -731 -2q0 -366 4 -484q1 -51 24 -65.5t95 -14.5h123v-102q-217 4 -338 4zM1251 981q-362 3 -731 0v-229q476 -5 731 0v229z" />
    <glyph glyph-name="hbar" unicode="&#x127;" horiz-adv-x="1290" 
d="M55 1079v82q86 -4 176 -4v45q-3 78 -24 102.5t-101 24.5h-57v84q235 0 361 6q-4 -63 -4 -262q94 0 184 4v-82q-19 0 -82 1t-102 1v-364q76 244 323 244q175 0 252.5 -99.5t77.5 -286.5q0 -35 -0.5 -108.5t-0.5 -134.5t1 -111q3 -86 25.5 -111.5t99.5 -25.5h47v-88
q-9 0 -108 3t-154 3q-41 0 -103 -1.5t-109 -3t-52 -1.5v88h53q74 0 100 27t27 108q4 152 0 338q-3 150 -53 227.5t-164 77.5q-135 0 -198.5 -114.5t-63.5 -364.5v-176q0 -81 23 -102t101 -21h56v-88q-10 0 -110.5 3t-156.5 3q-57 0 -165 -3l-109 -3v88h66q42 1 62.5 4.5
t34 18t17.5 35t6 63.5q1 29 1 362.5t-1 513.5q-38 0 -98 -1t-78 -1z" />
    <glyph glyph-name="Itilde" unicode="&#x128;" horiz-adv-x="862" 
d="M92 -4v102h121q70 0 94.5 18t24.5 70q3 95 3 521t-3 505q-1 59 -25.5 81t-81.5 22h-133v98q219 -6 340 -6q72 0 202 3t136 3v-98h-133q-57 0 -80.5 -22t-26.5 -81q-4 -89 -3.5 -505t3.5 -521q1 -52 25.5 -70t95.5 -18h119v-102q-217 4 -338 4zM686 1827l39 8
q31 -101 10.5 -165.5t-67.5 -95t-111 -30.5q-65 0 -105.5 28.5t-80.5 88.5q-25 38 -36 53.5t-29 34t-34.5 24t-38.5 5.5q-49 0 -67 -48.5t4 -158.5l-39 -8q-43 143 9.5 216.5t158.5 73.5q58 0 98.5 -26t83.5 -90q42 -64 70.5 -90.5t69.5 -26.5q49 0 68 50t-3 157z" />
    <glyph glyph-name="itilde" unicode="&#x129;" horiz-adv-x="634" 
d="M406 938q-2 -637 0 -737q3 -74 25 -95.5t89 -21.5h68v-88q-10 0 -112 3t-159 3t-163 -3t-107 -3v88h78q62 0 82.5 21.5t23.5 93.5q1 73 1 276.5t-1 261.5q-3 64 -24 87.5t-92 23.5h-66v84q277 0 357 6zM543 1350l39 8q31 -101 10.5 -165.5t-67.5 -95t-111 -30.5
q-65 0 -106 29t-81 88q-25 38 -36 53t-28.5 33.5t-34 24t-38.5 5.5q-49 0 -66.5 -48t3.5 -158l-39 -9q-43 143 9.5 217t158.5 74q58 0 98.5 -26t83.5 -90q43 -65 70.5 -91t68.5 -26q49 0 68 50t-2 157z" />
    <glyph glyph-name="Imacron" unicode="&#x12a;" horiz-adv-x="862" 
d="M92 -4v102h121q70 0 94.5 18t24.5 70q3 95 3 521t-3 505q-1 59 -25.5 81t-81.5 22h-133v98q219 -6 340 -6q72 0 202 3t136 3v-98h-133q-57 0 -80.5 -22t-26.5 -81q-4 -89 -3.5 -505t3.5 -521q1 -52 25.5 -70t95.5 -18h119v-102q-217 4 -338 4zM168 1577q3 54 0 111
q94 -3 268.5 -3t268.5 3q-3 -56 0 -111q-94 3 -268.5 3t-268.5 -3z" />
    <glyph glyph-name="imacron" unicode="&#x12b;" horiz-adv-x="634" 
d="M406 938q-2 -637 0 -737q3 -74 25 -95.5t89 -21.5h68v-88q-10 0 -112 3t-159 3t-163 -3t-107 -3v88h78q62 0 82.5 21.5t23.5 93.5q1 73 1 276.5t-1 261.5q-3 64 -24 87.5t-92 23.5h-66v84q277 0 357 6zM10 1114q3 54 0 111q94 -3 268.5 -3t268.5 3q-3 -55 0 -111
q-94 3 -268.5 3t-268.5 -3z" />
    <glyph glyph-name="Ibreve" unicode="&#x12c;" horiz-adv-x="862" 
d="M92 -4v102h121q70 0 94.5 18t24.5 70q3 95 3 521t-3 505q-1 59 -25.5 81t-81.5 22h-133v98q219 -6 340 -6q72 0 202 3t136 3v-98h-133q-57 0 -80.5 -22t-26.5 -81q-4 -89 -3.5 -505t3.5 -521q1 -52 25.5 -70t95.5 -18h119v-102q-217 4 -338 4zM430 1548
q-145 0 -218.5 84.5t-59.5 212.5l26 4q6 -98 69 -140t183 -42t183 42t69 140l27 -4q14 -128 -60 -212.5t-219 -84.5z" />
    <glyph glyph-name="ibreve" unicode="&#x12d;" horiz-adv-x="634" 
d="M406 938q-2 -637 0 -737q3 -74 25 -95.5t89 -21.5h68v-88q-10 0 -112 3t-159 3t-163 -3t-107 -3v88h78q62 0 82.5 21.5t23.5 93.5q1 73 1 276.5t-1 261.5q-3 64 -24 87.5t-92 23.5h-66v84q277 0 357 6zM268 1077q-145 0 -218.5 84.5t-59.5 212.5l26 4q6 -98 69 -140
t183 -42t183 42t69 140l27 -4q14 -128 -60 -212.5t-219 -84.5z" />
    <glyph glyph-name="Iogonek" unicode="&#x12e;" horiz-adv-x="862" 
d="M674 -172q-6 -117 -69.5 -183.5t-174.5 -66.5q-98 0 -154 50t-53 132q8 155 197 240l-328 -4v102h121q70 0 94.5 18t24.5 70q3 95 3 521t-3 505q-1 59 -25.5 81t-81.5 22h-133v98q219 -6 340 -6q72 0 202 3t136 3v-98h-133q-57 0 -80.5 -22t-26.5 -81q-4 -89 -3.5 -505
t3.5 -521q1 -52 25.5 -70t95.5 -18h119v-102q-149 4 -270 4q-73 -34 -115 -87t-43 -118q-3 -63 33.5 -94t89.5 -31q67 0 110 46t54 120z" />
    <glyph glyph-name="iogonek" unicode="&#x12f;" horiz-adv-x="634" 
d="M557 -172q-6 -117 -69.5 -183.5t-174.5 -66.5q-98 0 -154 50t-53 132q8 157 201 242q-42 0 -103 -1.5t-106.5 -3t-50.5 -1.5v88h78q62 0 82.5 21.5t23.5 93.5q1 73 1 276.5t-1 261.5q-3 64 -24 87.5t-92 23.5h-66v84q277 0 357 6q-2 -637 0 -737q3 -74 25 -95.5t89 -21.5
h68v-88q-11 0 -42.5 1t-77.5 2.5t-81 2.5q-159 -72 -162 -207q-3 -63 33.5 -94t89.5 -31q67 0 110 46t54 120zM422 1270q0 -54 -36.5 -90.5t-90.5 -36.5q-51 0 -88 36.5t-37 90.5t37 90.5t88 36.5q54 0 90.5 -36.5t36.5 -90.5z" />
    <glyph glyph-name="Idotaccent" unicode="&#x130;" horiz-adv-x="862" 
d="M92 -4v102h121q70 0 94.5 18t24.5 70q3 95 3 521t-3 505q-1 59 -25.5 81t-81.5 22h-133v98q219 -6 340 -6q72 0 202 3t136 3v-98h-133q-57 0 -80.5 -22t-26.5 -81q-4 -89 -3.5 -505t3.5 -521q1 -52 25.5 -70t95.5 -18h119v-102q-217 4 -338 4zM532 1692q0 -43 -29.5 -73
t-70.5 -30t-70.5 30t-29.5 73q0 41 29.5 70.5t70.5 29.5t70.5 -29.5t29.5 -70.5z" />
    <glyph glyph-name="dotlessi" unicode="&#x131;" horiz-adv-x="634" 
d="M406 938q-2 -637 0 -737q3 -74 25 -95.5t89 -21.5h68v-88q-10 0 -112 3t-159 3t-163 -3t-107 -3v88h78q62 0 82.5 21.5t23.5 93.5q1 73 1 276.5t-1 261.5q-3 64 -24 87.5t-92 23.5h-66v84q277 0 357 6z" />
    <glyph glyph-name="IJ" unicode="&#x132;" horiz-adv-x="1978" 
d="M92 -4v102h121q70 0 94.5 18t24.5 70q3 95 3 521t-3 505q-1 59 -25.5 81t-81.5 22h-133v98q219 -6 340 -6q72 0 202 3t136 3v-98h-133q-57 0 -80.5 -22t-26.5 -81q-4 -89 -3.5 -505t3.5 -521q1 -52 25.5 -70t95.5 -18h119v-102q-217 4 -338 4zM979 201q-37 0 -61 12
q54 -164 264 -164q143 0 209.5 89.5t72.5 291.5q3 131 3.5 410.5t-3.5 371.5q-3 59 -26.5 81t-79.5 22h-119v98q209 -6 326 -6q69 0 194 3t131 3v-98h-116q-57 0 -81.5 -21.5t-25.5 -81.5q-3 -99 -2.5 -384.5t2.5 -397.5q1 -232 -123 -350.5t-352 -118.5q-88 0 -159 28
t-114.5 73.5t-66.5 101.5t-23 115q0 73 41 120t113 47q60 0 95.5 -32.5t35.5 -89.5q0 -62 -41 -92.5t-94 -30.5z" />
    <glyph glyph-name="ij" unicode="&#x133;" horiz-adv-x="1175" 
d="M406 938q-6 -637 0 -737q4 -75 26 -96t88 -21h68v-88q-10 0 -112 3t-159 3t-163 -3t-107 -3v88h78q62 0 82 21t24 94q4 102 3 276.5t-3 261.5q-3 64 -24 87.5t-92 23.5h-66v84q277 0 357 6zM422 1270q0 -54 -36.5 -90.5t-90.5 -36.5q-51 0 -88 36.5t-37 90.5t37 90.5
t88 36.5q54 0 90.5 -36.5t36.5 -90.5zM688 -215q0 -40 -32 -72t-91 -28q39 -25 99 -25q57 0 92 23t56.5 88t21.5 178q0 31 0.5 222.5t0.5 352.5t-1 219q-2 52 -26 78.5t-79 26.5h-78v84q285 0 365 6q-8 -91 -8 -303v-639q0 -402 -312 -402q-109 0 -175 48t-66 129
q0 58 31.5 89t86.5 31q54 0 84.5 -28t30.5 -78zM1026 1270q0 -54 -37 -90.5t-90 -36.5t-89 36.5t-36 90.5t36 90.5t89 36.5t90 -36.5t37 -90.5z" />
    <glyph glyph-name="Jcircumflex" unicode="&#x134;" horiz-adv-x="1212" 
d="M1073 1532l-14 -21q-57 39 -142.5 110t-132.5 118q-43 -46 -129 -118t-141 -110l-14 21q33 63 105 148t138 151h86q57 -52 132.5 -142.5t111.5 -156.5zM213 201q-37 0 -61 12q54 -164 264 -164q143 0 209.5 89.5t72.5 291.5q3 131 3.5 410.5t-3.5 371.5q-3 59 -26.5 81
t-79.5 22h-119v98q209 -6 326 -6q69 0 194 3t131 3v-98h-116q-57 0 -81.5 -21.5t-25.5 -81.5q-3 -99 -2.5 -384.5t2.5 -397.5q1 -232 -123 -350.5t-352 -118.5q-88 0 -159 28t-114.5 73.5t-66.5 101.5t-23 115q0 73 41 120t113 47q60 0 95.5 -32.5t35.5 -89.5
q0 -62 -41 -92.5t-94 -30.5z" />
    <glyph glyph-name="jcircumflex" unicode="&#x135;" horiz-adv-x="589" 
d="M100 -219q0 -41 -31 -71.5t-89 -24.5q39 -25 100 -25q57 0 92 23t56.5 88t21.5 178q0 31 0.5 222.5t0.5 352.5t-1 219q-2 52 -26 78.5t-79 26.5h-77v84q276 0 356 6q-2 -48 -2 -229.5t1 -419t1 -293.5q0 -402 -311 -402q-109 0 -174.5 48t-65.5 129q0 53 32 83.5t87 30.5
q51 0 79.5 -27.5t28.5 -76.5zM588 1075l-15 -20q-57 39 -142 109.5t-132 117.5q-43 -46 -128.5 -117.5t-141.5 -109.5l-15 20q60 115 244 299h86q57 -52 132.5 -142.5t111.5 -156.5z" />
    <glyph glyph-name="Kcommaaccent" unicode="&#x136;" horiz-adv-x="1718" 
d="M725 -522q101 32 155 95.5t50 158.5q-22 -51 -86 -51q-39 0 -61.5 23.5t-22.5 68.5q0 43 29 72.5t77 29.5q58 0 86.5 -39.5t28.5 -99.5q0 -101 -61 -179.5t-183 -115.5zM88 -4v102h123q71 0 94.5 20.5t26.5 84.5q4 89 3.5 505.5t-3.5 501.5q-1 59 -26 82t-83 23h-135v98
q219 -6 340 -6q72 0 202 3t136 3v-98h-135q-57 0 -81.5 -23t-25.5 -82q-4 -114 -4 -548l600 538q23 21 26.5 47.5t-19 47t-66.5 20.5h-105v98q217 -6 338 -6q71 0 195.5 3t130.5 3v-98h-80q-93 0 -162 -31.5t-151 -105.5l-359 -320q90 -130 243 -334.5t226 -292.5
q45 -53 69.5 -76.5t64 -40t94.5 -16.5h67v-100q-217 6 -338 6l-340 -6v100h80q73 0 91.5 32t-17.5 85q-45 72 -169 240.5t-212 277.5l-207 -184q0 -264 4 -346q2 -64 22 -84.5t91 -20.5h129v-102q-217 4 -338 4z" />
    <glyph glyph-name="kcommaaccent" unicode="&#x137;" horiz-adv-x="1253" 
d="M479 -522q101 32 155 95.5t50 158.5q-22 -51 -86 -51q-39 0 -61.5 23.5t-22.5 68.5q0 43 29.5 72.5t77.5 29.5q58 0 86 -39t28 -100q0 -101 -60.5 -179.5t-182.5 -115.5zM406 1417q-3 -153 -3 -958l316 256q58 47 49.5 90t-72.5 43h-57v86q170 -6 268 -6q42 0 104.5 1.5
t110 3t52.5 1.5v-86h-39q-91 0 -157.5 -33t-213.5 -143l-100 -76q45 -69 133 -191t141 -190q55 -70 102.5 -99.5t126.5 -29.5h33v-90q-10 0 -113.5 3t-160.5 3q-58 0 -165.5 -3t-109.5 -3v88h49q56 0 65.5 36t-32.5 99q-58 88 -203 277l-127 -95q0 -30 0.5 -69.5t1.5 -68.5
t1 -32q1 -85 30 -116t99 -31h55v-88q-10 0 -112 3t-159 3q-59 0 -165 -3l-107 -3v88h72q66 0 87.5 28.5t24.5 116.5q1 51 1 487.5t-1 479.5q-3 76 -26.5 104.5t-93.5 28.5h-60v84q195 0 355 4z" />
    <glyph glyph-name="kgreenlandic" unicode="&#x138;" horiz-adv-x="1253" 
d="M406 938q-3 -132 -3 -479l316 256q58 47 49.5 90t-72.5 43h-57v86q170 -6 268 -6q42 0 104.5 1.5t110 3t52.5 1.5v-86h-39q-91 0 -157.5 -33t-213.5 -143l-100 -76q45 -69 133 -191t141 -190q55 -70 102.5 -99.5t126.5 -29.5h33v-90q-10 0 -113.5 3t-160.5 3
q-58 0 -165.5 -3t-109.5 -3v88h49q56 0 65.5 36t-32.5 99q-58 88 -203 277l-127 -95q0 -143 3 -170q6 -87 33.5 -117t95.5 -30h55v-88q-10 0 -112 3t-159 3q-59 0 -165 -3l-107 -3v88h72q66 0 87.5 28.5t24.5 116.5q1 51 1 247.5t-1 240.5q-3 74 -26.5 102.5t-93.5 28.5h-60
v84q235 0 355 6z" />
    <glyph glyph-name="Lacute" unicode="&#x139;" horiz-adv-x="1357" 
d="M393 1532l-16 20q15 16 52.5 58t59 64.5t52 54.5t54.5 54.5t44 37.5q34 25 67 12.5t35.5 -42.5t-28.5 -58q-111 -86 -320 -201zM768 1413v-98h-137q-57 0 -81.5 -22t-25.5 -81q-3 -79 -3 -505t3 -521q1 -49 26 -68.5t81 -19.5h196q84 0 136.5 9t96 33.5t67.5 73t38 121.5
t19 185h100q-8 -98 -13.5 -266.5t-4.5 -261.5q-96 8 -396 8h-444q-264 0 -338 -4v102h125q70 0 93.5 17.5t25.5 70.5q3 95 3 521t-3 505q-1 59 -25.5 81t-81.5 22h-135v98q219 -6 340 -6q66 0 184.5 3t153.5 3z" />
    <glyph glyph-name="lacute" unicode="&#x13a;" horiz-adv-x="634" 
d="M279 1473l-17 20q11 12 52 57t60 65.5t51 53.5t55.5 55t43.5 37q34 25 67 12.5t35.5 -42.5t-28.5 -58q-109 -85 -319 -200zM406 1419q-4 -1124 0 -1198q5 -85 27.5 -111t96.5 -26h58v-88q-2 0 -107.5 3t-163.5 3q-42 0 -106.5 -1.5t-113 -3t-52.5 -1.5v88h66
q75 1 96 26.5t24 108.5q1 54 1 490t-1 479q-3 81 -24.5 111t-100.5 30h-57v84q277 0 357 6z" />
    <glyph glyph-name="Lcommaaccent" unicode="&#x13b;" horiz-adv-x="1357" 
d="M557 -522q101 32 155 95.5t50 158.5q-22 -51 -86 -51q-39 0 -61.5 23.5t-22.5 68.5q0 43 29 72.5t77 29.5q58 0 86.5 -39.5t28.5 -99.5q0 -101 -61 -179.5t-183 -115.5zM768 1413v-98h-137q-57 0 -81.5 -22t-25.5 -81q-3 -79 -3 -505t3 -521q1 -49 26 -68.5t81 -19.5h196
q84 0 136.5 9t96 33.5t67.5 73t38 121.5t19 185h100q-8 -98 -13.5 -266.5t-4.5 -261.5q-96 8 -396 8h-444q-264 0 -338 -4v102h125q70 0 93.5 17.5t25.5 70.5q3 95 3 521t-3 505q-1 59 -25.5 81t-81.5 22h-135v98q219 -6 340 -6q66 0 184.5 3t153.5 3z" />
    <glyph glyph-name="lcommaaccent" unicode="&#x13c;" horiz-adv-x="634" 
d="M182 -522q101 32 155 95.5t50 158.5q-22 -51 -86 -51q-39 0 -61.5 23.5t-22.5 68.5q0 43 29.5 72.5t77.5 29.5q58 0 86 -39t28 -100q0 -101 -60.5 -179.5t-182.5 -115.5zM406 1419q-4 -1124 0 -1198q5 -85 27.5 -111t96.5 -26h58v-88q-2 0 -107.5 3t-163.5 3
q-42 0 -106.5 -1.5t-113 -3t-52.5 -1.5v88h66q75 1 96 26.5t24 108.5q1 54 1 490t-1 479q-3 81 -24.5 111t-100.5 30h-57v84q277 0 357 6z" />
    <glyph glyph-name="Lcaron" unicode="&#x13d;" horiz-adv-x="1357" 
d="M944 1065q101 32 155 95.5t50 158.5q-22 -51 -86 -51q-39 0 -61.5 23.5t-22.5 68.5q0 43 29 72.5t77 29.5q58 0 86.5 -39.5t28.5 -99.5q0 -101 -61 -179.5t-183 -115.5zM768 1413v-98h-137q-57 0 -81.5 -22t-25.5 -81q-3 -79 -3 -505t3 -521q1 -49 26 -68.5t81 -19.5h196
q84 0 136.5 9t96 33.5t67.5 73t38 121.5t19 185h100q-8 -98 -13.5 -266.5t-4.5 -261.5q-96 8 -396 8h-444q-264 0 -338 -4v102h125q70 0 93.5 17.5t25.5 70.5q3 95 3 521t-3 505q-1 59 -25.5 81t-81.5 22h-135v98q219 -6 340 -6q66 0 184.5 3t153.5 3z" />
    <glyph glyph-name="lcaron" unicode="&#x13e;" horiz-adv-x="817" 
d="M518 1016q101 32 155 95.5t50 158.5q-22 -51 -86 -51q-39 0 -61.5 23.5t-22.5 68.5q0 43 29 72.5t77 29.5q58 0 86.5 -39.5t28.5 -99.5q0 -101 -61 -179.5t-183 -115.5zM406 1419q-4 -1124 0 -1198q5 -85 27.5 -111t96.5 -26h58v-88q-2 0 -107.5 3t-163.5 3
q-42 0 -106.5 -1.5t-113 -3t-52.5 -1.5v88h66q75 1 96 26.5t24 108.5q1 54 1 490t-1 479q-3 81 -24.5 111t-100.5 30h-57v84q277 0 357 6z" />
    <glyph glyph-name="Ldot" unicode="&#x13f;" horiz-adv-x="1357" 
d="M768 1413v-98h-137q-57 0 -81.5 -22t-25.5 -81q-3 -79 -3 -505t3 -521q1 -49 26 -68.5t81 -19.5h196q84 0 136.5 9t96 33.5t67.5 73t38 121.5t19 185h100q-8 -98 -13.5 -266.5t-4.5 -261.5q-96 8 -396 8h-444q-264 0 -338 -4v102h125q70 0 93.5 17.5t25.5 70.5
q3 95 3 521t-3 505q-1 59 -25.5 81t-81.5 22h-135v98q219 -6 340 -6q66 0 184.5 3t153.5 3zM1047 739q0 -43 -29.5 -72.5t-71.5 -29.5q-41 0 -70.5 29.5t-29.5 72.5q0 41 29.5 71t70.5 30t71 -30t30 -71z" />
    <glyph glyph-name="ldot" unicode="&#x140;" horiz-adv-x="806" 
d="M406 1419q-4 -1124 0 -1198q5 -85 27.5 -111t96.5 -26h58v-88q-2 0 -107.5 3t-163.5 3q-42 0 -106.5 -1.5t-113 -3t-52.5 -1.5v88h66q75 1 96 26.5t24 108.5q1 54 1 490t-1 479q-3 81 -24.5 111t-100.5 30h-57v84q277 0 357 6zM809 653q0 -43 -29.5 -72.5t-70.5 -29.5
t-71 29.5t-30 72.5q0 41 30 71t71 30t70.5 -30t29.5 -71z" />
    <glyph glyph-name="Lslash" unicode="&#x141;" horiz-adv-x="1357" 
d="M768 1413v-98h-137q-57 0 -81.5 -22t-25.5 -81q-4 -90 -4 -395q106 53 172 90l39 -76q-94 -44 -211 -104q0 -409 4 -541q1 -49 26 -68.5t81 -19.5h196q84 0 136.5 9t96 33.5t67.5 73t38 121.5t19 185h100q-8 -98 -13.5 -266.5t-4.5 -261.5q-96 8 -396 8h-444
q-264 0 -338 -4v102h125q70 0 93.5 17.5t25.5 70.5q2 55 2 447l-107 -58l-39 76l146 72q0 436 -2 489q-1 59 -25.5 81t-81.5 22h-135v98q219 -6 340 -6q66 0 184.5 3t153.5 3z" />
    <glyph glyph-name="lslash" unicode="&#x142;" horiz-adv-x="634" 
d="M406 1419q-3 -302 -3 -600l121 74l43 -74q-7 -4 -68 -36.5t-96 -53.5q0 -461 3 -508q5 -85 27.5 -111t96.5 -26h58v-88q-2 0 -107.5 3t-163.5 3q-42 0 -106.5 -1.5t-113 -3t-52.5 -1.5v88h66q75 1 96 26.5t24 108.5q0 8 0.5 72t1 159.5t0.5 180.5q-10 -5 -73 -43l-41 71
q24 11 114 64q0 97 -0.5 205.5t-1 180.5t-0.5 79q-3 81 -24.5 111t-100.5 30h-57v84q277 0 357 6z" />
    <glyph glyph-name="Nacute" unicode="&#x143;" horiz-adv-x="1720" 
d="M836 1532l-17 20q15 16 52.5 58t59 64.5t52 54.5t54.5 54.5t44 37.5q34 25 67 12.5t35.5 -42.5t-28.5 -58q-113 -88 -319 -201zM524 1413q279 -424 746 -1089q3 170 3 487.5t-3 392.5q-1 61 -28.5 86t-86.5 25h-135v98q7 0 125.5 -3t183.5 -3q50 0 124.5 1.5t129 3
t55.5 1.5v-98h-137q-60 0 -87 -24.5t-28 -86.5q-3 -83 -3 -582.5t3 -623.5q-19 2 -67.5 2t-67.5 -2q-411 618 -802 1180q-2 -228 -1.5 -570.5t3.5 -412.5q2 -54 27.5 -75.5t94.5 -21.5h129v-102q-198 4 -309 4l-311 -4v102h129q69 0 95 21.5t28 75.5q3 103 3.5 515.5
t-3.5 501.5q-3 59 -27.5 81t-81.5 22h-141v98q222 -8 440 0z" />
    <glyph glyph-name="nacute" unicode="&#x144;" horiz-adv-x="1290" 
d="M614 1055l-16 20q11 12 52 57t60 65.5t51 53.5t55.5 55t43.5 37q34 25 67 12.5t35.5 -42.5t-28.5 -58q-107 -83 -320 -200zM1059 575q0 -50 -0.5 -129t-0.5 -133t1 -92q3 -86 25.5 -111.5t99.5 -25.5h47v-88q-9 0 -108 3t-154 3q-41 0 -103 -1.5t-109 -3t-52 -1.5v88h53
q74 0 100 27t27 108q3 159 0 338q-3 150 -53 227.5t-164 77.5q-133 0 -200.5 -123.5t-64.5 -355.5l3 -162q2 -84 25.5 -110.5t98.5 -26.5h56v-88q-10 0 -112.5 3t-158.5 3q-57 0 -163 -3t-107 -3v88h66q75 0 96 26t24 109q6 188 0 490q-3 80 -24.5 109.5t-100.5 29.5h-57v84
q277 0 357 6v-221q76 244 323 244q336 0 330 -386z" />
    <glyph glyph-name="Ncommaaccent" unicode="&#x145;" horiz-adv-x="1720" 
d="M745 -522q101 32 155 95.5t50 158.5q-22 -51 -86 -51q-39 0 -61.5 23.5t-22.5 68.5q0 43 29.5 72.5t77.5 29.5q58 0 86 -39t28 -100q0 -101 -60.5 -179.5t-182.5 -115.5zM524 1413q279 -424 746 -1089q3 170 3 487.5t-3 392.5q-1 61 -28.5 86t-86.5 25h-135v98
q7 0 125.5 -3t183.5 -3q50 0 124.5 1.5t129 3t55.5 1.5v-98h-137q-60 0 -87 -24.5t-28 -86.5q-3 -83 -3 -582.5t3 -623.5q-19 2 -67.5 2t-67.5 -2q-411 618 -802 1180q-2 -228 -1.5 -570.5t3.5 -412.5q2 -54 27.5 -75.5t94.5 -21.5h129v-102q-198 4 -309 4l-311 -4v102h129
q69 0 95 21.5t28 75.5q3 103 3.5 515.5t-3.5 501.5q-3 59 -27.5 81t-81.5 22h-141v98q222 -8 440 0z" />
    <glyph glyph-name="ncommaaccent" unicode="&#x146;" horiz-adv-x="1290" 
d="M502 -522q101 32 155 95.5t50 158.5q-22 -51 -86 -51q-39 0 -61.5 23.5t-22.5 68.5q0 43 29 72.5t77 29.5q58 0 86.5 -39.5t28.5 -99.5q0 -101 -61 -179.5t-183 -115.5zM1059 575q0 -50 -0.5 -129t-0.5 -133t1 -92q3 -86 25.5 -111.5t99.5 -25.5h47v-88q-9 0 -108 3
t-154 3q-41 0 -103 -1.5t-109 -3t-52 -1.5v88h53q74 0 100 27t27 108q3 159 0 338q-3 150 -53 227.5t-164 77.5q-133 0 -200.5 -123.5t-64.5 -355.5l3 -162q2 -84 25.5 -110.5t98.5 -26.5h56v-88q-10 0 -112.5 3t-158.5 3q-57 0 -163 -3t-107 -3v88h66q75 0 96 26t24 109
q6 188 0 490q-3 80 -24.5 109.5t-100.5 29.5h-57v84q277 0 357 6v-221q76 244 323 244q336 0 330 -386z" />
    <glyph glyph-name="Ncaron" unicode="&#x147;" horiz-adv-x="1720" 
d="M600 1849l14 21q57 -39 142.5 -110t132.5 -118q42 45 127 116t143 112l15 -21q-60 -115 -244 -299h-86q-57 52 -132.5 142.5t-111.5 156.5zM524 1413q279 -424 746 -1089q3 170 3 487.5t-3 392.5q-1 61 -28.5 86t-86.5 25h-135v98q7 0 125.5 -3t183.5 -3q50 0 124.5 1.5
t129 3t55.5 1.5v-98h-137q-60 0 -87 -24.5t-28 -86.5q-3 -83 -3 -582.5t3 -623.5q-19 2 -67.5 2t-67.5 -2q-411 618 -802 1180q-2 -228 -1.5 -570.5t3.5 -412.5q2 -54 27.5 -75.5t94.5 -21.5h129v-102q-198 4 -309 4l-311 -4v102h129q69 0 95 21.5t28 75.5q3 103 3.5 515.5
t-3.5 501.5q-3 59 -27.5 81t-81.5 22h-141v98q222 -8 440 0z" />
    <glyph glyph-name="ncaron" unicode="&#x148;" horiz-adv-x="1290" 
d="M336 1372l14 21q57 -39 142.5 -110t132.5 -118q42 45 127 116t143 112l14 -21q-33 -63 -105 -148t-138 -151h-86q-57 52 -132.5 142.5t-111.5 156.5zM1059 575q0 -50 -0.5 -129t-0.5 -133t1 -92q3 -86 25.5 -111.5t99.5 -25.5h47v-88q-9 0 -108 3t-154 3q-41 0 -103 -1.5
t-109 -3t-52 -1.5v88h53q74 0 100 27t27 108q3 159 0 338q-3 150 -53 227.5t-164 77.5q-133 0 -200.5 -123.5t-64.5 -355.5l3 -162q2 -84 25.5 -110.5t98.5 -26.5h56v-88q-10 0 -112.5 3t-158.5 3q-57 0 -163 -3t-107 -3v88h66q75 0 96 26t24 109q6 188 0 490
q-3 80 -24.5 109.5t-100.5 29.5h-57v84q277 0 357 6v-221q76 244 323 244q336 0 330 -386z" />
    <glyph glyph-name="napostrophe" unicode="&#x149;" horiz-adv-x="1290" 
d="M74 1051q101 32 155 95.5t50 158.5q-22 -52 -86 -52q-39 0 -61.5 24t-22.5 69q0 43 29 72.5t77 29.5q58 0 86.5 -39.5t28.5 -99.5q0 -101 -61 -179.5t-183 -115.5zM1059 575q0 -50 -0.5 -129t-0.5 -133t1 -92q3 -86 25.5 -111.5t99.5 -25.5h47v-88q-9 0 -108 3t-154 3
q-41 0 -103 -1.5t-109 -3t-52 -1.5v88h53q74 0 100 27t27 108q3 159 0 338q-3 150 -53 227.5t-164 77.5q-133 0 -200.5 -123.5t-64.5 -355.5l3 -162q2 -84 25.5 -110.5t98.5 -26.5h56v-88q-10 0 -112.5 3t-158.5 3q-57 0 -163 -3t-107 -3v88h66q75 0 96 26t24 109
q6 188 0 490q-3 80 -24.5 109.5t-100.5 29.5h-57v84q277 0 357 6v-221q76 244 323 244q175 0 252.5 -99.5t77.5 -286.5z" />
    <glyph glyph-name="Eng" unicode="&#x14a;" horiz-adv-x="1720" 
d="M524 1413q279 -424 746 -1089q3 170 3 487.5t-3 392.5q-1 61 -28.5 86t-86.5 25h-135v98q7 0 125.5 -3t183.5 -3q50 0 124.5 1.5t129 3t55.5 1.5v-98h-137q-60 0 -87 -24.5t-28 -86.5q-2 -48 -2 -292t1 -550.5t1 -349.5q0 -205 -81 -311.5t-242 -106.5q-105 0 -170.5 48
t-65.5 129q0 58 32 89t87 31q54 0 84.5 -28t30.5 -78q0 -40 -32 -72t-91 -28q42 -25 102 -25q43 0 77.5 9.5t68.5 34t53.5 76.5t20.5 128l2 78q-404 604 -813 1192q-2 -228 -1.5 -570.5t3.5 -412.5q2 -54 27.5 -75.5t94.5 -21.5h129v-102q-198 4 -309 4l-311 -4v102h129
q69 0 95 21.5t28 75.5q3 103 3.5 515.5t-3.5 501.5q-3 59 -27.5 81t-81.5 22h-141v98q222 -8 440 0z" />
    <glyph glyph-name="eng" unicode="&#x14b;" horiz-adv-x="1210" 
d="M1059 575l1 -116q0 -116 0.5 -258t0.5 -205q0 -402 -313 -402q-109 0 -175.5 48t-66.5 129q0 57 33 88.5t88 31.5q52 0 82 -28t30 -78q0 -39 -32 -71t-91 -29q42 -25 103 -25q31 0 54 6t45 24.5t36 49.5t22.5 84t8.5 125v608q0 149 -51.5 227t-165.5 78
q-133 0 -200.5 -123.5t-64.5 -355.5l3 -162q2 -84 25.5 -110.5t98.5 -26.5h56v-88q-10 0 -112.5 3t-158.5 3q-57 0 -163 -3t-107 -3v88h66q76 0 97 26t23 109q6 188 0 490q-3 80 -24.5 109.5t-100.5 29.5h-57v84q277 0 357 6v-221q76 244 323 244q336 0 330 -386z" />
    <glyph glyph-name="Omacron" unicode="&#x14c;" horiz-adv-x="1583" 
d="M528 1577q3 54 0 111q94 -3 268.5 -3t268.5 3q-3 -56 0 -111q-94 3 -268.5 3t-268.5 -3zM791 53q234 0 351.5 160.5t117.5 495.5q0 336 -116.5 494.5t-352.5 158.5q-223 0 -345 -162.5t-122 -492.5q0 -176 29.5 -301.5t90 -203t145.5 -113.5t202 -36zM791 -39
q-329 0 -509 195.5t-180 550.5q0 178 51 320t143 234.5t218 141.5t277 49q337 0 513.5 -196.5t176.5 -546.5q0 -178 -52 -321t-144.5 -235.5t-218 -142t-275.5 -49.5z" />
    <glyph glyph-name="omacron" unicode="&#x14d;" horiz-adv-x="1091" 
d="M297 1114q3 54 0 111q94 -3 268.5 -3t268.5 3q-3 -55 0 -111q-94 3 -268.5 3t-268.5 -3zM88 457q0 248 122.5 376t334.5 128t335.5 -128.5t123.5 -375.5q0 -239 -124 -367.5t-335 -128.5q-214 0 -335.5 127.5t-121.5 368.5zM289 457q0 -104 14 -181t36.5 -122.5t57 -73
t69 -36.5t79.5 -9t80 9t70 36.5t58 73.5t37.5 123t14.5 182q0 104 -14.5 182t-38 124.5t-58.5 75t-70.5 38.5t-78.5 10q-44 0 -79.5 -10.5t-69.5 -39.5t-56.5 -76t-36.5 -124.5t-14 -181.5z" />
    <glyph glyph-name="Obreve" unicode="&#x14e;" horiz-adv-x="1583" 
d="M791 53q234 0 351.5 160.5t117.5 495.5q0 336 -116.5 494.5t-352.5 158.5q-223 0 -345 -162.5t-122 -492.5q0 -176 29.5 -301.5t90 -203t145.5 -113.5t202 -36zM791 -39q-329 0 -509 195.5t-180 550.5q0 178 51 320t143 234.5t218 141.5t277 49q337 0 513.5 -196.5
t176.5 -546.5q0 -178 -52 -321t-144.5 -235.5t-218 -142t-275.5 -49.5zM805 1548q-145 0 -219 84.5t-60 212.5l27 4q6 -98 69 -140t183 -42t183 42t69 140l26 -4q14 -128 -59.5 -212.5t-218.5 -84.5z" />
    <glyph glyph-name="obreve" unicode="&#x14f;" horiz-adv-x="1091" 
d="M88 457q0 248 122.5 376t334.5 128t335.5 -128.5t123.5 -375.5q0 -239 -124 -367.5t-335 -128.5q-214 0 -335.5 127.5t-121.5 368.5zM289 457q0 -104 14 -181t36.5 -122.5t57 -73t69 -36.5t79.5 -9t80 9t70 36.5t58 73.5t37.5 123t14.5 182q0 104 -14.5 182t-38 124.5
t-58.5 75t-70.5 38.5t-78.5 10q-44 0 -79.5 -10.5t-69.5 -39.5t-56.5 -76t-36.5 -124.5t-14 -181.5zM555 1077q-145 0 -219 84.5t-60 212.5l27 4q6 -98 69 -140t183 -42t183 42t69 140l27 -4q14 -128 -60 -212.5t-219 -84.5z" />
    <glyph glyph-name="Ohungarumlaut" unicode="&#x150;" horiz-adv-x="1583" 
d="M596 1544l-18 17q14 20 55 80t62.5 90t52 70t51.5 63q29 32 63.5 24t41.5 -38.5t-19 -63.5q-89 -92 -289 -242zM932 1544l-19 17q168 248 220 303q30 31 65 23t42 -38t-21 -63q-84 -89 -287 -242zM791 53q234 0 351.5 160.5t117.5 495.5q0 336 -116.5 494.5t-352.5 158.5
q-223 0 -345 -162.5t-122 -492.5q0 -176 29.5 -301.5t90 -203t145.5 -113.5t202 -36zM791 -39q-329 0 -509 195.5t-180 550.5q0 178 51 320t143 234.5t218 141.5t277 49q337 0 513.5 -196.5t176.5 -546.5q0 -178 -52 -321t-144.5 -235.5t-218 -142t-275.5 -49.5z" />
    <glyph glyph-name="ohungarumlaut" unicode="&#x151;" horiz-adv-x="1091" 
d="M379 1065l-19 16q13 19 44 64t49.5 71t44 61.5t46.5 61.5t38 45q29 32 63.5 24.5t41.5 -38t-19 -63.5q-89 -92 -289 -242zM715 1065l-19 16q8 11 37 54t40.5 60.5t36.5 53t39.5 55t33 42.5t32.5 38q30 31 65 23.5t42 -37.5t-21 -63q-86 -92 -286 -242zM88 457
q0 248 122.5 376t334.5 128t335.5 -128.5t123.5 -375.5q0 -239 -124 -367.5t-335 -128.5q-214 0 -335.5 127.5t-121.5 368.5zM289 457q0 -104 14 -181t36.5 -122.5t57 -73t69 -36.5t79.5 -9t80 9t70 36.5t58 73.5t37.5 123t14.5 182q0 104 -14.5 182t-38 124.5t-58.5 75
t-70.5 38.5t-78.5 10q-44 0 -79.5 -10.5t-69.5 -39.5t-56.5 -76t-36.5 -124.5t-14 -181.5z" />
    <glyph glyph-name="OE" unicode="&#x152;" horiz-adv-x="2258" 
d="M1690 1008v28h92q0 -27 -3 -127t-3 -188q0 -224 6 -328h-90v29q-3 142 -61.5 199t-213.5 57h-119q0 -354 5 -477q6 -103 92 -103h366q167 0 239.5 86t72.5 285v35h100q-20 -228 -16 -512q-96 8 -400 8h-715q-122 -39 -251 -39q-332 0 -510.5 191.5t-178.5 556.5
q0 180 50.5 322t142 233.5t217.5 139.5t279 48q160 0 278 -39q110 -4 129 -4q14 0 99.5 0.5t217 1t257.5 0.5q284 0 380 12q-12 -205 -4 -477l-92 -2v33q0 191 -64 262.5t-235 71.5h-368q-44 0 -63.5 -21.5t-22.5 -66.5q-5 -118 -5 -463h125q151 0 209 51t58 197zM791 53
q55 0 104.5 7.5t97.5 24t77.5 50t33.5 80.5q6 74 5.5 502t-5.5 506q-9 137 -313 137q-467 0 -467 -651q0 -182 29.5 -308.5t90 -203t145 -110.5t202.5 -34z" />
    <glyph glyph-name="oe" unicode="&#x153;" horiz-adv-x="1753" 
d="M1653 244q-42 -132 -142 -207.5t-260 -75.5q-237 0 -352 152q-122 -152 -352 -152q-216 0 -337.5 126.5t-121.5 373.5q0 242 121.5 371t337.5 129q237 0 356 -160q61 78 150.5 119t195.5 41q109 0 191.5 -40t131 -112t70 -167.5t13.5 -209.5h-649q4 -209 69 -293t203 -84
q126 0 192 55t97 154zM289 461q0 -104 14 -181.5t36.5 -123.5t57 -74t70 -37.5t80.5 -9.5q44 0 79 9.5t69.5 37.5t57.5 74.5t37.5 124t14.5 182.5q0 104 -14.5 181.5t-38 123.5t-58.5 74t-70 37.5t-79 9.5q-56 0 -98.5 -17.5t-80 -62t-57.5 -132.5t-20 -216zM1241 883
q-112 0 -172 -90.5t-63 -300.5h395q28 0 37.5 11.5t9.5 43.5q0 158 -54 247t-153 89z" />
    <glyph glyph-name="Racute" unicode="&#x154;" horiz-adv-x="1564" 
d="M735 1532l-16 20q15 16 52.5 58t59 64.5t52 54.5t54.5 54.5t44 37.5q34 25 67 12.5t35.5 -42.5t-28.5 -58q-111 -86 -320 -201zM1192 381q11 -100 24 -163.5t31.5 -95.5t37.5 -43t48 -11q70 0 90.5 91.5t-12.5 264.5l80 8q22 -96 23 -178t-19 -149t-73.5 -105.5
t-137.5 -38.5q-85 0 -141 22t-90.5 72t-51 118t-22.5 171q-5 96 -23 156t-54.5 93.5t-84 45.5t-121.5 12h-170q0 -403 4 -446q5 -61 31 -86t88 -25h109v-98q-299 4 -334 4l-336 -4v102h111q72 0 101.5 24t31.5 83q3 72 3 500.5t-3 506.5q-2 58 -25 80.5t-82 22.5h-137v98
q16 0 169 -2t173 -2q48 0 173 1t167 1q533 0 533 -371q0 -147 -98 -246.5t-242 -117.5q113 -28 164.5 -99.5t64.5 -195.5zM530 1247q-4 -118 -4 -516h197q188 0 275 70.5t87 236.5q0 154 -74.5 221.5t-260.5 67.5h-146q-42 0 -58 -20.5t-16 -59.5z" />
    <glyph glyph-name="racute" unicode="&#x155;" horiz-adv-x="897" 
d="M430 1055l-16 20q11 12 52 57t60 65.5t51 53.5t55.5 55t43.5 37q34 25 67 12.5t35.5 -42.5t-28.5 -58q-107 -83 -320 -200zM631 889q-108 0 -166.5 -105t-58.5 -313v-258q0 -82 24 -105.5t100 -23.5h82v-88q-9 0 -116 3t-166 3q-45 0 -111.5 -1.5t-117 -3t-56.5 -1.5v88
h66q77 1 97 23.5t23 103.5q7 345 0 504q-1 40 -4.5 61.5t-16 39.5t-37.5 25t-67 7h-57v84q277 0 357 6l-17 -223q58 246 264 246q104 0 156.5 -56.5t52.5 -144.5q0 -71 -35 -110.5t-96 -39.5q-56 0 -86.5 29t-30.5 84q0 59 45.5 87.5t102.5 18.5q-32 60 -131 60z" />
    <glyph glyph-name="Rcommaaccent" unicode="&#x156;" horiz-adv-x="1564" 
d="M698 -522q101 32 155 95.5t50 158.5q-22 -51 -86 -51q-39 0 -61.5 23.5t-22.5 68.5q0 43 29.5 72.5t77.5 29.5q58 0 86 -39t28 -100q0 -101 -60.5 -179.5t-182.5 -115.5zM1192 381q11 -100 24 -163.5t31.5 -95.5t37.5 -43t48 -11q70 0 90.5 91.5t-12.5 264.5l80 8
q22 -96 23 -178t-19 -149t-73.5 -105.5t-137.5 -38.5q-85 0 -141 22t-90.5 72t-51 118t-22.5 171q-5 96 -23 156t-54.5 93.5t-84 45.5t-121.5 12h-170q0 -403 4 -446q5 -61 31 -86t88 -25h109v-98q-299 4 -334 4l-336 -4v102h111q72 0 101.5 24t31.5 83q3 72 3 500.5
t-3 506.5q-2 58 -25 80.5t-82 22.5h-137v98q16 0 169 -2t173 -2q48 0 173 1t167 1q533 0 533 -371q0 -147 -98 -246.5t-242 -117.5q113 -28 164.5 -99.5t64.5 -195.5zM530 1247q-4 -118 -4 -516h197q188 0 275 70.5t87 236.5q0 154 -74.5 221.5t-260.5 67.5h-146
q-42 0 -58 -20.5t-16 -59.5z" />
    <glyph glyph-name="rcommaaccent" unicode="&#x157;" horiz-adv-x="897" 
d="M164 -522q101 32 155 95.5t50 158.5q-22 -51 -86 -51q-39 0 -61.5 23.5t-22.5 68.5q0 43 29 72.5t77 29.5q58 0 86.5 -39.5t28.5 -99.5q0 -101 -61 -179.5t-183 -115.5zM631 889q-108 0 -166.5 -105t-58.5 -313v-258q0 -82 24 -105.5t100 -23.5h82v-88q-9 0 -116 3
t-166 3q-45 0 -111.5 -1.5t-117 -3t-56.5 -1.5v88h66q77 1 97 23.5t23 103.5q7 345 0 504q-1 40 -4.5 61.5t-16 39.5t-37.5 25t-67 7h-57v84q277 0 357 6l-17 -223q58 246 264 246q104 0 156.5 -56.5t52.5 -144.5q0 -71 -35 -110.5t-96 -39.5q-56 0 -86.5 29t-30.5 84
q0 59 45.5 87.5t102.5 18.5q-32 60 -131 60z" />
    <glyph glyph-name="Rcaron" unicode="&#x158;" horiz-adv-x="1564" 
d="M473 1849l14 21q57 -39 142.5 -110t132.5 -118q42 45 127 116t143 112l15 -21q-60 -115 -244 -299h-86q-57 52 -132.5 142.5t-111.5 156.5zM1192 381q11 -100 24 -163.5t31.5 -95.5t37.5 -43t48 -11q70 0 90.5 91.5t-12.5 264.5l80 8q22 -96 23 -178t-19 -149
t-73.5 -105.5t-137.5 -38.5q-85 0 -141 22t-90.5 72t-51 118t-22.5 171q-5 96 -23 156t-54.5 93.5t-84 45.5t-121.5 12h-170q0 -403 4 -446q5 -61 31 -86t88 -25h109v-98q-299 4 -334 4l-336 -4v102h111q72 0 101.5 24t31.5 83q3 72 3 500.5t-3 506.5q-2 58 -25 80.5
t-82 22.5h-137v98q16 0 169 -2t173 -2q48 0 173 1t167 1q533 0 533 -371q0 -147 -98 -246.5t-242 -117.5q113 -28 164.5 -99.5t64.5 -195.5zM530 1247q-4 -118 -4 -516h197q188 0 275 70.5t87 236.5q0 154 -74.5 221.5t-260.5 67.5h-146q-42 0 -58 -20.5t-16 -59.5z" />
    <glyph glyph-name="rcaron" unicode="&#x159;" horiz-adv-x="897" 
d="M154 1372l14 21q57 -39 142 -110t132 -118q42 44 127 115t144 113l14 -21q-60 -115 -244 -299h-86q-57 51 -132 141.5t-111 157.5zM631 889q-108 0 -166.5 -105t-58.5 -313v-258q0 -82 24 -105.5t100 -23.5h82v-88q-9 0 -116 3t-166 3q-45 0 -111.5 -1.5t-117 -3
t-56.5 -1.5v88h66q77 1 97 23.5t23 103.5q7 345 0 504q-1 40 -4.5 61.5t-16 39.5t-37.5 25t-67 7h-57v84q277 0 357 6l-17 -223q58 246 264 246q104 0 156.5 -56.5t52.5 -144.5q0 -71 -35 -110.5t-96 -39.5q-56 0 -86.5 29t-30.5 84q0 59 45.5 87.5t102.5 18.5
q-32 60 -131 60z" />
    <glyph glyph-name="Sacute" unicode="&#x15a;" horiz-adv-x="1304" 
d="M627 1520l-17 20q11 12 52 57t60 65.5t51 53.5t55.5 55t43.5 37q34 25 67 12.5t35.5 -42.5t-28.5 -58q-109 -85 -319 -200zM637 1360q-163 0 -249.5 -68t-86.5 -178q0 -114 92.5 -172.5t319.5 -95.5q275 -43 389.5 -149t114.5 -302q0 -198 -136.5 -316t-375.5 -118
q-209 0 -375 96q-36 22 -61.5 26t-40 -9.5t-22 -34.5t-11.5 -55h-91q45 221 25 481h88q33 -208 150 -311t335 -103q182 1 280.5 73t98.5 198q0 130 -103 194t-355 107q-231 37 -343 137.5t-112 269.5q0 90 30 166t88 133.5t149.5 90t207.5 32.5q171 0 311 -78
q47 -25 73.5 -24.5t37.5 19.5t16 61h88q-22 -96 -26.5 -228t8.5 -231h-84q-65 389 -430 389z" />
    <glyph glyph-name="sacute" unicode="&#x15b;" horiz-adv-x="917" 
d="M422 1055l-16 20q11 12 52 57t60 65.5t51 53.5t55.5 55t43.5 37q34 25 67 12.5t35 -42.5t-29 -58q-109 -85 -319 -200zM442 872q-103 0 -158 -41t-55 -102q0 -72 58.5 -109t220.5 -61q175 -27 251.5 -101t76.5 -194q0 -146 -86 -224.5t-254 -78.5q-139 0 -269 92
q-71 52 -84 -69q-9 2 -32.5 2t-32.5 -2q24 184 10 362h66q38 -139 126 -217t218 -78q103 0 159 42t56 112q0 67 -59 107t-214 61q-181 25 -259.5 104t-78.5 193q0 133 98.5 214t256.5 77q121 -2 217 -68q27 -23 42.5 -10.5t24.5 71.5h62q-12 -99 -13.5 -163t3.5 -160
q-9 1 -31 1t-31 -1q-27 126 -98 183.5t-191 57.5z" />
    <glyph glyph-name="Scircumflex" unicode="&#x15c;" horiz-adv-x="1304" 
d="M930 1538l-15 -20q-57 39 -142 109.5t-132 117.5q-43 -46 -128.5 -117.5t-141.5 -109.5l-15 20q60 115 244 299h86q57 -52 132.5 -142.5t111.5 -156.5zM637 1360q-163 0 -249.5 -68t-86.5 -178q0 -114 92.5 -172.5t319.5 -95.5q275 -43 389.5 -149t114.5 -302
q0 -198 -136.5 -316t-375.5 -118q-209 0 -375 96q-36 22 -61.5 26t-40 -9.5t-22 -34.5t-11.5 -55h-91q45 221 25 481h88q33 -208 150 -311t335 -103q182 1 280.5 73t98.5 198q0 130 -103 194t-355 107q-231 37 -343 137.5t-112 269.5q0 90 30 166t88 133.5t149.5 90
t207.5 32.5q171 0 311 -78q47 -25 73.5 -24.5t37.5 19.5t16 61h88q-22 -96 -26.5 -228t8.5 -231h-84q-65 389 -430 389z" />
    <glyph glyph-name="scircumflex" unicode="&#x15d;" horiz-adv-x="917" 
d="M754 1075l-15 -20q-57 39 -142 109.5t-132 117.5q-43 -46 -128.5 -117.5t-141.5 -109.5l-15 20q60 115 244 299h86q57 -52 132.5 -142.5t111.5 -156.5zM442 872q-103 0 -158 -41t-55 -102q0 -72 58.5 -109t220.5 -61q175 -27 251.5 -101t76.5 -194q0 -146 -86 -224.5
t-254 -78.5q-139 0 -269 92q-71 52 -84 -69q-9 2 -32.5 2t-32.5 -2q24 184 10 362h66q38 -139 126 -217t218 -78q103 0 159 42t56 112q0 67 -59 107t-214 61q-181 25 -259.5 104t-78.5 193q0 133 98.5 214t256.5 77q121 -2 217 -68q27 -23 42.5 -10.5t24.5 71.5h62
q-12 -99 -13.5 -163t3.5 -160q-9 1 -31 1t-31 -1q-27 126 -98 183.5t-191 57.5z" />
    <glyph glyph-name="Scedilla" unicode="&#x15e;" horiz-adv-x="1304" 
d="M549 -229l-21 36q63 35 94.5 70.5t43.5 85.5q-184 5 -336 94q-36 22 -61.5 26t-40 -9.5t-22 -34.5t-11.5 -55h-91q45 221 25 481h88q33 -208 150 -311t335 -103q182 1 280.5 73t98.5 198q0 130 -103 194t-355 107q-231 37 -343 137.5t-112 269.5q0 90 30 166t88 133.5
t149.5 90t207.5 32.5q171 0 311 -78q47 -25 73.5 -24.5t37.5 19.5t16 61h88q-22 -96 -26.5 -228t8.5 -231h-84q-65 389 -430 389q-163 0 -249.5 -68t-86.5 -178q0 -114 92.5 -172.5t319.5 -95.5q275 -43 389.5 -149t114.5 -302q0 -197 -134 -314t-368 -120q-10 -74 -70 -123
q60 9 113.5 -3.5t90 -52.5t36.5 -101q0 -88 -63.5 -138.5t-172.5 -50.5q-149 0 -211 115l37 31q60 -76 150 -76q65 0 98 32t33 89q0 67 -59 94t-148 -6z" />
    <glyph glyph-name="scedilla" unicode="&#x15f;" horiz-adv-x="917" 
d="M336 -229l-21 36q64 36 96 71.5t42 84.5q-117 12 -226 90q-71 52 -84 -69q-9 2 -32.5 2t-32.5 -2q24 184 10 362h66q38 -139 126 -217t218 -78q103 0 159 42t56 112q0 67 -59 107t-214 61q-181 25 -259.5 104t-78.5 193q0 133 98.5 214t256.5 77q121 -2 217 -68
q27 -23 42.5 -10.5t24.5 71.5h62q-12 -99 -13.5 -163t3.5 -160q-9 1 -31 1t-31 -1q-27 126 -98 183.5t-191 57.5q-103 0 -158 -41t-55 -102q0 -72 58.5 -109t220.5 -61q175 -27 251.5 -101t76.5 -194q0 -144 -84.5 -223t-249.5 -80q-10 -74 -70 -123q60 9 113.5 -3.5
t90 -52.5t36.5 -101q0 -88 -63.5 -138.5t-172.5 -50.5q-149 0 -211 115l37 31q60 -76 150 -76q65 0 98 32t33 89q0 67 -59 94t-148 -6z" />
    <glyph glyph-name="Scaron" unicode="&#x160;" horiz-adv-x="1304" 
d="M371 1849l14 21q57 -39 142 -110t132 -118q42 44 127 115t144 113l14 -21q-60 -115 -244 -299h-86q-57 51 -132 141.5t-111 157.5zM637 1360q-163 0 -249.5 -68t-86.5 -178q0 -114 92.5 -172.5t319.5 -95.5q275 -43 389.5 -149t114.5 -302q0 -198 -136.5 -316
t-375.5 -118q-209 0 -375 96q-36 22 -61.5 26t-40 -9.5t-22 -34.5t-11.5 -55h-91q45 221 25 481h88q33 -208 150 -311t335 -103q182 1 280.5 73t98.5 198q0 130 -103 194t-355 107q-231 37 -343 137.5t-112 269.5q0 90 30 166t88 133.5t149.5 90t207.5 32.5q171 0 311 -78
q47 -25 73.5 -24.5t37.5 19.5t16 61h88q-22 -96 -26.5 -228t8.5 -231h-84q-65 389 -430 389z" />
    <glyph glyph-name="scaron" unicode="&#x161;" horiz-adv-x="917" 
d="M158 1372l14 21q57 -39 142 -110t132 -118q42 44 127 115t144 113l14 -21q-60 -115 -244 -299h-86q-57 51 -132 141.5t-111 157.5zM442 872q-103 0 -158 -41t-55 -102q0 -72 58.5 -109t220.5 -61q175 -27 251.5 -101t76.5 -194q0 -146 -86 -224.5t-254 -78.5
q-139 0 -269 92q-71 52 -84 -69q-9 2 -32.5 2t-32.5 -2q24 184 10 362h66q38 -139 126 -217t218 -78q103 0 159 42t56 112q0 67 -59 107t-214 61q-181 25 -259.5 104t-78.5 193q0 133 98.5 214t256.5 77q121 -2 217 -68q27 -23 42.5 -10.5t24.5 71.5h62q-12 -99 -13.5 -163
t3.5 -160q-9 1 -31 1t-31 -1q-27 126 -98 183.5t-191 57.5z" />
    <glyph glyph-name="Tcommaaccent" unicode="&#x162;" horiz-adv-x="1468" 
d="M610 -229l-20 36q73 40 104 83.5t39 109.5l-340 -4v102h123q67 0 94 26t29 85q3 70 3 504t-3 600h-231q-102 0 -147 -43t-50 -135q-1 -14 -4.5 -105t-3.5 -108h-107q3 88 -0.5 246.5t-9.5 252.5q88 -10 287 -10h725q180 0 282 10q-6 -94 -9.5 -252.5t-0.5 -246.5h-104
q0 16 -4 107.5t-5 105.5q-5 92 -49 135t-147 43h-234q-2 -161 -1.5 -600t3.5 -504q2 -60 25.5 -85.5t89.5 -25.5h129v-102q-172 4 -295 4q7 -95 -71 -162q94 15 166.5 -25.5t72.5 -131.5q0 -88 -63 -138.5t-172 -50.5q-149 0 -211 115l37 31q60 -76 149 -76q65 0 98 32
t33 89q0 67 -59 94t-148 -6z" />
    <glyph glyph-name="tcommaaccent" unicode="&#x163;" horiz-adv-x="700" 
d="M256 -229l-20 36q67 36 98.5 74.5t40.5 93.5q-111 10 -162 87t-49 227v561h-135v68q132 10 186.5 96.5t75.5 296.5h76q-21 -202 -21 -387l252 12v-88l-254 2q0 -78 1 -292.5t1 -260.5q0 -133 26 -184.5t85 -51.5q69 -2 97 53t19 183l64 4q32 -320 -213 -328
q-3 -78 -72 -135q60 9 113.5 -3.5t90 -52.5t36.5 -101q0 -88 -63.5 -138.5t-172.5 -50.5q-149 0 -211 115l37 31q60 -76 150 -76q65 0 98 32t33 89q0 67 -59 94t-148 -6z" />
    <glyph glyph-name="Tcaron" unicode="&#x164;" horiz-adv-x="1468" 
d="M446 1849l15 21q57 -39 142 -110t132 -118q42 44 127 115t144 113l14 -21q-60 -115 -244 -299h-86q-57 52 -132.5 142.5t-111.5 156.5zM1061 1313h-234q-2 -161 -1.5 -600t3.5 -504q2 -60 25.5 -85.5t89.5 -25.5h129v-102q-217 4 -338 4l-342 -4v102h123q67 0 94 26
t29 85q3 70 3 504t-3 600h-231q-102 0 -147 -43t-50 -135q-1 -14 -4.5 -105t-3.5 -108h-107q3 88 -0.5 246.5t-9.5 252.5q88 -10 287 -10h725q180 0 282 10q-6 -94 -9.5 -252.5t-0.5 -246.5h-104q0 16 -4 107.5t-5 105.5q-5 92 -49 135t-147 43z" />
    <glyph glyph-name="tcaron" unicode="&#x165;" horiz-adv-x="847" 
d="M535 1044q213 68 204 254q-22 -51 -86 -51q-39 0 -61.5 23.5t-22.5 68.5q0 43 29.5 73t77.5 30q58 0 86.5 -39.5t28.5 -99.5q0 -101 -61 -179.5t-183 -115.5zM573 297l64 4q32 -328 -223 -328q-131 0 -191.5 78t-58.5 238v561h-135v68q132 10 186.5 96.5t75.5 296.5h76
q-21 -202 -21 -387l252 12v-88l-254 2q0 -78 1 -292.5t1 -260.5q0 -133 26 -184.5t85 -51.5q69 -2 97 53t19 183z" />
    <glyph glyph-name="Tbar" unicode="&#x166;" horiz-adv-x="1468" 
d="M1061 1313h-234q-2 -123 -2 -676q54 3 110 5t102.5 3t62.5 2v-92q-70 0 -275 10q0 -282 4 -356q2 -60 25.5 -85.5t89.5 -25.5h129v-102q-217 4 -338 4l-342 -4v102h123q67 0 94 26t29 85q2 37 2 356q-202 -10 -270 -10v92q68 0 270 -10q0 551 -2 676h-231
q-102 0 -147 -43t-50 -135q-1 -14 -4.5 -105t-3.5 -108h-107q3 88 -0.5 246.5t-9.5 252.5q88 -10 287 -10h725q180 0 282 10q-6 -94 -9.5 -252.5t-0.5 -246.5h-104q0 16 -4 107.5t-5 105.5q-5 92 -49 135t-147 43z" />
    <glyph glyph-name="tbar" unicode="&#x167;" horiz-adv-x="700" 
d="M573 297l64 4q32 -328 -223 -328q-130 0 -190 78t-60 238v278q-102 -8 -131 -8v90q82 -6 131 -8v209h-135v68q132 10 186.5 96.5t75.5 296.5h76q-21 -202 -21 -387l252 12v-88l-254 2v-213l244 12v-90l-244 10q2 -111 2 -272q0 -133 26 -184.5t85 -51.5q69 -2 97 53
t19 183z" />
    <glyph glyph-name="Utilde" unicode="&#x168;" horiz-adv-x="1763" 
d="M307 580q2 509 0 620q-2 65 -24.5 90t-79.5 25h-115v98q209 -6 326 -6q69 0 193 3t130 3v-98h-108q-66 0 -93.5 -24.5t-27.5 -90.5v-639q0 -263 100 -375t303 -112q100 0 172 23t126.5 78t81 150.5t26.5 235.5v635q-1 62 -30 90.5t-89 28.5h-106v98q186 -6 290 -6
q61 0 170 3t117 3v-98h-102q-59 0 -85 -28.5t-28 -92.5q-2 -82 -2 -206.5t1 -255t1 -154.5q0 -307 -135.5 -463t-421.5 -156q-298 0 -444 148t-146 473zM1153 1827l39 8q31 -101 10.5 -165.5t-67.5 -95t-111 -30.5q-65 0 -105.5 28.5t-80.5 88.5q-25 38 -36 53.5t-29 34
t-34.5 24t-38.5 5.5q-49 0 -67 -48.5t4 -158.5l-39 -8q-43 143 9.5 216.5t158.5 73.5q58 0 98.5 -26t83.5 -90q43 -65 70.5 -91t68.5 -26q49 0 68 50t-2 157z" />
    <glyph glyph-name="utilde" unicode="&#x169;" horiz-adv-x="1253" 
d="M1030 938q-2 -32 -8 -283q-1 -51 -0.5 -218.5t2.5 -225.5q2 -72 30 -99.5t101 -27.5h51v-84q-276 0 -356 -6v211q-37 -114 -116.5 -178t-203.5 -64q-69 0 -124.5 18.5t-102.5 61t-72 121.5t-24 190q6 229 0 369q-1 38 -5 59.5t-17.5 37.5t-37 22t-63.5 6h-55v84h172
q145 0 186 6q-6 -113 -6 -281v-295q0 -83 18 -143.5t41.5 -89.5t57.5 -46t53.5 -19.5t42.5 -2.5q132 0 194 110.5t62 352.5v199q0 76 -30.5 100.5t-121.5 24.5h-45v84h205q141 0 172 6zM858 1350l39 8q31 -101 10.5 -165.5t-67.5 -95t-111 -30.5q-65 0 -105.5 28.5
t-80.5 88.5q-25 38 -36 53t-28.5 33.5t-34 24t-38.5 5.5q-49 0 -67 -48t3 -158l-39 -9q-43 143 9.5 217t158.5 74q58 0 98.5 -26t83.5 -90q42 -64 70.5 -90.5t69.5 -26.5q49 0 68 50t-3 157z" />
    <glyph glyph-name="Umacron" unicode="&#x16a;" horiz-adv-x="1763" 
d="M307 580q2 509 0 620q-2 65 -24.5 90t-79.5 25h-115v98q209 -6 326 -6q69 0 193 3t130 3v-98h-108q-66 0 -93.5 -24.5t-27.5 -90.5v-639q0 -263 100 -375t303 -112q100 0 172 23t126.5 78t81 150.5t26.5 235.5v635q-1 62 -30 90.5t-89 28.5h-106v98q186 -6 290 -6
q61 0 170 3t117 3v-98h-102q-59 0 -85 -28.5t-28 -92.5q-2 -82 -2 -206.5t1 -255t1 -154.5q0 -307 -135.5 -463t-421.5 -156q-298 0 -444 148t-146 473zM657 1577q3 54 0 111q94 -3 268.5 -3t268.5 3q-3 -56 0 -111q-94 3 -268.5 3t-268.5 -3z" />
    <glyph glyph-name="umacron" unicode="&#x16b;" horiz-adv-x="1253" 
d="M1030 938q-2 -32 -8 -283q-1 -51 -0.5 -218.5t2.5 -225.5q2 -72 30 -99.5t101 -27.5h51v-84q-276 0 -356 -6v211q-37 -114 -116.5 -178t-203.5 -64q-69 0 -124.5 18.5t-102.5 61t-72 121.5t-24 190q6 229 0 369q-1 38 -5 59.5t-17.5 37.5t-37 22t-63.5 6h-55v84h172
q145 0 186 6q-6 -113 -6 -281v-295q0 -83 18 -143.5t41.5 -89.5t57.5 -46t53.5 -19.5t42.5 -2.5q132 0 194 110.5t62 352.5v199q0 76 -30.5 100.5t-121.5 24.5h-45v84h205q141 0 172 6zM313 1114q3 54 0 111q94 -3 268.5 -3t268.5 3q-3 -55 0 -111q-94 3 -268.5 3t-268.5 -3
z" />
    <glyph glyph-name="Ubreve" unicode="&#x16c;" horiz-adv-x="1763" 
d="M307 580q2 509 0 620q-2 65 -24.5 90t-79.5 25h-115v98q209 -6 326 -6q69 0 193 3t130 3v-98h-108q-66 0 -93.5 -24.5t-27.5 -90.5v-639q0 -263 100 -375t303 -112q100 0 172 23t126.5 78t81 150.5t26.5 235.5v635q-1 62 -30 90.5t-89 28.5h-106v98q186 -6 290 -6
q61 0 170 3t117 3v-98h-102q-59 0 -85 -28.5t-28 -92.5q-2 -82 -2 -206.5t1 -255t1 -154.5q0 -307 -135.5 -463t-421.5 -156q-298 0 -444 148t-146 473zM928 1548q-145 0 -219 84.5t-60 212.5l27 4q6 -98 69 -140t183 -42t183 42t69 140l26 -4q14 -128 -59.5 -212.5
t-218.5 -84.5z" />
    <glyph glyph-name="ubreve" unicode="&#x16d;" horiz-adv-x="1253" 
d="M1030 938q-2 -32 -8 -283q-1 -51 -0.5 -218.5t2.5 -225.5q2 -72 30 -99.5t101 -27.5h51v-84q-276 0 -356 -6v211q-37 -114 -116.5 -178t-203.5 -64q-69 0 -124.5 18.5t-102.5 61t-72 121.5t-24 190q6 229 0 369q-1 38 -5 59.5t-17.5 37.5t-37 22t-63.5 6h-55v84h172
q145 0 186 6q-6 -113 -6 -281v-295q0 -83 18 -143.5t41.5 -89.5t57.5 -46t53.5 -19.5t42.5 -2.5q132 0 194 110.5t62 352.5v199q0 76 -30.5 100.5t-121.5 24.5h-45v84h205q141 0 172 6zM575 1077q-145 0 -218.5 84.5t-59.5 212.5l27 4q6 -98 68.5 -140t182.5 -42t183 42
t69 140l27 -4q14 -128 -60 -212.5t-219 -84.5z" />
    <glyph glyph-name="Uring" unicode="&#x16e;" horiz-adv-x="1763" 
d="M1024 1708q0 50 -27 77t-71 27q-45 0 -72 -27t-27 -77t27 -79.5t72 -29.5q44 0 71 29.5t27 79.5zM1092 1708q0 -73 -47 -119.5t-119 -46.5q-73 0 -120.5 46.5t-47.5 119.5t46 118.5t120 45.5t121 -45.5t47 -118.5zM307 580q2 509 0 620q-2 65 -24.5 90t-79.5 25h-115v98
q209 -6 326 -6q69 0 193 3t130 3v-98h-108q-66 0 -93.5 -24.5t-27.5 -90.5v-639q0 -263 100 -375t303 -112q100 0 172 23t126.5 78t81 150.5t26.5 235.5v635q-1 62 -30 90.5t-89 28.5h-106v98q186 -6 290 -6q61 0 170 3t117 3v-98h-102q-59 0 -85 -28.5t-28 -92.5
q-2 -82 -2 -206.5t1 -255t1 -154.5q0 -307 -135.5 -463t-421.5 -156q-298 0 -444 148t-146 473z" />
    <glyph glyph-name="uring" unicode="&#x16f;" horiz-adv-x="1253" 
d="M662 1237q0 50 -27.5 77t-71.5 27q-45 0 -71.5 -27t-26.5 -77q0 -51 26.5 -80t71.5 -29q44 0 71.5 29.5t27.5 79.5zM729 1237q0 -73 -47 -119.5t-119 -46.5q-73 0 -120.5 46.5t-47.5 119.5t46 118.5t120 45.5t121 -45.5t47 -118.5zM1030 938q-2 -32 -8 -283
q-1 -51 -0.5 -218.5t2.5 -225.5q2 -72 30 -99.5t101 -27.5h51v-84q-276 0 -356 -6v211q-37 -114 -116.5 -178t-203.5 -64q-69 0 -124.5 18.5t-102.5 61t-72 121.5t-24 190q6 229 0 369q-1 38 -5 59.5t-17.5 37.5t-37 22t-63.5 6h-55v84h172q145 0 186 6q-6 -113 -6 -281
v-295q0 -83 18 -143.5t41.5 -89.5t57.5 -46t53.5 -19.5t42.5 -2.5q132 0 194 110.5t62 352.5v199q0 76 -30.5 100.5t-121.5 24.5h-45v84h205q141 0 172 6z" />
    <glyph glyph-name="Uhungarumlaut" unicode="&#x170;" horiz-adv-x="1763" 
d="M307 580q2 509 0 620q-2 65 -24.5 90t-79.5 25h-115v98q209 -6 326 -6q69 0 193 3t130 3v-98h-108q-66 0 -93.5 -24.5t-27.5 -90.5v-639q0 -263 100 -375t303 -112q100 0 172 23t126.5 78t81 150.5t26.5 235.5v635q-1 62 -30 90.5t-89 28.5h-106v98q186 -6 290 -6
q61 0 170 3t117 3v-98h-102q-59 0 -85 -28.5t-28 -92.5q-2 -82 -2 -206.5t1 -255t1 -154.5q0 -307 -135.5 -463t-421.5 -156q-298 0 -444 148t-146 473zM764 1544l-19 17q13 19 44 64t49.5 71t44 61.5t46.5 61.5t38 45q29 32 63.5 24t41.5 -38.5t-19 -63.5
q-89 -92 -289 -242zM1100 1544l-19 17q8 11 37 54t40.5 60.5t36.5 53t39.5 55t33 42.5t32.5 38q30 31 65 23t42 -38t-21 -63q-86 -92 -286 -242z" />
    <glyph glyph-name="uhungarumlaut" unicode="&#x171;" horiz-adv-x="1253" 
d="M1030 938q-2 -32 -8 -283q-1 -51 -0.5 -218.5t2.5 -225.5q2 -72 30 -99.5t101 -27.5h51v-84q-276 0 -356 -6v211q-37 -114 -116.5 -178t-203.5 -64q-69 0 -124.5 18.5t-102.5 61t-72 121.5t-24 190q6 229 0 369q-1 38 -5 59.5t-17.5 37.5t-37 22t-63.5 6h-55v84h172
q145 0 186 6q-6 -113 -6 -281v-295q0 -83 18 -143.5t41.5 -89.5t57.5 -46t53.5 -19.5t42.5 -2.5q132 0 194 110.5t62 352.5v199q0 76 -30.5 100.5t-121.5 24.5h-45v84h205q141 0 172 6zM387 1065l-18 16q14 20 55 80t62.5 90t52 70t51.5 63q29 32 63.5 24.5t41.5 -38
t-19 -63.5q-89 -92 -289 -242zM723 1065l-18 16q8 11 37 54t40.5 60.5t36.5 53t39.5 55t33 42.5t32.5 38q30 31 65 23.5t42 -37.5t-21 -63q-84 -89 -287 -242z" />
    <glyph glyph-name="Uogonek" unicode="&#x172;" horiz-adv-x="1763" 
d="M307 580q2 509 0 620q-2 65 -24.5 90t-79.5 25h-115v98q209 -6 326 -6q69 0 193 3t130 3v-98h-108q-66 0 -93.5 -24.5t-27.5 -90.5v-639q0 -263 100 -375t303 -112q100 0 172 23t126.5 78t81 150.5t26.5 235.5v635q-1 62 -30 90.5t-89 28.5h-106v98q186 -6 290 -6
q61 0 170 3t117 3v-98h-102q-59 0 -85 -28.5t-28 -92.5q-2 -82 -2 -206.5t1 -255t1 -154.5q0 -298 -127.5 -454t-394.5 -165q-92 -69 -92 -164q-3 -63 33.5 -94t89.5 -31q67 0 109.5 45.5t53.5 120.5l45 -8q-6 -117 -69 -183.5t-174 -66.5q-98 0 -154 50t-53 132
q6 122 125 201q-273 11 -406 159t-133 460z" />
    <glyph glyph-name="uogonek" unicode="&#x173;" horiz-adv-x="1253" 
d="M1030 938q-2 -32 -8 -283q-1 -51 -0.5 -218.5t2.5 -225.5q2 -72 30 -99.5t101 -27.5h51v-84h-108q-73 -34 -115 -87t-43 -118q-3 -63 33.5 -94t89.5 -31q67 0 110 46t54 120l45 -8q-6 -117 -69.5 -183.5t-174.5 -66.5q-98 0 -154 50t-53 132q8 154 195 240
q-107 0 -166 -6v211q-37 -114 -116.5 -178t-203.5 -64q-69 0 -124.5 18.5t-102.5 61t-72 121.5t-24 190q6 229 0 369q-1 38 -5 59.5t-17.5 37.5t-37 22t-63.5 6h-55v84h172q145 0 186 6q-6 -113 -6 -281v-295q0 -83 18 -143.5t41.5 -89.5t57.5 -46t53.5 -19.5t42.5 -2.5
q132 0 194 110.5t62 352.5v199q0 76 -30.5 100.5t-121.5 24.5h-45v84h205q141 0 172 6z" />
    <glyph glyph-name="Wcircumflex" unicode="&#x174;" horiz-adv-x="2248" 
d="M1460 1552l-14 -20q-58 39 -143.5 110t-131.5 117q-43 -46 -128.5 -117.5t-141.5 -109.5l-14 20q33 63 105 148t138 151h87q57 -51 132 -141.5t111 -157.5zM1593 -12h-166q-131 494 -309 1095q-65 -202 -179 -585t-148 -510h-164q-109 418 -334 1183q-25 81 -55 112.5
t-97 31.5h-94v98q200 -6 315 -6q50 0 124.5 1.5t130 3t59.5 1.5v-98h-86q-68 0 -91 -33.5t-3 -110.5q42 -167 125 -465.5t145 -504.5q58 184 157 526t124 447q20 76 0 108.5t-95 32.5h-53v98q177 -6 277 -6q44 0 108.5 1.5t113.5 3t54 1.5v-98h-78q-59 0 -78 -32t-2 -99
q136 -528 273 -979q61 203 143.5 505t110.5 437q18 90 -6 129t-109 39h-49v98q180 -6 276 -6q43 0 106.5 1.5t111.5 3t53 1.5v-98h-88q-69 0 -108.5 -38t-70.5 -132q-58 -177 -182 -594.5t-162 -562.5z" />
    <glyph glyph-name="wcircumflex" unicode="&#x175;" horiz-adv-x="1728" 
d="M1180 1075l-15 -20q-57 39 -142 109.5t-132 117.5q-43 -46 -128.5 -117.5t-141.5 -109.5l-15 20q60 115 244 299h86q57 -52 132.5 -142.5t111.5 -156.5zM1085 -31q-36 119 -111.5 334.5t-129.5 355.5q-50 -130 -139 -376t-109 -314h-98q-42 136 -129 381.5t-144 388.5
q-12 31 -21 46.5t-25 32.5t-41 23.5t-62 6.5h-41v84q162 -4 252 -4l254 4v-84h-31q-122 0 -90 -115q66 -230 184 -549q47 122 113 303t80 232q33 129 -88 129h-29v84q131 -4 217 -4l223 4v-84h-26q-61 0 -83 -29.5t-5 -85.5q86 -281 184 -545q37 96 100.5 276t81.5 238
q46 146 -76 146h-45v84q148 -4 222 -4l221 4v-84h-56q-71 0 -113 -32t-75 -116q-225 -586 -268 -731h-97z" />
    <glyph glyph-name="Ycircumflex" unicode="&#x176;" horiz-adv-x="1646" 
d="M1264 1171q-219 -386 -365 -679v-291q0 -63 22 -84t99 -21h147v-100q-233 4 -364 4l-365 -4v100h146q77 0 100 22t23 83v286q-185 367 -369 693q-43 73 -94.5 104t-145.5 31h-49v98q230 -6 359 -6l356 6v-98h-102q-61 0 -92.5 -18.5t-31.5 -49.5t17 -71q96 -211 305 -578
q215 395 293 578q12 26 17 45t3.5 37.5t-12.5 30.5t-36 19t-64 7h-96v98q204 -6 319 -6l318 6v-98h-68q-114 0 -168 -29.5t-102 -114.5zM1155 1552l-14 -20q-58 39 -143.5 110t-131.5 117q-43 -46 -128.5 -117.5t-141.5 -109.5l-14 20q33 63 105 148t138 151h86
q57 -52 132.5 -142.5t111.5 -156.5z" />
    <glyph glyph-name="ycircumflex" unicode="&#x177;" horiz-adv-x="1148" 
d="M793 735q17 54 -0.5 83.5t-69.5 29.5h-61v84q133 -4 239 -4l215 4v-84h-65q-70 0 -104.5 -25.5t-63.5 -91.5q-30 -70 -83.5 -206t-125 -324t-86.5 -226q-27 -70 -49.5 -117.5t-56.5 -98.5t-70.5 -81t-89 -49.5t-115.5 -19.5q-100 0 -152.5 46.5t-52.5 117.5q0 64 38 97.5
t87 33.5q57 0 88 -27.5t31 -81.5q0 -44 -32.5 -77.5t-88.5 -36.5q37 -13 88 -13t91.5 16t82 57t80.5 116t76 188h-64q-44 128 -128.5 350t-135.5 344q-24 58 -59.5 83.5t-94.5 25.5h-41v84q142 -4 263 -4l264 4v-84h-66q-57 0 -73.5 -28t2.5 -81q60 -193 192 -530
q172 465 191 526zM895 1075l-14 -20q-58 39 -143.5 110t-131.5 117q-43 -46 -128.5 -117.5t-141.5 -109.5l-14 20q33 63 105 148t138 151h86q57 -52 132.5 -142.5t111.5 -156.5z" />
    <glyph glyph-name="Ydieresis" unicode="&#x178;" horiz-adv-x="1646" 
d="M1264 1171q-219 -386 -365 -679v-291q0 -63 22 -84t99 -21h147v-100q-233 4 -364 4l-365 -4v100h146q77 0 100 22t23 83v286q-185 367 -369 693q-43 73 -94.5 104t-145.5 31h-49v98q230 -6 359 -6l356 6v-98h-102q-61 0 -92.5 -18.5t-31.5 -49.5t17 -71q96 -211 305 -578
q215 395 293 578q12 26 17 45t3.5 37.5t-12.5 30.5t-36 19t-64 7h-96v98q204 -6 319 -6l318 6v-98h-68q-114 0 -168 -29.5t-102 -114.5zM793 1671q0 -43 -29.5 -72.5t-73.5 -29.5q-45 0 -74.5 29.5t-29.5 72.5q0 42 29.5 71.5t74.5 29.5q44 0 73.5 -29.5t29.5 -71.5z
M1147 1671q0 -43 -29.5 -72.5t-73.5 -29.5q-45 0 -74.5 29.5t-29.5 72.5q0 42 29.5 71.5t74.5 29.5q44 0 73.5 -29.5t29.5 -71.5z" />
    <glyph glyph-name="Zacute" unicode="&#x179;" horiz-adv-x="1341" 
d="M618 1532l-16 20q15 16 52.5 58t59 64.5t52 54.5t54.5 54.5t44 37.5q34 25 67 12.5t35.5 -42.5t-28.5 -58q-111 -86 -320 -201zM86 0v96q161 207 915 1217h-403q-83 0 -131 -3.5t-92 -18.5t-64.5 -38.5t-37 -70.5t-20.5 -106t-5 -154h-109q7 81 10 248t-2 245
q119 -4 437 -4h659v-96q-290 -366 -919 -1217h534q62 0 105 6.5t76.5 24.5t53.5 45t33.5 73t18.5 103.5t6 141.5h104q-15 -306 -6 -496q-136 4 -362 4h-801z" />
    <glyph glyph-name="zacute" unicode="&#x17a;" horiz-adv-x="974" 
d="M471 1055l-16 20q11 12 52 57t60 65.5t51 53.5t55.5 55t43.5 37q34 25 67 12.5t35.5 -42.5t-28.5 -58q-107 -83 -320 -200zM600 0h-543v66q431 551 602 790h-241q-125 0 -179.5 -59.5t-64.5 -225.5h-74q22 186 6 371q130 -10 312 -10h463l2 -62q-316 -395 -611 -794h328
q107 0 168.5 71t67.5 238h71q-26 -210 -8 -391q-127 6 -299 6z" />
    <glyph glyph-name="Zdotaccent" unicode="&#x17b;" horiz-adv-x="1341" 
d="M86 0v96q161 207 915 1217h-403q-83 0 -131 -3.5t-92 -18.5t-64.5 -38.5t-37 -70.5t-20.5 -106t-5 -154h-109q7 81 10 248t-2 245q119 -4 437 -4h659v-96q-290 -366 -919 -1217h534q62 0 105 6.5t76.5 24.5t53.5 45t33.5 73t18.5 103.5t6 141.5h104q-15 -306 -6 -496
q-136 4 -362 4h-801zM813 1692q0 -43 -29.5 -73t-70.5 -30t-71 30t-30 73q0 41 30 70.5t71 29.5t70.5 -29.5t29.5 -70.5z" />
    <glyph glyph-name="zdotaccent" unicode="&#x17c;" horiz-adv-x="974" 
d="M600 0h-543v66q431 551 602 790h-241q-125 0 -179.5 -59.5t-64.5 -225.5h-74q22 186 6 371q130 -10 312 -10h463l2 -62q-316 -395 -611 -794h328q107 0 168.5 71t67.5 238h71q-26 -210 -8 -391q-127 6 -299 6zM604 1221q0 -43 -29.5 -73t-70.5 -30t-71 30t-30 73
q0 41 30 70.5t71 29.5t70.5 -29.5t29.5 -70.5z" />
    <glyph glyph-name="Zcaron" unicode="&#x17d;" horiz-adv-x="1341" 
d="M418 1849l14 21q57 -39 142.5 -110t132.5 -118q42 45 127 116t143 112l14 -21q-33 -63 -105 -148t-138 -151h-86q-57 52 -132.5 142.5t-111.5 156.5zM86 0v96q161 207 915 1217h-403q-83 0 -131 -3.5t-92 -18.5t-64.5 -38.5t-37 -70.5t-20.5 -106t-5 -154h-109
q7 81 10 248t-2 245q119 -4 437 -4h659v-96q-290 -366 -919 -1217h534q62 0 105 6.5t76.5 24.5t53.5 45t33.5 73t18.5 103.5t6 141.5h104q-15 -306 -6 -496q-136 4 -362 4h-801z" />
    <glyph glyph-name="zcaron" unicode="&#x17e;" horiz-adv-x="974" 
d="M236 1372l14 21q57 -39 142 -110t132 -118q42 44 127 115t144 113l14 -21q-60 -115 -244 -299h-86q-57 51 -132 141.5t-111 157.5zM600 0h-543v66q431 551 602 790h-241q-125 0 -179.5 -59.5t-64.5 -225.5h-74q22 186 6 371q130 -10 312 -10h463l2 -62
q-316 -395 -611 -794h328q107 0 168.5 71t67.5 238h71q-26 -210 -8 -391q-127 6 -299 6z" />
    <glyph glyph-name="longs" unicode="&#x17f;" horiz-adv-x="718" 
d="M602 84v-88q-9 0 -114.5 3t-163.5 3q-44 0 -109.5 -1.5t-115.5 -3t-56 -1.5v88h102q85 0 88 94q7 470 0 811q-8 432 347 432q123 0 194.5 -61.5t71.5 -145.5q0 -55 -31.5 -86.5t-85.5 -31.5q-50 0 -79 27.5t-29 74.5q0 46 29 73t81 27q13 0 19 -2q-55 62 -144 62
q-103 0 -150.5 -67.5t-47.5 -233.5q0 -56 -0.5 -277t-0.5 -388.5t1 -213.5q2 -48 20 -71t70 -23h104z" />
    <glyph glyph-name="florin" unicode="&#x192;" horiz-adv-x="1107" 
d="M244 776v78l215 -6q3 148 29 259t63 174.5t91 101.5t104.5 50.5t111.5 12.5q119 0 180.5 -60.5t59.5 -154.5q0 -67 -32 -102t-91 -35q-51 0 -82 27.5t-31 74.5q0 51 31 77.5t88 26.5q21 0 39 -6q-30 84 -139 84q-47 0 -77.5 -8t-63.5 -38.5t-51 -86t-28 -155.5t-6 -242
l238 8v-80l-234 6q4 -160 -7 -287t-36.5 -216.5t-61.5 -153t-84.5 -100t-101 -52.5t-116.5 -16q-115 0 -175.5 60t-60.5 141q0 58 32.5 93.5t88.5 35.5q46 0 74.5 -25t28.5 -69q0 -45 -29.5 -72t-75.5 -27q-25 0 -43 6q32 -80 158 -80q97 0 145.5 61t64.5 210t1 428
q-2 23 -2 63z" />
    <glyph glyph-name="uni01B5" unicode="&#x1b5;" horiz-adv-x="1341" 
d="M86 0v96q92 119 397 522q-196 -12 -241 -12v96q15 0 293 -14l466 625h-403q-83 0 -131 -3.5t-92 -18.5t-64.5 -38.5t-37 -70.5t-20.5 -106t-5 -154h-109q7 81 10 248t-2 245q119 -4 437 -4h659v-96q-205 -257 -479 -627q196 13 237 14v-96q-38 1 -141.5 8t-146.5 9
l-389 -525h534q62 0 105 6.5t76.5 24.5t53.5 45t33.5 73t18.5 103.5t6 141.5h104q-15 -306 -6 -496q-136 4 -362 4h-801z" />
    <glyph glyph-name="uni01B6" unicode="&#x1b6;" horiz-adv-x="974" 
d="M600 0h-543v66q31 42 114.5 147.5t125.5 159.5q-113 -31 -166 -41l-12 76l227 28q162 210 313 420h-241q-125 0 -179.5 -59.5t-64.5 -225.5h-74q22 186 6 371q130 -10 312 -10h463l2 -62q-100 -124 -297 -381q136 39 200 54l13 -74q-130 -24 -262 -43
q-199 -260 -265 -350h328q107 0 168.5 71t67.5 238h71q-26 -210 -8 -391q-127 6 -299 6z" />
    <glyph glyph-name="uni01FA" unicode="&#x1fa;" horiz-adv-x="1785" 
d="M1210 279l-63 178q-299 7 -594 0l-66 -183q-34 -86 -8.5 -131t123.5 -45h98l-2 -102q-200 4 -313 4l-313 -4v102h86q87 0 131.5 34t81.5 128q30 73 217.5 563t228.5 604q51 -4 86 -4l88 4q56 -169 210 -569.5t233 -597.5q39 -94 77.5 -128t112.5 -34h90v-102
q-223 4 -348 4l-350 -4l2 102h96q82 0 105 44.5t-9 136.5zM1116 543q-155 425 -262 706l-270 -706q264 -4 532 0zM782 1925l-16 21q11 12 52 57t60 65.5t51 53.5t55.5 55t43.5 37q34 25 67 12.5t35.5 -42.5t-28.5 -58q-111 -86 -320 -201zM1006 1708q0 50 -27.5 77t-71.5 27
q-45 0 -71.5 -27t-26.5 -77q0 -51 26.5 -80t71.5 -29q44 0 71.5 29.5t27.5 79.5zM1073 1708q0 -73 -47 -119.5t-119 -46.5q-73 0 -120.5 46.5t-47.5 119.5t46 118.5t120 45.5t121 -45.5t47 -118.5z" />
    <glyph glyph-name="aringacute" unicode="&#x1fb;" horiz-adv-x="1077" 
d="M819 584v-389q0 -74 17.5 -101.5t48.5 -27.5q47 0 67.5 64t12.5 185l67 7q11 -174 -30.5 -260.5t-157.5 -86.5q-104 0 -149.5 56t-47.5 145q-97 -199 -303 -199q-133 0 -208 62.5t-75 185.5q0 60 23 108.5t67 82t97 57.5t123 39t134.5 23t141.5 12v45q0 63 -5 106.5
t-19 83t-39 62t-65.5 35.5t-98.5 12q-124 -3 -191 -57q57 -1 88 -31.5t31 -79.5q0 -52 -33 -82.5t-90 -30.5q-59 0 -92 32.5t-33 96.5q0 98 106 160t259 62q106 0 177 -26t109 -78.5t53 -117t15 -155.5zM408 72q112 0 175.5 86t63.5 250v90q-387 -25 -387 -267
q0 -75 39.5 -117t108.5 -42zM379 1460l-17 21q10 11 44 48t49 53.5t44 47.5t47 48.5t40 37.5t39 33q34 25 67 12.5t35 -42.5t-29 -58q-113 -88 -319 -201zM575 1237q0 50 -27 77t-71 27q-45 0 -71.5 -27t-26.5 -77q0 -51 26.5 -80t71.5 -29q44 0 71 29.5t27 79.5zM643 1237
q0 -73 -47 -119.5t-119 -46.5q-73 0 -120.5 46.5t-47.5 119.5t46 118.5t120 45.5t121 -45.5t47 -118.5z" />
    <glyph glyph-name="AEacute" unicode="&#x1fc;" horiz-adv-x="2187" 
d="M1333 1532l-16 20q15 16 52.5 58t59 64.5t52 54.5t54.5 54.5t44 37.5q34 25 67 12.5t35.5 -42.5t-28.5 -58q-111 -86 -320 -201zM2101 504q-18 -206 -18 -512q-96 8 -397 8h-570q-293 0 -350 -2v100h145q65 0 90 27t25 84q0 3 1 74t1 129q-242 4 -422 -2l-65 -131
q-17 -36 -25.5 -63t-8.5 -50t11.5 -37.5t37 -22.5t65.5 -8h79l-2 -100q-200 4 -313 4l-313 -4v100h88q86 0 134 34.5t105 131.5q120 202 285.5 493t245.5 449q28 57 9 88t-77 31h-80v92q104 -8 336 -8q2 0 205 1t375 1q287 0 383 12q-12 -205 -4 -477l-92 -2v33
q0 190 -64.5 262t-234.5 72h-377q-43 0 -63 -22t-23 -66q-4 -94 -4 -463h131q152 0 210 51t58 197v28h92q0 -27 -3 -127t-3 -188q0 -224 6 -328h-90v29q-3 139 -60 198.5t-202 59.5h-139q0 -381 4 -479q6 -103 94 -103h373q167 0 238 85.5t71 285.5v35h102zM651 496
q188 -3 377 0q3 415 -2 702q-166 -295 -375 -702z" />
    <glyph glyph-name="aeacute" unicode="&#x1fd;" horiz-adv-x="1585" 
d="M707 1055l-17 20q11 12 52 57t60 65.5t51 53.5t55.5 55t43.5 37q34 25 67 12.5t35.5 -42.5t-28.5 -58q-109 -85 -319 -200zM1483 244q-42 -131 -141.5 -205t-260.5 -74q-316 0 -405 234q-36 -101 -119 -161.5t-213 -60.5q-133 0 -208 62.5t-75 185.5q0 60 23 108t66 81.5
t96 57.5t122 39t133.5 23.5t141.5 12.5v47q0 145 -47.5 221t-161.5 76q-128 0 -203 -57q58 -3 86.5 -32.5t28.5 -78.5q0 -52 -34 -82.5t-87 -30.5q-56 0 -90.5 33.5t-34.5 95.5q0 66 50 117t132.5 78t180.5 27q118 0 188 -34.5t111 -101.5q51 66 135 101t182 35
q145 0 242 -70.5t136.5 -187.5t29.5 -271h-649q4 -209 68 -293t202 -84q126 0 192 55t97 154zM1071 883q-112 0 -171 -90t-62 -301h393q28 0 37.5 11.5t9.5 43.5q0 158 -54 247t-153 89zM403 76q113 0 176.5 86t63.5 250v86q-383 -25 -383 -267q0 -75 37 -115t106 -40z" />
    <glyph glyph-name="Oslashacute" unicode="&#x1fe;" horiz-adv-x="1583" 
d="M791 -39q-267 0 -435 127l-174 -182l-43 35l152 204q-189 195 -189 562q0 178 51 320t143 234.5t218 141.5t277 49q280 0 456 -143l183 196l40 -32l-161 -224q172 -196 172 -540q0 -178 -52 -321t-144.5 -235.5t-218 -142t-275.5 -49.5zM324 707q0 -279 75 -435l394 459
l358 459q-115 172 -360 172q-223 0 -345 -162.5t-122 -492.5zM791 53q234 0 351.5 160.5t117.5 495.5q0 246 -66 403l-363 -418l-387 -495q112 -146 347 -146zM737 1532l-16 20q15 16 52.5 58t59 64.5t52 54.5t54.5 54.5t44 37.5q34 25 67 12.5t35.5 -42.5t-28.5 -58
q-111 -86 -320 -201z" />
    <glyph glyph-name="oslashacute" unicode="&#x1ff;" horiz-adv-x="1091" 
d="M88 457q0 248 122.5 376t334.5 128q168 0 284 -84l138 151l30 -24l-116 -173q123 -132 123 -374q0 -239 -124 -367.5t-335 -128.5q-174 0 -291 88l-125 -133l-33 27l109 149q-117 126 -117 365zM805 459q0 141 -31 246l-213 -250l-225 -297q59 -123 209 -123q45 0 80 9
t70 36.5t58 73.5t37.5 123t14.5 182zM289 457q0 -147 24 -236l222 264l213 285q-62 119 -203 119q-44 0 -79.5 -10.5t-69.5 -39.5t-56.5 -76t-36.5 -124.5t-14 -181.5zM487 1055l-16 20q11 12 52 57t60 65.5t51 53.5t55.5 55t43.5 37q34 25 67 12.5t35.5 -42.5t-28.5 -58
q-107 -83 -320 -200z" />
    <glyph glyph-name="Scommaaccent" unicode="&#x218;" horiz-adv-x="1304" 
d="M549 -522q101 32 155 95.5t50 158.5q-22 -51 -86 -51q-39 0 -61.5 23.5t-22.5 68.5q0 43 29 72.5t77 29.5q58 0 86.5 -39.5t28.5 -99.5q0 -101 -61 -179.5t-183 -115.5zM637 1360q-163 0 -249.5 -68t-86.5 -178q0 -114 92.5 -172.5t319.5 -95.5q275 -43 389.5 -149
t114.5 -302q0 -198 -136.5 -316t-375.5 -118q-209 0 -375 96q-36 22 -61.5 26t-40 -9.5t-22 -34.5t-11.5 -55h-91q45 221 25 481h88q33 -208 150 -311t335 -103q182 1 280.5 73t98.5 198q0 130 -103 194t-355 107q-231 37 -343 137.5t-112 269.5q0 90 30 166t88 133.5
t149.5 90t207.5 32.5q171 0 311 -78q47 -25 73.5 -24.5t37.5 19.5t16 61h88q-22 -96 -26.5 -228t8.5 -231h-84q-65 389 -430 389z" />
    <glyph glyph-name="scommaaccent" unicode="&#x219;" horiz-adv-x="917" 
d="M324 -522q213 68 204 254q-22 -51 -86 -51q-39 0 -61.5 23.5t-22.5 68.5q0 43 29.5 72.5t77.5 29.5q58 0 86.5 -39.5t28.5 -99.5q0 -101 -61 -179.5t-183 -115.5zM442 872q-103 0 -158 -41t-55 -102q0 -72 58.5 -109t220.5 -61q175 -27 251.5 -101t76.5 -194
q0 -146 -86 -224.5t-254 -78.5q-139 0 -269 92q-71 52 -84 -69q-9 2 -32.5 2t-32.5 -2q24 184 10 362h66q38 -139 126 -217t218 -78q103 0 159 42t56 112q0 67 -59 107t-214 61q-181 25 -259.5 104t-78.5 193q0 133 98.5 214t256.5 77q121 -2 217 -68q27 -23 42.5 -10.5
t24.5 71.5h62q-12 -99 -13.5 -163t3.5 -160q-9 1 -31 1t-31 -1q-27 126 -98 183.5t-191 57.5z" />
    <glyph glyph-name="uni021A" unicode="&#x21a;" horiz-adv-x="1468" 
d="M586 -510q101 32 155 95.5t50 158.5q-22 -51 -86 -51q-39 0 -61.5 23.5t-22.5 68.5q0 43 29 72.5t77 29.5q58 0 86.5 -39.5t28.5 -99.5q0 -101 -61 -179.5t-183 -115.5zM1061 1313h-234q-2 -161 -1.5 -600t3.5 -504q2 -60 25.5 -85.5t89.5 -25.5h129v-102q-217 4 -338 4
l-342 -4v102h123q67 0 94 26t29 85q3 70 3 504t-3 600h-231q-102 0 -147 -43t-50 -135q-1 -14 -4.5 -105t-3.5 -108h-107q3 88 -0.5 246.5t-9.5 252.5q88 -10 287 -10h725q180 0 282 10q-6 -94 -9.5 -252.5t-0.5 -246.5h-104q0 16 -4 107.5t-5 105.5q-5 92 -49 135t-147 43z
" />
    <glyph glyph-name="uni021B" unicode="&#x21b;" horiz-adv-x="700" 
d="M221 -522q101 32 155 95.5t50 158.5q-22 -51 -86 -51q-39 0 -61.5 23.5t-22.5 68.5q0 43 29 72.5t77 29.5q58 0 86.5 -39.5t28.5 -99.5q0 -101 -61 -179.5t-183 -115.5zM573 297l64 4q32 -328 -223 -328q-131 0 -191.5 78t-58.5 238v561h-135v68q132 10 186.5 96.5
t75.5 296.5h76q-21 -202 -21 -387l252 12v-88l-254 2q0 -78 1 -292.5t1 -260.5q0 -133 26 -184.5t85 -51.5q69 -2 97 53t19 183z" />
    <glyph glyph-name="uni0237" unicode="&#x237;" horiz-adv-x="608" 
d="M100 -219q0 -41 -31 -71.5t-89 -24.5q39 -25 100 -25q57 0 92 23t56.5 88t21.5 178q0 31 0.5 222.5t0.5 352.5t-1 219q-2 52 -26 78.5t-79 26.5h-77v84q276 0 356 6q-2 -48 -2 -229.5t1 -419t1 -293.5q0 -402 -311 -402q-109 0 -174.5 48t-65.5 129q0 53 32 83.5t87 30.5
q51 0 79.5 -27.5t28.5 -76.5z" />
    <glyph glyph-name="circumflex" unicode="&#x2c6;" horiz-adv-x="1089" 
d="M807 1075l-14 -20q-58 39 -143.5 110t-131.5 117q-43 -46 -128.5 -117.5t-141.5 -109.5l-15 20q60 115 244 299h86q57 -52 132.5 -142.5t111.5 -156.5z" />
    <glyph glyph-name="caron" unicode="&#x2c7;" horiz-adv-x="1089" 
d="M233 1372l15 21q57 -39 142 -110t132 -118q42 44 127 115t144 113l14 -21q-60 -115 -244 -299h-86q-57 52 -132.5 142.5t-111.5 156.5z" />
    <glyph glyph-name="breve" unicode="&#x2d8;" horiz-adv-x="1089" 
d="M526 1077q-145 0 -218.5 84.5t-59.5 212.5l26 4q6 -98 69 -140t183 -42t183 42t69 140l27 -4q14 -128 -60 -212.5t-219 -84.5z" />
    <glyph glyph-name="dotaccent" unicode="&#x2d9;" horiz-adv-x="1089" 
d="M662 1233q0 -43 -30 -73t-71 -30t-70.5 30t-29.5 73q0 41 29.5 70.5t70.5 29.5t71 -29.5t30 -70.5z" />
    <glyph glyph-name="ring" unicode="&#x2da;" horiz-adv-x="1089" 
d="M655 1231q0 50 -27 77t-71 27q-45 0 -71.5 -27t-26.5 -77q0 -51 26.5 -80t71.5 -29q44 0 71 29.5t27 79.5zM723 1231q0 -73 -47 -119.5t-119 -46.5q-73 0 -120.5 46.5t-47.5 119.5t46 118.5t120 45.5t121 -45.5t47 -118.5z" />
    <glyph glyph-name="ogonek" unicode="&#x2db;" horiz-adv-x="1089" 
d="M807 -172q-6 -117 -69.5 -183.5t-174.5 -66.5q-98 0 -154 50t-53 132q11 202 332 287l27 -16q-110 -33 -174.5 -94t-65.5 -142q-3 -63 33.5 -94t89.5 -31q67 0 110 46t54 120z" />
    <glyph glyph-name="tilde" unicode="&#x2dc;" horiz-adv-x="1089" 
d="M791 1350l38 8q31 -101 10.5 -165.5t-67 -95t-110.5 -30.5q-65 0 -106 29t-81 88q-25 38 -36 53t-28.5 33.5t-34 24t-38.5 5.5q-49 0 -67 -48t3 -158l-38 -9q-43 143 9 217t158 74q58 0 99 -26t84 -90q43 -65 70.5 -91t68.5 -26q49 0 68 50t-2 157z" />
    <glyph glyph-name="hungarumlaut" unicode="&#x2dd;" horiz-adv-x="1089" 
d="M238 1065l-19 16q14 20 55 80t62.5 90t52 70t51.5 63q29 32 63.5 24.5t41.5 -38t-19 -63.5q-92 -95 -288 -242zM573 1065l-18 16q8 11 37 54t40.5 60.5t36.5 53t39.5 55t33 42.5t32.5 38q30 31 65 23.5t42 -37.5t-21 -63q-84 -89 -287 -242z" />
    <glyph glyph-name="Wgrave" unicode="&#x1e80;" horiz-adv-x="2248" 
d="M1593 -12h-166q-131 494 -309 1095q-65 -202 -179 -585t-148 -510h-164q-109 418 -334 1183q-25 81 -55 112.5t-97 31.5h-94v98q200 -6 315 -6q50 0 124.5 1.5t130 3t59.5 1.5v-98h-86q-68 0 -91 -33.5t-3 -110.5q42 -167 125 -465.5t145 -504.5q58 184 157 526t124 447
q20 76 0 108.5t-95 32.5h-53v98q177 -6 277 -6q44 0 108.5 1.5t113.5 3t54 1.5v-98h-78q-59 0 -78 -32t-2 -99q136 -528 273 -979q61 203 143.5 505t110.5 437q18 90 -6 129t-109 39h-49v98q180 -6 276 -6q43 0 106.5 1.5t111.5 3t53 1.5v-98h-88q-69 0 -108.5 -38
t-70.5 -132q-58 -177 -182 -594.5t-162 -562.5zM1268 1561l-15 -21q-212 116 -321 201q-33 25 -28 58t35.5 42.5t68.5 -12.5q25 -19 61 -54t59.5 -60.5t74.5 -82t65 -71.5z" />
    <glyph glyph-name="wgrave" unicode="&#x1e81;" horiz-adv-x="1728" 
d="M1085 -31q-36 119 -111.5 334.5t-129.5 355.5q-50 -130 -139 -376t-109 -314h-98q-42 136 -129 381.5t-144 388.5q-12 31 -21 46.5t-25 32.5t-41 23.5t-62 6.5h-41v84q162 -4 252 -4l254 4v-84h-31q-122 0 -90 -115q66 -230 184 -549q47 122 113 303t80 232
q33 129 -88 129h-29v84q131 -4 217 -4l223 4v-84h-26q-61 0 -83 -29.5t-5 -85.5q86 -281 184 -545q37 96 100.5 276t81.5 238q46 146 -76 146h-45v84q148 -4 222 -4l221 4v-84h-56q-71 0 -113 -32t-75 -116q-225 -586 -268 -731h-97zM1004 1075l-15 -20q-217 119 -321 200
q-33 25 -28 58t35 42.5t68 -12.5q20 -15 44 -37.5t54.5 -54t51.5 -54.5t58.5 -64t52.5 -58z" />
    <glyph glyph-name="Wacute" unicode="&#x1e82;" horiz-adv-x="2248" 
d="M1071 1540l-16 21q11 12 52 57t60 65.5t51 53.5t55.5 55t43.5 37q34 25 67 12.5t35.5 -42.5t-28.5 -58q-111 -86 -320 -201zM1593 -12h-166q-131 494 -309 1095q-65 -202 -179 -585t-148 -510h-164q-109 418 -334 1183q-25 81 -55 112.5t-97 31.5h-94v98q200 -6 315 -6
q50 0 124.5 1.5t130 3t59.5 1.5v-98h-86q-68 0 -91 -33.5t-3 -110.5q42 -167 125 -465.5t145 -504.5q58 184 157 526t124 447q20 76 0 108.5t-95 32.5h-53v98q177 -6 277 -6q44 0 108.5 1.5t113.5 3t54 1.5v-98h-78q-59 0 -78 -32t-2 -99q136 -528 273 -979
q61 203 143.5 505t110.5 437q18 90 -6 129t-109 39h-49v98q180 -6 276 -6q43 0 106.5 1.5t111.5 3t53 1.5v-98h-88q-69 0 -108.5 -38t-70.5 -132q-58 -177 -182 -594.5t-162 -562.5z" />
    <glyph glyph-name="wacute" unicode="&#x1e83;" horiz-adv-x="1728" 
d="M823 1055l-16 20q11 12 52 57t60 65.5t51 53.5t55.5 55t43.5 37q34 25 67 12.5t35.5 -42.5t-28.5 -58q-107 -83 -320 -200zM1085 -31q-36 119 -111.5 334.5t-129.5 355.5q-50 -130 -139 -376t-109 -314h-98q-42 136 -129 381.5t-144 388.5q-12 31 -21 46.5t-25 32.5
t-41 23.5t-62 6.5h-41v84q162 -4 252 -4l254 4v-84h-31q-122 0 -90 -115q66 -230 184 -549q47 122 113 303t80 232q33 129 -88 129h-29v84q131 -4 217 -4l223 4v-84h-26q-61 0 -83 -29.5t-5 -85.5q86 -281 184 -545q37 96 100.5 276t81.5 238q46 146 -76 146h-45v84
q148 -4 222 -4l221 4v-84h-56q-71 0 -113 -32t-75 -116q-225 -586 -268 -731h-97z" />
    <glyph glyph-name="Wdieresis" unicode="&#x1e84;" horiz-adv-x="2248" 
d="M1096 1671q0 -43 -29.5 -72.5t-73.5 -29.5q-45 0 -74.5 29.5t-29.5 72.5q0 42 29.5 71.5t74.5 29.5q44 0 73.5 -29.5t29.5 -71.5zM1450 1671q0 -43 -29 -72.5t-73 -29.5q-45 0 -75 29.5t-30 72.5q0 42 30 71.5t75 29.5q44 0 73 -29.5t29 -71.5zM1593 -12h-166
q-131 494 -309 1095q-65 -202 -179 -585t-148 -510h-164q-109 418 -334 1183q-25 81 -55 112.5t-97 31.5h-94v98q200 -6 315 -6q50 0 124.5 1.5t130 3t59.5 1.5v-98h-86q-68 0 -91 -33.5t-3 -110.5q42 -167 125 -465.5t145 -504.5q58 184 157 526t124 447q20 76 0 108.5
t-95 32.5h-53v98q177 -6 277 -6q44 0 108.5 1.5t113.5 3t54 1.5v-98h-78q-59 0 -78 -32t-2 -99q136 -528 273 -979q61 203 143.5 505t110.5 437q18 90 -6 129t-109 39h-49v98q180 -6 276 -6q43 0 106.5 1.5t111.5 3t53 1.5v-98h-88q-69 0 -108.5 -38t-70.5 -132
q-58 -177 -182 -594.5t-162 -562.5z" />
    <glyph glyph-name="wdieresis" unicode="&#x1e85;" horiz-adv-x="1728" 
d="M831 1194q0 -43 -29 -72.5t-73 -29.5q-45 0 -74.5 29.5t-29.5 72.5q0 42 29.5 71t74.5 29q44 0 73 -29t29 -71zM1186 1194q0 -43 -29.5 -72.5t-73.5 -29.5q-45 0 -74.5 29.5t-29.5 72.5q0 42 29.5 71t74.5 29q44 0 73.5 -29t29.5 -71zM1085 -31q-36 119 -111.5 334.5
t-129.5 355.5q-50 -130 -139 -376t-109 -314h-98q-42 136 -129 381.5t-144 388.5q-12 31 -21 46.5t-25 32.5t-41 23.5t-62 6.5h-41v84q162 -4 252 -4l254 4v-84h-31q-122 0 -90 -115q66 -230 184 -549q47 122 113 303t80 232q33 129 -88 129h-29v84q131 -4 217 -4l223 4v-84
h-26q-61 0 -83 -29.5t-5 -85.5q86 -281 184 -545q37 96 100.5 276t81.5 238q46 146 -76 146h-45v84q148 -4 222 -4l221 4v-84h-56q-71 0 -113 -32t-75 -116q-225 -586 -268 -731h-97z" />
    <glyph glyph-name="uni1E8A" unicode="&#x1e8a;" horiz-adv-x="1708" 
d="M1063 256l-250 358q-172 -249 -238 -350q-46 -69 -26.5 -117.5t92.5 -48.5h88v-102q-211 4 -326 4l-317 -4v102h57q112 0 189 47t143 140q230 319 285 405q-65 93 -183.5 257.5t-158.5 221.5q-56 78 -106 112t-136 34h-76v98q248 -4 371 -4l334 4v-98h-66
q-80 0 -104.5 -45.5t16.5 -106.5q66 -103 254 -368q188 248 252 366q22 42 23 76t-25 56t-78 22h-80v98q197 -4 306 -4l305 4v-98h-66q-56 0 -92.5 -6.5t-68 -29t-52 -45.5t-59.5 -75q-232 -314 -314 -436q84 -119 344 -475q57 -79 113 -114.5t131 -35.5h76v-102
q-229 4 -360 4l-345 -4v102h78q77 0 97.5 43t-27.5 115zM997 1698q0 -43 -29.5 -73t-70.5 -30t-70.5 30t-29.5 73q0 41 29.5 70.5t70.5 29.5t70.5 -29.5t29.5 -70.5z" />
    <glyph glyph-name="uni1E8B" unicode="&#x1e8b;" horiz-adv-x="1206" 
d="M719 201q-41 54 -152 188q-106 -126 -157 -194q-35 -41 -19.5 -76t74.5 -35h57v-86q-155 4 -233 4l-242 -4v86h41q119 0 213 94q17 16 234 252q-191 233 -261 313q-53 63 -86.5 84t-93.5 21h-33v84q164 -4 256 -4l277 4v-84h-64q-67 0 -78.5 -31.5t25.5 -75.5
q45 -61 156 -198l176 205q19 23 21.5 45.5t-17.5 38.5t-61 16h-68v84q141 -4 219 -4l244 4v-84h-57q-56 0 -93.5 -21.5t-105.5 -87.5q-135 -135 -225 -235q236 -287 276 -332q76 -88 170 -88h47v-86q-178 4 -270 4l-277 -4v86h52q60 0 76 34t-21 83zM741 1221
q0 -43 -29.5 -73t-70.5 -30t-70.5 30t-29.5 73q0 41 29.5 70.5t70.5 29.5t70.5 -29.5t29.5 -70.5z" />
    <glyph glyph-name="Ygrave" unicode="&#x1ef2;" horiz-adv-x="1646" 
d="M1264 1171q-219 -386 -365 -679v-291q0 -63 22 -84t99 -21h147v-100q-233 4 -364 4l-365 -4v100h146q77 0 100 22t23 83v286q-185 367 -369 693q-43 73 -94.5 104t-145.5 31h-49v98q230 -6 359 -6l356 6v-98h-102q-61 0 -92.5 -18.5t-31.5 -49.5t17 -71q96 -211 305 -578
q215 395 293 578q12 26 17 45t3.5 37.5t-12.5 30.5t-36 19t-64 7h-96v98q204 -6 319 -6l318 6v-98h-68q-114 0 -168 -29.5t-102 -114.5zM965 1552l-15 -20q-212 116 -321 201q-33 25 -28 58t35.5 42.5t68.5 -12.5q25 -19 60.5 -54t60.5 -62t73.5 -80.5t65.5 -72.5z" />
    <glyph glyph-name="ygrave" unicode="&#x1ef3;" horiz-adv-x="1148" 
d="M793 735q17 54 -0.5 83.5t-69.5 29.5h-61v84q133 -4 239 -4l215 4v-84h-65q-70 0 -104.5 -25.5t-63.5 -91.5q-30 -70 -83.5 -206t-125 -324t-86.5 -226q-27 -70 -49.5 -117.5t-56.5 -98.5t-70.5 -81t-89 -49.5t-115.5 -19.5q-100 0 -152.5 46.5t-52.5 117.5q0 64 38 97.5
t87 33.5q57 0 88 -27.5t31 -81.5q0 -44 -32.5 -77.5t-88.5 -36.5q37 -13 88 -13t91.5 16t82 57t80.5 116t76 188h-64q-44 128 -128.5 350t-135.5 344q-24 58 -59.5 83.5t-94.5 25.5h-41v84q142 -4 263 -4l264 4v-84h-66q-57 0 -73.5 -28t2.5 -81q60 -193 192 -530
q172 465 191 526zM723 1075l-14 -20q-220 121 -322 200q-33 25 -28 58t35.5 42.5t68.5 -12.5q25 -19 61 -54t59.5 -60.5t74.5 -82t65 -71.5z" />
    <glyph glyph-name="uni2009" unicode="&#x2009;" horiz-adv-x="235" 
 />
    <glyph glyph-name="endash" unicode="&#x2013;" horiz-adv-x="1024" 
d="M61 434q1 22 1 69.5t-1 69.5q451 -8 902 0q-1 -22 -1 -69.5t1 -69.5q-451 8 -902 0z" />
    <glyph glyph-name="emdash" unicode="&#x2014;" horiz-adv-x="2048" 
d="M61 434q1 22 1 69.5t-1 69.5q963 -8 1926 0q-1 -22 -1 -69.5t1 -69.5q-963 8 -1926 0z" />
    <glyph glyph-name="quoteleft" unicode="&#x2018;" horiz-adv-x="495" 
d="M455 1380q-145 -22 -221 -104t-70 -205q25 39 84 39q45 0 71.5 -26t26.5 -74t-32.5 -79.5t-84.5 -31.5q-59 0 -93 43t-34 131q0 40 9.5 81.5t34.5 87t63 82t100 64t140 35.5z" />
    <glyph glyph-name="quoteright" unicode="&#x2019;" horiz-adv-x="497" 
d="M41 944q145 23 222 105t67 200q-24 -35 -80 -35q-44 0 -71 26.5t-27 74.5q0 51 30 80.5t86 29.5q127 0 127 -174q0 -41 -8.5 -80.5t-32.5 -84.5t-61 -80.5t-100.5 -64.5t-145.5 -40z" />
    <glyph glyph-name="quotesinglbase" unicode="&#x201a;" horiz-adv-x="497" 
d="M41 -244q145 23 222 105t67 200q-24 -34 -80 -34q-44 0 -71 26t-27 74q0 51 30 81t86 30q127 0 127 -175q0 -41 -8.5 -80.5t-32.5 -84.5t-61 -80.5t-100.5 -64.5t-145.5 -40z" />
    <glyph glyph-name="quotedblleft" unicode="&#x201c;" horiz-adv-x="851" 
d="M455 1380q-145 -22 -221 -104t-70 -205q25 39 84 39q45 0 71.5 -26t26.5 -74t-32.5 -79.5t-84.5 -31.5q-59 0 -93 43t-34 131q0 40 9.5 81.5t34.5 87t63 82t100 64t140 35.5zM811 1380q-145 -22 -221 -104t-70 -205q25 39 84 39q45 0 71.5 -26t26.5 -74t-32 -79.5
t-84 -31.5q-59 0 -93 43t-34 131q0 52 16.5 104.5t53.5 105.5t108 91.5t168 48.5z" />
    <glyph glyph-name="quotedblright" unicode="&#x201d;" horiz-adv-x="854" 
d="M41 958q145 23 222.5 105t66.5 201q-24 -35 -80 -35q-44 0 -71 26t-27 74q0 51 30 81t86 30q127 0 127 -174q0 -41 -8.5 -80.5t-32.5 -84.5t-61 -81t-100.5 -65t-145.5 -40zM397 958q145 23 222.5 105t66.5 201q-24 -35 -80 -35q-44 0 -71 26t-27 74q0 51 30.5 81
t86.5 30q127 0 127 -174q0 -41 -8.5 -80.5t-32.5 -84.5t-61.5 -81t-101 -65t-145.5 -40z" />
    <glyph glyph-name="quotedblbase" unicode="&#x201e;" horiz-adv-x="854" 
d="M41 -244q145 23 222 105t67 200q-24 -34 -80 -34q-44 0 -71 26t-27 74q0 51 30 81t86 30q127 0 127 -175q0 -41 -8.5 -80.5t-32.5 -84.5t-61 -80.5t-100.5 -64.5t-145.5 -40zM397 -244q145 23 222 105t67 200q-24 -34 -80 -34q-44 0 -71 26t-27 74q0 51 30.5 81t86.5 30
q127 0 127 -175q0 -41 -8.5 -80.5t-32.5 -84.5t-61.5 -80.5t-101 -64.5t-145.5 -40z" />
    <glyph glyph-name="dagger" unicode="&#x2020;" 
d="M483 702q54 15 79.5 78t29.5 197q-15 3 -27.5 15.5t-17.5 27.5q-58 -6 -139 -27q-22 -7 -37.5 -11t-42 -9.5t-45 -4t-37.5 6.5t-29 22t-10 43t10 43t29 22t37.5 6.5t45 -4t42 -9.5t37.5 -11q62 -20 139 -28q9 34 45 45q-3 86 -31 180q-82 270 49 270t49 -270
q-26 -90 -32 -180q15 -4 28 -17t17 -28q70 8 137 28q22 7 37.5 11t42 9.5t45 4t37.5 -6.5t29 -22t10 -43q0 -19 -5 -33t-16 -21.5t-22.5 -12t-29 -4t-30.5 1t-33 5.5l-30 7.5t-28 7.5q-5 1 -7 2q-62 19 -137 27q-10 -32 -45 -43q5 -135 30 -197.5t80 -77.5v-45
q-60 -19 -84 -95.5t-24 -248.5q0 -131 30 -239q83 -269 -49 -269q-130 0 -49 269q31 100 31 239q0 174 -24 249.5t-85 94.5v45z" />
    <glyph glyph-name="daggerdbl" unicode="&#x2021;" 
d="M412 270q-104 -28 -146 -21q-57 9 -57 70q0 110 203 48q67 -22 135 -29q10 32 45 43q-3 134 -28 196.5t-81 79.5v45q54 15 79.5 78t29.5 197q-15 3 -27.5 15.5t-17.5 27.5q-58 -6 -139 -27q-22 -7 -37.5 -11t-42 -9.5t-45 -4t-37.5 6.5t-29 22t-10 43t10 43t29 22
t37.5 6.5t45 -4t42 -9.5t37.5 -11q62 -20 139 -28q9 34 45 45q-3 86 -31 180q-82 270 49 270t49 -270q-26 -90 -32 -180q15 -4 28 -17t17 -28q70 8 137 28q22 7 37.5 11t42 9.5t45 4t37.5 -6.5t29 -22t10 -43q0 -19 -5 -33t-16 -21.5t-22.5 -12t-29 -4t-30.5 1t-33 5.5
l-30 7.5t-28 7.5q-5 1 -7 2q-62 19 -137 27q-10 -32 -45 -43q5 -135 30 -197.5t80 -77.5v-45q-55 -17 -80.5 -80t-29.5 -196q34 -9 45 -45q56 6 139 31q201 64 201 -48q0 -20 -5.5 -34.5t-17.5 -21.5t-23.5 -12t-31 -4t-31.5 1.5t-34.5 6t-30 7.5t-27.5 8q-105 25 -139 29
q-10 -32 -45 -43q6 -96 32 -182q83 -269 -49 -269q-130 0 -49 269q28 97 31 182q-32 6 -45 43q-39 -4 -135 -29z" />
    <glyph glyph-name="bullet" unicode="&#x2022;" horiz-adv-x="919" 
d="M776 494q0 -144 -85.5 -226t-231.5 -82q-140 0 -228 82.5t-88 231.5q0 140 89 224.5t227 84.5q144 0 230.5 -86t86.5 -229z" />
    <glyph glyph-name="ellipsis" unicode="&#x2026;" horiz-adv-x="1452" 
d="M375 106q0 -62 -36.5 -95.5t-96.5 -33.5q-58 0 -95.5 33.5t-37.5 95.5q0 60 38 96t95 36q59 0 96 -36t37 -96zM858 106q0 -62 -36.5 -95.5t-96.5 -33.5q-58 0 -95.5 33.5t-37.5 95.5q0 60 38 96t95 36q59 0 96 -36t37 -96zM1341 106q0 -62 -36.5 -95.5t-96.5 -33.5
q-58 0 -95.5 33.5t-37.5 95.5q0 60 38 96t95 36q59 0 96 -36t37 -96z" />
    </font>
</defs>
</svg>
