<?xml version="1.0" standalone="no"?>
<!DOCTYPE svg PUBLIC "-//W3C//DTD SVG 1.1//EN" "http://www.w3.org/Graphics/SVG/1.1/DTD/svg11.dtd" >
<svg xmlns="http://www.w3.org/2000/svg" xmlns:xlink="http://www.w3.org/1999/xlink" version="1.1">
<metadata>
Created by FontForge 20170731 at Wed Sep  8 12:09:14 2021
 By Aleksey,,,
(C)2010 House Industries/Brand Design Co., Inc. All Rights Reserved.
</metadata>
<defs>
<font id="EamesCenturyModern-ExtraBold" horiz-adv-x="1228" >
  <font-face 
    font-family="Eames Century Modern Extra Bold"
    font-weight="800"
    font-stretch="normal"
    units-per-em="2048"
    panose-1="2 0 9 3 7 7 5 2 2 3"
    ascent="1679"
    descent="-369"
    x-height="973"
    cap-height="1413"
    bbox="-453 -588 2335 2266.92"
    underline-thickness="102"
    underline-position="-307"
    unicode-range="U+0020-FB04"
  />
<missing-glyph horiz-adv-x="1024" 
 />
    <glyph glyph-name="f_f" unicode="ff" horiz-adv-x="1345" 
d="M1278 184q-2 -28 -2 -95t2 -93q-192 4 -301 4l-301 -4q2 28 2 94t-2 94h26q37 0 53 20.5t19 65.5q6 104 2 527l-252 -2q-5 -460 0 -525q9 -86 82 -86h23q-1 -28 -1 -94t1 -94q-192 4 -301 4l-303 -4q1 28 1 94t-1 94h36q69 0 78 86q6 73 2 518l-110 -4q1 28 1 92.5
t-1 92.5l108 -4v45q-5 194 86.5 307t272.5 113q142 0 212 -64t70 -160q1 -78 -37.5 -118.5t-111.5 -40.5q-65 0 -101 35t-36 96q0 67 39.5 99t101.5 34h10q-30 12 -70 12q-49 0 -84 -24.5t-51.5 -68t-6.5 -110t48 -145.5l8 -17h285v11q-8 228 90 344.5t318 116.5
q88 0 154 -20t102.5 -55t54 -74.5t18.5 -84.5q2 -69 -38 -109t-115 -40q-68 0 -107 35.5t-39 95.5q0 66 40.5 99.5t107.5 33.5l31 -2q-40 14 -84 14q-75 0 -115.5 -28.5t-56 -102.5t9.5 -201l4 -28l119 6q-2 -28 -2 -92.5t2 -92.5l-113 4q-8 -377 4 -518q6 -86 80 -86h39z
" />
    <glyph glyph-name="f_i" unicode="fi" horiz-adv-x="1300" 
d="M31 969l106 -4q-1 250 121 357.5t381 107.5q190 0 301 -62t111 -168q0 -75 -42 -114t-120 -39q-152 0 -152 133q0 99 90 123q-36 4 -59 4q-122 0 -183 -56.5t-61 -197.5v-86q524 0 635 12q-3 -123 -3 -368.5t3 -334.5q1 -54 21.5 -73t74.5 -19h21q-2 -34 -2 -97t2 -91
q-195 4 -301 4l-303 -4q2 28 2 92t-2 96h20q42 0 59.5 19t20.5 71q3 60 3.5 209t-3.5 209q-6 55 -27.5 77t-76.5 26q-25 2 -146 2q0 -453 6 -527q3 -48 17 -67t57 -19h23q-1 -28 -1 -94t1 -94q-191 4 -297 4l-303 -4q1 28 1 94t-1 94h41q35 0 51.5 20.5t19.5 65.5
q2 22 2 95.5t-1 206.5t-1 216l-106 -4q1 28 1 92.5t-1 92.5z" />
    <glyph glyph-name="f_l" unicode="fl" horiz-adv-x="1296" 
d="M1159 1417q-3 -151 -3 -605.5t3 -516.5t23.5 -86.5t72.5 -24.5h21v-188q-198 4 -309 4l-291 -4v188h20q41 0 58 24.5t20 86.5q3 60 3 416.5t-3 408.5l-2 23q-27 -96 -147 -96q-68 0 -106 35.5t-38 97.5q0 66 46.5 101t123.5 30q-30 12 -76 12q-49 0 -85 -25t-53.5 -69
t-7 -111t51.5 -143l6 -12l152 6v-185l-111 4q-5 -454 0 -518q5 -45 21 -65.5t51 -20.5h27q-1 -28 -1 -94t1 -94q-182 4 -293 4l-309 -4q1 28 1 94t-1 94h38q70 0 76 86q6 76 2 518l-110 -4q1 28 1 92.5t-1 92.5l108 -4v45q-5 194 86.5 307t272.5 113q93 0 164 -33v16
q337 0 497 4z" />
    <glyph glyph-name="f_f_i" unicode="ffi" horiz-adv-x="1941" 
d="M1268 184q-2 -28 -2 -94t2 -94q-191 4 -297 4l-291 -4q2 28 2 94t-2 94h35q34 0 47 19.5t18 66.5q4 48 0 527l-260 -2q-3 -156 -1 -316.5t5 -208.5q9 -86 80 -86h31q-1 -28 -1 -94t1 -94q-194 4 -303 4l-307 -4q1 28 1 94t-1 94h41q34 0 51 21t22 65q6 73 2 518l-110 -4
q1 28 1 92.5t-1 92.5l108 -4v45q-5 199 90.5 309.5t278.5 110.5q142 0 207 -64t67 -162q0 -78 -39 -117.5t-110 -39.5q-66 0 -102.5 35t-36.5 98q0 68 42 99.5t97 31.5h20q-30 12 -73 12q-67 0 -108.5 -42t-44 -119.5t49.5 -186.5l8 -17h295v9q-1 246 121.5 354.5
t380.5 108.5q202 0 299.5 -62t97.5 -168q0 -73 -43.5 -113t-128.5 -40q-71 0 -111 36t-40 97q0 106 112 125q-40 8 -71 8q-121 0 -175.5 -54.5t-54.5 -199.5v-92q445 0 633 12q-3 -123 -3 -368.5t3 -334.5q1 -53 22 -72.5t74 -19.5h21v-188q-192 4 -301 4l-301 -4v188h18
q42 0 59.5 19t20.5 71q3 60 3.5 209t-3.5 209q-3 54 -25 77.5t-69 25.5q-43 2 -154 2q0 -453 6 -527q3 -48 17.5 -67t56.5 -19h23z" />
    <glyph glyph-name="f_f_l" unicode="ffl" horiz-adv-x="1937" 
d="M31 969l108 -4v45q-5 194 86.5 307t272.5 113q142 0 210 -65t70 -167q3 -151 -147 -151q-67 0 -102 35.5t-35 97.5q0 66 41.5 98.5t103.5 32.5h10q-30 12 -74 12q-66 0 -106.5 -42t-42 -119.5t50.5 -186.5l8 -14l293 -3v52q-5 193 88 306.5t273 113.5q87 0 161 -31v14
q338 0 498 4q-3 -151 -3 -605.5t3 -516.5t23.5 -86.5t72.5 -24.5h23q-1 -34 -1 -97t1 -91q-194 4 -303 4l-301 -4q1 28 1 92t-1 96h20q51 0 64 21.5t16 89.5q3 60 3 418t-3 420q-15 -41 -51.5 -63.5t-89.5 -22.5q-66 0 -101.5 35t-35.5 100q0 66 41 97.5t110 31.5h6
q-30 12 -75 12q-49 0 -84 -24.5t-51 -68t-6 -110t48 -145.5l9 -14l147 8q-2 -28 -2 -92.5t2 -92.5l-111 7q-5 -459 2 -521q6 -86 72 -86h25q-2 -28 -2 -94t2 -94q-189 4 -293 4l-295 -4q2 28 2 94t-2 94h29q35 0 49.5 20t19.5 66q6 74 2 525h-258q-4 -435 2 -525
q9 -86 84 -86h27v-188q-198 4 -307 4l-303 -4q1 28 1 94t-1 94h36q69 0 78 86q6 73 2 518l-110 -4q1 28 1 92.5t-1 92.5z" />
    <glyph glyph-name="f_j" unicode="fj" horiz-adv-x="1210" 
d="M31 969l106 -4q-1 250 121 357.5t381 107.5q201 0 299 -62.5t98 -167.5q0 -73 -44 -113t-132 -40q-77 0 -115 36.5t-38 100.5q0 46 27 77.5t71 43.5q-24 2 -51 2q-61 0 -101 -10.5t-70.5 -38t-44.5 -78t-14 -127.5v-84q559 0 635 6q-1 -38 -1 -423t1 -454
q3 -268 -95 -388t-339 -120q-309 0 -309 211q0 72 43 111t102 39q66 0 103.5 -34t37.5 -97q0 -58 -40.5 -95.5t-118.5 -37.5q37 -15 73 -15q84 0 118.5 53t37.5 203q7 645 0 762q-6 94 -88 94h-162q0 -444 6 -514q3 -48 17 -67t57 -19h51q-1 -28 -1 -94t1 -94q-219 4 -325 4
l-303 -4q1 28 1 94t-1 94h41q34 0 50 20.5t21 65.5q2 21 2 95t-1 207t-1 216l-106 -4q1 28 1 92.5t-1 92.5z" />
    <glyph glyph-name="f_t" unicode="ft" horiz-adv-x="1415" 
d="M1290 391l99 -4q21 -214 -45.5 -319t-256.5 -105q-154 0 -235.5 85.5t-79.5 240.5q0 13 4 215.5t4 286.5h-252q-5 -459 2 -521q6 -86 82 -86h31q-1 -28 -1 -94t1 -94q-198 4 -309 4l-309 -4q1 28 1 94t-1 94h36q69 0 78 86q6 74 2 516l-110 -2q1 28 1 92.5t-1 92.5
l108 -6v47q-5 194 86.5 307t272.5 113q143 0 218 -65t75 -161q0 -74 -38.5 -115.5t-107.5 -41.5q-68 0 -106.5 35t-38.5 94q0 66 45.5 102.5t120.5 26.5q-41 18 -91 18q-67 0 -105 -49t-36 -130.5t49 -168.5l19 -35h82q97 -1 165.5 12.5t115.5 39t80 74t54 105t41 144.5
q25 -1 80 -1t78 1q-14 -112 -18 -350l200 8v-189l-200 2v-415q0 -81 6 -124t16.5 -58t30.5 -15q41 0 53 56t4 161z" />
    <glyph glyph-name="t_t" unicode="tt" horiz-adv-x="1441" 
d="M510 936l145 2q85 1 151 21t109.5 52.5t75 81.5t48.5 102t28 120q23 -1 79 -1t79 1q-19 -158 -19 -350l201 8q-1 -28 -1 -94.5t1 -94.5l-201 2v-415q0 -81 6 -124.5t17 -58t31 -14.5q76 0 55 217l100 -4q11 -101 0.5 -180t-43 -133t-97.5 -82.5t-163 -28.5
q-174 0 -245 80t-68 246l8 499h-297v-417q0 -81 6 -124t16.5 -58t30.5 -15q39 0 51 54.5t-2 129.5l88 13q40 -191 -26 -299.5t-256 -108.5q-176 0 -247.5 80t-68.5 246q0 34 4.5 225t4.5 274h-88q1 22 1 75.5t-1 76.5q145 1 233.5 104t116.5 271q23 -1 77.5 -1t77.5 1
q-14 -117 -18 -369v-10z" />
    <glyph glyph-name=".notdef" horiz-adv-x="1024" 
 />
    <glyph glyph-name=".null" horiz-adv-x="0" 
 />
    <glyph glyph-name="nonmarkingreturn" horiz-adv-x="682" 
 />
    <glyph glyph-name="space" unicode=" " horiz-adv-x="446" 
 />
    <glyph glyph-name="exclam" unicode="!" horiz-adv-x="610" 
d="M504 141q0 -83 -54 -132.5t-143 -49.5q-85 0 -137.5 50t-52.5 136q0 84 53 135.5t137 51.5q89 0 143 -52.5t54 -138.5zM336 473q0 -30 -6.5 -41.5t-26.5 -11.5t-27.5 11.5t-7.5 41.5q0 89 -6 153.5t-23 121t-30 88.5t-45.5 99t-52.5 112q-35 79 -38.5 154t21.5 130.5
t79.5 89t129.5 33.5q98 0 161 -57.5t70.5 -148t-42.5 -201.5q-18 -38 -46.5 -95t-40 -83t-28.5 -72.5t-24 -86t-12 -100t-5 -137.5z" />
    <glyph glyph-name="quotedbl" unicode="&#x22;" horiz-adv-x="739" 
d="M244 852q0 -35 -29 -35q-10 0 -18.5 8.5t-8.5 26.5q0 258 -47 365q-40 95 -17 160t95 65q68 0 91.5 -65t-19.5 -160q-29 -62 -38 -142.5t-9 -222.5zM551 852q0 -35 -29 -35q-10 0 -18 8.5t-8 26.5q0 258 -47 365q-40 95 -17.5 160t94.5 65q68 0 91.5 -65t-19.5 -160
q-29 -62 -38 -142.5t-9 -222.5z" />
    <glyph glyph-name="numbersign" unicode="#" horiz-adv-x="1208" 
d="M324 0h-76l92 440q-185 0 -248 -2q2 8 9.5 46.5t9.5 45.5q126 -4 245 -4q47 233 66 338q-193 0 -279 -2q11 25 19 92q144 -4 276 -4q43 234 78 459h80q-41 -165 -102 -459h321q46 265 76 459h78q-36 -157 -99 -459q112 0 238 4l-16 -92q-84 2 -238 2q-42 -204 -66 -338
q116 0 248 4q-7 -27 -16 -92q-66 2 -246 2q-55 -299 -72 -440h-73q37 169 90 440h-324q-51 -282 -71 -440zM475 864q-39 -189 -63 -338h323q32 157 64 338h-324z" />
    <glyph glyph-name="dollar" unicode="$" horiz-adv-x="1208" 
d="M559 1612l-6 -217q23 2 49 2t40 -1l15 -1l-6 217h105l-6 -228q157 -25 246 -100.5t87 -179.5q-1 -66 -37 -103.5t-96 -37.5q-62 0 -97.5 29t-35.5 81q0 41 23.5 70.5t66.5 38.5q-63 45 -162 61l-10 -297q432 -56 432 -438q0 -190 -108.5 -312t-310.5 -157l8 -242h-105
l6 232l-106 -2l8 -230h-104l6 236q-191 23 -300.5 107.5t-107.5 205.5q2 65 42.5 105.5t105.5 40.5q63 0 99 -31t36 -86q0 -43 -25.5 -74.5t-70.5 -40.5q76 -60 225 -76l8 322q-196 30 -296.5 142t-100.5 284q0 170 101 292t284 158l-6 230h104zM539 498l8 -318l115 4
l10 305q-33 3 -133 9zM539 963q52 -8 131 -11l-8 299q-54 4 -113 -2zM907 346q0 55 -40.5 87.5t-131.5 47.5l8 -284q79 20 121.5 58.5t42.5 90.5zM330 1094q0 -91 141 -121l-6 260q-64 -21 -99.5 -56.5t-35.5 -82.5z" />
    <glyph glyph-name="percent" unicode="%" 
d="M186 174q0 8 6 13.5t13 5.5t12.5 -5.5t5.5 -13.5t-5.5 -13t-12.5 -5q-8 0 -13.5 5.5t-5.5 12.5zM260 285q0 12 9.5 21t21.5 9t21.5 -9t9.5 -21q0 -13 -9.5 -23t-21.5 -10t-21.5 10t-9.5 23zM334 393q0 17 13 30t30 13t30 -13t13 -30t-13 -30t-30 -13t-30 13t-13 30z
M412 504q0 20 15.5 34.5t35.5 14.5t35.5 -14.5t15.5 -34.5q0 -21 -15 -36t-36 -15t-36 15t-15 36zM494 612q0 23 16 39.5t39 16.5t39 -16.5t16 -39.5t-16 -39t-39 -16t-39 16t-16 39zM578 723q0 23 17 39t40 16t40 -16t17 -39q0 -24 -16.5 -40.5t-40.5 -16.5t-40.5 16.5
t-16.5 40.5zM666 831q0 23 16 39.5t39 16.5t39 -16.5t16 -39.5t-16 -39t-39 -16t-39 16t-16 39zM756 942q0 20 15.5 34.5t35.5 14.5t35.5 -14.5t15.5 -34.5q0 -21 -15 -36t-36 -15t-36 15t-15 36zM850 1051q0 17 13 30t30 13t30 -13t13 -30t-13 -30t-30 -13t-30 13t-13 30z
M948 1161q0 12 9.5 21.5t21.5 9.5t21.5 -9.5t9.5 -21.5q0 -13 -9.5 -23t-21.5 -10t-21.5 10t-9.5 23zM1047 1270q0 8 5.5 13t12.5 5t12.5 -5t5.5 -13t-5.5 -13.5t-12.5 -5.5t-12.5 5.5t-5.5 13.5zM854 43q25 0 39 15.5t22.5 65.5t8.5 142q0 93 -8.5 143t-22.5 65t-39 15
t-39.5 -15.5t-23.5 -65.5t-9 -142q0 -95 8.5 -144.5t22.5 -64t41 -14.5zM854 -59q-139 0 -216 74.5t-77 250.5q0 90 24.5 156t67.5 102.5t92.5 53t108.5 16.5q293 0 293 -328q0 -89 -24.5 -154.5t-67.5 -101.5t-92.5 -52.5t-108.5 -16.5zM383 911q26 0 40.5 16t23 66
t8.5 142q0 93 -9 143.5t-23.5 65t-39.5 14.5q-24 0 -38.5 -15t-24 -66t-9.5 -142q0 -95 8.5 -144.5t22.5 -64.5t41 -15zM383 809q-138 0 -215.5 75t-77.5 251q0 89 25 155t68 102t92.5 53t107.5 17q138 0 215.5 -75.5t77.5 -251.5q0 -90 -24 -155.5t-66.5 -101.5
t-92.5 -52.5t-110 -16.5z" />
    <glyph glyph-name="ampersand" unicode="&#x26;" horiz-adv-x="1662" 
d="M1610 322q0 -168 -96.5 -260.5t-280.5 -92.5q-117 0 -203 25.5t-162 87.5q-128 -119 -364 -119q-199 0 -316.5 98t-117.5 279q0 143 95 255t251 150q-68 149 -68 269q0 115 34 198t96.5 130.5t140.5 69.5t176 22q180 0 268 -89.5t88 -240.5q0 -138 -73.5 -244
t-188.5 -168q114 -176 225 -317q65 81 68 155q0 91 -74 91h-39v137q160 -4 248 -4l250 4q-2 -69 0 -137h-68q-50 0 -76.5 -22.5t-46.5 -74.5q-60 -162 -174 -252q36 -34 65.5 -45.5t67.5 -11.5q59 0 95 32t45 91zM428 459q0 -88 46 -158.5t124 -102t164 -8.5
q-141 181 -266 404q-31 -19 -49.5 -54.5t-18.5 -80.5zM743 1096q0 -134 76 -283q86 89 86 287q0 139 -78 139q-46 0 -65 -35.5t-19 -107.5z" />
    <glyph glyph-name="quotesingle" unicode="'" horiz-adv-x="434" 
d="M244 852q0 -35 -29 -35q-10 0 -18.5 8.5t-8.5 26.5q0 258 -47 365q-40 95 -17 160t95 65q68 0 91.5 -65t-19.5 -160q-29 -62 -38 -142.5t-9 -222.5z" />
    <glyph glyph-name="parenleft" unicode="(" horiz-adv-x="645" 
d="M393 627q0 -292 17.5 -467.5t56.5 -286t113 -209.5l-91 -74q-103 56 -178 135t-133.5 200t-87.5 296t-29 406t29 406.5t87.5 296.5t133.5 200t178 135l91 -76q-107 -142 -147 -347.5t-40 -614.5z" />
    <glyph glyph-name="parenright" unicode=")" horiz-adv-x="645" 
d="M248 627q0 409 -40 614.5t-147 347.5l93 76q103 -56 177.5 -135t132.5 -199.5t87 -296.5t29 -407t-29 -406t-87 -296t-133 -200t-177 -135l-93 74q74 99 113 209.5t56.5 286t17.5 467.5z" />
    <glyph glyph-name="asterisk" unicode="*" horiz-adv-x="1024" 
d="M561 1214q-29 -44 -31 -110l27 -17q37 22 54.5 39.5t29.5 44.5q4 9 12 31.5t14 36t20.5 31.5t35.5 30q50 29 99 18t77 -56q26 -50 10 -97t-63 -73q-25 -16 -54.5 -18t-62.5 3.5t-41 5.5q-47 3 -110 -32v-27q38 -21 61 -27.5t53 -3.5q6 1 32.5 6t39.5 6t37 -3.5t45 -16.5
q49 -28 64 -76t-11 -94q-28 -48 -79.5 -58t-96.5 19q-25 15 -41 38t-28.5 56t-14.5 37q-12 25 -28.5 41t-53.5 39l-25 -14q0 -42 6.5 -65.5t24.5 -47.5q5 -6 21.5 -25t24.5 -30.5t16.5 -34t9.5 -47.5q0 -56 -35.5 -93.5t-87.5 -37.5q-55 0 -89 38.5t-34 92.5q1 29 14.5 55.5
t34.5 51t25 32.5q27 41 29 111l-25 14q-39 -23 -56.5 -39.5t-27.5 -42.5q-4 -9 -12 -31.5t-14 -36t-20.5 -31.5t-35.5 -30q-50 -29 -99 -17t-77 58q-26 48 -10 95.5t63 72.5q25 16 54.5 18t62 -4t41.5 -6q47 -3 110 31v27q-39 22 -61.5 28.5t-52.5 3.5q-9 -1 -32.5 -5
t-38.5 -5.5t-38.5 3t-44.5 16.5q-49 28 -64 76t11 94q28 48 79.5 57.5t96.5 -19.5q19 -11 34.5 -31t22.5 -34.5t16 -37.5t11 -28q12 -26 28.5 -42t53.5 -40l25 15q-2 44 -8.5 67.5t-24.5 47.5q-2 2 -26.5 30.5t-34 51t-9.5 55.5q0 56 34.5 93.5t88.5 37.5t88.5 -38.5
t32.5 -92.5q0 -30 -12 -55.5t-34.5 -53t-25.5 -31.5z" />
    <glyph glyph-name="plus" unicode="+" 
d="M713 53h-199q9 243 27 387q-175 -26 -383 -26v198q186 0 383 -26q-27 182 -27 383h199q0 -179 -27 -383q197 26 385 26v-198q-212 0 -387 26q20 -141 29 -387z" />
    <glyph glyph-name="comma" unicode="," horiz-adv-x="522" 
d="M82 -158q126 23 193 95t67 182q-29 -60 -115 -60q-62 0 -99.5 38.5t-37.5 107.5q0 68 44 112.5t124 44.5q79 0 125.5 -54t46.5 -154q0 -63 -18.5 -120t-57 -107t-104.5 -86t-154 -50z" />
    <glyph glyph-name="hyphen" unicode="-" horiz-adv-x="555" 
d="M29 395q4 118 0 236q249 -8 497 0q-4 -118 0 -236q-248 8 -497 0z" />
    <glyph glyph-name="period" unicode="." horiz-adv-x="616" 
d="M514 166q0 -92 -54 -143.5t-153 -51.5q-94 0 -149.5 50t-55.5 147q0 85 58 139.5t147 54.5q98 0 152.5 -55t54.5 -141z" />
    <glyph glyph-name="slash" unicode="/" horiz-adv-x="774" 
d="M270 -358q-26 3 -122.5 3t-122.5 -3q100 337 252.5 900t226.5 871q43 -3 124 -3t124 3q-100 -332 -254 -895.5t-228 -875.5z" />
    <glyph glyph-name="zero" unicode="0" horiz-adv-x="1284" 
d="M481 569q0 -188 16.5 -287t49 -135t94.5 -36q60 0 93 37t50 137.5t17 289.5q0 192 -16 294.5t-49 143t-95 40.5q-59 0 -92.5 -40.5t-50.5 -146.5t-17 -297zM70 573q0 305 151.5 466t419.5 161q283 0 428 -156.5t145 -468.5q0 -160 -40.5 -278.5t-117 -191.5t-180 -108.5
t-235.5 -35.5q-281 0 -426 148.5t-145 463.5z" />
    <glyph glyph-name="one" unicode="1" horiz-adv-x="931" 
d="M264 299q4 96 0 485q-42 -20 -93 -26t-99 4q2 29 2 102t-2 101h22q149 -7 221.5 51t81.5 190q44 -3 142.5 -3t142.5 3q-10 -174 -12 -260q-4 -250 2 -647q2 -62 24 -87.5t82 -25.5h86q-2 -28 -2 -94t2 -94q-254 4 -397 4l-401 -4q2 28 2 94t-2 94h92q65 0 84 26t22 87z
" />
    <glyph glyph-name="two" unicode="2" horiz-adv-x="1132" 
d="M1018 483q47 -96 47 -204q1 -157 -80.5 -245.5t-224.5 -88.5q-103 -1 -177 36t-177 121q-85 68 -152 68q-48 0 -80 -25q20 5 33 5q44 0 68 -26t24 -67q0 -43 -27.5 -67.5t-76.5 -24.5q-55 0 -91 45t-36 121q0 276 290 393q148 60 209.5 129.5t61.5 175.5
q0 94 -53.5 144.5t-157.5 50.5q-126 0 -199 -76q36 8 70 8q78 0 122 -42.5t44 -114.5t-48.5 -114t-134.5 -42q-85 0 -135.5 54t-50.5 149q0 165 128 259.5t349 94.5q220 0 340.5 -90t120.5 -244q0 -172 -129.5 -276.5t-370.5 -134.5q-113 -13 -196 -53.5t-125 -98.5
q105 87 368 47q41 -7 64.5 -10t62 -7t61 -3t51.5 4t45 13t31 25t19 39.5t0 55.5z" />
    <glyph glyph-name="three" unicode="3" 
d="M1100 817q0 -273 -281 -344q169 -21 254.5 -113.5t85.5 -242.5q0 -203 -155.5 -309.5t-448.5 -106.5q-224 0 -355.5 96.5t-131.5 251.5q0 95 56.5 156t145.5 61q85 0 133 -43.5t48 -120.5q0 -85 -58.5 -126.5t-154.5 -32.5q68 -88 219 -88q128 0 193 68t65 212
q0 127 -66.5 191.5t-189.5 64.5h-64v135h47q112 2 177 66t65 199q0 105 -57.5 169t-161.5 64q-137 0 -211 -74q21 6 51 6q77 0 123.5 -42.5t46.5 -112.5q0 -73 -48 -115.5t-128 -42.5q-87 0 -136.5 53.5t-49.5 143.5q0 149 137.5 254.5t367.5 105.5q227 0 354.5 -102.5
t127.5 -280.5z" />
    <glyph glyph-name="four" unicode="4" horiz-adv-x="1234" 
d="M547 51q4 36 4 125q-225 3 -490 -2v109q47 79 284 441.5t302 481.5q170 -4 340 0q-7 -471 -4 -913l178 6q-1 -19 -1 -66.5t1 -66.5l-178 4q0 -89 4 -117q5 -49 24 -72.5t66 -23.5h64v-190q-230 6 -377 6l-387 -6q1 29 1 95t-1 95h74q51 0 70.5 20t25.5 74zM549 827
q-33 -56 -105 -175.5t-123.5 -208.5t-84.5 -154q94 -2 315 -2q0 382 -2 540z" />
    <glyph glyph-name="five" unicode="5" horiz-adv-x="1226" 
d="M420 446q-128 0 -225 -63l-54 55q63 123 87.5 341t17.5 423q49 -18 164.5 -31.5t232.5 -13.5q123 0 238.5 19t179.5 45l59 -43q0 -106 -35 -184.5t-98 -124t-142 -67.5t-175 -22q-208 0 -340 86q-14 -193 -66 -323q74 44 179.5 70t218.5 26q248 0 372.5 -117.5
t124.5 -339.5q0 -232 -152.5 -356.5t-447.5 -124.5q-233 0 -362 94t-129 256q0 100 56.5 157.5t147.5 57.5q84 0 131.5 -43t47.5 -119q0 -84 -58.5 -128t-152.5 -33q72 -78 202 -78q256 0 256 295q0 138 -70 212t-208 74z" />
    <glyph glyph-name="six" unicode="6" horiz-adv-x="1243" 
d="M754 1325q-143 0 -206 -128.5t-67 -440.5q40 65 116 103t179 38q400 0 400 -446q0 -221 -153 -351.5t-411 -130.5q-542 0 -542 688q0 199 45 353.5t126 250.5t188 144.5t237 48.5q201 0 316.5 -83.5t115.5 -213.5q0 -99 -50 -152t-147 -53q-87 0 -133.5 45.5t-46.5 120.5
q0 81 52 123.5t138 40.5q-62 43 -157 43zM483 438q0 -156 33.5 -229.5t120.5 -73.5q78 0 108.5 74t30.5 229q0 151 -34 219t-105 68q-81 0 -117.5 -65.5t-36.5 -221.5z" />
    <glyph glyph-name="seven" unicode="7" horiz-adv-x="1130" 
d="M238 1204l14 -127q30 63 88 97t131 34q126 0 238 -106q71 -70 120.5 -94.5t98.5 -24.5q51 0 82 31q-51 -10 -94.5 15.5t-43.5 84.5q0 50 32 79.5t87 29.5q58 0 91.5 -39t33.5 -113q0 -98 -41.5 -187t-134.5 -182q-59 -58 -97 -106t-69 -107.5t-44 -124.5t-13.5 -149
t14.5 -190q22 -146 -42.5 -221.5t-188.5 -75.5q-120 0 -182 65.5t-62 206.5q0 149 57.5 267.5t162.5 209t274 180.5q148 80 211 164q-109 -98 -277 -98q-45 -1 -87.5 7.5t-69 18t-70.5 29.5q-76 31 -115 31q-103 0 -100 -131q-20 3 -77 3t-77 -3q9 82 7 250.5t-11 275.5
q20 -3 77 -3t77 3z" />
    <glyph glyph-name="eight" unicode="8" horiz-adv-x="1271" 
d="M1118 1128q0 -163 -151 -254q131 -60 187 -156.5t56 -240.5q0 -248 -158.5 -378t-447.5 -130q-534 0 -534 336q0 105 62.5 173t164.5 104q-195 122 -195 381q0 225 143.5 358t403.5 133q224 0 346.5 -88t122.5 -238zM537 496l-121 30q-88 -73 -88 -194q0 -90 77.5 -138.5
t225.5 -48.5q144 0 218.5 44.5t74.5 113.5q0 48 -29.5 78t-111 56.5t-246.5 58.5zM645 1292q-113 0 -177.5 -46t-64.5 -116q0 -74 70 -113.5t266 -74.5l84 -18q66 72 66 182q0 81 -59 133.5t-185 52.5z" />
    <glyph glyph-name="nine" unicode="9" horiz-adv-x="1241" 
d="M453 -182q108 0 171.5 54t95.5 182.5t34 353.5q-34 -74 -107 -116t-168 -42q-194 0 -303.5 114t-109.5 324q0 226 148.5 369t399.5 143q271 0 414 -179t143 -546q0 -130 -18.5 -240t-64 -211t-117 -170.5t-184 -111t-257.5 -41.5q-208 0 -327 81.5t-119 209.5
q0 89 54.5 139.5t148.5 50.5q85 0 132.5 -43t47.5 -121q0 -80 -52 -120.5t-147 -42.5q75 -37 185 -37zM752 748q0 171 -33.5 244t-118.5 73q-77 0 -109 -74.5t-32 -242.5q0 -178 35 -255t106 -77q78 0 115 74.5t37 257.5z" />
    <glyph glyph-name="colon" unicode=":" horiz-adv-x="528" 
d="M410 702q0 -63 -39 -99t-107 -36q-66 0 -105.5 37t-39.5 101t39.5 101.5t105.5 37.5q67 0 106.5 -38.5t39.5 -103.5zM410 254q0 -61 -39 -97t-107 -36q-66 0 -105.5 36t-39.5 99q0 65 39 102t106 37q68 0 107 -37.5t39 -103.5z" />
    <glyph glyph-name="semicolon" unicode=";" horiz-adv-x="561" 
d="M143 258q0 64 41.5 102.5t110.5 38.5q76 0 117 -52t41 -144q0 -146 -106.5 -243.5t-270.5 -125.5l-15 51q157 31 233.5 112t74.5 200q-12 -33 -42.5 -51.5t-72.5 -18.5q-53 0 -82 34t-29 97zM442 702q0 -63 -39.5 -99t-107.5 -36q-66 0 -104.5 37t-38.5 101t39 101.5
t104 37.5q67 0 107 -38.5t40 -103.5z" />
    <glyph glyph-name="less" unicode="&#x3c;" 
d="M285 455v110q427 265 571 369l82 -158q-147 -68 -498 -266q372 -210 498 -266l-82 -158q-144 104 -571 369z" />
    <glyph glyph-name="equal" unicode="=" 
d="M164 256q6 88 0 180q452 -8 901 0q-6 -90 0 -180q-449 8 -901 0zM164 592q6 88 0 180q452 -8 901 0q-6 -90 0 -180q-449 8 -901 0z" />
    <glyph glyph-name="greater" unicode="&#x3e;" 
d="M936 565v-110q-411 -255 -571 -369l-80 158q130 58 497 266q-343 194 -497 266l80 158q160 -114 571 -369z" />
    <glyph glyph-name="question" unicode="?" horiz-adv-x="1095" 
d="M788 567l27 -63q-56 -37 -135 -63.5t-154 -26.5q-90 0 -142 39t-52 106q0 56 30 96.5t101 87.5q166 113 166 279q0 116 -57 179t-173 63q-62 0 -116.5 -23.5t-87.5 -66.5q40 12 84 12q80 0 127 -46t47 -124q0 -75 -53 -121.5t-142 -46.5q-96 0 -147.5 56.5t-51.5 158.5
q0 176 135.5 283.5t362.5 107.5q253 0 376.5 -107.5t123.5 -291.5q0 -73 -20.5 -134t-56 -105.5t-90.5 -82.5t-116.5 -64.5t-142.5 -52.5q-60 -20 -81.5 -35.5t-21.5 -37.5q0 -17 17.5 -28t42.5 -11q92 0 200 63zM758 145q0 -87 -51.5 -136.5t-141.5 -49.5t-142 49t-52 137
q0 87 52 137t142 50q89 0 141 -50.5t52 -136.5z" />
    <glyph glyph-name="at" unicode="@" horiz-adv-x="1667" 
d="M1343 891q-24 -92 -57 -254t-49 -260q-16 -77 -2.5 -129.5t65.5 -52.5q66 0 116.5 77.5t70.5 186.5q20 124 20 232.5t-34.5 198.5t-96.5 154.5t-167 100t-246 35.5q-291 0 -488 -171t-248 -497q-54 -351 89 -535t436 -184q320 0 530 178l49 -49q-95 -101 -250.5 -160
t-326.5 -59q-161 0 -289 39.5t-212.5 112t-137.5 174t-63.5 225t9.5 266.5q36 231 163.5 401t316.5 256.5t417 86.5q178 0 316.5 -50.5t230 -151t120.5 -251.5t-11 -352q-37 -183 -148 -281t-280 -98q-116 0 -184 45t-74 135q-96 -176 -297 -176q-120 0 -182 84.5t-37 257.5
q18 132 61 231.5t102 156t124.5 83.5t136.5 27q186 0 211 -148q91 68 110 115q32 -3 93 -3t93 3zM791 236q97 0 163 337q40 209 -43 209q-106 0 -168 -348q-36 -198 48 -198z" />
    <glyph glyph-name="A" unicode="A" horiz-adv-x="1812" 
d="M942 223q147 0 72 203q-292 4 -455 2q-36 -106 -17 -155.5t97 -49.5h72q-1 -34 -1 -114.5t1 -112.5q-213 4 -334 4l-332 -4q1 32 1 112.5t-1 114.5h43q88 0 135 41t88 144q2 6 61.5 163t126 331.5t127.5 335t70 185.5q141 -4 219 -4l220 4q59 -169 192.5 -513.5
t200.5 -503.5q45 -108 86.5 -145.5t103.5 -37.5h49q-1 -34 -1 -114.5t1 -112.5q-288 4 -450 4l-453 -4q2 32 2 112.5t-2 114.5h78zM971 559q-54 158 -185 504q-117 -321 -180 -504q186 -3 365 0z" />
    <glyph glyph-name="B" unicode="B" horiz-adv-x="1503" 
d="M1456 418q2 -102 -27 -176.5t-97 -131t-187 -84.5t-289 -28q-27 0 -191.5 1t-228.5 1l-391 -2q1 32 1 111.5t-1 113.5h51q64 0 92.5 27t32.5 96q5 89 5 367.5t-5 353.5q-5 65 -30 94t-80 29h-66q4 114 0 223q7 0 182.5 -2t239.5 -2q48 0 188.5 1t182.5 1q563 0 563 -356
q0 -132 -72.5 -210t-195.5 -108q156 -26 238.5 -110t84.5 -209zM735 655h-82q0 -299 4 -342q1 -47 26.5 -71.5t68.5 -24.5h47q106 0 150 51t44 174q0 115 -63 164t-195 49zM657 1116q-4 -70 -4 -323h82q129 0 175 41t46 163q0 102 -43.5 150.5t-134.5 48.5h-37
q-81 0 -84 -80z" />
    <glyph glyph-name="C" unicode="C" horiz-adv-x="1488" 
d="M1128 1360q60 -37 84 -26t31 85q28 -1 96.5 -1t96.5 1q-11 -73 -24.5 -254t-14.5 -284q-53 3 -152 3t-153 -3q-10 161 -66.5 243t-187.5 82q-73 0 -122 -22.5t-84.5 -78.5t-52 -153t-16.5 -243q0 -124 14 -215.5t37 -145.5t58.5 -86.5t72.5 -43.5t86 -11q126 0 198 88
t71 256q54 -3 167 -3t167 3q-1 -213 -64.5 -339t-206.5 -186.5t-385 -60.5q-171 0 -298.5 39t-221.5 124.5t-142 230.5t-48 350q0 150 32.5 272.5t92.5 209.5t145.5 146.5t189.5 88t226 28.5q221 0 374 -94z" />
    <glyph glyph-name="D" unicode="D" horiz-adv-x="1632" 
d="M870 1409q185 0 315.5 -40.5t214.5 -127t123.5 -215t41.5 -309.5q2 -156 -30.5 -278.5t-91.5 -204.5t-146 -135.5t-189 -77t-225 -23.5q-277 2 -422 2l-416 -4q1 32 1 112.5t-1 114.5h49q70 0 96 25.5t31 97.5q5 89 5 367.5t-5 353.5q-4 64 -31.5 93.5t-83.5 29.5h-61
q1 34 1 112.5t-1 110.5q3 0 166 -2t250 -2h409zM657 313q2 -38 23.5 -60t60.5 -22h50q86 0 143 20.5t100 74t62.5 150t19.5 243.5q0 138 -19 229.5t-61 143.5t-99.5 73t-143.5 21h-52q-80 0 -84 -74q-6 -117 -5.5 -397t5.5 -402z" />
    <glyph glyph-name="E" unicode="E" horiz-adv-x="1501" 
d="M866 956v64h174q-14 -208 -14 -311q0 -168 14 -314q-88 2 -170 0v58q-2 105 -37 146.5t-131 41.5h-45q0 -228 5 -289q6 -73 35.5 -101t93.5 -28h172q95 0 147.5 29t78 103t25.5 210q37 -1 121 -1t121 1q-20 -217 -20 -575q-156 10 -469 10h-512q-61 0 -158 -1t-171.5 -2
t-80.5 -1q1 32 1 112.5t-1 114.5h51q68 0 95 32t32 103q5 78 5.5 341t-3.5 352q-4 75 -33.5 107t-89.5 32h-57q1 34 1 112.5t-1 110.5q6 0 173.5 -2t238.5 -2h501q378 0 490 14q-16 -241 -12 -542q-35 1 -114.5 1t-113.5 -1q0 98 -16 160.5t-51 94t-75.5 42t-102.5 10.5
h-175q-62 0 -92.5 -29.5t-33.5 -93.5q-5 -147 -5 -287h48q93 0 127 39.5t34 138.5z" />
    <glyph glyph-name="F" unicode="F" horiz-adv-x="1470" 
d="M655 778h43q87 0 124.5 41t37.5 137v62h174q-14 -208 -14 -309q0 -170 14 -316q-88 2 -170 0v60q0 104 -35.5 144t-132.5 40h-41q0 -181 4 -279q5 -76 33.5 -105.5t102.5 -29.5h94q-1 -34 -1 -114.5t1 -112.5q-270 4 -422 4l-422 -4q1 32 1 112.5t-1 114.5h57
q63 0 90.5 32.5t32.5 102.5q5 86 5 347.5t-5 359.5q-6 125 -114 125h-66q1 34 1 112.5t-1 110.5q3 0 167 -2t249 -2q49 0 183 1t296 1q389 0 485 12q-15 -376 -12 -600q-137 4 -225 -2q1 113 -11.5 183.5t-43.5 112t-76 56.5t-117 15h-152q-62 0 -93.5 -29.5t-35.5 -93.5
q-4 -45 -4 -287z" />
    <glyph glyph-name="G" unicode="G" horiz-adv-x="1599" 
d="M752 1454q222 0 376 -96q58 -39 83 -26.5t32 87.5q28 -1 96.5 -1t96.5 1q-11 -73 -24.5 -254t-14.5 -284q-53 3 -152 3t-153 -3q-10 161 -66.5 243t-187.5 82q-73 0 -122 -22.5t-84.5 -78.5t-52 -153t-16.5 -243q0 -124 14.5 -215.5t38.5 -145.5t60 -86.5t71.5 -43.5
t81.5 -11q110 0 172 60t62 186q0 75 -20.5 107t-79.5 32h-68v168q227 -6 346 -6l334 6q-2 -92 0 -168h-47q-43 0 -58.5 -24.5t-15.5 -84.5q0 -301 29 -487q-125 8 -244 0q-19 73 -53 164q-56 -93 -172 -147t-264 -54q-124 0 -224.5 23t-187.5 77.5t-145.5 139.5t-91.5 214
t-33 296q0 187 49.5 330t140.5 233.5t215.5 136t278.5 45.5z" />
    <glyph glyph-name="H" unicode="H" horiz-adv-x="1734" 
d="M45 -6q1 34 1 114.5t-1 114.5h61q66 0 88 21t27 86q5 83 5 379.5t-5 365.5q-5 61 -28.5 88t-77.5 27h-70q1 34 1 112.5t-1 110.5q250 -4 389 -4q62 0 155.5 1t162 2t69.5 1q-1 -32 -1 -110.5t1 -112.5h-53q-56 0 -84.5 -27.5t-32.5 -87.5q-4 -41 -4 -305q209 -3 438 0
q0 266 -2 305q-4 60 -33 87.5t-85 27.5h-54q1 34 1 112.5t-1 110.5q248 -4 387 -4q62 0 156 1t162.5 2t69.5 1q-4 -112 0 -223h-66q-54 0 -78 -27t-29 -88q-5 -67 -5 -365t5 -378q3 -61 26 -85t87 -24h60q-4 -114 0 -229q-247 6 -388 6l-387 -6q1 34 1 114.5t-1 114.5h58
q64 0 89 26.5t25 82.5q0 12 1 117t1 182q-229 3 -438 0q0 -209 4 -299q3 -58 25 -83.5t88 -25.5h57q-1 -34 -1 -114.5t1 -114.5q-248 6 -387 6z" />
    <glyph glyph-name="I" unicode="I" horiz-adv-x="876" 
d="M49 -6q1 34 1 114.5t-1 114.5h66q60 0 80.5 25t25.5 84q5 72 5 373t-5 370q-5 61 -28.5 88t-77.5 27h-66q1 34 1 112.5t-1 110.5q252 -4 391 -4q62 0 156 1t163 2t70 1q-1 -32 -1 -110.5t1 -112.5h-65q-54 0 -78 -27t-29 -88q-6 -74 -5.5 -370t5.5 -373q3 -56 26.5 -82.5
t80.5 -26.5h63q-1 -34 -1 -114.5t1 -114.5q-248 6 -389 6z" />
    <glyph glyph-name="J" unicode="J" horiz-adv-x="1210" 
d="M430 317q0 -89 -59 -136.5t-158 -45.5q58 -37 145 -37q70 0 114 24.5t72.5 91.5t33.5 183q4 121 4 365.5t-4 312.5q-5 61 -28.5 88t-78.5 27h-72q1 34 1 112.5t-1 110.5q246 -4 383 -4q61 0 153.5 1t160.5 2t69 1q-1 -32 -1 -110.5t1 -112.5h-45q-55 0 -80 -24t-26 -91
q-1 -13 -1 -113v-210t0.5 -220t0.5 -120q1 -216 -144 -331.5t-407 -115.5q-208 0 -322 87t-114 235q0 97 57 156t158 59q87 0 137.5 -49.5t50.5 -135.5z" />
    <glyph glyph-name="K" unicode="K" horiz-adv-x="1714" 
d="M45 -4q1 32 1 112.5t-1 114.5h53q67 0 91.5 27t29.5 90q5 66 5 365.5t-5 367.5q-5 63 -31.5 90t-91.5 27h-51q1 34 1 112.5t-1 110.5q248 -4 387 -4q62 0 156 1t162 2t69 1q-1 -32 -1 -110.5t1 -112.5h-61q-54 0 -78 -27.5t-29 -89.5q-4 -43 -4 -338l365 303q33 27 38 63
t-20 62.5t-69 26.5h-64q1 34 1 112.5t-1 110.5q248 -4 385 -4q62 0 153.5 1t158 2t67.5 1q-1 -32 -1 -110.5t1 -112.5h-74q-104 0 -181 -34.5t-173 -111.5l-133 -108q67 -111 209 -342t157 -252q52 -71 82 -95t82 -24h39q-1 -34 -1 -113.5t1 -111.5q-252 4 -393 4l-393 -4
q1 32 1 111.5t-1 113.5h39q118 0 24 174q-9 16 -71 114.5t-103 160.5l-125 -103q0 -167 4 -229q3 -60 25 -88.5t72 -28.5h59q-1 -34 -1 -114.5t1 -112.5q-244 4 -379 4z" />
    <glyph glyph-name="L" unicode="L" horiz-adv-x="1359" 
d="M850 1413q-3 -32 -3.5 -111.5t1.5 -111.5h-62q-64 0 -95.5 -30t-35.5 -99q-5 -79 -5 -353t5 -368q4 -69 34.5 -93t92.5 -24h78q52 0 87 8t66.5 32t50 67.5t30.5 115.5t14 175q31 -1 106 -1t107 1q-11 -271 -6 -629q-141 8 -438 8h-471q-255 0 -361 -2q1 32 1 111.5
t-1 113.5h68q66 0 86.5 30t23.5 105q5 88 5 361t-5 342q-5 64 -29 96.5t-77 32.5h-66q1 34 1 112.5t-1 110.5q257 -4 402 -4q63 0 158.5 1t166 2t72.5 1z" />
    <glyph glyph-name="M" unicode="M" horiz-adv-x="2025" 
d="M860 115q-64 136 -187 379t-216 417q-6 -422 2 -538q5 -79 36 -114.5t101 -35.5h82q-2 -34 -2 -114.5t2 -112.5q-203 4 -318 4l-315 -4q1 32 1 112.5t-1 114.5h68q65 0 95.5 35.5t35.5 114.5q4 75 4 345t-4 343q-9 129 -125 129h-72v223q341 -8 686 0q138 -290 324 -639
q150 308 299 639q312 -8 624 0q-2 -32 -2 -110.5t2 -112.5h-65q-54 0 -84 -34.5t-35 -96.5q-4 -66 -4 -336t4 -356q5 -78 29.5 -111t91.5 -33h63q-2 -34 -2 -114.5t2 -112.5q-264 4 -411 4l-412 -4v227h68q63 0 89.5 36t31.5 110q3 59 3.5 249t-1.5 302
q-93 -183 -210.5 -426t-176.5 -379h-101z" />
    <glyph glyph-name="N" unicode="N" horiz-adv-x="1697" 
d="M688 1413q88 -143 252.5 -393t284.5 -424q2 88 1.5 236t-3.5 217q-4 76 -36 108.5t-91 32.5h-95v223q1 0 59 -1.5t136.5 -3t130.5 -1.5l326 6q-1 -32 -1 -110.5t1 -112.5h-68q-58 0 -90.5 -33t-36.5 -108q-4 -88 -4 -453.5t4 -597.5q-190 8 -379 0q-223 361 -600 926
q-2 -137 -1.5 -323.5t3.5 -242.5q3 -66 34 -100.5t99 -34.5h95q-1 -34 -1 -114.5t1 -112.5q-211 4 -332 4l-332 -4q1 32 1 112.5t-1 114.5h66q68 0 99 34.5t36 100.5q4 83 4 358.5t-4 344.5q-5 61 -38.5 95t-92.5 34h-68q1 34 1 112.5t-1 110.5q320 -8 641 0z" />
    <glyph glyph-name="O" unicode="O" horiz-adv-x="1615" 
d="M809 195q142 0 195 113.5t53 398.5q0 148 -11 242t-40 156.5t-76 88t-121 25.5q-139 0 -194.5 -115.5t-55.5 -398.5q0 -291 51.5 -400.5t198.5 -109.5zM809 -35q-370 0 -555.5 177t-185.5 563q0 189 52.5 331.5t150 232.5t232.5 134.5t306 44.5q374 0 556.5 -178
t182.5 -563q0 -156 -37 -281t-102 -210.5t-158.5 -142.5t-203 -82.5t-238.5 -25.5z" />
    <glyph glyph-name="P" unicode="P" horiz-adv-x="1462" 
d="M819 481q-76 0 -166 4q0 -75 4 -141q3 -66 32 -94.5t85 -28.5h100q-2 -32 -2 -112.5t2 -112.5q-263 4 -415 4l-414 -4q1 32 1 112.5t-1 114.5h51q62 0 91.5 28t33.5 93q5 72 5 376t-5 370q-4 57 -25 78.5t-71 21.5h-80q4 114 0 223q16 0 223.5 -2t227.5 -2q48 0 162.5 1
t156.5 1q283 0 439.5 -113t156.5 -342q0 -235 -153.5 -355t-438.5 -120zM657 1130q-6 -86 -6 -468h68q136 0 186.5 63t50.5 217q0 140 -44.5 197t-151.5 57h-37q-63 0 -66 -66z" />
    <glyph glyph-name="Q" unicode="Q" horiz-adv-x="1615" 
d="M809 -35q-370 0 -555.5 177t-185.5 563q0 189 52.5 331.5t150 232.5t232.5 134.5t306 44.5q374 0 556.5 -178t182.5 -563q0 -473 -323 -650q27 -158 56 -212t83 -54q99 0 96 195l84 4q4 -84 -9.5 -147t-49.5 -114t-104.5 -77.5t-168.5 -26.5q-149 0 -237 87t-84 255
q-27 -2 -82 -2zM874 498q100 0 168 -41q15 102 15 250t-11 242t-40 156.5t-76 88t-121 25.5q-139 0 -194.5 -115.5t-55.5 -398.5q0 -209 26 -322t89 -156q-17 34 -17 78q0 87 59.5 140t157.5 53zM719 301q0 -49 26.5 -77.5t77.5 -28.5q58 0 105 26q12 187 -105 187
q-42 0 -73 -27.5t-31 -79.5z" />
    <glyph glyph-name="R" unicode="R" horiz-adv-x="1654" 
d="M1372 371q18 -116 38 -154.5t58 -38.5q40 0 50.5 61t-13.5 171q35 -3 105 6q18 -76 19.5 -142.5t-17.5 -126.5t-58.5 -103t-108.5 -68t-163 -25q-105 0 -175.5 24t-111 75t-58.5 116t-24 162q-5 86 -21.5 141.5t-48 85t-70 40.5t-97.5 11h-25q0 -206 6 -262q4 -65 33 -94
t84 -29h57v-225q-289 4 -391 4l-395 -4q1 32 1 112.5t-1 114.5h64q56 0 82 27.5t30 93.5q5 71 5 366.5t-5 364.5q-5 62 -27 88.5t-77 26.5h-72q4 114 0 223q8 0 188 -2t238 -2q37 0 200 1t259 1q250 0 384 -98.5t134 -284.5q0 -146 -96 -241.5t-267 -112.5
q136 -20 201.5 -97t85.5 -206zM657 1114q-2 -23 -6 -348h94q122 0 172 49.5t50 167.5q0 110 -40.5 161.5t-140.5 51.5h-49q-77 0 -80 -82z" />
    <glyph glyph-name="S" unicode="S" horiz-adv-x="1421" 
d="M721 1231q-141 0 -205.5 -37.5t-64.5 -97.5q0 -67 65.5 -94t253.5 -41q111 -8 199.5 -27t167.5 -55.5t131.5 -90t83 -133.5t30.5 -182q0 -248 -155 -378t-449 -130q-130 0 -221.5 24.5t-185.5 71.5q-57 28 -84.5 9t-36.5 -82q-22 3 -91 3t-89 -3q28 281 16 477
q23 -3 86 -3t86 3q103 -287 514 -287q137 0 206 39t69 107q0 69 -80 100t-285 49q-297 20 -437.5 138t-140.5 333q0 224 146 364t416 140q204 0 364 -82q34 -17 54.5 -22t32.5 6t17 24.5t11 44.5q20 -1 84 -1t84 1q-12 -82 -16 -209.5t1 -218.5q-25 2 -86 2.5t-86 -0.5
q-87 238 -405 238z" />
    <glyph glyph-name="T" unicode="T" horiz-adv-x="1517" 
d="M1055 1178h-82q-3 -169 -2.5 -465t4.5 -355q3 -65 33 -100t98 -35h68v-227q-264 4 -416 4l-416 -4q2 32 2 112.5t-2 114.5h66q68 0 100 34.5t37 100.5q3 66 4 356t-2 464h-84q-84 0 -121.5 -48.5t-42.5 -142.5l-8 -170q-35 3 -118 3t-118 -3q4 111 1 301t-11 301
q120 -8 401 -8h625q303 0 399 8q-8 -111 -11 -301t1 -301q-35 3 -116.5 3t-116.5 -3l-8 170q-5 94 -42.5 142.5t-121.5 48.5z" />
    <glyph glyph-name="U" unicode="U" horiz-adv-x="1669" 
d="M203 532q0 34 2 149t2.5 193t-2.5 185q-3 70 -30.5 100.5t-84.5 30.5h-45q1 34 1 112.5t-1 110.5q258 -4 401 -4q85 0 247 2t165 2v-223h-70q-60 0 -91.5 -31t-32.5 -100q-8 -293 0 -510q4 -180 64.5 -256t191.5 -76t192.5 75.5t65.5 256.5q8 306 0 510q-6 131 -119 131
h-68q1 34 1 112.5t-1 110.5q195 -4 312 -4q69 0 192 2t129 2v-223h-47q-57 0 -84.5 -31.5t-30.5 -99.5q-2 -81 -2 -169.5t1 -192t1 -156.5q0 -308 -155.5 -449t-452.5 -141q-339 0 -495 139.5t-156 441.5z" />
    <glyph glyph-name="V" unicode="V" horiz-adv-x="1683" 
d="M756 1006q71 -277 182 -611q48 136 108.5 326.5t81.5 282.5q26 89 10 137.5t-87 48.5h-45v223q208 -4 325 -4q68 0 190 2t128 2q-1 -32 -1 -110.5t1 -112.5h-50q-86 0 -131.5 -32.5t-83.5 -131.5q-57 -141 -167.5 -478.5t-172.5 -559.5q-70 2 -228 2t-230 -2
q-51 196 -160 555t-156 489q-32 90 -70.5 124t-121.5 34h-43v223q272 -4 424 -4q92 0 259 2l167 2v-223h-51q-61 0 -80.5 -41.5t2.5 -142.5z" />
    <glyph glyph-name="W" unicode="W" horiz-adv-x="2369" 
d="M1798 -12q-71 2 -229.5 2t-229.5 -2q-35 155 -186 702q-41 -144 -111 -398t-81 -304q-65 2 -209 2t-207 -2q-53 221 -151 587t-134 480q-23 72 -59.5 103.5t-110.5 31.5h-55v223q268 -4 422 -4q67 0 165 1t172 2t83 1v-223h-50q-59 0 -75.5 -31.5t-1.5 -103.5
q17 -83 75.5 -301t96.5 -348q40 136 98 352t74 297q12 75 -4.5 105t-79.5 30h-33q1 34 1 112.5t-1 110.5q219 -4 344 -4q73 0 206.5 2t137.5 2q-1 -32 -1 -110.5t1 -112.5h-47q-56 0 -72.5 -29.5t-1.5 -101.5q19 -88 78.5 -312t95.5 -346q36 127 92 348.5t70 299.5
q7 45 7 76.5t-21 48t-68 16.5h-39q1 34 1 112.5t-1 110.5q187 -4 291 -4q60 0 169 2t116 2q-1 -32 -1 -110.5t1 -112.5h-60q-77 0 -118 -29.5t-68 -113.5q-46 -144 -291 -1059z" />
    <glyph glyph-name="X" unicode="X" horiz-adv-x="1691" 
d="M760 420q-37 67 -88 149l-94 -145q-26 -41 -39.5 -75t-13.5 -57t9 -39t23.5 -23t32.5 -7h39v-227q-189 4 -293 4l-291 -4q1 32 1 112.5t-1 114.5h41q74 0 129.5 15.5t102.5 53t82.5 81.5t84.5 119l121 186q-108 176 -221 350q-60 93 -122 127.5t-157 34.5h-45
q1 34 1 112.5t-1 110.5q6 0 195 -2t289 -2l467 4v-223h-25q-59 0 -70 -48.5t33 -133.5q18 -34 107 -187l98 183q46 92 33.5 139t-62.5 47h-30q2 34 2 112.5t-2 110.5q172 -4 266 -4l264 4q-2 -32 -2 -110.5t2 -112.5h-35q-57 0 -101 -9.5t-73.5 -23.5t-56 -43t-43 -54.5
t-41.5 -70.5l-152 -278q95 -153 219 -344q53 -78 106 -111t138 -33h60q-1 -34 -1 -114.5t1 -112.5q-301 4 -471 4l-467 -4q1 32 1 112.5t-1 114.5h41q18 0 30.5 6.5t20 21.5t6.5 37.5t-12.5 56.5t-34.5 75z" />
    <glyph glyph-name="Y" unicode="Y" horiz-adv-x="1753" 
d="M1389 1034q-44 -79 -140.5 -267.5t-140.5 -283.5v-145q0 -60 25.5 -88.5t95.5 -28.5h82q-4 -114 0 -225q-289 4 -451 4l-454 -4q2 32 2 112.5t-2 112.5h86q69 0 88.5 27.5t19.5 89.5v147q-210 428 -295 578q-38 68 -93 97.5t-144 29.5h-33q2 47 2 103t-1 88l-1 32
q301 -4 471 -4l469 4q-2 -112 0 -223h-51q-139 0 -60 -191q52 -125 154 -301q73 135 145 301q82 191 -51 191h-43q2 49 2 105t-1 87l-1 31q209 -4 326 -4l325 4q-4 -121 0 -223h-37q-69 0 -116.5 -9.5t-80.5 -32.5t-52.5 -47.5t-44.5 -66.5z" />
    <glyph glyph-name="Z" unicode="Z" horiz-adv-x="1392" 
d="M45 0q1 31 1 103.5t-1 103.5q268 344 739 983h-163q-105 0 -167 -14.5t-103 -56.5t-55.5 -112t-14.5 -188q-29 1 -101.5 1t-101.5 -1q4 100 4.5 300t-2.5 298q357 -6 442 -6h807q-1 -31 -1 -103.5t1 -103.5q-270 -347 -731 -981h205q86 0 146 18t105.5 62t67 123
t21.5 197q31 -1 102.5 -1t100.5 1q-10 -377 0 -629q-320 6 -410 6h-891z" />
    <glyph glyph-name="bracketleft" unicode="[" horiz-adv-x="641" 
d="M115 301v748q0 145 -10.5 338.5t-16.5 250.5q238 -8 479 0q-1 -28 -1 -86t1 -84h-49q-56 0 -79.5 -22t-26.5 -78q-3 -57 -3 -740.5t3 -740.5q3 -58 27 -79t93 -21h35q-1 -26 -1 -84t1 -86q-241 8 -479 0q5 47 16 290.5t11 393.5z" />
    <glyph glyph-name="backslash" unicode="\" horiz-adv-x="774" 
d="M504 -358q-74 308 -226.5 871t-252.5 900q43 -3 122.5 -3t122.5 3q74 -312 228 -875.5t254 -895.5q-26 3 -124 3t-124 -3z" />
    <glyph glyph-name="bracketright" unicode="]" horiz-adv-x="641" 
d="M532 1042v-821q0 -134 11.5 -335.5t17.5 -268.5q-71 1 -239 1t-240 -1v170h33q69 0 93.5 21t27.5 79q2 40 2 740.5t-2 740.5q-3 56 -27 78t-80 22h-47v170q72 -2 240.5 -2t238.5 2q-6 -57 -17.5 -259.5t-11.5 -336.5z" />
    <glyph glyph-name="asciicircum" unicode="^" 
d="M590 1454h37q56 -59 201.5 -267.5t203.5 -303.5l-147 -76q-56 106 -277 541q-40 -72 -145.5 -283.5t-132.5 -257.5l-146 76q75 120 211.5 316t194.5 255z" />
    <glyph glyph-name="underscore" unicode="_" horiz-adv-x="1024" 
d="M0 -375q2 31 2 105t-2 106q163 -3 512 -3t512 3q-2 -32 -2 -105.5t2 -105.5q-163 3 -512 3t-512 -3z" />
    <glyph glyph-name="grave" unicode="`" horiz-adv-x="1089" 
d="M791 1126l-17 -24q-82 11 -182 44t-170 75q-40 25 -59 59.5t-12.5 63.5t28 50.5t61.5 20.5t88 -26q67 -38 139.5 -112.5t123.5 -150.5z" />
    <glyph glyph-name="a" unicode="a" horiz-adv-x="1157" 
d="M965 575v-260q0 -84 6 -110.5t30 -26.5q58 0 37 225l82 3q12 -97 2.5 -177.5t-37.5 -138.5t-86.5 -90.5t-144.5 -32.5q-198 0 -252 146q-95 -146 -297 -146q-123 0 -197.5 60.5t-74.5 177.5q0 70 29.5 125t79.5 91t121.5 60.5t148.5 36t168 14.5v93q0 128 -49.5 175.5
t-176.5 45.5q74 -39 74 -127q0 -72 -47 -112t-131 -40q-78 0 -123 41t-45 119q0 84 61.5 146.5t159.5 93t217 30.5q126 0 212.5 -26t137.5 -81t73 -131t22 -184zM582 213q-2 16 -2 74v170q-79 -6 -118.5 -42t-39.5 -114q0 -69 21.5 -95t62.5 -26q52 0 76 33z" />
    <glyph glyph-name="b" unicode="b" horiz-adv-x="1212" 
d="M807 -35q-120 0 -207 57t-125 181q-81 -91 -90 -211q-41 2 -133 2t-135 -2q14 125 22 360q4 129 4 378t-8 400q-3 57 -18 78t-56 21h-36v184q421 0 501 6q-4 -219 -4 -534v-117q56 229 293 229q86 0 149.5 -27.5t110 -88t69.5 -163t23 -247.5q0 -270 -90.5 -388
t-269.5 -118zM522 481q1 -174 30.5 -240.5t96.5 -66.5q46 0 71 21.5t39.5 89.5t14.5 196q0 177 -22.5 242t-94.5 65q-74 0 -104.5 -66t-30.5 -241z" />
    <glyph glyph-name="c" unicode="c" horiz-adv-x="1036" 
d="M707 348q206 -13 292 -8q-6 -188 -129.5 -281.5t-324.5 -93.5q-506 0 -506 496q0 255 136.5 395.5t391.5 140.5q193 0 303.5 -76.5t110.5 -213.5q0 -86 -52 -135.5t-145 -49.5q-87 0 -134.5 42t-47.5 116q0 96 78 139q-34 12 -78 12q-85 0 -126.5 -73t-41.5 -250
q0 -184 29 -258t102 -74q72 0 103 42t39 130z" />
    <glyph glyph-name="d" unicode="d" horiz-adv-x="1216" 
d="M403 995q227 0 287 -219v348q0 56 -21 81.5t-65 25.5h-47q4 91 0 182q292 0 518 4q-3 -198 -3 -590t3 -546q2 -51 22 -74t64 -23h31v-184q-276 0 -502 -4v209q-31 -117 -105 -178.5t-184 -61.5q-69 0 -122.5 15.5t-98 52.5t-74 97t-45.5 150.5t-16 211.5q0 268 93 385.5
t265 117.5zM690 492q0 121 -13 185.5t-39 87.5t-73 23q-50 0 -75.5 -23.5t-37.5 -86.5t-12 -186q0 -179 22.5 -248.5t94.5 -69.5q68 0 99 64.5t34 218.5v35z" />
    <glyph glyph-name="e" unicode="e" horiz-adv-x="1050" 
d="M713 346q177 -12 288 -8q-6 -175 -120 -275t-340 -100q-239 0 -370.5 123t-131.5 375q0 257 135 396.5t373 139.5q129 0 223 -40.5t147.5 -116.5t75.5 -179t13 -235q-56 1 -184.5 1t-262.5 -0.5t-135 -0.5q6 -138 39.5 -195t107.5 -57q69 0 101.5 41t40.5 131zM535 797
q-57 0 -83.5 -58.5t-27.5 -222.5h145q34 0 48 13.5t14 62.5q0 113 -23.5 159t-72.5 46z" />
    <glyph glyph-name="f" unicode="f" horiz-adv-x="706" 
d="M31 969l108 -4v4q-8 228 89.5 344.5t318.5 116.5q153 0 240 -63.5t87 -170.5q0 -74 -40 -111.5t-113 -37.5q-67 0 -105 34.5t-38 96.5q0 65 43 100.5t114 32.5q-36 12 -76 12q-103 0 -141 -76t-8 -246l6 -36l133 4q-1 -28 -1 -92.5t1 -92.5l-129 4q-8 -377 4 -518
q6 -86 80 -86h37q-1 -16 -1 -53.5t0.5 -81.5t0.5 -53q-1 0 -55.5 1t-128.5 2t-123 1q-32 0 -74.5 -0.5t-81.5 -1t-73.5 -1t-56.5 -1t-23 -0.5q1 28 1 94t-1 94h36q39 0 57 21t21 65q7 69 2 518l-110 -4q1 28 1 92.5t-1 92.5z" />
    <glyph glyph-name="g" unicode="g" horiz-adv-x="1073" 
d="M498 997q84 0 159 -16q20 84 75 136t140 52q83 0 129 -39t46 -110q0 -59 -29.5 -91t-83.5 -32q-53 0 -82 27.5t-29 76.5q0 37 19 62q-87 -19 -121 -98q235 -78 235 -334q0 -179 -122 -276t-336 -97q-98 0 -174 18q-62 -10 -62 -43q0 -29 63 -37t265 -10q112 -1 194 -13.5
t133 -33.5t81 -55.5t41.5 -73.5t11.5 -92q0 -68 -32.5 -126.5t-97.5 -105t-172.5 -73.5t-246.5 -27q-135 0 -230 14.5t-149.5 42.5t-78.5 64.5t-24 85.5q0 94 121 137q-90 53 -90 160q0 93 53.5 145.5t141.5 67.5q-97 43 -149 126.5t-52 201.5q0 177 121.5 271.5t331.5 94.5
zM498 -131q-160 3 -250 25q-66 -27 -66 -72q0 -98 316 -98q90 0 162.5 9.5t115 25t64.5 33.5t22 36q0 28 -51.5 34.5t-204.5 6.5h-108zM502 834q-56 0 -75 -42t-19 -163q0 -119 21.5 -163t72.5 -44q56 0 74 42t18 165t-18.5 164t-73.5 41z" />
    <glyph glyph-name="h" unicode="h" horiz-adv-x="1296" 
d="M1163 625q-1 -37 -1 -171t1 -159q3 -61 22 -86t68 -25h17q-2 -34 -2 -97t2 -91q-2 0 -54.5 1t-124 2t-118.5 1q-29 0 -69.5 -0.5t-78.5 -1t-71 -1t-54 -1t-22 -0.5v188h18q42 0 59.5 24.5t20.5 86.5q5 99 0 326q-3 86 -27.5 126.5t-86.5 40.5q-134 0 -134 -217v-282
q0 -58 17.5 -81.5t64.5 -23.5h19q-2 -94 0 -188q-1 0 -54.5 1t-126 2t-120.5 1q-30 0 -72 -0.5t-80.5 -1t-72 -1t-55.5 -1t-23 -0.5q1 28 1 92t-1 96h24q52 0 69.5 21t22.5 82q5 52 5 416.5t-5 418.5q-5 61 -22 84t-70 23h-18v184q426 0 506 6q-9 -189 -9 -563v-80
q66 221 316 221q158 0 238.5 -97.5t80.5 -274.5z" />
    <glyph glyph-name="i" unicode="i" horiz-adv-x="669" 
d="M528 973q-3 -79 -4 -350.5t2 -333.5q3 -60 24.5 -82.5t74.5 -22.5h20q-1 -34 -1 -97t1 -91q-1 0 -56 1t-129.5 2t-123.5 1q-32 0 -75 -0.5t-82 -1t-74 -1t-57 -1t-23 -0.5q1 28 1 92t-1 96h20q54 0 72.5 21.5t21.5 81.5q3 63 4 202t-2 197q-3 57 -22.5 77.5t-71.5 20.5
h-22q4 93 0 185q281 0 503 4zM537 1272q0 -98 -56 -154.5t-153 -56.5t-152 56.5t-55 154.5q0 97 55 153t152 56t153 -56t56 -153z" />
    <glyph glyph-name="j" unicode="j" horiz-adv-x="647" 
d="M129 -178q0 -64 -48 -102t-120 -25q39 -27 90 -27q70 0 107 47t41 150q4 108 4.5 445.5t-2.5 379.5q-6 94 -88 94h-23v185q424 0 504 6q-6 -102 -6 -352v-584q0 -221 -110 -335t-318 -114q-147 0 -231.5 54t-84.5 153q0 74 39.5 114t112.5 40q63 0 98 -34t35 -95z
M598 1272q0 -98 -55.5 -154.5t-153.5 -56.5q-95 0 -150 56.5t-55 154.5q0 97 55 153t150 56q98 0 153.5 -56t55.5 -153z" />
    <glyph glyph-name="k" unicode="k" horiz-adv-x="1325" 
d="M528 1419q-4 -160 -4 -878l191 135q56 40 49.5 74t-70.5 34h-28q2 28 2 94.5t-2 94.5q198 -6 309 -6q50 0 123.5 1.5t128.5 3t59 1.5q-2 -28 -2 -94.5t2 -94.5h-47q-88 0 -146 -18t-137 -70l-41 -26q183 -330 222 -383q40 -57 72.5 -81t74.5 -24h14q-2 -32 -2 -95t2 -91
q-1 0 -57.5 1t-134 2t-129.5 1q-32 0 -76.5 -0.5t-85.5 -1t-77 -1t-59 -1t-24 -0.5q1 28 1 92t-1 96h19q39 0 46 30.5t-18 76.5q-53 96 -106 178l-70 -45q0 -92 2 -129q3 -60 20.5 -85.5t53.5 -25.5h19q-2 -94 0 -188q-1 0 -53.5 1t-124 2t-119.5 1q-30 0 -71.5 -0.5
t-79.5 -1t-71 -1t-54.5 -1t-22.5 -0.5q1 28 1 92t-1 96h20q53 0 73 24t23 87q3 66 3.5 414t-3.5 409q-5 62 -22 87.5t-68 25.5h-20q2 39 2 84.5t-1 71.5l-1 26q417 0 497 6z" />
    <glyph glyph-name="l" unicode="l" horiz-adv-x="663" 
d="M526 1417q-3 -151 -3 -606t3 -516q3 -62 24 -86.5t73 -24.5h20q-1 -34 -1 -97t1 -91q-1 0 -56 1t-129.5 2t-123.5 1q-31 0 -74 -0.5t-82.5 -1t-74 -1t-57 -1t-23.5 -0.5q3 28 3 92t-3 96h22q52 0 71.5 24t22.5 87q3 60 3 416.5t-3 408.5q-3 58 -22 84.5t-70 26.5h-18
q4 91 0 182q337 0 497 4z" />
    <glyph glyph-name="m" unicode="m" horiz-adv-x="1939" 
d="M1798 625v-330q0 -61 20.5 -86t75.5 -25h21q-1 -34 -1 -97t1 -91q-1 0 -54.5 1t-126 2t-120.5 1q-30 0 -72 -0.5t-80.5 -1t-72 -1t-54.5 -1t-22 -0.5q2 44 2 91t-1 72l-1 25h18q42 0 59.5 26t20.5 85q8 151 0 326q-3 86 -27.5 126.5t-87.5 40.5q-133 0 -133 -219v-274
q0 -61 18 -86t64 -25h19q-2 -34 -2 -97t2 -91q-1 0 -53 1t-122.5 2t-117.5 1q-29 0 -69.5 -0.5t-78 -1t-70 -1t-53.5 -1t-22 -0.5q2 28 2 92t-2 96h18q41 0 59 24t21 87q7 161 0 326q-3 86 -27.5 126.5t-86.5 40.5q-63 0 -98.5 -50t-35.5 -140v-303q0 -63 18 -87t62 -24h21
q-1 -34 -1 -97t1 -91q-1 0 -54.5 1t-126 2t-120.5 1q-30 0 -72 -0.5t-80.5 -1t-72 -1t-55.5 -1t-23 -0.5q1 28 1 92t-1 96h20q54 0 72.5 22.5t23.5 88.5q5 63 5 198.5t-5 186.5q-5 57 -23 80.5t-71 23.5h-16q2 41 2 87t-1 72l-1 26q415 0 497 6v-195q68 217 316 217
q258 0 307 -243q61 243 328 243q319 0 319 -372z" />
    <glyph glyph-name="n" unicode="n" horiz-adv-x="1304" 
d="M1163 625q-1 -37 -1 -171t1 -159q5 -65 24 -88t73 -23h16q-2 -34 -2 -97t2 -91q-2 0 -55 1t-125 2t-119 1q-30 0 -72 -0.5t-80 -1t-71 -1t-54 -1t-22 -0.5v188h18q40 0 58.5 25.5t21.5 85.5q8 150 0 326q-3 86 -27.5 126.5t-86.5 40.5q-71 0 -102.5 -57t-31.5 -178v-258
q0 -63 18 -87t62 -24h21q-1 -34 -1 -97t1 -91q-1 0 -54.5 1t-126 2t-120.5 1q-30 0 -72 -0.5t-80.5 -1t-72 -1t-55.5 -1t-23 -0.5q1 28 1 94t-1 94h20q54 0 72.5 22.5t23.5 88.5t5 200.5t-5 184.5q-5 57 -23 80.5t-71 23.5h-16q2 39 2 85.5t-1 72.5l-1 27q415 0 497 6v-203
q68 225 316 225q319 0 319 -372z" />
    <glyph glyph-name="o" unicode="o" horiz-adv-x="1122" 
d="M51 473q0 262 134.5 393t375.5 131q249 0 379.5 -130t130.5 -396q0 -508 -510 -508t-510 510zM440 471q0 -128 15 -196t39 -87.5t67 -19.5q42 0 66 19.5t39.5 88t15.5 195.5q0 132 -15 205.5t-40 98t-68 24.5q-42 0 -66.5 -24.5t-38.5 -97.5t-14 -206z" />
    <glyph glyph-name="p" unicode="p" horiz-adv-x="1218" 
d="M823 -35q-232 0 -295 205v-231q0 -111 95 -111h24q-1 -28 -1 -93t1 -93q-2 0 -57 1t-129.5 2t-124.5 1q-31 0 -74 -0.5t-82.5 -1t-74 -1t-57 -1t-23.5 -0.5q1 28 1 93t-1 93h20q51 0 71 25t25 86q5 60 5 372.5t-5 368.5q-5 57 -25 80.5t-69 23.5h-16q2 41 2 87t-1 72
l-1 26q417 0 497 6v-203q60 225 291 225q118 0 194.5 -50t118.5 -168t42 -308q0 -506 -351 -506zM528 481q0 -170 29.5 -238.5t97.5 -68.5q45 0 70 22t39 90t14 195q0 179 -21.5 243t-94.5 64q-70 0 -100.5 -59t-33.5 -213v-35z" />
    <glyph glyph-name="q" unicode="q" horiz-adv-x="1214" 
d="M446 997q123 0 204.5 -39.5t127.5 -128.5q63 82 80 179q38 -2 120 -2t120 2q-23 -176 -23 -424v-641q2 -58 21 -86.5t67 -28.5h33q-2 -34 -2 -96t2 -90q-1 0 -58.5 1t-136 2t-131.5 1q-33 0 -78 -0.5t-86 -1t-77 -1t-59.5 -1t-24.5 -0.5q1 28 1 91t-1 95h39q52 0 78 30
t26 85v256q-62 -234 -301 -234q-178 0 -260 117t-82 395q0 520 401 520zM688 477q0 178 -27 244.5t-100 66.5q-50 0 -75 -25.5t-35.5 -90.5t-10.5 -195q0 -169 23 -236t92 -67q72 0 102.5 66t30.5 237z" />
    <glyph glyph-name="r" unicode="r" horiz-adv-x="980" 
d="M719 877q-91 0 -140 -69t-49 -200v-329q0 -56 20.5 -75.5t84.5 -19.5h33q-4 -92 0 -188q-1 0 -58 1t-134 2t-128 1t-129 -1t-135 -2l-57 -1q1 28 1 92t-1 96h22q53 0 73.5 21t20.5 74q1 59 1 218t-1 191q-3 53 -22.5 74.5t-69.5 21.5h-18q4 93 0 185q243 -5 428 4
l-12 -234q22 121 93.5 189.5t186.5 68.5q112 0 173 -60t61 -169q0 -95 -46.5 -146t-132.5 -51q-76 0 -118.5 37t-42.5 103q0 73 51.5 113.5t122.5 35.5q-39 17 -78 17z" />
    <glyph glyph-name="s" unicode="s" horiz-adv-x="1026" 
d="M514 836q-84 0 -120 -22t-36 -56q0 -28 18.5 -44t72.5 -28t161 -22q379 -34 379 -353q0 -163 -103.5 -255.5t-312.5 -92.5q-160 0 -294 80q-28 17 -48.5 20.5t-32.5 -5.5t-19 -24t-11 -38q-67 8 -129 0q25 177 20 319q64 -8 129 0q48 -90 135.5 -144t202.5 -54
q154 0 154 84q0 25 -14 40t-62 27t-137 19q-213 17 -312.5 110.5t-99.5 247.5q0 157 117.5 255t316.5 97q128 -3 224 -61q28 -16 45.5 -20t28 4.5t15.5 20t11 36.5q59 -4 123 0q-18 -140 -21 -289q-66 4 -133 0q-80 148 -268 148z" />
    <glyph glyph-name="t" unicode="t" horiz-adv-x="745" 
d="M621 395h98q12 -101 1.5 -180.5t-43.5 -134.5t-99 -84t-166 -29q-153 0 -231.5 82.5t-78.5 239.5q0 68 4.5 247.5t4.5 251.5h-88q1 22 1 75.5t-1 76.5q145 1 233.5 104t116.5 271q23 -1 77.5 -1t77.5 1q-14 -112 -18 -350l203 8q-1 -28 -1 -94.5t1 -94.5l-203 2v-415
q0 -117 12.5 -157t42.5 -40q28 -1 43 28t17 78.5t-4 114.5z" />
    <glyph glyph-name="u" unicode="u" horiz-adv-x="1259" 
d="M1147 975q-1 -12 -8 -330q0 -307 2 -340q4 -67 22 -94t54 -27h20q-1 -28 -1 -92t1 -92q-403 0 -483 -4v199q-31 -109 -107.5 -170.5t-202.5 -61.5q-157 0 -241 93.5t-84 281.5v309q0 72 -17 104.5t-61 32.5h-21q2 28 2 94.5t-2 94.5q176 -4 242 -4q208 0 250 6
q-8 -156 -8 -338q0 -205 2 -258q5 -205 112 -205q80 0 108 81.5t28 274.5v140q0 63 -25 88.5t-96 25.5h-15q2 28 2 94.5t-2 94.5q199 -4 271 -4q216 0 258 6z" />
    <glyph glyph-name="v" unicode="v" horiz-adv-x="1179" 
d="M1165 784h-20q-40 0 -61.5 -4.5t-44.5 -22.5t-41.5 -53t-41.5 -98q-146 -389 -215 -626q-57 2 -175 2t-175 -2q-72 246 -209 630q-40 109 -56 133q-25 38 -78 41h-15h-19q2 28 2 94.5t-2 94.5q191 -4 285 -4l340 4q-1 -28 -1 -94.5t1 -94.5h-27q-83 0 -59 -114
q17 -89 109 -408q90 286 122 408q26 114 -61 114h-29q2 28 2 94.5t-2 94.5q170 -4 242 -4l229 4q-1 -28 -1 -94.5t1 -94.5z" />
    <glyph glyph-name="w" unicode="w" horiz-adv-x="1783" 
d="M977 -20q-74 305 -143 550q-105 -345 -158 -550q-50 2 -154 2t-153 -2q-160 550 -185 630q-33 110 -58.5 142t-84.5 32h-16q2 41 2 88t-1 74l-1 27q200 -6 311 -6l309 6q-1 -28 -1 -94.5t1 -94.5h-14q-40 0 -55.5 -25t-4.5 -85q11 -56 44.5 -190t58.5 -222
q96 310 112 406q11 62 -3 89t-66 27h-17v189q175 -6 275 -6l278 6q-1 -28 -1 -94.5t1 -94.5h-18q-76 0 -57 -106q33 -168 102 -426q80 291 104 416q14 56 2 86t-57 30h-22q1 28 1 94.5t-1 94.5q147 -6 227 -6l225 6q-4 -95 0 -189h-30q-72 0 -106 -33.5t-73 -148.5
q-143 -427 -202 -622q-60 2 -185.5 2t-185.5 -2z" />
    <glyph glyph-name="x" unicode="x" horiz-adv-x="1261" 
d="M547 303q-31 49 -68 100l-78 -106q-34 -49 -21 -81t62 -32h17q-1 -28 -1 -94t1 -94q-141 4 -215 4l-219 -4q2 41 2 88t-1 74l-1 26h43q85 0 133.5 29.5t117.5 116.5l113 139q-103 148 -149 209q-48 64 -84 85t-117 21h-37v189q236 -4 369 -4l377 4q-1 -28 -1 -94.5
t1 -94.5h-19q-42 0 -53 -30t22 -88q19 -34 74 -109l86 109q35 46 23.5 82t-62.5 36h-22q2 28 2 94.5t-2 94.5q118 -4 184 -4l195 4q-1 -28 -1 -94.5t1 -94.5h-39q-57 0 -87.5 -23t-107.5 -116l-125 -151q74 -107 150 -207q77 -103 202 -103h25q-2 -94 0 -188q-234 4 -365 4
l-366 -4q2 28 2 94t-2 94h22q39 0 46 28t-27 91z" />
    <glyph glyph-name="y" unicode="y" horiz-adv-x="1206" 
d="M809 678q28 106 -59 106h-29q1 28 1 94.5t-1 94.5q141 -6 235 -6l226 6v-189h-33q-61 0 -93.5 -26t-54.5 -82q-88 -216 -210 -604q-44 -139 -94.5 -231.5t-109.5 -142.5t-120 -69.5t-141 -19.5q-122 0 -188 55t-66 150q0 83 50.5 133.5t137.5 50.5q79 0 121.5 -39
t42.5 -111q0 -81 -73.5 -122.5t-164.5 -6.5q47 -34 113 -34q55 0 96.5 16t71.5 42.5t56.5 77.5t45.5 103t45 137q-124 3 -254 -2q-31 118 -97.5 328.5t-96.5 288.5q-23 61 -45.5 84.5t-75.5 23.5h-27q2 40 2 87t-1 75l-1 27q195 -6 324 -6l324 6q-4 -95 0 -189h-25
q-43 0 -59 -27.5t-4 -78.5q26 -120 110 -385q111 345 121 385z" />
    <glyph glyph-name="z" unicode="z" horiz-adv-x="995" 
d="M592 0h-563q1 28 1 88t-1 88q205 275 460 658h-69q-120 0 -177 -58t-67 -211q-20 1 -66 1t-65 -1q12 219 2 414q76 -6 373 -6h526q-2 -28 -2 -89t2 -89q-238 -323 -467 -662h113q49 0 89.5 14.5t75 45.5t56 87.5t25.5 133.5q20 -3 66 -3t65 3q-9 -84 -11.5 -208.5
t3.5 -211.5q-193 6 -369 6z" />
    <glyph glyph-name="braceleft" unicode="{" horiz-adv-x="643" 
d="M66 582v92h26q43 0 70 15t35 49.5t11 63t-10.5 85.5t-21 84t-26.5 89q-5 16 -7 23q-83 267 32 401.5t398 139.5l5 -111q-44 -4 -72.5 -16t-50.5 -39.5t-30.5 -74t-6.5 -118t16 -173.5q13 -90 17 -150t-4 -121.5t-33 -98.5t-74.5 -62.5t-124.5 -30.5q53 -6 93.5 -21
t67 -35t43 -52.5t24 -63.5t8 -78t-2.5 -86.5t-10 -97.5q-17 -152 -16.5 -251t36.5 -148t120 -54l-5 -111q-66 1 -120.5 7.5t-111 23t-98 42t-75 67.5t-47.5 96.5t-9.5 132t31.5 172.5q50 177 55 201q31 144 -23 186q-29 23 -83 23h-26z" />
    <glyph glyph-name="bar" unicode="|" horiz-adv-x="614" 
d="M287 -244q0 21 20 21q9 0 15 -6t6 -15q0 -20 -21 -20q-20 0 -20 20zM274 -88q0 14 10 23.5t23 9.5t23 -9.5t10 -23.5t-10 -23.5t-23 -9.5t-23 9.5t-10 23.5zM264 68q0 17 13 30t30 13t30 -13t13 -30q0 -18 -12.5 -30.5t-30.5 -12.5t-30.5 12.5t-12.5 30.5zM254 223
q0 20 15.5 35.5t37.5 15.5t37.5 -15.5t15.5 -35.5q0 -22 -15.5 -37.5t-37.5 -15.5t-37.5 15.5t-15.5 37.5zM248 379q0 23 17 40t42 17t42.5 -17t17.5 -40q0 -25 -17.5 -42.5t-42.5 -17.5t-42 17.5t-17 42.5zM244 535q0 25 18.5 43t44.5 18t45 -18t19 -43q0 -26 -19 -45
t-45 -19t-44.5 19t-18.5 45zM244 690q0 26 18.5 45t44.5 19t45 -19t19 -45q0 -28 -18.5 -46.5t-45.5 -18.5q-26 0 -44.5 18.5t-18.5 46.5zM244 844q0 26 18.5 44.5t44.5 18.5t45 -18.5t19 -44.5q0 -25 -19 -43.5t-45 -18.5t-44.5 18.5t-18.5 43.5zM248 999q0 25 17 42.5
t42 17.5t42.5 -17.5t17.5 -42.5q0 -23 -17.5 -40t-42.5 -17t-42 17t-17 40zM254 1155q0 22 15.5 37.5t37.5 15.5t37.5 -15.5t15.5 -37.5q0 -20 -15.5 -35.5t-37.5 -15.5t-37.5 15.5t-15.5 35.5zM264 1311q0 18 12.5 30.5t30.5 12.5t30.5 -12.5t12.5 -30.5q0 -17 -13 -30
t-30 -13t-30 13t-13 30zM274 1466q0 14 10 23.5t23 9.5t23 -9.5t10 -23.5q0 -13 -9.5 -22.5t-23.5 -9.5t-23.5 9.5t-9.5 22.5zM287 1622q0 20 20 20q21 0 21 -20t-21 -20q-20 0 -20 20z" />
    <glyph glyph-name="braceright" unicode="}" horiz-adv-x="620" 
d="M561 674v-92h-29q-42 0 -69 -11.5t-36.5 -40.5t-13 -53.5t7.5 -76t19 -81t27 -93.5q11 -36 16 -54q27 -95 32.5 -172.5t-7.5 -132t-44.5 -96.5t-72 -67.5t-96 -42t-109.5 -23t-120 -7.5l-5 111q85 5 121.5 54t36.5 148t-18 251q-7 59 -9.5 98t-2 86t8 78t24 63.5t43 52.5
t67 35t94.5 21q-76 5 -125.5 30.5t-75 62.5t-33 98.5t-3.5 122t18 149.5q13 102 14.5 173.5t-7 118t-30.5 74t-50.5 39.5t-72.5 16l5 111q283 -5 391.5 -138.5t25.5 -402.5q-3 -9 -8 -27q-55 -176 -57 -250q-5 -132 114 -132h29z" />
    <glyph glyph-name="asciitilde" unicode="~" horiz-adv-x="1089" 
d="M838 1409l71 23q41 -113 15.5 -191t-91 -119t-153.5 -41q-82 0 -143 36t-111 112q-30 46 -50.5 64t-51.5 18q-28 0 -47.5 -17.5t-26.5 -57.5t16 -106l-69 -22q-42 118 -15 196t92 117t152 39q77 0 137.5 -34.5t114.5 -114.5q28 -45 51.5 -63.5t52.5 -18.5t48 18t24 58
t-16 104z" />
    <glyph glyph-name="exclamdown" unicode="&#xa1;" horiz-adv-x="610" 
d="M109 815q0 88 51 135t145 47q92 0 142.5 -48t50.5 -138q0 -89 -51 -137.5t-142 -48.5q-94 0 -145 49.5t-51 140.5zM276 483q0 54 33 54q35 0 35 -54q0 -89 6 -153.5t23 -120.5t31 -88.5t46 -99t52 -111.5q45 -111 39 -201.5t-68.5 -148.5t-163.5 -58q-98 0 -161 58
t-70 148.5t43 201.5q18 38 46.5 95.5t40 82.5t28.5 71.5t23.5 86t11.5 100t5 137.5z" />
    <glyph glyph-name="cent" unicode="&#xa2;" horiz-adv-x="1087" 
d="M569 700q-31 -187 -51 -327q41 -21 98 -21q66 0 132 27q-82 30 -82 129q0 65 44.5 101t120.5 36q78 0 122 -44t44 -126q0 -137 -114.5 -219t-317.5 -82q-50 0 -73 2l-33 -248l-99 17q25 106 54 243q-176 36 -271.5 160.5t-95.5 333.5q0 251 143.5 392.5t403.5 131.5
l33 246l98 -18q-24 -105 -53 -236q151 -20 233 -87t82 -171q0 -75 -45 -115.5t-125 -40.5q-72 0 -111.5 38t-39.5 102q0 67 49 104q-28 7 -78 10q-51 -236 -68 -338zM412 692q0 -192 51 -268q43 206 57 285q22 129 49 323q-79 -16 -118 -94.5t-39 -245.5z" />
    <glyph glyph-name="sterling" unicode="&#xa3;" horiz-adv-x="1210" 
d="M158 520q4 66 0 131q46 -6 131 -6q-69 92 -106.5 173t-37.5 188q0 194 143.5 313t366.5 119q213 0 321.5 -90.5t108.5 -233.5q0 -108 -52 -164.5t-146 -56.5q-71 0 -113.5 38t-42.5 101q0 57 38.5 95t104.5 38q35 0 62 -8q-47 88 -176 88q-101 0 -160 -65.5t-59 -192.5
q0 -28 4 -59t8.5 -54.5t15 -59.5t16.5 -54t20.5 -59t19.5 -56l227 6q-4 -65 0 -131l-193 6q21 -86 21 -151q0 -26 -4 -62q108 -32 194 -32q146 0 174 86l123 -19q17 -104 -8.5 -190t-101.5 -141.5t-193 -55.5q-167 0 -313 92q-103 -86 -260 -86q-121 0 -182.5 52.5
t-61.5 142.5q0 103 76 163t184 60q71 0 139 -10q-18 72 -71 153q-76 -2 -217 -8zM270 51q108 0 156 88q-87 62 -156 62q-55 0 -82.5 -20.5t-27.5 -55.5q0 -31 28.5 -52.5t81.5 -21.5z" />
    <glyph glyph-name="yen" unicode="&#xa5;" horiz-adv-x="1253" 
d="M158 840l131 -4q-31 92 -58 163q-43 114 -77.5 152.5t-102.5 38.5h-31q2 48 2 104t-1 88l-1 31q217 -4 342 -4l345 4q-4 -112 0 -223h-21q-50 0 -64 -41t9 -117q44 -146 112 -301q94 202 117 303q18 66 9 111t-60 45h-23q2 50 2 106t-1 86l-1 31q150 -4 230 -4l217 4
q-1 -32 -1 -110.5t1 -112.5h-23q-58 0 -92 -26.5t-67 -94.5q-60 -135 -101 -233l144 4q-2 -28 -2 -86t2 -86l-211 8l-43 -107l254 9q-4 -88 0 -175l-260 11v-76q0 -60 24.5 -88.5t91.5 -28.5h49q-6 -114 0 -223q-233 4 -374 4l-379 -4q2 34 2 111.5t-2 111.5h51
q68 0 87 27.5t19 89.5v76l-245 -11v175l215 -9l-33 107l-182 -8v172z" />
    <glyph glyph-name="brokenbar" unicode="&#xa6;" horiz-adv-x="614" 
d="M287 -244q0 21 20 21q9 0 15 -6t6 -15q0 -20 -21 -20q-20 0 -20 20zM274 -88q0 14 10 23.5t23 9.5t23 -9.5t10 -23.5t-10 -23.5t-23 -9.5t-23 9.5t-10 23.5zM264 68q0 17 13 30t30 13t30 -13t13 -30q0 -18 -12.5 -30.5t-30.5 -12.5t-30.5 12.5t-12.5 30.5zM254 223
q0 20 15.5 35.5t37.5 15.5t37.5 -15.5t15.5 -35.5q0 -22 -15.5 -37.5t-37.5 -15.5t-37.5 15.5t-15.5 37.5zM248 379q0 23 17 40t42 17t42.5 -17t17.5 -40q0 -25 -17.5 -42.5t-42.5 -17.5t-42 17.5t-17 42.5zM244 535q0 25 18.5 43t44.5 18t45 -18t19 -43q0 -26 -19 -45
t-45 -19t-44.5 19t-18.5 45zM244 844q0 26 18.5 44.5t44.5 18.5t45 -18.5t19 -44.5q0 -25 -19 -43.5t-45 -18.5t-44.5 18.5t-18.5 43.5zM248 999q0 25 17 42.5t42 17.5t42.5 -17.5t17.5 -42.5q0 -23 -17.5 -40t-42.5 -17t-42 17t-17 40zM254 1155q0 22 15.5 37.5t37.5 15.5
t37.5 -15.5t15.5 -37.5q0 -20 -15.5 -35.5t-37.5 -15.5t-37.5 15.5t-15.5 35.5zM264 1311q0 18 12.5 30.5t30.5 12.5t30.5 -12.5t12.5 -30.5q0 -17 -13 -30t-30 -13t-30 13t-13 30zM274 1466q0 14 10 23.5t23 9.5t23 -9.5t10 -23.5q0 -13 -9.5 -22.5t-23.5 -9.5t-23.5 9.5
t-9.5 22.5zM287 1622q0 20 20 20q21 0 21 -20t-21 -20q-20 0 -20 20z" />
    <glyph glyph-name="section" unicode="&#xa7;" horiz-adv-x="1769" 
d="M1133 1352l8 -25q-82 -77 -129.5 -162t-93.5 -262.5t-93 -492.5q-24 -160 -59.5 -287.5t-73 -212t-85 -146.5t-90 -95.5t-95 -53t-91 -24.5t-87.5 -5q-116 0 -181 67.5t-53 174.5q9 75 57 121.5t119 46.5q70 0 106 -35t27 -102q-7 -58 -56 -91.5t-130 -17.5
q33 -51 117 -51q39 0 67 10t55.5 40t48.5 82t43.5 138.5t43 207t43.5 290.5q25 182 75 328t106.5 237t131.5 159t136 101.5t133 59.5zM639 -311l-6 24q81 77 128 161.5t93.5 263.5t93.5 493q23 156 57 281t70.5 209.5t82 146.5t87 96.5t92 55t90 26.5t86.5 6
q134 0 196.5 -69.5t51.5 -172.5q-9 -75 -56.5 -120.5t-119.5 -45.5q-66 0 -103 35.5t-30 100.5q7 57 55.5 90.5t128.5 19.5q-33 51 -102 51q-62 0 -101 -24.5t-77.5 -105t-69 -232.5t-65.5 -406q-25 -183 -75 -329t-106.5 -237t-131.5 -159t-136 -101t-133 -58z" />
    <glyph glyph-name="dieresis" unicode="&#xa8;" horiz-adv-x="1093" 
d="M496 1247q0 -57 -35 -90t-90 -33q-54 0 -89.5 33t-35.5 90t35.5 91t89.5 34q55 0 90 -34t35 -91zM850 1247q0 -57 -35 -90t-90 -33q-54 0 -88.5 33t-34.5 90t34.5 91t88.5 34q55 0 90 -34t35 -91z" />
    <glyph glyph-name="copyright" unicode="&#xa9;" horiz-adv-x="1736" 
d="M868 -33q-361 0 -556 194t-195 544q0 347 199 543t552 196q357 0 554.5 -195.5t197.5 -543.5q0 -350 -195.5 -544t-556.5 -194zM868 82q297 0 453 165t156 458q0 292 -157.5 458t-451.5 166q-293 0 -450.5 -166t-157.5 -458t157 -457.5t451 -165.5zM838 1145
q125 0 219 -60q60 -42 73 31h115q-18 -168 -22 -305q-78 7 -156 0q-4 82 -45 127t-107 45q-78 0 -113.5 -58t-35.5 -214q0 -83 10 -138.5t29.5 -83.5t42 -38.5t53.5 -10.5q149 0 146 181q104 -4 204 0q3 -174 -88 -257t-291 -83q-213 0 -314 97t-101 333q0 211 101.5 322.5
t279.5 111.5z" />
    <glyph glyph-name="ordfeminine" unicode="&#xaa;" horiz-adv-x="1024" 
d="M111 395q4 118 0 236q89 -3 380.5 -3t382.5 3q-4 -118 0 -236q-91 3 -382.5 3t-380.5 -3zM770 1135v-189q0 -57 5 -75.5t22 -18.5q40 0 26 156l60 4q5 -71 -1 -123.5t-26 -94.5t-60 -63.5t-100 -21.5q-136 0 -172 104q-64 -104 -207 -104q-88 0 -140 42.5t-52 125.5
q0 212 385 227v63q0 95 -40.5 129.5t-139.5 26.5q67 -19 67 -88q0 -48 -33 -76.5t-90 -28.5q-53 0 -83.5 29.5t-30.5 81.5q0 87 87.5 136.5t215.5 49.5q171 0 239 -70.5t68 -221.5zM512 885q-2 20 -2 90v78q-59 -5 -89 -31.5t-30 -83.5q0 -86 60 -86q44 0 61 33z" />
    <glyph glyph-name="guillemotleft" unicode="&#xab;" horiz-adv-x="927" 
d="M465 881l27 -21q-15 -73 -64 -175t-104 -175q51 -67 99 -167t66 -171l-26 -22q-155 129 -371 290v154q50 40 196 151.5t177 135.5zM815 881l27 -21q-15 -73 -64 -175t-104 -175q51 -67 99.5 -167t66.5 -171l-27 -22q-155 129 -371 290v154q50 40 196 151.5t177 135.5z
" />
    <glyph glyph-name="registered" unicode="&#xae;" horiz-adv-x="1736" 
d="M868 -33q-361 0 -556 194t-195 544q0 347 199 543t552 196q357 0 554.5 -195.5t197.5 -543.5q0 -350 -195.5 -544t-556.5 -194zM868 82q297 0 453 165t156 458q0 292 -157.5 458t-451.5 166q-293 0 -450.5 -166t-157.5 -458t157 -457.5t451 -165.5zM1235 526
q9 -49 20.5 -70.5t28.5 -21.5q13 0 16.5 19.5t-0.5 45.5t-12 52q4 0 37 2l33 2q16 -50 12 -97.5t-22 -84.5t-62 -59.5t-108 -22.5q-127 0 -176 52t-54 157q-6 94 -39.5 130t-103.5 36q0 -80 4 -138q1 -38 15.5 -53.5t45.5 -15.5h29v-142q-147 2 -231 2l-232 -2v142h31
q31 0 46.5 15.5t18.5 53.5q3 37 3 192.5t-3 192.5q-3 35 -16.5 50.5t-44.5 15.5h-35v141q51 -2 258 -2h217q192 0 278.5 -52.5t86.5 -168.5q0 -80 -47.5 -130.5t-126.5 -72.5q109 -30 133 -168zM809 936q-4 -66 -4 -197h57q65 0 91 33t26 98q0 56 -21.5 84.5t-80.5 28.5h-23
q-42 0 -45 -47z" />
    <glyph glyph-name="macron" unicode="&#xaf;" horiz-adv-x="1089" 
d="M236 1141q4 92 0 188q94 -3 290.5 -3t290.5 3q-4 -94 0 -188q-94 3 -290.5 3t-290.5 -3z" />
    <glyph glyph-name="degree" unicode="&#xb0;" horiz-adv-x="712" 
d="M356 846q86 0 130 57.5t44 190.5q0 134 -44 189.5t-130 55.5q-176 0 -176 -245q0 -135 44 -191.5t132 -56.5zM356 768q-141 0 -218 83t-77 243t78.5 243.5t216.5 83.5q141 0 218 -83t77 -244q0 -159 -78.5 -242.5t-216.5 -83.5z" />
    <glyph glyph-name="plusminus" unicode="&#xb1;" 
d="M164 0q6 88 0 180q188 -4 354 -4q6 135 23 264q-175 -26 -383 -26v198q186 0 383 -26q-27 182 -27 383h199q0 -179 -27 -383q197 26 385 26v-198q-212 0 -387 26q17 -129 23 -264q170 0 358 4q-6 -90 0 -180q-449 8 -901 0z" />
    <glyph glyph-name="acute" unicode="&#xb4;" horiz-adv-x="1089" 
d="M332 1102l-17 24q50 75 124.5 151t138.5 112q33 19 64 24t53 -3t38.5 -22.5t21 -36.5t0 -44.5t-24.5 -46.5t-52 -43q-67 -39 -167 -71.5t-179 -43.5z" />
    <glyph glyph-name="paragraph" unicode="&#xb6;" horiz-adv-x="1175" 
d="M414 -328q86 0 125 60.5t39 195.5v469q-239 1 -364.5 132t-125.5 376q0 251 162.5 378.5t462.5 127.5h374q-4 -89 0 -182h-36q-103 0 -103 -101v-1062q0 -236 -109.5 -356t-320.5 -120q-155 0 -235 57t-80 154q0 72 40 109t109 37q64 0 99.5 -33.5t35.5 -93.5
q0 -53 -38.5 -89.5t-106.5 -45.5q39 -13 72 -13z" />
    <glyph glyph-name="periodcentered" unicode="&#xb7;" horiz-adv-x="628" 
d="M520 502q0 -92 -54 -143.5t-153 -51.5q-94 0 -149 50t-55 147q0 85 57.5 139.5t146.5 54.5q98 0 152.5 -55t54.5 -141z" />
    <glyph glyph-name="cedilla" unicode="&#xb8;" horiz-adv-x="1089" 
d="M436 -221l-24 51q67 27 102 70.5t41 113.5l70 -14q6 -80 -52 -135q102 6 163 -39t61 -125q0 -89 -66 -141t-182 -52q-87 0 -148 35t-92 84l49 45q58 -67 134 -67q108 0 108 100q0 55 -47 77.5t-117 -3.5z" />
    <glyph glyph-name="ordmasculine" unicode="&#xba;" horiz-adv-x="927" 
d="M113 395q4 118 0 236q89 -3 352 -3t354 3q-4 -118 0 -236q-91 3 -354 3t-352 -3zM117 1061q0 183 93.5 274.5t260.5 91.5q173 0 264.5 -91t91.5 -277q0 -180 -92 -267t-264 -87q-171 0 -262.5 87.5t-91.5 268.5zM383 1059q0 -91 11 -139.5t28.5 -63t48.5 -14.5
q32 0 49.5 14.5t29 63t11.5 139.5q0 139 -21.5 187t-68.5 48q-31 0 -49 -17t-28.5 -69.5t-10.5 -148.5z" />
    <glyph glyph-name="guillemotright" unicode="&#xbb;" horiz-adv-x="927" 
d="M86 860l27 21q228 -170 372 -287v-154q-161 -120 -370 -290l-27 22q18 71 66.5 171t99.5 167q-53 71 -101.5 173t-66.5 177zM436 860l27 21q240 -179 373 -287v-154q-173 -129 -371 -290l-27 22q18 71 66.5 171t99.5 167q-53 71 -101.5 173t-66.5 177z" />
    <glyph glyph-name="onequarter" unicode="&#xbc;" horiz-adv-x="774" 
d="M16 705q0 21 13.5 34t36.5 13q20 0 33.5 -13.5t13.5 -33.5q0 -23 -13 -36.5t-34 -13.5q-23 0 -36.5 13.5t-13.5 36.5zM152 705q0 40 43 40q19 0 30 -10.5t11 -29.5q0 -43 -41 -43q-43 0 -43 43zM285 705q0 36 39 36q15 0 25.5 -10.5t10.5 -25.5q0 -39 -36 -39
q-39 0 -39 39zM414 705q0 36 39 36q15 0 25.5 -10.5t10.5 -25.5q0 -39 -36 -39q-39 0 -39 39zM539 705q0 40 43 40q19 0 30 -10.5t11 -29.5q0 -43 -41 -43q-43 0 -43 43zM662 705q0 21 13 34t36 13q20 0 33.5 -13.5t13.5 -33.5q0 -23 -13 -36.5t-34 -13.5q-23 0 -36 13.5
t-13 36.5zM211 932q61 0 61 57v232l-112 -2v118h35q169 0 186 117q20 -2 68.5 -2t68.5 2q-12 -155 -12 -274v-191q0 -57 61 -57h62q-1 -15 -1 -54.5t1 -54.5q-156 4 -242 4l-242 -4q1 15 1 54.5t-1 54.5h66zM293 49q45 0 45 43v23q-59 0 -149 -1t-103 -1v49l301 424
q34 -2 103.5 -2t103.5 2v-418l88 2v-61l-88 2v-17q0 -45 43 -45h47v-94q-141 4 -221 4l-223 -4q2 12 2 47t-2 47h53zM188 166h150v242z" />
    <glyph glyph-name="onehalf" unicode="&#xbd;" horiz-adv-x="774" 
d="M16 705q0 21 13.5 34t36.5 13q20 0 33.5 -13.5t13.5 -33.5q0 -23 -13 -36.5t-34 -13.5q-23 0 -36.5 13.5t-13.5 36.5zM152 705q0 40 43 40q19 0 30 -10.5t11 -29.5q0 -43 -41 -43q-43 0 -43 43zM285 705q0 36 39 36q15 0 25.5 -10.5t10.5 -25.5q0 -39 -36 -39
q-39 0 -39 39zM414 705q0 36 39 36q15 0 25.5 -10.5t10.5 -25.5q0 -39 -36 -39q-39 0 -39 39zM539 705q0 40 43 40q19 0 30 -10.5t11 -29.5q0 -43 -41 -43q-43 0 -43 43zM662 705q0 21 13 34t36 13q20 0 33.5 -13.5t13.5 -33.5q0 -23 -13 -36.5t-34 -13.5q-23 0 -36 13.5
t-13 36.5zM639 184q21 -33 26 -74.5t-7.5 -80t-53.5 -64.5t-104 -26q-42 0 -80 10.5t-56.5 20t-50.5 28.5q-90 51 -145 18q23 1 37 -9t14 -27q0 -19 -13 -30t-36 -11q-28 0 -47 20.5t-19 60.5q0 37 12.5 70.5t29.5 56.5t47.5 47.5t52 38.5t57.5 35q58 33 81.5 62t23.5 71
q0 101 -109 101q-33 0 -64 -11.5t-45 -33.5q27 10 60 10q40 0 62 -18t22 -52t-27 -54.5t-76 -20.5q-50 0 -78 25.5t-28 72.5q0 85 73 129.5t185 44.5q134 0 199 -49t65 -129q0 -42 -14 -75t-34.5 -53.5t-56 -37.5t-65.5 -26t-76 -19q-85 -21 -137 -44t-78 -63q34 31 96 39
t130 -8q41 -10 71 -13.5t54.5 0t35.5 18.5t7 42zM211 932q61 0 61 57v232l-112 -2v118h35q169 0 186 117q20 -2 68.5 -2t68.5 2q-12 -155 -12 -274v-191q0 -57 61 -57h62q-1 -15 -1 -54.5t1 -54.5q-156 4 -242 4l-242 -4q1 15 1 54.5t-1 54.5h66z" />
    <glyph glyph-name="threequarters" unicode="&#xbe;" horiz-adv-x="774" 
d="M16 705q0 21 13.5 34t36.5 13q20 0 33.5 -13.5t13.5 -33.5q0 -23 -13 -36.5t-34 -13.5q-23 0 -36.5 13.5t-13.5 36.5zM152 705q0 40 43 40q19 0 30 -10.5t11 -29.5q0 -43 -41 -43q-43 0 -43 43zM285 705q0 36 39 36q15 0 25.5 -10.5t10.5 -25.5q0 -39 -36 -39
q-39 0 -39 39zM414 705q0 36 39 36q15 0 25.5 -10.5t10.5 -25.5q0 -39 -36 -39q-39 0 -39 39zM539 705q0 40 43 40q19 0 30 -10.5t11 -29.5q0 -43 -41 -43q-43 0 -43 43zM662 705q0 21 13 34t36 13q20 0 33.5 -13.5t13.5 -33.5q0 -23 -13 -36.5t-34 -13.5q-23 0 -36 13.5
t-13 36.5zM647 1290q0 -62 -37.5 -96t-105.5 -51q168 -26 168 -150q0 -186 -316 -186q-118 0 -186 45.5t-66 120.5q0 44 29.5 70t79.5 26q49 0 76.5 -20.5t27.5 -53.5q0 -40 -34.5 -61.5t-92.5 -15.5q43 -31 101 -31q125 0 125 110q0 50 -32.5 78.5t-94.5 28.5h-23v63h23
q58 2 88.5 29.5t30.5 79.5q0 41 -25 67.5t-82 26.5q-74 0 -104 -43q21 8 53 8q82 0 82 -65q0 -31 -25.5 -52.5t-70.5 -21.5q-49 0 -79 26t-30 74q0 77 74 121.5t190 44.5q119 0 187.5 -47t68.5 -125zM293 49q45 0 45 43v23q-59 0 -149 -1t-103 -1v49l301 424q34 -2 103.5 -2
t103.5 2v-418l88 2v-61l-88 2v-17q0 -45 43 -45h47v-94q-141 4 -221 4l-223 -4q2 12 2 47t-2 47h53zM188 166h150v242z" />
    <glyph glyph-name="questiondown" unicode="&#xbf;" horiz-adv-x="1095" 
d="M322 389l-29 64q58 37 137.5 63.5t153.5 26.5q89 0 140.5 -39t51.5 -107q0 -56 -29 -96.5t-100 -87.5q-166 -110 -166 -279q0 -115 57 -178t173 -63q62 0 117.5 23.5t89.5 66.5q-36 -12 -87 -12q-81 0 -127.5 46t-46.5 124q0 75 52.5 121.5t140.5 46.5q97 0 148 -56.5
t51 -158.5q0 -176 -134.5 -284t-361.5 -108q-253 0 -377.5 108t-124.5 292q0 91 30 162t90 122t132 86.5t174 67.5q61 19 82 35t21 37q0 18 -16 28.5t-42 10.5q-94 0 -200 -62zM352 811q0 88 51 137t140 49q91 0 143.5 -49.5t52.5 -136.5t-52.5 -136.5t-143.5 -49.5
q-89 0 -140 50t-51 136z" />
    <glyph glyph-name="Agrave" unicode="&#xc0;" horiz-adv-x="1812" 
d="M942 223q147 0 72 203q-292 4 -455 2q-36 -106 -17 -155.5t97 -49.5h72q-1 -34 -1 -114.5t1 -112.5q-213 4 -334 4l-332 -4q1 32 1 112.5t-1 114.5h43q88 0 135 41t88 144q2 6 61.5 163t126 331.5t127.5 335t70 185.5q141 -4 219 -4l220 4q59 -169 192.5 -513.5
t200.5 -503.5q45 -108 86.5 -145.5t103.5 -37.5h49q-1 -34 -1 -114.5t1 -112.5q-288 4 -450 4l-453 -4q2 32 2 112.5t-2 114.5h78zM971 559q-54 158 -185 504q-117 -321 -180 -504q186 -3 365 0zM1051 1540l-17 -24q-83 11 -182.5 43.5t-169.5 74.5q-40 25 -59 59.5
t-12.5 63.5t28 50.5t61.5 20.5t88 -26q67 -38 139.5 -112t123.5 -150z" />
    <glyph glyph-name="Aacute" unicode="&#xc1;" horiz-adv-x="1812" 
d="M942 223q147 0 72 203q-292 4 -455 2q-36 -106 -17 -155.5t97 -49.5h72q-1 -34 -1 -114.5t1 -112.5q-213 4 -334 4l-332 -4q1 32 1 112.5t-1 114.5h43q88 0 135 41t88 144q2 6 61.5 163t126 331.5t127.5 335t70 185.5q141 -4 219 -4l220 4q59 -169 192.5 -513.5
t200.5 -503.5q45 -108 86.5 -145.5t103.5 -37.5h49q-1 -34 -1 -114.5t1 -112.5q-288 4 -450 4l-453 -4q2 32 2 112.5t-2 114.5h78zM971 559q-54 158 -185 504q-117 -321 -180 -504q186 -3 365 0zM817 1516l-16 24q50 75 124 150.5t138 111.5q33 19 64 24t53 -3t38.5 -22.5
t21 -36.5t0 -44.5t-24.5 -46.5t-52 -43q-67 -39 -167 -71t-179 -43z" />
    <glyph glyph-name="Acircumflex" unicode="&#xc2;" horiz-adv-x="1812" 
d="M942 223q147 0 72 203q-292 4 -455 2q-36 -106 -17 -155.5t97 -49.5h72q-1 -34 -1 -114.5t1 -112.5q-213 4 -334 4l-332 -4q1 32 1 112.5t-1 114.5h43q88 0 135 41t88 144q2 6 61.5 163t126 331.5t127.5 335t70 185.5q141 -4 219 -4l220 4q59 -169 192.5 -513.5
t200.5 -503.5q45 -108 86.5 -145.5t103.5 -37.5h49q-1 -34 -1 -114.5t1 -112.5q-288 4 -450 4l-453 -4q2 32 2 112.5t-2 114.5h78zM971 559q-54 158 -185 504q-117 -321 -180 -504q186 -3 365 0zM1210 1522l-18 -23q-62 14 -146.5 54.5t-144.5 86.5q-58 -44 -141 -84.5
t-142 -54.5l-18 23q31 83 95 163t134 140h156q59 -46 121.5 -129t103.5 -176z" />
    <glyph glyph-name="Atilde" unicode="&#xc3;" horiz-adv-x="1812" 
d="M942 223q147 0 72 203q-292 4 -455 2q-36 -106 -17 -155.5t97 -49.5h72q-1 -34 -1 -114.5t1 -112.5q-213 4 -334 4l-332 -4q1 32 1 112.5t-1 114.5h43q88 0 135 41t88 144q2 6 61.5 163t126 331.5t127.5 335t70 185.5q141 -4 219 -4l220 4q59 -169 192.5 -513.5
t200.5 -503.5q45 -108 86.5 -145.5t103.5 -37.5h49q-1 -34 -1 -114.5t1 -112.5q-288 4 -450 4l-453 -4q2 32 2 112.5t-2 114.5h78zM971 559q-54 158 -185 504q-117 -321 -180 -504q186 -3 365 0zM1145 1782l59 18q35 -95 14 -160.5t-76.5 -100t-129.5 -34.5q-70 0 -122 30
t-93 95q-25 38 -42.5 53t-43.5 15q-24 0 -40 -14.5t-21.5 -48t14.5 -89.5l-60 -18q-50 139 13.5 218t179.5 79q66 0 117 -29.5t96 -97.5q23 -37 43 -52.5t45 -15.5q39 0 54 35t-7 117z" />
    <glyph glyph-name="Adieresis" unicode="&#xc4;" horiz-adv-x="1812" 
d="M942 223q147 0 72 203q-292 4 -455 2q-36 -106 -17 -155.5t97 -49.5h72q-1 -34 -1 -114.5t1 -112.5q-213 4 -334 4l-332 -4q1 32 1 112.5t-1 114.5h43q88 0 135 41t88 144q2 6 61.5 163t126 331.5t127.5 335t70 185.5q141 -4 219 -4l220 4q59 -169 192.5 -513.5
t200.5 -503.5q45 -108 86.5 -145.5t103.5 -37.5h49q-1 -34 -1 -114.5t1 -112.5q-288 4 -450 4l-453 -4q2 32 2 112.5t-2 114.5h78zM971 559q-54 158 -185 504q-117 -321 -180 -504q186 -3 365 0zM852 1661q0 -57 -35 -90t-90 -33q-54 0 -89.5 33t-35.5 90t35.5 91t89.5 34
q55 0 90 -34t35 -91zM1206 1661q0 -57 -35 -90t-90 -33q-54 0 -88.5 33t-34.5 90t34.5 91t88.5 34q55 0 90 -34t35 -91z" />
    <glyph glyph-name="Aring" unicode="&#xc5;" horiz-adv-x="1812" 
d="M942 223q147 0 72 203q-292 4 -455 2q-36 -106 -17 -155.5t97 -49.5h72q-1 -34 -1 -114.5t1 -112.5q-213 4 -334 4l-332 -4q1 32 1 112.5t-1 114.5h43q88 0 135 41t88 144q2 6 61.5 163t126 331.5t127.5 335t70 185.5q141 -4 219 -4l220 4q59 -169 192.5 -513.5
t200.5 -503.5q45 -108 86.5 -145.5t103.5 -37.5h49q-1 -34 -1 -114.5t1 -112.5q-288 4 -450 4l-453 -4q2 32 2 112.5t-2 114.5h78zM971 559q-54 158 -185 504q-117 -321 -180 -504q186 -3 365 0zM1001 1714q0 46 -25 71t-69 25t-69 -25t-25 -71q0 -49 24.5 -75.5t69.5 -26.5
t69.5 26.5t24.5 75.5zM1096 1714q0 -89 -50 -139.5t-139 -50.5t-139.5 50.5t-50.5 139.5q0 88 49 137.5t137 49.5q91 0 142 -49.5t51 -137.5z" />
    <glyph glyph-name="AE" unicode="&#xc6;" horiz-adv-x="2248" 
d="M1403 778h49q93 0 127.5 39.5t34.5 138.5v64h174q-14 -208 -14 -311q0 -168 14 -314q-88 2 -170 0v58q-2 105 -37 146.5t-131 41.5h-47q0 -215 6 -289q3 -72 34 -100.5t95 -28.5h172q93 0 145.5 28t78.5 98.5t26 197.5v18q38 -1 122 -1t122 1q-21 -228 -21 -575
q-120 10 -438 10h-571q-340 0 -390 -4v227h60q67 0 94 31.5t33 103.5q2 20 2 99h-348l-21 -43q-90 -191 53 -191h56v-227q-215 4 -336 4l-332 -4q1 32 1 112.5t-1 114.5h45q85 0 141 42t121 143q267 416 404 655q32 53 14.5 92t-86.5 39h-33v227q135 -12 553 -12q44 0 190 1
t310 1q395 0 491 12q-16 -241 -12 -538q-35 1 -114.5 1t-114.5 -1v16q0 91 -17 150t-52 88t-75.5 39t-101.5 10h-172q-63 0 -93.5 -29.5t-33.5 -93.5q-6 -88 -6 -287zM965 1059q-139 -225 -275 -477q197 0 285 2q3 267 -10 475z" />
    <glyph glyph-name="Ccedilla" unicode="&#xc7;" horiz-adv-x="1488" 
d="M629 -221l-25 51q111 46 135 135q-129 4 -231.5 30t-186 82t-138.5 141t-85 208t-30 283q0 150 32.5 272.5t92.5 209.5t145.5 146.5t189.5 88t226 28.5q221 0 374 -94q60 -37 84 -26t31 85q28 -1 96.5 -1t96.5 1q-11 -73 -24.5 -254t-14.5 -284q-53 3 -152 3t-153 -3
q-10 161 -66.5 243t-187.5 82q-73 0 -122 -22.5t-84.5 -78.5t-52 -153t-16.5 -243q0 -124 14 -215.5t37 -145.5t58.5 -86.5t72.5 -43.5t86 -11q126 0 198 88t71 256q54 -3 167 -3t167 3q-1 -208 -61 -332.5t-194.5 -186.5t-361.5 -67q-6 -55 -51 -100q102 6 162.5 -39
t60.5 -125q0 -89 -66 -141t-182 -52q-87 0 -147.5 35t-91.5 84l49 45q58 -67 133 -67q109 0 109 100q0 55 -46.5 77.5t-117.5 -3.5z" />
    <glyph glyph-name="Egrave" unicode="&#xc8;" horiz-adv-x="1501" 
d="M866 956v64h174q-14 -208 -14 -311q0 -168 14 -314q-88 2 -170 0v58q-2 105 -37 146.5t-131 41.5h-45q0 -228 5 -289q6 -73 35.5 -101t93.5 -28h172q95 0 147.5 29t78 103t25.5 210q37 -1 121 -1t121 1q-20 -217 -20 -575q-156 10 -469 10h-512q-61 0 -158 -1t-171.5 -2
t-80.5 -1q1 32 1 112.5t-1 114.5h51q68 0 95 32t32 103q5 78 5.5 341t-3.5 352q-4 75 -33.5 107t-89.5 32h-57q1 34 1 112.5t-1 110.5q6 0 173.5 -2t238.5 -2h501q378 0 490 14q-16 -241 -12 -542q-35 1 -114.5 1t-113.5 -1q0 98 -16 160.5t-51 94t-75.5 42t-102.5 10.5
h-175q-62 0 -92.5 -29.5t-33.5 -93.5q-5 -147 -5 -287h48q93 0 127 39.5t34 138.5zM948 1540l-16 -24q-83 11 -182.5 43.5t-169.5 74.5q-40 25 -59 59.5t-12.5 63.5t28 50.5t61.5 20.5t88 -26q67 -38 139 -112t123 -150z" />
    <glyph glyph-name="Eacute" unicode="&#xc9;" horiz-adv-x="1501" 
d="M674 1516l-17 24q50 75 124 150t139 112q33 19 64 24t53 -3t38.5 -22.5t21 -36.5t0 -44.5t-24.5 -46.5t-52 -43q-67 -39 -167 -71t-179 -43zM866 956v64h174q-14 -208 -14 -311q0 -168 14 -314q-88 2 -170 0v58q-2 105 -37 146.5t-131 41.5h-45q0 -228 5 -289
q6 -73 35.5 -101t93.5 -28h172q95 0 147.5 29t78 103t25.5 210q37 -1 121 -1t121 1q-20 -217 -20 -575q-156 10 -469 10h-512q-61 0 -158 -1t-171.5 -2t-80.5 -1q1 32 1 112.5t-1 114.5h51q68 0 95 32t32 103q5 78 5.5 341t-3.5 352q-4 75 -33.5 107t-89.5 32h-57
q1 34 1 112.5t-1 110.5q6 0 173.5 -2t238.5 -2h501q378 0 490 14q-16 -241 -12 -542q-35 1 -114.5 1t-113.5 -1q0 98 -16 160.5t-51 94t-75.5 42t-102.5 10.5h-175q-62 0 -92.5 -29.5t-33.5 -93.5q-5 -147 -5 -287h48q93 0 127 39.5t34 138.5z" />
    <glyph glyph-name="Ecircumflex" unicode="&#xca;" horiz-adv-x="1501" 
d="M1090 1522l-19 -23q-62 14 -146.5 54.5t-144.5 86.5q-58 -44 -140.5 -84.5t-141.5 -54.5l-19 23q31 83 95 163t135 140h155q60 -46 122.5 -129t103.5 -176zM866 956v64h174q-14 -208 -14 -311q0 -168 14 -314q-88 2 -170 0v58q-2 105 -37 146.5t-131 41.5h-45
q0 -228 5 -289q6 -73 35.5 -101t93.5 -28h172q95 0 147.5 29t78 103t25.5 210q37 -1 121 -1t121 1q-20 -217 -20 -575q-156 10 -469 10h-512q-61 0 -158 -1t-171.5 -2t-80.5 -1q1 32 1 112.5t-1 114.5h51q68 0 95 32t32 103q5 78 5.5 341t-3.5 352q-4 75 -33.5 107t-89.5 32
h-57q1 34 1 112.5t-1 110.5q6 0 173.5 -2t238.5 -2h501q378 0 490 14q-16 -241 -12 -542q-35 1 -114.5 1t-113.5 -1q0 98 -16 160.5t-51 94t-75.5 42t-102.5 10.5h-175q-62 0 -92.5 -29.5t-33.5 -93.5q-5 -147 -5 -287h48q93 0 127 39.5t34 138.5z" />
    <glyph glyph-name="Edieresis" unicode="&#xcb;" horiz-adv-x="1501" 
d="M733 1661q0 -57 -35 -90t-90 -33q-54 0 -89.5 33t-35.5 90t35.5 91t89.5 34q55 0 90 -34t35 -91zM1087 1661q0 -57 -34.5 -90t-89.5 -33q-54 0 -88.5 33t-34.5 90t34.5 91t88.5 34q55 0 89.5 -33.5t34.5 -91.5zM866 956v64h174q-14 -208 -14 -311q0 -168 14 -314
q-88 2 -170 0v58q-2 105 -37 146.5t-131 41.5h-45q0 -228 5 -289q6 -73 35.5 -101t93.5 -28h172q95 0 147.5 29t78 103t25.5 210q37 -1 121 -1t121 1q-20 -217 -20 -575q-156 10 -469 10h-512q-61 0 -158 -1t-171.5 -2t-80.5 -1q1 32 1 112.5t-1 114.5h51q68 0 95 32t32 103
q5 78 5.5 341t-3.5 352q-4 75 -33.5 107t-89.5 32h-57q1 34 1 112.5t-1 110.5q6 0 173.5 -2t238.5 -2h501q378 0 490 14q-16 -241 -12 -542q-35 1 -114.5 1t-113.5 -1q0 98 -16 160.5t-51 94t-75.5 42t-102.5 10.5h-175q-62 0 -92.5 -29.5t-33.5 -93.5q-5 -147 -5 -287h48
q93 0 127 39.5t34 138.5z" />
    <glyph glyph-name="Igrave" unicode="&#xcc;" horiz-adv-x="876" 
d="M49 -6q1 34 1 114.5t-1 114.5h66q60 0 80.5 25t25.5 84q5 72 5 373t-5 370q-5 61 -28.5 88t-77.5 27h-66q1 34 1 112.5t-1 110.5q252 -4 391 -4q62 0 156 1t163 2t70 1q-1 -32 -1 -110.5t1 -112.5h-65q-54 0 -78 -27t-29 -88q-6 -74 -5.5 -370t5.5 -373q3 -56 26.5 -82.5
t80.5 -26.5h63q-1 -34 -1 -114.5t1 -114.5q-248 6 -389 6zM584 1540l-17 -24q-83 11 -182.5 43.5t-169.5 74.5q-40 25 -59 59.5t-12.5 63.5t28.5 50.5t62 20.5t88 -26q67 -38 139 -112t123 -150z" />
    <glyph glyph-name="Iacute" unicode="&#xcd;" horiz-adv-x="876" 
d="M49 -6q1 34 1 114.5t-1 114.5h66q60 0 80.5 25t25.5 84q5 72 5 373t-5 370q-5 61 -28.5 88t-77.5 27h-66q1 34 1 112.5t-1 110.5q252 -4 391 -4q62 0 156 1t163 2t70 1q-1 -32 -1 -110.5t1 -112.5h-65q-54 0 -78 -27t-29 -88q-6 -74 -5.5 -370t5.5 -373q3 -56 26.5 -82.5
t80.5 -26.5h63q-1 -34 -1 -114.5t1 -114.5q-248 6 -389 6zM350 1516l-16 24q50 75 124 150.5t138 111.5q33 19 64 24t53 -3t38.5 -22.5t21 -36.5t0 -44.5t-24.5 -46.5t-52 -43q-67 -39 -167 -71t-179 -43z" />
    <glyph glyph-name="Icircumflex" unicode="&#xce;" horiz-adv-x="876" 
d="M49 -6q1 34 1 114.5t-1 114.5h66q60 0 80.5 25t25.5 84q5 72 5 373t-5 370q-5 61 -28.5 88t-77.5 27h-66q1 34 1 112.5t-1 110.5q252 -4 391 -4q62 0 156 1t163 2t70 1q-1 -32 -1 -110.5t1 -112.5h-65q-54 0 -78 -27t-29 -88q-6 -74 -5.5 -370t5.5 -373q3 -56 26.5 -82.5
t80.5 -26.5h63q-1 -34 -1 -114.5t1 -114.5q-248 6 -389 6zM743 1522l-18 -23q-62 14 -146.5 54.5t-144.5 86.5q-58 -44 -140.5 -84.5t-141.5 -54.5l-19 23q31 83 95 163t134 140h156q59 -46 121.5 -129t103.5 -176z" />
    <glyph glyph-name="Idieresis" unicode="&#xcf;" horiz-adv-x="876" 
d="M49 -6q1 34 1 114.5t-1 114.5h66q60 0 80.5 25t25.5 84q5 72 5 373t-5 370q-5 61 -28.5 88t-77.5 27h-66q1 34 1 112.5t-1 110.5q252 -4 391 -4q62 0 156 1t163 2t70 1q-1 -32 -1 -110.5t1 -112.5h-65q-54 0 -78 -27t-29 -88q-6 -74 -5.5 -370t5.5 -373q3 -56 26.5 -82.5
t80.5 -26.5h63q-1 -34 -1 -114.5t1 -114.5q-248 6 -389 6zM385 1661q0 -57 -35 -90t-90 -33q-54 0 -89.5 33t-35.5 90t35.5 91t89.5 34q55 0 90 -34t35 -91zM739 1661q0 -57 -35 -90t-90 -33q-54 0 -88 33t-34 90t34 91t88 34q55 0 90 -34t35 -91z" />
    <glyph glyph-name="Eth" unicode="&#xd0;" horiz-adv-x="1632" 
d="M870 1409q185 0 315.5 -40.5t214.5 -127t123.5 -215t41.5 -309.5q2 -156 -30.5 -278.5t-91.5 -204.5t-146 -135.5t-189 -77t-225 -23.5q-277 2 -422 2l-416 -4q1 32 1 112.5t-1 114.5h49q70 0 96 25.5t31 97.5q4 90 4 268q-29 0 -70.5 -1t-50.5 -1q3 20 3.5 100.5
t-1.5 102.5q25 -2 119 -2q-1 44 -1.5 103.5t-1 96.5t-1.5 54q-4 64 -31.5 93.5t-83.5 29.5h-61q1 34 1 112.5t-1 110.5q3 0 166 -2t250 -2h409zM657 313q2 -38 23.5 -60t60.5 -22h50q86 0 143 20.5t100 74t62.5 150t19.5 243.5q0 138 -19 229.5t-61 143.5t-99.5 73
t-143.5 21h-52q-80 0 -84 -74q-6 -86 -6 -301q121 0 199 4q-2 -28 -2 -102.5t2 -100.5q-14 0 -82 1t-117 1z" />
    <glyph glyph-name="Ntilde" unicode="&#xd1;" horiz-adv-x="1697" 
d="M688 1413q88 -143 252.5 -393t284.5 -424q2 88 1.5 236t-3.5 217q-4 76 -36 108.5t-91 32.5h-95v223q1 0 59 -1.5t136.5 -3t130.5 -1.5l326 6q-1 -32 -1 -110.5t1 -112.5h-68q-58 0 -90.5 -33t-36.5 -108q-4 -88 -4 -453.5t4 -597.5q-190 8 -379 0q-223 361 -600 926
q-2 -137 -1.5 -323.5t3.5 -242.5q3 -66 34 -100.5t99 -34.5h95q-1 -34 -1 -114.5t1 -112.5q-211 4 -332 4l-332 -4q1 32 1 112.5t-1 114.5h66q68 0 99 34.5t36 100.5q4 83 4 358.5t-4 344.5q-5 61 -38.5 95t-92.5 34h-68q1 34 1 112.5t-1 110.5q320 -8 641 0zM1073 1782
l60 18q35 -95 13.5 -160.5t-77 -100t-129.5 -34.5q-70 0 -122 30t-93 95q-25 38 -42.5 53t-43.5 15q-24 0 -40 -14.5t-21.5 -48t14.5 -89.5l-60 -18q-50 139 13.5 218t179.5 79q66 0 117 -29.5t96 -97.5q23 -37 43 -52.5t45 -15.5q39 0 54 35t-7 117z" />
    <glyph glyph-name="Ograve" unicode="&#xd2;" horiz-adv-x="1615" 
d="M809 195q142 0 195 113.5t53 398.5q0 148 -11 242t-40 156.5t-76 88t-121 25.5q-139 0 -194.5 -115.5t-55.5 -398.5q0 -291 51.5 -400.5t198.5 -109.5zM809 -35q-370 0 -555.5 177t-185.5 563q0 189 52.5 331.5t150 232.5t232.5 134.5t306 44.5q374 0 556.5 -178
t182.5 -563q0 -156 -37 -281t-102 -210.5t-158.5 -142.5t-203 -82.5t-238.5 -25.5zM952 1540l-16 -24q-83 11 -182.5 43.5t-169.5 74.5q-40 25 -59 59.5t-12.5 63.5t28 50.5t61.5 20.5t88 -26q67 -38 139 -112t123 -150z" />
    <glyph glyph-name="Oacute" unicode="&#xd3;" horiz-adv-x="1615" 
d="M719 1516l-17 24q50 75 124 150t139 112q33 19 64 24t53 -3t38.5 -22.5t21 -36.5t0 -44.5t-24.5 -46.5t-52 -43q-67 -39 -167 -71t-179 -43zM809 195q142 0 195 113.5t53 398.5q0 148 -11 242t-40 156.5t-76 88t-121 25.5q-139 0 -194.5 -115.5t-55.5 -398.5
q0 -291 51.5 -400.5t198.5 -109.5zM809 -35q-370 0 -555.5 177t-185.5 563q0 189 52.5 331.5t150 232.5t232.5 134.5t306 44.5q374 0 556.5 -178t182.5 -563q0 -156 -37 -281t-102 -210.5t-158.5 -142.5t-203 -82.5t-238.5 -25.5z" />
    <glyph glyph-name="Ocircumflex" unicode="&#xd4;" horiz-adv-x="1615" 
d="M1112 1522l-18 -23q-62 14 -146.5 54.5t-144.5 86.5q-58 -44 -141 -84.5t-142 -54.5l-18 23q31 83 95 163t134 140h156q59 -46 121.5 -129t103.5 -176zM809 195q142 0 195 113.5t53 398.5q0 148 -11 242t-40 156.5t-76 88t-121 25.5q-139 0 -194.5 -115.5t-55.5 -398.5
q0 -291 51.5 -400.5t198.5 -109.5zM809 -35q-370 0 -555.5 177t-185.5 563q0 189 52.5 331.5t150 232.5t232.5 134.5t306 44.5q374 0 556.5 -178t182.5 -563q0 -156 -37 -281t-102 -210.5t-158.5 -142.5t-203 -82.5t-238.5 -25.5z" />
    <glyph glyph-name="Otilde" unicode="&#xd5;" horiz-adv-x="1615" 
d="M809 195q142 0 195 113.5t53 398.5q0 148 -11 242t-40 156.5t-76 88t-121 25.5q-139 0 -194.5 -115.5t-55.5 -398.5q0 -291 51.5 -400.5t198.5 -109.5zM809 -35q-370 0 -555.5 177t-185.5 563q0 189 52.5 331.5t150 232.5t232.5 134.5t306 44.5q374 0 556.5 -178
t182.5 -563q0 -156 -37 -281t-102 -210.5t-158.5 -142.5t-203 -82.5t-238.5 -25.5zM1047 1782l59 18q35 -95 13.5 -160.5t-77 -100t-129.5 -34.5q-70 0 -122 30t-93 95q-25 38 -42.5 53t-43.5 15q-24 0 -40 -14.5t-21.5 -48t14.5 -89.5l-59 -18q-50 139 13 218t179 79
q66 0 117 -29.5t96 -97.5q23 -37 43 -52.5t45 -15.5q40 0 55 35t-7 117z" />
    <glyph glyph-name="Odieresis" unicode="&#xd6;" horiz-adv-x="1615" 
d="M760 1661q0 -57 -35 -90t-90 -33q-54 0 -89.5 33t-35.5 90t35.5 91t89.5 34q55 0 90 -34t35 -91zM1114 1661q0 -57 -35 -90t-90 -33q-54 0 -88.5 33t-34.5 90t34.5 91t88.5 34q55 0 90 -34t35 -91zM809 195q142 0 195 113.5t53 398.5q0 148 -11 242t-40 156.5t-76 88
t-121 25.5q-139 0 -194.5 -115.5t-55.5 -398.5q0 -291 51.5 -400.5t198.5 -109.5zM809 -35q-370 0 -555.5 177t-185.5 563q0 189 52.5 331.5t150 232.5t232.5 134.5t306 44.5q374 0 556.5 -178t182.5 -563q0 -156 -37 -281t-102 -210.5t-158.5 -142.5t-203 -82.5
t-238.5 -25.5z" />
    <glyph glyph-name="multiply" unicode="&#xd7;" 
d="M1008 256l-140 -139q-162 171 -256 293q-104 -137 -252 -291l-141 141q54 52 139.5 127t151.5 123q-68 51 -155 128t-136 126l141 139q155 -161 252 -289q52 70 128.5 157t125.5 134l140 -139q-45 -46 -133 -124t-158 -132q130 -100 293 -254z" />
    <glyph glyph-name="Oslash" unicode="&#xd8;" horiz-adv-x="1615" 
d="M809 -35q-286 0 -461 103l-153 -152l-50 39l119 176q-196 181 -196 574q0 189 52.5 331.5t150 232.5t232.5 134.5t306 44.5q287 0 457 -102l166 163l45 -34l-127 -191q198 -183 198 -577q0 -156 -37 -281t-102 -210.5t-158.5 -142.5t-203 -82.5t-238.5 -25.5zM809 195
q142 0 195 113.5t53 398.5q0 137 -10 225l-205 -234l-256 -327q25 -94 77.5 -135t145.5 -41zM567 481l226 258l235 303q-24 94 -76.5 135.5t-142.5 41.5q-139 0 -194.5 -115.5t-55.5 -398.5q0 -134 8 -224z" />
    <glyph glyph-name="Ugrave" unicode="&#xd9;" horiz-adv-x="1669" 
d="M203 532q0 34 2 149t2.5 193t-2.5 185q-3 70 -30.5 100.5t-84.5 30.5h-45q1 34 1 112.5t-1 110.5q258 -4 401 -4q85 0 247 2t165 2v-223h-70q-60 0 -91.5 -31t-32.5 -100q-8 -293 0 -510q4 -180 64.5 -256t191.5 -76t192.5 75.5t65.5 256.5q8 306 0 510q-6 131 -119 131
h-68q1 34 1 112.5t-1 110.5q195 -4 312 -4q69 0 192 2t129 2v-223h-47q-57 0 -84.5 -31.5t-30.5 -99.5q-2 -81 -2 -169.5t1 -192t1 -156.5q0 -308 -155.5 -449t-452.5 -141q-339 0 -495 139.5t-156 441.5zM993 1540l-16 -24q-83 11 -182.5 43.5t-169.5 74.5q-40 25 -59 59.5
t-12.5 63.5t28 50.5t61.5 20.5t88 -26q67 -38 139 -112t123 -150z" />
    <glyph glyph-name="Uacute" unicode="&#xda;" horiz-adv-x="1669" 
d="M848 1516l-17 24q50 75 124 150t139 112q33 19 64 24t53 -3t38.5 -22.5t21 -36.5t0 -44.5t-24.5 -46.5t-52 -43q-67 -39 -167 -71t-179 -43zM203 532q0 34 2 149t2.5 193t-2.5 185q-3 70 -30.5 100.5t-84.5 30.5h-45q1 34 1 112.5t-1 110.5q258 -4 401 -4q85 0 247 2
t165 2v-223h-70q-60 0 -91.5 -31t-32.5 -100q-8 -293 0 -510q4 -180 64.5 -256t191.5 -76t192.5 75.5t65.5 256.5q8 306 0 510q-6 131 -119 131h-68q1 34 1 112.5t-1 110.5q195 -4 312 -4q69 0 192 2t129 2v-223h-47q-57 0 -84.5 -31.5t-30.5 -99.5q-2 -81 -2 -169.5t1 -192
t1 -156.5q0 -308 -155.5 -449t-452.5 -141q-339 0 -495 139.5t-156 441.5z" />
    <glyph glyph-name="Ucircumflex" unicode="&#xdb;" horiz-adv-x="1669" 
d="M1229 1522l-19 -23q-62 14 -146 54.5t-144 86.5q-58 -44 -141 -84.5t-142 -54.5l-19 23q31 83 95 163t135 140h156q59 -46 121.5 -129t103.5 -176zM203 532q0 34 2 149t2.5 193t-2.5 185q-3 70 -30.5 100.5t-84.5 30.5h-45q1 34 1 112.5t-1 110.5q258 -4 401 -4
q85 0 247 2t165 2v-223h-70q-60 0 -91.5 -31t-32.5 -100q-8 -293 0 -510q4 -180 64.5 -256t191.5 -76t192.5 75.5t65.5 256.5q8 306 0 510q-6 131 -119 131h-68q1 34 1 112.5t-1 110.5q195 -4 312 -4q69 0 192 2t129 2v-223h-47q-57 0 -84.5 -31.5t-30.5 -99.5
q-2 -81 -2 -169.5t1 -192t1 -156.5q0 -308 -155.5 -449t-452.5 -141q-339 0 -495 139.5t-156 441.5z" />
    <glyph glyph-name="Udieresis" unicode="&#xdc;" horiz-adv-x="1669" 
d="M864 1661q0 -57 -35 -90t-90 -33q-54 0 -89.5 33t-35.5 90t35.5 91t89.5 34q55 0 90 -34t35 -91zM1219 1661q0 -57 -35 -90t-90 -33q-54 0 -88.5 33t-34.5 90t34.5 91t88.5 34q55 0 90 -34t35 -91zM203 532q0 34 2 149t2.5 193t-2.5 185q-3 70 -30.5 100.5t-84.5 30.5
h-45q1 34 1 112.5t-1 110.5q258 -4 401 -4q85 0 247 2t165 2v-223h-70q-60 0 -91.5 -31t-32.5 -100q-8 -293 0 -510q4 -180 64.5 -256t191.5 -76t192.5 75.5t65.5 256.5q8 306 0 510q-6 131 -119 131h-68q1 34 1 112.5t-1 110.5q195 -4 312 -4q69 0 192 2t129 2v-223h-47
q-57 0 -84.5 -31.5t-30.5 -99.5q-2 -81 -2 -169.5t1 -192t1 -156.5q0 -308 -155.5 -449t-452.5 -141q-339 0 -495 139.5t-156 441.5z" />
    <glyph glyph-name="Yacute" unicode="&#xdd;" horiz-adv-x="1753" 
d="M1389 1034q-44 -79 -140.5 -267.5t-140.5 -283.5v-145q0 -60 25.5 -88.5t95.5 -28.5h82q-4 -114 0 -225q-289 4 -451 4l-454 -4q2 32 2 112.5t-2 112.5h86q69 0 88.5 27.5t19.5 89.5v147q-210 428 -295 578q-38 68 -93 97.5t-144 29.5h-33q2 47 2 103t-1 88l-1 32
q301 -4 471 -4l469 4q-2 -112 0 -223h-51q-139 0 -60 -191q52 -125 154 -301q73 135 145 301q82 191 -51 191h-43q2 49 2 105t-1 87l-1 31q209 -4 326 -4l325 4q-4 -121 0 -223h-37q-69 0 -116.5 -9.5t-80.5 -32.5t-52.5 -47.5t-44.5 -66.5zM965 1516l-17 24
q50 75 124 150.5t138 111.5q33 19 64 24t53 -3t39 -22.5t21.5 -36.5t0 -44.5t-24.5 -46.5t-52 -43q-67 -39 -167 -71t-179 -43z" />
    <glyph glyph-name="Thorn" unicode="&#xde;" horiz-adv-x="1431" 
d="M41 -6q1 34 1 114.5t-1 114.5h65q60 0 81 25.5t26 83.5q5 72 5 373t-5 370q-5 61 -29 88t-78 27h-65q1 34 1 112.5t-1 110.5q252 -4 391 -4q62 0 156 1t163 2t70 1q-1 -32 -1 -110.5t1 -112.5h-65q-49 0 -73 -21.5t-32 -68.5q88 10 180 10q289 0 419 -103t130 -302
q0 -96 -33.5 -167t-107 -122.5t-195.5 -77t-294 -25.5q-39 0 -101 4q5 -47 29.5 -70.5t77.5 -23.5h63q-1 -34 -1 -114.5t1 -114.5q-248 6 -389 6zM666 915h-23q0 -290 2 -415h27q119 0 169 45t50 160q0 111 -49 160.5t-176 49.5z" />
    <glyph glyph-name="germandbls" unicode="&#xdf;" horiz-adv-x="1363" 
d="M45 969l94 -4q4 234 139 348t375 114q231 0 355.5 -103.5t124.5 -285.5q0 -251 -209 -321q346 -32 346 -371q0 -189 -99 -284t-288 -95q-68 0 -119.5 12t-90 40.5t-57.5 73t-18 111.5t25 154l88 -8q-25 -126 -7 -178.5t70 -52.5q54 0 72 54.5t18 197.5q0 156 -54.5 217
t-176.5 53q3 18 2.5 61.5t-2.5 61.5q71 0 107 62t36 212q0 136 -32.5 187t-96.5 51q-129 0 -129 -256q0 -57 -0.5 -223t-0.5 -298.5t1 -201.5q0 -16 0.5 -67t0 -75.5t-3.5 -69t-9 -85.5q-147 6 -215 6q-32 1 -65 0.5t-68.5 -1.5t-63 -2t-46.5 -2t-21 -1q3 28 3 92t-3 92h39
q24 0 39 9t22 27t9 34t3 43q10 150 2 491l-96 -4v185z" />
    <glyph glyph-name="agrave" unicode="&#xe0;" horiz-adv-x="1157" 
d="M965 575v-260q0 -84 6 -110.5t30 -26.5q58 0 37 225l82 3q12 -97 2.5 -177.5t-37.5 -138.5t-86.5 -90.5t-144.5 -32.5q-198 0 -252 146q-95 -146 -297 -146q-123 0 -197.5 60.5t-74.5 177.5q0 70 29.5 125t79.5 91t121.5 60.5t148.5 36t168 14.5v93q0 128 -49.5 175.5
t-176.5 45.5q74 -39 74 -127q0 -72 -47 -112t-131 -40q-78 0 -123 41t-45 119q0 84 61.5 146.5t159.5 93t217 30.5q126 0 212.5 -26t137.5 -81t73 -131t22 -184zM582 213q-2 16 -2 74v170q-79 -6 -118.5 -42t-39.5 -114q0 -69 21.5 -95t62.5 -26q52 0 76 33zM715 1098
l-17 -25q-82 11 -182 44t-170 75q-40 25 -59 59.5t-12.5 63.5t28.5 50.5t62 20.5t88 -26q67 -38 139 -112t123 -150z" />
    <glyph glyph-name="aacute" unicode="&#xe1;" horiz-adv-x="1157" 
d="M965 575v-260q0 -84 6 -110.5t30 -26.5q58 0 37 225l82 3q12 -97 2.5 -177.5t-37.5 -138.5t-86.5 -90.5t-144.5 -32.5q-198 0 -252 146q-95 -146 -297 -146q-123 0 -197.5 60.5t-74.5 177.5q0 70 29.5 125t79.5 91t121.5 60.5t148.5 36t168 14.5v93q0 128 -49.5 175.5
t-176.5 45.5q74 -39 74 -127q0 -72 -47 -112t-131 -40q-78 0 -123 41t-45 119q0 84 61.5 146.5t159.5 93t217 30.5q126 0 212.5 -26t137.5 -81t73 -131t22 -184zM582 213q-2 16 -2 74v170q-79 -6 -118.5 -42t-39.5 -114q0 -69 21.5 -95t62.5 -26q52 0 76 33zM487 1073
l-16 25q50 75 124 150.5t138 111.5q33 19 64 24t53 -3t39 -22.5t21.5 -36.5t0 -44.5t-24.5 -46.5t-52 -43q-67 -39 -167.5 -71.5t-179.5 -43.5z" />
    <glyph glyph-name="acircumflex" unicode="&#xe2;" horiz-adv-x="1157" 
d="M965 575v-260q0 -84 6 -110.5t30 -26.5q58 0 37 225l82 3q12 -97 2.5 -177.5t-37.5 -138.5t-86.5 -90.5t-144.5 -32.5q-198 0 -252 146q-95 -146 -297 -146q-123 0 -197.5 60.5t-74.5 177.5q0 70 29.5 125t79.5 91t121.5 60.5t148.5 36t168 14.5v93q0 128 -49.5 175.5
t-176.5 45.5q74 -39 74 -127q0 -72 -47 -112t-131 -40q-78 0 -123 41t-45 119q0 84 61.5 146.5t159.5 93t217 30.5q126 0 212.5 -26t137.5 -81t73 -131t22 -184zM582 213q-2 16 -2 74v170q-79 -6 -118.5 -42t-39.5 -114q0 -69 21.5 -95t62.5 -26q52 0 76 33zM866 1085
l-18 -22q-62 14 -146.5 54.5t-144.5 86.5q-58 -44 -141 -84.5t-142 -54.5l-18 22q31 83 95 164t134 140h156q59 -46 121.5 -129t103.5 -177z" />
    <glyph glyph-name="atilde" unicode="&#xe3;" horiz-adv-x="1157" 
d="M965 575v-260q0 -84 6 -110.5t30 -26.5q58 0 37 225l82 3q12 -97 2.5 -177.5t-37.5 -138.5t-86.5 -90.5t-144.5 -32.5q-198 0 -252 146q-95 -146 -297 -146q-123 0 -197.5 60.5t-74.5 177.5q0 70 29.5 125t79.5 91t121.5 60.5t148.5 36t168 14.5v93q0 128 -49.5 175.5
t-176.5 45.5q74 -39 74 -127q0 -72 -47 -112t-131 -40q-78 0 -123 41t-45 119q0 84 61.5 146.5t159.5 93t217 30.5q126 0 212.5 -26t137.5 -81t73 -131t22 -184zM582 213q-2 16 -2 74v170q-79 -6 -118.5 -42t-39.5 -114q0 -69 21.5 -95t62.5 -26q52 0 76 33zM772 1339l59 19
q35 -95 14 -160.5t-76.5 -100t-129.5 -34.5q-70 0 -122 30t-93 95q-25 38 -42.5 52.5t-43.5 14.5q-24 0 -40 -14t-21.5 -47.5t14.5 -89.5l-60 -19q-50 139 13.5 218t179.5 79q66 0 117 -29.5t96 -97.5q42 -67 88 -67q40 0 54.5 34.5t-7.5 116.5z" />
    <glyph glyph-name="adieresis" unicode="&#xe4;" horiz-adv-x="1157" 
d="M965 575v-260q0 -84 6 -110.5t30 -26.5q58 0 37 225l82 3q12 -97 2.5 -177.5t-37.5 -138.5t-86.5 -90.5t-144.5 -32.5q-198 0 -252 146q-95 -146 -297 -146q-123 0 -197.5 60.5t-74.5 177.5q0 70 29.5 125t79.5 91t121.5 60.5t148.5 36t168 14.5v93q0 128 -49.5 175.5
t-176.5 45.5q74 -39 74 -127q0 -72 -47 -112t-131 -40q-78 0 -123 41t-45 119q0 84 61.5 146.5t159.5 93t217 30.5q126 0 212.5 -26t137.5 -81t73 -131t22 -184zM582 213q-2 16 -2 74v170q-79 -6 -118.5 -42t-39.5 -114q0 -69 21.5 -95t62.5 -26q52 0 76 33zM510 1219
q0 -57 -35 -90t-90 -33q-54 0 -89.5 33t-35.5 90t35.5 90.5t89.5 33.5q55 0 90 -33.5t35 -90.5zM864 1219q0 -57 -35 -90t-90 -33q-54 0 -88.5 33t-34.5 90t34.5 90.5t88.5 33.5q55 0 90 -33.5t35 -90.5z" />
    <glyph glyph-name="aring" unicode="&#xe5;" horiz-adv-x="1157" 
d="M965 575v-260q0 -84 6 -110.5t30 -26.5q58 0 37 225l82 3q12 -97 2.5 -177.5t-37.5 -138.5t-86.5 -90.5t-144.5 -32.5q-198 0 -252 146q-95 -146 -297 -146q-123 0 -197.5 60.5t-74.5 177.5q0 70 29.5 125t79.5 91t121.5 60.5t148.5 36t168 14.5v93q0 128 -49.5 175.5
t-176.5 45.5q74 -39 74 -127q0 -72 -47 -112t-131 -40q-78 0 -123 41t-45 119q0 84 61.5 146.5t159.5 93t217 30.5q126 0 212.5 -26t137.5 -81t73 -131t22 -184zM582 213q-2 16 -2 74v170q-79 -6 -118.5 -42t-39.5 -114q0 -69 21.5 -95t62.5 -26q52 0 76 33zM639 1276
q0 46 -25 71t-69 25t-69 -25t-25 -71q0 -49 24.5 -75.5t69.5 -26.5t69.5 26.5t24.5 75.5zM733 1276q0 -90 -49.5 -140.5t-138.5 -50.5t-140 51t-51 140q0 88 49.5 137t137.5 49q91 0 141.5 -49t50.5 -137z" />
    <glyph glyph-name="ae" unicode="&#xe6;" horiz-adv-x="1599" 
d="M1550 340q-6 -175 -120 -275t-340 -100q-315 0 -437 185q-43 -91 -126.5 -137t-190.5 -46q-145 0 -224 62.5t-79 193.5q0 148 148.5 224.5t398.5 84.5v111q0 201 -160 201q-32 0 -68 -4q74 -30 74 -121q0 -73 -46 -112.5t-130 -39.5q-78 0 -122 42t-44 118q0 85 61 147.5
t158.5 92.5t216.5 30q192 0 299 -69q113 69 277 69q128 0 221.5 -42.5t146.5 -120.5t75.5 -180t14.5 -228h-575q5 -138 36 -194t105 -56q68 0 101 41.5t41 130.5q204 -13 288 -8zM1083 797q-36 0 -57 -21.5t-33.5 -84t-13.5 -175.5h151q29 0 38.5 12.5t9.5 46.5
q0 121 -23.5 171.5t-71.5 50.5zM600 264q-20 70 -20 170v23q-80 -6 -119 -41t-39 -115q0 -69 20.5 -94t61.5 -25q77 0 96 82z" />
    <glyph glyph-name="ccedilla" unicode="&#xe7;" horiz-adv-x="1036" 
d="M401 -221l-24 51q111 46 135 135q-230 8 -351.5 130.5t-121.5 365.5q0 255 136.5 395.5t391.5 140.5q193 0 303.5 -76.5t110.5 -213.5q0 -86 -52 -135.5t-145 -49.5q-87 0 -134.5 42t-47.5 116q0 96 78 139q-34 12 -78 12q-85 0 -126.5 -73t-41.5 -250q0 -184 29 -258
t102 -74q72 0 103 42t39 130q206 -13 292 -8q-6 -178 -116 -271t-293 -102q-6 -57 -51 -102q102 6 162.5 -39t60.5 -125q0 -89 -66 -141t-182 -52q-87 0 -148 35t-92 84l50 45q58 -67 133 -67q108 0 108 100q0 55 -46.5 77.5t-117.5 -3.5z" />
    <glyph glyph-name="egrave" unicode="&#xe8;" horiz-adv-x="1050" 
d="M713 346q177 -12 288 -8q-6 -175 -120 -275t-340 -100q-239 0 -370.5 123t-131.5 375q0 257 135 396.5t373 139.5q129 0 223 -40.5t147.5 -116.5t75.5 -179t13 -235q-56 1 -184.5 1t-262.5 -0.5t-135 -0.5q6 -138 39.5 -195t107.5 -57q69 0 101.5 41t40.5 131zM535 797
q-57 0 -83.5 -58.5t-27.5 -222.5h145q34 0 48 13.5t14 62.5q0 113 -23.5 159t-72.5 46zM684 1098l-16 -25q-82 11 -182.5 44t-170.5 75q-40 25 -59 59.5t-12.5 63.5t28.5 50.5t62 20.5t88 -26q67 -38 139 -112t123 -150z" />
    <glyph glyph-name="eacute" unicode="&#xe9;" horiz-adv-x="1050" 
d="M477 1073l-16 25q50 75 124 150.5t138 111.5q33 19 64 24t53 -3t38.5 -22.5t21 -36.5t0 -44.5t-24.5 -46.5t-52 -43q-67 -39 -167 -71.5t-179 -43.5zM713 346q177 -12 288 -8q-6 -175 -120 -275t-340 -100q-239 0 -370.5 123t-131.5 375q0 257 135 396.5t373 139.5
q129 0 223 -40.5t147.5 -116.5t75.5 -179t13 -235q-56 1 -184.5 1t-262.5 -0.5t-135 -0.5q6 -138 39.5 -195t107.5 -57q69 0 101.5 41t40.5 131zM535 797q-57 0 -83.5 -58.5t-27.5 -222.5h145q34 0 48 13.5t14 62.5q0 113 -23.5 159t-72.5 46z" />
    <glyph glyph-name="ecircumflex" unicode="&#xea;" horiz-adv-x="1050" 
d="M864 1085l-18 -22q-62 14 -146.5 54.5t-144.5 86.5q-58 -44 -141 -84.5t-142 -54.5l-18 22q31 83 95 164t134 140h156q59 -46 121.5 -129t103.5 -177zM713 346q177 -12 288 -8q-6 -175 -120 -275t-340 -100q-239 0 -370.5 123t-131.5 375q0 257 135 396.5t373 139.5
q129 0 223 -40.5t147.5 -116.5t75.5 -179t13 -235q-56 1 -184.5 1t-262.5 -0.5t-135 -0.5q6 -138 39.5 -195t107.5 -57q69 0 101.5 41t40.5 131zM535 797q-57 0 -83.5 -58.5t-27.5 -222.5h145q34 0 48 13.5t14 62.5q0 113 -23.5 159t-72.5 46z" />
    <glyph glyph-name="edieresis" unicode="&#xeb;" horiz-adv-x="1050" 
d="M496 1219q0 -57 -35 -90t-90 -33q-54 0 -89.5 33t-35.5 90t35.5 90.5t89.5 33.5q55 0 90 -33.5t35 -90.5zM850 1219q0 -57 -35 -90t-90 -33q-54 0 -88.5 33t-34.5 90t34.5 90.5t88.5 33.5q55 0 90 -33.5t35 -90.5zM713 346q177 -12 288 -8q-6 -175 -120 -275t-340 -100
q-239 0 -370.5 123t-131.5 375q0 257 135 396.5t373 139.5q129 0 223 -40.5t147.5 -116.5t75.5 -179t13 -235q-56 1 -184.5 1t-262.5 -0.5t-135 -0.5q6 -138 39.5 -195t107.5 -57q69 0 101.5 41t40.5 131zM535 797q-57 0 -83.5 -58.5t-27.5 -222.5h145q34 0 48 13.5t14 62.5
q0 113 -23.5 159t-72.5 46z" />
    <glyph glyph-name="igrave" unicode="&#xec;" horiz-adv-x="669" 
d="M528 973q-3 -79 -4 -350.5t2 -333.5q3 -60 24.5 -82.5t74.5 -22.5h20q-1 -34 -1 -96t1 -90q-15 0 -144.5 2t-160.5 2q-33 0 -171.5 -2t-143.5 -2q1 28 1 91t-1 95h20q54 0 72.5 21.5t21.5 81.5q3 63 4 202t-2 197q-3 57 -22.5 77.5t-71.5 20.5h-22q4 93 0 185
q281 0 503 4zM444 1098l-16 -25q-82 11 -182 44t-170 75q-40 25 -59 59.5t-12.5 63.5t28 50.5t61.5 20.5t88 -26q67 -38 139 -112t123 -150z" />
    <glyph glyph-name="iacute" unicode="&#xed;" horiz-adv-x="669" 
d="M240 1073l-17 25q50 75 124 150.5t138 111.5q33 19 64 24t53 -3t39 -22.5t21.5 -36.5t0 -44.5t-24.5 -46.5t-52 -43q-67 -39 -167 -71.5t-179 -43.5zM528 973q-3 -79 -4 -350.5t2 -333.5q3 -60 24.5 -82.5t74.5 -22.5h20q-1 -34 -1 -96t1 -90q-15 0 -144.5 2t-160.5 2
q-33 0 -171.5 -2t-143.5 -2q1 28 1 91t-1 95h20q54 0 72.5 21.5t21.5 81.5q3 63 4 202t-2 197q-3 57 -22.5 77.5t-71.5 20.5h-22q4 93 0 185q281 0 503 4z" />
    <glyph glyph-name="icircumflex" unicode="&#xee;" horiz-adv-x="669" 
d="M612 1085l-18 -22q-62 14 -146.5 54.5t-144.5 86.5q-58 -44 -141 -84.5t-142 -54.5l-18 22q31 83 95 164t134 140h156q59 -46 121.5 -129t103.5 -177zM528 973q-3 -79 -4 -350.5t2 -333.5q3 -60 24.5 -82.5t74.5 -22.5h20q-1 -34 -1 -96t1 -90q-15 0 -144.5 2t-160.5 2
q-33 0 -171.5 -2t-143.5 -2q1 28 1 91t-1 95h20q54 0 72.5 21.5t21.5 81.5q3 63 4 202t-2 197q-3 57 -22.5 77.5t-71.5 20.5h-22q4 93 0 185q281 0 503 4z" />
    <glyph glyph-name="idieresis" unicode="&#xef;" horiz-adv-x="669" 
d="M254 1219q0 -57 -35 -90t-90 -33q-54 0 -89.5 33t-35.5 90t35.5 90.5t89.5 33.5q55 0 90 -33.5t35 -90.5zM608 1219q0 -57 -35 -90t-90 -33q-54 0 -88.5 33t-34.5 90t34.5 90.5t88.5 33.5q55 0 90 -33.5t35 -90.5zM528 973q-3 -79 -4 -350.5t2 -333.5q3 -60 24.5 -82.5
t74.5 -22.5h20q-1 -34 -1 -96t1 -90q-15 0 -144.5 2t-160.5 2q-33 0 -171.5 -2t-143.5 -2q1 28 1 91t-1 95h20q54 0 72.5 21.5t21.5 81.5q3 63 4 202t-2 197q-3 57 -22.5 77.5t-71.5 20.5h-22q4 93 0 185q281 0 503 4z" />
    <glyph glyph-name="eth" unicode="&#xf0;" horiz-adv-x="1097" 
d="M406 1073l-46 62l117 86q-76 54 -213 73l39 117q180 -6 324 -70l118 109l46 -61q-56 -44 -107 -78q186 -108 279.5 -312t93.5 -452q0 -584 -518 -584q-245 0 -372.5 123t-127.5 387q0 137 38.5 239.5t108.5 164t161 91t204 29.5q41 0 80 -8q-34 123 -107 193zM426 471
q0 -127 16 -195.5t41 -88t68 -19.5t67 20.5t39 88.5t15 194q0 133 -14.5 206t-39.5 97.5t-69 24.5q-42 0 -67 -24.5t-40.5 -98t-15.5 -205.5z" />
    <glyph glyph-name="ntilde" unicode="&#xf1;" horiz-adv-x="1304" 
d="M1163 625q-1 -37 -1 -171t1 -159q5 -65 24 -88t73 -23h16q-2 -34 -2 -97t2 -91q-2 0 -55 1t-125 2t-119 1q-30 0 -72 -0.5t-80 -1t-71 -1t-54 -1t-22 -0.5v188h18q40 0 58.5 25.5t21.5 85.5q8 150 0 326q-3 86 -27.5 126.5t-86.5 40.5q-71 0 -102.5 -57t-31.5 -178v-258
q0 -63 18 -87t62 -24h21q-1 -34 -1 -97t1 -91q-1 0 -54.5 1t-126 2t-120.5 1q-30 0 -72 -0.5t-80.5 -1t-72 -1t-55.5 -1t-23 -0.5q1 28 1 94t-1 94h20q54 0 72.5 22.5t23.5 88.5t5 200.5t-5 184.5q-5 57 -23 80.5t-71 23.5h-16q2 39 2 85.5t-1 72.5l-1 27q415 0 497 6v-203
q68 225 316 225q319 0 319 -372zM883 1339l59 19q35 -95 14 -160.5t-76.5 -100t-129.5 -34.5q-70 0 -122 30t-93 95q-25 38 -42.5 52.5t-43.5 14.5q-24 0 -40.5 -14t-22 -47.5t14.5 -89.5l-59 -19q-50 139 13.5 218t179.5 79q66 0 117 -29.5t96 -97.5q42 -67 88 -67
q40 0 54.5 34.5t-7.5 116.5z" />
    <glyph glyph-name="ograve" unicode="&#xf2;" horiz-adv-x="1122" 
d="M51 473q0 262 134.5 393t375.5 131q249 0 379.5 -130t130.5 -396q0 -508 -510 -508t-510 510zM440 471q0 -128 15 -196t39 -87.5t67 -19.5q42 0 66 19.5t39.5 88t15.5 195.5q0 132 -15 205.5t-40 98t-68 24.5q-42 0 -66.5 -24.5t-38.5 -97.5t-14 -206zM698 1098l-16 -25
q-82 11 -182 44t-170 75q-40 25 -59 59.5t-12.5 63.5t28 50.5t61.5 20.5t88 -26q67 -38 139 -112t123 -150z" />
    <glyph glyph-name="oacute" unicode="&#xf3;" horiz-adv-x="1122" 
d="M471 1073l-16 25q50 75 124 150.5t138 111.5q33 19 64 24t53 -3t38.5 -22.5t21 -36.5t0 -44.5t-24.5 -46.5t-52 -43q-67 -39 -167 -71.5t-179 -43.5zM51 473q0 262 134.5 393t375.5 131q249 0 379.5 -130t130.5 -396q0 -508 -510 -508t-510 510zM440 471q0 -128 15 -196
t39 -87.5t67 -19.5q42 0 66 19.5t39.5 88t15.5 195.5q0 132 -15 205.5t-40 98t-68 24.5q-42 0 -66.5 -24.5t-38.5 -97.5t-14 -206z" />
    <glyph glyph-name="ocircumflex" unicode="&#xf4;" horiz-adv-x="1122" 
d="M881 1085l-19 -22q-62 14 -146.5 54.5t-144.5 86.5q-58 -44 -140.5 -84.5t-141.5 -54.5l-19 22q31 83 95.5 163.5t134.5 140.5h155q60 -46 122.5 -129.5t103.5 -176.5zM51 473q0 262 134.5 393t375.5 131q249 0 379.5 -130t130.5 -396q0 -508 -510 -508t-510 510z
M440 471q0 -128 15 -196t39 -87.5t67 -19.5q42 0 66 19.5t39.5 88t15.5 195.5q0 132 -15 205.5t-40 98t-68 24.5q-42 0 -66.5 -24.5t-38.5 -97.5t-14 -206z" />
    <glyph glyph-name="otilde" unicode="&#xf5;" horiz-adv-x="1122" 
d="M51 473q0 262 134.5 393t375.5 131q249 0 379.5 -130t130.5 -396q0 -508 -510 -508t-510 510zM440 471q0 -128 15 -196t39 -87.5t67 -19.5q42 0 66 19.5t39.5 88t15.5 195.5q0 132 -15 205.5t-40 98t-68 24.5q-42 0 -66.5 -24.5t-38.5 -97.5t-14 -206zM786 1339l60 19
q35 -95 13.5 -160.5t-77 -100t-129.5 -34.5q-70 0 -122 30t-93 95q-25 38 -42.5 52.5t-43.5 14.5q-24 0 -40 -14t-21.5 -47.5t14.5 -89.5l-59 -19q-50 139 13 218t179 79q66 0 117 -29.5t96 -97.5q42 -67 88 -67q40 0 54.5 34.5t-7.5 116.5z" />
    <glyph glyph-name="odieresis" unicode="&#xf6;" horiz-adv-x="1122" 
d="M522 1219q0 -57 -35 -90t-90 -33q-54 0 -89.5 33t-35.5 90t35.5 90.5t89.5 33.5q55 0 90 -33.5t35 -90.5zM877 1219q0 -57 -35 -90t-90 -33q-54 0 -88.5 33t-34.5 90t34.5 90.5t88.5 33.5q55 0 90 -33.5t35 -90.5zM51 473q0 262 134.5 393t375.5 131q249 0 379.5 -130
t130.5 -396q0 -508 -510 -508t-510 510zM440 471q0 -128 15 -196t39 -87.5t67 -19.5q42 0 66 19.5t39.5 88t15.5 195.5q0 132 -15 205.5t-40 98t-68 24.5q-42 0 -66.5 -24.5t-38.5 -97.5t-14 -206z" />
    <glyph glyph-name="divide" unicode="&#xf7;" 
d="M756 217q0 -60 -37.5 -94.5t-104.5 -34.5q-65 0 -103 33t-38 98q0 57 40 96t101 39q67 0 104.5 -39t37.5 -98zM170 414v198q92 0 233.5 -11.5t210.5 -29.5q71 18 212 29.5t233 11.5v-198q-92 0 -234 11.5t-211 29.5q-71 -18 -212 -29.5t-232 -11.5zM756 803
q0 -60 -37.5 -94.5t-104.5 -34.5q-65 0 -103 33t-38 98q0 57 40 96t101 39q66 0 104 -39.5t38 -97.5z" />
    <glyph glyph-name="oslash" unicode="&#xf8;" horiz-adv-x="1122" 
d="M51 473q0 262 134.5 393t375.5 131q190 0 311 -75l115 125l33 -27l-88 -146q139 -133 139 -403q0 -508 -510 -508q-180 0 -303 66l-115 -117l-34 29l86 135q-144 126 -144 397zM440 471q0 -75 2 -104l111 127l119 159q-13 83 -40 114.5t-73 31.5q-42 0 -66.5 -24.5
t-38.5 -97.5t-14 -206zM682 471q0 38 -4 100l-94 -110l-131 -176q11 -69 37 -93t71 -24q42 0 66 19.5t39.5 88t15.5 195.5z" />
    <glyph glyph-name="ugrave" unicode="&#xf9;" horiz-adv-x="1259" 
d="M1147 975q-1 -12 -8 -330q0 -307 2 -340q4 -67 22 -94t54 -27h20q-1 -28 -1 -92t1 -92q-403 0 -483 -4v199q-31 -109 -107.5 -170.5t-202.5 -61.5q-157 0 -241 93.5t-84 281.5v309q0 72 -17 104.5t-61 32.5h-21q2 28 2 94.5t-2 94.5q176 -4 242 -4q208 0 250 6
q-8 -156 -8 -338q0 -205 2 -258q5 -205 112 -205q80 0 108 81.5t28 274.5v140q0 63 -25 88.5t-96 25.5h-15q2 28 2 94.5t-2 94.5q199 -4 271 -4q216 0 258 6zM674 1098l-17 -25q-82 11 -182 44t-170 75q-40 25 -59 59.5t-12.5 63.5t28.5 50.5t62 20.5t88 -26
q67 -38 139 -112t123 -150z" />
    <glyph glyph-name="uacute" unicode="&#xfa;" horiz-adv-x="1259" 
d="M567 1073l-16 25q50 75 124 150.5t138 111.5q33 19 64 24t53 -3t38.5 -22.5t21 -36.5t0 -44.5t-24.5 -46.5t-52 -43q-67 -39 -167 -71.5t-179 -43.5zM1147 975q-1 -12 -8 -330q0 -307 2 -340q4 -67 22 -94t54 -27h20q-1 -28 -1 -92t1 -92q-403 0 -483 -4v199
q-31 -109 -107.5 -170.5t-202.5 -61.5q-157 0 -241 93.5t-84 281.5v309q0 72 -17 104.5t-61 32.5h-21q2 28 2 94.5t-2 94.5q176 -4 242 -4q208 0 250 6q-8 -156 -8 -338q0 -205 2 -258q5 -205 112 -205q80 0 108 81.5t28 274.5v140q0 63 -25 88.5t-96 25.5h-15q2 28 2 94.5
t-2 94.5q199 -4 271 -4q216 0 258 6z" />
    <glyph glyph-name="ucircumflex" unicode="&#xfb;" horiz-adv-x="1259" 
d="M893 1085l-19 -22q-62 14 -146 54.5t-144 86.5q-58 -44 -141 -84.5t-142 -54.5l-18 22q31 83 95 164t134 140h156q59 -46 121.5 -129t103.5 -177zM1147 975q-1 -12 -8 -330q0 -307 2 -340q4 -67 22 -94t54 -27h20q-1 -28 -1 -92t1 -92q-403 0 -483 -4v199
q-31 -109 -107.5 -170.5t-202.5 -61.5q-157 0 -241 93.5t-84 281.5v309q0 72 -17 104.5t-61 32.5h-21q2 28 2 94.5t-2 94.5q176 -4 242 -4q208 0 250 6q-8 -156 -8 -338q0 -205 2 -258q5 -205 112 -205q80 0 108 81.5t28 274.5v140q0 63 -25 88.5t-96 25.5h-15q2 28 2 94.5
t-2 94.5q199 -4 271 -4q216 0 258 6z" />
    <glyph glyph-name="udieresis" unicode="&#xfc;" horiz-adv-x="1259" 
d="M535 1219q0 -57 -35 -90t-90 -33q-54 0 -89.5 33t-35.5 90t35.5 90.5t89.5 33.5q55 0 90 -33.5t35 -90.5zM889 1219q0 -57 -35 -90t-90 -33q-54 0 -88.5 33t-34.5 90t34.5 90.5t88.5 33.5q55 0 90 -33.5t35 -90.5zM1147 975q-1 -12 -8 -330q0 -307 2 -340q4 -67 22 -94
t54 -27h20q-1 -28 -1 -92t1 -92q-403 0 -483 -4v199q-31 -109 -107.5 -170.5t-202.5 -61.5q-157 0 -241 93.5t-84 281.5v309q0 72 -17 104.5t-61 32.5h-21q2 28 2 94.5t-2 94.5q176 -4 242 -4q208 0 250 6q-8 -156 -8 -338q0 -205 2 -258q5 -205 112 -205q80 0 108 81.5
t28 274.5v140q0 63 -25 88.5t-96 25.5h-15q2 28 2 94.5t-2 94.5q199 -4 271 -4q216 0 258 6z" />
    <glyph glyph-name="yacute" unicode="&#xfd;" horiz-adv-x="1206" 
d="M809 678q28 106 -59 106h-29q1 28 1 94.5t-1 94.5q141 -6 235 -6l226 6v-189h-33q-61 0 -93.5 -26t-54.5 -82q-88 -216 -210 -604q-44 -139 -94.5 -231.5t-109.5 -142.5t-120 -69.5t-141 -19.5q-122 0 -188 55t-66 150q0 83 50.5 133.5t137.5 50.5q79 0 121.5 -39
t42.5 -111q0 -81 -73.5 -122.5t-164.5 -6.5q47 -34 113 -34q55 0 96.5 16t71.5 42.5t56.5 77.5t45.5 103t45 137q-124 3 -254 -2q-31 118 -97.5 328.5t-96.5 288.5q-23 61 -45.5 84.5t-75.5 23.5h-27q2 40 2 87t-1 75l-1 27q195 -6 324 -6l324 6q-4 -95 0 -189h-25
q-43 0 -59 -27.5t-4 -78.5q26 -120 110 -385q111 345 121 385zM672 1073l-17 25q50 75 124 150t139 112q33 19 64 24t53 -3t38.5 -22.5t21 -36.5t0 -44.5t-24.5 -46.5t-52 -43q-67 -39 -167 -71.5t-179 -43.5z" />
    <glyph glyph-name="thorn" unicode="&#xfe;" horiz-adv-x="1218" 
d="M823 -35q-235 0 -295 211v-237q0 -111 95 -111h24q-1 -28 -1 -92t1 -92q-8 0 -126.5 3t-184.5 3q-49 0 -122 -1.5t-128 -3t-61 -1.5q1 28 1 92t-1 92h20q51 0 71 25t25 86q7 97 7 597t-7 588q-5 57 -25.5 82t-68.5 25h-16v182q417 0 497 6v-667q31 119 107 182t194 63
q87 0 149 -26t107 -86.5t67 -162.5t22 -251q0 -260 -87 -383t-264 -123zM528 481q0 -161 28 -233t99 -72q73 0 99 62.5t26 242.5q0 62 -1 99t-5 76.5t-11.5 60t-20.5 39t-32.5 25.5t-47.5 7q-73 0 -103 -60t-31 -214v-33z" />
    <glyph glyph-name="ydieresis" unicode="&#xff;" horiz-adv-x="1206" 
d="M809 678q28 106 -59 106h-29q1 28 1 94.5t-1 94.5q141 -6 235 -6l226 6v-189h-33q-61 0 -93.5 -26t-54.5 -82q-88 -216 -210 -604q-44 -139 -94.5 -231.5t-109.5 -142.5t-120 -69.5t-141 -19.5q-122 0 -188 55t-66 150q0 83 50.5 133.5t137.5 50.5q79 0 121.5 -39
t42.5 -111q0 -81 -73.5 -122.5t-164.5 -6.5q47 -34 113 -34q55 0 96.5 16t71.5 42.5t56.5 77.5t45.5 103t45 137q-124 3 -254 -2q-31 118 -97.5 328.5t-96.5 288.5q-23 61 -45.5 84.5t-75.5 23.5h-27q2 40 2 87t-1 75l-1 27q195 -6 324 -6l324 6q-4 -95 0 -189h-25
q-43 0 -59 -27.5t-4 -78.5q26 -120 110 -385q111 345 121 385zM649 1219q0 -57 -35 -90t-90 -33q-54 0 -89.5 33t-35.5 90t35.5 90.5t89.5 33.5q55 0 90 -33.5t35 -90.5zM1004 1219q0 -57 -35 -90t-90 -33q-54 0 -88.5 33t-34.5 90t34.5 90.5t88.5 33.5q55 0 90 -33.5
t35 -90.5z" />
    <glyph glyph-name="Amacron" unicode="&#x100;" horiz-adv-x="1812" 
d="M942 223q147 0 72 203q-292 4 -455 2q-36 -106 -17 -155.5t97 -49.5h72q-1 -34 -1 -114.5t1 -112.5q-213 4 -334 4l-332 -4q1 32 1 112.5t-1 114.5h43q88 0 135 41t88 144q2 6 61.5 163t126 331.5t127.5 335t70 185.5q141 -4 219 -4l220 4q59 -169 192.5 -513.5
t200.5 -503.5q45 -108 86.5 -145.5t103.5 -37.5h49q-1 -34 -1 -114.5t1 -112.5q-288 4 -450 4l-453 -4q2 32 2 112.5t-2 114.5h78zM971 559q-54 158 -185 504q-117 -321 -180 -504q186 -3 365 0zM627 1548q1 31 1 94t-1 95q94 -3 290.5 -3t290.5 3q-4 -94 0 -189
q-94 3 -290.5 3t-290.5 -3z" />
    <glyph glyph-name="amacron" unicode="&#x101;" horiz-adv-x="1157" 
d="M965 575v-260q0 -84 6 -110.5t30 -26.5q58 0 37 225l82 3q12 -97 2.5 -177.5t-37.5 -138.5t-86.5 -90.5t-144.5 -32.5q-198 0 -252 146q-95 -146 -297 -146q-123 0 -197.5 60.5t-74.5 177.5q0 70 29.5 125t79.5 91t121.5 60.5t148.5 36t168 14.5v93q0 128 -49.5 175.5
t-176.5 45.5q74 -39 74 -127q0 -72 -47 -112t-131 -40q-78 0 -123 41t-45 119q0 84 61.5 146.5t159.5 93t217 30.5q126 0 212.5 -26t137.5 -81t73 -131t22 -184zM582 213q-2 16 -2 74v170q-79 -6 -118.5 -42t-39.5 -114q0 -69 21.5 -95t62.5 -26q52 0 76 33zM238 1108
q4 92 0 188q94 -3 290.5 -3t290.5 3q-4 -94 0 -188q-94 3 -290.5 3t-290.5 -3z" />
    <glyph glyph-name="Abreve" unicode="&#x102;" horiz-adv-x="1812" 
d="M942 223q147 0 72 203q-292 4 -455 2q-36 -106 -17 -155.5t97 -49.5h72q-1 -34 -1 -114.5t1 -112.5q-213 4 -334 4l-332 -4q1 32 1 112.5t-1 114.5h43q88 0 135 41t88 144q2 6 61.5 163t126 331.5t127.5 335t70 185.5q141 -4 219 -4l220 4q59 -169 192.5 -513.5
t200.5 -503.5q45 -108 86.5 -145.5t103.5 -37.5h49q-1 -34 -1 -114.5t1 -112.5q-288 4 -450 4l-453 -4q2 32 2 112.5t-2 114.5h78zM971 559q-54 158 -185 504q-117 -321 -180 -504q186 -3 365 0zM905 1520q-154 0 -226 84t-54 213l57 4q11 -113 223 -113t223 113l58 -4
q18 -129 -54.5 -213t-226.5 -84z" />
    <glyph glyph-name="abreve" unicode="&#x103;" horiz-adv-x="1157" 
d="M965 575v-260q0 -84 6 -110.5t30 -26.5q58 0 37 225l82 3q12 -97 2.5 -177.5t-37.5 -138.5t-86.5 -90.5t-144.5 -32.5q-198 0 -252 146q-95 -146 -297 -146q-123 0 -197.5 60.5t-74.5 177.5q0 70 29.5 125t79.5 91t121.5 60.5t148.5 36t168 14.5v93q0 128 -49.5 175.5
t-176.5 45.5q74 -39 74 -127q0 -72 -47 -112t-131 -40q-78 0 -123 41t-45 119q0 84 61.5 146.5t159.5 93t217 30.5q126 0 212.5 -26t137.5 -81t73 -131t22 -184zM582 213q-2 16 -2 74v170q-79 -6 -118.5 -42t-39.5 -114q0 -69 21.5 -95t62.5 -26q52 0 76 33zM532 1087
q-154 0 -226 84t-54 213l57 5q11 -113 223 -113q213 0 224 113l57 -5q18 -129 -54.5 -213t-226.5 -84z" />
    <glyph glyph-name="Aogonek" unicode="&#x104;" horiz-adv-x="1812" 
d="M1599 -129q11 -293 -249 -293q-111 0 -173.5 50t-62.5 139q0 80 46.5 140.5t125.5 92.5l-422 -4q2 32 2 112.5t-2 114.5h78q147 0 72 203q-292 4 -455 2q-36 -106 -17 -155.5t97 -49.5h72q-1 -34 -1 -114.5t1 -112.5q-213 4 -334 4l-332 -4q1 32 1 112.5t-1 114.5h43
q88 0 135 41t88 144q2 6 61.5 163t126 331.5t127.5 335t70 185.5q141 -4 219 -4l220 4q59 -169 192.5 -513.5t200.5 -503.5q45 -108 86.5 -145.5t103.5 -37.5h49q-1 -34 -1 -114.5t1 -112.5q-204 4 -364 4q-111 -40 -111 -141q0 -50 30 -74.5t77 -24.5q111 0 127 121z
M971 559q-54 158 -185 504q-117 -321 -180 -504q186 -3 365 0z" />
    <glyph glyph-name="aogonek" unicode="&#x105;" horiz-adv-x="1157" 
d="M1038 403l82 3q13 -136 -4.5 -225.5t-75.5 -151.5q-49 -54 -70.5 -94.5t-23.5 -81.5q0 -43 28 -68t73 -25q55 0 86.5 27.5t46.5 93.5l71 -10q1 -51 -4.5 -91t-22 -79t-45 -65t-76 -42t-112.5 -16q-98 0 -162 51t-61 144q6 126 131 196q-25 -2 -45 -2q-198 0 -252 146
q-95 -146 -297 -146q-123 0 -197.5 60.5t-74.5 177.5q0 70 29.5 125t79.5 91t121.5 60.5t148.5 36t168 14.5v93q0 128 -49.5 175.5t-176.5 45.5q74 -39 74 -127q0 -72 -47 -112t-131 -40q-78 0 -123 41t-45 119q0 84 61.5 146.5t159.5 93t217 30.5q126 0 212.5 -26
t137.5 -81t73 -131t22 -184v-260q0 -84 6 -110.5t30 -26.5q58 0 37 225zM582 213q-2 16 -2 74v170q-79 -6 -118.5 -42t-39.5 -114q0 -69 21.5 -95t62.5 -26q52 0 76 33z" />
    <glyph glyph-name="Cacute" unicode="&#x106;" horiz-adv-x="1488" 
d="M729 1516l-16 24q50 75 124 150.5t138 111.5q33 19 64 24t53 -3t38.5 -22.5t21 -36.5t0 -44.5t-24.5 -46.5t-52 -43q-67 -39 -167 -71t-179 -43zM1128 1360q60 -37 84 -26t31 85q28 -1 96.5 -1t96.5 1q-11 -73 -24.5 -254t-14.5 -284q-53 3 -152 3t-153 -3
q-10 161 -66.5 243t-187.5 82q-73 0 -122 -22.5t-84.5 -78.5t-52 -153t-16.5 -243q0 -124 14 -215.5t37 -145.5t58.5 -86.5t72.5 -43.5t86 -11q126 0 198 88t71 256q54 -3 167 -3t167 3q-1 -213 -64.5 -339t-206.5 -186.5t-385 -60.5q-171 0 -298.5 39t-221.5 124.5
t-142 230.5t-48 350q0 150 32.5 272.5t92.5 209.5t145.5 146.5t189.5 88t226 28.5q221 0 374 -94z" />
    <glyph glyph-name="cacute" unicode="&#x107;" horiz-adv-x="1036" 
d="M512 1073l-16 25q50 75 124 150.5t138 111.5q33 19 64 24t53 -3t38.5 -22.5t21 -36.5t0 -44.5t-24.5 -46.5t-52 -43q-67 -39 -167 -71.5t-179 -43.5zM707 348q206 -13 292 -8q-6 -188 -129.5 -281.5t-324.5 -93.5q-506 0 -506 496q0 255 136.5 395.5t391.5 140.5
q193 0 303.5 -76.5t110.5 -213.5q0 -86 -52 -135.5t-145 -49.5q-87 0 -134.5 42t-47.5 116q0 96 78 139q-34 12 -78 12q-85 0 -126.5 -73t-41.5 -250q0 -184 29 -258t102 -74q72 0 103 42t39 130z" />
    <glyph glyph-name="Ccircumflex" unicode="&#x108;" horiz-adv-x="1488" 
d="M1069 1522l-18 -23q-62 14 -146.5 54.5t-144.5 86.5q-58 -44 -141 -84.5t-142 -54.5l-18 23q31 83 95 163t134 140h156q59 -46 121.5 -129t103.5 -176zM1128 1360q60 -37 84 -26t31 85q28 -1 96.5 -1t96.5 1q-11 -73 -24.5 -254t-14.5 -284q-53 3 -152 3t-153 -3
q-10 161 -66.5 243t-187.5 82q-73 0 -122 -22.5t-84.5 -78.5t-52 -153t-16.5 -243q0 -124 14 -215.5t37 -145.5t58.5 -86.5t72.5 -43.5t86 -11q126 0 198 88t71 256q54 -3 167 -3t167 3q-1 -213 -64.5 -339t-206.5 -186.5t-385 -60.5q-171 0 -298.5 39t-221.5 124.5
t-142 230.5t-48 350q0 150 32.5 272.5t92.5 209.5t145.5 146.5t189.5 88t226 28.5q221 0 374 -94z" />
    <glyph glyph-name="ccircumflex" unicode="&#x109;" horiz-adv-x="1036" 
d="M856 1085l-18 -22q-62 14 -146.5 54.5t-144.5 86.5q-58 -44 -141 -84.5t-142 -54.5l-18 22q31 83 95 164t134 140h156q59 -46 121.5 -129t103.5 -177zM707 348q206 -13 292 -8q-6 -188 -129.5 -281.5t-324.5 -93.5q-506 0 -506 496q0 255 136.5 395.5t391.5 140.5
q193 0 303.5 -76.5t110.5 -213.5q0 -86 -52 -135.5t-145 -49.5q-87 0 -134.5 42t-47.5 116q0 96 78 139q-34 12 -78 12q-85 0 -126.5 -73t-41.5 -250q0 -184 29 -258t102 -74q72 0 103 42t39 130z" />
    <glyph glyph-name="Cdotaccent" unicode="&#x10a;" horiz-adv-x="1488" 
d="M1128 1360q60 -37 84 -26t31 85q28 -1 96.5 -1t96.5 1q-11 -73 -24.5 -254t-14.5 -284q-53 3 -152 3t-153 -3q-10 161 -66.5 243t-187.5 82q-73 0 -122 -22.5t-84.5 -78.5t-52 -153t-16.5 -243q0 -124 14 -215.5t37 -145.5t58.5 -86.5t72.5 -43.5t86 -11q126 0 198 88
t71 256q54 -3 167 -3t167 3q-1 -213 -64.5 -339t-206.5 -186.5t-385 -60.5q-171 0 -298.5 39t-221.5 124.5t-142 230.5t-48 350q0 150 32.5 272.5t92.5 209.5t145.5 146.5t189.5 88t226 28.5q221 0 374 -94zM905 1688q0 -66 -38 -105t-103 -39q-64 0 -101.5 39t-37.5 105
q0 64 37.5 101.5t101.5 37.5q65 0 103 -37.5t38 -101.5z" />
    <glyph glyph-name="cdotaccent" unicode="&#x10b;" horiz-adv-x="1036" 
d="M707 348q206 -13 292 -8q-6 -188 -129.5 -281.5t-324.5 -93.5q-506 0 -506 496q0 255 136.5 395.5t391.5 140.5q193 0 303.5 -76.5t110.5 -213.5q0 -86 -52 -135.5t-145 -49.5q-87 0 -134.5 42t-47.5 116q0 96 78 139q-34 12 -78 12q-85 0 -126.5 -73t-41.5 -250
q0 -184 29 -258t102 -74q72 0 103 42t39 130zM688 1245q0 -66 -38 -104.5t-103 -38.5q-64 0 -101.5 38.5t-37.5 104.5q0 65 37 102t102 37t103 -37.5t38 -101.5z" />
    <glyph glyph-name="Ccaron" unicode="&#x10c;" horiz-adv-x="1488" 
d="M459 1837l18 21q62 -14 147 -54.5t144 -85.5q59 43 142 84t141 56l18 -23q-31 -84 -95 -164.5t-134 -140.5h-156q-61 49 -122.5 131t-102.5 176zM1128 1360q60 -37 84 -26t31 85q28 -1 96.5 -1t96.5 1q-11 -73 -24.5 -254t-14.5 -284q-53 3 -152 3t-153 -3
q-10 161 -66.5 243t-187.5 82q-73 0 -122 -22.5t-84.5 -78.5t-52 -153t-16.5 -243q0 -124 14 -215.5t37 -145.5t58.5 -86.5t72.5 -43.5t86 -11q126 0 198 88t71 256q54 -3 167 -3t167 3q-1 -213 -64.5 -339t-206.5 -186.5t-385 -60.5q-171 0 -298.5 39t-221.5 124.5
t-142 230.5t-48 350q0 150 32.5 272.5t92.5 209.5t145.5 146.5t189.5 88t226 28.5q221 0 374 -94z" />
    <glyph glyph-name="ccaron" unicode="&#x10d;" horiz-adv-x="1036" 
d="M260 1395l19 20q62 -14 146.5 -54t143.5 -85q58 43 141 83.5t142 55.5l18 -22q-31 -85 -95 -166t-134 -140h-156q-60 48 -122 131t-103 177zM707 348q206 -13 292 -8q-6 -188 -129.5 -281.5t-324.5 -93.5q-506 0 -506 496q0 255 136.5 395.5t391.5 140.5
q193 0 303.5 -76.5t110.5 -213.5q0 -86 -52 -135.5t-145 -49.5q-87 0 -134.5 42t-47.5 116q0 96 78 139q-34 12 -78 12q-85 0 -126.5 -73t-41.5 -250q0 -184 29 -258t102 -74q72 0 103 42t39 130z" />
    <glyph glyph-name="Dcaron" unicode="&#x10e;" horiz-adv-x="1632" 
d="M471 1837l18 21q62 -14 147 -54.5t144 -85.5q59 43 142 84t141 56l18 -23q-31 -84 -95 -164.5t-134 -140.5h-156q-61 49 -122.5 131t-102.5 176zM870 1409q185 0 315.5 -40.5t214.5 -127t123.5 -215t41.5 -309.5q2 -156 -30.5 -278.5t-91.5 -204.5t-146 -135.5t-189 -77
t-225 -23.5q-277 2 -422 2l-416 -4q1 32 1 112.5t-1 114.5h49q70 0 96 25.5t31 97.5q5 89 5 367.5t-5 353.5q-4 64 -31.5 93.5t-83.5 29.5h-61q1 34 1 112.5t-1 110.5q3 0 166 -2t250 -2h409zM657 313q2 -38 23.5 -60t60.5 -22h50q86 0 143 20.5t100 74t62.5 150t19.5 243.5
q0 138 -19 229.5t-61 143.5t-99.5 73t-143.5 21h-52q-80 0 -84 -74q-6 -117 -5.5 -397t5.5 -402z" />
    <glyph glyph-name="dcaron" unicode="&#x10f;" horiz-adv-x="1523" 
d="M1155 1016q112 21 171.5 76.5t68.5 136.5q-27 -47 -99 -47q-48 0 -75 31.5t-27 89.5q0 60 37 95.5t100 35.5q65 0 100 -44.5t35 -119.5q0 -118 -83.5 -195t-215.5 -100zM403 995q227 0 287 -219v348q0 56 -21 81.5t-65 25.5h-47q4 91 0 182q292 0 518 4q-3 -198 -3 -590
t3 -546q2 -51 22 -74t64 -23h31v-184q-276 0 -502 -4v209q-31 -117 -105 -178.5t-184 -61.5q-69 0 -122.5 15.5t-98 52.5t-74 97t-45.5 150.5t-16 211.5q0 268 93 385.5t265 117.5zM690 492q0 121 -13 185.5t-39 87.5t-73 23q-50 0 -75.5 -23.5t-37.5 -86.5t-12 -186
q0 -179 22.5 -248.5t94.5 -69.5q68 0 99 64.5t34 218.5v35z" />
    <glyph glyph-name="Dcroat" unicode="&#x110;" horiz-adv-x="1632" 
d="M870 1409q185 0 315.5 -40.5t214.5 -127t123.5 -215t41.5 -309.5q2 -156 -30.5 -278.5t-91.5 -204.5t-146 -135.5t-189 -77t-225 -23.5q-277 2 -422 2l-416 -4q1 32 1 112.5t-1 114.5h49q70 0 96 25.5t31 97.5q4 90 4 268q-29 0 -70.5 -1t-50.5 -1q3 20 3.5 100.5
t-1.5 102.5q25 -2 119 -2q-1 44 -1.5 103.5t-1 96.5t-1.5 54q-4 64 -31.5 93.5t-83.5 29.5h-61q1 34 1 112.5t-1 110.5q3 0 166 -2t250 -2h409zM657 313q2 -38 23.5 -60t60.5 -22h50q86 0 143 20.5t100 74t62.5 150t19.5 243.5q0 138 -19 229.5t-61 143.5t-99.5 73
t-143.5 21h-52q-80 0 -84 -74q-6 -86 -6 -301q121 0 199 4q-2 -28 -2 -102.5t2 -100.5q-14 0 -82 1t-117 1z" />
    <glyph glyph-name="dcroat" unicode="&#x111;" horiz-adv-x="1216" 
d="M578 1032v103q27 -2 112 -2q-1 52 -22.5 75t-63.5 23h-47q4 91 0 182q292 0 518 4q-4 -144 -4 -284q80 0 107 2v-103q-12 0 -48 1t-59 1q0 -620 4 -753q2 -51 22 -74t64 -23h31v-184q-276 0 -502 -4v209q-31 -117 -105 -178.5t-184 -61.5q-69 0 -122.5 15.5t-98 52.5
t-74 97t-45.5 150.5t-16 211.5q0 268 93 385.5t265 117.5q227 0 287 -219v258q-25 0 -63 -1t-49 -1zM690 492q0 121 -13 185.5t-39 87.5t-73 23q-50 0 -75.5 -23.5t-37.5 -86.5t-12 -186q0 -179 22.5 -248.5t94.5 -69.5q68 0 99 64.5t34 218.5v35z" />
    <glyph glyph-name="Emacron" unicode="&#x112;" horiz-adv-x="1501" 
d="M866 956v64h174q-14 -208 -14 -311q0 -168 14 -314q-88 2 -170 0v58q-2 105 -37 146.5t-131 41.5h-45q0 -228 5 -289q6 -73 35.5 -101t93.5 -28h172q95 0 147.5 29t78 103t25.5 210q37 -1 121 -1t121 1q-20 -217 -20 -575q-156 10 -469 10h-512q-61 0 -158 -1t-171.5 -2
t-80.5 -1q1 32 1 112.5t-1 114.5h51q68 0 95 32t32 103q5 78 5.5 341t-3.5 352q-4 75 -33.5 107t-89.5 32h-57q1 34 1 112.5t-1 110.5q6 0 173.5 -2t238.5 -2h501q378 0 490 14q-16 -241 -12 -542q-35 1 -114.5 1t-113.5 -1q0 98 -16 160.5t-51 94t-75.5 42t-102.5 10.5
h-175q-62 0 -92.5 -29.5t-33.5 -93.5q-5 -147 -5 -287h48q93 0 127 39.5t34 138.5zM510 1548q4 92 0 189q94 -3 291 -3t291 3q-4 -94 0 -189q-94 3 -291 3t-291 -3z" />
    <glyph glyph-name="emacron" unicode="&#x113;" horiz-adv-x="1050" 
d="M713 346q177 -12 288 -8q-6 -175 -120 -275t-340 -100q-239 0 -370.5 123t-131.5 375q0 257 135 396.5t373 139.5q129 0 223 -40.5t147.5 -116.5t75.5 -179t13 -235q-56 1 -184.5 1t-262.5 -0.5t-135 -0.5q6 -138 39.5 -195t107.5 -57q69 0 101.5 41t40.5 131zM535 797
q-57 0 -83.5 -58.5t-27.5 -222.5h145q34 0 48 13.5t14 62.5q0 113 -23.5 159t-72.5 46zM256 1108q4 92 0 188q94 -3 291 -3t291 3q-4 -94 0 -188q-94 3 -291 3t-291 -3z" />
    <glyph glyph-name="Ebreve" unicode="&#x114;" horiz-adv-x="1501" 
d="M866 956v64h174q-14 -208 -14 -311q0 -168 14 -314q-88 2 -170 0v58q-2 105 -37 146.5t-131 41.5h-45q0 -228 5 -289q6 -73 35.5 -101t93.5 -28h172q95 0 147.5 29t78 103t25.5 210q37 -1 121 -1t121 1q-20 -217 -20 -575q-156 10 -469 10h-512q-61 0 -158 -1t-171.5 -2
t-80.5 -1q1 32 1 112.5t-1 114.5h51q68 0 95 32t32 103q5 78 5.5 341t-3.5 352q-4 75 -33.5 107t-89.5 32h-57q1 34 1 112.5t-1 110.5q6 0 173.5 -2t238.5 -2h501q378 0 490 14q-16 -241 -12 -542q-35 1 -114.5 1t-113.5 -1q0 98 -16 160.5t-51 94t-75.5 42t-102.5 10.5
h-175q-62 0 -92.5 -29.5t-33.5 -93.5q-5 -147 -5 -287h48q93 0 127 39.5t34 138.5zM791 1520q-154 0 -226.5 84t-54.5 213l57 4q11 -113 224 -113q212 0 223 113l57 -4q18 -129 -54 -213t-226 -84z" />
    <glyph glyph-name="ebreve" unicode="&#x115;" horiz-adv-x="1050" 
d="M713 346q177 -12 288 -8q-6 -175 -120 -275t-340 -100q-239 0 -370.5 123t-131.5 375q0 257 135 396.5t373 139.5q129 0 223 -40.5t147.5 -116.5t75.5 -179t13 -235q-56 1 -184.5 1t-262.5 -0.5t-135 -0.5q6 -138 39.5 -195t107.5 -57q69 0 101.5 41t40.5 131zM535 797
q-57 0 -83.5 -58.5t-27.5 -222.5h145q34 0 48 13.5t14 62.5q0 113 -23.5 159t-72.5 46zM545 1087q-154 0 -226.5 84t-54.5 213l58 5q11 -113 223 -113t223 113l57 -5q18 -129 -54 -213t-226 -84z" />
    <glyph glyph-name="Edotaccent" unicode="&#x116;" horiz-adv-x="1501" 
d="M866 956v64h174q-14 -208 -14 -311q0 -168 14 -314q-88 2 -170 0v58q-2 105 -37 146.5t-131 41.5h-45q0 -228 5 -289q6 -73 35.5 -101t93.5 -28h172q95 0 147.5 29t78 103t25.5 210q37 -1 121 -1t121 1q-20 -217 -20 -575q-156 10 -469 10h-512q-61 0 -158 -1t-171.5 -2
t-80.5 -1q1 32 1 112.5t-1 114.5h51q68 0 95 32t32 103q5 78 5.5 341t-3.5 352q-4 75 -33.5 107t-89.5 32h-57q1 34 1 112.5t-1 110.5q6 0 173.5 -2t238.5 -2h501q378 0 490 14q-16 -241 -12 -542q-35 1 -114.5 1t-113.5 -1q0 98 -16 160.5t-51 94t-75.5 42t-102.5 10.5
h-175q-62 0 -92.5 -29.5t-33.5 -93.5q-5 -147 -5 -287h48q93 0 127 39.5t34 138.5zM911 1688q0 -66 -38 -105t-103 -39q-64 0 -101.5 39t-37.5 105q0 64 37.5 101.5t101.5 37.5q65 0 103 -37.5t38 -101.5z" />
    <glyph glyph-name="edotaccent" unicode="&#x117;" horiz-adv-x="1050" 
d="M713 346q177 -12 288 -8q-6 -175 -120 -275t-340 -100q-239 0 -370.5 123t-131.5 375q0 257 135 396.5t373 139.5q129 0 223 -40.5t147.5 -116.5t75.5 -179t13 -235q-56 1 -184.5 1t-262.5 -0.5t-135 -0.5q6 -138 39.5 -195t107.5 -57q69 0 101.5 41t40.5 131zM535 797
q-57 0 -83.5 -58.5t-27.5 -222.5h145q34 0 48 13.5t14 62.5q0 113 -23.5 159t-72.5 46zM688 1245q0 -66 -38 -104.5t-103 -38.5q-64 0 -101.5 38.5t-37.5 104.5q0 65 37 102t102 37t103 -37.5t38 -101.5z" />
    <glyph glyph-name="Eogonek" unicode="&#x118;" horiz-adv-x="1501" 
d="M866 956v64h174q-14 -208 -14 -311q0 -168 14 -314q-88 2 -170 0v58q-2 105 -37 146.5t-131 41.5h-45q0 -228 5 -289q6 -73 35.5 -101t93.5 -28h172q95 0 147.5 29t78 103t25.5 210q37 -1 121 -1t121 1q-20 -217 -20 -575q-48 4 -172 8q-103 -43 -103 -139
q0 -50 30 -74.5t77 -24.5q111 0 127 121l73 -10q11 -293 -249 -293q-111 0 -173.5 50t-62.5 139q0 79 45.5 139t122.5 94h-696q-61 0 -158 -1t-171.5 -2t-80.5 -1q1 32 1 112.5t-1 114.5h51q68 0 95 32t32 103q5 78 5.5 341t-3.5 352q-4 75 -33.5 107t-89.5 32h-57
q1 34 1 112.5t-1 110.5q6 0 173.5 -2t238.5 -2h501q378 0 490 14q-16 -241 -12 -542q-35 1 -114.5 1t-113.5 -1q0 98 -16 160.5t-51 94t-75.5 42t-102.5 10.5h-175q-62 0 -92.5 -29.5t-33.5 -93.5q-5 -147 -5 -287h48q93 0 127 39.5t34 138.5z" />
    <glyph glyph-name="eogonek" unicode="&#x119;" horiz-adv-x="1050" 
d="M1034 -129q1 -64 -9 -112.5t-37 -91.5t-81.5 -66t-134.5 -23q-96 0 -160 51t-63 144q3 127 145 204q-57 -14 -153 -14q-239 0 -370.5 123t-131.5 375q0 257 135 396.5t373 139.5q129 0 223 -40.5t147.5 -116.5t75.5 -179t13 -235q-56 1 -184.5 1t-262.5 -0.5t-135 -0.5
q6 -138 39.5 -195t107.5 -57q69 0 101.5 41t40.5 131q177 -12 288 -8q-3 -101 -41.5 -173.5t-113.5 -131.5q-66 -52 -91.5 -91t-27.5 -89q0 -44 27.5 -68.5t72.5 -24.5q57 0 88 27.5t46 93.5zM535 797q-57 0 -83.5 -58.5t-27.5 -222.5h145q34 0 48 13.5t14 62.5
q0 113 -23.5 159t-72.5 46z" />
    <glyph glyph-name="Ecaron" unicode="&#x11a;" horiz-adv-x="1501" 
d="M459 1837l18 21q62 -14 147 -54.5t144 -85.5q59 43 142 84t141 56l18 -23q-31 -84 -95 -164.5t-134 -140.5h-156q-61 49 -122.5 131t-102.5 176zM866 956v64h174q-14 -208 -14 -311q0 -168 14 -314q-88 2 -170 0v58q-2 105 -37 146.5t-131 41.5h-45q0 -228 5 -289
q6 -73 35.5 -101t93.5 -28h172q95 0 147.5 29t78 103t25.5 210q37 -1 121 -1t121 1q-20 -217 -20 -575q-156 10 -469 10h-512q-61 0 -158 -1t-171.5 -2t-80.5 -1q1 32 1 112.5t-1 114.5h51q68 0 95 32t32 103q5 78 5.5 341t-3.5 352q-4 75 -33.5 107t-89.5 32h-57
q1 34 1 112.5t-1 110.5q6 0 173.5 -2t238.5 -2h501q378 0 490 14q-16 -241 -12 -542q-35 1 -114.5 1t-113.5 -1q0 98 -16 160.5t-51 94t-75.5 42t-102.5 10.5h-175q-62 0 -92.5 -29.5t-33.5 -93.5q-5 -147 -5 -287h48q93 0 127 39.5t34 138.5z" />
    <glyph glyph-name="ecaron" unicode="&#x11b;" horiz-adv-x="1050" 
d="M240 1395l18 20q63 -14 147.5 -54t143.5 -85q58 43 140.5 83.5t141.5 55.5l19 -22q-31 -85 -95 -166t-134 -140h-156q-60 48 -122 131t-103 177zM713 346q177 -12 288 -8q-6 -175 -120 -275t-340 -100q-239 0 -370.5 123t-131.5 375q0 257 135 396.5t373 139.5
q129 0 223 -40.5t147.5 -116.5t75.5 -179t13 -235q-56 1 -184.5 1t-262.5 -0.5t-135 -0.5q6 -138 39.5 -195t107.5 -57q69 0 101.5 41t40.5 131zM535 797q-57 0 -83.5 -58.5t-27.5 -222.5h145q34 0 48 13.5t14 62.5q0 113 -23.5 159t-72.5 46z" />
    <glyph glyph-name="Gcircumflex" unicode="&#x11c;" horiz-adv-x="1599" 
d="M1079 1522l-18 -23q-62 14 -146.5 54.5t-144.5 86.5q-58 -44 -141 -84.5t-142 -54.5l-18 23q31 83 95 163t134 140h156q59 -46 121.5 -129t103.5 -176zM752 1454q222 0 376 -96q58 -39 83 -26.5t32 87.5q28 -1 96.5 -1t96.5 1q-11 -73 -24.5 -254t-14.5 -284
q-53 3 -152 3t-153 -3q-10 161 -66.5 243t-187.5 82q-73 0 -122 -22.5t-84.5 -78.5t-52 -153t-16.5 -243q0 -124 14.5 -215.5t38.5 -145.5t60 -86.5t71.5 -43.5t81.5 -11q110 0 172 60t62 186q0 75 -20.5 107t-79.5 32h-68v168q227 -6 346 -6l334 6q-2 -92 0 -168h-47
q-43 0 -58.5 -24.5t-15.5 -84.5q0 -301 29 -487q-125 8 -244 0q-19 73 -53 164q-56 -93 -172 -147t-264 -54q-124 0 -224.5 23t-187.5 77.5t-145.5 139.5t-91.5 214t-33 296q0 187 49.5 330t140.5 233.5t215.5 136t278.5 45.5z" />
    <glyph glyph-name="gcircumflex" unicode="&#x11d;" horiz-adv-x="1073" 
d="M498 997q84 0 159 -16q15 67 56 117q-105 42 -189 106q-58 -44 -140.5 -84.5t-141.5 -54.5l-19 22q31 83 95.5 163.5t134.5 140.5h155q105 -84 189 -234q34 12 75 12q83 0 129 -39t46 -110q0 -59 -29.5 -91t-83.5 -32q-53 0 -82 27.5t-29 76.5q0 37 19 62
q-87 -19 -121 -98q235 -78 235 -334q0 -179 -122 -276t-336 -97q-98 0 -174 18q-62 -10 -62 -43q0 -29 63 -37t265 -10q112 -1 194 -13.5t133 -33.5t81 -55.5t41.5 -73.5t11.5 -92q0 -68 -32.5 -126.5t-97.5 -105t-172.5 -73.5t-246.5 -27q-135 0 -230 14.5t-149.5 42.5
t-78.5 64.5t-24 85.5q0 94 121 137q-90 53 -90 160q0 93 53.5 145.5t141.5 67.5q-97 43 -149 126.5t-52 201.5q0 177 121.5 271.5t331.5 94.5zM498 -131q-160 3 -250 25q-66 -27 -66 -72q0 -98 316 -98q90 0 162.5 9.5t115 25t64.5 33.5t22 36q0 28 -51.5 34.5t-204.5 6.5
h-108zM502 834q-56 0 -75 -42t-19 -163q0 -119 21.5 -163t72.5 -44q56 0 74 42t18 165t-18.5 164t-73.5 41z" />
    <glyph glyph-name="Gbreve" unicode="&#x11e;" horiz-adv-x="1599" 
d="M752 1454q222 0 376 -96q58 -39 83 -26.5t32 87.5q28 -1 96.5 -1t96.5 1q-11 -73 -24.5 -254t-14.5 -284q-53 3 -152 3t-153 -3q-10 161 -66.5 243t-187.5 82q-73 0 -122 -22.5t-84.5 -78.5t-52 -153t-16.5 -243q0 -124 14.5 -215.5t38.5 -145.5t60 -86.5t71.5 -43.5
t81.5 -11q110 0 172 60t62 186q0 75 -20.5 107t-79.5 32h-68v168q227 -6 346 -6l334 6q-2 -92 0 -168h-47q-43 0 -58.5 -24.5t-15.5 -84.5q0 -301 29 -487q-125 8 -244 0q-19 73 -53 164q-56 -93 -172 -147t-264 -54q-124 0 -224.5 23t-187.5 77.5t-145.5 139.5t-91.5 214
t-33 296q0 187 49.5 330t140.5 233.5t215.5 136t278.5 45.5zM760 1520q-154 0 -226.5 84t-54.5 213l58 4q11 -113 223 -113t223 113l57 -4q18 -129 -54 -213t-226 -84z" />
    <glyph glyph-name="gbreve" unicode="&#x11f;" horiz-adv-x="1073" 
d="M498 997q84 0 159 -16q20 84 75 136t140 52q83 0 129 -39t46 -110q0 -59 -29.5 -91t-83.5 -32q-53 0 -82 27.5t-29 76.5q0 37 19 62q-87 -19 -121 -98q235 -78 235 -334q0 -179 -122 -276t-336 -97q-98 0 -174 18q-62 -10 -62 -43q0 -29 63 -37t265 -10q112 -1 194 -13.5
t133 -33.5t81 -55.5t41.5 -73.5t11.5 -92q0 -68 -32.5 -126.5t-97.5 -105t-172.5 -73.5t-246.5 -27q-135 0 -230 14.5t-149.5 42.5t-78.5 64.5t-24 85.5q0 94 121 137q-90 53 -90 160q0 93 53.5 145.5t141.5 67.5q-97 43 -149 126.5t-52 201.5q0 177 121.5 271.5t331.5 94.5
zM498 -131q-160 3 -250 25q-66 -27 -66 -72q0 -98 316 -98q90 0 162.5 9.5t115 25t64.5 33.5t22 36q0 28 -51.5 34.5t-204.5 6.5h-108zM502 834q-56 0 -75 -42t-19 -163q0 -119 21.5 -163t72.5 -44q56 0 74 42t18 165t-18.5 164t-73.5 41zM471 1087q-154 0 -226.5 84
t-54.5 213l58 5q11 -113 223 -113t223 113l58 -5q18 -129 -54.5 -213t-226.5 -84z" />
    <glyph glyph-name="Gdotaccent" unicode="&#x120;" horiz-adv-x="1599" 
d="M752 1454q222 0 376 -96q58 -39 83 -26.5t32 87.5q28 -1 96.5 -1t96.5 1q-11 -73 -24.5 -254t-14.5 -284q-53 3 -152 3t-153 -3q-10 161 -66.5 243t-187.5 82q-73 0 -122 -22.5t-84.5 -78.5t-52 -153t-16.5 -243q0 -124 14.5 -215.5t38.5 -145.5t60 -86.5t71.5 -43.5
t81.5 -11q110 0 172 60t62 186q0 75 -20.5 107t-79.5 32h-68v168q227 -6 346 -6l334 6q-2 -92 0 -168h-47q-43 0 -58.5 -24.5t-15.5 -84.5q0 -301 29 -487q-125 8 -244 0q-19 73 -53 164q-56 -93 -172 -147t-264 -54q-124 0 -224.5 23t-187.5 77.5t-145.5 139.5t-91.5 214
t-33 296q0 187 49.5 330t140.5 233.5t215.5 136t278.5 45.5zM887 1688q0 -66 -38.5 -105t-103.5 -39q-64 0 -101.5 39t-37.5 105q0 64 37 101.5t102 37.5t103.5 -37.5t38.5 -101.5z" />
    <glyph glyph-name="gdotaccent" unicode="&#x121;" horiz-adv-x="1073" 
d="M498 997q84 0 159 -16q20 84 75 136t140 52q83 0 129 -39t46 -110q0 -59 -29.5 -91t-83.5 -32q-53 0 -82 27.5t-29 76.5q0 37 19 62q-87 -19 -121 -98q235 -78 235 -334q0 -179 -122 -276t-336 -97q-98 0 -174 18q-62 -10 -62 -43q0 -29 63 -37t265 -10q112 -1 194 -13.5
t133 -33.5t81 -55.5t41.5 -73.5t11.5 -92q0 -68 -32.5 -126.5t-97.5 -105t-172.5 -73.5t-246.5 -27q-135 0 -230 14.5t-149.5 42.5t-78.5 64.5t-24 85.5q0 94 121 137q-90 53 -90 160q0 93 53.5 145.5t141.5 67.5q-97 43 -149 126.5t-52 201.5q0 177 121.5 271.5t331.5 94.5
zM498 -131q-160 3 -250 25q-66 -27 -66 -72q0 -98 316 -98q90 0 162.5 9.5t115 25t64.5 33.5t22 36q0 28 -51.5 34.5t-204.5 6.5h-108zM502 834q-56 0 -75 -42t-19 -163q0 -119 21.5 -163t72.5 -44q56 0 74 42t18 165t-18.5 164t-73.5 41zM643 1245q0 -66 -38 -104.5
t-103 -38.5t-102.5 38.5t-37.5 104.5q0 64 37.5 101.5t102.5 37.5t103 -37.5t38 -101.5z" />
    <glyph glyph-name="Gcommaaccent" unicode="&#x122;" horiz-adv-x="1599" 
d="M580 -539q112 21 171 76.5t68 136.5q-27 -47 -98 -47q-48 0 -75.5 31.5t-27.5 89.5q0 60 37.5 95.5t100.5 35.5q65 0 100 -44.5t35 -119.5q0 -118 -83.5 -195t-215.5 -100zM752 1454q222 0 376 -96q58 -39 83 -26.5t32 87.5q28 -1 96.5 -1t96.5 1q-11 -73 -24.5 -254
t-14.5 -284q-53 3 -152 3t-153 -3q-10 161 -66.5 243t-187.5 82q-73 0 -122 -22.5t-84.5 -78.5t-52 -153t-16.5 -243q0 -124 14.5 -215.5t38.5 -145.5t60 -86.5t71.5 -43.5t81.5 -11q110 0 172 60t62 186q0 75 -20.5 107t-79.5 32h-68v168q227 -6 346 -6l334 6
q-2 -92 0 -168h-47q-43 0 -58.5 -24.5t-15.5 -84.5q0 -301 29 -487q-125 8 -244 0q-19 73 -53 164q-56 -93 -172 -147t-264 -54q-124 0 -224.5 23t-187.5 77.5t-145.5 139.5t-91.5 214t-33 296q0 187 49.5 330t140.5 233.5t215.5 136t278.5 45.5z" />
    <glyph glyph-name="gcommaaccent" unicode="&#x123;" horiz-adv-x="1073" 
d="M684 1552q-112 -21 -171.5 -76.5t-68.5 -136.5q27 47 99 47q48 0 75 -31t27 -89q0 -60 -37 -95.5t-100 -35.5q-65 0 -100 44t-35 119q0 118 83.5 195t215.5 100zM498 997q84 0 159 -16q20 84 75 136t140 52q83 0 129 -39t46 -110q0 -59 -29.5 -91t-83.5 -32
q-53 0 -82 27.5t-29 76.5q0 37 19 62q-87 -19 -121 -98q235 -78 235 -334q0 -179 -122 -276t-336 -97q-98 0 -174 18q-62 -10 -62 -43q0 -29 63 -37t265 -10q112 -1 194 -13.5t133 -33.5t81 -55.5t41.5 -73.5t11.5 -92q0 -68 -32.5 -126.5t-97.5 -105t-172.5 -73.5
t-246.5 -27q-135 0 -230 14.5t-149.5 42.5t-78.5 64.5t-24 85.5q0 94 121 137q-90 53 -90 160q0 93 53.5 145.5t141.5 67.5q-97 43 -149 126.5t-52 201.5q0 177 121.5 271.5t331.5 94.5zM498 -131q-160 3 -250 25q-66 -27 -66 -72q0 -98 316 -98q90 0 162.5 9.5t115 25
t64.5 33.5t22 36q0 28 -51.5 34.5t-204.5 6.5h-108zM502 834q-56 0 -75 -42t-19 -163q0 -119 21.5 -163t72.5 -44q56 0 74 42t18 165t-18.5 164t-73.5 41z" />
    <glyph glyph-name="Hcircumflex" unicode="&#x124;" horiz-adv-x="1734" 
d="M1171 1522l-18 -23q-62 14 -146.5 54.5t-144.5 86.5q-58 -44 -140.5 -84.5t-141.5 -54.5l-19 23q31 83 95 163t135 140h155q59 -46 121.5 -129t103.5 -176zM45 -6q1 34 1 114.5t-1 114.5h61q66 0 88 21t27 86q5 83 5 379.5t-5 365.5q-5 61 -28.5 88t-77.5 27h-70
q1 34 1 112.5t-1 110.5q250 -4 389 -4q62 0 155.5 1t162 2t69.5 1q-1 -32 -1 -110.5t1 -112.5h-53q-56 0 -84.5 -27.5t-32.5 -87.5q-4 -41 -4 -305q209 -3 438 0q0 266 -2 305q-4 60 -33 87.5t-85 27.5h-54q1 34 1 112.5t-1 110.5q248 -4 387 -4q62 0 156 1t162.5 2t69.5 1
q-4 -112 0 -223h-66q-54 0 -78 -27t-29 -88q-5 -67 -5 -365t5 -378q3 -61 26 -85t87 -24h60q-4 -114 0 -229q-247 6 -388 6l-387 -6q1 34 1 114.5t-1 114.5h58q64 0 89 26.5t25 82.5q0 12 1 117t1 182q-229 3 -438 0q0 -209 4 -299q3 -58 25 -83.5t88 -25.5h57
q-1 -34 -1 -114.5t1 -114.5q-248 6 -387 6z" />
    <glyph glyph-name="hcircumflex" unicode="&#x125;" horiz-adv-x="1296" 
d="M598 1503l-18 -22q-62 14 -146.5 54.5t-144.5 86.5q-58 -44 -141 -84.5t-142 -54.5l-18 22q31 83 95 163t134 140h156q59 -46 121.5 -129t103.5 -176zM1163 625q-1 -37 -1 -171t1 -159q3 -61 22 -86t68 -25h17q-2 -34 -2 -97t2 -91q-2 0 -54.5 1t-124 2t-118.5 1
q-29 0 -69.5 -0.5t-78.5 -1t-71 -1t-54 -1t-22 -0.5v188h18q42 0 59.5 24.5t20.5 86.5q5 99 0 326q-3 86 -27.5 126.5t-86.5 40.5q-134 0 -134 -217v-282q0 -58 17.5 -81.5t64.5 -23.5h19q-2 -94 0 -188q-1 0 -54.5 1t-126 2t-120.5 1q-30 0 -72 -0.5t-80.5 -1t-72 -1
t-55.5 -1t-23 -0.5q1 28 1 92t-1 96h24q52 0 69.5 21t22.5 82q5 52 5 416.5t-5 418.5q-5 61 -22 84t-70 23h-18v184q426 0 506 6q-9 -189 -9 -563v-80q66 221 316 221q158 0 238.5 -97.5t80.5 -274.5z" />
    <glyph glyph-name="Hbar" unicode="&#x126;" horiz-adv-x="1734" 
d="M45 -6q1 34 1 114.5t-1 114.5h61q66 0 88 21t27 86q8 158 4 565l-106 -2v127l104 -2q0 96 -22.5 134t-85.5 38h-70q1 34 1 112.5t-1 110.5q250 -4 389 -4q62 0 155.5 1t162 2t69.5 1q-1 -32 -1 -110.5t1 -112.5h-53q-73 0 -96 -42.5t-25 -131.5h438q2 95 -25 134.5
t-95 39.5h-54q1 34 1 112.5t-1 110.5q248 -4 387 -4q62 0 156 1t162.5 2t69.5 1q-4 -112 0 -223h-66q-61 0 -85 -37.5t-24 -134.5l109 2v-127l-111 2q-4 -412 4 -563q3 -61 26 -85t87 -24h60q-4 -114 0 -229q-247 6 -388 6l-387 -6q1 34 1 114.5t-1 114.5h58q64 0 89 26.5
t25 82.5q0 12 1 117t1 182q-229 3 -438 0q0 -209 4 -299q3 -58 25 -83.5t88 -25.5h57q-1 -34 -1 -114.5t1 -114.5q-248 6 -387 6zM1085 895h-438v-125q209 -3 438 0v125z" />
    <glyph glyph-name="hbar" unicode="&#x127;" horiz-adv-x="1296" 
d="M41 1030v105q25 -2 100 -2q-5 54 -23.5 75t-68.5 21h-18v184q426 0 506 6q-9 -207 -9 -286q84 0 113 2v-103q-29 2 -113 2v-258q66 221 316 221q158 0 238.5 -97.5t80.5 -274.5v-330q3 -61 22 -86t68 -25h17q-2 -34 -2 -97t2 -91q-2 0 -54.5 1t-124 2t-118.5 1
q-29 0 -69.5 -0.5t-78.5 -1t-71 -1t-54 -1t-22 -0.5v188h18q42 0 59.5 24.5t20.5 86.5q5 99 0 326q-3 86 -27.5 126.5t-86.5 40.5q-134 0 -134 -217v-282q0 -58 17.5 -81.5t64.5 -23.5h19q-2 -94 0 -188q-1 0 -54.5 1t-126 2t-120.5 1q-30 0 -72 -0.5t-80.5 -1t-72 -1
t-55.5 -1t-23 -0.5q1 28 1 92t-1 96h24q52 0 69.5 21t22.5 82q3 44 4 316.5t-2 430.5q-52 0 -102 -4z" />
    <glyph glyph-name="Itilde" unicode="&#x128;" horiz-adv-x="876" 
d="M49 -6q1 34 1 114.5t-1 114.5h66q60 0 80.5 25t25.5 84q5 72 5 373t-5 370q-5 61 -28.5 88t-77.5 27h-66q1 34 1 112.5t-1 110.5q252 -4 391 -4q62 0 156 1t163 2t70 1q-1 -32 -1 -110.5t1 -112.5h-65q-54 0 -78 -27t-29 -88q-6 -74 -5.5 -370t5.5 -373q3 -56 26.5 -82.5
t80.5 -26.5h63q-1 -34 -1 -114.5t1 -114.5q-248 6 -389 6zM680 1782l59 18q35 -95 14 -160.5t-76.5 -100t-129.5 -34.5q-70 0 -122 30t-93 95q-25 38 -42.5 53t-43.5 15q-24 0 -40 -14.5t-21.5 -48t14.5 -89.5l-60 -18q-50 139 13.5 218t179.5 79q66 0 117 -29.5t96 -97.5
q23 -37 43 -52.5t45 -15.5q39 0 54 35t-7 117z" />
    <glyph glyph-name="itilde" unicode="&#x129;" horiz-adv-x="669" 
d="M528 973q-3 -79 -4 -350.5t2 -333.5q3 -60 24.5 -82.5t74.5 -22.5h20q-1 -34 -1 -96t1 -90q-15 0 -144.5 2t-160.5 2q-33 0 -171.5 -2t-143.5 -2q1 28 1 91t-1 95h20q54 0 72.5 21.5t21.5 81.5q3 63 4 202t-2 197q-3 57 -22.5 77.5t-71.5 20.5h-22q4 93 0 185
q281 0 503 4zM557 1339l59 19q35 -95 14 -160.5t-76.5 -100t-129.5 -34.5q-70 0 -122 30t-93 95q-25 38 -42.5 52.5t-43.5 14.5q-24 0 -40 -14t-21.5 -47.5t14.5 -89.5l-60 -19q-50 139 13.5 218t179.5 79q66 0 117 -29.5t96 -97.5q42 -67 88 -67q40 0 54.5 34.5t-7.5 116.5
z" />
    <glyph glyph-name="Imacron" unicode="&#x12a;" horiz-adv-x="876" 
d="M49 -6q1 34 1 114.5t-1 114.5h66q60 0 80.5 25t25.5 84q5 72 5 373t-5 370q-5 61 -28.5 88t-77.5 27h-66q1 34 1 112.5t-1 110.5q252 -4 391 -4q62 0 156 1t163 2t70 1q-1 -32 -1 -110.5t1 -112.5h-65q-54 0 -78 -27t-29 -88q-6 -74 -5.5 -370t5.5 -373q3 -56 26.5 -82.5
t80.5 -26.5h63q-1 -34 -1 -114.5t1 -114.5q-248 6 -389 6zM150 1548q4 92 0 189q94 -3 290.5 -3t290.5 3q-4 -94 0 -189q-94 3 -290.5 3t-290.5 -3z" />
    <glyph glyph-name="imacron" unicode="&#x12b;" horiz-adv-x="669" 
d="M528 973q-3 -79 -4 -350.5t2 -333.5q3 -60 24.5 -82.5t74.5 -22.5h20q-1 -34 -1 -96t1 -90q-15 0 -144.5 2t-160.5 2q-33 0 -171.5 -2t-143.5 -2q1 28 1 91t-1 95h20q54 0 72.5 21.5t21.5 81.5q3 63 4 202t-2 197q-3 57 -22.5 77.5t-71.5 20.5h-22q4 93 0 185
q281 0 503 4zM20 1108q4 92 0 188q94 -3 291 -3t291 3q-4 -94 0 -188q-94 3 -291 3t-291 -3z" />
    <glyph glyph-name="Ibreve" unicode="&#x12c;" horiz-adv-x="876" 
d="M49 -6q1 34 1 114.5t-1 114.5h66q60 0 80.5 25t25.5 84q5 72 5 373t-5 370q-5 61 -28.5 88t-77.5 27h-66q1 34 1 112.5t-1 110.5q252 -4 391 -4q62 0 156 1t163 2t70 1q-1 -32 -1 -110.5t1 -112.5h-65q-54 0 -78 -27t-29 -88q-6 -74 -5.5 -370t5.5 -373q3 -56 26.5 -82.5
t80.5 -26.5h63q-1 -34 -1 -114.5t1 -114.5q-248 6 -389 6zM438 1520q-154 0 -226 84t-54 213l57 4q11 -113 223 -113q213 0 224 113l57 -4q18 -129 -54.5 -213t-226.5 -84z" />
    <glyph glyph-name="ibreve" unicode="&#x12d;" horiz-adv-x="669" 
d="M528 973q-3 -79 -4 -350.5t2 -333.5q3 -60 24.5 -82.5t74.5 -22.5h20q-1 -34 -1 -96t1 -90q-15 0 -144.5 2t-160.5 2q-33 0 -171.5 -2t-143.5 -2q1 28 1 91t-1 95h20q54 0 72.5 21.5t21.5 81.5q3 63 4 202t-2 197q-3 57 -22.5 77.5t-71.5 20.5h-22q4 93 0 185
q281 0 503 4zM303 1087q-154 0 -226 84t-54 213l57 5q11 -113 223 -113t223 113l58 -5q18 -129 -54.5 -213t-226.5 -84z" />
    <glyph glyph-name="Iogonek" unicode="&#x12e;" horiz-adv-x="876" 
d="M727 -129q5 -132 -52.5 -212.5t-197.5 -80.5q-110 0 -172.5 50t-62.5 139q0 80 46.5 140.5t125.5 92.5l-365 -6q1 34 1 114.5t-1 114.5h66q60 0 80.5 25t25.5 84q5 72 5 373t-5 370q-5 61 -28.5 88t-77.5 27h-66q1 34 1 112.5t-1 110.5q252 -4 391 -4q62 0 156 1t163 2
t70 1q-1 -32 -1 -110.5t1 -112.5h-65q-54 0 -78 -27t-29 -88q-6 -74 -5.5 -370t5.5 -373q3 -56 26.5 -82.5t80.5 -26.5h63q-1 -34 -1 -114.5t1 -114.5q-162 4 -299 6q-108 -39 -108 -141q0 -50 29.5 -74.5t76.5 -24.5q111 0 127 121z" />
    <glyph glyph-name="iogonek" unicode="&#x12f;" horiz-adv-x="669" 
d="M608 -129q5 -132 -52.5 -212.5t-197.5 -80.5q-110 0 -172.5 50t-62.5 139q0 80 46.5 140.5t125.5 92.5q-32 0 -71 -0.5t-72.5 -1t-62 -1t-46 -1t-18.5 -0.5q1 28 1 92t-1 96h20q54 0 72.5 21.5t21.5 81.5q3 63 4 202t-2 197q-3 57 -22.5 77.5t-71.5 20.5h-22q4 93 0 185
q281 0 503 4q-3 -79 -4 -350.5t2 -333.5q3 -60 24.5 -82.5t74.5 -22.5h20q-1 -34 -1 -97t1 -91q-1 0 -38 1t-93 2t-102 1q-111 -40 -111 -141q0 -50 30 -74.5t77 -24.5q111 0 127 121zM537 1272q0 -98 -56 -154.5t-153 -56.5t-152 56.5t-55 154.5q0 97 55 153t152 56
t153 -56t56 -153z" />
    <glyph glyph-name="Idotaccent" unicode="&#x130;" horiz-adv-x="876" 
d="M49 -6q1 34 1 114.5t-1 114.5h66q60 0 80.5 25t25.5 84q5 72 5 373t-5 370q-5 61 -28.5 88t-77.5 27h-66q1 34 1 112.5t-1 110.5q252 -4 391 -4q62 0 156 1t163 2t70 1q-1 -32 -1 -110.5t1 -112.5h-65q-54 0 -78 -27t-29 -88q-6 -74 -5.5 -370t5.5 -373q3 -56 26.5 -82.5
t80.5 -26.5h63q-1 -34 -1 -114.5t1 -114.5q-248 6 -389 6zM580 1688q0 -66 -38.5 -105t-103.5 -39q-64 0 -101.5 39t-37.5 105q0 64 37.5 101.5t101.5 37.5q65 0 103.5 -37.5t38.5 -101.5z" />
    <glyph glyph-name="dotlessi" unicode="&#x131;" horiz-adv-x="669" 
d="M528 973q-3 -79 -4 -350.5t2 -333.5q3 -60 24.5 -82.5t74.5 -22.5h20q-1 -34 -1 -96t1 -90q-15 0 -144.5 2t-160.5 2q-33 0 -171.5 -2t-143.5 -2q1 28 1 91t-1 95h20q54 0 72.5 21.5t21.5 81.5q3 63 4 202t-2 197q-3 57 -22.5 77.5t-71.5 20.5h-22q4 93 0 185
q281 0 503 4z" />
    <glyph glyph-name="IJ" unicode="&#x132;" horiz-adv-x="2054" 
d="M49 -6q1 34 1 114.5t-1 114.5h66q60 0 80.5 25t25.5 84q5 72 5 373t-5 370q-5 61 -28.5 88t-77.5 27h-66q1 34 1 112.5t-1 110.5q252 -4 391 -4q62 0 156 1t163 2t70 1q-1 -32 -1 -110.5t1 -112.5h-65q-54 0 -78 -27t-29 -88q-6 -74 -5.5 -370t5.5 -373q3 -56 26.5 -82.5
t80.5 -26.5h63q-1 -34 -1 -114.5t1 -114.5q-248 6 -389 6zM1276 317q0 -89 -59 -136.5t-158 -45.5q58 -37 145 -37q105 0 158.5 64.5t60.5 234.5q5 121 5 366t-5 312q-5 61 -28 88t-78 27h-72q1 34 1 112.5t-1 110.5q246 -4 383 -4q61 0 153.5 1t160.5 2t69 1
q-1 -32 -1 -110.5t1 -112.5h-45q-55 0 -80 -24t-26 -91q-1 -13 -1 -113v-210t0.5 -220t0.5 -120q1 -216 -144 -331.5t-407 -115.5q-208 0 -322.5 87t-114.5 235q0 97 57 156t158 59q87 0 138 -49.5t51 -135.5z" />
    <glyph glyph-name="ij" unicode="&#x133;" horiz-adv-x="1193" 
d="M528 973q-3 -79 -4 -350.5t2 -333.5q3 -60 24.5 -82.5t74.5 -22.5h20q-1 -34 -1 -97t1 -91q-1 0 -56 1t-129.5 2t-123.5 1q-32 0 -75 -0.5t-82 -1t-74 -1t-57 -1t-23 -0.5q1 28 1 92t-1 96h20q54 0 72.5 21.5t21.5 81.5q3 63 4 202t-2 197q-3 57 -22.5 77.5t-71.5 20.5
h-22q4 93 0 185q281 0 503 4zM537 1272q0 -98 -56 -154.5t-153 -56.5t-152 56.5t-55 154.5q0 97 55 153t152 56t153 -56t56 -153zM676 -178q0 -64 -48 -102t-120 -25q39 -27 90 -27q70 0 106.5 47t40.5 150q4 109 5 446t-2 379q-6 94 -89 94h-22v185q424 0 504 6
q-6 -102 -6 -352v-584q0 -221 -110 -335t-318 -114q-147 0 -231.5 54t-84.5 153q0 74 39.5 114t112.5 40q63 0 98 -34t35 -95zM1145 1272q0 -98 -55.5 -154.5t-153.5 -56.5q-95 0 -150 56.5t-55 154.5q0 97 55 153t150 56q98 0 153.5 -56t55.5 -153z" />
    <glyph glyph-name="Jcircumflex" unicode="&#x134;" horiz-adv-x="1210" 
d="M1081 1522l-18 -23q-62 14 -146.5 54.5t-144.5 86.5q-58 -44 -141 -84.5t-142 -54.5l-18 23q31 83 95 163t134 140h156q59 -46 121.5 -129t103.5 -176zM430 317q0 -89 -59 -136.5t-158 -45.5q58 -37 145 -37q70 0 114 24.5t72.5 91.5t33.5 183q4 121 4 365.5t-4 312.5
q-5 61 -28.5 88t-78.5 27h-72q1 34 1 112.5t-1 110.5q246 -4 383 -4q61 0 153.5 1t160.5 2t69 1q-1 -32 -1 -110.5t1 -112.5h-45q-55 0 -80 -24t-26 -91q-1 -13 -1 -113v-210t0.5 -220t0.5 -120q1 -216 -144 -331.5t-407 -115.5q-208 0 -322 87t-114 235q0 97 57 156t158 59
q87 0 137.5 -49.5t50.5 -135.5z" />
    <glyph glyph-name="jcircumflex" unicode="&#x135;" horiz-adv-x="647" 
d="M127 -180q0 -60 -43 -98.5t-127 -24.5q40 -29 94 -29q70 0 107 47t41 150q4 108 4.5 445.5t-2.5 379.5q-6 94 -88 94h-23v185q418 0 498 6q-1 -23 -1 -227.5t0.5 -453.5t0.5 -255q0 -221 -110 -335t-318 -114q-146 0 -230 55t-84 152q0 71 40 111.5t110 40.5
q61 0 96 -34.5t35 -94.5zM657 1085l-18 -22q-62 14 -146.5 54.5t-144.5 86.5q-58 -44 -140.5 -84.5t-141.5 -54.5l-19 22q31 83 95 164t134 140h156q59 -46 121.5 -129t103.5 -177z" />
    <glyph glyph-name="Kcommaaccent" unicode="&#x136;" horiz-adv-x="1714" 
d="M684 -532q112 21 171.5 76.5t68.5 136.5q-28 -48 -99 -48q-48 0 -75 31.5t-27 89.5q0 60 37 95.5t100 35.5q65 0 100 -44.5t35 -119.5q0 -118 -83.5 -194.5t-215.5 -99.5zM45 -4q1 32 1 112.5t-1 114.5h53q67 0 91.5 27t29.5 90q5 66 5 365.5t-5 367.5q-5 63 -31.5 90
t-91.5 27h-51q1 34 1 112.5t-1 110.5q248 -4 387 -4q62 0 156 1t162 2t69 1q-1 -32 -1 -110.5t1 -112.5h-61q-54 0 -78 -27.5t-29 -89.5q-4 -43 -4 -338l365 303q33 27 38 63t-20 62.5t-69 26.5h-64q1 34 1 112.5t-1 110.5q248 -4 385 -4q62 0 153.5 1t158 2t67.5 1
q-1 -32 -1 -110.5t1 -112.5h-74q-104 0 -181 -34.5t-173 -111.5l-133 -108q67 -111 209 -342t157 -252q52 -71 82 -95t82 -24h39q-1 -34 -1 -113.5t1 -111.5q-252 4 -393 4l-393 -4q1 32 1 111.5t-1 113.5h39q118 0 24 174q-9 16 -71 114.5t-103 160.5l-125 -103
q0 -167 4 -229q3 -60 25 -88.5t72 -28.5h59q-1 -34 -1 -114.5t1 -112.5q-244 4 -379 4z" />
    <glyph glyph-name="kcommaaccent" unicode="&#x137;" horiz-adv-x="1325" 
d="M465 -532q112 21 171.5 76.5t68.5 136.5q-28 -48 -99 -48q-48 0 -75 31.5t-27 89.5q0 60 37 95.5t100 35.5q65 0 100 -44.5t35 -119.5q0 -118 -83.5 -194.5t-215.5 -99.5zM528 1419q-4 -160 -4 -878l191 135q56 40 49.5 74t-70.5 34h-28q2 28 2 94.5t-2 94.5
q198 -6 309 -6q50 0 123.5 1.5t128.5 3t59 1.5q-2 -28 -2 -94.5t2 -94.5h-47q-88 0 -146 -18t-137 -70l-41 -26q183 -330 222 -383q40 -57 72.5 -81t74.5 -24h14q-2 -32 -2 -95t2 -91q-1 0 -57.5 1t-134 2t-129.5 1q-32 0 -76.5 -0.5t-85.5 -1t-77 -1t-59 -1t-24 -0.5
q1 28 1 92t-1 96h19q39 0 46 30.5t-18 76.5q-53 96 -106 178l-70 -45q0 -92 2 -129q3 -60 20.5 -85.5t53.5 -25.5h19q-2 -94 0 -188q-1 0 -53.5 1t-124 2t-119.5 1q-30 0 -71.5 -0.5t-79.5 -1t-71 -1t-54.5 -1t-22.5 -0.5q1 28 1 92t-1 96h20q53 0 73 24t23 87q3 66 3.5 414
t-3.5 409q-5 62 -22 87.5t-68 25.5h-20q2 39 2 84.5t-1 71.5l-1 26q417 0 497 6z" />
    <glyph glyph-name="kgreenlandic" unicode="&#x138;" horiz-adv-x="1325" 
d="M528 973q-4 -254 -4 -432l191 135q56 40 49.5 74t-70.5 34h-28q2 28 2 94.5t-2 94.5q198 -6 309 -6q50 0 123.5 1.5t128.5 3t59 1.5q-2 -28 -2 -94.5t2 -94.5h-47q-88 0 -146 -18t-137 -70l-41 -26q189 -342 222 -383q41 -56 73 -80.5t74 -24.5h14q-2 -32 -2 -95t2 -91
q-1 0 -57.5 1t-134 2t-129.5 1q-32 0 -76.5 -0.5t-85.5 -1t-77 -1t-59 -1t-24 -0.5q1 28 1 92t-1 96h19q39 0 46 30.5t-18 76.5q-53 96 -106 178l-72 -45q0 -94 2 -129q3 -60 21.5 -85.5t54.5 -25.5h19q-4 -96 0 -188q-1 0 -53.5 1t-124 2t-119.5 1q-30 0 -71.5 -0.5
t-79.5 -1t-71 -1t-54.5 -1t-22.5 -0.5q1 28 1 92t-1 96h20q53 0 73 24t23 87q3 67 3.5 191t-3.5 188q-5 61 -22 85.5t-68 24.5h-20v185q417 0 497 4z" />
    <glyph glyph-name="Lacute" unicode="&#x139;" horiz-adv-x="1359" 
d="M416 1516l-17 24q50 75 124 150t139 112q33 19 64 24t53 -3t38.5 -22.5t21 -36.5t0 -44.5t-24.5 -46.5t-52 -43q-67 -39 -167 -71t-179 -43zM850 1413q-3 -32 -3.5 -111.5t1.5 -111.5h-62q-64 0 -95.5 -30t-35.5 -99q-5 -79 -5 -353t5 -368q4 -69 34.5 -93t92.5 -24h78
q52 0 87 8t66.5 32t50 67.5t30.5 115.5t14 175q31 -1 106 -1t107 1q-11 -271 -6 -629q-141 8 -438 8h-471q-255 0 -361 -2q1 32 1 111.5t-1 113.5h68q66 0 86.5 30t23.5 105q5 88 5 361t-5 342q-5 64 -29 96.5t-77 32.5h-66q1 34 1 112.5t-1 110.5q257 -4 402 -4
q63 0 158.5 1t166 2t72.5 1z" />
    <glyph glyph-name="lacute" unicode="&#x13a;" horiz-adv-x="663" 
d="M250 1475l-17 24q50 75 124 150t139 112q33 19 64 24t53 -3t38.5 -22.5t21 -36.5t0 -44.5t-24.5 -46.5t-52 -43q-67 -39 -167 -71t-179 -43zM526 1417q-3 -151 -3 -606t3 -516q3 -62 24 -86.5t73 -24.5h20q-1 -34 -1 -97t1 -91q-1 0 -56 1t-129.5 2t-123.5 1
q-31 0 -74 -0.5t-82.5 -1t-74 -1t-57 -1t-23.5 -0.5q3 28 3 92t-3 96h22q52 0 71.5 24t22.5 87q3 60 3 416.5t-3 408.5q-3 58 -22 84.5t-70 26.5h-18q4 91 0 182q337 0 497 4z" />
    <glyph glyph-name="Lcommaaccent" unicode="&#x13b;" horiz-adv-x="1359" 
d="M489 -532q112 21 171.5 76.5t68.5 136.5q-28 -48 -98 -48q-48 0 -75.5 31.5t-27.5 89.5q0 60 37.5 95.5t100.5 35.5q65 0 100 -44.5t35 -119.5q0 -118 -83.5 -194.5t-215.5 -99.5zM850 1413q-3 -32 -3.5 -111.5t1.5 -111.5h-62q-64 0 -95.5 -30t-35.5 -99q-5 -79 -5 -353
t5 -368q4 -69 34.5 -93t92.5 -24h78q52 0 87 8t66.5 32t50 67.5t30.5 115.5t14 175q31 -1 106 -1t107 1q-11 -271 -6 -629q-141 8 -438 8h-471q-255 0 -361 -2q1 32 1 111.5t-1 113.5h68q66 0 86.5 30t23.5 105q5 88 5 361t-5 342q-5 64 -29 96.5t-77 32.5h-66q1 34 1 112.5
t-1 110.5q257 -4 402 -4q63 0 158.5 1t166 2t72.5 1z" />
    <glyph glyph-name="lcommaaccent" unicode="&#x13c;" horiz-adv-x="663" 
d="M162 -532q112 21 171 76.5t68 136.5q-28 -48 -98 -48q-48 0 -75 31.5t-27 89.5q0 60 37 95.5t100 35.5q65 0 100 -44.5t35 -119.5q0 -118 -83.5 -194.5t-215.5 -99.5zM526 1417q-3 -151 -3 -606t3 -516q3 -62 24 -86.5t73 -24.5h20q-1 -34 -1 -97t1 -91q-1 0 -56 1
t-129.5 2t-123.5 1q-31 0 -74 -0.5t-82.5 -1t-74 -1t-57 -1t-23.5 -0.5q3 28 3 92t-3 96h22q52 0 71.5 24t22.5 87q3 60 3 416.5t-3 408.5q-3 58 -22 84.5t-70 26.5h-18q4 91 0 182q337 0 497 4z" />
    <glyph glyph-name="Lcaron" unicode="&#x13d;" horiz-adv-x="1359" 
d="M985 1014q112 21 171.5 76.5t68.5 136.5q-27 -47 -99 -47q-48 0 -75 31t-27 89q0 60 37 96t100 36q65 0 100 -44.5t35 -119.5q0 -118 -83.5 -195t-215.5 -100zM850 1413q-3 -32 -3.5 -111.5t1.5 -111.5h-62q-64 0 -95.5 -30t-35.5 -99q-5 -79 -5 -353t5 -368
q4 -69 34.5 -93t92.5 -24h78q52 0 87 8t66.5 32t50 67.5t30.5 115.5t14 175q31 -1 106 -1t107 1q-11 -271 -6 -629q-141 8 -438 8h-471q-255 0 -361 -2q1 32 1 111.5t-1 113.5h68q66 0 86.5 30t23.5 105q5 88 5 361t-5 342q-5 64 -29 96.5t-77 32.5h-66q1 34 1 112.5
t-1 110.5q257 -4 402 -4q63 0 158.5 1t166 2t72.5 1z" />
    <glyph glyph-name="lcaron" unicode="&#x13e;" horiz-adv-x="935" 
d="M586 997q112 21 171 76.5t68 136.5q-27 -47 -98 -47q-48 0 -75 31.5t-27 89.5q0 60 37 95.5t100 35.5q65 0 100 -44.5t35 -119.5q0 -118 -83.5 -195t-215.5 -100zM526 1417q-3 -151 -3 -606t3 -516q3 -62 24 -86.5t73 -24.5h20q-1 -34 -1 -97t1 -91q-1 0 -56 1t-129.5 2
t-123.5 1q-31 0 -74 -0.5t-82.5 -1t-74 -1t-57 -1t-23.5 -0.5q3 28 3 92t-3 96h22q52 0 71.5 24t22.5 87q3 60 3 416.5t-3 408.5q-3 58 -22 84.5t-70 26.5h-18q4 91 0 182q337 0 497 4z" />
    <glyph glyph-name="Ldot" unicode="&#x13f;" horiz-adv-x="1359" 
d="M850 1413q-3 -32 -3.5 -111.5t1.5 -111.5h-62q-64 0 -95.5 -30t-35.5 -99q-5 -79 -5 -353t5 -368q4 -69 34.5 -93t92.5 -24h78q52 0 87 8t66.5 32t50 67.5t30.5 115.5t14 175q31 -1 106 -1t107 1q-11 -271 -6 -629q-141 8 -438 8h-471q-255 0 -361 -2q1 32 1 111.5
t-1 113.5h68q66 0 86.5 30t23.5 105q5 88 5 361t-5 342q-5 64 -29 96.5t-77 32.5h-66q1 34 1 112.5t-1 110.5q257 -4 402 -4q63 0 158.5 1t166 2t72.5 1zM1118 838q0 -66 -38 -105t-103 -39q-64 0 -101.5 39t-37.5 105q0 64 37 101.5t102 37.5t103 -37.5t38 -101.5z" />
    <glyph glyph-name="ldot" unicode="&#x140;" horiz-adv-x="915" 
d="M526 1417q-3 -151 -3 -606t3 -516q3 -62 24 -86.5t73 -24.5h20q-1 -34 -1 -97t1 -91q-1 0 -56 1t-129.5 2t-123.5 1q-31 0 -74 -0.5t-82.5 -1t-74 -1t-57 -1t-23.5 -0.5q3 28 3 92t-3 96h22q52 0 71.5 24t22.5 87q3 60 3 416.5t-3 408.5q-3 58 -22 84.5t-70 26.5h-18
q4 91 0 182q337 0 497 4zM926 682q0 -66 -38.5 -104.5t-103.5 -38.5q-64 0 -101.5 38.5t-37.5 104.5q0 64 37.5 101.5t101.5 37.5q65 0 103.5 -37.5t38.5 -101.5z" />
    <glyph glyph-name="Lslash" unicode="&#x141;" horiz-adv-x="1359" 
d="M850 1413q-3 -32 -3.5 -111.5t1.5 -111.5h-62q-64 0 -95.5 -30t-35.5 -99q-4 -70 -4 -201q49 19 120.5 47t72.5 29l37 -119q-103 -35 -230 -84q0 -327 4 -393q4 -69 34.5 -93t92.5 -24h78q52 0 87 8t66.5 32t50 67.5t30.5 115.5t14 175q31 -1 106 -1t107 1
q-11 -271 -6 -629q-141 8 -438 8h-471q-255 0 -361 -2q1 32 1 111.5t-1 113.5h68q66 0 86.5 30t23.5 105q4 78 4 215q-21 -7 -51.5 -19.5t-40.5 -16.5l-37 118l129 47q0 261 -4 359q-5 64 -29 96.5t-77 32.5h-66q1 34 1 112.5t-1 110.5q257 -4 402 -4q63 0 158.5 1t166 2
t72.5 1z" />
    <glyph glyph-name="lslash" unicode="&#x142;" horiz-adv-x="663" 
d="M526 1417q-4 -188 -4 -555l76 33l39 -117l-115 -43q0 -370 4 -440q3 -62 24 -86.5t73 -24.5h20q-1 -34 -1 -97t1 -91q-1 0 -56 1t-129.5 2t-123.5 1q-31 0 -74 -0.5t-82.5 -1t-74 -1t-57 -1t-23.5 -0.5q3 28 3 92t-3 96h22q52 0 71.5 24t22.5 87q2 31 2 287
q-28 -10 -45 -19l-39 117l84 31q0 374 -2 409q-3 58 -22 84.5t-70 26.5h-18q4 91 0 182q337 0 497 4z" />
    <glyph glyph-name="Nacute" unicode="&#x143;" horiz-adv-x="1697" 
d="M885 1516l-17 24q50 75 124 150.5t138 111.5q33 19 64 24t53 -3t39 -22.5t21.5 -36.5t0 -44.5t-24.5 -46.5t-52 -43q-67 -39 -167 -71t-179 -43zM688 1413q88 -143 252.5 -393t284.5 -424q2 88 1.5 236t-3.5 217q-4 76 -36 108.5t-91 32.5h-95v223q1 0 59 -1.5t136.5 -3
t130.5 -1.5l326 6q-1 -32 -1 -110.5t1 -112.5h-68q-58 0 -90.5 -33t-36.5 -108q-4 -88 -4 -453.5t4 -597.5q-190 8 -379 0q-223 361 -600 926q-2 -137 -1.5 -323.5t3.5 -242.5q3 -66 34 -100.5t99 -34.5h95q-1 -34 -1 -114.5t1 -112.5q-211 4 -332 4l-332 -4q1 32 1 112.5
t-1 114.5h66q68 0 99 34.5t36 100.5q4 83 4 358.5t-4 344.5q-5 61 -38.5 95t-92.5 34h-68q1 34 1 112.5t-1 110.5q320 -8 641 0z" />
    <glyph glyph-name="nacute" unicode="&#x144;" horiz-adv-x="1304" 
d="M645 1073l-16 25q50 75 124 150.5t138 111.5q33 19 64 24t53 -3t38.5 -22.5t21 -36.5t0 -44.5t-24.5 -46.5t-52 -43q-67 -39 -167 -71.5t-179 -43.5zM1163 625q-1 -37 -1 -171t1 -159q5 -65 24 -88t73 -23h16q-2 -34 -2 -97t2 -91q-2 0 -55 1t-125 2t-119 1
q-30 0 -72 -0.5t-80 -1t-71 -1t-54 -1t-22 -0.5v188h18q40 0 58.5 25.5t21.5 85.5q8 150 0 326q-3 86 -27.5 126.5t-86.5 40.5q-71 0 -102.5 -57t-31.5 -178v-258q0 -63 18 -87t62 -24h21q-1 -34 -1 -97t1 -91q-1 0 -54.5 1t-126 2t-120.5 1q-30 0 -72 -0.5t-80.5 -1t-72 -1
t-55.5 -1t-23 -0.5q1 28 1 94t-1 94h20q54 0 72.5 22.5t23.5 88.5t5 200.5t-5 184.5q-5 57 -23 80.5t-71 23.5h-16q2 39 2 85.5t-1 72.5l-1 27q415 0 497 6v-203q68 225 316 225q319 0 319 -372z" />
    <glyph glyph-name="Ncommaaccent" unicode="&#x145;" horiz-adv-x="1697" 
d="M682 -532q112 21 171.5 76.5t68.5 136.5q-28 -48 -99 -48q-48 0 -75 31.5t-27 89.5q0 60 37 95.5t100 35.5q65 0 100 -44.5t35 -119.5q0 -118 -83.5 -194.5t-215.5 -99.5zM688 1413q88 -143 252.5 -393t284.5 -424q2 88 1.5 236t-3.5 217q-4 76 -36 108.5t-91 32.5h-95
v223q1 0 59 -1.5t136.5 -3t130.5 -1.5l326 6q-1 -32 -1 -110.5t1 -112.5h-68q-58 0 -90.5 -33t-36.5 -108q-4 -88 -4 -453.5t4 -597.5q-190 8 -379 0q-223 361 -600 926q-2 -137 -1.5 -323.5t3.5 -242.5q3 -66 34 -100.5t99 -34.5h95q-1 -34 -1 -114.5t1 -112.5
q-211 4 -332 4l-332 -4q1 32 1 112.5t-1 114.5h66q68 0 99 34.5t36 100.5q4 83 4 358.5t-4 344.5q-5 61 -38.5 95t-92.5 34h-68q1 34 1 112.5t-1 110.5q320 -8 641 0z" />
    <glyph glyph-name="ncommaaccent" unicode="&#x146;" horiz-adv-x="1304" 
d="M477 -532q112 21 171.5 76.5t68.5 136.5q-28 -48 -99 -48q-48 0 -75 31.5t-27 89.5q0 60 37 95.5t100 35.5q65 0 100 -44.5t35 -119.5q0 -118 -83.5 -194.5t-215.5 -99.5zM1163 625q-1 -37 -1 -171t1 -159q5 -65 24 -88t73 -23h16q-2 -34 -2 -97t2 -91q-2 0 -55 1t-125 2
t-119 1q-30 0 -72 -0.5t-80 -1t-71 -1t-54 -1t-22 -0.5v188h18q40 0 58.5 25.5t21.5 85.5q8 150 0 326q-3 86 -27.5 126.5t-86.5 40.5q-71 0 -102.5 -57t-31.5 -178v-258q0 -63 18 -87t62 -24h21q-1 -34 -1 -97t1 -91q-1 0 -54.5 1t-126 2t-120.5 1q-30 0 -72 -0.5t-80.5 -1
t-72 -1t-55.5 -1t-23 -0.5q1 28 1 94t-1 94h20q54 0 72.5 22.5t23.5 88.5t5 200.5t-5 184.5q-5 57 -23 80.5t-71 23.5h-16q2 39 2 85.5t-1 72.5l-1 27q415 0 497 6v-203q68 225 316 225q319 0 319 -372z" />
    <glyph glyph-name="Ncaron" unicode="&#x147;" horiz-adv-x="1697" 
d="M584 1837l18 21q62 -14 147 -54.5t144 -85.5q59 43 142 84t141 56l18 -23q-31 -84 -95 -164.5t-134 -140.5h-156q-61 49 -122.5 131t-102.5 176zM688 1413q88 -143 252.5 -393t284.5 -424q2 88 1.5 236t-3.5 217q-4 76 -36 108.5t-91 32.5h-95v223q1 0 59 -1.5t136.5 -3
t130.5 -1.5l326 6q-1 -32 -1 -110.5t1 -112.5h-68q-58 0 -90.5 -33t-36.5 -108q-4 -88 -4 -453.5t4 -597.5q-190 8 -379 0q-223 361 -600 926q-2 -137 -1.5 -323.5t3.5 -242.5q3 -66 34 -100.5t99 -34.5h95q-1 -34 -1 -114.5t1 -112.5q-211 4 -332 4l-332 -4q1 32 1 112.5
t-1 114.5h66q68 0 99 34.5t36 100.5q4 83 4 358.5t-4 344.5q-5 61 -38.5 95t-92.5 34h-68q1 34 1 112.5t-1 110.5q320 -8 641 0z" />
    <glyph glyph-name="ncaron" unicode="&#x148;" horiz-adv-x="1304" 
d="M352 1395l19 20q63 -14 147.5 -54t143.5 -85q58 43 140.5 83.5t141.5 55.5l19 -22q-31 -84 -95.5 -165t-134.5 -141h-155q-61 49 -123 131.5t-103 176.5zM1163 625q-1 -37 -1 -171t1 -159q5 -65 24 -88t73 -23h16q-2 -34 -2 -97t2 -91q-2 0 -55 1t-125 2t-119 1
q-30 0 -72 -0.5t-80 -1t-71 -1t-54 -1t-22 -0.5v188h18q40 0 58.5 25.5t21.5 85.5q8 150 0 326q-3 86 -27.5 126.5t-86.5 40.5q-71 0 -102.5 -57t-31.5 -178v-258q0 -63 18 -87t62 -24h21q-1 -34 -1 -97t1 -91q-1 0 -54.5 1t-126 2t-120.5 1q-30 0 -72 -0.5t-80.5 -1t-72 -1
t-55.5 -1t-23 -0.5q1 28 1 94t-1 94h20q54 0 72.5 22.5t23.5 88.5t5 200.5t-5 184.5q-5 57 -23 80.5t-71 23.5h-16q2 39 2 85.5t-1 72.5l-1 27q415 0 497 6v-203q68 225 316 225q319 0 319 -372z" />
    <glyph glyph-name="napostrophe" unicode="&#x149;" horiz-adv-x="1304" 
d="M47 1075q112 21 171.5 76.5t68.5 136.5q-27 -47 -99 -47q-48 0 -75 31.5t-27 89.5q0 60 37 95.5t100 35.5q65 0 100 -44.5t35 -119.5q0 -118 -83.5 -195t-215.5 -100zM1163 625q-1 -37 -1 -171t1 -159q5 -65 24 -88t73 -23h16q-2 -34 -2 -97t2 -91q-2 0 -55 1t-125 2
t-119 1q-30 0 -72 -0.5t-80 -1t-71 -1t-54 -1t-22 -0.5v188h18q40 0 58.5 25.5t21.5 85.5q8 150 0 326q-3 86 -27.5 126.5t-86.5 40.5q-71 0 -102.5 -57t-31.5 -178v-258q0 -63 18 -87t62 -24h21q-1 -34 -1 -97t1 -91q-1 0 -54.5 1t-126 2t-120.5 1q-30 0 -72 -0.5t-80.5 -1
t-72 -1t-55.5 -1t-23 -0.5q1 28 1 94t-1 94h20q54 0 72.5 22.5t23.5 88.5t5 200.5t-5 184.5q-5 57 -23 80.5t-71 23.5h-16q2 39 2 85.5t-1 72.5l-1 27q415 0 497 6v-203q68 225 316 225q319 0 319 -372z" />
    <glyph glyph-name="Eng" unicode="&#x14a;" horiz-adv-x="1697" 
d="M688 1413q88 -143 252.5 -393t284.5 -424q2 88 1.5 236t-3.5 217q-4 76 -36 108.5t-91 32.5h-95v223q1 0 59 -1.5t136.5 -3t130.5 -1.5l326 6q-1 -32 -1 -110.5t1 -112.5h-68q-58 0 -90.5 -33t-36.5 -108q-6 -118 0 -1051q1 -205 -113 -306.5t-329 -101.5q-146 0 -230 56
t-84 155q0 72 41 114t113 42q63 0 100 -36t37 -97q0 -58 -43 -98t-127 -29q47 -29 117 -29q238 0 240 256v76q-74 0 -101 -2q-223 361 -600 926q-2 -137 -1.5 -323.5t3.5 -242.5q3 -66 34 -100.5t99 -34.5h95q-1 -34 -1 -114.5t1 -112.5q-211 4 -332 4l-332 -4q1 32 1 112.5
t-1 114.5h66q68 0 99 34.5t36 100.5q4 83 4 358.5t-4 344.5q-5 61 -38.5 95t-92.5 34h-68q1 34 1 112.5t-1 110.5q320 -8 641 0z" />
    <glyph glyph-name="eng" unicode="&#x14b;" horiz-adv-x="1212" 
d="M1163 625v-586q0 -221 -110 -335t-318 -114q-146 0 -230.5 54t-84.5 147q0 70 38.5 110t106.5 40q59 0 94 -34t35 -91t-40 -94.5t-119 -26.5q39 -27 92 -27q146 0 149 197q2 69 2 382.5t-2 373.5q-2 85 -26.5 126t-87.5 41q-134 0 -134 -213v-280q0 -63 18 -87t62 -24h21
q-1 -34 -1 -97t1 -91q-1 0 -54.5 1t-126 2t-120.5 1q-30 0 -72 -0.5t-80.5 -1t-72 -1t-55.5 -1t-23 -0.5q1 28 1 94t-1 94h20q54 0 72.5 22.5t23.5 88.5t5 200.5t-5 184.5q-5 57 -23 80.5t-71 23.5h-16q2 39 2 85.5t-1 72.5l-1 27q415 0 497 6v-203q68 225 316 225
q319 0 319 -372z" />
    <glyph glyph-name="Omacron" unicode="&#x14c;" horiz-adv-x="1615" 
d="M535 1548q1 31 1 94t-1 95q94 -3 290.5 -3t290.5 3q-4 -94 0 -189q-94 3 -290.5 3t-290.5 -3zM809 195q142 0 195 113.5t53 398.5q0 148 -11 242t-40 156.5t-76 88t-121 25.5q-139 0 -194.5 -115.5t-55.5 -398.5q0 -291 51.5 -400.5t198.5 -109.5zM809 -35
q-370 0 -555.5 177t-185.5 563q0 189 52.5 331.5t150 232.5t232.5 134.5t306 44.5q374 0 556.5 -178t182.5 -563q0 -156 -37 -281t-102 -210.5t-158.5 -142.5t-203 -82.5t-238.5 -25.5z" />
    <glyph glyph-name="omacron" unicode="&#x14d;" horiz-adv-x="1122" 
d="M279 1108q4 92 0 188q94 -3 290.5 -3t290.5 3q-4 -94 0 -188q-94 3 -290.5 3t-290.5 -3zM51 473q0 262 134.5 393t375.5 131q249 0 379.5 -130t130.5 -396q0 -508 -510 -508t-510 510zM440 471q0 -128 15 -196t39 -87.5t67 -19.5q42 0 66 19.5t39.5 88t15.5 195.5
q0 132 -15 205.5t-40 98t-68 24.5q-42 0 -66.5 -24.5t-38.5 -97.5t-14 -206z" />
    <glyph glyph-name="Obreve" unicode="&#x14e;" horiz-adv-x="1615" 
d="M809 195q142 0 195 113.5t53 398.5q0 148 -11 242t-40 156.5t-76 88t-121 25.5q-139 0 -194.5 -115.5t-55.5 -398.5q0 -291 51.5 -400.5t198.5 -109.5zM809 -35q-370 0 -555.5 177t-185.5 563q0 189 52.5 331.5t150 232.5t232.5 134.5t306 44.5q374 0 556.5 -178
t182.5 -563q0 -156 -37 -281t-102 -210.5t-158.5 -142.5t-203 -82.5t-238.5 -25.5zM842 1520q-154 0 -226.5 84t-54.5 213l57 4q11 -113 224 -113q212 0 223 113l57 -4q18 -129 -54 -213t-226 -84z" />
    <glyph glyph-name="obreve" unicode="&#x14f;" horiz-adv-x="1122" 
d="M51 473q0 262 134.5 393t375.5 131q249 0 379.5 -130t130.5 -396q0 -508 -510 -508t-510 510zM440 471q0 -128 15 -196t39 -87.5t67 -19.5q42 0 66 19.5t39.5 88t15.5 195.5q0 132 -15 205.5t-40 98t-68 24.5q-42 0 -66.5 -24.5t-38.5 -97.5t-14 -206zM561 1087
q-154 0 -226 84t-54 213l57 5q11 -113 223 -113t223 113l58 -5q18 -129 -54.5 -213t-226.5 -84z" />
    <glyph glyph-name="Ohungarumlaut" unicode="&#x150;" horiz-adv-x="1615" 
d="M645 1522l-20 18q29 83 76.5 167.5t99.5 133.5q34 33 71 43t62.5 -2t40 -35.5t5.5 -59.5t-42 -71q-51 -54 -135 -108.5t-158 -85.5zM981 1522l-20 18q29 83 76.5 167.5t99.5 133.5q35 33 72 43t62.5 -2t39.5 -35.5t5 -59.5t-42 -71q-51 -54 -135 -108.5t-158 -85.5z
M809 195q142 0 195 113.5t53 398.5q0 148 -11 242t-40 156.5t-76 88t-121 25.5q-139 0 -194.5 -115.5t-55.5 -398.5q0 -291 51.5 -400.5t198.5 -109.5zM809 -35q-370 0 -555.5 177t-185.5 563q0 189 52.5 331.5t150 232.5t232.5 134.5t306 44.5q374 0 556.5 -178t182.5 -563
q0 -156 -37 -281t-102 -210.5t-158.5 -142.5t-203 -82.5t-238.5 -25.5z" />
    <glyph glyph-name="ohungarumlaut" unicode="&#x151;" horiz-adv-x="1122" 
d="M365 1079l-21 19q29 83 76.5 167.5t99.5 133.5q34 33 71 43t62.5 -2t40 -35.5t5.5 -59.5t-42 -71q-52 -54 -135.5 -109t-156.5 -86zM700 1079l-20 19q29 83 76.5 167.5t99.5 133.5q35 33 72 43t62.5 -2t39.5 -35.5t5 -59.5t-42 -71q-51 -54 -135.5 -109t-157.5 -86z
M51 473q0 262 134.5 393t375.5 131q249 0 379.5 -130t130.5 -396q0 -508 -510 -508t-510 510zM440 471q0 -128 15 -196t39 -87.5t67 -19.5q42 0 66 19.5t39.5 88t15.5 195.5q0 132 -15 205.5t-40 98t-68 24.5q-42 0 -66.5 -24.5t-38.5 -97.5t-14 -206z" />
    <glyph glyph-name="OE" unicode="&#x152;" horiz-adv-x="2297" 
d="M1454 778h47q93 0 127.5 39.5t34.5 138.5v64h174q-14 -208 -14 -311q0 -168 14 -314q-88 2 -170 0v58q-2 105 -37 146.5t-131 41.5h-45q0 -240 4 -289q4 -73 34.5 -101t94.5 -28h172q139 0 195.5 69t56.5 255v18q37 -1 121 -1t121 1q-21 -228 -21 -573q-96 8 -438 8
q-469 2 -694 2q-130 -43 -312 -43q-367 0 -543.5 176.5t-176.5 569.5q0 191 52 335t150.5 234.5t233 135t305.5 44.5q186 0 319 -43q76 -1 166 -1t225.5 0.5t233.5 0.5q396 0 492 12q-17 -253 -13 -538q-35 1 -114 1t-113 -1v16q0 91 -17 150t-52 88t-75.5 39t-101.5 10
h-174q-63 0 -93.5 -29.5t-33.5 -93.5q-4 -118 -4 -287zM809 195q162 0 199 106q18 56 18 405t-18 408q-29 103 -199 103q-140 0 -195 -112.5t-55 -399.5q0 -120 7 -202t23.5 -144t46 -96.5t71 -51t102.5 -16.5z" />
    <glyph glyph-name="oe" unicode="&#x153;" horiz-adv-x="1689" 
d="M1640 340q-6 -175 -119.5 -276t-338.5 -101q-185 0 -308 72q-129 -72 -313 -72q-510 0 -510 512q0 259 133.5 390.5t376.5 131.5q194 0 322 -86q125 86 305 86q128 0 221.5 -42.5t147 -120.5t76 -180t14.5 -228h-578q5 -137 36.5 -193.5t104.5 -56.5q69 0 101.5 41
t40.5 131q205 -13 288 -8zM440 473q0 -128 15 -196.5t39 -88.5t67 -20q42 0 66 20t39.5 89t15.5 196q0 132 -15 205t-40 97t-68 24q-42 0 -66 -24t-38.5 -96.5t-14.5 -205.5zM1174 797q-36 0 -57.5 -21.5t-34 -84t-13.5 -175.5h152q29 0 38 12t9 47q0 122 -23 172t-71 50z
" />
    <glyph glyph-name="Racute" unicode="&#x154;" horiz-adv-x="1654" 
d="M723 1516l-16 24q50 75 124 150.5t138 111.5q33 19 64 24t53 -3t38.5 -22.5t21 -36.5t0 -44.5t-24.5 -46.5t-52 -43q-67 -39 -167 -71t-179 -43zM1372 371q18 -116 38 -154.5t58 -38.5q40 0 50.5 61t-13.5 171q35 -3 105 6q18 -76 19.5 -142.5t-17.5 -126.5t-58.5 -103
t-108.5 -68t-163 -25q-105 0 -175.5 24t-111 75t-58.5 116t-24 162q-5 86 -21.5 141.5t-48 85t-70 40.5t-97.5 11h-25q0 -206 6 -262q4 -65 33 -94t84 -29h57v-225q-289 4 -391 4l-395 -4q1 32 1 112.5t-1 114.5h64q56 0 82 27.5t30 93.5q5 71 5 366.5t-5 364.5
q-5 62 -27 88.5t-77 26.5h-72q4 114 0 223q8 0 188 -2t238 -2q37 0 200 1t259 1q250 0 384 -98.5t134 -284.5q0 -146 -96 -241.5t-267 -112.5q136 -20 201.5 -97t85.5 -206zM657 1114q-2 -23 -6 -348h94q122 0 172 49.5t50 167.5q0 110 -40.5 161.5t-140.5 51.5h-49
q-77 0 -80 -82z" />
    <glyph glyph-name="racute" unicode="&#x155;" horiz-adv-x="980" 
d="M420 1073l-17 25q50 75 124 150t139 112q33 19 64 24t53 -3t38.5 -22.5t21 -36.5t0 -44.5t-24.5 -46.5t-52 -43q-67 -39 -167 -71.5t-179 -43.5zM719 877q-91 0 -140 -69t-49 -200v-329q0 -56 20.5 -75.5t84.5 -19.5h33q-4 -92 0 -188q-1 0 -58 1t-134 2t-128 1t-129 -1
t-135 -2l-57 -1q1 28 1 92t-1 96h22q53 0 73.5 21t20.5 74q1 59 1 218t-1 191q-3 53 -22.5 74.5t-69.5 21.5h-18q4 93 0 185q243 -5 428 4l-12 -234q22 121 93.5 189.5t186.5 68.5q112 0 173 -60t61 -169q0 -95 -46.5 -146t-132.5 -51q-76 0 -118.5 37t-42.5 103
q0 73 51.5 113.5t122.5 35.5q-39 17 -78 17z" />
    <glyph glyph-name="Rcommaaccent" unicode="&#x156;" horiz-adv-x="1654" 
d="M666 -532q112 21 171 76.5t68 136.5q-28 -48 -98 -48q-48 0 -75 31.5t-27 89.5q0 60 37 95.5t100 35.5q65 0 100 -44.5t35 -119.5q0 -118 -83.5 -194.5t-215.5 -99.5zM1372 371q18 -116 38 -154.5t58 -38.5q40 0 50.5 61t-13.5 171q35 -3 105 6q18 -76 19.5 -142.5
t-17.5 -126.5t-58.5 -103t-108.5 -68t-163 -25q-105 0 -175.5 24t-111 75t-58.5 116t-24 162q-5 86 -21.5 141.5t-48 85t-70 40.5t-97.5 11h-25q0 -206 6 -262q4 -65 33 -94t84 -29h57v-225q-289 4 -391 4l-395 -4q1 32 1 112.5t-1 114.5h64q56 0 82 27.5t30 93.5
q5 71 5 366.5t-5 364.5q-5 62 -27 88.5t-77 26.5h-72q4 114 0 223q8 0 188 -2t238 -2q37 0 200 1t259 1q250 0 384 -98.5t134 -284.5q0 -146 -96 -241.5t-267 -112.5q136 -20 201.5 -97t85.5 -206zM657 1114q-2 -23 -6 -348h94q122 0 172 49.5t50 167.5q0 110 -40.5 161.5
t-140.5 51.5h-49q-77 0 -80 -82z" />
    <glyph glyph-name="rcommaaccent" unicode="&#x157;" horiz-adv-x="980" 
d="M160 -532q112 21 171 76.5t68 136.5q-28 -48 -98 -48q-48 0 -75 31.5t-27 89.5q0 60 37 95.5t100 35.5q65 0 100 -44.5t35 -119.5q0 -118 -83.5 -194.5t-215.5 -99.5zM719 877q-91 0 -140 -69t-49 -200v-329q0 -56 20.5 -75.5t84.5 -19.5h33q-4 -92 0 -188q-1 0 -58 1
t-134 2t-128 1t-129 -1t-135 -2l-57 -1q1 28 1 92t-1 96h22q53 0 73.5 21t20.5 74q1 59 1 218t-1 191q-3 53 -22.5 74.5t-69.5 21.5h-18q4 93 0 185q243 -5 428 4l-12 -234q22 121 93.5 189.5t186.5 68.5q112 0 173 -60t61 -169q0 -95 -46.5 -146t-132.5 -51
q-76 0 -118.5 37t-42.5 103q0 73 51.5 113.5t122.5 35.5q-39 17 -78 17z" />
    <glyph glyph-name="Rcaron" unicode="&#x158;" horiz-adv-x="1654" 
d="M457 1837l18 21q62 -14 147 -54.5t144 -85.5q59 43 142 84t141 56l18 -23q-31 -84 -95 -164.5t-134 -140.5h-156q-61 49 -122.5 131t-102.5 176zM1372 371q18 -116 38 -154.5t58 -38.5q40 0 50.5 61t-13.5 171q35 -3 105 6q18 -76 19.5 -142.5t-17.5 -126.5t-58.5 -103
t-108.5 -68t-163 -25q-105 0 -175.5 24t-111 75t-58.5 116t-24 162q-5 86 -21.5 141.5t-48 85t-70 40.5t-97.5 11h-25q0 -206 6 -262q4 -65 33 -94t84 -29h57v-225q-289 4 -391 4l-395 -4q1 32 1 112.5t-1 114.5h64q56 0 82 27.5t30 93.5q5 71 5 366.5t-5 364.5
q-5 62 -27 88.5t-77 26.5h-72q4 114 0 223q8 0 188 -2t238 -2q37 0 200 1t259 1q250 0 384 -98.5t134 -284.5q0 -146 -96 -241.5t-267 -112.5q136 -20 201.5 -97t85.5 -206zM657 1114q-2 -23 -6 -348h94q122 0 172 49.5t50 167.5q0 110 -40.5 161.5t-140.5 51.5h-49
q-77 0 -80 -82z" />
    <glyph glyph-name="rcaron" unicode="&#x159;" horiz-adv-x="980" 
d="M184 1395l19 20q63 -14 147.5 -54t143.5 -85q58 43 140.5 83.5t141.5 55.5l19 -22q-31 -84 -95.5 -165t-134.5 -141h-155q-61 49 -123 131.5t-103 176.5zM719 877q-91 0 -140 -69t-49 -200v-329q0 -56 20.5 -75.5t84.5 -19.5h33q-4 -92 0 -188q-1 0 -58 1t-134 2t-128 1
t-129 -1t-135 -2l-57 -1q1 28 1 92t-1 96h22q53 0 73.5 21t20.5 74q1 59 1 218t-1 191q-3 53 -22.5 74.5t-69.5 21.5h-18q4 93 0 185q243 -5 428 4l-12 -234q22 121 93.5 189.5t186.5 68.5q112 0 173 -60t61 -169q0 -95 -46.5 -146t-132.5 -51q-76 0 -118.5 37t-42.5 103
q0 73 51.5 113.5t122.5 35.5q-39 17 -78 17z" />
    <glyph glyph-name="Sacute" unicode="&#x15a;" horiz-adv-x="1421" 
d="M686 1516l-16 24q50 75 124 150.5t138 111.5q33 19 64 24t53 -3t38.5 -22.5t21 -36.5t0 -44.5t-24.5 -46.5t-52 -43q-67 -39 -167 -71t-179 -43zM721 1231q-141 0 -205.5 -37.5t-64.5 -97.5q0 -67 65.5 -94t253.5 -41q111 -8 199.5 -27t167.5 -55.5t131.5 -90t83 -133.5
t30.5 -182q0 -248 -155 -378t-449 -130q-130 0 -221.5 24.5t-185.5 71.5q-57 28 -84.5 9t-36.5 -82q-22 3 -91 3t-89 -3q28 281 16 477q23 -3 86 -3t86 3q103 -287 514 -287q137 0 206 39t69 107q0 69 -80 100t-285 49q-297 20 -437.5 138t-140.5 333q0 224 146 364t416 140
q204 0 364 -82q34 -17 54.5 -22t32.5 6t17 24.5t11 44.5q20 -1 84 -1t84 1q-12 -82 -16 -209.5t1 -218.5q-25 2 -86 2.5t-86 -0.5q-87 238 -405 238z" />
    <glyph glyph-name="sacute" unicode="&#x15b;" horiz-adv-x="1026" 
d="M432 1073l-16 25q50 75 124 150.5t138 111.5q33 19 64 24t53 -3t38.5 -22.5t21 -36.5t0 -44.5t-24.5 -46.5t-52 -43q-67 -39 -167 -71.5t-179 -43.5zM514 836q-84 0 -120 -22t-36 -56q0 -28 18.5 -44t72.5 -28t161 -22q379 -34 379 -353q0 -163 -103.5 -255.5
t-312.5 -92.5q-160 0 -294 80q-28 17 -48.5 20.5t-32.5 -5.5t-19 -24t-11 -38q-67 8 -129 0q25 177 20 319q64 -8 129 0q48 -90 135.5 -144t202.5 -54q154 0 154 84q0 25 -14 40t-62 27t-137 19q-213 17 -312.5 110.5t-99.5 247.5q0 157 117.5 255t316.5 97q128 -3 224 -61
q28 -16 45.5 -20t28 4.5t15.5 20t11 36.5q59 -4 123 0q-18 -140 -21 -289q-66 4 -133 0q-80 148 -268 148z" />
    <glyph glyph-name="Scircumflex" unicode="&#x15c;" horiz-adv-x="1421" 
d="M991 1522l-18 -23q-62 14 -146.5 54.5t-144.5 86.5q-58 -44 -141 -84.5t-142 -54.5l-18 23q31 83 95 163t134 140h156q59 -46 121.5 -129t103.5 -176zM721 1231q-141 0 -205.5 -37.5t-64.5 -97.5q0 -67 65.5 -94t253.5 -41q111 -8 199.5 -27t167.5 -55.5t131.5 -90
t83 -133.5t30.5 -182q0 -248 -155 -378t-449 -130q-130 0 -221.5 24.5t-185.5 71.5q-57 28 -84.5 9t-36.5 -82q-22 3 -91 3t-89 -3q28 281 16 477q23 -3 86 -3t86 3q103 -287 514 -287q137 0 206 39t69 107q0 69 -80 100t-285 49q-297 20 -437.5 138t-140.5 333
q0 224 146 364t416 140q204 0 364 -82q34 -17 54.5 -22t32.5 6t17 24.5t11 44.5q20 -1 84 -1t84 1q-12 -82 -16 -209.5t1 -218.5q-25 2 -86 2.5t-86 -0.5q-87 238 -405 238z" />
    <glyph glyph-name="scircumflex" unicode="&#x15d;" horiz-adv-x="1026" 
d="M821 1085l-18 -22q-62 14 -146.5 54.5t-144.5 86.5q-58 -44 -141 -84.5t-142 -54.5l-18 22q31 83 95 164t134 140h156q59 -46 121.5 -129t103.5 -177zM514 836q-84 0 -120 -22t-36 -56q0 -28 18.5 -44t72.5 -28t161 -22q379 -34 379 -353q0 -163 -103.5 -255.5
t-312.5 -92.5q-160 0 -294 80q-28 17 -48.5 20.5t-32.5 -5.5t-19 -24t-11 -38q-67 8 -129 0q25 177 20 319q64 -8 129 0q48 -90 135.5 -144t202.5 -54q154 0 154 84q0 25 -14 40t-62 27t-137 19q-213 17 -312.5 110.5t-99.5 247.5q0 157 117.5 255t316.5 97q128 -3 224 -61
q28 -16 45.5 -20t28 4.5t15.5 20t11 36.5q59 -4 123 0q-18 -140 -21 -289q-66 4 -133 0q-80 148 -268 148z" />
    <glyph glyph-name="Scedilla" unicode="&#x15e;" horiz-adv-x="1421" 
d="M616 -221l-24 51q111 46 135 137q-110 4 -192 27.5t-164 66.5q-57 28 -84.5 9t-36.5 -82q-22 3 -91 3t-89 -3q28 281 16 477q23 -3 86 -3t86 3q103 -287 514 -287q137 0 206 39t69 107q0 69 -80 100t-285 49q-297 20 -437.5 138t-140.5 333q0 224 146 364t416 140
q204 0 364 -82q34 -17 54.5 -22t32.5 6t17 24.5t11 44.5q20 -1 84 -1t84 1q-12 -82 -16 -209.5t1 -218.5q-25 2 -86 2.5t-86 -0.5q-87 238 -405 238q-141 0 -205.5 -37.5t-64.5 -97.5q0 -67 65.5 -94t253.5 -41q111 -8 199.5 -27t167.5 -55.5t131.5 -90t83 -133.5t30.5 -182
q0 -242 -148 -372t-429 -136q-6 -55 -51 -100q102 6 162.5 -39t60.5 -125q0 -89 -66 -141t-182 -52q-87 0 -148 35t-92 84l50 45q58 -67 133 -67q108 0 108 100q0 55 -47 77.5t-117 -3.5z" />
    <glyph glyph-name="scedilla" unicode="&#x15f;" horiz-adv-x="1026" 
d="M387 -221l-25 51q111 46 136 139q-118 12 -219 74q-28 17 -48.5 20.5t-32.5 -5.5t-19 -24t-11 -38q-67 8 -129 0q25 177 20 319q64 -8 129 0q48 -90 135.5 -144t202.5 -54q154 0 154 84q0 25 -14 40t-62 27t-137 19q-213 17 -312.5 110.5t-99.5 247.5q0 157 117.5 255
t316.5 97q128 -3 224 -61q28 -16 45.5 -20t28 4.5t15.5 20t11 36.5q59 -4 123 0q-18 -140 -21 -289q-66 4 -133 0q-80 148 -268 148q-84 0 -120 -22t-36 -56q0 -28 18.5 -44t72.5 -28t161 -22q379 -34 379 -353q0 -163 -103.5 -255.5t-312.5 -92.5q-6 -55 -49 -98
q102 6 163 -39t61 -125q0 -89 -66 -141t-182 -52q-87 0 -148 35t-92 84l49 45q58 -67 133 -67q109 0 109 100q0 55 -46.5 77.5t-117.5 -3.5z" />
    <glyph glyph-name="Scaron" unicode="&#x160;" horiz-adv-x="1421" 
d="M401 1837l19 21q62 -14 147 -54.5t144 -85.5q59 43 141.5 84t140.5 56l19 -23q-31 -84 -95 -164.5t-135 -140.5h-155q-61 49 -123 131t-103 176zM721 1231q-141 0 -205.5 -37.5t-64.5 -97.5q0 -67 65.5 -94t253.5 -41q111 -8 199.5 -27t167.5 -55.5t131.5 -90t83 -133.5
t30.5 -182q0 -248 -155 -378t-449 -130q-130 0 -221.5 24.5t-185.5 71.5q-57 28 -84.5 9t-36.5 -82q-22 3 -91 3t-89 -3q28 281 16 477q23 -3 86 -3t86 3q103 -287 514 -287q137 0 206 39t69 107q0 69 -80 100t-285 49q-297 20 -437.5 138t-140.5 333q0 224 146 364t416 140
q204 0 364 -82q34 -17 54.5 -22t32.5 6t17 24.5t11 44.5q20 -1 84 -1t84 1q-12 -82 -16 -209.5t1 -218.5q-25 2 -86 2.5t-86 -0.5q-87 238 -405 238z" />
    <glyph glyph-name="scaron" unicode="&#x161;" horiz-adv-x="1026" 
d="M217 1395l19 20q62 -14 146.5 -54t143.5 -85q58 43 141 83.5t142 55.5l18 -22q-31 -85 -95 -166t-134 -140h-156q-60 48 -122 131t-103 177zM514 836q-84 0 -120 -22t-36 -56q0 -28 18.5 -44t72.5 -28t161 -22q379 -34 379 -353q0 -163 -103.5 -255.5t-312.5 -92.5
q-160 0 -294 80q-28 17 -48.5 20.5t-32.5 -5.5t-19 -24t-11 -38q-67 8 -129 0q25 177 20 319q64 -8 129 0q48 -90 135.5 -144t202.5 -54q154 0 154 84q0 25 -14 40t-62 27t-137 19q-213 17 -312.5 110.5t-99.5 247.5q0 157 117.5 255t316.5 97q128 -3 224 -61
q28 -16 45.5 -20t28 4.5t15.5 20t11 36.5q59 -4 123 0q-18 -140 -21 -289q-66 4 -133 0q-80 148 -268 148z" />
    <glyph glyph-name="Tcommaaccent" unicode="&#x162;" horiz-adv-x="1517" 
d="M625 -219l-25 51q125 51 141 168l-399 -4q2 32 2 112.5t-2 114.5h66q68 0 100 34.5t37 100.5q3 66 4 356t-2 464h-84q-84 0 -121.5 -48.5t-42.5 -142.5l-8 -170q-35 3 -118 3t-118 -3q4 111 1 301t-11 301q120 -8 401 -8h625q303 0 399 8q-8 -111 -11 -301t1 -301
q-35 3 -116.5 3t-116.5 -3l-8 170q-5 94 -42.5 142.5t-121.5 48.5h-82q-3 -169 -2.5 -465t4.5 -355q3 -65 33 -100t98 -35h68v-227q-209 4 -361 4q3 -79 -51 -133q102 6 162.5 -39t60.5 -125q0 -88 -66 -140t-182 -52q-87 0 -147.5 34.5t-91.5 83.5l49 45q58 -67 133 -67
q108 0 108 100q0 55 -46 77.5t-117 -3.5z" />
    <glyph glyph-name="tcommaaccent" unicode="&#x163;" horiz-adv-x="745" 
d="M264 -221l-24 51q56 23 89 55.5t46 83.5q-135 9 -204 90.5t-69 229.5q0 68 4.5 247.5t4.5 251.5h-88q1 22 1 75.5t-1 76.5q145 1 233.5 104t116.5 271q23 -1 77.5 -1t77.5 1q-14 -112 -18 -350l203 8q-1 -28 -1 -94.5t1 -94.5l-203 2v-415q0 -117 12.5 -157t42.5 -40
q28 -1 43 28t17 78.5t-4 114.5h98q20 -204 -38.5 -310t-227.5 -116q-6 -61 -52 -104q102 6 163 -39t61 -125q0 -89 -66 -141t-182 -52q-87 0 -148 35t-92 84l49 45q58 -67 133 -67q109 0 109 100q0 55 -47 77.5t-117 -3.5z" />
    <glyph glyph-name="Tcaron" unicode="&#x164;" horiz-adv-x="1517" 
d="M453 1837l18 21q62 -14 147 -54.5t144 -85.5q59 43 141.5 84t140.5 56l19 -23q-31 -84 -95 -164.5t-134 -140.5h-156q-61 49 -122.5 131t-102.5 176zM1055 1178h-82q-3 -169 -2.5 -465t4.5 -355q3 -65 33 -100t98 -35h68v-227q-264 4 -416 4l-416 -4q2 32 2 112.5
t-2 114.5h66q68 0 100 34.5t37 100.5q3 66 4 356t-2 464h-84q-84 0 -121.5 -48.5t-42.5 -142.5l-8 -170q-35 3 -118 3t-118 -3q4 111 1 301t-11 301q120 -8 401 -8h625q303 0 399 8q-8 -111 -11 -301t1 -301q-35 3 -116.5 3t-116.5 -3l-8 170q-5 94 -42.5 142.5t-121.5 48.5
z" />
    <glyph glyph-name="tcaron" unicode="&#x165;" horiz-adv-x="999" 
d="M631 1065q112 21 171 76.5t68 136.5q-27 -47 -98 -47q-48 0 -75 31.5t-27 89.5q0 60 37 95.5t100 35.5q65 0 100 -44.5t35 -119.5q0 -118 -83.5 -195t-215.5 -100zM621 395h98q12 -101 1.5 -180.5t-43.5 -134.5t-99 -84t-166 -29q-153 0 -231.5 82.5t-78.5 239.5
q0 68 4.5 247.5t4.5 251.5h-88q1 22 1 75.5t-1 76.5q145 1 233.5 104t116.5 271q23 -1 77.5 -1t77.5 1q-14 -112 -18 -350l203 8q-1 -28 -1 -94.5t1 -94.5l-203 2v-415q0 -117 12.5 -157t42.5 -40q28 -1 43 28t17 78.5t-4 114.5z" />
    <glyph glyph-name="Tbar" unicode="&#x166;" horiz-adv-x="1517" 
d="M1055 1178h-82q-4 -258 -4 -525q95 6 217 11v-127q-23 0 -215 8q0 -137 4 -187q3 -65 33 -100t98 -35h68v-227q-264 4 -416 4l-416 -4q2 32 2 112.5t-2 114.5h66q68 0 100 34.5t37 100.5q0 6 1 70.5t1 116.5q-196 -8 -217 -8v127q13 0 44 -1.5t84 -3.5t91 -4
q0 394 -2 523h-84q-84 0 -121.5 -48.5t-42.5 -142.5l-8 -170q-35 3 -118 3t-118 -3q4 111 1 301t-11 301q120 -8 401 -8h625q303 0 399 8q-8 -111 -11 -301t1 -301q-35 3 -116.5 3t-116.5 -3l-8 170q-5 94 -42.5 142.5t-121.5 48.5z" />
    <glyph glyph-name="tbar" unicode="&#x167;" horiz-adv-x="745" 
d="M621 395h98q12 -101 1.5 -180.5t-43.5 -134.5t-99 -84t-166 -29q-153 0 -231.5 82.5t-78.5 239.5q0 76 4 268q-54 -4 -81 -4v127q14 0 84 -4q2 39 2 112h-88q1 22 1 75.5t-1 76.5q145 1 233.5 104t116.5 271q23 -1 77.5 -1t77.5 1q-14 -112 -18 -350l203 8
q-1 -28 -1 -94.5t1 -94.5l-203 2v-116l188 10v-127l-188 12v-194q0 -117 12.5 -157t42.5 -40q28 -1 43 28t17 78.5t-4 114.5z" />
    <glyph glyph-name="Utilde" unicode="&#x168;" horiz-adv-x="1669" 
d="M203 532q0 34 2 149t2.5 193t-2.5 185q-3 70 -30.5 100.5t-84.5 30.5h-45q1 34 1 112.5t-1 110.5q258 -4 401 -4q85 0 247 2t165 2v-223h-70q-60 0 -91.5 -31t-32.5 -100q-8 -293 0 -510q4 -180 64.5 -256t191.5 -76t192.5 75.5t65.5 256.5q8 306 0 510q-6 131 -119 131
h-68q1 34 1 112.5t-1 110.5q195 -4 312 -4q69 0 192 2t129 2v-223h-47q-57 0 -84.5 -31.5t-30.5 -99.5q-2 -81 -2 -169.5t1 -192t1 -156.5q0 -308 -155.5 -449t-452.5 -141q-339 0 -495 139.5t-156 441.5zM1118 1782l60 18q35 -95 13.5 -160.5t-77 -100t-129.5 -34.5
q-70 0 -122 30t-93 95q-25 38 -42.5 53t-43.5 15q-24 0 -40 -14.5t-21.5 -48t14.5 -89.5l-59 -18q-50 139 13 218t179 79q66 0 117 -29.5t96 -97.5q23 -37 43 -52.5t45 -15.5q39 0 54 35t-7 117z" />
    <glyph glyph-name="utilde" unicode="&#x169;" horiz-adv-x="1259" 
d="M1147 975q-1 -12 -8 -330q0 -307 2 -340q4 -67 22 -94t54 -27h20q-1 -28 -1 -92t1 -92q-403 0 -483 -4v199q-31 -109 -107.5 -170.5t-202.5 -61.5q-157 0 -241 93.5t-84 281.5v309q0 72 -17 104.5t-61 32.5h-21q2 28 2 94.5t-2 94.5q176 -4 242 -4q208 0 250 6
q-8 -156 -8 -338q0 -205 2 -258q5 -205 112 -205q80 0 108 81.5t28 274.5v140q0 63 -25 88.5t-96 25.5h-15q2 28 2 94.5t-2 94.5q199 -4 271 -4q216 0 258 6zM864 1339l60 19q35 -95 13.5 -160.5t-77 -100t-129.5 -34.5q-70 0 -122 30t-93 95q-25 38 -42.5 52.5t-43.5 14.5
q-24 0 -40 -14t-21.5 -47.5t14.5 -89.5l-59 -19q-50 139 13 218t179 79q66 0 117 -29.5t96 -97.5q42 -67 88 -67q40 0 54.5 34.5t-7.5 116.5z" />
    <glyph glyph-name="Umacron" unicode="&#x16a;" horiz-adv-x="1669" 
d="M203 532q0 34 2 149t2.5 193t-2.5 185q-3 70 -30.5 100.5t-84.5 30.5h-45q1 34 1 112.5t-1 110.5q258 -4 401 -4q85 0 247 2t165 2v-223h-70q-60 0 -91.5 -31t-32.5 -100q-8 -293 0 -510q4 -180 64.5 -256t191.5 -76t192.5 75.5t65.5 256.5q8 306 0 510q-6 131 -119 131
h-68q1 34 1 112.5t-1 110.5q195 -4 312 -4q69 0 192 2t129 2v-223h-47q-57 0 -84.5 -31.5t-30.5 -99.5q-2 -81 -2 -169.5t1 -192t1 -156.5q0 -308 -155.5 -449t-452.5 -141q-339 0 -495 139.5t-156 441.5zM645 1548q1 31 1 94t-1 95q94 -3 291 -3t291 3q-4 -94 0 -189
q-94 3 -291 3t-291 -3z" />
    <glyph glyph-name="umacron" unicode="&#x16b;" horiz-adv-x="1259" 
d="M1147 975q-1 -12 -8 -330q0 -307 2 -340q4 -67 22 -94t54 -27h20q-1 -28 -1 -92t1 -92q-403 0 -483 -4v199q-31 -109 -107.5 -170.5t-202.5 -61.5q-157 0 -241 93.5t-84 281.5v309q0 72 -17 104.5t-61 32.5h-21q2 28 2 94.5t-2 94.5q176 -4 242 -4q208 0 250 6
q-8 -156 -8 -338q0 -205 2 -258q5 -205 112 -205q80 0 108 81.5t28 274.5v140q0 63 -25 88.5t-96 25.5h-15q2 28 2 94.5t-2 94.5q199 -4 271 -4q216 0 258 6zM328 1108q4 92 0 188q94 -3 290.5 -3t290.5 3q-4 -94 0 -188q-94 3 -290.5 3t-290.5 -3z" />
    <glyph glyph-name="Ubreve" unicode="&#x16c;" horiz-adv-x="1669" 
d="M203 532q0 34 2 149t2.5 193t-2.5 185q-3 70 -30.5 100.5t-84.5 30.5h-45q1 34 1 112.5t-1 110.5q258 -4 401 -4q85 0 247 2t165 2v-223h-70q-60 0 -91.5 -31t-32.5 -100q-8 -293 0 -510q4 -180 64.5 -256t191.5 -76t192.5 75.5t65.5 256.5q8 306 0 510q-6 131 -119 131
h-68q1 34 1 112.5t-1 110.5q195 -4 312 -4q69 0 192 2t129 2v-223h-47q-57 0 -84.5 -31.5t-30.5 -99.5q-2 -81 -2 -169.5t1 -192t1 -156.5q0 -308 -155.5 -449t-452.5 -141q-339 0 -495 139.5t-156 441.5zM928 1520q-154 0 -226.5 84t-54.5 213l58 4q11 -113 223 -113
t223 113l57 -4q18 -129 -54 -213t-226 -84z" />
    <glyph glyph-name="ubreve" unicode="&#x16d;" horiz-adv-x="1259" 
d="M1147 975q-1 -12 -8 -330q0 -307 2 -340q4 -67 22 -94t54 -27h20q-1 -28 -1 -92t1 -92q-403 0 -483 -4v199q-31 -109 -107.5 -170.5t-202.5 -61.5q-157 0 -241 93.5t-84 281.5v309q0 72 -17 104.5t-61 32.5h-21q2 28 2 94.5t-2 94.5q176 -4 242 -4q208 0 250 6
q-8 -156 -8 -338q0 -205 2 -258q5 -205 112 -205q80 0 108 81.5t28 274.5v140q0 63 -25 88.5t-96 25.5h-15q2 28 2 94.5t-2 94.5q199 -4 271 -4q216 0 258 6zM608 1087q-154 0 -226 84t-54 213l57 5q11 -113 223 -113t223 113l58 -5q18 -129 -54.5 -213t-226.5 -84z" />
    <glyph glyph-name="Uring" unicode="&#x16e;" horiz-adv-x="1669" 
d="M1020 1714q0 46 -25 71t-69 25t-69.5 -25t-25.5 -71q0 -49 25 -75.5t70 -26.5t69.5 26.5t24.5 75.5zM1114 1714q0 -89 -49.5 -139.5t-138.5 -50.5t-140 50.5t-51 139.5q0 88 49.5 137.5t137.5 49.5q91 0 141.5 -49.5t50.5 -137.5zM203 532q0 34 2 149t2.5 193t-2.5 185
q-3 70 -30.5 100.5t-84.5 30.5h-45q1 34 1 112.5t-1 110.5q258 -4 401 -4q85 0 247 2t165 2v-223h-70q-60 0 -91.5 -31t-32.5 -100q-8 -293 0 -510q4 -180 64.5 -256t191.5 -76t192.5 75.5t65.5 256.5q8 306 0 510q-6 131 -119 131h-68q1 34 1 112.5t-1 110.5q195 -4 312 -4
q69 0 192 2t129 2v-223h-47q-57 0 -84.5 -31.5t-30.5 -99.5q-2 -81 -2 -169.5t1 -192t1 -156.5q0 -308 -155.5 -449t-452.5 -141q-339 0 -495 139.5t-156 441.5z" />
    <glyph glyph-name="uring" unicode="&#x16f;" horiz-adv-x="1259" 
d="M655 1276q0 46 -25 71t-69 25t-69 -25t-25 -71q0 -49 24.5 -75.5t69.5 -26.5t69.5 26.5t24.5 75.5zM750 1276q0 -89 -50 -140t-139 -51t-139.5 51t-50.5 140q0 88 49 137t137 49q91 0 142 -49t51 -137zM1147 975q-1 -12 -8 -330q0 -307 2 -340q4 -67 22 -94t54 -27h20
q-1 -28 -1 -92t1 -92q-403 0 -483 -4v199q-31 -109 -107.5 -170.5t-202.5 -61.5q-157 0 -241 93.5t-84 281.5v309q0 72 -17 104.5t-61 32.5h-21q2 28 2 94.5t-2 94.5q176 -4 242 -4q208 0 250 6q-8 -156 -8 -338q0 -205 2 -258q5 -205 112 -205q80 0 108 81.5t28 274.5v140
q0 63 -25 88.5t-96 25.5h-15q2 28 2 94.5t-2 94.5q199 -4 271 -4q216 0 258 6z" />
    <glyph glyph-name="Uhungarumlaut" unicode="&#x170;" horiz-adv-x="1669" 
d="M203 532q0 34 2 149t2.5 193t-2.5 185q-3 70 -30.5 100.5t-84.5 30.5h-45q1 34 1 112.5t-1 110.5q258 -4 401 -4q85 0 247 2t165 2v-223h-70q-60 0 -91.5 -31t-32.5 -100q-8 -293 0 -510q4 -180 64.5 -256t191.5 -76t192.5 75.5t65.5 256.5q8 306 0 510q-6 131 -119 131
h-68q1 34 1 112.5t-1 110.5q195 -4 312 -4q69 0 192 2t129 2v-223h-47q-57 0 -84.5 -31.5t-30.5 -99.5q-2 -81 -2 -169.5t1 -192t1 -156.5q0 -308 -155.5 -449t-452.5 -141q-339 0 -495 139.5t-156 441.5zM741 1522l-20 18q29 83 76.5 167.5t99.5 133.5q34 33 71 43t62.5 -2
t40 -35.5t5.5 -59.5t-42 -71q-51 -54 -135 -108.5t-158 -85.5zM1077 1522l-20 18q29 83 76.5 167.5t99.5 133.5q35 33 72 43t62.5 -2t39.5 -35.5t5 -59.5t-42 -71q-51 -54 -135 -108.5t-158 -85.5z" />
    <glyph glyph-name="uhungarumlaut" unicode="&#x171;" horiz-adv-x="1259" 
d="M1147 975q-1 -12 -8 -330q0 -307 2 -340q4 -67 22 -94t54 -27h20q-1 -28 -1 -92t1 -92q-403 0 -483 -4v199q-31 -109 -107.5 -170.5t-202.5 -61.5q-157 0 -241 93.5t-84 281.5v309q0 72 -17 104.5t-61 32.5h-21q2 28 2 94.5t-2 94.5q176 -4 242 -4q208 0 250 6
q-8 -156 -8 -338q0 -205 2 -258q5 -205 112 -205q80 0 108 81.5t28 274.5v140q0 63 -25 88.5t-96 25.5h-15q2 28 2 94.5t-2 94.5q199 -4 271 -4q216 0 258 6zM397 1079l-20 19q29 83 76.5 167.5t99.5 133.5q34 33 71 43t62.5 -2t40 -35.5t5.5 -59.5t-42 -71
q-51 -54 -135.5 -109t-157.5 -86zM733 1079l-20 19q29 83 76.5 167.5t99.5 133.5q35 33 72 43t62.5 -2t39.5 -35.5t5 -59.5t-42 -71q-51 -54 -135.5 -109t-157.5 -86z" />
    <glyph glyph-name="Uogonek" unicode="&#x172;" horiz-adv-x="1669" 
d="M203 532q0 34 2 149t2.5 193t-2.5 185q-3 70 -30.5 100.5t-84.5 30.5h-45q1 34 1 112.5t-1 110.5q258 -4 401 -4q85 0 247 2t165 2v-223h-70q-60 0 -91.5 -31t-32.5 -100q-8 -293 0 -510q4 -180 64.5 -256t191.5 -76t192.5 75.5t65.5 256.5q8 306 0 510q-6 131 -119 131
h-68q1 34 1 112.5t-1 110.5q195 -4 312 -4q69 0 192 2t129 2v-223h-47q-57 0 -84.5 -31.5t-30.5 -99.5q-2 -81 -2 -169.5t1 -192t1 -156.5q0 -301 -147.5 -441.5t-429.5 -148.5q-33 -36 -33 -92q0 -50 29.5 -74.5t76.5 -24.5q111 0 127 121l74 -10q5 -132 -52.5 -212.5
t-197.5 -80.5q-110 0 -172.5 50t-62.5 139q0 111 92 186q-293 17 -428 156.5t-135 422.5z" />
    <glyph glyph-name="uogonek" unicode="&#x173;" horiz-adv-x="1259" 
d="M1147 975q-1 -12 -8 -330q0 -307 2 -340q4 -67 22 -94t54 -27h20q-1 -28 -1 -92t1 -92h-154q-110 -40 -110 -141q0 -50 29.5 -74.5t76.5 -24.5q111 0 127 121l74 -10q5 -132 -52.5 -212.5t-197.5 -80.5q-110 0 -172.5 50t-62.5 139q0 79 46 140t124 93q-137 0 -211 -4
v199q-31 -109 -107.5 -170.5t-202.5 -61.5q-157 0 -241 93.5t-84 281.5v309q0 72 -17 104.5t-61 32.5h-21q2 28 2 94.5t-2 94.5q176 -4 242 -4q208 0 250 6q-8 -156 -8 -338q0 -205 2 -258q5 -205 112 -205q80 0 108 81.5t28 274.5v140q0 63 -25 88.5t-96 25.5h-15
q2 28 2 94.5t-2 94.5q199 -4 271 -4q216 0 258 6z" />
    <glyph glyph-name="Wcircumflex" unicode="&#x174;" horiz-adv-x="2369" 
d="M1620 1528l-18 -23q-61 13 -146 54.5t-145 87.5q-59 -44 -142 -85.5t-141 -54.5l-18 23q31 83 95 163t134 140h156q59 -46 121.5 -129t103.5 -176zM1798 -12q-71 2 -229.5 2t-229.5 -2q-35 155 -186 702q-41 -144 -111 -398t-81 -304q-65 2 -209 2t-207 -2
q-53 221 -151 587t-134 480q-23 72 -59.5 103.5t-110.5 31.5h-55v223q268 -4 422 -4q67 0 165 1t172 2t83 1v-223h-50q-59 0 -75.5 -31.5t-1.5 -103.5q17 -83 75.5 -301t96.5 -348q40 136 98 352t74 297q12 75 -4.5 105t-79.5 30h-33q1 34 1 112.5t-1 110.5q219 -4 344 -4
q73 0 206.5 2t137.5 2q-1 -32 -1 -110.5t1 -112.5h-47q-56 0 -72.5 -29.5t-1.5 -101.5q19 -88 78.5 -312t95.5 -346q36 127 92 348.5t70 299.5q7 45 7 76.5t-21 48t-68 16.5h-39q1 34 1 112.5t-1 110.5q187 -4 291 -4q60 0 169 2t116 2q-1 -32 -1 -110.5t1 -112.5h-60
q-77 0 -118 -29.5t-68 -113.5q-46 -144 -291 -1059z" />
    <glyph glyph-name="wcircumflex" unicode="&#x175;" horiz-adv-x="1783" 
d="M1282 1085l-18 -22q-62 14 -146.5 54.5t-144.5 86.5q-58 -44 -141 -84.5t-142 -54.5l-18 22q31 83 95 164t134 140h156q59 -46 121.5 -129t103.5 -177zM977 -20q-74 305 -143 550q-105 -345 -158 -550q-50 2 -154 2t-153 -2q-160 550 -185 630q-33 110 -58.5 142
t-84.5 32h-16q2 41 2 88t-1 74l-1 27q200 -6 311 -6l309 6q-1 -28 -1 -94.5t1 -94.5h-14q-40 0 -55.5 -25t-4.5 -85q11 -56 44.5 -190t58.5 -222q96 310 112 406q11 62 -3 89t-66 27h-17v189q175 -6 275 -6l278 6q-1 -28 -1 -94.5t1 -94.5h-18q-76 0 -57 -106
q33 -168 102 -426q80 291 104 416q14 56 2 86t-57 30h-22q1 28 1 94.5t-1 94.5q147 -6 227 -6l225 6q-4 -95 0 -189h-30q-72 0 -106 -33.5t-73 -148.5q-143 -427 -202 -622q-60 2 -185.5 2t-185.5 -2z" />
    <glyph glyph-name="Ycircumflex" unicode="&#x176;" horiz-adv-x="1753" 
d="M1389 1034q-44 -79 -140.5 -267.5t-140.5 -283.5v-145q0 -60 25.5 -88.5t95.5 -28.5h82q-4 -114 0 -225q-289 4 -451 4l-454 -4q2 32 2 112.5t-2 112.5h86q69 0 88.5 27.5t19.5 89.5v147q-210 428 -295 578q-38 68 -93 97.5t-144 29.5h-33q2 47 2 103t-1 88l-1 32
q301 -4 471 -4l469 4q-2 -112 0 -223h-51q-139 0 -60 -191q52 -125 154 -301q73 135 145 301q82 191 -51 191h-43q2 49 2 105t-1 87l-1 31q209 -4 326 -4l325 4q-4 -121 0 -223h-37q-69 0 -116.5 -9.5t-80.5 -32.5t-52.5 -47.5t-44.5 -66.5zM1286 1528l-18 -23
q-61 13 -146 54.5t-145 87.5q-59 -44 -142 -85.5t-141 -54.5l-18 23q31 83 95 163t134 140h156q59 -46 121.5 -129t103.5 -176z" />
    <glyph glyph-name="ycircumflex" unicode="&#x177;" horiz-adv-x="1206" 
d="M809 678q28 106 -59 106h-29q1 28 1 94.5t-1 94.5q141 -6 235 -6l226 6v-189h-33q-61 0 -93.5 -26t-54.5 -82q-88 -216 -210 -604q-44 -139 -94.5 -231.5t-109.5 -142.5t-120 -69.5t-141 -19.5q-122 0 -188 55t-66 150q0 83 50.5 133.5t137.5 50.5q79 0 121.5 -39
t42.5 -111q0 -81 -73.5 -122.5t-164.5 -6.5q47 -34 113 -34q55 0 96.5 16t71.5 42.5t56.5 77.5t45.5 103t45 137q-124 3 -254 -2q-31 118 -97.5 328.5t-96.5 288.5q-23 61 -45.5 84.5t-75.5 23.5h-27q2 40 2 87t-1 75l-1 27q195 -6 324 -6l324 6q-4 -95 0 -189h-25
q-43 0 -59 -27.5t-4 -78.5q26 -120 110 -385q111 345 121 385zM963 1085l-19 -22q-62 14 -146.5 54.5t-144.5 86.5q-58 -44 -140.5 -84.5t-141.5 -54.5l-19 22q31 83 95.5 163.5t134.5 140.5h155q60 -46 122.5 -129.5t103.5 -176.5z" />
    <glyph glyph-name="Ydieresis" unicode="&#x178;" horiz-adv-x="1753" 
d="M1389 1034q-44 -79 -140.5 -267.5t-140.5 -283.5v-145q0 -60 25.5 -88.5t95.5 -28.5h82q-4 -114 0 -225q-289 4 -451 4l-454 -4q2 32 2 112.5t-2 112.5h86q69 0 88.5 27.5t19.5 89.5v147q-210 428 -295 578q-38 68 -93 97.5t-144 29.5h-33q2 47 2 103t-1 88l-1 32
q301 -4 471 -4l469 4q-2 -112 0 -223h-51q-139 0 -60 -191q52 -125 154 -301q73 135 145 301q82 191 -51 191h-43q2 49 2 105t-1 87l-1 31q209 -4 326 -4l325 4q-4 -121 0 -223h-37q-69 0 -116.5 -9.5t-80.5 -32.5t-52.5 -47.5t-44.5 -66.5zM969 1661q0 -57 -35 -90t-90 -33
q-54 0 -89.5 33t-35.5 90t35.5 91t89.5 34q55 0 90 -34t35 -91zM1323 1661q0 -57 -35 -90t-90 -33q-54 0 -88.5 33t-34.5 90t34.5 91t88.5 34q55 0 90 -34t35 -91z" />
    <glyph glyph-name="Zacute" unicode="&#x179;" horiz-adv-x="1392" 
d="M705 1516l-17 24q50 75 124 150.5t138 111.5q33 19 64 24t53 -3t39 -22.5t21.5 -36.5t0 -44.5t-24.5 -46.5t-52 -43q-67 -39 -167 -71t-179 -43zM45 0q1 31 1 103.5t-1 103.5q268 344 739 983h-163q-105 0 -167 -14.5t-103 -56.5t-55.5 -112t-14.5 -188q-29 1 -101.5 1
t-101.5 -1q4 100 4.5 300t-2.5 298q357 -6 442 -6h807q-1 -31 -1 -103.5t1 -103.5q-270 -347 -731 -981h205q86 0 146 18t105.5 62t67 123t21.5 197q31 -1 102.5 -1t100.5 1q-10 -377 0 -629q-320 6 -410 6h-891z" />
    <glyph glyph-name="zacute" unicode="&#x17a;" horiz-adv-x="995" 
d="M428 1073l-16 25q50 75 124 150.5t138 111.5q33 19 64 24t53 -3t38.5 -22.5t21 -36.5t0 -44.5t-24.5 -46.5t-52 -43q-67 -39 -167 -71.5t-179 -43.5zM592 0h-563q1 28 1 88t-1 88q205 275 460 658h-69q-120 0 -177 -58t-67 -211q-20 1 -66 1t-65 -1q12 219 2 414
q76 -6 373 -6h526q-2 -28 -2 -89t2 -89q-238 -323 -467 -662h113q49 0 89.5 14.5t75 45.5t56 87.5t25.5 133.5q20 -3 66 -3t65 3q-9 -84 -11.5 -208.5t3.5 -211.5q-193 6 -369 6z" />
    <glyph glyph-name="Zdotaccent" unicode="&#x17b;" horiz-adv-x="1392" 
d="M45 0q1 31 1 103.5t-1 103.5q268 344 739 983h-163q-105 0 -167 -14.5t-103 -56.5t-55.5 -112t-14.5 -188q-29 1 -101.5 1t-101.5 -1q4 100 4.5 300t-2.5 298q357 -6 442 -6h807q-1 -31 -1 -103.5t1 -103.5q-270 -347 -731 -981h205q86 0 146 18t105.5 62t67 123
t21.5 197q31 -1 102.5 -1t100.5 1q-10 -377 0 -629q-320 6 -410 6h-891zM879 1688q0 -66 -38.5 -105t-103.5 -39q-64 0 -101.5 39t-37.5 105q0 64 37 101.5t102 37.5t103.5 -37.5t38.5 -101.5z" />
    <glyph glyph-name="zdotaccent" unicode="&#x17c;" horiz-adv-x="995" 
d="M592 0h-563q1 28 1 88t-1 88q205 275 460 658h-69q-120 0 -177 -58t-67 -211q-20 1 -66 1t-65 -1q12 219 2 414q76 -6 373 -6h526q-2 -28 -2 -89t2 -89q-238 -323 -467 -662h113q49 0 89.5 14.5t75 45.5t56 87.5t25.5 133.5q20 -3 66 -3t65 3q-9 -84 -11.5 -208.5
t3.5 -211.5q-193 6 -369 6zM647 1245q0 -66 -38 -104.5t-103 -38.5q-64 0 -101.5 38.5t-37.5 104.5q0 65 37.5 102t101.5 37q65 0 103 -37.5t38 -101.5z" />
    <glyph glyph-name="Zcaron" unicode="&#x17d;" horiz-adv-x="1392" 
d="M430 1837l19 21q62 -14 146 -54.5t144 -85.5q59 43 142 84t141 56l18 -23q-31 -84 -95 -164.5t-134 -140.5h-156q-61 49 -122.5 131t-102.5 176zM45 0q1 31 1 103.5t-1 103.5q268 344 739 983h-163q-105 0 -167 -14.5t-103 -56.5t-55.5 -112t-14.5 -188q-29 1 -101.5 1
t-101.5 -1q4 100 4.5 300t-2.5 298q357 -6 442 -6h807q-1 -31 -1 -103.5t1 -103.5q-270 -347 -731 -981h205q86 0 146 18t105.5 62t67 123t21.5 197q31 -1 102.5 -1t100.5 1q-10 -377 0 -629q-320 6 -410 6h-891z" />
    <glyph glyph-name="zcaron" unicode="&#x17e;" horiz-adv-x="995" 
d="M221 1395l19 20q62 -14 146.5 -54t143.5 -85q58 43 141 83.5t142 55.5l18 -22q-31 -85 -95 -166t-134 -140h-156q-60 48 -122 131t-103 177zM592 0h-563q1 28 1 88t-1 88q205 275 460 658h-69q-120 0 -177 -58t-67 -211q-20 1 -66 1t-65 -1q12 219 2 414q76 -6 373 -6
h526q-2 -28 -2 -89t2 -89q-238 -323 -467 -662h113q49 0 89.5 14.5t75 45.5t56 87.5t25.5 133.5q20 -3 66 -3t65 3q-9 -84 -11.5 -208.5t3.5 -211.5q-193 6 -369 6z" />
    <glyph glyph-name="longs" unicode="&#x17f;" horiz-adv-x="706" 
d="M641 184q-1 -16 -1 -53.5t0.5 -81.5t0.5 -53q-1 0 -55.5 1t-128.5 2t-123 1q-32 0 -74.5 -0.5t-81.5 -1t-73.5 -1t-56.5 -1t-23 -0.5q1 28 1 94t-1 94h36q39 0 57 21t21 65q5 94 4.5 323.5t-4.5 375.5q-8 228 89.5 344.5t318.5 116.5q153 0 240 -63.5t87 -170.5
q0 -74 -40 -111.5t-113 -37.5q-67 0 -105 34.5t-38 96.5q0 68 48.5 104t127.5 27q-28 14 -82 14q-111 0 -152 -74t-10 -248l14 -90q-6 -103 -5.5 -336.5t5.5 -304.5q6 -86 80 -86h37z" />
    <glyph glyph-name="florin" unicode="&#x192;" horiz-adv-x="1165" 
d="M225 688v141l156 -6q-10 138 10.5 247.5t62.5 179.5t103 116.5t127.5 66t140.5 19.5q158 0 243 -65.5t85 -180.5q0 -79 -41.5 -122.5t-118.5 -43.5q-66 0 -103.5 31t-37.5 88q0 65 44.5 97t123.5 24q-39 39 -105 39q-37 0 -63.5 -6t-53 -23t-42 -52t-25 -88t-7 -135.5
t16.5 -191.5l201 6v-141l-184 4q10 -109 9.5 -199t-16 -162t-37.5 -128.5t-56 -98.5t-71.5 -71t-83.5 -46.5t-92 -25.5t-98 -8q-143 0 -220 59t-77 162q0 73 42 115.5t118 42.5q65 0 100 -29.5t35 -83.5q0 -55 -34.5 -85t-96.5 -30l-35 2q38 -38 113 -38q60 0 96.5 26.5
t57 94.5t16 191.5t-32.5 311.5z" />
    <glyph glyph-name="uni01B5" unicode="&#x1b5;" horiz-adv-x="1392" 
d="M45 0q1 31 1 103.5t-1 103.5q64 80 272 358q-105 -6 -153 -6v115q56 0 229 -10l391 526h-163q-105 0 -167 -14.5t-103 -56.5t-55.5 -112t-14.5 -188q-29 1 -101.5 1t-101.5 -1q4 100 4.5 300t-2.5 298q357 -6 442 -6h807q-1 -31 -1 -103.5t1 -103.5q-159 -204 -405 -536
l143 6v-115q-35 0 -215 12l-254 -348h205q86 0 146 18t105.5 62t67 123t21.5 197q31 -1 102.5 -1t100.5 1q-10 -377 0 -629q-320 6 -410 6h-891z" />
    <glyph glyph-name="uni01B6" unicode="&#x1b6;" horiz-adv-x="995" 
d="M592 0h-563q1 28 1 88t-1 88l157 217q-64 -14 -118 -20l-11 82q152 17 187 20q65 92 245 359h-69q-120 0 -177 -58t-67 -211q-20 1 -66 1t-65 -1q12 219 2 414q76 -6 373 -6h526q-2 -28 -2 -89t2 -89q-68 -89 -168 -232q37 8 121 23l10 -82q-8 -1 -41.5 -5.5t-72 -9
t-74.5 -8.5q-22 -31 -242 -348h113q49 0 89.5 14.5t75 45.5t56 87.5t25.5 133.5q20 -3 66 -3t65 3q-9 -84 -11.5 -208.5t3.5 -211.5q-193 6 -369 6z" />
    <glyph glyph-name="uni01FA" unicode="&#x1fa;" horiz-adv-x="1812" 
d="M942 223q147 0 72 203q-292 4 -455 2q-36 -106 -17 -155.5t97 -49.5h72q-1 -34 -1 -114.5t1 -112.5q-213 4 -334 4l-332 -4q1 32 1 112.5t-1 114.5h43q88 0 135 41t88 144q2 6 61.5 163t126 331.5t127.5 335t70 185.5q141 -4 219 -4l220 4q59 -169 192.5 -513.5
t200.5 -503.5q45 -108 86.5 -145.5t103.5 -37.5h49q-1 -34 -1 -114.5t1 -112.5q-288 4 -450 4l-453 -4q2 32 2 112.5t-2 114.5h78zM971 559q-54 158 -185 504q-117 -321 -180 -504q186 -3 365 0zM780 1954l-16 24q51 75 124.5 151t137.5 112q33 19 64 24t53 -3t38.5 -23
t21 -37t0 -44.5t-24.5 -46.5t-52 -43q-67 -39 -167 -71t-179 -43zM999 1714q0 46 -25 71t-69 25t-69 -25t-25 -71q0 -49 24.5 -75.5t69.5 -26.5t69.5 26.5t24.5 75.5zM1094 1714q0 -89 -50 -139.5t-139 -50.5t-139.5 50.5t-50.5 139.5q0 88 49 137.5t137 49.5
q91 0 142 -49.5t51 -137.5z" />
    <glyph glyph-name="aringacute" unicode="&#x1fb;" horiz-adv-x="1157" 
d="M965 575v-260q0 -84 6 -110.5t30 -26.5q58 0 37 225l82 3q12 -97 2.5 -177.5t-37.5 -138.5t-86.5 -90.5t-144.5 -32.5q-198 0 -252 146q-95 -146 -297 -146q-123 0 -197.5 60.5t-74.5 177.5q0 70 29.5 125t79.5 91t121.5 60.5t148.5 36t168 14.5v93q0 128 -49.5 175.5
t-176.5 45.5q74 -39 74 -127q0 -72 -47 -112t-131 -40q-78 0 -123 41t-45 119q0 84 61.5 146.5t159.5 93t217 30.5q126 0 212.5 -26t137.5 -81t73 -131t22 -184zM582 213q-2 16 -2 74v170q-79 -6 -118.5 -42t-39.5 -114q0 -69 21.5 -95t62.5 -26q52 0 76 33zM449 1513
l-17 25q50 75 124 150.5t138 111.5q33 19 64 24t53 -3t39 -22.5t21.5 -36.5t0 -44.5t-24.5 -46.5t-52 -43q-67 -39 -167 -71.5t-179 -43.5zM653 1276q0 46 -25 71t-69 25t-69 -25t-25 -71q0 -49 24.5 -75.5t69.5 -26.5t69.5 26.5t24.5 75.5zM748 1276q0 -89 -50 -140
t-139 -51t-139.5 51t-50.5 140q0 88 49 137t137 49q91 0 142 -49t51 -137z" />
    <glyph glyph-name="AEacute" unicode="&#x1fc;" horiz-adv-x="2248" 
d="M1403 778h49q93 0 127.5 39.5t34.5 138.5v64h174q-14 -208 -14 -311q0 -168 14 -314q-88 2 -170 0v58q-2 105 -37 146.5t-131 41.5h-47q0 -215 6 -289q3 -72 34 -100.5t95 -28.5h172q93 0 145.5 28t78.5 98.5t26 197.5v18q38 -1 122 -1t122 1q-21 -228 -21 -575
q-120 10 -438 10h-571q-340 0 -390 -4v227h60q67 0 94 31.5t33 103.5q2 20 2 99h-348l-21 -43q-90 -191 53 -191h56v-227q-215 4 -336 4l-332 -4q1 32 1 112.5t-1 114.5h45q85 0 141 42t121 143q267 416 404 655q32 53 14.5 92t-86.5 39h-33v227q135 -12 553 -12q44 0 190 1
t310 1q395 0 491 12q-16 -241 -12 -538q-35 1 -114.5 1t-114.5 -1v16q0 91 -17 150t-52 88t-75.5 39t-101.5 10h-172q-63 0 -93.5 -29.5t-33.5 -93.5q-6 -88 -6 -287zM1276 1516l-16 24q50 75 124 150.5t138 111.5q33 19 64 24t53 -3t38.5 -22.5t21 -36.5t0 -44.5
t-24.5 -46.5t-52 -43q-67 -39 -167 -71t-179 -43zM965 1059q-139 -225 -275 -477q197 0 285 2q3 267 -10 475z" />
    <glyph glyph-name="aeacute" unicode="&#x1fd;" horiz-adv-x="1599" 
d="M711 1073l-17 25q50 75 124 150.5t138 111.5q33 19 64 24t53 -3t39 -22.5t21.5 -36.5t0 -44.5t-24.5 -46.5t-52 -43q-67 -39 -167 -71.5t-179 -43.5zM1550 340q-6 -175 -120 -275t-340 -100q-315 0 -437 185q-43 -91 -126.5 -137t-190.5 -46q-145 0 -224 62.5t-79 193.5
q0 148 148.5 224.5t398.5 84.5v111q0 201 -160 201q-32 0 -68 -4q74 -30 74 -121q0 -73 -46 -112.5t-130 -39.5q-78 0 -122 42t-44 118q0 85 61 147.5t158.5 92.5t216.5 30q192 0 299 -69q113 69 277 69q128 0 221.5 -42.5t146.5 -120.5t75.5 -180t14.5 -228h-575
q5 -138 36 -194t105 -56q68 0 101 41.5t41 130.5q204 -13 288 -8zM1083 797q-36 0 -57 -21.5t-33.5 -84t-13.5 -175.5h151q29 0 38.5 12.5t9.5 46.5q0 121 -23.5 171.5t-71.5 50.5zM600 264q-20 70 -20 170v23q-80 -6 -119 -41t-39 -115q0 -69 20.5 -94t61.5 -25q77 0 96 82
z" />
    <glyph glyph-name="Oslashacute" unicode="&#x1fe;" horiz-adv-x="1615" 
d="M719 1516l-17 24q50 75 124 150t139 112q33 19 64 24t53 -3t38.5 -22.5t21 -36.5t0 -44.5t-24.5 -46.5t-52 -43q-67 -39 -167 -71t-179 -43zM809 -35q-286 0 -461 103l-153 -152l-50 39l119 176q-196 181 -196 574q0 189 52.5 331.5t150 232.5t232.5 134.5t306 44.5
q287 0 457 -102l166 163l45 -34l-127 -191q198 -183 198 -577q0 -156 -37 -281t-102 -210.5t-158.5 -142.5t-203 -82.5t-238.5 -25.5zM809 195q142 0 195 113.5t53 398.5q0 137 -10 225l-205 -234l-256 -327q25 -94 77.5 -135t145.5 -41zM567 481l226 258l235 303
q-24 94 -76.5 135.5t-142.5 41.5q-139 0 -194.5 -115.5t-55.5 -398.5q0 -134 8 -224z" />
    <glyph glyph-name="oslashacute" unicode="&#x1ff;" horiz-adv-x="1122" 
d="M473 1073l-16 25q50 75 124 150.5t138 111.5q33 19 64 24t53 -3t38.5 -22.5t21 -36.5t0 -44.5t-24.5 -46.5t-52 -43q-67 -39 -167 -71.5t-179 -43.5zM51 473q0 262 134.5 393t375.5 131q190 0 311 -75l115 125l33 -27l-88 -146q139 -133 139 -403q0 -508 -510 -508
q-180 0 -303 66l-115 -117l-34 29l86 135q-144 126 -144 397zM440 471q0 -75 2 -104l111 127l119 159q-13 83 -40 114.5t-73 31.5q-42 0 -66.5 -24.5t-38.5 -97.5t-14 -206zM682 471q0 38 -4 100l-94 -110l-131 -176q11 -69 37 -93t71 -24q42 0 66 19.5t39.5 88t15.5 195.5z
" />
    <glyph glyph-name="Scommaaccent" unicode="&#x218;" horiz-adv-x="1421" 
d="M569 -532q112 21 171.5 76.5t68.5 136.5q-28 -48 -98 -48q-48 0 -75.5 31.5t-27.5 89.5q0 60 37 95.5t100 35.5q65 0 100.5 -44.5t35.5 -119.5q0 -118 -83.5 -194.5t-215.5 -99.5zM721 1231q-141 0 -205.5 -37.5t-64.5 -97.5q0 -67 65.5 -94t253.5 -41q111 -8 199.5 -27
t167.5 -55.5t131.5 -90t83 -133.5t30.5 -182q0 -248 -155 -378t-449 -130q-130 0 -221.5 24.5t-185.5 71.5q-57 28 -84.5 9t-36.5 -82q-22 3 -91 3t-89 -3q28 281 16 477q23 -3 86 -3t86 3q103 -287 514 -287q137 0 206 39t69 107q0 69 -80 100t-285 49q-297 20 -437.5 138
t-140.5 333q0 224 146 364t416 140q204 0 364 -82q34 -17 54.5 -22t32.5 6t17 24.5t11 44.5q20 -1 84 -1t84 1q-12 -82 -16 -209.5t1 -218.5q-25 2 -86 2.5t-86 -0.5q-87 238 -405 238z" />
    <glyph glyph-name="scommaaccent" unicode="&#x219;" horiz-adv-x="1026" 
d="M356 -532q112 21 171.5 76.5t68.5 136.5q-28 -48 -98 -48q-48 0 -75.5 31.5t-27.5 89.5q0 60 37 95.5t100 35.5q65 0 100.5 -44.5t35.5 -119.5q0 -118 -83.5 -194.5t-215.5 -99.5zM514 836q-84 0 -120 -22t-36 -56q0 -28 18.5 -44t72.5 -28t161 -22q379 -34 379 -353
q0 -163 -103.5 -255.5t-312.5 -92.5q-160 0 -294 80q-28 17 -48.5 20.5t-32.5 -5.5t-19 -24t-11 -38q-67 8 -129 0q25 177 20 319q64 -8 129 0q48 -90 135.5 -144t202.5 -54q154 0 154 84q0 25 -14 40t-62 27t-137 19q-213 17 -312.5 110.5t-99.5 247.5q0 157 117.5 255
t316.5 97q128 -3 224 -61q28 -16 45.5 -20t28 4.5t15.5 20t11 36.5q59 -4 123 0q-18 -140 -21 -289q-66 4 -133 0q-80 148 -268 148z" />
    <glyph glyph-name="uni021A" unicode="&#x21a;" horiz-adv-x="1517" 
d="M582 -541q112 21 171 76.5t68 136.5q-27 -47 -98 -47q-48 0 -75 31.5t-27 89.5q0 60 37 95.5t100 35.5q65 0 100 -44.5t35 -119.5q0 -118 -83.5 -195t-215.5 -100zM1055 1178h-82q-3 -169 -2.5 -465t4.5 -355q3 -65 33 -100t98 -35h68v-227q-264 4 -416 4l-416 -4
q2 32 2 112.5t-2 114.5h66q68 0 100 34.5t37 100.5q3 66 4 356t-2 464h-84q-84 0 -121.5 -48.5t-42.5 -142.5l-8 -170q-35 3 -118 3t-118 -3q4 111 1 301t-11 301q120 -8 401 -8h625q303 0 399 8q-8 -111 -11 -301t1 -301q-35 3 -116.5 3t-116.5 -3l-8 170
q-5 94 -42.5 142.5t-121.5 48.5z" />
    <glyph glyph-name="uni021B" unicode="&#x21b;" horiz-adv-x="745" 
d="M221 -532q112 21 171.5 76.5t68.5 136.5q-28 -48 -99 -48q-48 0 -75 31.5t-27 89.5q0 60 37 95.5t100 35.5q65 0 100 -44.5t35 -119.5q0 -118 -83.5 -194.5t-215.5 -99.5zM621 395h98q12 -101 1.5 -180.5t-43.5 -134.5t-99 -84t-166 -29q-153 0 -231.5 82.5t-78.5 239.5
q0 68 4.5 247.5t4.5 251.5h-88q1 22 1 75.5t-1 76.5q145 1 233.5 104t116.5 271q23 -1 77.5 -1t77.5 1q-14 -112 -18 -350l203 8q-1 -28 -1 -94.5t1 -94.5l-203 2v-415q0 -117 12.5 -157t42.5 -40q28 -1 43 28t17 78.5t-4 114.5z" />
    <glyph glyph-name="uni0237" unicode="&#x237;" horiz-adv-x="653" 
d="M127 -180q0 -60 -43 -98.5t-127 -24.5q40 -29 94 -29q70 0 107 47t41 150q4 108 4.5 445.5t-2.5 379.5q-6 94 -88 94h-23v185q418 0 498 6q-1 -23 -1 -227.5t0.5 -453.5t0.5 -255q0 -221 -110 -335t-318 -114q-146 0 -230 55t-84 152q0 71 40 111.5t110 40.5
q61 0 96 -34.5t35 -94.5z" />
    <glyph glyph-name="circumflex" unicode="&#x2c6;" horiz-adv-x="1089" 
d="M825 1114l-18 -22q-62 14 -146.5 54.5t-144.5 86.5q-58 -44 -141 -84.5t-142 -54.5l-18 22q31 83 95 163t134 140h156q59 -46 121.5 -129t103.5 -176z" />
    <glyph glyph-name="caron" unicode="&#x2c7;" horiz-adv-x="1089" 
d="M215 1423l18 21q63 -14 147.5 -54t143.5 -85q58 43 141 83.5t142 55.5l18 -23q-31 -84 -95 -164.5t-134 -140.5h-156q-61 49 -122.5 131t-102.5 176z" />
    <glyph glyph-name="breve" unicode="&#x2d8;" horiz-adv-x="1089" 
d="M526 1116q-154 0 -226 84t-54 213l57 4q11 -112 223 -112q213 0 224 112l57 -4q18 -129 -54.5 -213t-226.5 -84z" />
    <glyph glyph-name="dotaccent" unicode="&#x2d9;" horiz-adv-x="1089" 
d="M709 1274q0 -66 -38.5 -105t-103.5 -39q-64 0 -101.5 39t-37.5 105q0 64 37 101.5t102 37.5t103.5 -37.5t38.5 -101.5z" />
    <glyph glyph-name="ring" unicode="&#x2da;" horiz-adv-x="1089" 
d="M651 1300q0 46 -25 71.5t-69 25.5t-69 -25.5t-25 -71.5q0 -49 24.5 -75.5t69.5 -26.5t69.5 26.5t24.5 75.5zM745 1300q0 -89 -49.5 -139.5t-138.5 -50.5t-139.5 50.5t-50.5 139.5q0 88 49 137.5t137 49.5q91 0 141.5 -49.5t50.5 -137.5z" />
    <glyph glyph-name="ogonek" unicode="&#x2db;" horiz-adv-x="1089" 
d="M813 -129q5 -132 -52.5 -212.5t-197.5 -80.5q-110 0 -172.5 50t-62.5 139q1 81 49.5 143t128 93t174.5 28l12 -13q-186 -27 -186 -159q0 -50 29.5 -74.5t76.5 -24.5q111 0 127 121z" />
    <glyph glyph-name="tilde" unicode="&#x2dc;" horiz-adv-x="1089" 
d="M772 1368l59 18q35 -95 14 -160.5t-76.5 -99.5t-129.5 -34q-70 0 -122 30t-93 95q-25 38 -42.5 52.5t-43.5 14.5q-24 0 -40 -14t-21.5 -47.5t14.5 -89.5l-60 -19q-50 139 13.5 218t179.5 79q66 0 117 -29.5t96 -97.5q42 -67 88 -67q40 0 54.5 34.5t-7.5 116.5z" />
    <glyph glyph-name="hungarumlaut" unicode="&#x2dd;" horiz-adv-x="1089" 
d="M231 1108l-20 18q29 83 76.5 167.5t99.5 133.5q34 33 71 43.5t62.5 -2t40 -35.5t5.5 -59t-42 -71q-51 -54 -135.5 -109t-157.5 -86zM567 1108l-20 18q29 83 76.5 167.5t99.5 133.5q35 33 72 43.5t62.5 -2t39.5 -35.5t5 -59t-42 -71q-51 -54 -135.5 -109t-157.5 -86z" />
    <glyph glyph-name="Wgrave" unicode="&#x1e80;" horiz-adv-x="2369" 
d="M1798 -12q-71 2 -229.5 2t-229.5 -2q-35 155 -186 702q-41 -144 -111 -398t-81 -304q-65 2 -209 2t-207 -2q-53 221 -151 587t-134 480q-23 72 -59.5 103.5t-110.5 31.5h-55v223q268 -4 422 -4q67 0 165 1t172 2t83 1v-223h-50q-59 0 -75.5 -31.5t-1.5 -103.5
q17 -83 75.5 -301t96.5 -348q40 136 98 352t74 297q12 75 -4.5 105t-79.5 30h-33q1 34 1 112.5t-1 110.5q219 -4 344 -4q73 0 206.5 2t137.5 2q-1 -32 -1 -110.5t1 -112.5h-47q-56 0 -72.5 -29.5t-1.5 -101.5q19 -88 78.5 -312t95.5 -346q36 127 92 348.5t70 299.5
q7 45 7 76.5t-21 48t-68 16.5h-39q1 34 1 112.5t-1 110.5q187 -4 291 -4q60 0 169 2t116 2q-1 -32 -1 -110.5t1 -112.5h-60q-77 0 -118 -29.5t-68 -113.5q-46 -144 -291 -1059zM1401 1544l-17 -24q-83 11 -182.5 43.5t-169.5 74.5q-40 25 -59 59.5t-12.5 63.5t28.5 50.5
t62 20.5t88 -26q67 -38 139 -112t123 -150z" />
    </font>
</defs>
</svg>
