<?xml version="1.0" standalone="no"?>
<!DOCTYPE svg PUBLIC "-//W3C//DTD SVG 1.1//EN" "http://www.w3.org/Graphics/SVG/1.1/DTD/svg11.dtd" >
<svg xmlns="http://www.w3.org/2000/svg" xmlns:xlink="http://www.w3.org/1999/xlink" version="1.1">
<metadata>
Created by FontForge 20170731 at Wed Sep  8 12:09:12 2021
 By Aleksey,,,
(C)2010 House Industries/Brand Design Co., Inc. All Rights Reserved.
</metadata>
<defs>
<font id="EamesCenturyModern-Bold" horiz-adv-x="1228" >
  <font-face 
    font-family="Eames Century Modern Bold"
    font-weight="700"
    font-stretch="normal"
    units-per-em="2048"
    panose-1="2 0 8 3 7 7 5 2 2 3"
    ascent="1679"
    descent="-369"
    x-height="961"
    cap-height="1413"
    bbox="-451 -584 2294 2252.51"
    underline-thickness="102"
    underline-position="-307"
    unicode-range="U+0020-FB04"
  />
<missing-glyph horiz-adv-x="1024" 
 />
    <glyph glyph-name="f_f" unicode="ff" horiz-adv-x="1347" 
d="M1260 156v-160q-187 4 -291 4l-291 -4v160h41q74 0 80 92q6 130 2 567l-312 -2q-3 -160 -1.5 -335.5t4.5 -229.5q6 -92 90 -92h34q-2 -19 -2 -80t2 -80q-188 4 -292 4l-293 -4q1 19 1 80t-1 80h49q74 0 84 92q6 86 2 559l-123 -4v155l121 -4v45q-4 211 83.5 319.5
t258.5 108.5q72 0 125 -18.5t83 -50.5t44 -69t14 -79q1 -75 -36.5 -115t-106.5 -40q-62 0 -97.5 33.5t-35.5 91.5q0 68 47 100t119 23q-44 28 -99 28q-100 0 -130.5 -89.5t26.5 -258.5l12 -33l328 -2v25q-8 229 89 341.5t302 112.5q155 0 232 -66.5t79 -162.5
q0 -66 -38 -104.5t-107 -38.5q-64 0 -100.5 34t-36.5 91q0 68 47.5 101.5t122.5 21.5q-44 28 -105 28q-72 0 -112 -27.5t-55 -99.5t-1 -198l6 -54l127 6v-155l-127 6q-4 -390 4 -561q3 -46 21.5 -69t60.5 -23h52z" />
    <glyph glyph-name="f_i" unicode="fi" horiz-adv-x="1292" 
d="M45 958l119 -4v9q-1 241 119 352.5t376 111.5q173 0 275 -62t102 -163q0 -72 -40 -109.5t-109 -37.5q-72 0 -108 33.5t-36 93.5q0 53 30 85t87 36q-46 18 -117 18q-125 0 -188 -62t-63 -215v-88q495 0 634 11q-3 -115 -3 -369t3 -340q3 -62 25 -82t82 -20h29
q-2 -28 -2 -84.5t2 -75.5q-189 4 -293 4l-293 -4q2 19 2 75.5t-2 84.5h26q53 0 73.5 20.5t23.5 77.5q3 68 3.5 223t-3.5 225q-4 60 -27 83.5t-74 25.5q-31 2 -209 2q0 -501 5 -565q3 -50 19 -71t69 -21h32q-4 -80 0 -160q-184 4 -288 4l-293 -4q1 19 1 80t-1 80h51
q74 0 80 92q6 71 2 559l-121 -4v155z" />
    <glyph glyph-name="f_l" unicode="fl" horiz-adv-x="1288" 
d="M1126 1419q-3 -100 -3 -587t3 -556q3 -68 25.5 -94t79.5 -26h29q-4 -74 0 -160q-193 4 -297 4l-287 -4q2 19 2 75.5t-2 84.5h31q50 0 69.5 26t22.5 94q3 66 3 436t-3 427q-3 68 -29 94q2 -13 2 -27q0 -74 -38 -112.5t-111 -38.5q-62 0 -98 34.5t-36 92.5q0 60 39 91.5
t101 31.5l39 -5q-47 31 -105 31q-101 0 -132.5 -91t28.5 -257l12 -31l147 6v-155l-126 4q-5 -485 2 -559q6 -92 84 -92h36q-2 -19 -2 -80t2 -80q-180 4 -286 4l-297 -4q1 19 1 80t-1 80h51q72 0 82 92q6 86 2 559l-123 -4v155l121 -4v45q-4 211 83.5 319.5t258.5 108.5
q98 0 162 -36v22q378 0 458 6z" />
    <glyph glyph-name="f_f_i" unicode="ffi" horiz-adv-x="1929" 
d="M1253 156v-160q-184 4 -288 4l-285 -4v160h47q38 0 55.5 23t20.5 69q4 49 0 565h-316q-3 -163 -0.5 -335t5.5 -230q6 -92 90 -92h39q-1 -19 -1 -80t1 -80q-189 4 -293 4l-297 -4q1 19 1 80t-1 80h51q72 0 82 92q6 86 2 559l-123 -4v155l121 -4v45q-4 215 86.5 321.5
t263.5 106.5q71 0 123 -19t80.5 -51.5t41.5 -69.5t13 -79q0 -76 -36.5 -114.5t-104.5 -38.5q-65 0 -100 34t-35 93q0 69 50.5 100t121.5 21q-47 28 -103 28q-100 0 -132.5 -89.5t22.5 -258.5l14 -35h332v23q-2 229 120.5 342.5t376.5 113.5q181 0 274 -62t93 -163
q0 -71 -42 -109t-116 -38q-66 0 -103.5 34.5t-37.5 92.5q0 55 34.5 85.5t94.5 35.5q-52 22 -123 22q-126 0 -184 -59.5t-58 -210.5v-99q472 0 633 11q-3 -115 -3 -369t3 -340q3 -61 25.5 -81.5t81.5 -20.5h28v-160q-186 4 -290 4l-295 -4q1 19 1 75.5t-1 84.5h28
q51 0 71.5 20.5t23.5 77.5q3 68 3.5 223t-3.5 225q-3 59 -25.5 83t-69.5 26q-31 2 -213 2q0 -501 5 -565q3 -49 20 -70.5t66 -21.5h34z" />
    <glyph glyph-name="f_f_l" unicode="ffl" horiz-adv-x="1925" 
d="M43 958l121 -4v45q-4 211 83.5 319.5t258.5 108.5q72 0 125 -19t82 -51.5t43 -70.5t14 -82q3 -149 -141 -149q-65 0 -99 34.5t-34 92.5q0 64 46.5 97t119.5 24q-42 28 -99 28q-101 0 -133 -90.5t27 -257.5l12 -33l332 -2v51q-4 211 85 319.5t261 108.5q92 0 158 -34v20
q378 0 458 6q-2 -119 -2.5 -586.5t2.5 -556.5q3 -68 25.5 -94t79.5 -26h30q-2 -28 -2 -84.5t2 -75.5q-188 4 -292 4l-293 -4v160h30q56 0 73 24.5t20 95.5q3 66 3 436t-3 427q-3 66 -27 92q9 -81 -27.5 -128.5t-113.5 -47.5q-64 0 -97.5 34t-33.5 95q0 62 45 95.5t118 23.5
q-39 28 -98 28q-101 0 -131 -95.5t27 -252.5l12 -33l147 8v-155l-127 6q-4 -441 3 -561q6 -92 86 -92h34v-160q-184 4 -286 4l-287 -4v160h43q68 0 78 92q6 87 2 567l-314 -2q-3 -160 -1.5 -335.5t4.5 -229.5q6 -92 92 -92h37v-160q-193 4 -297 4l-293 -4q1 19 1 80t-1 80
h49q74 0 84 92q6 86 2 559l-123 -4v155z" />
    <glyph glyph-name="f_j" unicode="fj" horiz-adv-x="1202" 
d="M43 958l119 -4v9q-1 241 119 352.5t376 111.5q181 0 275 -62t94 -163q0 -71 -43 -109t-117 -38q-71 0 -108 36t-37 95q0 50 33.5 81.5t85.5 39.5q-54 14 -109 14q-62 0 -104.5 -12t-74.5 -42.5t-47.5 -85.5t-15.5 -137v-86q548 0 637 7q-3 -93 -2.5 -422.5t2.5 -479.5
q2 -250 -92 -362.5t-307 -112.5q-148 0 -220.5 55.5t-72.5 151.5q0 70 42.5 108t98.5 38q65 0 100.5 -32.5t35.5 -92.5q0 -51 -37.5 -90.5t-106.5 -42.5q33 -13 76 -13q55 0 87 20.5t50 77.5t19 160q2 139 2.5 421t-2.5 356q-6 98 -97 98h-215q0 -494 5 -555q3 -50 19 -71
t69 -21h51v-160q-203 4 -307 4l-293 -4q1 19 1 80t-1 80h51q74 0 80 92q6 71 2 559l-121 -4v155z" />
    <glyph glyph-name="f_t" unicode="ft" horiz-adv-x="1390" 
d="M1272 350l90 -4q10 -87 0 -158.5t-37.5 -121.5t-85.5 -77.5t-145 -27.5q-151 0 -226 84.5t-73 241.5q4 290 4 522h-307q-4 -456 2 -561q3 -44 26.5 -68t65.5 -24h39v-160q-191 4 -297 4l-297 -4q1 19 1 80t-1 80h49q74 0 84 92q6 83 2 557l-123 -2v155l121 -6v47
q-4 211 83.5 319.5t258.5 108.5q138 0 205 -64.5t67 -154.5q0 -71 -36 -112t-103 -41q-65 0 -101 33.5t-36 89.5q0 69 47.5 102t124.5 18q-50 33 -111 33q-99 0 -129 -98.5t27 -249.5l18 -47h119q114 -1 185 16t119.5 64t74 115t47.5 184q15 -1 67.5 -1t67.5 1
q-16 -126 -20 -365l207 11q-2 -17 -2 -78t2 -80l-207 2v-459q0 -123 13.5 -165t49.5 -42q46 0 61 51t9 160z" />
    <glyph glyph-name="t_t" unicode="tt" horiz-adv-x="1390" 
d="M465 930l174 2q99 1 168.5 26.5t112.5 77t66.5 117t37.5 162.5q15 -1 67.5 -1t67.5 1q-16 -126 -20 -365l207 11q-2 -17 -2 -78t2 -80l-207 2v-459q0 -123 13.5 -165t49.5 -42q46 0 61 51t9 160l90 -4q8 -92 0 -159t-37 -120t-87 -79.5t-146 -26.5q-163 0 -231.5 81.5
t-65.5 244.5q4 290 4 520h-334v-461q0 -123 13.5 -165t49.5 -42q44 0 58.5 47.5t5.5 143.5l84 4q16 -80 9 -148t-34 -118t-85.5 -78.5t-145.5 -28.5q-164 0 -232.5 81t-66.5 245l6 518h-98v127q268 11 321 383q15 -1 67.5 -1t67.5 1q-16 -132 -20 -385z" />
    <glyph glyph-name=".notdef" horiz-adv-x="1024" 
 />
    <glyph glyph-name=".null" horiz-adv-x="0" 
 />
    <glyph glyph-name="nonmarkingreturn" horiz-adv-x="682" 
 />
    <glyph glyph-name="space" unicode=" " horiz-adv-x="458" 
 />
    <glyph glyph-name="exclam" unicode="!" horiz-adv-x="567" 
d="M463 131q0 -77 -48 -122.5t-130 -45.5q-77 0 -125.5 46t-48.5 126q0 76 49 123t125 47q81 0 129.5 -48t48.5 -126zM311 453q0 -24 -6 -33.5t-24 -9.5t-24.5 9.5t-6.5 33.5q0 75 -5 138.5t-11.5 106t-22.5 97t-26 83t-35 94t-39 103.5q-61 164 -11 271.5t181 107.5
q84 0 139 -49.5t64.5 -134t-33.5 -195.5q-9 -21 -32.5 -79t-29.5 -74t-23 -62t-21 -67.5t-14 -65t-12 -79.5t-5 -86.5t-3 -108.5z" />
    <glyph glyph-name="quotedbl" unicode="&#x22;" horiz-adv-x="745" 
d="M244 874q0 -30 -27 -30q-24 0 -24 30q0 133 -10 217.5t-36 145.5q-37 91 -16 150t88 59q64 0 86 -59t-18 -150q-29 -64 -37 -144.5t-6 -218.5zM551 874q0 -30 -27 -30q-24 0 -24 30q0 134 -9.5 218t-35.5 145q-38 91 -17 150t88 59q64 0 86 -59t-18 -150
q-29 -64 -37 -144.5t-6 -218.5z" />
    <glyph glyph-name="numbersign" unicode="#" horiz-adv-x="1212" 
d="M322 0h-70q43 202 92 449q-151 0 -250 -3q15 51 19 82q126 -4 245 -4q45 223 66 346q-205 0 -277 -2q6 18 17 84q140 -4 274 -4q53 288 80 461h74q-45 -183 -100 -461h331q53 309 74 461h74q-23 -98 -94 -461q111 0 237 4q-10 -41 -16 -84q-63 2 -238 2
q-41 -203 -63 -346q113 0 245 4l-16 -82q-95 3 -244 3q-52 -290 -71 -449h-70q38 175 90 449h-336q-46 -258 -73 -449zM475 870q-37 -185 -65 -346h335q45 226 64 346h-334z" />
    <glyph glyph-name="dollar" unicode="$" horiz-adv-x="1208" 
d="M549 1612l-6 -223q24 2 52 2t44 -1l16 -1l-6 223h103l-9 -234q159 -25 247.5 -99.5t86.5 -182.5q-2 -63 -37.5 -101.5t-93.5 -38.5q-63 0 -98 29.5t-35 83.5q0 42 27 72.5t73 36.5q-64 58 -172 79l-10 -346q230 -31 330 -137.5t100 -284.5q0 -181 -108 -299.5
t-308 -152.5l7 -240h-103l6 230l-112 -2l6 -228h-103l7 236q-185 25 -291 109.5t-105 205.5q2 63 40.5 102t103.5 39q64 0 99.5 -30.5t35.5 -87.5q0 -45 -29.5 -75t-81.5 -36q65 -74 230 -96l10 383q-189 36 -284 140.5t-95 262.5q0 160 98 274.5t269 151.5l-7 236h103z
M938 352q0 66 -48.5 105t-158.5 59l10 -346q94 22 145.5 69.5t51.5 112.5zM528 539l11 -383l118 2l11 366q-23 3 -70 7.5t-70 7.5zM530 932l138 -12l-11 348q-59 4 -118 -2zM305 1085q0 -107 160 -141l-10 305q-72 -22 -111 -65t-39 -99z" />
    <glyph glyph-name="percent" unicode="%" 
d="M188 174q0 8 6 13.5t13 5.5t12.5 -5.5t5.5 -13.5t-5.5 -13t-12.5 -5q-8 0 -13.5 5.5t-5.5 12.5zM264 285q0 11 8.5 19.5t20.5 8.5t20.5 -8.5t8.5 -19.5q0 -12 -8.5 -21.5t-20.5 -9.5t-20.5 9.5t-8.5 21.5zM338 393q0 17 12 29t29 12t29 -12t12 -29t-12 -29t-29 -12
t-29 12t-12 29zM416 504q0 19 14.5 33t34.5 14t34.5 -14t14.5 -33q0 -20 -14.5 -34.5t-34.5 -14.5t-34.5 14.5t-14.5 34.5zM498 612q0 22 15.5 38t37.5 16t37.5 -16t15.5 -38t-15.5 -37.5t-37.5 -15.5t-37.5 15.5t-15.5 37.5zM582 723q0 22 16 37.5t39 15.5t39 -15.5
t16 -37.5q0 -23 -16 -39t-39 -16t-39 16t-16 39zM670 831q0 22 15.5 38t37.5 16t37.5 -16t15.5 -38t-15.5 -37.5t-37.5 -15.5t-37.5 15.5t-15.5 37.5zM760 942q0 19 14.5 33t34.5 14t34.5 -14t14.5 -33q0 -20 -14.5 -34.5t-34.5 -14.5t-34.5 14.5t-14.5 34.5zM854 1051
q0 17 12 29t29 12t29 -12t12 -29t-12 -29t-29 -12t-29 12t-12 29zM952 1161q0 11 8.5 20t20.5 9t20.5 -9t8.5 -20q0 -12 -8.5 -21.5t-20.5 -9.5t-20.5 9.5t-8.5 21.5zM1049 1270q0 8 5.5 13t12.5 5t12.5 -5t5.5 -13t-5.5 -13.5t-12.5 -5.5t-12.5 5.5t-5.5 13.5zM856 27
q33 0 51 17.5t28.5 70.5t10.5 151q0 100 -11 154t-29 71t-50 17q-30 0 -48 -18t-29 -72.5t-11 -151.5q0 -102 10 -154.5t27.5 -68.5t50.5 -16zM856 -59q-283 0 -283 325q0 88 24 153.5t65 102.5t89.5 54.5t104.5 17.5q134 0 210.5 -78t76.5 -250q0 -87 -24 -152
t-65.5 -101.5t-91 -54t-106.5 -17.5zM385 893q32 0 49.5 17.5t28 71t10.5 151.5q0 100 -11 153.5t-28.5 70.5t-48.5 17q-47 0 -68.5 -49.5t-21.5 -191.5q0 -102 10 -154.5t28 -69t52 -16.5zM385 807q-285 0 -285 326q0 88 24 153.5t65.5 102t90.5 54t105 17.5
q285 0 285 -327q0 -88 -24 -153.5t-65.5 -102t-90 -53.5t-105.5 -17z" />
    <glyph glyph-name="ampersand" unicode="&#x26;" horiz-adv-x="1619" 
d="M1573 307q-3 -158 -89 -247t-267 -89q-109 0 -191 23.5t-156 81.5q-134 -115 -358 -115q-201 0 -318.5 97.5t-117.5 277.5q0 78 28.5 146t77.5 116.5t109.5 82t128.5 50.5q-80 171 -80 305q0 106 31 184.5t88 124.5t132 67.5t169 21.5q171 0 257.5 -88t86.5 -232
q0 -143 -79 -253t-204 -167q120 -188 242 -354q83 99 86 195q4 96 -78 96h-47v123q160 -4 250 -4l250 4v-123h-72q-56 0 -83 -23.5t-42 -70.5q-58 -184 -186 -287q49 -50 85 -66t81 -16q67 0 108 41.5t47 114.5zM391 428q0 -96 48 -168.5t134.5 -101t206.5 3.5
q-135 151 -295 442q-94 -66 -94 -176zM674 1104q0 -148 90 -313q119 86 119 315q0 85 -24 125.5t-79 40.5q-57 0 -81.5 -40.5t-24.5 -127.5z" />
    <glyph glyph-name="quotesingle" unicode="'" horiz-adv-x="440" 
d="M246 874q0 -30 -27 -30q-24 0 -24 30q0 134 -9.5 218t-35.5 145q-38 91 -17 150t88 59q64 0 86 -59t-18 -150q-29 -64 -37 -144.5t-6 -218.5z" />
    <glyph glyph-name="parenleft" unicode="(" horiz-adv-x="612" 
d="M350 629q0 -298 18.5 -475t59 -290t119.5 -220l-78 -62q-97 67 -167.5 151t-127 206.5t-85 295t-28.5 394.5q0 221 28.5 393t85 295t127 207t167.5 151l78 -63q-115 -155 -156 -358.5t-41 -624.5z" />
    <glyph glyph-name="parenright" unicode=")" horiz-adv-x="612" 
d="M258 629q0 419 -41.5 623.5t-155.5 359.5l78 63q97 -67 167.5 -151t127 -207t85 -295t28.5 -393q0 -222 -28.5 -394.5t-85 -295t-127 -206.5t-167.5 -151l-78 62q78 107 118.5 219.5t59.5 290.5t19 475z" />
    <glyph glyph-name="asterisk" unicode="*" horiz-adv-x="1024" 
d="M557 1223q-25 -45 -27 -121l27 -15q42 26 60.5 42.5t31.5 41.5q6 10 17.5 40t26.5 51t42 38q46 27 93 16t71 -52q26 -45 12 -91t-59 -71q-25 -15 -54 -17.5t-61 2t-43 3.5q-46 0 -114 -37v-31q40 -23 63.5 -30.5t52.5 -6.5q8 0 43 5.5t60 2.5t53 -18q45 -26 58.5 -72.5
t-11.5 -89.5q-25 -41 -72.5 -52t-91.5 15q-25 16 -41 39t-29 53t-18 37q-16 27 -33 44t-55 40l-29 -16q0 -46 6 -71t23 -50q5 -7 26.5 -34t31.5 -49.5t10 -53.5q1 -54 -32.5 -88.5t-82.5 -34.5q-51 0 -84 35t-31 88q0 28 12.5 53.5t31.5 50.5t24 35q24 42 27 119l-27 14
q-42 -24 -60 -40.5t-30 -41.5q-6 -10 -17.5 -40t-26.5 -51t-42 -38q-46 -27 -92.5 -15t-71.5 54q-25 43 -11 89t60 71q25 15 53.5 17.5t60 -2t42.5 -3.5q50 0 114 35v35q-69 38 -116 35q-9 0 -43.5 -5.5t-59 -2.5t-51.5 18q-47 26 -61 72.5t12 89.5q25 41 72.5 51.5
t91.5 -15.5q25 -16 41 -38t29.5 -53.5t17.5 -37.5q15 -25 33 -43t57 -41l25 15q-2 48 -7 73t-22 50q-6 10 -26 34.5t-31 48.5t-11 54q0 54 33.5 88.5t81.5 34.5q51 0 84 -35t33 -88q0 -28 -13 -53.5t-32.5 -50.5t-24.5 -35z" />
    <glyph glyph-name="plus" unicode="+" 
d="M698 53h-170q10 284 27 402q-141 -21 -397 -27v170q72 0 193 -7.5t204 -19.5q-21 141 -27 398h170q0 -68 -7.5 -191t-18.5 -207q85 11 209 19t190 8v-170q-261 7 -399 27q16 -127 26 -402z" />
    <glyph glyph-name="comma" unicode="," horiz-adv-x="538" 
d="M82 -186q137 21 206.5 98t63.5 190q-27 -55 -106 -55q-57 0 -91 34.5t-34 98.5q0 62 41 104t112 42q74 0 118 -51.5t44 -153.5q0 -58 -17 -112t-54 -105.5t-107 -89t-166 -50.5z" />
    <glyph glyph-name="hyphen" unicode="-" horiz-adv-x="577" 
d="M37 412v202q251 -8 506 0q-1 -32 -1 -101t1 -101q-255 8 -506 0z" />
    <glyph glyph-name="period" unicode="." horiz-adv-x="573" 
d="M471 147q0 -82 -48.5 -128t-135.5 -46q-85 0 -135 45t-50 132q0 77 52.5 126.5t132.5 49.5q87 0 135.5 -50t48.5 -129z" />
    <glyph glyph-name="slash" unicode="/" horiz-adv-x="780" 
d="M244 -362q-26 3 -108.5 3t-108.5 -3q104 339 266.5 903t243.5 872q37 -3 108.5 -3t108.5 3q-100 -321 -262.5 -887.5t-247.5 -887.5z" />
    <glyph glyph-name="zero" unicode="0" horiz-adv-x="1261" 
d="M430 565q0 -191 22.5 -295.5t64 -142t114.5 -37.5q72 0 113.5 39t64 144.5t22.5 295.5q0 193 -22 300.5t-64 148.5t-116 41q-70 0 -111.5 -42t-64.5 -152t-23 -300zM78 567q0 297 148.5 458t404.5 161q268 0 411.5 -158t143.5 -459q0 -155 -40 -272t-114 -189.5
t-174.5 -108.5t-226.5 -36q-553 0 -553 604z" />
    <glyph glyph-name="one" unicode="1" horiz-adv-x="909" 
d="M285 272q1 29 1 217.5t-1 317.5q-41 -22 -100.5 -29t-104.5 4q2 19 2 83t-2 83h41q148 -6 214.5 53t78.5 197q28 -2 111 -2t112 2q-8 -168 -10 -254q-1 -72 -0.5 -333.5t2.5 -338.5q0 -60 23.5 -86t86.5 -26h99q-2 -17 -2 -80t2 -82q-246 6 -383 6l-385 -6q2 19 2 82
t-2 80h104q66 0 87.5 26.5t23.5 85.5z" />
    <glyph glyph-name="two" unicode="2" horiz-adv-x="1112" 
d="M993 453q36 -84 39 -183q1 -150 -75.5 -233.5t-215.5 -85.5q-55 0 -99.5 9.5t-89.5 35t-73.5 46t-83.5 64.5q-81 66 -147 66q-53 0 -84 -31q21 6 37 6q43 0 67.5 -25.5t24.5 -66.5t-28 -65.5t-75 -24.5q-53 0 -86.5 42t-33.5 114q0 136 72.5 235.5t232.5 163.5
q153 63 215.5 133.5t62.5 177.5q0 99 -55.5 153t-165.5 54q-73 0 -136 -29t-95 -85q35 12 78 12q71 0 112 -39t41 -106t-45 -105.5t-123 -38.5t-124 51t-46 140q0 161 123.5 254.5t329.5 93.5q215 0 329.5 -87t114.5 -239q0 -335 -493 -414q-243 -41 -316 -174
q107 104 375 56q162 -31 225 -26q127 11 111 136z" />
    <glyph glyph-name="three" unicode="3" horiz-adv-x="1210" 
d="M1071 813q0 -140 -76.5 -224.5t-206.5 -117.5q168 -21 257.5 -116.5t89.5 -243.5q0 -206 -153 -312t-429 -106q-217 0 -348 97.5t-131 250.5q0 92 53 148.5t137 56.5q78 0 122 -41t44 -113q0 -71 -47.5 -109t-124.5 -38q-21 0 -45 4q37 -63 107 -94t157 -31
q283 0 283 297q0 274 -287 274h-63v121h53q129 2 193.5 69t64.5 210q0 112 -59 176.5t-170 64.5q-81 0 -148.5 -28t-101.5 -80q21 8 57 8q73 0 116.5 -38t43.5 -105t-44 -106.5t-118 -39.5q-81 0 -126.5 48.5t-45.5 133.5q0 149 131.5 253t349.5 104q219 0 342 -98t123 -275
z" />
    <glyph glyph-name="four" unicode="4" horiz-adv-x="1208" 
d="M586 14q2 47 2 156q-243 3 -527 -2v102q35 58 314.5 455.5t320.5 472.5q37 -2 126 -2t124 2q-4 -281 -4 -922l203 7v-121l-201 4q0 -123 2 -152q3 -49 25 -69.5t76 -20.5h73q-2 -19 -2 -81t2 -81q-217 7 -356 7l-367 -7q2 36 2 76.5t-1 63.5l-1 22h84q59 0 81.5 19
t23.5 71zM588 840q-26 -39 -96.5 -143t-112 -166t-91.5 -138.5t-75 -120.5q109 -2 377 -2q0 406 -2 570z" />
    <glyph glyph-name="five" unicode="5" horiz-adv-x="1200" 
d="M455 469q-133 0 -256 -84l-52 51q58 121 82 339t19 415q50 -18 161.5 -32.5t225.5 -14.5q124 0 235 19.5t177 47.5l53 -41q-12 -173 -131.5 -260.5t-313.5 -87.5q-198 0 -327 88q-11 -232 -64 -381q166 99 377 99q242 0 364.5 -117t122.5 -340q0 -231 -152 -354
t-433 -123q-221 0 -345 95.5t-124 252.5q0 95 52.5 150t137.5 55q78 0 122 -40t44 -112q0 -71 -45.5 -110t-124.5 -39q-31 0 -51 8q33 -60 102 -91.5t156 -31.5q139 0 211 79t72 249q0 311 -295 311z" />
    <glyph glyph-name="six" unicode="6" horiz-adv-x="1220" 
d="M721 1341q-157 0 -225.5 -137t-71.5 -461q44 71 125 112.5t186 41.5q204 0 308 -112.5t104 -329.5q0 -221 -148.5 -353.5t-394.5 -132.5q-121 0 -215.5 38t-165.5 118.5t-109 214.5t-38 317q0 199 44.5 353.5t124 250t184 144.5t228.5 49q195 0 306.5 -87t111.5 -216
q0 -92 -46 -141t-134 -49q-78 0 -121 41.5t-43 109.5q0 77 54 115.5t143 29.5q-65 84 -207 84zM428 440q0 -165 44.5 -247t156.5 -82q96 0 138 84t42 245t-45 236.5t-135 75.5q-102 0 -151.5 -72t-49.5 -240z" />
    <glyph glyph-name="seven" unicode="7" horiz-adv-x="1118" 
d="M215 1196l16 -123q32 59 90 91t130 32q126 0 245 -102q75 -63 125.5 -86t98.5 -23q53 0 79 29q-8 -2 -24 -2q-45 0 -75 26.5t-30 69.5q0 49 30 75.5t81 26.5q54 0 85.5 -35.5t31.5 -105.5q0 -87 -39 -168.5t-131 -175.5q-46 -47 -75 -79.5t-62.5 -78t-52.5 -86t-37 -96.5
t-23.5 -116.5t-3.5 -138t14 -169.5q17 -123 -42 -184.5t-157 -61.5q-105 0 -157.5 60.5t-52.5 197.5q0 215 111 380t341 309q58 36 91.5 59.5t73.5 60.5t67 78q-106 -98 -281 -98q-70 -1 -126 13.5t-124 47.5q-72 31 -110 31q-104 0 -101 -147q-20 3 -68.5 3t-68.5 -3
q10 90 8.5 236t-12.5 253q20 -3 67.5 -3t67.5 3z" />
    <glyph glyph-name="eight" unicode="8" horiz-adv-x="1241" 
d="M1087 1124q0 -175 -167 -276q136 -58 195 -154t59 -237q0 -239 -152.5 -363.5t-421.5 -124.5q-271 0 -397.5 86.5t-126.5 257.5q0 211 237 301q-192 119 -192 371q0 214 136 341.5t380 127.5q217 0 333.5 -89.5t116.5 -240.5zM541 530q-63 12 -129 35q-125 -82 -125 -231
q0 -102 83 -157.5t246 -55.5q154 0 238 53t84 135q0 57 -32.5 92.5t-116 65t-248.5 63.5zM633 1315q-128 0 -195 -54t-67 -135q0 -88 72.5 -135.5t269.5 -83.5q54 -10 88 -20q94 91 94 223q0 92 -62.5 148.5t-199.5 56.5z" />
    <glyph glyph-name="nine" unicode="9" horiz-adv-x="1214" 
d="M467 -207q114 0 182 58t101.5 192t35.5 363q-40 -74 -117 -118t-180 -44q-201 0 -310 115.5t-109 322.5q0 224 146 364t386 140q256 0 397.5 -174t141.5 -537q0 -174 -35 -314t-108 -246t-193.5 -164t-282.5 -58q-204 0 -320 84t-116 215q0 85 49 132.5t135 47.5
q76 0 120 -39.5t44 -109.5q0 -85 -60.5 -122t-154.5 -24q81 -84 248 -84zM784 727q0 174 -45.5 257t-154.5 83q-96 0 -138.5 -84.5t-42.5 -255.5q0 -178 46.5 -260t136.5 -82q99 0 148.5 78t49.5 264z" />
    <glyph glyph-name="colon" unicode=":" horiz-adv-x="546" 
d="M414 705q0 -62 -38 -98t-104 -36q-64 0 -101.5 36t-37.5 100q0 61 38.5 98t100.5 37q65 0 103.5 -37.5t38.5 -99.5zM414 252q0 -61 -38 -96t-104 -35q-64 0 -101.5 35.5t-37.5 97.5t38.5 98.5t100.5 36.5q66 0 104 -37t38 -100z" />
    <glyph glyph-name="semicolon" unicode=";" horiz-adv-x="567" 
d="M147 256q0 62 40 99.5t106 37.5q73 0 112 -51.5t39 -138.5q0 -140 -101.5 -239t-266.5 -132l-15 51q152 34 229.5 115.5t74.5 202.5q-25 -68 -107 -68q-51 0 -81 32t-30 91zM434 705q0 -61 -38 -97.5t-103 -36.5q-64 0 -101.5 36t-37.5 100q0 61 38.5 98t100.5 37
q64 0 102.5 -37.5t38.5 -99.5z" />
    <glyph glyph-name="less" unicode="&#x3c;" 
d="M285 465v90q437 282 571 379l76 -139q-128 -62 -518 -285q390 -223 518 -285l-76 -139q-134 97 -571 379z" />
    <glyph glyph-name="equal" unicode="=" 
d="M164 268q3 78 0 160q452 -8 901 0q-3 -80 0 -160q-449 8 -901 0zM164 600q3 80 0 160q452 -8 901 0q-3 -78 0 -160q-449 8 -901 0z" />
    <glyph glyph-name="greater" unicode="&#x3e;" 
d="M930 555v-90q-447 -289 -572 -379l-75 139q128 62 518 285q-390 223 -518 285l75 139q125 -90 572 -379z" />
    <glyph glyph-name="question" unicode="?" horiz-adv-x="1071" 
d="M768 561l27 -61q-53 -40 -130 -69.5t-151 -29.5q-80 0 -128 38t-48 104q0 54 31.5 93.5t101.5 82.5q41 25 71.5 51t59.5 64t44.5 90t15.5 114q0 119 -61 188.5t-185 69.5q-78 0 -142.5 -33t-95.5 -98q46 17 92 17q74 0 117 -42.5t43 -115.5q0 -70 -49 -113t-131 -43
q-89 0 -136.5 53t-47.5 152q0 168 127.5 274.5t353.5 106.5q240 0 359.5 -105.5t119.5 -287.5q0 -88 -27.5 -157.5t-84.5 -122.5t-131 -92.5t-179 -76.5q-64 -24 -86 -40t-22 -40q0 -21 17.5 -33t43.5 -12q105 0 211 74zM729 133q0 -79 -47 -124.5t-129 -45.5
q-81 0 -128.5 45t-47.5 127q0 78 48 124t128 46q82 0 129 -46t47 -126z" />
    <glyph glyph-name="at" unicode="@" horiz-adv-x="1681" 
d="M1335 891q-50 -192 -108 -508q-8 -57 -8 -100t20 -69t61 -26q72 0 124.5 79t74.5 192q24 130 23.5 240.5t-36 200.5t-100.5 153t-170 97t-245 34q-288 0 -484 -170t-247 -494q-28 -186 -4.5 -323.5t95.5 -228t182 -135t255 -44.5q162 0 294 46.5t218 119.5l43 -47
q-89 -94 -239 -149.5t-312 -55.5q-133 0 -244 27.5t-192.5 78.5t-141.5 124.5t-90 164.5t-38 199t14 229q38 229 166 398t314 254.5t407 85.5q181 0 317.5 -49.5t224.5 -150t114 -252t-15 -355.5q-38 -179 -141 -277t-269 -98q-114 0 -181 46.5t-71 139.5
q-51 -95 -128 -137.5t-165 -42.5q-120 0 -182 84.5t-37 255.5q18 129 60.5 226.5t100.5 154.5t123 85t136 28q95 0 146 -41t61 -111q85 73 104 121q85 -4 170 0zM793 225q53 0 101 84t83 266q44 220 -57 220q-56 0 -105.5 -87.5t-83.5 -271.5q-38 -211 62 -211z" />
    <glyph glyph-name="A" unicode="A" horiz-adv-x="1810" 
d="M1073 383l-16 49q-210 6 -498 2l-18 -55q-32 -97 -11 -145t103 -48h78q0 -14 -1 -95t-1 -95q-209 4 -326 4l-326 -4v190h54q87 0 133 40.5t86 140.5q19 47 187.5 496.5t209.5 561.5q116 -6 182 -6l183 6q58 -165 203.5 -538t207.5 -522q43 -102 84.5 -140.5t102.5 -38.5
h63v-190q-268 4 -420 4l-422 -4v190h82q75 0 93 50t-13 147zM1014 555q-92 262 -209 565q-137 -366 -205 -565q212 -3 414 0z" />
    <glyph glyph-name="B" unicode="B" horiz-adv-x="1470" 
d="M1413 416q1 -80 -16 -142.5t-58.5 -115.5t-108.5 -87.5t-169 -53.5t-238 -19q-17 0 -181.5 1t-207.5 1l-377 -2v188h74q66 0 93 23.5t30 87.5q4 98 4 414.5t-4 398.5q-5 63 -29.5 90t-79.5 27h-88v186q10 0 180 -2t220 -2q48 0 177 1t171 1q553 0 553 -356
q0 -127 -69 -207.5t-189 -112.5q148 -28 229.5 -112t83.5 -207zM723 662h-102q0 -284 4 -394q6 -92 88 -92h69q129 0 182.5 59t53.5 193q0 124 -71.5 179t-223.5 55zM625 1155q-4 -94 -4 -369h100q148 0 203 48t55 182q0 110 -53.5 165.5t-167.5 55.5h-49q-81 0 -84 -82z
" />
    <glyph glyph-name="C" unicode="C" horiz-adv-x="1495" 
d="M1128 1364q69 -40 94.5 -28.5t32.5 89.5q19 -1 84 -1t84 1q-13 -80 -25 -253t-9 -279q-125 8 -246 0q-9 85 -27 145.5t-52.5 112t-93 77t-141.5 25.5q-116 0 -185.5 -50.5t-104.5 -170t-35 -323.5q0 -134 16 -232.5t43 -158.5t68.5 -96t86 -49t101.5 -13q157 0 244 101.5
t92 289.5q43 -3 132.5 -3t133.5 3q-5 -208 -68 -335t-201.5 -190t-367.5 -63q-168 0 -294.5 40t-220 126.5t-141.5 232t-48 347.5q0 188 51 332.5t144.5 233.5t217.5 134t275 45q203 0 360 -90z" />
    <glyph glyph-name="D" unicode="D" horiz-adv-x="1619" 
d="M842 1411q366 0 530.5 -166.5t169.5 -527.5q2 -156 -31.5 -278.5t-94 -204.5t-149 -135.5t-191.5 -77t-226 -23.5q-268 2 -399 2l-394 -4v190h72q71 0 96.5 22.5t28.5 88.5q4 97 4 414t-4 399q-4 63 -30.5 90t-82.5 27h-84v186q4 0 162 -2t236 -2q73 0 226 1t161 1z
M625 276q1 -43 25 -66.5t63 -23.5h67q101 0 167 23t114.5 82.5t70 163.5t21.5 264q0 148 -20.5 245.5t-66.5 156.5t-114 83.5t-170 24.5h-69q-84 0 -88 -80q-6 -117 -5.5 -435t5.5 -438z" />
    <glyph glyph-name="E" unicode="E" horiz-adv-x="1501" 
d="M887 973v53q33 -2 70.5 -2t58.5 1l22 1q-1 -40 -4 -94.5t-4.5 -103t-1.5 -115.5q0 -147 10 -320q-75 4 -147 0v47q-2 114 -45.5 162.5t-159.5 48.5h-63q0 -263 6 -342q4 -68 33.5 -95.5t87.5 -27.5h215q155 0 215.5 81t60.5 290q25 -1 101.5 -1t101.5 1
q-21 -228 -21 -567q-144 10 -440 10h-539q-54 0 -147 -1t-165 -2t-75 -1v190h72q67 0 93.5 32t31.5 99q6 77 6.5 386.5t-4.5 394.5q-4 71 -31.5 100t-85.5 29h-82v186q9 0 175 -2t219 -2h518q355 0 467 14q-17 -252 -13 -532h-188q0 83 -11 141.5t-30.5 96t-54 58t-75 28.5
t-99.5 8h-220q-58 0 -85.5 -28.5t-30.5 -86.5q-6 -89 -6 -334h67q108 0 152.5 45.5t44.5 153.5z" />
    <glyph glyph-name="F" unicode="F" horiz-adv-x="1458" 
d="M676 645h-53q0 -271 4 -326q3 -70 31.5 -101.5t99.5 -31.5h110v-190q-260 4 -405 4l-406 -4v190h78q63 0 90.5 33t30.5 100q4 95 4 394.5t-4 394.5q-3 61 -29.5 90t-81.5 29h-88v186q7 0 169.5 -2t226.5 -2q28 0 172 1t311 1q369 0 465 12q-16 -295 -12 -571
q-32 2 -95.5 2t-91.5 -2q0 113 -14.5 184.5t-49 113t-85 57.5t-129.5 16h-179q-112 0 -118 -115q-4 -49 -4 -332h57q108 0 152.5 45.5t44.5 153.5v49q33 -2 70.5 -2t58.5 1l22 1q-1 -40 -4 -94.5t-4.5 -103t-1.5 -115.5q0 -147 10 -320q-75 4 -147 0v47q-2 114 -45 160.5
t-160 46.5z" />
    <glyph glyph-name="G" unicode="G" horiz-adv-x="1615" 
d="M766 1454q208 0 362 -92q67 -40 93.5 -27.5t33.5 90.5q19 -1 84 -1t84 1q-13 -80 -25 -253t-9 -279q-125 8 -246 0q-9 85 -27 145.5t-52.5 112t-93 77t-141.5 25.5q-116 0 -185.5 -50.5t-104.5 -170t-35 -323.5q0 -133 17 -232t44.5 -159t69 -96t85 -49t97.5 -13
q131 0 207 69.5t76 214.5q0 84 -22.5 120t-88.5 36h-76v152q219 -7 336 -7l328 7v-152h-55q-43 0 -59.5 -24t-16.5 -84q0 -326 22 -500q-103 8 -206 0q-21 89 -56 188q-55 -101 -172.5 -161t-269.5 -60q-125 0 -227 24t-188.5 79.5t-145 141t-91 213t-32.5 292.5
q0 188 51 332.5t143.5 233.5t216.5 134t275 45z" />
    <glyph glyph-name="H" unicode="H" horiz-adv-x="1744" 
d="M57 -4v190h80q68 0 91 20t26 81q4 94 4 423t-4 406q-5 61 -28.5 86t-78.5 25h-90q1 22 1 93t-1 93q242 -6 377 -6q60 0 149.5 1.5t156 3t69.5 1.5v-186h-78q-56 0 -82.5 -25.5t-30.5 -85.5q-4 -45 -4 -348q248 -4 519 0q0 292 -5 348q-4 60 -31 85.5t-83 25.5h-80
q2 22 2 93t-2 93q242 -6 377 -6q59 0 149 1.5t157 3t71 1.5q-2 -22 -2 -93t2 -93h-91q-55 0 -78 -25t-28 -86q-5 -76 -5 -406.5t5 -422.5q3 -59 26.5 -80t90.5 -21h80q-2 -22 -2 -95t2 -95q-242 4 -377 4l-377 -4q2 22 2 95t-2 95h78q66 0 90 23t26 78q5 133 5 352
q-197 3 -519 -2q0 -244 4 -350q3 -57 24.5 -79t88.5 -22h78v-190q-240 4 -375 4z" />
    <glyph glyph-name="I" unicode="I" horiz-adv-x="876" 
d="M61 -4q1 22 1 95t-1 95h82q63 0 85.5 22.5t25.5 78.5q4 88 4 420t-4 409q-5 61 -28.5 86t-78.5 25h-86q1 22 1 93t-1 93q244 -6 379 -6q59 0 149 1.5t157 3t71 1.5q-1 -22 -1 -93t1 -93h-86q-55 0 -78 -25t-28 -86q-6 -82 -5.5 -408.5t5.5 -420.5q3 -55 26 -78t84 -23h80
v-190q-240 4 -375 4z" />
    <glyph glyph-name="J" unicode="J" horiz-adv-x="1206" 
d="M406 322q0 -92 -67.5 -134.5t-160.5 -31.5q73 -70 193 -70q115 0 172 72t63 245q4 126 4 381t-4 332q-3 60 -26.5 85.5t-79.5 25.5h-82v186q233 -6 366 -6q58 0 145 1.5t152.5 3t69.5 1.5q-1 -22 -1 -93t1 -93h-66q-55 0 -79 -23.5t-27 -87.5q-1 -51 -1 -340.5t1 -361.5
q3 -220 -139.5 -335.5t-393.5 -115.5q-198 0 -306.5 90.5t-108.5 231.5q0 90 52.5 146t145.5 56q80 0 128.5 -44.5t48.5 -120.5z" />
    <glyph glyph-name="K" unicode="K" horiz-adv-x="1718" 
d="M57 -4q3 44 3 91.5t-2 72.5l-1 26h74q68 0 92 24.5t29 90.5q6 81 5.5 407t-5.5 404q-3 61 -29.5 88t-89.5 27h-76q2 41 2 87.5t-1 72.5l-1 26q242 -6 377 -6q59 0 148.5 1.5t156 3t70.5 1.5q-1 -22 -1 -93t1 -93h-86q-54 0 -78 -27t-29 -88q-4 -49 -4 -397l430 370
q29 25 33.5 58.5t-19 58.5t-67.5 25h-78q2 41 2 87.5t-1 72.5l-1 26q242 -6 375 -6q60 0 146.5 1.5t150 3t66.5 1.5q-4 -92 0 -186h-74q-101 0 -174.5 -33.5t-165.5 -110.5l-201 -168q68 -107 217 -333.5t179 -264.5q5 -6 19.5 -24.5t18.5 -23t16 -19t16 -18t15 -13.5
t17 -12.5t17 -8.5t20 -7.5t21.5 -3t25.5 -1.5h45q-4 -92 0 -188q-242 6 -379 6l-381 -6q1 22 1 94t-1 94h53q42 0 61 19t13.5 53.5t-33.5 81.5q-19 33 -99.5 155.5t-131.5 192.5l-152 -127q0 -182 4 -260q3 -64 23.5 -89.5t79.5 -25.5h82q-1 -22 -1 -95t1 -95q-238 4 -371 4
z" />
    <glyph glyph-name="L" unicode="L" horiz-adv-x="1357" 
d="M829 1413q-2 -29 -2 -186h-84q-62 0 -90.5 -27t-31.5 -94q-5 -83 -5 -397.5t5 -415.5q3 -61 30.5 -84t85.5 -23h111q59 0 99.5 9t75.5 34.5t56 71t34 117.5t17 176q20 -2 91.5 -2t91.5 2q-6 -112 -9.5 -304t-0.5 -298q-127 8 -420 8h-471q-183 0 -355 -4v190h84
q67 0 89.5 26t25.5 93q4 97 4 411t-4 390q-5 63 -28.5 92t-77.5 29h-89v186q248 -6 385 -6q60 0 150 1.5t158 3t75 1.5z" />
    <glyph glyph-name="M" unicode="M" horiz-adv-x="2023" 
d="M879 109q-172 382 -430 886q-3 -119 -2.5 -359.5t4.5 -303.5q5 -80 34 -113t99 -33h96q-2 -22 -2 -95t2 -95q-198 4 -311 4l-312 -4v190h78q68 0 96.5 32t32.5 114q4 75 4 384.5t-4 387.5q-6 123 -119 123h-86v186q313 -8 625 0q153 -337 365 -745q210 435 342 745
q287 -8 575 0v-186h-84q-55 0 -84.5 -33t-32.5 -94q-5 -70 -5 -380t5 -396q3 -72 28.5 -105t92.5 -33h80v-190q-250 4 -391 4l-393 -4v190h84q64 0 90.5 35t29.5 105q8 190 3 673q-223 -443 -420 -890h-90z" />
    <glyph glyph-name="N" unicode="N" horiz-adv-x="1699" 
d="M643 1413q94 -148 273 -414.5t315 -461.5q2 118 1.5 302t-3.5 257q-3 72 -33 101.5t-88 29.5h-107q1 22 1 93t-1 93q5 0 62 -1.5t133 -3t127 -1.5l322 6q-1 -22 -1 -93t1 -93h-91q-57 0 -86.5 -30t-33.5 -101q-4 -88 -4 -484.5t4 -611.5q-151 8 -301 0q-273 426 -662 995
q-4 -496 4 -690q3 -62 32 -90.5t97 -28.5h103q-4 -98 0 -190q-207 4 -324 4l-326 -4q2 42 2 89.5t-1 74.5l-1 26h82q68 0 98 29t33 90q5 100 5.5 409t-5.5 392q-9 121 -123 121h-88q3 40 3 86.5t-2 72.5l-1 27q290 -8 584 0z" />
    <glyph glyph-name="O" unicode="O" horiz-adv-x="1601" 
d="M801 152q170 0 237.5 129t67.5 428q0 307 -67 430t-238 123q-162 0 -232.5 -129.5t-70.5 -425.5q0 -310 64.5 -432.5t238.5 -122.5zM801 -37q-721 0 -721 744q0 185 52 327.5t147.5 233t227 136.5t294.5 46q361 0 541 -182.5t180 -558.5q0 -188 -54 -332.5t-151.5 -234
t-227.5 -134.5t-288 -45z" />
    <glyph glyph-name="P" unicode="P" horiz-adv-x="1445" 
d="M793 485q-86 0 -172 4q0 -112 4 -182q3 -66 31.5 -94.5t84.5 -28.5h101q-2 -22 -2 -94t2 -94q-250 4 -393 4l-392 -4v190h68q65 0 95 28t34 95q4 77 4 409t-4 408q-5 57 -26.5 79t-73.5 22h-97v186q16 0 213 -3t217 -3q48 0 155 1t149 1q275 0 431 -110.5t156 -340.5
q0 -235 -155 -354t-430 -119zM625 1165q-7 -103 -7 -520h93q154 0 214 71t60 234q0 154 -56 220.5t-188 66.5h-47q-65 0 -69 -72z" />
    <glyph glyph-name="Q" unicode="Q" horiz-adv-x="1601" 
d="M801 -37q-721 0 -721 744q0 185 52 327.5t147.5 233t227 136.5t294.5 46q361 0 541 -182.5t180 -558.5q0 -243 -87.5 -408.5t-246.5 -251.5q29 -156 61.5 -213t91.5 -57q109 0 103 188l84 4q20 -358 -318 -358q-151 0 -235.5 91t-77.5 265q-49 -6 -96 -6zM854 481
q146 0 221 -100q31 130 31 328q0 307 -67 430t-238 123q-162 0 -232.5 -129.5t-70.5 -425.5q0 -237 34.5 -360.5t122.5 -166.5q-26 37 -26 101q0 90 63 145t162 55zM692 268q0 -55 33 -85.5t94 -30.5q53 0 105 20q15 219 -117 219q-48 0 -81.5 -29t-33.5 -94z" />
    <glyph glyph-name="R" unicode="R" horiz-adv-x="1632" 
d="M1319 377q19 -136 44 -181.5t69 -45.5q50 0 62 71t-15 193q62 0 102 8q18 -76 20.5 -143t-14 -127.5t-52 -104t-99 -69t-150.5 -25.5q-103 0 -172.5 25t-108.5 77.5t-56 119t-23 165.5q-4 86 -21.5 141.5t-50.5 84.5t-72 39.5t-98 10.5h-66q0 -234 7 -309q6 -65 33.5 -94
t82.5 -29h72v-188q-311 4 -377 4l-379 -4v190h74q62 0 90.5 27.5t32.5 93.5q4 77 4 404.5t-4 404.5q-5 61 -27 86t-77 25h-93v186q11 0 183.5 -2t218.5 -2q41 0 192.5 1t227.5 1q254 0 390 -97.5t136 -283.5q0 -147 -96.5 -244t-255.5 -114q129 -25 189.5 -98.5t76.5 -196.5
zM625 1155q-7 -231 -7 -399h119q143 0 200.5 55.5t57.5 187.5q0 126 -49.5 182t-171.5 56h-69q-77 0 -80 -82z" />
    <glyph glyph-name="S" unicode="S" horiz-adv-x="1394" 
d="M696 1270q-147 0 -217.5 -46t-70.5 -120q0 -80 76 -115.5t278 -54.5q289 -27 434 -139.5t145 -341.5q0 -234 -152 -362t-429 -128q-125 0 -216.5 24t-183.5 74q-41 25 -67.5 18t-39 -29t-17.5 -62q-14 2 -78 2t-78 -2q14 106 19 241.5t-1 237.5q15 -1 75 -1t75 1
q98 -326 508 -326q151 0 230 48t79 135q0 88 -89.5 128.5t-309.5 63.5q-543 48 -543 453q0 102 34 188.5t99 152.5t170 103t238 37q197 0 346 -78q36 -18 58.5 -22.5t35.5 6.5t18.5 25.5t10.5 43.5q12 -1 73.5 -1t73.5 1q-17 -84 -21.5 -216t3.5 -222q-3 0 -40 0.5t-68 0.5
t-40 -1q-88 283 -418 283z" />
    <glyph glyph-name="T" unicode="T" horiz-adv-x="1495" 
d="M1038 1219h-110q-3 -178 -2.5 -507t4.5 -395q3 -64 31 -97.5t94 -33.5h88v-190q-252 4 -395 4l-396 -4v190h84q66 0 96 33.5t35 97.5q5 70 5 395.5t-5 506.5h-108q-95 0 -136.5 -49t-46.5 -144l-8 -180q-23 2 -100 2t-100 -2q4 107 0.5 286.5t-11.5 286.5q107 -8 373 -8
h637q223 0 371 8q-8 -107 -11.5 -286.5t0.5 -286.5q-23 2 -99 2t-99 -2l-8 180q-5 95 -46.5 144t-136.5 49z" />
    <glyph glyph-name="U" unicode="U" horiz-adv-x="1689" 
d="M229 549q0 17 1.5 139.5t2 215t-1.5 194.5q-3 70 -28.5 99.5t-83.5 29.5h-62v186q242 -6 377 -6q80 0 230.5 3t154.5 3v-186h-78q-62 0 -93 -29.5t-32 -99.5q-2 -106 -2 -299.5t2 -245.5q3 -203 74.5 -289t222.5 -86t222.5 84.5t74.5 290.5q5 396 0 545q-3 129 -118 129
h-76v186q192 -6 305 -6q67 0 186 3t125 3v-186h-63q-110 0 -113 -129q-3 -88 -3 -184t1.5 -203t1.5 -158q0 -308 -150 -454t-442 -146q-328 0 -481.5 142.5t-153.5 453.5z" />
    <glyph glyph-name="V" unicode="V" horiz-adv-x="1640" 
d="M676 1049q85 -307 217 -719q64 175 135 390.5t98 326.5q25 88 6.5 134t-92.5 46h-51q3 41 3 87.5t-2 72.5l-1 26q205 -6 314 -6q65 0 180.5 3t122.5 3q-2 -22 -2 -93t2 -93h-50q-84 0 -129 -34t-84 -132q-66 -161 -186 -508t-184 -565q-46 2 -184 2t-185 -2
q-56 204 -168.5 567.5t-167.5 517.5q-33 89 -69.5 121.5t-118.5 32.5h-43q2 41 2 87.5t-1 72.5l-1 26q252 -6 391 -6q84 0 238 3t157 3q-1 -22 -1 -93t1 -93h-61q-127 0 -86 -178z" />
    <glyph glyph-name="W" unicode="W" horiz-adv-x="2330" 
d="M1739 -12q-46 2 -186.5 2t-186.5 -2q-110 429 -223 817q-46 -140 -124 -414t-112 -403q-41 2 -171 2t-171 -2q-50 206 -151 572.5t-150 529.5q-23 74 -58 105.5t-106 31.5h-63q3 41 3 87.5t-2 72.5l-1 26q248 -6 389 -6q84 0 236 3l153 3q-1 -22 -1 -93t1 -93h-59
q-63 0 -82 -32.5t-2 -104.5q26 -114 92.5 -359.5t107.5 -382.5q161 532 203 742q14 75 -3.5 106t-84.5 31h-35q2 22 2 93t-2 93q207 -6 326 -6q70 0 195 3t129 3q-6 -94 0 -186h-54q-57 0 -74.5 -31t-0.5 -100q28 -118 94 -366t106 -384q44 149 107 389.5t82 341.5
q15 79 -1.5 114.5t-88.5 35.5h-39q1 22 1 93t-1 93q184 -6 284 -6q57 0 163.5 3t113.5 3q-2 -22 -2 -93t2 -93h-66q-74 0 -114.5 -32t-67.5 -120q-37 -124 -158.5 -552t-148.5 -535z" />
    <glyph glyph-name="X" unicode="X" horiz-adv-x="1685" 
d="M840 371l-129 207l-131 -201q-40 -60 -45 -105t15.5 -65.5t57.5 -20.5h49q-4 -92 0 -190q-197 4 -303 4l-297 -4q2 42 2 89.5t-1 74.5l-1 26h41q91 0 159.5 29.5t117.5 79.5t106 137l164 248q-114 178 -258 389q-58 87 -116 122.5t-148 35.5h-47q2 41 2 87.5t-1 72.5
l-1 26q8 0 89 -1t186.5 -2t172.5 -1l422 4q-4 -94 0 -186h-35q-63 0 -79 -48t26 -126q80 -135 146 -240q110 171 139 236q39 91 25.5 134.5t-70.5 43.5h-39q1 22 1 93t-1 93q176 -4 274 -4l275 4q-2 -22 -2 -93t2 -93h-41q-53 0 -93.5 -9t-67.5 -21.5t-53.5 -40.5
t-42.5 -51.5t-44 -68.5l-197 -323q129 -201 252 -381q50 -79 105 -112.5t139 -33.5h63q-2 -22 -2 -95t2 -95q-280 4 -438 4l-426 -4q2 22 2 95t-2 95h49q34 0 53 19t15 62.5t-41 103.5z" />
    <glyph glyph-name="Y" unicode="Y" horiz-adv-x="1716" 
d="M1352 1075q-65 -110 -310 -588v-188q0 -63 23.5 -88t97.5 -25h101q-4 -94 0 -190q-272 4 -426 4l-428 -4q2 22 2 95t-2 95h104q73 0 93 25t20 88v186q-221 441 -320 613q-39 69 -93.5 99t-143.5 30h-33q2 41 2 87.5t-1 72.5l-1 26q278 -6 436 -6l434 6q-4 -94 0 -186h-69
q-72 0 -91 -43.5t17 -128.5q75 -176 205 -385q116 218 188 385q17 38 24 67.5t2.5 54t-27 37.5t-62.5 13h-56q2 42 2 88.5t-1 72.5l-1 25q207 -6 324 -6l319 6q-4 -90 0 -186h-43q-66 0 -111.5 -9t-77.5 -30.5t-52 -45.5t-45 -67z" />
    <glyph glyph-name="Z" unicode="Z" horiz-adv-x="1380" 
d="M57 0v176q210 265 791 1051h-221q-113 0 -176 -13t-105.5 -55.5t-57 -114.5t-14.5 -198q-19 2 -88.5 2t-89.5 -2q6 91 6.5 286.5t-2.5 284.5q173 -6 439 -6h768v-176q-226 -288 -785 -1049h293q120 0 189 33t105 121t36 246q20 -2 89.5 -2t88.5 2q-5 -108 -5.5 -296
t3.5 -296q-258 6 -403 6h-861z" />
    <glyph glyph-name="bracketleft" unicode="[" horiz-adv-x="626" 
d="M125 301v748q0 227 -31 589q223 -8 449 0q-1 -19 -1 -73.5t1 -71.5h-58q-56 0 -79.5 -22t-26.5 -78q-3 -57 -3 -765t3 -765q3 -58 27.5 -79.5t93.5 -21.5h43q-1 -17 -1 -71.5t1 -73.5q-226 8 -449 0q7 85 19 314.5t12 369.5z" />
    <glyph glyph-name="backslash" unicode="\" horiz-adv-x="780" 
d="M537 -362q-81 308 -243.5 872t-266.5 903q37 -3 108.5 -3t108.5 3q85 -321 247.5 -887.5t262.5 -887.5q-26 3 -108.5 3t-108.5 -3z" />
    <glyph glyph-name="bracketright" unicode="]" horiz-adv-x="626" 
d="M506 1038v-815q0 -138 12 -333t21 -273q-46 1 -225 1t-226 -1q2 19 2 73.5t-2 71.5h43q70 0 94.5 21.5t26.5 79.5q2 26 2 765t-2 765q-1 56 -25.5 78t-81.5 22h-57v145q47 -2 226 -2t225 2q-9 -76 -21 -269t-12 -331z" />
    <glyph glyph-name="asciicircum" unicode="^" 
d="M586 1454h37q55 -63 201 -271.5t204 -299.5l-127 -72q-40 61 -140.5 249t-156.5 304q-12 -24 -53 -103.5t-69 -133t-65.5 -123t-66 -118.5t-47.5 -75l-123 72q73 114 211 310.5t195 260.5z" />
    <glyph glyph-name="underscore" unicode="_" horiz-adv-x="1024" 
d="M0 -385q2 31 2 95.5t-2 96.5q163 -3 512 -3t512 3q-4 -96 0 -192q-163 3 -512 3t-512 -3z" />
    <glyph glyph-name="grave" unicode="`" horiz-adv-x="1089" 
d="M774 1110l-16 -25q-81 21 -178.5 62t-161.5 82q-63 39 -64.5 93t46 70.5t116.5 -18.5q113 -70 258 -264z" />
    <glyph glyph-name="a" unicode="a" horiz-adv-x="1130" 
d="M924 582v-310q0 -75 8.5 -101t32.5 -26q30 0 41.5 61.5t3.5 166.5l82 4q6 -98 -2 -169t-34 -127t-77.5 -84t-128.5 -28q-194 0 -238 156q-97 -156 -295 -156q-128 0 -201 62t-73 180q0 301 555 328v79q0 63 -8 104.5t-30.5 74t-64.5 47.5t-108 14q-37 0 -72 -6
q44 -13 68.5 -47t24.5 -80q0 -67 -43.5 -105t-120.5 -38q-74 0 -116 38.5t-42 112.5q0 80 60.5 139t154.5 87t205 28q120 0 202 -26.5t129 -80t67 -125.5t20 -173zM598 225v244q-217 -20 -217 -193q0 -129 98 -129q86 0 119 78z" />
    <glyph glyph-name="b" unicode="b" horiz-adv-x="1206" 
d="M778 -35q-262 0 -334 248q-79 -98 -92 -225h-209q12 109 21 329q4 106 4 405.5t-6 436.5q-3 54 -21 75t-59 21h-51v156q383 0 463 6q-5 -264 -5 -532v-117q69 219 302 219q174 0 262 -121.5t88 -396.5q0 -263 -92 -383.5t-271 -120.5zM489 477q0 -173 36 -253.5
t126 -80.5q53 0 83.5 24t48.5 98.5t18 211.5q0 72 -2.5 118t-11 90.5t-24.5 69t-42.5 39.5t-65.5 15q-85 0 -125.5 -76.5t-40.5 -255.5z" />
    <glyph glyph-name="c" unicode="c" horiz-adv-x="1021" 
d="M748 322q2 0 102 -8t125 -7q-15 -165 -130 -253.5t-306 -88.5q-235 0 -359.5 125.5t-124.5 370.5q0 248 132.5 387t373.5 139q179 0 285 -71.5t106 -196.5q0 -77 -46 -121.5t-130 -44.5q-79 0 -123.5 38.5t-44.5 106.5q0 93 78 131q-51 21 -100 21q-99 0 -145 -81
t-46 -275q0 -197 37.5 -275t130.5 -78q90 0 130 45t55 136z" />
    <glyph glyph-name="d" unicode="d" horiz-adv-x="1210" 
d="M428 987q223 0 289 -209v377q0 54 -21 78t-65 24h-66q4 78 0 156q329 0 479 6q-3 -197 -3 -611.5t3 -555.5q1 -51 22.5 -73.5t66.5 -22.5h47q-2 -19 -2 -78t2 -78q-238 -4 -461 -4v203q-35 -115 -110.5 -174.5t-186.5 -59.5q-88 0 -152 27t-110.5 86.5t-70 160.5
t-23.5 244q0 504 362 504zM551 143q166 0 166 287v109q0 144 -37 207t-119 63q-59 0 -91 -25.5t-48 -96t-16 -204.5q0 -59 2 -100.5t7 -83t15 -68t26 -48t39.5 -31t55.5 -9.5z" />
    <glyph glyph-name="e" unicode="e" horiz-adv-x="1048" 
d="M758 317q10 -1 62 -4.5t97.5 -6t63.5 -1.5q-18 -162 -127 -253t-313 -91q-232 0 -359 126t-127 374q0 251 132.5 388.5t357.5 137.5q123 0 213.5 -40.5t142.5 -115t73.5 -175.5t12.5 -228q-36 1 -165.5 1t-278.5 -0.5t-156 -0.5q6 -158 49 -224.5t137 -66.5
q86 0 128.5 44.5t56.5 135.5zM532 823q-47 0 -76.5 -26t-48 -96t-20.5 -189h215q30 0 42.5 12t12.5 54q0 130 -30.5 187.5t-94.5 57.5z" />
    <glyph glyph-name="f" unicode="f" horiz-adv-x="708" 
d="M43 958l121 -4v19q-8 229 88 341.5t301 112.5q145 0 227 -63.5t82 -165.5q0 -70 -37.5 -106.5t-105.5 -36.5q-63 0 -100 33.5t-37 91.5q0 66 46.5 99t114.5 24q-42 28 -102 28q-99 0 -139.5 -70t-20.5 -235l8 -74l140 6v-155l-142 4q-4 -370 5 -559q3 -46 21 -69t60 -23
h52q-1 -11 -1 -44.5t0.5 -73t0.5 -44.5q-6 0 -58.5 1.5t-122 3t-116.5 1.5t-118 -1.5t-124 -3t-55 -1.5q1 19 1 81t-1 81h49q78 0 84 92q6 126 2 559l-123 -4v155z" />
    <glyph glyph-name="g" unicode="g" horiz-adv-x="1062" 
d="M477 987q103 0 189 -22q18 80 71 131t135 51q79 0 124.5 -40.5t45.5 -111.5q0 -59 -29 -92t-83 -33q-52 0 -81.5 27.5t-29.5 77.5q0 41 25 69q-83 -15 -121 -102q190 -81 190 -313q0 -176 -119.5 -271.5t-316.5 -95.5q-75 0 -137 12q-80 -7 -80 -45q0 -21 24 -32t91 -17
t196 -8q136 -1 227 -19t140 -53.5t68.5 -81t19.5 -110.5t-31.5 -122t-94 -103.5t-166.5 -73.5t-238 -27q-476 0 -476 211q0 55 41 93.5t109 58.5q-102 51 -102 157q0 83 52.5 133t135.5 66q-100 40 -154.5 123.5t-54.5 204.5q0 173 119 265.5t311 92.5zM492 -106
q-127 3 -216 18q-98 -30 -98 -90q0 -51 75.5 -83t238.5 -32q182 0 275 33.5t93 81.5q0 40 -76.5 54.5t-291.5 17.5zM481 850q-66 0 -92.5 -49t-26.5 -174q0 -129 27 -178.5t92 -49.5q68 0 92.5 48.5t24.5 179.5q0 128 -25.5 175.5t-91.5 47.5z" />
    <glyph glyph-name="h" unicode="h" horiz-adv-x="1288" 
d="M1126 610q0 -27 -0.5 -106.5t-0.5 -140.5t1 -87q3 -67 25 -93.5t80 -26.5h20q-1 -28 -1 -85.5t1 -76.5q-5 0 -56 1.5t-118 3t-112 1.5t-114 -1.5t-120 -3t-53 -1.5q2 19 2 76.5t-2 85.5h27q51 0 71 26t23 94q7 148 0 322q-3 106 -34.5 158.5t-105.5 52.5
q-167 0 -167 -287v-256q0 -64 20.5 -87t75.5 -23h28q-4 -80 0 -162q-5 0 -56.5 1.5t-119.5 3t-114 1.5t-116.5 -1.5t-123.5 -3t-55 -1.5q1 19 1 76.5t-1 85.5h32q58 0 77 21t24 87q4 58 3.5 441t-3.5 442q-5 65 -23.5 87.5t-79.5 22.5h-26v156q342 0 465 6q-8 -154 -8 -487
v-170q70 225 315 225q164 0 243 -99.5t76 -277.5z" />
    <glyph glyph-name="i" unicode="i" horiz-adv-x="657" 
d="M492 965q-2 -61 -2.5 -342t2.5 -357q3 -66 25.5 -88t80.5 -22h29v-162q-5 0 -58 1.5t-122.5 3t-116.5 1.5t-118.5 -1.5t-125 -3t-55.5 -1.5q1 19 1 76.5t-1 85.5h30q60 0 80 21t23 87t3 221t-3 213q-3 61 -23.5 83t-81.5 22h-28q4 77 0 155q289 0 461 7zM504 1278
q0 -86 -51 -137t-136 -51q-84 0 -134 51t-50 137q0 83 50.5 133.5t133.5 50.5q85 0 136 -50.5t51 -133.5z" />
    <glyph glyph-name="j" unicode="j" horiz-adv-x="628" 
d="M129 -184q0 -54 -42.5 -94t-117.5 -29q42 -27 94 -27q73 0 110 49.5t40 169.5q2 126 2.5 437.5t-2.5 382.5q-6 98 -94 98h-37q4 77 0 155q374 0 467 7q-8 -115 -8 -340v-600q0 -220 -101 -328.5t-293 -108.5q-136 0 -216.5 54.5t-80.5 150.5q0 70 38.5 109t107.5 39
q62 0 97.5 -33.5t35.5 -91.5zM555 1278q0 -86 -50.5 -137t-135.5 -51q-84 0 -134.5 51t-50.5 137q0 83 51 133.5t134 50.5q85 0 135.5 -50.5t50.5 -133.5z" />
    <glyph glyph-name="k" unicode="k" horiz-adv-x="1298" 
d="M492 1417q-5 -193 -5 -901l232 174q55 41 45 77t-74 36h-33q1 19 1 80t-1 78q189 -7 295 -7q47 0 116.5 2t122 3.5t56.5 1.5q-4 -80 0 -158h-41q-90 0 -149 -23t-162 -94l-55 -37q158 -281 229 -377q48 -62 86 -89t90 -27h19q-4 -82 0 -162q-5 0 -59.5 1.5t-127 3
t-121.5 1.5q-48 0 -121.5 -1.5t-128 -3t-55.5 -1.5q2 36 2 76.5t-1 63.5l-1 22h25q42 0 48 32t-24 86q-58 104 -125 197l-86 -57q0 -80 3 -138q3 -66 24 -93t68 -27h24q-4 -82 0 -162q-5 0 -55.5 1.5t-117.5 3t-113 1.5t-115.5 -1.5t-121.5 -3t-54 -1.5q1 19 1 76.5t-1 85.5
h30q58 0 79 25.5t24 94.5q3 71 3.5 433.5t-3.5 427.5q-3 66 -22.5 93t-80.5 27h-26v156q297 0 457 4z" />
    <glyph glyph-name="l" unicode="l" horiz-adv-x="653" 
d="M492 1419q-2 -119 -2.5 -586.5t2.5 -556.5q3 -68 25 -94t79 -26h31q-1 -28 -1 -85.5t1 -76.5q-6 0 -58.5 1.5t-122 3t-116.5 1.5q-48 0 -120 -1.5t-125 -3t-54 -1.5q1 19 1 76.5t-1 85.5h30q58 0 79 25.5t24 94.5q3 66 3 436t-3 427q-3 63 -24 90.5t-81 27.5h-24
q2 34 2 73t-1 61l-1 22q377 0 457 6z" />
    <glyph glyph-name="m" unicode="m" horiz-adv-x="1927" 
d="M1761 610q-2 -275 0 -334q3 -67 25.5 -93.5t81.5 -26.5h28q-2 -28 -2 -85.5t2 -76.5q-5 0 -56.5 1.5t-119.5 3t-114 1.5t-116.5 -1.5t-122.5 -3t-54 -1.5q1 19 1 76.5t-1 85.5h26q50 0 71 27t24 93q7 150 0 322q-3 106 -34.5 158.5t-105.5 52.5q-90 0 -129 -79t-39 -236
v-218q0 -67 21.5 -93.5t77.5 -26.5h26q-1 -28 -1 -85.5t1 -76.5q-5 0 -55.5 1.5t-117.5 3t-113 1.5q-45 0 -114 -1.5t-120 -3t-53 -1.5q2 19 2 76.5t-2 85.5h27q50 0 70.5 26t23.5 94q7 156 0 322q-3 106 -34.5 158.5t-105.5 52.5q-90 0 -128.5 -78.5t-38.5 -236.5v-218
q0 -68 22 -94t74 -26h28q-2 -28 -2 -85.5t2 -76.5q-5 0 -56.5 1.5t-119.5 3t-114 1.5t-116.5 -1.5t-123.5 -3t-55 -1.5q1 19 1 76.5t-1 85.5h30q58 0 77.5 24t25.5 96q4 68 4 212.5t-4 199.5q-3 62 -23.5 88.5t-81.5 26.5h-24v155q364 0 457 7v-197q72 219 315 219
q259 0 309 -250q63 250 326 250q326 0 319 -377z" />
    <glyph glyph-name="n" unicode="n" horiz-adv-x="1292" 
d="M1126 610q0 -27 -0.5 -106.5t-0.5 -140.5t1 -87q3 -69 25 -94.5t82 -25.5h22q-1 -28 -1 -85.5t1 -76.5q-5 0 -56 1.5t-118.5 3t-113.5 1.5t-115.5 -1.5t-120.5 -3t-53 -1.5q2 19 2 76.5t-2 85.5h27q49 0 70 27t24 93q7 148 0 322q-3 106 -34.5 158.5t-105.5 52.5
q-167 0 -167 -287v-246q0 -68 22 -94t74 -26h28q-2 -28 -2 -85.5t2 -76.5q-5 0 -56.5 1.5t-119.5 3t-114 1.5t-116.5 -1.5t-123.5 -3t-55 -1.5q1 19 1 81t-1 81h30q59 0 79.5 25t23.5 95q4 73 4 215t-4 197q-3 62 -23.5 88.5t-81.5 26.5h-24v155q364 0 457 7v-207
q69 229 315 229q319 0 319 -377z" />
    <glyph glyph-name="o" unicode="o" horiz-adv-x="1112" 
d="M61 467q0 260 131.5 390t364.5 130q236 0 365 -129.5t129 -390.5q0 -253 -130 -379.5t-364 -126.5q-236 0 -366 127t-130 379zM403 467q0 -108 10 -177.5t31.5 -104.5t47.5 -47.5t65 -12.5q38 0 63.5 12.5t47.5 47.5t32.5 105t10.5 177q0 143 -20 224.5t-52 108.5t-84 27
t-83 -27t-50 -108t-19 -225z" />
    <glyph glyph-name="p" unicode="p" horiz-adv-x="1210" 
d="M788 -35q-229 0 -296 205v-252q0 -121 110 -121h31q-1 -19 -1 -79.5t1 -79.5q-6 0 -59 1.5t-123.5 3t-118.5 1.5t-120 -1.5t-125.5 -3t-55.5 -1.5q1 19 1 79.5t-1 79.5h30q54 0 77 28.5t26 92.5q4 63 4 384t-4 384q-3 64 -26.5 90.5t-80.5 26.5h-22v155q364 0 457 7v-205
q68 227 301 227q180 0 266 -123t86 -395q0 -504 -357 -504zM659 809q-85 0 -124.5 -73t-42.5 -259q-3 -172 33.5 -253t127.5 -81q55 0 86 24.5t48.5 98.5t17.5 211q0 72 -2.5 118t-11 90.5t-24.5 69t-42.5 39.5t-65.5 15z" />
    <glyph glyph-name="q" unicode="q" horiz-adv-x="1204" 
d="M453 987q124 0 205 -45.5t124 -146.5q78 98 99 211q25 -2 91 -2t91 2q-16 -124 -21 -402q-2 -126 -2 -376t2 -322q2 -54 22 -81.5t69 -27.5h51q-2 -28 -2 -84t2 -75q-6 0 -61.5 1.5t-129 3t-123.5 1.5t-125.5 -1.5t-131 -3t-56.5 -1.5q2 34 2 73.5t-1 62.5l-1 23h53
q50 0 77.5 29.5t27.5 79.5v282q-70 -223 -307 -223q-179 0 -260.5 118t-81.5 390q0 267 99 390.5t288 123.5zM553 809q-58 0 -88.5 -27t-44.5 -99t-14 -210q0 -57 2 -97.5t7 -80.5t14.5 -66t25 -46.5t38.5 -30t54 -9.5q85 0 123.5 71t44.5 259q5 164 -32 250t-130 86z" />
    <glyph glyph-name="r" unicode="r" horiz-adv-x="950" 
d="M690 879q-94 0 -145 -78t-51 -228v-311q0 -64 22.5 -85t87.5 -21h45v-162q-5 0 -59 1.5t-126.5 3t-121.5 1.5t-123 -1.5t-129 -3t-57 -1.5q1 19 1 76.5t-1 85.5h30q60 0 80.5 22t22.5 84q2 65 2 227.5t-2 206.5q-2 58 -23.5 82.5t-81.5 24.5h-24v155q319 0 412 7
l-17 -230q27 122 96.5 187t178.5 65q107 0 166 -57.5t59 -161.5q0 -88 -44 -136t-124 -48q-70 0 -110 36t-40 99q0 70 49 107t115 32q-40 21 -88 21z" />
    <glyph glyph-name="s" unicode="s" horiz-adv-x="987" 
d="M485 844q-88 0 -129 -27t-41 -67q0 -34 19 -53.5t75 -34.5t162 -25q367 -38 367 -338q0 -159 -99 -248.5t-296 -89.5q-150 0 -283 86q-26 16 -44.5 19t-29 -7.5t-16.5 -25.5t-10 -41q-56 8 -111 0q25 192 17 340q55 -8 110 0q46 -106 133 -169t205 -63q86 0 128 28.5
t42 74.5q0 44 -46.5 68.5t-180.5 37.5q-207 18 -301.5 110t-94.5 232q0 150 113.5 244.5t302.5 91.5q126 -3 219 -63q30 -18 47 -18t25 14.5t14 50.5q53 -8 107 0q-17 -150 -17 -299q-54 4 -112 0q-70 172 -275 172z" />
    <glyph glyph-name="t" unicode="t" horiz-adv-x="716" 
d="M598 358h90q11 -87 1 -159t-39 -123t-89.5 -79t-150.5 -28q-292 0 -289 318l6 518h-98v127q268 11 321 383q15 -1 67.5 -1t67.5 1q-16 -126 -20 -365l207 11q-2 -17 -2 -78t2 -80l-207 2v-459q0 -83 7.5 -128t21 -61.5t38.5 -17.5q85 0 66 219z" />
    <glyph glyph-name="u" unicode="u" horiz-adv-x="1263" 
d="M1118 965q-6 -111 -6 -312v-368q2 -66 22.5 -97.5t69.5 -31.5h29v-156q-369 0 -449 -6v196q-72 -229 -311 -229q-151 0 -239 93.5t-84 289.5q2 47 2 168t-2 158q-2 71 -21.5 102t-71.5 31h-28v158q180 -3 223 -3q150 0 231 7q-6 -115 -6 -318v-274q0 -69 13 -117t35 -72
t44 -33.5t47 -9.5q93 0 130.5 91t37.5 296v158q0 65 -28.5 91t-104.5 26h-20q1 19 1 80t-1 78q209 -3 256 -3q187 0 231 7z" />
    <glyph glyph-name="v" unicode="v" horiz-adv-x="1161" 
d="M1149 803h-31q-50 0 -77 -9.5t-53.5 -43.5t-53.5 -105q-186 -480 -244 -672q-37 1 -130.5 1t-131.5 -1q-87 286 -240 676q-36 90 -49 110q-28 41 -90 44h-14h-23q2 19 2 80t-2 78q187 -5 281 -5l323 5q-4 -80 0 -158h-32q-45 0 -64 -30t-4 -87q30 -130 131 -442
q112 319 144 442q32 117 -66 117h-37q2 19 2 80t-2 78q160 -5 232 -5l229 5q-1 -17 -1 -78t1 -80z" />
    <glyph glyph-name="w" unicode="w" horiz-adv-x="1753" 
d="M1004 -27q-87 327 -170 590q-101 -297 -183 -590q-32 1 -120.5 1t-120.5 -1q-150 483 -213 676q-31 94 -58 124t-90 30h-18q2 35 2 74.5t-1 61.5l-1 22q189 -7 293 -7l292 7q-4 -80 0 -158h-18q-90 0 -66 -113q13 -63 52.5 -204t70.5 -240q101 298 129 432
q12 62 -2.5 93.5t-70.5 31.5h-25q2 19 2 80t-2 78q162 -7 260 -7l264 7q-2 -17 -2 -78t2 -80h-20q-92 0 -66 -111q15 -66 54.5 -211.5t68.5 -236.5q82 262 121 432q16 58 2.5 92.5t-63.5 34.5h-29q2 19 2 80t-2 78q147 -7 223 -7l223 7q-2 -17 -2 -78t2 -80h-36
q-72 0 -109.5 -34t-73.5 -136q-45 -127 -121 -356.5t-98 -303.5q-38 1 -141 1t-141 -1z" />
    <glyph glyph-name="x" unicode="x" horiz-adv-x="1245" 
d="M596 274l-88 119l-98 -123q-37 -47 -23.5 -80.5t64.5 -33.5h24q-4 -80 0 -160q-145 4 -219 4l-225 -4q2 35 2 75t-1 63l-1 22h41q76 0 124.5 26.5t110.5 96.5l154 176l-189 245q-46 61 -81.5 82t-108.5 21h-31q2 36 2 75.5t-1 61.5l-1 21q211 -5 330 -5l348 5
q-1 -17 -1 -78t1 -80h-29q-50 0 -60 -31t26 -88q18 -31 90 -125l114 131q36 41 22.5 77t-69.5 36h-30q1 19 1 80t-1 78q124 -5 190 -5l213 5q-2 -17 -2 -78t2 -80h-45q-53 0 -86.5 -23t-108.5 -104l-157 -174q170 -221 196 -252q71 -94 191 -94h28q-4 -80 0 -160
q-218 4 -335 4l-340 -4q2 36 2 76t-1 62l-1 22h28q46 0 56 33t-27 85z" />
    <glyph glyph-name="y" unicode="y" horiz-adv-x="1193" 
d="M805 694q14 51 -3.5 80t-62.5 29h-34q1 19 1 80t-1 78q135 -7 237 -7l221 7v-158h-37q-66 0 -100 -26t-59 -85q-119 -287 -240 -657q-78 -235 -179.5 -330.5t-258.5 -95.5q-118 0 -179 53t-61 141q0 81 48 127.5t122 46.5t114 -36t40 -103q0 -66 -55.5 -107.5
t-135.5 -29.5q41 -18 90 -18q121 0 190 84t134 294q-129 4 -197 0q-32 113 -105 319.5t-114 311.5q-25 62 -52 86.5t-81 24.5h-29q2 19 2 80t-2 78q177 -7 308 -7l307 7q-4 -80 0 -158h-31q-95 0 -67 -109q62 -217 133 -415q123 358 137 415z" />
    <glyph glyph-name="z" unicode="z" horiz-adv-x="987" 
d="M594 0h-557q1 19 1 70.5t-1 70.5q263 350 498 699h-113q-120 0 -177 -58t-67 -211h-117q19 197 5 398q140 -8 356 -8h506q-1 -19 -0.5 -70t2.5 -70q-257 -342 -504 -702h168q48 0 88.5 15t74 47t54.5 88.5t25 133.5q12 -1 58 -1t58 1q-11 -91 -13.5 -201.5t5.5 -207.5
q-174 6 -350 6z" />
    <glyph glyph-name="braceleft" unicode="{" horiz-adv-x="622" 
d="M68 586v84h24q32 0 55.5 9.5t35.5 28.5t19 41.5t5 54.5t-5.5 60.5t-13 66t-17.5 65.5t-19 64q-5 15 -7 23q-81 262 25.5 400t380.5 147l4 -100q-49 -6 -80 -19.5t-54.5 -42t-32 -76.5t-7 -121t15.5 -179q7 -52 11.5 -90t6.5 -82.5t-1.5 -77t-12 -66.5t-25.5 -57.5
t-41 -43.5t-59.5 -31.5t-80.5 -14.5q51 -5 89.5 -21.5t63 -37.5t39.5 -56t21.5 -66.5t6 -79.5t-3.5 -85.5t-10 -92.5q-18 -156 -17 -256.5t40.5 -150t130.5 -57.5l-4 -101q-76 3 -138 14t-121.5 35t-98.5 65t-62.5 99t-20 143t34.5 191q48 170 55 209q31 155 -42 192
q-26 13 -66 13h-24z" />
    <glyph glyph-name="bar" unicode="|" horiz-adv-x="614" 
d="M287 -244q0 8 6.5 14.5t13.5 6.5t14 -6.5t7 -14.5q0 -7 -6.5 -13.5t-14.5 -6.5q-7 0 -13.5 6t-6.5 14zM276 -88q0 12 9.5 21.5t21.5 9.5t21.5 -9.5t9.5 -21.5t-9.5 -21.5t-21.5 -9.5t-21.5 9.5t-9.5 21.5zM266 68q0 17 12 29t29 12t29 -12t12 -29t-12 -29t-29 -12t-29 12
t-12 29zM256 223q0 20 14.5 34.5t36.5 14.5t36.5 -14.5t14.5 -34.5q0 -22 -14.5 -36.5t-36.5 -14.5t-36.5 14.5t-14.5 36.5zM250 379q0 23 17 39t40 16q24 0 41 -16t17 -39q0 -24 -17 -40.5t-41 -16.5t-40.5 16.5t-16.5 40.5zM246 535q0 25 18 42t43 17t43.5 -17.5
t18.5 -41.5q0 -26 -18.5 -44t-43.5 -18t-43 18t-18 44zM246 690q0 25 17.5 43.5t43.5 18.5t44 -18.5t18 -43.5q0 -26 -18 -44.5t-44 -18.5t-43.5 18.5t-17.5 44.5zM246 844q0 26 18 43.5t43 17.5t43.5 -17.5t18.5 -43.5q0 -25 -18.5 -42.5t-43.5 -17.5t-43 17.5t-18 42.5z
M250 999q0 25 17 41.5t40 16.5q24 0 41 -17t17 -41q0 -23 -17 -39t-41 -16q-23 0 -40 16t-17 39zM256 1155q0 22 14.5 36.5t36.5 14.5t36.5 -14.5t14.5 -36.5q0 -20 -14.5 -34.5t-36.5 -14.5t-36.5 14.5t-14.5 34.5zM266 1311q0 17 12 29t29 12t29 -12t12 -29t-12 -29
t-29 -12t-29 12t-12 29zM276 1466q0 12 9.5 21.5t21.5 9.5t21.5 -9.5t9.5 -21.5t-9.5 -21t-21.5 -9t-21.5 9t-9.5 21zM287 1622q0 8 6.5 14t13.5 6q8 0 14.5 -6.5t6.5 -13.5t-6.5 -13.5t-14.5 -6.5q-7 0 -13.5 6t-6.5 14z" />
    <glyph glyph-name="braceright" unicode="}" horiz-adv-x="598" 
d="M543 670v-84h-27q-36 0 -61 -11t-37.5 -30.5t-17 -47t-1 -60t11.5 -69t18.5 -75.5t22.5 -78q9 -29 13 -43q30 -106 34 -191t-18.5 -143t-60 -99t-95.5 -65t-119.5 -35t-137.5 -14l-5 101q90 8 129.5 57.5t41 150t-16.5 256.5q-7 56 -10 93t-3.5 85t6 79.5t21.5 66.5
t39.5 56t63 37.5t90.5 21.5q-52 4 -91 19t-64 37.5t-40.5 57t-21.5 70t-5 85t5.5 92.5t13.5 102q14 106 15.5 179t-7 121t-32 76.5t-54.5 42t-80 19.5l5 100q272 -9 374 -146.5t23 -400.5q-54 -173 -61 -244q-19 -169 112 -169h27z" />
    <glyph glyph-name="asciitilde" unicode="~" horiz-adv-x="1089" 
d="M848 1415l59 17q42 -116 16.5 -193.5t-88 -116.5t-147.5 -39q-83 0 -139 35.5t-103 108.5q-36 57 -60 77.5t-60 20.5q-31 0 -51 -19.5t-26 -63t15 -114.5l-63 -20q-40 119 -14 196.5t88.5 115.5t148.5 38q74 0 130.5 -33t109.5 -110q34 -52 60 -74t60 -22q52 0 70.5 45
t-6.5 151z" />
    <glyph glyph-name="exclamdown" unicode="&#xa1;" horiz-adv-x="567" 
d="M104 821q0 79 47.5 122.5t131.5 43.5q81 0 128.5 -44t47.5 -126q0 -81 -47.5 -126.5t-128.5 -45.5q-84 0 -131.5 46.5t-47.5 129.5zM256 500q0 43 31 43q32 0 32 -43q0 -75 5.5 -139t11 -105.5t22 -98t26 -83t36 -95.5t39.5 -104q39 -110 30.5 -194.5t-62.5 -134.5
t-140 -50q-84 0 -139 50t-64 134.5t35 194.5q8 21 28.5 71.5t26.5 66.5t21 57t19.5 59.5t14.5 56.5t12.5 65.5t7.5 69t6 84.5t1 95z" />
    <glyph glyph-name="cent" unicode="&#xa2;" horiz-adv-x="1093" 
d="M623 1055l-68 -336l-57 -373q33 -16 92 -16q72 0 155 37q-83 26 -83 122q0 60 39.5 93.5t111.5 33.5q69 0 109.5 -39t40.5 -114q0 -124 -112.5 -205.5t-305.5 -81.5q-49 0 -72 2l-37 -256l-92 17l53 251q-167 37 -255.5 161.5t-88.5 328.5q0 242 133 380t363 138h29
l34 252l90 -14l-51 -244q138 -19 217.5 -84t79.5 -160q0 -70 -41 -107.5t-112 -37.5q-69 0 -106.5 35.5t-37.5 95.5q0 71 60 106q-48 13 -88 15zM373 688q0 -220 65 -299l70 338l49 326q-96 -9 -140 -93t-44 -272z" />
    <glyph glyph-name="sterling" unicode="&#xa3;" horiz-adv-x="1196" 
d="M166 516q2 17 2 58.5t-2 58.5q52 -6 139 -6q-46 67 -73 112.5t-50.5 119.5t-23.5 151q0 196 139 313t350 117q203 0 306.5 -88t103.5 -222q0 -104 -48 -157t-137 -53q-66 0 -104.5 35t-38.5 94q0 53 36 87.5t101 34.5q40 0 70 -12q-16 54 -69.5 88.5t-137.5 34.5
q-113 0 -175.5 -73.5t-61.5 -215.5q0 -35 4.5 -70t16.5 -79.5t18.5 -67t26 -79t24.5 -70.5q160 0 233 6v-117l-203 6q35 -134 27 -233q123 -51 225 -51q167 0 195 102l102 -14q10 -69 -3 -133t-48 -116t-100.5 -83t-153.5 -31q-174 0 -315 98q-92 -92 -265 -92
q-115 0 -173 50t-58 135q0 97 71.5 154t172.5 57q84 0 164 -17q-15 81 -76 176q-52 -1 -211 -8zM264 43q122 0 170 98q-47 36 -86 55t-84 19q-60 0 -90.5 -23t-30.5 -63q0 -36 32 -61t89 -25z" />
    <glyph glyph-name="yen" unicode="&#xa5;" horiz-adv-x="1273" 
d="M182 797l156 -4q-63 174 -100 264q-40 99 -75.5 134.5t-105.5 35.5h-30q1 22 1 93t-1 93q204 -6 323 -6l328 6q-4 -96 0 -186h-29q-110 0 -63 -152q47 -155 141 -360q109 258 137 362q9 36 11.5 59.5t-1 46t-20.5 33.5t-47 11h-29q2 40 2 86.5t-1 72.5l-1 27
q160 -6 244 -6l223 6q-4 -96 0 -186h-28q-71 0 -107.5 -27.5t-69.5 -101.5l-135 -307l166 6q-1 -23 -1 -77t1 -77l-225 8q-13 -29 -41 -96v-29l266 9q-1 -22 -1 -75.5t1 -78.5l-266 10v-92q0 -62 23.5 -87.5t95.5 -25.5h57q-4 -94 0 -188q-213 6 -354 6l-359 -6q2 23 2 94
t-2 94h60q73 0 92.5 24.5t19.5 88.5v92l-258 -10v154l250 -9l-45 125l-205 -8v154z" />
    <glyph glyph-name="brokenbar" unicode="&#xa6;" horiz-adv-x="614" 
d="M287 -244q0 8 6.5 14.5t13.5 6.5t14 -6.5t7 -14.5q0 -7 -6.5 -13.5t-14.5 -6.5q-7 0 -13.5 6t-6.5 14zM276 -88q0 12 9.5 21.5t21.5 9.5t21.5 -9.5t9.5 -21.5t-9.5 -21.5t-21.5 -9.5t-21.5 9.5t-9.5 21.5zM266 68q0 17 12 29t29 12t29 -12t12 -29t-12 -29t-29 -12t-29 12
t-12 29zM256 223q0 20 14.5 34.5t36.5 14.5t36.5 -14.5t14.5 -34.5q0 -22 -14.5 -36.5t-36.5 -14.5t-36.5 14.5t-14.5 36.5zM250 379q0 23 17 39t40 16q24 0 41 -16t17 -39q0 -24 -17 -40.5t-41 -16.5t-40.5 16.5t-16.5 40.5zM246 535q0 25 18 42t43 17t43.5 -17.5
t18.5 -41.5q0 -26 -18.5 -44t-43.5 -18t-43 18t-18 44zM246 844q0 26 18 43.5t43 17.5t43.5 -17.5t18.5 -43.5q0 -25 -18.5 -42.5t-43.5 -17.5t-43 17.5t-18 42.5zM250 999q0 25 17 41.5t40 16.5q24 0 41 -17t17 -41q0 -23 -17 -39t-41 -16q-23 0 -40 16t-17 39zM256 1155
q0 22 14.5 36.5t36.5 14.5t36.5 -14.5t14.5 -36.5q0 -20 -14.5 -34.5t-36.5 -14.5t-36.5 14.5t-14.5 34.5zM266 1311q0 17 12 29t29 12t29 -12t12 -29t-12 -29t-29 -12t-29 12t-12 29zM276 1466q0 12 9.5 21.5t21.5 9.5t21.5 -9.5t9.5 -21.5t-9.5 -21t-21.5 -9t-21.5 9
t-9.5 21zM287 1622q0 8 6.5 14t13.5 6q8 0 14.5 -6.5t6.5 -13.5t-6.5 -13.5t-14.5 -6.5q-7 0 -13.5 6t-6.5 14z" />
    <glyph glyph-name="section" unicode="&#xa7;" horiz-adv-x="1714" 
d="M1100 1346l10 -23q-63 -61 -100.5 -115.5t-77 -152.5t-71.5 -247t-68 -382q-25 -160 -60 -289t-72 -215.5t-82.5 -150t-86.5 -99t-90.5 -56t-87.5 -26.5t-83 -6q-112 0 -170.5 68.5t-44.5 169.5q10 68 53.5 115t114.5 47q62 0 97 -33t26 -96q-10 -61 -61.5 -92t-130.5 -9
q25 -73 123 -73q59 0 99.5 29t80 112.5t73 238t68.5 402.5q19 129 48 239.5t62 191.5t75.5 148.5t83 113t90 84t91 61.5t91.5 45zM618 -309l-10 22q62 62 99.5 116t77.5 152t72.5 247.5t68.5 381.5q24 157 58 284t69.5 213.5t80 151t85 100.5t88 58t86 28.5t82.5 6.5
q125 0 181.5 -70.5t43.5 -169.5q-8 -68 -51 -113.5t-117 -45.5q-59 0 -94.5 33.5t-28.5 95.5q8 62 58 92t132 8q-24 74 -112 74q-61 0 -102.5 -28.5t-82 -112t-75 -239t-70.5 -403.5q-25 -180 -71 -322t-96 -231t-119 -158t-125 -104t-128 -67z" />
    <glyph glyph-name="dieresis" unicode="&#xa8;" horiz-adv-x="1091" 
d="M487 1229q0 -55 -33 -87t-87 -32q-52 0 -85.5 32.5t-33.5 86.5q0 53 33.5 86t85.5 33q54 0 87 -32.5t33 -86.5zM840 1229q0 -55 -34 -87t-87 -32q-52 0 -85.5 32.5t-33.5 86.5q0 53 33.5 86t85.5 33q53 0 87 -33t34 -86z" />
    <glyph glyph-name="copyright" unicode="&#xa9;" horiz-adv-x="1726" 
d="M864 -33q-362 0 -556.5 196t-194.5 542q0 341 202 540t549 199q354 0 553 -198t199 -541q0 -345 -195.5 -541.5t-556.5 -196.5zM864 74q155 0 273 45.5t192.5 129t112 198.5t37.5 258q0 142 -39 258t-115 199.5t-193.5 129t-267.5 45.5q-300 0 -458 -170.5t-158 -461.5
t158 -461t458 -170zM844 1151q129 0 225 -68q62 -41 72 41h104q-9 -50 -15.5 -146.5t-6.5 -152.5q-66 3 -133 0q-10 88 -62.5 137.5t-128.5 49.5q-98 0 -140 -67t-42 -236q0 -91 13 -152.5t37.5 -93t52.5 -43.5t67 -12q182 0 188 208q86 -4 172 0q-3 -176 -93.5 -261
t-285.5 -85q-212 0 -318 102t-106 337q0 216 108 329t292 113z" />
    <glyph glyph-name="ordfeminine" unicode="&#xaa;" horiz-adv-x="1013" 
d="M748 1147v-219q0 -52 6 -69t24 -17q44 0 31 157l59 5q8 -141 -29 -213t-141 -72q-138 0 -166 110q-65 -110 -204 -110q-91 0 -142 43.5t-51 126.5q0 207 389 227v58q0 89 -30 128.5t-117 38.5q-33 0 -60 -6q72 -16 72 -88q0 -45 -30.5 -71.5t-84.5 -26.5q-50 0 -79 27.5
t-29 76.5q0 84 86 131.5t207 47.5q161 0 225 -70.5t64 -214.5zM113 412q1 32 1 101t-1 101q91 -3 375 -3t376 3v-202q-92 3 -376 3t-375 -3zM524 903v166q-153 -13 -153 -137q0 -90 67 -90q63 0 86 61z" />
    <glyph glyph-name="guillemotleft" unicode="&#xab;" horiz-adv-x="890" 
d="M457 879l24 -21q-23 -74 -81 -177.5t-113 -170.5q52 -62 110 -164.5t84 -173.5l-26 -20q-169 145 -369 297v135q51 42 199 159t172 136zM793 879l24 -21q-23 -74 -81 -177.5t-113 -170.5q52 -62 110 -164.5t84 -173.5l-26 -20q-169 145 -369 297v135q51 42 199 159
t172 136z" />
    <glyph glyph-name="registered" unicode="&#xae;" horiz-adv-x="1726" 
d="M864 74q155 0 273 45.5t192.5 129t112 198.5t37.5 258q0 142 -39 258t-115 199.5t-193.5 129t-267.5 45.5q-300 0 -458 -170.5t-158 -461.5t158 -461t458 -170zM864 -33q-362 0 -556.5 196t-194.5 542q0 341 202 540t549 199q354 0 553 -198t199 -541
q0 -345 -195.5 -541.5t-556.5 -196.5zM1210 530q12 -64 25.5 -90t34.5 -26q24 0 27 46t-11 93q2 0 34.5 3t33.5 3q15 -51 11.5 -100t-20 -86.5t-58.5 -60.5t-105 -23q-65 0 -109 14.5t-68 45t-35 67.5t-14 92q-6 94 -41.5 129t-105.5 35h-27q0 -124 4 -164q3 -72 64 -72h39
q-2 -64 0 -125q-145 4 -227 4l-230 -4v125h41q35 0 52 16.5t18 53.5q3 40 3 219t-3 219q-2 34 -16.5 50t-47.5 16h-47v123q102 -5 248 -5h219q185 0 271.5 -54t86.5 -169q0 -82 -51 -134.5t-133 -72.5q61 -18 91.5 -59t45.5 -109zM786 967q-4 -70 -4 -224h70q80 0 111.5 35
t31.5 109q0 65 -28 96t-99 31h-34q-45 0 -48 -47z" />
    <glyph glyph-name="macron" unicode="&#xaf;" horiz-adv-x="1089" 
d="M246 1147q4 81 0 166q94 -3 280.5 -3t280.5 3q-4 -83 0 -166q-94 3 -280.5 3t-280.5 -3z" />
    <glyph glyph-name="degree" unicode="&#xb0;" horiz-adv-x="700" 
d="M350 840q86 0 132 58.5t46 193.5q0 138 -46 194.5t-132 56.5q-178 0 -178 -251q0 -139 44.5 -195.5t133.5 -56.5zM350 766q-138 0 -213.5 82t-75.5 244q0 161 78.5 244t210.5 83q138 0 213.5 -82t75.5 -245q0 -160 -79 -243t-210 -83z" />
    <glyph glyph-name="plusminus" unicode="&#xb1;" 
d="M164 0q3 79 0 158q192 -4 366 -4q8 181 25 301q-141 -21 -397 -27v170q72 0 193 -7.5t204 -19.5q-21 141 -27 398h170q0 -68 -7.5 -191t-18.5 -207q85 11 209 19t190 8v-170q-261 7 -399 27q14 -118 22 -301q179 0 371 4q-3 -77 0 -158q-449 8 -901 0z" />
    <glyph glyph-name="acute" unicode="&#xb4;" horiz-adv-x="1089" 
d="M340 1085l-16 25q59 79 131 155t131 113q39 20 74 20.5t54.5 -18.5t26.5 -44t-9.5 -56.5t-53.5 -54.5q-65 -41 -160 -80t-178 -60z" />
    <glyph glyph-name="paragraph" unicode="&#xb6;" horiz-adv-x="1144" 
d="M428 -334q86 0 124 64t38 223v477q-244 4 -370 130t-126 362q0 248 155.5 367.5t442.5 119.5h361v-152h-47q-52 0 -77.5 -22.5t-25.5 -77.5l2 -1114q0 -455 -395 -455q-148 0 -222.5 58t-74.5 149q0 72 39 109t104 37q63 0 97 -33t34 -92q0 -48 -33 -85.5t-94 -49.5
q34 -15 68 -15z" />
    <glyph glyph-name="periodcentered" unicode="&#xb7;" horiz-adv-x="595" 
d="M483 500q0 -82 -48.5 -128t-135.5 -46q-85 0 -134.5 44.5t-49.5 131.5q0 78 52 127t132 49q87 0 135.5 -49.5t48.5 -128.5z" />
    <glyph glyph-name="cedilla" unicode="&#xb8;" horiz-adv-x="1089" 
d="M436 -227l-24 47q69 33 103 78t40 116l61 -12q7 -86 -57 -147q92 8 159.5 -34t67.5 -128q0 -91 -65 -143t-180 -52q-83 0 -141 35.5t-87 85.5l47 41q59 -72 136 -72q56 0 84 29t28 78q0 59 -51 82t-121 -4z" />
    <glyph glyph-name="ordmasculine" unicode="&#xba;" horiz-adv-x="927" 
d="M125 1067q0 181 92 273t254 92q165 0 255.5 -91.5t90.5 -275.5q0 -175 -91.5 -263.5t-254.5 -88.5q-164 0 -255 88.5t-91 265.5zM117 412v202q91 -3 348.5 -3t349.5 3q-1 -32 -1 -101t1 -101q-92 3 -349.5 3t-348.5 -3zM362 1065q0 -100 14 -154t35.5 -70t59.5 -16
q37 0 59 16t37 70.5t15 153.5q0 102 -14.5 160t-37.5 77t-61 19q-36 0 -58 -19t-35.5 -77t-13.5 -160z" />
    <glyph glyph-name="guillemotright" unicode="&#xbb;" horiz-adv-x="890" 
d="M74 858l26 21q286 -224 371 -295v-135q-147 -109 -371 -297l-24 20q24 70 82 172.5t110 165.5q-55 67 -113 170.5t-81 177.5zM410 858l26 21q286 -224 371 -295v-135q-147 -109 -371 -297l-24 20q24 70 82 172.5t110 165.5q-55 67 -113 170.5t-81 177.5z" />
    <glyph glyph-name="onequarter" unicode="&#xbc;" horiz-adv-x="774" 
d="M18 705q0 19 13.5 32t34.5 13q19 0 32 -13t13 -32q0 -21 -13 -34.5t-32 -13.5q-22 0 -35 13t-13 35zM154 705q0 38 41 38q17 0 27.5 -10.5t10.5 -27.5q0 -41 -38 -41q-41 0 -41 41zM287 705q0 14 9.5 24t27.5 10q14 0 24 -10.5t10 -23.5q0 -18 -10 -27.5t-24 -9.5
q-37 0 -37 37zM416 705q0 14 9.5 24t27.5 10q13 0 23.5 -10.5t10.5 -23.5q0 -18 -10 -27.5t-24 -9.5q-37 0 -37 37zM541 705q0 38 41 38q17 0 28 -10.5t11 -27.5q0 -41 -39 -41q-41 0 -41 41zM664 705q0 19 13 32t34 13q19 0 32 -13t13 -32q0 -21 -13 -34.5t-32 -13.5
q-22 0 -34.5 13t-12.5 35zM227 915q62 0 62 56v266l-119 -2q2 11 2 50t-2 50h37q158 0 178 119q12 -2 57 -2t58 2q-11 -141 -11 -262v-221q0 -56 62 -56h65v-94q-147 4 -229 4l-229 -4v94h69zM311 39q27 0 38 9t11 32v29q-64 0 -161.5 -1.5t-102.5 -1.5v48l322 432
q23 -2 79 -2t78 2v-426l99 2v-58l-99 2v-24q0 -22 11.5 -32.5t38.5 -10.5h49q-2 -41 0 -84q-133 4 -207 4l-207 -4v84h51zM186 158h174v258z" />
    <glyph glyph-name="onehalf" unicode="&#xbd;" horiz-adv-x="774" 
d="M18 705q0 19 13.5 32t34.5 13q19 0 32 -13t13 -32q0 -21 -13 -34.5t-32 -13.5q-22 0 -35 13t-13 35zM154 705q0 38 41 38q17 0 27.5 -10.5t10.5 -27.5q0 -41 -38 -41q-41 0 -41 41zM287 705q0 14 9.5 24t27.5 10q14 0 24 -10.5t10 -23.5q0 -18 -10 -27.5t-24 -9.5
q-37 0 -37 37zM416 705q0 14 9.5 24t27.5 10q13 0 23.5 -10.5t10.5 -23.5q0 -18 -10 -27.5t-24 -9.5q-37 0 -37 37zM541 705q0 38 41 38q17 0 28 -10.5t11 -27.5q0 -41 -39 -41q-41 0 -41 41zM664 705q0 19 13 32t34 13q19 0 32 -13t13 -32q0 -21 -13 -34.5t-32 -13.5
q-22 0 -34.5 13t-12.5 35zM633 170q19 -36 21 -76t-11.5 -74.5t-52 -57.5t-94.5 -23q-40 0 -77 11t-53.5 20t-50.5 30q-90 53 -143 16q23 0 38 -11t15 -28q0 -38 -47 -38q-27 0 -44 18.5t-17 56.5q0 45 15 82t45 67.5t59.5 51.5t74.5 47q64 35 92.5 67.5t28.5 78.5
q0 106 -115 106q-92 0 -124 -55q27 10 55 10q39 0 60.5 -18.5t21.5 -51.5q0 -30 -25.5 -49.5t-71.5 -19.5q-45 0 -71.5 24.5t-26.5 69.5q0 81 69 125.5t177 44.5q130 0 193 -48t63 -128q0 -48 -16.5 -83t-51.5 -58.5t-72.5 -38t-95.5 -29.5q-175 -46 -219 -125
q33 33 95.5 41t130.5 -8q40 -10 69.5 -13.5t56 -1t38.5 18t8 43.5zM227 915q62 0 62 56v266l-119 -2q2 11 2 50t-2 50h37q158 0 178 119q12 -2 57 -2t58 2q-11 -141 -11 -262v-221q0 -56 62 -56h65v-94q-147 4 -229 4l-229 -4v94h69z" />
    <glyph glyph-name="threequarters" unicode="&#xbe;" horiz-adv-x="774" 
d="M18 705q0 19 13.5 32t34.5 13q19 0 32 -13t13 -32q0 -21 -13 -34.5t-32 -13.5q-22 0 -35 13t-13 35zM154 705q0 38 41 38q17 0 27.5 -10.5t10.5 -27.5q0 -41 -38 -41q-41 0 -41 41zM287 705q0 14 9.5 24t27.5 10q14 0 24 -10.5t10 -23.5q0 -18 -10 -27.5t-24 -9.5
q-37 0 -37 37zM416 705q0 14 9.5 24t27.5 10q13 0 23.5 -10.5t10.5 -23.5q0 -18 -10 -27.5t-24 -9.5q-37 0 -37 37zM541 705q0 38 41 38q17 0 28 -10.5t11 -27.5q0 -41 -39 -41q-41 0 -41 41zM664 705q0 19 13 32t34 13q19 0 32 -13t13 -32q0 -21 -13 -34.5t-32 -13.5
q-22 0 -34.5 13t-12.5 35zM637 1290q0 -110 -135 -145q80 -13 122 -53.5t42 -100.5q0 -186 -306 -186q-114 0 -181.5 45.5t-67.5 118.5q0 42 30.5 68t75.5 26q44 0 69 -21t25 -53q0 -35 -24.5 -54.5t-67.5 -19.5q-13 0 -33 5q40 -43 123 -43q135 0 135 118q0 113 -139 113
h-26v59h26q127 0 127 113q0 45 -27.5 72.5t-85.5 27.5q-82 0 -118 -51q28 8 51 8q38 0 58 -18t20 -47q0 -30 -23.5 -50t-68.5 -20q-44 0 -72.5 25t-28.5 69q0 73 71.5 118.5t182.5 45.5q115 0 180.5 -46t65.5 -124zM311 39q27 0 38 9t11 32v29q-64 0 -161.5 -1.5
t-102.5 -1.5v48l322 432q23 -2 79 -2t78 2v-426l99 2v-58l-99 2v-24q0 -22 11.5 -32.5t38.5 -10.5h49q-2 -41 0 -84q-133 4 -207 4l-207 -4v84h51zM186 158h174v258z" />
    <glyph glyph-name="questiondown" unicode="&#xbf;" horiz-adv-x="1071" 
d="M317 391l-26 62q53 40 129.5 69t150.5 29q80 0 128.5 -38t48.5 -103q0 -54 -32 -94t-102 -83q-87 -53 -138.5 -127t-51.5 -192q0 -119 61 -188.5t185 -69.5q78 0 142 33t95 98q-43 -16 -92 -16q-74 0 -117 42t-43 115q0 70 49.5 113t131.5 43q89 0 136.5 -53t47.5 -152
q0 -168 -127.5 -274.5t-353.5 -106.5q-241 0 -360.5 105.5t-119.5 287.5q0 88 27.5 157.5t84.5 122.5t131 92.5t179 76.5q64 24 86.5 40t22.5 40q0 21 -18 33t-44 12q-105 0 -211 -74zM356 819q0 79 47 124.5t129 45.5q81 0 129 -45t48 -127q0 -78 -48.5 -124t-128.5 -46
q-82 0 -129 46t-47 126z" />
    <glyph glyph-name="Agrave" unicode="&#xc0;" horiz-adv-x="1810" 
d="M1073 383l-16 49q-210 6 -498 2l-18 -55q-32 -97 -11 -145t103 -48h78q0 -14 -1 -95t-1 -95q-209 4 -326 4l-326 -4v190h54q87 0 133 40.5t86 140.5q19 47 187.5 496.5t209.5 561.5q116 -6 182 -6l183 6q58 -165 203.5 -538t207.5 -522q43 -102 84.5 -140.5t102.5 -38.5
h63v-190q-268 4 -420 4l-422 -4v190h82q75 0 93 50t-13 147zM1014 555q-92 262 -209 565q-137 -366 -205 -565q212 -3 414 0zM1036 1544l-16 -24q-82 21 -179 61.5t-161 81.5q-63 39 -64.5 93t46 70.5t116.5 -18.5q113 -70 258 -264z" />
    <glyph glyph-name="Aacute" unicode="&#xc1;" horiz-adv-x="1810" 
d="M1073 383l-16 49q-210 6 -498 2l-18 -55q-32 -97 -11 -145t103 -48h78q0 -14 -1 -95t-1 -95q-209 4 -326 4l-326 -4v190h54q87 0 133 40.5t86 140.5q19 47 187.5 496.5t209.5 561.5q116 -6 182 -6l183 6q58 -165 203.5 -538t207.5 -522q43 -102 84.5 -140.5t102.5 -38.5
h63v-190q-268 4 -420 4l-422 -4v190h82q75 0 93 50t-13 147zM1014 555q-92 262 -209 565q-137 -366 -205 -565q212 -3 414 0zM827 1520l-16 24q59 79 131 155t131 113q39 20 74 20.5t54.5 -18.5t26.5 -44t-9.5 -56.5t-53.5 -54.5q-140 -88 -338 -139z" />
    <glyph glyph-name="Acircumflex" unicode="&#xc2;" horiz-adv-x="1810" 
d="M1073 383l-16 49q-210 6 -498 2l-18 -55q-32 -97 -11 -145t103 -48h78q0 -14 -1 -95t-1 -95q-209 4 -326 4l-326 -4v190h54q87 0 133 40.5t86 140.5q19 47 187.5 496.5t209.5 561.5q116 -6 182 -6l183 6q58 -165 203.5 -538t207.5 -522q43 -102 84.5 -140.5t102.5 -38.5
h63v-190q-268 4 -420 4l-422 -4v190h82q75 0 93 50t-13 147zM1014 555q-92 262 -209 565q-137 -366 -205 -565q212 -3 414 0zM1206 1526l-18 -23q-61 21 -147 69.5t-142 94.5q-53 -45 -138.5 -94t-142.5 -68l-18 21q32 78 99 158t137 141h137q61 -49 127.5 -131.5
t105.5 -167.5z" />
    <glyph glyph-name="Atilde" unicode="&#xc3;" horiz-adv-x="1810" 
d="M1073 383l-16 49q-210 6 -498 2l-18 -55q-32 -97 -11 -145t103 -48h78q0 -14 -1 -95t-1 -95q-209 4 -326 4l-326 -4v190h54q87 0 133 40.5t86 140.5q19 47 187.5 496.5t209.5 561.5q116 -6 182 -6l183 6q58 -165 203.5 -538t207.5 -522q43 -102 84.5 -140.5t102.5 -38.5
h63v-190q-268 4 -420 4l-422 -4v190h82q75 0 93 50t-13 147zM1014 555q-92 262 -209 565q-137 -366 -205 -565q212 -3 414 0zM1149 1796l51 14q49 -137 -12 -214.5t-174 -77.5q-70 0 -117.5 29.5t-85.5 90.5q-32 47 -52 64.5t-50 17.5q-41 0 -57.5 -37.5t5.5 -128.5l-53 -16
q-34 100 -12 165.5t75 97.5t126 32q62 0 109 -28t91 -93q29 -44 52 -63t51 -19q43 0 58.5 38.5t-5.5 127.5z" />
    <glyph glyph-name="Adieresis" unicode="&#xc4;" horiz-adv-x="1810" 
d="M1073 383l-16 49q-210 6 -498 2l-18 -55q-32 -97 -11 -145t103 -48h78q0 -14 -1 -95t-1 -95q-209 4 -326 4l-326 -4v190h54q87 0 133 40.5t86 140.5q19 47 187.5 496.5t209.5 561.5q116 -6 182 -6l183 6q58 -165 203.5 -538t207.5 -522q43 -102 84.5 -140.5t102.5 -38.5
h63v-190q-268 4 -420 4l-422 -4v190h82q75 0 93 50t-13 147zM1014 555q-92 262 -209 565q-137 -366 -205 -565q212 -3 414 0zM848 1663q0 -55 -33 -87t-88 -32q-52 0 -85.5 32.5t-33.5 86.5q0 53 33.5 86t85.5 33q54 0 87.5 -32.5t33.5 -86.5zM1200 1663q0 -55 -34 -87
t-87 -32q-52 0 -85 32t-33 87q0 53 33 86t85 33q53 0 87 -33t34 -86z" />
    <glyph glyph-name="Aring" unicode="&#xc5;" horiz-adv-x="1810" 
d="M1073 383l-16 49q-210 6 -498 2l-18 -55q-32 -97 -11 -145t103 -48h78q0 -14 -1 -95t-1 -95q-209 4 -326 4l-326 -4v190h54q87 0 133 40.5t86 140.5q19 47 187.5 496.5t209.5 561.5q116 -6 182 -6l183 6q58 -165 203.5 -538t207.5 -522q43 -102 84.5 -140.5t102.5 -38.5
h63v-190q-268 4 -420 4l-422 -4v190h82q75 0 93 50t-13 147zM1014 555q-92 262 -209 565q-137 -366 -205 -565q212 -3 414 0zM1001 1710q0 47 -25.5 72.5t-68.5 25.5q-45 0 -70.5 -25.5t-25.5 -72.5q0 -50 25.5 -77t70.5 -27q44 0 69 27t25 77zM1090 1710q0 -85 -49 -134.5
t-134 -49.5t-134.5 49.5t-49.5 134.5q0 83 48.5 131.5t133.5 48.5t135 -48.5t50 -131.5z" />
    <glyph glyph-name="AE" unicode="&#xc6;" horiz-adv-x="2232" 
d="M686 561q209 0 305 2q4 380 -6 529q-144 -236 -299 -531zM1419 651h-63q0 -289 4 -342q4 -68 34 -95.5t87 -27.5h215q153 0 215.5 79t62.5 272v20q25 -1 100.5 -1t100.5 1q-21 -228 -21 -567q-96 8 -417 8q-512 2 -578 2q-287 0 -377 -4q2 22 2 95t-2 95h80q66 0 92 32
t33 99q4 46 4 127q-188 3 -366 0l-31 -65q-45 -88 -33.5 -140.5t92.5 -52.5h60q-2 -29 -2 -190q-211 4 -328 4l-326 -4q2 42 2 89.5t-1 74.5l-1 26h54q86 0 140.5 40.5t117.5 140.5q245 382 438 729q34 58 15 98.5t-87 40.5h-41q2 40 2 86t-1 72l-1 26q137 -10 488 -10
q24 0 187.5 1t330.5 1q371 0 467 12q-17 -252 -13 -530q-23 1 -93 1t-93 -1v14q0 97 -16.5 160t-53.5 96.5t-84 46.5t-118 13h-219q-111 0 -117 -115q-4 -59 -4 -334h67q108 0 152.5 45.5t44.5 153.5v53q33 -2 71 -2t59 1l22 1q-1 -42 -4 -95t-5 -102.5t-2 -115.5
q0 -129 11 -320q-76 4 -148 0v47q-2 114 -45.5 162.5t-159.5 48.5z" />
    <glyph glyph-name="Ccedilla" unicode="&#xc7;" horiz-adv-x="1495" 
d="M641 -227l-25 47q112 54 136 143q-161 4 -282 46t-210 129t-134.5 230t-45.5 341q0 188 51 332.5t144.5 233.5t217.5 134t275 45q203 0 360 -90q69 -40 94.5 -28.5t32.5 89.5q19 -1 84 -1t84 1q-13 -80 -25 -253t-9 -279q-125 8 -246 0q-9 85 -27 145.5t-52.5 112t-93 77
t-141.5 25.5q-116 0 -185.5 -50.5t-104.5 -170t-35 -323.5q0 -134 16 -232.5t43 -158.5t68.5 -96t86 -49t101.5 -13q157 0 244 101.5t92 289.5q43 -3 132.5 -3t133.5 3q-4 -152 -37.5 -258.5t-105 -180t-184.5 -109.5t-275 -40q-6 -59 -55 -108q92 8 159.5 -34t67.5 -128
q0 -91 -65.5 -143t-180.5 -52q-83 0 -140.5 35.5t-86.5 85.5l47 41q59 -72 135 -72q56 0 84.5 29t28.5 78q0 59 -50.5 82t-121.5 -4z" />
    <glyph glyph-name="Egrave" unicode="&#xc8;" horiz-adv-x="1501" 
d="M887 973v53q33 -2 70.5 -2t58.5 1l22 1q-1 -40 -4 -94.5t-4.5 -103t-1.5 -115.5q0 -147 10 -320q-75 4 -147 0v47q-2 114 -45.5 162.5t-159.5 48.5h-63q0 -263 6 -342q4 -68 33.5 -95.5t87.5 -27.5h215q155 0 215.5 81t60.5 290q25 -1 101.5 -1t101.5 1
q-21 -228 -21 -567q-144 10 -440 10h-539q-54 0 -147 -1t-165 -2t-75 -1v190h72q67 0 93.5 32t31.5 99q6 77 6.5 386.5t-4.5 394.5q-4 71 -31.5 100t-85.5 29h-82v186q9 0 175 -2t219 -2h518q355 0 467 14q-17 -252 -13 -532h-188q0 83 -11 141.5t-30.5 96t-54 58t-75 28.5
t-99.5 8h-220q-58 0 -85.5 -28.5t-30.5 -86.5q-6 -89 -6 -334h67q108 0 152.5 45.5t44.5 153.5zM944 1544l-16 -24q-82 21 -179 61.5t-161 81.5q-63 39 -64.5 93t46 70.5t116.5 -18.5q113 -70 258 -264z" />
    <glyph glyph-name="Eacute" unicode="&#xc9;" horiz-adv-x="1501" 
d="M887 973v53q33 -2 70.5 -2t58.5 1l22 1q-1 -40 -4 -94.5t-4.5 -103t-1.5 -115.5q0 -147 10 -320q-75 4 -147 0v47q-2 114 -45.5 162.5t-159.5 48.5h-63q0 -263 6 -342q4 -68 33.5 -95.5t87.5 -27.5h215q155 0 215.5 81t60.5 290q25 -1 101.5 -1t101.5 1
q-21 -228 -21 -567q-144 10 -440 10h-539q-54 0 -147 -1t-165 -2t-75 -1v190h72q67 0 93.5 32t31.5 99q6 77 6.5 386.5t-4.5 394.5q-4 71 -31.5 100t-85.5 29h-82v186q9 0 175 -2t219 -2h518q355 0 467 14q-17 -252 -13 -532h-188q0 83 -11 141.5t-30.5 96t-54 58t-75 28.5
t-99.5 8h-220q-58 0 -85.5 -28.5t-30.5 -86.5q-6 -89 -6 -334h67q108 0 152.5 45.5t44.5 153.5zM694 1520l-16 24q59 79 131 155t131 113q39 20 74 20.5t54.5 -18.5t26.5 -44t-9.5 -56.5t-53.5 -54.5q-140 -88 -338 -139z" />
    <glyph glyph-name="Ecircumflex" unicode="&#xca;" horiz-adv-x="1501" 
d="M887 973v53q33 -2 70.5 -2t58.5 1l22 1q-1 -40 -4 -94.5t-4.5 -103t-1.5 -115.5q0 -147 10 -320q-75 4 -147 0v47q-2 114 -45.5 162.5t-159.5 48.5h-63q0 -263 6 -342q4 -68 33.5 -95.5t87.5 -27.5h215q155 0 215.5 81t60.5 290q25 -1 101.5 -1t101.5 1
q-21 -228 -21 -567q-144 10 -440 10h-539q-54 0 -147 -1t-165 -2t-75 -1v190h72q67 0 93.5 32t31.5 99q6 77 6.5 386.5t-4.5 394.5q-4 71 -31.5 100t-85.5 29h-82v186q9 0 175 -2t219 -2h518q355 0 467 14q-17 -252 -13 -532h-188q0 83 -11 141.5t-30.5 96t-54 58t-75 28.5
t-99.5 8h-220q-58 0 -85.5 -28.5t-30.5 -86.5q-6 -89 -6 -334h67q108 0 152.5 45.5t44.5 153.5zM1096 1526l-19 -23q-61 21 -147 69.5t-142 94.5q-53 -45 -138 -94t-142 -68l-19 21q32 78 99 158t137 141h137q62 -49 128.5 -131.5t105.5 -167.5z" />
    <glyph glyph-name="Edieresis" unicode="&#xcb;" horiz-adv-x="1501" 
d="M887 973v53q33 -2 70.5 -2t58.5 1l22 1q-1 -40 -4 -94.5t-4.5 -103t-1.5 -115.5q0 -147 10 -320q-75 4 -147 0v47q-2 114 -45.5 162.5t-159.5 48.5h-63q0 -263 6 -342q4 -68 33.5 -95.5t87.5 -27.5h215q155 0 215.5 81t60.5 290q25 -1 101.5 -1t101.5 1
q-21 -228 -21 -567q-144 10 -440 10h-539q-54 0 -147 -1t-165 -2t-75 -1v190h72q67 0 93.5 32t31.5 99q6 77 6.5 386.5t-4.5 394.5q-4 71 -31.5 100t-85.5 29h-82v186q9 0 175 -2t219 -2h518q355 0 467 14q-17 -252 -13 -532h-188q0 83 -11 141.5t-30.5 96t-54 58t-75 28.5
t-99.5 8h-220q-58 0 -85.5 -28.5t-30.5 -86.5q-6 -89 -6 -334h67q108 0 152.5 45.5t44.5 153.5zM739 1663q0 -55 -33 -87t-88 -32q-52 0 -85 32t-33 87q0 53 33 86t85 33q54 0 87.5 -32.5t33.5 -86.5zM1092 1663q0 -55 -34 -87t-87 -32q-52 0 -85.5 32.5t-33.5 86.5
q0 53 33.5 86t85.5 33q53 0 87 -33t34 -86z" />
    <glyph glyph-name="Igrave" unicode="&#xcc;" horiz-adv-x="876" 
d="M61 -4q1 22 1 95t-1 95h82q63 0 85.5 22.5t25.5 78.5q4 88 4 420t-4 409q-5 61 -28.5 86t-78.5 25h-86q1 22 1 93t-1 93q244 -6 379 -6q59 0 149 1.5t157 3t71 1.5q-1 -22 -1 -93t1 -93h-86q-55 0 -78 -25t-28 -86q-6 -82 -5.5 -408.5t5.5 -420.5q3 -55 26 -78t84 -23h80
v-190q-240 4 -375 4zM569 1544l-16 -24q-82 21 -179 61.5t-161 81.5q-63 39 -64.5 93t46 70.5t116.5 -18.5q113 -70 258 -264z" />
    <glyph glyph-name="Iacute" unicode="&#xcd;" horiz-adv-x="876" 
d="M61 -4q1 22 1 95t-1 95h82q63 0 85.5 22.5t25.5 78.5q4 88 4 420t-4 409q-5 61 -28.5 86t-78.5 25h-86q1 22 1 93t-1 93q244 -6 379 -6q59 0 149 1.5t157 3t71 1.5q-1 -22 -1 -93t1 -93h-86q-55 0 -78 -25t-28 -86q-6 -82 -5.5 -408.5t5.5 -420.5q3 -55 26 -78t84 -23h80
v-190q-240 4 -375 4zM360 1520l-16 24q59 79 131 155t131 113q39 20 74 20.5t54.5 -18.5t26.5 -44t-9.5 -56.5t-53.5 -54.5q-140 -88 -338 -139z" />
    <glyph glyph-name="Icircumflex" unicode="&#xce;" horiz-adv-x="876" 
d="M61 -4q1 22 1 95t-1 95h82q63 0 85.5 22.5t25.5 78.5q4 88 4 420t-4 409q-5 61 -28.5 86t-78.5 25h-86q1 22 1 93t-1 93q244 -6 379 -6q59 0 149 1.5t157 3t71 1.5q-1 -22 -1 -93t1 -93h-86q-55 0 -78 -25t-28 -86q-6 -82 -5.5 -408.5t5.5 -420.5q3 -55 26 -78t84 -23h80
v-190q-240 4 -375 4zM741 1526l-18 -23q-61 21 -147 69.5t-142 94.5q-53 -45 -138 -94t-142 -68l-19 21q32 78 99 158t137 141h137q61 -49 127.5 -131.5t105.5 -167.5z" />
    <glyph glyph-name="Idieresis" unicode="&#xcf;" horiz-adv-x="876" 
d="M61 -4q1 22 1 95t-1 95h82q63 0 85.5 22.5t25.5 78.5q4 88 4 420t-4 409q-5 61 -28.5 86t-78.5 25h-86q1 22 1 93t-1 93q244 -6 379 -6q59 0 149 1.5t157 3t71 1.5q-1 -22 -1 -93t1 -93h-86q-55 0 -78 -25t-28 -86q-6 -82 -5.5 -408.5t5.5 -420.5q3 -55 26 -78t84 -23h80
v-190q-240 4 -375 4zM381 1663q0 -55 -33 -87t-88 -32q-52 0 -85.5 32.5t-33.5 86.5q0 53 33.5 86t85.5 33q54 0 87.5 -32.5t33.5 -86.5zM733 1663q0 -55 -34 -87t-87 -32q-52 0 -85 32t-33 87q0 53 33 86t85 33q53 0 87 -33t34 -86z" />
    <glyph glyph-name="Eth" unicode="&#xd0;" horiz-adv-x="1619" 
d="M842 1411q366 0 530.5 -166.5t169.5 -527.5q2 -156 -31.5 -278.5t-94 -204.5t-149 -135.5t-191.5 -77t-226 -23.5q-268 2 -399 2l-394 -4v190h72q71 0 96.5 22.5t28.5 88.5q4 106 4 336q-33 0 -81.5 -1t-59.5 -1q3 12 3.5 87t-1.5 89q58 -4 139 -4q0 217 -4 307
q-4 63 -30.5 90t-82.5 27h-84v186q4 0 162 -2t236 -2q73 0 226 1t161 1zM625 276q1 -43 25 -66.5t63 -23.5h67q101 0 167 23t114.5 82.5t70 163.5t21.5 264q0 148 -20.5 245.5t-66.5 156.5t-114 83.5t-170 24.5h-69q-84 0 -88 -80q-7 -107 -7 -346q129 0 211 4
q-1 -19 -1 -88t1 -88q-16 0 -88 1t-123 1q4 -311 7 -357z" />
    <glyph glyph-name="Ntilde" unicode="&#xd1;" horiz-adv-x="1699" 
d="M643 1413q94 -148 273 -414.5t315 -461.5q2 118 1.5 302t-3.5 257q-3 72 -33 101.5t-88 29.5h-107q1 22 1 93t-1 93q5 0 62 -1.5t133 -3t127 -1.5l322 6q-1 -22 -1 -93t1 -93h-91q-57 0 -86.5 -30t-33.5 -101q-4 -88 -4 -484.5t4 -611.5q-151 8 -301 0q-273 426 -662 995
q-4 -496 4 -690q3 -62 32 -90.5t97 -28.5h103q-4 -98 0 -190q-207 4 -324 4l-326 -4q2 42 2 89.5t-1 74.5l-1 26h82q68 0 98 29t33 90q5 100 5.5 409t-5.5 392q-9 121 -123 121h-88q3 40 3 86.5t-2 72.5l-1 27q290 -8 584 0zM1071 1796l51 14q49 -137 -12 -214.5t-174 -77.5
q-70 0 -117.5 29.5t-85.5 90.5q-32 47 -52 64.5t-50 17.5q-41 0 -57 -37.5t6 -128.5l-54 -16q-34 100 -12 165.5t75 97.5t126 32q62 0 109 -28t91 -93q29 -44 52 -63t51 -19q43 0 58.5 38.5t-5.5 127.5z" />
    <glyph glyph-name="Ograve" unicode="&#xd2;" horiz-adv-x="1601" 
d="M801 152q170 0 237.5 129t67.5 428q0 307 -67 430t-238 123q-162 0 -232.5 -129.5t-70.5 -425.5q0 -310 64.5 -432.5t238.5 -122.5zM801 -37q-721 0 -721 744q0 185 52 327.5t147.5 233t227 136.5t294.5 46q361 0 541 -182.5t180 -558.5q0 -188 -54 -332.5t-151.5 -234
t-227.5 -134.5t-288 -45zM932 1544l-17 -24q-82 21 -179 61.5t-161 81.5q-63 39 -64.5 93t46.5 70.5t117 -18.5q113 -70 258 -264z" />
    <glyph glyph-name="Oacute" unicode="&#xd3;" horiz-adv-x="1601" 
d="M723 1520l-16 24q59 79 131 155t131 113q39 20 74 20.5t54.5 -18.5t26.5 -44t-9.5 -56.5t-53.5 -54.5q-140 -88 -338 -139zM801 152q170 0 237.5 129t67.5 428q0 307 -67 430t-238 123q-162 0 -232.5 -129.5t-70.5 -425.5q0 -310 64.5 -432.5t238.5 -122.5zM801 -37
q-721 0 -721 744q0 185 52 327.5t147.5 233t227 136.5t294.5 46q361 0 541 -182.5t180 -558.5q0 -188 -54 -332.5t-151.5 -234t-227.5 -134.5t-288 -45z" />
    <glyph glyph-name="Ocircumflex" unicode="&#xd4;" horiz-adv-x="1601" 
d="M1104 1526l-19 -23q-61 21 -146.5 69t-141.5 95q-53 -45 -138.5 -94t-142.5 -68l-18 21q32 78 99 158.5t136 140.5h137q62 -49 128.5 -131.5t105.5 -167.5zM801 152q170 0 237.5 129t67.5 428q0 307 -67 430t-238 123q-162 0 -232.5 -129.5t-70.5 -425.5
q0 -310 64.5 -432.5t238.5 -122.5zM801 -37q-721 0 -721 744q0 185 52 327.5t147.5 233t227 136.5t294.5 46q361 0 541 -182.5t180 -558.5q0 -188 -54 -332.5t-151.5 -234t-227.5 -134.5t-288 -45z" />
    <glyph glyph-name="Otilde" unicode="&#xd5;" horiz-adv-x="1601" 
d="M801 152q170 0 237.5 129t67.5 428q0 307 -67 430t-238 123q-162 0 -232.5 -129.5t-70.5 -425.5q0 -310 64.5 -432.5t238.5 -122.5zM801 -37q-721 0 -721 744q0 185 52 327.5t147.5 233t227 136.5t294.5 46q361 0 541 -182.5t180 -558.5q0 -188 -54 -332.5t-151.5 -234
t-227.5 -134.5t-288 -45zM1044 1796l52 14q35 -97 13 -162t-75 -97.5t-125 -32.5q-69 0 -116.5 29.5t-85.5 90.5q-32 47 -52.5 64.5t-50.5 17.5q-41 0 -57 -37.5t6 -128.5l-53 -16q-24 75 -19 130.5t35 92t74 54.5t98 18q63 0 110 -28t91 -93q30 -44 52 -63t50 -19
q43 0 58.5 38.5t-5.5 127.5z" />
    <glyph glyph-name="Odieresis" unicode="&#xd6;" horiz-adv-x="1601" 
d="M756 1663q0 -55 -33 -87t-88 -32q-52 0 -85.5 32.5t-33.5 86.5q0 53 33.5 86t85.5 33q54 0 87.5 -32.5t33.5 -86.5zM1108 1663q0 -55 -34 -87t-87 -32q-52 0 -85.5 32.5t-33.5 86.5q0 53 33.5 86t85.5 33q53 0 87 -33t34 -86zM801 152q170 0 237.5 129t67.5 428
q0 307 -67 430t-238 123q-162 0 -232.5 -129.5t-70.5 -425.5q0 -310 64.5 -432.5t238.5 -122.5zM801 -37q-721 0 -721 744q0 185 52 327.5t147.5 233t227 136.5t294.5 46q361 0 541 -182.5t180 -558.5q0 -188 -54 -332.5t-151.5 -234t-227.5 -134.5t-288 -45z" />
    <glyph glyph-name="multiply" unicode="&#xd7;" 
d="M997 246l-118 -119q-47 47 -132 141t-135 160q-95 -126 -262 -299l-121 121q49 49 140.5 130t158.5 132q-67 51 -158 131.5t-141 130.5l121 119q51 -51 131.5 -141t130.5 -156q50 66 130.5 155.5t134.5 143.5l118 -119q-53 -53 -144 -134.5t-157 -131.5q69 -52 303 -264z
" />
    <glyph glyph-name="Oslash" unicode="&#xd8;" horiz-adv-x="1601" 
d="M801 -37q-279 0 -451 111l-160 -160l-49 39l129 184q-190 187 -190 570q0 185 52 327.5t147.5 233t227 136.5t294.5 46q286 0 456 -115l170 172l46 -34l-136 -201q185 -182 185 -563q0 -188 -54 -332.5t-151.5 -234t-227.5 -134.5t-288 -45zM498 707q0 -187 18 -285
l277 319l268 346q-33 91 -96 133t-164 42q-162 0 -232.5 -129.5t-70.5 -425.5zM801 152q170 0 237.5 129t67.5 428q0 155 -19 272l-256 -291l-288 -373q32 -87 94 -126t164 -39z" />
    <glyph glyph-name="Ugrave" unicode="&#xd9;" horiz-adv-x="1689" 
d="M229 549q0 17 1.5 139.5t2 215t-1.5 194.5q-3 70 -28.5 99.5t-83.5 29.5h-62v186q242 -6 377 -6q80 0 230.5 3t154.5 3v-186h-78q-62 0 -93 -29.5t-32 -99.5q-2 -106 -2 -299.5t2 -245.5q3 -203 74.5 -289t222.5 -86t222.5 84.5t74.5 290.5q5 396 0 545q-3 129 -118 129
h-76v186q192 -6 305 -6q67 0 186 3t125 3v-186h-63q-110 0 -113 -129q-3 -88 -3 -184t1.5 -203t1.5 -158q0 -308 -150 -454t-442 -146q-328 0 -481.5 142.5t-153.5 453.5zM983 1544l-16 -24q-82 21 -179 61.5t-161 81.5q-63 39 -64.5 93t46 70.5t116.5 -18.5
q113 -70 258 -264z" />
    <glyph glyph-name="Uacute" unicode="&#xda;" horiz-adv-x="1689" 
d="M868 1520l-16 24q59 79 131 155t131 113q39 20 74 20.5t54.5 -18.5t26.5 -44t-9.5 -56.5t-53.5 -54.5q-140 -88 -338 -139zM229 549q0 17 1.5 139.5t2 215t-1.5 194.5q-3 70 -28.5 99.5t-83.5 29.5h-62v186q242 -6 377 -6q80 0 230.5 3t154.5 3v-186h-78q-62 0 -93 -29.5
t-32 -99.5q-2 -106 -2 -299.5t2 -245.5q3 -203 74.5 -289t222.5 -86t222.5 84.5t74.5 290.5q5 396 0 545q-3 129 -118 129h-76v186q192 -6 305 -6q67 0 186 3t125 3v-186h-63q-110 0 -113 -129q-3 -88 -3 -184t1.5 -203t1.5 -158q0 -308 -150 -454t-442 -146
q-328 0 -481.5 142.5t-153.5 453.5z" />
    <glyph glyph-name="Ucircumflex" unicode="&#xdb;" horiz-adv-x="1689" 
d="M1219 1526l-19 -23q-61 21 -147 69.5t-142 94.5q-53 -45 -138 -94t-142 -68l-19 21q32 78 99 158t137 141h137q62 -49 128.5 -131.5t105.5 -167.5zM229 549q0 17 1.5 139.5t2 215t-1.5 194.5q-3 70 -28.5 99.5t-83.5 29.5h-62v186q242 -6 377 -6q80 0 230.5 3t154.5 3
v-186h-78q-62 0 -93 -29.5t-32 -99.5q-2 -106 -2 -299.5t2 -245.5q3 -203 74.5 -289t222.5 -86t222.5 84.5t74.5 290.5q5 396 0 545q-3 129 -118 129h-76v186q192 -6 305 -6q67 0 186 3t125 3v-186h-63q-110 0 -113 -129q-3 -88 -3 -184t1.5 -203t1.5 -158q0 -308 -150 -454
t-442 -146q-328 0 -481.5 142.5t-153.5 453.5z" />
    <glyph glyph-name="Udieresis" unicode="&#xdc;" horiz-adv-x="1689" 
d="M858 1663q0 -55 -33 -87t-88 -32q-52 0 -85.5 32.5t-33.5 86.5q0 53 33.5 86t85.5 33q54 0 87.5 -32.5t33.5 -86.5zM1210 1663q0 -55 -33.5 -87t-86.5 -32q-52 0 -85.5 32.5t-33.5 86.5q0 53 33.5 86t85.5 33q53 0 86.5 -32.5t33.5 -86.5zM229 549q0 17 1.5 139.5t2 215
t-1.5 194.5q-3 70 -28.5 99.5t-83.5 29.5h-62v186q242 -6 377 -6q80 0 230.5 3t154.5 3v-186h-78q-62 0 -93 -29.5t-32 -99.5q-2 -106 -2 -299.5t2 -245.5q3 -203 74.5 -289t222.5 -86t222.5 84.5t74.5 290.5q5 396 0 545q-3 129 -118 129h-76v186q192 -6 305 -6q67 0 186 3
t125 3v-186h-63q-110 0 -113 -129q-3 -88 -3 -184t1.5 -203t1.5 -158q0 -308 -150 -454t-442 -146q-328 0 -481.5 142.5t-153.5 453.5z" />
    <glyph glyph-name="Yacute" unicode="&#xdd;" horiz-adv-x="1716" 
d="M1352 1075q-65 -110 -310 -588v-188q0 -63 23.5 -88t97.5 -25h101q-4 -94 0 -190q-272 4 -426 4l-428 -4q2 22 2 95t-2 95h104q73 0 93 25t20 88v186q-221 441 -320 613q-39 69 -93.5 99t-143.5 30h-33q2 41 2 87.5t-1 72.5l-1 26q278 -6 436 -6l434 6q-4 -94 0 -186h-69
q-72 0 -91 -43.5t17 -128.5q75 -176 205 -385q116 218 188 385q17 38 24 67.5t2.5 54t-27 37.5t-62.5 13h-56q2 42 2 88.5t-1 72.5l-1 25q207 -6 324 -6l319 6q-4 -90 0 -186h-43q-66 0 -111.5 -9t-77.5 -30.5t-52 -45.5t-45 -67zM940 1520l-16 24q59 79 131 155t131 113
q39 20 74 20.5t54.5 -18.5t26.5 -44t-9.5 -56.5t-53.5 -54.5q-140 -88 -338 -139z" />
    <glyph glyph-name="Thorn" unicode="&#xde;" horiz-adv-x="1439" 
d="M53 -4q1 22 1 95t-1 95h82q63 0 85.5 22.5t25.5 78.5q4 88 4 420t-4 409q-5 61 -28.5 86t-78.5 25h-86q1 22 1 93t-1 93q244 -6 379 -6q59 0 149 1.5t157 3t71 1.5q-1 -22 -1 -93t1 -93h-86q-55 0 -78.5 -26t-28.5 -89q96 14 187 14q155 0 265.5 -28t176.5 -83.5
t96.5 -131t30.5 -176.5q0 -100 -33.5 -173.5t-107 -126.5t-195.5 -79.5t-293 -26.5q-55 0 -129 4q1 -68 26.5 -93.5t86.5 -25.5h80v-190q-240 4 -375 4zM678 958q-45 0 -68 -2q-2 -169 2 -499h68q152 0 214 58t60 192q0 133 -59.5 192t-216.5 59z" />
    <glyph glyph-name="germandbls" unicode="&#xdf;" horiz-adv-x="1339" 
d="M51 958l113 -4q-4 241 126.5 356t356.5 115q221 0 339 -101.5t118 -274.5q0 -127 -51.5 -207.5t-163.5 -114.5q346 -32 346 -373q0 -385 -375 -385q-350 0 -260 375l84 -4q-21 -120 3.5 -180t86.5 -60q60 0 85.5 62t25.5 209q0 162 -58.5 226t-197.5 56q1 6 1 30.5
t-0.5 53.5t-0.5 31q81 0 121.5 66t40.5 215q0 139 -39 192t-113 53q-73 0 -113.5 -61.5t-40.5 -216.5q0 -51 -0.5 -225.5t-0.5 -316t1 -210.5q0 -14 1 -70t0 -97t-5 -97q-153 6 -198 6q-43 1 -102 -0.5t-103 -3.5t-45 -2q1 19 1 78t-1 78h49q45 0 62.5 29t19.5 79
q10 194 2 543l-115 -4v155z" />
    <glyph glyph-name="agrave" unicode="&#xe0;" horiz-adv-x="1130" 
d="M924 582v-310q0 -75 8.5 -101t32.5 -26q30 0 41.5 61.5t3.5 166.5l82 4q6 -98 -2 -169t-34 -127t-77.5 -84t-128.5 -28q-194 0 -238 156q-97 -156 -295 -156q-128 0 -201 62t-73 180q0 301 555 328v79q0 63 -8 104.5t-30.5 74t-64.5 47.5t-108 14q-37 0 -72 -6
q44 -13 68.5 -47t24.5 -80q0 -67 -43.5 -105t-120.5 -38q-74 0 -116 38.5t-42 112.5q0 80 60.5 139t154.5 87t205 28q120 0 202 -26.5t129 -80t67 -125.5t20 -173zM680 1092l-16 -25q-82 21 -179 61.5t-161 81.5q-63 39 -64.5 93.5t46 71t116.5 -18.5q113 -70 258 -264z
M598 225v244q-217 -20 -217 -193q0 -129 98 -129q86 0 119 78z" />
    <glyph glyph-name="aacute" unicode="&#xe1;" horiz-adv-x="1130" 
d="M924 582v-310q0 -75 8.5 -101t32.5 -26q30 0 41.5 61.5t3.5 166.5l82 4q6 -98 -2 -169t-34 -127t-77.5 -84t-128.5 -28q-194 0 -238 156q-97 -156 -295 -156q-128 0 -201 62t-73 180q0 301 555 328v79q0 63 -8 104.5t-30.5 74t-64.5 47.5t-108 14q-37 0 -72 -6
q44 -13 68.5 -47t24.5 -80q0 -67 -43.5 -105t-120.5 -38q-74 0 -116 38.5t-42 112.5q0 80 60.5 139t154.5 87t205 28q120 0 202 -26.5t129 -80t67 -125.5t20 -173zM467 1067l-16 25q59 79 131 155t131 113q32 18 62.5 20t51 -8.5t32 -30t11 -42.5t-17 -48t-47.5 -45
q-140 -88 -338 -139zM598 225v244q-217 -20 -217 -193q0 -129 98 -129q86 0 119 78z" />
    <glyph glyph-name="acircumflex" unicode="&#xe2;" horiz-adv-x="1130" 
d="M924 582v-310q0 -75 8.5 -101t32.5 -26q30 0 41.5 61.5t3.5 166.5l82 4q6 -98 -2 -169t-34 -127t-77.5 -84t-128.5 -28q-194 0 -238 156q-97 -156 -295 -156q-128 0 -201 62t-73 180q0 301 555 328v79q0 63 -8 104.5t-30.5 74t-64.5 47.5t-108 14q-37 0 -72 -6
q44 -13 68.5 -47t24.5 -80q0 -67 -43.5 -105t-120.5 -38q-74 0 -116 38.5t-42 112.5q0 80 60.5 139t154.5 87t205 28q120 0 202 -26.5t129 -80t67 -125.5t20 -173zM838 1083l-19 -22q-61 21 -147 69.5t-142 94.5q-53 -45 -138 -94t-142 -68l-19 20q32 78 99 158t137 141h137
q62 -49 128.5 -131.5t105.5 -167.5zM598 225v244q-217 -20 -217 -193q0 -129 98 -129q86 0 119 78z" />
    <glyph glyph-name="atilde" unicode="&#xe3;" horiz-adv-x="1130" 
d="M924 582v-310q0 -75 8.5 -101t32.5 -26q30 0 41.5 61.5t3.5 166.5l82 4q6 -98 -2 -169t-34 -127t-77.5 -84t-128.5 -28q-194 0 -238 156q-97 -156 -295 -156q-128 0 -201 62t-73 180q0 301 555 328v79q0 63 -8 104.5t-30.5 74t-64.5 47.5t-108 14q-37 0 -72 -6
q44 -13 68.5 -47t24.5 -80q0 -67 -43.5 -105t-120.5 -38q-74 0 -116 38.5t-42 112.5q0 80 60.5 139t154.5 87t205 28q120 0 202 -26.5t129 -80t67 -125.5t20 -173zM762 1343l51 15q49 -137 -12 -215t-174 -78q-69 0 -117 30t-86 91q-32 47 -52 64.5t-50 17.5
q-41 0 -57.5 -37.5t5.5 -128.5l-53 -17q-34 100 -12 165.5t75 97.5t126 32q63 0 109.5 -27.5t90.5 -92.5q29 -44 52 -63t51 -19q43 0 58.5 38t-5.5 127zM598 225v244q-217 -20 -217 -193q0 -129 98 -129q86 0 119 78z" />
    <glyph glyph-name="adieresis" unicode="&#xe4;" horiz-adv-x="1130" 
d="M924 582v-310q0 -75 8.5 -101t32.5 -26q30 0 41.5 61.5t3.5 166.5l82 4q6 -98 -2 -169t-34 -127t-77.5 -84t-128.5 -28q-194 0 -238 156q-97 -156 -295 -156q-128 0 -201 62t-73 180q0 301 555 328v79q0 63 -8 104.5t-30.5 74t-64.5 47.5t-108 14q-37 0 -72 -6
q44 -13 68.5 -47t24.5 -80q0 -67 -43.5 -105t-120.5 -38q-74 0 -116 38.5t-42 112.5q0 80 60.5 139t154.5 87t205 28q120 0 202 -26.5t129 -80t67 -125.5t20 -173zM598 225v244q-217 -20 -217 -193q0 -129 98 -129q86 0 119 78zM481 1210q0 -55 -33 -86.5t-88 -31.5
q-52 0 -85 32t-33 86q0 53 33 86t85 33q54 0 87.5 -32.5t33.5 -86.5zM834 1210q0 -54 -33.5 -86t-87.5 -32q-52 0 -85.5 32t-33.5 86q0 53 33.5 86t85.5 33q53 0 87 -33t34 -86z" />
    <glyph glyph-name="aring" unicode="&#xe5;" horiz-adv-x="1130" 
d="M924 582v-310q0 -75 8.5 -101t32.5 -26q30 0 41.5 61.5t3.5 166.5l82 4q6 -98 -2 -169t-34 -127t-77.5 -84t-128.5 -28q-194 0 -238 156q-97 -156 -295 -156q-128 0 -201 62t-73 180q0 301 555 328v79q0 63 -8 104.5t-30.5 74t-64.5 47.5t-108 14q-37 0 -72 -6
q44 -13 68.5 -47t24.5 -80q0 -67 -43.5 -105t-120.5 -38q-74 0 -116 38.5t-42 112.5q0 80 60.5 139t154.5 87t205 28q120 0 202 -26.5t129 -80t67 -125.5t20 -173zM705 1264q0 -85 -49 -135t-134 -50t-134.5 50t-49.5 135q0 83 48.5 131.5t133.5 48.5t135 -48.5t50 -131.5z
M598 225v244q-217 -20 -217 -193q0 -129 98 -129q86 0 119 78zM616 1264q0 47 -25.5 72.5t-68.5 25.5q-45 0 -70.5 -25.5t-25.5 -72.5q0 -50 25.5 -77.5t70.5 -27.5q43 0 68.5 27.5t25.5 77.5z" />
    <glyph glyph-name="ae" unicode="&#xe6;" horiz-adv-x="1587" 
d="M1522 307q-18 -160 -128 -251t-313 -91q-311 0 -424 191q-41 -91 -123 -139t-196 -48q-143 0 -219 63t-76 189q0 80 43.5 140t122.5 96.5t174 56t213 25.5v92q0 227 -170 227q-52 0 -107 -10q87 -27 87 -123q0 -68 -43.5 -105.5t-116.5 -37.5q-74 0 -116 39.5t-42 111.5
q0 81 60 140t153 86.5t205 27.5q195 0 295 -84q113 84 284 84q98 0 176 -27.5t130.5 -76.5t85.5 -119t45 -154t6 -182h-588q5 -159 43 -223t131 -64q86 0 128 44.5t56 136.5q2 0 101 -8t123 -7zM1073 823q-68 0 -100 -67t-33 -244h207q28 0 36.5 10.5t8.5 44.5
q0 256 -119 256zM608 281q-12 62 -12 133v55q-106 -11 -160.5 -56t-54.5 -137q0 -68 24.5 -96t71.5 -28q109 0 131 129z" />
    <glyph glyph-name="ccedilla" unicode="&#xe7;" horiz-adv-x="1021" 
d="M406 -227l-25 47q57 27 89.5 61t45.5 84q-225 6 -343 131t-118 365q0 248 132.5 387t373.5 139q179 0 285 -71.5t106 -196.5q0 -77 -46 -121.5t-130 -44.5q-79 0 -123.5 38.5t-44.5 106.5q0 93 78 131q-51 21 -100 21q-99 0 -145 -81t-46 -275q0 -197 37.5 -275
t130.5 -78q90 0 130 45t55 136q2 0 102 -8t125 -7q-15 -155 -117.5 -242t-273.5 -98q-6 -62 -56 -112q92 8 160 -34t68 -128q0 -91 -65.5 -143t-180.5 -52q-83 0 -140.5 35.5t-86.5 85.5l47 41q59 -72 135 -72q56 0 84.5 29t28.5 78q0 59 -51 82t-121 -4z" />
    <glyph glyph-name="egrave" unicode="&#xe8;" horiz-adv-x="1048" 
d="M758 317q10 -1 62 -4.5t97.5 -6t63.5 -1.5q-18 -162 -127 -253t-313 -91q-232 0 -359 126t-127 374q0 251 132.5 388.5t357.5 137.5q123 0 213.5 -40.5t142.5 -115t73.5 -175.5t12.5 -228q-36 1 -165.5 1t-278.5 -0.5t-156 -0.5q6 -158 49 -224.5t137 -66.5
q86 0 128.5 44.5t56.5 135.5zM532 823q-47 0 -76.5 -26t-48 -96t-20.5 -189h215q30 0 42.5 12t12.5 54q0 130 -30.5 187.5t-94.5 57.5zM678 1092l-16 -25q-82 21 -179 61.5t-161 81.5q-63 39 -64.5 93.5t46 71t116.5 -18.5q113 -70 258 -264z" />
    <glyph glyph-name="eacute" unicode="&#xe9;" horiz-adv-x="1048" 
d="M471 1067l-16 25q59 79 131 155t131 113q32 18 62.5 20t51 -8.5t32 -30t11 -42.5t-17 -48t-47.5 -45q-140 -88 -338 -139zM758 317q10 -1 62 -4.5t97.5 -6t63.5 -1.5q-18 -162 -127 -253t-313 -91q-232 0 -359 126t-127 374q0 251 132.5 388.5t357.5 137.5
q123 0 213.5 -40.5t142.5 -115t73.5 -175.5t12.5 -228q-36 1 -165.5 1t-278.5 -0.5t-156 -0.5q6 -158 49 -224.5t137 -66.5q86 0 128.5 44.5t56.5 135.5zM532 823q-47 0 -76.5 -26t-48 -96t-20.5 -189h215q30 0 42.5 12t12.5 54q0 130 -30.5 187.5t-94.5 57.5z" />
    <glyph glyph-name="ecircumflex" unicode="&#xea;" horiz-adv-x="1048" 
d="M856 1083l-18 -22q-61 21 -147 69.5t-142 94.5q-53 -45 -138.5 -94t-142.5 -68l-18 20q32 78 99 158.5t136 140.5h138q61 -49 127.5 -131.5t105.5 -167.5zM758 317q10 -1 62 -4.5t97.5 -6t63.5 -1.5q-18 -162 -127 -253t-313 -91q-232 0 -359 126t-127 374
q0 251 132.5 388.5t357.5 137.5q123 0 213.5 -40.5t142.5 -115t73.5 -175.5t12.5 -228q-36 1 -165.5 1t-278.5 -0.5t-156 -0.5q6 -158 49 -224.5t137 -66.5q86 0 128.5 44.5t56.5 135.5zM532 823q-47 0 -76.5 -26t-48 -96t-20.5 -189h215q30 0 42.5 12t12.5 54
q0 130 -30.5 187.5t-94.5 57.5z" />
    <glyph glyph-name="edieresis" unicode="&#xeb;" horiz-adv-x="1048" 
d="M481 1210q0 -55 -33 -86.5t-88 -31.5q-52 0 -85 32t-33 86q0 53 33 86t85 33q54 0 87.5 -32.5t33.5 -86.5zM834 1210q0 -54 -33.5 -86t-87.5 -32q-52 0 -85.5 32t-33.5 86q0 53 33.5 86t85.5 33q53 0 87 -33t34 -86zM758 317q10 -1 62 -4.5t97.5 -6t63.5 -1.5
q-18 -162 -127 -253t-313 -91q-232 0 -359 126t-127 374q0 251 132.5 388.5t357.5 137.5q123 0 213.5 -40.5t142.5 -115t73.5 -175.5t12.5 -228q-36 1 -165.5 1t-278.5 -0.5t-156 -0.5q6 -158 49 -224.5t137 -66.5q86 0 128.5 44.5t56.5 135.5zM532 823q-47 0 -76.5 -26
t-48 -96t-20.5 -189h215q30 0 42.5 12t12.5 54q0 130 -30.5 187.5t-94.5 57.5z" />
    <glyph glyph-name="igrave" unicode="&#xec;" horiz-adv-x="657" 
d="M492 965q-2 -61 -2.5 -342t2.5 -357q3 -66 25.5 -88t80.5 -22h29v-160q-13 0 -133.5 3t-161.5 3q-42 0 -170 -3t-131 -3q1 19 1 75.5t-1 84.5h30q60 0 80 21t23 87t3 221t-3 213q-3 61 -23.5 83t-81.5 22h-28q4 77 0 155q289 0 461 7zM430 1092l-16 -25q-82 21 -179 61.5
t-161 81.5q-63 39 -64.5 93.5t46 71t116.5 -18.5q113 -70 258 -264z" />
    <glyph glyph-name="iacute" unicode="&#xed;" horiz-adv-x="657" 
d="M240 1067l-17 25q59 79 131 155t131 113q32 18 62.5 20t51 -8.5t32.5 -30t11.5 -42.5t-17 -48t-47.5 -45q-140 -88 -338 -139zM492 965q-2 -61 -2.5 -342t2.5 -357q3 -66 25.5 -88t80.5 -22h29v-160q-13 0 -133.5 3t-161.5 3q-42 0 -170 -3t-131 -3q1 19 1 75.5t-1 84.5
h30q60 0 80 21t23 87t3 221t-3 213q-3 61 -23.5 83t-81.5 22h-28q4 77 0 155q289 0 461 7z" />
    <glyph glyph-name="icircumflex" unicode="&#xee;" horiz-adv-x="657" 
d="M600 1083l-18 -22q-61 21 -147 69.5t-142 94.5q-53 -45 -138.5 -94t-142.5 -68l-18 20q32 78 99 158.5t136 140.5h138q61 -49 127.5 -131.5t105.5 -167.5zM492 965q-2 -61 -2.5 -342t2.5 -357q3 -66 25.5 -88t80.5 -22h29v-160q-13 0 -133.5 3t-161.5 3q-42 0 -170 -3
t-131 -3q1 19 1 75.5t-1 84.5h30q60 0 80 21t23 87t3 221t-3 213q-3 61 -23.5 83t-81.5 22h-28q4 77 0 155q289 0 461 7z" />
    <glyph glyph-name="idieresis" unicode="&#xef;" horiz-adv-x="657" 
d="M240 1210q0 -55 -33 -86.5t-88 -31.5q-52 0 -85.5 32t-33.5 86q0 53 33.5 86t85.5 33q54 0 87.5 -32.5t33.5 -86.5zM592 1210q0 -54 -33.5 -86t-87.5 -32q-52 0 -85.5 32t-33.5 86q0 53 33.5 86t85.5 33q53 0 87 -33t34 -86zM492 965q-2 -61 -2.5 -342t2.5 -357
q3 -66 25.5 -88t80.5 -22h29v-160q-13 0 -133.5 3t-161.5 3q-42 0 -170 -3t-131 -3q1 19 1 75.5t-1 84.5h30q60 0 80 21t23 87t3 221t-3 213q-3 61 -23.5 83t-81.5 22h-28q4 77 0 155q289 0 461 7z" />
    <glyph glyph-name="eth" unicode="&#xf0;" horiz-adv-x="1095" 
d="M408 1071l-48 66l140 96q-81 58 -213 76l28 104q184 -9 320 -80q85 74 145 119l47 -66q-40 -28 -133 -88q173 -111 259.5 -310.5t86.5 -440.5q0 -153 -36 -266.5t-103 -183t-157 -103t-203 -33.5q-232 0 -359 125.5t-127 380.5q0 257 129 388.5t344 131.5q60 0 129 -16
q-34 141 -108 221zM391 467q0 -87 8 -149t21 -99t34.5 -58.5t44.5 -28.5t54 -7q50 0 81 24.5t51 102t20 215.5q0 144 -19.5 225t-51 108t-83.5 27q-39 0 -66 -15t-49.5 -53t-33.5 -111t-11 -181z" />
    <glyph glyph-name="ntilde" unicode="&#xf1;" horiz-adv-x="1292" 
d="M1126 610q0 -27 -0.5 -106.5t-0.5 -140.5t1 -87q3 -69 25 -94.5t82 -25.5h22q-1 -28 -1 -85.5t1 -76.5q-5 0 -56 1.5t-118.5 3t-113.5 1.5t-115.5 -1.5t-120.5 -3t-53 -1.5q2 19 2 76.5t-2 85.5h27q49 0 70 27t24 93q7 148 0 322q-3 106 -34.5 158.5t-105.5 52.5
q-167 0 -167 -287v-246q0 -68 22 -94t74 -26h28q-2 -28 -2 -85.5t2 -76.5q-5 0 -56.5 1.5t-119.5 3t-114 1.5t-116.5 -1.5t-123.5 -3t-55 -1.5q1 19 1 81t-1 81h30q59 0 79.5 25t23.5 95q4 73 4 215t-4 197q-3 62 -23.5 88.5t-81.5 26.5h-24v155q364 0 457 7v-207
q69 229 315 229q326 0 319 -377zM877 1343l51 15q35 -98 13 -163t-75 -97.5t-125 -32.5q-69 0 -116 30t-86 91q-32 47 -52.5 64.5t-50.5 17.5q-41 0 -57 -37.5t6 -128.5l-53 -17q-24 75 -19 130.5t35 92t74 54.5t98 18q63 0 110.5 -27.5t90.5 -92.5q30 -44 52 -63t50 -19
q43 0 59 38t-5 127z" />
    <glyph glyph-name="ograve" unicode="&#xf2;" horiz-adv-x="1112" 
d="M61 467q0 260 131.5 390t364.5 130q236 0 365 -129.5t129 -390.5q0 -253 -130 -379.5t-364 -126.5q-236 0 -366 127t-130 379zM403 467q0 -108 10 -177.5t31.5 -104.5t47.5 -47.5t65 -12.5q38 0 63.5 12.5t47.5 47.5t32.5 105t10.5 177q0 143 -20 224.5t-52 108.5t-84 27
t-83 -27t-50 -108t-19 -225zM688 1092l-16 -25q-82 21 -179 61.5t-161 81.5q-63 39 -64.5 93.5t46 71t116.5 -18.5q113 -70 258 -264z" />
    <glyph glyph-name="oacute" unicode="&#xf3;" horiz-adv-x="1112" 
d="M477 1067l-16 25q59 79 131 155t131 113q32 18 62.5 20t51 -8.5t32 -30t11 -42.5t-17 -48t-47.5 -45q-140 -88 -338 -139zM61 467q0 260 131.5 390t364.5 130q236 0 365 -129.5t129 -390.5q0 -253 -130 -379.5t-364 -126.5q-236 0 -366 127t-130 379zM403 467
q0 -108 10 -177.5t31.5 -104.5t47.5 -47.5t65 -12.5q38 0 63.5 12.5t47.5 47.5t32.5 105t10.5 177q0 143 -20 224.5t-52 108.5t-84 27t-83 -27t-50 -108t-19 -225z" />
    <glyph glyph-name="ocircumflex" unicode="&#xf4;" horiz-adv-x="1112" 
d="M868 1083l-18 -22q-61 21 -147 69.5t-142 94.5q-53 -45 -138 -94t-142 -68l-19 20q32 78 99 158t137 141h137q61 -49 127.5 -131.5t105.5 -167.5zM61 467q0 260 131.5 390t364.5 130q236 0 365 -129.5t129 -390.5q0 -253 -130 -379.5t-364 -126.5q-236 0 -366 127
t-130 379zM403 467q0 -108 10 -177.5t31.5 -104.5t47.5 -47.5t65 -12.5q38 0 63.5 12.5t47.5 47.5t32.5 105t10.5 177q0 143 -20 224.5t-52 108.5t-84 27t-83 -27t-50 -108t-19 -225z" />
    <glyph glyph-name="otilde" unicode="&#xf5;" horiz-adv-x="1112" 
d="M61 467q0 260 131.5 390t364.5 130q236 0 365 -129.5t129 -390.5q0 -253 -130 -379.5t-364 -126.5q-236 0 -366 127t-130 379zM403 467q0 -108 10 -177.5t31.5 -104.5t47.5 -47.5t65 -12.5q38 0 63.5 12.5t47.5 47.5t32.5 105t10.5 177q0 143 -20 224.5t-52 108.5t-84 27
t-83 -27t-50 -108t-19 -225zM791 1343l51 15q35 -98 13 -163t-75 -97.5t-125 -32.5q-69 0 -116 30t-86 91q-32 47 -52.5 64.5t-50.5 17.5q-41 0 -57 -37.5t6 -128.5l-53 -17q-24 75 -19 130.5t35 92t74 54.5t98 18q63 0 110.5 -27.5t90.5 -92.5q30 -44 52 -63t50 -19
q43 0 59 38t-5 127z" />
    <glyph glyph-name="odieresis" unicode="&#xf6;" horiz-adv-x="1112" 
d="M510 1210q0 -55 -33 -86.5t-88 -31.5q-52 0 -85.5 32t-33.5 86q0 53 33.5 86t85.5 33q54 0 87.5 -32.5t33.5 -86.5zM862 1210q0 -54 -33.5 -86t-87.5 -32q-52 0 -85 32t-33 86q0 53 33 86t85 33q53 0 87 -33t34 -86zM61 467q0 260 131.5 390t364.5 130q236 0 365 -129.5
t129 -390.5q0 -253 -130 -379.5t-364 -126.5q-236 0 -366 127t-130 379zM403 467q0 -108 10 -177.5t31.5 -104.5t47.5 -47.5t65 -12.5q38 0 63.5 12.5t47.5 47.5t32.5 105t10.5 177q0 143 -20 224.5t-52 108.5t-84 27t-83 -27t-50 -108t-19 -225z" />
    <glyph glyph-name="divide" unicode="&#xf7;" 
d="M748 225q0 -57 -35.5 -90t-98.5 -33q-61 0 -98 31.5t-37 93.5q0 55 39 92t96 37q63 0 98.5 -37t35.5 -94zM180 428v170q90 0 227.5 -10t206.5 -27q70 17 208 27t227 10v-170q-311 7 -435 37q-127 -31 -434 -37zM748 795q0 -57 -35.5 -90t-98.5 -33q-61 0 -98 31.5
t-37 93.5q0 55 39 92t96 37q62 0 98 -37.5t36 -93.5z" />
    <glyph glyph-name="oslash" unicode="&#xf8;" horiz-adv-x="1112" 
d="M61 467q0 260 131.5 390t364.5 130q182 0 303 -80l121 131l33 -26l-96 -150q133 -133 133 -395q0 -253 -130 -379.5t-364 -126.5q-181 0 -299 74l-119 -123l-35 29l95 139q-138 132 -138 387zM403 467q0 -90 5 -139l139 164l145 196q-18 78 -51.5 108.5t-85.5 30.5
t-83 -27t-50 -108t-19 -225zM711 467q0 81 -6 139l-130 -147l-155 -209q18 -73 50.5 -99t86.5 -26q38 0 63.5 12.5t47.5 47.5t32.5 105t10.5 177z" />
    <glyph glyph-name="ugrave" unicode="&#xf9;" horiz-adv-x="1263" 
d="M1118 965q-6 -111 -6 -312v-368q2 -66 22.5 -97.5t69.5 -31.5h29v-156q-369 0 -449 -6v196q-72 -229 -311 -229q-151 0 -239 93.5t-84 289.5q2 47 2 168t-2 158q-2 71 -21.5 102t-71.5 31h-28v158q180 -3 223 -3q150 0 231 7q-6 -115 -6 -318v-274q0 -69 13 -117t35 -72
t44 -33.5t47 -9.5q93 0 130.5 91t37.5 296v158q0 65 -28.5 91t-104.5 26h-20q1 19 1 80t-1 78q209 -3 256 -3q187 0 231 7zM682 1092l-16 -25q-82 21 -179 61.5t-161 81.5q-63 39 -64.5 93.5t46 71t116.5 -18.5q113 -70 258 -264z" />
    <glyph glyph-name="uacute" unicode="&#xfa;" horiz-adv-x="1263" 
d="M1118 965q-6 -111 -6 -312v-368q2 -66 22.5 -97.5t69.5 -31.5h29v-156q-369 0 -449 -6v196q-72 -229 -311 -229q-151 0 -239 93.5t-84 289.5q2 47 2 168t-2 158q-2 71 -21.5 102t-71.5 31h-28v158q180 -3 223 -3q150 0 231 7q-6 -115 -6 -318v-274q0 -69 13 -117t35 -72
t44 -33.5t47 -9.5q93 0 130.5 91t37.5 296v158q0 65 -28.5 91t-104.5 26h-20q1 19 1 80t-1 78q209 -3 256 -3q187 0 231 7zM571 1067l-16 25q59 79 131 155t131 113q32 18 62.5 20t51 -8.5t32 -30t11 -42.5t-17 -48t-47.5 -45q-140 -88 -338 -139z" />
    <glyph glyph-name="ucircumflex" unicode="&#xfb;" horiz-adv-x="1263" 
d="M1118 965q-6 -111 -6 -312v-368q2 -66 22.5 -97.5t69.5 -31.5h29v-156q-369 0 -449 -6v196q-72 -229 -311 -229q-151 0 -239 93.5t-84 289.5q2 47 2 168t-2 158q-2 71 -21.5 102t-71.5 31h-28v158q180 -3 223 -3q150 0 231 7q-6 -115 -6 -318v-274q0 -69 13 -117t35 -72
t44 -33.5t47 -9.5q93 0 130.5 91t37.5 296v158q0 65 -28.5 91t-104.5 26h-20q1 19 1 80t-1 78q209 -3 256 -3q187 0 231 7zM893 1083l-19 -22q-61 21 -146.5 69t-141.5 95q-53 -45 -138.5 -94t-142.5 -68l-18 20q32 78 99 158.5t136 140.5h137q62 -49 128.5 -131.5
t105.5 -167.5z" />
    <glyph glyph-name="udieresis" unicode="&#xfc;" horiz-adv-x="1263" 
d="M1118 965q-6 -111 -6 -312v-368q2 -66 22.5 -97.5t69.5 -31.5h29v-156q-369 0 -449 -6v196q-72 -229 -311 -229q-151 0 -239 93.5t-84 289.5q2 47 2 168t-2 158q-2 71 -21.5 102t-71.5 31h-28v158q180 -3 223 -3q150 0 231 7q-6 -115 -6 -318v-274q0 -69 13 -117t35 -72
t44 -33.5t47 -9.5q93 0 130.5 91t37.5 296v158q0 65 -28.5 91t-104.5 26h-20q1 19 1 80t-1 78q209 -3 256 -3q187 0 231 7zM532 1210q0 -55 -32.5 -86.5t-87.5 -31.5q-52 0 -85.5 32t-33.5 86q0 53 33.5 86t85.5 33q54 0 87 -32.5t33 -86.5zM885 1210q0 -54 -33.5 -86
t-87.5 -32q-52 0 -85.5 32t-33.5 86q0 53 33.5 86t85.5 33q53 0 87 -33t34 -86z" />
    <glyph glyph-name="yacute" unicode="&#xfd;" horiz-adv-x="1193" 
d="M805 694q14 51 -3.5 80t-62.5 29h-34q1 19 1 80t-1 78q135 -7 237 -7l221 7v-158h-37q-66 0 -100 -26t-59 -85q-119 -287 -240 -657q-78 -235 -179.5 -330.5t-258.5 -95.5q-118 0 -179 53t-61 141q0 81 48 127.5t122 46.5t114 -36t40 -103q0 -66 -55.5 -107.5
t-135.5 -29.5q41 -18 90 -18q121 0 190 84t134 294q-129 4 -197 0q-32 113 -105 319.5t-114 311.5q-25 62 -52 86.5t-81 24.5h-29q2 19 2 80t-2 78q177 -7 308 -7l307 7q-4 -80 0 -158h-31q-95 0 -67 -109q62 -217 133 -415q123 358 137 415zM657 1067l-16 25q59 79 131 155
t131 113q32 18 62.5 20t51 -8.5t32 -30t11 -42.5t-17 -48t-47.5 -45q-140 -88 -338 -139z" />
    <glyph glyph-name="thorn" unicode="&#xfe;" horiz-adv-x="1210" 
d="M788 -35q-229 0 -296 211v-258q0 -121 110 -121h31q-1 -19 -1 -78.5t1 -76.5q-8 0 -122.5 3t-178.5 3q-48 0 -118.5 -1.5t-123.5 -3t-59 -1.5q1 17 1 76.5t-1 78.5h30q54 0 77 28.5t26 92.5q6 93 5.5 613t-5.5 610q-3 64 -26 90t-81 26h-22v156q377 0 457 6v-676
q69 244 307 244q178 0 262 -120.5t84 -397.5q0 -255 -89 -379.5t-268 -124.5zM659 809q-84 0 -124 -71.5t-43 -227.5v-33q0 -82 7 -140t25 -103t50 -67t79 -22q59 0 91 27.5t47.5 99.5t15.5 205q0 71 -2.5 116t-11 90.5t-24 70t-43 40t-67.5 15.5z" />
    <glyph glyph-name="ydieresis" unicode="&#xff;" horiz-adv-x="1193" 
d="M805 694q14 51 -3.5 80t-62.5 29h-34q1 19 1 80t-1 78q135 -7 237 -7l221 7v-158h-37q-66 0 -100 -26t-59 -85q-119 -287 -240 -657q-78 -235 -179.5 -330.5t-258.5 -95.5q-118 0 -179 53t-61 141q0 81 48 127.5t122 46.5t114 -36t40 -103q0 -66 -55.5 -107.5
t-135.5 -29.5q41 -18 90 -18q121 0 190 84t134 294q-129 4 -197 0q-32 113 -105 319.5t-114 311.5q-25 62 -52 86.5t-81 24.5h-29q2 19 2 80t-2 78q177 -7 308 -7l307 7q-4 -80 0 -158h-31q-95 0 -67 -109q62 -217 133 -415q123 358 137 415zM621 1210q0 -55 -33 -86.5
t-88 -31.5q-52 0 -85.5 32t-33.5 86q0 53 33.5 86t85.5 33q54 0 87.5 -32.5t33.5 -86.5zM973 1210q0 -54 -33.5 -86t-87.5 -32q-52 0 -85.5 32t-33.5 86q0 53 33.5 86t85.5 33q53 0 87 -33t34 -86z" />
    <glyph glyph-name="Amacron" unicode="&#x100;" horiz-adv-x="1810" 
d="M1073 383l-16 49q-210 6 -498 2l-18 -55q-32 -97 -11 -145t103 -48h78q0 -14 -1 -95t-1 -95q-209 4 -326 4l-326 -4v190h54q87 0 133 40.5t86 140.5q19 47 187.5 496.5t209.5 561.5q116 -6 182 -6l183 6q58 -165 203.5 -538t207.5 -522q43 -102 84.5 -140.5t102.5 -38.5
h63v-190q-268 4 -420 4l-422 -4v190h82q75 0 93 50t-13 147zM1014 555q-92 262 -209 565q-137 -366 -205 -565q212 -3 414 0zM635 1554q4 81 0 166q94 -3 280.5 -3t280.5 3q-4 -83 0 -166q-94 3 -280.5 3t-280.5 -3z" />
    <glyph glyph-name="amacron" unicode="&#x101;" horiz-adv-x="1130" 
d="M924 582v-310q0 -75 8.5 -101t32.5 -26q30 0 41.5 61.5t3.5 166.5l82 4q6 -98 -2 -169t-34 -127t-77.5 -84t-128.5 -28q-194 0 -238 156q-97 -156 -295 -156q-128 0 -201 62t-73 180q0 301 555 328v79q0 63 -8 104.5t-30.5 74t-64.5 47.5t-108 14q-37 0 -72 -6
q44 -13 68.5 -47t24.5 -80q0 -67 -43.5 -105t-120.5 -38q-74 0 -116 38.5t-42 112.5q0 80 60.5 139t154.5 87t205 28q120 0 202 -26.5t129 -80t67 -125.5t20 -173zM229 1106q4 81 0 166q94 -3 281 -3t281 3q-4 -83 0 -166q-94 3 -281 3t-281 -3zM598 225v244
q-217 -20 -217 -193q0 -129 98 -129q86 0 119 78z" />
    <glyph glyph-name="Abreve" unicode="&#x102;" horiz-adv-x="1810" 
d="M1073 383l-16 49q-210 6 -498 2l-18 -55q-32 -97 -11 -145t103 -48h78q0 -14 -1 -95t-1 -95q-209 4 -326 4l-326 -4v190h54q87 0 133 40.5t86 140.5q19 47 187.5 496.5t209.5 561.5q116 -6 182 -6l183 6q58 -165 203.5 -538t207.5 -522q43 -102 84.5 -140.5t102.5 -38.5
h63v-190q-268 4 -420 4l-422 -4v190h82q75 0 93 50t-13 147zM1014 555q-92 262 -209 565q-137 -366 -205 -565q212 -3 414 0zM905 1528q-150 0 -224 84.5t-56 212.5l47 2q6 -71 65 -100t168 -29t168.5 29t65.5 100l47 -2q18 -128 -56 -212.5t-225 -84.5z" />
    <glyph glyph-name="abreve" unicode="&#x103;" horiz-adv-x="1130" 
d="M924 582v-310q0 -75 8.5 -101t32.5 -26q30 0 41.5 61.5t3.5 166.5l82 4q6 -98 -2 -169t-34 -127t-77.5 -84t-128.5 -28q-194 0 -238 156q-97 -156 -295 -156q-128 0 -201 62t-73 180q0 301 555 328v79q0 63 -8 104.5t-30.5 74t-64.5 47.5t-108 14q-37 0 -72 -6
q44 -13 68.5 -47t24.5 -80q0 -67 -43.5 -105t-120.5 -38q-74 0 -116 38.5t-42 112.5q0 80 60.5 139t154.5 87t205 28q120 0 202 -26.5t129 -80t67 -125.5t20 -173zM516 1085q-150 0 -224 84.5t-56 212.5l47 2q6 -71 65 -100t168 -29t168.5 29t65.5 100l47 -2
q18 -128 -56 -212.5t-225 -84.5zM598 225v244q-217 -20 -217 -193q0 -129 98 -129q86 0 119 78z" />
    <glyph glyph-name="Aogonek" unicode="&#x104;" horiz-adv-x="1810" 
d="M1612 -145q3 -277 -246 -277q-105 0 -166 50t-61 139q3 156 174 233l-402 -4v190h82q75 0 93 50t-13 147l-16 49q-210 6 -498 2l-18 -55q-32 -97 -11 -145t103 -48h78q0 -14 -1 -95t-1 -95q-209 4 -326 4l-326 -4v190h54q87 0 133 40.5t86 140.5q19 47 187.5 496.5
t209.5 561.5q116 -6 182 -6l183 6q58 -165 203.5 -538t207.5 -522q43 -102 84.5 -140.5t102.5 -38.5h63v-190q-184 4 -334 4q-114 -51 -114 -158q0 -54 31 -80t79 -26q116 0 133 129zM1014 555q-92 262 -209 565q-137 -366 -205 -565q212 -3 414 0z" />
    <glyph glyph-name="aogonek" unicode="&#x105;" horiz-adv-x="1130" 
d="M850 -31q-194 0 -238 156q-97 -156 -295 -156q-128 0 -201 62t-73 180q0 301 555 328v79q0 63 -8 104.5t-30.5 74t-64.5 47.5t-108 14q-37 0 -72 -6q44 -13 68.5 -47t24.5 -80q0 -67 -43.5 -105t-120.5 -38q-74 0 -116 38.5t-42 112.5q0 80 60.5 139t154.5 87t205 28
q120 0 202 -26.5t129 -80t67 -125.5t20 -173v-310q0 -75 8.5 -101t32.5 -26q30 0 41.5 61.5t3.5 166.5l82 4q9 -130 -7 -211.5t-67 -142.5q-55 -66 -76.5 -104t-21.5 -83q0 -48 29.5 -74t76.5 -26q57 0 90.5 31t48.5 98l66 -10q-2 -62 -14.5 -109.5t-41 -87t-80 -60
t-124.5 -20.5q-96 0 -157 51t-58 142q6 130 135 200q-10 -2 -41 -2zM598 225v244q-217 -20 -217 -193q0 -129 98 -129q86 0 119 78z" />
    <glyph glyph-name="Cacute" unicode="&#x106;" horiz-adv-x="1495" 
d="M745 1520l-16 24q59 79 131 155t131 113q39 20 74 20.5t54.5 -18.5t26.5 -44t-9.5 -56.5t-53.5 -54.5q-140 -88 -338 -139zM1128 1364q69 -40 94.5 -28.5t32.5 89.5q19 -1 84 -1t84 1q-13 -80 -25 -253t-9 -279q-125 8 -246 0q-9 85 -27 145.5t-52.5 112t-93 77
t-141.5 25.5q-116 0 -185.5 -50.5t-104.5 -170t-35 -323.5q0 -134 16 -232.5t43 -158.5t68.5 -96t86 -49t101.5 -13q157 0 244 101.5t92 289.5q43 -3 132.5 -3t133.5 3q-5 -208 -68 -335t-201.5 -190t-367.5 -63q-168 0 -294.5 40t-220 126.5t-141.5 232t-48 347.5
q0 188 51 332.5t144.5 233.5t217.5 134t275 45q203 0 360 -90z" />
    <glyph glyph-name="cacute" unicode="&#x107;" horiz-adv-x="1021" 
d="M518 1067l-16 25q59 79 131 155t131 113q32 18 62.5 20t51 -8.5t32 -30t11 -42.5t-17 -48t-47.5 -45q-140 -88 -338 -139zM748 322q2 0 102 -8t125 -7q-15 -165 -130 -253.5t-306 -88.5q-235 0 -359.5 125.5t-124.5 370.5q0 248 132.5 387t373.5 139q179 0 285 -71.5
t106 -196.5q0 -77 -46 -121.5t-130 -44.5q-79 0 -123.5 38.5t-44.5 106.5q0 93 78 131q-51 21 -100 21q-99 0 -145 -81t-46 -275q0 -197 37.5 -275t130.5 -78q90 0 130 45t55 136z" />
    <glyph glyph-name="Ccircumflex" unicode="&#x108;" horiz-adv-x="1495" 
d="M1077 1526l-18 -23q-61 21 -147 69.5t-142 94.5q-53 -45 -138.5 -94t-142.5 -68l-18 21q32 78 99 158t137 141h137q61 -49 127.5 -131.5t105.5 -167.5zM1128 1364q69 -40 94.5 -28.5t32.5 89.5q19 -1 84 -1t84 1q-13 -80 -25 -253t-9 -279q-125 8 -246 0q-9 85 -27 145.5
t-52.5 112t-93 77t-141.5 25.5q-116 0 -185.5 -50.5t-104.5 -170t-35 -323.5q0 -134 16 -232.5t43 -158.5t68.5 -96t86 -49t101.5 -13q157 0 244 101.5t92 289.5q43 -3 132.5 -3t133.5 3q-5 -208 -68 -335t-201.5 -190t-367.5 -63q-168 0 -294.5 40t-220 126.5t-141.5 232
t-48 347.5q0 188 51 332.5t144.5 233.5t217.5 134t275 45q203 0 360 -90z" />
    <glyph glyph-name="ccircumflex" unicode="&#x109;" horiz-adv-x="1021" 
d="M860 1083l-18 -22q-61 21 -147 69.5t-142 94.5q-53 -45 -138.5 -94t-142.5 -68l-18 20q32 78 99 158.5t136 140.5h138q61 -49 127.5 -131.5t105.5 -167.5zM748 322q2 0 102 -8t125 -7q-15 -165 -130 -253.5t-306 -88.5q-235 0 -359.5 125.5t-124.5 370.5q0 248 132.5 387
t373.5 139q179 0 285 -71.5t106 -196.5q0 -77 -46 -121.5t-130 -44.5q-79 0 -123.5 38.5t-44.5 106.5q0 93 78 131q-51 21 -100 21q-99 0 -145 -81t-46 -275q0 -197 37.5 -275t130.5 -78q90 0 130 45t55 136z" />
    <glyph glyph-name="Cdotaccent" unicode="&#x10a;" horiz-adv-x="1495" 
d="M1128 1364q69 -40 94.5 -28.5t32.5 89.5q19 -1 84 -1t84 1q-13 -80 -25 -253t-9 -279q-125 8 -246 0q-9 85 -27 145.5t-52.5 112t-93 77t-141.5 25.5q-116 0 -185.5 -50.5t-104.5 -170t-35 -323.5q0 -134 16 -232.5t43 -158.5t68.5 -96t86 -49t101.5 -13q157 0 244 101.5
t92 289.5q43 -3 132.5 -3t133.5 3q-5 -208 -68 -335t-201.5 -190t-367.5 -63q-168 0 -294.5 40t-220 126.5t-141.5 232t-48 347.5q0 188 51 332.5t144.5 233.5t217.5 134t275 45q203 0 360 -90zM905 1694q0 -60 -36 -96.5t-95 -36.5q-57 0 -93 36.5t-36 96.5q0 58 36 93.5
t93 35.5q59 0 95 -35.5t36 -93.5z" />
    <glyph glyph-name="cdotaccent" unicode="&#x10b;" horiz-adv-x="1021" 
d="M748 322q2 0 102 -8t125 -7q-15 -165 -130 -253.5t-306 -88.5q-235 0 -359.5 125.5t-124.5 370.5q0 248 132.5 387t373.5 139q179 0 285 -71.5t106 -196.5q0 -77 -46 -121.5t-130 -44.5q-79 0 -123.5 38.5t-44.5 106.5q0 93 78 131q-51 21 -100 21q-99 0 -145 -81
t-46 -275q0 -197 37.5 -275t130.5 -78q90 0 130 45t55 136zM678 1241q0 -60 -36 -96.5t-95 -36.5q-57 0 -93 36.5t-36 96.5q0 58 36 93.5t93 35.5q59 0 95 -35.5t36 -93.5z" />
    <glyph glyph-name="Ccaron" unicode="&#x10c;" horiz-adv-x="1495" 
d="M471 1837l18 21q60 -19 146.5 -67.5t142.5 -94.5q53 43 138.5 92t142.5 70l18 -21q-32 -80 -99.5 -161.5t-135.5 -137.5h-137q-62 49 -128.5 131.5t-105.5 167.5zM1128 1364q69 -40 94.5 -28.5t32.5 89.5q19 -1 84 -1t84 1q-13 -80 -25 -253t-9 -279q-125 8 -246 0
q-9 85 -27 145.5t-52.5 112t-93 77t-141.5 25.5q-116 0 -185.5 -50.5t-104.5 -170t-35 -323.5q0 -134 16 -232.5t43 -158.5t68.5 -96t86 -49t101.5 -13q157 0 244 101.5t92 289.5q43 -3 132.5 -3t133.5 3q-5 -208 -68 -335t-201.5 -190t-367.5 -63q-168 0 -294.5 40
t-220 126.5t-141.5 232t-48 347.5q0 188 51 332.5t144.5 233.5t217.5 134t275 45q203 0 360 -90z" />
    <glyph glyph-name="ccaron" unicode="&#x10d;" horiz-adv-x="1021" 
d="M264 1384l19 21q60 -19 146 -67.5t142 -94.5q53 43 138.5 92t142.5 70l18 -21q-32 -80 -99.5 -161.5t-135.5 -137.5h-137q-62 49 -128.5 131.5t-105.5 167.5zM748 322q2 0 102 -8t125 -7q-15 -165 -130 -253.5t-306 -88.5q-235 0 -359.5 125.5t-124.5 370.5
q0 248 132.5 387t373.5 139q179 0 285 -71.5t106 -196.5q0 -77 -46 -121.5t-130 -44.5q-79 0 -123.5 38.5t-44.5 106.5q0 93 78 131q-51 21 -100 21q-99 0 -145 -81t-46 -275q0 -197 37.5 -275t130.5 -78q90 0 130 45t55 136z" />
    <glyph glyph-name="Dcaron" unicode="&#x10e;" horiz-adv-x="1619" 
d="M463 1837l18 21q60 -19 146.5 -67.5t142.5 -94.5q53 43 138.5 92t142.5 70l18 -21q-32 -80 -99.5 -161.5t-135.5 -137.5h-138q-61 49 -127.5 131.5t-105.5 167.5zM842 1411q366 0 530.5 -166.5t169.5 -527.5q2 -156 -31.5 -278.5t-94 -204.5t-149 -135.5t-191.5 -77
t-226 -23.5q-268 2 -399 2l-394 -4v190h72q71 0 96.5 22.5t28.5 88.5q4 97 4 414t-4 399q-4 63 -30.5 90t-82.5 27h-84v186q4 0 162 -2t236 -2q73 0 226 1t161 1zM625 276q1 -43 25 -66.5t63 -23.5h67q101 0 167 23t114.5 82.5t70 163.5t21.5 264q0 148 -20.5 245.5
t-66.5 156.5t-114 83.5t-170 24.5h-69q-84 0 -88 -80q-6 -117 -5.5 -435t5.5 -438z" />
    <glyph glyph-name="dcaron" unicode="&#x10f;" horiz-adv-x="1490" 
d="M1137 1032q220 51 233 230q-29 -54 -98 -54q-46 0 -71 29t-25 84q0 56 35 90.5t94 34.5q62 0 95.5 -43t33.5 -113q0 -115 -77 -193t-210 -106zM428 987q223 0 289 -209v377q0 54 -21 78t-65 24h-66q4 78 0 156q329 0 479 6q-3 -197 -3 -611.5t3 -555.5q1 -51 22.5 -73.5
t66.5 -22.5h47q-2 -19 -2 -78t2 -78q-238 -4 -461 -4v203q-35 -115 -110.5 -174.5t-186.5 -59.5q-88 0 -152 27t-110.5 86.5t-70 160.5t-23.5 244q0 504 362 504zM551 143q166 0 166 287v109q0 144 -37 207t-119 63q-59 0 -91 -25.5t-48 -96t-16 -204.5q0 -59 2 -100.5
t7 -83t15 -68t26 -48t39.5 -31t55.5 -9.5z" />
    <glyph glyph-name="Dcroat" unicode="&#x110;" horiz-adv-x="1619" 
d="M842 1411q366 0 530.5 -166.5t169.5 -527.5q2 -156 -31.5 -278.5t-94 -204.5t-149 -135.5t-191.5 -77t-226 -23.5q-268 2 -399 2l-394 -4v190h72q71 0 96.5 22.5t28.5 88.5q4 106 4 336q-33 0 -81.5 -1t-59.5 -1q3 12 3.5 87t-1.5 89q58 -4 139 -4q0 217 -4 307
q-4 63 -30.5 90t-82.5 27h-84v186q4 0 162 -2t236 -2q73 0 226 1t161 1zM625 276q1 -43 25 -66.5t63 -23.5h67q101 0 167 23t114.5 82.5t70 163.5t21.5 264q0 148 -20.5 245.5t-66.5 156.5t-114 83.5t-170 24.5h-69q-84 0 -88 -80q-7 -107 -7 -346q129 0 211 4
q-1 -19 -1 -88t1 -88q-16 0 -88 1t-123 1q4 -311 7 -357z" />
    <glyph glyph-name="dcroat" unicode="&#x111;" horiz-adv-x="1210" 
d="M584 1047v98q62 -4 133 -4v14q0 54 -21 78t-65 24h-66q4 78 0 156q329 0 479 6q-4 -136 -4 -278q65 0 131 4v-98q-1 0 -51 1t-80 1q0 -670 4 -797q1 -51 22.5 -73.5t66.5 -22.5h47q-2 -19 -2 -78t2 -78q-238 -4 -461 -4v203q-35 -115 -110.5 -174.5t-186.5 -59.5
q-88 0 -152 27t-110.5 86.5t-70 160.5t-23.5 244q0 504 362 504q223 0 289 -209v271q-23 0 -54 -0.5t-53.5 -1t-25.5 -0.5zM551 143q166 0 166 287v109q0 144 -37 207t-119 63q-59 0 -91 -25.5t-48 -96t-16 -204.5q0 -59 2 -100.5t7 -83t15 -68t26 -48t39.5 -31t55.5 -9.5z
" />
    <glyph glyph-name="Emacron" unicode="&#x112;" horiz-adv-x="1501" 
d="M887 973v53q33 -2 70.5 -2t58.5 1l22 1q-1 -40 -4 -94.5t-4.5 -103t-1.5 -115.5q0 -147 10 -320q-75 4 -147 0v47q-2 114 -45.5 162.5t-159.5 48.5h-63q0 -263 6 -342q4 -68 33.5 -95.5t87.5 -27.5h215q155 0 215.5 81t60.5 290q25 -1 101.5 -1t101.5 1
q-21 -228 -21 -567q-144 10 -440 10h-539q-54 0 -147 -1t-165 -2t-75 -1v190h72q67 0 93.5 32t31.5 99q6 77 6.5 386.5t-4.5 394.5q-4 71 -31.5 100t-85.5 29h-82v186q9 0 175 -2t219 -2h518q355 0 467 14q-17 -252 -13 -532h-188q0 83 -11 141.5t-30.5 96t-54 58t-75 28.5
t-99.5 8h-220q-58 0 -85.5 -28.5t-30.5 -86.5q-6 -89 -6 -334h67q108 0 152.5 45.5t44.5 153.5zM526 1554q4 81 0 166q94 -3 280.5 -3t280.5 3q-4 -83 0 -166q-94 3 -280.5 3t-280.5 -3z" />
    <glyph glyph-name="emacron" unicode="&#x113;" horiz-adv-x="1048" 
d="M758 317q10 -1 62 -4.5t97.5 -6t63.5 -1.5q-18 -162 -127 -253t-313 -91q-232 0 -359 126t-127 374q0 251 132.5 388.5t357.5 137.5q123 0 213.5 -40.5t142.5 -115t73.5 -175.5t12.5 -228q-36 1 -165.5 1t-278.5 -0.5t-156 -0.5q6 -158 49 -224.5t137 -66.5
q86 0 128.5 44.5t56.5 135.5zM532 823q-47 0 -76.5 -26t-48 -96t-20.5 -189h215q30 0 42.5 12t12.5 54q0 130 -30.5 187.5t-94.5 57.5zM266 1106q4 81 0 166q94 -3 280.5 -3t280.5 3q-4 -83 0 -166q-94 3 -280.5 3t-280.5 -3z" />
    <glyph glyph-name="Ebreve" unicode="&#x114;" horiz-adv-x="1501" 
d="M887 973v53q33 -2 70.5 -2t58.5 1l22 1q-1 -40 -4 -94.5t-4.5 -103t-1.5 -115.5q0 -147 10 -320q-75 4 -147 0v47q-2 114 -45.5 162.5t-159.5 48.5h-63q0 -263 6 -342q4 -68 33.5 -95.5t87.5 -27.5h215q155 0 215.5 81t60.5 290q25 -1 101.5 -1t101.5 1
q-21 -228 -21 -567q-144 10 -440 10h-539q-54 0 -147 -1t-165 -2t-75 -1v190h72q67 0 93.5 32t31.5 99q6 77 6.5 386.5t-4.5 394.5q-4 71 -31.5 100t-85.5 29h-82v186q9 0 175 -2t219 -2h518q355 0 467 14q-17 -252 -13 -532h-188q0 83 -11 141.5t-30.5 96t-54 58t-75 28.5
t-99.5 8h-220q-58 0 -85.5 -28.5t-30.5 -86.5q-6 -89 -6 -334h67q108 0 152.5 45.5t44.5 153.5zM805 1528q-150 0 -224.5 84.5t-56.5 212.5l47 2q6 -71 65.5 -100t168.5 -29t168 29t65 100l47 -2q18 -128 -55.5 -212.5t-224.5 -84.5z" />
    <glyph glyph-name="ebreve" unicode="&#x115;" horiz-adv-x="1048" 
d="M758 317q10 -1 62 -4.5t97.5 -6t63.5 -1.5q-18 -162 -127 -253t-313 -91q-232 0 -359 126t-127 374q0 251 132.5 388.5t357.5 137.5q123 0 213.5 -40.5t142.5 -115t73.5 -175.5t12.5 -228q-36 1 -165.5 1t-278.5 -0.5t-156 -0.5q6 -158 49 -224.5t137 -66.5
q86 0 128.5 44.5t56.5 135.5zM532 823q-47 0 -76.5 -26t-48 -96t-20.5 -189h215q30 0 42.5 12t12.5 54q0 130 -30.5 187.5t-94.5 57.5zM545 1085q-150 0 -224.5 84.5t-56.5 212.5l47 2q6 -71 65.5 -100t168.5 -29t168 29t65 100l47 -2q18 -128 -55.5 -212.5t-224.5 -84.5z
" />
    <glyph glyph-name="Edotaccent" unicode="&#x116;" horiz-adv-x="1501" 
d="M887 973v53q33 -2 70.5 -2t58.5 1l22 1q-1 -40 -4 -94.5t-4.5 -103t-1.5 -115.5q0 -147 10 -320q-75 4 -147 0v47q-2 114 -45.5 162.5t-159.5 48.5h-63q0 -263 6 -342q4 -68 33.5 -95.5t87.5 -27.5h215q155 0 215.5 81t60.5 290q25 -1 101.5 -1t101.5 1
q-21 -228 -21 -567q-144 10 -440 10h-539q-54 0 -147 -1t-165 -2t-75 -1v190h72q67 0 93.5 32t31.5 99q6 77 6.5 386.5t-4.5 394.5q-4 71 -31.5 100t-85.5 29h-82v186q9 0 175 -2t219 -2h518q355 0 467 14q-17 -252 -13 -532h-188q0 83 -11 141.5t-30.5 96t-54 58t-75 28.5
t-99.5 8h-220q-58 0 -85.5 -28.5t-30.5 -86.5q-6 -89 -6 -334h67q108 0 152.5 45.5t44.5 153.5zM915 1694q0 -60 -36 -96.5t-95 -36.5q-57 0 -93 36.5t-36 96.5q0 58 36 93.5t93 35.5q59 0 95 -35.5t36 -93.5z" />
    <glyph glyph-name="edotaccent" unicode="&#x117;" horiz-adv-x="1048" 
d="M758 317q10 -1 62 -4.5t97.5 -6t63.5 -1.5q-18 -162 -127 -253t-313 -91q-232 0 -359 126t-127 374q0 251 132.5 388.5t357.5 137.5q123 0 213.5 -40.5t142.5 -115t73.5 -175.5t12.5 -228q-36 1 -165.5 1t-278.5 -0.5t-156 -0.5q6 -158 49 -224.5t137 -66.5
q86 0 128.5 44.5t56.5 135.5zM532 823q-47 0 -76.5 -26t-48 -96t-20.5 -189h215q30 0 42.5 12t12.5 54q0 130 -30.5 187.5t-94.5 57.5zM676 1241q0 -60 -36 -96.5t-95 -36.5q-57 0 -93 36.5t-36 96.5q0 58 36 93.5t93 35.5q59 0 95 -35.5t36 -93.5z" />
    <glyph glyph-name="Eogonek" unicode="&#x118;" horiz-adv-x="1501" 
d="M887 973v53q33 -2 70.5 -2t58.5 1l22 1q-1 -40 -4 -94.5t-4.5 -103t-1.5 -115.5q0 -147 10 -320q-75 4 -147 0v47q-2 114 -45.5 162.5t-159.5 48.5h-63q0 -263 6 -342q4 -68 33.5 -95.5t87.5 -27.5h215q155 0 215.5 81t60.5 290q25 -1 101.5 -1t101.5 1
q-21 -228 -21 -567q-45 4 -161 8q-107 -55 -107 -156q0 -54 31.5 -80t79.5 -26q116 0 133 129l63 -10q3 -277 -245 -277q-105 0 -166.5 50t-61.5 139q1 78 48 137.5t124 95.5h-717q-54 0 -147 -1t-165 -2t-75 -1v190h72q67 0 93.5 32t31.5 99q6 77 6.5 386.5t-4.5 394.5
q-4 71 -31.5 100t-85.5 29h-82v186q9 0 175 -2t219 -2h518q355 0 467 14q-17 -252 -13 -532h-188q0 83 -11 141.5t-30.5 96t-54 58t-75 28.5t-99.5 8h-220q-58 0 -85.5 -28.5t-30.5 -86.5q-6 -89 -6 -334h67q108 0 152.5 45.5t44.5 153.5z" />
    <glyph glyph-name="eogonek" unicode="&#x119;" horiz-adv-x="1048" 
d="M1018 -145q-2 -62 -14.5 -109.5t-41 -87t-80 -60t-124.5 -20.5q-95 0 -156.5 51.5t-58.5 141.5q6 128 149 206q-66 -16 -151 -16q-232 0 -359 126t-127 374q0 251 132.5 388.5t357.5 137.5q123 0 213.5 -40.5t142.5 -115t73.5 -175.5t12.5 -228q-36 1 -165.5 1
t-278.5 -0.5t-156 -0.5q6 -158 49 -224.5t137 -66.5q86 0 128.5 44.5t56.5 135.5q10 -1 62 -4.5t97.5 -6t63.5 -1.5q-9 -90 -48 -155t-110 -125q-61 -51 -87 -93t-29 -96q0 -48 29.5 -74t76.5 -26q57 0 90.5 31t48.5 98zM532 823q-47 0 -76.5 -26t-48 -96t-20.5 -189h215
q30 0 42.5 12t12.5 54q0 130 -30.5 187.5t-94.5 57.5z" />
    <glyph glyph-name="Ecaron" unicode="&#x11a;" horiz-adv-x="1501" 
d="M887 973v53q33 -2 70.5 -2t58.5 1l22 1q-1 -40 -4 -94.5t-4.5 -103t-1.5 -115.5q0 -147 10 -320q-75 4 -147 0v47q-2 114 -45.5 162.5t-159.5 48.5h-63q0 -263 6 -342q4 -68 33.5 -95.5t87.5 -27.5h215q155 0 215.5 81t60.5 290q25 -1 101.5 -1t101.5 1
q-21 -228 -21 -567q-144 10 -440 10h-539q-54 0 -147 -1t-165 -2t-75 -1v190h72q67 0 93.5 32t31.5 99q6 77 6.5 386.5t-4.5 394.5q-4 71 -31.5 100t-85.5 29h-82v186q9 0 175 -2t219 -2h518q355 0 467 14q-17 -252 -13 -532h-188q0 83 -11 141.5t-30.5 96t-54 58t-75 28.5
t-99.5 8h-220q-58 0 -85.5 -28.5t-30.5 -86.5q-6 -89 -6 -334h67q108 0 152.5 45.5t44.5 153.5zM469 1837l18 21q60 -19 146.5 -67.5t142.5 -94.5q53 43 138.5 92t142.5 70l18 -21q-32 -80 -99.5 -161.5t-135.5 -137.5h-138q-61 49 -127.5 131.5t-105.5 167.5z" />
    <glyph glyph-name="ecaron" unicode="&#x11b;" horiz-adv-x="1048" 
d="M240 1384l18 21q60 -19 146.5 -67.5t142.5 -94.5q53 43 138 92t142 70l19 -21q-32 -80 -100 -161.5t-136 -137.5h-137q-61 49 -127.5 131.5t-105.5 167.5zM758 317q10 -1 62 -4.5t97.5 -6t63.5 -1.5q-18 -162 -127 -253t-313 -91q-232 0 -359 126t-127 374
q0 251 132.5 388.5t357.5 137.5q123 0 213.5 -40.5t142.5 -115t73.5 -175.5t12.5 -228q-36 1 -165.5 1t-278.5 -0.5t-156 -0.5q6 -158 49 -224.5t137 -66.5q86 0 128.5 44.5t56.5 135.5zM532 823q-47 0 -76.5 -26t-48 -96t-20.5 -189h215q30 0 42.5 12t12.5 54
q0 130 -30.5 187.5t-94.5 57.5z" />
    <glyph glyph-name="Gcircumflex" unicode="&#x11c;" horiz-adv-x="1615" 
d="M1079 1524l-18 -23q-61 21 -147 69.5t-142 94.5q-53 -45 -138 -94t-142 -68l-19 21q32 78 99 158t137 141h137q61 -49 127.5 -131.5t105.5 -167.5zM766 1454q208 0 362 -92q67 -40 93.5 -27.5t33.5 90.5q19 -1 84 -1t84 1q-13 -80 -25 -253t-9 -279q-125 8 -246 0
q-9 85 -27 145.5t-52.5 112t-93 77t-141.5 25.5q-116 0 -185.5 -50.5t-104.5 -170t-35 -323.5q0 -133 17 -232t44.5 -159t69 -96t85 -49t97.5 -13q131 0 207 69.5t76 214.5q0 84 -22.5 120t-88.5 36h-76v152q219 -7 336 -7l328 7v-152h-55q-43 0 -59.5 -24t-16.5 -84
q0 -326 22 -500q-103 8 -206 0q-21 89 -56 188q-55 -101 -172.5 -161t-269.5 -60q-125 0 -227 24t-188.5 79.5t-145 141t-91 213t-32.5 292.5q0 188 51 332.5t143.5 233.5t216.5 134t275 45z" />
    <glyph glyph-name="gcircumflex" unicode="&#x11d;" horiz-adv-x="1062" 
d="M477 987q103 0 189 -22q16 71 57 118q-143 66 -231 142q-53 -45 -138.5 -94t-142.5 -68l-18 20q32 78 99 158.5t136 140.5h137q53 -43 112 -112.5t101 -145.5q44 23 94 23q79 0 124.5 -40.5t45.5 -111.5q0 -59 -29 -92t-83 -33q-52 0 -81.5 27.5t-29.5 77.5q0 41 25 69
q-83 -15 -121 -102q190 -81 190 -313q0 -176 -119.5 -271.5t-316.5 -95.5q-75 0 -137 12q-80 -7 -80 -45q0 -21 24 -32t91 -17t196 -8q136 -1 227 -19t140 -53.5t68.5 -81t19.5 -110.5t-31.5 -122t-94 -103.5t-166.5 -73.5t-238 -27q-476 0 -476 211q0 55 41 93.5t109 58.5
q-102 51 -102 157q0 83 52.5 133t135.5 66q-100 40 -154.5 123.5t-54.5 204.5q0 173 119 265.5t311 92.5zM492 -106q-127 3 -216 18q-98 -30 -98 -90q0 -51 75.5 -83t238.5 -32q182 0 275 33.5t93 81.5q0 40 -76.5 54.5t-291.5 17.5zM481 850q-66 0 -92.5 -49t-26.5 -174
q0 -129 27 -178.5t92 -49.5q68 0 92.5 48.5t24.5 179.5q0 128 -25.5 175.5t-91.5 47.5z" />
    <glyph glyph-name="Gbreve" unicode="&#x11e;" horiz-adv-x="1615" 
d="M766 1454q208 0 362 -92q67 -40 93.5 -27.5t33.5 90.5q19 -1 84 -1t84 1q-13 -80 -25 -253t-9 -279q-125 8 -246 0q-9 85 -27 145.5t-52.5 112t-93 77t-141.5 25.5q-116 0 -185.5 -50.5t-104.5 -170t-35 -323.5q0 -133 17 -232t44.5 -159t69 -96t85 -49t97.5 -13
q131 0 207 69.5t76 214.5q0 84 -22.5 120t-88.5 36h-76v152q219 -7 336 -7l328 7v-152h-55q-43 0 -59.5 -24t-16.5 -84q0 -326 22 -500q-103 8 -206 0q-21 89 -56 188q-55 -101 -172.5 -161t-269.5 -60q-125 0 -227 24t-188.5 79.5t-145 141t-91 213t-32.5 292.5
q0 188 51 332.5t143.5 233.5t216.5 134t275 45zM766 1528q-150 0 -224.5 84.5t-56.5 212.5l47 2q6 -71 65.5 -100t168.5 -29t168 29t65 100l48 -2q18 -128 -56 -212.5t-225 -84.5z" />
    <glyph glyph-name="gbreve" unicode="&#x11f;" horiz-adv-x="1062" 
d="M477 987q103 0 189 -22q18 80 71 131t135 51q79 0 124.5 -40.5t45.5 -111.5q0 -59 -29 -92t-83 -33q-52 0 -81.5 27.5t-29.5 77.5q0 41 25 69q-83 -15 -121 -102q190 -81 190 -313q0 -176 -119.5 -271.5t-316.5 -95.5q-75 0 -137 12q-80 -7 -80 -45q0 -21 24 -32t91 -17
t196 -8q136 -1 227 -19t140 -53.5t68.5 -81t19.5 -110.5t-31.5 -122t-94 -103.5t-166.5 -73.5t-238 -27q-476 0 -476 211q0 55 41 93.5t109 58.5q-102 51 -102 157q0 83 52.5 133t135.5 66q-100 40 -154.5 123.5t-54.5 204.5q0 173 119 265.5t311 92.5zM492 -106
q-127 3 -216 18q-98 -30 -98 -90q0 -51 75.5 -83t238.5 -32q182 0 275 33.5t93 81.5q0 40 -76.5 54.5t-291.5 17.5zM481 850q-66 0 -92.5 -49t-26.5 -174q0 -129 27 -178.5t92 -49.5q68 0 92.5 48.5t24.5 179.5q0 128 -25.5 175.5t-91.5 47.5zM455 1085q-150 0 -224.5 84.5
t-56.5 212.5l47 2q6 -71 65.5 -100t168.5 -29t168 29t65 100l47 -2q18 -128 -55.5 -212.5t-224.5 -84.5z" />
    <glyph glyph-name="Gdotaccent" unicode="&#x120;" horiz-adv-x="1615" 
d="M766 1454q208 0 362 -92q67 -40 93.5 -27.5t33.5 90.5q19 -1 84 -1t84 1q-13 -80 -25 -253t-9 -279q-125 8 -246 0q-9 85 -27 145.5t-52.5 112t-93 77t-141.5 25.5q-116 0 -185.5 -50.5t-104.5 -170t-35 -323.5q0 -133 17 -232t44.5 -159t69 -96t85 -49t97.5 -13
q131 0 207 69.5t76 214.5q0 84 -22.5 120t-88.5 36h-76v152q219 -7 336 -7l328 7v-152h-55q-43 0 -59.5 -24t-16.5 -84q0 -326 22 -500q-103 8 -206 0q-21 89 -56 188q-55 -101 -172.5 -161t-269.5 -60q-125 0 -227 24t-188.5 79.5t-145 141t-91 213t-32.5 292.5
q0 188 51 332.5t143.5 233.5t216.5 134t275 45zM889 1694q0 -60 -36 -96.5t-95 -36.5q-57 0 -93 36.5t-36 96.5q0 58 36 93.5t93 35.5q59 0 95 -35.5t36 -93.5z" />
    <glyph glyph-name="gdotaccent" unicode="&#x121;" horiz-adv-x="1062" 
d="M477 987q103 0 189 -22q18 80 71 131t135 51q79 0 124.5 -40.5t45.5 -111.5q0 -59 -29 -92t-83 -33q-52 0 -81.5 27.5t-29.5 77.5q0 41 25 69q-83 -15 -121 -102q190 -81 190 -313q0 -176 -119.5 -271.5t-316.5 -95.5q-75 0 -137 12q-80 -7 -80 -45q0 -21 24 -32t91 -17
t196 -8q136 -1 227 -19t140 -53.5t68.5 -81t19.5 -110.5t-31.5 -122t-94 -103.5t-166.5 -73.5t-238 -27q-476 0 -476 211q0 55 41 93.5t109 58.5q-102 51 -102 157q0 83 52.5 133t135.5 66q-100 40 -154.5 123.5t-54.5 204.5q0 173 119 265.5t311 92.5zM492 -106
q-127 3 -216 18q-98 -30 -98 -90q0 -51 75.5 -83t238.5 -32q182 0 275 33.5t93 81.5q0 40 -76.5 54.5t-291.5 17.5zM481 850q-66 0 -92.5 -49t-26.5 -174q0 -129 27 -178.5t92 -49.5q68 0 92.5 48.5t24.5 179.5q0 128 -25.5 175.5t-91.5 47.5zM618 1241q0 -60 -36 -96.5
t-95 -36.5q-57 0 -93 36.5t-36 96.5q0 58 36 93.5t93 35.5q59 0 95 -35.5t36 -93.5z" />
    <glyph glyph-name="Gcommaaccent" unicode="&#x122;" horiz-adv-x="1615" 
d="M592 -543q220 51 233 230q-29 -54 -98 -54q-46 0 -71 29t-25 84q0 56 35 90.5t94 34.5q62 0 95.5 -43t33.5 -113q0 -115 -77 -193t-210 -106zM766 1454q208 0 362 -92q67 -40 93.5 -27.5t33.5 90.5q19 -1 84 -1t84 1q-13 -80 -25 -253t-9 -279q-125 8 -246 0
q-9 85 -27 145.5t-52.5 112t-93 77t-141.5 25.5q-116 0 -185.5 -50.5t-104.5 -170t-35 -323.5q0 -133 17 -232t44.5 -159t69 -96t85 -49t97.5 -13q131 0 207 69.5t76 214.5q0 84 -22.5 120t-88.5 36h-76v152q219 -7 336 -7l328 7v-152h-55q-43 0 -59.5 -24t-16.5 -84
q0 -326 22 -500q-103 8 -206 0q-21 89 -56 188q-55 -101 -172.5 -161t-269.5 -60q-125 0 -227 24t-188.5 79.5t-145 141t-91 213t-32.5 292.5q0 188 51 332.5t143.5 233.5t216.5 134t275 45z" />
    <glyph glyph-name="gcommaaccent" unicode="&#x123;" horiz-adv-x="1062" 
d="M659 1538q-220 -51 -233 -229q29 53 98 53q46 0 71.5 -29t25.5 -84q0 -56 -35 -90.5t-94 -34.5q-63 0 -96.5 43t-33.5 113q0 115 77 193t210 106zM477 987q103 0 189 -22q18 80 71 131t135 51q79 0 124.5 -40.5t45.5 -111.5q0 -59 -29 -92t-83 -33q-52 0 -81.5 27.5
t-29.5 77.5q0 41 25 69q-83 -15 -121 -102q190 -81 190 -313q0 -176 -119.5 -271.5t-316.5 -95.5q-75 0 -137 12q-80 -7 -80 -45q0 -21 24 -32t91 -17t196 -8q136 -1 227 -19t140 -53.5t68.5 -81t19.5 -110.5t-31.5 -122t-94 -103.5t-166.5 -73.5t-238 -27q-476 0 -476 211
q0 55 41 93.5t109 58.5q-102 51 -102 157q0 83 52.5 133t135.5 66q-100 40 -154.5 123.5t-54.5 204.5q0 173 119 265.5t311 92.5zM492 -106q-127 3 -216 18q-98 -30 -98 -90q0 -51 75.5 -83t238.5 -32q182 0 275 33.5t93 81.5q0 40 -76.5 54.5t-291.5 17.5zM481 850
q-66 0 -92.5 -49t-26.5 -174q0 -129 27 -178.5t92 -49.5q68 0 92.5 48.5t24.5 179.5q0 128 -25.5 175.5t-91.5 47.5z" />
    <glyph glyph-name="Hcircumflex" unicode="&#x124;" horiz-adv-x="1744" 
d="M1176 1526l-19 -23q-61 21 -147 69.5t-142 94.5q-53 -45 -138 -94t-142 -68l-19 21q32 78 99 158t137 141h137q62 -49 128.5 -131.5t105.5 -167.5zM57 -4v190h80q68 0 91 20t26 81q4 94 4 423t-4 406q-5 61 -28.5 86t-78.5 25h-90q1 22 1 93t-1 93q242 -6 377 -6
q60 0 149.5 1.5t156 3t69.5 1.5v-186h-78q-56 0 -82.5 -25.5t-30.5 -85.5q-4 -45 -4 -348q248 -4 519 0q0 292 -5 348q-4 60 -31 85.5t-83 25.5h-80q2 22 2 93t-2 93q242 -6 377 -6q59 0 149 1.5t157 3t71 1.5q-2 -22 -2 -93t2 -93h-91q-55 0 -78 -25t-28 -86
q-5 -76 -5 -406.5t5 -422.5q3 -59 26.5 -80t90.5 -21h80q-2 -22 -2 -95t2 -95q-242 4 -377 4l-377 -4q2 22 2 95t-2 95h78q66 0 90 23t26 78q5 133 5 352q-197 3 -519 -2q0 -244 4 -350q3 -57 24.5 -79t88.5 -22h78v-190q-240 4 -375 4z" />
    <glyph glyph-name="hcircumflex" unicode="&#x125;" horiz-adv-x="1288" 
d="M590 1511l-19 -22q-61 21 -146.5 69t-141.5 95q-53 -45 -138.5 -94t-142.5 -68l-18 20q32 78 99 158.5t136 140.5h137q62 -49 128.5 -131.5t105.5 -167.5zM1126 610q0 -27 -0.5 -106.5t-0.5 -140.5t1 -87q3 -67 25 -93.5t80 -26.5h20q-1 -28 -1 -85.5t1 -76.5
q-5 0 -56 1.5t-118 3t-112 1.5t-114 -1.5t-120 -3t-53 -1.5q2 19 2 76.5t-2 85.5h27q51 0 71 26t23 94q7 148 0 322q-3 106 -34.5 158.5t-105.5 52.5q-167 0 -167 -287v-256q0 -64 20.5 -87t75.5 -23h28q-4 -80 0 -162q-5 0 -56.5 1.5t-119.5 3t-114 1.5t-116.5 -1.5
t-123.5 -3t-55 -1.5q1 19 1 76.5t-1 85.5h32q58 0 77 21t24 87q4 58 3.5 441t-3.5 442q-5 65 -23.5 87.5t-79.5 22.5h-26v156q342 0 465 6q-8 -154 -8 -487v-170q70 225 315 225q164 0 243 -99.5t76 -277.5z" />
    <glyph glyph-name="Hbar" unicode="&#x126;" horiz-adv-x="1744" 
d="M57 -4v190h80q68 0 91 20t26 81q8 178 4 631q-52 0 -108 -3v119q35 -2 106 -2q0 59 -2 84q-5 61 -28.5 86t-78.5 25h-90q1 22 1 93t-1 93q242 -6 377 -6q60 0 149.5 1.5t156 3t69.5 1.5v-186h-78q-55 0 -81 -25.5t-32 -85.5q-4 -32 -4 -84h516q0 59 -2 84q-4 60 -31 85.5
t-83 25.5h-80q2 22 2 93t-2 93q242 -6 377 -6q59 0 149 1.5t157 3t71 1.5q-2 -22 -2 -93t2 -93h-91q-55 0 -78 -25t-28 -86q-4 -50 -4 -84q80 0 117 2v-119q-58 3 -117 3q-4 -456 4 -631q3 -59 26.5 -80t90.5 -21h80q-2 -22 -2 -95t2 -95q-242 4 -377 4l-377 -4q2 22 2 95
t-2 95h78q66 0 90 23t26 78q5 133 5 352q-197 3 -519 -2q0 -244 4 -350q3 -57 24.5 -79t88.5 -22h78v-190q-240 4 -375 4zM614 768q248 -4 519 0v150h-519v-150z" />
    <glyph glyph-name="hbar" unicode="&#x127;" horiz-adv-x="1288" 
d="M41 1047v98q29 -2 123 -2q-5 67 -23.5 90.5t-79.5 23.5h-26v156q342 0 465 6q-8 -123 -8 -276q104 0 137 2v-98q-53 2 -137 2v-287q70 225 315 225q164 0 243 -99.5t76 -277.5q0 -27 -0.5 -106.5t-0.5 -140.5t1 -87q3 -67 25 -93.5t80 -26.5h20q-1 -28 -1 -85.5t1 -76.5
q-5 0 -56 1.5t-118 3t-112 1.5t-114 -1.5t-120 -3t-53 -1.5q2 19 2 76.5t-2 85.5h27q51 0 71 26t23 94q7 148 0 322q-3 106 -34.5 158.5t-105.5 52.5q-167 0 -167 -287v-256q0 -64 20.5 -87t75.5 -23h28q-4 -80 0 -162q-5 0 -56.5 1.5t-119.5 3t-114 1.5t-116.5 -1.5
t-123.5 -3t-55 -1.5q1 19 1 76.5t-1 85.5h32q58 0 77 21t24 87q3 40 3.5 332t-1.5 453q-80 0 -125 -2z" />
    <glyph glyph-name="Itilde" unicode="&#x128;" horiz-adv-x="876" 
d="M61 -4q1 22 1 95t-1 95h82q63 0 85.5 22.5t25.5 78.5q4 88 4 420t-4 409q-5 61 -28.5 86t-78.5 25h-86q1 22 1 93t-1 93q244 -6 379 -6q59 0 149 1.5t157 3t71 1.5q-1 -22 -1 -93t1 -93h-86q-55 0 -78 -25t-28 -86q-6 -82 -5.5 -408.5t5.5 -420.5q3 -55 26 -78t84 -23h80
v-190q-240 4 -375 4zM686 1796l51 14q49 -137 -12 -214.5t-174 -77.5q-70 0 -117.5 29.5t-85.5 90.5q-32 47 -52 64.5t-50 17.5q-41 0 -57 -37.5t6 -128.5l-54 -16q-34 100 -12 165.5t75 97.5t126 32q62 0 109 -28t91 -93q29 -44 52 -63t51 -19q43 0 58.5 38.5t-5.5 127.5z
" />
    <glyph glyph-name="itilde" unicode="&#x129;" horiz-adv-x="657" 
d="M492 965q-2 -61 -2.5 -342t2.5 -357q3 -66 25.5 -88t80.5 -22h29v-160q-13 0 -133.5 3t-161.5 3q-42 0 -170 -3t-131 -3q1 19 1 75.5t-1 84.5h30q60 0 80 21t23 87t3 221t-3 213q-3 61 -23.5 83t-81.5 22h-28q4 77 0 155q289 0 461 7zM555 1343l51 15q49 -137 -12 -215
t-174 -78q-69 0 -117 30t-86 91q-32 47 -52 64.5t-50 17.5q-41 0 -57.5 -37.5t5.5 -128.5l-53 -17q-34 100 -12 165.5t75 97.5t126 32q63 0 109.5 -27.5t90.5 -92.5q29 -44 52 -63t51 -19q43 0 58.5 38t-5.5 127z" />
    <glyph glyph-name="Imacron" unicode="&#x12a;" horiz-adv-x="876" 
d="M61 -4q1 22 1 95t-1 95h82q63 0 85.5 22.5t25.5 78.5q4 88 4 420t-4 409q-5 61 -28.5 86t-78.5 25h-86q1 22 1 93t-1 93q244 -6 379 -6q59 0 149 1.5t157 3t71 1.5q-1 -22 -1 -93t1 -93h-86q-55 0 -78 -25t-28 -86q-6 -82 -5.5 -408.5t5.5 -420.5q3 -55 26 -78t84 -23h80
v-190q-240 4 -375 4zM162 1554q4 81 0 166q94 -3 280.5 -3t280.5 3q-4 -83 0 -166q-94 3 -280.5 3t-280.5 -3z" />
    <glyph glyph-name="imacron" unicode="&#x12b;" horiz-adv-x="657" 
d="M492 965q-2 -61 -2.5 -342t2.5 -357q3 -66 25.5 -88t80.5 -22h29v-160q-13 0 -133.5 3t-161.5 3q-42 0 -170 -3t-131 -3q1 19 1 75.5t-1 84.5h30q60 0 80 21t23 87t3 221t-3 213q-3 61 -23.5 83t-81.5 22h-28q4 77 0 155q289 0 461 7zM20 1106q4 81 0 166q94 -3 281 -3
t281 3q-4 -83 0 -166q-94 3 -281 3t-281 -3z" />
    <glyph glyph-name="Ibreve" unicode="&#x12c;" horiz-adv-x="876" 
d="M61 -4q1 22 1 95t-1 95h82q63 0 85.5 22.5t25.5 78.5q4 88 4 420t-4 409q-5 61 -28.5 86t-78.5 25h-86q1 22 1 93t-1 93q244 -6 379 -6q59 0 149 1.5t157 3t71 1.5q-1 -22 -1 -93t1 -93h-86q-55 0 -78 -25t-28 -86q-6 -82 -5.5 -408.5t5.5 -420.5q3 -55 26 -78t84 -23h80
v-190q-240 4 -375 4zM438 1528q-150 0 -224 84.5t-56 212.5l47 2q6 -71 65 -100t168 -29t168.5 29t65.5 100l47 -2q18 -128 -56 -212.5t-225 -84.5z" />
    <glyph glyph-name="ibreve" unicode="&#x12d;" horiz-adv-x="657" 
d="M492 965q-2 -61 -2.5 -342t2.5 -357q3 -66 25.5 -88t80.5 -22h29v-160q-13 0 -133.5 3t-161.5 3q-42 0 -170 -3t-131 -3q1 19 1 75.5t-1 84.5h30q60 0 80 21t23 87t3 221t-3 213q-3 61 -23.5 83t-81.5 22h-28q4 77 0 155q289 0 461 7zM291 1085q-150 0 -224.5 84.5
t-56.5 212.5l47 2q6 -71 65.5 -100t168.5 -29t168 29t65 100l47 -2q18 -128 -55.5 -212.5t-224.5 -84.5z" />
    <glyph glyph-name="Iogonek" unicode="&#x12e;" horiz-adv-x="876" 
d="M713 -145q3 -277 -246 -277q-105 0 -166 50t-61 139q3 156 174 233l-353 -4q1 22 1 95t-1 95h82q63 0 85.5 22.5t25.5 78.5q4 88 4 420t-4 409q-5 61 -28.5 86t-78.5 25h-86q1 22 1 93t-1 93q244 -6 379 -6q59 0 149 1.5t157 3t71 1.5q-1 -22 -1 -93t1 -93h-86
q-55 0 -78 -25t-28 -86q-6 -82 -5.5 -408.5t5.5 -420.5q3 -55 26 -78t84 -23h80v-190q-164 4 -295 4q-114 -51 -114 -158q0 -54 31 -80t79 -26q116 0 133 129z" />
    <glyph glyph-name="iogonek" unicode="&#x12f;" horiz-adv-x="657" 
d="M592 -145q3 -277 -246 -277q-105 0 -166 50t-61 139q3 156 174 233q-47 0 -109.5 -1.5t-107 -3t-45.5 -1.5q1 19 1 76.5t-1 85.5h30q60 0 80 21t23 87t3 221t-3 213q-3 61 -23.5 83t-81.5 22h-28q4 77 0 155q289 0 461 7q-2 -61 -2.5 -342t2.5 -357q3 -66 25.5 -88
t80.5 -22h29v-162q-5 0 -40.5 1t-90.5 2.5t-97 2.5q-114 -51 -114 -158q0 -54 31 -80t79 -26q116 0 133 129zM504 1278q0 -86 -51 -137t-136 -51q-84 0 -134 51t-50 137q0 83 50.5 133.5t133.5 50.5q85 0 136 -50.5t51 -133.5z" />
    <glyph glyph-name="Idotaccent" unicode="&#x130;" horiz-adv-x="876" 
d="M61 -4q1 22 1 95t-1 95h82q63 0 85.5 22.5t25.5 78.5q4 88 4 420t-4 409q-5 61 -28.5 86t-78.5 25h-86q1 22 1 93t-1 93q244 -6 379 -6q59 0 149 1.5t157 3t71 1.5q-1 -22 -1 -93t1 -93h-86q-55 0 -78 -25t-28 -86q-6 -82 -5.5 -408.5t5.5 -420.5q3 -55 26 -78t84 -23h80
v-190q-240 4 -375 4zM569 1694q0 -60 -36 -96.5t-95 -36.5q-57 0 -93 36.5t-36 96.5q0 58 36 93.5t93 35.5q59 0 95 -35.5t36 -93.5z" />
    <glyph glyph-name="dotlessi" unicode="&#x131;" horiz-adv-x="657" 
d="M492 965q-2 -61 -2.5 -342t2.5 -357q3 -66 25.5 -88t80.5 -22h29v-160q-13 0 -133.5 3t-161.5 3q-42 0 -170 -3t-131 -3q1 19 1 75.5t-1 84.5h30q60 0 80 21t23 87t3 221t-3 213q-3 61 -23.5 83t-81.5 22h-28q4 77 0 155q289 0 461 7z" />
    <glyph glyph-name="IJ" unicode="&#x132;" horiz-adv-x="2027" 
d="M1227 322q0 -92 -67.5 -134.5t-160.5 -31.5q73 -70 193 -70q115 0 172 72t63 245q5 126 5 381.5t-5 331.5q-3 60 -26.5 85.5t-79.5 25.5h-82v186q234 -6 367 -6q58 0 145 1.5t152 3t69 1.5q-2 -22 -2 -93t2 -93h-65q-55 0 -79.5 -23.5t-27.5 -87.5q-2 -51 -2 -340.5
t2 -361.5q3 -220 -139 -335.5t-393 -115.5q-198 0 -307 90.5t-109 231.5q0 90 53 146t146 56q80 0 128 -44.5t48 -120.5zM61 -4q1 22 1 95t-1 95h82q63 0 85.5 22.5t25.5 78.5q4 88 4 420t-4 409q-5 61 -28.5 86t-78.5 25h-86q1 22 1 93t-1 93q244 -6 379 -6q59 0 149 1.5
t157 3t71 1.5q-1 -22 -1 -93t1 -93h-86q-55 0 -78 -25t-28 -86q-6 -82 -5.5 -408.5t5.5 -420.5q3 -55 26 -78t84 -23h80v-190q-240 4 -375 4z" />
    <glyph glyph-name="ij" unicode="&#x133;" horiz-adv-x="1189" 
d="M492 965q-2 -61 -2.5 -342t2.5 -357q3 -66 25.5 -88t80.5 -22h29v-162q-5 0 -58 1.5t-122.5 3t-116.5 1.5t-118.5 -1.5t-125 -3t-55.5 -1.5q1 19 1 76.5t-1 85.5h30q60 0 80 21t23 87t3 221t-3 213q-3 61 -23.5 83t-81.5 22h-28q4 77 0 155q289 0 461 7zM504 1278
q0 -86 -51 -137t-136 -51q-84 0 -134 51t-50 137q0 83 50.5 133.5t133.5 50.5q85 0 136 -50.5t51 -133.5zM690 -184q0 -54 -42.5 -94t-117.5 -29q42 -27 95 -27q72 0 109 49.5t40 169.5q2 126 2.5 437.5t-2.5 382.5q-6 98 -94 98h-37q4 78 0 155q374 0 467 7
q-8 -115 -8 -340v-600q0 -220 -100.5 -328.5t-292.5 -108.5q-136 0 -216.5 54.5t-80.5 150.5q0 70 38 109t107 39q62 0 97.5 -33.5t35.5 -91.5zM1116 1278q0 -86 -50.5 -137t-135.5 -51q-84 0 -134.5 51t-50.5 137q0 83 51 133.5t134 50.5q85 0 135.5 -50.5t50.5 -133.5z
" />
    <glyph glyph-name="Jcircumflex" unicode="&#x134;" horiz-adv-x="1206" 
d="M1077 1526l-18 -23q-61 21 -147 69.5t-142 94.5q-53 -45 -138.5 -94t-142.5 -68l-18 21q32 78 99 158t137 141h137q61 -49 127.5 -131.5t105.5 -167.5zM406 322q0 -92 -67.5 -134.5t-160.5 -31.5q73 -70 193 -70q115 0 172 72t63 245q4 126 4 381t-4 332
q-3 60 -26.5 85.5t-79.5 25.5h-82v186q233 -6 366 -6q58 0 145 1.5t152.5 3t69.5 1.5q-1 -22 -1 -93t1 -93h-66q-55 0 -79 -23.5t-27 -87.5q-1 -51 -1 -340.5t1 -361.5q3 -220 -139.5 -335.5t-393.5 -115.5q-198 0 -306.5 90.5t-108.5 231.5q0 90 52.5 146t145.5 56
q80 0 128.5 -44.5t48.5 -120.5z" />
    <glyph glyph-name="jcircumflex" unicode="&#x135;" horiz-adv-x="628" 
d="M125 -188q0 -53 -40 -91t-118 -26q40 -29 96 -29q73 0 110 49.5t40 169.5q2 126 2.5 437.5t-2.5 382.5q-6 98 -94 98h-37q4 77 0 155q366 0 459 7v-940q0 -220 -101 -328.5t-293 -108.5q-135 0 -214.5 55t-79.5 150q0 68 38 106t107 38q59 0 93 -33.5t34 -91.5zM639 1083
l-18 -22q-61 21 -147 69.5t-142 94.5q-53 -45 -138.5 -94t-142.5 -68l-18 20q32 78 99 158.5t136 140.5h138q61 -49 127.5 -131.5t105.5 -167.5z" />
    <glyph glyph-name="Kcommaaccent" unicode="&#x136;" horiz-adv-x="1718" 
d="M696 -532q221 52 234 229q-29 -53 -99 -53q-46 0 -71 28.5t-25 83.5q0 56 35 90.5t94 34.5q63 0 96 -42.5t33 -112.5q0 -115 -76.5 -193t-209.5 -106zM57 -4q3 44 3 91.5t-2 72.5l-1 26h74q68 0 92 24.5t29 90.5q6 81 5.5 407t-5.5 404q-3 61 -29.5 88t-89.5 27h-76
q2 41 2 87.5t-1 72.5l-1 26q242 -6 377 -6q59 0 148.5 1.5t156 3t70.5 1.5q-1 -22 -1 -93t1 -93h-86q-54 0 -78 -27t-29 -88q-4 -49 -4 -397l430 370q29 25 33.5 58.5t-19 58.5t-67.5 25h-78q2 41 2 87.5t-1 72.5l-1 26q242 -6 375 -6q60 0 146.5 1.5t150 3t66.5 1.5
q-4 -92 0 -186h-74q-101 0 -174.5 -33.5t-165.5 -110.5l-201 -168q68 -107 217 -333.5t179 -264.5q5 -6 19.5 -24.5t18.5 -23t16 -19t16 -18t15 -13.5t17 -12.5t17 -8.5t20 -7.5t21.5 -3t25.5 -1.5h45q-4 -92 0 -188q-242 6 -379 6l-381 -6q1 22 1 94t-1 94h53q42 0 61 19
t13.5 53.5t-33.5 81.5q-19 33 -99.5 155.5t-131.5 192.5l-152 -127q0 -182 4 -260q3 -64 23.5 -89.5t79.5 -25.5h82q-1 -22 -1 -95t1 -95q-238 4 -371 4z" />
    <glyph glyph-name="kcommaaccent" unicode="&#x137;" horiz-adv-x="1298" 
d="M465 -532q220 51 233 229q-29 -53 -98 -53q-46 0 -71 28.5t-25 83.5q0 56 35 90.5t94 34.5q63 0 96 -42.5t33 -112.5q0 -115 -77 -193t-210 -106zM492 1417q-5 -193 -5 -901l232 174q55 41 45 77t-74 36h-33q1 19 1 80t-1 78q189 -7 295 -7q47 0 116.5 2t122 3.5
t56.5 1.5q-4 -80 0 -158h-41q-90 0 -149 -23t-162 -94l-55 -37q158 -281 229 -377q48 -62 86 -89t90 -27h19q-4 -82 0 -162q-5 0 -59.5 1.5t-127 3t-121.5 1.5q-48 0 -121.5 -1.5t-128 -3t-55.5 -1.5q2 36 2 76.5t-1 63.5l-1 22h25q42 0 48 32t-24 86q-58 104 -125 197
l-86 -57q0 -80 3 -138q3 -66 24 -93t68 -27h24q-4 -82 0 -162q-5 0 -55.5 1.5t-117.5 3t-113 1.5t-115.5 -1.5t-121.5 -3t-54 -1.5q1 19 1 76.5t-1 85.5h30q58 0 79 25.5t24 94.5q3 71 3.5 433.5t-3.5 427.5q-3 66 -22.5 93t-80.5 27h-26v156q297 0 457 4z" />
    <glyph glyph-name="kgreenlandic" unicode="&#x138;" horiz-adv-x="1298" 
d="M492 963q-5 -317 -5 -447l234 174q55 41 44 77t-75 36h-33q1 19 1 80t-1 78q189 -7 295 -7q47 0 116.5 2t122 3.5t56.5 1.5q-4 -82 0 -158h-41q-90 0 -149 -23t-162 -94l-55 -37q172 -307 229 -377q45 -62 84 -89t92 -27h19v-162q-5 0 -59.5 1.5t-127 3t-121.5 1.5
q-48 0 -121.5 -1.5t-128 -3t-55.5 -1.5v162h25q42 0 48.5 33t-24.5 85q-84 140 -125 197l-88 -57q0 -46 5 -138q3 -66 24 -93t68 -27h24q-2 -84 0 -162q-5 0 -55.5 1.5t-117.5 3t-113 1.5t-115.5 -1.5t-121.5 -3t-54 -1.5q1 19 1 76.5t-1 85.5h30q58 0 79 25.5t24 94.5
q3 72 3.5 206t-3.5 200q-3 66 -23 93.5t-80 27.5h-26q2 35 2 73.5t-1 59.5l-1 22q257 0 457 5z" />
    <glyph glyph-name="Lacute" unicode="&#x139;" horiz-adv-x="1357" 
d="M412 1520l-17 24q59 79 131 155t131 113q39 20 74 20.5t55 -18.5t27 -44t-9.5 -56.5t-53.5 -54.5q-140 -88 -338 -139zM829 1413q-2 -29 -2 -186h-84q-62 0 -90.5 -27t-31.5 -94q-5 -83 -5 -397.5t5 -415.5q3 -61 30.5 -84t85.5 -23h111q59 0 99.5 9t75.5 34.5t56 71
t34 117.5t17 176q20 -2 91.5 -2t91.5 2q-6 -112 -9.5 -304t-0.5 -298q-127 8 -420 8h-471q-183 0 -355 -4v190h84q67 0 89.5 26t25.5 93q4 97 4 411t-4 390q-5 63 -28.5 92t-77.5 29h-89v186q248 -6 385 -6q60 0 150 1.5t158 3t75 1.5z" />
    <glyph glyph-name="lacute" unicode="&#x13a;" horiz-adv-x="653" 
d="M260 1468l-16 25q59 79 131 155t131 113q39 20 74 20.5t54.5 -18.5t26.5 -44t-9.5 -56.5t-53.5 -54.5q-65 -41 -160 -80t-178 -60zM492 1419q-2 -119 -2.5 -586.5t2.5 -556.5q3 -68 25 -94t79 -26h31q-1 -28 -1 -85.5t1 -76.5q-6 0 -58.5 1.5t-122 3t-116.5 1.5
q-48 0 -120 -1.5t-125 -3t-54 -1.5q1 19 1 76.5t-1 85.5h30q58 0 79 25.5t24 94.5q3 66 3 436t-3 427q-3 63 -24 90.5t-81 27.5h-24q2 34 2 73t-1 61l-1 22q377 0 457 6z" />
    <glyph glyph-name="Lcommaaccent" unicode="&#x13b;" horiz-adv-x="1357" 
d="M502 -532q220 51 233 229q-29 -53 -98 -53q-46 0 -71 28.5t-25 83.5q0 56 35 90.5t94 34.5q63 0 96 -42.5t33 -112.5q0 -115 -77 -193t-210 -106zM829 1413q-2 -29 -2 -186h-84q-62 0 -90.5 -27t-31.5 -94q-5 -83 -5 -397.5t5 -415.5q3 -61 30.5 -84t85.5 -23h111
q59 0 99.5 9t75.5 34.5t56 71t34 117.5t17 176q20 -2 91.5 -2t91.5 2q-6 -112 -9.5 -304t-0.5 -298q-127 8 -420 8h-471q-183 0 -355 -4v190h84q67 0 89.5 26t25.5 93q4 97 4 411t-4 390q-5 63 -28.5 92t-77.5 29h-89v186q248 -6 385 -6q60 0 150 1.5t158 3t75 1.5z" />
    <glyph glyph-name="lcommaaccent" unicode="&#x13c;" horiz-adv-x="653" 
d="M166 -532q220 51 233 229q-29 -53 -98 -53q-46 0 -71 28.5t-25 83.5q0 56 35 90.5t94 34.5q63 0 96 -42.5t33 -112.5q0 -115 -77 -193t-210 -106zM492 1419q-2 -119 -2.5 -586.5t2.5 -556.5q3 -68 25 -94t79 -26h31q-1 -28 -1 -85.5t1 -76.5q-6 0 -58.5 1.5t-122 3
t-116.5 1.5q-48 0 -120 -1.5t-125 -3t-54 -1.5q1 19 1 76.5t-1 85.5h30q58 0 79 25.5t24 94.5q3 66 3 436t-3 427q-3 63 -24 90.5t-81 27.5h-24q2 34 2 73t-1 61l-1 22q377 0 457 6z" />
    <glyph glyph-name="Lcaron" unicode="&#x13d;" horiz-adv-x="1357" 
d="M973 1032q220 51 233 230q-29 -54 -98 -54q-46 0 -71 29t-25 84q0 56 35 90.5t94 34.5q62 0 95.5 -43t33.5 -113q0 -115 -77 -193t-210 -106zM829 1413q-2 -29 -2 -186h-84q-62 0 -90.5 -27t-31.5 -94q-5 -83 -5 -397.5t5 -415.5q3 -61 30.5 -84t85.5 -23h111
q59 0 99.5 9t75.5 34.5t56 71t34 117.5t17 176q20 -2 91.5 -2t91.5 2q-6 -112 -9.5 -304t-0.5 -298q-127 8 -420 8h-471q-183 0 -355 -4v190h84q67 0 89.5 26t25.5 93q4 97 4 411t-4 390q-5 63 -28.5 92t-77.5 29h-89v186q248 -6 385 -6q60 0 150 1.5t158 3t75 1.5z" />
    <glyph glyph-name="lcaron" unicode="&#x13e;" horiz-adv-x="903" 
d="M565 1001q221 52 234 230q-29 -53 -99 -53q-46 0 -71 28.5t-25 83.5q0 56 35 90.5t94 34.5q63 0 96 -42.5t33 -112.5q0 -115 -77 -193t-210 -106zM492 1419q-2 -119 -2.5 -586.5t2.5 -556.5q3 -68 25 -94t79 -26h31q-1 -28 -1 -85.5t1 -76.5q-6 0 -58.5 1.5t-122 3
t-116.5 1.5q-48 0 -120 -1.5t-125 -3t-54 -1.5q1 19 1 76.5t-1 85.5h30q58 0 79 25.5t24 94.5q3 66 3 436t-3 427q-3 63 -24 90.5t-81 27.5h-24q2 34 2 73t-1 61l-1 22q377 0 457 6z" />
    <glyph glyph-name="Ldot" unicode="&#x13f;" horiz-adv-x="1357" 
d="M829 1413q-2 -29 -2 -186h-84q-62 0 -90.5 -27t-31.5 -94q-5 -83 -5 -397.5t5 -415.5q3 -61 30.5 -84t85.5 -23h111q59 0 99.5 9t75.5 34.5t56 71t34 117.5t17 176q20 -2 91.5 -2t91.5 2q-6 -112 -9.5 -304t-0.5 -298q-127 8 -420 8h-471q-183 0 -355 -4v190h84
q67 0 89.5 26t25.5 93q4 97 4 411t-4 390q-5 63 -28.5 92t-77.5 29h-89v186q248 -6 385 -6q60 0 150 1.5t158 3t75 1.5zM1102 801q0 -60 -36 -96.5t-95 -36.5q-57 0 -93 36.5t-36 96.5q0 58 36 93.5t93 35.5q59 0 95 -35.5t36 -93.5z" />
    <glyph glyph-name="ldot" unicode="&#x140;" horiz-adv-x="892" 
d="M492 1419q-2 -119 -2.5 -586.5t2.5 -556.5q3 -68 25 -94t79 -26h31q-1 -28 -1 -85.5t1 -76.5q-6 0 -58.5 1.5t-122 3t-116.5 1.5q-48 0 -120 -1.5t-125 -3t-54 -1.5q1 19 1 76.5t-1 85.5h30q58 0 79 25.5t24 94.5q3 66 3 436t-3 427q-3 63 -24 90.5t-81 27.5h-24
q2 34 2 73t-1 61l-1 22q377 0 457 6zM897 676q0 -60 -36 -96.5t-95 -36.5q-57 0 -93 36.5t-36 96.5q0 58 36 93.5t93 35.5q59 0 95 -35.5t36 -93.5z" />
    <glyph glyph-name="Lslash" unicode="&#x141;" horiz-adv-x="1357" 
d="M829 1413q-2 -29 -2 -186h-84q-62 0 -90.5 -27t-31.5 -94q-5 -97 -5 -254q28 12 93.5 40t87.5 38l41 -111q-53 -18 -222 -86q0 -353 5 -440q3 -61 30.5 -84t85.5 -23h111q59 0 99.5 9t75.5 34.5t56 71t34 117.5t17 176q20 -2 91.5 -2t91.5 2q-6 -112 -9.5 -304t-0.5 -298
q-127 8 -420 8h-471q-183 0 -355 -4v190h84q67 0 89.5 26t25.5 93q4 94 4 281l-94 -41l-41 110l135 54q0 291 -4 397q-3 62 -27.5 91.5t-78.5 29.5h-89v186q248 -6 385 -6q60 0 150 1.5t158 3t75 1.5z" />
    <glyph glyph-name="lslash" unicode="&#x142;" horiz-adv-x="653" 
d="M492 1419q-3 -99 -3 -561l86 43l43 -108l-129 -56q0 -403 3 -461q3 -68 25 -94t79 -26h31q-1 -28 -1 -85.5t1 -76.5q-6 0 -58.5 1.5t-122 3t-116.5 1.5q-48 0 -120 -1.5t-125 -3t-54 -1.5q1 19 1 76.5t-1 85.5h30q58 0 79 25.5t24 94.5q2 35 2 314l-51 -25l-43 107
q23 8 94 41q0 387 -2 426q-3 63 -24 90.5t-81 27.5h-24v156q377 0 457 6z" />
    <glyph glyph-name="Nacute" unicode="&#x143;" horiz-adv-x="1699" 
d="M866 1520l-16 24q59 79 131 155t131 113q39 20 74 20.5t54.5 -18.5t26.5 -44t-9.5 -56.5t-53.5 -54.5q-140 -88 -338 -139zM643 1413q94 -148 273 -414.5t315 -461.5q2 118 1.5 302t-3.5 257q-3 72 -33 101.5t-88 29.5h-107q1 22 1 93t-1 93q5 0 62 -1.5t133 -3t127 -1.5
l322 6q-1 -22 -1 -93t1 -93h-91q-57 0 -86.5 -30t-33.5 -101q-4 -88 -4 -484.5t4 -611.5q-151 8 -301 0q-273 426 -662 995q-4 -496 4 -690q3 -62 32 -90.5t97 -28.5h103q-4 -98 0 -190q-207 4 -324 4l-326 -4q2 42 2 89.5t-1 74.5l-1 26h82q68 0 98 29t33 90q5 100 5.5 409
t-5.5 392q-9 121 -123 121h-88q3 40 3 86.5t-2 72.5l-1 27q290 -8 584 0z" />
    <glyph glyph-name="nacute" unicode="&#x144;" horiz-adv-x="1292" 
d="M633 1067l-17 25q58 78 131 154.5t132 113.5q32 18 62.5 20t51 -8.5t32 -30t11 -42.5t-17 -48t-47.5 -45q-140 -88 -338 -139zM1126 610q0 -27 -0.5 -106.5t-0.5 -140.5t1 -87q3 -69 25 -94.5t82 -25.5h22q-1 -28 -1 -85.5t1 -76.5q-5 0 -56 1.5t-118.5 3t-113.5 1.5
t-115.5 -1.5t-120.5 -3t-53 -1.5q2 19 2 76.5t-2 85.5h27q49 0 70 27t24 93q7 148 0 322q-3 106 -34.5 158.5t-105.5 52.5q-167 0 -167 -287v-246q0 -68 22 -94t74 -26h28q-2 -28 -2 -85.5t2 -76.5q-5 0 -56.5 1.5t-119.5 3t-114 1.5t-116.5 -1.5t-123.5 -3t-55 -1.5
q1 19 1 81t-1 81h30q59 0 79.5 25t23.5 95q4 73 4 215t-4 197q-3 62 -23.5 88.5t-81.5 26.5h-24v155q364 0 457 7v-207q69 229 315 229q326 0 319 -377z" />
    <glyph glyph-name="Ncommaaccent" unicode="&#x145;" horiz-adv-x="1699" 
d="M698 -532q221 52 234 229q-29 -53 -98 -53q-46 0 -71.5 28.5t-25.5 83.5q0 56 35 90.5t94 34.5q63 0 96 -42.5t33 -112.5q0 -115 -76.5 -193t-209.5 -106zM643 1413q94 -148 273 -414.5t315 -461.5q2 118 1.5 302t-3.5 257q-3 72 -33 101.5t-88 29.5h-107q1 22 1 93
t-1 93q5 0 62 -1.5t133 -3t127 -1.5l322 6q-1 -22 -1 -93t1 -93h-91q-57 0 -86.5 -30t-33.5 -101q-4 -88 -4 -484.5t4 -611.5q-151 8 -301 0q-273 426 -662 995q-4 -496 4 -690q3 -62 32 -90.5t97 -28.5h103q-4 -98 0 -190q-207 4 -324 4l-326 -4q2 42 2 89.5t-1 74.5l-1 26
h82q68 0 98 29t33 90q5 100 5.5 409t-5.5 392q-9 121 -123 121h-88q3 40 3 86.5t-2 72.5l-1 27q290 -8 584 0z" />
    <glyph glyph-name="ncommaaccent" unicode="&#x146;" horiz-adv-x="1292" 
d="M481 -532q221 52 234 229q-29 -53 -99 -53q-46 0 -71 28.5t-25 83.5q0 56 35 90.5t94 34.5q63 0 96 -42.5t33 -112.5q0 -115 -76.5 -193t-209.5 -106zM1126 610q0 -27 -0.5 -106.5t-0.5 -140.5t1 -87q3 -69 25 -94.5t82 -25.5h22q-1 -28 -1 -85.5t1 -76.5q-5 0 -56 1.5
t-118.5 3t-113.5 1.5t-115.5 -1.5t-120.5 -3t-53 -1.5q2 19 2 76.5t-2 85.5h27q49 0 70 27t24 93q7 148 0 322q-3 106 -34.5 158.5t-105.5 52.5q-167 0 -167 -287v-246q0 -68 22 -94t74 -26h28q-2 -28 -2 -85.5t2 -76.5q-5 0 -56.5 1.5t-119.5 3t-114 1.5t-116.5 -1.5
t-123.5 -3t-55 -1.5q1 19 1 81t-1 81h30q59 0 79.5 25t23.5 95q4 73 4 215t-4 197q-3 62 -23.5 88.5t-81.5 26.5h-24v155q364 0 457 7v-207q69 229 315 229q326 0 319 -377z" />
    <glyph glyph-name="Ncaron" unicode="&#x147;" horiz-adv-x="1699" 
d="M588 1837l18 21q60 -19 146.5 -67.5t142.5 -94.5q53 43 138.5 92t142.5 70l18 -21q-32 -80 -100 -161.5t-136 -137.5h-137q-61 49 -127.5 131.5t-105.5 167.5zM643 1413q94 -148 273 -414.5t315 -461.5q2 118 1.5 302t-3.5 257q-3 72 -33 101.5t-88 29.5h-107q1 22 1 93
t-1 93q5 0 62 -1.5t133 -3t127 -1.5l322 6q-1 -22 -1 -93t1 -93h-91q-57 0 -86.5 -30t-33.5 -101q-4 -88 -4 -484.5t4 -611.5q-151 8 -301 0q-273 426 -662 995q-4 -496 4 -690q3 -62 32 -90.5t97 -28.5h103q-4 -98 0 -190q-207 4 -324 4l-326 -4q2 42 2 89.5t-1 74.5l-1 26
h82q68 0 98 29t33 90q5 100 5.5 409t-5.5 392q-9 121 -123 121h-88q3 40 3 86.5t-2 72.5l-1 27q290 -8 584 0z" />
    <glyph glyph-name="ncaron" unicode="&#x148;" horiz-adv-x="1292" 
d="M338 1384l18 21q60 -19 146.5 -67.5t142.5 -94.5q53 43 138.5 92t142.5 70l18 -21q-32 -80 -99.5 -161.5t-135.5 -137.5h-138q-61 49 -127.5 131.5t-105.5 167.5zM1126 610q0 -27 -0.5 -106.5t-0.5 -140.5t1 -87q3 -69 25 -94.5t82 -25.5h22q-1 -28 -1 -85.5t1 -76.5
q-5 0 -56 1.5t-118.5 3t-113.5 1.5t-115.5 -1.5t-120.5 -3t-53 -1.5q2 19 2 76.5t-2 85.5h27q49 0 70 27t24 93q7 148 0 322q-3 106 -34.5 158.5t-105.5 52.5q-167 0 -167 -287v-246q0 -68 22 -94t74 -26h28q-2 -28 -2 -85.5t2 -76.5q-5 0 -56.5 1.5t-119.5 3t-114 1.5
t-116.5 -1.5t-123.5 -3t-55 -1.5q1 19 1 81t-1 81h30q59 0 79.5 25t23.5 95q4 73 4 215t-4 197q-3 62 -23.5 88.5t-81.5 26.5h-24v155q364 0 457 7v-207q69 229 315 229q326 0 319 -377z" />
    <glyph glyph-name="napostrophe" unicode="&#x149;" horiz-adv-x="1292" 
d="M55 1069q221 52 234 229q-29 -53 -99 -53q-46 0 -71 29t-25 84q0 56 35 90.5t94 34.5q62 0 95.5 -43t33.5 -113q0 -115 -76.5 -193t-209.5 -106zM1126 610q0 -27 -0.5 -106.5t-0.5 -140.5t1 -87q3 -69 25 -94.5t82 -25.5h22q-1 -28 -1 -85.5t1 -76.5q-5 0 -56 1.5
t-118.5 3t-113.5 1.5t-115.5 -1.5t-120.5 -3t-53 -1.5q2 19 2 76.5t-2 85.5h27q49 0 70 27t24 93q7 148 0 322q-3 106 -34.5 158.5t-105.5 52.5q-167 0 -167 -287v-246q0 -68 22 -94t74 -26h28q-2 -28 -2 -85.5t2 -76.5q-5 0 -56.5 1.5t-119.5 3t-114 1.5t-116.5 -1.5
t-123.5 -3t-55 -1.5q1 19 1 81t-1 81h30q59 0 79.5 25t23.5 95q4 73 4 215t-4 197q-3 62 -23.5 88.5t-81.5 26.5h-24v155q364 0 457 7v-207q69 229 315 229q326 0 319 -377z" />
    <glyph glyph-name="Eng" unicode="&#x14a;" horiz-adv-x="1699" 
d="M643 1413q94 -148 273 -414.5t315 -461.5q2 118 1.5 302t-3.5 257q-3 72 -33 101.5t-88 29.5h-107q1 22 1 93t-1 93q5 0 62 -1.5t133 -3t127 -1.5l322 6q-1 -22 -1 -93t1 -93h-91q-57 0 -86.5 -30t-33.5 -101q-3 -52 -3 -249t1.5 -472.5t1.5 -364.5q0 -209 -104 -315.5
t-302 -106.5q-134 0 -213.5 55.5t-79.5 151.5q0 70 39.5 110t108.5 40q61 0 97 -34t36 -93q0 -54 -40 -93.5t-120 -29.5q44 -29 111 -29q34 0 62.5 4.5t61.5 20t56 42t38.5 74t16.5 111.5v84q-16 0 -38.5 -1t-30.5 -1q-273 426 -662 995q-4 -496 4 -690q3 -62 32 -90.5
t97 -28.5h103q-4 -98 0 -190q-207 4 -324 4l-326 -4q2 42 2 89.5t-1 74.5l-1 26h82q68 0 98 29t33 90q5 100 5.5 409t-5.5 392q-9 121 -123 121h-88q3 40 3 86.5t-2 72.5l-1 27q290 -8 584 0z" />
    <glyph glyph-name="eng" unicode="&#x14b;" horiz-adv-x="1204" 
d="M1126 610v-585q0 -220 -100.5 -328.5t-292.5 -108.5q-135 0 -216 54.5t-81 146.5q0 67 38 106t104 39q60 0 94.5 -33t34.5 -89q0 -53 -38.5 -91t-115.5 -28q42 -27 96 -27q73 0 110 49.5t40 169.5q1 72 1 362.5t-1 350.5q-3 106 -34.5 158.5t-105.5 52.5
q-167 0 -167 -287v-246q0 -68 22 -94t74 -26h28q-2 -28 -2 -85.5t2 -76.5q-5 0 -56.5 1.5t-119.5 3t-114 1.5t-116.5 -1.5t-123.5 -3t-55 -1.5q1 19 1 81t-1 81h30q59 0 79.5 25t23.5 95q4 73 4 215t-4 197q-3 62 -23.5 88.5t-81.5 26.5h-24v155q364 0 457 7v-207
q69 229 315 229q326 0 319 -377z" />
    <glyph glyph-name="Omacron" unicode="&#x14c;" horiz-adv-x="1601" 
d="M535 1554q4 81 0 166q94 -3 280.5 -3t280.5 3q-4 -83 0 -166q-94 3 -280.5 3t-280.5 -3zM801 152q170 0 237.5 129t67.5 428q0 307 -67 430t-238 123q-162 0 -232.5 -129.5t-70.5 -425.5q0 -310 64.5 -432.5t238.5 -122.5zM801 -37q-721 0 -721 744q0 185 52 327.5
t147.5 233t227 136.5t294.5 46q361 0 541 -182.5t180 -558.5q0 -188 -54 -332.5t-151.5 -234t-227.5 -134.5t-288 -45z" />
    <glyph glyph-name="omacron" unicode="&#x14d;" horiz-adv-x="1112" 
d="M291 1106q4 81 0 166q94 -3 280.5 -3t280.5 3q-4 -83 0 -166q-94 3 -280.5 3t-280.5 -3zM61 467q0 260 131.5 390t364.5 130q236 0 365 -129.5t129 -390.5q0 -253 -130 -379.5t-364 -126.5q-236 0 -366 127t-130 379zM403 467q0 -108 10 -177.5t31.5 -104.5t47.5 -47.5
t65 -12.5q38 0 63.5 12.5t47.5 47.5t32.5 105t10.5 177q0 143 -20 224.5t-52 108.5t-84 27t-83 -27t-50 -108t-19 -225z" />
    <glyph glyph-name="Obreve" unicode="&#x14e;" horiz-adv-x="1601" 
d="M801 152q170 0 237.5 129t67.5 428q0 307 -67 430t-238 123q-162 0 -232.5 -129.5t-70.5 -425.5q0 -310 64.5 -432.5t238.5 -122.5zM801 -37q-721 0 -721 744q0 185 52 327.5t147.5 233t227 136.5t294.5 46q361 0 541 -182.5t180 -558.5q0 -188 -54 -332.5t-151.5 -234
t-227.5 -134.5t-288 -45zM829 1528q-150 0 -224 84.5t-56 212.5l47 2q6 -71 65 -100t168 -29t168.5 29t65.5 100l47 -2q18 -128 -56 -212.5t-225 -84.5z" />
    <glyph glyph-name="obreve" unicode="&#x14f;" horiz-adv-x="1112" 
d="M61 467q0 260 131.5 390t364.5 130q236 0 365 -129.5t129 -390.5q0 -253 -130 -379.5t-364 -126.5q-236 0 -366 127t-130 379zM403 467q0 -108 10 -177.5t31.5 -104.5t47.5 -47.5t65 -12.5q38 0 63.5 12.5t47.5 47.5t32.5 105t10.5 177q0 143 -20 224.5t-52 108.5t-84 27
t-83 -27t-50 -108t-19 -225zM561 1085q-150 0 -224 84.5t-56 212.5l47 2q6 -71 65 -100t168 -29t168.5 29t65.5 100l47 -2q18 -128 -56 -212.5t-225 -84.5z" />
    <glyph glyph-name="Ohungarumlaut" unicode="&#x150;" horiz-adv-x="1601" 
d="M627 1528l-21 16q97 211 189 303q30 29 62.5 37.5t55.5 -3t36 -32.5t6.5 -52.5t-35.5 -61.5q-51 -52 -134.5 -110t-158.5 -97zM963 1528l-21 16q97 215 188 303q30 29 62.5 37.5t55.5 -3t36 -32.5t6.5 -52.5t-35.5 -61.5q-51 -52 -134 -110.5t-158 -96.5zM801 152
q170 0 237.5 129t67.5 428q0 307 -67 430t-238 123q-162 0 -232.5 -129.5t-70.5 -425.5q0 -310 64.5 -432.5t238.5 -122.5zM801 -37q-721 0 -721 744q0 185 52 327.5t147.5 233t227 136.5t294.5 46q361 0 541 -182.5t180 -558.5q0 -188 -54 -332.5t-151.5 -234
t-227.5 -134.5t-288 -45z" />
    <glyph glyph-name="ohungarumlaut" unicode="&#x151;" horiz-adv-x="1112" 
d="M369 1075l-21 17q97 211 189 303q30 29 62.5 37t55.5 -3.5t36 -32t6.5 -52.5t-35.5 -62q-51 -52 -134.5 -110t-158.5 -97zM705 1075l-21 17q97 215 188 303q30 29 62.5 37t55.5 -3.5t36 -32t6.5 -52.5t-35.5 -62q-51 -52 -134 -110.5t-158 -96.5zM61 467q0 260 131.5 390
t364.5 130q236 0 365 -129.5t129 -390.5q0 -253 -130 -379.5t-364 -126.5q-236 0 -366 127t-130 379zM403 467q0 -108 10 -177.5t31.5 -104.5t47.5 -47.5t65 -12.5q38 0 63.5 12.5t47.5 47.5t32.5 105t10.5 177q0 143 -20 224.5t-52 108.5t-84 27t-83 -27t-50 -108t-19 -225
z" />
    <glyph glyph-name="OE" unicode="&#x152;" horiz-adv-x="2291" 
d="M801 152q207 0 235 129q14 69 13.5 428.5t-13.5 431.5q-21 119 -235 119q-164 0 -233.5 -125t-69.5 -428q0 -128 9 -218t29.5 -157t56 -105t86 -56.5t122.5 -18.5zM1477 651h-64q0 -289 4 -342q4 -68 34.5 -95.5t88.5 -27.5h213q153 0 216 79t63 272v20q25 -1 101 -1
t101 1q-20 -217 -20 -565q-96 8 -420 8q-509 2 -577 2q-3 0 -58.5 -1t-87.5 -1q-125 -41 -291 -41q-356 0 -528 181t-172 567q0 188 52 332t148 234t227 135.5t294 45.5q173 0 303 -43q32 0 81 -1t56 -1q24 0 186.5 1t329.5 1q373 0 469 12q-16 -205 -12 -530q-23 1 -94.5 1
t-94.5 -1v14q0 97 -16.5 159.5t-52.5 96.5t-83 47t-118 13h-221q-111 0 -117 -115q-4 -59 -4 -334h68q108 0 152 45.5t44 153.5v53q33 -2 71 -2t60 1l21 1q-1 -40 -4 -94.5t-4.5 -103t-1.5 -115.5q0 -147 10 -320q-76 4 -148 0v47q-2 115 -45 163t-159 48z" />
    <glyph glyph-name="oe" unicode="&#x153;" horiz-adv-x="1697" 
d="M1632 307q-18 -161 -128 -253.5t-312 -92.5q-194 0 -318 88q-127 -88 -317 -88q-237 0 -366.5 125.5t-129.5 384.5q0 254 130.5 385t365.5 131q204 0 328 -100q124 100 311 100q122 0 212 -41.5t142 -117.5t74 -176.5t14 -223.5h-587q5 -159 43 -223t131 -64
q86 0 128 44.5t56 136.5q3 0 101 -8t122 -7zM403 469q0 -107 10 -177t31.5 -105.5t47.5 -48.5t65 -13q38 0 63.5 13t47.5 48.5t32.5 105.5t10.5 177q0 144 -20 225t-52 107t-84 26t-83 -26t-50 -106.5t-19 -225.5zM1184 823q-68 0 -100 -67t-33 -244h206q28 0 37 10.5
t9 44.5q0 256 -119 256z" />
    <glyph glyph-name="Racute" unicode="&#x154;" horiz-adv-x="1632" 
d="M727 1520l-16 24q59 79 131 155t131 113q39 20 74 20.5t54.5 -18.5t26.5 -44t-9.5 -56.5t-53.5 -54.5q-140 -88 -338 -139zM1319 377q19 -136 44 -181.5t69 -45.5q50 0 62 71t-15 193q62 0 102 8q18 -76 20.5 -143t-14 -127.5t-52 -104t-99 -69t-150.5 -25.5
q-103 0 -172.5 25t-108.5 77.5t-56 119t-23 165.5q-4 86 -21.5 141.5t-50.5 84.5t-72 39.5t-98 10.5h-66q0 -234 7 -309q6 -65 33.5 -94t82.5 -29h72v-188q-311 4 -377 4l-379 -4v190h74q62 0 90.5 27.5t32.5 93.5q4 77 4 404.5t-4 404.5q-5 61 -27 86t-77 25h-93v186
q11 0 183.5 -2t218.5 -2q41 0 192.5 1t227.5 1q254 0 390 -97.5t136 -283.5q0 -147 -96.5 -244t-255.5 -114q129 -25 189.5 -98.5t76.5 -196.5zM625 1155q-7 -231 -7 -399h119q143 0 200.5 55.5t57.5 187.5q0 126 -49.5 182t-171.5 56h-69q-77 0 -80 -82z" />
    <glyph glyph-name="racute" unicode="&#x155;" horiz-adv-x="950" 
d="M426 1067l-16 25q59 79 131 155t131 113q32 18 62.5 20t51 -8.5t32 -30t11 -42.5t-17 -48t-47.5 -45q-140 -88 -338 -139zM690 879q-94 0 -145 -78t-51 -228v-311q0 -64 22.5 -85t87.5 -21h45v-162q-5 0 -59 1.5t-126.5 3t-121.5 1.5t-123 -1.5t-129 -3t-57 -1.5
q1 19 1 76.5t-1 85.5h30q60 0 80.5 22t22.5 84q2 65 2 227.5t-2 206.5q-2 58 -23.5 82.5t-81.5 24.5h-24v155q319 0 412 7l-17 -230q27 122 96.5 187t178.5 65q107 0 166 -57.5t59 -161.5q0 -88 -44 -136t-124 -48q-70 0 -110 36t-40 99q0 70 49 107t115 32q-40 21 -88 21z
" />
    <glyph glyph-name="Rcommaaccent" unicode="&#x156;" horiz-adv-x="1632" 
d="M674 -532q220 51 233 229q-29 -53 -98 -53q-46 0 -71 28.5t-25 83.5q0 56 35 90.5t94 34.5q63 0 96 -42.5t33 -112.5q0 -115 -77 -193t-210 -106zM1319 377q19 -136 44 -181.5t69 -45.5q50 0 62 71t-15 193q62 0 102 8q18 -76 20.5 -143t-14 -127.5t-52 -104t-99 -69
t-150.5 -25.5q-103 0 -172.5 25t-108.5 77.5t-56 119t-23 165.5q-4 86 -21.5 141.5t-50.5 84.5t-72 39.5t-98 10.5h-66q0 -234 7 -309q6 -65 33.5 -94t82.5 -29h72v-188q-311 4 -377 4l-379 -4v190h74q62 0 90.5 27.5t32.5 93.5q4 77 4 404.5t-4 404.5q-5 61 -27 86t-77 25
h-93v186q11 0 183.5 -2t218.5 -2q41 0 192.5 1t227.5 1q254 0 390 -97.5t136 -283.5q0 -147 -96.5 -244t-255.5 -114q129 -25 189.5 -98.5t76.5 -196.5zM625 1155q-7 -231 -7 -399h119q143 0 200.5 55.5t57.5 187.5q0 126 -49.5 182t-171.5 56h-69q-77 0 -80 -82z" />
    <glyph glyph-name="rcommaaccent" unicode="&#x157;" horiz-adv-x="950" 
d="M158 -532q220 51 233 229q-29 -53 -98 -53q-46 0 -71 28.5t-25 83.5q0 56 35 90.5t94 34.5q63 0 96 -42.5t33 -112.5q0 -115 -77 -193t-210 -106zM690 879q-94 0 -145 -78t-51 -228v-311q0 -64 22.5 -85t87.5 -21h45v-162q-5 0 -59 1.5t-126.5 3t-121.5 1.5t-123 -1.5
t-129 -3t-57 -1.5q1 19 1 76.5t-1 85.5h30q60 0 80.5 22t22.5 84q2 65 2 227.5t-2 206.5q-2 58 -23.5 82.5t-81.5 24.5h-24v155q319 0 412 7l-17 -230q27 122 96.5 187t178.5 65q107 0 166 -57.5t59 -161.5q0 -88 -44 -136t-124 -48q-70 0 -110 36t-40 99q0 70 49 107
t115 32q-40 21 -88 21z" />
    <glyph glyph-name="Rcaron" unicode="&#x158;" horiz-adv-x="1632" 
d="M463 1837l18 21q60 -19 146.5 -67.5t142.5 -94.5q53 43 138.5 92t142.5 70l18 -21q-32 -80 -99.5 -161.5t-135.5 -137.5h-138q-61 49 -127.5 131.5t-105.5 167.5zM1319 377q19 -136 44 -181.5t69 -45.5q50 0 62 71t-15 193q62 0 102 8q18 -76 20.5 -143t-14 -127.5
t-52 -104t-99 -69t-150.5 -25.5q-103 0 -172.5 25t-108.5 77.5t-56 119t-23 165.5q-4 86 -21.5 141.5t-50.5 84.5t-72 39.5t-98 10.5h-66q0 -234 7 -309q6 -65 33.5 -94t82.5 -29h72v-188q-311 4 -377 4l-379 -4v190h74q62 0 90.5 27.5t32.5 93.5q4 77 4 404.5t-4 404.5
q-5 61 -27 86t-77 25h-93v186q11 0 183.5 -2t218.5 -2q41 0 192.5 1t227.5 1q254 0 390 -97.5t136 -283.5q0 -147 -96.5 -244t-255.5 -114q129 -25 189.5 -98.5t76.5 -196.5zM625 1155q-7 -231 -7 -399h119q143 0 200.5 55.5t57.5 187.5q0 126 -49.5 182t-171.5 56h-69
q-77 0 -80 -82z" />
    <glyph glyph-name="rcaron" unicode="&#x159;" horiz-adv-x="950" 
d="M168 1384l18 21q60 -19 146.5 -67.5t142.5 -94.5q53 43 138.5 92t142.5 70l18 -21q-32 -80 -99.5 -161.5t-135.5 -137.5h-138q-61 49 -127.5 131.5t-105.5 167.5zM690 879q-94 0 -145 -78t-51 -228v-311q0 -64 22.5 -85t87.5 -21h45v-162q-5 0 -59 1.5t-126.5 3
t-121.5 1.5t-123 -1.5t-129 -3t-57 -1.5q1 19 1 76.5t-1 85.5h30q60 0 80.5 22t22.5 84q2 65 2 227.5t-2 206.5q-2 58 -23.5 82.5t-81.5 24.5h-24v155q319 0 412 7l-17 -230q27 122 96.5 187t178.5 65q107 0 166 -57.5t59 -161.5q0 -88 -44 -136t-124 -48q-70 0 -110 36
t-40 99q0 70 49 107t115 32q-40 21 -88 21z" />
    <glyph glyph-name="Sacute" unicode="&#x15a;" horiz-adv-x="1394" 
d="M678 1520l-16 24q59 79 131 155t131 113q39 20 74 20.5t54.5 -18.5t26.5 -44t-9.5 -56.5t-53.5 -54.5q-140 -88 -338 -139zM696 1270q-147 0 -217.5 -46t-70.5 -120q0 -80 76 -115.5t278 -54.5q289 -27 434 -139.5t145 -341.5q0 -234 -152 -362t-429 -128
q-125 0 -216.5 24t-183.5 74q-41 25 -67.5 18t-39 -29t-17.5 -62q-14 2 -78 2t-78 -2q14 106 19 241.5t-1 237.5q15 -1 75 -1t75 1q98 -326 508 -326q151 0 230 48t79 135q0 88 -89.5 128.5t-309.5 63.5q-543 48 -543 453q0 102 34 188.5t99 152.5t170 103t238 37
q197 0 346 -78q36 -18 58.5 -22.5t35.5 6.5t18.5 25.5t10.5 43.5q12 -1 73.5 -1t73.5 1q-17 -84 -21.5 -216t3.5 -222q-3 0 -40 0.5t-68 0.5t-40 -1q-88 283 -418 283z" />
    <glyph glyph-name="sacute" unicode="&#x15b;" horiz-adv-x="987" 
d="M428 1067l-16 25q59 79 131 155t131 113q32 18 62.5 20t51 -8.5t32 -30t11 -42.5t-17 -48t-47.5 -45q-140 -88 -338 -139zM485 844q-88 0 -129 -27t-41 -67q0 -34 19 -53.5t75 -34.5t162 -25q367 -38 367 -338q0 -159 -99 -248.5t-296 -89.5q-150 0 -283 86
q-26 16 -44.5 19t-29 -7.5t-16.5 -25.5t-10 -41q-56 8 -111 0q25 192 17 340q55 -8 110 0q46 -106 133 -169t205 -63q86 0 128 28.5t42 74.5q0 44 -46.5 68.5t-180.5 37.5q-207 18 -301.5 110t-94.5 232q0 150 113.5 244.5t302.5 91.5q126 -3 219 -63q30 -18 47 -18t25 14.5
t14 50.5q53 -8 107 0q-17 -150 -17 -299q-54 4 -112 0q-70 172 -275 172z" />
    <glyph glyph-name="Scircumflex" unicode="&#x15c;" horiz-adv-x="1394" 
d="M981 1526l-18 -23q-61 21 -147 69.5t-142 94.5q-53 -45 -138.5 -94t-142.5 -68l-18 21q32 78 99 158.5t136 140.5h138q61 -49 127.5 -131.5t105.5 -167.5zM696 1270q-147 0 -217.5 -46t-70.5 -120q0 -80 76 -115.5t278 -54.5q289 -27 434 -139.5t145 -341.5
q0 -234 -152 -362t-429 -128q-125 0 -216.5 24t-183.5 74q-41 25 -67.5 18t-39 -29t-17.5 -62q-14 2 -78 2t-78 -2q14 106 19 241.5t-1 237.5q15 -1 75 -1t75 1q98 -326 508 -326q151 0 230 48t79 135q0 88 -89.5 128.5t-309.5 63.5q-543 48 -543 453q0 102 34 188.5
t99 152.5t170 103t238 37q197 0 346 -78q36 -18 58.5 -22.5t35.5 6.5t18.5 25.5t10.5 43.5q12 -1 73.5 -1t73.5 1q-17 -84 -21.5 -216t3.5 -222q-3 0 -40 0.5t-68 0.5t-40 -1q-88 283 -418 283z" />
    <glyph glyph-name="scircumflex" unicode="&#x15d;" horiz-adv-x="987" 
d="M799 1083l-19 -22q-61 21 -146.5 69t-141.5 95q-53 -45 -138.5 -94t-142.5 -68l-18 20q32 78 99 158.5t136 140.5h137q62 -49 128.5 -131.5t105.5 -167.5zM485 844q-88 0 -129 -27t-41 -67q0 -34 19 -53.5t75 -34.5t162 -25q367 -38 367 -338q0 -159 -99 -248.5
t-296 -89.5q-150 0 -283 86q-26 16 -44.5 19t-29 -7.5t-16.5 -25.5t-10 -41q-56 8 -111 0q25 192 17 340q55 -8 110 0q46 -106 133 -169t205 -63q86 0 128 28.5t42 74.5q0 44 -46.5 68.5t-180.5 37.5q-207 18 -301.5 110t-94.5 232q0 150 113.5 244.5t302.5 91.5
q126 -3 219 -63q30 -18 47 -18t25 14.5t14 50.5q53 -8 107 0q-17 -150 -17 -299q-54 4 -112 0q-70 172 -275 172z" />
    <glyph glyph-name="Scedilla" unicode="&#x15e;" horiz-adv-x="1394" 
d="M598 -227l-25 47q57 27 90 61t46 84q-188 8 -349 96q-41 25 -67.5 18t-39 -29t-17.5 -62q-14 2 -78 2t-78 -2q14 106 19 241.5t-1 237.5q15 -1 75 -1t75 1q98 -326 508 -326q151 0 230 48t79 135q0 88 -89.5 128.5t-309.5 63.5q-543 48 -543 453q0 102 34 188.5t99 152.5
t170 103t238 37q197 0 346 -78q36 -18 58.5 -22.5t35.5 6.5t18.5 25.5t10.5 43.5q12 -1 73.5 -1t73.5 1q-17 -84 -21.5 -216t3.5 -222q-3 0 -40 0.5t-68 0.5t-40 -1q-88 283 -418 283q-147 0 -217.5 -46t-70.5 -120q0 -80 76 -115.5t278 -54.5q289 -27 434 -139.5
t145 -341.5q0 -231 -148 -358t-417 -132q-6 -59 -55 -108q92 8 159.5 -34t67.5 -128q0 -91 -65.5 -143t-180.5 -52q-83 0 -140.5 35.5t-86.5 85.5l47 41q59 -72 135 -72q56 0 84.5 29t28.5 78q0 59 -51 82t-121 -4z" />
    <glyph glyph-name="scedilla" unicode="&#x15f;" horiz-adv-x="987" 
d="M367 -227l-25 47q57 27 89.5 61t45.5 84q-115 15 -217 82q-26 16 -44.5 19t-29 -7.5t-16.5 -25.5t-10 -41q-56 8 -111 0q25 192 17 340q55 -8 110 0q46 -106 133 -169t205 -63q86 0 128 28.5t42 74.5q0 44 -47 69.5t-180 36.5q-107 10 -185 40.5t-123.5 77t-66.5 102
t-21 122.5q0 150 113.5 244.5t302.5 91.5q126 -3 219 -63q30 -18 47 -18t25 14.5t14 50.5q53 -8 107 0q-17 -150 -17 -299q-54 4 -112 0q-70 172 -275 172q-88 0 -129 -27t-41 -67q0 -34 19 -53.5t75 -34.5t162 -25q367 -38 367 -338q0 -158 -98.5 -247.5t-294.5 -90.5
q-9 -59 -56 -106q92 8 160 -34t68 -128q0 -91 -65.5 -143t-180.5 -52q-83 0 -140.5 35.5t-86.5 85.5l47 41q59 -72 135 -72q56 0 84.5 29t28.5 78q0 59 -50.5 82t-121.5 -4z" />
    <glyph glyph-name="Scaron" unicode="&#x160;" horiz-adv-x="1394" 
d="M395 1837l19 21q60 -19 146 -67.5t142 -94.5q53 43 138.5 92t142.5 70l18 -21q-32 -80 -99.5 -161.5t-135.5 -137.5h-137q-62 49 -128.5 131.5t-105.5 167.5zM696 1270q-147 0 -217.5 -46t-70.5 -120q0 -80 76 -115.5t278 -54.5q289 -27 434 -139.5t145 -341.5
q0 -234 -152 -362t-429 -128q-125 0 -216.5 24t-183.5 74q-41 25 -67.5 18t-39 -29t-17.5 -62q-14 2 -78 2t-78 -2q14 106 19 241.5t-1 237.5q15 -1 75 -1t75 1q98 -326 508 -326q151 0 230 48t79 135q0 88 -89.5 128.5t-309.5 63.5q-543 48 -543 453q0 102 34 188.5
t99 152.5t170 103t238 37q197 0 346 -78q36 -18 58.5 -22.5t35.5 6.5t18.5 25.5t10.5 43.5q12 -1 73.5 -1t73.5 1q-17 -84 -21.5 -216t3.5 -222q-3 0 -40 0.5t-68 0.5t-40 -1q-88 283 -418 283z" />
    <glyph glyph-name="scaron" unicode="&#x161;" horiz-adv-x="987" 
d="M188 1384l19 21q60 -19 146.5 -67.5t142.5 -94.5q53 43 138 92t142 70l19 -21q-32 -80 -100 -161.5t-136 -137.5h-137q-62 49 -128.5 131.5t-105.5 167.5zM485 844q-88 0 -129 -27t-41 -67q0 -34 19 -53.5t75 -34.5t162 -25q367 -38 367 -338q0 -159 -99 -248.5
t-296 -89.5q-150 0 -283 86q-26 16 -44.5 19t-29 -7.5t-16.5 -25.5t-10 -41q-56 8 -111 0q25 192 17 340q55 -8 110 0q46 -106 133 -169t205 -63q86 0 128 28.5t42 74.5q0 44 -46.5 68.5t-180.5 37.5q-207 18 -301.5 110t-94.5 232q0 150 113.5 244.5t302.5 91.5
q126 -3 219 -63q30 -18 47 -18t25 14.5t14 50.5q53 -8 107 0q-17 -150 -17 -299q-54 4 -112 0q-70 172 -275 172z" />
    <glyph glyph-name="Tcommaaccent" unicode="&#x162;" horiz-adv-x="1495" 
d="M623 -225l-25 47q65 32 99.5 73.5t41.5 104.5l-387 -4v190h84q66 0 96 33.5t35 97.5q5 70 5 395.5t-5 506.5h-108q-95 0 -136.5 -49t-46.5 -144l-8 -180q-23 2 -100 2t-100 -2q4 107 0.5 286.5t-11.5 286.5q107 -8 373 -8h637q223 0 371 8q-8 -107 -11.5 -286.5
t0.5 -286.5q-23 2 -99 2t-99 -2l-8 180q-5 95 -46.5 144t-136.5 49h-110q-3 -178 -2.5 -507t4.5 -395q3 -64 31 -97.5t94 -33.5h88v-190q-197 4 -340 4q3 -82 -58 -143q92 8 160 -34t68 -128q0 -91 -65.5 -143t-180.5 -52q-83 0 -140.5 35.5t-86.5 85.5l47 41
q59 -72 135 -72q56 0 84.5 29t28.5 78q0 59 -50.5 82t-121.5 -4z" />
    <glyph glyph-name="tcommaaccent" unicode="&#x163;" horiz-adv-x="716" 
d="M260 -227l-24 47q58 28 90.5 64t44.5 87q-253 21 -250 316l6 518h-98v127q268 11 321 383q15 -1 67.5 -1t67.5 1q-16 -126 -20 -365l207 11q-2 -17 -2 -78t2 -80l-207 2v-459q0 -83 7.5 -128t21 -61.5t38.5 -17.5q85 0 66 219h90q16 -181 -38.5 -279.5t-209.5 -107.5
q-6 -65 -57 -116q92 8 159.5 -34t67.5 -128q0 -91 -65 -143t-180 -52q-83 0 -141 35.5t-87 85.5l47 41q59 -72 135 -72q56 0 84.5 29t28.5 78q0 59 -51 82t-121 -4z" />
    <glyph glyph-name="Tcaron" unicode="&#x164;" horiz-adv-x="1495" 
d="M444 1837l19 21q60 -19 146.5 -67.5t142.5 -94.5q53 43 138 92t142 70l19 -21q-32 -80 -100 -161.5t-136 -137.5h-137q-62 49 -128.5 131.5t-105.5 167.5zM1038 1219h-110q-3 -178 -2.5 -507t4.5 -395q3 -64 31 -97.5t94 -33.5h88v-190q-252 4 -395 4l-396 -4v190h84
q66 0 96 33.5t35 97.5q5 70 5 395.5t-5 506.5h-108q-95 0 -136.5 -49t-46.5 -144l-8 -180q-23 2 -100 2t-100 -2q4 107 0.5 286.5t-11.5 286.5q107 -8 373 -8h637q223 0 371 8q-8 -107 -11.5 -286.5t0.5 -286.5q-23 2 -99 2t-99 -2l-8 180q-5 95 -46.5 144t-136.5 49z" />
    <glyph glyph-name="tcaron" unicode="&#x165;" horiz-adv-x="956" 
d="M602 1059q221 52 234 229q-29 -53 -99 -53q-46 0 -71 29t-25 84q0 56 35 90.5t94 34.5q62 0 95.5 -43t33.5 -113q0 -115 -77 -193t-210 -106zM598 358h90q11 -87 1 -159t-39 -123t-89.5 -79t-150.5 -28q-292 0 -289 318l6 518h-98v127q268 11 321 383q15 -1 67.5 -1
t67.5 1q-16 -126 -20 -365l207 11q-2 -17 -2 -78t2 -80l-207 2v-459q0 -83 7.5 -128t21 -61.5t38.5 -17.5q85 0 66 219z" />
    <glyph glyph-name="Tbar" unicode="&#x166;" horiz-adv-x="1495" 
d="M1038 1219h-110q-4 -270 -4 -568l233 11v-119q-92 0 -231 8q0 -172 4 -234q3 -64 31 -97.5t94 -33.5h88v-190q-252 4 -395 4l-396 -4v190h84q66 0 96 33.5t35 97.5q1 14 1.5 46t1 89t1.5 99q-139 -8 -233 -8v119q46 0 233 -11q0 298 -4 568h-108q-95 0 -136.5 -49
t-46.5 -144l-8 -180q-23 2 -100 2t-100 -2q4 107 0.5 286.5t-11.5 286.5q107 -8 373 -8h637q223 0 371 8q-8 -107 -11.5 -286.5t0.5 -286.5q-23 2 -99 2t-99 -2l-8 180q-5 95 -46.5 144t-136.5 49z" />
    <glyph glyph-name="tbar" unicode="&#x167;" horiz-adv-x="716" 
d="M598 358h90q11 -87 1 -159t-39 -123t-89.5 -79t-150.5 -28q-292 0 -289 318l2 272q-86 -4 -94 -4v119l96 -6l2 137h-98v127q268 11 321 383q15 -1 67.5 -1t67.5 1q-16 -126 -20 -365l207 11q-2 -17 -2 -78t2 -80l-207 2v-143l197 12v-119l-197 10v-219q0 -83 7.5 -128
t21 -61.5t38.5 -17.5q85 0 66 219z" />
    <glyph glyph-name="Utilde" unicode="&#x168;" horiz-adv-x="1689" 
d="M229 549q0 17 1.5 139.5t2 215t-1.5 194.5q-3 70 -28.5 99.5t-83.5 29.5h-62v186q242 -6 377 -6q80 0 230.5 3t154.5 3v-186h-78q-62 0 -93 -29.5t-32 -99.5q-2 -106 -2 -299.5t2 -245.5q3 -203 74.5 -289t222.5 -86t222.5 84.5t74.5 290.5q5 396 0 545q-3 129 -118 129
h-76v186q192 -6 305 -6q67 0 186 3t125 3v-186h-63q-110 0 -113 -129q-3 -88 -3 -184t1.5 -203t1.5 -158q0 -308 -150 -454t-442 -146q-328 0 -481.5 142.5t-153.5 453.5zM1126 1796l52 14q35 -97 13 -162t-75 -97.5t-125 -32.5q-70 0 -117.5 29.5t-85.5 90.5
q-32 47 -52 64.5t-50 17.5q-41 0 -57 -37.5t6 -128.5l-53 -16q-24 75 -19 130.5t35 92t74 54.5t98 18q63 0 110 -28t91 -93q30 -44 52 -63t50 -19q43 0 58.5 38.5t-5.5 127.5z" />
    <glyph glyph-name="utilde" unicode="&#x169;" horiz-adv-x="1263" 
d="M1118 965q-6 -111 -6 -312v-368q2 -66 22.5 -97.5t69.5 -31.5h29v-156q-369 0 -449 -6v196q-72 -229 -311 -229q-151 0 -239 93.5t-84 289.5q2 47 2 168t-2 158q-2 71 -21.5 102t-71.5 31h-28v158q180 -3 223 -3q150 0 231 7q-6 -115 -6 -318v-274q0 -69 13 -117t35 -72
t44 -33.5t47 -9.5q93 0 130.5 91t37.5 296v158q0 65 -28.5 91t-104.5 26h-20q1 19 1 80t-1 78q209 -3 256 -3q187 0 231 7zM866 1343l52 15q35 -98 13 -163t-75 -97.5t-125 -32.5q-69 0 -117 30t-86 91q-32 47 -52 64.5t-50 17.5q-41 0 -57 -37.5t6 -128.5l-53 -17
q-24 75 -19 130.5t35 92t74 54.5t98 18q63 0 110.5 -27.5t90.5 -92.5q30 -44 52 -63t50 -19q43 0 58.5 38t-5.5 127z" />
    <glyph glyph-name="Umacron" unicode="&#x16a;" horiz-adv-x="1689" 
d="M229 549q0 17 1.5 139.5t2 215t-1.5 194.5q-3 70 -28.5 99.5t-83.5 29.5h-62v186q242 -6 377 -6q80 0 230.5 3t154.5 3v-186h-78q-62 0 -93 -29.5t-32 -99.5q-2 -106 -2 -299.5t2 -245.5q3 -203 74.5 -289t222.5 -86t222.5 84.5t74.5 290.5q5 396 0 545q-3 129 -118 129
h-76v186q192 -6 305 -6q67 0 186 3t125 3v-186h-63q-110 0 -113 -129q-3 -88 -3 -184t1.5 -203t1.5 -158q0 -308 -150 -454t-442 -146q-328 0 -481.5 142.5t-153.5 453.5zM651 1554q4 81 0 166q94 -3 280.5 -3t280.5 3q-4 -83 0 -166q-94 3 -280.5 3t-280.5 -3z" />
    <glyph glyph-name="umacron" unicode="&#x16b;" horiz-adv-x="1263" 
d="M1118 965q-6 -111 -6 -312v-368q2 -66 22.5 -97.5t69.5 -31.5h29v-156q-369 0 -449 -6v196q-72 -229 -311 -229q-151 0 -239 93.5t-84 289.5q2 47 2 168t-2 158q-2 71 -21.5 102t-71.5 31h-28v158q180 -3 223 -3q150 0 231 7q-6 -115 -6 -318v-274q0 -69 13 -117t35 -72
t44 -33.5t47 -9.5q93 0 130.5 91t37.5 296v158q0 65 -28.5 91t-104.5 26h-20q1 19 1 80t-1 78q209 -3 256 -3q187 0 231 7zM332 1106q4 81 0 166q94 -3 280.5 -3t280.5 3q-4 -83 0 -166q-94 3 -280.5 3t-280.5 -3z" />
    <glyph glyph-name="Ubreve" unicode="&#x16c;" horiz-adv-x="1689" 
d="M229 549q0 17 1.5 139.5t2 215t-1.5 194.5q-3 70 -28.5 99.5t-83.5 29.5h-62v186q242 -6 377 -6q80 0 230.5 3t154.5 3v-186h-78q-62 0 -93 -29.5t-32 -99.5q-2 -106 -2 -299.5t2 -245.5q3 -203 74.5 -289t222.5 -86t222.5 84.5t74.5 290.5q5 396 0 545q-3 129 -118 129
h-76v186q192 -6 305 -6q67 0 186 3t125 3v-186h-63q-110 0 -113 -129q-3 -88 -3 -184t1.5 -203t1.5 -158q0 -308 -150 -454t-442 -146q-328 0 -481.5 142.5t-153.5 453.5zM924 1528q-150 0 -224.5 84.5t-56.5 212.5l47 2q6 -71 65.5 -100t168.5 -29t168 29t65 100l47 -2
q18 -128 -55.5 -212.5t-224.5 -84.5z" />
    <glyph glyph-name="ubreve" unicode="&#x16d;" horiz-adv-x="1263" 
d="M1118 965q-6 -111 -6 -312v-368q2 -66 22.5 -97.5t69.5 -31.5h29v-156q-369 0 -449 -6v196q-72 -229 -311 -229q-151 0 -239 93.5t-84 289.5q2 47 2 168t-2 158q-2 71 -21.5 102t-71.5 31h-28v158q180 -3 223 -3q150 0 231 7q-6 -115 -6 -318v-274q0 -69 13 -117t35 -72
t44 -33.5t47 -9.5q93 0 130.5 91t37.5 296v158q0 65 -28.5 91t-104.5 26h-20q1 19 1 80t-1 78q209 -3 256 -3q187 0 231 7zM596 1085q-150 0 -224.5 84.5t-56.5 212.5l47 2q6 -71 65.5 -100t168.5 -29t168 29t65 100l48 -2q18 -128 -56 -212.5t-225 -84.5z" />
    <glyph glyph-name="Uring" unicode="&#x16e;" horiz-adv-x="1689" 
d="M1016 1710q0 47 -25.5 72.5t-68.5 25.5q-45 0 -71 -25.5t-26 -72.5q0 -50 26 -77t71 -27q44 0 69 27t25 77zM1104 1710q0 -85 -48.5 -134.5t-133.5 -49.5t-135 49.5t-50 134.5q0 83 49 131.5t134 48.5t134.5 -48.5t49.5 -131.5zM229 549q0 17 1.5 139.5t2 215t-1.5 194.5
q-3 70 -28.5 99.5t-83.5 29.5h-62v186q242 -6 377 -6q80 0 230.5 3t154.5 3v-186h-78q-62 0 -93 -29.5t-32 -99.5q-2 -106 -2 -299.5t2 -245.5q3 -203 74.5 -289t222.5 -86t222.5 84.5t74.5 290.5q5 396 0 545q-3 129 -118 129h-76v186q192 -6 305 -6q67 0 186 3t125 3v-186
h-63q-110 0 -113 -129q-3 -88 -3 -184t1.5 -203t1.5 -158q0 -308 -150 -454t-442 -146q-328 0 -481.5 142.5t-153.5 453.5z" />
    <glyph glyph-name="uring" unicode="&#x16f;" horiz-adv-x="1263" 
d="M1118 965q-6 -111 -6 -312v-368q2 -66 22.5 -97.5t69.5 -31.5h29v-156q-369 0 -449 -6v196q-72 -229 -311 -229q-151 0 -239 93.5t-84 289.5q2 47 2 168t-2 158q-2 71 -21.5 102t-71.5 31h-28v158q180 -3 223 -3q150 0 231 7q-6 -115 -6 -318v-274q0 -69 13 -117t35 -72
t44 -33.5t47 -9.5q93 0 130.5 91t37.5 296v158q0 65 -28.5 91t-104.5 26h-20q1 19 1 80t-1 78q209 -3 256 -3q187 0 231 7zM741 1264q0 -85 -49 -135t-133 -50q-85 0 -134.5 50t-49.5 135q0 83 48.5 131.5t133.5 48.5t134.5 -48.5t49.5 -131.5zM653 1264q0 47 -25.5 72.5
t-68.5 25.5q-45 0 -70.5 -25.5t-25.5 -72.5q0 -50 25.5 -77.5t70.5 -27.5q43 0 68.5 27.5t25.5 77.5z" />
    <glyph glyph-name="Uhungarumlaut" unicode="&#x170;" horiz-adv-x="1689" 
d="M229 549q0 17 1.5 139.5t2 215t-1.5 194.5q-3 70 -28.5 99.5t-83.5 29.5h-62v186q242 -6 377 -6q80 0 230.5 3t154.5 3v-186h-78q-62 0 -93 -29.5t-32 -99.5q-2 -106 -2 -299.5t2 -245.5q3 -203 74.5 -289t222.5 -86t222.5 84.5t74.5 290.5q5 396 0 545q-3 129 -118 129
h-76v186q192 -6 305 -6q67 0 186 3t125 3v-186h-63q-110 0 -113 -129q-3 -88 -3 -184t1.5 -203t1.5 -158q0 -308 -150 -454t-442 -146q-328 0 -481.5 142.5t-153.5 453.5zM743 1528l-20 16q98 213 188 303q30 29 62.5 37.5t55.5 -3t36 -32.5t6.5 -52.5t-35.5 -61.5
q-51 -52 -134.5 -110t-158.5 -97zM1079 1528l-20 16q97 215 188 303q30 29 62.5 37.5t55.5 -3t36 -32.5t6.5 -52.5t-35.5 -61.5q-51 -52 -134.5 -110t-158.5 -97z" />
    <glyph glyph-name="uhungarumlaut" unicode="&#x171;" horiz-adv-x="1263" 
d="M1118 965q-6 -111 -6 -312v-368q2 -66 22.5 -97.5t69.5 -31.5h29v-156q-369 0 -449 -6v196q-72 -229 -311 -229q-151 0 -239 93.5t-84 289.5q2 47 2 168t-2 158q-2 71 -21.5 102t-71.5 31h-28v158q180 -3 223 -3q150 0 231 7q-6 -115 -6 -318v-274q0 -69 13 -117t35 -72
t44 -33.5t47 -9.5q93 0 130.5 91t37.5 296v158q0 65 -28.5 91t-104.5 26h-20q1 19 1 80t-1 78q209 -3 256 -3q187 0 231 7zM733 1075l-20 17q97 215 188 303q30 29 62.5 37t55.5 -3.5t36 -32t6.5 -52.5t-35.5 -62q-51 -52 -134.5 -110t-158.5 -97zM397 1075l-20 17
q98 213 188 303q30 29 62.5 37t55.5 -3.5t36 -32t6.5 -52.5t-35.5 -62q-51 -52 -134.5 -110t-158.5 -97z" />
    <glyph glyph-name="Uogonek" unicode="&#x172;" horiz-adv-x="1689" 
d="M229 549q0 17 1.5 139.5t2 215t-1.5 194.5q-3 70 -28.5 99.5t-83.5 29.5h-62v186q242 -6 377 -6q80 0 230.5 3t154.5 3v-186h-78q-62 0 -93 -29.5t-32 -99.5q-2 -106 -2 -299.5t2 -245.5q3 -203 74.5 -289t222.5 -86t222.5 84.5t74.5 290.5q5 396 0 545q-3 129 -118 129
h-76v186q192 -6 305 -6q67 0 186 3t125 3v-186h-63q-110 0 -113 -129q-3 -88 -3 -184t1.5 -203t1.5 -158q0 -300 -143 -446t-420 -154q-45 -42 -45 -111q0 -54 31 -80t79 -26q117 0 134 129l63 -10q3 -277 -246 -277q-105 0 -166 50t-61 139q3 115 98 188
q-284 17 -417.5 159.5t-133.5 434.5z" />
    <glyph glyph-name="uogonek" unicode="&#x173;" horiz-adv-x="1263" 
d="M1118 965q-6 -111 -6 -312v-368q2 -66 22.5 -97.5t69.5 -31.5h29v-156h-137q-115 -51 -115 -158q0 -54 31.5 -80t79.5 -26q116 0 133 129l63 -10q3 -277 -246 -277q-105 0 -166 50t-61 139q1 79 48 138.5t126 94.5q-190 -4 -205 -6v196q-72 -229 -311 -229
q-151 0 -239 93.5t-84 289.5q2 47 2 168t-2 158q-2 71 -21.5 102t-71.5 31h-28v158q180 -3 223 -3q150 0 231 7q-6 -115 -6 -318v-274q0 -69 13 -117t35 -72t44 -33.5t47 -9.5q93 0 130.5 91t37.5 296v158q0 65 -28.5 91t-104.5 26h-20q1 19 1 80t-1 78q209 -3 256 -3
q187 0 231 7z" />
    <glyph glyph-name="Wcircumflex" unicode="&#x174;" horiz-adv-x="2330" 
d="M1575 1536l-19 -23q-61 21 -146.5 69t-141.5 95q-53 -45 -138.5 -93.5t-142.5 -67.5l-18 20q32 78 99 158.5t136 140.5h137q62 -49 128.5 -131.5t105.5 -167.5zM1739 -12q-46 2 -186.5 2t-186.5 -2q-110 429 -223 817q-46 -140 -124 -414t-112 -403q-41 2 -171 2t-171 -2
q-50 206 -151 572.5t-150 529.5q-23 74 -58 105.5t-106 31.5h-63q3 41 3 87.5t-2 72.5l-1 26q248 -6 389 -6q84 0 236 3l153 3q-1 -22 -1 -93t1 -93h-59q-63 0 -82 -32.5t-2 -104.5q26 -114 92.5 -359.5t107.5 -382.5q161 532 203 742q14 75 -3.5 106t-84.5 31h-35
q2 22 2 93t-2 93q207 -6 326 -6q70 0 195 3t129 3q-6 -94 0 -186h-54q-57 0 -74.5 -31t-0.5 -100q28 -118 94 -366t106 -384q44 149 107 389.5t82 341.5q15 79 -1.5 114.5t-88.5 35.5h-39q1 22 1 93t-1 93q184 -6 284 -6q57 0 163.5 3t113.5 3q-2 -22 -2 -93t2 -93h-66
q-74 0 -114.5 -32t-67.5 -120q-37 -124 -158.5 -552t-148.5 -535z" />
    <glyph glyph-name="wcircumflex" unicode="&#x175;" horiz-adv-x="1753" 
d="M1249 1083l-18 -22q-61 21 -147 69.5t-142 94.5q-53 -45 -138 -94t-142 -68l-19 20q32 78 99 158t137 141h137q61 -49 127.5 -131.5t105.5 -167.5zM1004 -27q-87 327 -170 590q-101 -297 -183 -590q-32 1 -120.5 1t-120.5 -1q-150 483 -213 676q-31 94 -58 124t-90 30
h-18q2 35 2 74.5t-1 61.5l-1 22q189 -7 293 -7l292 7q-4 -80 0 -158h-18q-90 0 -66 -113q13 -63 52.5 -204t70.5 -240q101 298 129 432q12 62 -2.5 93.5t-70.5 31.5h-25q2 19 2 80t-2 78q162 -7 260 -7l264 7q-2 -17 -2 -78t2 -80h-20q-92 0 -66 -111q15 -66 54.5 -211.5
t68.5 -236.5q82 262 121 432q16 58 2.5 92.5t-63.5 34.5h-29q2 19 2 80t-2 78q147 -7 223 -7l223 7q-2 -17 -2 -78t2 -80h-36q-72 0 -109.5 -34t-73.5 -136q-45 -127 -121 -356.5t-98 -303.5q-38 1 -141 1t-141 -1z" />
    <glyph glyph-name="Ycircumflex" unicode="&#x176;" horiz-adv-x="1716" 
d="M1352 1075q-65 -110 -310 -588v-188q0 -63 23.5 -88t97.5 -25h101q-4 -94 0 -190q-272 4 -426 4l-428 -4q2 22 2 95t-2 95h104q73 0 93 25t20 88v186q-221 441 -320 613q-39 69 -93.5 99t-143.5 30h-33q2 41 2 87.5t-1 72.5l-1 26q278 -6 436 -6l434 6q-4 -94 0 -186h-69
q-72 0 -91 -43.5t17 -128.5q75 -176 205 -385q116 218 188 385q17 38 24 67.5t2.5 54t-27 37.5t-62.5 13h-56q2 42 2 88.5t-1 72.5l-1 25q207 -6 324 -6l319 6q-4 -90 0 -186h-43q-66 0 -111.5 -9t-77.5 -30.5t-52 -45.5t-45 -67zM1247 1536l-18 -23q-61 21 -147 69.5
t-142 94.5q-53 -45 -138.5 -93.5t-142.5 -67.5l-18 20q32 78 99 158t137 141h137q61 -49 127.5 -131.5t105.5 -167.5z" />
    <glyph glyph-name="ycircumflex" unicode="&#x177;" horiz-adv-x="1193" 
d="M805 694q14 51 -3.5 80t-62.5 29h-34q1 19 1 80t-1 78q135 -7 237 -7l221 7v-158h-37q-66 0 -100 -26t-59 -85q-119 -287 -240 -657q-78 -235 -179.5 -330.5t-258.5 -95.5q-118 0 -179 53t-61 141q0 81 48 127.5t122 46.5t114 -36t40 -103q0 -66 -55.5 -107.5
t-135.5 -29.5q41 -18 90 -18q121 0 190 84t134 294q-129 4 -197 0q-32 113 -105 319.5t-114 311.5q-25 62 -52 86.5t-81 24.5h-29q2 19 2 80t-2 78q177 -7 308 -7l307 7q-4 -80 0 -158h-31q-95 0 -67 -109q62 -217 133 -415q123 358 137 415zM948 1083l-18 -22
q-61 21 -147 69.5t-142 94.5q-53 -45 -138.5 -94t-142.5 -68l-18 20q32 78 99 158t137 141h137q61 -49 127.5 -131.5t105.5 -167.5z" />
    <glyph glyph-name="Ydieresis" unicode="&#x178;" horiz-adv-x="1716" 
d="M1352 1075q-65 -110 -310 -588v-188q0 -63 23.5 -88t97.5 -25h101q-4 -94 0 -190q-272 4 -426 4l-428 -4q2 22 2 95t-2 95h104q73 0 93 25t20 88v186q-221 441 -320 613q-39 69 -93.5 99t-143.5 30h-33q2 41 2 87.5t-1 72.5l-1 26q278 -6 436 -6l434 6q-4 -94 0 -186h-69
q-72 0 -91 -43.5t17 -128.5q75 -176 205 -385q116 218 188 385q17 38 24 67.5t2.5 54t-27 37.5t-62.5 13h-56q2 42 2 88.5t-1 72.5l-1 25q207 -6 324 -6l319 6q-4 -90 0 -186h-43q-66 0 -111.5 -9t-77.5 -30.5t-52 -45.5t-45 -67zM920 1663q0 -55 -33 -87t-88 -32
q-52 0 -85.5 32.5t-33.5 86.5q0 53 33.5 86t85.5 33q54 0 87.5 -32.5t33.5 -86.5zM1272 1663q0 -55 -34 -87t-87 -32q-52 0 -85.5 32.5t-33.5 86.5q0 53 33.5 86t85.5 33q53 0 87 -33t34 -86z" />
    <glyph glyph-name="Zacute" unicode="&#x179;" horiz-adv-x="1380" 
d="M676 1520l-17 24q58 78 131 154.5t132 113.5q39 20 74 20.5t54.5 -18.5t26.5 -44t-9.5 -56.5t-53.5 -54.5q-140 -88 -338 -139zM57 0v176q210 265 791 1051h-221q-113 0 -176 -13t-105.5 -55.5t-57 -114.5t-14.5 -198q-19 2 -88.5 2t-89.5 -2q6 91 6.5 286.5t-2.5 284.5
q173 -6 439 -6h768v-176q-226 -288 -785 -1049h293q120 0 189 33t105 121t36 246q20 -2 89.5 -2t88.5 2q-5 -108 -5.5 -296t3.5 -296q-258 6 -403 6h-861z" />
    <glyph glyph-name="zacute" unicode="&#x17a;" horiz-adv-x="987" 
d="M451 1067l-17 25q59 79 131 155t131 113q32 18 62.5 20t51 -8.5t32 -30t11 -42.5t-17 -48t-47.5 -45q-65 -41 -159.5 -79.5t-177.5 -59.5zM594 0h-557q1 19 1 70.5t-1 70.5q263 350 498 699h-113q-120 0 -177 -58t-67 -211h-117q19 197 5 398q140 -8 356 -8h506
q-1 -19 -0.5 -70t2.5 -70q-257 -342 -504 -702h168q48 0 88.5 15t74 47t54.5 88.5t25 133.5q12 -1 58 -1t58 1q-11 -91 -13.5 -201.5t5.5 -207.5q-174 6 -350 6z" />
    <glyph glyph-name="Zdotaccent" unicode="&#x17b;" horiz-adv-x="1380" 
d="M57 0v176q210 265 791 1051h-221q-113 0 -176 -13t-105.5 -55.5t-57 -114.5t-14.5 -198q-19 2 -88.5 2t-89.5 -2q6 91 6.5 286.5t-2.5 284.5q173 -6 439 -6h768v-176q-226 -288 -785 -1049h293q120 0 189 33t105 121t36 246q20 -2 89.5 -2t88.5 2q-5 -108 -5.5 -296
t3.5 -296q-258 6 -403 6h-861zM862 1694q0 -60 -36 -96.5t-95 -36.5q-57 0 -93 36.5t-36 96.5q0 58 36 93.5t93 35.5q59 0 95 -35.5t36 -93.5z" />
    <glyph glyph-name="zdotaccent" unicode="&#x17c;" horiz-adv-x="987" 
d="M594 0h-557q1 19 1 70.5t-1 70.5q263 350 498 699h-113q-120 0 -177 -58t-67 -211h-117q19 197 5 398q140 -8 356 -8h506q-1 -19 -0.5 -70t2.5 -70q-257 -342 -504 -702h168q48 0 88.5 15t74 47t54.5 88.5t25 133.5q12 -1 58 -1t58 1q-11 -91 -13.5 -201.5t5.5 -207.5
q-174 6 -350 6zM637 1241q0 -60 -36 -96.5t-95 -36.5q-57 0 -93 36.5t-36 96.5q0 58 36 93.5t93 35.5q59 0 95 -35.5t36 -93.5z" />
    <glyph glyph-name="Zcaron" unicode="&#x17d;" horiz-adv-x="1380" 
d="M426 1837l18 21q60 -19 146.5 -67.5t142.5 -94.5q53 43 138.5 92t142.5 70l18 -21q-32 -80 -99.5 -161.5t-135.5 -137.5h-138q-61 49 -127.5 131.5t-105.5 167.5zM57 0v176q210 265 791 1051h-221q-113 0 -176 -13t-105.5 -55.5t-57 -114.5t-14.5 -198q-19 2 -88.5 2
t-89.5 -2q6 91 6.5 286.5t-2.5 284.5q173 -6 439 -6h768v-176q-226 -288 -785 -1049h293q120 0 189 33t105 121t36 246q20 -2 89.5 -2t88.5 2q-5 -108 -5.5 -296t3.5 -296q-258 6 -403 6h-861z" />
    <glyph glyph-name="zcaron" unicode="&#x17e;" horiz-adv-x="987" 
d="M223 1384l19 21q60 -19 146 -67.5t142 -94.5q53 43 138.5 92t142.5 70l18 -21q-32 -80 -99.5 -161.5t-135.5 -137.5h-137q-62 49 -128.5 131.5t-105.5 167.5zM594 0h-557q1 19 1 70.5t-1 70.5q263 350 498 699h-113q-120 0 -177 -58t-67 -211h-117q19 197 5 398
q140 -8 356 -8h506q-1 -19 -0.5 -70t2.5 -70q-257 -342 -504 -702h168q48 0 88.5 15t74 47t54.5 88.5t25 133.5q12 -1 58 -1t58 1q-11 -91 -13.5 -201.5t5.5 -207.5q-174 6 -350 6z" />
    <glyph glyph-name="longs" unicode="&#x17f;" horiz-adv-x="708" 
d="M625 156q-1 -11 -1 -44.5t0.5 -73t0.5 -44.5q-6 0 -58.5 1.5t-122 3t-116.5 1.5t-118 -1.5t-124 -3t-55 -1.5q1 19 1 81t-1 81h49q78 0 84 92q4 94 3.5 345.5t-3.5 379.5q-8 229 88 341.5t301 112.5q145 0 227 -63.5t82 -165.5q0 -70 -37.5 -106.5t-105.5 -36.5
q-63 0 -100 33.5t-37 91.5q0 60 37.5 92.5t103.5 32.5l29 -2q-40 28 -103 28q-104 0 -146 -69t-22 -236l11 -90q-4 -101 -4 -353.5t4 -334.5q2 -45 20.5 -68.5t60.5 -23.5h52z" />
    <glyph glyph-name="florin" unicode="&#x192;" horiz-adv-x="1144" 
d="M225 715v123l172 -7q-5 141 18 251t64 178t101 112t122 61t132 17q147 0 225 -64t78 -172q0 -78 -40 -119.5t-112 -41.5q-62 0 -98.5 30t-36.5 84q0 65 47 97.5t121 21.5q-40 49 -113 49q-32 0 -55.5 -3.5t-49 -16t-41.5 -34t-30 -59.5t-19.5 -90.5t-4.5 -128.5t10 -172
l215 7v-123l-203 4q15 -176 -0.5 -311.5t-54.5 -219.5t-100 -138t-129 -74.5t-150 -20.5q-134 0 -206.5 59t-72.5 156q0 69 39.5 110.5t110.5 41.5q59 0 93 -28.5t34 -80.5t-33.5 -81.5t-91.5 -29.5l-41 4q41 -51 129 -51q65 0 103.5 27.5t59 101.5t17.5 203t-28 332z" />
    <glyph glyph-name="uni01B5" unicode="&#x1b5;" horiz-adv-x="1380" 
d="M57 0v176q165 211 312 408q-120 -9 -183 -9v113q28 0 254 -12l408 551h-221q-113 0 -176 -13t-105.5 -55.5t-57 -114.5t-14.5 -198q-19 2 -88.5 2t-89.5 -2q6 91 6.5 286.5t-2.5 284.5q173 -6 439 -6h768v-176q-95 -121 -420 -555l172 8v-113l-240 15q-67 -89 -297 -404
h293q120 0 189 33t105 121t36 246q20 -2 89.5 -2t88.5 2q-5 -108 -5.5 -296t3.5 -296q-258 6 -403 6h-861z" />
    <glyph glyph-name="uni01B6" unicode="&#x1b6;" horiz-adv-x="987" 
d="M594 0h-557q1 19 1 70.5t-1 70.5l174 238q-87 -21 -131 -25l-10 82q3 0 73.5 9.5t126.5 15.5q140 197 265 379h-113q-120 0 -177 -58t-67 -211h-117q19 197 5 398q140 -8 356 -8h506q-1 -19 -0.5 -70t2.5 -70q-68 -89 -205 -276q129 27 147 30l11 -81q-104 -17 -213 -29
q-19 -28 -112 -159t-132 -187h168q48 0 88.5 15t74 47t54.5 88.5t25 133.5q12 -1 58 -1t58 1q-11 -91 -13.5 -201.5t5.5 -207.5q-174 6 -350 6z" />
    <glyph glyph-name="uni01FA" unicode="&#x1fa;" horiz-adv-x="1810" 
d="M1073 383l-16 49q-210 6 -498 2l-18 -55q-32 -97 -11 -145t103 -48h78q0 -14 -1 -95t-1 -95q-209 4 -326 4l-326 -4v190h54q87 0 133 40.5t86 140.5q19 47 187.5 496.5t209.5 561.5q116 -6 182 -6l183 6q58 -165 203.5 -538t207.5 -522q43 -102 84.5 -140.5t102.5 -38.5
h63v-190q-268 4 -420 4l-422 -4v190h82q75 0 93 50t-13 147zM1014 555q-92 262 -209 565q-137 -366 -205 -565q212 -3 414 0zM778 1939l-16 25q59 79 131 155t131 113q39 20 74 20.5t54.5 -18.5t26.5 -44t-9.5 -56.5t-53.5 -54.5q-65 -41 -160 -80t-178 -60zM999 1710
q0 47 -25.5 72.5t-68.5 25.5q-45 0 -70.5 -25.5t-25.5 -72.5q0 -50 25.5 -77t70.5 -27q44 0 69 27t25 77zM1087 1710q0 -85 -48.5 -134.5t-133.5 -49.5t-134.5 49.5t-49.5 134.5q0 83 48.5 131.5t133.5 48.5t134.5 -48.5t49.5 -131.5z" />
    <glyph glyph-name="aringacute" unicode="&#x1fb;" horiz-adv-x="1130" 
d="M924 582v-310q0 -75 8.5 -101t32.5 -26q30 0 41.5 61.5t3.5 166.5l82 4q6 -98 -2 -169t-34 -127t-77.5 -84t-128.5 -28q-194 0 -238 156q-97 -156 -295 -156q-128 0 -201 62t-73 180q0 301 555 328v79q0 63 -8 104.5t-30.5 74t-64.5 47.5t-108 14q-37 0 -72 -6
q44 -13 68.5 -47t24.5 -80q0 -67 -43.5 -105t-120.5 -38q-74 0 -116 38.5t-42 112.5q0 80 60.5 139t154.5 87t205 28q120 0 202 -26.5t129 -80t67 -125.5t20 -173zM715 1264q0 -85 -49 -135t-134 -50t-134.5 50t-49.5 135q0 83 48.5 131.5t133.5 48.5t135 -48.5t50 -131.5z
M424 1493l-16 25q59 79 131 155t131 113q32 18 62.5 20t51 -8.5t32 -30t11 -42.5t-17 -48t-47.5 -45q-140 -88 -338 -139zM598 225v244q-217 -20 -217 -193q0 -129 98 -129q86 0 119 78zM627 1264q0 46 -25.5 72t-69.5 26q-45 0 -70.5 -25.5t-25.5 -72.5q0 -50 25.5 -77.5
t70.5 -27.5q44 0 69.5 27.5t25.5 77.5z" />
    <glyph glyph-name="AEacute" unicode="&#x1fc;" horiz-adv-x="2232" 
d="M1311 1520l-17 24q59 79 131 155t131 113q39 20 74 20.5t55 -18.5t27 -44t-9.5 -56.5t-53.5 -54.5q-140 -88 -338 -139zM686 561q209 0 305 2q4 380 -6 529q-144 -236 -299 -531zM1419 651h-63q0 -289 4 -342q4 -68 34 -95.5t87 -27.5h215q153 0 215.5 79t62.5 272v20
q25 -1 100.5 -1t100.5 1q-21 -228 -21 -567q-96 8 -417 8q-512 2 -578 2q-287 0 -377 -4q2 22 2 95t-2 95h80q66 0 92 32t33 99q4 46 4 127q-188 3 -366 0l-31 -65q-45 -88 -33.5 -140.5t92.5 -52.5h60q-2 -29 -2 -190q-211 4 -328 4l-326 -4q2 42 2 89.5t-1 74.5l-1 26h54
q86 0 140.5 40.5t117.5 140.5q245 382 438 729q34 58 15 98.5t-87 40.5h-41q2 40 2 86t-1 72l-1 26q137 -10 488 -10q24 0 187.5 1t330.5 1q371 0 467 12q-17 -252 -13 -530q-23 1 -93 1t-93 -1v14q0 97 -16.5 160t-53.5 96.5t-84 46.5t-118 13h-219q-111 0 -117 -115
q-4 -59 -4 -334h67q108 0 152.5 45.5t44.5 153.5v53q33 -2 71 -2t59 1l22 1q-1 -42 -4 -95t-5 -102.5t-2 -115.5q0 -129 11 -320q-76 4 -148 0v47q-2 114 -45.5 162.5t-159.5 48.5z" />
    <glyph glyph-name="aeacute" unicode="&#x1fd;" horiz-adv-x="1587" 
d="M705 1067l-17 25q59 79 131 155t131 113q32 18 62.5 20t51 -8.5t32 -30t11 -42.5t-17 -48t-47.5 -45q-65 -41 -159.5 -79.5t-177.5 -59.5zM1522 307q-18 -160 -128 -251t-313 -91q-311 0 -424 191q-41 -91 -123 -139t-196 -48q-143 0 -219 63t-76 189q0 80 43.5 140
t122.5 96.5t174 56t213 25.5v92q0 227 -170 227q-52 0 -107 -10q87 -27 87 -123q0 -68 -43.5 -105.5t-116.5 -37.5q-74 0 -116 39.5t-42 111.5q0 81 60 140t153 86.5t205 27.5q195 0 295 -84q113 84 284 84q98 0 176 -27.5t130.5 -76.5t85.5 -119t45 -154t6 -182h-588
q5 -159 43 -223t131 -64q86 0 128 44.5t56 136.5q2 0 101 -8t123 -7zM1073 823q-68 0 -100 -67t-33 -244h207q28 0 36.5 10.5t8.5 44.5q0 256 -119 256zM608 281q-12 62 -12 133v55q-106 -11 -160.5 -56t-54.5 -137q0 -68 24.5 -96t71.5 -28q109 0 131 129z" />
    <glyph glyph-name="Oslashacute" unicode="&#x1fe;" horiz-adv-x="1601" 
d="M723 1520l-16 24q59 79 131 155t131 113q39 20 74 20.5t54.5 -18.5t26.5 -44t-9.5 -56.5t-53.5 -54.5q-140 -88 -338 -139zM801 -37q-279 0 -451 111l-160 -160l-49 39l129 184q-190 187 -190 570q0 185 52 327.5t147.5 233t227 136.5t294.5 46q286 0 456 -115l170 172
l46 -34l-136 -201q185 -182 185 -563q0 -188 -54 -332.5t-151.5 -234t-227.5 -134.5t-288 -45zM498 707q0 -187 18 -285l277 319l268 346q-33 91 -96 133t-164 42q-162 0 -232.5 -129.5t-70.5 -425.5zM801 152q170 0 237.5 129t67.5 428q0 155 -19 272l-256 -291l-288 -373
q32 -87 94 -126t164 -39z" />
    <glyph glyph-name="oslashacute" unicode="&#x1ff;" horiz-adv-x="1112" 
d="M479 1067l-16 25q59 79 131 155t131 113q32 18 62.5 20t51 -8.5t32 -30t11 -42.5t-17 -48t-47.5 -45q-140 -88 -338 -139zM61 467q0 260 131.5 390t364.5 130q182 0 303 -80l121 131l33 -26l-96 -150q133 -133 133 -395q0 -253 -130 -379.5t-364 -126.5q-181 0 -299 74
l-119 -123l-35 29l95 139q-138 132 -138 387zM403 467q0 -90 5 -139l139 164l145 196q-18 78 -51.5 108.5t-85.5 30.5t-83 -27t-50 -108t-19 -225zM711 467q0 81 -6 139l-130 -147l-155 -209q18 -73 50.5 -99t86.5 -26q38 0 63.5 12.5t47.5 47.5t32.5 105t10.5 177z" />
    <glyph glyph-name="Scommaaccent" unicode="&#x218;" horiz-adv-x="1394" 
d="M565 -532q221 52 234 229q-29 -53 -99 -53q-46 0 -71 28.5t-25 83.5q0 56 35 90.5t94 34.5q63 0 96 -42.5t33 -112.5q0 -115 -77 -193t-210 -106zM696 1270q-147 0 -217.5 -46t-70.5 -120q0 -80 76 -115.5t278 -54.5q289 -27 434 -139.5t145 -341.5q0 -234 -152 -362
t-429 -128q-125 0 -216.5 24t-183.5 74q-41 25 -67.5 18t-39 -29t-17.5 -62q-14 2 -78 2t-78 -2q14 106 19 241.5t-1 237.5q15 -1 75 -1t75 1q98 -326 508 -326q151 0 230 48t79 135q0 88 -89.5 128.5t-309.5 63.5q-543 48 -543 453q0 102 34 188.5t99 152.5t170 103t238 37
q197 0 346 -78q36 -18 58.5 -22.5t35.5 6.5t18.5 25.5t10.5 43.5q12 -1 73.5 -1t73.5 1q-17 -84 -21.5 -216t3.5 -222q-3 0 -40 0.5t-68 0.5t-40 -1q-88 283 -418 283z" />
    <glyph glyph-name="scommaaccent" unicode="&#x219;" horiz-adv-x="987" 
d="M342 -532q220 51 233 229q-29 -53 -98 -53q-46 0 -71 28.5t-25 83.5q0 56 35 90.5t94 34.5q63 0 96 -42.5t33 -112.5q0 -115 -77 -193t-210 -106zM485 844q-88 0 -129 -27t-41 -67q0 -34 19 -53.5t75 -34.5t162 -25q367 -38 367 -338q0 -159 -99 -248.5t-296 -89.5
q-150 0 -283 86q-26 16 -44.5 19t-29 -7.5t-16.5 -25.5t-10 -41q-56 8 -111 0q25 192 17 340q55 -8 110 0q46 -106 133 -169t205 -63q86 0 128 28.5t42 74.5q0 44 -46.5 68.5t-180.5 37.5q-207 18 -301.5 110t-94.5 232q0 150 113.5 244.5t302.5 91.5q126 -3 219 -63
q30 -18 47 -18t25 14.5t14 50.5q53 -8 107 0q-17 -150 -17 -299q-54 4 -112 0q-70 172 -275 172z" />
    <glyph glyph-name="uni021A" unicode="&#x21a;" horiz-adv-x="1495" 
d="M578 -530q220 51 233 229q-29 -53 -98 -53q-46 0 -71.5 28.5t-25.5 83.5q0 56 35 90.5t94 34.5q63 0 96 -42.5t33 -112.5q0 -115 -76.5 -193t-209.5 -106zM1038 1219h-110q-3 -178 -2.5 -507t4.5 -395q3 -64 31 -97.5t94 -33.5h88v-190q-252 4 -395 4l-396 -4v190h84
q66 0 96 33.5t35 97.5q5 70 5 395.5t-5 506.5h-108q-95 0 -136.5 -49t-46.5 -144l-8 -180q-23 2 -100 2t-100 -2q4 107 0.5 286.5t-11.5 286.5q107 -8 373 -8h637q223 0 371 8q-8 -107 -11.5 -286.5t0.5 -286.5q-23 2 -99 2t-99 -2l-8 180q-5 95 -46.5 144t-136.5 49z" />
    <glyph glyph-name="uni021B" unicode="&#x21b;" horiz-adv-x="716" 
d="M217 -532q221 52 234 229q-29 -53 -99 -53q-46 0 -71 28.5t-25 83.5q0 56 35 90.5t94 34.5q63 0 96 -42.5t33 -112.5q0 -115 -77 -193t-210 -106zM598 358h90q11 -87 1 -159t-39 -123t-89.5 -79t-150.5 -28q-292 0 -289 318l6 518h-98v127q268 11 321 383q15 -1 67.5 -1
t67.5 1q-16 -126 -20 -365l207 11q-2 -17 -2 -78t2 -80l-207 2v-459q0 -83 7.5 -128t21 -61.5t38.5 -17.5q85 0 66 219z" />
    <glyph glyph-name="uni0237" unicode="&#x237;" horiz-adv-x="641" 
d="M125 -188q0 -53 -40 -91t-118 -26q40 -29 96 -29q73 0 110 49.5t40 169.5q2 126 2.5 437.5t-2.5 382.5q-6 98 -94 98h-37q4 77 0 155q366 0 459 7v-940q0 -220 -101 -328.5t-293 -108.5q-135 0 -214.5 55t-79.5 150q0 68 38 106t107 38q59 0 93 -33.5t34 -91.5z" />
    <glyph glyph-name="circumflex" unicode="&#x2c6;" horiz-adv-x="1089" 
d="M823 1102l-18 -23q-61 21 -147 69.5t-142 94.5q-53 -45 -138 -94t-142 -68l-19 21q32 78 99 158t137 141h137q61 -49 127.5 -131.5t105.5 -167.5z" />
    <glyph glyph-name="caron" unicode="&#x2c7;" horiz-adv-x="1089" 
d="M217 1403l19 20q60 -19 146 -67t142 -94q52 43 138 91.5t143 69.5l18 -20q-32 -80 -99.5 -161.5t-135.5 -137.5h-137q-62 49 -128.5 131.5t-105.5 167.5z" />
    <glyph glyph-name="breve" unicode="&#x2d8;" horiz-adv-x="1089" 
d="M526 1104q-150 0 -224 84.5t-56 212.5l47 2q6 -71 65 -100t168 -29t168.5 29t65.5 100l47 -2q18 -128 -56 -212.5t-225 -84.5z" />
    <glyph glyph-name="dotaccent" unicode="&#x2d9;" horiz-adv-x="1089" 
d="M696 1260q0 -60 -36 -97t-95 -37q-57 0 -93 37t-36 97q0 58 36 93.5t93 35.5q59 0 95 -35.5t36 -93.5z" />
    <glyph glyph-name="ring" unicode="&#x2da;" horiz-adv-x="1089" 
d="M651 1276q0 47 -25.5 72.5t-68.5 25.5q-45 0 -70.5 -25.5t-25.5 -72.5q0 -50 25.5 -77.5t70.5 -27.5q43 0 68.5 27.5t25.5 77.5zM739 1276q0 -85 -48.5 -134.5t-133.5 -49.5t-134.5 49.5t-49.5 134.5q0 83 48.5 131.5t133.5 48.5t134.5 -48.5t49.5 -131.5z" />
    <glyph glyph-name="ogonek" unicode="&#x2db;" horiz-adv-x="1089" 
d="M811 -145q3 -277 -246 -277q-105 0 -166 50t-61 139q3 117 101.5 190t240.5 84l22 -14q-95 -20 -146.5 -67.5t-51.5 -117.5q0 -54 31 -80t79 -26q117 0 134 129z" />
    <glyph glyph-name="tilde" unicode="&#x2dc;" horiz-adv-x="1089" 
d="M778 1362l51 14q49 -137 -12 -215t-174 -78q-69 0 -117 30t-86 91q-32 47 -52 64.5t-50 17.5q-41 0 -57 -37.5t6 -128.5l-54 -16q-34 100 -12 165.5t75 97.5t126 32q63 0 110 -28t91 -93q30 -44 52 -63t50 -19q43 0 58.5 38.5t-5.5 127.5z" />
    <glyph glyph-name="hungarumlaut" unicode="&#x2dd;" horiz-adv-x="1089" 
d="M233 1094l-20 16q98 213 188 303q30 29 62.5 37t55.5 -3.5t36 -32t6.5 -52.5t-35.5 -62q-50 -52 -133.5 -109.5t-159.5 -96.5zM569 1094l-20 16q97 215 188 303q30 29 62.5 37t55.5 -3.5t36 -32t6.5 -52.5t-35.5 -62q-50 -52 -133.5 -109.5t-159.5 -96.5z" />
    <glyph glyph-name="Wgrave" unicode="&#x1e80;" horiz-adv-x="2330" 
d="M1739 -12q-46 2 -186.5 2t-186.5 -2q-110 429 -223 817q-46 -140 -124 -414t-112 -403q-41 2 -171 2t-171 -2q-50 206 -151 572.5t-150 529.5q-23 74 -58 105.5t-106 31.5h-63q3 41 3 87.5t-2 72.5l-1 26q248 -6 389 -6q84 0 236 3l153 3q-1 -22 -1 -93t1 -93h-59
q-63 0 -82 -32.5t-2 -104.5q26 -114 92.5 -359.5t107.5 -382.5q161 532 203 742q14 75 -3.5 106t-84.5 31h-35q2 22 2 93t-2 93q207 -6 326 -6q70 0 195 3t129 3q-6 -94 0 -186h-54q-57 0 -74.5 -31t-0.5 -100q28 -118 94 -366t106 -384q44 149 107 389.5t82 341.5
q15 79 -1.5 114.5t-88.5 35.5h-39q1 22 1 93t-1 93q184 -6 284 -6q57 0 163.5 3t113.5 3q-2 -22 -2 -93t2 -93h-66q-74 0 -114.5 -32t-67.5 -120q-37 -124 -158.5 -552t-148.5 -535zM1362 1550l-16 -24q-82 21 -179 61.5t-161 81.5q-63 39 -64.5 93.5t46 71t116.5 -18.5
q112 -69 258 -265z" />
    <glyph glyph-name="wgrave" unicode="&#x1e81;" horiz-adv-x="1753" 
d="M1004 -27q-87 327 -170 590q-101 -297 -183 -590q-32 1 -120.5 1t-120.5 -1q-150 483 -213 676q-31 94 -58 124t-90 30h-18q2 35 2 74.5t-1 61.5l-1 22q189 -7 293 -7l292 7q-4 -80 0 -158h-18q-90 0 -66 -113q13 -63 52.5 -204t70.5 -240q101 298 129 432
q12 62 -2.5 93.5t-70.5 31.5h-25q2 19 2 80t-2 78q162 -7 260 -7l264 7q-2 -17 -2 -78t2 -80h-20q-92 0 -66 -111q15 -66 54.5 -211.5t68.5 -236.5q82 262 121 432q16 58 2.5 92.5t-63.5 34.5h-29q2 19 2 80t-2 78q147 -7 223 -7l223 7q-2 -17 -2 -78t2 -80h-36
q-72 0 -109.5 -34t-73.5 -136q-45 -127 -121 -356.5t-98 -303.5q-38 1 -141 1t-141 -1zM1063 1092l-16 -25q-82 21 -179 61.5t-161 81.5q-63 39 -64.5 93.5t46 71t116.5 -18.5q113 -70 258 -264z" />
    <glyph glyph-name="Wacute" unicode="&#x1e82;" horiz-adv-x="2330" 
d="M1106 1526l-16 24q59 80 131.5 156t130.5 113q32 18 62.5 20t51 -8.5t32 -30t11 -42.5t-17 -48t-47.5 -45q-140 -88 -338 -139zM1739 -12q-46 2 -186.5 2t-186.5 -2q-110 429 -223 817q-46 -140 -124 -414t-112 -403q-41 2 -171 2t-171 -2q-50 206 -151 572.5t-150 529.5
q-23 74 -58 105.5t-106 31.5h-63q3 41 3 87.5t-2 72.5l-1 26q248 -6 389 -6q84 0 236 3l153 3q-1 -22 -1 -93t1 -93h-59q-63 0 -82 -32.5t-2 -104.5q26 -114 92.5 -359.5t107.5 -382.5q161 532 203 742q14 75 -3.5 106t-84.5 31h-35q2 22 2 93t-2 93q207 -6 326 -6
q70 0 195 3t129 3q-6 -94 0 -186h-54q-57 0 -74.5 -31t-0.5 -100q28 -118 94 -366t106 -384q44 149 107 389.5t82 341.5q15 79 -1.5 114.5t-88.5 35.5h-39q1 22 1 93t-1 93q184 -6 284 -6q57 0 163.5 3t113.5 3q-2 -22 -2 -93t2 -93h-66q-74 0 -114.5 -32t-67.5 -120
q-37 -124 -158.5 -552t-148.5 -535z" />
    <glyph glyph-name="wacute" unicode="&#x1e83;" horiz-adv-x="1753" 
d="M823 1067l-16 25q59 79 131 155t131 113q32 18 62.5 20t51 -8.5t32 -30t11 -42.5t-17 -48t-47.5 -45q-140 -88 -338 -139zM1004 -27q-87 327 -170 590q-101 -297 -183 -590q-32 1 -120.5 1t-120.5 -1q-150 483 -213 676q-31 94 -58 124t-90 30h-18q2 35 2 74.5t-1 61.5
l-1 22q189 -7 293 -7l292 7q-4 -80 0 -158h-18q-90 0 -66 -113q13 -63 52.5 -204t70.5 -240q101 298 129 432q12 62 -2.5 93.5t-70.5 31.5h-25q2 19 2 80t-2 78q162 -7 260 -7l264 7q-2 -17 -2 -78t2 -80h-20q-92 0 -66 -111q15 -66 54.5 -211.5t68.5 -236.5q82 262 121 432
q16 58 2.5 92.5t-63.5 34.5h-29q2 19 2 80t-2 78q147 -7 223 -7l223 7q-2 -17 -2 -78t2 -80h-36q-72 0 -109.5 -34t-73.5 -136q-45 -127 -121 -356.5t-98 -303.5q-38 1 -141 1t-141 -1z" />
    <glyph glyph-name="Wdieresis" unicode="&#x1e84;" horiz-adv-x="2330" 
d="M1217 1663q0 -55 -33 -87t-88 -32q-52 0 -85.5 32.5t-33.5 86.5q0 53 33.5 86t85.5 33q54 0 87.5 -32.5t33.5 -86.5zM1569 1663q0 -55 -34 -87t-87 -32q-52 0 -85.5 32.5t-33.5 86.5q0 53 33.5 86t85.5 33q53 0 87 -33t34 -86zM1739 -12q-46 2 -186.5 2t-186.5 -2
q-110 429 -223 817q-46 -140 -124 -414t-112 -403q-41 2 -171 2t-171 -2q-50 206 -151 572.5t-150 529.5q-23 74 -58 105.5t-106 31.5h-63q3 41 3 87.5t-2 72.5l-1 26q248 -6 389 -6q84 0 236 3l153 3q-1 -22 -1 -93t1 -93h-59q-63 0 -82 -32.5t-2 -104.5
q26 -114 92.5 -359.5t107.5 -382.5q161 532 203 742q14 75 -3.5 106t-84.5 31h-35q2 22 2 93t-2 93q207 -6 326 -6q70 0 195 3t129 3q-6 -94 0 -186h-54q-57 0 -74.5 -31t-0.5 -100q28 -118 94 -366t106 -384q44 149 107 389.5t82 341.5q15 79 -1.5 114.5t-88.5 35.5h-39
q1 22 1 93t-1 93q184 -6 284 -6q57 0 163.5 3t113.5 3q-2 -22 -2 -93t2 -93h-66q-74 0 -114.5 -32t-67.5 -120q-37 -124 -158.5 -552t-148.5 -535z" />
    <glyph glyph-name="wdieresis" unicode="&#x1e85;" horiz-adv-x="1753" 
d="M893 1210q0 -55 -33 -86.5t-88 -31.5q-52 0 -85.5 32t-33.5 86q0 53 33.5 86t85.5 33q54 0 87.5 -32.5t33.5 -86.5zM1245 1210q0 -54 -33.5 -86t-87.5 -32q-52 0 -85 32t-33 86q0 53 33 86t85 33q53 0 87 -33t34 -86zM1004 -27q-87 327 -170 590q-101 -297 -183 -590
q-32 1 -120.5 1t-120.5 -1q-150 483 -213 676q-31 94 -58 124t-90 30h-18q2 35 2 74.5t-1 61.5l-1 22q189 -7 293 -7l292 7q-4 -80 0 -158h-18q-90 0 -66 -113q13 -63 52.5 -204t70.5 -240q101 298 129 432q12 62 -2.5 93.5t-70.5 31.5h-25q2 19 2 80t-2 78q162 -7 260 -7
l264 7q-2 -17 -2 -78t2 -80h-20q-92 0 -66 -111q15 -66 54.5 -211.5t68.5 -236.5q82 262 121 432q16 58 2.5 92.5t-63.5 34.5h-29q2 19 2 80t-2 78q147 -7 223 -7l223 7q-2 -17 -2 -78t2 -80h-36q-72 0 -109.5 -34t-73.5 -136q-45 -127 -121 -356.5t-98 -303.5q-38 1 -141 1
t-141 -1z" />
    </font>
</defs>
</svg>
