<?xml version="1.0" standalone="no"?>
<!DOCTYPE svg PUBLIC "-//W3C//DTD SVG 1.1//EN" "http://www.w3.org/Graphics/SVG/1.1/DTD/svg11.dtd" >
<svg xmlns="http://www.w3.org/2000/svg" xmlns:xlink="http://www.w3.org/1999/xlink" version="1.1">
<metadata>
Created by FontForge 20170731 at Wed Sep  8 12:09:13 2021
 By Aleksey,,,
(C)2010 House Industries/Brand Design Co., Inc. All Rights Reserved.
</metadata>
<defs>
<font id="EamesCenturyModern-Medium" horiz-adv-x="1228" >
  <font-face 
    font-family="Eames Century Modern Medium"
    font-weight="500"
    font-stretch="normal"
    units-per-em="2048"
    panose-1="2 0 6 3 7 7 5 2 2 3"
    ascent="1679"
    descent="-369"
    x-height="952"
    cap-height="1413"
    bbox="-451 -588 2259 2239.35"
    underline-thickness="102"
    underline-position="-307"
    unicode-range="U+0020-FB04"
  />
<missing-glyph horiz-adv-x="1024" 
 />
    <glyph glyph-name="f_f" unicode="ff" horiz-adv-x="1347" 
d="M1245 133v-137q-182 4 -282 4l-285 -4v137h55q79 0 86 94q7 112 2 600h-360q-3 -163 -2 -352t4 -248q7 -94 98 -94h45q-2 -11 -2 -68.5t2 -68.5q-182 4 -284 4l-285 -4v137h59q38 0 60.5 25t27.5 69q6 96 2 596l-135 -4q1 9 1 65.5t-1 65.5l133 -4v45q-8 434 330 434
q70 0 121 -19t78 -51t39.5 -67t13.5 -74q0 -72 -36 -111.5t-103 -39.5q-60 0 -93.5 31.5t-33.5 85.5q0 59 34.5 89.5t92.5 30.5l39 -4q-46 43 -113 43q-96 0 -125.5 -88t12.5 -260l13 -49l366 -2q-13 254 84 369.5t295 115.5q141 0 217 -65.5t78 -159.5q0 -64 -36.5 -100.5
t-102.5 -36.5q-60 0 -95.5 32t-35.5 87q0 57 34.5 87.5t94.5 30.5l26 -2q-44 41 -114 41q-102 0 -144 -71t-28 -250l6 -74l137 6v-131l-141 6q-5 -454 4 -598q2 -46 20.5 -70t65.5 -24h61z" />
    <glyph glyph-name="f_i" unicode="fi" horiz-adv-x="1280" 
d="M51 950l131 -6v19q-2 231 117.5 346.5t372.5 115.5q161 0 255.5 -62t94.5 -161q0 -69 -39.5 -104t-101.5 -35q-67 0 -101.5 32.5t-34.5 88.5q0 54 33 84t92 32q-60 31 -151 31q-129 0 -193.5 -65t-64.5 -228v-90q483 0 635 8q-3 -109 -3 -369t3 -343q3 -69 27 -91t87 -22
h35v-135q-182 4 -282 4l-287 -4v135h33q60 0 82.5 22t25.5 85q3 75 3.5 236t-3.5 237q-3 63 -25 87t-71 27q-43 2 -262 2q0 -547 4 -600q2 -25 5 -39.5t13 -28.5t29.5 -20t50.5 -6h43v-137q-182 4 -282 4l-285 -4v137h59q79 0 86 94q6 73 2 596l-133 -4q1 9 1 65.5t-1 65.5z
" />
    <glyph glyph-name="f_l" unicode="fl" horiz-adv-x="1280" 
d="M1098 1419q-2 -66 -2.5 -569.5t2.5 -587.5q3 -74 27 -102.5t85 -28.5h37q-1 -23 -1 -74t1 -61q-185 4 -289 4l-280 -4v135h39q57 1 78 29t24 100t3 453.5t-3 441.5q-4 54 -16 82.5t-47 38.5q10 -38 10 -68q0 -71 -37.5 -108t-105.5 -37q-59 0 -93 33t-34 88q0 56 36.5 86
t94.5 30q27 0 39 -2q-44 41 -113 41q-98 0 -129.5 -89.5t16.5 -258.5l15 -47l147 6v-131l-139 4q-8 -442 0 -596q7 -94 96 -94h45v-137q-178 4 -280 4l-287 -4v137h59q39 0 62 25t26 69q6 67 2 596l-135 -4q1 9 1 65.5t-1 65.5l133 -6v47q-8 434 330 434q92 0 158 -39v27
q346 0 426 6z" />
    <glyph glyph-name="f_f_i" unicode="ffi" horiz-adv-x="1918" 
d="M1241 133v-137q-181 4 -283 4l-278 -4v137h57q77 0 84 94q4 92 0 600h-362q-7 -390 4 -600q7 -94 98 -94h47q-2 -11 -2 -68.5t2 -68.5q-184 4 -284 4l-287 -4v137h59q39 0 62 25t26 69q6 67 2 596l-135 -4q1 9 1 65.5t-1 65.5l133 -4v45q-4 228 82 331t252 103
q70 0 120.5 -19.5t76.5 -52t37.5 -68t11.5 -75.5q0 -72 -34.5 -109.5t-100.5 -37.5q-63 0 -96 32.5t-33 88.5q0 57 36 86.5t89 29.5l43 -4q-46 43 -115 43q-96 0 -126.5 -88t11.5 -260l13 -49l368 -2q-12 235 112 360t380 125q165 0 253.5 -62t88.5 -161q0 -68 -39.5 -103.5
t-106.5 -35.5q-63 0 -98 33t-35 88t35 84.5t96 31.5q-62 35 -153 35q-130 0 -191 -63.5t-61 -220.5v-103q467 0 635 8q-3 -109 -3 -369t3 -343q1 -69 25 -91t87 -22h37q-2 -23 -2 -74t2 -61q-183 4 -285 4l-286 -4q1 10 1 61.5t-1 73.5h35q60 0 82.5 22t25.5 85
q3 75 3.5 236t-3.5 237q-3 63 -25 87t-71 27q-41 2 -262 2q-2 -132 -0.5 -346.5t4.5 -253.5q3 -49 21 -71.5t75 -22.5h43z" />
    <glyph glyph-name="f_f_l" unicode="ffl" horiz-adv-x="1914" 
d="M51 950l133 -4v45q-8 434 330 434q70 0 121 -19t78 -51.5t39 -68t12 -76.5q0 -147 -137 -147q-61 0 -94 32.5t-33 86.5q0 58 36 88t95 30q23 0 33 -2q-44 41 -111 41q-96 0 -125.5 -88t12.5 -260l13 -49l366 -2v51q-8 434 334 434q95 0 156 -36v24q344 0 424 6
q0 -11 -0.5 -196t-1 -376t0 -371t1.5 -214q3 -74 28 -102.5t86 -28.5h35v-135q-183 4 -283 4l-286 -4v135h39q61 1 80 28t22 101q3 72 3 453.5t-3 441.5q-3 52 -15 80t-44 39q8 -27 8 -60q0 -151 -137 -151q-63 0 -96 33t-33 90q0 56 37.5 85t97.5 29q20 0 28 -2
q-44 41 -110 41q-96 0 -125 -89t14 -259l13 -47l147 6v-131l-139 6q-3 -163 -2 -351t4 -247q7 -94 96 -94h43v-137q-180 4 -280 4l-281 -4v137h55q77 0 84 94q9 148 2 600h-360q-3 -163 -2 -352t4 -248q7 -94 100 -94h45v-137q-184 4 -286 4l-285 -4v137h59q38 0 61.5 25.5
t26.5 68.5q6 67 2 596l-135 -4q1 9 1 65.5t-1 65.5z" />
    <glyph glyph-name="f_j" unicode="fj" horiz-adv-x="1196" 
d="M51 950l131 -6v19q-2 231 117.5 346.5t372.5 115.5q165 0 255.5 -62t90.5 -161q0 -67 -42 -103t-106 -36q-65 0 -101 34t-36 89q0 51 36.5 83.5t86.5 35.5q-53 26 -143 26q-62 0 -106.5 -13.5t-78.5 -45.5t-50.5 -90t-16.5 -144v-88q561 0 637 6q-6 -195 0 -921
q3 -234 -88 -340.5t-279 -106.5q-144 0 -212 56.5t-68 146.5q0 69 41 105t96 36q63 0 97 -31.5t34 -88.5q0 -46 -35 -87t-100 -42q39 -17 82 -17q80 0 116.5 54.5t36.5 205.5q0 31 1 235.5t1 365t-2 190.5q-6 102 -102 102h-258q0 -541 4 -592q2 -25 5 -39.5t13 -28.5
t29.5 -20t50.5 -6h53v-137q-192 4 -292 4l-285 -4v137h59q79 0 86 94q6 73 2 596l-133 -4q1 9 1 65.5t-1 65.5z" />
    <glyph glyph-name="f_t" unicode="ft" horiz-adv-x="1370" 
d="M1255 317l84 -6q6 -81 -1 -141t-32 -109t-77 -74.5t-131 -25.5q-291 0 -285 326q5 374 2 536h-352q-3 -163 -2 -351t4 -245q7 -94 100 -94h45v-137q-184 4 -286 4l-287 -4v137h59q38 0 61.5 25.5t26.5 68.5q6 66 2 594l-135 -2q1 9 1 65.5t-1 65.5l133 -6v47
q-8 434 330 434q70 0 121.5 -19t79 -51t40.5 -67.5t13 -75.5q0 -70 -34.5 -109.5t-100.5 -39.5q-61 0 -96 32.5t-35 86.5q0 55 33.5 85.5t95.5 30.5q15 0 39 -4q-45 45 -117 45q-98 0 -129 -94t18 -254l17 -59h149q73 0 124.5 6.5t94 24t70.5 44t50.5 71t37 100.5t27.5 137
h114q-16 -125 -20 -375l209 12v-133l-211 2q0 -389 2 -495q1 -127 15.5 -171t54.5 -44q51 0 67.5 44.5t11.5 161.5z" />
    <glyph glyph-name="t_t" unicode="tt" horiz-adv-x="1347" 
d="M1235 317l82 -6q6 -81 -1 -141t-32 -109t-77.5 -74.5t-131.5 -25.5q-155 0 -221 81.5t-63 244.5q4 328 4 536h-369q0 -391 2 -497q1 -127 15.5 -171t54.5 -44q50 0 66.5 43t10.5 151h80q45 -344 -235 -344q-155 0 -221.5 81.5t-63.5 244.5q4 328 4 534l-106 -2v109
q133 7 204.5 101.5t96.5 285.5h115q-17 -135 -21 -389l217 2q91 2 152.5 27.5t99.5 78t58.5 117.5t33.5 164h115q-17 -135 -21 -375l211 12q-2 -10 -2 -67t2 -66l-213 2q0 -389 2 -495q1 -127 15.5 -171t54.5 -44q51 0 68 44.5t14 161.5z" />
    <glyph glyph-name=".notdef" horiz-adv-x="1024" 
 />
    <glyph glyph-name=".null" horiz-adv-x="0" 
 />
    <glyph glyph-name="nonmarkingreturn" horiz-adv-x="682" 
 />
    <glyph glyph-name="space" unicode=" " horiz-adv-x="468" 
 />
    <glyph glyph-name="exclam" unicode="!" horiz-adv-x="532" 
d="M430 123q0 -72 -44.5 -114t-119.5 -42q-71 0 -115.5 42.5t-44.5 117.5q0 70 45 114t115 44q74 0 119 -44.5t45 -117.5zM291 436q0 -18 -6 -26.5t-23 -8.5t-23 8t-6 27q0 57 -3 108.5t-5 88t-11 86t-12.5 71t-19 76t-19.5 69t-25.5 81.5t-26.5 84q-50 166 -6 260t157 94
t160 -94t-6 -260q-42 -119 -57.5 -168.5t-35.5 -134t-26 -165.5t-6 -196z" />
    <glyph glyph-name="quotedbl" unicode="&#x22;" horiz-adv-x="749" 
d="M246 895q0 -31 -27 -31q-22 0 -22 31q0 136 -8 215t-35 143q-34 86 -14 141.5t81 55.5t82 -55.5t-16 -141.5q-29 -65 -36 -141.5t-5 -216.5zM553 895q0 -31 -27 -31q-22 0 -22 31q0 136 -8 215t-35 143q-34 86 -14 141.5t81 55.5t82 -55.5t-16 -141.5q-29 -65 -36 -141.5
t-5 -216.5z" />
    <glyph glyph-name="numbersign" unicode="#" horiz-adv-x="1214" 
d="M319 0h-65q41 190 94 455q-53 0 -137 -1t-113 -1l15 75q132 -4 247 -4l68 353q-59 0 -153 -1.5t-125 -1.5q1 3 16 76q144 -4 274 -4q46 248 78 463h70q-42 -168 -99 -463h342q57 356 72 463h70q-13 -54 -92 -463q111 0 237 4q-14 -70 -14 -76q-28 0 -108 1.5t-128 1.5
q-20 -104 -63 -353q116 0 242 4q-2 -4 -5.5 -21t-7 -34.5t-4.5 -19.5q-28 0 -107.5 1t-129.5 1q-41 -235 -72 -455h-66q34 157 90 455h-350q-49 -262 -76 -455zM475 877l-67 -353h350q28 143 61 353h-344z" />
    <glyph glyph-name="dollar" unicode="$" horiz-adv-x="1208" 
d="M543 1612l-6 -228q73 4 118 0l-6 228h101l-7 -238q156 -26 243 -102t85 -185q0 -61 -34.5 -98t-92.5 -37q-66 0 -100.5 29.5t-34.5 83.5q0 44 31 75.5t82 35.5q-64 70 -181 94l-10 -385q232 -35 330 -137t98 -273q0 -175 -108.5 -291.5t-307.5 -148.5l7 -238h-101l4 228
q-64 -3 -116 2l6 -230h-99l7 238q-181 26 -285.5 109.5t-104.5 205.5q0 60 38.5 98.5t101.5 38.5q64 0 99.5 -30.5t35.5 -87.5q0 -45 -33 -75.5t-86 -33.5q61 -90 236 -115l10 437q-185 37 -276 137.5t-91 247.5q0 155 96.5 263t258.5 142l-7 240h99zM965 356
q0 75 -55 118.5t-179 68.5l10 -393q105 23 164.5 78.5t59.5 127.5zM524 571l11 -434q81 -4 122 0l11 418q-24 4 -72.5 8t-71.5 8zM524 911q99 -14 144 -18l-11 387q-81 4 -122 0zM287 1079q0 -54 39.5 -92t134.5 -63l-8 342q-81 -23 -123.5 -72.5t-42.5 -114.5z" />
    <glyph glyph-name="percent" unicode="%" 
d="M190 174q0 8 6 13.5t13 5.5q16 0 16 -19q0 -16 -16 -16q-19 0 -19 16zM266 285q0 11 8.5 19.5t20.5 8.5q11 0 20 -9t9 -19q0 -12 -9 -21.5t-20 -9.5q-12 0 -20.5 9.5t-8.5 21.5zM342 393q0 17 11.5 28t27.5 11q17 0 28 -11t11 -28q0 -16 -11 -27.5t-28 -11.5
q-15 0 -27 12t-12 27zM420 504q0 19 14 32t33 13q20 0 33.5 -13t13.5 -32q0 -20 -13.5 -33.5t-33.5 -13.5q-19 0 -33 13.5t-14 33.5zM502 612q0 22 14.5 37t36.5 15t36.5 -15t14.5 -37t-14.5 -36.5t-36.5 -14.5t-36.5 14.5t-14.5 36.5zM586 723q0 22 15.5 36.5t37.5 14.5
q23 0 38 -14.5t15 -36.5q0 -23 -15 -38t-38 -15q-22 0 -37.5 15t-15.5 38zM674 831q0 22 14.5 37t36.5 15t36.5 -15t14.5 -37t-14.5 -36.5t-36.5 -14.5t-36.5 14.5t-14.5 36.5zM764 942q0 19 14 32t33 13q20 0 33.5 -13t13.5 -32q0 -20 -13.5 -33.5t-33.5 -13.5
q-19 0 -33 13.5t-14 33.5zM858 1051q0 17 11.5 28t27.5 11q17 0 28 -11t11 -28q0 -16 -11 -27.5t-28 -11.5q-15 0 -27 12t-12 27zM954 1161q0 11 9 20t20 9q12 0 20.5 -9t8.5 -20q0 -12 -8.5 -21.5t-20.5 -9.5q-11 0 -20 9.5t-9 21.5zM1053 1270q0 18 16 18q7 0 12.5 -5
t5.5 -13q0 -17 -18 -17q-16 0 -16 17zM862 12q57 0 80 51.5t23 202.5q0 106 -12.5 163.5t-33 76t-57.5 18.5q-54 0 -79 -54t-25 -204q0 -107 11.5 -162.5t32 -73.5t60.5 -18zM862 -59q-130 0 -204 78t-74 247q0 86 23.5 151.5t64 103t88 55.5t102.5 18q129 0 204 -79
t75 -249q0 -86 -23.5 -150.5t-63.5 -101.5t-88.5 -55t-103.5 -18zM387 877q38 0 59.5 19.5t33.5 75t12 158.5q0 106 -13 163.5t-34 76.5t-58 19q-35 0 -56.5 -20t-34.5 -78.5t-13 -160.5q0 -107 11.5 -162.5t32 -73t60.5 -17.5zM387 805q-129 0 -202.5 78t-73.5 247
q0 87 23 152t63 102.5t87.5 55.5t102.5 18q129 0 204 -79t75 -249q0 -86 -23.5 -150.5t-63.5 -101.5t-88.5 -55t-103.5 -18z" />
    <glyph glyph-name="ampersand" unicode="&#x26;" horiz-adv-x="1583" 
d="M1544 297q-4 -72 -22.5 -127.5t-56.5 -101.5t-104.5 -70.5t-158.5 -24.5q-101 0 -179.5 22t-150.5 77q-133 -111 -354 -111q-200 0 -318 97t-118 274q0 78 28.5 144.5t77.5 114t108 79.5t126 49q-88 190 -88 334q0 196 104.5 288.5t290.5 92.5q163 0 248.5 -87t85.5 -225
q0 -146 -82.5 -258.5t-214.5 -167.5q39 -68 59 -96q112 -176 199 -291q92 109 98 230q8 102 -82 102h-55v111q162 -7 252 -7l252 7v-111h-78q-60 0 -87 -25t-38 -69q-52 -197 -199 -316q59 -65 102 -84.5t95 -19.5q73 0 118 49.5t50 134.5zM610 119q99 0 183 24
q-110 113 -238 334q-43 71 -78 135q-54 -33 -86.5 -88.5t-32.5 -122.5q0 -128 69.5 -205t182.5 -77zM616 1112q0 -78 24 -156.5t79 -179.5q79 49 112 130.5t33 205.5q0 98 -29 143t-94 45q-67 0 -96 -45t-29 -143z" />
    <glyph glyph-name="quotesingle" unicode="'" horiz-adv-x="446" 
d="M248 895q0 -31 -27 -31q-22 0 -22 31q0 136 -8 215t-35 143q-34 86 -14 141.5t81 55.5t82 -55.5t-16 -141.5q-29 -65 -36 -141.5t-5 -216.5z" />
    <glyph glyph-name="parenleft" unicode="(" horiz-adv-x="585" 
d="M313 629q0 -300 19.5 -480.5t61.5 -294.5t124 -229l-65 -51q-91 75 -158.5 163.5t-122.5 213t-83 294.5t-28 384q0 213 28 383t83 294.5t122.5 213t158.5 163.5l65 -53q-81 -113 -123.5 -230t-62 -296.5t-19.5 -474.5z" />
    <glyph glyph-name="parenright" unicode=")" horiz-adv-x="585" 
d="M266 629q0 295 -19.5 474.5t-62 296.5t-123.5 230l66 53q91 -75 158.5 -163.5t122 -213t82.5 -294.5t28 -383q0 -214 -28 -384t-82.5 -294.5t-122 -213t-158.5 -163.5l-66 51q82 115 124 229t61.5 294.5t19.5 480.5z" />
    <glyph glyph-name="asterisk" unicode="*" horiz-adv-x="1024" 
d="M555 1231q-23 -47 -25 -129l29 -17q43 26 63 43.5t35 42.5q6 11 19 41.5t28 51t41 36.5q45 26 89 14t67 -50q24 -39 11.5 -84.5t-56.5 -69.5q-25 -14 -53 -16.5t-59 0.5t-44 2q-47 -3 -120 -41l-2 -33q45 -25 70 -34t52 -9q12 0 45.5 4t58.5 1t52 -17q45 -24 57 -69.5
t-12 -84.5q-23 -38 -67 -49.5t-89 14.5q-25 15 -40.5 37t-29 50.5t-20.5 39.5q-25 39 -96 84l-29 -16q0 -52 5 -78t20 -49q5 -9 26.5 -36t31.5 -50t10 -53q0 -51 -32.5 -83t-78.5 -32t-78 32t-31 83q0 38 33 89t33 52q23 44 25 125l-31 16q-42 -27 -61.5 -44t-32.5 -40
q-5 -9 -19.5 -40.5t-29.5 -51t-41 -35.5q-45 -26 -88 -14.5t-66 51.5q-24 38 -12 83t57 69q25 14 52.5 16.5t58 -0.5t43.5 -2q52 3 120 41v35q-75 41 -120 41q-11 0 -44.5 -4t-58.5 -1t-51 17q-45 26 -57 70.5t12 83.5t67.5 50t86.5 -14q24 -16 40.5 -38.5t29 -51
t20.5 -39.5q14 -22 34 -40t62 -44l29 17q-2 82 -27 127q-6 10 -25.5 36.5t-29.5 49.5t-11 53q-1 52 31 84.5t78 32.5q47 0 79.5 -33t31.5 -84q-1 -28 -13 -53t-29.5 -49.5t-23.5 -36.5z" />
    <glyph glyph-name="plus" unicode="+" 
d="M686 53h-145q11 309 24 412q-141 -18 -407 -25v146q71 0 197.5 -7t209.5 -18q-17 127 -24 408h145q0 -72 -6.5 -199t-17.5 -209q83 11 210.5 18t198.5 7v-146q-271 7 -409 25q13 -103 24 -412z" />
    <glyph glyph-name="comma" unicode="," horiz-adv-x="522" 
d="M61 -209q146 20 219 100.5t62 194.5q-28 -49 -102 -49q-53 0 -84 31.5t-31 91.5q0 59 38.5 97t104.5 38q69 0 110.5 -49.5t41.5 -151.5q0 -43 -8 -83t-31.5 -86t-61 -81.5t-101.5 -63.5t-148 -38z" />
    <glyph glyph-name="hyphen" unicode="-" horiz-adv-x="598" 
d="M43 426v176q255 -8 514 0q-1 -26 -1 -88.5t1 -87.5q-259 8 -514 0z" />
    <glyph glyph-name="period" unicode="." horiz-adv-x="538" 
d="M436 131q0 -73 -45 -115.5t-123 -42.5q-75 0 -120.5 41.5t-45.5 118.5q0 72 47 117t119 45q77 0 122.5 -45.5t45.5 -118.5z" />
    <glyph glyph-name="slash" unicode="/" horiz-adv-x="784" 
d="M221 -365q-26 3 -96 3t-96 -3q105 333 275.5 900t258.5 878q32 -3 96.5 -3t96.5 3q-107 -340 -277.5 -905.5t-257.5 -872.5z" />
    <glyph glyph-name="zero" unicode="0" horiz-adv-x="1243" 
d="M387 561q0 -147 14 -242.5t44.5 -149t72.5 -74.5t105 -21q83 0 131.5 40.5t75 149t26.5 301.5q0 194 -27 305t-76 153t-132 42q-81 0 -130 -43.5t-76.5 -156t-27.5 -304.5zM84 563q0 290 146 451.5t393 161.5q257 0 397.5 -159t140.5 -452q0 -152 -39 -268t-111 -188.5
t-169.5 -109t-218.5 -36.5q-263 0 -401 148.5t-138 451.5z" />
    <glyph glyph-name="one" unicode="1" horiz-adv-x="890" 
d="M186 139q67 0 92 26.5t25 82.5v577q-50 -21 -111 -28t-104 2v135h53q149 -3 211 56.5t74 199.5h174q-8 -162 -10 -246q0 -23 1 -344t1 -352q0 -58 25 -83.5t90 -25.5h108v-141q-238 6 -371 6l-370 -6v141h112z" />
    <glyph glyph-name="two" unicode="2" horiz-adv-x="1095" 
d="M973 428q31 -95 31 -166q0 -145 -72 -224.5t-205 -80.5q-55 -1 -99.5 8t-87 32.5t-72.5 46t-81 65.5q-70 61 -145 65q-61 0 -86 -37q9 4 39 8q44 0 69 -25t25 -67q0 -41 -27.5 -64.5t-75.5 -23.5q-51 0 -81.5 39.5t-30.5 108.5q0 138 74 237t239 166q157 64 222 137
t65 181q0 103 -58 160t-172 57q-86 0 -156.5 -37t-99.5 -109q35 15 82 15q65 0 104.5 -36.5t39.5 -99.5t-42 -98t-114 -35q-74 0 -116 48.5t-42 134.5q0 158 119 250t313 92q210 0 320.5 -85.5t110.5 -234.5q0 -170 -120.5 -268.5t-365.5 -147.5q-250 -51 -309 -194
q104 118 377 61q159 -33 223 -29q130 8 113 138z" />
    <glyph glyph-name="three" unicode="3" horiz-adv-x="1193" 
d="M1047 809q0 -138 -77 -223.5t-206 -118.5q168 -21 259 -117.5t91 -243.5q0 -207 -150 -314t-413 -107q-211 0 -341 99t-130 249q0 90 49.5 143t128.5 53q74 0 115 -38t41 -107q0 -67 -44.5 -102t-113.5 -35q-33 0 -63 10q36 -79 118.5 -119.5t182.5 -40.5q303 0 303 314
q0 145 -76.5 215.5t-235.5 70.5h-65v111h61q141 2 206 71t65 220q0 119 -61.5 184.5t-178.5 65.5q-88 0 -163.5 -35.5t-110.5 -102.5q36 9 57 9q68 0 108.5 -36t40.5 -100q0 -62 -40 -97.5t-109 -35.5q-75 0 -117.5 44.5t-42.5 125.5q0 148 126.5 251.5t334.5 103.5
q211 0 331 -96t120 -271z" />
    <glyph glyph-name="four" unicode="4" horiz-adv-x="1187" 
d="M618 -18q1 16 5 184q-257 3 -562 -2v96q21 36 337.5 464.5t338.5 467.5h176q-4 -303 -4 -928l224 4v-110l-224 4q0 -130 4 -180q5 -50 26.5 -67t82.5 -17h80v-140q-205 6 -336 6l-352 -6v140h94q64 0 86.5 16.5t23.5 67.5zM621 850q-42 -58 -215 -293.5t-213 -296.5
q119 -2 430 -2q0 422 -2 592z" />
    <glyph glyph-name="five" unicode="5" horiz-adv-x="1177" 
d="M483 485q-147 0 -280 -98l-49 47q53 118 76 336.5t18 409.5q51 -19 158 -33t221 -14q125 0 233 19.5t174 49.5l49 -39q-23 -146 -138 -226.5t-302 -80.5q-191 0 -315 86q-7 -255 -64 -428q157 102 359 102q238 0 358.5 -115.5t120.5 -340.5q0 -229 -152 -352t-420 -123
q-211 0 -331.5 97t-120.5 251q0 92 49.5 144t128.5 52q76 0 117 -37t41 -106q0 -66 -43 -102.5t-115 -36.5q-40 0 -68 14q33 -79 112.5 -119.5t186.5 -40.5q149 0 226.5 83t77.5 272q0 172 -78 250.5t-230 78.5z" />
    <glyph glyph-name="six" unicode="6" horiz-adv-x="1200" 
d="M692 1356q-164 0 -236 -142.5t-77 -472.5q46 71 132 113.5t189 42.5q208 0 315 -115t107 -323q0 -221 -144.5 -355.5t-379.5 -134.5q-116 0 -208 38t-162.5 117.5t-109 214.5t-38.5 318q0 199 44.5 353.5t123 250t181 144.5t222.5 49q190 0 298 -90t108 -219
q0 -84 -42.5 -130t-123.5 -46q-71 0 -111.5 37.5t-40.5 99.5q0 67 42.5 102t111.5 35q15 0 39 -4q-28 57 -90.5 87t-149.5 30zM381 442q0 -172 55 -262t185 -90q215 0 215 352q0 332 -215 332q-118 0 -179 -76.5t-61 -255.5z" />
    <glyph glyph-name="seven" unicode="7" horiz-adv-x="1107" 
d="M197 1188l18 -115q33 55 91 84t128 29q131 0 254 -96q76 -59 126 -81t97 -22q52 0 80 25h-20q-45 0 -74 25.5t-29 64.5q0 48 29.5 73t75.5 25q51 0 80.5 -33t29.5 -98q0 -77 -37.5 -154t-127.5 -172q-114 -120 -157 -182q-103 -147 -119 -353q-10 -128 9 -300
q14 -99 -37 -152t-133 -53q-92 0 -138 57t-46 189q0 215 103.5 389.5t314.5 325.5q5 3 39.5 28.5t42.5 31.5t36 27.5t39.5 33l31.5 31.5t34 38.5t27 38.5q-106 -98 -283 -98q-76 -1 -135.5 14t-134.5 51q-72 31 -107 31q-52 0 -76.5 -38.5t-23.5 -121.5q-20 3 -61.5 3
t-61.5 -3q12 94 10 224.5t-16 232.5q20 -3 60.5 -3t60.5 3z" />
    <glyph glyph-name="eight" unicode="8" horiz-adv-x="1216" 
d="M1063 1120q0 -187 -184 -297q142 -58 204 -152.5t62 -232.5q0 -229 -148 -349t-401 -120q-270 0 -393 89t-123 264q0 116 66.5 195t177.5 124q-189 119 -189 365q0 204 130.5 326t359.5 122q214 0 326 -91t112 -243zM545 559q-64 13 -137 41q-154 -95 -154 -266
q0 -109 88 -171.5t262 -62.5q162 0 254 60.5t92 154.5q0 63 -34.5 103.5t-119.5 72.5t-251 68zM623 1333q-141 0 -211 -60.5t-70 -150.5q0 -97 75 -150.5t273 -94.5l88 -19q121 103 121 256q0 98 -65.5 158.5t-210.5 60.5z" />
    <glyph glyph-name="nine" unicode="9" horiz-adv-x="1193" 
d="M477 -227q120 0 192 61.5t107 198t37 368.5q-44 -75 -125 -118t-188 -43q-208 0 -318 116.5t-110 319.5q0 223 145 361.5t375 138.5q118 0 211.5 -40t164 -122.5t108.5 -219t38 -319.5q0 -371 -153 -580.5t-447 -209.5q-200 0 -314 87.5t-114 217.5q0 81 46 127.5
t124 46.5q70 0 111 -37t41 -102q0 -66 -43 -102t-117 -36q-24 0 -49 7q75 -121 278 -121zM811 709q0 177 -55.5 267.5t-184.5 90.5q-215 0 -215 -358q0 -349 217 -349q117 0 177.5 80.5t60.5 268.5z" />
    <glyph glyph-name="colon" unicode=":" horiz-adv-x="561" 
d="M418 705q0 -60 -37 -95t-100 -35q-61 0 -99.5 35t-38.5 97q0 61 38.5 97t99.5 36q63 0 100 -36.5t37 -98.5zM418 250q0 -60 -37 -94.5t-100 -34.5q-62 0 -100 34.5t-38 96.5q0 61 38.5 97t99.5 36q63 0 100 -36.5t37 -98.5z" />
    <glyph glyph-name="semicolon" unicode=";" horiz-adv-x="573" 
d="M152 256q0 58 38.5 94.5t100.5 36.5q71 0 108 -49.5t37 -134.5q0 -133 -97.5 -233.5t-262.5 -137.5l-15 51q148 36 226.5 119t74.5 203q-26 -66 -106 -66q-104 0 -104 117zM430 705q0 -60 -38 -95t-101 -35q-61 0 -98 35t-37 97q0 61 38 97t97 36q63 0 101 -37t38 -98z
" />
    <glyph glyph-name="less" unicode="&#x3c;" 
d="M285 473v74q441 294 571 387l72 -123q-145 -73 -537 -301q21 -12 156.5 -90t227.5 -129t153 -82l-72 -123q-130 93 -571 387z" />
    <glyph glyph-name="equal" unicode="=" 
d="M164 279q3 71 0 141q452 -8 901 0q-3 -69 0 -141q-449 8 -901 0zM164 608q3 71 0 142q452 -8 901 0q-3 -69 0 -142q-449 8 -901 0z" />
    <glyph glyph-name="greater" unicode="&#x3e;" 
d="M924 547v-74q-456 -304 -572 -387l-71 123q61 30 154.5 82.5t223.5 127.5t158 91q-398 232 -536 301l71 123q116 -83 572 -387z" />
    <glyph glyph-name="question" unicode="?" horiz-adv-x="1050" 
d="M752 555l26 -57q-50 -43 -124 -74t-150 -31q-72 0 -117 36.5t-45 98.5q0 53 33 92t104 78q46 25 80.5 53.5t66 70.5t48 100.5t16.5 130.5q0 122 -64.5 196t-195.5 74q-90 0 -161 -40.5t-99 -123.5q47 21 92 21q70 0 110 -40.5t40 -109.5q0 -65 -46 -105t-122 -40
q-84 0 -129 50.5t-45 145.5q0 162 122.5 267.5t346.5 105.5q230 0 346 -103t116 -284q0 -167 -101 -271.5t-320 -187.5q-65 -24 -89 -41t-24 -43q0 -25 19 -37t46 -12q118 0 220 80zM707 125q0 -73 -44.5 -115.5t-119.5 -42.5q-73 0 -117.5 42t-44.5 118q0 71 45.5 114.5
t116.5 43.5q75 0 119.5 -44t44.5 -116z" />
    <glyph glyph-name="at" unicode="@" horiz-adv-x="1691" 
d="M1327 893q-71 -274 -108 -504q-11 -60 -11 -105.5t23 -72.5t69 -27q78 0 131.5 79t77.5 196q72 344 -59 535.5t-471 191.5q-286 0 -481 -168.5t-248 -491.5q-58 -370 86 -555.5t446 -185.5q156 0 286 44.5t210 111.5l41 -43q-86 -88 -232.5 -141.5t-298.5 -53.5
q-263 0 -434.5 104.5t-235.5 290t-22 432.5q29 171 110 311t198.5 232t263.5 141.5t307 49.5q182 0 317.5 -49t221 -149t109 -252t-18.5 -357q-78 -373 -396 -373q-113 0 -179.5 48.5t-67.5 143.5q-49 -95 -125.5 -139.5t-163.5 -44.5q-120 0 -181.5 84t-37.5 256
q35 244 151.5 367t263.5 123q95 0 146 -42.5t61 -115.5q84 88 99 129q25 -3 76.5 -3t76.5 3zM795 217q59 0 111.5 86.5t88.5 271.5q44 228 -67 228q-63 0 -118.5 -88.5t-88.5 -274.5q-39 -223 74 -223z" />
    <glyph glyph-name="A" unicode="A" horiz-adv-x="1808" 
d="M1118 354l-28 82q-223 6 -533 2q-6 -17 -12 -34.5t-10.5 -33t-6.5 -20.5q-32 -92 -9.5 -142t110.5 -50h82q0 -8 -1 -81t-1 -81q-205 4 -322 4l-321 -4q2 12 2 81t-2 81h65q86 0 131.5 38.5t83.5 137.5q68 168 406 1091q98 -6 153 -6l152 6q58 -166 215 -566.5t211 -526.5
q43 -98 83 -136t101 -38h76v-162q-254 4 -395 4l-398 -4v162h86q151 0 82 196zM1049 551q-101 281 -230 612q-60 -161 -221 -612q231 -3 451 0z" />
    <glyph glyph-name="B" unicode="B" horiz-adv-x="1443" 
d="M1376 414q1 -101 -26.5 -174t-92 -129.5t-179.5 -84.5t-281 -28q-10 0 -174 1t-189 1l-368 -2q2 12 2 80t-2 80h94q69 0 94.5 19.5t26.5 78.5q5 104 5 454.5t-5 436.5q-3 61 -27 84.5t-80 23.5h-108q2 23 2 79.5t-2 78.5q12 0 177.5 -2t205.5 -2q48 0 167.5 1t161.5 1
q273 0 409 -90.5t136 -265.5q0 -123 -67.5 -205t-184.5 -115q142 -29 223.5 -114t81.5 -207zM711 668h-117q0 -371 4 -437q1 -47 22 -67.5t60 -20.5h88q148 0 209 65.5t61 209.5q0 130 -79 190t-248 60zM598 1188q-4 -59 -4 -408h115q164 0 226 53.5t62 198.5
q0 238 -256 238h-61q-79 0 -82 -82z" />
    <glyph glyph-name="C" unicode="C" horiz-adv-x="1499" 
d="M1130 1366q74 -41 100.5 -28t35.5 92q11 -2 74.5 -2t72.5 2q-14 -88 -25.5 -253.5t-7.5 -273.5q-98 8 -196 0q-10 71 -23.5 124.5t-40 105.5t-64.5 85t-97.5 53.5t-137.5 20.5q-194 0 -280 -134.5t-86 -448.5q0 -141 18 -245.5t48.5 -169.5t76.5 -104.5t96.5 -54
t114.5 -14.5q183 0 283 113.5t108 316.5q35 -3 104.5 -3t106.5 3q-7 -153 -43.5 -261t-110.5 -183t-189.5 -110.5t-279.5 -35.5q-131 0 -237 25t-193 81.5t-145.5 142.5t-90.5 212t-32 287q0 190 52 335t146 233.5t217 132.5t273 44q200 0 352 -88z" />
    <glyph glyph-name="D" unicode="D" horiz-adv-x="1611" 
d="M817 1411q367 0 534.5 -167t172.5 -527q2 -156 -32.5 -278.5t-97 -204.5t-152.5 -135.5t-194 -77t-227 -23.5q-260 2 -379 2l-376 -4q2 12 2 81t-2 81h92q71 0 96.5 19.5t26.5 78.5q5 103 5 454t-5 437q-3 61 -28 84.5t-81 23.5h-106q2 12 2 79t-2 79q6 0 160 -2t223 -2
q49 0 136 0.5t156.5 1t75.5 0.5zM598 246q1 -47 26.5 -71.5t63.5 -24.5h84q90 0 154.5 16t115.5 54t81.5 103.5t46.5 162.5t16 233q0 208 -40.5 325.5t-128.5 168.5t-243 51h-86q-86 0 -90 -84q-7 -126 -6 -467t6 -467z" />
    <glyph glyph-name="E" unicode="E" horiz-adv-x="1501" 
d="M905 987v43h133q-8 -238 -8 -313q0 -185 8 -324h-129v37q-3 124 -54.5 176.5t-180.5 52.5h-80q0 -301 6 -387q5 -114 115 -114h250q170 0 235.5 88t65.5 305q13 -1 83.5 -1t84.5 1q-21 -228 -21 -561q-133 10 -416 10h-561q-49 0 -139 -1t-161 -2l-70 -1q2 12 2 81t-2 81
h92q66 0 92 31.5t31 95.5q6 83 6 424t-6 430q-4 65 -29.5 90.5t-81.5 25.5h-104q2 12 2 79t-2 79q12 0 175 -2t203 -2q12 0 197 1t336 1q352 0 448 12q-16 -204 -12 -524h-153q0 143 -30.5 219.5t-91 104.5t-171.5 28h-258q-103 0 -109 -106q-6 -85 -6 -373h84
q122 0 174.5 48t52.5 167z" />
    <glyph glyph-name="F" unicode="F" horiz-adv-x="1445" 
d="M891 1028h133q-8 -156 -8 -313q0 -220 8 -324h-129v49q0 114 -55 162.5t-183 48.5h-61q0 -246 4 -364q3 -66 30 -97.5t95 -31.5h127v-162q-252 4 -393 4l-393 -4q2 12 2 81t-2 81h96q64 0 91.5 33t29.5 96q5 103 5 433.5t-5 424.5q-3 60 -28 85t-81 25h-108q2 12 2 79
t-2 79q11 0 173 -2t205 -2q12 0 165 1t323 1q352 0 448 12q-16 -242 -12 -546q-19 1 -79 1t-75 -1q0 113 -16.5 185t-54.5 114t-93 58.5t-141 16.5h-200q-103 0 -109 -106q-4 -106 -4 -371h88q106 0 156.5 48t50.5 163v43z" />
    <glyph glyph-name="G" unicode="G" horiz-adv-x="1628" 
d="M778 1454q98 0 180.5 -19t171.5 -69q74 -42 100.5 -28.5t35.5 92.5q11 -2 74.5 -2t72.5 2q-14 -88 -25.5 -253.5t-7.5 -273.5q-98 8 -196 0q-10 71 -23.5 124.5t-40 105.5t-64.5 85t-97.5 53.5t-137.5 20.5q-194 0 -280 -134.5t-86 -448.5q0 -140 19 -245.5t50 -170
t77.5 -104t95.5 -54t110 -14.5q147 0 235 78t88 237q0 96 -22.5 134t-95.5 38h-82v135q212 -6 327 -6l322 6v-135h-61q-44 0 -62 -24.5t-18 -83.5q0 -337 18 -510q-86 8 -176 0q-22 98 -55 205q-57 -106 -177 -171t-272 -65q-686 0 -686 750q0 190 52 335t146 233.5
t217 132.5t273 44z" />
    <glyph glyph-name="H" unicode="H" horiz-adv-x="1755" 
d="M66 -4q2 12 2 81t-2 81h96q70 0 94 17.5t25 74.5q5 103 5 459.5t-5 439.5q-3 59 -27 82.5t-80 23.5h-106v158q235 -6 366 -6q58 0 143.5 1.5t151 3t72.5 1.5v-158h-103q-56 0 -80.5 -23.5t-27.5 -82.5q-4 -49 -4 -383q280 -4 585 0q0 332 -4 383q-4 59 -30 82.5t-82 23.5
h-101v158q236 -6 367 -6q58 0 143.5 1.5t151 3t72.5 1.5v-158h-109q-55 0 -78 -23t-28 -83q-5 -83 -5 -439.5t5 -459.5q3 -56 26 -74t92 -18h97v-162q-236 4 -367 4l-367 -4v162h95q68 0 92 19.5t26 72.5q4 122 4 397q-347 4 -585 -2q0 -273 4 -395q3 -54 25 -73t90 -19h96
v-162q-236 4 -367 4z" />
    <glyph glyph-name="I" unicode="I" horiz-adv-x="876" 
d="M72 -4v162h96q65 0 88 19.5t25 72.5q5 100 5 458t-5 441q-3 59 -27 82.5t-80 23.5h-102v158q237 -6 368 -6q58 0 143.5 1.5t151 3t72.5 1.5v-158h-102q-56 0 -79.5 -23t-27.5 -83q-6 -90 -5.5 -441.5t5.5 -457.5q2 -53 26 -72.5t89 -19.5h94v-162q-236 4 -367 4z" />
    <glyph glyph-name="J" unicode="J" horiz-adv-x="1204" 
d="M209 170q-28 0 -49 6q71 -98 223 -98q121 0 181.5 77.5t66.5 252.5q5 129 5 393.5t-5 347.5q-3 59 -26.5 82.5t-80.5 23.5h-92v158q225 -6 352 -6q56 0 138.5 1.5t145.5 3t71 1.5q-1 -12 -1 -79t1 -79h-82q-57 0 -81.5 -22t-25.5 -84q-3 -89 -2.5 -351t2.5 -384
q1 -222 -138 -337.5t-380 -115.5q-96 0 -173 26.5t-125 72t-73.5 103t-25.5 122.5q0 85 49 138.5t137 53.5q74 0 119 -40.5t45 -110.5q0 -79 -51.5 -117.5t-124.5 -38.5z" />
    <glyph glyph-name="K" unicode="K" horiz-adv-x="1722" 
d="M66 -4q2 12 2 81t-2 81h94q70 0 93 21.5t28 88.5q6 91 5.5 441.5t-5.5 435.5q-3 61 -29 85.5t-88 24.5h-98q2 12 2 79t-2 79q237 -6 368 -6q58 0 143.5 1.5t151 3t72.5 1.5q-1 -12 -1 -79t1 -79h-107q-55 0 -78 -24.5t-28 -85.5q-4 -55 -4 -449l483 428q26 23 30 54
t-18 54t-65 23h-90v158q235 -6 366 -6q58 0 139.5 1.5t142.5 3t68 1.5v-158h-75q-98 0 -171 -32.5t-159 -106.5l-252 -219q74 -114 223.5 -331t190.5 -269q8 -9 24 -29t22 -27t19 -21.5t19.5 -19.5t18.5 -14.5t21.5 -12.5t23 -7.5t28 -6t31.5 -1.5h53q-1 -12 -1 -80t1 -80
q-238 6 -369 6l-370 -6q2 12 2 80t-2 80h63q66 0 79.5 37t-24.5 100q-181 281 -278 407l-174 -149q0 -203 4 -285q5 -67 23.5 -88.5t82.5 -21.5h101v-162q-232 4 -363 4z" />
    <glyph glyph-name="L" unicode="L" horiz-adv-x="1357" 
d="M813 1413q-2 -16 -2 -158h-104q-60 0 -86.5 -24.5t-30.5 -87.5q-4 -86 -4 -435t4 -456q3 -54 29 -74t81 -20h138q65 0 109.5 9.5t83 35.5t62 72.5t38 119.5t18.5 178q12 -1 79.5 -1t78.5 1q-8 -110 -13 -295t-2 -286q-113 8 -403 8h-471q-204 0 -352 -4q2 12 2 81t-2 81
h100q69 0 91.5 21t25.5 81q5 104 5 452t-5 431q-3 60 -27.5 86t-79.5 26h-106v158q239 -6 372 -6q79 0 223 3t148 3z" />
    <glyph glyph-name="M" unicode="M" horiz-adv-x="2023" 
d="M895 104q-76 171 -217 469t-238 492q-3 -130 -2.5 -417t4.5 -351q5 -80 33 -109.5t98 -29.5h109v-162q-196 4 -307 4l-309 -4q2 12 2 81t-2 81h88q70 0 97.5 28.5t31.5 110.5q5 77 5 419t-5 425q-3 59 -32 86.5t-85 27.5h-96v158q288 -8 575 0q126 -293 395 -835
q235 493 379 835q269 -8 537 0v-158h-103q-108 0 -114 -120q-5 -75 -5 -418.5t5 -429.5q3 -67 28.5 -98t92.5 -31h96v-162q-240 4 -377 4l-377 -4v162h98q65 0 91.5 33t29.5 98q3 67 3.5 350.5t-1.5 427.5q-95 -192 -232.5 -488.5t-215.5 -474.5h-80z" />
    <glyph glyph-name="N" unicode="N" horiz-adv-x="1703" 
d="M604 1413q102 -158 296.5 -441.5t336.5 -482.5q8 386 -2 648q-3 67 -30 92.5t-85 25.5h-116v158q1 0 124.5 -3t192.5 -3l315 6v-158h-106q-57 0 -85 -26t-32 -92q-5 -88 -5 -512t5 -625q-116 8 -237 0q-300 458 -711 1055q-5 -641 4 -795q3 -57 30.5 -79.5t96.5 -22.5
h111v-162q-205 4 -320 4l-321 -4q2 12 2 81t-2 81h98q70 0 97.5 23t29.5 79q5 110 5.5 451.5t-5.5 431.5q-4 60 -31 86t-84 26h-108q2 12 2 79t-2 79q268 -8 536 0z" />
    <glyph glyph-name="O" unicode="O" horiz-adv-x="1591" 
d="M797 117q192 0 272 141t80 451q0 322 -80 455.5t-272 133.5q-184 0 -268.5 -141.5t-84.5 -449.5q0 -323 77.5 -456.5t275.5 -133.5zM797 -39q-348 0 -527.5 189t-179.5 557q0 182 52 324.5t146 234t223 139t286 47.5q350 0 527 -187t177 -556q0 -183 -52.5 -326.5
t-147.5 -235t-222.5 -139t-281.5 -47.5z" />
    <glyph glyph-name="P" unicode="P" horiz-adv-x="1433" 
d="M770 487q-68 0 -176 5q0 -139 4 -213q3 -67 32 -95t85 -28h100q-1 -12 -1 -80t1 -80q-240 4 -375 4l-374 -4q2 12 2 81t-2 81h81q68 0 99.5 28t34.5 93q5 82 5 437.5t-5 438.5q-3 58 -25.5 79t-77.5 21h-112q2 23 2 79.5t-2 78.5q16 0 204.5 -3t208.5 -3q48 0 148.5 1
t142.5 1q130 0 233.5 -25t183 -77t122.5 -140t43 -206q0 -158 -75.5 -266t-204 -158t-302.5 -50zM598 1194q-6 -90 -6 -561q45 -2 115 -2q168 1 235.5 78t67.5 247q0 166 -64.5 240t-218.5 74h-55q-70 0 -74 -76z" />
    <glyph glyph-name="Q" unicode="Q" horiz-adv-x="1591" 
d="M797 -39q-348 0 -527.5 189t-179.5 557q0 182 52 324.5t146 234t223 139t286 47.5q350 0 527 -187t177 -556q0 -244 -90.5 -412t-253.5 -254q29 -153 65.5 -212.5t102.5 -59.5q113 0 107 180l81 4q11 -171 -64.5 -262.5t-238.5 -91.5q-150 0 -232 95t-73 271
q-55 -6 -108 -6zM838 467q175 0 252 -168q59 138 59 410q0 322 -80 455.5t-272 133.5q-184 0 -268.5 -141.5t-84.5 -449.5q0 -252 44 -385t151 -179q-33 48 -33 101q0 104 63 163.5t169 59.5zM799 117q69 0 125 18q17 244 -129 244q-52 0 -88.5 -32t-36.5 -103
q0 -58 39 -92.5t90 -34.5z" />
    <glyph glyph-name="R" unicode="R" horiz-adv-x="1615" 
d="M1274 383q14 -107 33 -164.5t40 -75.5t54 -18q58 0 71.5 81.5t-14.5 211.5q6 0 51 4t47 4q18 -75 21.5 -142t-10.5 -128t-46.5 -105t-91.5 -70t-141 -26t-141 18t-97 49t-62 82.5t-35 109.5t-15 138q-5 84 -24 139.5t-52.5 84.5t-73 40t-96.5 11h-100q0 -281 6 -348
q4 -65 33 -94t84 -29h84q-1 -12 -1 -80t1 -80q-330 4 -367 4l-366 -4q2 12 2 81t-2 81h86q65 0 95.5 28t33.5 93q5 82 5 434.5t-5 435.5q-3 60 -26 83t-79 23h-110q2 25 2 80t-2 78q13 0 181 -2t202 -2q44 0 185 1t202 1q258 0 395 -96.5t137 -282.5q0 -149 -96.5 -246.5
t-249.5 -115.5q123 -26 179.5 -96t72.5 -191zM598 1188q-6 -108 -6 -440h139q160 0 224.5 61t64.5 205q0 138 -58 197t-198 59h-86q-42 0 -60 -20.5t-20 -61.5z" />
    <glyph glyph-name="S" unicode="S" horiz-adv-x="1374" 
d="M676 1303q-151 0 -228 -53.5t-77 -137.5q0 -91 85 -134.5t298 -68.5q291 -32 423 -143.5t132 -329.5q0 -223 -150.5 -349t-413.5 -126q-120 0 -210.5 24t-182.5 76q-110 65 -129 -75q-7 2 -67 2t-68 -2q38 243 18 483q9 -1 67 -1t67 1q46 -180 169.5 -269t333.5 -89
q162 0 250 55.5t88 157.5q0 104 -99 153.5t-331 75.5q-259 29 -385.5 137.5t-126.5 298.5q0 96 32.5 179t95 147t164 100.5t231.5 36.5q186 0 331 -74q37 -18 61.5 -22t38 6.5t19.5 25.5t10 42q8 -2 65.5 -2t65.5 2q-21 -85 -26.5 -220.5t4.5 -226.5h-127q-45 164 -151 242
t-277 78z" />
    <glyph glyph-name="T" unicode="T" horiz-adv-x="1478" 
d="M1026 1251h-135q-3 -187 -2.5 -540.5t4.5 -425.5q3 -64 29 -95.5t92 -31.5h104v-162q-242 4 -379 4l-379 -4v162h99q66 0 95 32t32 95q4 75 4 425t-4 541h-131q-104 0 -149 -48.5t-50 -143.5l-8 -191q-12 2 -85 2t-87 -2q4 102 1 276.5t-11 276.5q96 -8 350 -8h649
q245 0 346 8q-8 -102 -11 -276.5t1 -276.5q-12 2 -84 2t-84 -2l-8 191q-5 95 -50 143.5t-149 48.5z" />
    <glyph glyph-name="U" unicode="U" horiz-adv-x="1705" 
d="M252 561q0 6 0.5 85t1 162.5t0 178.5t-1.5 143q-2 68 -26.5 96.5t-82.5 28.5h-77q2 12 2 79t-2 79q229 -6 358 -6q76 0 217 3t145 3v-158h-86q-62 0 -91 -27.5t-29 -97.5q-2 -103 -2 -324.5t2 -250.5q6 -223 84 -316.5t243 -93.5q83 0 142.5 20.5t103 67.5t64.5 127
t22 195q4 358 0 575q-3 125 -119 125h-84v158q190 -6 301 -6q64 0 180 3t123 3v-158h-77q-108 0 -111 -125q-2 -95 -2 -196t1 -211.5t1 -159.5q0 -608 -580 -608q-317 0 -468.5 144.5t-151.5 461.5z" />
    <glyph glyph-name="V" unicode="V" horiz-adv-x="1605" 
d="M610 1085q108 -393 246 -813q76 205 156.5 444.5t111.5 366.5q25 86 5.5 129t-97.5 43h-57q1 12 1 79t-1 79q201 -6 305 -6q61 0 171 3t118 3q-1 -12 -1 -79t1 -79h-49q-82 0 -126 -33.5t-83 -129.5q-77 -184 -205 -539t-193 -565h-292q-60 211 -176 577.5t-179 542.5
q-31 85 -66.5 116t-117.5 31h-43v158q233 -6 364 -6q78 0 221 3t146 3v-158h-68q-133 0 -92 -170z" />
    <glyph glyph-name="W" unicode="W" horiz-adv-x="2297" 
d="M1690 -12h-301q-36 143 -118.5 440t-135.5 471q-58 -175 -146 -472t-125 -439h-282q-49 196 -149.5 555.5t-164.5 574.5q-23 75 -55.5 106t-101.5 31h-72v158q231 -6 362 -6q78 0 219 3t142 3v-158h-68q-64 0 -83.5 -31.5t-2.5 -105.5q31 -130 102.5 -390t120.5 -425
q176 562 230 815q15 76 -3 106.5t-87 30.5h-39q2 12 2 79t-2 79q198 -6 309 -6q67 0 186 3t123 3v-158h-59q-58 0 -77.5 -31.5t-2.5 -97.5q84 -344 227 -827q51 172 117.5 426.5t91.5 376.5q15 81 -4 117t-94 36h-37v158q181 -6 279 -6q56 0 159 3t109 3v-158h-70
q-72 0 -111.5 -33t-66.5 -122q-49 -153 -165 -554.5t-156 -557.5z" />
    <glyph glyph-name="X" unicode="X" horiz-adv-x="1679" 
d="M905 330l-164 252q-30 -45 -86.5 -132t-72.5 -110q-52 -86 -36.5 -134t77.5 -48h59v-162q-202 4 -311 4l-305 -4q2 12 2 81t-2 81h43q125 0 206 53.5t162 171.5q14 21 56.5 83t81 119.5t61.5 96.5q-122 186 -285 422q-54 81 -110.5 116t-143.5 35h-51q2 12 2 79t-2 79
q3 0 80.5 -1t179 -2t162.5 -1l385 4q-1 -12 -1 -79t1 -79h-43q-67 0 -88 -45.5t20 -119.5q41 -71 179 -279q131 187 172 274q36 82 20 126t-78 44h-47v158q181 -4 283 -4l282 4q-1 -12 -1 -79t1 -79h-47q-31 0 -56.5 -2t-48 -9.5t-38 -12.5t-34 -20.5t-28 -23.5t-28 -31.5
t-26.5 -35.5t-30 -43q-32 -46 -126.5 -193.5t-108.5 -168.5q51 -77 281 -412q53 -78 108 -111.5t133 -33.5h68v-162q-260 4 -410 4l-393 -4q1 12 1 81t-1 81h55q38 0 59.5 18.5t19 58.5t-37.5 95z" />
    <glyph glyph-name="Y" unicode="Y" horiz-adv-x="1687" 
d="M1321 1108q-118 -200 -334 -621v-221q0 -64 22.5 -87t98.5 -23h119v-160q-261 4 -406 4l-407 -4v160h118q77 0 97 23t20 87v217q-222 443 -340 643q-41 69 -94 99t-143 30h-33v158q260 -6 407 -6l406 6v-158h-84q-154 0 -86 -155q62 -138 244 -453q134 241 227 453
q16 36 21.5 62t0.5 48t-29.5 33.5t-68.5 11.5h-63v158q204 -6 319 -6l316 6v-158h-47q-85 0 -137 -16.5t-81.5 -45t-62.5 -85.5z" />
    <glyph glyph-name="Z" unicode="Z" horiz-adv-x="1370" 
d="M66 0q2 10 2 75.5t-2 76.5q50 62 122.5 155.5t132 172t160 212t145.5 194t153 205.5t122 164h-270q-79 0 -129 -5t-94 -20.5t-68 -40.5t-41 -70t-23 -104t-6 -147q-11 2 -79 2t-78 -2q6 90 7.5 275t-3.5 274q113 -4 436 -4h737v-153q-259 -326 -833 -1102h368
q124 0 191.5 33.5t99 118.5t31.5 245h158q-6 -99 -7.5 -279.5t2.5 -281.5q-208 6 -399 6h-835z" />
    <glyph glyph-name="bracketleft" unicode="[" horiz-adv-x="614" 
d="M133 301v748q0 260 -35 589q210 -8 424 0q-2 -9 -2 -62.5t2 -62.5h-65q-56 0 -80 -22t-27 -78q-3 -57 -3 -785.5t3 -785.5q3 -58 27.5 -79t93.5 -21h51q-2 -9 -2 -62.5t2 -62.5q-214 8 -424 0q9 87 22 317t13 367z" />
    <glyph glyph-name="backslash" unicode="\" horiz-adv-x="784" 
d="M563 -365q-88 311 -258.5 878t-275.5 900q32 -3 96 -3t96 3q87 -307 257.5 -872.5t277.5 -905.5q-26 3 -96.5 3t-96.5 -3z" />
    <glyph glyph-name="bracketright" unicode="]" horiz-adv-x="614" 
d="M483 1034v-811q0 -251 37 -606h-426q2 9 2 62.5t-2 62.5h51q70 0 95.5 21.5t25.5 78.5q2 15 2 785.5t-2 785.5q0 56 -24.5 78t-81.5 22h-66v125h426q-37 -348 -37 -604z" />
    <glyph glyph-name="asciicircum" unicode="^" 
d="M582 1454h36q55 -69 203.5 -278.5t202.5 -292.5l-109 -68q-45 60 -153.5 254t-161.5 309q-66 -137 -166.5 -319.5t-150.5 -243.5l-107 68q75 112 213 307.5t193 263.5z" />
    <glyph glyph-name="underscore" unicode="_" horiz-adv-x="1024" 
d="M0 -393q4 86 0 176q163 -3 512 -3t512 3q-4 -88 0 -176q-163 3 -512 3t-512 -3z" />
    <glyph glyph-name="grave" unicode="`" horiz-adv-x="1089" 
d="M762 1096l-17 -23q-82 29 -176.5 76t-154.5 88q-52 35 -50.5 81t43.5 59.5t99 -15.5q98 -67 256 -266z" />
    <glyph glyph-name="a" unicode="a" horiz-adv-x="1107" 
d="M889 586v-350q0 -68 11 -92.5t34 -24.5q66 0 53 229l80 4q4 -75 0 -132t-18 -105.5t-39.5 -79.5t-66.5 -48.5t-97 -17.5q-191 0 -225 168q-97 -166 -293 -166q-134 0 -205.5 63t-71.5 181q0 293 561 326v73q0 137 -43 196.5t-170 59.5q-56 0 -110 -14q49 -10 75.5 -43.5
t26.5 -83.5q0 -63 -40.5 -99t-110.5 -36q-69 0 -109.5 37.5t-40.5 107.5q0 76 59 131.5t149 82t196 26.5q113 0 191.5 -26.5t122.5 -80t62.5 -122.5t18.5 -164zM459 121q117 0 153 131v227q-264 -26 -264 -223q0 -135 111 -135z" />
    <glyph glyph-name="b" unicode="b" horiz-adv-x="1202" 
d="M754 -35q-265 0 -334 256q-82 -115 -94 -237h-162q9 71 20 305q3 79 2.5 425t-4.5 470q-1 52 -21 74t-63 22h-61v131q348 0 428 6q-4 -207 -4 -532v-125q74 219 309 219q173 0 261.5 -122t88.5 -388q0 -504 -366 -504zM461 473q0 -86 8.5 -147t29 -110t58.5 -73t94 -24
q36 0 61.5 8.5t48 31t36 62t21 102.5t7.5 150q0 58 -2 99t-8 84.5t-17.5 72t-30 52.5t-46.5 35t-66 11q-194 0 -194 -354z" />
    <glyph glyph-name="c" unicode="c" horiz-adv-x="1011" 
d="M782 299q10 0 85 -9t87 -9q-25 -149 -131.5 -232.5t-287.5 -83.5q-228 0 -347.5 128t-119.5 370q0 240 130 378t359 138q166 0 269.5 -67.5t103.5 -180.5q0 -72 -42.5 -112.5t-117.5 -40.5q-73 0 -114.5 37t-41.5 100q0 92 80 125q-60 24 -123 24q-112 0 -160.5 -86.5
t-48.5 -296.5q0 -209 45 -288.5t154 -79.5q105 0 152.5 46t68.5 140z" />
    <glyph glyph-name="d" unicode="d" horiz-adv-x="1204" 
d="M449 979q221 0 292 -207v410q0 100 -88 100h-80v131q309 0 447 6q-3 -195 -3 -627.5t3 -562.5q1 -50 23 -73t65 -23h59v-133l-426 -6v196q-77 -225 -301 -225q-182 0 -270 119.5t-88 390.5q0 259 96 381.5t271 122.5zM547 119q194 0 194 354q0 185 -42.5 269.5
t-141.5 84.5q-66 0 -103 -27.5t-57 -104.5t-20 -220q0 -70 3 -117.5t13 -96.5t28 -77.5t49.5 -46.5t76.5 -18z" />
    <glyph glyph-name="e" unicode="e" horiz-adv-x="1046" 
d="M795 295q11 0 85 -9.5t85 -9.5q-27 -149 -133.5 -232t-290.5 -83q-226 0 -349.5 129t-123.5 373q0 245 130 380.5t345 135.5q118 0 205.5 -40t138.5 -114t72.5 -173t13.5 -222h-615q4 -174 56 -247.5t161 -73.5q101 0 151.5 47t68.5 139zM532 846q-85 0 -128 -77
t-46 -261h273q27 0 37 10.5t10 48.5q0 143 -35.5 211t-110.5 68z" />
    <glyph glyph-name="f" unicode="f" horiz-adv-x="708" 
d="M51 950l133 -6v33q-7 230 87.5 339t287.5 109q136 0 215.5 -64t79.5 -161q0 -65 -36.5 -101t-100.5 -36q-60 0 -95.5 32t-35.5 87q0 56 35.5 87t97.5 31l20 -2q-44 41 -114 41q-95 0 -136.5 -65.5t-31.5 -226.5l6 -103l149 6v-131l-153 4q-5 -452 4 -596q2 -46 20.5 -70
t65.5 -24h61v-139q-4 0 -115 3t-171 3q-45 0 -113 -1.5t-119.5 -3t-54.5 -1.5v139h59q81 0 88 94q7 111 2 596l-135 -4q1 9 1 65.5t-1 65.5z" />
    <glyph glyph-name="g" unicode="g" horiz-adv-x="1054" 
d="M461 979q121 0 209 -31q21 79 71.5 129.5t130.5 50.5q78 0 122 -41t44 -112q0 -59 -29 -92t-81 -33q-53 0 -83 27.5t-30 76.5q0 45 31 76q-87 -12 -121 -108q152 -84 152 -295q0 -173 -116 -268t-300 -95q-65 0 -109 8q-94 -6 -94 -47q0 -21 19 -32.5t86 -20.5t194 -12
q134 -2 222.5 -19.5t138 -52.5t69 -80t19.5 -110q0 -61 -31.5 -116.5t-92 -101.5t-162.5 -73t-231 -27q-469 0 -469 213q0 59 49 100.5t128 63.5q-115 46 -115 158q0 75 51 120.5t131 61.5q-102 41 -157.5 124.5t-55.5 205.5q0 169 116.5 260.5t293.5 91.5zM487 -86
q-109 3 -176 14q-137 -31 -137 -108q0 -55 74 -91t239 -36q187 0 279 34.5t92 90.5q0 32 -32 51t-113.5 30.5t-225.5 14.5zM465 864q-76 0 -107.5 -54t-31.5 -185q0 -136 31 -190t108 -54q78 0 106.5 54t28.5 190q0 134 -30 186.5t-105 52.5z" />
    <glyph glyph-name="h" unicode="h" horiz-adv-x="1280" 
d="M1098 598q-3 -201 0 -336q3 -74 26 -102.5t86 -28.5h25v-137q-3 0 -111 3t-166 3q-44 0 -110.5 -1.5t-115.5 -3t-52 -1.5v137h33q56 0 79.5 29t26.5 100q6 144 0 320q-3 123 -40 185t-122 62q-104 0 -149 -96t-45 -287v-196q0 -70 23 -93.5t85 -23.5h35v-137q-3 0 -113 3
t-169 3q-45 0 -113 -1.5t-119.5 -3t-54.5 -1.5v137h39q63 2 83.5 22.5t24.5 92.5q3 51 3 459t-3 462q-3 68 -23.5 91.5t-90.5 23.5h-31v131q307 0 430 6q-6 -141 -6 -424v-241q75 225 315 225q167 0 245 -100.5t75 -280.5z" />
    <glyph glyph-name="i" unicode="i" horiz-adv-x="647" 
d="M463 956q-2 -33 -2.5 -332t2.5 -376q3 -71 26.5 -94t85.5 -23h37v-137q-4 0 -115 3t-171 3q-45 0 -113.5 -1.5t-120.5 -3t-55 -1.5v137h39q64 2 84.5 23t23.5 92q3 70 3 236.5t-3 226.5q-3 64 -24 87t-90 23h-33v131q291 0 426 6zM477 1282q0 -75 -47 -121.5t-121 -46.5
q-72 0 -118 46.5t-46 121.5q0 72 46 119t118 47q73 0 120.5 -47t47.5 -119z" />
    <glyph glyph-name="j" unicode="j" horiz-adv-x="614" 
d="M129 -190q0 -49 -40 -88t-114 -31q39 -25 97 -25q75 0 110 51t41 187q4 91 4.5 429t-2.5 384q-6 102 -102 102h-45v131q352 0 432 6q-6 -74 -6 -327v-615q0 -426 -367 -426q-129 0 -204.5 53.5t-75.5 147.5q0 68 36.5 105.5t102.5 37.5q62 0 97.5 -32.5t35.5 -89.5z
M518 1282q0 -74 -47 -121t-121 -47q-72 0 -118 47t-46 121q0 72 46 119t118 47q73 0 120.5 -47t47.5 -119z" />
    <glyph glyph-name="k" unicode="k" horiz-adv-x="1277" 
d="M463 1417q-4 -150 -4 -923l262 206q55 43 42.5 81t-75.5 38h-37v133q181 -6 283 -6q45 0 111.5 1.5t116.5 3t55 1.5q-1 -10 -1 -67t1 -66h-39q-89 0 -148 -27t-184 -114l-72 -49q51 -87 126 -202.5t114 -166.5q56 -70 97.5 -99.5t102.5 -29.5h21v-137q-2 0 -117 3t-178 3
q-46 0 -115.5 -1.5t-122 -3t-55.5 -1.5v139h29q47 0 52.5 35.5t-30.5 93.5q-88 143 -143 213l-94 -65q0 -111 2 -148q5 -74 27.5 -102.5t76.5 -28.5h31v-137q-3 0 -111.5 3t-167.5 3q-45 0 -112 -1.5t-117 -3t-53 -1.5v137h39q62 1 83.5 28t24.5 101q3 69 3 450.5t-3 442.5
q-3 70 -24 99.5t-88 29.5h-33v131q264 0 424 4z" />
    <glyph glyph-name="l" unicode="l" horiz-adv-x="645" 
d="M463 1419q-2 -66 -2.5 -569.5t2.5 -587.5q3 -74 27 -102.5t85 -28.5h37v-137q-4 0 -115 3t-171 3q-46 0 -114.5 -1.5t-120 -3t-54.5 -1.5v137h39q61 1 83 28.5t25 100.5q3 72 3 453.5t-3 441.5q-3 68 -25 97.5t-89 29.5h-31v131q344 0 424 6z" />
    <glyph glyph-name="m" unicode="m" horiz-adv-x="1916" 
d="M1733 598q-2 -256 0 -336q3 -74 26.5 -102.5t87.5 -28.5h33v-137q-3 0 -112.5 3t-170.5 3q-44 0 -111.5 -1.5t-117.5 -3t-53 -1.5v137h33q56 0 79.5 29.5t26.5 99.5q6 152 0 320q-5 123 -41 185t-121 62q-107 0 -150.5 -97t-43.5 -286v-182q0 -73 23.5 -102t86.5 -29h33
q-1 -23 -1 -75t1 -62q-3 0 -112 3t-168 3q-44 0 -111 -1.5t-117 -3t-53 -1.5v137h33q56 0 79.5 28.5t26.5 100.5q6 151 0 320q-5 123 -41 185t-121 62q-100 0 -148.5 -92.5t-47.5 -290.5l2 -182q1 -73 25 -102t83 -29h35v-137q-3 0 -113 3t-169 3q-45 0 -113 -1.5t-119.5 -3
t-54.5 -1.5v137h39q61 1 81.5 27.5t26.5 101.5q5 88 4.5 224t-4.5 210q-3 67 -24.5 96t-89.5 29h-31v131q344 0 424 6v-192q78 215 315 215q262 0 309 -254q69 254 326 254q327 0 320 -381z" />
    <glyph glyph-name="n" unicode="n" horiz-adv-x="1282" 
d="M1098 598q-3 -201 0 -336q3 -75 26 -103t88 -28h27q-1 -23 -1 -75t1 -62q-3 0 -112.5 3t-168.5 3q-44 0 -110.5 -1.5t-115.5 -3t-52 -1.5v137h33q55 0 79 29t27 100q6 144 0 320q-5 123 -41 185t-121 62q-105 0 -149.5 -93t-44.5 -290v-182q0 -73 24.5 -102t83.5 -29h35
v-137q-3 0 -113 3t-169 3q-45 0 -113 -1.5t-119.5 -3t-54.5 -1.5v137h39q62 1 83.5 28t24.5 101q3 79 3 227.5t-3 206.5q-3 67 -24.5 96t-89.5 29h-31v131q344 0 424 6v-204q74 227 315 227q327 0 320 -381z" />
    <glyph glyph-name="o" unicode="o" horiz-adv-x="1103" 
d="M72 463q0 257 128.5 386.5t352.5 129.5q226 0 353.5 -129t127.5 -387q0 -246 -129 -374t-352 -128q-226 0 -353.5 128t-127.5 374zM371 463q0 -94 8.5 -161t23 -108t38.5 -64.5t50 -31.5t62 -8q44 0 74 14t56 52t39 114.5t13 192.5t-13 194t-38.5 120t-57 58.5
t-75.5 16.5t-75 -16.5t-56 -58.5t-37 -120t-12 -194z" />
    <glyph glyph-name="p" unicode="p" horiz-adv-x="1204" 
d="M760 -35q-226 0 -297 203v-266q0 -131 121 -131h37q-1 -9 -1 -68t1 -68q-4 0 -117.5 2.5t-175.5 2.5q-46 0 -115 -1t-121 -2.5t-55 -1.5v136h37q57 0 82 32t28 99q3 65 3 392.5t-3 397.5t-28 98.5t-88 28.5h-29v131q344 0 424 6v-202q71 225 309 225q179 0 264.5 -124.5
t85.5 -385.5q0 -256 -93 -380t-269 -124zM463 473q0 -86 8.5 -147t29 -110t58.5 -73t94 -24q61 0 97 27t56.5 106t20.5 221q0 58 -2 99t-8 84.5t-17.5 72t-30 52.5t-46.5 35t-66 11q-194 0 -194 -354z" />
    <glyph glyph-name="q" unicode="q" horiz-adv-x="1196" 
d="M459 979q125 0 204.5 -51t120.5 -162q91 105 113 240q14 -2 69 -2t68 2q-14 -110 -20 -383q-4 -192 -3 -411t5 -335q2 -52 21.5 -79t70.5 -27h66q-2 -22 -2 -74.5t2 -61.5q-3 0 -121 2.5t-183 2.5q-49 0 -121 -1t-126 -2.5t-58 -1.5q1 9 1 61.5t-1 74.5h68q49 0 76.5 29
t27.5 77v309q-77 -221 -311 -221q-181 0 -262.5 119t-81.5 387q0 263 95 385.5t282 122.5zM737 471q0 175 -42.5 264.5t-147.5 89.5q-66 0 -100.5 -28t-52 -104.5t-17.5 -221.5q0 -57 2 -97t7.5 -84t16.5 -72t29 -52t46 -35.5t65 -11.5q194 0 194 352z" />
    <glyph glyph-name="r" unicode="r" horiz-adv-x="925" 
d="M666 883q-201 0 -201 -365v-268q0 -71 24.5 -95t90.5 -24h55q-1 -23 -1 -75t1 -62q-3 0 -118.5 3t-180.5 3q-47 0 -117.5 -1.5t-124 -3t-57.5 -1.5q1 11 1 63t-1 74h39q65 2 87 25t23 92q3 83 2.5 235.5t-2.5 218.5q-3 64 -25.5 90.5t-88.5 26.5h-33q4 65 0 131
q319 0 399 6l-18 -229q52 252 270 252q103 0 160 -55.5t57 -153.5q0 -83 -42 -128.5t-117 -45.5q-66 0 -104 34.5t-38 94.5q0 65 46.5 100.5t109.5 32.5q-41 25 -96 25z" />
    <glyph glyph-name="s" unicode="s" horiz-adv-x="954" 
d="M461 852q-93 0 -137.5 -32.5t-44.5 -78.5q0 -38 19.5 -60.5t76 -39.5t164.5 -29q356 -37 356 -323q0 -156 -94 -242t-283 -86q-146 0 -274 88q-24 16 -40.5 19t-25.5 -8.5t-14 -27t-8 -42.5q-52 4 -99 0q24 195 13 354q50 -4 96 0q45 -120 130 -189t208 -69
q90 0 136 32.5t46 86.5q0 32 -17 54t-71 40.5t-149 28.5q-105 10 -181.5 40.5t-118.5 76t-61.5 97.5t-19.5 113q0 145 110 236.5t289 87.5q121 -2 215 -66q38 -24 52.5 -14t23.5 66q45 -4 90 0q-13 -150 -10 -308q-48 8 -97 0q-35 106 -106 150.5t-174 44.5z" />
    <glyph glyph-name="t" unicode="t" horiz-adv-x="692" 
d="M580 328l82 2q4 -61 2 -115.5t-18.5 -99.5t-45 -77.5t-77.5 -50.5t-115 -18q-276 0 -273 318q4 328 4 534l-106 -2v109q133 7 204.5 101.5t96.5 285.5h115q-17 -135 -21 -375l211 12q-1 -10 -1 -67t1 -66l-213 2q0 -389 2 -495q1 -126 17.5 -170.5t58.5 -44.5
q47 0 65.5 52t10.5 165z" />
    <glyph glyph-name="u" unicode="u" horiz-adv-x="1265" 
d="M1096 956q-2 -31 -9 -297q0 -283 3 -403q3 -126 104 -123h37v-133q-340 0 -420 -6v192q-74 -225 -313 -225q-69 0 -125.5 20.5t-102.5 64t-70.5 120.5t-23.5 182q6 245 0 342q-2 70 -24 99.5t-82 29.5h-35v133q184 -2 209 -2q124 0 217 6q-6 -111 -6 -301v-286
q0 -78 16 -132t43 -78.5t51 -34t51 -9.5q104 0 149.5 98t45.5 313v172q0 67 -31.5 94t-113.5 27h-25v133q219 -2 244 -2q161 0 211 6z" />
    <glyph glyph-name="v" unicode="v" horiz-adv-x="1146" 
d="M1135 819h-39q-70 0 -108.5 -26t-74.5 -115q-185 -460 -264 -709q-22 1 -95 1t-93 -1q-85 261 -266 713q-30 74 -43 92q-33 45 -113 45h-27v133q181 -4 275 -4l311 4v-133h-39q-49 0 -70 -30.5t-4 -88.5q42 -157 150 -464q116 305 162 464q34 119 -68 119h-45v133
q149 -4 221 -4l230 4v-133z" />
    <glyph glyph-name="w" unicode="w" horiz-adv-x="1728" 
d="M1026 -31q-90 317 -195 617q-115 -318 -200 -617q-17 1 -92.5 1t-94.5 -1q-75 252 -235 713q-28 80 -56.5 108.5t-95.5 28.5h-22v133q180 -6 278 -6l281 6q-2 -10 -2 -67t2 -66h-23q-43 0 -64 -28.5t-5 -88.5q21 -82 64 -228t75 -236q118 337 141 448q6 36 6 65.5
t-20.5 48.5t-62.5 19h-29v133q150 -6 246 -6l252 6v-133h-23q-99 0 -70 -117q18 -73 61.5 -220t76.5 -242q77 218 135 444q38 135 -66 135h-33v133q148 -6 220 -6l219 6v-133h-41q-72 0 -112 -34t-73 -126q-47 -123 -124 -353t-109 -337q-22 1 -104.5 1t-104.5 -1z" />
    <glyph glyph-name="x" unicode="x" horiz-adv-x="1230" 
d="M637 252l-107 135l-114 -143q-36 -47 -23 -79t66 -32h30v-137q-149 4 -221 4l-233 -4v137h41q68 0 114.5 23t104.5 80q47 47 194 204l-225 279q-46 58 -81.5 79t-100.5 21h-27v133q193 -4 299 -4l324 4q-2 -10 -2 -67t2 -66h-35q-58 0 -69 -31.5t26 -87.5
q19 -30 109 -141l131 152q22 26 25 50.5t-15.5 41t-56.5 16.5h-39v133q128 -4 196 -4l228 4q-2 -10 -2 -67t2 -66h-52q-50 0 -83.5 -22t-104.5 -95q-13 -14 -84 -86.5t-104 -107.5l233 -289q71 -86 182 -86h31v-137q-204 4 -313 4l-318 -4v137h35q52 0 63 36t-26 83z" />
    <glyph glyph-name="y" unicode="y" horiz-adv-x="1183" 
d="M801 709q14 51 -4 80.5t-66 29.5h-39v133q129 -6 238 -6l219 6q-1 -10 -1 -67t1 -66h-41q-71 0 -107 -26t-63 -86q-118 -279 -264 -703q-72 -208 -167.5 -301.5t-250.5 -93.5q-112 0 -169.5 51.5t-57.5 134.5q0 79 45.5 121.5t111.5 42.5q144 0 144 -131q0 -58 -44.5 -98
t-115.5 -37q38 -15 82 -15q113 0 189 86.5t141 298.5q-114 4 -150 0q-71 226 -239 644q-25 61 -56.5 86.5t-87.5 25.5h-29v133q158 -6 291 -6l295 6v-133h-37q-102 0 -71 -110q45 -152 155 -439q131 374 148 439z" />
    <glyph glyph-name="z" unicode="z" horiz-adv-x="980" 
d="M596 0h-551q1 10 1 56t-1 57q96 127 257.5 352t266.5 379h-145q-120 0 -177 -58t-67 -211h-104q22 192 6 386q81 -9 342 -9h487q0 -7 2 -55t2 -55q-237 -311 -530 -736h211q100 0 165 69t73 220h104q-29 -212 -8 -401q-158 6 -334 6z" />
    <glyph glyph-name="braceleft" unicode="{" horiz-adv-x="606" 
d="M70 590v78h22q148 0 105 228q-11 58 -50 187q-78 259 20 399t365 152l5 -90q-53 -9 -85.5 -23t-58 -42.5t-34 -78t-7.5 -124t15 -184.5q8 -56 12.5 -96t6 -90.5t-4 -85.5t-19 -71.5t-37 -60t-60.5 -39.5t-87 -20q49 -5 86 -22t60 -39t36.5 -58.5t19.5 -68.5t5 -81.5
t-4 -84.5t-10 -89q-20 -160 -17.5 -261.5t44.5 -152t139 -61.5l-5 -90q-76 4 -137 17t-117 38t-92.5 67.5t-57 101t-16 141.5t34.5 186q50 172 59 232q24 168 -87 184q-13 2 -27 2h-22z" />
    <glyph glyph-name="bar" unicode="|" horiz-adv-x="614" 
d="M289 -244q0 8 5.5 13.5t12.5 5.5q8 0 14.5 -6t6.5 -13t-6.5 -13.5t-14.5 -6.5q-7 0 -12.5 6t-5.5 14zM276 -88q0 12 9.5 21.5t21.5 9.5t21.5 -9.5t9.5 -21.5t-9.5 -21.5t-21.5 -9.5t-21.5 9.5t-9.5 21.5zM266 68q0 17 12.5 29t28.5 12q17 0 29 -12t12 -29t-12 -29
t-29 -12q-16 0 -28.5 12t-12.5 29zM258 223q0 20 14.5 33.5t34.5 13.5q22 0 35.5 -13.5t13.5 -33.5q0 -21 -14 -35t-35 -14q-20 0 -34.5 14.5t-14.5 34.5zM252 379q0 23 16 38t39 15t39 -15t16 -38t-16 -39t-39 -16t-39 16t-16 39zM248 535q0 25 17 41t42 16t42.5 -16.5
t17.5 -40.5q0 -25 -17.5 -42.5t-42.5 -17.5t-42 17.5t-17 42.5zM248 690q0 25 17 42.5t42 17.5q26 0 43 -17.5t17 -42.5q0 -26 -17 -43.5t-43 -17.5q-25 0 -42 17.5t-17 43.5zM248 844q0 26 17 42.5t42 16.5t42.5 -16.5t17.5 -42.5q0 -23 -17.5 -40.5t-42.5 -17.5t-42 17
t-17 41zM252 999q0 25 16 40.5t39 15.5t39 -15.5t16 -40.5q0 -22 -16 -37.5t-39 -15.5t-39 15.5t-16 37.5zM258 1155q0 21 14 35t35 14q22 0 35.5 -13.5t13.5 -35.5q0 -19 -14 -33t-35 -14q-20 0 -34.5 14t-14.5 33zM266 1311q0 17 12.5 29t28.5 12q17 0 29 -12t12 -29
q0 -16 -12 -28.5t-29 -12.5q-15 0 -28 13t-13 28zM276 1466q0 12 9.5 21.5t21.5 9.5t21.5 -9.5t9.5 -21.5t-9.5 -21t-21.5 -9t-21.5 9t-9.5 21zM289 1622q0 8 5.5 14t12.5 6q8 0 14.5 -6.5t6.5 -13.5t-6.5 -12.5t-14.5 -5.5q-7 0 -12.5 5t-5.5 13z" />
    <glyph glyph-name="braceright" unicode="}" horiz-adv-x="581" 
d="M526 668v-78h-22q-51 0 -79.5 -24t-35.5 -61t0.5 -91t20 -103.5t30.5 -109.5q6 -19 9 -29q30 -103 34.5 -186t-16 -141.5t-56 -101t-90.5 -67.5t-116 -38t-137 -17l-5 90q97 11 139 61.5t44.5 152t-17.5 261.5q-7 54 -10 89t-4 84.5t5 81.5t19.5 68.5t36.5 58.5t60 39
t86 22q-50 4 -87 20t-60.5 39.5t-37 60t-19 71.5t-4 85.5t6 90.5t12.5 96q14 110 15.5 185t-7.5 124t-34.5 77.5t-58 42.5t-85.5 23l5 90q266 -12 362 -151.5t19 -399.5q-59 -188 -61 -273q-3 -142 116 -142h22z" />
    <glyph glyph-name="asciitilde" unicode="~" horiz-adv-x="1089" 
d="M856 1417l53 15q39 -118 13.5 -195t-86.5 -114.5t-144 -37.5q-81 0 -133 35t-96 103q-44 66 -69.5 89t-65.5 23q-51 0 -70.5 -48.5t4.5 -162.5l-57 -16q-27 90 -21.5 155.5t41 108.5t86 63.5t113.5 20.5q70 0 122.5 -31t104.5 -104q40 -62 69 -88.5t68 -26.5q53 0 72 49
t-4 162z" />
    <glyph glyph-name="exclamdown" unicode="&#xa1;" horiz-adv-x="532" 
d="M100 825q0 73 44 113.5t120 40.5q74 0 118 -41t44 -117q0 -73 -44.5 -115t-117.5 -42q-75 0 -119.5 43t-44.5 118zM240 512q0 35 28 35q31 0 31 -35q0 -65 2 -117.5t10 -108.5t11.5 -84t20.5 -90t20.5 -77t28.5 -94t30 -95q50 -164 5 -259t-159 -95q-111 0 -157.5 95
t6.5 259q41 120 56.5 169t35 134t25.5 166.5t6 196.5z" />
    <glyph glyph-name="cent" unicode="&#xa2;" horiz-adv-x="1097" 
d="M543 733q-7 -31 -66 -409q44 -13 88 -13q94 0 176 47q-41 12 -62.5 43t-21.5 72q0 56 36.5 88.5t103.5 32.5q64 0 100.5 -35.5t36.5 -105.5q0 -113 -111 -195t-295 -82q-25 0 -71 4l-39 -264l-86 16q22 115 53 258q-160 38 -244 163.5t-84 324.5q0 237 130.5 374.5
t353.5 137.5h22l37 260l86 -14q-24 -115 -53 -252q130 -19 207.5 -81t77.5 -149q0 -65 -39 -100t-105 -35q-64 0 -98.5 33.5t-34.5 89.5q0 35 17.5 63.5t50.5 41.5q-39 14 -99 20q-60 -280 -67 -334zM340 684q0 -246 78 -324q68 321 78 381l49 326q-108 -6 -156.5 -93
t-48.5 -290z" />
    <glyph glyph-name="sterling" unicode="&#xa3;" horiz-adv-x="1183" 
d="M174 512v106q56 -6 143 -6q-35 52 -57 89t-46 89.5t-36 108t-12 115.5q0 133 65 231.5t171 147.5t237 49q194 0 294.5 -85t100.5 -212q0 -203 -174 -203q-60 0 -96.5 33t-36.5 88q0 54 39 86.5t104 26.5q33 -3 62 -17q-11 63 -70.5 107.5t-156.5 44.5q-123 0 -189 -79.5
t-65 -234.5q0 -26 2.5 -53t9 -58t11 -52t16 -58t16 -52t19 -58t18.5 -54q163 0 243 6v-106q-22 0 -99 2.5t-116 3.5q37 -137 37 -221q0 -4 -1 -12.5t-1 -12.5q114 -49 164 -60q44 -9 88 -9q184 0 211 116l86 -12q6 -51 -1 -99t-29 -93t-57.5 -78.5t-92 -53.5t-127.5 -20
q-173 0 -318 105q-89 -99 -266 -99q-108 0 -164.5 49t-56.5 129q0 93 67.5 147t161.5 54q103 0 183 -22q-12 86 -78 194q-35 -1 -203 -8zM258 39q136 0 180 104q-36 29 -57.5 43.5t-55 27.5t-67.5 13q-63 0 -95 -26t-32 -70q0 -38 33.5 -65t93.5 -27z" />
    <glyph glyph-name="yen" unicode="&#xa5;" horiz-adv-x="1290" 
d="M203 760l180 -6q-72 190 -141 350q-39 88 -74 119.5t-107 31.5h-28q1 12 1 79t-1 79q192 -6 307 -6l313 6v-158h-32q-118 0 -74 -145q49 -159 166 -408q122 289 155 410q7 30 10 47t3 38t-7.5 32t-24.5 18.5t-44 7.5h-35q2 12 2 79t-2 79q172 -6 258 -6l229 6
q-1 -12 -1 -79t1 -79h-34q-82 0 -118 -27t-73 -108l-166 -366l189 6q-1 -17 -1 -67.5t1 -69.5l-244 10q-5 -13 -16 -37.5t-15 -36.5v-67l275 8q-1 -17 -1 -67.5t1 -70.5l-275 11v-107q0 -64 22 -87t97 -23h68v-158q-199 6 -338 6l-340 -6v158h65q77 0 97 23t20 87v107
l-268 -11v138l266 -8v43l-37 98l-229 -10v137z" />
    <glyph glyph-name="brokenbar" unicode="&#xa6;" horiz-adv-x="614" 
d="M289 -244q0 8 5.5 13.5t12.5 5.5q8 0 14.5 -6t6.5 -13t-6.5 -13.5t-14.5 -6.5q-7 0 -12.5 6t-5.5 14zM276 -88q0 12 9.5 21.5t21.5 9.5t21.5 -9.5t9.5 -21.5t-9.5 -21.5t-21.5 -9.5t-21.5 9.5t-9.5 21.5zM266 68q0 17 12.5 29t28.5 12q17 0 29 -12t12 -29t-12 -29
t-29 -12q-16 0 -28.5 12t-12.5 29zM258 223q0 20 14.5 33.5t34.5 13.5q22 0 35.5 -13.5t13.5 -33.5q0 -21 -14 -35t-35 -14q-20 0 -34.5 14.5t-14.5 34.5zM252 379q0 23 16 38t39 15t39 -15t16 -38t-16 -39t-39 -16t-39 16t-16 39zM248 535q0 25 17 41t42 16t42.5 -16.5
t17.5 -40.5q0 -25 -17.5 -42.5t-42.5 -17.5t-42 17.5t-17 42.5zM248 844q0 26 17 42.5t42 16.5t42.5 -16.5t17.5 -42.5q0 -23 -17.5 -40.5t-42.5 -17.5t-42 17t-17 41zM252 999q0 25 16 40.5t39 15.5t39 -15.5t16 -40.5q0 -22 -16 -37.5t-39 -15.5t-39 15.5t-16 37.5z
M258 1155q0 21 14 35t35 14q22 0 35.5 -13.5t13.5 -35.5q0 -19 -14 -33t-35 -14q-20 0 -34.5 14t-14.5 33zM266 1311q0 17 12.5 29t28.5 12q17 0 29 -12t12 -29q0 -16 -12 -28.5t-29 -12.5q-15 0 -28 13t-13 28zM276 1466q0 12 9.5 21.5t21.5 9.5t21.5 -9.5t9.5 -21.5
t-9.5 -21t-21.5 -9t-21.5 9t-9.5 21zM289 1622q0 8 5.5 14t12.5 6q8 0 14.5 -6.5t6.5 -13.5t-6.5 -12.5t-14.5 -5.5q-7 0 -12.5 5t-5.5 13z" />
    <glyph glyph-name="section" unicode="&#xa7;" horiz-adv-x="1669" 
d="M1071 1341l14 -22q-64 -65 -101 -117.5t-77.5 -148.5t-72.5 -241.5t-68 -373.5q-26 -160 -60 -289.5t-70.5 -217.5t-80 -153.5t-83.5 -102.5t-86.5 -59t-83.5 -29t-79 -7q-112 0 -165 70t-38 168q11 62 51 107.5t111 45.5q57 0 90.5 -30.5t24.5 -90.5q-9 -62 -63 -90.5
t-128 -3.5q11 -92 121 -92q59 0 102.5 32.5t86 118.5t79.5 244t72 400q27 177 69 315.5t87.5 227t108 158t115 106.5t124.5 75zM600 -309l-12 22q63 65 99.5 117t77.5 148t74 242.5t68 373.5q25 159 58.5 288t69.5 217t78.5 153.5t82 103t85.5 60t83 29.5t80 7
q81 0 132 -36.5t67 -88.5t8 -113q-9 -63 -49 -108t-113 -45q-55 0 -89.5 31.5t-25.5 89.5q8 61 62 90t127 4q-5 41 -33 66.5t-80 25.5q-61 0 -105.5 -32t-88 -117.5t-80 -243.5t-72.5 -402q-26 -177 -68 -315.5t-87.5 -227t-108.5 -158t-115.5 -106.5t-124.5 -75z" />
    <glyph glyph-name="dieresis" unicode="&#xa8;" horiz-adv-x="1091" 
d="M481 1212q0 -51 -32 -82.5t-84 -31.5q-51 0 -84 31.5t-33 82.5t33 83t84 32q52 0 84 -32t32 -83zM831 1212q0 -51 -32 -82.5t-84 -31.5q-51 0 -84 31.5t-33 82.5t33 83t84 32q52 0 84 -32t32 -83z" />
    <glyph glyph-name="copyright" unicode="&#xa9;" horiz-adv-x="1718" 
d="M860 68q158 0 278.5 47t194.5 133t111 200.5t37 256.5q0 189 -67 330.5t-208.5 224.5t-345.5 83q-154 0 -273.5 -47t-195.5 -133t-114.5 -201.5t-38.5 -256.5t38.5 -256.5t114.5 -201t195.5 -132.5t273.5 -47zM860 -33q-362 0 -556.5 198.5t-194.5 539.5q0 335 204.5 537
t546.5 202q351 0 551.5 -200.5t200.5 -538.5q0 -224 -85 -389t-256 -257t-411 -92zM852 1157q126 0 233 -76q17 -12 31.5 -12.5t25 15.5t13.5 49q12 -1 44 -1t46 1q-9 -51 -15.5 -147t-4.5 -148q-55 3 -113 0q-15 94 -76 146t-147 52q-117 0 -164 -74t-47 -255
q0 -97 15 -163.5t44 -100.5t63 -48t79 -14q111 0 165 59.5t60 173.5q25 -3 70.5 -3t70.5 3q-8 -179 -96.5 -265.5t-282.5 -86.5q-210 0 -319 105t-109 340q0 221 112 335.5t302 114.5z" />
    <glyph glyph-name="ordfeminine" unicode="&#xaa;" horiz-adv-x="1005" 
d="M731 1157v-244q0 -47 8 -63t25 -16q47 0 35 159l57 2q6 -135 -27.5 -201.5t-128.5 -66.5q-134 0 -157 119q-64 -117 -205 -117q-94 0 -144.5 43.5t-50.5 126.5q0 203 396 227v52q0 95 -31.5 137t-120.5 41q-44 0 -82 -10q36 -6 57 -28.5t21 -57.5q0 -43 -29 -69t-78 -26
q-46 0 -75 27t-29 74q0 79 84 123.5t199 44.5q154 0 215 -70t61 -207zM115 426v176q92 -3 369.5 -3t371.5 3v-176q-94 3 -371.5 3t-369.5 -3zM430 834q44 0 76.5 35t32.5 98v114q-185 -16 -185 -153q0 -94 76 -94z" />
    <glyph glyph-name="guillemotleft" unicode="&#xab;" horiz-adv-x="860" 
d="M449 877l24 -21q-29 -73 -95.5 -178t-121.5 -166q53 -59 119.5 -164t97.5 -174l-24 -20q-260 218 -369 303v118q257 205 369 302zM772 877l25 -21q-29 -73 -95.5 -178t-121.5 -166q53 -59 119.5 -164t97.5 -174l-25 -20q-260 218 -369 303v118q257 205 369 302z" />
    <glyph glyph-name="registered" unicode="&#xae;" horiz-adv-x="1718" 
d="M860 68q158 0 278.5 47t194.5 133t111 200.5t37 256.5q0 189 -67 330.5t-208.5 224.5t-345.5 83q-154 0 -273.5 -47t-195.5 -133t-114.5 -201.5t-38.5 -256.5t38.5 -256.5t114.5 -201t195.5 -132.5t273.5 -47zM860 -33q-362 0 -556.5 198.5t-194.5 539.5q0 335 204.5 537
t546.5 202q351 0 551.5 -200.5t200.5 -538.5q0 -224 -85 -389t-256 -257t-411 -92zM1186 535q18 -79 33 -108.5t41 -29.5t31.5 49.5t-9.5 108.5q1 0 34 3t34 3q14 -51 11 -100.5t-18.5 -88t-56.5 -62t-102 -23.5q-65 0 -107.5 14.5t-66 46t-34 69.5t-13.5 95
q-6 96 -42.5 130t-109.5 34h-49q0 -143 4 -189q1 -38 18.5 -54.5t51.5 -16.5h45v-109q-144 4 -226 4l-227 -4v109h49q38 0 56.5 16t21.5 53q1 43 1 243t-1 241q-3 36 -18 50.5t-48 14.5h-61v107q66 -4 242 -4h217q178 0 265 -54.5t87 -167.5q0 -86 -53.5 -141.5
t-138.5 -73.5q63 -18 93.5 -57.5t45.5 -107.5zM766 991q-4 -70 -4 -246h82q93 0 130.5 37t37.5 117q0 73 -34.5 107t-117.5 34h-45q-49 0 -49 -49z" />
    <glyph glyph-name="macron" unicode="&#xaf;" horiz-adv-x="1089" 
d="M254 1151q4 73 0 149q94 -3 272.5 -3t272.5 3q-3 -74 0 -149q-94 3 -272.5 3t-272.5 -3z" />
    <glyph glyph-name="degree" unicode="&#xb0;" horiz-adv-x="690" 
d="M344 836q88 0 135 58.5t47 195.5q0 141 -48 198.5t-134 57.5q-180 0 -180 -256q0 -142 45.5 -198t134.5 -56zM344 764q-134 0 -208.5 81.5t-74.5 244.5t78.5 245t204.5 82q136 0 210.5 -80.5t74.5 -246.5q0 -161 -79 -243.5t-206 -82.5z" />
    <glyph glyph-name="plusminus" unicode="&#xb1;" 
d="M164 0q3 70 0 141q196 -4 379 -4q4 193 22 328q-141 -18 -407 -25v146q71 0 197.5 -7t209.5 -18q-17 127 -24 408h145q0 -72 -6.5 -199t-17.5 -209q83 11 210.5 18t198.5 7v-146q-271 7 -409 25q13 -120 22 -328q185 0 381 4q-3 -69 0 -141q-449 8 -901 0z" />
    <glyph glyph-name="acute" unicode="&#xb4;" horiz-adv-x="1089" 
d="M346 1073l-16 23q149 193 256 266q53 33 98.5 15t44 -59t-50.5 -81q-62 -41 -156.5 -88t-175.5 -76z" />
    <glyph glyph-name="paragraph" unicode="&#xb6;" horiz-adv-x="1120" 
d="M598 -27q2 23 2 484q-249 6 -375.5 127.5t-126.5 351.5q0 473 578 473h348v-129h-55q-54 0 -78.5 -22t-24.5 -78l2 -1155q0 -226 -90.5 -331.5t-271.5 -105.5q-144 0 -213.5 58.5t-69.5 144.5q0 72 38 107.5t97 35.5q63 0 97 -32.5t34 -89.5q0 -44 -28.5 -82t-83.5 -56
q31 -14 61 -14q84 0 120 66.5t40 246.5z" />
    <glyph glyph-name="periodcentered" unicode="&#xb7;" horiz-adv-x="569" 
d="M453 498q0 -73 -45 -115.5t-123 -42.5q-75 0 -120.5 41.5t-45.5 118.5q0 72 47 117t119 45q77 0 122.5 -45.5t45.5 -118.5z" />
    <glyph glyph-name="cedilla" unicode="&#xb8;" horiz-adv-x="1089" 
d="M436 -231l-24 43q71 39 104.5 84.5t40.5 117.5l55 -12q3 -39 -13.5 -81.5t-51.5 -76.5q92 11 161.5 -30t69.5 -129q0 -91 -64.5 -143t-178.5 -52q-81 0 -137 36t-81 87l45 37q58 -74 138 -74q57 0 86.5 29.5t29.5 81.5q0 62 -55 86t-125 -4z" />
    <glyph glyph-name="ordmasculine" unicode="&#xba;" horiz-adv-x="927" 
d="M119 426q1 25 1 87.5t-1 88.5q92 -3 345 -3t347 3q-1 -26 -1 -88.5t1 -87.5q-94 3 -347 3t-345 -3zM131 1071q0 181 90 272t248 91q159 0 248.5 -91t89.5 -272q0 -171 -91 -260.5t-247 -89.5q-159 0 -248.5 89.5t-89.5 260.5zM344 1071q0 -108 16 -166.5t41 -76t68 -17.5
q41 0 66.5 17.5t43 76.5t17.5 166t-17 169t-43.5 82.5t-68.5 20.5q-41 0 -66.5 -20.5t-41 -82t-15.5 -169.5z" />
    <glyph glyph-name="guillemotright" unicode="&#xbb;" horiz-adv-x="860" 
d="M63 856l27 21q211 -170 369 -302v-118q-146 -112 -369 -303l-24 20q28 67 95 172t120 166q-55 61 -122 166.5t-96 177.5zM387 856l27 21q185 -149 368 -302v-118q-136 -104 -368 -303l-25 20q28 67 95 172t120 166q-55 61 -121.5 166t-95.5 178z" />
    <glyph glyph-name="onequarter" unicode="&#xbc;" horiz-adv-x="774" 
d="M23 705q0 18 11.5 30.5t31.5 12.5q17 0 30 -13t13 -30q0 -20 -12.5 -31.5t-30.5 -11.5q-43 0 -43 43zM156 705q0 16 10.5 26t28.5 10q15 0 25.5 -10.5t10.5 -25.5q0 -18 -10 -28.5t-26 -10.5q-39 0 -39 39zM289 705q0 14 9 23t26 9q14 0 23 -9.5t9 -22.5q0 -17 -9 -26
t-23 -9q-35 0 -35 35zM418 705q0 14 9 23t26 9q13 0 22.5 -9.5t9.5 -22.5q0 -17 -9 -26t-23 -9q-35 0 -35 35zM543 705q0 16 10.5 26t28.5 10q15 0 25.5 -10.5t10.5 -25.5q0 -18 -10 -28.5t-26 -10.5q-39 0 -39 39zM668 705q0 18 11.5 30.5t31.5 12.5q17 0 30 -13t13 -30
q0 -20 -12.5 -31.5t-30.5 -11.5q-43 0 -43 43zM240 901q61 0 61 53v295l-121 -2q2 6 2 43t-2 43h37q82 0 121 31.5t49 89.5h96q-6 -131 -6 -250v-250q0 -53 60 -53h69v-82q-139 4 -219 4l-219 -4v82h72zM328 31q30 0 41.5 8t11.5 31v32h-277v48l340 436h119v-434l107 2v-54
h-107v-28q0 -23 11 -32t42 -9h50v-76q-125 4 -195 4l-195 -4v76h52zM182 150h199v270z" />
    <glyph glyph-name="onehalf" unicode="&#xbd;" horiz-adv-x="774" 
d="M23 705q0 18 11.5 30.5t31.5 12.5q17 0 30 -13t13 -30q0 -20 -12.5 -31.5t-30.5 -11.5q-43 0 -43 43zM156 705q0 16 10.5 26t28.5 10q15 0 25.5 -10.5t10.5 -25.5q0 -18 -10 -28.5t-26 -10.5q-39 0 -39 39zM289 705q0 14 9 23t26 9q14 0 23 -9.5t9 -22.5q0 -17 -9 -26
t-23 -9q-35 0 -35 35zM418 705q0 14 9 23t26 9q13 0 22.5 -9.5t9.5 -22.5q0 -17 -9 -26t-23 -9q-35 0 -35 35zM543 705q0 16 10.5 26t28.5 10q15 0 25.5 -10.5t10.5 -25.5q0 -18 -10 -28.5t-26 -10.5q-39 0 -39 39zM668 705q0 18 11.5 30.5t31.5 12.5q17 0 30 -13t13 -30
q0 -20 -12.5 -31.5t-30.5 -11.5q-43 0 -43 43zM629 158q19 -53 15.5 -101.5t-43.5 -83t-107 -34.5q-39 0 -74.5 10.5t-51.5 19.5t-51 31q-43 27 -82 30t-61 -16q23 2 40 -9t17 -28q0 -38 -45 -38q-59 0 -59 71q0 84 48.5 140t141.5 106q72 39 103 73t31 83q0 112 -119 112
q-45 0 -84 -16t-53 -47q32 8 53 8q36 0 57 -17t21 -49q0 -29 -23.5 -48t-66.5 -19q-42 0 -67.5 23.5t-25.5 66.5q0 78 66.5 123t171.5 45q125 0 185.5 -47.5t60.5 -124.5q0 -88 -54.5 -133.5t-171.5 -75.5q-184 -47 -221 -143q30 33 93 42.5t133 -6.5q38 -9 67 -12.5
t57.5 -1t41.5 17.5t8 44zM240 901q61 0 61 53v295l-121 -2q2 6 2 43t-2 43h37q82 0 121 31.5t49 89.5h96q-6 -131 -6 -250v-250q0 -53 60 -53h69v-82q-139 4 -219 4l-219 -4v82h72z" />
    <glyph glyph-name="threequarters" unicode="&#xbe;" horiz-adv-x="774" 
d="M23 705q0 18 11.5 30.5t31.5 12.5q17 0 30 -13t13 -30q0 -20 -12.5 -31.5t-30.5 -11.5q-43 0 -43 43zM156 705q0 16 10.5 26t28.5 10q15 0 25.5 -10.5t10.5 -25.5q0 -18 -10 -28.5t-26 -10.5q-39 0 -39 39zM289 705q0 14 9 23t26 9q14 0 23 -9.5t9 -22.5q0 -17 -9 -26
t-23 -9q-35 0 -35 35zM418 705q0 14 9 23t26 9q13 0 22.5 -9.5t9.5 -22.5q0 -17 -9 -26t-23 -9q-35 0 -35 35zM543 705q0 16 10.5 26t28.5 10q15 0 25.5 -10.5t10.5 -25.5q0 -18 -10 -28.5t-26 -10.5q-39 0 -39 39zM668 705q0 18 11.5 30.5t31.5 12.5q17 0 30 -13t13 -30
q0 -20 -12.5 -31.5t-30.5 -11.5q-43 0 -43 43zM629 1292q0 -109 -135 -145q80 -12 122.5 -53.5t42.5 -102.5q0 -186 -297 -186q-108 0 -176.5 45.5t-68.5 114.5q1 42 27.5 67t68.5 25q43 0 67.5 -20t24.5 -50q0 -32 -23.5 -52t-60.5 -20q-12 0 -37 5q43 -52 140 -52
q74 0 108.5 30.5t34.5 94.5q0 119 -148 119h-30v55h28q69 0 101.5 28.5t32.5 88.5q0 47 -28.5 76t-88.5 29q-41 0 -77 -15.5t-54 -42.5q24 8 49 8q37 0 56.5 -18t19.5 -47t-22.5 -48.5t-65.5 -19.5q-41 0 -68 24.5t-27 67.5q0 69 68.5 114.5t175.5 45.5q113 0 176.5 -44
t63.5 -122zM328 31q30 0 41.5 8t11.5 31v32h-277v48l340 436h119v-434l107 2v-54h-107v-28q0 -23 11 -32t42 -9h50v-76q-125 4 -195 4l-195 -4v76h52zM182 150h199v270z" />
    <glyph glyph-name="questiondown" unicode="&#xbf;" horiz-adv-x="1050" 
d="M317 393l-28 58q51 43 125.5 73.5t150.5 30.5q72 0 116 -36.5t44 -98.5q0 -53 -32.5 -91t-104.5 -79q-62 -33 -105 -73.5t-73.5 -113t-30.5 -167.5q0 -123 64.5 -197t195.5 -74q90 0 161 40t97 122q-49 -18 -90 -18q-70 0 -110 39t-40 108q0 65 46 106t122 41
q83 0 127.5 -51t44.5 -145q0 -162 -121.5 -268.5t-345.5 -106.5q-230 0 -346 103t-116 286q0 169 100.5 274.5t318.5 184.5q67 24 91 40.5t24 41.5q0 26 -18.5 38.5t-46.5 12.5q-114 0 -220 -80zM362 823q0 73 44 114.5t118 41.5t119 -41.5t45 -116.5q0 -71 -45.5 -114
t-118.5 -43t-117.5 43.5t-44.5 115.5z" />
    <glyph glyph-name="Agrave" unicode="&#xc0;" horiz-adv-x="1808" 
d="M1118 354l-28 82q-223 6 -533 2q-6 -17 -12 -34.5t-10.5 -33t-6.5 -20.5q-32 -92 -9.5 -142t110.5 -50h82q0 -8 -1 -81t-1 -81q-205 4 -322 4l-321 -4q2 12 2 81t-2 81h65q86 0 131.5 38.5t83.5 137.5q68 168 406 1091q98 -6 153 -6l152 6q58 -166 215 -566.5t211 -526.5
q43 -98 83 -136t101 -38h76v-162q-254 4 -395 4l-398 -4v162h86q151 0 82 196zM1049 551q-101 281 -230 612q-60 -161 -221 -612q231 -3 451 0zM1024 1546l-16 -22q-83 30 -178 76.5t-154 87.5q-52 35 -50.5 80.5t43.5 59t99 -15.5q98 -67 256 -266z" />
    <glyph glyph-name="Aacute" unicode="&#xc1;" horiz-adv-x="1808" 
d="M1118 354l-28 82q-223 6 -533 2q-6 -17 -12 -34.5t-10.5 -33t-6.5 -20.5q-32 -92 -9.5 -142t110.5 -50h82q0 -8 -1 -81t-1 -81q-205 4 -322 4l-321 -4q2 12 2 81t-2 81h65q86 0 131.5 38.5t83.5 137.5q68 168 406 1091q98 -6 153 -6l152 6q58 -166 215 -566.5t211 -526.5
q43 -98 83 -136t101 -38h76v-162q-254 4 -395 4l-398 -4v162h86q151 0 82 196zM1049 551q-101 281 -230 612q-60 -161 -221 -612q231 -3 451 0zM834 1524l-17 22q149 193 256 266q53 33 98.5 15.5t44 -59t-50.5 -80.5q-62 -42 -156 -88.5t-175 -75.5z" />
    <glyph glyph-name="Acircumflex" unicode="&#xc2;" horiz-adv-x="1808" 
d="M1118 354l-28 82q-223 6 -533 2q-6 -17 -12 -34.5t-10.5 -33t-6.5 -20.5q-32 -92 -9.5 -142t110.5 -50h82q0 -8 -1 -81t-1 -81q-205 4 -322 4l-321 -4q2 12 2 81t-2 81h65q86 0 131.5 38.5t83.5 137.5q68 168 406 1091q98 -6 153 -6l152 6q58 -166 215 -566.5t211 -526.5
q43 -98 83 -136t101 -38h76v-162q-254 4 -395 4l-398 -4v162h86q151 0 82 196zM1049 551q-101 281 -230 612q-60 -161 -221 -612q231 -3 451 0zM1204 1528l-16 -23q-60 25 -147.5 80.5t-139.5 102.5q-53 -46 -140.5 -102t-142.5 -79l-16 21q33 74 103.5 155.5t138.5 139.5
h121q62 -50 132 -133t107 -162z" />
    <glyph glyph-name="Atilde" unicode="&#xc3;" horiz-adv-x="1808" 
d="M1118 354l-28 82q-223 6 -533 2q-6 -17 -12 -34.5t-10.5 -33t-6.5 -20.5q-32 -92 -9.5 -142t110.5 -50h82q0 -8 -1 -81t-1 -81q-205 4 -322 4l-321 -4q2 12 2 81t-2 81h65q86 0 131.5 38.5t83.5 137.5q68 168 406 1091q98 -6 153 -6l152 6q58 -166 215 -566.5t211 -526.5
q43 -98 83 -136t101 -38h76v-162q-254 4 -395 4l-398 -4v162h86q151 0 82 196zM1049 551q-101 281 -230 612q-60 -161 -221 -612q231 -3 451 0zM1155 1806l45 13q46 -139 -13.5 -216t-170.5 -77q-68 0 -112 29t-81 87q-37 57 -58.5 76t-55.5 19q-43 0 -59.5 -40.5
t3.5 -137.5l-47 -13q-46 141 13 217t172 76q59 0 103.5 -26.5t86.5 -88.5q36 -53 60 -74.5t57 -21.5q44 0 60 41.5t-3 136.5z" />
    <glyph glyph-name="Adieresis" unicode="&#xc4;" horiz-adv-x="1808" 
d="M1118 354l-28 82q-223 6 -533 2q-6 -17 -12 -34.5t-10.5 -33t-6.5 -20.5q-32 -92 -9.5 -142t110.5 -50h82q0 -8 -1 -81t-1 -81q-205 4 -322 4l-321 -4q2 12 2 81t-2 81h65q86 0 131.5 38.5t83.5 137.5q68 168 406 1091q98 -6 153 -6l152 6q58 -166 215 -566.5t211 -526.5
q43 -98 83 -136t101 -38h76v-162q-254 4 -395 4l-398 -4v162h86q151 0 82 196zM1049 551q-101 281 -230 612q-60 -161 -221 -612q231 -3 451 0zM846 1663q0 -51 -32.5 -83t-84.5 -32q-51 0 -84 32t-33 83t33 83t84 32q52 0 84.5 -32t32.5 -83zM1196 1663q0 -51 -32.5 -83
t-84.5 -32q-51 0 -83.5 32t-32.5 83t32.5 83t83.5 32q52 0 84.5 -32t32.5 -83z" />
    <glyph glyph-name="Aring" unicode="&#xc5;" horiz-adv-x="1808" 
d="M1118 354l-28 82q-223 6 -533 2q-6 -17 -12 -34.5t-10.5 -33t-6.5 -20.5q-32 -92 -9.5 -142t110.5 -50h82q0 -8 -1 -81t-1 -81q-205 4 -322 4l-321 -4q2 12 2 81t-2 81h65q86 0 131.5 38.5t83.5 137.5q68 168 406 1091q98 -6 153 -6l152 6q58 -166 215 -566.5t211 -526.5
q43 -98 83 -136t101 -38h76v-162q-254 4 -395 4l-398 -4v162h86q151 0 82 196zM1049 551q-101 281 -230 612q-60 -161 -221 -612q231 -3 451 0zM1004 1706q0 48 -26.5 74t-70.5 26q-45 0 -70.5 -25.5t-25.5 -74.5q0 -51 25.5 -79t70.5 -28q44 0 70.5 28.5t26.5 78.5z
M1083 1706q0 -82 -48 -131t-128 -49t-129 49.5t-49 130.5q0 80 47.5 128t128.5 48q80 0 129 -48.5t49 -127.5z" />
    <glyph glyph-name="AE" unicode="&#xc6;" horiz-adv-x="2220" 
d="M2152 551q-20 -217 -20 -561q-96 8 -403 8q-545 2 -582 2q-243 0 -365 -4q2 12 2 81t-2 81h97q67 0 94.5 32t27.5 95q0 12 1 33t2 54.5t2 61.5q-197 3 -381 0q-6 -12 -20 -42.5t-19 -41.5q-29 -62 -35.5 -102.5t16.5 -65t82 -24.5h64q-2 -16 -2 -162q-207 4 -324 4
l-321 -4q2 12 2 81t-2 81h63q86 0 139.5 39t112.5 137q271 426 467 790q35 64 15.5 104t-87.5 40h-45v151q121 -10 432 -10q9 0 186 1t347 1q352 0 448 12q-16 -238 -12 -522h-154v12q0 135 -31.5 209t-92 101.5t-168.5 27.5h-259q-54 0 -78.5 -26.5t-27.5 -79.5
q-6 -86 -6 -373h104q109 0 157 50t48 165v43h135q-8 -238 -8 -313q0 -220 8 -324h-131v37q-2 124 -53.5 176.5t-181.5 52.5h-78q0 -301 6 -387q3 -62 32 -88t83 -26h247q165 0 233.5 85.5t68.5 284.5v23q13 -1 83 -1t84 1zM684 547q161 -3 322 0q4 390 -7 569
q-127 -211 -315 -569z" />
    <glyph glyph-name="Ccedilla" unicode="&#xc7;" horiz-adv-x="1499" 
d="M651 -231l-24 43q58 31 90 65.5t45 83.5q-159 3 -280 45.5t-210.5 130t-135.5 231.5t-46 341q0 190 52 335t146 233.5t217 132.5t273 44q200 0 352 -88q74 -41 100.5 -28t35.5 92q11 -2 74.5 -2t72.5 2q-14 -88 -25.5 -253.5t-7.5 -273.5q-98 8 -196 0
q-10 71 -23.5 124.5t-40 105.5t-64.5 85t-97.5 53.5t-137.5 20.5q-194 0 -280 -134.5t-86 -448.5q0 -141 18 -245.5t48.5 -169.5t76.5 -104.5t96.5 -54t114.5 -14.5q183 0 283 113.5t108 316.5q35 -3 104.5 -3t106.5 3q-7 -149 -41.5 -255.5t-104 -181t-178.5 -112
t-262 -41.5q-14 -68 -63 -117q92 11 161.5 -30t69.5 -129q0 -91 -64.5 -143t-178.5 -52q-81 0 -137 36t-81 87l46 37q58 -74 137 -74q57 0 86.5 29.5t29.5 81.5q0 62 -54.5 86t-125.5 -4z" />
    <glyph glyph-name="Egrave" unicode="&#xc8;" horiz-adv-x="1501" 
d="M905 987v43h133q-8 -238 -8 -313q0 -185 8 -324h-129v37q-3 124 -54.5 176.5t-180.5 52.5h-80q0 -301 6 -387q5 -114 115 -114h250q170 0 235.5 88t65.5 305q13 -1 83.5 -1t84.5 1q-21 -228 -21 -561q-133 10 -416 10h-561q-49 0 -139 -1t-161 -2l-70 -1q2 12 2 81t-2 81
h92q66 0 92 31.5t31 95.5q6 83 6 424t-6 430q-4 65 -29.5 90.5t-81.5 25.5h-104q2 12 2 79t-2 79q12 0 175 -2t203 -2q12 0 197 1t336 1q352 0 448 12q-16 -204 -12 -524h-153q0 143 -30.5 219.5t-91 104.5t-171.5 28h-258q-103 0 -109 -106q-6 -85 -6 -373h84
q122 0 174.5 48t52.5 167zM940 1546l-16 -22q-83 30 -178 76.5t-154 87.5q-52 35 -50.5 80.5t43.5 59t99 -15.5q98 -67 256 -266z" />
    <glyph glyph-name="Eacute" unicode="&#xc9;" horiz-adv-x="1501" 
d="M709 1524l-17 22q149 193 256 266q53 33 98.5 15.5t44 -59t-50.5 -80.5q-62 -42 -156 -88.5t-175 -75.5zM905 987v43h133q-8 -238 -8 -313q0 -185 8 -324h-129v37q-3 124 -54.5 176.5t-180.5 52.5h-80q0 -301 6 -387q5 -114 115 -114h250q170 0 235.5 88t65.5 305
q13 -1 83.5 -1t84.5 1q-21 -228 -21 -561q-133 10 -416 10h-561q-49 0 -139 -1t-161 -2l-70 -1q2 12 2 81t-2 81h92q66 0 92 31.5t31 95.5q6 83 6 424t-6 430q-4 65 -29.5 90.5t-81.5 25.5h-104q2 12 2 79t-2 79q12 0 175 -2t203 -2q12 0 197 1t336 1q352 0 448 12
q-16 -204 -12 -524h-153q0 143 -30.5 219.5t-91 104.5t-171.5 28h-258q-103 0 -109 -106q-6 -85 -6 -373h84q122 0 174.5 48t52.5 167z" />
    <glyph glyph-name="Ecircumflex" unicode="&#xca;" horiz-adv-x="1501" 
d="M1102 1528l-17 -23q-60 25 -147 80.5t-139 102.5q-53 -46 -140.5 -102t-142.5 -79l-16 21q33 74 103.5 156t137.5 139h121q62 -50 132.5 -133t107.5 -162zM905 987v43h133q-8 -238 -8 -313q0 -185 8 -324h-129v37q-3 124 -54.5 176.5t-180.5 52.5h-80q0 -301 6 -387
q5 -114 115 -114h250q170 0 235.5 88t65.5 305q13 -1 83.5 -1t84.5 1q-21 -228 -21 -561q-133 10 -416 10h-561q-49 0 -139 -1t-161 -2l-70 -1q2 12 2 81t-2 81h92q66 0 92 31.5t31 95.5q6 83 6 424t-6 430q-4 65 -29.5 90.5t-81.5 25.5h-104q2 12 2 79t-2 79q12 0 175 -2
t203 -2q12 0 197 1t336 1q352 0 448 12q-16 -204 -12 -524h-153q0 143 -30.5 219.5t-91 104.5t-171.5 28h-258q-103 0 -109 -106q-6 -85 -6 -373h84q122 0 174.5 48t52.5 167z" />
    <glyph glyph-name="Edieresis" unicode="&#xcb;" horiz-adv-x="1501" 
d="M745 1663q0 -51 -32 -83t-84 -32q-51 0 -84 32t-33 83t33 83t84 32q52 0 84 -32t32 -83zM1096 1663q0 -51 -32.5 -83t-84.5 -32q-51 0 -84 32t-33 83t33 83t84 32q52 0 84.5 -32t32.5 -83zM905 987v43h133q-8 -238 -8 -313q0 -185 8 -324h-129v37q-3 124 -54.5 176.5
t-180.5 52.5h-80q0 -301 6 -387q5 -114 115 -114h250q170 0 235.5 88t65.5 305q13 -1 83.5 -1t84.5 1q-21 -228 -21 -561q-133 10 -416 10h-561q-49 0 -139 -1t-161 -2l-70 -1q2 12 2 81t-2 81h92q66 0 92 31.5t31 95.5q6 83 6 424t-6 430q-4 65 -29.5 90.5t-81.5 25.5h-104
q2 12 2 79t-2 79q12 0 175 -2t203 -2q12 0 197 1t336 1q352 0 448 12q-16 -204 -12 -524h-153q0 143 -30.5 219.5t-91 104.5t-171.5 28h-258q-103 0 -109 -106q-6 -85 -6 -373h84q122 0 174.5 48t52.5 167z" />
    <glyph glyph-name="Igrave" unicode="&#xcc;" horiz-adv-x="876" 
d="M72 -4v162h96q65 0 88 19.5t25 72.5q5 100 5 458t-5 441q-3 59 -27 82.5t-80 23.5h-102v158q237 -6 368 -6q58 0 143.5 1.5t151 3t72.5 1.5v-158h-102q-56 0 -79.5 -23t-27.5 -83q-6 -90 -5.5 -441.5t5.5 -457.5q2 -53 26 -72.5t89 -19.5h94v-162q-236 4 -367 4z
M559 1546l-16 -22q-83 30 -178 76.5t-154 87.5q-52 35 -50.5 80.5t43.5 59t99 -15.5q98 -67 256 -266z" />
    <glyph glyph-name="Iacute" unicode="&#xcd;" horiz-adv-x="876" 
d="M72 -4v162h96q65 0 88 19.5t25 72.5q5 100 5 458t-5 441q-3 59 -27 82.5t-80 23.5h-102v158q237 -6 368 -6q58 0 143.5 1.5t151 3t72.5 1.5v-158h-102q-56 0 -79.5 -23t-27.5 -83q-6 -90 -5.5 -441.5t5.5 -457.5q2 -53 26 -72.5t89 -19.5h94v-162q-236 4 -367 4z
M369 1524l-17 22q149 193 256 266q53 33 98.5 15.5t44 -59t-50.5 -80.5q-62 -42 -156 -88.5t-175 -75.5z" />
    <glyph glyph-name="Icircumflex" unicode="&#xce;" horiz-adv-x="876" 
d="M72 -4v162h96q65 0 88 19.5t25 72.5q5 100 5 458t-5 441q-3 59 -27 82.5t-80 23.5h-102v158q237 -6 368 -6q58 0 143.5 1.5t151 3t72.5 1.5v-158h-102q-56 0 -79.5 -23t-27.5 -83q-6 -90 -5.5 -441.5t5.5 -457.5q2 -53 26 -72.5t89 -19.5h94v-162q-236 4 -367 4z
M739 1528l-16 -23q-60 25 -147.5 80.5t-139.5 102.5q-53 -46 -140 -102t-142 -79l-17 21q33 74 103.5 155.5t138.5 139.5h121q62 -50 132 -133t107 -162z" />
    <glyph glyph-name="Idieresis" unicode="&#xcf;" horiz-adv-x="876" 
d="M72 -4v162h96q65 0 88 19.5t25 72.5q5 100 5 458t-5 441q-3 59 -27 82.5t-80 23.5h-102v158q237 -6 368 -6q58 0 143.5 1.5t151 3t72.5 1.5v-158h-102q-56 0 -79.5 -23t-27.5 -83q-6 -90 -5.5 -441.5t5.5 -457.5q2 -53 26 -72.5t89 -19.5h94v-162q-236 4 -367 4z
M379 1663q0 -51 -32.5 -83t-84.5 -32q-51 0 -84 32t-33 83t33 83t84 32q52 0 84.5 -32t32.5 -83zM729 1663q0 -51 -32.5 -83t-84.5 -32q-51 0 -83.5 32t-32.5 83t32.5 83t83.5 32q52 0 84.5 -32t32.5 -83z" />
    <glyph glyph-name="Eth" unicode="&#xd0;" horiz-adv-x="1611" 
d="M817 1411q367 0 534.5 -167t172.5 -527q2 -156 -32.5 -278.5t-97 -204.5t-152.5 -135.5t-194 -77t-227 -23.5q-260 2 -379 2l-376 -4q2 12 2 81t-2 81h92q71 0 96.5 19.5t26.5 78.5q4 122 4 393q-37 0 -90.5 -1t-65.5 -1v152q66 -4 156 -4q0 254 -4 352q-3 61 -28 84.5
t-81 23.5h-106q2 12 2 79t-2 79q6 0 160 -2t223 -2q49 0 136 0.5t156.5 1t75.5 0.5zM598 246q1 -47 26.5 -71.5t63.5 -24.5h84q90 0 154.5 16t115.5 54t81.5 103.5t46.5 162.5t16 233q0 208 -40.5 325.5t-128.5 168.5t-243 51h-86q-86 0 -90 -84q-6 -94 -6 -385q129 0 219 4
v-152q-17 0 -92 1t-127 1q0 -304 6 -403z" />
    <glyph glyph-name="Ntilde" unicode="&#xd1;" horiz-adv-x="1703" 
d="M604 1413q102 -158 296.5 -441.5t336.5 -482.5q8 386 -2 648q-3 67 -30 92.5t-85 25.5h-116v158q1 0 124.5 -3t192.5 -3l315 6v-158h-106q-57 0 -85 -26t-32 -92q-5 -88 -5 -512t5 -625q-116 8 -237 0q-300 458 -711 1055q-5 -641 4 -795q3 -57 30.5 -79.5t96.5 -22.5
h111v-162q-205 4 -320 4l-321 -4q2 12 2 81t-2 81h98q70 0 97.5 23t29.5 79q5 110 5.5 451.5t-5.5 431.5q-4 60 -31 86t-84 26h-108q2 12 2 79t-2 79q268 -8 536 0zM1071 1806l45 13q46 -139 -13.5 -216t-170.5 -77q-68 0 -112 29t-81 87q-37 57 -58.5 76t-55.5 19
q-43 0 -59.5 -40.5t3.5 -137.5l-47 -13q-46 141 13 217t172 76q59 0 103.5 -26.5t86.5 -88.5q36 -53 60 -74.5t57 -21.5q44 0 60 41.5t-3 136.5z" />
    <glyph glyph-name="Ograve" unicode="&#xd2;" horiz-adv-x="1591" 
d="M797 117q192 0 272 141t80 451q0 322 -80 455.5t-272 133.5q-184 0 -268.5 -141.5t-84.5 -449.5q0 -323 77.5 -456.5t275.5 -133.5zM797 -39q-348 0 -527.5 189t-179.5 557q0 182 52 324.5t146 234t223 139t286 47.5q350 0 527 -187t177 -556q0 -183 -52.5 -326.5
t-147.5 -235t-222.5 -139t-281.5 -47.5zM915 1546l-16 -22q-83 30 -178 76.5t-154 87.5q-52 35 -50.5 80.5t43.5 59t99 -15.5q98 -67 256 -266z" />
    <glyph glyph-name="Oacute" unicode="&#xd3;" horiz-adv-x="1591" 
d="M725 1524l-16 22q149 193 256 266q53 33 98.5 15.5t44 -59t-50.5 -80.5q-62 -41 -156.5 -88t-175.5 -76zM797 117q192 0 272 141t80 451q0 322 -80 455.5t-272 133.5q-184 0 -268.5 -141.5t-84.5 -449.5q0 -323 77.5 -456.5t275.5 -133.5zM797 -39q-348 0 -527.5 189
t-179.5 557q0 182 52 324.5t146 234t223 139t286 47.5q350 0 527 -187t177 -556q0 -183 -52.5 -326.5t-147.5 -235t-222.5 -139t-281.5 -47.5z" />
    <glyph glyph-name="Ocircumflex" unicode="&#xd4;" horiz-adv-x="1591" 
d="M1096 1528l-17 -23q-60 25 -147 80.5t-139 102.5q-53 -46 -140.5 -102t-142.5 -79l-16 21q33 74 103.5 156t137.5 139h121q62 -50 132.5 -133t107.5 -162zM797 117q192 0 272 141t80 451q0 322 -80 455.5t-272 133.5q-184 0 -268.5 -141.5t-84.5 -449.5
q0 -323 77.5 -456.5t275.5 -133.5zM797 -39q-348 0 -527.5 189t-179.5 557q0 182 52 324.5t146 234t223 139t286 47.5q350 0 527 -187t177 -556q0 -183 -52.5 -326.5t-147.5 -235t-222.5 -139t-281.5 -47.5z" />
    <glyph glyph-name="Otilde" unicode="&#xd5;" horiz-adv-x="1591" 
d="M797 117q192 0 272 141t80 451q0 322 -80 455.5t-272 133.5q-184 0 -268.5 -141.5t-84.5 -449.5q0 -323 77.5 -456.5t275.5 -133.5zM797 -39q-348 0 -527.5 189t-179.5 557q0 182 52 324.5t146 234t223 139t286 47.5q350 0 527 -187t177 -556q0 -183 -52.5 -326.5
t-147.5 -235t-222.5 -139t-281.5 -47.5zM1047 1806l45 13q33 -99 11 -164.5t-74 -97t-122 -31.5q-67 0 -111 29t-81 87q-37 56 -59 75.5t-56 19.5q-43 0 -59 -40.5t4 -137.5l-47 -13q-46 141 12.5 217t171.5 76q59 0 103.5 -26.5t86.5 -88.5q36 -53 60 -74.5t57 -21.5
q44 0 60.5 41.5t-2.5 136.5z" />
    <glyph glyph-name="Odieresis" unicode="&#xd6;" horiz-adv-x="1591" 
d="M754 1663q0 -51 -32.5 -83t-84.5 -32q-51 0 -84 32t-33 83t33 83t84 32q52 0 84.5 -32t32.5 -83zM1104 1663q0 -51 -32.5 -83t-84.5 -32q-51 0 -84 32t-33 83t33 83t84 32q52 0 84.5 -32t32.5 -83zM797 117q192 0 272 141t80 451q0 322 -80 455.5t-272 133.5
q-184 0 -268.5 -141.5t-84.5 -449.5q0 -323 77.5 -456.5t275.5 -133.5zM797 -39q-348 0 -527.5 189t-179.5 557q0 182 52 324.5t146 234t223 139t286 47.5q350 0 527 -187t177 -556q0 -183 -52.5 -326.5t-147.5 -235t-222.5 -139t-281.5 -47.5z" />
    <glyph glyph-name="multiply" unicode="&#xd7;" 
d="M989 238l-102 -103q-189 198 -275 309q-107 -138 -270 -307l-104 105q50 50 145 135t162 135q-125 94 -307 270l104 103q52 -52 136 -145.5t134 -159.5q51 68 137.5 164t135.5 143l102 -103q-55 -55 -148 -139.5t-157 -132.5q105 -82 307 -274z" />
    <glyph glyph-name="Oslash" unicode="&#xd8;" horiz-adv-x="1591" 
d="M797 -39q-275 0 -445 117l-164 -164l-51 39l137 192q-184 187 -184 562q0 182 52 324.5t146 234t223 139t286 47.5q279 0 454 -125l172 178l45 -35l-143 -208q176 -185 176 -553q0 -183 -52.5 -326.5t-147.5 -235t-222.5 -139t-281.5 -47.5zM444 707q0 -207 29 -332
l305 352l309 399q-39 90 -110 131t-180 41q-184 0 -268.5 -141.5t-84.5 -449.5zM797 117q192 0 272 141t80 451q0 187 -27 313l-288 -326l-326 -422q39 -82 109 -119.5t180 -37.5z" />
    <glyph glyph-name="Ugrave" unicode="&#xd9;" horiz-adv-x="1705" 
d="M252 561q0 6 0.5 85t1 162.5t0 178.5t-1.5 143q-2 68 -26.5 96.5t-82.5 28.5h-77q2 12 2 79t-2 79q229 -6 358 -6q76 0 217 3t145 3v-158h-86q-62 0 -91 -27.5t-29 -97.5q-2 -103 -2 -324.5t2 -250.5q1 -221 81 -315.5t246 -94.5q83 0 142.5 20.5t103 67.5t64.5 127
t22 195q4 358 0 575q-3 125 -119 125h-84v158q190 -6 301 -6q64 0 180 3t123 3v-158h-77q-108 0 -111 -125q-2 -95 -2 -196t1 -211.5t1 -159.5q0 -608 -580 -608q-317 0 -468.5 144.5t-151.5 461.5zM977 1546l-16 -22q-83 30 -178 76.5t-154 87.5q-52 35 -50.5 80.5t43.5 59
t99 -15.5q98 -67 256 -266z" />
    <glyph glyph-name="Uacute" unicode="&#xda;" horiz-adv-x="1705" 
d="M885 1524l-17 22q149 193 256 266q53 33 99 15.5t44.5 -59t-50.5 -80.5q-62 -41 -156.5 -88t-175.5 -76zM252 561q0 6 0.5 85t1 162.5t0 178.5t-1.5 143q-2 68 -26.5 96.5t-82.5 28.5h-77q2 12 2 79t-2 79q229 -6 358 -6q76 0 217 3t145 3v-158h-86q-62 0 -91 -27.5
t-29 -97.5q-2 -103 -2 -324.5t2 -250.5q1 -221 81 -315.5t246 -94.5q83 0 142.5 20.5t103 67.5t64.5 127t22 195q4 358 0 575q-3 125 -119 125h-84v158q190 -6 301 -6q64 0 180 3t123 3v-158h-77q-108 0 -111 -125q-2 -95 -2 -196t1 -211.5t1 -159.5q0 -608 -580 -608
q-317 0 -468.5 144.5t-151.5 461.5z" />
    <glyph glyph-name="Ucircumflex" unicode="&#xdb;" horiz-adv-x="1705" 
d="M1212 1528l-16 -23q-60 25 -147.5 80.5t-139.5 102.5q-53 -46 -140 -102t-142 -79l-17 21q33 74 103.5 155.5t138.5 139.5h121q62 -50 132 -133t107 -162zM252 561q0 6 0.5 85t1 162.5t0 178.5t-1.5 143q-2 68 -26.5 96.5t-82.5 28.5h-77q2 12 2 79t-2 79q229 -6 358 -6
q76 0 217 3t145 3v-158h-86q-62 0 -91 -27.5t-29 -97.5q-2 -103 -2 -324.5t2 -250.5q6 -223 84 -316.5t243 -93.5q83 0 142.5 20.5t103 67.5t64.5 127t22 195q4 358 0 575q-3 125 -119 125h-84v158q190 -6 301 -6q64 0 180 3t123 3v-158h-77q-108 0 -111 -125
q-2 -95 -2 -196t1 -211.5t1 -159.5q0 -608 -580 -608q-317 0 -468.5 144.5t-151.5 461.5z" />
    <glyph glyph-name="Udieresis" unicode="&#xdc;" horiz-adv-x="1705" 
d="M852 1663q0 -51 -32.5 -83t-84.5 -32q-51 0 -84 32t-33 83t33 83t84 32q52 0 84.5 -32t32.5 -83zM1202 1663q0 -51 -32.5 -83t-84.5 -32q-51 0 -83.5 32t-32.5 83t32.5 83t83.5 32q52 0 84.5 -32t32.5 -83zM252 561q0 6 0.5 85t1 162.5t0 178.5t-1.5 143
q-2 68 -26.5 96.5t-82.5 28.5h-77q2 12 2 79t-2 79q229 -6 358 -6q76 0 217 3t145 3v-158h-86q-62 0 -91 -27.5t-29 -97.5q-2 -103 -2 -324.5t2 -250.5q1 -221 81 -315.5t246 -94.5q83 0 142.5 20.5t103 67.5t64.5 127t22 195q4 358 0 575q-3 125 -119 125h-84v158
q190 -6 301 -6q64 0 180 3t123 3v-158h-77q-108 0 -111 -125q-2 -95 -2 -196t1 -211.5t1 -159.5q0 -608 -580 -608q-317 0 -468.5 144.5t-151.5 461.5z" />
    <glyph glyph-name="Yacute" unicode="&#xdd;" horiz-adv-x="1687" 
d="M1321 1108q-118 -200 -334 -621v-221q0 -64 22.5 -87t98.5 -23h119v-160q-261 4 -406 4l-407 -4v160h118q77 0 97 23t20 87v217q-222 443 -340 643q-41 69 -94 99t-143 30h-33v158q260 -6 407 -6l406 6v-158h-84q-154 0 -86 -155q62 -138 244 -453q134 241 227 453
q16 36 21.5 62t0.5 48t-29.5 33.5t-68.5 11.5h-63v158q204 -6 319 -6l316 6v-158h-47q-85 0 -137 -16.5t-81.5 -45t-62.5 -85.5zM915 1524l-16 22q149 193 256 266q53 33 98.5 15.5t44 -59t-50.5 -80.5q-62 -41 -156.5 -88t-175.5 -76z" />
    <glyph glyph-name="Thorn" unicode="&#xde;" horiz-adv-x="1445" 
d="M63 -4v162h97q65 0 87.5 19.5t24.5 72.5q4 100 4 458t-4 441q-3 60 -26.5 83t-79.5 23h-103v158q238 -6 369 -6q58 0 143.5 1.5t151 3t72.5 1.5v-158h-103q-58 0 -83 -33.5t-25 -101.5q104 19 190 19q161 0 275.5 -29t182 -86t98 -133.5t30.5 -179.5t-33.5 -179
t-106.5 -131t-194 -82.5t-291 -27.5q-87 0 -151 6q0 -35 2 -47q2 -53 26 -72.5t89 -19.5h94v-162q-236 4 -367 4zM686 995q-38 0 -100 -4q-3 -276 0 -565q62 -4 102 -4q179 0 250.5 69t69.5 220q0 150 -69.5 217t-252.5 67z" />
    <glyph glyph-name="germandbls" unicode="&#xdf;" horiz-adv-x="1318" 
d="M55 950l129 -6v14q-3 99 19 178.5t63 133t100.5 89t128 51t148.5 15.5q213 0 324.5 -101t111.5 -267q0 -259 -221 -322q180 -13 264 -112t84 -261q0 -206 -90.5 -299.5t-275.5 -93.5q-157 0 -227 87.5t-33 275.5h82q-27 -246 112 -246q66 0 96.5 65.5t30.5 219.5
q0 169 -61 234.5t-215 58.5v106q89 0 132.5 69t43.5 218q0 141 -43.5 197.5t-124.5 56.5q-84 0 -129 -64.5t-45 -232.5v-776q0 -29 1 -98.5t1 -139.5q-157 6 -182 6q-58 2 -103.5 0.5t-91 -4t-47.5 -2.5q1 10 1 66t-1 67h59q84 0 88 105q6 186 2 585l-131 -4v131z" />
    <glyph glyph-name="agrave" unicode="&#xe0;" horiz-adv-x="1107" 
d="M889 586v-350q0 -68 11 -92.5t34 -24.5q66 0 53 229l80 4q4 -75 0 -132t-18 -105.5t-39.5 -79.5t-66.5 -48.5t-97 -17.5q-191 0 -225 168q-97 -166 -293 -166q-134 0 -205.5 63t-71.5 181q0 293 561 326v73q0 137 -43 196.5t-170 59.5q-56 0 -110 -14q49 -10 75.5 -43.5
t26.5 -83.5q0 -63 -40.5 -99t-110.5 -36q-69 0 -109.5 37.5t-40.5 107.5q0 76 59 131.5t149 82t196 26.5q113 0 191.5 -26.5t122.5 -80t62.5 -122.5t18.5 -164zM459 121q117 0 153 131v227q-264 -26 -264 -223q0 -135 111 -135zM651 1085l-16 -22q-83 30 -178 76.5
t-154 87.5q-52 35 -50.5 81t43.5 59.5t99 -15.5q97 -66 256 -267z" />
    <glyph glyph-name="aacute" unicode="&#xe1;" horiz-adv-x="1107" 
d="M889 586v-350q0 -68 11 -92.5t34 -24.5q66 0 53 229l80 4q4 -75 0 -132t-18 -105.5t-39.5 -79.5t-66.5 -48.5t-97 -17.5q-191 0 -225 168q-97 -166 -293 -166q-134 0 -205.5 63t-71.5 181q0 293 561 326v73q0 137 -43 196.5t-170 59.5q-56 0 -110 -14q49 -10 75.5 -43.5
t26.5 -83.5q0 -63 -40.5 -99t-110.5 -36q-69 0 -109.5 37.5t-40.5 107.5q0 76 59 131.5t149 82t196 26.5q113 0 191.5 -26.5t122.5 -80t62.5 -122.5t18.5 -164zM459 121q117 0 153 131v227q-264 -26 -264 -223q0 -135 111 -135zM451 1063l-17 22q151 195 256 267
q53 33 98.5 15t44 -59t-50.5 -81q-62 -42 -156 -88.5t-175 -75.5z" />
    <glyph glyph-name="acircumflex" unicode="&#xe2;" horiz-adv-x="1107" 
d="M889 586v-350q0 -68 11 -92.5t34 -24.5q66 0 53 229l80 4q4 -75 0 -132t-18 -105.5t-39.5 -79.5t-66.5 -48.5t-97 -17.5q-191 0 -225 168q-97 -166 -293 -166q-134 0 -205.5 63t-71.5 181q0 293 561 326v73q0 137 -43 196.5t-170 59.5q-56 0 -110 -14q49 -10 75.5 -43.5
t26.5 -83.5q0 -63 -40.5 -99t-110.5 -36q-69 0 -109.5 37.5t-40.5 107.5q0 76 59 131.5t149 82t196 26.5q113 0 191.5 -26.5t122.5 -80t62.5 -122.5t18.5 -164zM459 121q117 0 153 131v227q-264 -26 -264 -223q0 -135 111 -135zM813 1081l-16 -22q-61 25 -148 80t-139 102
q-52 -45 -139.5 -101t-143.5 -79l-16 20q33 74 103.5 155.5t138.5 139.5h120q62 -50 132.5 -133t107.5 -162z" />
    <glyph glyph-name="atilde" unicode="&#xe3;" horiz-adv-x="1107" 
d="M889 586v-350q0 -68 11 -92.5t34 -24.5q66 0 53 229l80 4q4 -75 0 -132t-18 -105.5t-39.5 -79.5t-66.5 -48.5t-97 -17.5q-191 0 -225 168q-97 -166 -293 -166q-134 0 -205.5 63t-71.5 181q0 293 561 326v73q0 137 -43 196.5t-170 59.5q-56 0 -110 -14q49 -10 75.5 -43.5
t26.5 -83.5q0 -63 -40.5 -99t-110.5 -36q-69 0 -109.5 37.5t-40.5 107.5q0 76 59 131.5t149 82t196 26.5q113 0 191.5 -26.5t122.5 -80t62.5 -122.5t18.5 -164zM459 121q117 0 153 131v227q-264 -26 -264 -223q0 -135 111 -135zM754 1346l45 12q33 -99 11 -164.5t-74 -97
t-122 -31.5q-67 0 -111 29.5t-81 87.5q-37 55 -58.5 74.5t-56.5 19.5q-43 0 -59 -40.5t4 -137.5l-47 -13q-46 141 12.5 217t171.5 76q60 0 104.5 -26t86.5 -88q37 -54 60 -75.5t56 -21.5q44 0 60.5 42t-2.5 137z" />
    <glyph glyph-name="adieresis" unicode="&#xe4;" horiz-adv-x="1107" 
d="M889 586v-350q0 -68 11 -92.5t34 -24.5q66 0 53 229l80 4q4 -75 0 -132t-18 -105.5t-39.5 -79.5t-66.5 -48.5t-97 -17.5q-191 0 -225 168q-97 -166 -293 -166q-134 0 -205.5 63t-71.5 181q0 293 561 326v73q0 137 -43 196.5t-170 59.5q-56 0 -110 -14q49 -10 75.5 -43.5
t26.5 -83.5q0 -63 -40.5 -99t-110.5 -36q-69 0 -109.5 37.5t-40.5 107.5q0 76 59 131.5t149 82t196 26.5q113 0 191.5 -26.5t122.5 -80t62.5 -122.5t18.5 -164zM459 121q117 0 153 131v227q-264 -26 -264 -223q0 -135 111 -135zM459 1202q0 -51 -32.5 -83t-84.5 -32
q-51 0 -84 32t-33 83t33 83t84 32q52 0 84.5 -32t32.5 -83zM809 1202q0 -51 -32.5 -83t-84.5 -32q-51 0 -84 32t-33 83t33 83t84 32q52 0 84.5 -32t32.5 -83z" />
    <glyph glyph-name="aring" unicode="&#xe5;" horiz-adv-x="1107" 
d="M889 586v-350q0 -68 11 -92.5t34 -24.5q66 0 53 229l80 4q4 -75 0 -132t-18 -105.5t-39.5 -79.5t-66.5 -48.5t-97 -17.5q-191 0 -225 168q-97 -166 -293 -166q-134 0 -205.5 63t-71.5 181q0 293 561 326v73q0 137 -43 196.5t-170 59.5q-56 0 -110 -14q49 -10 75.5 -43.5
t26.5 -83.5q0 -63 -40.5 -99t-110.5 -36q-69 0 -109.5 37.5t-40.5 107.5q0 76 59 131.5t149 82t196 26.5q113 0 191.5 -26.5t122.5 -80t62.5 -122.5t18.5 -164zM459 121q117 0 153 131v227q-264 -26 -264 -223q0 -135 111 -135zM600 1253q0 48 -26 74.5t-70 26.5
q-45 0 -70.5 -26t-25.5 -75q0 -50 25.5 -78t70.5 -28q44 0 70 28t26 78zM680 1253q0 -82 -48 -131t-128 -49t-129 49.5t-49 130.5q0 80 47.5 128.5t128.5 48.5q80 0 129 -49t49 -128z" />
    <glyph glyph-name="ae" unicode="&#xe6;" horiz-adv-x="1579" 
d="M1497 281q-27 -148 -134 -232t-290 -84q-305 0 -411 199q-39 -92 -121.5 -142.5t-202.5 -50.5q-141 0 -214 63.5t-73 186.5q0 285 559 320v82q0 245 -180 245q-78 0 -139 -18q98 -18 98 -121q0 -63 -40.5 -99t-106.5 -36q-68 0 -109 38.5t-41 106.5q0 78 59 133.5t148 81
t195 25.5q189 0 292 -96q107 96 291 96q118 0 205.5 -41t138.5 -115.5t72.5 -173.5t13.5 -219h-600q3 -176 48 -246.5t153 -70.5q100 0 150.5 47t70.5 139q10 0 83 -9t85 -9zM1065 846q-53 0 -86 -30.5t-51.5 -105.5t-20.5 -202h254q26 0 34.5 10.5t8.5 42.5q0 285 -139 285
zM616 303q-6 47 -6 94v82q-262 -26 -262 -223q0 -69 27 -99t80 -30q138 0 161 176z" />
    <glyph glyph-name="ccedilla" unicode="&#xe7;" horiz-adv-x="1011" 
d="M408 -231l-25 43q59 33 90.5 68t44.5 85q-221 4 -335.5 132t-114.5 366q0 240 130 378t359 138q166 0 269.5 -67.5t103.5 -180.5q0 -72 -42.5 -112.5t-117.5 -40.5q-73 0 -114.5 37t-41.5 100q0 92 80 125q-60 24 -123 24q-112 0 -160.5 -86.5t-48.5 -296.5
q0 -209 45 -288.5t154 -79.5q105 0 152.5 46t68.5 140q10 0 85 -9t87 -9q-24 -138 -117.5 -220t-254.5 -94q-6 -65 -64 -123q93 11 162.5 -30t69.5 -129q0 -91 -65 -143t-179 -52q-81 0 -136.5 36t-80.5 87l45 37q58 -74 137 -74q57 0 87 29.5t30 81.5q0 62 -55 86t-125 -4z
" />
    <glyph glyph-name="egrave" unicode="&#xe8;" horiz-adv-x="1046" 
d="M795 295q11 0 85 -9.5t85 -9.5q-27 -149 -133.5 -232t-290.5 -83q-226 0 -349.5 129t-123.5 373q0 245 130 380.5t345 135.5q118 0 205.5 -40t138.5 -114t72.5 -173t13.5 -222h-615q4 -174 56 -247.5t161 -73.5q101 0 151.5 47t68.5 139zM532 846q-85 0 -128 -77
t-46 -261h273q27 0 37 10.5t10 48.5q0 143 -35.5 211t-110.5 68zM674 1085l-17 -22q-82 29 -176.5 76t-154.5 88q-52 35 -50.5 81t43.5 59.5t99 -15.5q97 -66 256 -267z" />
    <glyph glyph-name="eacute" unicode="&#xe9;" horiz-adv-x="1046" 
d="M465 1063l-16 22q151 195 256 267q53 33 98.5 15t44 -59t-50.5 -81q-62 -41 -156.5 -88t-175.5 -76zM795 295q11 0 85 -9.5t85 -9.5q-27 -149 -133.5 -232t-290.5 -83q-226 0 -349.5 129t-123.5 373q0 245 130 380.5t345 135.5q118 0 205.5 -40t138.5 -114t72.5 -173
t13.5 -222h-615q4 -174 56 -247.5t161 -73.5q101 0 151.5 47t68.5 139zM532 846q-85 0 -128 -77t-46 -261h273q27 0 37 10.5t10 48.5q0 143 -35.5 211t-110.5 68z" />
    <glyph glyph-name="ecircumflex" unicode="&#xea;" horiz-adv-x="1046" 
d="M850 1081l-16 -22q-61 25 -148 80t-139 102q-52 -45 -139.5 -101t-143.5 -79l-16 20q33 74 103.5 156t137.5 139h121q62 -50 132.5 -133t107.5 -162zM795 295q11 0 85 -9.5t85 -9.5q-27 -149 -133.5 -232t-290.5 -83q-226 0 -349.5 129t-123.5 373q0 245 130 380.5
t345 135.5q118 0 205.5 -40t138.5 -114t72.5 -173t13.5 -222h-615q4 -174 56 -247.5t161 -73.5q101 0 151.5 47t68.5 139zM532 846q-85 0 -128 -77t-46 -261h273q27 0 37 10.5t10 48.5q0 143 -35.5 211t-110.5 68z" />
    <glyph glyph-name="edieresis" unicode="&#xeb;" horiz-adv-x="1046" 
d="M471 1202q0 -51 -32.5 -83t-84.5 -32q-51 0 -83.5 32t-32.5 83t32.5 83t83.5 32q52 0 84.5 -32t32.5 -83zM821 1202q0 -51 -32 -83t-84 -32q-51 0 -84 32t-33 83t33 83t84 32q52 0 84 -32t32 -83zM795 295q11 0 85 -9.5t85 -9.5q-27 -149 -133.5 -232t-290.5 -83
q-226 0 -349.5 129t-123.5 373q0 245 130 380.5t345 135.5q118 0 205.5 -40t138.5 -114t72.5 -173t13.5 -222h-615q4 -174 56 -247.5t161 -73.5q101 0 151.5 47t68.5 139zM532 846q-85 0 -128 -77t-46 -261h273q27 0 37 10.5t10 48.5q0 143 -35.5 211t-110.5 68z" />
    <glyph glyph-name="igrave" unicode="&#xec;" horiz-adv-x="647" 
d="M463 956q-2 -33 -2.5 -332t2.5 -376q3 -71 26.5 -94t85.5 -23h37v-135q-12 0 -124.5 3t-159.5 3q-50 0 -169.5 -3t-121.5 -3v135h39q64 2 84.5 23t23.5 92q3 70 3 236.5t-3 226.5q-3 64 -24 87t-90 23h-33v131q291 0 426 6zM418 1085l-17 -22q-82 29 -176.5 76t-154.5 88
q-52 35 -50.5 81t43.5 59.5t99 -15.5q97 -66 256 -267z" />
    <glyph glyph-name="iacute" unicode="&#xed;" horiz-adv-x="647" 
d="M238 1063l-17 22q151 195 256 267q53 33 98.5 15t44 -59t-50.5 -81q-62 -42 -156 -88.5t-175 -75.5zM463 956q-2 -33 -2.5 -332t2.5 -376q3 -71 26.5 -94t85.5 -23h37v-135q-12 0 -124.5 3t-159.5 3q-50 0 -169.5 -3t-121.5 -3v135h39q64 2 84.5 23t23.5 92q3 70 3 236.5
t-3 226.5q-3 64 -24 87t-90 23h-33v131q291 0 426 6z" />
    <glyph glyph-name="icircumflex" unicode="&#xee;" horiz-adv-x="647" 
d="M588 1081l-17 -22q-60 25 -147 80t-139 102q-52 -45 -139.5 -101t-143.5 -79l-16 20q33 74 103.5 156t137.5 139h121q62 -50 132.5 -133t107.5 -162zM463 956q-2 -33 -2.5 -332t2.5 -376q3 -71 26.5 -94t85.5 -23h37v-135q-12 0 -124.5 3t-159.5 3q-50 0 -169.5 -3
t-121.5 -3v135h39q64 2 84.5 23t23.5 92q3 70 3 236.5t-3 226.5q-3 64 -24 87t-90 23h-33v131q291 0 426 6z" />
    <glyph glyph-name="idieresis" unicode="&#xef;" horiz-adv-x="647" 
d="M227 1202q0 -51 -32 -83t-84 -32q-51 0 -84 32t-33 83t33 83t84 32q52 0 84 -32t32 -83zM578 1202q0 -51 -32.5 -83t-84.5 -32q-51 0 -84 32t-33 83t33 83t84 32q52 0 84.5 -32t32.5 -83zM463 956q-2 -33 -2.5 -332t2.5 -376q3 -71 26.5 -94t85.5 -23h37v-135
q-12 0 -124.5 3t-159.5 3q-50 0 -169.5 -3t-121.5 -3v135h39q64 2 84.5 23t23.5 92q3 70 3 236.5t-3 226.5q-3 64 -24 87t-90 23h-33v131q291 0 426 6z" />
    <glyph glyph-name="eth" unicode="&#xf0;" horiz-adv-x="1095" 
d="M408 1069l-48 70l160 102q-84 62 -213 80l19 92q182 -12 315 -86q106 79 168 129l47 -70q-36 -24 -156 -96q161 -114 243.5 -312t82.5 -431q0 -151 -36 -265.5t-102 -183.5t-152.5 -103t-192.5 -34q-221 0 -348 128t-127 374q0 258 132 387t353 129q59 0 125 -27
q-31 160 -111 246zM360 463q0 -116 14 -192.5t41.5 -114.5t59.5 -52t78 -14q34 0 59.5 9t48.5 33.5t38 65.5t23.5 107.5t8.5 157.5q0 116 -12 194t-37 120t-56 58.5t-75 16.5t-76.5 -17t-59.5 -58t-41 -120t-14 -194z" />
    <glyph glyph-name="ntilde" unicode="&#xf1;" horiz-adv-x="1282" 
d="M1098 598q-3 -201 0 -336q3 -75 26 -103t88 -28h27q-1 -23 -1 -75t1 -62q-3 0 -112.5 3t-168.5 3q-44 0 -110.5 -1.5t-115.5 -3t-52 -1.5v137h33q55 0 79 29t27 100q6 144 0 320q-5 123 -41 185t-121 62q-105 0 -149.5 -93t-44.5 -290v-182q0 -73 24.5 -102t83.5 -29h35
v-137q-3 0 -113 3t-169 3q-45 0 -113 -1.5t-119.5 -3t-54.5 -1.5v137h39q62 1 83.5 28t24.5 101q3 79 3 227.5t-3 206.5q-3 67 -24.5 96t-89.5 29h-31v131q344 0 424 6v-204q74 227 315 227q327 0 320 -381zM872 1346l46 12q33 -99 11 -164.5t-74 -97t-122 -31.5
q-67 0 -111 29.5t-81 87.5q-37 55 -58.5 74.5t-56.5 19.5q-43 0 -59 -40.5t4 -137.5l-47 -13q-46 141 12.5 217t171.5 76q59 0 103.5 -26t86.5 -88q36 -53 60 -75t57 -22q44 0 60 42t-3 137z" />
    <glyph glyph-name="ograve" unicode="&#xf2;" horiz-adv-x="1103" 
d="M72 463q0 257 128.5 386.5t352.5 129.5q226 0 353.5 -129t127.5 -387q0 -246 -129 -374t-352 -128q-226 0 -353.5 128t-127.5 374zM371 463q0 -94 8.5 -161t23 -108t38.5 -64.5t50 -31.5t62 -8q44 0 74 14t56 52t39 114.5t13 192.5t-13 194t-38.5 120t-57 58.5
t-75.5 16.5t-75 -16.5t-56 -58.5t-37 -120t-12 -194zM682 1085l-16 -22q-83 30 -178 76.5t-154 87.5q-52 35 -50.5 81t43.5 59.5t99 -15.5q97 -66 256 -267z" />
    <glyph glyph-name="oacute" unicode="&#xf3;" horiz-adv-x="1103" 
d="M481 1063l-16 22q151 195 256 267q53 33 98.5 15t44 -59t-50.5 -81q-62 -41 -156.5 -88t-175.5 -76zM72 463q0 257 128.5 386.5t352.5 129.5q226 0 353.5 -129t127.5 -387q0 -246 -129 -374t-352 -128q-226 0 -353.5 128t-127.5 374zM371 463q0 -94 8.5 -161t23 -108
t38.5 -64.5t50 -31.5t62 -8q44 0 74 14t56 52t39 114.5t13 192.5t-13 194t-38.5 120t-57 58.5t-75.5 16.5t-75 -16.5t-56 -58.5t-37 -120t-12 -194z" />
    <glyph glyph-name="ocircumflex" unicode="&#xf4;" horiz-adv-x="1103" 
d="M858 1081l-16 -22q-61 25 -148 80t-139 102q-52 -45 -139.5 -101t-143.5 -79l-16 20q33 74 103.5 155.5t138.5 139.5h120q62 -50 132.5 -133t107.5 -162zM72 463q0 257 128.5 386.5t352.5 129.5q226 0 353.5 -129t127.5 -387q0 -246 -129 -374t-352 -128
q-226 0 -353.5 128t-127.5 374zM371 463q0 -94 8.5 -161t23 -108t38.5 -64.5t50 -31.5t62 -8q44 0 74 14t56 52t39 114.5t13 192.5t-13 194t-38.5 120t-57 58.5t-75.5 16.5t-75 -16.5t-56 -58.5t-37 -120t-12 -194z" />
    <glyph glyph-name="otilde" unicode="&#xf5;" horiz-adv-x="1103" 
d="M72 463q0 257 128.5 386.5t352.5 129.5q226 0 353.5 -129t127.5 -387q0 -246 -129 -374t-352 -128q-226 0 -353.5 128t-127.5 374zM371 463q0 -94 8.5 -161t23 -108t38.5 -64.5t50 -31.5t62 -8q44 0 74 14t56 52t39 114.5t13 192.5t-13 194t-38.5 120t-57 58.5
t-75.5 16.5t-75 -16.5t-56 -58.5t-37 -120t-12 -194zM797 1346l45 12q33 -99 11 -164.5t-74 -97t-122 -31.5q-67 0 -111 29.5t-81 87.5q-37 55 -58.5 74.5t-56.5 19.5q-43 0 -59 -40.5t4 -137.5l-47 -13q-46 141 12.5 217t171.5 76q60 0 104.5 -26t86.5 -88q37 -54 60 -75.5
t56 -21.5q44 0 60.5 42t-2.5 137z" />
    <glyph glyph-name="odieresis" unicode="&#xf6;" horiz-adv-x="1103" 
d="M500 1202q0 -51 -32.5 -83t-84.5 -32q-51 0 -84 32t-33 83t33 83t84 32q52 0 84.5 -32t32.5 -83zM850 1202q0 -51 -32.5 -83t-84.5 -32q-51 0 -84 32t-33 83t33 83t84 32q52 0 84.5 -32t32.5 -83zM72 463q0 257 128.5 386.5t352.5 129.5q226 0 353.5 -129t127.5 -387
q0 -246 -129 -374t-352 -128q-226 0 -353.5 128t-127.5 374zM371 463q0 -94 8.5 -161t23 -108t38.5 -64.5t50 -31.5t62 -8q44 0 74 14t56 52t39 114.5t13 192.5t-13 194t-38.5 120t-57 58.5t-75.5 16.5t-75 -16.5t-56 -58.5t-37 -120t-12 -194z" />
    <glyph glyph-name="divide" unicode="&#xf7;" 
d="M741 233q0 -55 -34 -86.5t-93 -31.5q-58 0 -93.5 31t-35.5 90q0 52 37 86t92 34q59 0 93 -34.5t34 -88.5zM188 440v146q89 0 223.5 -9t202.5 -24q70 15 204.5 24t221.5 9v-146q-310 7 -426 33q-119 -26 -426 -33zM741 788q0 -55 -34 -86.5t-93 -31.5q-58 0 -93.5 31
t-35.5 90q0 53 37 87.5t92 34.5q58 0 92.5 -35.5t34.5 -89.5z" />
    <glyph glyph-name="oslash" unicode="&#xf8;" horiz-adv-x="1103" 
d="M72 463q0 257 128.5 386.5t352.5 129.5q178 0 297 -82l125 137l33 -26l-103 -156q129 -135 129 -389q0 -246 -129 -374t-352 -128q-176 0 -295 78l-2 -2l-121 -125l-35 29l101 145q-129 129 -129 377zM735 463q0 94 -10 172l-154 -178l-178 -236q22 -76 60 -103.5
t100 -27.5q44 0 74 14t56 52t39 114.5t13 192.5zM371 463q0 -106 8 -166l162 192l168 226q-22 75 -61.5 106t-96.5 31q-44 0 -75 -16.5t-56 -58.5t-37 -120t-12 -194z" />
    <glyph glyph-name="ugrave" unicode="&#xf9;" horiz-adv-x="1265" 
d="M1096 956q-2 -31 -9 -297q0 -283 3 -403q3 -126 104 -123h37v-133q-340 0 -420 -6v192q-74 -225 -313 -225q-69 0 -125.5 20.5t-102.5 64t-70.5 120.5t-23.5 182q6 245 0 342q-2 70 -24 99.5t-82 29.5h-35v133q184 -2 209 -2q124 0 217 6q-6 -111 -6 -301v-286
q0 -78 16 -132t43 -78.5t51 -34t51 -9.5q104 0 149.5 98t45.5 313v172q0 67 -31.5 94t-113.5 27h-25v133q219 -2 244 -2q161 0 211 6zM690 1085l-16 -22q-83 30 -178 76.5t-154 87.5q-52 35 -50.5 81t43.5 59.5t99 -15.5q97 -66 256 -267z" />
    <glyph glyph-name="uacute" unicode="&#xfa;" horiz-adv-x="1265" 
d="M573 1063l-16 22q151 195 256 267q53 33 98.5 15t44 -59t-50.5 -81q-62 -41 -156.5 -88t-175.5 -76zM1096 956q-2 -31 -9 -297q0 -283 3 -403q3 -126 104 -123h37v-133q-340 0 -420 -6v192q-74 -225 -313 -225q-69 0 -125.5 20.5t-102.5 64t-70.5 120.5t-23.5 182
q6 245 0 342q-2 70 -24 99.5t-82 29.5h-35v133q184 -2 209 -2q124 0 217 6q-6 -111 -6 -301v-286q0 -78 16 -132t43 -78.5t51 -34t51 -9.5q104 0 149.5 98t45.5 313v172q0 67 -31.5 94t-113.5 27h-25v133q219 -2 244 -2q161 0 211 6z" />
    <glyph glyph-name="ucircumflex" unicode="&#xfb;" horiz-adv-x="1265" 
d="M893 1081l-16 -22q-61 25 -148 80t-139 102q-52 -45 -139.5 -101t-143.5 -79l-16 20q33 74 103.5 156t137.5 139h121q62 -50 132.5 -133t107.5 -162zM1096 956q-2 -31 -9 -297q0 -283 3 -403q3 -126 104 -123h37v-133q-340 0 -420 -6v192q-74 -225 -313 -225
q-69 0 -125.5 20.5t-102.5 64t-70.5 120.5t-23.5 182q6 245 0 342q-2 70 -24 99.5t-82 29.5h-35v133q184 -2 209 -2q124 0 217 6q-6 -111 -6 -301v-286q0 -78 16 -132t43 -78.5t51 -34t51 -9.5q104 0 149.5 98t45.5 313v172q0 67 -31.5 94t-113.5 27h-25v133q219 -2 244 -2
q161 0 211 6z" />
    <glyph glyph-name="udieresis" unicode="&#xfc;" horiz-adv-x="1265" 
d="M532 1202q0 -51 -32 -83t-84 -32q-51 0 -84 32t-33 83t33 83t84 32q52 0 84 -32t32 -83zM883 1202q0 -51 -32.5 -83t-84.5 -32q-51 0 -84 32t-33 83t33 83t84 32q52 0 84.5 -32t32.5 -83zM1096 956q-2 -31 -9 -297q0 -283 3 -403q3 -126 104 -123h37v-133q-340 0 -420 -6
v192q-74 -225 -313 -225q-69 0 -125.5 20.5t-102.5 64t-70.5 120.5t-23.5 182q6 245 0 342q-2 70 -24 99.5t-82 29.5h-35v133q184 -2 209 -2q124 0 217 6q-6 -111 -6 -301v-286q0 -78 16 -132t43 -78.5t51 -34t51 -9.5q104 0 149.5 98t45.5 313v172q0 67 -31.5 94t-113.5 27
h-25v133q219 -2 244 -2q161 0 211 6z" />
    <glyph glyph-name="yacute" unicode="&#xfd;" horiz-adv-x="1183" 
d="M801 709q14 51 -4 80.5t-66 29.5h-39v133q129 -6 238 -6l219 6q-1 -10 -1 -67t1 -66h-41q-71 0 -107 -26t-63 -86q-118 -279 -264 -703q-72 -208 -167.5 -301.5t-250.5 -93.5q-112 0 -169.5 51.5t-57.5 134.5q0 79 45.5 121.5t111.5 42.5q144 0 144 -131q0 -58 -44.5 -98
t-115.5 -37q38 -15 82 -15q113 0 189 86.5t141 298.5q-114 4 -150 0q-71 226 -239 644q-25 61 -56.5 86.5t-87.5 25.5h-29v133q158 -6 291 -6l295 6v-133h-37q-102 0 -71 -110q45 -152 155 -439q131 374 148 439zM645 1063l-16 22q151 195 256 267q53 33 98.5 15t44 -59
t-50.5 -81q-62 -41 -156.5 -88t-175.5 -76z" />
    <glyph glyph-name="thorn" unicode="&#xfe;" horiz-adv-x="1204" 
d="M760 -35q-226 0 -297 205v-268q0 -131 121 -131h37q-1 -9 -1 -65.5t1 -65.5q-9 0 -120.5 3t-172.5 3q-46 0 -114 -1.5t-119.5 -3t-57.5 -1.5v131h37q57 0 82 32t28 99q4 78 4 624.5t-4 628.5q-3 70 -28 98.5t-88 28.5h-29v131q344 0 424 6v-669q74 229 311 229
q179 0 263.5 -122.5t84.5 -387.5q0 -504 -362 -504zM463 473q0 -83 8 -143t28 -109.5t58.5 -74.5t95.5 -25q66 0 101.5 28t54 104.5t18.5 219.5q0 58 -2 97.5t-7.5 83.5t-17 72.5t-30 53t-47 36t-66.5 11.5q-194 0 -194 -354z" />
    <glyph glyph-name="ydieresis" unicode="&#xff;" horiz-adv-x="1183" 
d="M801 709q14 51 -4 80.5t-66 29.5h-39v133q129 -6 238 -6l219 6q-1 -10 -1 -67t1 -66h-41q-71 0 -107 -26t-63 -86q-118 -279 -264 -703q-72 -208 -167.5 -301.5t-250.5 -93.5q-112 0 -169.5 51.5t-57.5 134.5q0 79 45.5 121.5t111.5 42.5q144 0 144 -131q0 -58 -44.5 -98
t-115.5 -37q38 -15 82 -15q113 0 189 86.5t141 298.5q-114 4 -150 0q-71 226 -239 644q-25 61 -56.5 86.5t-87.5 25.5h-29v133q158 -6 291 -6l295 6v-133h-37q-102 0 -71 -110q45 -152 155 -439q131 374 148 439zM596 1202q0 -51 -32.5 -83t-84.5 -32q-51 0 -84 32t-33 83
t33 83t84 32q52 0 84.5 -32t32.5 -83zM946 1202q0 -51 -32.5 -83t-84.5 -32q-51 0 -83.5 32t-32.5 83t32.5 83t83.5 32q52 0 84.5 -32t32.5 -83z" />
    <glyph glyph-name="Amacron" unicode="&#x100;" horiz-adv-x="1808" 
d="M1118 354l-28 82q-223 6 -533 2q-6 -17 -12 -34.5t-10.5 -33t-6.5 -20.5q-32 -92 -9.5 -142t110.5 -50h82q0 -8 -1 -81t-1 -81q-205 4 -322 4l-321 -4q2 12 2 81t-2 81h65q86 0 131.5 38.5t83.5 137.5q68 168 406 1091q98 -6 153 -6l152 6q58 -166 215 -566.5t211 -526.5
q43 -98 83 -136t101 -38h76v-162q-254 4 -395 4l-398 -4v162h86q151 0 82 196zM1049 551q-101 281 -230 612q-60 -161 -221 -612q231 -3 451 0zM641 1559q4 73 0 149q94 -3 272.5 -3t272.5 3q-3 -75 0 -149q-94 3 -272.5 3t-272.5 -3z" />
    <glyph glyph-name="amacron" unicode="&#x101;" horiz-adv-x="1107" 
d="M889 586v-350q0 -68 11 -92.5t34 -24.5q66 0 53 229l80 4q4 -75 0 -132t-18 -105.5t-39.5 -79.5t-66.5 -48.5t-97 -17.5q-191 0 -225 168q-97 -166 -293 -166q-134 0 -205.5 63t-71.5 181q0 293 561 326v73q0 137 -43 196.5t-170 59.5q-56 0 -110 -14q49 -10 75.5 -43.5
t26.5 -83.5q0 -63 -40.5 -99t-110.5 -36q-69 0 -109.5 37.5t-40.5 107.5q0 76 59 131.5t149 82t196 26.5q113 0 191.5 -26.5t122.5 -80t62.5 -122.5t18.5 -164zM459 121q117 0 153 131v227q-264 -26 -264 -223q0 -135 111 -135zM221 1102q4 73 0 149q94 -3 272.5 -3t272.5 3
q-3 -75 0 -149q-94 3 -272.5 3t-272.5 -3z" />
    <glyph glyph-name="Abreve" unicode="&#x102;" horiz-adv-x="1808" 
d="M1118 354l-28 82q-223 6 -533 2q-6 -17 -12 -34.5t-10.5 -33t-6.5 -20.5q-32 -92 -9.5 -142t110.5 -50h82q0 -8 -1 -81t-1 -81q-205 4 -322 4l-321 -4q2 12 2 81t-2 81h65q86 0 131.5 38.5t83.5 137.5q68 168 406 1091q98 -6 153 -6l152 6q58 -166 215 -566.5t211 -526.5
q43 -98 83 -136t101 -38h76v-162q-254 4 -395 4l-398 -4v162h86q151 0 82 196zM1049 551q-101 281 -230 612q-60 -161 -221 -612q231 -3 451 0zM905 1532q-148 0 -223 85t-57 212l39 4q6 -82 66.5 -112.5t174.5 -30.5q115 0 175.5 30.5t66.5 112.5l39 -4q18 -128 -57 -212.5
t-224 -84.5z" />
    <glyph glyph-name="abreve" unicode="&#x103;" horiz-adv-x="1107" 
d="M889 586v-350q0 -68 11 -92.5t34 -24.5q66 0 53 229l80 4q4 -75 0 -132t-18 -105.5t-39.5 -79.5t-66.5 -48.5t-97 -17.5q-191 0 -225 168q-97 -166 -293 -166q-134 0 -205.5 63t-71.5 181q0 293 561 326v73q0 137 -43 196.5t-170 59.5q-56 0 -110 -14q49 -10 75.5 -43.5
t26.5 -83.5q0 -63 -40.5 -99t-110.5 -36q-69 0 -109.5 37.5t-40.5 107.5q0 76 59 131.5t149 82t196 26.5q113 0 191.5 -26.5t122.5 -80t62.5 -122.5t18.5 -164zM459 121q117 0 153 131v227q-264 -26 -264 -223q0 -135 111 -135zM504 1081q-148 0 -223.5 85t-57.5 212l39 4
q6 -82 67 -112.5t175 -30.5q115 0 175 30.5t66 112.5l39 -4q18 -128 -56.5 -212.5t-223.5 -84.5z" />
    <glyph glyph-name="Aogonek" unicode="&#x104;" horiz-adv-x="1808" 
d="M1624 -158q-3 -264 -244 -264q-100 0 -160 50.5t-59 138.5q5 152 174 233l-385 -4v162h86q151 0 82 196l-28 82q-223 6 -533 2q-6 -17 -12 -34.5t-10.5 -33t-6.5 -20.5q-32 -92 -9.5 -142t110.5 -50h82q0 -8 -1 -81t-1 -81q-205 4 -322 4l-321 -4q2 12 2 81t-2 81h65
q86 0 131.5 38.5t83.5 137.5q68 168 406 1091q98 -6 153 -6l152 6q58 -166 215 -566.5t211 -526.5q43 -98 83 -136t101 -38h76v-162q-170 4 -309 4q-119 -60 -119 -172q0 -56 33 -84.5t84 -28.5q56 0 91 35.5t44 102.5zM1049 551q-101 281 -230 612q-60 -161 -221 -612
q231 -3 451 0z" />
    <glyph glyph-name="aogonek" unicode="&#x105;" horiz-adv-x="1107" 
d="M1212 -158q-10 -264 -258 -264q-95 0 -152.5 51t-53.5 140q6 127 137 202q-10 -2 -39 -2q-191 0 -225 168q-97 -166 -293 -166q-134 0 -205.5 63t-71.5 181q0 293 561 326v73q0 137 -43 196.5t-170 59.5q-56 0 -110 -14q49 -10 75.5 -43.5t26.5 -83.5q0 -63 -40.5 -99
t-110.5 -36q-69 0 -109.5 37.5t-40.5 107.5q0 76 59 131.5t149 82t196 26.5q113 0 191.5 -26.5t122.5 -80t62.5 -122.5t18.5 -164v-350q0 -68 11 -92.5t34 -24.5q66 0 53 229l80 4q6 -124 -9 -198t-61 -136q-7 -9 -23.5 -31.5l-22 -30t-17.5 -25t-15.5 -27t-9.5 -24t-8 -28
t-2 -28.5q0 -53 31.5 -81t79.5 -28q112 0 143 138zM459 121q117 0 153 131v227q-264 -26 -264 -223q0 -135 111 -135z" />
    <glyph glyph-name="Cacute" unicode="&#x106;" horiz-adv-x="1499" 
d="M758 1524l-17 22q149 193 256 266q53 33 99 15.5t44.5 -59t-50.5 -80.5q-62 -41 -156.5 -88t-175.5 -76zM1130 1366q74 -41 100.5 -28t35.5 92q11 -2 74.5 -2t72.5 2q-14 -88 -25.5 -253.5t-7.5 -273.5q-98 8 -196 0q-10 71 -23.5 124.5t-40 105.5t-64.5 85t-97.5 53.5
t-137.5 20.5q-194 0 -280 -134.5t-86 -448.5q0 -141 18 -245.5t48.5 -169.5t76.5 -104.5t96.5 -54t114.5 -14.5q183 0 283 113.5t108 316.5q35 -3 104.5 -3t106.5 3q-7 -153 -43.5 -261t-110.5 -183t-189.5 -110.5t-279.5 -35.5q-131 0 -237 25t-193 81.5t-145.5 142.5
t-90.5 212t-32 287q0 190 52 335t146 233.5t217 132.5t273 44q200 0 352 -88z" />
    <glyph glyph-name="cacute" unicode="&#x107;" horiz-adv-x="1011" 
d="M522 1063l-16 22q151 195 256 267q53 33 98.5 15t44 -59t-50.5 -81q-62 -41 -156.5 -88t-175.5 -76zM782 299q10 0 85 -9t87 -9q-25 -149 -131.5 -232.5t-287.5 -83.5q-228 0 -347.5 128t-119.5 370q0 240 130 378t359 138q166 0 269.5 -67.5t103.5 -180.5
q0 -72 -42.5 -112.5t-117.5 -40.5q-73 0 -114.5 37t-41.5 100q0 92 80 125q-60 24 -123 24q-112 0 -160.5 -86.5t-48.5 -296.5q0 -209 45 -288.5t154 -79.5q105 0 152.5 46t68.5 140z" />
    <glyph glyph-name="Ccircumflex" unicode="&#x108;" horiz-adv-x="1499" 
d="M1083 1528l-16 -23q-60 25 -147.5 80.5t-139.5 102.5q-53 -46 -140 -102t-142 -79l-17 21q33 74 103.5 155.5t138.5 139.5h121q62 -50 132 -133t107 -162zM1130 1366q74 -41 100.5 -28t35.5 92q11 -2 74.5 -2t72.5 2q-14 -88 -25.5 -253.5t-7.5 -273.5q-98 8 -196 0
q-10 71 -23.5 124.5t-40 105.5t-64.5 85t-97.5 53.5t-137.5 20.5q-194 0 -280 -134.5t-86 -448.5q0 -141 18 -245.5t48.5 -169.5t76.5 -104.5t96.5 -54t114.5 -14.5q183 0 283 113.5t108 316.5q35 -3 104.5 -3t106.5 3q-7 -153 -43.5 -261t-110.5 -183t-189.5 -110.5
t-279.5 -35.5q-131 0 -237 25t-193 81.5t-145.5 142.5t-90.5 212t-32 287q0 190 52 335t146 233.5t217 132.5t273 44q200 0 352 -88z" />
    <glyph glyph-name="ccircumflex" unicode="&#x109;" horiz-adv-x="1011" 
d="M862 1081l-16 -22q-61 25 -148 80t-139 102q-52 -45 -139.5 -101t-143.5 -79l-16 20q33 74 103.5 155.5t138.5 139.5h121q62 -50 132 -133t107 -162zM782 299q10 0 85 -9t87 -9q-25 -149 -131.5 -232.5t-287.5 -83.5q-228 0 -347.5 128t-119.5 370q0 240 130 378t359 138
q166 0 269.5 -67.5t103.5 -180.5q0 -72 -42.5 -112.5t-117.5 -40.5q-73 0 -114.5 37t-41.5 100q0 92 80 125q-60 24 -123 24q-112 0 -160.5 -86.5t-48.5 -296.5q0 -209 45 -288.5t154 -79.5q105 0 152.5 46t68.5 140z" />
    <glyph glyph-name="Cdotaccent" unicode="&#x10a;" horiz-adv-x="1499" 
d="M1130 1366q74 -41 100.5 -28t35.5 92q11 -2 74.5 -2t72.5 2q-14 -88 -25.5 -253.5t-7.5 -273.5q-98 8 -196 0q-10 71 -23.5 124.5t-40 105.5t-64.5 85t-97.5 53.5t-137.5 20.5q-194 0 -280 -134.5t-86 -448.5q0 -141 18 -245.5t48.5 -169.5t76.5 -104.5t96.5 -54
t114.5 -14.5q183 0 283 113.5t108 316.5q35 -3 104.5 -3t106.5 3q-7 -153 -43.5 -261t-110.5 -183t-189.5 -110.5t-279.5 -35.5q-131 0 -237 25t-193 81.5t-145.5 142.5t-90.5 212t-32 287q0 190 52 335t146 233.5t217 132.5t273 44q200 0 352 -88zM905 1698
q0 -54 -34.5 -88.5t-88.5 -34.5q-51 0 -84.5 34.5t-33.5 88.5q0 52 33.5 86.5t84.5 34.5q54 0 88.5 -34t34.5 -87z" />
    <glyph glyph-name="cdotaccent" unicode="&#x10b;" horiz-adv-x="1011" 
d="M782 299q10 0 85 -9t87 -9q-25 -149 -131.5 -232.5t-287.5 -83.5q-228 0 -347.5 128t-119.5 370q0 240 130 378t359 138q166 0 269.5 -67.5t103.5 -180.5q0 -72 -42.5 -112.5t-117.5 -40.5q-73 0 -114.5 37t-41.5 100q0 92 80 125q-60 24 -123 24q-112 0 -160.5 -86.5
t-48.5 -296.5q0 -209 45 -288.5t154 -79.5q105 0 152.5 46t68.5 140zM670 1237q0 -54 -34.5 -88.5t-88.5 -34.5q-51 0 -85 34.5t-34 88.5q0 52 34 86.5t85 34.5q54 0 88.5 -34t34.5 -87z" />
    <glyph glyph-name="Ccaron" unicode="&#x10c;" horiz-adv-x="1499" 
d="M481 1837l17 21q60 -24 147 -79t141 -102q51 45 138 101.5t143 79.5l16 -21q-33 -75 -103 -156t-138 -139h-121q-61 49 -131 132.5t-109 162.5zM1130 1366q74 -41 100.5 -28t35.5 92q11 -2 74.5 -2t72.5 2q-14 -88 -25.5 -253.5t-7.5 -273.5q-98 8 -196 0
q-10 71 -23.5 124.5t-40 105.5t-64.5 85t-97.5 53.5t-137.5 20.5q-194 0 -280 -134.5t-86 -448.5q0 -141 18 -245.5t48.5 -169.5t76.5 -104.5t96.5 -54t114.5 -14.5q183 0 283 113.5t108 316.5q35 -3 104.5 -3t106.5 3q-7 -153 -43.5 -261t-110.5 -183t-189.5 -110.5
t-279.5 -35.5q-131 0 -237 25t-193 81.5t-145.5 142.5t-90.5 212t-32 287q0 190 52 335t146 233.5t217 132.5t273 44q200 0 352 -88z" />
    <glyph glyph-name="ccaron" unicode="&#x10d;" horiz-adv-x="1011" 
d="M266 1376l17 21q61 -24 148 -79t140 -101q50 45 137.5 100.5t143.5 79.5l16 -21q-33 -75 -103 -156t-138 -139h-121q-61 49 -131 132.5t-109 162.5zM782 299q10 0 85 -9t87 -9q-25 -149 -131.5 -232.5t-287.5 -83.5q-228 0 -347.5 128t-119.5 370q0 240 130 378t359 138
q166 0 269.5 -67.5t103.5 -180.5q0 -72 -42.5 -112.5t-117.5 -40.5q-73 0 -114.5 37t-41.5 100q0 92 80 125q-60 24 -123 24q-112 0 -160.5 -86.5t-48.5 -296.5q0 -209 45 -288.5t154 -79.5q105 0 152.5 46t68.5 140z" />
    <glyph glyph-name="Dcaron" unicode="&#x10e;" horiz-adv-x="1611" 
d="M457 1837l16 21q61 -24 148.5 -79.5t140.5 -101.5q51 46 137.5 102t142.5 79l17 -21q-33 -75 -103 -155.5t-139 -139.5h-121q-61 49 -130.5 132t-108.5 163zM817 1411q367 0 534.5 -167t172.5 -527q2 -156 -32.5 -278.5t-97 -204.5t-152.5 -135.5t-194 -77t-227 -23.5
q-260 2 -379 2l-376 -4q2 12 2 81t-2 81h92q71 0 96.5 19.5t26.5 78.5q5 103 5 454t-5 437q-3 61 -28 84.5t-81 23.5h-106q2 12 2 79t-2 79q6 0 160 -2t223 -2q49 0 136 0.5t156.5 1t75.5 0.5zM598 246q1 -47 26.5 -71.5t63.5 -24.5h84q90 0 154.5 16t115.5 54t81.5 103.5
t46.5 162.5t16 233q0 208 -40.5 325.5t-128.5 168.5t-243 51h-86q-86 0 -90 -84q-7 -126 -6 -467t6 -467z" />
    <glyph glyph-name="dcaron" unicode="&#x10f;" horiz-adv-x="1464" 
d="M1120 1049q112 26 170 87t58 152q-22 -55 -97 -55q-92 0 -92 106q0 52 34 85.5t89 33.5q62 0 93.5 -41.5t31.5 -109.5q0 -110 -72.5 -189.5t-204.5 -109.5zM449 979q221 0 292 -207v410q0 100 -88 100h-80v131q309 0 447 6q-3 -195 -3 -627.5t3 -562.5q1 -50 23 -73
t65 -23h59v-133l-426 -6v196q-77 -225 -301 -225q-182 0 -270 119.5t-88 390.5q0 259 96 381.5t271 122.5zM547 119q194 0 194 354q0 185 -42.5 269.5t-141.5 84.5q-66 0 -103 -27.5t-57 -104.5t-20 -220q0 -70 3 -117.5t13 -96.5t28 -77.5t49.5 -46.5t76.5 -18z" />
    <glyph glyph-name="Dcroat" unicode="&#x110;" horiz-adv-x="1611" 
d="M817 1411q367 0 534.5 -167t172.5 -527q2 -156 -32.5 -278.5t-97 -204.5t-152.5 -135.5t-194 -77t-227 -23.5q-260 2 -379 2l-376 -4q2 12 2 81t-2 81h92q71 0 96.5 19.5t26.5 78.5q4 122 4 393q-37 0 -90.5 -1t-65.5 -1v152q66 -4 156 -4q0 254 -4 352q-3 61 -28 84.5
t-81 23.5h-106q2 12 2 79t-2 79q6 0 160 -2t223 -2q49 0 136 0.5t156.5 1t75.5 0.5zM598 246q1 -47 26.5 -71.5t63.5 -24.5h84q90 0 154.5 16t115.5 54t81.5 103.5t46.5 162.5t16 233q0 208 -40.5 325.5t-128.5 168.5t-243 51h-86q-86 0 -90 -84q-6 -94 -6 -385q129 0 219 4
v-152q-17 0 -92 1t-127 1q0 -304 6 -403z" />
    <glyph glyph-name="dcroat" unicode="&#x111;" horiz-adv-x="1204" 
d="M449 979q221 0 292 -207v285q-33 0 -84 -1t-67 -1v98q74 -4 151 -4v33q0 100 -88 100h-80v131q309 0 447 6q-4 -126 -4 -270q75 0 149 4v-98q-16 0 -66.5 1t-82.5 1q0 -709 4 -828q1 -50 23 -73t65 -23h59v-133l-426 -6v196q-77 -225 -301 -225q-182 0 -270 119.5
t-88 390.5q0 259 96 381.5t271 122.5zM547 119q194 0 194 354q0 185 -42.5 269.5t-141.5 84.5q-66 0 -103 -27.5t-57 -104.5t-20 -220q0 -70 3 -117.5t13 -96.5t28 -77.5t49.5 -46.5t76.5 -18z" />
    <glyph glyph-name="Emacron" unicode="&#x112;" horiz-adv-x="1501" 
d="M905 987v43h133q-8 -238 -8 -313q0 -185 8 -324h-129v37q-3 124 -54.5 176.5t-180.5 52.5h-80q0 -301 6 -387q5 -114 115 -114h250q170 0 235.5 88t65.5 305q13 -1 83.5 -1t84.5 1q-21 -228 -21 -561q-133 10 -416 10h-561q-49 0 -139 -1t-161 -2l-70 -1q2 12 2 81t-2 81
h92q66 0 92 31.5t31 95.5q6 83 6 424t-6 430q-4 65 -29.5 90.5t-81.5 25.5h-104q2 12 2 79t-2 79q12 0 175 -2t203 -2q12 0 197 1t336 1q352 0 448 12q-16 -204 -12 -524h-153q0 143 -30.5 219.5t-91 104.5t-171.5 28h-258q-103 0 -109 -106q-6 -85 -6 -373h84
q122 0 174.5 48t52.5 167zM539 1559q4 73 0 149q94 -3 272 -3t272 3q-3 -74 0 -149q-94 3 -272 3t-272 -3z" />
    <glyph glyph-name="emacron" unicode="&#x113;" horiz-adv-x="1046" 
d="M795 295q11 0 85 -9.5t85 -9.5q-27 -149 -133.5 -232t-290.5 -83q-226 0 -349.5 129t-123.5 373q0 245 130 380.5t345 135.5q118 0 205.5 -40t138.5 -114t72.5 -173t13.5 -222h-615q4 -174 56 -247.5t161 -73.5q101 0 151.5 47t68.5 139zM532 846q-85 0 -128 -77
t-46 -261h273q27 0 37 10.5t10 48.5q0 143 -35.5 211t-110.5 68zM274 1102q4 73 0 149q94 -3 272.5 -3t272.5 3q-3 -75 0 -149q-94 3 -272.5 3t-272.5 -3z" />
    <glyph glyph-name="Ebreve" unicode="&#x114;" horiz-adv-x="1501" 
d="M905 987v43h133q-8 -238 -8 -313q0 -185 8 -324h-129v37q-3 124 -54.5 176.5t-180.5 52.5h-80q0 -301 6 -387q5 -114 115 -114h250q170 0 235.5 88t65.5 305q13 -1 83.5 -1t84.5 1q-21 -228 -21 -561q-133 10 -416 10h-561q-49 0 -139 -1t-161 -2l-70 -1q2 12 2 81t-2 81
h92q66 0 92 31.5t31 95.5q6 83 6 424t-6 430q-4 65 -29.5 90.5t-81.5 25.5h-104q2 12 2 79t-2 79q12 0 175 -2t203 -2q12 0 197 1t336 1q352 0 448 12q-16 -204 -12 -524h-153q0 143 -30.5 219.5t-91 104.5t-171.5 28h-258q-103 0 -109 -106q-6 -85 -6 -373h84
q122 0 174.5 48t52.5 167zM817 1532q-148 0 -223 85t-57 212l38 4q6 -82 67 -112.5t175 -30.5q115 0 175.5 30.5t66.5 112.5l39 -4q18 -128 -57 -212.5t-224 -84.5z" />
    <glyph glyph-name="ebreve" unicode="&#x115;" horiz-adv-x="1046" 
d="M795 295q11 0 85 -9.5t85 -9.5q-27 -149 -133.5 -232t-290.5 -83q-226 0 -349.5 129t-123.5 373q0 245 130 380.5t345 135.5q118 0 205.5 -40t138.5 -114t72.5 -173t13.5 -222h-615q4 -174 56 -247.5t161 -73.5q101 0 151.5 47t68.5 139zM532 846q-85 0 -128 -77
t-46 -261h273q27 0 37 10.5t10 48.5q0 143 -35.5 211t-110.5 68zM545 1081q-148 0 -223.5 85t-57.5 212l39 4q6 -82 67 -112.5t175 -30.5q115 0 175 30.5t66 112.5l39 -4q18 -128 -56.5 -212.5t-223.5 -84.5z" />
    <glyph glyph-name="Edotaccent" unicode="&#x116;" horiz-adv-x="1501" 
d="M905 987v43h133q-8 -238 -8 -313q0 -185 8 -324h-129v37q-3 124 -54.5 176.5t-180.5 52.5h-80q0 -301 6 -387q5 -114 115 -114h250q170 0 235.5 88t65.5 305q13 -1 83.5 -1t84.5 1q-21 -228 -21 -561q-133 10 -416 10h-561q-49 0 -139 -1t-161 -2l-70 -1q2 12 2 81t-2 81
h92q66 0 92 31.5t31 95.5q6 83 6 424t-6 430q-4 65 -29.5 90.5t-81.5 25.5h-104q2 12 2 79t-2 79q12 0 175 -2t203 -2q12 0 197 1t336 1q352 0 448 12q-16 -204 -12 -524h-153q0 143 -30.5 219.5t-91 104.5t-171.5 28h-258q-103 0 -109 -106q-6 -85 -6 -373h84
q122 0 174.5 48t52.5 167zM918 1698q0 -54 -34.5 -88.5t-88.5 -34.5q-51 0 -85 34.5t-34 88.5q0 52 34 86.5t85 34.5q54 0 88.5 -34t34.5 -87z" />
    <glyph glyph-name="edotaccent" unicode="&#x117;" horiz-adv-x="1046" 
d="M795 295q11 0 85 -9.5t85 -9.5q-27 -149 -133.5 -232t-290.5 -83q-226 0 -349.5 129t-123.5 373q0 245 130 380.5t345 135.5q118 0 205.5 -40t138.5 -114t72.5 -173t13.5 -222h-615q4 -174 56 -247.5t161 -73.5q101 0 151.5 47t68.5 139zM532 846q-85 0 -128 -77
t-46 -261h273q27 0 37 10.5t10 48.5q0 143 -35.5 211t-110.5 68zM666 1237q0 -54 -34.5 -88.5t-88.5 -34.5q-51 0 -85 34.5t-34 88.5q0 52 34 86.5t85 34.5q54 0 88.5 -34t34.5 -87z" />
    <glyph glyph-name="Eogonek" unicode="&#x118;" horiz-adv-x="1501" 
d="M905 987v43h133q-8 -238 -8 -313q0 -185 8 -324h-129v37q-3 124 -54.5 176.5t-180.5 52.5h-80q0 -301 6 -387q5 -114 115 -114h250q170 0 235.5 88t65.5 305q13 -1 83.5 -1t84.5 1q-21 -228 -21 -561q-43 4 -151 8q-113 -63 -113 -170q0 -56 33 -84.5t84 -28.5
q56 0 91 35.5t44 102.5l57 -11q-3 -264 -244 -264q-100 0 -160 50.5t-59 138.5q5 148 172 233h-731q-49 0 -139 -1t-161 -2l-70 -1q2 12 2 81t-2 81h92q66 0 92 31.5t31 95.5q6 83 6 424t-6 430q-4 65 -29.5 90.5t-81.5 25.5h-104q2 12 2 79t-2 79q12 0 175 -2t203 -2
q12 0 197 1t336 1q352 0 448 12q-16 -204 -12 -524h-153q0 143 -30.5 219.5t-91 104.5t-171.5 28h-258q-103 0 -109 -106q-6 -85 -6 -373h84q122 0 174.5 48t52.5 167z" />
    <glyph glyph-name="eogonek" unicode="&#x119;" horiz-adv-x="1046" 
d="M1004 -158q-10 -264 -259 -264q-93 0 -151 51t-55 140q6 125 149 206q-68 -14 -147 -14q-226 0 -349.5 129t-123.5 373q0 245 130 380.5t345 135.5q118 0 205.5 -40t138.5 -114t72.5 -173t13.5 -222h-615q4 -174 56 -247.5t161 -73.5q101 0 151.5 47t68.5 139
q11 0 85 -9.5t85 -9.5q-14 -81 -53 -139.5t-107 -118.5q-61 -53 -88 -96.5t-27 -97.5q0 -52 31.5 -80.5t79.5 -28.5q114 0 145 138zM532 846q-85 0 -128 -77t-46 -261h273q27 0 37 10.5t10 48.5q0 143 -35.5 211t-110.5 68z" />
    <glyph glyph-name="Ecaron" unicode="&#x11a;" horiz-adv-x="1501" 
d="M479 1837l17 21q60 -24 147 -79t141 -102q51 45 138 101.5t143 79.5l16 -21q-33 -75 -103 -156t-138 -139h-121q-61 49 -131 132.5t-109 162.5zM905 987v43h133q-8 -238 -8 -313q0 -185 8 -324h-129v37q-3 124 -54.5 176.5t-180.5 52.5h-80q0 -301 6 -387
q5 -114 115 -114h250q170 0 235.5 88t65.5 305q13 -1 83.5 -1t84.5 1q-21 -228 -21 -561q-133 10 -416 10h-561q-49 0 -139 -1t-161 -2l-70 -1q2 12 2 81t-2 81h92q66 0 92 31.5t31 95.5q6 83 6 424t-6 430q-4 65 -29.5 90.5t-81.5 25.5h-104q2 12 2 79t-2 79q12 0 175 -2
t203 -2q12 0 197 1t336 1q352 0 448 12q-16 -204 -12 -524h-153q0 143 -30.5 219.5t-91 104.5t-171.5 28h-258q-103 0 -109 -106q-6 -85 -6 -373h84q122 0 174.5 48t52.5 167z" />
    <glyph glyph-name="ecaron" unicode="&#x11b;" horiz-adv-x="1046" 
d="M242 1376l16 21q61 -25 148.5 -79.5t140.5 -100.5q51 45 137.5 101t142.5 79l17 -21q-33 -75 -103 -155.5t-139 -139.5h-121q-61 49 -130.5 132t-108.5 163zM795 295q11 0 85 -9.5t85 -9.5q-27 -149 -133.5 -232t-290.5 -83q-226 0 -349.5 129t-123.5 373
q0 245 130 380.5t345 135.5q118 0 205.5 -40t138.5 -114t72.5 -173t13.5 -222h-615q4 -174 56 -247.5t161 -73.5q101 0 151.5 47t68.5 139zM532 846q-85 0 -128 -77t-46 -261h273q27 0 37 10.5t10 48.5q0 143 -35.5 211t-110.5 68z" />
    <glyph glyph-name="Gcircumflex" unicode="&#x11c;" horiz-adv-x="1628" 
d="M1079 1526l-16 -23q-60 25 -147.5 80.5t-139.5 102.5q-53 -46 -140 -102t-142 -79l-17 21q33 74 103.5 155.5t138.5 139.5h121q62 -50 132 -133t107 -162zM778 1454q98 0 180.5 -19t171.5 -69q74 -42 100.5 -28.5t35.5 92.5q11 -2 74.5 -2t72.5 2q-14 -88 -25.5 -253.5
t-7.5 -273.5q-98 8 -196 0q-10 71 -23.5 124.5t-40 105.5t-64.5 85t-97.5 53.5t-137.5 20.5q-194 0 -280 -134.5t-86 -448.5q0 -140 19 -245.5t50 -170t77.5 -104t95.5 -54t110 -14.5q147 0 235 78t88 237q0 96 -22.5 134t-95.5 38h-82v135q212 -6 327 -6l322 6v-135h-61
q-44 0 -62 -24.5t-18 -83.5q0 -337 18 -510q-86 8 -176 0q-22 98 -55 205q-57 -106 -177 -171t-272 -65q-686 0 -686 750q0 190 52 335t146 233.5t217 132.5t273 44z" />
    <glyph glyph-name="gcircumflex" unicode="&#x11d;" horiz-adv-x="1054" 
d="M461 979q121 0 209 -31q16 71 61 119q-64 31 -141.5 81.5t-122.5 92.5q-52 -45 -139.5 -101t-143.5 -79l-16 20q33 74 103.5 155.5t138.5 139.5h120q60 -49 127 -127t105 -153q50 32 110 32q78 0 122 -41t44 -112q0 -59 -29 -92t-81 -33q-53 0 -83 27.5t-30 76.5
q0 45 31 76q-87 -12 -121 -108q152 -84 152 -295q0 -173 -116 -268t-300 -95q-65 0 -109 8q-94 -6 -94 -47q0 -21 19 -32.5t86 -20.5t194 -12q134 -2 222.5 -19.5t138 -52.5t69 -80t19.5 -110q0 -61 -31.5 -116.5t-92 -101.5t-162.5 -73t-231 -27q-469 0 -469 213
q0 59 49 100.5t128 63.5q-115 46 -115 158q0 75 51 120.5t131 61.5q-102 41 -157.5 124.5t-55.5 205.5q0 169 116.5 260.5t293.5 91.5zM487 -86q-109 3 -176 14q-137 -31 -137 -108q0 -55 74 -91t239 -36q187 0 279 34.5t92 90.5q0 32 -32 51t-113.5 30.5t-225.5 14.5z
M465 864q-76 0 -107.5 -54t-31.5 -185q0 -136 31 -190t108 -54q78 0 106.5 54t28.5 190q0 134 -30 186.5t-105 52.5z" />
    <glyph glyph-name="Gbreve" unicode="&#x11e;" horiz-adv-x="1628" 
d="M778 1454q98 0 180.5 -19t171.5 -69q74 -42 100.5 -28.5t35.5 92.5q11 -2 74.5 -2t72.5 2q-14 -88 -25.5 -253.5t-7.5 -273.5q-98 8 -196 0q-10 71 -23.5 124.5t-40 105.5t-64.5 85t-97.5 53.5t-137.5 20.5q-194 0 -280 -134.5t-86 -448.5q0 -140 19 -245.5t50 -170
t77.5 -104t95.5 -54t110 -14.5q147 0 235 78t88 237q0 96 -22.5 134t-95.5 38h-82v135q212 -6 327 -6l322 6v-135h-61q-44 0 -62 -24.5t-18 -83.5q0 -337 18 -510q-86 8 -176 0q-22 98 -55 205q-57 -106 -177 -171t-272 -65q-686 0 -686 750q0 190 52 335t146 233.5
t217 132.5t273 44zM772 1532q-148 0 -223 85t-57 212l38 4q6 -82 67 -112.5t175 -30.5q115 0 175.5 30.5t66.5 112.5l39 -4q18 -128 -57 -212.5t-224 -84.5z" />
    <glyph glyph-name="gbreve" unicode="&#x11f;" horiz-adv-x="1054" 
d="M461 979q121 0 209 -31q21 79 71.5 129.5t130.5 50.5q78 0 122 -41t44 -112q0 -59 -29 -92t-81 -33q-53 0 -83 27.5t-30 76.5q0 45 31 76q-87 -12 -121 -108q152 -84 152 -295q0 -173 -116 -268t-300 -95q-65 0 -109 8q-94 -6 -94 -47q0 -21 19 -32.5t86 -20.5t194 -12
q134 -2 222.5 -19.5t138 -52.5t69 -80t19.5 -110q0 -61 -31.5 -116.5t-92 -101.5t-162.5 -73t-231 -27q-469 0 -469 213q0 59 49 100.5t128 63.5q-115 46 -115 158q0 75 51 120.5t131 61.5q-102 41 -157.5 124.5t-55.5 205.5q0 169 116.5 260.5t293.5 91.5zM487 -86
q-109 3 -176 14q-137 -31 -137 -108q0 -55 74 -91t239 -36q187 0 279 34.5t92 90.5q0 32 -32 51t-113.5 30.5t-225.5 14.5zM465 864q-76 0 -107.5 -54t-31.5 -185q0 -136 31 -190t108 -54q78 0 106.5 54t28.5 190q0 134 -30 186.5t-105 52.5zM442 1081q-148 0 -223 85
t-57 212l39 4q6 -82 66.5 -112.5t174.5 -30.5q115 0 175.5 30.5t66.5 112.5l39 -4q18 -128 -57 -212.5t-224 -84.5z" />
    <glyph glyph-name="Gdotaccent" unicode="&#x120;" horiz-adv-x="1628" 
d="M778 1454q98 0 180.5 -19t171.5 -69q74 -42 100.5 -28.5t35.5 92.5q11 -2 74.5 -2t72.5 2q-14 -88 -25.5 -253.5t-7.5 -273.5q-98 8 -196 0q-10 71 -23.5 124.5t-40 105.5t-64.5 85t-97.5 53.5t-137.5 20.5q-194 0 -280 -134.5t-86 -448.5q0 -140 19 -245.5t50 -170
t77.5 -104t95.5 -54t110 -14.5q147 0 235 78t88 237q0 96 -22.5 134t-95.5 38h-82v135q212 -6 327 -6l322 6v-135h-61q-44 0 -62 -24.5t-18 -83.5q0 -337 18 -510q-86 8 -176 0q-22 98 -55 205q-57 -106 -177 -171t-272 -65q-686 0 -686 750q0 190 52 335t146 233.5
t217 132.5t273 44zM891 1698q0 -54 -34.5 -88.5t-88.5 -34.5q-51 0 -85 34.5t-34 88.5q0 52 34 86.5t85 34.5q54 0 88.5 -34t34.5 -87z" />
    <glyph glyph-name="gdotaccent" unicode="&#x121;" horiz-adv-x="1054" 
d="M461 979q121 0 209 -31q21 79 71.5 129.5t130.5 50.5q78 0 122 -41t44 -112q0 -59 -29 -92t-81 -33q-53 0 -83 27.5t-30 76.5q0 45 31 76q-87 -12 -121 -108q152 -84 152 -295q0 -173 -116 -268t-300 -95q-65 0 -109 8q-94 -6 -94 -47q0 -21 19 -32.5t86 -20.5t194 -12
q134 -2 222.5 -19.5t138 -52.5t69 -80t19.5 -110q0 -61 -31.5 -116.5t-92 -101.5t-162.5 -73t-231 -27q-469 0 -469 213q0 59 49 100.5t128 63.5q-115 46 -115 158q0 75 51 120.5t131 61.5q-102 41 -157.5 124.5t-55.5 205.5q0 169 116.5 260.5t293.5 91.5zM487 -86
q-109 3 -176 14q-137 -31 -137 -108q0 -55 74 -91t239 -36q187 0 279 34.5t92 90.5q0 32 -32 51t-113.5 30.5t-225.5 14.5zM465 864q-76 0 -107.5 -54t-31.5 -185q0 -136 31 -190t108 -54q78 0 106.5 54t28.5 190q0 134 -30 186.5t-105 52.5zM600 1237q0 -54 -34.5 -88.5
t-88.5 -34.5q-51 0 -85 34.5t-34 88.5q0 52 34 86.5t85 34.5q54 0 88.5 -34t34.5 -87z" />
    <glyph glyph-name="Gcommaaccent" unicode="&#x122;" horiz-adv-x="1628" 
d="M600 -547q112 26 169.5 87.5t57.5 152.5q-22 -55 -96 -55q-92 0 -92 106q0 52 34 85.5t89 33.5q62 0 93.5 -42t31.5 -110q0 -110 -72.5 -189.5t-204.5 -109.5zM778 1454q98 0 180.5 -19t171.5 -69q74 -42 100.5 -28.5t35.5 92.5q11 -2 74.5 -2t72.5 2
q-14 -88 -25.5 -253.5t-7.5 -273.5q-98 8 -196 0q-10 71 -23.5 124.5t-40 105.5t-64.5 85t-97.5 53.5t-137.5 20.5q-194 0 -280 -134.5t-86 -448.5q0 -140 19 -245.5t50 -170t77.5 -104t95.5 -54t110 -14.5q147 0 235 78t88 237q0 96 -22.5 134t-95.5 38h-82v135
q212 -6 327 -6l322 6v-135h-61q-44 0 -62 -24.5t-18 -83.5q0 -337 18 -510q-86 8 -176 0q-22 98 -55 205q-57 -106 -177 -171t-272 -65q-686 0 -686 750q0 190 52 335t146 233.5t217 132.5t273 44z" />
    <glyph glyph-name="gcommaaccent" unicode="&#x123;" horiz-adv-x="1054" 
d="M641 1526q-112 -26 -169.5 -87.5t-57.5 -152.5q22 55 96 55q92 0 92 -106q0 -52 -34 -85.5t-89 -33.5q-62 0 -93.5 42t-31.5 110q0 110 72.5 189.5t204.5 109.5zM461 979q121 0 209 -31q21 79 71.5 129.5t130.5 50.5q78 0 122 -41t44 -112q0 -59 -29 -92t-81 -33
q-53 0 -83 27.5t-30 76.5q0 45 31 76q-87 -12 -121 -108q152 -84 152 -295q0 -173 -116 -268t-300 -95q-65 0 -109 8q-94 -6 -94 -47q0 -21 19 -32.5t86 -20.5t194 -12q134 -2 222.5 -19.5t138 -52.5t69 -80t19.5 -110q0 -61 -31.5 -116.5t-92 -101.5t-162.5 -73t-231 -27
q-469 0 -469 213q0 59 49 100.5t128 63.5q-115 46 -115 158q0 75 51 120.5t131 61.5q-102 41 -157.5 124.5t-55.5 205.5q0 169 116.5 260.5t293.5 91.5zM487 -86q-109 3 -176 14q-137 -31 -137 -108q0 -55 74 -91t239 -36q187 0 279 34.5t92 90.5q0 32 -32 51t-113.5 30.5
t-225.5 14.5zM465 864q-76 0 -107.5 -54t-31.5 -185q0 -136 31 -190t108 -54q78 0 106.5 54t28.5 190q0 134 -30 186.5t-105 52.5z" />
    <glyph glyph-name="Hcircumflex" unicode="&#x124;" horiz-adv-x="1755" 
d="M1178 1528l-17 -23q-60 25 -147.5 80.5t-139.5 102.5q-53 -46 -140 -102t-142 -79l-17 21q33 74 103.5 155.5t138.5 139.5h121q62 -50 132.5 -133t107.5 -162zM66 -4q2 12 2 81t-2 81h96q70 0 94 17.5t25 74.5q5 103 5 459.5t-5 439.5q-3 59 -27 82.5t-80 23.5h-106v158
q235 -6 366 -6q58 0 143.5 1.5t151 3t72.5 1.5v-158h-103q-56 0 -80.5 -23.5t-27.5 -82.5q-4 -49 -4 -383q280 -4 585 0q0 332 -4 383q-4 59 -30 82.5t-82 23.5h-101v158q236 -6 367 -6q58 0 143.5 1.5t151 3t72.5 1.5v-158h-109q-55 0 -78 -23t-28 -83q-5 -83 -5 -439.5
t5 -459.5q3 -56 26 -74t92 -18h97v-162q-236 4 -367 4l-367 -4v162h95q68 0 92 19.5t26 72.5q4 122 4 397q-347 4 -585 -2q0 -273 4 -395q3 -54 25 -73t90 -19h96v-162q-236 4 -367 4z" />
    <glyph glyph-name="hcircumflex" unicode="&#x125;" horiz-adv-x="1280" 
d="M584 1520l-17 -23q-60 25 -147 80t-139 102q-52 -45 -139.5 -101t-143.5 -79l-16 21q33 74 103.5 156t137.5 139h121q62 -50 132.5 -133t107.5 -162zM1098 598q-3 -201 0 -336q3 -74 26 -102.5t86 -28.5h25v-137q-3 0 -111 3t-166 3q-44 0 -110.5 -1.5t-115.5 -3
t-52 -1.5v137h33q56 0 79.5 29t26.5 100q6 144 0 320q-3 123 -40 185t-122 62q-104 0 -149 -96t-45 -287v-196q0 -70 23 -93.5t85 -23.5h35v-137q-3 0 -113 3t-169 3q-45 0 -113 -1.5t-119.5 -3t-54.5 -1.5v137h39q63 2 83.5 22.5t24.5 92.5q3 51 3 459t-3 462
q-3 68 -23.5 91.5t-90.5 23.5h-31v131q307 0 430 6q-6 -141 -6 -424v-241q75 225 315 225q167 0 245 -100.5t75 -280.5z" />
    <glyph glyph-name="Hbar" unicode="&#x126;" horiz-adv-x="1755" 
d="M66 -4q2 12 2 81t-2 81h96q70 0 94 17.5t25 74.5q8 195 4 688q-30 0 -67.5 -1t-41.5 -1v111q3 0 42.5 -1.5t64.5 -1.5q0 27 -1 62.5t-1 42.5q-3 59 -27 82.5t-80 23.5h-106v158q235 -6 366 -6q58 0 143.5 1.5t151 3t72.5 1.5v-158h-103q-56 0 -80.5 -23.5t-27.5 -82.5
q-1 -8 -1.5 -23t-1 -39.5t-1.5 -42.5h583q0 85 -2 105q-4 59 -30 82.5t-82 23.5h-101v158q236 -6 367 -6q58 0 143.5 1.5t151 3t72.5 1.5v-158h-109q-55 0 -78 -23t-28 -83q-1 -9 -5 -105q29 0 73 1.5t48 1.5v-111q-4 0 -45 1t-76 1q-4 -473 5 -688q3 -56 26 -74t92 -18h97
v-162q-236 4 -367 4l-367 -4v162h95q68 0 92 19.5t26 72.5q4 122 4 397q-347 4 -585 -2q0 -273 4 -395q3 -54 25 -73t90 -19h96v-162q-236 4 -367 4zM586 766q280 -4 585 0v172h-585v-172z" />
    <glyph glyph-name="hbar" unicode="&#x127;" horiz-adv-x="1280" 
d="M41 1055v98q70 -4 143 -4v18q-3 68 -23.5 91.5t-90.5 23.5h-31v131q307 0 430 6q-6 -138 -6 -270q79 0 153 4v-98q-16 0 -68 1t-85 1v-303q75 225 315 225q167 0 245 -100.5t75 -280.5q-3 -201 0 -336q3 -74 26 -102.5t86 -28.5h25v-137q-3 0 -111 3t-166 3
q-44 0 -110.5 -1.5t-115.5 -3t-52 -1.5v137h33q56 0 79.5 29t26.5 100q6 144 0 320q-3 123 -40 185t-122 62q-104 0 -149 -96t-45 -287v-196q0 -70 23 -93.5t85 -23.5h35v-137q-3 0 -113 3t-169 3q-45 0 -113 -1.5t-119.5 -3t-54.5 -1.5v137h39q63 2 83.5 22.5t24.5 92.5
q2 44 2.5 338.5t-0.5 472.5q-32 0 -81 -1t-64 -1z" />
    <glyph glyph-name="Itilde" unicode="&#x128;" horiz-adv-x="876" 
d="M72 -4v162h96q65 0 88 19.5t25 72.5q5 100 5 458t-5 441q-3 59 -27 82.5t-80 23.5h-102v158q237 -6 368 -6q58 0 143.5 1.5t151 3t72.5 1.5v-158h-102q-56 0 -79.5 -23t-27.5 -83q-6 -90 -5.5 -441.5t5.5 -457.5q2 -53 26 -72.5t89 -19.5h94v-162q-236 4 -367 4z
M690 1806l45 13q46 -139 -13.5 -216t-170.5 -77q-68 0 -112 29t-81 87q-37 57 -58.5 76t-55.5 19q-43 0 -59.5 -40.5t3.5 -137.5l-47 -13q-46 141 13 217t172 76q59 0 103.5 -26.5t86.5 -88.5q36 -53 60 -74.5t57 -21.5q44 0 60 41.5t-3 136.5z" />
    <glyph glyph-name="itilde" unicode="&#x129;" horiz-adv-x="647" 
d="M463 956q-2 -33 -2.5 -332t2.5 -376q3 -71 26.5 -94t85.5 -23h37v-135q-12 0 -124.5 3t-159.5 3q-50 0 -169.5 -3t-121.5 -3v135h39q64 2 84.5 23t23.5 92q3 70 3 236.5t-3 226.5q-3 64 -24 87t-90 23h-33v131q291 0 426 6zM555 1346l45 12q46 -139 -13.5 -216
t-170.5 -77q-67 0 -111.5 29.5t-81.5 87.5q-37 56 -58.5 75t-55.5 19q-43 0 -59.5 -40.5t3.5 -137.5l-47 -13q-46 141 12.5 217t171.5 76q60 0 104.5 -26t86.5 -88q36 -53 60 -75t57 -22q44 0 60 42t-3 137z" />
    <glyph glyph-name="Imacron" unicode="&#x12a;" horiz-adv-x="876" 
d="M72 -4v162h96q65 0 88 19.5t25 72.5q5 100 5 458t-5 441q-3 59 -27 82.5t-80 23.5h-102v158q237 -6 368 -6q58 0 143.5 1.5t151 3t72.5 1.5v-158h-102q-56 0 -79.5 -23t-27.5 -83q-6 -90 -5.5 -441.5t5.5 -457.5q2 -53 26 -72.5t89 -19.5h94v-162q-236 4 -367 4z
M172 1559q4 73 0 149q94 -3 272.5 -3t272.5 3q-3 -74 0 -149q-94 3 -272.5 3t-272.5 -3z" />
    <glyph glyph-name="imacron" unicode="&#x12b;" horiz-adv-x="647" 
d="M463 956q-2 -33 -2.5 -332t2.5 -376q3 -71 26.5 -94t85.5 -23h37v-135q-12 0 -124.5 3t-159.5 3q-50 0 -169.5 -3t-121.5 -3v135h39q64 2 84.5 23t23.5 92q3 70 3 236.5t-3 226.5q-3 64 -24 87t-90 23h-33v131q291 0 426 6zM18 1102q4 73 0 149q94 -3 272.5 -3t272.5 3
q-3 -74 0 -149q-94 3 -272.5 3t-272.5 -3z" />
    <glyph glyph-name="Ibreve" unicode="&#x12c;" horiz-adv-x="876" 
d="M72 -4v162h96q65 0 88 19.5t25 72.5q5 100 5 458t-5 441q-3 59 -27 82.5t-80 23.5h-102v158q237 -6 368 -6q58 0 143.5 1.5t151 3t72.5 1.5v-158h-102q-56 0 -79.5 -23t-27.5 -83q-6 -90 -5.5 -441.5t5.5 -457.5q2 -53 26 -72.5t89 -19.5h94v-162q-236 4 -367 4z
M438 1532q-148 0 -223 85t-57 212l39 4q6 -82 66.5 -112.5t174.5 -30.5q115 0 175.5 30.5t66.5 112.5l39 -4q18 -128 -57 -212.5t-224 -84.5z" />
    <glyph glyph-name="ibreve" unicode="&#x12d;" horiz-adv-x="647" 
d="M463 956q-2 -33 -2.5 -332t2.5 -376q3 -71 26.5 -94t85.5 -23h37v-135q-12 0 -124.5 3t-159.5 3q-50 0 -169.5 -3t-121.5 -3v135h39q64 2 84.5 23t23.5 92q3 70 3 236.5t-3 226.5q-3 64 -24 87t-90 23h-33v131q291 0 426 6zM283 1081q-148 0 -223.5 85t-57.5 212l39 4
q6 -82 67 -112.5t175 -30.5q115 0 175 30.5t66 112.5l39 -4q18 -128 -56.5 -212.5t-223.5 -84.5z" />
    <glyph glyph-name="Iogonek" unicode="&#x12e;" horiz-adv-x="876" 
d="M702 -158q-3 -264 -243 -264q-100 0 -160 50.5t-59 138.5q5 152 174 233l-342 -4v162h96q65 0 88 19.5t25 72.5q5 100 5 458t-5 441q-3 59 -27 82.5t-80 23.5h-102v158q237 -6 368 -6q58 0 143.5 1.5t151 3t72.5 1.5v-158h-102q-56 0 -79.5 -23t-27.5 -83
q-6 -90 -5.5 -441.5t5.5 -457.5q2 -53 26 -72.5t89 -19.5h94v-162q-164 4 -295 4q-119 -60 -119 -172q0 -56 33 -84.5t84 -28.5q56 0 91 35.5t44 102.5z" />
    <glyph glyph-name="iogonek" unicode="&#x12f;" horiz-adv-x="647" 
d="M580 -158q-3 -264 -244 -264q-100 0 -161 50.5t-58 138.5q3 151 174 233q-45 0 -105.5 -1.5t-103.5 -3t-45 -1.5v137h39q64 2 84.5 23t23.5 92q3 70 3 236.5t-3 226.5q-3 64 -24 87t-90 23h-33v131q291 0 426 6q-2 -33 -2.5 -332t2.5 -376q3 -71 26.5 -94t85.5 -23h37
v-137q-9 0 -44 1l-87.5 2.5t-91.5 2.5q-119 -60 -119 -172q0 -56 33 -84.5t84 -28.5q56 0 91 35.5t44 102.5zM477 1282q0 -75 -47 -121.5t-121 -46.5q-72 0 -118 46.5t-46 121.5q0 72 46 119t118 47q73 0 120.5 -47t47.5 -119z" />
    <glyph glyph-name="Idotaccent" unicode="&#x130;" horiz-adv-x="876" 
d="M72 -4v162h96q65 0 88 19.5t25 72.5q5 100 5 458t-5 441q-3 59 -27 82.5t-80 23.5h-102v158q237 -6 368 -6q58 0 143.5 1.5t151 3t72.5 1.5v-158h-102q-56 0 -79.5 -23t-27.5 -83q-6 -90 -5.5 -441.5t5.5 -457.5q2 -53 26 -72.5t89 -19.5h94v-162q-236 4 -367 4z
M561 1698q0 -54 -34.5 -88.5t-88.5 -34.5q-51 0 -85 34.5t-34 88.5q0 52 34 86.5t85 34.5q54 0 88.5 -34t34.5 -87z" />
    <glyph glyph-name="dotlessi" unicode="&#x131;" horiz-adv-x="647" 
d="M463 956q-2 -33 -2.5 -332t2.5 -376q3 -71 26.5 -94t85.5 -23h37v-135q-12 0 -124.5 3t-159.5 3q-50 0 -169.5 -3t-121.5 -3v135h39q64 2 84.5 23t23.5 92q3 70 3 236.5t-3 226.5q-3 64 -24 87t-90 23h-33v131q291 0 426 6z" />
    <glyph glyph-name="IJ" unicode="&#x132;" horiz-adv-x="2002" 
d="M72 -4v162h96q65 0 88 19.5t25 72.5q5 100 5 458t-5 441q-3 59 -27 82.5t-80 23.5h-102v158q237 -6 368 -6q58 0 143.5 1.5t151 3t72.5 1.5v-158h-102q-56 0 -79.5 -23t-27.5 -83q-6 -90 -5.5 -441.5t5.5 -457.5q2 -53 26 -72.5t89 -19.5h94v-162q-236 4 -367 4z
M1010 170q-28 0 -49 6q71 -98 223 -98q121 0 181.5 77.5t66.5 252.5q4 129 4 393.5t-4 347.5q-3 59 -26.5 82.5t-80.5 23.5h-92v158q225 -6 352 -6q56 0 138.5 1.5t145 3t70.5 1.5q-1 -12 -1 -79t1 -79h-81q-57 0 -81.5 -22t-25.5 -84q-3 -89 -2.5 -351t2.5 -384
q1 -222 -138 -337.5t-380 -115.5q-96 0 -173 26.5t-125 72t-73.5 103t-25.5 122.5q0 85 49 138.5t137 53.5q74 0 119 -40.5t45 -110.5q0 -79 -51.5 -117.5t-124.5 -38.5z" />
    <glyph glyph-name="ij" unicode="&#x133;" horiz-adv-x="1185" 
d="M463 956q-2 -33 -2.5 -332t2.5 -376q3 -71 26.5 -94t85.5 -23h37v-137q-4 0 -115 3t-171 3q-45 0 -113.5 -1.5t-120.5 -3t-55 -1.5v137h39q64 2 84.5 23t23.5 92q3 70 3 236.5t-3 226.5q-3 64 -24 87t-90 23h-33v131q291 0 426 6zM477 1282q0 -75 -47 -121.5t-121 -46.5
q-72 0 -118 46.5t-46 121.5q0 72 46 119t118 47q73 0 120.5 -47t47.5 -119zM702 -190q0 -49 -39.5 -88t-113.5 -31q39 -25 96 -25q75 0 110.5 51t41.5 187q4 91 4.5 429t-2.5 384q-6 102 -103 102h-45v131q352 0 432 6q-6 -74 -6 -327v-615q0 -426 -366 -426
q-129 0 -205 53.5t-76 147.5q0 68 36.5 105.5t102.5 37.5q62 0 97.5 -32.5t35.5 -89.5zM1092 1282q0 -74 -47 -121t-121 -47q-72 0 -118 47t-46 121q0 72 46 119t118 47q73 0 120.5 -47t47.5 -119z" />
    <glyph glyph-name="Jcircumflex" unicode="&#x134;" horiz-adv-x="1204" 
d="M1075 1528l-16 -23q-60 25 -147.5 80.5t-139.5 102.5q-53 -46 -140.5 -102t-142.5 -79l-16 21q33 74 103.5 155.5t138.5 139.5h121q62 -50 132 -133t107 -162zM209 170q-28 0 -49 6q71 -98 223 -98q121 0 181.5 77.5t66.5 252.5q5 129 5 393.5t-5 347.5q-3 59 -26.5 82.5
t-80.5 23.5h-92v158q225 -6 352 -6q56 0 138.5 1.5t145.5 3t71 1.5q-1 -12 -1 -79t1 -79h-82q-57 0 -81.5 -22t-25.5 -84q-3 -89 -2.5 -351t2.5 -384q1 -222 -138 -337.5t-380 -115.5q-96 0 -173 26.5t-125 72t-73.5 103t-25.5 122.5q0 85 49 138.5t137 53.5q74 0 119 -40.5
t45 -110.5q0 -79 -51.5 -117.5t-124.5 -38.5z" />
    <glyph glyph-name="jcircumflex" unicode="&#x135;" horiz-adv-x="612" 
d="M123 -195q0 -49 -38 -85t-114 -25q44 -29 101 -29q77 0 114 52t37 186q0 38 1.5 252.5t2 348t-1.5 212.5q-6 102 -102 102h-45v131q346 0 426 6q-3 -54 -3 -231t1.5 -412t1.5 -299q0 -426 -367 -426q-128 0 -203 54t-75 147q0 64 36.5 99.5t102.5 35.5q58 0 91.5 -31.5
t33.5 -87.5zM625 1081l-17 -22q-60 25 -147 80t-139 102q-52 -45 -139.5 -101t-143.5 -79l-16 20q33 74 103.5 156t137.5 139h121q62 -50 132.5 -133t107.5 -162z" />
    <glyph glyph-name="Kcommaaccent" unicode="&#x136;" horiz-adv-x="1722" 
d="M705 -530q112 26 169.5 87t57.5 152q-22 -55 -96 -55q-44 0 -68.5 26.5t-24.5 79.5q0 52 34 85.5t89 33.5q62 0 93.5 -41.5t31.5 -109.5q0 -110 -72 -189.5t-204 -109.5zM66 -4q2 12 2 81t-2 81h94q70 0 93 21.5t28 88.5q6 91 5.5 441.5t-5.5 435.5q-3 61 -29 85.5
t-88 24.5h-98q2 12 2 79t-2 79q237 -6 368 -6q58 0 143.5 1.5t151 3t72.5 1.5q-1 -12 -1 -79t1 -79h-107q-55 0 -78 -24.5t-28 -85.5q-4 -55 -4 -449l483 428q26 23 30 54t-18 54t-65 23h-90v158q235 -6 366 -6q58 0 139.5 1.5t142.5 3t68 1.5v-158h-75q-98 0 -171 -32.5
t-159 -106.5l-252 -219q74 -114 223.5 -331t190.5 -269q8 -9 24 -29t22 -27t19 -21.5t19.5 -19.5t18.5 -14.5t21.5 -12.5t23 -7.5t28 -6t31.5 -1.5h53q-1 -12 -1 -80t1 -80q-238 6 -369 6l-370 -6q2 12 2 80t-2 80h63q66 0 79.5 37t-24.5 100q-181 281 -278 407l-174 -149
q0 -203 4 -285q5 -67 23.5 -88.5t82.5 -21.5h101v-162q-232 4 -363 4z" />
    <glyph glyph-name="kcommaaccent" unicode="&#x137;" horiz-adv-x="1277" 
d="M465 -530q112 26 169.5 87t57.5 152q-22 -55 -96 -55q-92 0 -92 106q0 52 34 85.5t89 33.5q62 0 93.5 -41.5t31.5 -109.5q0 -110 -72.5 -189.5t-204.5 -109.5zM463 1417q-4 -150 -4 -923l262 206q55 43 42.5 81t-75.5 38h-37v133q181 -6 283 -6q45 0 111.5 1.5t116.5 3
t55 1.5q-1 -10 -1 -67t1 -66h-39q-89 0 -148 -27t-184 -114l-72 -49q51 -87 126 -202.5t114 -166.5q56 -70 97.5 -99.5t102.5 -29.5h21v-137q-2 0 -117 3t-178 3q-46 0 -115.5 -1.5t-122 -3t-55.5 -1.5v139h29q47 0 52.5 35.5t-30.5 93.5q-88 143 -143 213l-94 -65
q0 -111 2 -148q5 -74 27.5 -102.5t76.5 -28.5h31v-137q-3 0 -111.5 3t-167.5 3q-45 0 -112 -1.5t-117 -3t-53 -1.5v137h39q62 1 83.5 28t24.5 101q3 69 3 450.5t-3 442.5q-3 70 -24 99.5t-88 29.5h-33v131q264 0 424 4z" />
    <glyph glyph-name="kgreenlandic" unicode="&#x138;" horiz-adv-x="1277" 
d="M463 954q-4 -250 -4 -460l262 206q54 44 42 81.5t-75 37.5h-37v133q181 -6 283 -6q45 0 111.5 1.5t116.5 3t55 1.5q-1 -10 -1 -67t1 -66h-39q-89 0 -148 -27t-184 -114l-72 -49q163 -275 240 -369q51 -69 94.5 -99t105.5 -30h21v-137q-2 0 -117 3t-178 3
q-46 0 -115.5 -1.5t-122 -3t-55.5 -1.5v139h29q47 0 52.5 35.5t-30.5 93.5q-76 123 -143 213l-96 -67q0 -88 4 -146q3 -73 26.5 -102t77.5 -29h31v-137q-3 0 -111.5 3t-167.5 3q-45 0 -112 -1.5t-117 -3t-53 -1.5v137h39q62 1 83.5 28t24.5 101q3 69 3 218.5t-3 211.5
q-3 70 -24 99.5t-88 29.5h-33v131q264 0 424 4z" />
    <glyph glyph-name="Lacute" unicode="&#x139;" horiz-adv-x="1357" 
d="M408 1524l-17 22q149 193 256 266q53 33 98.5 15.5t44 -59t-50.5 -80.5q-62 -42 -156 -88.5t-175 -75.5zM813 1413q-2 -16 -2 -158h-104q-60 0 -86.5 -24.5t-30.5 -87.5q-4 -86 -4 -435t4 -456q3 -54 29 -74t81 -20h138q65 0 109.5 9.5t83 35.5t62 72.5t38 119.5
t18.5 178q12 -1 79.5 -1t78.5 1q-8 -110 -13 -295t-2 -286q-113 8 -403 8h-471q-204 0 -352 -4q2 12 2 81t-2 81h100q69 0 91.5 21t25.5 81q5 104 5 452t-5 431q-3 60 -27.5 86t-79.5 26h-106v158q239 -6 372 -6q79 0 223 3t148 3z" />
    <glyph glyph-name="lacute" unicode="&#x13a;" horiz-adv-x="645" 
d="M268 1464l-16 23q149 193 256 266q53 33 98.5 15t44 -59t-50.5 -81q-62 -41 -156.5 -88t-175.5 -76zM463 1419q-2 -66 -2.5 -569.5t2.5 -587.5q3 -74 27 -102.5t85 -28.5h37v-137q-4 0 -115 3t-171 3q-46 0 -114.5 -1.5t-120 -3t-54.5 -1.5v137h39q61 1 83 28.5t25 100.5
q3 72 3 453.5t-3 441.5q-3 68 -25 97.5t-89 29.5h-31v131q344 0 424 6z" />
    <glyph glyph-name="Lcommaaccent" unicode="&#x13b;" horiz-adv-x="1357" 
d="M510 -530q112 26 169.5 87t57.5 152q-22 -55 -96 -55q-92 0 -92 106q0 52 34 85.5t89 33.5q62 0 93.5 -41.5t31.5 -109.5q0 -110 -72.5 -189.5t-204.5 -109.5zM813 1413q-2 -16 -2 -158h-104q-60 0 -86.5 -24.5t-30.5 -87.5q-4 -86 -4 -435t4 -456q3 -54 29 -74t81 -20
h138q65 0 109.5 9.5t83 35.5t62 72.5t38 119.5t18.5 178q12 -1 79.5 -1t78.5 1q-8 -110 -13 -295t-2 -286q-113 8 -403 8h-471q-204 0 -352 -4q2 12 2 81t-2 81h100q69 0 91.5 21t25.5 81q5 104 5 452t-5 431q-3 60 -27.5 86t-79.5 26h-106v158q239 -6 372 -6q79 0 223 3
t148 3z" />
    <glyph glyph-name="lcommaaccent" unicode="&#x13c;" horiz-adv-x="645" 
d="M168 -530q112 26 169.5 87t57.5 152q-22 -55 -96 -55q-92 0 -92 106q0 52 34 85.5t89 33.5q62 0 93.5 -41.5t31.5 -109.5q0 -110 -72.5 -189.5t-204.5 -109.5zM463 1419q-2 -66 -2.5 -569.5t2.5 -587.5q3 -74 27 -102.5t85 -28.5h37v-137q-4 0 -115 3t-171 3
q-46 0 -114.5 -1.5t-120 -3t-54.5 -1.5v137h39q61 1 83 28.5t25 100.5q3 72 3 453.5t-3 441.5q-3 68 -25 97.5t-89 29.5h-31v131q344 0 424 6z" />
    <glyph glyph-name="Lcaron" unicode="&#x13d;" horiz-adv-x="1357" 
d="M961 1049q112 26 169.5 87t57.5 152q-22 -55 -96 -55q-44 0 -68.5 26.5t-24.5 79.5q0 52 34 85.5t89 33.5q62 0 93.5 -41.5t31.5 -109.5q0 -110 -72 -189.5t-204 -109.5zM813 1413q-2 -16 -2 -158h-104q-60 0 -86.5 -24.5t-30.5 -87.5q-4 -86 -4 -435t4 -456
q3 -54 29 -74t81 -20h138q65 0 109.5 9.5t83 35.5t62 72.5t38 119.5t18.5 178q12 -1 79.5 -1t78.5 1q-8 -110 -13 -295t-2 -286q-113 8 -403 8h-471q-204 0 -352 -4q2 12 2 81t-2 81h100q69 0 91.5 21t25.5 81q5 104 5 452t-5 431q-3 60 -27.5 86t-79.5 26h-106v158
q239 -6 372 -6q79 0 223 3t148 3z" />
    <glyph glyph-name="lcaron" unicode="&#x13e;" horiz-adv-x="874" 
d="M547 1006q112 26 169.5 87t57.5 152q-22 -55 -96 -55q-92 0 -92 106q0 52 34 85.5t89 33.5q62 0 93.5 -41.5t31.5 -109.5q0 -110 -72.5 -189.5t-204.5 -109.5zM463 1419q-2 -66 -2.5 -569.5t2.5 -587.5q3 -74 27 -102.5t85 -28.5h37v-137q-4 0 -115 3t-171 3
q-46 0 -114.5 -1.5t-120 -3t-54.5 -1.5v137h39q61 1 83 28.5t25 100.5q3 72 3 453.5t-3 441.5q-3 68 -25 97.5t-89 29.5h-31v131q344 0 424 6z" />
    <glyph glyph-name="Ldot" unicode="&#x13f;" horiz-adv-x="1357" 
d="M813 1413q-2 -16 -2 -158h-104q-60 0 -86.5 -24.5t-30.5 -87.5q-4 -86 -4 -435t4 -456q3 -54 29 -74t81 -20h138q65 0 109.5 9.5t83 35.5t62 72.5t38 119.5t18.5 178q12 -1 79.5 -1t78.5 1q-8 -110 -13 -295t-2 -286q-113 8 -403 8h-471q-204 0 -352 -4q2 12 2 81t-2 81
h100q69 0 91.5 21t25.5 81q5 104 5 452t-5 431q-3 60 -27.5 86t-79.5 26h-106v158q239 -6 372 -6q79 0 223 3t148 3zM1087 768q0 -54 -34 -88.5t-88 -34.5q-51 0 -85 34.5t-34 88.5q0 52 34 86.5t85 34.5q54 0 88 -34t34 -87z" />
    <glyph glyph-name="ldot" unicode="&#x140;" horiz-adv-x="876" 
d="M463 1419q-2 -66 -2.5 -569.5t2.5 -587.5q3 -74 27 -102.5t85 -28.5h37v-137q-4 0 -115 3t-171 3q-46 0 -114.5 -1.5t-120 -3t-54.5 -1.5v137h39q61 1 83 28.5t25 100.5q3 72 3 453.5t-3 441.5q-3 68 -25 97.5t-89 29.5h-31v131q344 0 424 6zM872 670q0 -54 -34 -88.5
t-88 -34.5q-51 0 -85 34.5t-34 88.5q0 52 34 86.5t85 34.5q54 0 88 -34t34 -87z" />
    <glyph glyph-name="Lslash" unicode="&#x141;" horiz-adv-x="1357" 
d="M813 1413q-2 -16 -2 -158h-104q-60 0 -86.5 -24.5t-30.5 -87.5q-4 -86 -4 -299l174 80l41 -101q-186 -79 -215 -92q0 -405 4 -479q3 -54 29 -74t81 -20h138q65 0 109.5 9.5t83 35.5t62 72.5t38 119.5t18.5 178q12 -1 79.5 -1t78.5 1q-8 -110 -13 -295t-2 -286
q-113 8 -403 8h-471q-204 0 -352 -4q2 12 2 81t-2 81h100q69 0 91.5 21t25.5 81q4 110 4 338l-97 -45l-43 102q45 17 140 58q0 320 -4 430q-3 60 -27.5 86t-79.5 26h-106v158q239 -6 372 -6q79 0 223 3t148 3z" />
    <glyph glyph-name="lslash" unicode="&#x142;" horiz-adv-x="645" 
d="M463 1419q-2 -37 -2 -565q22 10 55.5 28.5t40.5 22.5l47 -100l-143 -70q0 -432 2 -473q3 -74 27 -102.5t85 -28.5h37v-137q-4 0 -115 3t-171 3q-46 0 -114.5 -1.5t-120 -3t-54.5 -1.5v137h39q61 1 83 28.5t25 100.5q2 39 2 338l-55 -31l-47 99q33 14 102 49q0 399 -2 440
q-3 68 -25 97.5t-89 29.5h-31v131q344 0 424 6z" />
    <glyph glyph-name="Nacute" unicode="&#x143;" horiz-adv-x="1703" 
d="M852 1524l-16 22q149 193 256 266q53 33 98.5 15.5t44 -59t-50.5 -80.5q-62 -41 -156.5 -88t-175.5 -76zM604 1413q102 -158 296.5 -441.5t336.5 -482.5q8 386 -2 648q-3 67 -30 92.5t-85 25.5h-116v158q1 0 124.5 -3t192.5 -3l315 6v-158h-106q-57 0 -85 -26t-32 -92
q-5 -88 -5 -512t5 -625q-116 8 -237 0q-300 458 -711 1055q-5 -641 4 -795q3 -57 30.5 -79.5t96.5 -22.5h111v-162q-205 4 -320 4l-321 -4q2 12 2 81t-2 81h98q70 0 97.5 23t29.5 79q5 110 5.5 451.5t-5.5 431.5q-4 60 -31 86t-84 26h-108q2 12 2 79t-2 79q268 -8 536 0z
" />
    <glyph glyph-name="nacute" unicode="&#x144;" horiz-adv-x="1282" 
d="M623 1063l-17 22q151 195 256 267q53 33 98.5 15t44 -59t-50.5 -81q-62 -42 -156 -88.5t-175 -75.5zM1098 598q-3 -201 0 -336q3 -75 26 -103t88 -28h27q-1 -23 -1 -75t1 -62q-3 0 -112.5 3t-168.5 3q-44 0 -110.5 -1.5t-115.5 -3t-52 -1.5v137h33q55 0 79 29t27 100
q6 144 0 320q-5 123 -41 185t-121 62q-105 0 -149.5 -93t-44.5 -290v-182q0 -73 24.5 -102t83.5 -29h35v-137q-3 0 -113 3t-169 3q-45 0 -113 -1.5t-119.5 -3t-54.5 -1.5v137h39q62 1 83.5 28t24.5 101q3 79 3 227.5t-3 206.5q-3 67 -24.5 96t-89.5 29h-31v131q344 0 424 6
v-204q74 227 315 227q327 0 320 -381z" />
    <glyph glyph-name="Ncommaaccent" unicode="&#x145;" horiz-adv-x="1703" 
d="M711 -530q112 26 169.5 87t57.5 152q-22 -55 -96 -55q-92 0 -92 106q0 52 33.5 85.5t88.5 33.5q62 0 93.5 -41.5t31.5 -109.5q0 -110 -72 -189.5t-204 -109.5zM604 1413q102 -158 296.5 -441.5t336.5 -482.5q8 386 -2 648q-3 67 -30 92.5t-85 25.5h-116v158q1 0 124.5 -3
t192.5 -3l315 6v-158h-106q-57 0 -85 -26t-32 -92q-5 -88 -5 -512t5 -625q-116 8 -237 0q-300 458 -711 1055q-5 -641 4 -795q3 -57 30.5 -79.5t96.5 -22.5h111v-162q-205 4 -320 4l-321 -4q2 12 2 81t-2 81h98q70 0 97.5 23t29.5 79q5 110 5.5 451.5t-5.5 431.5
q-4 60 -31 86t-84 26h-108q2 12 2 79t-2 79q268 -8 536 0z" />
    <glyph glyph-name="ncommaaccent" unicode="&#x146;" horiz-adv-x="1282" 
d="M481 -530q112 26 170 87t58 152q-22 -55 -97 -55q-92 0 -92 106q0 52 34 85.5t89 33.5q62 0 93.5 -41.5t31.5 -109.5q0 -110 -72 -189.5t-204 -109.5zM1098 598q-3 -201 0 -336q3 -75 26 -103t88 -28h27q-1 -23 -1 -75t1 -62q-3 0 -112.5 3t-168.5 3q-44 0 -110.5 -1.5
t-115.5 -3t-52 -1.5v137h33q55 0 79 29t27 100q6 144 0 320q-5 123 -41 185t-121 62q-105 0 -149.5 -93t-44.5 -290v-182q0 -73 24.5 -102t83.5 -29h35v-137q-3 0 -113 3t-169 3q-45 0 -113 -1.5t-119.5 -3t-54.5 -1.5v137h39q62 1 83.5 28t24.5 101q3 79 3 227.5t-3 206.5
q-3 67 -24.5 96t-89.5 29h-31v131q344 0 424 6v-204q74 227 315 227q327 0 320 -381z" />
    <glyph glyph-name="Ncaron" unicode="&#x147;" horiz-adv-x="1703" 
d="M590 1837l16 21q61 -24 148.5 -79.5t140.5 -101.5q51 45 138 101.5t143 79.5l16 -21q-33 -75 -103 -155.5t-139 -139.5h-121q-61 49 -130.5 132t-108.5 163zM604 1413q102 -158 296.5 -441.5t336.5 -482.5q8 386 -2 648q-3 67 -30 92.5t-85 25.5h-116v158q1 0 124.5 -3
t192.5 -3l315 6v-158h-106q-57 0 -85 -26t-32 -92q-5 -88 -5 -512t5 -625q-116 8 -237 0q-300 458 -711 1055q-5 -641 4 -795q3 -57 30.5 -79.5t96.5 -22.5h111v-162q-205 4 -320 4l-321 -4q2 12 2 81t-2 81h98q70 0 97.5 23t29.5 79q5 110 5.5 451.5t-5.5 431.5
q-4 60 -31 86t-84 26h-108q2 12 2 79t-2 79q268 -8 536 0z" />
    <glyph glyph-name="ncaron" unicode="&#x148;" horiz-adv-x="1282" 
d="M326 1376l16 21q61 -25 148.5 -79.5t140.5 -100.5q51 45 137.5 101t142.5 79l17 -21q-33 -75 -103 -155.5t-139 -139.5h-121q-61 49 -130.5 132t-108.5 163zM1098 598q-3 -201 0 -336q3 -75 26 -103t88 -28h27q-1 -23 -1 -75t1 -62q-3 0 -112.5 3t-168.5 3
q-44 0 -110.5 -1.5t-115.5 -3t-52 -1.5v137h33q55 0 79 29t27 100q6 144 0 320q-5 123 -41 185t-121 62q-105 0 -149.5 -93t-44.5 -290v-182q0 -73 24.5 -102t83.5 -29h35v-137q-3 0 -113 3t-169 3q-45 0 -113 -1.5t-119.5 -3t-54.5 -1.5v137h39q62 1 83.5 28t24.5 101
q3 79 3 227.5t-3 206.5q-3 67 -24.5 96t-89.5 29h-31v131q344 0 424 6v-204q74 227 315 227q327 0 320 -381z" />
    <glyph glyph-name="napostrophe" unicode="&#x149;" horiz-adv-x="1282" 
d="M59 1067q112 26 170 87.5t58 152.5q-22 -56 -97 -56q-44 0 -68 27t-24 80q0 52 34 85.5t89 33.5q62 0 93.5 -42t31.5 -110q0 -110 -72 -189.5t-204 -109.5zM1098 598q-3 -201 0 -336q3 -75 26 -103t88 -28h27q-1 -23 -1 -75t1 -62q-3 0 -112.5 3t-168.5 3
q-44 0 -110.5 -1.5t-115.5 -3t-52 -1.5v137h33q55 0 79 29t27 100q6 144 0 320q-5 123 -41 185t-121 62q-105 0 -149.5 -93t-44.5 -290v-182q0 -73 24.5 -102t83.5 -29h35v-137q-3 0 -113 3t-169 3q-45 0 -113 -1.5t-119.5 -3t-54.5 -1.5v137h39q62 1 83.5 28t24.5 101
q3 79 3 227.5t-3 206.5q-3 67 -24.5 96t-89.5 29h-31v131q344 0 424 6v-204q74 227 315 227q327 0 320 -381z" />
    <glyph glyph-name="Eng" unicode="&#x14a;" horiz-adv-x="1703" 
d="M604 1413q102 -158 296.5 -441.5t336.5 -482.5q8 386 -2 648q-3 67 -30 92.5t-85 25.5h-116v158q1 0 124.5 -3t192.5 -3l315 6v-158h-106q-57 0 -85 -26t-32 -92q-5 -88 -5 -512t5 -625q-3 -200 -99 -306t-276 -106q-125 0 -200.5 54.5t-75.5 148.5q0 67 38 105t105 38
q60 0 95.5 -33t35.5 -89q0 -50 -38 -88.5t-115 -30.5q46 -27 106 -27q34 0 62.5 4.5t62 19.5t56 40.5t38 72t15.5 109.5v90q-10 0 -26 -1t-21 -1q-300 458 -711 1055q-5 -641 4 -795q3 -57 30.5 -79.5t96.5 -22.5h111v-162q-205 4 -320 4l-321 -4q2 12 2 81t-2 81h98
q70 0 97.5 23t29.5 79q5 110 5.5 451.5t-5.5 431.5q-4 60 -31 86t-84 26h-108q2 12 2 79t-2 79q268 -8 536 0z" />
    <glyph glyph-name="eng" unicode="&#x14b;" horiz-adv-x="1196" 
d="M1098 598v-584q0 -426 -365 -426q-128 0 -205 53.5t-77 145.5q0 66 37 103.5t102 37.5q59 0 94 -33t35 -88q0 -49 -36.5 -86.5t-113.5 -29.5q39 -25 99 -25q76 0 113.5 52t37.5 186v676q0 121 -38 184t-124 63q-104 0 -149 -94.5t-45 -288.5v-182q0 -73 24.5 -102
t83.5 -29h35v-137q-3 0 -113 3t-169 3q-45 0 -113 -1.5t-119.5 -3t-54.5 -1.5v137h39q62 1 83.5 28t24.5 101q3 79 3 227.5t-3 206.5q-3 67 -24.5 96t-89.5 29h-31v131q344 0 424 6v-204q74 227 315 227q320 0 320 -381z" />
    <glyph glyph-name="Omacron" unicode="&#x14c;" horiz-adv-x="1591" 
d="M535 1559q4 73 0 149q94 -3 272 -3t272 3q-3 -74 0 -149q-94 3 -272 3t-272 -3zM797 117q192 0 272 141t80 451q0 322 -80 455.5t-272 133.5q-184 0 -268.5 -141.5t-84.5 -449.5q0 -323 77.5 -456.5t275.5 -133.5zM797 -39q-348 0 -527.5 189t-179.5 557q0 182 52 324.5
t146 234t223 139t286 47.5q350 0 527 -187t177 -556q0 -183 -52.5 -326.5t-147.5 -235t-222.5 -139t-281.5 -47.5z" />
    <glyph glyph-name="omacron" unicode="&#x14d;" horiz-adv-x="1103" 
d="M301 1102q4 73 0 149q94 -3 272.5 -3t272.5 3q-3 -75 0 -149q-94 3 -272.5 3t-272.5 -3zM72 463q0 257 128.5 386.5t352.5 129.5q226 0 353.5 -129t127.5 -387q0 -246 -129 -374t-352 -128q-226 0 -353.5 128t-127.5 374zM371 463q0 -94 8.5 -161t23 -108t38.5 -64.5
t50 -31.5t62 -8q44 0 74 14t56 52t39 114.5t13 192.5t-13 194t-38.5 120t-57 58.5t-75.5 16.5t-75 -16.5t-56 -58.5t-37 -120t-12 -194z" />
    <glyph glyph-name="Obreve" unicode="&#x14e;" horiz-adv-x="1591" 
d="M797 117q192 0 272 141t80 451q0 322 -80 455.5t-272 133.5q-184 0 -268.5 -141.5t-84.5 -449.5q0 -323 77.5 -456.5t275.5 -133.5zM797 -39q-348 0 -527.5 189t-179.5 557q0 182 52 324.5t146 234t223 139t286 47.5q350 0 527 -187t177 -556q0 -183 -52.5 -326.5
t-147.5 -235t-222.5 -139t-281.5 -47.5zM821 1532q-148 0 -223 85t-57 212l39 4q6 -82 66.5 -112.5t174.5 -30.5q115 0 175.5 30.5t66.5 112.5l39 -4q18 -128 -57 -212.5t-224 -84.5z" />
    <glyph glyph-name="obreve" unicode="&#x14f;" horiz-adv-x="1103" 
d="M72 463q0 257 128.5 386.5t352.5 129.5q226 0 353.5 -129t127.5 -387q0 -246 -129 -374t-352 -128q-226 0 -353.5 128t-127.5 374zM371 463q0 -94 8.5 -161t23 -108t38.5 -64.5t50 -31.5t62 -8q44 0 74 14t56 52t39 114.5t13 192.5t-13 194t-38.5 120t-57 58.5
t-75.5 16.5t-75 -16.5t-56 -58.5t-37 -120t-12 -194zM561 1081q-148 0 -223 85t-57 212l38 4q6 -82 67 -112.5t175 -30.5q115 0 175.5 30.5t66.5 112.5l39 -4q18 -128 -57 -212.5t-224 -84.5z" />
    <glyph glyph-name="Ohungarumlaut" unicode="&#x150;" horiz-adv-x="1591" 
d="M612 1532l-18 16q112 215 197 303q43 43 89.5 34t53.5 -49t-31 -87q-48 -49 -131.5 -111t-159.5 -106zM948 1532l-18 16q111 218 196 303q44 42 90.5 33.5t53.5 -48.5t-31 -87q-48 -49 -131.5 -111t-159.5 -106zM797 117q192 0 272 141t80 451q0 322 -80 455.5
t-272 133.5q-184 0 -268.5 -141.5t-84.5 -449.5q0 -323 77.5 -456.5t275.5 -133.5zM797 -39q-348 0 -527.5 189t-179.5 557q0 182 52 324.5t146 234t223 139t286 47.5q350 0 527 -187t177 -556q0 -183 -52.5 -326.5t-147.5 -235t-222.5 -139t-281.5 -47.5z" />
    <glyph glyph-name="ohungarumlaut" unicode="&#x151;" horiz-adv-x="1103" 
d="M371 1071l-19 16q113 217 197 304q43 43 90 34t54 -49.5t-31 -87.5q-48 -49 -131.5 -111t-159.5 -106zM707 1071l-19 16q111 218 197 304q26 25 55.5 32t50 -4t32.5 -29.5t6 -47t-32 -54.5q-48 -50 -131 -111.5t-159 -105.5zM72 463q0 257 128.5 386.5t352.5 129.5
q226 0 353.5 -129t127.5 -387q0 -246 -129 -374t-352 -128q-226 0 -353.5 128t-127.5 374zM371 463q0 -94 8.5 -161t23 -108t38.5 -64.5t50 -31.5t62 -8q44 0 74 14t56 52t39 114.5t13 192.5t-13 194t-38.5 120t-57 58.5t-75.5 16.5t-75 -16.5t-56 -58.5t-37 -120t-12 -194z
" />
    <glyph glyph-name="OE" unicode="&#x152;" horiz-adv-x="2285" 
d="M1690 987v43h135q-1 -40 -4 -94.5t-4.5 -103t-1.5 -115.5q0 -194 10 -324h-131v37q-3 124 -55 176.5t-181 52.5h-78q0 -330 4 -387q4 -62 33.5 -88t81.5 -26h250q164 0 232.5 86t68.5 284v23q14 -1 84.5 -1t83.5 1q-20 -220 -20 -559q-96 8 -404 8q-545 2 -584 2
q-2 0 -28 -0.5t-61.5 -1t-61.5 -0.5q-121 -41 -262 -41q-707 0 -707 748q0 187 51.5 330.5t146 234t223 136.5t286.5 46q163 0 288 -43q36 0 89 -1t55 -1q9 0 185.5 1t346.5 1q353 0 449 12q-16 -204 -12 -522h-154v12q0 102 -16.5 167.5t-54 103.5t-89.5 52.5t-133 14.5
h-258q-103 0 -109 -106q-4 -57 -4 -373h86q119 0 171.5 48.5t52.5 166.5zM797 117q243 0 264 147q11 73 11 446t-11 453q-14 133 -264 133q-186 0 -269.5 -136t-83.5 -453q0 -169 17 -278.5t59 -181t108.5 -101t168.5 -29.5z" />
    <glyph glyph-name="oe" unicode="&#x153;" horiz-adv-x="1705" 
d="M1624 281q-27 -148 -134 -234t-290 -86q-206 0 -321 100q-127 -100 -326 -100q-228 0 -354.5 126.5t-126.5 379.5q0 250 126.5 381t354.5 131q210 0 334 -115q124 115 317 115q118 0 205.5 -41t138.5 -115.5t72.5 -173.5t13.5 -219h-600q3 -176 48 -246.5t153 -70.5
q100 0 150.5 47t70.5 139q10 0 83 -9t85 -9zM371 467q0 -94 8.5 -161.5t23 -109t38.5 -65.5t50 -32.5t62 -8.5q43 0 73.5 14.5t56.5 53.5t39 116t13 193t-13 193.5t-38.5 118.5t-57 57t-75.5 16q-45 0 -75.5 -16t-55.5 -57t-37 -118.5t-12 -193.5zM1192 846q-53 0 -86 -30.5
t-51.5 -105.5t-20.5 -202h254q26 0 34.5 10.5t8.5 42.5q0 285 -139 285z" />
    <glyph glyph-name="Racute" unicode="&#x154;" horiz-adv-x="1615" 
d="M729 1524l-16 22q149 193 256 266q53 33 98.5 15.5t44 -59t-50.5 -80.5q-62 -41 -156.5 -88t-175.5 -76zM1274 383q14 -107 33 -164.5t40 -75.5t54 -18q58 0 71.5 81.5t-14.5 211.5q6 0 51 4t47 4q18 -75 21.5 -142t-10.5 -128t-46.5 -105t-91.5 -70t-141 -26t-141 18
t-97 49t-62 82.5t-35 109.5t-15 138q-5 84 -24 139.5t-52.5 84.5t-73 40t-96.5 11h-100q0 -281 6 -348q4 -65 33 -94t84 -29h84q-1 -12 -1 -80t1 -80q-330 4 -367 4l-366 -4q2 12 2 81t-2 81h86q65 0 95.5 28t33.5 93q5 82 5 434.5t-5 435.5q-3 60 -26 83t-79 23h-110
q2 25 2 80t-2 78q13 0 181 -2t202 -2q44 0 185 1t202 1q258 0 395 -96.5t137 -282.5q0 -149 -96.5 -246.5t-249.5 -115.5q123 -26 179.5 -96t72.5 -191zM598 1188q-6 -108 -6 -440h139q160 0 224.5 61t64.5 205q0 138 -58 197t-198 59h-86q-42 0 -60 -20.5t-20 -61.5z" />
    <glyph glyph-name="racute" unicode="&#x155;" horiz-adv-x="925" 
d="M432 1063l-16 22q151 195 256 267q53 33 98.5 15t44 -59t-50.5 -81q-62 -41 -156.5 -88t-175.5 -76zM666 883q-201 0 -201 -365v-268q0 -71 24.5 -95t90.5 -24h55q-1 -23 -1 -75t1 -62q-3 0 -118.5 3t-180.5 3q-47 0 -117.5 -1.5t-124 -3t-57.5 -1.5q1 11 1 63t-1 74h39
q65 2 87 25t23 92q3 83 2.5 235.5t-2.5 218.5q-3 64 -25.5 90.5t-88.5 26.5h-33q4 65 0 131q319 0 399 6l-18 -229q52 252 270 252q103 0 160 -55.5t57 -153.5q0 -83 -42 -128.5t-117 -45.5q-66 0 -104 34.5t-38 94.5q0 65 46.5 100.5t109.5 32.5q-41 25 -96 25z" />
    <glyph glyph-name="Rcommaaccent" unicode="&#x156;" horiz-adv-x="1615" 
d="M680 -530q112 26 169.5 87t57.5 152q-22 -55 -96 -55q-92 0 -92 106q0 52 34 85.5t89 33.5q62 0 93.5 -41.5t31.5 -109.5q0 -110 -72.5 -189.5t-204.5 -109.5zM1274 383q14 -107 33 -164.5t40 -75.5t54 -18q58 0 71.5 81.5t-14.5 211.5q6 0 51 4t47 4q18 -75 21.5 -142
t-10.5 -128t-46.5 -105t-91.5 -70t-141 -26t-141 18t-97 49t-62 82.5t-35 109.5t-15 138q-5 84 -24 139.5t-52.5 84.5t-73 40t-96.5 11h-100q0 -281 6 -348q4 -65 33 -94t84 -29h84q-1 -12 -1 -80t1 -80q-330 4 -367 4l-366 -4q2 12 2 81t-2 81h86q65 0 95.5 28t33.5 93
q5 82 5 434.5t-5 435.5q-3 60 -26 83t-79 23h-110q2 25 2 80t-2 78q13 0 181 -2t202 -2q44 0 185 1t202 1q258 0 395 -96.5t137 -282.5q0 -149 -96.5 -246.5t-249.5 -115.5q123 -26 179.5 -96t72.5 -191zM598 1188q-6 -108 -6 -440h139q160 0 224.5 61t64.5 205
q0 138 -58 197t-198 59h-86q-42 0 -60 -20.5t-20 -61.5z" />
    <glyph glyph-name="rcommaaccent" unicode="&#x157;" horiz-adv-x="925" 
d="M154 -530q112 26 169.5 87t57.5 152q-22 -55 -96 -55q-92 0 -92 106q0 52 33.5 85.5t88.5 33.5q62 0 93.5 -41.5t31.5 -109.5q0 -110 -72 -189.5t-204 -109.5zM666 883q-201 0 -201 -365v-268q0 -71 24.5 -95t90.5 -24h55q-1 -23 -1 -75t1 -62q-3 0 -118.5 3t-180.5 3
q-47 0 -117.5 -1.5t-124 -3t-57.5 -1.5q1 11 1 63t-1 74h39q65 2 87 25t23 92q3 83 2.5 235.5t-2.5 218.5q-3 64 -25.5 90.5t-88.5 26.5h-33q4 65 0 131q319 0 399 6l-18 -229q52 252 270 252q103 0 160 -55.5t57 -153.5q0 -83 -42 -128.5t-117 -45.5q-66 0 -104 34.5
t-38 94.5q0 65 46.5 100.5t109.5 32.5q-41 25 -96 25z" />
    <glyph glyph-name="Rcaron" unicode="&#x158;" horiz-adv-x="1615" 
d="M467 1837l16 21q61 -24 148.5 -79.5t140.5 -101.5q51 45 138 101.5t143 79.5l16 -21q-33 -75 -103 -155.5t-139 -139.5h-120q-61 49 -131 132.5t-109 162.5zM1274 383q14 -107 33 -164.5t40 -75.5t54 -18q58 0 71.5 81.5t-14.5 211.5q6 0 51 4t47 4q18 -75 21.5 -142
t-10.5 -128t-46.5 -105t-91.5 -70t-141 -26t-141 18t-97 49t-62 82.5t-35 109.5t-15 138q-5 84 -24 139.5t-52.5 84.5t-73 40t-96.5 11h-100q0 -281 6 -348q4 -65 33 -94t84 -29h84q-1 -12 -1 -80t1 -80q-330 4 -367 4l-366 -4q2 12 2 81t-2 81h86q65 0 95.5 28t33.5 93
q5 82 5 434.5t-5 435.5q-3 60 -26 83t-79 23h-110q2 25 2 80t-2 78q13 0 181 -2t202 -2q44 0 185 1t202 1q258 0 395 -96.5t137 -282.5q0 -149 -96.5 -246.5t-249.5 -115.5q123 -26 179.5 -96t72.5 -191zM598 1188q-6 -108 -6 -440h139q160 0 224.5 61t64.5 205
q0 138 -58 197t-198 59h-86q-42 0 -60 -20.5t-20 -61.5z" />
    <glyph glyph-name="rcaron" unicode="&#x159;" horiz-adv-x="925" 
d="M156 1376l16 21q61 -25 148.5 -79.5t140.5 -100.5q51 45 137.5 101t142.5 79l17 -21q-33 -75 -103 -155.5t-139 -139.5h-121q-61 49 -130.5 132t-108.5 163zM666 883q-201 0 -201 -365v-268q0 -71 24.5 -95t90.5 -24h55q-1 -23 -1 -75t1 -62q-3 0 -118.5 3t-180.5 3
q-47 0 -117.5 -1.5t-124 -3t-57.5 -1.5q1 11 1 63t-1 74h39q65 2 87 25t23 92q3 83 2.5 235.5t-2.5 218.5q-3 64 -25.5 90.5t-88.5 26.5h-33q4 65 0 131q319 0 399 6l-18 -229q52 252 270 252q103 0 160 -55.5t57 -153.5q0 -83 -42 -128.5t-117 -45.5q-66 0 -104 34.5
t-38 94.5q0 65 46.5 100.5t109.5 32.5q-41 25 -96 25z" />
    <glyph glyph-name="Sacute" unicode="&#x15a;" horiz-adv-x="1374" 
d="M672 1524l-17 22q149 193 256 266q53 33 99 15.5t44.5 -59t-50.5 -80.5q-62 -41 -156.5 -88t-175.5 -76zM676 1303q-151 0 -228 -53.5t-77 -137.5q0 -91 85 -134.5t298 -68.5q291 -32 423 -143.5t132 -329.5q0 -223 -150.5 -349t-413.5 -126q-120 0 -210.5 24t-182.5 76
q-110 65 -129 -75q-7 2 -67 2t-68 -2q38 243 18 483q9 -1 67 -1t67 1q46 -180 169.5 -269t333.5 -89q162 0 250 55.5t88 157.5q0 104 -98 153t-332 76q-512 55 -512 436q0 96 32.5 179t95 147t164 100.5t231.5 36.5q186 0 331 -74q37 -18 61.5 -22t38 6.5t19.5 25.5t10 42
q8 -2 65.5 -2t65.5 2q-21 -85 -26.5 -220.5t4.5 -226.5h-127q-45 164 -151 242t-277 78z" />
    <glyph glyph-name="sacute" unicode="&#x15b;" horiz-adv-x="954" 
d="M424 1063l-16 22q151 195 256 267q53 33 98.5 15t44 -59t-50.5 -81q-62 -41 -156.5 -88t-175.5 -76zM461 852q-93 0 -137.5 -32.5t-44.5 -78.5q0 -38 19.5 -60.5t76 -39.5t164.5 -29q356 -37 356 -323q0 -156 -94 -242t-283 -86q-146 0 -274 88q-24 16 -40.5 19
t-25.5 -8.5t-14 -27t-8 -42.5q-52 4 -99 0q24 195 13 354q50 -4 96 0q45 -120 130 -189t208 -69q90 0 136 32.5t46 86.5q0 32 -17 54t-71 40.5t-149 28.5q-105 10 -181.5 40.5t-118.5 76t-61.5 97.5t-19.5 113q0 145 110 236.5t289 87.5q121 -2 215 -66q38 -24 52.5 -14
t23.5 66q45 -4 90 0q-13 -150 -10 -308q-48 8 -97 0q-35 106 -106 150.5t-174 44.5z" />
    <glyph glyph-name="Scircumflex" unicode="&#x15c;" horiz-adv-x="1374" 
d="M971 1528l-17 -23q-60 25 -147 80.5t-139 102.5q-53 -46 -140.5 -102t-142.5 -79l-16 21q33 74 103.5 156t137.5 139h121q62 -50 132.5 -133t107.5 -162zM676 1303q-151 0 -228 -53.5t-77 -137.5q0 -91 85 -134.5t298 -68.5q291 -32 423 -143.5t132 -329.5
q0 -223 -150.5 -349t-413.5 -126q-120 0 -210.5 24t-182.5 76q-110 65 -129 -75q-7 2 -67 2t-68 -2q38 243 18 483q9 -1 67 -1t67 1q46 -180 169.5 -269t333.5 -89q162 0 250 55.5t88 157.5q0 104 -99 153.5t-331 75.5q-259 29 -385.5 137.5t-126.5 298.5q0 96 32.5 179
t95 147t164 100.5t231.5 36.5q186 0 331 -74q37 -18 61.5 -22t38 6.5t19.5 25.5t10 42q8 -2 65.5 -2t65.5 2q-21 -85 -26.5 -220.5t4.5 -226.5h-127q-45 164 -151 242t-277 78z" />
    <glyph glyph-name="scircumflex" unicode="&#x15d;" horiz-adv-x="954" 
d="M780 1081l-16 -22q-61 25 -148 80t-139 102q-52 -46 -139 -101.5t-143 -78.5l-17 20q33 74 103.5 155.5t138.5 139.5h121q62 -50 132 -133t107 -162zM461 852q-93 0 -137.5 -32.5t-44.5 -78.5q0 -38 19.5 -60.5t76 -39.5t164.5 -29q356 -37 356 -323q0 -156 -94 -242
t-283 -86q-146 0 -274 88q-24 16 -40.5 19t-25.5 -8.5t-14 -27t-8 -42.5q-52 4 -99 0q24 195 13 354q50 -4 96 0q45 -120 130 -189t208 -69q90 0 136 32.5t46 86.5q0 32 -17 54t-71 40.5t-149 28.5q-105 10 -181.5 40.5t-118.5 76t-61.5 97.5t-19.5 113q0 145 110 236.5
t289 87.5q121 -2 215 -66q38 -24 52.5 -14t23.5 66q45 -4 90 0q-13 -150 -10 -308q-48 8 -97 0q-35 106 -106 150.5t-174 44.5z" />
    <glyph glyph-name="Scedilla" unicode="&#x15e;" horiz-adv-x="1374" 
d="M582 -231l-25 43q58 31 90 66.5t45 84.5q-181 8 -340 98q-110 65 -129 -75q-7 2 -67 2t-68 -2q38 243 18 483q9 -1 67 -1t67 1q46 -180 169.5 -269t333.5 -89q162 0 250 55.5t88 157.5q0 104 -99 153.5t-331 75.5q-259 29 -385.5 137.5t-126.5 298.5q0 96 32.5 179
t95 147t164 100.5t231.5 36.5q186 0 331 -74q37 -18 61.5 -22t38 6.5t19.5 25.5t10 42q8 -2 65.5 -2t65.5 2q-21 -85 -26.5 -220.5t4.5 -226.5h-127q-45 164 -151 242t-277 78q-151 0 -228 -53.5t-77 -137.5q0 -91 85 -134.5t298 -68.5q291 -32 423 -143.5t132 -329.5
q0 -222 -147 -347t-406 -128q-14 -67 -64 -117q93 11 162.5 -30t69.5 -129q0 -91 -65 -143t-179 -52q-81 0 -136.5 36t-80.5 87l45 37q58 -74 137 -74q57 0 87 29.5t30 81.5q0 62 -55 86t-125 -4z" />
    <glyph glyph-name="scedilla" unicode="&#x15f;" horiz-adv-x="954" 
d="M350 -231l-24 43q59 33 90.5 68t44.5 85q-114 12 -217 84q-24 16 -40.5 19t-25.5 -8.5t-14 -27t-8 -42.5q-52 4 -99 0q24 195 13 354q50 -4 96 0q45 -120 130 -189t208 -69q90 0 136 32.5t46 86.5q0 50 -50 80t-187 43q-105 10 -181.5 41t-119 76.5t-61.5 97t-19 112.5
q0 145 110 236.5t289 87.5q121 -2 215 -66q38 -24 52.5 -14t23.5 66q45 -4 90 0q-13 -150 -10 -308q-48 8 -97 0q-35 106 -106 150.5t-174 44.5q-93 0 -137.5 -32.5t-44.5 -78.5q0 -38 19.5 -61t76.5 -40t164 -28q187 -21 271.5 -103t84.5 -220q0 -155 -92.5 -241
t-278.5 -87q-14 -68 -63 -117q92 11 161.5 -30t69.5 -129q0 -91 -64.5 -143t-178.5 -52q-81 0 -137 36t-81 87l45 37q58 -74 138 -74q57 0 86.5 29.5t29.5 81.5q0 62 -55 86t-125 -4z" />
    <glyph glyph-name="Scaron" unicode="&#x160;" horiz-adv-x="1374" 
d="M389 1837l17 21q60 -24 147 -79t141 -102q51 45 138 101.5t143 79.5l16 -21q-33 -75 -103 -156t-138 -139h-121q-61 49 -131 132.5t-109 162.5zM676 1303q-151 0 -228 -53.5t-77 -137.5q0 -91 85 -134.5t298 -68.5q291 -32 423 -143.5t132 -329.5q0 -223 -150.5 -349
t-413.5 -126q-120 0 -210.5 24t-182.5 76q-110 65 -129 -75q-7 2 -67 2t-68 -2q38 243 18 483q9 -1 67 -1t67 1q46 -180 169.5 -269t333.5 -89q162 0 250 55.5t88 157.5q0 104 -98 153t-332 76q-512 55 -512 436q0 96 32.5 179t95 147t164 100.5t231.5 36.5q186 0 331 -74
q37 -18 61.5 -22t38 6.5t19.5 25.5t10 42q8 -2 65.5 -2t65.5 2q-21 -85 -26.5 -220.5t4.5 -226.5h-127q-45 164 -151 242t-277 78z" />
    <glyph glyph-name="scaron" unicode="&#x161;" horiz-adv-x="954" 
d="M166 1376l16 21q61 -25 148.5 -79.5t140.5 -100.5q50 45 137.5 100.5t143.5 79.5l16 -21q-33 -75 -103 -155.5t-139 -139.5h-120q-61 49 -131 132.5t-109 162.5zM461 852q-93 0 -137.5 -32.5t-44.5 -78.5q0 -38 19.5 -60.5t76 -39.5t164.5 -29q356 -37 356 -323
q0 -156 -94 -242t-283 -86q-146 0 -274 88q-24 16 -40.5 19t-25.5 -8.5t-14 -27t-8 -42.5q-52 4 -99 0q24 195 13 354q50 -4 96 0q45 -120 130 -189t208 -69q90 0 136 32.5t46 86.5q0 32 -17 54t-71 40.5t-149 28.5q-105 10 -181.5 40.5t-118.5 76t-61.5 97.5t-19.5 113
q0 145 110 236.5t289 87.5q121 -2 215 -66q38 -24 52.5 -14t23.5 66q45 -4 90 0q-13 -150 -10 -308q-48 8 -97 0q-35 106 -106 150.5t-174 44.5z" />
    <glyph glyph-name="Tcommaaccent" unicode="&#x162;" horiz-adv-x="1478" 
d="M621 -231l-25 43q67 38 100.5 80.5t42.5 107.5l-379 -4v162h99q66 0 95 32t32 95q4 75 4 425t-4 541h-131q-104 0 -149 -48.5t-50 -143.5l-8 -191q-12 2 -85 2t-87 -2q4 102 1 276.5t-11 276.5q96 -8 350 -8h649q245 0 346 8q-8 -102 -11 -276.5t1 -276.5q-12 2 -84 2
t-84 -2l-8 191q-5 95 -50 143.5t-149 48.5h-135q-3 -187 -2.5 -540.5t4.5 -425.5q3 -64 29 -95.5t92 -31.5h104v-162q-184 4 -321 4q4 -86 -66 -156q93 11 162.5 -30t69.5 -129q0 -91 -65 -143t-179 -52q-81 0 -136.5 36t-80.5 87l45 37q58 -74 137 -74q57 0 87 29.5
t30 81.5q0 62 -54.5 86t-125.5 -4z" />
    <glyph glyph-name="tcommaaccent" unicode="&#x163;" horiz-adv-x="692" 
d="M256 -231l-25 43q60 33 93 70.5t45 88.5q-237 20 -234 316q4 328 4 534l-106 -2v109q133 7 204.5 101.5t96.5 285.5h115q-17 -135 -21 -375l211 12q-1 -10 -1 -67t1 -66l-213 2q0 -389 2 -495q1 -126 17.5 -170.5t58.5 -44.5q47 0 65.5 52t10.5 165l82 2q6 -79 -1 -139
t-31 -110t-74.5 -79t-125.5 -33q-7 -72 -63 -125q92 11 161.5 -30t69.5 -129q0 -91 -65 -143t-179 -52q-81 0 -136.5 36t-80.5 87l45 37q58 -74 137 -74q57 0 87 29.5t30 81.5q0 62 -55 86t-125 -4z" />
    <glyph glyph-name="Tcaron" unicode="&#x164;" horiz-adv-x="1478" 
d="M438 1837l17 21q60 -24 147 -79t141 -102q51 45 138 101.5t143 79.5l16 -21q-33 -75 -103 -156t-138 -139h-121q-61 49 -131 132.5t-109 162.5zM1026 1251h-135q-3 -187 -2.5 -540.5t4.5 -425.5q3 -64 29 -95.5t92 -31.5h104v-162q-242 4 -379 4l-379 -4v162h99
q66 0 95 32t32 95q4 75 4 425t-4 541h-131q-104 0 -149 -48.5t-50 -143.5l-8 -191q-12 2 -85 2t-87 -2q4 102 1 276.5t-11 276.5q96 -8 350 -8h649q245 0 346 8q-8 -102 -11 -276.5t1 -276.5q-12 2 -84 2t-84 -2l-8 191q-5 95 -50 143.5t-149 48.5z" />
    <glyph glyph-name="tcaron" unicode="&#x165;" horiz-adv-x="921" 
d="M578 1057q112 26 169.5 87t57.5 152q-22 -55 -96 -55q-44 0 -68.5 27t-24.5 80q0 52 34 85t89 33q62 0 93.5 -41.5t31.5 -109.5q0 -110 -72 -189.5t-204 -109.5zM580 328l82 2q4 -61 2 -115.5t-18.5 -99.5t-45 -77.5t-77.5 -50.5t-115 -18q-276 0 -273 318q4 328 4 534
l-106 -2v109q133 7 204.5 101.5t96.5 285.5h115q-17 -135 -21 -375l211 12q-1 -10 -1 -67t1 -66l-213 2q0 -389 2 -495q1 -125 17.5 -169t58.5 -46q47 0 65.5 52t10.5 165z" />
    <glyph glyph-name="Tbar" unicode="&#x166;" horiz-adv-x="1478" 
d="M1026 1251h-135q-4 -282 -4 -602l248 10v-112q-100 0 -248 8q4 -226 6 -270q3 -64 29 -95.5t92 -31.5h104v-162q-242 4 -379 4l-379 -4v162h99q66 0 95 32t32 95q1 15 1.5 52.5t1 104t1.5 115.5q-185 -10 -246 -10v112q64 0 246 -10q0 320 -4 602h-131q-104 0 -149 -48.5
t-50 -143.5l-8 -191q-12 2 -85 2t-87 -2q4 102 1 276.5t-11 276.5q96 -8 350 -8h649q245 0 346 8q-8 -102 -11 -276.5t1 -276.5q-12 2 -84 2t-84 -2l-8 191q-5 95 -50 143.5t-149 48.5z" />
    <glyph glyph-name="tbar" unicode="&#x167;" horiz-adv-x="692" 
d="M580 328l82 2q4 -61 2 -115.5t-18.5 -99.5t-45 -77.5t-77.5 -50.5t-115 -18q-276 0 -273 318q0 37 1 131.5t1 144.5l-104 -8v113q45 0 106 -6v159l-106 -2v109q133 7 204.5 101.5t96.5 285.5h115q-17 -135 -21 -375l211 12q-1 -10 -1 -67t1 -66l-213 2v-164l207 11v-113
q-43 4 -207 12q0 -186 2 -241q3 -127 19 -171t57 -44q47 0 65.5 52t10.5 165z" />
    <glyph glyph-name="Utilde" unicode="&#x168;" horiz-adv-x="1705" 
d="M252 561q0 6 0.5 85t1 162.5t0 178.5t-1.5 143q-2 68 -26.5 96.5t-82.5 28.5h-77q2 12 2 79t-2 79q229 -6 358 -6q76 0 217 3t145 3v-158h-86q-62 0 -91 -27.5t-29 -97.5q-2 -103 -2 -324.5t2 -250.5q6 -223 84 -316.5t243 -93.5q83 0 142.5 20.5t103 67.5t64.5 127
t22 195q4 358 0 575q-3 125 -119 125h-84v158q190 -6 301 -6q64 0 180 3t123 3v-158h-77q-108 0 -111 -125q-2 -95 -2 -196t1 -211.5t1 -159.5q0 -608 -580 -608q-317 0 -468.5 144.5t-151.5 461.5zM1133 1806l45 13q33 -99 11 -164.5t-74 -97t-122 -31.5q-67 0 -111 29
t-81 87q-37 56 -59 75.5t-56 19.5q-43 0 -59 -40.5t4 -137.5l-47 -13q-46 141 12.5 217t171.5 76q59 0 103.5 -26.5t86.5 -88.5q36 -53 60 -74.5t57 -21.5q44 0 60.5 41.5t-2.5 136.5z" />
    <glyph glyph-name="utilde" unicode="&#x169;" horiz-adv-x="1265" 
d="M1096 956q-2 -31 -9 -297q0 -283 3 -403q3 -126 104 -123h37v-133q-340 0 -420 -6v192q-74 -225 -313 -225q-69 0 -125.5 20.5t-102.5 64t-70.5 120.5t-23.5 182q6 245 0 342q-2 70 -24 99.5t-82 29.5h-35v133q184 -2 209 -2q124 0 217 6q-6 -111 -6 -301v-286
q0 -78 16 -132t43 -78.5t51 -34t51 -9.5q104 0 149.5 98t45.5 313v172q0 67 -31.5 94t-113.5 27h-25v133q219 -2 244 -2q161 0 211 6zM868 1346l45 12q46 -139 -13.5 -216t-170.5 -77q-67 0 -111 29.5t-81 87.5q-37 55 -58.5 74.5t-56.5 19.5q-43 0 -59 -40.5t4 -137.5
l-48 -13q-46 141 13 217t172 76q59 0 103.5 -26t86.5 -88q36 -53 60 -75t57 -22q44 0 60 42t-3 137z" />
    <glyph glyph-name="Umacron" unicode="&#x16a;" horiz-adv-x="1705" 
d="M252 561q0 6 0.5 85t1 162.5t0 178.5t-1.5 143q-2 68 -26.5 96.5t-82.5 28.5h-77q2 12 2 79t-2 79q229 -6 358 -6q76 0 217 3t145 3v-158h-86q-62 0 -91 -27.5t-29 -97.5q-2 -103 -2 -324.5t2 -250.5q6 -223 84 -316.5t243 -93.5q83 0 142.5 20.5t103 67.5t64.5 127
t22 195q4 358 0 575q-3 125 -119 125h-84v158q190 -6 301 -6q64 0 180 3t123 3v-158h-77q-108 0 -111 -125q-2 -95 -2 -196t1 -211.5t1 -159.5q0 -608 -580 -608q-317 0 -468.5 144.5t-151.5 461.5zM655 1559q4 73 0 149q94 -3 272.5 -3t272.5 3q-3 -75 0 -149
q-94 3 -272.5 3t-272.5 -3z" />
    <glyph glyph-name="umacron" unicode="&#x16b;" horiz-adv-x="1265" 
d="M1096 956q-2 -31 -9 -297q0 -283 3 -403q3 -126 104 -123h37v-133q-340 0 -420 -6v192q-74 -225 -313 -225q-69 0 -125.5 20.5t-102.5 64t-70.5 120.5t-23.5 182q6 245 0 342q-2 70 -24 99.5t-82 29.5h-35v133q184 -2 209 -2q124 0 217 6q-6 -111 -6 -301v-286
q0 -78 16 -132t43 -78.5t51 -34t51 -9.5q104 0 149.5 98t45.5 313v172q0 67 -31.5 94t-113.5 27h-25v133q219 -2 244 -2q161 0 211 6zM336 1102q4 73 0 149q94 -3 272.5 -3t272.5 3q-3 -75 0 -149q-94 3 -272.5 3t-272.5 -3z" />
    <glyph glyph-name="Ubreve" unicode="&#x16c;" horiz-adv-x="1705" 
d="M252 561q0 6 0.5 85t1 162.5t0 178.5t-1.5 143q-2 68 -26.5 96.5t-82.5 28.5h-77q2 12 2 79t-2 79q229 -6 358 -6q76 0 217 3t145 3v-158h-86q-62 0 -91 -27.5t-29 -97.5q-2 -103 -2 -324.5t2 -250.5q6 -223 84 -316.5t243 -93.5q83 0 142.5 20.5t103 67.5t64.5 127
t22 195q4 358 0 575q-3 125 -119 125h-84v158q190 -6 301 -6q64 0 180 3t123 3v-158h-77q-108 0 -111 -125q-2 -95 -2 -196t1 -211.5t1 -159.5q0 -608 -580 -608q-317 0 -468.5 144.5t-151.5 461.5zM920 1532q-148 0 -223.5 85t-57.5 212l39 4q6 -82 67 -112.5t175 -30.5
q115 0 175 30.5t66 112.5l39 -4q18 -128 -56.5 -212.5t-223.5 -84.5z" />
    <glyph glyph-name="ubreve" unicode="&#x16d;" horiz-adv-x="1265" 
d="M1096 956q-2 -31 -9 -297q0 -283 3 -403q3 -126 104 -123h37v-133q-340 0 -420 -6v192q-74 -225 -313 -225q-69 0 -125.5 20.5t-102.5 64t-70.5 120.5t-23.5 182q6 245 0 342q-2 70 -24 99.5t-82 29.5h-35v133q184 -2 209 -2q124 0 217 6q-6 -111 -6 -301v-286
q0 -78 16 -132t43 -78.5t51 -34t51 -9.5q104 0 149.5 98t45.5 313v172q0 67 -31.5 94t-113.5 27h-25v133q219 -2 244 -2q161 0 211 6zM586 1081q-148 0 -223.5 85t-57.5 212l39 4q6 -82 67 -112.5t175 -30.5q115 0 175 30.5t66 112.5l39 -4q18 -128 -56.5 -212.5
t-223.5 -84.5z" />
    <glyph glyph-name="Uring" unicode="&#x16e;" horiz-adv-x="1705" 
d="M1014 1706q0 48 -26 74t-70 26q-45 0 -71 -25.5t-26 -74.5q0 -50 26 -78.5t71 -28.5q43 0 69.5 28.5t26.5 78.5zM1094 1706q0 -82 -48 -131t-128 -49t-129.5 49.5t-49.5 130.5q0 80 47.5 128t128.5 48q80 0 129.5 -48.5t49.5 -127.5zM252 561q0 6 0.5 85t1 162.5t0 178.5
t-1.5 143q-2 68 -26.5 96.5t-82.5 28.5h-77q2 12 2 79t-2 79q229 -6 358 -6q76 0 217 3t145 3v-158h-86q-62 0 -91 -27.5t-29 -97.5q-2 -103 -2 -324.5t2 -250.5q6 -223 84 -316.5t243 -93.5q83 0 142.5 20.5t103 67.5t64.5 127t22 195q4 358 0 575q-3 125 -119 125h-84v158
q190 -6 301 -6q64 0 180 3t123 3v-158h-77q-108 0 -111 -125q-2 -95 -2 -196t1 -211.5t1 -159.5q0 -608 -580 -608q-317 0 -468.5 144.5t-151.5 461.5z" />
    <glyph glyph-name="uring" unicode="&#x16f;" horiz-adv-x="1265" 
d="M653 1253q0 48 -26 74.5t-70 26.5q-45 0 -70.5 -26t-25.5 -75q0 -50 25.5 -78t70.5 -28q44 0 70 28t26 78zM733 1253q0 -82 -48 -131t-128 -49t-129 49.5t-49 130.5q0 80 47.5 128.5t128.5 48.5q80 0 129 -49t49 -128zM1096 956q-2 -31 -9 -297q0 -283 3 -403
q3 -126 104 -123h37v-133q-340 0 -420 -6v192q-74 -225 -313 -225q-69 0 -125.5 20.5t-102.5 64t-70.5 120.5t-23.5 182q6 245 0 342q-2 70 -24 99.5t-82 29.5h-35v133q184 -2 209 -2q124 0 217 6q-6 -111 -6 -301v-286q0 -78 16 -132t43 -78.5t51 -34t51 -9.5
q104 0 149.5 98t45.5 313v172q0 67 -31.5 94t-113.5 27h-25v133q219 -2 244 -2q161 0 211 6z" />
    <glyph glyph-name="Uhungarumlaut" unicode="&#x170;" horiz-adv-x="1705" 
d="M252 561q0 6 0.5 85t1 162.5t0 178.5t-1.5 143q-2 68 -26.5 96.5t-82.5 28.5h-77q2 12 2 79t-2 79q229 -6 358 -6q76 0 217 3t145 3v-158h-86q-62 0 -91 -27.5t-29 -97.5q-2 -103 -2 -324.5t2 -250.5q6 -223 84 -316.5t243 -93.5q83 0 142.5 20.5t103 67.5t64.5 127
t22 195q4 358 0 575q-3 125 -119 125h-84v158q190 -6 301 -6q64 0 180 3t123 3v-158h-77q-108 0 -111 -125q-2 -95 -2 -196t1 -211.5t1 -159.5q0 -608 -580 -608q-317 0 -468.5 144.5t-151.5 461.5zM748 1532l-19 16q112 215 197 303q43 43 89.5 34t53.5 -49t-31 -87
q-48 -50 -131 -111.5t-159 -105.5zM1083 1532l-18 16q110 216 197 303q44 42 90 33.5t53 -48.5t-31 -87q-48 -49 -131.5 -111t-159.5 -106z" />
    <glyph glyph-name="uhungarumlaut" unicode="&#x171;" horiz-adv-x="1265" 
d="M1096 956q-2 -31 -9 -297q0 -283 3 -403q3 -126 104 -123h37v-133q-340 0 -420 -6v192q-74 -225 -313 -225q-69 0 -125.5 20.5t-102.5 64t-70.5 120.5t-23.5 182q6 245 0 342q-2 70 -24 99.5t-82 29.5h-35v133q184 -2 209 -2q124 0 217 6q-6 -111 -6 -301v-286
q0 -78 16 -132t43 -78.5t51 -34t51 -9.5q104 0 149.5 98t45.5 313v172q0 67 -31.5 94t-113.5 27h-25v133q219 -2 244 -2q161 0 211 6zM399 1071l-18 16q113 217 197 304q26 26 55.5 33t50 -4t32.5 -30t6 -47.5t-32 -54.5q-48 -49 -131.5 -111t-159.5 -106zM735 1071l-18 16
q112 220 196 304q44 42 90.5 33t53.5 -49t-31 -87q-48 -49 -131.5 -111t-159.5 -106z" />
    <glyph glyph-name="Uogonek" unicode="&#x172;" horiz-adv-x="1705" 
d="M252 561q0 6 0.5 85t1 162.5t0 178.5t-1.5 143q-2 68 -26.5 96.5t-82.5 28.5h-77q2 12 2 79t-2 79q229 -6 358 -6q76 0 217 3t145 3v-158h-86q-62 0 -91 -27.5t-29 -97.5q-2 -103 -2 -324.5t2 -250.5q6 -223 84 -316.5t243 -93.5q83 0 142.5 20.5t103 67.5t64.5 127
t22 195q4 358 0 575q-3 125 -119 125h-84v158q190 -6 301 -6q64 0 180 3t123 3v-158h-77q-108 0 -111 -125q-2 -95 -2 -196t1 -211.5t1 -159.5q0 -593 -551 -608q-55 -52 -55 -127q0 -56 33 -84.5t84 -28.5q56 0 91 35.5t44 102.5l57 -11q-3 -264 -244 -264
q-100 0 -160 50.5t-59 138.5q3 115 105 190q-278 17 -411.5 162t-133.5 442z" />
    <glyph glyph-name="uogonek" unicode="&#x173;" horiz-adv-x="1265" 
d="M1096 956q-2 -31 -9 -297q0 -283 3 -403q3 -126 104 -123h37v-133h-125q-119 -60 -119 -172q0 -56 33 -84.5t84 -28.5q56 0 91 35.5t44 102.5l57 -11q-3 -264 -243 -264q-100 0 -161 50.5t-58 138.5q3 151 174 233q-138 0 -197 -6v192q-74 -225 -313 -225
q-69 0 -125.5 20.5t-102.5 64t-70.5 120.5t-23.5 182q6 245 0 342q-2 70 -24 99.5t-82 29.5h-35v133q184 -2 209 -2q124 0 217 6q-6 -111 -6 -301v-286q0 -78 16 -132t43 -78.5t51 -34t51 -9.5q104 0 149.5 98t45.5 313v172q0 67 -31.5 94t-113.5 27h-25v133q219 -2 244 -2
q161 0 211 6z" />
    <glyph glyph-name="Wcircumflex" unicode="&#x174;" horiz-adv-x="2297" 
d="M1536 1542l-16 -22q-61 25 -148 80t-139 102q-52 -45 -139.5 -101t-143.5 -79l-16 20q33 74 103.5 155.5t138.5 139.5h120q62 -50 132.5 -133t107.5 -162zM1690 -12h-301q-36 143 -118.5 440t-135.5 471q-58 -175 -146 -472t-125 -439h-282q-49 196 -149.5 555.5
t-164.5 574.5q-23 75 -55.5 106t-101.5 31h-72v158q231 -6 362 -6q78 0 219 3t142 3v-158h-68q-64 0 -83.5 -31.5t-2.5 -105.5q31 -130 102.5 -390t120.5 -425q176 562 230 815q15 76 -3 106.5t-87 30.5h-39q2 12 2 79t-2 79q198 -6 309 -6q67 0 186 3t123 3v-158h-59
q-58 0 -77.5 -31.5t-2.5 -97.5q84 -344 227 -827q51 172 117.5 426.5t91.5 376.5q15 81 -4 117t-94 36h-37v158q181 -6 279 -6q56 0 159 3t109 3v-158h-70q-72 0 -111.5 -33t-66.5 -122q-49 -153 -165 -554.5t-156 -557.5z" />
    <glyph glyph-name="wcircumflex" unicode="&#x175;" horiz-adv-x="1728" 
d="M1223 1081l-17 -22q-60 25 -147 80t-139 102q-52 -45 -139.5 -101t-143.5 -79l-16 20q33 74 103.5 156t137.5 139h121q62 -50 132.5 -133t107.5 -162zM1026 -31q-90 317 -195 617q-115 -318 -200 -617q-17 1 -92.5 1t-94.5 -1q-75 252 -235 713q-28 80 -56.5 108.5
t-95.5 28.5h-22v133q180 -6 278 -6l281 6q-2 -10 -2 -67t2 -66h-23q-43 0 -64 -28.5t-5 -88.5q21 -82 64 -228t75 -236q118 337 141 448q6 36 6 65.5t-20.5 48.5t-62.5 19h-29v133q150 -6 246 -6l252 6v-133h-23q-99 0 -70 -117q18 -73 61.5 -220t76.5 -242q77 218 135 444
q38 135 -66 135h-33v133q148 -6 220 -6l219 6v-133h-41q-72 0 -112 -34t-73 -126q-47 -123 -124 -353t-109 -337q-22 1 -104.5 1t-104.5 -1z" />
    <glyph glyph-name="Ycircumflex" unicode="&#x176;" horiz-adv-x="1687" 
d="M1321 1108q-118 -200 -334 -621v-221q0 -64 22.5 -87t98.5 -23h119v-160q-261 4 -406 4l-407 -4v160h118q77 0 97 23t20 87v217q-222 443 -340 643q-41 69 -94 99t-143 30h-33v158q260 -6 407 -6l406 6v-158h-84q-154 0 -86 -155q62 -138 244 -453q134 241 227 453
q16 36 21.5 62t0.5 48t-29.5 33.5t-68.5 11.5h-63v158q204 -6 319 -6l316 6v-158h-47q-85 0 -137 -16.5t-81.5 -45t-62.5 -85.5zM1217 1542l-17 -22q-61 25 -148 80t-139 102q-52 -46 -139 -101.5t-143 -78.5l-17 20q33 74 103.5 155.5t138.5 139.5h121q62 -50 132.5 -133
t107.5 -162z" />
    <glyph glyph-name="ycircumflex" unicode="&#x177;" horiz-adv-x="1183" 
d="M801 709q14 51 -4 80.5t-66 29.5h-39v133q129 -6 238 -6l219 6q-1 -10 -1 -67t1 -66h-41q-71 0 -107 -26t-63 -86q-118 -279 -264 -703q-72 -208 -167.5 -301.5t-250.5 -93.5q-112 0 -169.5 51.5t-57.5 134.5q0 79 45.5 121.5t111.5 42.5q144 0 144 -131q0 -58 -44.5 -98
t-115.5 -37q38 -15 82 -15q113 0 189 86.5t141 298.5q-114 4 -150 0q-71 226 -239 644q-25 61 -56.5 86.5t-87.5 25.5h-29v133q158 -6 291 -6l295 6v-133h-37q-102 0 -71 -110q45 -152 155 -439q131 374 148 439zM938 1081l-16 -22q-61 25 -148 80t-139 102
q-52 -45 -139.5 -101t-143.5 -79l-16 20q33 74 103.5 155.5t138.5 139.5h120q62 -50 132.5 -133t107.5 -162z" />
    <glyph glyph-name="Ydieresis" unicode="&#x178;" horiz-adv-x="1687" 
d="M1321 1108q-118 -200 -334 -621v-221q0 -64 22.5 -87t98.5 -23h119v-160q-261 4 -406 4l-407 -4v160h118q77 0 97 23t20 87v217q-222 443 -340 643q-41 69 -94 99t-143 30h-33v158q260 -6 407 -6l406 6v-158h-84q-154 0 -86 -155q62 -138 244 -453q134 241 227 453
q16 36 21.5 62t0.5 48t-29.5 33.5t-68.5 11.5h-63v158q204 -6 319 -6l316 6v-158h-47q-85 0 -137 -16.5t-81.5 -45t-62.5 -85.5zM877 1663q0 -51 -32.5 -83t-84.5 -32q-51 0 -84 32t-33 83t33 83t84 32q52 0 84.5 -32t32.5 -83zM1227 1663q0 -51 -32.5 -83t-84.5 -32
q-51 0 -84 32t-33 83t33 83t84 32q52 0 84.5 -32t32.5 -83z" />
    <glyph glyph-name="Zacute" unicode="&#x179;" horiz-adv-x="1370" 
d="M649 1524l-16 22q149 193 256 266q53 33 98.5 15.5t44 -59t-50.5 -80.5q-62 -41 -156.5 -88t-175.5 -76zM66 0q2 10 2 75.5t-2 76.5q50 62 122.5 155.5t132 172t160 212t145.5 194t153 205.5t122 164h-270q-79 0 -129 -5t-94 -20.5t-68 -40.5t-41 -70t-23 -104t-6 -147
q-11 2 -79 2t-78 -2q6 90 7.5 275t-3.5 274q113 -4 436 -4h737v-153q-259 -326 -833 -1102h368q124 0 191.5 33.5t99 118.5t31.5 245h158q-6 -99 -7.5 -279.5t2.5 -281.5q-208 6 -399 6h-835z" />
    <glyph glyph-name="zacute" unicode="&#x17a;" horiz-adv-x="980" 
d="M467 1063l-16 22q151 195 256 267q53 33 98.5 15t44 -59t-50.5 -81q-62 -41 -156.5 -88t-175.5 -76zM596 0h-551q1 10 1 56t-1 57q96 127 257.5 352t266.5 379h-145q-120 0 -177 -58t-67 -211h-104q22 192 6 386q81 -9 342 -9h487q0 -7 2 -55t2 -55q-237 -311 -530 -736
h211q100 0 165 69t73 220h104q-29 -212 -8 -401q-158 6 -334 6z" />
    <glyph glyph-name="Zdotaccent" unicode="&#x17b;" horiz-adv-x="1370" 
d="M66 0q2 10 2 75.5t-2 76.5q50 62 122.5 155.5t132 172t160 212t145.5 194t153 205.5t122 164h-270q-79 0 -129 -5t-94 -20.5t-68 -40.5t-41 -70t-23 -104t-6 -147q-11 2 -79 2t-78 -2q6 90 7.5 275t-3.5 274q113 -4 436 -4h737v-153q-259 -326 -833 -1102h368
q124 0 191.5 33.5t99 118.5t31.5 245h158q-6 -99 -7.5 -279.5t2.5 -281.5q-208 6 -399 6h-835zM848 1698q0 -54 -34.5 -88.5t-88.5 -34.5q-51 0 -85 34.5t-34 88.5q0 52 34 86.5t85 34.5q54 0 88.5 -34t34.5 -87z" />
    <glyph glyph-name="zdotaccent" unicode="&#x17c;" horiz-adv-x="980" 
d="M596 0h-551q1 10 1 56t-1 57q96 127 257.5 352t266.5 379h-145q-120 0 -177 -58t-67 -211h-104q22 192 6 386q81 -9 342 -9h487q0 -7 2 -55t2 -55q-237 -311 -530 -736h211q100 0 165 69t73 220h104q-29 -212 -8 -401q-158 6 -334 6zM629 1237q0 -54 -34.5 -88.5
t-88.5 -34.5q-51 0 -85 34.5t-34 88.5q0 52 34 86.5t85 34.5q54 0 88.5 -34t34.5 -87z" />
    <glyph glyph-name="Zcaron" unicode="&#x17d;" horiz-adv-x="1370" 
d="M424 1837l16 21q61 -24 148.5 -79.5t140.5 -101.5q51 45 138 101.5t143 79.5l16 -21q-33 -75 -103 -155.5t-139 -139.5h-120q-61 49 -131 132.5t-109 162.5zM66 0q2 10 2 75.5t-2 76.5q50 62 122.5 155.5t132 172t160 212t145.5 194t153 205.5t122 164h-270
q-79 0 -129 -5t-94 -20.5t-68 -40.5t-41 -70t-23 -104t-6 -147q-11 2 -79 2t-78 -2q6 90 7.5 275t-3.5 274q113 -4 436 -4h737v-153q-259 -326 -833 -1102h368q124 0 191.5 33.5t99 118.5t31.5 245h158q-6 -99 -7.5 -279.5t2.5 -281.5q-208 6 -399 6h-835z" />
    <glyph glyph-name="zcaron" unicode="&#x17e;" horiz-adv-x="980" 
d="M227 1376l17 21q61 -24 148 -79t140 -101q50 45 137.5 100.5t143.5 79.5l16 -21q-33 -75 -103 -156t-138 -139h-121q-61 49 -131 132.5t-109 162.5zM596 0h-551q1 10 1 56t-1 57q96 127 257.5 352t266.5 379h-145q-120 0 -177 -58t-67 -211h-104q22 192 6 386
q81 -9 342 -9h487q0 -7 2 -55t2 -55q-237 -311 -530 -736h211q100 0 165 69t73 220h104q-29 -212 -8 -401q-158 6 -334 6z" />
    <glyph glyph-name="longs" unicode="&#x17f;" horiz-adv-x="708" 
d="M610 133v-139q-4 0 -115 3t-171 3q-45 0 -113 -1.5t-119.5 -3t-54.5 -1.5v139h59q81 0 88 94q4 109 3.5 367t-3.5 383q-7 230 87.5 339t287.5 109q136 0 215.5 -64t79.5 -161q0 -65 -36.5 -101t-100.5 -36q-60 0 -95.5 32t-35.5 87q0 56 35.5 87t97.5 31q14 0 20 -2
q-41 41 -110 41q-97 0 -139.5 -65t-32.5 -227l6 -91q-3 -116 -3.5 -368.5t3.5 -360.5q2 -46 20.5 -70t65.5 -24h61z" />
    <glyph glyph-name="florin" unicode="&#x192;" horiz-adv-x="1126" 
d="M225 737v109l187 -6q-2 143 22 253t65 176.5t99.5 108t117 57t126.5 15.5q136 0 208 -64t72 -165q0 -76 -37 -117t-106 -41q-60 0 -95.5 30t-35.5 83q0 116 135 116l35 -4q-40 62 -121 62q-29 0 -50 -3t-44 -11t-39 -24.5t-31.5 -41.5t-24.5 -63.5t-14.5 -89.5t-4.5 -121
t7 -156l224 6v-109l-215 6q12 -183 -5 -322.5t-55 -226t-98 -141t-126 -75.5t-147 -21q-127 0 -194.5 59t-67.5 150q0 66 37.5 106.5t104.5 40.5q55 0 86.5 -27.5t31.5 -76.5q0 -51 -31.5 -79t-86.5 -28q-37 0 -43 2q41 -59 139 -59q69 0 108.5 27.5t61.5 102.5t21 206
t-23 340q-2 6 -2 22z" />
    <glyph glyph-name="uni01B5" unicode="&#x1b5;" horiz-adv-x="1370" 
d="M66 0q2 10 2 75.5t-2 76.5q122 150 346 448q-147 -10 -205 -10v110q36 0 270 -12l424 567h-270q-79 0 -129 -5t-94 -20.5t-68 -40.5t-41 -70t-23 -104t-6 -147q-11 2 -79 2t-78 -2q6 90 7.5 275t-3.5 274q113 -4 436 -4h737v-153q-104 -131 -436 -570l201 10v-110
q-17 0 -264 14q-188 -247 -334 -446h368q124 0 191.5 33.5t99 118.5t31.5 245h158q-6 -99 -7.5 -279.5t2.5 -281.5q-208 6 -399 6h-835z" />
    <glyph glyph-name="uni01B6" unicode="&#x1b6;" horiz-adv-x="980" 
d="M596 0h-551q1 10 1 56t-1 57q50 64 188 256q-95 -23 -141 -31l-12 84l211 27q159 220 278 395h-145q-120 0 -177 -58t-67 -211h-104q22 192 6 386q81 -9 342 -9h487q0 -7 2 -55t2 -55q-128 -169 -233 -316q27 7 66.5 17t63.5 15.5t38 8.5l12 -82q-217 -32 -235 -34
q-118 -163 -242 -345h211q100 0 165 69t73 220h104q-29 -212 -8 -401q-158 6 -334 6z" />
    <glyph glyph-name="uni01FA" unicode="&#x1fa;" horiz-adv-x="1808" 
d="M1118 354l-28 82q-223 6 -533 2q-6 -17 -12 -34.5t-10.5 -33t-6.5 -20.5q-32 -92 -9.5 -142t110.5 -50h82q0 -8 -1 -81t-1 -81q-205 4 -322 4l-321 -4q2 12 2 81t-2 81h65q86 0 131.5 38.5t83.5 137.5q68 168 406 1091q98 -6 153 -6l152 6q58 -166 215 -566.5t211 -526.5
q43 -98 83 -136t101 -38h76v-162q-254 4 -395 4l-398 -4v162h86q151 0 82 196zM1049 551q-101 281 -230 612q-60 -161 -221 -612q231 -3 451 0zM776 1929l-16 23q149 193 256 266q53 33 98.5 15t44 -59t-50.5 -81q-62 -41 -156.5 -88t-175.5 -76zM1001 1706q0 48 -26 74
t-70 26q-45 0 -70.5 -25.5t-25.5 -74.5q0 -51 25.5 -79t70.5 -28q43 0 69.5 28.5t26.5 78.5zM1081 1706q0 -82 -48 -131t-128 -49t-129 49.5t-49 130.5q0 80 47.5 128t128.5 48q80 0 129 -48.5t49 -127.5z" />
    <glyph glyph-name="aringacute" unicode="&#x1fb;" horiz-adv-x="1107" 
d="M889 586v-350q0 -68 11 -92.5t34 -24.5q66 0 53 229l80 4q4 -75 0 -132t-18 -105.5t-39.5 -79.5t-66.5 -48.5t-97 -17.5q-191 0 -225 168q-97 -166 -293 -166q-134 0 -205.5 63t-71.5 181q0 293 561 326v73q0 137 -43 196.5t-170 59.5q-56 0 -110 -14q49 -10 75.5 -43.5
t26.5 -83.5q0 -63 -40.5 -99t-110.5 -36q-69 0 -109.5 37.5t-40.5 107.5q0 76 59 131.5t149 82t196 26.5q113 0 191.5 -26.5t122.5 -80t62.5 -122.5t18.5 -164zM459 121q117 0 153 131v227q-264 -26 -264 -223q0 -135 111 -135zM403 1477l-16 22q149 193 256 266
q53 33 98.5 15t44 -59t-50.5 -81q-61 -41 -155.5 -87.5t-176.5 -75.5zM604 1253q0 48 -26 74.5t-70 26.5q-45 0 -70.5 -26t-25.5 -75q0 -50 25.5 -78t70.5 -28q44 0 70 28t26 78zM684 1253q0 -82 -48 -131t-128 -49t-129 49.5t-49 130.5q0 80 47.5 128.5t128.5 48.5
q80 0 129 -49t49 -128z" />
    <glyph glyph-name="AEacute" unicode="&#x1fc;" horiz-adv-x="2220" 
d="M1341 1524l-16 22q149 193 256 266q53 33 98.5 15.5t44 -59t-50.5 -80.5q-62 -41 -156.5 -88t-175.5 -76zM2152 551q-20 -217 -20 -561q-96 8 -403 8q-545 2 -582 2q-243 0 -365 -4q2 12 2 81t-2 81h97q67 0 94.5 32t27.5 95q0 12 1 33t2 54.5t2 61.5q-197 3 -381 0
q-6 -12 -20 -42.5t-19 -41.5q-29 -62 -35.5 -102.5t16.5 -65t82 -24.5h64q-2 -16 -2 -162q-207 4 -324 4l-321 -4q2 12 2 81t-2 81h63q86 0 139.5 39t112.5 137q271 426 467 790q35 64 15.5 104t-87.5 40h-45v151q121 -10 432 -10q9 0 186 1t347 1q352 0 448 12
q-16 -238 -12 -522h-154v12q0 135 -31.5 209t-92 101.5t-168.5 27.5h-259q-54 0 -78.5 -26.5t-27.5 -79.5q-6 -86 -6 -373h104q109 0 157 50t48 165v43h135q-8 -238 -8 -313q0 -220 8 -324h-131v37q-2 124 -53.5 176.5t-181.5 52.5h-78q0 -301 6 -387q3 -62 32 -88t83 -26
h247q165 0 233.5 85.5t68.5 284.5v23q13 -1 83 -1t84 1zM684 547q161 -3 322 0q4 390 -7 569q-127 -211 -315 -569z" />
    <glyph glyph-name="aeacute" unicode="&#x1fd;" horiz-adv-x="1579" 
d="M698 1063l-16 22q151 195 256 267q53 33 98.5 15t44 -59t-50.5 -81q-62 -41 -156.5 -88t-175.5 -76zM1497 281q-27 -148 -134 -232t-290 -84q-305 0 -411 199q-39 -92 -121.5 -142.5t-202.5 -50.5q-141 0 -214 63.5t-73 186.5q0 285 559 320v82q0 245 -180 245
q-78 0 -139 -18q98 -18 98 -121q0 -63 -40.5 -99t-106.5 -36q-68 0 -109 38.5t-41 106.5q0 78 59 133.5t148 81t195 25.5q189 0 292 -96q107 96 291 96q118 0 205.5 -41t138.5 -115.5t72.5 -173.5t13.5 -219h-600q3 -176 48 -246.5t153 -70.5q100 0 150.5 47t70.5 139
q10 0 83 -9t85 -9zM1065 846q-53 0 -86 -30.5t-51.5 -105.5t-20.5 -202h254q26 0 34.5 10.5t8.5 42.5q0 285 -139 285zM616 303q-6 47 -6 94v82q-262 -26 -262 -223q0 -69 27 -99t80 -30q138 0 161 176z" />
    <glyph glyph-name="Oslashacute" unicode="&#x1fe;" horiz-adv-x="1591" 
d="M797 -39q-275 0 -445 117l-164 -164l-51 39l137 192q-184 187 -184 562q0 182 52 324.5t146 234t223 139t286 47.5q279 0 454 -125l172 178l45 -35l-143 -208q176 -185 176 -553q0 -183 -52.5 -326.5t-147.5 -235t-222.5 -139t-281.5 -47.5zM444 707q0 -207 29 -332
l305 352l309 399q-39 90 -110 131t-180 41q-184 0 -268.5 -141.5t-84.5 -449.5zM797 117q192 0 272 141t80 451q0 187 -27 313l-288 -326l-326 -422q39 -82 109 -119.5t180 -37.5zM725 1524l-16 22q149 193 256 266q53 33 98.5 15.5t44 -59t-50.5 -80.5q-62 -41 -156.5 -88
t-175.5 -76z" />
    <glyph glyph-name="oslashacute" unicode="&#x1ff;" horiz-adv-x="1103" 
d="M72 463q0 257 128.5 386.5t352.5 129.5q178 0 297 -82l125 137l33 -26l-103 -156q129 -135 129 -389q0 -246 -129 -374t-352 -128q-176 0 -295 78l-2 -2l-121 -125l-35 29l101 145q-129 129 -129 377zM735 463q0 94 -10 172l-154 -178l-178 -236q22 -76 60 -103.5
t100 -27.5q44 0 74 14t56 52t39 114.5t13 192.5zM371 463q0 -106 8 -166l162 192l168 226q-22 75 -61.5 106t-96.5 31q-44 0 -75 -16.5t-56 -58.5t-37 -120t-12 -194zM485 1063l-16 22q151 195 256 267q53 33 98.5 15t44 -59t-50.5 -81q-62 -41 -156.5 -88t-175.5 -76z" />
    <glyph glyph-name="Scommaaccent" unicode="&#x218;" horiz-adv-x="1374" 
d="M561 -530q112 26 169.5 87t57.5 152q-22 -55 -96 -55q-92 0 -92 106q0 52 34 85.5t89 33.5q62 0 93.5 -41.5t31.5 -109.5q0 -110 -72.5 -189.5t-204.5 -109.5zM676 1303q-151 0 -228 -53.5t-77 -137.5q0 -91 85 -134.5t298 -68.5q291 -32 423 -143.5t132 -329.5
q0 -223 -150.5 -349t-413.5 -126q-120 0 -210.5 24t-182.5 76q-110 65 -129 -75q-7 2 -67 2t-68 -2q38 243 18 483q9 -1 67 -1t67 1q46 -180 169.5 -269t333.5 -89q162 0 250 55.5t88 157.5q0 104 -99 153.5t-331 75.5q-259 29 -385.5 137.5t-126.5 298.5q0 96 32.5 179
t95 147t164 100.5t231.5 36.5q186 0 331 -74q37 -18 61.5 -22t38 6.5t19.5 25.5t10 42q8 -2 65.5 -2t65.5 2q-21 -85 -26.5 -220.5t4.5 -226.5h-127q-45 164 -151 242t-277 78z" />
    <glyph glyph-name="scommaaccent" unicode="&#x219;" horiz-adv-x="954" 
d="M328 -530q112 26 169.5 87t57.5 152q-22 -55 -96 -55q-92 0 -92 106q0 52 33.5 85.5t88.5 33.5q62 0 93.5 -41.5t31.5 -109.5q0 -110 -72 -189.5t-204 -109.5zM461 852q-93 0 -137.5 -32.5t-44.5 -78.5q0 -38 19.5 -60.5t76 -39.5t164.5 -29q356 -37 356 -323
q0 -156 -94 -242t-283 -86q-146 0 -274 88q-24 16 -40.5 19t-25.5 -8.5t-14 -27t-8 -42.5q-52 4 -99 0q24 195 13 354q50 -4 96 0q45 -120 130 -189t208 -69q90 0 136 32.5t46 86.5q0 32 -17 54t-71 40.5t-149 28.5q-105 10 -181.5 40.5t-118.5 76t-61.5 97.5t-19.5 113
q0 145 110 236.5t289 87.5q121 -2 215 -66q38 -24 52.5 -14t23.5 66q45 -4 90 0q-13 -150 -10 -308q-48 8 -97 0q-35 106 -106 150.5t-174 44.5z" />
    <glyph glyph-name="uni021A" unicode="&#x21a;" horiz-adv-x="1478" 
d="M573 -520q112 26 170 87t58 152q-22 -55 -96 -55q-44 0 -68.5 27t-24.5 80q0 52 34 85t89 33q62 0 93.5 -41.5t31.5 -109.5q0 -110 -72 -189.5t-204 -109.5zM1026 1251h-135q-3 -187 -2.5 -540.5t4.5 -425.5q3 -64 29 -95.5t92 -31.5h104v-162q-242 4 -379 4l-379 -4v162
h99q66 0 95 32t32 95q4 75 4 425t-4 541h-131q-104 0 -149 -48.5t-50 -143.5l-8 -191q-12 2 -85 2t-87 -2q4 102 1 276.5t-11 276.5q96 -8 350 -8h649q245 0 346 8q-8 -102 -11 -276.5t1 -276.5q-12 2 -84 2t-84 -2l-8 191q-5 95 -50 143.5t-149 48.5z" />
    <glyph glyph-name="uni021B" unicode="&#x21b;" horiz-adv-x="692" 
d="M213 -530q112 26 169.5 87t57.5 152q-22 -55 -96 -55q-92 0 -92 106q0 52 34 85.5t89 33.5q62 0 93.5 -41.5t31.5 -109.5q0 -110 -72.5 -189.5t-204.5 -109.5zM580 328l82 2q4 -61 2 -115.5t-18.5 -99.5t-45 -77.5t-77.5 -50.5t-115 -18q-276 0 -273 318q4 328 4 534
l-106 -2v109q133 7 204.5 101.5t96.5 285.5h115q-17 -135 -21 -375l211 12q-1 -10 -1 -67t1 -66l-213 2q0 -389 2 -495q1 -126 17.5 -170.5t58.5 -44.5q47 0 65.5 52t10.5 165z" />
    <glyph glyph-name="uni0237" unicode="&#x237;" horiz-adv-x="630" 
d="M123 -195q0 -49 -38 -85t-114 -25q44 -29 101 -29q77 0 114 52t37 186q0 38 1.5 252.5t2 348t-1.5 212.5q-6 102 -102 102h-45v131q346 0 426 6q-3 -54 -3 -231t1.5 -412t1.5 -299q0 -426 -367 -426q-128 0 -203 54t-75 147q0 64 36.5 99.5t102.5 35.5q58 0 91.5 -31.5
t33.5 -87.5z" />
    <glyph glyph-name="circumflex" unicode="&#x2c6;" horiz-adv-x="1089" 
d="M821 1092l-16 -23q-61 25 -148 80t-139 102q-52 -46 -139 -101.5t-143 -78.5l-17 21q33 74 103.5 155t138.5 139h121q62 -50 132 -132.5t107 -161.5z" />
    <glyph glyph-name="caron" unicode="&#x2c7;" horiz-adv-x="1089" 
d="M219 1386l17 21q61 -24 148 -79t140 -101q50 45 137.5 100.5t143.5 79.5l16 -21q-33 -75 -102.5 -155t-138.5 -139h-121q-62 49 -131.5 132t-108.5 162z" />
    <glyph glyph-name="breve" unicode="&#x2d8;" horiz-adv-x="1089" 
d="M526 1092q-148 0 -223 85t-57 212l39 4q6 -82 67 -113t174 -31q115 0 175.5 31t66.5 113l39 -4q18 -128 -57 -212.5t-224 -84.5z" />
    <glyph glyph-name="dotaccent" unicode="&#x2d9;" horiz-adv-x="1089" 
d="M686 1247q0 -54 -34.5 -88.5t-88.5 -34.5q-51 0 -85 34.5t-34 88.5q0 52 34 86.5t85 34.5q54 0 88.5 -34t34.5 -87z" />
    <glyph glyph-name="ring" unicode="&#x2da;" horiz-adv-x="1089" 
d="M653 1255q0 48 -26 74.5t-70 26.5q-45 0 -70.5 -26t-25.5 -75q0 -50 25.5 -78t70.5 -28q44 0 70 28t26 78zM733 1255q0 -82 -48 -131t-128 -49t-129 49.5t-49 130.5q0 80 47.5 128.5t128.5 48.5q80 0 129 -49t49 -128z" />
    <glyph glyph-name="ogonek" unicode="&#x2db;" horiz-adv-x="1089" 
d="M811 -158q-3 -264 -244 -264q-100 0 -160 50.5t-59 138.5q2 59 30 108.5t76 83.5t104.5 56.5t123.5 35.5l29 -18q-97 -26 -153 -78.5t-56 -126.5q0 -56 32.5 -84.5t83.5 -28.5q56 0 91.5 35.5t44.5 102.5z" />
    <glyph glyph-name="tilde" unicode="&#x2dc;" horiz-adv-x="1089" 
d="M784 1356l45 12q46 -139 -13.5 -216t-170.5 -77q-67 0 -111 29.5t-81 87.5q-37 55 -58.5 74.5t-56.5 19.5q-43 0 -59 -40.5t4 -137.5l-47 -12q-46 141 12.5 217t171.5 76q59 0 103.5 -26.5t86.5 -88.5q36 -53 60 -74.5t57 -21.5q44 0 60 41.5t-3 136.5z" />
    <glyph glyph-name="hungarumlaut" unicode="&#x2dd;" horiz-adv-x="1089" 
d="M236 1081l-19 17q112 215 197 303q26 26 55.5 33t50 -4t32.5 -30t6 -47.5t-32 -54.5q-48 -50 -131 -111.5t-159 -105.5zM571 1081l-18 17q110 216 197 303q26 25 55.5 32t50 -4t32.5 -29.5t6 -47t-32 -54.5q-48 -49 -131.5 -111t-159.5 -106z" />
    <glyph glyph-name="Wgrave" unicode="&#x1e80;" horiz-adv-x="2297" 
d="M1690 -12h-301q-36 143 -118.5 440t-135.5 471q-58 -175 -146 -472t-125 -439h-282q-49 196 -149.5 555.5t-164.5 574.5q-23 75 -55.5 106t-101.5 31h-72v158q231 -6 362 -6q78 0 219 3t142 3v-158h-68q-64 0 -83.5 -31.5t-2.5 -105.5q31 -130 102.5 -390t120.5 -425
q176 562 230 815q15 76 -3 106.5t-87 30.5h-39q2 12 2 79t-2 79q198 -6 309 -6q67 0 186 3t123 3v-158h-59q-58 0 -77.5 -31.5t-2.5 -97.5q84 -344 227 -827q51 172 117.5 426.5t91.5 376.5q15 81 -4 117t-94 36h-37v158q181 -6 279 -6q56 0 159 3t109 3v-158h-70
q-72 0 -111.5 -33t-66.5 -122q-49 -153 -165 -554.5t-156 -557.5zM1331 1556l-16 -22q-83 30 -178 76.5t-154 87.5q-52 35 -50.5 81t43.5 59.5t99 -15.5q97 -66 256 -267z" />
    <glyph glyph-name="wgrave" unicode="&#x1e81;" horiz-adv-x="1728" 
d="M1026 -31q-90 317 -195 617q-115 -318 -200 -617q-17 1 -92.5 1t-94.5 -1q-75 252 -235 713q-28 80 -56.5 108.5t-95.5 28.5h-22v133q180 -6 278 -6l281 6q-2 -10 -2 -67t2 -66h-23q-43 0 -64 -28.5t-5 -88.5q21 -82 64 -228t75 -236q118 337 141 448q6 36 6 65.5
t-20.5 48.5t-62.5 19h-29v133q150 -6 246 -6l252 6v-133h-23q-99 0 -70 -117q18 -73 61.5 -220t76.5 -242q77 218 135 444q38 135 -66 135h-33v133q148 -6 220 -6l219 6v-133h-41q-72 0 -112 -34t-73 -126q-47 -123 -124 -353t-109 -337q-22 1 -104.5 1t-104.5 -1z
M1038 1085l-16 -22q-83 30 -178 76.5t-154 87.5q-52 35 -50.5 81t43.5 59.5t99 -15.5q97 -66 256 -267z" />
    <glyph glyph-name="Wacute" unicode="&#x1e82;" horiz-adv-x="2297" 
d="M1083 1534l-16 22q151 195 256 267q53 33 98.5 15t44 -59t-50.5 -81q-62 -41 -156.5 -88t-175.5 -76zM1690 -12h-301q-36 143 -118.5 440t-135.5 471q-58 -175 -146 -472t-125 -439h-282q-49 196 -149.5 555.5t-164.5 574.5q-23 75 -55.5 106t-101.5 31h-72v158
q231 -6 362 -6q78 0 219 3t142 3v-158h-68q-64 0 -83.5 -31.5t-2.5 -105.5q31 -130 102.5 -390t120.5 -425q176 562 230 815q15 76 -3 106.5t-87 30.5h-39q2 12 2 79t-2 79q198 -6 309 -6q67 0 186 3t123 3v-158h-59q-58 0 -77.5 -31.5t-2.5 -97.5q84 -344 227 -827
q51 172 117.5 426.5t91.5 376.5q15 81 -4 117t-94 36h-37v158q181 -6 279 -6q56 0 159 3t109 3v-158h-70q-72 0 -111.5 -33t-66.5 -122q-49 -153 -165 -554.5t-156 -557.5z" />
    <glyph glyph-name="wacute" unicode="&#x1e83;" horiz-adv-x="1728" 
d="M815 1063l-16 22q151 195 256 267q53 33 98.5 15t44 -59t-50.5 -81q-62 -41 -156.5 -88t-175.5 -76zM1026 -31q-90 317 -195 617q-115 -318 -200 -617q-17 1 -92.5 1t-94.5 -1q-75 252 -235 713q-28 80 -56.5 108.5t-95.5 28.5h-22v133q180 -6 278 -6l281 6
q-2 -10 -2 -67t2 -66h-23q-43 0 -64 -28.5t-5 -88.5q21 -82 64 -228t75 -236q118 337 141 448q6 36 6 65.5t-20.5 48.5t-62.5 19h-29v133q150 -6 246 -6l252 6v-133h-23q-99 0 -70 -117q18 -73 61.5 -220t76.5 -242q77 218 135 444q38 135 -66 135h-33v133q148 -6 220 -6
l219 6v-133h-41q-72 0 -112 -34t-73 -126q-47 -123 -124 -353t-109 -337q-22 1 -104.5 1t-104.5 -1z" />
    <glyph glyph-name="Wdieresis" unicode="&#x1e84;" horiz-adv-x="2297" 
d="M1178 1663q0 -51 -32.5 -83t-84.5 -32q-51 0 -84 32t-33 83t33 83t84 32q52 0 84.5 -32t32.5 -83zM1528 1663q0 -51 -32.5 -83t-84.5 -32q-51 0 -84 32t-33 83t33 83t84 32q52 0 84.5 -32t32.5 -83zM1690 -12h-301q-36 143 -118.5 440t-135.5 471q-58 -175 -146 -472
t-125 -439h-282q-49 196 -149.5 555.5t-164.5 574.5q-23 75 -55.5 106t-101.5 31h-72v158q231 -6 362 -6q78 0 219 3t142 3v-158h-68q-64 0 -83.5 -31.5t-2.5 -105.5q31 -130 102.5 -390t120.5 -425q176 562 230 815q15 76 -3 106.5t-87 30.5h-39q2 12 2 79t-2 79
q198 -6 309 -6q67 0 186 3t123 3v-158h-59q-58 0 -77.5 -31.5t-2.5 -97.5q84 -344 227 -827q51 172 117.5 426.5t91.5 376.5q15 81 -4 117t-94 36h-37v158q181 -6 279 -6q56 0 159 3t109 3v-158h-70q-72 0 -111.5 -33t-66.5 -122q-49 -153 -165 -554.5t-156 -557.5z" />
    <glyph glyph-name="wdieresis" unicode="&#x1e85;" horiz-adv-x="1728" 
d="M872 1202q0 -51 -32 -83t-84 -32q-51 0 -84 32t-33 83t33 83t84 32q52 0 84 -32t32 -83zM1223 1202q0 -51 -32.5 -83t-84.5 -32q-51 0 -84 32t-33 83t33 83t84 32q52 0 84.5 -32t32.5 -83zM1026 -31q-90 317 -195 617q-115 -318 -200 -617q-17 1 -92.5 1t-94.5 -1
q-75 252 -235 713q-28 80 -56.5 108.5t-95.5 28.5h-22v133q180 -6 278 -6l281 6q-2 -10 -2 -67t2 -66h-23q-43 0 -64 -28.5t-5 -88.5q21 -82 64 -228t75 -236q118 337 141 448q6 36 6 65.5t-20.5 48.5t-62.5 19h-29v133q150 -6 246 -6l252 6v-133h-23q-99 0 -70 -117
q18 -73 61.5 -220t76.5 -242q77 218 135 444q38 135 -66 135h-33v133q148 -6 220 -6l219 6v-133h-41q-72 0 -112 -34t-73 -126q-47 -123 -124 -353t-109 -337q-22 1 -104.5 1t-104.5 -1z" />
    <glyph glyph-name="uni1E8A" unicode="&#x1e8a;" horiz-adv-x="1679" 
d="M905 330l-164 252q-30 -45 -86.5 -132t-72.5 -110q-52 -86 -36.5 -134t77.5 -48h59v-162q-202 4 -311 4l-305 -4q2 12 2 81t-2 81h43q125 0 206 53.5t162 171.5q14 21 56.5 83t81 119.5t61.5 96.5q-122 186 -285 422q-54 81 -110.5 116t-143.5 35h-51q2 12 2 79t-2 79
q3 0 80.5 -1t179 -2t162.5 -1l385 4q-1 -12 -1 -79t1 -79h-43q-67 0 -88 -45.5t20 -119.5q41 -71 179 -279q131 187 172 274q36 82 20 126t-78 44h-47v158q181 -4 283 -4l282 4q-1 -12 -1 -79t1 -79h-47q-31 0 -56.5 -2t-48 -9.5t-38 -12.5t-34 -20.5t-28 -23.5t-28 -31.5
t-26.5 -35.5t-30 -43q-32 -46 -126.5 -193.5t-108.5 -168.5q51 -77 281 -412q53 -78 108 -111.5t133 -33.5h68v-162q-260 4 -410 4l-393 -4q1 12 1 81t-1 81h55q38 0 59.5 18.5t19 58.5t-37.5 95zM1020 1694q0 -54 -34.5 -88.5t-88.5 -34.5q-51 0 -85 34.5t-34 88.5
q0 52 34 86.5t85 34.5q54 0 88.5 -34t34.5 -87z" />
    <glyph glyph-name="uni1E8B" unicode="&#x1e8b;" horiz-adv-x="1230" 
d="M637 252l-107 135l-114 -143q-36 -47 -23 -79t66 -32h30v-137q-149 4 -221 4l-233 -4v137h41q68 0 114.5 23t104.5 80q47 47 194 204l-225 279q-46 58 -81.5 79t-100.5 21h-27v133q193 -4 299 -4l324 4q-2 -10 -2 -67t2 -66h-35q-58 0 -69 -31.5t26 -87.5
q19 -30 109 -141l131 152q22 26 25 50.5t-15.5 41t-56.5 16.5h-39v133q128 -4 196 -4l228 4q-2 -10 -2 -67t2 -66h-52q-50 0 -83.5 -22t-104.5 -95q-13 -14 -84 -86.5t-104 -107.5l233 -289q71 -86 182 -86h31v-137q-204 4 -313 4l-318 -4v137h35q52 0 63 36t-26 83z
M788 1231q0 -54 -34 -88.5t-88 -34.5q-51 0 -85 34.5t-34 88.5q0 52 34 86.5t85 34.5q54 0 88 -34t34 -87z" />
    <glyph glyph-name="Ygrave" unicode="&#x1ef2;" horiz-adv-x="1687" 
d="M1321 1108q-118 -200 -334 -621v-221q0 -64 22.5 -87t98.5 -23h119v-160q-261 4 -406 4l-407 -4v160h118q77 0 97 23t20 87v217q-222 443 -340 643q-41 69 -94 99t-143 30h-33v158q260 -6 407 -6l406 6v-158h-84q-154 0 -86 -155q62 -138 244 -453q134 241 227 453
q16 36 21.5 62t0.5 48t-29.5 33.5t-68.5 11.5h-63v158q204 -6 319 -6l316 6v-158h-47q-85 0 -137 -16.5t-81.5 -45t-62.5 -85.5zM1012 1546l-17 -22q-82 29 -176.5 76t-154.5 88q-52 35 -50.5 80.5t43.5 59t99 -15.5q98 -67 256 -266z" />
    <glyph glyph-name="ygrave" unicode="&#x1ef3;" horiz-adv-x="1183" 
d="M801 709q14 51 -4 80.5t-66 29.5h-39v133q129 -6 238 -6l219 6q-1 -10 -1 -67t1 -66h-41q-71 0 -107 -26t-63 -86q-118 -279 -264 -703q-72 -208 -167.5 -301.5t-250.5 -93.5q-112 0 -169.5 51.5t-57.5 134.5q0 79 45.5 121.5t111.5 42.5q144 0 144 -131q0 -58 -44.5 -98
t-115.5 -37q38 -15 82 -15q113 0 189 86.5t141 298.5q-114 4 -150 0q-71 226 -239 644q-25 61 -56.5 86.5t-87.5 25.5h-29v133q158 -6 291 -6l295 6v-133h-37q-102 0 -71 -110q45 -152 155 -439q131 374 148 439zM780 1085l-16 -22q-83 30 -178 76.5t-154 87.5
q-52 35 -50.5 81t43.5 59.5t99 -15.5q97 -66 256 -267z" />
    <glyph glyph-name="uni2009" unicode="&#x2009;" horiz-adv-x="235" 
 />
    <glyph glyph-name="endash" unicode="&#x2013;" horiz-adv-x="1024" 
d="M51 403q4 98 0 201q461 -8 922 0q-4 -101 0 -201q-461 8 -922 0z" />
    <glyph glyph-name="emdash" unicode="&#x2014;" horiz-adv-x="2048" 
d="M51 403q4 98 0 201q973 -8 1946 0q-4 -100 0 -201q-973 8 -1946 0z" />
    <glyph glyph-name="quoteleft" unicode="&#x2018;" horiz-adv-x="522" 
d="M461 1382q-146 -20 -217.5 -100.5t-65.5 -198.5q29 56 105 56q53 0 84.5 -31.5t31.5 -91.5q0 -59 -39.5 -98t-105.5 -39q-69 0 -110.5 49t-41.5 151q0 42 9.5 84t35 88.5t63.5 83t101.5 63.5t143.5 34z" />
    <glyph glyph-name="quoteright" unicode="&#x2019;" horiz-adv-x="522" 
d="M61 930q148 20 220.5 101.5t60.5 195.5q-28 -51 -98 -51q-53 0 -86 31.5t-33 90.5q0 61 37.5 98.5t105.5 37.5q152 0 152 -201q0 -43 -8 -83t-31.5 -86t-61 -81.5t-101.5 -63.5t-148 -38z" />
    <glyph glyph-name="quotesinglbase" unicode="&#x201a;" horiz-adv-x="522" 
d="M61 -209q148 20 220.5 101.5t60.5 195.5q-28 -51 -98 -51q-53 0 -86 32t-33 91q0 60 37.5 97.5t105.5 37.5q152 0 152 -201q0 -43 -8 -83t-31.5 -86t-61 -81.5t-101.5 -63.5t-148 -38z" />
    <glyph glyph-name="quotedblleft" unicode="&#x201c;" horiz-adv-x="899" 
d="M461 1382q-146 -20 -217.5 -100.5t-65.5 -198.5q29 56 105 56q53 0 84.5 -31.5t31.5 -91.5q0 -59 -39.5 -98t-105.5 -39q-69 0 -110.5 49t-41.5 151q0 42 9.5 84t35 88.5t63.5 83t101.5 63.5t143.5 34zM838 1382q-146 -20 -217.5 -100.5t-65.5 -198.5q29 56 104 56
q53 0 85 -31.5t32 -91.5q0 -59 -39.5 -98t-105.5 -39q-69 0 -110.5 49t-41.5 151q0 42 9.5 84t34.5 88.5t63 83t101.5 63.5t143.5 34z" />
    <glyph glyph-name="quotedblright" unicode="&#x201d;" horiz-adv-x="899" 
d="M61 946q148 20 220.5 101.5t60.5 195.5q-28 -51 -98 -51q-53 0 -86 32t-33 91q0 61 37.5 98t105.5 37q152 0 152 -201q0 -43 -8 -83t-31.5 -86t-61 -81.5t-101.5 -63.5t-148 -38zM438 946q148 20 220.5 101.5t60.5 195.5q-28 -51 -98 -51q-53 0 -86 32t-33 91q0 61 37 98
t106 37q152 0 152 -201q0 -43 -8 -83.5t-32 -86t-61.5 -81t-101.5 -63.5t-148 -38z" />
    <glyph glyph-name="quotedblbase" unicode="&#x201e;" horiz-adv-x="897" 
d="M61 -209q148 20 220.5 101.5t60.5 195.5q-28 -51 -98 -51q-53 0 -86 32t-33 91q0 60 37.5 97.5t105.5 37.5q152 0 152 -201q0 -43 -8 -83t-31.5 -86t-61 -81.5t-101.5 -63.5t-148 -38zM436 -209q148 20 220.5 101.5t60.5 195.5q-28 -51 -99 -51q-53 0 -85.5 31.5
t-32.5 91.5t37 97.5t106 37.5q152 0 152 -201q0 -43 -8 -83.5t-32 -86t-61.5 -81t-101.5 -63.5t-148 -38z" />
    </font>
</defs>
</svg>
