<?xml version="1.0" standalone="no"?>
<!DOCTYPE svg PUBLIC "-//W3C//DTD SVG 1.1//EN" "http://www.w3.org/Graphics/SVG/1.1/DTD/svg11.dtd" >
<svg xmlns="http://www.w3.org/2000/svg" xmlns:xlink="http://www.w3.org/1999/xlink" version="1.1">
<metadata>
Created by FontForge 20170731 at Wed Sep  8 12:20:54 2021
 By Aleksey,,,
2014 published by FontShop International GmbH
</metadata>
<defs>
<font id="FranziskaPro-Extrabold" horiz-adv-x="1259" >
  <font-face 
    font-family="FranziskaPro-Extrabold"
    font-weight="750"
    font-stretch="normal"
    units-per-em="2048"
    panose-1="2 1 9 4 5 1 1 1 1 2"
    ascent="1612"
    descent="-436"
    x-height="1040"
    cap-height="1362"
    bbox="-1059 -569 3451 1995"
    underline-thickness="163"
    underline-position="-367"
    unicode-range="U+000D-1F44E"
  />
<missing-glyph horiz-adv-x="1497" 
d="M1282 1362v-1362h-1067v1362h1067zM1108 1202h-614l614 -913v913zM387 160h627l-627 930v-930z" />
    <glyph glyph-name="T_h" unicode="Th" horiz-adv-x="2398" 
d="M2386 123v-123h-569v123l84 47v516q0 76 -32.5 114t-103.5 38q-89 0 -170 -66v-631l99 -18v-123h-559v123l104 47h2v1016l-360 18v-1050l125 -19v-135h-670v135l160 47v1024l-185 -8l-59 -246h-199q-24 111 -24 256q0 76 10 144v10h1206q5 62 19 137q145 37 286 43
l45 -22v-271q0 -142 -26 -360h26q122 192 349 192q151 0 231 -86t80 -239v-615z" />
    <glyph glyph-name="T_k" unicode="Tk" horiz-adv-x="2371" 
d="M2357 141l-2 -108q-111 -58 -215 -58q-95 0 -154 34t-102 114q-47 89 -147 348h-142v-330l93 -18v-123h-553v123l104 47h2v1016l-360 18v-1050l125 -19v-135h-670v135l160 47v1024l-185 -8l-59 -246h-199q-24 111 -24 256q0 96 12 154h1204q5 62 19 137q145 37 286 43
l45 -22v-895h131q150 161 244 274l-139 16v125h500v-125l-162 -41q-99 -99 -189 -174q48 -80 146 -262t139 -254z" />
    <glyph glyph-name="T_l" unicode="Tl" horiz-adv-x="1716" 
d="M1694 123v-123h-559v123l104 47h2v1016l-360 18v-1050l125 -19v-135h-670v135l160 47v1024l-185 -8l-59 -246h-199q-24 111 -24 256q0 76 10 144v10h1206q5 62 19 137q145 37 286 43l45 -22v-1379z" />
    <glyph glyph-name="Tbar_h" unicode="&#x166;h" horiz-adv-x="2398" 
d="M2386 123v-123h-569v123l84 47v516q0 76 -32.5 114t-103.5 38q-89 0 -170 -66v-631l99 -18v-123h-559v123l104 47h2v1016l-360 18v-524h235v-154h-235v-372l125 -19v-135h-670v135l160 47v344h-242v154h242v526l-185 -8l-59 -246h-199q-24 111 -24 256q0 76 10 144v10
h1206q5 62 19 137q145 37 286 43l45 -22v-271q0 -142 -26 -360h26q122 192 349 192q151 0 231 -86t80 -239v-615z" />
    <glyph glyph-name="Tcaron_h" unicode="&#x164;h" horiz-adv-x="2398" 
d="M2386 123v-123h-569v123l84 47v516q0 76 -32.5 114t-103.5 38q-89 0 -170 -66v-631l99 -18v-123h-559v123l104 47h2v1016l-360 18v-1050l125 -19v-135h-670v135l160 47v1024l-185 -8l-59 -246h-199q-24 111 -24 256q0 76 10 144v10h1206q5 62 19 137q145 37 286 43
l45 -22v-271q0 -142 -26 -360h26q122 192 349 192q151 0 231 -86t80 -239v-615zM723 1675h22l191 164h143l-309 -375h-215l-256 301l205 107z" />
    <glyph glyph-name="f_b" unicode="fb" horiz-adv-x="1992" 
d="M1550 1081q180 0 272.5 -136t92.5 -374q0 -598 -604 -598q-225 0 -453 66v1321q-86 14 -143 14q-103 0 -151 -47t-48 -158v-129h156v-155h-156v-744l178 -18v-123h-647v123l115 47v711l-133 26v129l133 35v12q0 227 125.5 343t359.5 116q160 0 289 -61q126 53 229 61
l47 -22v-271q0 -183 -26 -360h24q122 192 340 192zM1337 123q112 0 154.5 87t42.5 282q0 139 -18.5 215.5t-51 103.5t-88.5 27q-91 0 -164 -66v-625q62 -24 125 -24z" />
    <glyph glyph-name="f_f" unicode="ff" horiz-adv-x="1433" 
d="M1333 1542q166 0 268.5 -55.5t102.5 -157.5q0 -72 -64 -129h-229l-25 209h-22q-74 0 -114 -39.5t-40 -146.5v-183h209v-155h-209v-744l179 -18v-123h-615v123l82 45v717h-340v-744l98 -18v-123h-567v123l115 47v711l-133 26v129l133 35v12q0 226 125 342.5t360 116.5
q199 0 350 -98q119 98 336 98zM516 1040h225l115 29v25q0 147 55 245q-95 35 -194 35q-106 0 -153.5 -47.5t-47.5 -161.5v-125z" />
    <glyph glyph-name="f_f_b" unicode="ffb" horiz-adv-x="2686" 
d="M2245 1081q180 0 272 -136t92 -374q0 -598 -604 -598q-225 0 -453 66v1321q-86 14 -143 14q-103 0 -151 -47t-48 -158v-129h158v-155h-158v-744h2l177 -18v-123h-646v123l113 47v711l-18 4h-322v-744l98 -18v-123h-567v123l115 47v711l-133 26v129l133 35v12
q0 226 125 342.5t360 116.5q206 0 352 -100q121 100 342 100q160 0 289 -61q126 53 230 61l47 -22v-271q0 -176 -27 -360h25q122 192 340 192zM516 1040h225l115 29v14q0 149 57 254q-93 37 -196 37q-106 0 -153.5 -47.5t-47.5 -161.5v-125zM2032 123q111 0 153.5 86.5
t42.5 282.5q0 139 -18 215.5t-50.5 103.5t-88.5 27q-91 0 -164 -66v-625q61 -24 125 -24z" />
    <glyph glyph-name="f_f_h" unicode="ffh" horiz-adv-x="2707" 
d="M2695 123v-123h-567v123l84 47v516q0 76 -33 114t-104 38q-91 0 -168 -66v-631l98 -18v-123h-539v123l86 47v1190q-86 14 -143 14q-103 0 -151 -47t-48 -158v-129h174v-155h-174v-744l101 -18v-123h-570v123l115 47v711l-18 4h-322v-744l98 -18v-123h-567v123l115 47v711
l-133 26v129l133 35v12q0 226 125 342.5t360 116.5q206 0 352 -100q121 100 342 100q160 0 289 -61q126 53 230 61l47 -22v-271q0 -133 -27 -360h25q122 192 350 192q151 0 231 -86t80 -239v-615zM516 1040h225l115 29v14q0 149 57 254q-93 37 -196 37q-106 0 -153.5 -47.5
t-47.5 -161.5v-125z" />
    <glyph glyph-name="f_f_i" unicode="ffi" horiz-adv-x="2058" 
d="M2036 123v-123h-568v123l84 47v670l-98 43h-244v-742l103 -18v-123h-539v123l82 45v713l-18 4h-322v-744l98 -18v-123h-567v123l115 47v711l-133 26v129l133 35v12q0 226 125 342.5t360 116.5q212 0 357 -102q134 102 413 102q218 0 354 -59t136 -162q0 -37 -18 -75
t-48 -64h-264l-25 190q-63 8 -122 8q-124 0 -172 -55.5t-48 -189.5v-95h414l236 35l47 -22v-910zM516 1040h225l115 29v14q0 158 57 254q-93 37 -196 37q-106 0 -153.5 -47.5t-47.5 -161.5v-125z" />
    <glyph glyph-name="f_f_j" unicode="ffj" horiz-adv-x="2039" 
d="M1860 1075l47 -22v-1030q0 -93 -32.5 -171t-91.5 -134t-135 -94.5t-169 -61.5l-64 65l137 189v1024l-98 43h-244v-742l176 -18v-123h-612v123l82 45v713l-18 4h-322v-744l98 -18v-123h-567v123l115 47v711l-133 26v129l133 35v12q0 226 125 342.5t360 116.5
q212 0 357 -102q134 102 413 102q143 0 253 -25.5t173.5 -76t63.5 -119.5q0 -38 -17 -75.5t-47 -63.5h-266l-25 190q-63 8 -122 8q-124 0 -172 -55.5t-48 -189.5v-95h412zM516 1040h225l115 29v14q0 158 57 254q-93 37 -196 37q-106 0 -153.5 -47.5t-47.5 -161.5v-125z" />
    <glyph glyph-name="f_f_k" unicode="ffk" horiz-adv-x="2682" 
d="M2669 141l-3 -108q-111 -58 -215 -58q-95 0 -154 34t-102 114q-40 70 -147 348h-141v-330l112 -18v-123h-553v123l86 47v1190q-86 14 -143 14q-103 0 -151 -47t-48 -158v-129h174v-155h-174v-744l101 -18v-123h-570v123l115 47v711l-18 4h-322v-744l98 -18v-123h-567v123
l115 47v711l-133 26v129l133 35v12q0 226 125 342.5t360 116.5q206 0 352 -100q121 100 342 100q160 0 289 -61q126 53 230 61l47 -22v-895h133q150 161 244 274l-140 16v125h500v-125l-164 -41q-100 -100 -188 -176q41 -64 85.5 -143.5t107.5 -199.5t91 -171zM516 1040h225
l115 29v14q0 149 57 254q-93 37 -196 37q-106 0 -153.5 -47.5t-47.5 -161.5v-125z" />
    <glyph glyph-name="f_f_l" unicode="ffl" horiz-adv-x="2058" 
d="M2036 123v-123h-570v123l86 47v1190q-86 14 -143 14q-103 0 -151 -47t-48 -158v-129h174v-155h-174v-744l101 -18v-123h-570v123l115 47v711l-18 4h-322v-744l98 -18v-123h-567v123l115 47v711l-133 26v129l133 35v12q0 226 125 342.5t360 116.5q206 0 352 -100
q121 100 342 100q160 0 289 -61q126 53 230 61l47 -22v-1379zM516 1040h225l115 29v14q0 149 57 254q-93 37 -196 37q-106 0 -153.5 -47.5t-47.5 -161.5v-125z" />
    <glyph glyph-name="f_h" unicode="fh" horiz-adv-x="2013" 
d="M2001 123v-123h-567v123l84 47v516q0 152 -138 152q-91 0 -168 -66v-631l99 -18v-123h-539v123l86 47v1190q-86 14 -143 14q-103 0 -151 -47t-48 -158v-129h172v-155h-172v-744l100 -18v-123h-569v123l115 47v711l-133 26v129l133 35v12q0 227 125.5 343t359.5 116
q160 0 289 -61q126 53 229 61l47 -22v-271q0 -142 -26 -360h24q122 192 351 192q151 0 231 -86t80 -239v-615z" />
    <glyph glyph-name="f_hbar" unicode="f&#x127;" horiz-adv-x="2015" 
d="M2003 123v-123h-569v123l84 47v516q0 152 -138 152q-91 0 -168 -66v-631l99 -18v-123h-539v123l86 47v1190q-86 14 -143 14q-103 0 -151 -47t-48 -158v-129h172v-155h-172v-744l100 -18v-123h-569v123l115 47v711l-133 26v129l133 35v12q0 227 125.5 343t359.5 116
q160 0 289 -61q126 53 229 61l47 -22v-146h297v-153h-297q-2 -139 -26 -332h24q122 192 351 192q151 0 231 -86t80 -239v-615z" />
    <glyph glyph-name="f_i" unicode="fi" horiz-adv-x="1363" 
d="M1341 123v-123h-567v123l84 47v670l-98 43h-244v-742l102 -18v-123h-571v123l115 47v711l-133 26v129l133 35v12q0 237 136.5 348t424.5 111q218 0 353.5 -59t135.5 -162q0 -37 -17.5 -75t-47.5 -64h-264l-25 190q-63 8 -123 8q-124 0 -171.5 -55.5t-47.5 -189.5v-95h414
l235 35l47 -22v-910z" />
    <glyph glyph-name="f_icircumflex" unicode="f&#xee;" horiz-adv-x="1366" 
d="M1343 123v-123h-569v123l84 45v672l-104 45h-238v-744l102 -18v-123h-571v123l115 47v711l-133 26v129l133 35v12q0 224 125 339.5t354 115.5q117 0 221 -33l51 88h215l191 -340l-207 -104l-151 205h-23l-125 -176h-139l110 190q-46 4 -63 4q-105 0 -155 -48t-50 -159
v-125h414l235 35l47 -22v-910h2z" />
    <glyph glyph-name="f_imacron" unicode="f&#x12b;" horiz-adv-x="1363" 
d="M1341 123v-123h-571v123l88 47v670l-98 43h-244v-742l102 -18v-123h-571v123l115 47v711l-133 26v129l133 35v23q0 223 130.5 335.5t356.5 112.5q209 0 303 -82h344q11 -46 11 -96q0 -52 -11 -102h-579l-19 145l-28 2q-74 0 -114 -39.5t-40 -146.5v-183h414l235 35
l47 -22v-910z" />
    <glyph glyph-name="f_iogonek" unicode="f&#x12f;" horiz-adv-x="1361" 
d="M1339 123v-123q-126 -32 -182.5 -76t-56.5 -106q0 -92 114 -92q52 0 105 16l16 -119q-121 -59 -262 -59q-132 0 -200 52t-68 138q0 164 244 221v25h-275v123l84 47v670l-98 43h-244v-742l102 -18v-123h-571v123l115 47v711l-133 26v129l133 35v12q0 237 136.5 348
t424.5 111q218 0 353.5 -59t135.5 -162q0 -37 -17.5 -75t-47.5 -64h-264l-25 190q-63 8 -123 8q-124 0 -171.5 -55.5t-47.5 -189.5v-95h414l235 35l47 -22v-910z" />
    <glyph glyph-name="f_j" unicode="fj" horiz-adv-x="1345" 
d="M1165 1075l47 -22v-1030q0 -93 -32.5 -171t-91.5 -134t-135 -94.5t-169 -61.5l-63 65l137 189v1024l-98 43h-244v-742l176 -18v-123h-645v123l115 47v711l-133 26v129l133 35v12q0 237 136.5 348t424.5 111q143 0 253 -25.5t173 -76t63 -119.5q0 -85 -63 -139h-266
l-25 190q-63 8 -123 8q-124 0 -171.5 -55.5t-47.5 -189.5v-95h412z" />
    <glyph glyph-name="f_k" unicode="fk" horiz-adv-x="1988" 
d="M1974 141l-2 -108q-111 -58 -215 -58q-95 0 -154 34t-102 114q-40 70 -147 348h-142v-330l113 -18v-123h-553v123l86 47v1190q-86 14 -143 14q-103 0 -151 -47t-48 -158v-129h172v-155h-172v-744l100 -18v-123h-569v123l115 47v711l-133 26v129l133 35v12
q0 227 125.5 343t359.5 116q160 0 289 -61q126 53 229 61l47 -22v-895h134q141 151 243 274l-139 16v125h500v-125l-164 -41q-94 -94 -189 -176q41 -64 85 -142t109.5 -202t90.5 -170z" />
    <glyph glyph-name="f_l" unicode="fl" horiz-adv-x="1363" 
d="M1341 123v-123h-569v123l86 47v1190q-86 14 -143 14q-103 0 -151 -47t-48 -158v-129h172v-155h-172v-744l100 -18v-123h-569v123l115 47v711l-133 26v129l133 35v12q0 227 125.5 343t359.5 116q160 0 289 -61q126 53 229 61l47 -22v-1379z" />
    <glyph glyph-name="f_lacute" unicode="f&#x13a;" horiz-adv-x="1363" 
d="M1178 1522h-172l81 319h166q33 -22 62.5 -61t46.5 -84zM1212 141l129 -18v-123h-569v123l86 47v1178q-87 24 -151 24q-96 0 -143.5 -48.5t-47.5 -154.5v-129h172v-155h-172v-744l100 -18v-123h-569v123l115 47v711l-133 26v129l133 35v12q0 225 125.5 340t349.5 115
q109 0 187.5 -26t150.5 -72q92 16 190 20l47 -22v-1297z" />
    <glyph glyph-name="f_lcaron" unicode="f&#x13e;" horiz-adv-x="1693" 
d="M1341 123v-123h-569v123l86 47v1190q-86 14 -143 14q-103 0 -151 -47t-48 -158v-129h172v-155h-172v-744l100 -18v-123h-569v123l115 47v711l-133 26v129l133 35v12q0 227 125.5 343t359.5 116q160 0 289 -61q126 53 229 61l47 -22v-1379zM1503 1542q95 0 187 -51
q0 -281 -215 -487h-164l63 309v215q61 14 129 14z" />
    <glyph glyph-name="uni021A_h" unicode="&#x21a;h" horiz-adv-x="2398" 
d="M2386 123v-123h-569v123l84 47v516q0 76 -32.5 114t-103.5 38q-89 0 -170 -66v-631l99 -18v-123h-559v123l104 47h2v1016l-360 18v-1050l125 -19v-135h-670v135l160 47v1024l-185 -8l-59 -246h-199q-24 111 -24 256q0 76 10 144v10h1206q5 62 19 137q145 37 286 43
l45 -22v-271q0 -142 -26 -360h26q122 192 349 192q151 0 231 -86t80 -239v-615zM670 -86q84 0 139 -16q39 -64 39 -144q0 -227 -287 -268l-37 82q72 28 100.5 47.5t28.5 50.5q0 17 -2 29l-110 8l-9 195q68 16 138 16z" />
    <glyph glyph-name="uni030A_acutecomb" unicode="&#x30a;&#x301;" horiz-adv-x="2" 
d="M-352 1923h190q66 -51 103 -139l-277 -182h-139zM-385 1544q260 0 260 -192q0 -107 -79 -163t-222 -56q-139 0 -204.5 50.5t-65.5 141.5q0 110 85 164.5t226 54.5zM-410 1438q-40 0 -58.5 -23.5t-18.5 -75.5t18 -76t57 -24q80 0 80 102q0 97 -78 97z" />
    <glyph glyph-name=".notdef" horiz-adv-x="1497" 
d="M1282 1362v-1362h-1067v1362h1067zM1108 1202h-614l614 -913v913zM387 160h627l-627 930v-930z" />
    <glyph glyph-name=".null" horiz-adv-x="0" 
 />
    <glyph glyph-name="nonmarkingreturn" horiz-adv-x="682" 
 />
    <glyph glyph-name="CR" unicode="&#xd;" horiz-adv-x="512" 
 />
    <glyph glyph-name="space" unicode=" " horiz-adv-x="512" 
 />
    <glyph glyph-name="exclam" unicode="!" horiz-adv-x="659" 
d="M477 1368l45 -49q0 -80 -4.5 -167t-10 -150.5t-18 -160t-18.5 -140.5t-22.5 -151t-20.5 -136h-199q-4 27 -20.5 137.5t-22.5 153.5t-18.5 142t-18 162.5t-10 151.5t-4.5 168q142 39 342 39zM305 289q119 0 180 -27q23 -45 23 -102q0 -111 -76 -187l-268 27l-8 272
q70 17 149 17z" />
    <glyph glyph-name="quotedbl" unicode="&#x22;" horiz-adv-x="1114" 
d="M993 1475l-69 -533h-228l-73 551q142 39 323 39zM487 1475l-69 -533h-228l-73 551q142 39 323 39z" />
    <glyph glyph-name="numbersign" unicode="#" horiz-adv-x="1251" 
d="M981 711l-27 -213h185v-232l-217 -43l-31 -250h-121l-43 37l27 221h-346l-31 -258h-121l-43 37l27 221h-193v230l225 45l27 213h-186v231l219 43l30 252h123l41 -37l-26 -223h346l31 260h122l41 -37l-26 -223h190v-229zM786 498l27 221h-346l-27 -221h346z" />
    <glyph glyph-name="dollar" unicode="$" horiz-adv-x="1142" 
d="M645 766l96 -41q82 -35 134.5 -65.5t95 -71.5t61.5 -93t19 -120q0 -169 -113 -263t-309 -114l8 -252l-135 -22l-43 24l10 248q-175 8 -283 72t-108 180q0 98 78 155h213l32 -268q29 -5 74 -8l12 348l-96 41q-137 59 -206.5 145t-69.5 209q0 155 102 249t287 116l-8 240
l135 22l45 -24l-10 -232q176 -8 286.5 -72.5t110.5 -181.5q0 -102 -78 -158h-213l-33 271q-58 4 -80 4zM424 969q0 -51 22 -84.5t72 -61.5l-10 269q-84 -28 -84 -123zM614 422l9 -281q90 32 90 131q0 57 -25 90.5t-74 59.5z" />
    <glyph glyph-name="percent" unicode="%" horiz-adv-x="1847" 
d="M1389 1255l20 -45q-57 -87 -209.5 -306t-224.5 -329q-72 -112 -200 -333t-173 -295l-127 41l-22 47q44 65 128.5 187.5t154.5 225t126 189.5q78 121 233.5 383.5t164.5 277.5zM457 1262q173 0 261.5 -99.5t88.5 -265.5q0 -187 -105 -290t-282 -103q-174 0 -261 97.5
t-87 264.5q0 188 104.5 292t280.5 104zM440 1153q-65 0 -86.5 -60t-21.5 -212q0 -153 21.5 -212t86.5 -59q64 0 86.5 60t22.5 211q0 150 -22.5 211t-86.5 61zM1423 729q174 0 262.5 -98.5t88.5 -263.5q0 -187 -106.5 -290.5t-283.5 -103.5q-173 0 -259.5 97.5t-86.5 265.5
q0 187 104 290t281 103zM1421 623q-65 0 -86.5 -61.5t-21.5 -213.5q0 -151 21.5 -209.5t86.5 -58.5q64 0 86.5 59t22.5 209q0 151 -22.5 213t-86.5 62z" />
    <glyph glyph-name="ampersand" unicode="&#x26;" horiz-adv-x="1665" 
d="M1659 145l-4 -112q-59 -31 -109.5 -44.5t-134.5 -13.5q-184 0 -385 150q-94 -77 -198.5 -114.5t-260.5 -37.5q-90 0 -166 12.5t-142.5 40.5t-112.5 70t-72.5 104.5t-26.5 141.5q0 305 381 358q-127 184 -127 347q0 165 124.5 253.5t332.5 88.5q178 0 280.5 -69.5
t102.5 -211.5q0 -119 -76 -212.5t-231 -125.5q131 -152 315 -299q29 110 29 315q169 37 430 37v-200h-230q-22 -117 -133 -228q151 -112 305 -215zM786 1239q-114 0 -114 -131q0 -118 106 -266q121 99 121 254q0 143 -113 143zM410 397q0 -128 66 -191t183 -63q133 0 261 68
q-283 228 -426 405q-84 -90 -84 -219z" />
    <glyph glyph-name="quotesingle" unicode="'" horiz-adv-x="608" 
d="M487 1475l-69 -533h-228l-73 551q142 39 323 39z" />
    <glyph glyph-name="parenleft" unicode="(" horiz-adv-x="735" 
d="M510 1559l113 -54q-108 -222 -160.5 -444t-52.5 -483t52.5 -483.5t160.5 -444.5l-113 -53q-133 118 -224 290t-129 344t-38 347t38 347t129 344t224 290z" />
    <glyph glyph-name="parenright" unicode=")" horiz-adv-x="735" 
d="M113 1505l112 54q133 -118 224 -290t129 -344t38 -347t-38 -347t-129 -344t-224 -290l-112 53q108 222 160.5 444.5t52.5 483.5t-52.5 483t-160.5 444z" />
    <glyph glyph-name="asterisk" unicode="*" horiz-adv-x="1028" 
d="M401 1616h230q10 -45 10 -84q0 -100 -74 -256h-102q-74 156 -74 256q0 39 10 84zM61 1208l72 215q16 -1 82 -16q43 -12 92.5 -43t73.5 -50.5t63 -53.5l-30 -95q-2 0 -23 -2t-27.5 -2.5t-27.5 -2t-32 -1.5h-31.5t-34.5 1t-32.5 3t-35.5 6t-33 9q-31 7 -76 32zM895 1423
l72 -215q-29 -15 -78 -32q-88 -30 -273 -13l-32 97q2 2 15.5 13t18.5 15.5t19 15.5t21.5 17t22 16.5t25 16.5t25.5 15t27.5 15t27.5 12t29 11q28 8 80 16zM420 1143l82 -62q-24 -149 -96 -247q-22 -31 -56 -62l-186 131q12 32 41 74q12 16 26.5 31.5t33 30.5t31.5 25
t35.5 24.5t31 20t32 19.5t25.5 15zM526 1081l82 62q113 -68 162 -112q32 -29 53 -58q25 -32 41 -72l-186 -131q-29 23 -57 59q-57 81 -95 252z" />
    <glyph glyph-name="plus" unicode="+" 
d="M1161 520h-418v-407h-229v407h-414v191h414v407h229v-407h418v-191z" />
    <glyph glyph-name="comma" unicode="," horiz-adv-x="610" 
d="M293 362q75 0 145 -20q66 -94 66 -223q0 -188 -114.5 -318.5t-321.5 -160.5l-31 94q233 88 233 227q0 13 -4 37l-123 10l-10 330q76 24 160 24z" />
    <glyph glyph-name="hyphen" unicode="-" horiz-adv-x="714" 
d="M637 510h-559v211h559v-211z" />
    <glyph glyph-name="period" unicode="." horiz-adv-x="606" 
d="M326 377q86 0 139 -17q37 -59 37 -153q0 -119 -62 -207h-295l-41 334q101 43 222 43z" />
    <glyph glyph-name="slash" unicode="/" horiz-adv-x="653" 
d="M621 1440l-400 -1813h-149l-39 35l397 1813h152z" />
    <glyph glyph-name="zero" unicode="0" horiz-adv-x="1325" 
d="M694 1260q139 0 244.5 -44.5t170.5 -126.5t97.5 -193t32.5 -249q0 -323 -164.5 -498.5t-443.5 -175.5q-139 0 -244.5 45t-170.5 128t-97.5 194t-32.5 248q0 322 164 497t444 175zM662 1110q-101 0 -138 -109.5t-37 -379.5q0 -274 37.5 -386t137.5 -112q103 0 139.5 111
t36.5 387q0 272 -36.5 380.5t-139.5 108.5z" />
    <glyph glyph-name="one" unicode="1" horiz-adv-x="864" 
d="M831 123v-123h-774v123l215 47v745q-74 -8 -215 -8v168q103 5 218 52t176 128l176 -12v-1102z" />
    <glyph glyph-name="two" unicode="2" horiz-adv-x="1101" 
d="M864 399l166 -8q21 -73 21 -164q0 -136 -31 -227h-963l-12 164q60 48 97 79t96 82t97.5 91t86.5 93t78.5 101.5t58.5 103.5t41.5 112t13.5 114q0 93 -38.5 132.5t-116.5 39.5q-42 0 -78 -8l-39 -324h-227q-78 59 -78 168q0 136 142 225t358 89q221 0 350 -95t129 -254
q0 -77 -34 -151t-92 -139.5t-152 -136t-196.5 -132.5t-242.5 -137l8 -20q169 34 301 47l232 22z" />
    <glyph glyph-name="three" unicode="3" horiz-adv-x="1148" 
d="M745 584v-25q144 -20 232 -96t88 -215q0 -187 -157.5 -302.5t-418.5 -115.5q-128 0 -227 27.5t-159 86.5t-60 142q0 96 70 166h223l33 -266q47 -6 94 -6t81 9t65 34t47 76.5t16 129.5q0 61 -11 103.5t-38.5 77.5t-80.5 52t-132 17h-54v156h152q117 111 117 293
q0 103 -38.5 143.5t-121.5 40.5q-38 0 -76 -6l-31 -262h-221q-34 33 -52.5 66t-18.5 81q0 129 131 200t338 71q221 0 352 -88.5t131 -270.5q0 -137 -72.5 -212t-200.5 -107z" />
    <glyph glyph-name="four" unicode="4" horiz-adv-x="1157" 
d="M1124 129h-149v-272h-354v272h-576l-12 135q161 429 323 998l334 -74l10 -53q-267 -554 -411 -803l6 -21q148 19 219 19h107v348l258 88l96 -21v-415h149v-201z" />
    <glyph glyph-name="five" unicode="5" horiz-adv-x="1126" 
d="M584 737q213 0 346 -117.5t133 -316.5q0 -216 -161.5 -344.5t-432.5 -128.5q-188 0 -293.5 63.5t-105.5 186.5q0 108 77 162h230l33 -258q50 -4 67 -4q193 0 193 229q0 146 -82 212t-291 73l-141 4h-2l26 729l160 33q133 -52 291 -52q167 0 338 54l32 -123
q-117 -211 -376 -211q-151 0 -303 63l-21 -303q145 49 283 49z" />
    <glyph glyph-name="six" unicode="6" horiz-adv-x="1290" 
d="M827 907q100 0 176 -33t122 -91.5t69 -133t23 -162.5q0 -236 -149.5 -375t-416.5 -139q-287 0 -426 165t-139 460q0 363 195 577t542 214q108 0 226 -33v-127q-95 0 -177.5 -16t-154.5 -52t-124 -90.5t-83 -135.5t-35 -183h25q116 155 327 155zM655 123q89 0 127.5 71
t38.5 207q0 147 -35.5 205t-113.5 58q-93 0 -189 -76q-2 -37 -2 -113q0 -187 41.5 -269.5t132.5 -82.5z" />
    <glyph glyph-name="seven" unicode="7" horiz-adv-x="1054" 
d="M1034 1235l13 -137q-351 -493 -461 -908l47 -299l-236 -63q-104 24 -156.5 92.5t-52.5 171.5q0 56 16.5 116.5t42 115t72.5 122.5t90 122.5t113.5 131.5t124.5 133t141 144l-8 18l-518 -28l-31 -199h-168q-20 103 -20 221q0 151 31 246h960z" />
    <glyph glyph-name="eight" unicode="8" horiz-adv-x="1247" 
d="M879 778v-24q144 -66 214 -147.5t70 -221.5q0 -108 -43 -189t-120.5 -129t-177 -71t-222.5 -23q-244 0 -380 91.5t-136 271.5q0 69 20.5 124.5t56.5 93.5t79 62.5t94 40.5v25q-219 112 -219 324q0 102 45.5 178.5t124 120t172 64t202.5 20.5q101 0 185 -18t150 -55.5
t103.5 -100.5t37.5 -146q0 -66 -22.5 -118.5t-61.5 -86t-81 -54t-91 -32.5zM651 1239q-74 0 -115.5 -40.5t-41.5 -113.5q0 -66 41.5 -111.5t138.5 -90.5l59 -29q68 74 68 199q0 94 -35 140t-115 46zM596 123q94 0 142 55t48 135q0 77 -48 123.5t-173 102.5l-80 36
q-69 -89 -69 -229q0 -223 180 -223z" />
    <glyph glyph-name="nine" unicode="9" horiz-adv-x="1290" 
d="M637 1262q288 0 427.5 -167t139.5 -470q0 -369 -196 -582t-549 -213q-108 0 -244 33l2 127q101 0 188.5 17.5t162 54.5t128.5 92.5t85.5 135t35.5 177.5h-24q-121 -156 -328 -156q-101 0 -178 35.5t-122.5 97.5t-68 138t-22.5 163q0 237 150 377t413 140zM618 541
q98 0 189 75q2 37 2 113q0 195 -41.5 281t-132.5 86q-168 0 -168 -287q0 -152 36 -210t115 -58z" />
    <glyph glyph-name="colon" unicode=":" horiz-adv-x="606" 
d="M326 1061q86 0 139 -17q37 -59 37 -153q0 -119 -62 -207h-295l-41 334q101 43 222 43zM326 377q86 0 139 -17q37 -59 37 -153q0 -119 -62 -207h-295l-41 334q101 43 222 43z" />
    <glyph glyph-name="semicolon" unicode=";" horiz-adv-x="608" 
d="M330 1061q86 0 139 -17q37 -59 37 -153q0 -119 -62 -207h-294l-41 334q101 43 221 43zM297 362q75 0 145 -20q66 -94 66 -223q0 -188 -114.5 -318.5t-321.5 -160.5l-31 94q233 88 233 227q0 13 -4 37l-123 10l-10 330q76 24 160 24z" />
    <glyph glyph-name="less" unicode="&#x3c;" 
d="M1087 963l-667 -347v-28l667 -346l-81 -174l-875 399v270l875 400z" />
    <glyph glyph-name="equal" unicode="=" 
d="M1161 315h-1061v191h1061v-191zM1161 725h-1061v190h1061v-190z" />
    <glyph glyph-name="greater" unicode="&#x3e;" 
d="M1124 737v-270l-874 -399l-82 174l670 346v28l-670 347l82 174z" />
    <glyph glyph-name="question" unicode="?" horiz-adv-x="782" 
d="M287 1384q102 0 184 -31t134 -82t86.5 -120t48.5 -140.5t14 -148.5q0 -145 -69 -215t-267 -129l-21 -112h-174q-46 70 -69 123.5t-23 113.5q0 72 38.5 104t141.5 62q32 10 70 21.5t61 18t50.5 15t42.5 14t32 13t26 14t16.5 14.5t10.5 17t3 20q0 40 -41 61t-154 28.5
t-313 -7.5v324q99 22 172 22zM283 289q119 0 180 -27q22 -43 22 -102q0 -112 -75 -187l-269 27l-8 272q70 17 150 17z" />
    <glyph glyph-name="at" unicode="@" horiz-adv-x="2060" 
d="M1200 1430q373 0 585 -178t212 -484q0 -156 -56.5 -284.5t-150.5 -210.5t-211.5 -126.5t-243.5 -44.5q-104 0 -148.5 34t-37.5 112l4 33h-29q-56 -95 -128 -139t-175 -44q-301 0 -301 355q0 86 17 170.5t58 168.5t102 148t156.5 103.5t213.5 39.5q173 0 285 -84
q96 43 186 50l51 -29l-94 -754q132 20 223.5 148.5t91.5 333.5q0 260 -160 396t-458 136q-200 0 -362.5 -59t-270.5 -165t-166.5 -254t-58.5 -325q0 -313 188 -454.5t578 -141.5v-98q-131 -43 -281 -43q-123 0 -232.5 26.5t-203.5 83t-162 138.5t-106.5 199.5t-38.5 258.5
q0 210 84 392.5t231.5 312.5t357 204.5t451.5 74.5zM1147 397l61 500q-44 29 -86 29q-59 0 -104 -47t-68 -118.5t-34 -140t-11 -128.5q0 -80 23.5 -115t79.5 -35q75 0 139 55z" />
    <glyph glyph-name="A" unicode="A" horiz-adv-x="1468" 
d="M1458 127v-127h-663v127l125 47l-56 188h-467l-61 -217l119 -18v-127h-445v127l125 45q250 786 395 1174l322 43l57 -17q205 -536 422 -1227zM446 526h367q-127 399 -172 525h-27q-91 -269 -168 -525z" />
    <glyph glyph-name="B" unicode="B" horiz-adv-x="1431" 
d="M1042 717v-27q150 -23 227 -97.5t77 -223.5q0 -190 -134.5 -279.5t-427.5 -89.5h-723v127l138 47v1038l-138 19v127q305 26 605 26q331 0 478.5 -86.5t147.5 -277.5q0 -129 -63 -199t-187 -104zM569 1221v-449h222q45 47 68.5 101t23.5 133q0 107 -47.5 161t-161.5 54
h-105zM569 164h158q115 0 163 56.5t48 170.5q0 109 -49.5 170.5t-177.5 61.5h-142v-459z" />
    <glyph glyph-name="C" unicode="C" horiz-adv-x="1388" 
d="M1272 330l31 -142q-201 -215 -547 -215q-163 0 -292.5 51t-214 143t-129 218t-44.5 277q0 161 50 293.5t145.5 229.5t243 150.5t333.5 53.5q230 0 416 -80q10 -55 10 -140q0 -101 -25 -237h-221l-70 270q-68 10 -116 10q-175 0 -257.5 -107t-82.5 -355
q0 -270 97.5 -397.5t295.5 -127.5q190 0 377 105z" />
    <glyph glyph-name="D" unicode="D" horiz-adv-x="1542" 
d="M616 1384q233 0 398.5 -44.5t264 -132.5t143 -207t44.5 -279q0 -349 -200 -535t-578 -186h-627v127l138 47v1040l-138 17v127q269 26 555 26zM584 164h100q84 0 142.5 17t101 53t66.5 99t35 148.5t11 208.5q0 206 -32.5 319.5t-104.5 162.5t-203 49h-116v-1057z" />
    <glyph glyph-name="E" unicode="E" horiz-adv-x="1323" 
d="M1016 391l221 -12q12 -74 12 -152q0 -104 -24 -227h-1162v127l136 47h2v1034l-140 27v127h1170q14 -68 14 -150q0 -111 -26 -225h-205l-56 209l-372 12v-442l205 10l20 101h137v-379h-137l-23 104l-202 10v-458l356 12z" />
    <glyph glyph-name="F" unicode="F" horiz-adv-x="1241" 
d="M61 1362h1135q12 -59 12 -154q0 -116 -24 -221h-205l-57 207l-336 12v-483l202 10l23 117h137v-410h-137l-25 121l-200 10v-417l180 -19v-135h-703v127l138 47v1034l-140 27v127z" />
    <glyph glyph-name="G" unicode="G" horiz-adv-x="1462" 
d="M1395 623v-127l-90 -47v-388q-83 -36 -226.5 -62t-281.5 -26q-188 0 -329.5 53t-225.5 147.5t-125 215t-41 266.5q0 164 51 298.5t148 231.5t245.5 150.5t335.5 53.5q135 0 250.5 -24.5t179.5 -55.5q10 -55 10 -138q0 -99 -24 -219h-223l-62 248q-74 12 -137 12
q-186 0 -267 -122t-81 -410q0 -197 36.5 -315t105 -166.5t177.5 -48.5q83 0 160 28l-33 299l-147 19v127h594z" />
    <glyph glyph-name="H" unicode="H" horiz-adv-x="1622" 
d="M1421 1188v-1043h2l138 -18v-127h-646v127l121 47v449h-452v-478l129 -18v-127h-652v127l138 47v1043l-138 18v127h650v-127l-127 -47v-400h452v429l-127 18v127h652v-127l-138 -47h-2z" />
    <glyph glyph-name="I" unicode="I" horiz-adv-x="784" 
d="M584 1188v-1043l139 -18v-127h-662v127l138 47v1043l-138 18v127h662v-127z" />
    <glyph glyph-name="J" unicode="J" horiz-adv-x="1075" 
d="M1042 1362v-127l-137 -47v-787q0 -118 -37 -203t-105 -133t-152 -70t-189 -22q-193 0 -300.5 71t-107.5 196q0 102 82 170h197l67 -275q36 -4 48 -4q62 0 87 40.5t25 147.5v898l-203 18v127h725z" />
    <glyph glyph-name="K" unicode="K" horiz-adv-x="1490" 
d="M1464 156l-4 -121q-57 -30 -105.5 -45t-113.5 -15q-103 0 -171 37.5t-120 120.5q-27 44 -61 114t-91.5 197.5t-74.5 163.5h-139v-463l133 -18v-127h-656v127l138 47v1040l-138 19v129h660v-127l-137 -47v-414h168q213 275 327 443l-143 18v127h489v-127l-116 -41
q-121 -159 -314 -371q143 -210 367 -622z" />
    <glyph glyph-name="L" unicode="L" horiz-adv-x="1189" 
d="M1161 240q0 -108 -20 -222l-2 -18h-1076v127l136 47v1043l-138 18v127h668v-127l-145 -47v-1032l266 8l78 242l223 -13q10 -88 10 -153z" />
    <glyph glyph-name="M" unicode="M" horiz-adv-x="1972" 
d="M1937 127v-127h-649v127l129 47q-4 670 -14 954h-25q-25 -121 -78 -290l-241 -760l-252 -39l-59 16l-248 766q-52 163 -86 307h-23q-3 -110 -14 -983l155 -18v-127h-497v127l139 47q11 408 45 1043l-137 18v127h641q91 -282 264 -889h23q120 453 258 889h622v-127
l-141 -45q34 -485 51 -1045z" />
    <glyph glyph-name="N" unicode="N" horiz-adv-x="1562" 
d="M1516 1235l-136 -45v-1174l-338 -41l-59 15l-438 805q-94 180 -152 333h-22l32 -983l162 -18v-127h-504v127l138 47v1043l-138 18v127h625l342 -639q85 -163 158 -338h24l-32 832l-162 18v127h500v-127z" />
    <glyph glyph-name="O" unicode="O" horiz-adv-x="1609" 
d="M844 1389q171 0 304 -50.5t216.5 -141.5t126.5 -213.5t43 -270.5q0 -229 -100 -398.5t-272.5 -255.5t-395.5 -86q-169 0 -301.5 51.5t-217 143.5t-128 216t-43.5 273q0 227 98 394t271 252.5t399 85.5zM805 1212q-156 0 -228.5 -120.5t-72.5 -407.5t72.5 -410.5
t228.5 -123.5t228.5 123.5t72.5 410.5t-72.5 407.5t-228.5 120.5z" />
    <glyph glyph-name="P" unicode="P" horiz-adv-x="1388" 
d="M684 1384q341 0 492 -106t151 -350q0 -226 -116 -342.5t-343 -116.5q-90 0 -196 18v144h28q103 0 153 67.5t50 235.5q0 153 -49.5 220t-167.5 67h-102v-1067l180 -19v-135h-701v127l136 47v1038l-138 19v127q305 26 623 26z" />
    <glyph glyph-name="Q" unicode="Q" horiz-adv-x="1609" 
d="M844 1389q171 0 304 -51t216.5 -142t126.5 -213t43 -268q0 -247 -111.5 -414.5t-285.5 -237.5v-28l268 -205l117 -47l-2 -113q-57 -33 -113.5 -49t-136.5 -16q-113 0 -189 38.5t-135 139.5l-131 190h-49q-169 0 -301.5 51.5t-217 143.5t-128 216t-43.5 273q0 227 98 394
t271 252.5t399 85.5zM805 1212q-156 0 -228.5 -120.5t-72.5 -407.5t72.5 -410.5t228.5 -123.5t228.5 123.5t72.5 410.5t-72.5 407.5t-228.5 120.5z" />
    <glyph glyph-name="R" unicode="R" horiz-adv-x="1445" 
d="M1440 154l-2 -119q-114 -60 -234 -60q-113 0 -175.5 38.5t-110.5 121.5q-79 120 -218 408h-131v-398l125 -18v-127h-633v127l138 47v1038l-138 19v127q293 26 603 26q347 0 498 -93t151 -300q0 -81 -20.5 -142.5t-60.5 -101t-84 -64t-104 -44.5l-2 -25q15 -12 30.5 -28
t28.5 -29t30 -35.5t27 -36t29.5 -42.5t28 -41.5t30.5 -48.5t29 -47.5t32 -53.5t32 -53zM569 709h228q53 54 78.5 117.5t25.5 158.5q0 120 -49 177t-166 57h-117v-510z" />
    <glyph glyph-name="S" unicode="S" horiz-adv-x="1200" 
d="M612 893l189 -80q80 -34 136 -69.5t101 -83.5t67.5 -112t22.5 -145q0 -111 -42 -194.5t-119.5 -134.5t-180 -76t-229.5 -25q-122 0 -247 22t-208 56q-18 106 -18 201q0 61 14 147l221 13l74 -258q61 -15 131 -15q111 0 164 38.5t53 119.5q0 73 -39.5 111.5t-130.5 76.5
l-188 78q-277 116 -277 395q0 207 141.5 319t393.5 112q122 0 233.5 -23.5t178.5 -56.5q10 -58 10 -135q0 -103 -25 -201h-217l-59 239q-64 11 -109 11q-194 0 -194 -150q0 -64 34 -104.5t119 -75.5z" />
    <glyph glyph-name="T" unicode="T" horiz-adv-x="1374" 
d="M39 1362h1296q11 -72 11 -154q0 -140 -25 -256h-199l-63 246l-178 8v-1052l157 -19v-135h-702v135l160 47v1024l-183 -8l-61 -246h-199q-24 111 -24 256q0 76 10 144v10z" />
    <glyph glyph-name="U" unicode="U" horiz-adv-x="1486" 
d="M1454 1235l-139 -49v-746q0 -217 -150.5 -342t-427.5 -125t-422 127.5t-145 354.5v762l-137 18v127h653v-127l-131 -47v-764q0 -151 68.5 -220t205.5 -69q283 0 283 285v797l-151 18v127h493v-127z" />
    <glyph glyph-name="V" unicode="V" horiz-adv-x="1433" 
d="M1423 1235l-123 -45q-219 -734 -380 -1174l-318 -43l-57 17q-186 504 -410 1227l-125 18v127h639v-127l-102 -45q165 -597 266 -879h25q160 511 264 906l-146 18v127h467v-127z" />
    <glyph glyph-name="W" unicode="W" horiz-adv-x="2295" 
d="M2265 1235l-119 -45q-187 -637 -370 -1174l-320 -43l-57 17q-175 550 -234 760h-24q-115 -368 -242 -734l-319 -43l-58 17q-193 592 -368 1227l-123 18v127h639v-127l-103 -45q14 -58 54 -222t60.5 -247.5t52.5 -204t57 -205.5h26q114 334 252 781l-37 120l-119 23v127
h643v-127l-147 -47q147 -535 258 -877h25q124 396 254 906l-148 18v127h467v-127z" />
    <glyph glyph-name="X" unicode="X" horiz-adv-x="1456" 
d="M1425 127v-127h-675v127l98 45q-116 218 -219 377h-25q-122 -189 -244 -406l132 -16v-127h-461v127l125 45q170 257 352 502q-186 293 -326 545l-129 16v127h682v-127l-100 -43q79 -151 203 -358h26q57 97 205 383l-133 18v127h469v-127l-127 -43q-155 -256 -311 -481
q196 -317 336 -568z" />
    <glyph glyph-name="Y" unicode="Y" horiz-adv-x="1415" 
d="M1399 1235l-121 -45q-159 -345 -354 -713v-332l157 -18v-127h-702v127l160 47v285q-233 440 -383 758l-140 18v127h639v-127l-84 -39q126 -292 244 -522h25q123 244 245 543l-151 18v127h465v-127z" />
    <glyph glyph-name="Z" unicode="Z" horiz-adv-x="1249" 
d="M950 395l234 -12q12 -105 12 -152q0 -106 -25 -231h-1099l-15 127l502 801q68 109 195 272l-11 21l-358 -21l-55 -227h-217q-25 102 -25 223q0 104 10 166h1078l16 -127l-490 -786q-88 -143 -198 -287l12 -17l371 17z" />
    <glyph glyph-name="bracketleft" unicode="[" horiz-adv-x="692" 
d="M602 1378l-211 -12q55 -337 55 -772q0 -423 -55 -803l211 -12v-139h-422v1876h422v-138z" />
    <glyph glyph-name="backslash" unicode="\" horiz-adv-x="653" 
d="M432 -373l-399 1813l39 35h151l398 -1813l-39 -35h-150z" />
    <glyph glyph-name="bracketright" unicode="]" horiz-adv-x="692" 
d="M512 1516v-1876h-422v139l213 12q-57 373 -57 803q0 422 57 772l-213 12v138h422z" />
    <glyph glyph-name="asciicircum" unicode="^" horiz-adv-x="993" 
d="M946 1040l-160 -102l-278 334h-23l-278 -334l-160 102l338 471h223z" />
    <glyph glyph-name="underscore" unicode="_" horiz-adv-x="925" 
d="M868 -324h-811v156h811v-156z" />
    <glyph glyph-name="grave" unicode="`" horiz-adv-x="598" 
d="M537 1174h-142l-334 284q40 112 111 160h215z" />
    <glyph glyph-name="a" unicode="a" horiz-adv-x="1136" 
d="M1118 170v-123q-155 -63 -268 -63q-182 0 -182 143v25h-27q-95 -179 -307 -179q-138 0 -213.5 74.5t-75.5 202.5q0 162 125 241.5t342 79.5q27 0 77.5 -2t63.5 -2v189q0 111 -38.5 151.5t-122.5 40.5q-22 0 -58 -4l-33 -258h-221q-76 62 -76 141q0 113 134.5 183.5
t332.5 70.5q216 0 324 -90t106 -262l-8 -528zM506 182q77 0 145 64v211h-61q-98 0 -139 -40.5t-41 -117.5q0 -64 22 -90.5t74 -26.5z" />
    <glyph glyph-name="b" unicode="b" horiz-adv-x="1267" 
d="M489 1518v-269q0 -170 -28 -360h26q122 192 338 192q181 0 273 -135.5t92 -372.5q0 -600 -608 -600q-219 0 -447 66v1266l-125 47v123q196 57 432 67zM653 838q-91 0 -164 -66v-625q62 -24 125 -24q112 0 154.5 87t42.5 282q0 139 -18.5 215.5t-51 103.5t-88.5 27z" />
    <glyph glyph-name="c" unicode="c" horiz-adv-x="1093" 
d="M735 199q109 0 262 63l27 -121q-165 -168 -432 -168q-138 0 -241.5 40t-165 112.5t-92 166.5t-30.5 208q0 141 45 253t124.5 182.5t184 107t226.5 36.5q108 0 193 -26t139.5 -84.5t54.5 -143.5q0 -108 -82 -163h-231l-27 280q-16 2 -43 2q-95 0 -143.5 -80.5
t-48.5 -261.5q0 -206 67 -304.5t213 -98.5z" />
    <glyph glyph-name="d" unicode="d" horiz-adv-x="1284" 
d="M1135 1518v-1325l122 -37v-115q-212 -52 -413 -61l-47 24l12 162h-27q-125 -193 -340 -193q-181 0 -272.5 135.5t-91.5 378.5q0 278 124 436t373 158q120 0 205 -28v252l-123 47v123q205 61 430 67zM651 932q-108 0 -150 -87t-42 -280q0 -139 18.5 -216t50.5 -103.5
t88 -26.5q89 0 164 64v622q-61 27 -129 27z" />
    <glyph glyph-name="e" unicode="e" horiz-adv-x="1134" 
d="M737 205q135 0 287 71l29 -122q-78 -85 -185 -133t-266 -48q-142 0 -247.5 40t-168.5 113t-93 166.5t-30 209.5q0 140 44 251.5t122.5 182.5t184 108t231.5 37q110 0 192.5 -28t131 -79t71.5 -116.5t23 -146.5q0 -103 -33 -187h-590q12 -162 85.5 -240.5t211.5 -78.5z
M600 932q-70 0 -114 -69.5t-50 -219.5l283 19v40q0 117 -28.5 173.5t-90.5 56.5z" />
    <glyph glyph-name="f" unicode="f" horiz-adv-x="739" 
d="M653 1542q153 0 255 -56.5t102 -156.5q0 -72 -64 -129h-229l-25 209h-22q-74 0 -114 -39.5t-40 -146.5v-183h207v-155h-207v-744l178 -18v-123h-647v123l115 47v711l-133 26v129l133 35v23q0 448 491 448z" />
    <glyph glyph-name="g" unicode="g" horiz-adv-x="1183" 
d="M981 985l-31 -35q78 -87 78 -213q0 -90 -39.5 -159t-109.5 -111.5t-161.5 -64t-199.5 -21.5q-38 0 -100 4v-115l416 -34q315 -28 315 -248q0 -125 -93.5 -222t-258.5 -149.5t-375 -52.5q-424 0 -424 219q0 86 64.5 142t162.5 69q-29 189 47 424q-209 79 -209 289
q0 119 69.5 205t183.5 127.5t259 41.5q177 0 291 -65q23 111 63.5 164t117.5 53q78 0 124 -39l-16 -209h-174zM545 528q73 0 102 50.5t29 152.5t-29 152.5t-102 50.5t-102 -50.5t-29 -152.5t29 -152.5t102 -50.5zM725 -104l-406 47q-20 -44 -20 -95q0 -65 54 -100t182 -35
q80 0 154.5 13t126.5 41t52 65q0 25 -30.5 40t-112.5 24z" />
    <glyph glyph-name="h" unicode="h" horiz-adv-x="1304" 
d="M1292 123v-123h-567v123l84 47h2v516q0 76 -33 114t-104 38q-94 0 -168 -66v-631l96 -18v-123h-569v123l117 47h2v1133l-125 49v123q196 57 432 67l47 -24v-269q0 -57 -3.5 -117t-6.5 -89t-10.5 -89t-8.5 -65h27q119 192 350 192q151 0 231 -86t80 -239v-615z" />
    <glyph glyph-name="i" unicode="i" horiz-adv-x="667" 
d="M645 123v-123h-600v123l117 47v670l-117 53v123q177 45 424 59l47 -22v-910zM358 1540q85 0 121 -14q35 -57 35 -135q0 -48 -14 -85.5t-49 -86.5h-277l-35 282q93 39 219 39z" />
    <glyph glyph-name="j" unicode="j" horiz-adv-x="641" 
d="M508 1053v-1030q0 -182 -117.5 -298t-312.5 -163l-64 65l138 189v1024l-117 53v123q185 46 424 59zM348 1540q85 0 121 -14q35 -57 35 -135q0 -48 -14.5 -85.5t-49.5 -86.5h-276l-35 282q93 39 219 39z" />
    <glyph glyph-name="k" unicode="k" horiz-adv-x="1280" 
d="M1266 141l-2 -108q-111 -58 -215 -58q-95 0 -154 34t-102 114q-51 96 -148 348h-139v-330l106 -16v-125h-579v123l117 47h2v1133l-125 49v123q222 61 432 67l47 -24v-893h131q150 161 244 274l-140 16v125h500v-125l-162 -41q-87 -87 -190 -176q41 -65 83.5 -141
t111.5 -205t90 -168z" />
    <glyph glyph-name="l" unicode="l" horiz-adv-x="655" 
d="M633 123v-123h-600v123l117 47h2v1133l-125 49v123q218 61 432 67l47 -24v-1377z" />
    <glyph glyph-name="m" unicode="m" horiz-adv-x="1968" 
d="M1956 123v-123h-561v123l80 47v516q0 76 -32.5 114t-101.5 38q-82 0 -167 -62v-635l88 -18v-123h-519v123l76 47v516q0 77 -32 114.5t-103 37.5q-94 0 -168 -66v-631l96 -18v-123h-567v123l117 47v670l-117 53v123q206 53 408 59l47 -22l-11 -164h25q122 192 352 192
q61 0 108.5 -14t74.5 -33.5t46.5 -49t26.5 -50t13 -47.5h28q123 194 355 194q153 0 232 -85.5t79 -239.5v-615z" />
    <glyph glyph-name="n" unicode="n" horiz-adv-x="1316" 
d="M1305 123v-123h-568v123l84 47h2v516q0 152 -139 152q-91 0 -168 -66v-631l98 -18v-123h-569v123l117 47v670l-117 53v123q239 54 408 59l47 -22l-11 -164h25q122 192 350 192q152 0 233 -86t81 -239v-615z" />
    <glyph glyph-name="o" unicode="o" horiz-adv-x="1265" 
d="M666 1081q137 0 241.5 -40.5t168 -112.5t95 -166.5t31.5 -208.5q0 -269 -165 -424.5t-439 -155.5q-136 0 -240 40.5t-167.5 113.5t-95.5 167.5t-32 209.5q0 270 164.5 423.5t438.5 153.5zM631 932q-98 0 -135 -90.5t-37 -311.5q0 -223 37 -315t135 -92t136 92.5t38 314.5
q0 220 -38 311t-136 91z" />
    <glyph glyph-name="p" unicode="p" horiz-adv-x="1284" 
d="M842 1081q181 0 272.5 -134.5t91.5 -377.5q0 -135 -29.5 -243t-90 -187.5t-158 -122.5t-226.5 -43q-113 0 -198 31v-272l145 -19v-123h-616v123l117 47v1080l-117 53v123q206 53 407 59l47 -22l-10 -164h25q125 192 340 192zM633 123q109 0 150.5 86.5t41.5 284.5
q0 138 -18 214t-50.5 103t-88.5 27q-91 0 -164 -66v-622q66 -27 129 -27z" />
    <glyph glyph-name="q" unicode="q" horiz-adv-x="1267" 
d="M1251 -287v-123h-620v123l149 47v125q0 104 29 281h-27q-128 -193 -340 -193q-180 0 -272 136t-92 374q0 137 31.5 245.5t94.5 188t164.5 122t235.5 42.5q163 0 297 -69q37 25 91.5 42.5t94.5 20.5l48 -24v-1319zM780 283v604q-59 39 -127 39q-108 0 -151 -86.5
t-43 -282.5q0 -134 18.5 -209.5t51.5 -102t89 -26.5q87 0 162 64z" />
    <glyph glyph-name="r" unicode="r" horiz-adv-x="901" 
d="M885 762h-267q-59 -48 -102 -105v-501l189 -21v-135h-660v139l117 31v670l-117 53v123q211 53 399 59l50 -22l-17 -244h27q28 66 52.5 111t55.5 84t69 58t83 19q80 0 125 -67z" />
    <glyph glyph-name="s" unicode="s" horiz-adv-x="995" 
d="M489 725l162 -70q144 -62 213.5 -138t69.5 -200q0 -174 -129.5 -259t-349.5 -85t-379 70q-15 62 -15 131q0 81 25 158h188l37 -203q60 -14 125 -14q168 0 168 112q0 45 -26.5 71.5t-92.5 53.5l-155 70q-81 35 -133 75t-83.5 101.5t-31.5 142.5q0 164 114.5 252t331.5 88
q102 0 193.5 -18t144.5 -43q13 -63 13 -129q0 -78 -23 -148h-166l-43 183q-57 14 -121 14q-145 0 -145 -100q0 -40 24 -65t84 -50z" />
    <glyph glyph-name="t" unicode="t" horiz-adv-x="835" 
d="M799 207l26 -119q-143 -115 -348 -115q-164 0 -245.5 75.5t-81.5 213.5v635l-134 25v114l187 37l211 244l90 -8v-269h280v-155h-280v-584q0 -72 28.5 -99.5t88.5 -27.5q70 0 178 33z" />
    <glyph glyph-name="u" unicode="u" horiz-adv-x="1302" 
d="M1276 172v-131q-215 -52 -414 -61l-47 24l10 164h-24q-125 -195 -350 -195q-151 0 -231.5 87.5t-80.5 240.5v539l-116 53v123q237 53 423 59l48 -22v-682q0 -78 32 -115t103 -37q93 0 170 66v563l-94 45v123q254 55 401 59l47 -22v-844z" />
    <glyph glyph-name="v" unicode="v" horiz-adv-x="1200" 
d="M1194 915l-117 -38q-81 -246 -319 -861l-238 -43l-57 17q-218 543 -340 909l-117 16v125h561v-125l-59 -41q93 -307 194 -579h25q121 370 178 604l-139 16v125h428v-125z" />
    <glyph glyph-name="w" unicode="w" horiz-adv-x="1935" 
d="M1876 915l-111 -36q-95 -366 -256 -863l-260 -43l-57 17q-25 64 -47.5 127t-44.5 132t-36 112t-38 122.5t-33 108.5h-24q-15 -43 -49 -142t-53.5 -154.5t-49.5 -135t-57 -144.5l-262 -43l-56 17q-148 446 -264 911l-119 14v125h584v-125l-84 -43q55 -284 137 -577h25
q104 306 221 727l219 43l56 -16q140 -493 229 -754h24q74 299 121 606l-145 14v125h430v-125z" />
    <glyph glyph-name="x" unicode="x" horiz-adv-x="1212" 
d="M1196 123v-123h-606v123l61 41q-72 137 -135 246h-29q-94 -152 -155 -271l114 -16v-123h-430v123l138 43q95 135 266 348q-134 205 -244 385l-145 16v125h616v-125l-59 -38q25 -46 129 -228h22q73 139 121 252l-110 14v125h432v-125l-152 -45q-155 -224 -225 -319
q163 -246 258 -410z" />
    <glyph glyph-name="y" unicode="y" horiz-adv-x="1202" 
d="M1196 915l-123 -41q-71 -215 -169 -480t-171 -425q-66 -144 -149.5 -237t-161.5 -129.5t-160 -36.5q-109 0 -168 76l12 151h386q34 57 43 80q-84 182 -202 479.5t-204 546.5l-123 16v125h561v-125l-57 -36q90 -306 192 -584h25q97 278 174 604l-135 16v125h430v-125z" />
    <glyph glyph-name="z" unicode="z" horiz-adv-x="985" 
d="M758 358l176 -10q16 -75 16 -135q0 -112 -32 -213h-867l-16 137l338 508q25 40 53.5 79.5t44 60t47 60.5t39.5 50l-10 18l-258 -18l-45 -199h-168q-27 111 -27 189q0 61 17 155h854l16 -139l-328 -502q-55 -86 -182 -254l10 -16l275 14z" />
    <glyph glyph-name="braceleft" unicode="{" horiz-adv-x="694" 
d="M592 1397l-209 -47q40 -142 61.5 -223t41.5 -176.5t20 -145.5q0 -86 -62 -136t-213 -61v-24q153 -11 214 -61t61 -138q0 -51 -20 -152t-40.5 -181.5t-64.5 -244.5l211 -49v-120q-94 -11 -141 -11q-157 0 -236.5 55.5t-79.5 145.5q0 54 27 179.5t100 434.5l-188 84v140
l188 84q-104 399 -119 488q-8 49 -8 81q0 98 77.5 153.5t236.5 55.5q55 0 143 -10v-121z" />
    <glyph glyph-name="bar" unicode="|" horiz-adv-x="620" 
d="M408 -246h-193v1782h193v-1782z" />
    <glyph glyph-name="braceright" unicode="}" horiz-adv-x="694" 
d="M621 666v-140l-189 -84q69 -292 97 -425.5t28 -188.5q0 -90 -79.5 -145.5t-235.5 -55.5q-46 0 -140 11v120l211 49q-125 456 -125 578q0 88 61 138t212 61v24q-150 11 -211.5 61t-61.5 136q0 112 123 543l-209 49v121q88 10 142 10q157 0 235 -55.5t78 -153.5
q0 -54 -22 -153.5t-83 -337.5q-13 -51 -20 -78z" />
    <glyph glyph-name="asciitilde" unicode="~" 
d="M1044 762l119 -68q-84 -313 -286 -313q-69 0 -170 45q-122 50 -342 170l-150 -180l-119 67q89 314 287 314q68 0 170 -47q121 -49 342 -168z" />
    <glyph glyph-name="uni00A0" unicode="&#xa0;" horiz-adv-x="512" 
 />
    <glyph glyph-name="exclamdown" unicode="&#xa1;" horiz-adv-x="659" 
d="M322 1081q117 0 180 -28q22 -40 22 -101q0 -114 -75 -186l-269 27l-8 272q82 16 150 16zM229 641h199q4 -29 20.5 -137.5t22.5 -153t18.5 -142t18 -161.5t10 -152t4.5 -169q-142 -39 -342 -39l-45 49q0 80 4.5 167t10 150.5t18 160t18.5 140.5t22.5 151t20.5 136z" />
    <glyph glyph-name="cent" unicode="&#xa2;" horiz-adv-x="1124" 
d="M1036 367l31 -138q-139 -152 -365 -176l9 -196l-136 -23l-43 25l9 192q-234 21 -346.5 160.5t-112.5 355.5q0 243 128 392t333 186l-11 217l138 22l43 -24q-1 -33 -5.5 -108.5t-5.5 -94.5q100 -4 177 -31.5t125.5 -84.5t48.5 -138q0 -100 -78 -160h-213l-35 275l-31 4
q-10 -208 -10 -399q0 -164 6 -320q34 -6 72 -6q135 0 272 70zM469 692q0 -231 84 -321q4 164 4 247q0 133 -8 367q-80 -71 -80 -293z" />
    <glyph glyph-name="sterling" unicode="&#xa3;" horiz-adv-x="1241" 
d="M965 393h196q15 -74 15 -162q0 -141 -66 -199.5t-221 -58.5q-225 0 -559 99q-49 -97 -148 -97q-57 0 -112 25l-17 205l180 65q50 60 50 142q0 38 -19 108h-203v154h152q-33 105 -33 182q0 127 73 217t188.5 131t260.5 41q181 0 287.5 -62.5t106.5 -187.5q0 -103 -80 -159
h-211l-35 272q-40 4 -55 4q-144 0 -144 -158q0 -46 10.5 -90t31 -101.5t28.5 -88.5h229v-154h-208q-1 -120 -61.5 -188t-205.5 -133l8 -23q162 51 277 51q106 0 221 -22z" />
    <glyph glyph-name="currency" unicode="&#xa4;" horiz-adv-x="1165" 
d="M1008 610q0 -127 -70 -219l168 -164l-137 -137l-193 189q-90 -35 -209 -35q-101 0 -184 26l-184 -180l-140 137l160 156q-59 79 -59 197q0 130 73 219l-174 170l140 137l200 -197q96 35 215 35q90 0 164 -22l189 184l139 -137l-160 -156q62 -82 62 -203zM590 406
q70 0 101.5 46t31.5 144q0 96 -31.5 141t-101.5 45q-148 0 -148 -186q0 -190 148 -190z" />
    <glyph glyph-name="yen" unicode="&#xa5;" horiz-adv-x="1423" 
d="M1380 1106l-133 -45q-70 -135 -182 -330h190v-153h-280l-74 -123v-25h354v-154h-354v-131l172 -18v-127h-692v127l166 47v102h-365v154h365v23l-76 125h-289v153h197q-93 154 -205 359h-6l-125 18v127h643v-127l-100 -41q111 -232 219 -430h26q114 206 228 453l-137 16
v129h458v-129z" />
    <glyph glyph-name="brokenbar" unicode="&#xa6;" horiz-adv-x="620" 
d="M408 864h-193v672h193v-672zM408 -246h-193v672h193v-672z" />
    <glyph glyph-name="section" unicode="&#xa7;" horiz-adv-x="1153" 
d="M1112 514q0 -99 -49 -170.5t-168 -124.5q57 -74 57 -174q0 -155 -111.5 -237t-297.5 -82q-173 0 -280 67t-107 172q0 77 75 131h170l35 -227q55 -10 96 -10q76 0 111 29.5t35 74.5q0 18 -5.5 34t-21 32.5t-32 29.5t-49 33.5t-60 36t-78 45t-90.5 53.5q-72 46 -113 74.5
t-82.5 64.5t-61 68.5t-32 73.5t-12.5 92q0 99 49.5 170.5t167.5 124.5q-55 75 -55 174q0 154 111 237t296 83q173 0 279 -67.5t106 -172.5q0 -78 -73 -131h-172l-33 227q-58 10 -99 10q-74 0 -108.5 -29.5t-34.5 -74.5q0 -18 6 -34t21.5 -32.5t32 -30t49 -34t60 -36
t78 -44.5t89.5 -53q86 -54 134 -89t90.5 -80t59.5 -93t17 -111zM616 440q133 -85 191 -133q49 49 49 92q0 49 -59 98t-260 177q-116 71 -193 133q-49 -46 -49 -94q0 -44 56 -91t265 -182z" />
    <glyph glyph-name="dieresis" unicode="&#xa8;" horiz-adv-x="935" 
d="M262 1538q66 0 107 -14q34 -53 34 -125q0 -79 -61 -160h-236l-34 262q98 37 190 37zM725 1538q65 0 106 -14q35 -55 35 -125q0 -79 -61 -160h-234l-36 262q102 37 190 37z" />
    <glyph glyph-name="copyright" unicode="&#xa9;" horiz-adv-x="1675" 
d="M852 1389q165 0 304 -50.5t236.5 -141t152 -220.5t54.5 -285q0 -215 -102 -380t-277 -252t-395 -87q-165 0 -304.5 51.5t-237.5 143t-152.5 222.5t-54.5 286q0 215 102 378.5t277.5 249t396.5 85.5zM836 121q247 0 400 151t153 416q0 258 -149.5 405.5t-395.5 147.5
q-249 0 -402 -149t-153 -412q0 -259 150.5 -409t396.5 -150zM963 444q83 0 194 54l27 -97q-125 -135 -338 -135q-193 0 -294 109.5t-101 286.5q0 139 60 239.5t158 148.5t220 48q121 0 200.5 -49t79.5 -144q0 -78 -55 -121h-180l-23 189q-14 4 -37 4q-56 0 -81 -51.5
t-25 -169.5q0 -167 46 -239.5t149 -72.5z" />
    <glyph glyph-name="ordfeminine" unicode="&#xaa;" horiz-adv-x="794" 
d="M782 565v-84q-103 -45 -200 -45q-119 0 -119 94v17h-17q-62 -117 -200 -117q-96 0 -147.5 48.5t-51.5 135.5q0 108 83.5 160.5t221.5 52.5q45 0 99 -6l2 117q1 72 -24 98.5t-79 26.5q-27 0 -39 -2l-22 -160h-154q-49 39 -49 92q0 75 90.5 122.5t222.5 47.5
q146 0 226 -61.5t80 -177.5l-9 -340zM354 578q47 0 92 38l3 127h-33q-61 -1 -87 -25t-26 -73q0 -37 12 -52t39 -15z" />
    <glyph glyph-name="guillemotleft" unicode="&#xab;" horiz-adv-x="1255" 
d="M1124 881l-153 -328l153 -328l-141 -90l-356 365v106l356 365zM588 881l-154 -328l154 -328l-142 -90l-356 365v106l356 365z" />
    <glyph glyph-name="logicalnot" unicode="&#xac;" 
d="M1069 150h-215v370h-756v191h971v-561z" />
    <glyph glyph-name="uni00AD" unicode="&#xad;" horiz-adv-x="714" 
d="M637 510h-559v211h559v-211z" />
    <glyph glyph-name="registered" unicode="&#xae;" horiz-adv-x="1310" 
d="M662 1477q256 0 415.5 -147t159.5 -386q0 -163 -78 -288t-212 -191t-302 -66q-254 0 -413.5 148t-159.5 387q0 163 77.5 287.5t211 190t301.5 65.5zM655 520q195 0 304.5 111t109.5 309q0 201 -111 308.5t-301 107.5q-197 0 -306 -110.5t-109 -309.5q0 -202 110 -309
t303 -107zM805 934v-8q58 -49 117 -158l39 -16v-58q-41 -24 -99 -24q-45 0 -70.5 13.5t-43.5 43.5q-34 48 -82 162h-48v-141l52 -9v-59h-273v59l64 21v389l-64 8v62q110 10 248 10q148 0 209 -36t61 -120q0 -61 -28.5 -92.5t-81.5 -46.5zM618 969h76q37 40 37 102
q0 43 -15.5 62.5t-53.5 19.5h-44v-184z" />
    <glyph glyph-name="macron" unicode="&#xaf;" horiz-adv-x="768" 
d="M72 1460h624q11 -46 11 -96q0 -52 -11 -102h-624q-11 50 -11 102q0 50 11 96z" />
    <glyph glyph-name="degree" unicode="&#xb0;" horiz-adv-x="808" 
d="M422 1546q158 0 251 -93.5t93 -225.5q0 -145 -110 -239.5t-271 -94.5q-158 0 -250 92.5t-92 224.5q0 145 109 240.5t270 95.5zM403 1360q-60 0 -100.5 -39t-40.5 -102t40.5 -101.5t100.5 -38.5q61 0 101.5 38.5t40.5 101.5t-40.5 102t-101.5 39z" />
    <glyph glyph-name="plusminus" unicode="&#xb1;" 
d="M1094 825v-190h-351v-295h-229v295h-348v190h348v297h229v-297h351zM166 190h928v-190h-928v190z" />
    <glyph glyph-name="twosuperior" unicode="&#xb2;" horiz-adv-x="679" 
d="M516 1014h113q12 -37 12 -101q0 -77 -18 -127h-584l-8 107q68 46 117 85t105 94.5t86 116t30 122.5q0 44 -19.5 66t-64.5 22q-13 0 -41 -4l-21 -170h-149q-47 30 -47 98q0 78 84.5 128t218.5 50q138 0 214.5 -54.5t76.5 -146.5q0 -43 -20 -84t-53 -76.5t-89 -74.5
t-115.5 -72.5t-144.5 -77.5l6 -18q127 30 180 37l119 14z" />
    <glyph glyph-name="threesuperior" unicode="&#xb3;" horiz-adv-x="718" 
d="M334 1501q137 0 214 -47t77 -141q0 -38 -12.5 -65t-37 -44t-51.5 -27t-67 -18v-20q194 -26 194 -168q0 -100 -88.5 -151.5t-243.5 -51.5q-135 0 -210.5 37.5t-75.5 109.5q0 53 41 97h149l17 -135q49 -7 57 -7q52 0 79 23t27 88q0 60 -30 84.5t-115 24.5h-31v102h92
q58 42 58 121q0 47 -18 66.5t-58 19.5q-13 0 -49 -4l-16 -135h-146q-43 40 -43 88q0 74 77.5 113.5t209.5 39.5z" />
    <glyph glyph-name="acute" unicode="&#xb4;" horiz-adv-x="610" 
d="M225 1618h215q68 -56 109 -160l-348 -284h-140z" />
    <glyph glyph-name="mu" unicode="&#xb5;" horiz-adv-x="1296" 
d="M1270 172v-131q-217 -52 -412 -61l-47 24l10 164h-26q-53 -103 -114 -149t-138 -46q-86 0 -133 64l-23 -12l51 -426q-132 -35 -321 -35l-45 49l61 539v880q144 36 307 43l47 -22v-682q0 -78 32.5 -115t103.5 -37q95 0 168 66v743q158 41 309 47l45 -22v-844z" />
    <glyph glyph-name="paragraph" unicode="&#xb6;" horiz-adv-x="1179" 
d="M709 385h-142q-251 -2 -388.5 122t-137.5 359q0 234 137 365t387 131h144v-977zM1147 1235l-143 -47v-959q0 -399 -402 -399q-106 0 -204.5 28t-168.5 85l43 106q163 -78 324 -78q125 0 188.5 56.5t63.5 191.5v1143h299v-127z" />
    <glyph glyph-name="periodcentered" unicode="&#xb7;" horiz-adv-x="606" 
d="M326 811q89 0 139 -16q37 -59 37 -154q0 -119 -62 -207h-295l-41 334q101 43 222 43z" />
    <glyph glyph-name="cedilla" unicode="&#xb8;" horiz-adv-x="638" 
d="M371 12v-123q59 -1 101 -14t64.5 -36t32 -48t9.5 -55q0 -78 -66.5 -125t-196.5 -47q-164 0 -254 65l17 105q113 -23 151 -23q80 0 80 56q0 30 -25 43t-100 22l37 180h150z" />
    <glyph glyph-name="onesuperior" unicode="&#xb9;" horiz-adv-x="528" 
d="M506 877v-91h-463v91l121 24v389q-58 -6 -123 -6v115q59 3 125.5 30t101.5 72l119 -8v-608z" />
    <glyph glyph-name="ordmasculine" unicode="&#xba;" horiz-adv-x="819" 
d="M428 1167q174 0 259 -98t85 -256q0 -180 -104 -283.5t-279 -103.5q-88 0 -154.5 27t-107 75.5t-60.5 112t-20 139.5q0 179 104.5 283t276.5 104zM412 1053q-53 0 -71.5 -55t-18.5 -199q0 -146 18.5 -203t71.5 -57q52 0 71 56.5t19 201.5q0 144 -19 200t-71 56z" />
    <glyph glyph-name="guillemotright" unicode="&#xbb;" horiz-adv-x="1257" 
d="M1167 606v-106l-354 -365l-143 90l155 328l-155 328l143 90zM629 606v-106l-355 -365l-143 90l156 328l-156 328l143 90z" />
    <glyph glyph-name="onequarter" unicode="&#xbc;" horiz-adv-x="1910" 
d="M1403 1366l20 -45q-274 -408 -444 -670q-72 -113 -215.5 -363t-196.5 -337l-129 41l-22 47q353 524 450 674q71 111 211.5 357.5t196.5 338.5zM621 633v-107h-572v107l152 31v473q-68 -9 -152 -9v136q72 3 154.5 36t128.5 89l145 -11v-733zM1884 121h-104v-121h-275v121
h-405l-8 110q129 318 223 643l248 -51l12 -53q-139 -262 -287 -489l6 -23q139 21 183 21h28v217l203 61l72 -14v-264h104v-158z" />
    <glyph glyph-name="onehalf" unicode="&#xbd;" horiz-adv-x="1988" 
d="M1403 1366l20 -45q-274 -408 -444 -670q-72 -113 -215.5 -363t-196.5 -337l-129 41l-22 47q353 524 450 674q71 111 211.5 357.5t196.5 338.5zM621 633v-107h-572v107l152 31v473q-68 -9 -152 -9v136q72 3 154.5 36t128.5 89l145 -11v-733zM1794 279l135 -5
q15 -56 15 -114q0 -88 -21 -160h-704l-9 131q22 17 67.5 52t71 54.5t66 53.5t64 59t52.5 60.5t44 67t26 70t11 77.5q0 64 -24.5 90t-69.5 26q-21 0 -45 -6l-27 -209h-184q-58 42 -58 117q0 97 103.5 158t265.5 61t254 -65t92 -174q0 -44 -15 -84.5t-49.5 -79.5t-73 -71.5
t-103.5 -73t-121.5 -72t-145.5 -78.5l8 -19q119 27 213 37l146 13z" />
    <glyph glyph-name="threequarters" unicode="&#xbe;" horiz-adv-x="2060" 
d="M1552 1366l21 -45q-303 -451 -445 -670q-72 -113 -214.5 -362t-196.5 -338l-129 41l-23 47q374 555 451 674q71 110 210.5 357t196.5 339zM559 969v-25q106 -15 164.5 -65t58.5 -134q0 -117 -110.5 -180t-292.5 -63q-156 0 -249 46t-93 134q0 64 51 115h180l23 -168
q40 -4 59 -4q65 0 96 28.5t31 98.5q0 71 -35.5 102t-128.5 31h-39v123h91q40 35 58.5 68t18.5 87q0 57 -22.5 80t-69.5 23q-17 0 -45 -4l-20 -166h-181q-53 49 -53 104q0 90 96.5 138t255.5 48q160 0 252.5 -55t92.5 -172q0 -81 -47.5 -124.5t-141.5 -65.5zM2034 121h-105
v-121h-274v121h-406l-8 110q129 318 223 643l248 -51l12 -53q-143 -270 -286 -489l6 -23q139 21 182 21h29v217l203 61l71 -14v-264h105v-158z" />
    <glyph glyph-name="questiondown" unicode="&#xbf;" horiz-adv-x="782" 
d="M362 793l-8 272q82 16 150 16q117 0 180 -28q23 -48 23 -103q0 -108 -76 -184zM193 98q0 -40 41 -60.5t153.5 -27.5t312.5 8v-325q-99 -23 -172 -23q-102 0 -184 31.5t-134 82.5t-86.5 120t-48.5 139.5t-14 146.5q0 147 70 218.5t266 128.5l19 112h176q44 -68 67 -122.5
t23 -114.5q0 -72 -37.5 -103t-140.5 -63q-213 -66 -239 -76q-62 -25 -70 -56q-2 -7 -2 -16z" />
    <glyph glyph-name="Agrave" unicode="&#xc0;" horiz-adv-x="1468" 
d="M1458 127v-127h-663v127l125 47l-56 188h-467l-61 -217l119 -18v-127h-445v127l125 45q250 786 395 1174l322 43l57 -17q205 -536 422 -1227zM446 526h367q-127 399 -172 525h-27q-91 -269 -168 -525zM838 1464h-160l-322 236q40 113 109 160h217z" />
    <glyph glyph-name="Aacute" unicode="&#xc1;" horiz-adv-x="1468" 
d="M1458 127v-127h-663v127l125 47l-56 188h-467l-61 -217l119 -18v-127h-445v127l125 45q250 786 395 1174l322 43l57 -17q205 -536 422 -1227zM446 526h367q-127 399 -172 525h-27q-91 -269 -168 -525zM854 1860h215q71 -49 111 -160l-353 -236h-159z" />
    <glyph glyph-name="Acircumflex" unicode="&#xc2;" horiz-adv-x="1468" 
d="M1458 127v-127h-663v127l125 47l-56 188h-467l-61 -217l119 -18v-127h-445v127l125 45q250 786 395 1174l322 43l57 -17q205 -536 422 -1227zM446 526h367q-127 399 -172 525h-27q-91 -269 -168 -525zM1098 1540l-205 -106l-219 196h-21l-192 -166h-144l312 375h213z" />
    <glyph glyph-name="Atilde" unicode="&#xc3;" horiz-adv-x="1468" 
d="M1458 127v-127h-663v127l125 47l-56 188h-467l-61 -217l119 -18v-127h-445v127l125 45q250 786 395 1174l322 43l57 -17q205 -536 422 -1227zM446 526h367q-127 399 -172 525h-27q-91 -269 -168 -525zM1012 1810l88 -55q-17 -57 -36 -99.5t-48 -82.5t-70 -61t-92 -21
q-66 0 -125 22l-233 93l-95 -115l-88 55q17 57 36 99.5t48 82.5t70 61t92 21q64 0 123 -22l236 -94z" />
    <glyph glyph-name="Adieresis" unicode="&#xc4;" horiz-adv-x="1468" 
d="M1458 127v-127h-663v127l125 47l-56 188h-467l-61 -217l119 -18v-127h-445v127l125 45q250 786 395 1174l322 43l57 -17q205 -536 422 -1227zM446 526h367q-127 399 -172 525h-27q-91 -269 -168 -525zM467 1786q72 0 108 -14q33 -49 33 -125q0 -45 -13.5 -81t-45.5 -79
h-236l-37 262q102 37 191 37zM997 1786q71 0 109 -14q31 -50 31 -125q0 -46 -13 -81.5t-45 -78.5h-237l-37 262q105 37 192 37z" />
    <glyph glyph-name="Aring" unicode="&#xc5;" horiz-adv-x="1468" 
d="M1458 127v-127h-663v127l125 47l-56 188h-467l-61 -217l119 -18v-127h-445v127l125 45q250 786 395 1174l322 43l57 -17q205 -536 422 -1227zM446 526h367q-127 399 -172 525h-27q-91 -269 -168 -525zM729 1884q132 0 197 -53.5t65 -149.5q0 -109 -79 -164t-220 -55
q-136 0 -203 50.5t-67 144.5q0 77 43 129.5t110 75t154 22.5zM709 1772q-78 0 -78 -97q0 -98 76 -98q79 0 79 100q0 95 -77 95z" />
    <glyph glyph-name="AE" unicode="&#xc6;" horiz-adv-x="2023" 
d="M1718 391l221 -12q11 -102 11 -152q0 -110 -25 -227h-1155v127l137 47v203h-461q-20 -46 -57 -128.5t-47 -103.5l123 -18v-127h-455v127l123 43q176 373 522 1040l-143 25v127h1419q13 -63 13 -154q0 -112 -25 -221h-205l-55 207l-369 12v-440l199 10l22 101h138v-379
h-138l-24 104l-197 12v-460l352 10zM907 541v641h-80q-186 -386 -305 -641h385z" />
    <glyph glyph-name="Ccedilla" unicode="&#xc7;" horiz-adv-x="1388" 
d="M1272 330l31 -142q-164 -174 -429 -206v-93q59 -1 101 -14t64.5 -36t32 -48t9.5 -55q0 -79 -66.5 -125.5t-197.5 -46.5q-165 0 -252 65l17 105q113 -23 149 -23q82 0 82 56q0 30 -25 43t-100 22h-2l29 143q-204 8 -349.5 98.5t-217.5 241.5t-72 347q0 161 50 293.5
t145.5 229.5t243 150.5t333.5 53.5q230 0 416 -80q10 -55 10 -140q0 -101 -25 -237h-221l-70 270q-68 10 -116 10q-175 0 -257.5 -107t-82.5 -355q0 -270 97.5 -397.5t295.5 -127.5q190 0 377 105z" />
    <glyph glyph-name="Egrave" unicode="&#xc8;" horiz-adv-x="1323" 
d="M1016 391l221 -12q12 -74 12 -152q0 -104 -24 -227h-1162v127l136 47h2v1034l-140 27v127h1170q14 -68 14 -150q0 -111 -26 -225h-205l-56 209l-372 12v-442l205 10l20 101h137v-379h-137l-23 104l-202 10v-458l356 12zM799 1464h-160l-322 236q40 113 109 160h217z" />
    <glyph glyph-name="Eacute" unicode="&#xc9;" horiz-adv-x="1323" 
d="M1016 391l221 -12q12 -74 12 -152q0 -104 -24 -227h-1162v127l136 47h2v1034l-140 27v127h1170q14 -68 14 -150q0 -111 -26 -225h-205l-56 209l-372 12v-442l205 10l20 101h137v-379h-137l-23 104l-202 10v-458l356 12zM815 1860h215q71 -49 111 -160l-353 -236h-159z
" />
    <glyph glyph-name="Ecircumflex" unicode="&#xca;" horiz-adv-x="1323" 
d="M1016 391l221 -12q12 -74 12 -152q0 -104 -24 -227h-1162v127l136 47h2v1034l-140 27v127h1170q14 -68 14 -150q0 -111 -26 -225h-205l-56 209l-372 12v-442l205 10l20 101h137v-379h-137l-23 104l-202 10v-458l356 12zM1059 1540l-205 -106l-219 196h-21l-192 -166h-143
l311 375h213z" />
    <glyph glyph-name="Edieresis" unicode="&#xcb;" horiz-adv-x="1323" 
d="M1016 391l221 -12q12 -74 12 -152q0 -104 -24 -227h-1162v127l136 47h2v1034l-140 27v127h1170q14 -68 14 -150q0 -111 -26 -225h-205l-56 209l-372 12v-442l205 10l20 101h137v-379h-137l-23 104l-202 10v-458l356 12zM428 1786q73 0 109 -14q32 -47 32 -125
q0 -45 -13.5 -81t-45.5 -79h-236l-36 262q102 37 190 37zM958 1786q70 0 109 -14q31 -50 31 -125q0 -46 -13 -81.5t-45 -78.5h-237l-37 262q105 37 192 37z" />
    <glyph glyph-name="Igrave" unicode="&#xcc;" horiz-adv-x="784" 
d="M584 1188v-1043l139 -18v-127h-662v127l138 47v1043l-138 18v127h662v-127zM532 1464h-159l-322 236q40 113 109 160h217z" />
    <glyph glyph-name="Iacute" unicode="&#xcd;" horiz-adv-x="784" 
d="M584 1188v-1043l139 -18v-127h-662v127l138 47v1043l-138 18v127h662v-127zM549 1860h215q70 -48 110 -160l-352 -236h-160z" />
    <glyph glyph-name="Icircumflex" unicode="&#xce;" horiz-adv-x="784" 
d="M584 1188v-1043l139 -18v-127h-662v127l138 47v1043l-138 18v127h662v-127zM793 1540l-205 -106l-219 196h-21l-192 -166h-144l312 375h213z" />
    <glyph glyph-name="Idieresis" unicode="&#xcf;" horiz-adv-x="784" 
d="M584 1188v-1043l139 -18v-127h-662v127l138 47v1043l-138 18v127h662v-127zM162 1786q72 0 108 -14q33 -49 33 -125q0 -45 -13.5 -81t-45.5 -79h-236l-37 262q102 37 191 37zM692 1786q71 0 109 -14q30 -48 30 -125q0 -46 -12.5 -82t-44.5 -78h-237l-37 262
q105 37 192 37z" />
    <glyph glyph-name="Eth" unicode="&#xd0;" horiz-adv-x="1562" 
d="M637 1384q233 0 398.5 -44.5t264 -132t143 -206.5t44.5 -278q0 -351 -200 -537t-578 -186h-627v127l137 47v453h-137v155h137v432l-137 17v127q269 26 555 26zM604 164h101q84 0 142.5 17t101 53t66.5 99t35 148.5t11 208.5q0 206 -32.5 319.5t-104.5 162.5t-203 49h-117
v-439h246v-155h-246v-463z" />
    <glyph glyph-name="Ntilde" unicode="&#xd1;" horiz-adv-x="1562" 
d="M1516 1235l-136 -45v-1174l-338 -41l-59 15l-438 805q-94 180 -152 333h-22l32 -983l162 -18v-127h-504v127l138 47v1043l-138 18v127h625l342 -639q85 -163 158 -338h24l-32 832l-162 18v127h500v-127zM1073 1810l88 -55q-17 -57 -36 -99.5t-48 -82.5t-70 -61t-92 -21
q-65 0 -124 22l-234 93l-94 -115l-88 55q17 57 36 99.5t48 82.5t70 61t92 21q63 0 122 -22l236 -94z" />
    <glyph glyph-name="Ograve" unicode="&#xd2;" horiz-adv-x="1609" 
d="M844 1389q171 0 304 -50.5t216.5 -141.5t126.5 -213.5t43 -270.5q0 -229 -100 -398.5t-272.5 -255.5t-395.5 -86q-169 0 -301.5 51.5t-217 143.5t-128 216t-43.5 273q0 227 98 394t271 252.5t399 85.5zM805 1212q-156 0 -228.5 -120.5t-72.5 -407.5t72.5 -410.5
t228.5 -123.5t228.5 123.5t72.5 410.5t-72.5 407.5t-228.5 120.5zM938 1464h-160l-321 236q41 114 108 160h217z" />
    <glyph glyph-name="Oacute" unicode="&#xd3;" horiz-adv-x="1609" 
d="M844 1389q171 0 304 -50.5t216.5 -141.5t126.5 -213.5t43 -270.5q0 -229 -100 -398.5t-272.5 -255.5t-395.5 -86q-169 0 -301.5 51.5t-217 143.5t-128 216t-43.5 273q0 227 98 394t271 252.5t399 85.5zM805 1212q-156 0 -228.5 -120.5t-72.5 -407.5t72.5 -410.5
t228.5 -123.5t228.5 123.5t72.5 410.5t-72.5 407.5t-228.5 120.5zM954 1860h215q71 -49 111 -160l-352 -236h-160z" />
    <glyph glyph-name="Ocircumflex" unicode="&#xd4;" horiz-adv-x="1609" 
d="M844 1389q171 0 304 -50.5t216.5 -141.5t126.5 -213.5t43 -270.5q0 -229 -100 -398.5t-272.5 -255.5t-395.5 -86q-169 0 -301.5 51.5t-217 143.5t-128 216t-43.5 273q0 227 98 394t271 252.5t399 85.5zM805 1212q-156 0 -228.5 -120.5t-72.5 -407.5t72.5 -410.5
t228.5 -123.5t228.5 123.5t72.5 410.5t-72.5 407.5t-228.5 120.5zM1198 1540l-205 -106l-219 196h-20l-193 -166h-143l311 375h213z" />
    <glyph glyph-name="Otilde" unicode="&#xd5;" horiz-adv-x="1609" 
d="M844 1389q171 0 304 -50.5t216.5 -141.5t126.5 -213.5t43 -270.5q0 -229 -100 -398.5t-272.5 -255.5t-395.5 -86q-169 0 -301.5 51.5t-217 143.5t-128 216t-43.5 273q0 227 98 394t271 252.5t399 85.5zM805 1212q-156 0 -228.5 -120.5t-72.5 -407.5t72.5 -410.5
t228.5 -123.5t228.5 123.5t72.5 410.5t-72.5 407.5t-228.5 120.5zM1112 1810l88 -55q-17 -57 -36 -99.5t-48 -82.5t-70 -61t-92 -21q-66 0 -125 22l-233 93l-94 -115l-88 55q17 57 36 99t47.5 82.5t69.5 61.5t92 21q64 0 123 -22l236 -94z" />
    <glyph glyph-name="Odieresis" unicode="&#xd6;" horiz-adv-x="1609" 
d="M844 1389q171 0 304 -50.5t216.5 -141.5t126.5 -213.5t43 -270.5q0 -229 -100 -398.5t-272.5 -255.5t-395.5 -86q-169 0 -301.5 51.5t-217 143.5t-128 216t-43.5 273q0 227 98 394t271 252.5t399 85.5zM805 1212q-156 0 -228.5 -120.5t-72.5 -407.5t72.5 -410.5
t228.5 -123.5t228.5 123.5t72.5 410.5t-72.5 407.5t-228.5 120.5zM567 1786q73 0 109 -14q33 -49 33 -125q0 -45 -13.5 -81t-46.5 -79h-235l-37 262q102 37 190 37zM1098 1786q70 0 108 -14q31 -50 31 -125q0 -46 -12.5 -82t-44.5 -78h-238l-37 262q105 37 193 37z" />
    <glyph glyph-name="multiply" unicode="&#xd7;" 
d="M1085 926l-294 -316l307 -307l-156 -145l-295 315l-315 -313l-156 145l299 316l-313 307l157 145l299 -313l310 311z" />
    <glyph glyph-name="Oslash" unicode="&#xd8;" horiz-adv-x="1609" 
d="M1417 1442l-127 -180q121 -88 182.5 -229.5t61.5 -319.5q0 -229 -100 -398.5t-272.5 -255.5t-395.5 -86q-199 0 -350 74l-158 -221l-108 55l-17 41l150 213q-102 91 -154.5 225t-52.5 297q0 227 98 394t271 252.5t399 85.5q169 0 305 -52l143 201l111 -55zM809 1212
q-108 0 -172.5 -46.5t-98.5 -164t-34 -321.5q0 -141 14 -229l492 684q-63 77 -201 77zM801 150q108 0 173 48t98.5 167t33.5 323q0 183 -27 297l-510 -711q68 -124 232 -124z" />
    <glyph glyph-name="Ugrave" unicode="&#xd9;" horiz-adv-x="1486" 
d="M1454 1235l-139 -49v-746q0 -217 -150.5 -342t-427.5 -125t-422 127.5t-145 354.5v762l-137 18v127h653v-127l-131 -47v-764q0 -151 68.5 -220t205.5 -69q283 0 283 285v797l-151 18v127h493v-127zM940 1464h-160l-321 236q41 114 108 160h217z" />
    <glyph glyph-name="Uacute" unicode="&#xda;" horiz-adv-x="1486" 
d="M1454 1235l-139 -49v-746q0 -217 -150.5 -342t-427.5 -125t-422 127.5t-145 354.5v762l-137 18v127h653v-127l-131 -47v-764q0 -151 68.5 -220t205.5 -69q283 0 283 285v797l-151 18v127h493v-127zM956 1860h215q71 -49 111 -160l-352 -236h-160z" />
    <glyph glyph-name="Ucircumflex" unicode="&#xdb;" horiz-adv-x="1486" 
d="M1454 1235l-139 -49v-746q0 -217 -150.5 -342t-427.5 -125t-422 127.5t-145 354.5v762l-137 18v127h653v-127l-131 -47v-764q0 -151 68.5 -220t205.5 -69q283 0 283 285v797l-151 18v127h493v-127zM1200 1540l-205 -106l-219 196h-20l-193 -166h-143l311 375h213z" />
    <glyph glyph-name="Udieresis" unicode="&#xdc;" horiz-adv-x="1486" 
d="M1454 1235l-139 -49v-746q0 -217 -150.5 -342t-427.5 -125t-422 127.5t-145 354.5v762l-137 18v127h653v-127l-131 -47v-764q0 -151 68.5 -220t205.5 -69q283 0 283 285v797l-151 18v127h493v-127zM569 1786q73 0 109 -14q33 -49 33 -125q0 -45 -13.5 -81t-46.5 -79h-235
l-37 262q102 37 190 37zM1100 1786q70 0 108 -14q31 -50 31 -125q0 -46 -12.5 -82t-44.5 -78h-238l-37 262q105 37 193 37z" />
    <glyph glyph-name="Yacute" unicode="&#xdd;" horiz-adv-x="1415" 
d="M1399 1235l-121 -45q-159 -345 -354 -713v-332l157 -18v-127h-702v127l160 47v285q-233 440 -383 758l-140 18v127h639v-127l-84 -39q126 -292 244 -522h25q123 244 245 543l-151 18v127h465v-127zM887 1860h215q70 -48 110 -160l-352 -236h-160z" />
    <glyph glyph-name="Thorn" unicode="&#xde;" horiz-adv-x="1390" 
d="M584 1157h127q330 0 474 -98.5t144 -339.5q0 -222 -118 -333.5t-349 -111.5q-98 0 -198 17v145h38q102 0 151.5 61.5t49.5 223.5q0 145 -46 208.5t-163 63.5h-110v-848h2l168 -18v-127h-691v127l136 47v1043l-138 18v127h486l37 -45v-160z" />
    <glyph glyph-name="germandbls" unicode="&#xdf;" horiz-adv-x="1386" 
d="M1104 696q124 -55 187 -135.5t63 -204.5q0 -179 -121.5 -281t-323.5 -102q-60 0 -113.5 10t-100.5 31t-75 60t-28 92q0 43 17 77t46 52h119l27 -195q62 -10 94 -10q137 0 137 131q0 52 -29 85.5t-122 92.5q-53 34 -76.5 50.5t-58.5 45.5t-49.5 51t-26 53.5t-11.5 68.5
q0 23 5 45.5t9.5 37t18 38t18.5 30.5t24 33.5t22 30.5q47 66 71.5 133t24.5 172q0 125 -40 180t-124 55q-172 0 -172 -219v-1204h-471v109l117 45v727l-133 26v129l133 27q7 158 85.5 266.5t211 160.5t311.5 52q215 0 334 -77t119 -224q0 -51 -16.5 -96t-40 -75.5
t-62.5 -60.5t-70.5 -48t-77.5 -41q-45 -22 -59 -36.5t-14 -41.5q0 -36 35 -58.5t186 -87.5z" />
    <glyph glyph-name="agrave" unicode="&#xe0;" horiz-adv-x="1136" 
d="M1118 170v-123q-155 -63 -268 -63q-182 0 -182 143v25h-27q-95 -179 -307 -179q-138 0 -213.5 74.5t-75.5 202.5q0 162 125 241.5t342 79.5q27 0 77.5 -2t63.5 -2v189q0 111 -38.5 151.5t-122.5 40.5q-22 0 -58 -4l-33 -258h-221q-76 62 -76 141q0 113 134.5 183.5
t332.5 70.5q216 0 324 -90t106 -262l-8 -528zM506 182q77 0 145 64v211h-61q-98 0 -139 -40.5t-41 -117.5q0 -64 22 -90.5t74 -26.5zM682 1174h-141l-334 284q40 113 110 160h215z" />
    <glyph glyph-name="aacute" unicode="&#xe1;" horiz-adv-x="1136" 
d="M1118 170v-123q-155 -63 -268 -63q-182 0 -182 143v25h-27q-95 -179 -307 -179q-138 0 -213.5 74.5t-75.5 202.5q0 162 125 241.5t342 79.5q27 0 77.5 -2t63.5 -2v189q0 111 -38.5 151.5t-122.5 40.5q-22 0 -58 -4l-33 -258h-221q-76 62 -76 141q0 113 134.5 183.5
t332.5 70.5q216 0 324 -90t106 -262l-8 -528zM506 182q77 0 145 64v211h-61q-98 0 -139 -40.5t-41 -117.5q0 -64 22 -90.5t74 -26.5zM629 1618h215q66 -54 108 -160l-348 -284h-139z" />
    <glyph glyph-name="acircumflex" unicode="&#xe2;" horiz-adv-x="1136" 
d="M1118 170v-123q-155 -63 -268 -63q-182 0 -182 143v25h-27q-95 -179 -307 -179q-138 0 -213.5 74.5t-75.5 202.5q0 162 125 241.5t342 79.5q27 0 77.5 -2t63.5 -2v189q0 111 -38.5 151.5t-122.5 40.5q-22 0 -58 -4l-33 -258h-221q-76 62 -76 141q0 113 134.5 183.5
t332.5 70.5q216 0 324 -90t106 -262l-8 -528zM506 182q77 0 145 64v211h-61q-98 0 -139 -40.5t-41 -117.5q0 -64 22 -90.5t74 -26.5zM936 1249l-205 -104l-199 223h-22l-170 -194h-139l284 419h215z" />
    <glyph glyph-name="atilde" unicode="&#xe3;" horiz-adv-x="1136" 
d="M1118 170v-123q-155 -63 -268 -63q-182 0 -182 143v25h-27q-95 -179 -307 -179q-138 0 -213.5 74.5t-75.5 202.5q0 162 125 241.5t342 79.5q27 0 77.5 -2t63.5 -2v189q0 111 -38.5 151.5t-122.5 40.5q-22 0 -58 -4l-33 -258h-221q-76 62 -76 141q0 113 134.5 183.5
t332.5 70.5q216 0 324 -90t106 -262l-8 -528zM506 182q77 0 145 64v211h-61q-98 0 -139 -40.5t-41 -117.5q0 -64 22 -90.5t74 -26.5zM840 1528l88 -55q-18 -58 -36 -100t-46 -83t-68.5 -62.5t-91.5 -21.5q-62 0 -117 27l-182 90l-92 -117l-88 56q18 57 34.5 96.5t44.5 82.5
t68 65t92 22q57 0 119 -29l180 -90z" />
    <glyph glyph-name="adieresis" unicode="&#xe4;" horiz-adv-x="1136" 
d="M1118 170v-123q-155 -63 -268 -63q-182 0 -182 143v25h-27q-95 -179 -307 -179q-138 0 -213.5 74.5t-75.5 202.5q0 162 125 241.5t342 79.5q27 0 77.5 -2t63.5 -2v189q0 111 -38.5 151.5t-122.5 40.5q-22 0 -58 -4l-33 -258h-221q-76 62 -76 141q0 113 134.5 183.5
t332.5 70.5q216 0 324 -90t106 -262l-8 -528zM506 182q77 0 145 64v211h-61q-98 0 -139 -40.5t-41 -117.5q0 -64 22 -90.5t74 -26.5zM362 1538q66 0 107 -14q35 -55 35 -125q0 -78 -62 -160h-235l-35 262q98 37 190 37zM825 1538q66 0 107 -14q35 -55 35 -125
q0 -78 -62 -160h-233l-37 262q102 37 190 37z" />
    <glyph glyph-name="aring" unicode="&#xe5;" horiz-adv-x="1136" 
d="M1118 170v-123q-155 -63 -268 -63q-182 0 -182 143v25h-27q-95 -179 -307 -179q-138 0 -213.5 74.5t-75.5 202.5q0 162 125 241.5t342 79.5q27 0 77.5 -2t63.5 -2v189q0 111 -38.5 151.5t-122.5 40.5q-22 0 -58 -4l-33 -258h-221q-76 62 -76 141q0 113 134.5 183.5
t332.5 70.5q216 0 324 -90t106 -262l-8 -528zM506 182q77 0 145 64v211h-61q-98 0 -139 -40.5t-41 -117.5q0 -64 22 -90.5t74 -26.5zM590 1638q133 0 197.5 -56t64.5 -159q0 -119 -79.5 -181t-219.5 -62q-134 0 -202 58t-68 159q0 121 86 181t221 60zM569 1526
q-41 0 -59 -26t-18 -89q0 -62 18 -90.5t57 -28.5q80 0 80 119q0 62 -18.5 88.5t-59.5 26.5z" />
    <glyph glyph-name="ae" unicode="&#xe6;" horiz-adv-x="1685" 
d="M1290 205q134 0 283 71l31 -122q-80 -84 -185.5 -132.5t-261.5 -48.5q-304 0 -432 197h-27q-45 -94 -133 -145.5t-209 -51.5q-148 0 -229.5 74t-81.5 207q0 53 14.5 96.5t38.5 74t62.5 54.5t77 39t92.5 26t99.5 16.5t105.5 10.5q72 7 108 7l4 174q3 112 -38 154t-124 42
q-19 0 -55 -4l-33 -258h-221q-76 61 -76 141q0 73 61.5 132.5t159 90.5t207.5 31q133 0 212 -46.5t104 -121.5h24q46 77 136 122.5t217 45.5q194 0 293.5 -103.5t99.5 -270.5q0 -117 -35 -201l-580 -19q19 -144 90.5 -213t200.5 -69zM1153 932q-72 0 -115.5 -77t-44.5 -247
l275 33l2 55q0 122 -28 179t-89 57zM510 182q89 0 166 88q-29 85 -35 195l-29 -2q-114 -8 -156 -48.5t-42 -107.5t23.5 -96t72.5 -29z" />
    <glyph glyph-name="ccedilla" unicode="&#xe7;" horiz-adv-x="1093" 
d="M735 199q109 0 262 63l27 -121q-140 -143 -350 -164v-88q59 -1 101 -14t64.5 -36t32 -48t9.5 -55q0 -78 -66.5 -125t-198.5 -47q-164 0 -251 65l16 105q113 -23 149 -23q82 0 82 56q0 30 -25 43t-100 22h-2l29 145q-117 11 -204.5 55t-141 114.5t-79.5 159t-26 194.5
q0 141 45 253t124.5 182.5t184 107t226.5 36.5q108 0 193 -26t139.5 -84.5t54.5 -143.5q0 -108 -82 -163h-231l-27 280q-16 2 -43 2q-95 0 -143.5 -80.5t-48.5 -261.5q0 -206 67 -304.5t213 -98.5z" />
    <glyph glyph-name="egrave" unicode="&#xe8;" horiz-adv-x="1134" 
d="M737 205q135 0 287 71l29 -122q-78 -85 -185 -133t-266 -48q-142 0 -247.5 40t-168.5 113t-93 166.5t-30 209.5q0 140 44 251.5t122.5 182.5t184 108t231.5 37q110 0 192.5 -28t131 -79t71.5 -116.5t23 -146.5q0 -103 -33 -187h-590q12 -162 85.5 -240.5t211.5 -78.5z
M600 932q-70 0 -114 -69.5t-50 -219.5l283 19v40q0 117 -28.5 173.5t-90.5 56.5zM717 1174h-142l-333 284q40 113 110 160h215z" />
    <glyph glyph-name="eacute" unicode="&#xe9;" horiz-adv-x="1134" 
d="M737 205q135 0 287 71l29 -122q-78 -85 -185 -133t-266 -48q-142 0 -247.5 40t-168.5 113t-93 166.5t-30 209.5q0 140 44 251.5t122.5 182.5t184 108t231.5 37q110 0 192.5 -28t131 -79t71.5 -116.5t23 -146.5q0 -103 -33 -187h-590q12 -162 85.5 -240.5t211.5 -78.5z
M600 932q-70 0 -114 -69.5t-50 -219.5l283 19v40q0 117 -28.5 173.5t-90.5 56.5zM664 1618h215q66 -54 108 -160l-348 -284h-139z" />
    <glyph glyph-name="ecircumflex" unicode="&#xea;" horiz-adv-x="1134" 
d="M737 205q135 0 287 71l29 -122q-78 -85 -185 -133t-266 -48q-142 0 -247.5 40t-168.5 113t-93 166.5t-30 209.5q0 140 44 251.5t122.5 182.5t184 108t231.5 37q110 0 192.5 -28t131 -79t71.5 -116.5t23 -146.5q0 -103 -33 -187h-590q12 -162 85.5 -240.5t211.5 -78.5z
M600 932q-70 0 -114 -69.5t-50 -219.5l283 19v40q0 117 -28.5 173.5t-90.5 56.5zM971 1249l-205 -104l-199 223h-22l-170 -194h-139l284 419h215z" />
    <glyph glyph-name="edieresis" unicode="&#xeb;" horiz-adv-x="1134" 
d="M737 205q135 0 287 71l29 -122q-78 -85 -185 -133t-266 -48q-142 0 -247.5 40t-168.5 113t-93 166.5t-30 209.5q0 140 44 251.5t122.5 182.5t184 108t231.5 37q110 0 192.5 -28t131 -79t71.5 -116.5t23 -146.5q0 -103 -33 -187h-590q12 -162 85.5 -240.5t211.5 -78.5z
M600 932q-70 0 -114 -69.5t-50 -219.5l283 19v40q0 117 -28.5 173.5t-90.5 56.5zM397 1538q66 0 107 -14q35 -55 35 -125q0 -78 -62 -160h-235l-35 262q98 37 190 37zM860 1538q66 0 107 -14q34 -53 34 -125q0 -79 -61 -160h-233l-37 262q102 37 190 37z" />
    <glyph glyph-name="igrave" unicode="&#xec;" horiz-adv-x="667" 
d="M645 123v-123h-600v123l117 47v670l-117 53v123q177 45 424 59l47 -22v-910zM432 1174h-139l-344 284q40 113 110 160h215z" />
    <glyph glyph-name="iacute" unicode="&#xed;" horiz-adv-x="667" 
d="M645 123v-123h-600v123l117 47v670l-117 53v123q177 45 424 59l47 -22v-910zM373 1618h215q69 -48 110 -160l-340 -284h-139z" />
    <glyph glyph-name="icircumflex" unicode="&#xee;" horiz-adv-x="667" 
d="M645 123v-123h-600v123l117 47v670l-117 53v123q177 45 424 59l47 -22v-910zM621 1253l-205 -104l-154 205h-22l-123 -176h-142l242 415h213z" />
    <glyph glyph-name="idieresis" unicode="&#xef;" horiz-adv-x="667" 
d="M645 123v-123h-600v123l117 47v670l-117 53v123q177 45 424 59l47 -22v-910zM125 1538q67 0 108 -14q35 -59 35 -125q0 -75 -61 -160h-219l-33 262q98 37 170 37zM547 1538q65 0 108 -14q33 -56 33 -125q0 -83 -61 -160h-215l-37 262q101 37 172 37z" />
    <glyph glyph-name="eth" unicode="&#xf0;" 
d="M991 1436l-192 -95q114 -78 195.5 -176.5t123.5 -201t60 -194.5t18 -185q0 -291 -158 -452t-432 -161q-117 0 -214 31t-171.5 94t-116 167t-41.5 241q0 227 112.5 356t313.5 129q180 0 277 -115h27q-36 202 -220 357l-213 -105l-124 72l-9 37l199 96q-116 69 -272 129
l69 101q230 -41 412 -125l227 110l123 -71zM629 121q96 0 139 86t43 297q0 147 -16 254q-79 55 -170 55q-62 0 -97.5 -27.5t-55 -103.5t-19.5 -213q0 -186 39.5 -267t136.5 -81z" />
    <glyph glyph-name="ntilde" unicode="&#xf1;" horiz-adv-x="1316" 
d="M1305 123v-123h-568v123l84 47h2v516q0 152 -139 152q-91 0 -168 -66v-631l98 -18v-123h-569v123l117 47v670l-117 53v123q239 54 408 59l47 -22l-11 -164h25q122 192 350 192q152 0 233 -86t81 -239v-615zM958 1528l89 -55q-18 -58 -36 -100t-46 -83t-68.5 -62.5
t-91.5 -21.5q-62 0 -117 27l-182 90l-92 -117l-88 56q18 57 34.5 96.5t44.5 82.5t68 65t92 22q57 0 119 -29l180 -90z" />
    <glyph glyph-name="ograve" unicode="&#xf2;" horiz-adv-x="1265" 
d="M666 1081q137 0 241.5 -40.5t168 -112.5t95 -166.5t31.5 -208.5q0 -269 -165 -424.5t-439 -155.5q-136 0 -240 40.5t-167.5 113.5t-95.5 167.5t-32 209.5q0 270 164.5 423.5t438.5 153.5zM631 932q-98 0 -135 -90.5t-37 -311.5q0 -223 37 -315t135 -92t136 92.5t38 314.5
q0 220 -38 311t-136 91zM748 1174h-142l-334 284q40 112 111 160h215z" />
    <glyph glyph-name="oacute" unicode="&#xf3;" horiz-adv-x="1265" 
d="M666 1081q137 0 241.5 -40.5t168 -112.5t95 -166.5t31.5 -208.5q0 -269 -165 -424.5t-439 -155.5q-136 0 -240 40.5t-167.5 113.5t-95.5 167.5t-32 209.5q0 270 164.5 423.5t438.5 153.5zM631 932q-98 0 -135 -90.5t-37 -311.5q0 -223 37 -315t135 -92t136 92.5t38 314.5
q0 220 -38 311t-136 91zM694 1618h215q68 -56 109 -160l-348 -284h-140z" />
    <glyph glyph-name="ocircumflex" unicode="&#xf4;" horiz-adv-x="1265" 
d="M666 1081q137 0 241.5 -40.5t168 -112.5t95 -166.5t31.5 -208.5q0 -269 -165 -424.5t-439 -155.5q-136 0 -240 40.5t-167.5 113.5t-95.5 167.5t-32 209.5q0 270 164.5 423.5t438.5 153.5zM631 932q-98 0 -135 -90.5t-37 -311.5q0 -223 37 -315t135 -92t136 92.5t38 314.5
q0 220 -38 311t-136 91zM1001 1249l-204 -104l-199 223h-23l-169 -194h-140l285 419h215z" />
    <glyph glyph-name="otilde" unicode="&#xf5;" horiz-adv-x="1265" 
d="M666 1081q137 0 241.5 -40.5t168 -112.5t95 -166.5t31.5 -208.5q0 -269 -165 -424.5t-439 -155.5q-136 0 -240 40.5t-167.5 113.5t-95.5 167.5t-32 209.5q0 270 164.5 423.5t438.5 153.5zM631 932q-98 0 -135 -90.5t-37 -311.5q0 -223 37 -315t135 -92t136 92.5t38 314.5
q0 220 -38 311t-136 91zM905 1528l88 -55q-18 -59 -35.5 -100t-45.5 -82.5t-68.5 -63t-91.5 -21.5q-62 0 -117 27l-182 90l-93 -117l-88 56q14 45 26 77.5t33 70.5t45 62t59 40t77 16q57 0 119 -29l180 -90z" />
    <glyph glyph-name="odieresis" unicode="&#xf6;" horiz-adv-x="1265" 
d="M666 1081q137 0 241.5 -40.5t168 -112.5t95 -166.5t31.5 -208.5q0 -269 -165 -424.5t-439 -155.5q-136 0 -240 40.5t-167.5 113.5t-95.5 167.5t-32 209.5q0 270 164.5 423.5t438.5 153.5zM631 932q-98 0 -135 -90.5t-37 -311.5q0 -223 37 -315t135 -92t136 92.5t38 314.5
q0 220 -38 311t-136 91zM428 1538q66 0 107 -14q34 -53 34 -125q0 -79 -61 -160h-236l-34 262q98 37 190 37zM891 1538q65 0 106 -14q35 -55 35 -125q0 -79 -61 -160h-234l-37 262q102 37 191 37z" />
    <glyph glyph-name="divide" unicode="&#xf7;" 
d="M655 1208q85 0 129 -16q31 -51 31 -129q0 -106 -55 -178h-279l-37 282q90 41 211 41zM1161 520h-1061v191h1061v-191zM655 367q79 0 129 -15q31 -76 31 -129q0 -108 -55 -180h-279l-37 283q90 41 211 41z" />
    <glyph glyph-name="oslash" unicode="&#xf8;" horiz-adv-x="1265" 
d="M1102 1161l-103 -168q102 -69 152.5 -182.5t50.5 -257.5q0 -269 -165 -424.5t-439 -155.5q-113 0 -217 33l-115 -184l-110 51l-19 39l103 170q-88 69 -132.5 178.5t-44.5 243.5q0 270 164.5 423.5t438.5 153.5q100 0 186 -22l121 192l110 -51zM633 932
q-112 0 -151.5 -89.5t-39.5 -316.5q0 -55 4 -137l306 500q-40 43 -119 43zM629 123q111 0 150.5 90.5t39.5 318.5q0 124 -8 195l-324 -528q42 -76 142 -76z" />
    <glyph glyph-name="ugrave" unicode="&#xf9;" horiz-adv-x="1302" 
d="M1276 172v-131q-215 -52 -414 -61l-47 24l10 164h-24q-125 -195 -350 -195q-151 0 -231.5 87.5t-80.5 240.5v539l-116 53v123q237 53 423 59l48 -22v-682q0 -78 32 -115t103 -37q93 0 170 66v563l-94 45v123q254 55 401 59l47 -22v-844zM729 1174h-141l-334 284
q40 112 111 160h215z" />
    <glyph glyph-name="uacute" unicode="&#xfa;" horiz-adv-x="1302" 
d="M1276 172v-131q-215 -52 -414 -61l-47 24l10 164h-24q-125 -195 -350 -195q-151 0 -231.5 87.5t-80.5 240.5v539l-116 53v123q237 53 423 59l48 -22v-682q0 -78 32 -115t103 -37q93 0 170 66v563l-94 45v123q254 55 401 59l47 -22v-844zM676 1618h215q66 -54 108 -160
l-348 -284h-139z" />
    <glyph glyph-name="ucircumflex" unicode="&#xfb;" horiz-adv-x="1302" 
d="M1276 172v-131q-215 -52 -414 -61l-47 24l10 164h-24q-125 -195 -350 -195q-151 0 -231.5 87.5t-80.5 240.5v539l-116 53v123q237 53 423 59l48 -22v-682q0 -78 32 -115t103 -37q93 0 170 66v563l-94 45v123q254 55 401 59l47 -22v-844zM983 1249l-205 -104l-198 223h-23
l-170 -194h-139l284 419h216z" />
    <glyph glyph-name="udieresis" unicode="&#xfc;" horiz-adv-x="1302" 
d="M1276 172v-131q-215 -52 -414 -61l-47 24l10 164h-24q-125 -195 -350 -195q-151 0 -231.5 87.5t-80.5 240.5v539l-116 53v123q237 53 423 59l48 -22v-682q0 -78 32 -115t103 -37q93 0 170 66v563l-94 45v123q254 55 401 59l47 -22v-844zM410 1538q65 0 106 -14
q35 -55 35 -125q0 -78 -62 -160h-235l-35 262q98 37 191 37zM872 1538q66 0 107 -14q35 -55 35 -125q0 -78 -62 -160h-233l-37 262q102 37 190 37z" />
    <glyph glyph-name="yacute" unicode="&#xfd;" horiz-adv-x="1202" 
d="M1196 915l-123 -41q-71 -215 -169 -480t-171 -425q-66 -144 -149.5 -237t-161.5 -129.5t-160 -36.5q-109 0 -168 76l12 151h386q34 57 43 80q-84 182 -202 479.5t-204 546.5l-123 16v125h561v-125l-57 -36q90 -306 192 -584h25q97 278 174 604l-135 16v125h430v-125z
M670 1618h215q66 -54 108 -160l-348 -284h-139z" />
    <glyph glyph-name="thorn" unicode="&#xfe;" horiz-adv-x="1267" 
d="M827 1081q180 0 271.5 -134.5t91.5 -377.5q0 -108 -18.5 -198.5t-57.5 -165t-97.5 -125.5t-142 -79t-186.5 -28q-117 0 -199 31v-272l146 -19v-123h-617v123l117 47v1543l-125 49v123q196 57 432 67l47 -24v-269q0 -164 -28 -360h26q122 192 340 192zM618 123
q109 0 151 86.5t42 284.5q0 138 -18.5 214t-51 103t-88.5 27q-91 0 -164 -66v-622q66 -27 129 -27z" />
    <glyph glyph-name="ydieresis" unicode="&#xff;" horiz-adv-x="1202" 
d="M1196 915l-123 -41q-71 -215 -169 -480t-171 -425q-66 -144 -149.5 -237t-161.5 -129.5t-160 -36.5q-109 0 -168 76l12 151h386q34 57 43 80q-84 182 -202 479.5t-204 546.5l-123 16v125h561v-125l-57 -36q90 -306 192 -584h25q97 278 174 604l-135 16v125h430v-125z
M403 1538q66 0 107 -14q35 -55 35 -125q0 -78 -62 -160h-235l-35 262q98 37 190 37zM866 1538q66 0 107 -14q35 -55 35 -125q0 -78 -62 -160h-233l-37 262q102 37 190 37z" />
    <glyph glyph-name="Amacron" unicode="&#x100;" horiz-adv-x="1468" 
d="M1458 127v-127h-663v127l125 47l-56 188h-467l-61 -217l119 -18v-127h-445v127l125 45q250 786 395 1174l322 43l57 -17q205 -536 422 -1227zM446 526h367q-127 399 -172 525h-27q-91 -269 -168 -525zM367 1745h682q10 -42 10 -96q0 -58 -10 -103h-682q-11 50 -11 103
q0 50 11 96z" />
    <glyph glyph-name="amacron" unicode="&#x101;" horiz-adv-x="1136" 
d="M1118 170v-123q-155 -63 -268 -63q-182 0 -182 143v25h-27q-95 -179 -307 -179q-138 0 -213.5 74.5t-75.5 202.5q0 162 125 241.5t342 79.5q27 0 77.5 -2t63.5 -2v189q0 111 -38.5 151.5t-122.5 40.5q-22 0 -58 -4l-33 -258h-221q-76 62 -76 141q0 113 134.5 183.5
t332.5 70.5q216 0 324 -90t106 -262l-8 -528zM506 182q77 0 145 64v211h-61q-98 0 -139 -40.5t-41 -117.5q0 -64 22 -90.5t74 -26.5zM256 1460h625q10 -42 10 -96q0 -57 -10 -102h-625q-10 45 -10 102q0 54 10 96z" />
    <glyph glyph-name="Abreve" unicode="&#x102;" horiz-adv-x="1468" 
d="M1458 127v-127h-663v127l125 47l-56 188h-467l-61 -217l119 -18v-127h-445v127l125 45q250 786 395 1174l322 43l57 -17q205 -536 422 -1227zM446 526h367q-127 399 -172 525h-27q-91 -269 -168 -525zM350 1800l232 33q16 -90 56.5 -132.5t125.5 -43.5q86 -1 131.5 41
t65.5 129l110 -10q-6 -168 -110 -260.5t-271 -92.5q-158 0 -247 85t-93 251z" />
    <glyph glyph-name="abreve" unicode="&#x103;" horiz-adv-x="1136" 
d="M1118 170v-123q-155 -63 -268 -63q-182 0 -182 143v25h-27q-95 -179 -307 -179q-138 0 -213.5 74.5t-75.5 202.5q0 162 125 241.5t342 79.5q27 0 77.5 -2t63.5 -2v189q0 111 -38.5 151.5t-122.5 40.5q-22 0 -58 -4l-33 -258h-221q-76 62 -76 141q0 113 134.5 183.5
t332.5 70.5q216 0 324 -90t106 -262l-8 -528zM506 182q77 0 145 64v211h-61q-98 0 -139 -40.5t-41 -117.5q0 -64 22 -90.5t74 -26.5zM231 1534l232 31q10 -96 45 -142t113 -47q77 -1 116.5 44.5t55.5 140.5l108 -19q-4 -177 -101 -267.5t-251 -90.5q-151 0 -234 88t-84 262z
" />
    <glyph glyph-name="Aogonek" unicode="&#x104;" horiz-adv-x="1468" 
d="M1458 0h-416q-49 -83 -49 -164q0 -60 29 -85t88 -25q51 0 107 16l14 -119q-121 -59 -258 -59q-134 0 -205.5 59.5t-71.5 153.5q0 89 67.5 171t178.5 144q-14 51 -43.5 151.5t-34.5 118.5h-467l-61 -217l119 -18v-127h-445v127l125 45q250 786 395 1174l322 43l57 -17
q205 -536 422 -1227l127 -18v-127zM446 526h367q-127 399 -172 525h-27q-91 -269 -168 -525z" />
    <glyph glyph-name="aogonek" unicode="&#x105;" horiz-adv-x="1136" 
d="M1118 170v-129q-160 -58 -228.5 -108t-68.5 -115q0 -92 117 -92q49 0 102 16l17 -119q-121 -59 -264 -59q-132 0 -199.5 49.5t-67.5 140.5q0 78 50 134t129 85l-33 179h-31q-95 -179 -307 -179q-138 0 -213.5 74.5t-75.5 202.5q0 162 125 241.5t342 79.5q27 0 77.5 -2
t63.5 -2v189q1 110 -39 151t-125 41q-35 0 -53 -2l-35 -260h-221q-76 62 -76 141q0 113 134.5 183.5t332.5 70.5q216 0 324 -90t106 -262l-8 -528zM506 182q77 0 145 64v211h-61q-98 0 -139 -40.5t-41 -117.5q0 -64 22 -90.5t74 -26.5z" />
    <glyph glyph-name="Cacute" unicode="&#x106;" horiz-adv-x="1388" 
d="M1272 330l31 -142q-201 -215 -547 -215q-163 0 -292.5 51t-214 143t-129 218t-44.5 277q0 161 50 293.5t145.5 229.5t243 150.5t333.5 53.5q230 0 416 -80q10 -55 10 -140q0 -101 -25 -237h-221l-70 270q-68 10 -116 10q-175 0 -257.5 -107t-82.5 -355
q0 -270 97.5 -397.5t295.5 -127.5q190 0 377 105zM936 1860h215q71 -49 111 -160l-353 -236h-159z" />
    <glyph glyph-name="cacute" unicode="&#x107;" horiz-adv-x="1093" 
d="M735 199q109 0 262 63l27 -121q-165 -168 -432 -168q-138 0 -241.5 40t-165 112.5t-92 166.5t-30.5 208q0 141 45 253t124.5 182.5t184 107t226.5 36.5q108 0 193 -26t139.5 -84.5t54.5 -143.5q0 -108 -82 -163h-231l-27 280q-16 2 -43 2q-95 0 -143.5 -80.5
t-48.5 -261.5q0 -206 67 -304.5t213 -98.5zM672 1618h215q66 -54 108 -160l-348 -284h-139z" />
    <glyph glyph-name="Ccircumflex" unicode="&#x108;" horiz-adv-x="1388" 
d="M1272 330l31 -142q-201 -215 -547 -215q-163 0 -292.5 51t-214 143t-129 218t-44.5 277q0 161 50 293.5t145.5 229.5t243 150.5t333.5 53.5q230 0 416 -80q10 -55 10 -140q0 -101 -25 -237h-221l-70 270q-68 10 -116 10q-175 0 -257.5 -107t-82.5 -355
q0 -270 97.5 -397.5t295.5 -127.5q190 0 377 105zM1180 1540l-205 -106l-219 196h-21l-192 -166h-144l312 375h213z" />
    <glyph glyph-name="ccircumflex" unicode="&#x109;" horiz-adv-x="1093" 
d="M735 199q109 0 262 63l27 -121q-165 -168 -432 -168q-138 0 -241.5 40t-165 112.5t-92 166.5t-30.5 208q0 141 45 253t124.5 182.5t184 107t226.5 36.5q108 0 193 -26t139.5 -84.5t54.5 -143.5q0 -108 -82 -163h-231l-27 280q-16 2 -43 2q-95 0 -143.5 -80.5
t-48.5 -261.5q0 -206 67 -304.5t213 -98.5zM979 1249l-205 -104l-199 223h-22l-170 -194h-139l284 419h215z" />
    <glyph glyph-name="Cdotaccent" unicode="&#x10a;" horiz-adv-x="1388" 
d="M1272 330l31 -142q-201 -215 -547 -215q-163 0 -292.5 51t-214 143t-129 218t-44.5 277q0 161 50 293.5t145.5 229.5t243 150.5t333.5 53.5q230 0 416 -80q10 -55 10 -140q0 -101 -25 -237h-221l-70 270q-68 10 -116 10q-175 0 -257.5 -107t-82.5 -355
q0 -270 97.5 -397.5t295.5 -127.5q190 0 377 105zM819 1798q82 0 123 -16q35 -51 35 -135q0 -46 -14.5 -85t-49.5 -87h-276l-35 282q98 41 217 41z" />
    <glyph glyph-name="cdotaccent" unicode="&#x10b;" horiz-adv-x="1093" 
d="M735 199q109 0 262 63l27 -121q-165 -168 -432 -168q-138 0 -241.5 40t-165 112.5t-92 166.5t-30.5 208q0 141 45 253t124.5 182.5t184 107t226.5 36.5q108 0 193 -26t139.5 -84.5t54.5 -143.5q0 -108 -82 -163h-231l-27 280q-16 2 -43 2q-95 0 -143.5 -80.5
t-48.5 -261.5q0 -206 67 -304.5t213 -98.5zM643 1524q82 0 121 -15q35 -57 35 -135q0 -48 -14.5 -85.5t-49.5 -86.5h-276l-35 283q93 39 219 39z" />
    <glyph glyph-name="Ccaron" unicode="&#x10c;" horiz-adv-x="1388" 
d="M1272 330l31 -142q-201 -215 -547 -215q-163 0 -292.5 51t-214 143t-129 218t-44.5 277q0 161 50 293.5t145.5 229.5t243 150.5t333.5 53.5q230 0 416 -80q10 -55 10 -140q0 -101 -25 -237h-221l-70 270q-68 10 -116 10q-175 0 -257.5 -107t-82.5 -355
q0 -270 97.5 -397.5t295.5 -127.5q190 0 377 105zM823 1675h23l190 164h144l-310 -375h-215l-256 301l205 107z" />
    <glyph glyph-name="ccaron" unicode="&#x10d;" horiz-adv-x="1093" 
d="M735 199q109 0 262 63l27 -121q-165 -168 -432 -168q-138 0 -241.5 40t-165 112.5t-92 166.5t-30.5 208q0 141 45 253t124.5 182.5t184 107t226.5 36.5q108 0 193 -26t139.5 -84.5t54.5 -143.5q0 -108 -82 -163h-231l-27 280q-16 2 -43 2q-95 0 -143.5 -80.5
t-48.5 -261.5q0 -206 67 -304.5t213 -98.5zM668 1399h20l170 194h141l-286 -419h-213l-236 346l205 104z" />
    <glyph glyph-name="Dcaron" unicode="&#x10e;" horiz-adv-x="1542" 
d="M616 1384q233 0 398.5 -44.5t264 -132.5t143 -207t44.5 -279q0 -349 -200 -535t-578 -186h-627v127l138 47v1040l-138 17v127q269 26 555 26zM584 164h100q84 0 142.5 17t101 53t66.5 99t35 148.5t11 208.5q0 206 -32.5 319.5t-104.5 162.5t-203 49h-116v-1057zM778 1675
h23l190 164h144l-310 -375h-215l-256 301l205 107z" />
    <glyph glyph-name="dcaron" unicode="&#x10f;" horiz-adv-x="1605" 
d="M1135 1518v-1325l122 -37v-115q-212 -52 -413 -61l-47 24l12 162h-27q-125 -193 -340 -193q-181 0 -272.5 135.5t-91.5 378.5q0 278 124 436t373 158q120 0 205 -28v252l-123 47v123q205 61 430 67zM651 932q-108 0 -150 -87t-42 -280q0 -139 18.5 -216t50.5 -103.5
t88 -26.5q89 0 164 64v622q-61 27 -129 27zM1415 1542q95 0 187 -51q0 -280 -216 -487h-163l63 309v215q61 14 129 14z" />
    <glyph glyph-name="Dcroat" unicode="&#x110;" horiz-adv-x="1562" 
d="M637 1384q233 0 398.5 -44.5t264 -132t143 -206.5t44.5 -278q0 -351 -200 -537t-578 -186h-627v127l137 47v453h-137v155h137v432l-137 17v127q269 26 555 26zM604 164h101q84 0 142.5 17t101 53t66.5 99t35 148.5t11 208.5q0 206 -32.5 319.5t-104.5 162.5t-203 49h-117
v-439h246v-155h-246v-463z" />
    <glyph glyph-name="dcroat" unicode="&#x111;" horiz-adv-x="1284" 
d="M1135 1221v-1028l122 -37v-115q-212 -52 -413 -61l-47 24l12 162h-27q-125 -193 -340 -193q-181 0 -272.5 135.5t-91.5 378.5q0 278 124 436t373 158q113 0 205 -28v168h-282v153h282v125q153 40 307 43l48 -22v-146h149v-153h-149zM780 283v622q-66 27 -129 27
q-108 0 -150 -87t-42 -280q0 -139 18.5 -216t50.5 -103.5t88 -26.5q89 0 164 64z" />
    <glyph glyph-name="Emacron" unicode="&#x112;" horiz-adv-x="1323" 
d="M1016 391l221 -12q12 -74 12 -152q0 -104 -24 -227h-1162v127l136 47h2v1034l-140 27v127h1170q14 -68 14 -150q0 -111 -26 -225h-205l-56 209l-372 12v-442l205 10l20 101h137v-379h-137l-23 104l-202 10v-458l356 12zM328 1745h682q10 -42 10 -96q0 -58 -10 -103h-682
q-11 50 -11 103q0 50 11 96z" />
    <glyph glyph-name="emacron" unicode="&#x113;" horiz-adv-x="1134" 
d="M737 205q135 0 287 71l29 -122q-78 -85 -185 -133t-266 -48q-142 0 -247.5 40t-168.5 113t-93 166.5t-30 209.5q0 140 44 251.5t122.5 182.5t184 108t231.5 37q110 0 192.5 -28t131 -79t71.5 -116.5t23 -146.5q0 -103 -33 -187h-590q12 -162 85.5 -240.5t211.5 -78.5z
M600 932q-70 0 -114 -69.5t-50 -219.5l283 19v40q0 117 -28.5 173.5t-90.5 56.5zM291 1460h624q11 -46 11 -96q0 -52 -11 -102h-624q-10 45 -10 102q0 54 10 96z" />
    <glyph glyph-name="Ebreve" unicode="&#x114;" horiz-adv-x="1323" 
d="M1016 391l221 -12q12 -74 12 -152q0 -104 -24 -227h-1162v127l136 47h2v1034l-140 27v127h1170q14 -68 14 -150q0 -111 -26 -225h-205l-56 209l-372 12v-442l205 10l20 101h137v-379h-137l-23 104l-202 10v-458l356 12zM311 1800l232 33q16 -90 56.5 -132.5t125.5 -43.5
q86 -1 131.5 41t65.5 129l110 -10q-6 -168 -110 -260.5t-271 -92.5q-158 0 -247 85t-93 251z" />
    <glyph glyph-name="ebreve" unicode="&#x115;" horiz-adv-x="1134" 
d="M737 205q135 0 287 71l29 -122q-78 -85 -185 -133t-266 -48q-142 0 -247.5 40t-168.5 113t-93 166.5t-30 209.5q0 140 44 251.5t122.5 182.5t184 108t231.5 37q110 0 192.5 -28t131 -79t71.5 -116.5t23 -146.5q0 -103 -33 -187h-590q12 -162 85.5 -240.5t211.5 -78.5z
M600 932q-70 0 -114 -69.5t-50 -219.5l283 19v40q0 117 -28.5 173.5t-90.5 56.5zM266 1534l232 31q10 -96 44.5 -142t112.5 -47q77 -1 116.5 44.5t55.5 140.5l109 -19q-4 -177 -101 -267.5t-251 -90.5q-151 0 -234 88t-84 262z" />
    <glyph glyph-name="Edotaccent" unicode="&#x116;" horiz-adv-x="1323" 
d="M1016 391l221 -12q12 -74 12 -152q0 -104 -24 -227h-1162v127l136 47h2v1034l-140 27v127h1170q14 -68 14 -150q0 -111 -26 -225h-205l-56 209l-372 12v-442l205 10l20 101h137v-379h-137l-23 104l-202 10v-458l356 12zM698 1798q82 0 123 -16q35 -51 35 -135t-63 -172
h-277l-35 282q98 41 217 41z" />
    <glyph glyph-name="edotaccent" unicode="&#x117;" horiz-adv-x="1134" 
d="M737 205q135 0 287 71l29 -122q-78 -85 -185 -133t-266 -48q-142 0 -247.5 40t-168.5 113t-93 166.5t-30 209.5q0 140 44 251.5t122.5 182.5t184 108t231.5 37q110 0 192.5 -28t131 -79t71.5 -116.5t23 -146.5q0 -103 -33 -187h-590q12 -162 85.5 -240.5t211.5 -78.5z
M600 932q-70 0 -114 -69.5t-50 -219.5l283 19v40q0 117 -28.5 173.5t-90.5 56.5zM635 1524q82 0 121 -15q35 -57 35 -135q0 -48 -14.5 -85.5t-49.5 -86.5h-276l-35 283q93 39 219 39z" />
    <glyph glyph-name="Eogonek" unicode="&#x118;" horiz-adv-x="1323" 
d="M1225 0h-183q-73 -50 -105 -91.5t-32 -88.5q0 -94 113 -94q51 0 104 16l17 -119q-121 -59 -262 -59q-131 0 -200 52.5t-69 133.5q0 77 60.5 136.5t175.5 88.5v25h-781v127l136 47h2v1034l-140 27v127h1170q14 -68 14 -156q0 -105 -26 -219h-205l-56 209l-372 12v-442
l205 10l20 101h137v-379h-137l-23 104l-202 10v-458l356 12l74 225l221 -12q12 -74 12 -152q0 -104 -24 -227z" />
    <glyph glyph-name="eogonek" unicode="&#x119;" horiz-adv-x="1134" 
d="M940 57q-113 -86 -155 -132t-42 -103q0 -96 117 -96q50 0 103 16l18 -119q-121 -59 -266 -59q-129 0 -196.5 49.5t-67.5 130.5q0 72 49.5 128t136.5 87l-4 18h-49q-131 0 -232 39.5t-163.5 111.5t-94 167t-31.5 211q0 184 77 315.5t207.5 195.5t299.5 64q214 0 315 -101
t101 -269q0 -103 -33 -187h-592q13 -164 86 -241.5t211 -77.5q137 0 289 71l29 -124q-46 -46 -113 -95zM600 932q-68 0 -113 -70t-51 -219l283 19v40q0 117 -28.5 173.5t-90.5 56.5z" />
    <glyph glyph-name="Ecaron" unicode="&#x11a;" horiz-adv-x="1323" 
d="M1016 391l221 -12q12 -74 12 -152q0 -104 -24 -227h-1162v127l136 47h2v1034l-140 27v127h1170q14 -68 14 -150q0 -111 -26 -225h-205l-56 209l-372 12v-442l205 10l20 101h137v-379h-137l-23 104l-202 10v-458l356 12zM702 1675h23l190 164h144l-309 -375h-215l-256 301
l204 107z" />
    <glyph glyph-name="ecaron" unicode="&#x11b;" horiz-adv-x="1134" 
d="M737 205q135 0 287 71l29 -122q-78 -85 -185 -133t-266 -48q-142 0 -247.5 40t-168.5 113t-93 166.5t-30 209.5q0 140 44 251.5t122.5 182.5t184 108t231.5 37q110 0 192.5 -28t131 -79t71.5 -116.5t23 -146.5q0 -103 -33 -187h-590q12 -162 85.5 -240.5t211.5 -78.5z
M600 932q-70 0 -114 -69.5t-50 -219.5l283 19v40q0 117 -28.5 173.5t-90.5 56.5zM659 1399h21l170 194h141l-286 -419h-213l-236 346l205 104z" />
    <glyph glyph-name="Gcircumflex" unicode="&#x11c;" horiz-adv-x="1462" 
d="M1395 623v-127l-90 -47v-388q-83 -36 -226.5 -62t-281.5 -26q-188 0 -329.5 53t-225.5 147.5t-125 215t-41 266.5q0 164 51 298.5t148 231.5t245.5 150.5t335.5 53.5q135 0 250.5 -24.5t179.5 -55.5q10 -55 10 -138q0 -99 -24 -219h-223l-62 248q-74 12 -137 12
q-186 0 -267 -122t-81 -410q0 -197 36.5 -315t105 -166.5t177.5 -48.5q83 0 160 28l-33 299l-147 19v127h594zM1180 1540l-205 -106l-219 196h-21l-192 -166h-144l312 375h213z" />
    <glyph glyph-name="gcircumflex" unicode="&#x11d;" horiz-adv-x="1183" 
d="M981 985l-31 -35q78 -87 78 -213q0 -90 -39.5 -159t-109.5 -111.5t-161.5 -64t-199.5 -21.5q-38 0 -100 4v-115l416 -34q315 -28 315 -248q0 -125 -93.5 -222t-258.5 -149.5t-375 -52.5q-424 0 -424 219q0 86 64.5 142t162.5 69q-29 189 47 424q-209 79 -209 289
q0 119 69.5 205t183.5 127.5t259 41.5q177 0 291 -65q23 111 63.5 164t117.5 53q78 0 124 -39l-16 -209h-174zM545 528q73 0 102 50.5t29 152.5t-29 152.5t-102 50.5t-102 -50.5t-29 -152.5t29 -152.5t102 -50.5zM725 -104l-406 47q-20 -44 -20 -95q0 -65 54 -100t182 -35
q80 0 154.5 13t126.5 41t52 65q0 25 -30.5 40t-112.5 24zM907 1249l-205 -104l-198 223h-23l-170 -194h-139l285 419h215z" />
    <glyph glyph-name="Gbreve" unicode="&#x11e;" horiz-adv-x="1462" 
d="M1395 623v-127l-90 -47v-388q-83 -36 -226.5 -62t-281.5 -26q-188 0 -329.5 53t-225.5 147.5t-125 215t-41 266.5q0 164 51 298.5t148 231.5t245.5 150.5t335.5 53.5q135 0 250.5 -24.5t179.5 -55.5q10 -55 10 -138q0 -99 -24 -219h-223l-62 248q-74 12 -137 12
q-186 0 -267 -122t-81 -410q0 -197 36.5 -315t105 -166.5t177.5 -48.5q83 0 160 28l-33 299l-147 19v127h594zM432 1800l232 33q16 -90 56.5 -132.5t125.5 -43.5q86 -1 131 41t65 129l111 -10q-6 -168 -110 -260.5t-271 -92.5q-158 0 -247 85t-93 251z" />
    <glyph glyph-name="gbreve" unicode="&#x11f;" horiz-adv-x="1183" 
d="M981 985l-31 -35q78 -87 78 -213q0 -90 -39.5 -159t-109.5 -111.5t-161.5 -64t-199.5 -21.5q-38 0 -100 4v-115l416 -34q315 -28 315 -248q0 -125 -93.5 -222t-258.5 -149.5t-375 -52.5q-424 0 -424 219q0 86 64.5 142t162.5 69q-29 189 47 424q-209 79 -209 289
q0 119 69.5 205t183.5 127.5t259 41.5q177 0 291 -65q23 111 63.5 164t117.5 53q78 0 124 -39l-16 -209h-174zM545 528q73 0 102 50.5t29 152.5t-29 152.5t-102 50.5t-102 -50.5t-29 -152.5t29 -152.5t102 -50.5zM725 -104l-406 47q-20 -44 -20 -95q0 -65 54 -100t182 -35
q80 0 154.5 13t126.5 41t52 65q0 25 -30.5 40t-112.5 24zM203 1534l231 31q10 -96 45 -142t113 -47q77 -1 116.5 44.5t55.5 140.5l108 -19q-4 -177 -101 -267.5t-251 -90.5q-151 0 -233.5 88t-83.5 262z" />
    <glyph glyph-name="Gdotaccent" unicode="&#x120;" horiz-adv-x="1462" 
d="M1395 623v-127l-90 -47v-388q-83 -36 -226.5 -62t-281.5 -26q-188 0 -329.5 53t-225.5 147.5t-125 215t-41 266.5q0 164 51 298.5t148 231.5t245.5 150.5t335.5 53.5q135 0 250.5 -24.5t179.5 -55.5q10 -55 10 -138q0 -99 -24 -219h-223l-62 248q-74 12 -137 12
q-186 0 -267 -122t-81 -410q0 -197 36.5 -315t105 -166.5t177.5 -48.5q83 0 160 28l-33 299l-147 19v127h594zM819 1798q82 0 123 -16q35 -51 35 -135q0 -46 -14.5 -85t-49.5 -87h-276l-35 282q98 41 217 41z" />
    <glyph glyph-name="gdotaccent" unicode="&#x121;" horiz-adv-x="1183" 
d="M981 985l-31 -35q78 -87 78 -213q0 -90 -39.5 -159t-109.5 -111.5t-161.5 -64t-199.5 -21.5q-38 0 -100 4v-115l416 -34q315 -28 315 -248q0 -125 -93.5 -222t-258.5 -149.5t-375 -52.5q-424 0 -424 219q0 86 64.5 142t162.5 69q-29 189 47 424q-209 79 -209 289
q0 119 69.5 205t183.5 127.5t259 41.5q177 0 291 -65q23 111 63.5 164t117.5 53q78 0 124 -39l-16 -209h-174zM545 528q73 0 102 50.5t29 152.5t-29 152.5t-102 50.5t-102 -50.5t-29 -152.5t29 -152.5t102 -50.5zM725 -104l-406 47q-20 -44 -20 -95q0 -65 54 -100t182 -35
q80 0 154.5 13t126.5 41t52 65q0 25 -30.5 40t-112.5 24zM571 1524q82 0 121 -15q35 -57 35 -135q0 -48 -14 -85.5t-49 -86.5h-277l-35 283q93 39 219 39z" />
    <glyph glyph-name="Gcommaaccent" unicode="&#x122;" horiz-adv-x="1462" 
d="M1395 623v-127l-90 -47v-388q-83 -36 -226.5 -62t-281.5 -26q-188 0 -329.5 53t-225.5 147.5t-125 215t-41 266.5q0 164 51 298.5t148 231.5t245.5 150.5t335.5 53.5q135 0 250.5 -24.5t179.5 -55.5q10 -55 10 -138q0 -99 -24 -219h-223l-62 248q-74 12 -137 12
q-186 0 -267 -122t-81 -410q0 -197 36.5 -315t105 -166.5t177.5 -48.5q83 0 160 28l-33 299l-147 19v127h594zM778 -86q85 0 140 -16q38 -63 38 -144q0 -228 -286 -268l-37 82q72 28 100.5 47.5t28.5 50.5q0 17 -2 29l-111 8l-8 195q68 16 137 16z" />
    <glyph glyph-name="gcommaaccent" unicode="&#x123;" horiz-adv-x="1183" 
d="M981 985l-31 -35q78 -87 78 -213q0 -90 -39.5 -159t-109.5 -111.5t-161.5 -64t-199.5 -21.5q-38 0 -100 4v-115l416 -34q315 -28 315 -248q0 -125 -93.5 -222t-258.5 -149.5t-375 -52.5q-424 0 -424 219q0 86 64.5 142t162.5 69q-29 189 47 424q-209 79 -209 289
q0 119 69.5 205t183.5 127.5t259 41.5q177 0 291 -65q23 111 63.5 164t117.5 53q78 0 124 -39l-16 -209h-174zM545 528q73 0 102 50.5t29 152.5t-29 152.5t-102 50.5t-102 -50.5t-29 -152.5t29 -152.5t102 -50.5zM725 -104l-406 47q-20 -44 -20 -95q0 -65 54 -100t182 -35
q80 0 154.5 13t126.5 41t52 65q0 25 -30.5 40t-112.5 24zM668 1616l37 -82q-70 -27 -100 -52.5t-30 -68.5q0 -11 3 -29l110 -8l8 -194q-75 -17 -139 -17q-79 0 -137 17q-39 64 -39 143q0 111 71 190.5t216 100.5z" />
    <glyph glyph-name="Hcircumflex" unicode="&#x124;" horiz-adv-x="1622" 
d="M1421 1188v-1043h2l138 -18v-127h-646v127l121 47v449h-452v-478l129 -18v-127h-652v127l138 47v1043l-138 18v127h650v-127l-127 -47v-400h452v429l-127 18v127h652v-127l-138 -47h-2zM1235 1540l-205 -106l-219 196h-20l-193 -166h-143l311 375h213z" />
    <glyph glyph-name="hcircumflex" unicode="&#x125;" horiz-adv-x="1304" 
d="M1014 1595l-201 -102l-195 147h-20l-154 -118h-135l264 319h215zM506 1436v-203q0 -57 -3.5 -112.5t-7 -86.5t-10 -80.5t-8.5 -64.5h27q119 192 350 192q151 0 231 -86t80 -239v-615l129 -18v-123h-569v123l86 47v516q0 76 -33 114t-104 38q-94 0 -168 -66v-631l96 -18
v-123h-567v123l117 47v1051l-125 49v123q196 57 432 67z" />
    <glyph glyph-name="Hbar" unicode="&#x126;" horiz-adv-x="1652" 
d="M1438 895v-741h2l137 -27v-127h-651v127l125 47v373h-453v-393l129 -27v-127h-651v127l137 47v721h-170v154h170v159l-137 27v127h649v-127l-127 -47v-139h453v159l-127 27v127h653v-127l-139 -47v-139h172v-154h-172zM1051 895h-453v-184h453v184z" />
    <glyph glyph-name="hbar" unicode="&#x127;" horiz-adv-x="1306" 
d="M1294 123v-123h-569v123l84 47v516q0 77 -32 114.5t-103 37.5q-89 0 -170 -66v-631l98 -18v-123h-569v123l117 47v1051h-144v153h144v127q132 34 307 41l47 -22v-146h293v-153h-293q-2 -130 -27 -332h25q125 192 350 192q151 0 231 -86t80 -239v-615z" />
    <glyph glyph-name="Itilde" unicode="&#x128;" horiz-adv-x="784" 
d="M584 1188v-1043l139 -18v-127h-662v127l138 47v1043l-138 18v127h662v-127zM707 1810l88 -55q-17 -57 -36 -99.5t-48 -82.5t-70 -61t-92 -21q-66 0 -125 22l-234 93l-94 -115l-88 55q17 57 36 99.5t48 82.5t70 61t92 21q64 0 123 -22l235 -94z" />
    <glyph glyph-name="itilde" unicode="&#x129;" horiz-adv-x="667" 
d="M645 123v-123h-600v123l117 47v670l-117 53v123q177 45 424 59l47 -22v-910zM565 1522l80 -45q-69 -271 -213 -271q-46 0 -102 27l-176 88l-78 -111l-80 45q68 273 213 273q42 0 102 -29l176 -88z" />
    <glyph glyph-name="Imacron" unicode="&#x12a;" horiz-adv-x="784" 
d="M584 1188v-1043l139 -18v-127h-662v127l138 47v1043l-138 18v127h662v-127zM61 1745h682q11 -46 11 -96q0 -53 -11 -103h-682q-10 45 -10 103q0 54 10 96z" />
    <glyph glyph-name="imacron" unicode="&#x12b;" horiz-adv-x="667" 
d="M645 123v-123h-600v123l117 47v670l-117 53v123q177 45 424 59l47 -22v-910zM43 1460h557q10 -42 10 -96q0 -57 -10 -102h-557q-10 45 -10 102q0 54 10 96z" />
    <glyph glyph-name="Ibreve" unicode="&#x12c;" horiz-adv-x="784" 
d="M584 1188v-1043l139 -18v-127h-662v127l138 47v1043l-138 18v127h662v-127zM45 1800l231 33q16 -90 57 -132.5t126 -43.5q86 -1 131 41t65 129l111 -10q-6 -168 -110 -260.5t-271 -92.5q-158 0 -247 85t-93 251z" />
    <glyph glyph-name="ibreve" unicode="&#x12d;" horiz-adv-x="667" 
d="M645 123v-123h-600v123l117 47v670l-117 53v123q177 45 424 59l47 -22v-910zM524 1559l111 -11q-6 -177 -96 -270.5t-232 -93.5q-138 0 -220 88t-85 260l231 33q12 -189 144 -189q130 0 147 183z" />
    <glyph glyph-name="Iogonek" unicode="&#x12e;" horiz-adv-x="784" 
d="M584 1188v-1043l139 -18v-127q-140 -44 -199 -89t-59 -99q0 -42 31 -64t86 -22q48 0 104 16l16 -119q-121 -59 -264 -59q-131 0 -198.5 48t-67.5 126q0 82 70 141.5t190 95.5v25h-371v127l138 45v1045l-138 18v127h662v-127z" />
    <glyph glyph-name="iogonek" unicode="&#x12f;" horiz-adv-x="667" 
d="M170 1204l-35 281q98 41 219 41q77 0 121 -17q35 -55 35 -135q0 -46 -15 -84.5t-49 -85.5h-276zM645 123v-123q-126 -32 -182.5 -76t-56.5 -106q0 -92 114 -92q50 0 103 16l16 -119q-121 -59 -262 -59q-132 0 -200 52t-68 138q0 165 245 221v25h-309v123l117 47v670
l-117 53v123q177 45 424 59l47 -22v-910z" />
    <glyph glyph-name="Idotaccent" unicode="&#x130;" horiz-adv-x="784" 
d="M584 1188v-1043l139 -18v-127h-662v127l138 47v1043l-138 18v127h662v-127zM440 1796q85 0 121 -14q35 -57 35 -135q0 -48 -14.5 -85.5t-49.5 -86.5h-276l-35 282q93 39 219 39z" />
    <glyph glyph-name="dotlessi" unicode="&#x131;" horiz-adv-x="667" 
d="M645 123v-123h-600v123l117 47v670l-117 53v123q177 45 424 59l47 -22v-910z" />
    <glyph glyph-name="IJ" unicode="&#x132;" horiz-adv-x="1859" 
d="M1827 1362v-127l-137 -47v-787q0 -95 -25 -169t-68 -122t-105 -79.5t-132.5 -44.5t-153.5 -13q-193 0 -300 71t-107 196q0 102 82 170h196l68 -275q36 -4 47 -4q63 0 88 40.5t25 147.5v898l-203 18v127h725zM584 1188v-1043l139 -18v-127h-662v127l138 47v1043l-138 18
v127h662v-127z" />
    <glyph glyph-name="ij" unicode="&#x133;" horiz-adv-x="1308" 
d="M1176 1053v-1030q0 -93 -33 -171t-92.5 -134t-135.5 -94.5t-170 -61.5l-63 65l137 189v1024l-117 53v123q185 46 424 59zM1016 1540q85 0 121 -14q34 -56 34 -135q0 -48 -14 -85.5t-49 -86.5h-277l-34 282q93 39 219 39zM645 123v-123h-600v123l117 47v670l-117 53v123
q177 45 424 59l47 -22v-910zM358 1540q85 0 121 -14q35 -57 35 -135q0 -48 -14 -85.5t-49 -86.5h-277l-35 282q93 39 219 39z" />
    <glyph glyph-name="Jcircumflex" unicode="&#x134;" horiz-adv-x="1075" 
d="M1042 1362v-127l-137 -47v-787q0 -118 -37 -203t-105 -133t-152 -70t-189 -22q-193 0 -300.5 71t-107.5 196q0 102 82 170h197l67 -275q36 -4 48 -4q62 0 87 40.5t25 147.5v898l-203 18v127h725zM1055 1540l-205 -106l-219 196h-21l-192 -166h-144l312 375h213z" />
    <glyph glyph-name="jcircumflex" unicode="&#x135;" horiz-adv-x="641" 
d="M508 1053v-1030q0 -182 -117.5 -298t-312.5 -163l-64 65l138 189v1024l-117 53v123q185 46 424 59zM610 1253l-204 -104l-154 205h-23l-123 -176h-141l242 415h213z" />
    <glyph glyph-name="Kcommaaccent" unicode="&#x136;" horiz-adv-x="1490" 
d="M1464 156l-4 -121q-57 -30 -105.5 -45t-113.5 -15q-103 0 -171 37.5t-120 120.5q-27 44 -61 114t-91.5 197.5t-74.5 163.5h-139v-463l133 -18v-127h-656v127l138 47v1040l-138 19v129h660v-127l-137 -47v-414h168q213 275 327 443l-143 18v127h489v-127l-116 -41
q-121 -159 -314 -371q143 -210 367 -622zM745 -86q85 0 140 -16q39 -64 39 -144q0 -227 -287 -268l-37 82q72 28 100.5 47.5t28.5 50.5q0 17 -2 29l-111 8l-8 195q68 16 137 16z" />
    <glyph glyph-name="kcommaaccent" unicode="&#x137;" horiz-adv-x="1280" 
d="M1266 141l-2 -108q-111 -58 -215 -58q-95 0 -154 34t-102 114q-51 96 -148 348h-139v-330l106 -16v-125h-579v123l117 47h2v1133l-125 49v123q222 61 432 67l47 -24v-893h131q150 161 244 274l-140 16v125h500v-125l-162 -41q-87 -87 -190 -176q41 -65 83.5 -141
t111.5 -205t90 -168zM647 -86q84 0 139 -16q39 -64 39 -144q0 -228 -286 -268l-37 82q72 28 100.5 47.5t28.5 50.5q0 17 -2 29l-111 8l-8 195q68 16 137 16z" />
    <glyph glyph-name="kgreenlandic" unicode="&#x138;" horiz-adv-x="1292" 
d="M1278 141l-2 -108q-111 -58 -215 -58q-94 0 -152.5 34.5t-103.5 113.5q-41 71 -150 348h-139v-330l109 -16v-125h-580v123l117 47v670l-117 53v123q207 53 424 59l47 -24v-426h131q153 163 244 276l-137 14v125h499v-125l-163 -43q-141 -132 -189 -172q41 -64 85 -143
t109 -202t91 -171z" />
    <glyph glyph-name="Lacute" unicode="&#x139;" horiz-adv-x="1189" 
d="M1161 240q0 -108 -20 -222l-2 -18h-1076v127l136 47v1043l-138 18v127h668v-127l-145 -47v-1032l266 8l78 242l223 -13q10 -88 10 -153zM553 1860h215q71 -49 111 -160l-353 -236h-159z" />
    <glyph glyph-name="lacute" unicode="&#x13a;" horiz-adv-x="655" 
d="M465 1522h-172l82 319h166q33 -22 62 -61t46 -84zM506 141l127 -18v-123h-600v123l117 47h2v1051l-125 49v123q218 61 432 67l47 -24v-1295z" />
    <glyph glyph-name="Lcommaaccent" unicode="&#x13b;" horiz-adv-x="1189" 
d="M1161 240q0 -108 -20 -222l-2 -18h-1076v127l136 47v1043l-138 18v127h668v-127l-145 -47v-1032l266 8l78 242l223 -13q10 -88 10 -153zM592 -86q84 0 139 -16q39 -64 39 -144q0 -227 -287 -268l-37 82q72 28 100.5 47.5t28.5 50.5q0 17 -2 29l-110 8l-8 195
q68 16 137 16z" />
    <glyph glyph-name="lcommaaccent" unicode="&#x13c;" horiz-adv-x="655" 
d="M633 123v-123h-600v123l117 47h2v1133l-125 49v123q218 61 432 67l47 -24v-1377zM311 -86q85 0 140 -16q38 -63 38 -144q0 -228 -286 -268l-37 82q72 28 100.5 47.5t28.5 50.5q0 17 -2 29l-111 8l-8 195q68 16 137 16z" />
    <glyph glyph-name="Lcaron" unicode="&#x13d;" horiz-adv-x="1218" 
d="M1161 240q0 -108 -20 -222l-2 -18h-1076v127l136 47v1043l-138 18v127h668v-127l-145 -47v-1032l266 8l78 242l223 -13q10 -88 10 -153zM995 1372q95 0 187 -51q0 -281 -215 -487h-164l63 309v215q61 14 129 14z" />
    <glyph glyph-name="lcaron" unicode="&#x13e;" horiz-adv-x="983" 
d="M633 123v-123h-600v123l117 47h2v1133l-125 49v123q218 61 432 67l47 -24v-1377zM793 1542q94 0 186 -51q0 -281 -215 -487h-164l64 309v215q61 14 129 14z" />
    <glyph glyph-name="Ldot" unicode="&#x13f;" horiz-adv-x="1185" 
d="M1004 958q75 0 118 -14q35 -57 35 -137q0 -84 -63 -172h-248l-27 283q71 40 185 40zM1161 240q0 -108 -20 -222l-2 -18h-1076v127l136 47v1043l-138 18v127h668v-127l-145 -47v-1032l266 8l78 242l223 -13q10 -88 10 -153z" />
    <glyph glyph-name="ldot" unicode="&#x140;" horiz-adv-x="843" 
d="M760 901q76 0 119 -14q34 -52 34 -135q0 -50 -14 -88t-49 -84h-232l-26 282q70 39 168 39zM633 123v-123h-600v123l117 47h2v1133l-125 49v123q218 61 432 67l47 -24v-1377z" />
    <glyph glyph-name="Lslash" unicode="&#x141;" horiz-adv-x="1191" 
d="M1163 242q0 -99 -22 -228l-2 -14h-1076v127l136 47v373l-138 -49l-26 39v114l164 58v508l-138 18v127h670v-127l-145 -47h-2v-361l346 123l26 -39v-114l-372 -133v-508l268 10l78 240l221 -13q12 -105 12 -151z" />
    <glyph glyph-name="lslash" unicode="&#x142;" horiz-adv-x="706" 
d="M530 721v-580l132 -18v-123h-601v123l115 47v416l-123 -54l-22 33v127l145 64v547l-123 49v123q214 61 432 67l45 -24v-629l123 53l25 -33v-123z" />
    <glyph glyph-name="Nacute" unicode="&#x143;" horiz-adv-x="1562" 
d="M1516 1235l-136 -45v-1174l-338 -41l-59 15l-438 805q-94 180 -152 333h-22l32 -983l162 -18v-127h-504v127l138 47v1043l-138 18v127h625l342 -639q85 -163 158 -338h24l-32 832l-162 18v127h500v-127zM915 1860h215q71 -49 111 -160l-352 -236h-160z" />
    <glyph glyph-name="nacute" unicode="&#x144;" horiz-adv-x="1316" 
d="M1305 123v-123h-568v123l84 47h2v516q0 152 -139 152q-91 0 -168 -66v-631l98 -18v-123h-569v123l117 47v670l-117 53v123q239 54 408 59l47 -22l-11 -164h25q122 192 350 192q152 0 233 -86t81 -239v-615zM748 1618h215q66 -54 108 -160l-348 -284h-139z" />
    <glyph glyph-name="Ncommaaccent" unicode="&#x145;" horiz-adv-x="1562" 
d="M1516 1235l-136 -45v-1174l-338 -41l-59 15l-438 805q-94 180 -152 333h-22l32 -983l162 -18v-127h-504v127l138 47v1043l-138 18v127h625l342 -639q85 -163 158 -338h24l-32 832l-162 18v127h500v-127zM748 -86q84 0 139 -16q39 -64 39 -144q0 -227 -287 -268l-37 82
q72 28 100.5 47.5t28.5 50.5q0 17 -2 29l-111 8l-8 195q68 16 138 16z" />
    <glyph glyph-name="ncommaaccent" unicode="&#x146;" horiz-adv-x="1316" 
d="M1305 123v-123h-568v123l84 47h2v516q0 152 -139 152q-91 0 -168 -66v-631l98 -18v-123h-569v123l117 47v670l-117 53v123q239 54 408 59l47 -22l-11 -164h25q122 192 350 192q152 0 233 -86t81 -239v-615zM666 -86q84 0 139 -16q39 -64 39 -144q0 -227 -287 -268l-37 82
q72 28 100.5 47.5t28.5 50.5q0 17 -2 29l-110 8l-9 195q68 16 138 16z" />
    <glyph glyph-name="Ncaron" unicode="&#x147;" horiz-adv-x="1562" 
d="M1516 1235l-136 -45v-1174l-338 -41l-59 15l-438 805q-94 180 -152 333h-22l32 -983l162 -18v-127h-504v127l138 47v1043l-138 18v127h625l342 -639q85 -163 158 -338h24l-32 832l-162 18v127h500v-127zM819 1675h23l190 164h144l-310 -375h-215l-256 301l205 107z" />
    <glyph glyph-name="ncaron" unicode="&#x148;" horiz-adv-x="1316" 
d="M1305 123v-123h-568v123l84 47h2v516q0 152 -139 152q-91 0 -168 -66v-631l98 -18v-123h-569v123l117 47v670l-117 53v123q239 54 408 59l47 -22l-11 -164h25q122 192 350 192q152 0 233 -86t81 -239v-615zM743 1399h21l170 194h141l-287 -419h-213l-235 346l205 104z
" />
    <glyph glyph-name="napostrophe" unicode="&#x149;" horiz-adv-x="1316" 
d="M117 1542q81 0 151 -20q56 -81 56 -176q0 -116 -93 -186.5t-264 -76.5l-20 91q76 19 109.5 41.5t33.5 58.5q0 23 -2 33l-127 10l-10 203q96 22 166 22zM1305 123v-123h-568v123l84 47h2v516q0 152 -139 152q-91 0 -168 -66v-631l98 -18v-123h-569v123l117 47v670l-117 53
v123q239 54 408 59l47 -22l-11 -164h25q122 192 350 192q152 0 233 -86t81 -239v-615z" />
    <glyph glyph-name="Eng" unicode="&#x14a;" horiz-adv-x="1562" 
d="M1516 1235l-136 -45v-987q0 -163 -37 -288t-101.5 -199.5t-147 -112t-179.5 -37.5q-121 0 -186 76l12 151h340q35 57 41 70l-565 932q-100 150 -160 333h-24l30 -983l160 -18v-127h-502v127l138 47v1043l-138 18v127h623l336 -576q23 -39 46.5 -82.5t37 -71t40.5 -84.5
t40 -83h24l-30 752l-162 18v127h500v-127z" />
    <glyph glyph-name="eng" unicode="&#x14b;" horiz-adv-x="1310" 
d="M864 1081q152 0 233 -86t81 -239v-752q-9 -176 -124.5 -286.5t-305.5 -155.5l-62 65l137 189v870q0 152 -139 152q-91 0 -168 -66v-631l98 -18v-123h-569v123l117 47v670l-117 53v121q201 52 408 61l47 -22l-11 -164h25q122 192 350 192z" />
    <glyph glyph-name="Omacron" unicode="&#x14c;" horiz-adv-x="1609" 
d="M844 1389q171 0 304 -50.5t216.5 -141.5t126.5 -213.5t43 -270.5q0 -229 -100 -398.5t-272.5 -255.5t-395.5 -86q-169 0 -301.5 51.5t-217 143.5t-128 216t-43.5 273q0 227 98 394t271 252.5t399 85.5zM805 1212q-156 0 -228.5 -120.5t-72.5 -407.5t72.5 -410.5
t228.5 -123.5t228.5 123.5t72.5 410.5t-72.5 407.5t-228.5 120.5zM467 1745h682q10 -42 10 -96q0 -58 -10 -103h-682q-10 45 -10 103q0 54 10 96z" />
    <glyph glyph-name="omacron" unicode="&#x14d;" horiz-adv-x="1265" 
d="M666 1081q137 0 241.5 -40.5t168 -112.5t95 -166.5t31.5 -208.5q0 -269 -165 -424.5t-439 -155.5q-136 0 -240 40.5t-167.5 113.5t-95.5 167.5t-32 209.5q0 270 164.5 423.5t438.5 153.5zM631 932q-98 0 -135 -90.5t-37 -311.5q0 -223 37 -315t135 -92t136 92.5t38 314.5
q0 220 -38 311t-136 91zM322 1460h624q10 -42 10 -96q0 -57 -10 -102h-624q-11 50 -11 102q0 50 11 96z" />
    <glyph glyph-name="Obreve" unicode="&#x14e;" horiz-adv-x="1609" 
d="M844 1389q171 0 304 -50.5t216.5 -141.5t126.5 -213.5t43 -270.5q0 -229 -100 -398.5t-272.5 -255.5t-395.5 -86q-169 0 -301.5 51.5t-217 143.5t-128 216t-43.5 273q0 227 98 394t271 252.5t399 85.5zM805 1212q-156 0 -228.5 -120.5t-72.5 -407.5t72.5 -410.5
t228.5 -123.5t228.5 123.5t72.5 410.5t-72.5 407.5t-228.5 120.5zM451 1800l231 33q16 -90 56.5 -132.5t125.5 -43.5q86 -1 131.5 41t65.5 129l110 -10q-6 -168 -109.5 -260.5t-270.5 -92.5q-158 0 -247 85t-93 251z" />
    <glyph glyph-name="obreve" unicode="&#x14f;" horiz-adv-x="1265" 
d="M666 1081q137 0 241.5 -40.5t168 -112.5t95 -166.5t31.5 -208.5q0 -269 -165 -424.5t-439 -155.5q-136 0 -240 40.5t-167.5 113.5t-95.5 167.5t-32 209.5q0 270 164.5 423.5t438.5 153.5zM631 932q-98 0 -135 -90.5t-37 -311.5q0 -223 37 -315t135 -92t136 92.5t38 314.5
q0 220 -38 311t-136 91zM297 1534l231 31q10 -96 45 -142t113 -47q77 -1 116.5 44.5t55.5 140.5l109 -19q-4 -177 -101.5 -267.5t-251.5 -90.5q-151 0 -233.5 88t-83.5 262z" />
    <glyph glyph-name="Ohungarumlaut" unicode="&#x150;" horiz-adv-x="1609" 
d="M844 1389q171 0 304 -50.5t216.5 -141.5t126.5 -213.5t43 -270.5q0 -229 -100 -398.5t-272.5 -255.5t-395.5 -86q-169 0 -301.5 51.5t-217 143.5t-128 216t-43.5 273q0 227 98 394t271 252.5t399 85.5zM805 1212q-156 0 -228.5 -120.5t-72.5 -407.5t72.5 -410.5
t228.5 -123.5t228.5 123.5t72.5 410.5t-72.5 407.5t-228.5 120.5zM604 1837h193q69 -47 108 -154l-203 -219h-172zM1012 1837h194q72 -49 107 -154l-203 -219h-170z" />
    <glyph glyph-name="ohungarumlaut" unicode="&#x151;" horiz-adv-x="1265" 
d="M666 1081q137 0 241.5 -40.5t168 -112.5t95 -166.5t31.5 -208.5q0 -269 -165 -424.5t-439 -155.5q-136 0 -240 40.5t-167.5 113.5t-95.5 167.5t-32 209.5q0 270 164.5 423.5t438.5 153.5zM631 932q-98 0 -135 -90.5t-37 -311.5q0 -223 37 -315t135 -92t136 92.5t38 314.5
q0 220 -38 311t-136 91zM432 1618h195q69 -43 110 -154l-250 -290h-141zM817 1618h193q66 -39 112 -154l-252 -290h-139z" />
    <glyph glyph-name="OE" unicode="&#x152;" horiz-adv-x="2131" 
d="M850 1389q123 0 254 -27h936q12 -59 12 -154q0 -116 -24 -221h-205l-56 207l-368 12v-440l198 10l21 101h139v-379h-139l-21 104l-198 12v-460l352 10l74 227l221 -12q12 -111 12 -152q0 -101 -24 -227h-930q-169 -27 -324 -27q-181 0 -318 51t-220 144t-124.5 215
t-41.5 272q0 347 207.5 540.5t566.5 193.5zM815 1214q-161 0 -236 -122t-75 -410q0 -289 76 -412t241 -123q122 0 193 48v960q-83 59 -199 59z" />
    <glyph glyph-name="oe" unicode="&#x153;" horiz-adv-x="1865" 
d="M1470 205q134 0 283 71l31 -122q-78 -85 -178 -133t-248 -48q-254 0 -365 166h-24q-140 -166 -387 -166q-129 0 -229 40.5t-163 112.5t-95 167.5t-32 210.5q0 135 43.5 244.5t120 182t180 111.5t224.5 39q249 0 366 -168h23q140 168 381 168q201 0 297 -101.5t96 -266.5
q0 -111 -35 -189l-583 -4q13 -161 85.5 -238t208.5 -77zM629 123q96 0 133 92t37 315q0 221 -36.5 311.5t-133.5 90.5t-133.5 -90.5t-36.5 -311.5q0 -223 37 -315t133 -92zM1333 932q-68 0 -112 -70.5t-50 -222.5l279 23v34q0 121 -28 178.5t-89 57.5z" />
    <glyph glyph-name="Racute" unicode="&#x154;" horiz-adv-x="1445" 
d="M1440 154l-2 -119q-114 -60 -234 -60q-113 0 -175.5 38.5t-110.5 121.5q-79 120 -218 408h-131v-398l125 -18v-127h-633v127l138 47v1038l-138 19v127q293 26 603 26q347 0 498 -93t151 -300q0 -81 -20.5 -142.5t-60.5 -101t-84 -64t-104 -44.5l-2 -25q15 -12 30.5 -28
t28.5 -29t30 -35.5t27 -36t29.5 -42.5t28 -41.5t30.5 -48.5t29 -47.5t32 -53.5t32 -53zM569 709h228q53 54 78.5 117.5t25.5 158.5q0 120 -49 177t-166 57h-117v-510zM784 1870h215q71 -49 111 -160l-352 -235h-160z" />
    <glyph glyph-name="racute" unicode="&#x155;" horiz-adv-x="901" 
d="M885 762h-267q-59 -48 -102 -105v-501l189 -21v-135h-660v139l117 31v670l-117 53v123q211 53 399 59l50 -22l-17 -244h27q28 66 52.5 111t55.5 84t69 58t83 19q80 0 125 -67zM494 1618h215q66 -54 108 -160l-348 -284h-139z" />
    <glyph glyph-name="Rcommaaccent" unicode="&#x156;" horiz-adv-x="1445" 
d="M1440 154l-2 -119q-114 -60 -234 -60q-113 0 -175.5 38.5t-110.5 121.5q-79 120 -218 408h-131v-398l125 -18v-127h-633v127l138 47v1038l-138 19v127q293 26 603 26q347 0 498 -93t151 -300q0 -81 -20.5 -142.5t-60.5 -101t-84 -64t-104 -44.5l-2 -25q15 -12 30.5 -28
t28.5 -29t30 -35.5t27 -36t29.5 -42.5t28 -41.5t30.5 -48.5t29 -47.5t32 -53.5t32 -53zM569 709h228q53 54 78.5 117.5t25.5 158.5q0 120 -49 177t-166 57h-117v-510zM774 -86q84 0 139 -16q39 -64 39 -144q0 -228 -286 -268l-37 82q72 28 100.5 47.5t28.5 50.5q0 17 -2 29
l-111 8l-8 195q68 16 137 16z" />
    <glyph glyph-name="rcommaaccent" unicode="&#x157;" horiz-adv-x="901" 
d="M885 762h-267q-59 -48 -102 -105v-501l189 -21v-135h-660v139l117 31v670l-117 53v123q211 53 399 59l50 -22l-17 -244h27q28 66 52.5 111t55.5 84t69 58t83 19q80 0 125 -67zM352 -86q85 0 140 -16q38 -63 38 -144q0 -228 -286 -268l-37 82q72 28 100.5 47.5t28.5 50.5
q0 17 -2 29l-111 8l-8 195q68 16 137 16z" />
    <glyph glyph-name="Rcaron" unicode="&#x158;" horiz-adv-x="1445" 
d="M1440 154l-2 -119q-114 -60 -234 -60q-113 0 -175.5 38.5t-110.5 121.5q-79 120 -218 408h-131v-398l125 -18v-127h-633v127l138 47v1038l-138 19v127q293 26 603 26q347 0 498 -93t151 -300q0 -81 -20.5 -142.5t-60.5 -101t-84 -64t-104 -44.5l-2 -25q15 -12 30.5 -28
t28.5 -29t30 -35.5t27 -36t29.5 -42.5t28 -41.5t30.5 -48.5t29 -47.5t32 -53.5t32 -53zM569 709h228q53 54 78.5 117.5t25.5 158.5q0 120 -49 177t-166 57h-117v-510zM731 1686h23l190 163h143l-309 -374h-215l-256 301l205 106z" />
    <glyph glyph-name="rcaron" unicode="&#x159;" horiz-adv-x="901" 
d="M885 762h-267q-59 -48 -102 -105v-501l189 -21v-135h-660v139l117 31v670l-117 53v123q211 53 399 59l50 -22l-17 -244h27q28 66 52.5 111t55.5 84t69 58t83 19q80 0 125 -67zM489 1399h21l170 194h141l-286 -419h-213l-236 346l205 104z" />
    <glyph glyph-name="Sacute" unicode="&#x15a;" horiz-adv-x="1200" 
d="M612 893l189 -80q80 -34 136 -69.5t101 -83.5t67.5 -112t22.5 -145q0 -111 -42 -194.5t-119.5 -134.5t-180 -76t-229.5 -25q-122 0 -247 22t-208 56q-18 106 -18 201q0 61 14 147l221 13l74 -258q61 -15 131 -15q111 0 164 38.5t53 119.5q0 73 -39.5 111.5t-130.5 76.5
l-188 78q-277 116 -277 395q0 207 141.5 319t393.5 112q122 0 233.5 -23.5t178.5 -56.5q10 -58 10 -135q0 -103 -25 -201h-217l-59 239q-64 11 -109 11q-194 0 -194 -150q0 -64 34 -104.5t119 -75.5zM760 1860h215q70 -48 110 -160l-352 -236h-160z" />
    <glyph glyph-name="sacute" unicode="&#x15b;" horiz-adv-x="995" 
d="M489 725l162 -70q144 -62 213.5 -138t69.5 -200q0 -174 -129.5 -259t-349.5 -85t-379 70q-15 62 -15 131q0 81 25 158h188l37 -203q60 -14 125 -14q168 0 168 112q0 45 -26.5 71.5t-92.5 53.5l-155 70q-81 35 -133 75t-83.5 101.5t-31.5 142.5q0 164 114.5 252t331.5 88
q102 0 193.5 -18t144.5 -43q13 -63 13 -129q0 -78 -23 -148h-166l-43 183q-57 14 -121 14q-145 0 -145 -100q0 -40 24 -65t84 -50zM549 1618h215q66 -54 108 -160l-348 -284h-139z" />
    <glyph glyph-name="Scircumflex" unicode="&#x15c;" horiz-adv-x="1200" 
d="M612 893l189 -80q80 -34 136 -69.5t101 -83.5t67.5 -112t22.5 -145q0 -111 -42 -194.5t-119.5 -134.5t-180 -76t-229.5 -25q-122 0 -247 22t-208 56q-18 106 -18 201q0 61 14 147l221 13l74 -258q61 -15 131 -15q111 0 164 38.5t53 119.5q0 73 -39.5 111.5t-130.5 76.5
l-188 78q-277 116 -277 395q0 207 141.5 319t393.5 112q122 0 233.5 -23.5t178.5 -56.5q10 -58 10 -135q0 -103 -25 -201h-217l-59 239q-64 11 -109 11q-194 0 -194 -150q0 -64 34 -104.5t119 -75.5zM1004 1540l-205 -106l-219 196h-21l-192 -166h-144l312 375h213z" />
    <glyph glyph-name="scircumflex" unicode="&#x15d;" horiz-adv-x="995" 
d="M489 725l162 -70q144 -62 213.5 -138t69.5 -200q0 -174 -129.5 -259t-349.5 -85t-379 70q-15 62 -15 131q0 81 25 158h188l37 -203q60 -14 125 -14q168 0 168 112q0 45 -26.5 71.5t-92.5 53.5l-155 70q-81 35 -133 75t-83.5 101.5t-31.5 142.5q0 164 114.5 252t331.5 88
q102 0 193.5 -18t144.5 -43q13 -63 13 -129q0 -78 -23 -148h-166l-43 183q-57 14 -121 14q-145 0 -145 -100q0 -40 24 -65t84 -50zM856 1249l-205 -104l-198 223h-23l-170 -194h-139l285 419h215z" />
    <glyph glyph-name="Scedilla" unicode="&#x15e;" horiz-adv-x="1200" 
d="M612 893l189 -80q80 -34 136 -69.5t101 -83.5t67.5 -112t22.5 -145q0 -198 -129.5 -304t-351.5 -122v-88q59 -1 101 -14t64.5 -36t32 -48t9.5 -55q0 -78 -66 -125t-196 -47q-164 0 -254 65l16 105q113 -23 152 -23q80 0 80 56q0 30 -25 43t-100 22l28 143q-108 6 -212 27
t-175 49q-18 106 -18 201q0 61 14 147l221 13l74 -258q61 -15 131 -15q111 0 164 38.5t53 119.5q0 73 -39.5 111.5t-130.5 76.5l-188 78q-277 116 -277 395q0 207 141.5 319t393.5 112q122 0 233.5 -23.5t178.5 -56.5q10 -58 10 -135q0 -103 -25 -201h-217l-59 239
q-64 11 -109 11q-194 0 -194 -150q0 -64 34 -104.5t119 -75.5z" />
    <glyph glyph-name="scedilla" unicode="&#x15f;" horiz-adv-x="995" 
d="M489 725l162 -70q144 -62 213.5 -138t69.5 -200q0 -150 -97.5 -233.5t-267.5 -103.5v-91q59 -1 101 -14t64.5 -36t32 -48t9.5 -55q0 -79 -66.5 -125.5t-197.5 -46.5q-165 0 -252 65l16 105q113 -23 150 -23q82 0 82 56q0 30 -25 43t-100 22h-2l29 143q-199 6 -334 68
q-15 62 -15 131q0 81 25 158h188l37 -203q60 -14 125 -14q168 0 168 112q0 45 -26.5 71.5t-92.5 53.5l-155 70q-81 35 -133 75t-83.5 101.5t-31.5 142.5q0 164 114.5 252t331.5 88q102 0 193.5 -18t144.5 -43q13 -63 13 -129q0 -78 -23 -148h-166l-43 183q-57 14 -121 14
q-145 0 -145 -100q0 -40 24 -65t84 -50z" />
    <glyph glyph-name="Scaron" unicode="&#x160;" horiz-adv-x="1200" 
d="M612 893l189 -80q80 -34 136 -69.5t101 -83.5t67.5 -112t22.5 -145q0 -111 -42 -194.5t-119.5 -134.5t-180 -76t-229.5 -25q-122 0 -247 22t-208 56q-18 106 -18 201q0 61 14 147l221 13l74 -258q61 -15 131 -15q111 0 164 38.5t53 119.5q0 73 -39.5 111.5t-130.5 76.5
l-188 78q-277 116 -277 395q0 207 141.5 319t393.5 112q122 0 233.5 -23.5t178.5 -56.5q10 -58 10 -135q0 -103 -25 -201h-217l-59 239q-64 11 -109 11q-194 0 -194 -150q0 -64 34 -104.5t119 -75.5zM647 1675h23l190 164h144l-310 -375h-215l-256 301l205 107z" />
    <glyph glyph-name="scaron" unicode="&#x161;" horiz-adv-x="995" 
d="M489 725l162 -70q144 -62 213.5 -138t69.5 -200q0 -174 -129.5 -259t-349.5 -85t-379 70q-15 62 -15 131q0 81 25 158h188l37 -203q60 -14 125 -14q168 0 168 112q0 45 -26.5 71.5t-92.5 53.5l-155 70q-81 35 -133 75t-83.5 101.5t-31.5 142.5q0 164 114.5 252t331.5 88
q102 0 193.5 -18t144.5 -43q13 -63 13 -129q0 -78 -23 -148h-166l-43 183q-57 14 -121 14q-145 0 -145 -100q0 -40 24 -65t84 -50zM545 1399h20l170 194h142l-287 -419h-213l-236 346l205 104z" />
    <glyph glyph-name="Tcommaaccent" unicode="&#x162;" horiz-adv-x="1374" 
d="M39 1362h1296q11 -72 11 -154q0 -140 -25 -256h-199l-63 246l-178 8v-1052l157 -19v-135h-252v-111q59 -1 101 -14t64.5 -36t32 -48t9.5 -55q0 -78 -66 -125t-196 -47q-164 0 -254 65l17 105q113 -23 151 -23q80 0 80 56q0 30 -25 43t-100 22l35 168h-299v135l160 47
v1024l-183 -8l-61 -246h-199q-24 111 -24 256q0 76 10 144v10z" />
    <glyph glyph-name="tcommaaccent" unicode="&#x163;" horiz-adv-x="835" 
d="M799 207l26 -119q-135 -107 -321 -115v-84q59 -1 101 -14t64.5 -36t32 -48t9.5 -55q0 -78 -66.5 -125t-198.5 -47q-164 0 -251 65l16 105q113 -23 149 -23q82 0 82 56q0 30 -25 43t-100 22h-2l31 158q-196 52 -196 272v635l-134 25v114l187 37l211 244l90 -8v-269h280
v-155h-280v-584q0 -72 28.5 -99.5t88.5 -27.5q70 0 178 33z" />
    <glyph glyph-name="Tcaron" unicode="&#x164;" horiz-adv-x="1374" 
d="M39 1362h1296q11 -72 11 -154q0 -140 -25 -256h-199l-63 246l-178 8v-1052l157 -19v-135h-702v135l160 47v1024l-183 -8l-61 -246h-199q-24 111 -24 256q0 76 10 144v10zM745 1675h23l190 164h144l-309 -375h-215l-256 301l204 107z" />
    <glyph glyph-name="tcaron" unicode="&#x165;" horiz-adv-x="976" 
d="M799 207l26 -119q-143 -115 -348 -115q-164 0 -245.5 75.5t-81.5 213.5v635l-134 25v114l187 37l211 244l90 -8v-269h280v-155h-280v-584q0 -72 28.5 -99.5t88.5 -27.5q70 0 178 33zM793 1542q111 0 182 -51q-11 -123 -52.5 -206t-144.5 -171h-162l43 193v221
q51 14 134 14z" />
    <glyph glyph-name="Tbar" unicode="&#x166;" horiz-adv-x="1374" 
d="M39 1362h1296q11 -72 11 -154q0 -140 -25 -256h-199l-63 246l-178 8v-526h235v-154h-235v-372l157 -19v-135h-702v135l160 47v344h-242v154h242v526l-183 -8l-61 -246h-199q-24 111 -24 256q0 76 10 144v10z" />
    <glyph glyph-name="tbar" unicode="&#x167;" horiz-adv-x="845" 
d="M803 207l26 -119q-143 -115 -348 -115q-164 0 -245.5 75.5t-81.5 213.5v281h-131v153h131v201l-131 25v114l182 37l213 244l90 -8v-269h283v-155h-283v-189h283v-153h-283v-242q0 -72 28.5 -99.5t88.5 -27.5q70 0 178 33z" />
    <glyph glyph-name="Utilde" unicode="&#x168;" horiz-adv-x="1486" 
d="M1454 1235l-139 -49v-746q0 -217 -150.5 -342t-427.5 -125t-422 127.5t-145 354.5v762l-137 18v127h653v-127l-131 -47v-764q0 -151 68.5 -220t205.5 -69q283 0 283 285v797l-151 18v127h493v-127zM1114 1810l88 -55q-17 -57 -36 -99.5t-48 -82.5t-70 -61t-92 -21
q-66 0 -125 22l-233 93l-94 -115l-88 55q17 57 36 99.5t48 82.5t70 61t92 21q63 0 122 -22l236 -94z" />
    <glyph glyph-name="utilde" unicode="&#x169;" horiz-adv-x="1302" 
d="M1276 172v-131q-215 -52 -414 -61l-47 24l10 164h-24q-125 -195 -350 -195q-151 0 -231.5 87.5t-80.5 240.5v539l-116 53v123q237 53 423 59l48 -22v-682q0 -78 32 -115t103 -37q93 0 170 66v563l-94 45v123q254 55 401 59l47 -22v-844zM887 1528l88 -55
q-18 -58 -36 -100t-46 -83t-68.5 -62.5t-91.5 -21.5q-62 0 -117 27l-182 90l-92 -117l-88 56q14 45 26 77.5t33 70.5t45 62t59 40t77 16q56 0 118 -29l181 -90z" />
    <glyph glyph-name="Umacron" unicode="&#x16a;" horiz-adv-x="1486" 
d="M1454 1235l-139 -49v-746q0 -217 -150.5 -342t-427.5 -125t-422 127.5t-145 354.5v762l-137 18v127h653v-127l-131 -47v-764q0 -151 68.5 -220t205.5 -69q283 0 283 285v797l-151 18v127h493v-127zM469 1745h682q10 -42 10 -96q0 -58 -10 -103h-682q-10 45 -10 103
q0 54 10 96z" />
    <glyph glyph-name="umacron" unicode="&#x16b;" horiz-adv-x="1302" 
d="M1276 172v-131q-215 -52 -414 -61l-47 24l10 164h-24q-125 -195 -350 -195q-151 0 -231.5 87.5t-80.5 240.5v539l-116 53v123q237 53 423 59l48 -22v-682q0 -78 32 -115t103 -37q93 0 170 66v563l-94 45v123q254 55 401 59l47 -22v-844zM303 1460h625q10 -42 10 -96
q0 -57 -10 -102h-625q-10 45 -10 102q0 54 10 96z" />
    <glyph glyph-name="Ubreve" unicode="&#x16c;" horiz-adv-x="1486" 
d="M1454 1235l-139 -49v-746q0 -217 -150.5 -342t-427.5 -125t-422 127.5t-145 354.5v762l-137 18v127h653v-127l-131 -47v-764q0 -151 68.5 -220t205.5 -69q283 0 283 285v797l-151 18v127h493v-127zM453 1800l231 33q16 -90 56.5 -132.5t125.5 -43.5q86 -1 131.5 41
t65.5 129l111 -10q-6 -168 -110 -260.5t-271 -92.5q-158 0 -247 85t-93 251z" />
    <glyph glyph-name="ubreve" unicode="&#x16d;" horiz-adv-x="1302" 
d="M1276 172v-131q-215 -52 -414 -61l-47 24l10 164h-24q-125 -195 -350 -195q-151 0 -231.5 87.5t-80.5 240.5v539l-116 53v123q237 53 423 59l48 -22v-682q0 -78 32 -115t103 -37q93 0 170 66v563l-94 45v123q254 55 401 59l47 -22v-844zM279 1534l231 31q10 -96 45 -142
t113 -47q77 -1 116.5 44.5t55.5 140.5l108 -19q-4 -177 -101 -267.5t-251 -90.5q-151 0 -233.5 88t-83.5 262z" />
    <glyph glyph-name="Uring" unicode="&#x16e;" horiz-adv-x="1486" 
d="M1454 1235l-139 -49v-746q0 -217 -150.5 -342t-427.5 -125t-422 127.5t-145 354.5v762l-137 18v127h653v-127l-131 -47v-764q0 -151 68.5 -220t205.5 -69q283 0 283 285v797l-151 18v127h493v-127zM831 1884q132 0 197.5 -53.5t65.5 -149.5q0 -109 -79 -164t-220 -55
q-136 0 -203.5 50.5t-67.5 144.5q0 77 43 129.5t110 75t154 22.5zM811 1772q-78 0 -78 -97q0 -98 76 -98q80 0 80 100q0 95 -78 95z" />
    <glyph glyph-name="uring" unicode="&#x16f;" horiz-adv-x="1302" 
d="M1276 172v-131q-215 -52 -414 -61l-47 24l10 164h-24q-125 -195 -350 -195q-151 0 -231.5 87.5t-80.5 240.5v539l-116 53v123q237 53 423 59l48 -22v-682q0 -78 32 -115t103 -37q93 0 170 66v563l-94 45v123q254 55 401 59l47 -22v-844zM637 1638q133 0 197.5 -56
t64.5 -159q0 -119 -79.5 -181t-219.5 -62q-134 0 -202 58t-68 159q0 121 86 181t221 60zM616 1526q-41 0 -59 -26t-18 -89q0 -62 18 -90.5t57 -28.5q80 0 80 119q0 62 -18.5 88.5t-59.5 26.5z" />
    <glyph glyph-name="Uhungarumlaut" unicode="&#x170;" horiz-adv-x="1486" 
d="M1454 1235l-139 -49v-746q0 -217 -150.5 -342t-427.5 -125t-422 127.5t-145 354.5v762l-137 18v127h653v-127l-131 -47v-764q0 -151 68.5 -220t205.5 -69q283 0 283 285v797l-151 18v127h493v-127zM606 1837h193q69 -47 108 -154l-202 -219h-173zM1014 1837h194
q72 -49 107 -154l-203 -219h-170z" />
    <glyph glyph-name="uhungarumlaut" unicode="&#x171;" horiz-adv-x="1302" 
d="M1276 172v-131q-215 -52 -414 -61l-47 24l10 164h-24q-125 -195 -350 -195q-151 0 -231.5 87.5t-80.5 240.5v539l-116 53v123q237 53 423 59l48 -22v-682q0 -78 32 -115t103 -37q93 0 170 66v563l-94 45v123q254 55 401 59l47 -22v-844zM414 1618h194q70 -43 111 -154
l-250 -290h-141zM799 1618h192q68 -40 113 -154l-252 -290h-139z" />
    <glyph glyph-name="Uogonek" unicode="&#x172;" horiz-adv-x="1486" 
d="M1454 1235l-139 -49v-746q0 -68 -14.5 -126t-33.5 -95t-51 -71t-53.5 -51t-54.5 -38q-45 -30 -74 -52.5t-61 -54t-48 -64.5t-16 -68q0 -94 115 -94q51 0 104 16l17 -119q-121 -59 -271 -59q-260 0 -260 170q0 83 59 137t165 96l-7 25q-55 -15 -122 -15q-256 0 -397.5 127
t-141.5 351v762l-137 18v127h653v-127l-131 -47v-764q0 -152 69 -220.5t207 -68.5q281 0 281 285v797l-151 18v127h493v-127z" />
    <glyph glyph-name="uogonek" unicode="&#x173;" horiz-adv-x="1302" 
d="M1276 172v-131q-160 -58 -228.5 -108t-68.5 -115q0 -92 117 -92q49 0 102 16l19 -119q-125 -59 -267 -59q-131 0 -198.5 49.5t-67.5 140.5q0 78 50 134t128 85l-37 195h-22q-125 -195 -352 -195q-151 0 -231.5 87.5t-80.5 240.5v539l-116 53v123q237 53 423 59l48 -22
v-682q0 -78 32 -115t103 -37q93 0 170 66v563l-94 45v123q254 55 401 59l47 -22v-844z" />
    <glyph glyph-name="Wcircumflex" unicode="&#x174;" horiz-adv-x="2295" 
d="M2265 1235l-119 -45q-187 -637 -370 -1174l-320 -43l-57 17q-175 550 -234 760h-24q-115 -368 -242 -734l-319 -43l-58 17q-193 592 -368 1227l-123 18v127h639v-127l-103 -45q14 -58 54 -222t60.5 -247.5t52.5 -204t57 -205.5h26q114 334 252 781l-37 120l-119 23v127
h643v-127l-147 -47q147 -535 258 -877h25q124 396 254 906l-148 18v127h467v-127zM1612 1540l-205 -106l-219 196h-21l-192 -166h-144l312 375h213z" />
    <glyph glyph-name="wcircumflex" unicode="&#x175;" horiz-adv-x="1935" 
d="M1876 915l-111 -36q-95 -366 -256 -863l-260 -43l-57 17q-25 64 -47.5 127t-44.5 132t-36 112t-38 122.5t-33 108.5h-24q-15 -43 -49 -142t-53.5 -154.5t-49.5 -135t-57 -144.5l-262 -43l-56 17q-148 446 -264 911l-119 14v125h584v-125l-84 -43q55 -284 137 -577h25
q104 306 221 727l219 43l56 -16q140 -493 229 -754h24q74 299 121 606l-145 14v125h430v-125zM1440 1249l-205 -104l-199 223h-22l-170 -194h-139l284 419h215z" />
    <glyph glyph-name="Ycircumflex" unicode="&#x176;" horiz-adv-x="1415" 
d="M1399 1235l-121 -45q-159 -345 -354 -713v-332l157 -18v-127h-702v127l160 47v285q-233 440 -383 758l-140 18v127h639v-127l-84 -39q126 -292 244 -522h25q123 244 245 543l-151 18v127h465v-127zM1130 1540l-204 -106l-219 196h-21l-192 -166h-144l312 375h212z" />
    <glyph glyph-name="ycircumflex" unicode="&#x177;" horiz-adv-x="1202" 
d="M1196 915l-123 -41q-71 -215 -169 -480t-171 -425q-66 -144 -149.5 -237t-161.5 -129.5t-160 -36.5q-109 0 -168 76l12 151h386q34 57 43 80q-84 182 -202 479.5t-204 546.5l-123 16v125h561v-125l-57 -36q90 -306 192 -584h25q97 278 174 604l-135 16v125h430v-125z
M977 1249l-205 -104l-199 223h-22l-170 -194h-139l284 419h215z" />
    <glyph glyph-name="Ydieresis" unicode="&#x178;" horiz-adv-x="1415" 
d="M1399 1235l-121 -45q-159 -345 -354 -713v-332l157 -18v-127h-702v127l160 47v285q-233 440 -383 758l-140 18v127h639v-127l-84 -39q126 -292 244 -522h25q123 244 245 543l-151 18v127h465v-127zM500 1786q72 0 108 -14q33 -49 33 -125q0 -45 -13.5 -81t-45.5 -79h-236
l-37 262q102 37 191 37zM1030 1786q70 0 109 -14q30 -48 30 -125q0 -46 -12.5 -82t-44.5 -78h-238l-36 262q105 37 192 37z" />
    <glyph glyph-name="Zacute" unicode="&#x179;" horiz-adv-x="1249" 
d="M950 395l234 -12q12 -105 12 -152q0 -106 -25 -231h-1099l-15 127l502 801q68 109 195 272l-11 21l-358 -21l-55 -227h-217q-25 102 -25 223q0 104 10 166h1078l16 -127l-490 -786q-88 -143 -198 -287l12 -17l371 17zM764 1860h215q71 -49 111 -160l-353 -236h-159z" />
    <glyph glyph-name="zacute" unicode="&#x17a;" horiz-adv-x="985" 
d="M758 358l176 -10q16 -75 16 -135q0 -112 -32 -213h-867l-16 137l338 508q25 40 53.5 79.5t44 60t47 60.5t39.5 50l-10 18l-258 -18l-45 -199h-168q-27 111 -27 189q0 61 17 155h854l16 -139l-328 -502q-55 -86 -182 -254l10 -16l275 14zM553 1618h215q68 -56 109 -160
l-349 -284h-139z" />
    <glyph glyph-name="Zdotaccent" unicode="&#x17b;" horiz-adv-x="1249" 
d="M950 395l234 -12q12 -105 12 -152q0 -106 -25 -231h-1099l-15 127l502 801q68 109 195 272l-11 21l-358 -21l-55 -227h-217q-25 102 -25 223q0 104 10 166h1078l16 -127l-490 -786q-88 -143 -198 -287l12 -17l371 17zM647 1798q82 0 123 -16q35 -51 35 -135
q0 -46 -14.5 -85t-49.5 -87h-276l-35 282q98 41 217 41z" />
    <glyph glyph-name="zdotaccent" unicode="&#x17c;" horiz-adv-x="985" 
d="M758 358l176 -10q16 -75 16 -135q0 -112 -32 -213h-867l-16 137l338 508q25 40 53.5 79.5t44 60t47 60.5t39.5 50l-10 18l-258 -18l-45 -199h-168q-27 111 -27 189q0 61 17 155h854l16 -139l-328 -502q-55 -86 -182 -254l10 -16l275 14zM524 1524q82 0 121 -15
q35 -57 35 -135q0 -48 -14.5 -85.5t-49.5 -86.5h-276l-35 283q93 39 219 39z" />
    <glyph glyph-name="Zcaron" unicode="&#x17d;" horiz-adv-x="1249" 
d="M950 395l234 -12q12 -105 12 -152q0 -106 -25 -231h-1099l-15 127l502 801q68 109 195 272l-11 21l-358 -21l-55 -227h-217q-25 102 -25 223q0 104 10 166h1078l16 -127l-490 -786q-88 -143 -198 -287l12 -17l371 17zM651 1675h23l190 164h144l-310 -375h-215l-256 301
l205 107z" />
    <glyph glyph-name="zcaron" unicode="&#x17e;" horiz-adv-x="985" 
d="M758 358l176 -10q16 -75 16 -135q0 -112 -32 -213h-867l-16 137l338 508q25 40 53.5 79.5t44 60t47 60.5t39.5 50l-10 18l-258 -18l-45 -199h-168q-27 111 -27 189q0 61 17 155h854l16 -139l-328 -502q-55 -86 -182 -254l10 -16l275 14zM549 1399h20l170 194h142
l-287 -419h-213l-236 346l205 104z" />
    <glyph glyph-name="longs" unicode="&#x17f;" horiz-adv-x="686" 
d="M653 1542q153 0 255 -56.5t102 -156.5q0 -78 -64 -139h-229l-25 219h-22q-74 0 -114 -39.5t-40 -146.5v-1082l135 -18v-123h-604v123l115 47v711l-133 26v129l133 35v23q0 448 491 448z" />
    <glyph glyph-name="uni018F" unicode="&#x18f;" horiz-adv-x="1437" 
d="M668 1389q168 0 301.5 -52t218.5 -144.5t129.5 -216.5t44.5 -271q0 -224 -100 -392t-269 -254t-381 -86q-135 0 -239 36.5t-168 102.5t-96.5 152t-32.5 189q0 128 35 247h821q-28 437 -402 437q-190 0 -378 -105l-33 142q212 215 549 215zM662 154q111 0 185 96.5
t85 296.5l-455 -23v-45q0 -163 41.5 -244t143.5 -81z" />
    <glyph glyph-name="florin" unicode="&#x192;" horiz-adv-x="1458" 
d="M1104 1260q150 0 249 -56.5t99 -154.5q0 -82 -68 -140h-225l-24 219h-23q-68 0 -103.5 -42.5t-47.5 -145.5l-21 -160h219v-153h-239l-48 -355q-14 -115 -62 -202t-120 -138.5t-156.5 -76.5t-179.5 -25q-149 0 -247.5 55.5t-98.5 153.5q0 86 68 141h225l27 -219h20
q65 0 102 42t50 147l61 477h-196v153h217l4 35q15 114 63 201.5t119 139.5t155.5 78t180.5 26z" />
    <glyph glyph-name="uni01E2" unicode="&#x1e2;" horiz-adv-x="2023" 
d="M1718 391l221 -12q11 -102 11 -152q0 -110 -25 -227h-1155v127l137 47v203h-461q-20 -46 -57 -128.5t-47 -103.5l123 -18v-127h-455v127l123 43q176 373 522 1040l-143 25v127h1419q13 -63 13 -154q0 -112 -25 -221h-205l-55 207l-369 12v-440l199 10l22 101h138v-379
h-138l-24 104l-197 12v-460l352 10zM907 541v641h-80q-186 -386 -305 -641h385zM805 1745h625q10 -42 10 -96q0 -58 -10 -103h-625q-10 45 -10 103q0 54 10 96z" />
    <glyph glyph-name="uni01E3" unicode="&#x1e3;" horiz-adv-x="1685" 
d="M1290 205q134 0 283 71l31 -122q-80 -84 -185.5 -132.5t-261.5 -48.5q-304 0 -432 197h-27q-45 -94 -133 -145.5t-209 -51.5q-148 0 -229.5 74t-81.5 207q0 53 14.5 96.5t38.5 74t62.5 54.5t77 39t92.5 26t99.5 16.5t105.5 10.5q72 7 108 7l4 174q3 112 -38 154t-124 42
q-19 0 -55 -4l-33 -258h-221q-76 61 -76 141q0 73 61.5 132.5t159 90.5t207.5 31q133 0 212 -46.5t104 -121.5h24q46 77 136 122.5t217 45.5q194 0 293.5 -103.5t99.5 -270.5q0 -117 -35 -201l-580 -19q19 -144 90.5 -213t200.5 -69zM1153 932q-72 0 -115.5 -77t-44.5 -247
l275 33l2 55q0 122 -28 179t-89 57zM510 182q89 0 166 88q-29 85 -35 195l-29 -2q-114 -8 -156 -48.5t-42 -107.5t23.5 -96t72.5 -29zM543 1444h624q11 -46 11 -96q0 -54 -11 -103h-624q-11 49 -11 103q0 50 11 96z" />
    <glyph glyph-name="Aringacute" unicode="&#x1fa;" horiz-adv-x="1468" 
d="M788 1675h-155l137 320h203q65 -48 100 -140zM1458 127v-127h-663v127l125 47l-58 188h-463l-63 -217l119 -18v-127h-445v127l127 45q193 609 361 1075q-78 49 -78 150q0 112 86 166.5t221 54.5q262 0 262 -197q0 -86 -51 -137q213 -568 393 -1139zM707 1503
q-78 0 -78 -88q0 -92 76 -92q79 0 79 92q0 88 -77 88zM449 526h362q-96 308 -170 514h-27q-60 -173 -165 -514z" />
    <glyph glyph-name="aringacute" unicode="&#x1fb;" horiz-adv-x="1136" 
d="M1118 170v-123q-155 -63 -268 -63q-182 0 -182 143v25h-27q-95 -179 -307 -179q-138 0 -213.5 74.5t-75.5 202.5q0 162 125 241.5t342 79.5q27 0 77.5 -2t63.5 -2v189q0 111 -38.5 151.5t-122.5 40.5q-22 0 -58 -4l-33 -258h-221q-76 62 -76 141q0 113 134.5 183.5
t332.5 70.5q216 0 324 -90t106 -262l-8 -528zM506 182q77 0 145 64v211h-61q-98 0 -139 -40.5t-41 -117.5q0 -64 22 -90.5t74 -26.5zM625 1939h190q66 -51 103 -139l-277 -182h-139zM592 1561q260 0 260 -193q0 -107 -79 -163t-222 -56q-139 0 -204.5 50.5t-65.5 141.5
q0 111 85 165.5t226 54.5zM567 1454q-40 0 -59 -23t-19 -75q0 -101 76 -101q80 0 80 103q0 96 -78 96z" />
    <glyph glyph-name="AEacute" unicode="&#x1fc;" horiz-adv-x="2023" 
d="M1718 391l221 -12q11 -102 11 -152q0 -110 -25 -227h-1155v127l137 47v203h-461q-20 -46 -57 -128.5t-47 -103.5l123 -18v-127h-455v127l123 43q176 373 522 1040l-143 25v127h1419q13 -63 13 -154q0 -112 -25 -221h-205l-55 207l-369 12v-440l199 10l22 101h138v-379
h-138l-24 104l-197 12v-460l352 10zM907 541v641h-80q-186 -386 -305 -641h385zM1266 1860h215q70 -48 110 -160l-352 -236h-160z" />
    <glyph glyph-name="aeacute" unicode="&#x1fd;" horiz-adv-x="1685" 
d="M1290 205q134 0 283 71l31 -122q-80 -84 -185.5 -132.5t-261.5 -48.5q-304 0 -432 197h-27q-45 -94 -133 -145.5t-209 -51.5q-148 0 -229.5 74t-81.5 207q0 53 14.5 96.5t38.5 74t62.5 54.5t77 39t92.5 26t99.5 16.5t105.5 10.5q72 7 108 7l4 174q3 112 -38 154t-124 42
q-19 0 -55 -4l-33 -258h-221q-76 61 -76 141q0 73 61.5 132.5t159 90.5t207.5 31q133 0 212 -46.5t104 -121.5h24q46 77 136 122.5t217 45.5q194 0 293.5 -103.5t99.5 -270.5q0 -117 -35 -201l-580 -19q19 -144 90.5 -213t200.5 -69zM1153 932q-72 0 -115.5 -77t-44.5 -247
l275 33l2 55q0 122 -28 179t-89 57zM510 182q89 0 166 88q-29 85 -35 195l-29 -2q-114 -8 -156 -48.5t-42 -107.5t23.5 -96t72.5 -29zM915 1602h215q68 -56 109 -160l-348 -285h-139z" />
    <glyph glyph-name="Oslashacute" unicode="&#x1fe;" horiz-adv-x="1609" 
d="M1417 1442l-127 -180q121 -88 182.5 -229.5t61.5 -319.5q0 -229 -100 -398.5t-272.5 -255.5t-395.5 -86q-199 0 -350 74l-158 -221l-108 55l-17 41l150 213q-102 91 -154.5 225t-52.5 297q0 227 98 394t271 252.5t399 85.5q169 0 305 -52l143 201l111 -55zM809 1212
q-108 0 -172.5 -46.5t-98.5 -164t-34 -321.5q0 -141 14 -229l492 684q-63 77 -201 77zM801 150q108 0 173 48t98.5 167t33.5 323q0 183 -27 297l-510 -711q68 -124 232 -124zM899 1860h215q71 -49 111 -160l-353 -236h-159z" />
    <glyph glyph-name="oslashacute" unicode="&#x1ff;" horiz-adv-x="1265" 
d="M1102 1161l-103 -168q102 -69 152.5 -182.5t50.5 -257.5q0 -269 -165 -424.5t-439 -155.5q-113 0 -217 33l-115 -184l-110 51l-19 39l103 170q-88 69 -132.5 178.5t-44.5 243.5q0 270 164.5 423.5t438.5 153.5q100 0 186 -22l121 192l110 -51zM633 932
q-112 0 -151.5 -89.5t-39.5 -316.5q0 -55 4 -137l306 500q-40 43 -119 43zM629 123q111 0 150.5 90.5t39.5 318.5q0 124 -8 195l-324 -528q42 -76 142 -76zM682 1602h215q68 -56 109 -160l-349 -285h-139z" />
    <glyph glyph-name="Scommaaccent" unicode="&#x218;" horiz-adv-x="1200" 
d="M612 893l189 -80q80 -34 136 -69.5t101 -83.5t67.5 -112t22.5 -145q0 -111 -42 -194.5t-119.5 -134.5t-180 -76t-229.5 -25q-122 0 -247 22t-208 56q-18 106 -18 201q0 61 14 147l221 13l74 -258q61 -15 131 -15q111 0 164 38.5t53 119.5q0 73 -39.5 111.5t-130.5 76.5
l-188 78q-277 116 -277 395q0 207 141.5 319t393.5 112q122 0 233.5 -23.5t178.5 -56.5q10 -58 10 -135q0 -103 -25 -201h-217l-59 239q-64 11 -109 11q-194 0 -194 -150q0 -64 34 -104.5t119 -75.5zM551 -86q84 0 139 -16q39 -64 39 -144q0 -227 -287 -268l-36 82
q72 28 100.5 47.5t28.5 50.5q0 11 -3 29l-110 8l-8 195q68 16 137 16z" />
    <glyph glyph-name="scommaaccent" unicode="&#x219;" horiz-adv-x="995" 
d="M489 725l162 -70q144 -62 213.5 -138t69.5 -200q0 -174 -129.5 -259t-349.5 -85t-379 70q-15 62 -15 131q0 81 25 158h188l37 -203q60 -14 125 -14q168 0 168 112q0 45 -26.5 71.5t-92.5 53.5l-155 70q-81 35 -133 75t-83.5 101.5t-31.5 142.5q0 164 114.5 252t331.5 88
q102 0 193.5 -18t144.5 -43q13 -63 13 -129q0 -78 -23 -148h-166l-43 183q-57 14 -121 14q-145 0 -145 -100q0 -40 24 -65t84 -50zM473 -86q84 0 139 -16q39 -64 39 -144q0 -228 -286 -268l-37 82q72 28 100.5 47.5t28.5 50.5q0 17 -2 29l-111 8l-8 195q68 16 137 16z" />
    <glyph glyph-name="uni021A" unicode="&#x21a;" horiz-adv-x="1374" 
d="M39 1362h1296q11 -72 11 -154q0 -140 -25 -256h-199l-63 246l-178 8v-1052l157 -19v-135h-702v135l160 47v1024l-183 -8l-61 -246h-199q-24 111 -24 256q0 76 10 144v10zM690 -86q84 0 139 -16q39 -64 39 -144q0 -228 -286 -268l-37 82q72 28 100.5 47.5t28.5 50.5
q0 17 -2 29l-111 8l-8 195q68 16 137 16z" />
    <glyph glyph-name="uni021B" unicode="&#x21b;" horiz-adv-x="835" 
d="M799 207l26 -119q-143 -115 -348 -115q-164 0 -245.5 75.5t-81.5 213.5v635l-134 25v114l187 37l211 244l90 -8v-269h280v-155h-280v-584q0 -72 28.5 -99.5t88.5 -27.5q70 0 178 33zM408 -86q84 0 139 -16q39 -64 39 -144q0 -227 -287 -268l-37 82q72 28 100.5 47.5
t28.5 50.5q0 17 -2 29l-110 8l-9 195q68 16 138 16z" />
    <glyph glyph-name="uni0232" unicode="&#x232;" horiz-adv-x="1415" 
d="M1399 1235l-121 -45q-159 -345 -354 -713v-332l157 -18v-127h-702v127l160 47v285q-233 440 -383 758l-140 18v127h639v-127l-84 -39q126 -292 244 -522h25q123 244 245 543l-151 18v127h465v-127zM426 1745h625q10 -42 10 -96q0 -58 -10 -103h-625q-10 45 -10 103
q0 54 10 96z" />
    <glyph glyph-name="uni0233" unicode="&#x233;" horiz-adv-x="1202" 
d="M1196 915l-123 -41q-71 -215 -169 -480t-171 -425q-66 -144 -149.5 -237t-161.5 -129.5t-160 -36.5q-109 0 -168 76l12 151h386q34 57 43 80q-84 182 -202 479.5t-204 546.5l-123 16v125h561v-125l-57 -36q90 -306 192 -584h25q97 278 174 604l-135 16v125h430v-125z
M297 1460h625q10 -42 10 -96q0 -57 -10 -102h-625q-10 45 -10 102q0 54 10 96z" />
    <glyph glyph-name="uni0237" unicode="&#x237;" horiz-adv-x="641" 
d="M508 1053v-1030q0 -182 -117.5 -298t-312.5 -163l-64 65l138 189v1024l-117 53v123q185 46 424 59z" />
    <glyph glyph-name="uni0259" unicode="&#x259;" horiz-adv-x="1142" 
d="M561 1081q137 0 238.5 -40t161.5 -113t89 -166t29 -207q0 -141 -43.5 -252.5t-122 -183t-184 -109t-231.5 -37.5q-215 0 -316.5 102t-101.5 269q0 102 33 186h592q-12 161 -81 239.5t-198 78.5q-121 0 -264 -68l-31 121q76 86 176.5 133t253.5 47zM543 123q69 0 113 68.5
t51 220.5l-283 -19v-41q0 -116 28.5 -172.5t90.5 -56.5z" />
    <glyph glyph-name="uni02BB" unicode="&#x2bb;" horiz-adv-x="608" 
d="M481 1552l29 -98q-170 -85 -170 -201q0 -22 2 -34l125 -11l10 -278q-85 -23 -162 -23q-75 0 -145 21q-64 87 -64 211q0 160 98 270t277 143z" />
    <glyph glyph-name="afii57929" unicode="&#x2bc;" horiz-adv-x="608" 
d="M291 1532q71 0 147 -21q64 -87 64 -208q0 -162 -99 -272t-278 -142l-27 96q79 41 123.5 88t44.5 113q0 25 -2 35l-123 10l-12 280q89 21 162 21z" />
    <glyph glyph-name="circumflex" unicode="&#x2c6;" horiz-adv-x="858" 
d="M797 1249l-205 -104l-199 223h-22l-170 -194h-140l285 419h215z" />
    <glyph glyph-name="caron" unicode="&#x2c7;" horiz-adv-x="858" 
d="M465 1399h20l170 194h142l-287 -419h-213l-236 346l205 104z" />
    <glyph glyph-name="breve" unicode="&#x2d8;" horiz-adv-x="792" 
d="M61 1534l232 31q10 -96 45 -142t113 -47q77 -1 116.5 44.5t55.5 140.5l108 -19q-4 -177 -101 -267.5t-251 -90.5q-151 0 -234 88t-84 262z" />
    <glyph glyph-name="dotaccent" unicode="&#x2d9;" horiz-adv-x="497" 
d="M281 1540q84 0 120 -14q35 -57 35 -135q0 -48 -14 -85.5t-49 -86.5h-277l-35 282q93 39 220 39z" />
    <glyph glyph-name="ring" unicode="&#x2da;" horiz-adv-x="692" 
d="M369 1638q133 0 197.5 -56t64.5 -159q0 -119 -79.5 -181t-219.5 -62q-134 0 -202.5 58t-68.5 159q0 82 43 137.5t110.5 79.5t154.5 24zM348 1526q-41 0 -59.5 -26t-18.5 -89q0 -62 18.5 -90.5t57.5 -28.5q80 0 80 119q0 62 -18.5 88.5t-59.5 26.5z" />
    <glyph glyph-name="ogonek" unicode="&#x2db;" horiz-adv-x="653" 
d="M483 35l60 -4q-105 -58 -145 -107t-40 -102q0 -96 113 -96q51 0 104 16l17 -119q-121 -59 -262 -59q-132 0 -200.5 52.5t-68.5 137.5q0 105 112 175.5t310 105.5z" />
    <glyph glyph-name="tilde" unicode="&#x2dc;" horiz-adv-x="843" 
d="M694 1528l88 -55q-18 -59 -35.5 -100t-45.5 -82.5t-68.5 -63t-91.5 -21.5q-62 0 -117 27l-182 90l-92 -117l-89 56q14 45 26 77.5t33 70.5t45 62t59 40t77 16q57 0 119 -29l180 -90z" />
    <glyph glyph-name="hungarumlaut" unicode="&#x2dd;" horiz-adv-x="899" 
d="M147 1618h195q70 -43 111 -154l-250 -290h-142zM532 1618h193q68 -40 113 -154l-252 -290h-140z" />
    <glyph glyph-name="gravecomb" unicode="&#x300;" horiz-adv-x="0" 
d="M-80 1174h-141l-334 284q40 112 111 160h215z" />
    <glyph glyph-name="acutecomb" unicode="&#x301;" horiz-adv-x="0" 
d="M-391 1618h215q66 -54 108 -160l-348 -284h-139z" />
    <glyph glyph-name="uni0302" unicode="&#x302;" horiz-adv-x="0" 
d="M-61 1249l-205 -104l-199 223h-22l-170 -194h-140l285 419h215z" />
    <glyph glyph-name="tildecomb" unicode="&#x303;" horiz-adv-x="0" 
d="M-129 1528l88 -55q-18 -58 -36 -100t-46 -83t-68.5 -62.5t-91.5 -21.5q-61 0 -116 27l-183 90l-92 -117l-88 56q14 45 26 77.5t33 70.5t45 62t59 40t77 16q57 0 119 -29l180 -90z" />
    <glyph glyph-name="uni0304" unicode="&#x304;" horiz-adv-x="0" 
d="M-756 1460h625q10 -42 10 -96q0 -57 -10 -102h-625q-10 45 -10 102q0 54 10 96z" />
    <glyph glyph-name="uni0306" unicode="&#x306;" horiz-adv-x="0" 
d="M-782 1534l231 31q10 -96 45 -142t113 -47q77 -1 116.5 44.5t55.5 140.5l108 -19q-4 -177 -101 -267.5t-251 -90.5q-151 0 -233.5 88t-83.5 262z" />
    <glyph glyph-name="uni0307" unicode="&#x307;" horiz-adv-x="0" 
d="M-336 1524q82 0 121 -15q35 -57 35 -135q0 -48 -14.5 -85.5t-49.5 -86.5h-276l-35 283q93 39 219 39z" />
    <glyph glyph-name="uni0308" unicode="&#x308;" horiz-adv-x="2" 
d="M-713 1538q66 0 107 -14q35 -55 35 -125q0 -78 -62 -160h-235l-35 262q98 37 190 37zM-250 1538q66 0 107 -14q34 -53 34 -125q0 -79 -61 -160h-233l-37 262q102 37 190 37z" />
    <glyph glyph-name="uni030A" unicode="&#x30a;" horiz-adv-x="0" 
d="M-403 1638q133 0 197.5 -56t64.5 -159q0 -119 -79.5 -181t-219.5 -62q-134 0 -202.5 58t-68.5 159q0 82 43 137.5t110.5 79.5t154.5 24zM-424 1526q-41 0 -59.5 -26t-18.5 -89q0 -62 18.5 -90.5t57.5 -28.5q80 0 80 119q0 62 -18.5 88.5t-59.5 26.5z" />
    <glyph glyph-name="uni030B" unicode="&#x30b;" horiz-adv-x="0" 
d="M-778 1618h194q70 -43 111 -154l-250 -290h-141zM-393 1618h192q68 -40 113 -154l-252 -290h-139z" />
    <glyph glyph-name="uni030C" unicode="&#x30c;" horiz-adv-x="0" 
d="M-420 1399h21l170 194h141l-287 -419h-213l-235 346l205 104z" />
    <glyph glyph-name="uni0312" unicode="&#x312;" horiz-adv-x="2" 
d="M-229 1616l36 -82q-70 -27 -99.5 -52.5t-29.5 -68.5q0 -11 3 -29l110 -8l8 -194q-75 -17 -139 -17q-79 0 -137 17q-39 64 -39 143q0 111 71 190.5t216 100.5z" />
    <glyph glyph-name="uni0326" unicode="&#x326;" horiz-adv-x="0" 
d="M-285 -86q85 0 140 -16q39 -64 39 -144q0 -227 -287 -268l-37 82q72 28 100.5 47.5t28.5 50.5q0 17 -2 29l-111 8l-8 195q68 16 137 16z" />
    <glyph glyph-name="uni0327" unicode="&#x327;" horiz-adv-x="0" 
d="M-313 12v-123q59 -1 101 -14t64.5 -36t32 -48t9.5 -55q0 -78 -66.5 -125t-198.5 -47q-165 0 -252 65l17 105q113 -23 149 -23q82 0 82 56q0 30 -25 43t-100 22h-2l37 180h152z" />
    <glyph glyph-name="uni0328" unicode="&#x328;" horiz-adv-x="2" 
d="M483 35l60 -4q-105 -58 -145 -107t-40 -102q0 -96 113 -96q51 0 104 16l17 -119q-121 -59 -262 -59q-132 0 -200.5 52.5t-68.5 137.5q0 105 112 175.5t310 105.5z" />
    <glyph glyph-name="uni0394" unicode="&#x394;" horiz-adv-x="1323" 
d="M1305 49l-19 -51h-1249l-19 51l521 1309l188 31l53 -17zM289 258h616l-305 780z" />
    <glyph glyph-name="uni03A9" unicode="&#x3a9;" horiz-adv-x="1642" 
d="M1622 264q0 -110 -27 -264h-2h-673v410q198 113 198 419q0 383 -297 383t-297 -374q0 -157 51 -271.5t148 -156.5v-410h-676q-27 135 -27 264q0 53 13 146l188 12l51 -158l283 -28v106q-70 18 -131 43t-123 66.5t-106 93.5t-71.5 126.5t-27.5 162.5q0 256 208.5 405.5
t549.5 149.5q336 0 513 -145t177 -386q0 -110 -38 -202t-104 -155.5t-144.5 -106t-170.5 -66.5v-92l283 28l51 158l189 -12q12 -86 12 -146z" />
    <glyph glyph-name="uni03BC" unicode="&#x3bc;" horiz-adv-x="1296" 
d="M1270 172v-131q-217 -52 -412 -61l-47 24l10 164h-26q-53 -103 -114 -149t-138 -46q-86 0 -133 64l-23 -12l51 -426q-132 -35 -321 -35l-45 49l61 539v880q144 36 307 43l47 -22v-682q0 -78 32.5 -115t103.5 -37q95 0 168 66v743q158 41 309 47l45 -22v-844z" />
    <glyph glyph-name="pi" unicode="&#x3c0;" horiz-adv-x="1398" 
d="M1223 201l118 -31v-123q-149 -63 -274 -63q-118 0 -161.5 52t-43.5 181q0 214 17 537h-297v-744q-157 -20 -314 -20l-45 45l64 512v207q-101 -3 -213 -58l-70 107q34 59 68 98.5t83.5 73t119 49.5t161.5 16h881l37 -34l-21 -252h-110v-553z" />
    <glyph glyph-name="Wgrave" unicode="&#x1e80;" horiz-adv-x="2295" 
d="M2265 1235l-119 -45q-187 -637 -370 -1174l-320 -43l-57 17q-175 550 -234 760h-24q-115 -368 -242 -734l-319 -43l-58 17q-193 592 -368 1227l-123 18v127h639v-127l-103 -45q14 -58 54 -222t60.5 -247.5t52.5 -204t57 -205.5h26q114 334 252 781l-37 120l-119 23v127
h643v-127l-147 -47q147 -535 258 -877h25q124 396 254 906l-148 18v127h467v-127zM1352 1464h-160l-322 236q40 113 109 160h217z" />
    <glyph glyph-name="wgrave" unicode="&#x1e81;" horiz-adv-x="1935" 
d="M1876 915l-111 -36q-95 -366 -256 -863l-260 -43l-57 17q-25 64 -47.5 127t-44.5 132t-36 112t-38 122.5t-33 108.5h-24q-15 -43 -49 -142t-53.5 -154.5t-49.5 -135t-57 -144.5l-262 -43l-56 17q-148 446 -264 911l-119 14v125h584v-125l-84 -43q55 -284 137 -577h25
q104 306 221 727l219 43l56 -16q140 -493 229 -754h24q74 299 121 606l-145 14v125h430v-125zM1186 1174h-142l-333 284q40 113 110 160h215z" />
    <glyph glyph-name="Wacute" unicode="&#x1e82;" horiz-adv-x="2295" 
d="M2265 1235l-119 -45q-187 -637 -370 -1174l-320 -43l-57 17q-175 550 -234 760h-24q-115 -368 -242 -734l-319 -43l-58 17q-193 592 -368 1227l-123 18v127h639v-127l-103 -45q14 -58 54 -222t60.5 -247.5t52.5 -204t57 -205.5h26q114 334 252 781l-37 120l-119 23v127
h643v-127l-147 -47q147 -535 258 -877h25q124 396 254 906l-148 18v127h467v-127zM1368 1860h215q71 -49 111 -160l-353 -236h-159z" />
    <glyph glyph-name="wacute" unicode="&#x1e83;" horiz-adv-x="1935" 
d="M1876 915l-111 -36q-95 -366 -256 -863l-260 -43l-57 17q-25 64 -47.5 127t-44.5 132t-36 112t-38 122.5t-33 108.5h-24q-15 -43 -49 -142t-53.5 -154.5t-49.5 -135t-57 -144.5l-262 -43l-56 17q-148 446 -264 911l-119 14v125h584v-125l-84 -43q55 -284 137 -577h25
q104 306 221 727l219 43l56 -16q140 -493 229 -754h24q74 299 121 606l-145 14v125h430v-125zM1133 1618h215q66 -54 108 -160l-348 -284h-139z" />
    <glyph glyph-name="Wdieresis" unicode="&#x1e84;" horiz-adv-x="2295" 
d="M2265 1235l-119 -45q-187 -637 -370 -1174l-320 -43l-57 17q-175 550 -234 760h-24q-115 -368 -242 -734l-319 -43l-58 17q-193 592 -368 1227l-123 18v127h639v-127l-103 -45q14 -58 54 -222t60.5 -247.5t52.5 -204t57 -205.5h26q114 334 252 781l-37 120l-119 23v127
h643v-127l-147 -47q147 -535 258 -877h25q124 396 254 906l-148 18v127h467v-127zM981 1786q73 0 109 -14q32 -47 32 -125q0 -45 -13.5 -81t-45.5 -79h-236l-36 262q102 37 190 37zM1511 1786q71 0 109 -14q31 -50 31 -125q0 -46 -13 -81.5t-45 -78.5h-237l-37 262
q105 37 192 37z" />
    <glyph glyph-name="wdieresis" unicode="&#x1e85;" horiz-adv-x="1935" 
d="M1876 915l-111 -36q-95 -366 -256 -863l-260 -43l-57 17q-25 64 -47.5 127t-44.5 132t-36 112t-38 122.5t-33 108.5h-24q-15 -43 -49 -142t-53.5 -154.5t-49.5 -135t-57 -144.5l-262 -43l-56 17q-148 446 -264 911l-119 14v125h584v-125l-84 -43q55 -284 137 -577h25
q104 306 221 727l219 43l56 -16q140 -493 229 -754h24q74 299 121 606l-145 14v125h430v-125zM866 1538q66 0 107 -14q35 -55 35 -125q0 -78 -62 -160h-235l-35 262q98 37 190 37zM1329 1538q66 0 107 -14q34 -53 34 -125q0 -79 -61 -160h-233l-37 262q102 37 190 37z" />
    <glyph glyph-name="uni1E9E" unicode="&#x1e9e;" horiz-adv-x="1609" 
d="M868 1389q282 0 533 -68v-172q-142 -42 -207.5 -103t-65.5 -143q0 -60 36.5 -99t142.5 -112q48 -33 73 -52.5t61.5 -54.5t54.5 -66t32 -77.5t14 -99.5q0 -78 -27.5 -141t-73.5 -105t-108.5 -70t-130 -40.5t-139.5 -12.5q-182 0 -340 72q-12 55 -12 135q0 94 24 176h174
l35 -204q63 -13 90 -13q66 0 97.5 32.5t31.5 86.5q0 29 -8.5 51t-34.5 47t-49.5 42.5t-77.5 54.5q-108 71 -162.5 146.5t-54.5 182.5q0 150 104.5 250t290.5 144v22q-115 23 -237 23q-71 0 -125 -8.5t-105 -32.5t-84 -64t-53 -106t-20 -156v-854h-514v127l137 47v678
q0 141 50.5 245.5t144.5 167.5t219.5 93.5t283.5 30.5z" />
    <glyph glyph-name="Ygrave" unicode="&#x1ef2;" horiz-adv-x="1415" 
d="M1399 1235l-121 -45q-159 -345 -354 -713v-332l157 -18v-127h-702v127l160 47v285q-233 440 -383 758l-140 18v127h639v-127l-84 -39q126 -292 244 -522h25q123 244 245 543l-151 18v127h465v-127zM870 1464h-159l-322 236q40 113 109 160h217z" />
    <glyph glyph-name="ygrave" unicode="&#x1ef3;" horiz-adv-x="1202" 
d="M1196 915l-123 -41q-71 -215 -169 -480t-171 -425q-66 -144 -149.5 -237t-161.5 -129.5t-160 -36.5q-109 0 -168 76l12 151h386q34 57 43 80q-84 182 -202 479.5t-204 546.5l-123 16v125h561v-125l-57 -36q90 -306 192 -584h25q97 278 174 604l-135 16v125h430v-125z
M723 1174h-141l-334 284q40 113 110 160h215z" />
    <glyph glyph-name="uni2007" unicode="&#x2007;" horiz-adv-x="1325" 
 />
    <glyph glyph-name="uni2008" unicode="&#x2008;" horiz-adv-x="606" 
 />
    <glyph glyph-name="uni2009" unicode="&#x2009;" horiz-adv-x="358" 
 />
    <glyph glyph-name="uni200B" unicode="&#x200b;" horiz-adv-x="0" 
 />
    <glyph glyph-name="endash" unicode="&#x2013;" horiz-adv-x="1024" 
d="M944 520h-866v191h866v-191z" />
    <glyph glyph-name="emdash" unicode="&#x2014;" horiz-adv-x="2048" 
d="M1929 520h-1812v191h1812v-191z" />
    <glyph glyph-name="quoteleft" unicode="&#x2018;" horiz-adv-x="608" 
d="M481 1552l29 -98q-170 -85 -170 -201q0 -22 2 -34l125 -11l10 -278q-85 -23 -162 -23q-75 0 -145 21q-64 87 -64 211q0 160 98 270t277 143z" />
    <glyph glyph-name="quoteright" unicode="&#x2019;" horiz-adv-x="608" 
d="M291 1532q71 0 147 -21q64 -87 64 -208q0 -162 -99 -272t-278 -142l-27 96q79 41 123.5 88t44.5 113q0 25 -2 35l-123 10l-12 280q89 21 162 21z" />
    <glyph glyph-name="quotesinglbase" unicode="&#x201a;" horiz-adv-x="608" 
d="M291 311q74 0 147 -20q64 -87 64 -209q0 -163 -99 -272.5t-278 -143.5l-27 98q80 42 124 88t44 113q0 23 -2 35l-123 10l-12 279q81 22 162 22z" />
    <glyph glyph-name="quotedblleft" unicode="&#x201c;" horiz-adv-x="1101" 
d="M975 1552l29 -98q-170 -85 -170 -201q0 -22 2 -34l125 -11l10 -278q-85 -23 -162 -23q-75 0 -145 21q-64 87 -64 211q0 160 98 270t277 143zM481 1552l29 -98q-170 -85 -170 -201q0 -22 2 -34l125 -11l10 -278q-85 -23 -162 -23q-75 0 -145 21q-64 87 -64 211
q0 160 98 270t277 143z" />
    <glyph glyph-name="quotedblright" unicode="&#x201d;" horiz-adv-x="1101" 
d="M784 1532q72 0 148 -21q63 -86 63 -208q0 -162 -99 -272t-278 -142l-26 96q79 41 123.5 88t44.5 113q0 25 -2 35l-123 10l-12 280q88 21 161 21zM291 1532q71 0 147 -21q64 -87 64 -208q0 -162 -99 -272t-278 -142l-27 96q79 41 123.5 88t44.5 113q0 25 -2 35l-123 10
l-12 280q89 21 162 21z" />
    <glyph glyph-name="quotedblbase" unicode="&#x201e;" horiz-adv-x="1101" 
d="M784 311q75 0 148 -20q63 -86 63 -209q0 -163 -99 -272.5t-278 -143.5l-26 98q80 42 124 88t44 113q0 23 -2 35l-123 10l-12 279q81 22 161 22zM291 311q74 0 147 -20q64 -87 64 -209q0 -163 -99 -272.5t-278 -143.5l-27 98q80 42 124 88t44 113q0 23 -2 35l-123 10
l-12 279q81 22 162 22z" />
    <glyph glyph-name="dagger" unicode="&#x2020;" horiz-adv-x="960" 
d="M367 1516h227q12 -40 12 -86q0 -96 -74 -265h-104q-72 164 -72 265q0 36 11 86zM131 1208q115 0 270 -71v-101q-168 -71 -270 -71q-42 0 -90 10v225q39 8 90 8zM829 1208q55 0 91 -8v-225q-45 -10 -91 -10q-102 0 -270 71v101q155 71 270 71zM430 1008h102
q42 -92 58 -154.5t16 -128.5q0 -54 -8 -119.5t-16 -108t-24 -119.5t-21 -104h-111q-3 16 -14.5 69.5t-16.5 77t-13.5 71.5t-12.5 80t-7.5 74t-3.5 79q0 67 15.5 129.5t56.5 153.5z" />
    <glyph glyph-name="daggerdbl" unicode="&#x2021;" horiz-adv-x="1001" 
d="M387 1516h227q13 -44 13 -86q0 -96 -74 -265h-104q-72 164 -72 265q0 41 10 86zM152 1208q115 0 270 -71v-101q-168 -71 -270 -71q-43 0 -91 10v225q39 8 91 8zM850 1208q54 0 90 -8v-225q-45 -10 -90 -10q-102 0 -270 71v101q155 71 270 71zM451 1008h102
q42 -82 58 -137t16 -113t-16 -113t-58 -137h-102q-41 81 -56.5 136t-15.5 114t15.5 114t56.5 136zM152 551q100 0 270 -72v-100q-157 -72 -270 -72q-52 0 -91 8v226q48 10 91 10zM850 551q45 0 90 -10v-226q-36 -8 -90 -8q-113 0 -270 72v100q170 72 270 72zM449 350h104
q74 -169 74 -264q0 -42 -13 -86h-227q-10 45 -10 86q0 100 72 264z" />
    <glyph glyph-name="bullet" unicode="&#x2022;" horiz-adv-x="921" 
d="M459 950q163 0 253.5 -89.5t90.5 -246.5q0 -158 -90.5 -248t-253.5 -90q-162 0 -251 90t-89 248q0 157 89.5 246.5t250.5 89.5z" />
    <glyph glyph-name="ellipsis" unicode="&#x2026;" horiz-adv-x="1837" 
d="M1556 377q87 0 140 -17q37 -59 37 -153q0 -119 -62 -207h-295l-41 334q101 43 221 43zM326 377q86 0 139 -17q37 -59 37 -153q0 -119 -62 -207h-295l-41 334q101 43 222 43zM942 377q86 0 139 -17q37 -59 37 -153q0 -120 -61 -207h-295l-41 334q101 43 221 43z" />
    <glyph glyph-name="perthousand" unicode="&#x2030;" horiz-adv-x="2686" 
d="M2263 729q174 0 262 -98.5t88 -263.5q0 -187 -105 -290.5t-282 -103.5q-174 0 -261 97.5t-87 265.5q0 187 104 290t281 103zM2247 623q-65 0 -87 -60.5t-22 -212.5t22 -211t87 -59q64 0 86 59t22 211q0 151 -22 212t-86 61zM1389 1255l20 -45q-57 -87 -209.5 -306
t-224.5 -329q-72 -112 -200 -333t-173 -295l-127 41l-22 47q44 65 128.5 187.5t154.5 225t126 189.5q78 121 233.5 383.5t164.5 277.5zM457 1262q173 0 261.5 -99.5t88.5 -265.5q0 -187 -105 -290t-282 -103q-174 0 -261 97.5t-87 264.5q0 188 104.5 292t280.5 104z
M440 1153q-65 0 -86.5 -60t-21.5 -212q0 -153 21.5 -212t86.5 -59q64 0 86.5 60t22.5 211q0 150 -22.5 211t-86.5 61zM1423 729q174 0 262.5 -98.5t88.5 -263.5q0 -187 -106.5 -290.5t-283.5 -103.5q-173 0 -259.5 97.5t-86.5 265.5q0 187 104 290t281 103zM1421 623
q-65 0 -86.5 -61.5t-21.5 -213.5q0 -151 21.5 -209.5t86.5 -58.5q64 0 86.5 59t22.5 209q0 151 -22.5 213t-86.5 62z" />
    <glyph glyph-name="minute" unicode="&#x2032;" horiz-adv-x="559" 
d="M487 1466l-196 -538h-219l57 565q96 21 157.5 28t149.5 7z" />
    <glyph glyph-name="second" unicode="&#x2033;" horiz-adv-x="1046" 
d="M487 1466l-196 -538h-219l57 565q96 21 157.5 28t149.5 7zM975 1466l-197 -538h-219l57 565q96 21 158 28t150 7z" />
    <glyph glyph-name="uni2034" unicode="&#x2034;" horiz-adv-x="1552" 
d="M487 1466l-196 -538h-219l57 565q96 21 157.5 28t149.5 7zM983 1466l-197 -538h-219l58 565q96 21 157.5 28t149.5 7zM1481 1466l-197 -538h-219l57 565q96 21 158 28t150 7z" />
    <glyph glyph-name="guilsinglleft" unicode="&#x2039;" horiz-adv-x="718" 
d="M588 881l-154 -328l154 -328l-142 -90l-356 365v106l356 365z" />
    <glyph glyph-name="guilsinglright" unicode="&#x203a;" horiz-adv-x="718" 
d="M629 606v-106l-355 -365l-143 90l156 328l-156 328l143 90z" />
    <glyph glyph-name="fraction" unicode="&#x2044;" horiz-adv-x="548" 
d="M756 1366l20 -45q-274 -408 -444 -670q-72 -113 -215.5 -363t-196.5 -337l-129 41l-22 47q353 524 450 674q71 111 211.5 357.5t196.5 338.5z" />
    <glyph glyph-name="uni2070" unicode="&#x2070;" horiz-adv-x="823" 
d="M432 1501q164 0 246 -93.5t82 -254.5q0 -183 -98.5 -284t-266.5 -101q-164 0 -246.5 95t-82.5 257q0 183 98 282t268 99zM412 1399q-55 0 -75 -58.5t-20 -203.5q0 -147 20 -206t75 -59q54 0 74 59.5t20 205.5q0 145 -20 203.5t-74 58.5z" />
    <glyph glyph-name="uni2074" unicode="&#x2074;" horiz-adv-x="706" 
d="M682 897h-92v-111h-223v111h-334l-8 90q99 268 170 526l198 -43l17 -40q-103 -207 -222 -400l7 -20q69 16 145 16h27v193l163 49l60 -11v-231h92v-129z" />
    <glyph glyph-name="uni2075" unicode="&#x2075;" horiz-adv-x="686" 
d="M584 1503l18 -73q-67 -119 -215 -119q-85 0 -178 35l-14 -140q100 29 174 29q106 2 187 -55.5t81 -163.5q0 -110 -93.5 -178t-250.5 -68q-113 0 -177.5 36.5t-64.5 108.5q0 60 47 93h152l16 -131q3 0 17.5 -2.5t21.5 -2.5q40 0 62 26t22 79q0 69 -44 99.5t-152 31.5
l-101 2l14 373l115 18q72 -28 168 -28q98 0 195 30z" />
    <glyph glyph-name="uni2076" unicode="&#x2076;" horiz-adv-x="796" 
d="M518 1251q105 0 164 -56t59 -159q0 -125 -86.5 -196.5t-242.5 -71.5q-178 0 -262 92t-84 252q0 188 112 288.5t320 100.5q65 0 135 -18l-2 -90q-90 1 -160 -21t-116.5 -75.5t-49.5 -133.5h21q63 88 192 88zM403 872q91 0 91 121q0 101 -80 101q-49 0 -99 -41
q0 -103 20.5 -142t67.5 -39z" />
    <glyph glyph-name="uni2077" unicode="&#x2077;" horiz-adv-x="653" 
d="M639 1475l8 -95q-115 -145 -175.5 -240t-82.5 -177l25 -170l-166 -37q-45 14 -77 55t-32 94q0 46 24 94.5t76.5 104t105.5 103.5t140 118l-6 18l-293 -22l-20 -109h-115q-12 47 -12 127q0 83 16 136h584z" />
    <glyph glyph-name="uni2078" unicode="&#x2078;" horiz-adv-x="763" 
d="M535 1194v-20q83 -37 123 -80.5t40 -112.5q0 -111 -87 -162t-236 -51q-307 0 -307 188q0 69 38.5 106.5t106.5 57.5v21q-129 57 -129 168q0 99 88.5 145.5t228.5 46.5q131 0 206 -41t75 -127q0 -65 -39 -94.5t-108 -44.5zM399 1411q-75 0 -75 -78q0 -31 17.5 -51
t70.5 -39l26 -8q31 44 31 96q0 80 -70 80zM369 860q92 0 92 96q0 41 -22 62.5t-89 44.5l-39 12q-35 -50 -35 -114q0 -101 93 -101z" />
    <glyph glyph-name="uni2079" unicode="&#x2079;" horiz-adv-x="796" 
d="M383 1501q180 0 264 -92t84 -252q0 -188 -111.5 -288.5t-316.5 -100.5q-74 0 -156 23v90q337 -3 345 225h-21q-62 -88 -192 -88q-105 0 -164.5 57t-59.5 160q0 125 86.5 195.5t241.5 70.5zM383 1165q47 0 98 39q0 104 -21 143t-69 39q-86 0 -86 -118q0 -103 78 -103z" />
    <glyph glyph-name="uni2080" unicode="&#x2080;" horiz-adv-x="823" 
d="M432 559q164 0 246 -93.5t82 -254.5q0 -183 -98.5 -284t-266.5 -101q-164 0 -246.5 95t-82.5 257q0 183 98 282t268 99zM412 457q-55 0 -75 -58.5t-20 -203.5q0 -147 20 -206t75 -59q54 0 74 59.5t20 205.5q0 145 -20 203.5t-74 58.5z" />
    <glyph glyph-name="uni2081" unicode="&#x2081;" horiz-adv-x="528" 
d="M506 -53v-90h-463v90l121 24v389q-58 -6 -123 -6v115q59 3 125.5 30t101.5 72l119 -8v-608z" />
    <glyph glyph-name="uni2082" unicode="&#x2082;" horiz-adv-x="679" 
d="M516 84h113q12 -37 12 -100q0 -78 -18 -127h-584l-8 106q68 46 117 85t105 94.5t86 116t30 122.5q0 44 -19.5 66t-64.5 22q-13 0 -41 -4l-21 -170h-149q-47 30 -47 98q0 78 84.5 128t218.5 50q138 0 214.5 -54t76.5 -146q0 -43 -20 -84t-53 -76.5t-89 -74.5t-115.5 -72.5
t-144.5 -77.5l6 -19q127 30 180 37l119 14z" />
    <glyph glyph-name="uni2083" unicode="&#x2083;" horiz-adv-x="718" 
d="M334 571q137 0 214 -47t77 -141q0 -38 -12.5 -65t-37 -44t-51.5 -27t-67 -18v-20q194 -26 194 -168q0 -100 -88.5 -151.5t-243.5 -51.5q-135 0 -210.5 38t-75.5 110q0 52 41 96h149l17 -135q42 -6 57 -6q52 0 79 22.5t27 87.5q0 60 -30 84.5t-115 24.5h-31v102h92
q58 42 58 121q0 47 -18 66.5t-58 19.5q-13 0 -49 -4l-16 -135h-146q-43 40 -43 88q0 74 77.5 113.5t209.5 39.5z" />
    <glyph glyph-name="uni2084" unicode="&#x2084;" horiz-adv-x="706" 
d="M682 -45h-92v-111h-223v111h-334l-8 90q99 268 170 526l198 -43l17 -41q-100 -202 -222 -399l7 -20q69 16 145 16h27v192l163 50l60 -11v-231h92v-129z" />
    <glyph glyph-name="uni2085" unicode="&#x2085;" horiz-adv-x="686" 
d="M584 561l18 -74q-66 -118 -215 -118q-88 0 -178 34l-14 -139q100 29 174 29q106 2 187 -55.5t81 -163.5q0 -110 -93.5 -178t-250.5 -68q-113 0 -177.5 36.5t-64.5 108.5q0 60 47 93h152l16 -132q32 -4 39 -4q40 0 62 26t22 79q0 69 -44 99.5t-152 31.5l-101 2l14 373
l115 18q74 -29 168 -29q95 0 195 31z" />
    <glyph glyph-name="uni2086" unicode="&#x2086;" horiz-adv-x="796" 
d="M518 309q105 0 164 -56t59 -159q0 -125 -86.5 -196.5t-242.5 -71.5q-178 0 -262 92t-84 252q0 188 112 288.5t320 100.5q65 0 135 -18l-2 -90q-90 1 -160 -21t-116.5 -75.5t-49.5 -133.5h21q63 88 192 88zM403 -70q91 0 91 121q0 101 -80 101q-49 0 -99 -41
q0 -103 20.5 -142t67.5 -39z" />
    <glyph glyph-name="uni2087" unicode="&#x2087;" horiz-adv-x="653" 
d="M639 532l8 -94q-115 -145 -175.5 -240.5t-82.5 -177.5l25 -170l-166 -36q-45 14 -77 55t-32 94q0 46 24 94.5t76.5 104t105.5 103.5t140 118l-6 18l-293 -22l-20 -109h-115q-12 47 -12 127q0 82 16 135h584z" />
    <glyph glyph-name="uni2088" unicode="&#x2088;" horiz-adv-x="763" 
d="M535 254v-21q83 -37 123 -80t40 -112q0 -111 -87 -162t-236 -51q-307 0 -307 188q0 69 38.5 106.5t106.5 57.5v21q-129 57 -129 168q0 99 88.5 145.5t228.5 46.5q131 0 206 -41t75 -127q0 -65 -39 -94.5t-108 -44.5zM399 471q-75 0 -75 -78q0 -31 17.5 -51t70.5 -39
l26 -8q31 44 31 96q0 80 -70 80zM369 -80q92 0 92 96q0 41 -22 62.5t-89 44.5l-39 12q-35 -50 -35 -115q0 -100 93 -100z" />
    <glyph glyph-name="uni2089" unicode="&#x2089;" horiz-adv-x="796" 
d="M383 561q180 0 264 -92t84 -252q0 -188 -111.5 -288.5t-316.5 -100.5q-77 0 -156 22v91q337 -3 345 225h-21q-62 -88 -192 -88q-105 0 -164.5 57t-59.5 160q0 125 86.5 195.5t241.5 70.5zM383 225q47 0 98 39q0 104 -21 143t-69 39q-86 0 -86 -118q0 -103 78 -103z" />
    <glyph glyph-name="Euro" unicode="&#x20ac;" horiz-adv-x="1275" 
d="M1182 260l30 -106q-169 -181 -454 -181q-227 0 -368 112.5t-185 315.5h-152v140h133l-2 53q0 32 4 94h-135v139h160q58 210 216 322.5t382 112.5q172 0 280.5 -64.5t108.5 -185.5q0 -93 -78 -146h-215l-30 254q-43 6 -74 6q-197 0 -236 -299h287v-139h-297v-33
q0 -44 4 -114h293v-140h-270q30 -121 99 -168t179 -47q153 0 320 74z" />
    <glyph glyph-name="uni20B9" unicode="&#x20b9;" horiz-adv-x="1040" 
d="M696 1081l-4 -24q114 -29 156 -109h139v-153h-110q-3 -144 -90 -209.5t-279 -91.5l-2 -31q61 -30 116 -72t122 -103.5t100 -88.5l100 -45l-2 -119q-52 -29 -104 -44.5t-138 -15.5q-174 0 -282 84q-42 35 -106 111t-108 134.5t-132 178.5l24 105h285q83 90 96 207h-424
v153h418q-20 81 -90 133h-328v154h934v-154h-291z" />
    <glyph glyph-name="uni20BA" unicode="&#x20ba;" horiz-adv-x="1200" 
d="M930 541l219 10q29 -91 29 -160q0 -67 -18 -126.5t-59 -113t-102.5 -91.5t-155 -60.5t-210.5 -22.5q-101 0 -221.5 16t-206.5 38v407l-125 -41l-23 33v123l148 49v148l-125 -41l-23 32v123l148 49v306q145 38 321 38l45 -47v-176l330 109l25 -35v-119l-355 -117v-151
l330 108l25 -32v-119l-355 -117v-434h56q82 0 143.5 31.5t95.5 84t50 112.5t16 126q0 12 -1 32t-1 28z" />
    <glyph glyph-name="uni20BD" unicode="&#x20bd;" horiz-adv-x="1312" 
d="M610 567v-147h459v-154h-459v-121l178 -18v-127h-696v127l137 37v102h-172v154h172v147h-172v156h172v375l-137 16v121q231 18 592 18q301 0 434 -75.5t133 -255.5q0 -355 -483 -355h-158zM610 723h82q187 0 187 197q0 95 -45 138.5t-142 43.5h-82v-379z" />
    <glyph glyph-name="afii61289" unicode="&#x2113;" horiz-adv-x="892" 
d="M811 233l45 -100q-140 -160 -373 -160q-160 0 -246 71t-108 189q-43 -12 -106 -20l-15 139q55 13 115 31v618q0 129 19 223.5t63.5 168.5t124.5 111.5t196 37.5q158 0 222.5 -78t64.5 -260q0 -103 -18.5 -211t-57 -223t-110 -224.5t-166.5 -193.5v-18q0 -189 133 -189
q50 0 101 22.5t116 65.5zM545 1401q-48 0 -66 -51t-18 -199v-600q164 224 164 649q0 112 -16 156.5t-64 44.5z" />
    <glyph glyph-name="afii61352" unicode="&#x2116;" horiz-adv-x="2422" 
d="M1477 1432q92 0 157 -39l2 -148l-247 -67q-46 -173 -46 -492q0 -122 25 -670l-326 -41l-61 17l-389 676q-82 152 -148 333h-24q65 -457 65 -671q0 -98 -25 -169.5t-69 -111t-97 -58t-116 -18.5q-62 0 -102 17.5t-68 56.5l21 150h215q26 84 26 274q0 220 -24 616l-140 19
v129h625l309 -559q45 -86 129 -314h25q-47 371 -47 605q0 131 23 222.5t67.5 144t102.5 75.5t137 23zM1987 1214q181 0 270.5 -97t89.5 -255q0 -177 -109.5 -279t-293.5 -102q-182 0 -272.5 96.5t-90.5 253.5q0 178 110.5 280.5t295.5 102.5zM1964 1102q-57 0 -78.5 -55.5
t-21.5 -196.5q0 -144 21.5 -201t78.5 -57q59 0 80.5 56t21.5 200q0 143 -21.5 198.5t-80.5 55.5zM2212 133h-496v191h496v-191z" />
    <glyph glyph-name="uni2117" unicode="&#x2117;" horiz-adv-x="1675" 
d="M852 1389q165 0 304 -50.5t236.5 -141t152 -220.5t54.5 -285q0 -215 -102 -380t-277 -252t-395 -87q-165 0 -304.5 51.5t-237.5 143t-152.5 222.5t-54.5 286q0 215 102 378.5t277.5 249t396.5 85.5zM836 121q247 0 400 151t153 416q0 258 -149.5 405.5t-395.5 147.5
q-249 0 -402 -149t-153 -412q0 -259 150.5 -409t396.5 -150zM868 1083q195 0 291 -68.5t96 -209.5q0 -117 -68.5 -187.5t-197.5 -70.5q-69 0 -115 12v90h11q49 0 73.5 37t24.5 129q0 89 -28.5 125.5t-98.5 36.5h-33v-596h2l97 -10v-86h-422v82l88 28v576l-88 12v82
q238 18 368 18z" />
    <glyph glyph-name="trademark" unicode="&#x2122;" horiz-adv-x="2033" 
d="M18 1364h775q6 -43 6 -100q0 -70 -15 -154h-120l-35 145l-94 5v-576l94 -10v-90h-451v88l96 26v562l-98 -5l-33 -145h-118q-15 84 -15 156q0 59 8 98zM2009 670v-86h-416v86l76 26q0 371 -2 543h-20q-5 -26 -41 -174l-127 -434l-174 -27l-54 12l-137 447
q-9 30 -16.5 61.5t-15 65.5t-11.5 49h-20q1 -93 -4 -559l98 -10v-86h-318v86l93 28q13 374 24 570l-90 12v84h432q97 -342 133 -504h21q52 229 135 504h412v-84l-86 -27q17 -319 26 -573z" />
    <glyph glyph-name="Omega" unicode="&#x2126;" horiz-adv-x="1642" 
d="M1622 264q0 -110 -27 -264h-2h-673v410q198 113 198 419q0 383 -297 383t-297 -374q0 -157 51 -271.5t148 -156.5v-410h-676q-27 135 -27 264q0 53 13 146l188 12l51 -158l283 -28v106q-70 18 -131 43t-123 66.5t-106 93.5t-71.5 126.5t-27.5 162.5q0 256 208.5 405.5
t549.5 149.5q336 0 513 -145t177 -386q0 -110 -38 -202t-104 -155.5t-144.5 -106t-170.5 -66.5v-92l283 28l51 158l189 -12q12 -86 12 -146z" />
    <glyph glyph-name="estimated" unicode="&#x212e;" horiz-adv-x="1292" 
d="M276 504v-271q64 -93 169.5 -140.5t230.5 -47.5q139 0 250.5 55t191.5 138l33 -50q-85 -102 -208 -158.5t-271 -56.5q-170 0 -310 74t-219.5 201t-79.5 280q0 151 78.5 278.5t212.5 201t293 73.5q158 0 292 -73.5t212 -200.5t78 -277v-26h-953zM647 1012
q-108 0 -206.5 -48.5t-164.5 -138.5v-256h740v256q-68 92 -164.5 139.5t-204.5 47.5z" />
    <glyph glyph-name="uni2150" unicode="&#x2150;" horiz-adv-x="1955" 
d="M1403 1366l20 -45q-274 -408 -444 -670q-72 -113 -215.5 -363t-196.5 -337l-129 41l-22 47q353 524 450 674q71 111 211.5 357.5t196.5 338.5zM621 633v-107h-572v107l152 31v473q-68 -9 -152 -9v136q72 3 154.5 36t128.5 89l145 -11v-733zM1937 836l13 -111
q-242 -303 -308 -512l33 -207l-188 -45q-77 18 -114.5 67t-37.5 111q0 57 29.5 116t91 124t131 124t174.5 140l-8 21l-350 -23l-19 -129l-137 6q-16 71 -16 156q0 89 20 157v5h686z" />
    <glyph glyph-name="uni2151" unicode="&#x2151;" horiz-adv-x="2054" 
d="M1403 1366l20 -45q-274 -408 -444 -670q-72 -113 -215.5 -363t-196.5 -337l-129 41l-22 47q353 524 450 674q71 111 211.5 357.5t196.5 338.5zM621 633v-107h-572v107l152 31v473q-68 -9 -152 -9v136q72 3 154.5 36t128.5 89l145 -11v-733zM1575 862q204 0 304.5 -106.5
t100.5 -302.5q0 -233 -136 -355.5t-382 -122.5q-71 0 -170 23l2 106q381 -4 389 277h-24q-73 -102 -211 -102q-133 0 -202.5 75t-69.5 189q0 144 106 231.5t293 87.5zM1567 449q51 0 106 49v20q0 118 -23 162.5t-75 44.5q-47 0 -69.5 -33.5t-22.5 -105.5q0 -77 21 -107
t63 -30z" />
    <glyph glyph-name="uni2152" unicode="&#x2152;" horiz-adv-x="2803" 
d="M1403 1366l20 -45q-274 -408 -444 -670q-72 -113 -215.5 -363t-196.5 -337l-129 41l-22 47q353 524 450 674q71 111 211.5 357.5t196.5 338.5zM621 633v-107h-572v107l152 31v473q-68 -9 -152 -9v136q72 3 154.5 36t128.5 89l145 -11v-733zM2343 862q192 0 289.5 -114
t97.5 -308q0 -221 -118 -343t-314 -122q-193 0 -291 116t-98 310q0 221 118.5 341t315.5 120zM2322 739q-41 0 -62.5 -26.5t-30.5 -93t-9 -197.5q0 -133 9 -201t30.5 -95.5t62.5 -27.5q40 0 61 27.5t30.5 96t9.5 200.5q0 130 -9.5 197t-30.5 93.5t-61 26.5zM1810 106v-106
h-571v106l152 31v473q-60 -8 -152 -8v135q72 3 154.5 36t128.5 89l145 -10v-733z" />
    <glyph glyph-name="onethird" unicode="&#x2153;" horiz-adv-x="2027" 
d="M1403 1366l20 -45q-274 -408 -444 -670q-72 -113 -215.5 -363t-196.5 -337l-129 41l-22 47q353 524 450 674q71 111 211.5 357.5t196.5 338.5zM621 633v-107h-572v107l152 31v473q-68 -9 -152 -9v136q72 3 154.5 36t128.5 89l145 -11v-733zM1731 442v-24
q106 -15 164.5 -65t58.5 -134q0 -117 -111 -180.5t-293 -63.5q-156 0 -249 46.5t-93 134.5q0 62 52 114h180l22 -168q40 -4 60 -4q65 0 96 28.5t31 98.5q0 71 -35.5 102t-128.5 31h-39v123h90q40 35 59 68.5t19 87.5q0 57 -22 79.5t-70 22.5q-17 0 -45 -4l-21 -166h-180
q-53 49 -53 105q0 90 96.5 138t255.5 48q160 0 252 -55t92 -172q0 -81 -47.5 -125t-140.5 -66z" />
    <glyph glyph-name="twothirds" unicode="&#x2154;" horiz-adv-x="2195" 
d="M1571 1366l20 -45q-274 -408 -444 -670q-72 -113 -215.5 -363t-196.5 -337l-129 41l-22 47q353 524 450 674q71 111 211.5 357.5t196.5 338.5zM621 805l135 -4q14 -52 14 -115q0 -92 -20 -160h-705l-8 131q21 17 67.5 52t71 54.5t65.5 54t64 59t52 60t44 67t26 70
t11 77.5q0 117 -94 117q-21 0 -45 -6l-27 -209h-184q-57 42 -57 116q0 97 103.5 158.5t264.5 61.5q162 0 254 -65.5t92 -174.5q0 -44 -15 -84.5t-49.5 -79.5t-72.5 -71.5t-103 -73t-121.5 -72t-145.5 -78.5l8 -18q119 27 213 37l145 12zM1898 442v-24q106 -15 165 -65
t59 -134q0 -117 -111 -180.5t-293 -63.5q-156 0 -249 46.5t-93 134.5q0 63 51 114h181l22 -168q40 -4 60 -4q65 0 96 28.5t31 98.5q0 71 -35.5 102t-128.5 31h-39v123h90q40 35 59 68.5t19 87.5q0 57 -22 79.5t-70 22.5q-17 0 -45 -4l-21 -166h-180q-53 49 -53 105
q0 90 96.5 138t255.5 48q160 0 252 -55t92 -172q0 -81 -48 -125t-141 -66z" />
    <glyph glyph-name="uni2155" unicode="&#x2155;" horiz-adv-x="1947" 
d="M1403 1366l20 -45q-274 -408 -444 -670q-72 -113 -215.5 -363t-196.5 -337l-129 41l-22 47q353 524 450 674q71 111 211.5 357.5t196.5 338.5zM621 633v-107h-572v107l152 31v473q-68 -9 -152 -9v136q72 3 154.5 36t128.5 89l145 -11v-733zM1563 541q145 0 237 -70.5
t92 -196.5q0 -137 -114.5 -218t-307.5 -81q-142 0 -221.5 44.5t-79.5 130.5q0 75 58 112h186l19 -160q28 -4 43 -4q55 0 83.5 25t28.5 90q0 81 -50 120.5t-165 45.5l-141 10l18 451l150 22q103 -35 190 -35q115 0 236 37l28 -88q-76 -133 -266 -133q-104 0 -211 39l-22 -174
q116 33 209 33z" />
    <glyph glyph-name="uni2156" unicode="&#x2156;" horiz-adv-x="2115" 
d="M1571 1366l20 -45q-274 -408 -444 -670q-72 -113 -215.5 -363t-196.5 -337l-129 41l-22 47q353 524 450 674q71 111 211.5 357.5t196.5 338.5zM621 805l135 -4q14 -52 14 -115q0 -92 -20 -160h-705l-8 131q21 17 67.5 52t71 54.5t65.5 54t64 59t52 60t44 67t26 70
t11 77.5q0 117 -94 117q-21 0 -45 -6l-27 -209h-184q-57 42 -57 116q0 97 103.5 158.5t264.5 61.5q162 0 254 -65.5t92 -174.5q0 -44 -15 -84.5t-49.5 -79.5t-72.5 -71.5t-103 -73t-121.5 -72t-145.5 -78.5l8 -18q119 27 213 37l145 12zM1731 541q145 0 237 -70.5t92 -196.5
q0 -137 -114.5 -218t-307.5 -81q-142 0 -221.5 44.5t-79.5 130.5q0 75 58 112h186l18 -160q28 -4 43 -4q56 0 84.5 25t28.5 90q0 81 -50 120.5t-165 45.5l-141 10l18 451l150 22q103 -35 190 -35q115 0 236 37l28 -88q-76 -133 -266 -133q-104 0 -211 39l-22 -174
q116 33 209 33z" />
    <glyph glyph-name="uni2157" unicode="&#x2157;" horiz-adv-x="2097" 
d="M1552 1366l21 -45q-303 -451 -445 -670q-72 -113 -214.5 -362t-196.5 -338l-129 41l-23 47q374 555 451 674q71 110 210.5 357t196.5 339zM559 969v-25q106 -15 164.5 -65t58.5 -134q0 -117 -110.5 -180t-292.5 -63q-156 0 -249 46t-93 134q0 64 51 115h180l23 -168
q40 -4 59 -4q65 0 96 28.5t31 98.5q0 71 -35.5 102t-128.5 31h-39v123h91q40 35 58.5 68t18.5 87q0 57 -22.5 80t-69.5 23q-17 0 -45 -4l-20 -166h-181q-53 49 -53 104q0 90 96.5 138t255.5 48q160 0 252.5 -55t92.5 -172q0 -81 -47.5 -124.5t-141.5 -65.5zM1712 541
q146 0 238 -70.5t92 -196.5q0 -137 -114.5 -218t-307.5 -81q-142 0 -221.5 44.5t-79.5 130.5q0 75 57 112h187l18 -160q28 -4 43 -4q56 0 84.5 25t28.5 90q0 81 -50 120.5t-165 45.5l-142 10l19 451l149 22q103 -35 191 -35q114 0 235 37l29 -88q-76 -133 -266 -133
q-104 0 -211 39l-23 -174q115 33 209 33z" />
    <glyph glyph-name="uni2158" unicode="&#x2158;" horiz-adv-x="2127" 
d="M1583 1366l21 -45q-303 -451 -445 -670q-72 -113 -214.5 -362t-196.5 -338l-130 41l-22 47q374 555 451 674q71 110 210.5 357t196.5 339zM819 647h-104v-121h-275v121h-405l-8 111q129 318 223 643l248 -51l12 -54q-139 -262 -287 -489l6 -23q139 21 183 21h28v217
l203 61l72 -14v-264h104v-158zM1743 541q146 0 238 -70.5t92 -196.5q0 -137 -114.5 -218t-307.5 -81q-142 0 -221.5 44.5t-79.5 130.5q0 75 57 112h186l19 -160q28 -4 43 -4q55 0 83.5 25t28.5 90q0 81 -50 120.5t-165 45.5l-141 10l19 451l149 22q103 -35 190 -35
q115 0 236 37l29 -88q-76 -133 -267 -133q-104 0 -211 39l-22 -174q116 33 209 33z" />
    <glyph glyph-name="uni2159" unicode="&#x2159;" horiz-adv-x="1992" 
d="M1403 1366l20 -45q-274 -408 -444 -670q-72 -113 -215.5 -363t-196.5 -337l-129 41l-22 47q353 524 450 674q71 111 211.5 357.5t196.5 338.5zM621 633v-107h-572v107l152 31v473q-68 -9 -152 -9v136q72 3 154.5 36t128.5 89l145 -11v-733zM1657 559q132 0 202 -74
t70 -188q0 -145 -107.5 -233.5t-293.5 -88.5q-202 0 -303 107.5t-101 302.5q0 233 136 355t382 122q91 0 170 -22v-105q-86 0 -152.5 -13.5t-121.5 -44t-85 -86t-32 -134.5h23q41 53 90.5 77.5t122.5 24.5zM1528 100q94 0 94 142q0 74 -22 103.5t-62 29.5q-54 0 -106 -49
v-21q0 -116 23.5 -160.5t72.5 -44.5z" />
    <glyph glyph-name="uni215A" unicode="&#x215a;" horiz-adv-x="2119" 
d="M1530 1366l20 -45q-274 -408 -444 -670q-72 -113 -215.5 -363t-196.5 -337l-129 41l-22 47q353 524 450 674q71 111 211.5 357.5t196.5 338.5zM451 1067q146 0 237.5 -70.5t91.5 -195.5q0 -137 -114.5 -218t-307.5 -81q-143 0 -222 44t-79 130q0 75 58 112h186l18 -159
q28 -4 43 -4q56 0 84.5 24.5t28.5 89.5q0 81 -50 120.5t-165 45.5l-141 10l18 451l150 23q103 -35 190 -35q115 0 236 37l28 -88q-77 -134 -266 -134q-104 0 -211 39l-22 -174q115 33 209 33zM1784 559q132 0 202 -74t70 -188q0 -145 -107.5 -233.5t-293.5 -88.5
q-202 0 -303 107.5t-101 302.5q0 233 136 355t382 122q91 0 170 -22v-105q-86 0 -152.5 -13.5t-121.5 -44t-85 -86t-32 -134.5h23q41 53 90.5 77.5t122.5 24.5zM1655 100q94 0 94 142q0 74 -22 103.5t-62 29.5q-54 0 -106 -49v-21q0 -116 23.5 -160.5t72.5 -44.5z" />
    <glyph glyph-name="oneeighth" unicode="&#x215b;" horiz-adv-x="2033" 
d="M1403 1366l20 -45q-274 -408 -444 -670q-72 -113 -215.5 -363t-196.5 -337l-129 41l-22 47q353 524 450 674q71 111 211.5 357.5t196.5 338.5zM621 633v-107h-572v107l152 31v473q-68 -9 -152 -9v136q72 3 154.5 36t128.5 89l145 -11v-733zM1763 485v-24
q99 -42 146 -92.5t47 -135.5q0 -89 -52 -148t-137.5 -84.5t-203.5 -25.5q-182 0 -277.5 60.5t-95.5 173.5q0 80 46 124t124 68v23q-150 77 -150 207q0 63 31 109t86 72t120.5 38t143.5 12q159 0 251.5 -50.5t92.5 -152.5q0 -42 -15 -73.5t-42.5 -50.5t-53.5 -30t-61 -20z
M1593 748q-38 0 -66 -21t-28 -65q0 -39 25 -63t86 -48l30 -12q39 49 39 106q0 103 -86 103zM1550 92q54 0 84.5 30t30.5 81q0 48 -30.5 75.5t-102.5 51.5l-45 16q-41 -64 -41 -129q0 -125 104 -125z" />
    <glyph glyph-name="threeeighths" unicode="&#x215c;" horiz-adv-x="2183" 
d="M1552 1366l21 -45q-303 -451 -445 -670q-72 -113 -214.5 -362t-196.5 -338l-129 41l-23 47q374 555 451 674q71 110 210.5 357t196.5 339zM559 969v-25q106 -15 164.5 -65t58.5 -134q0 -117 -110.5 -180t-292.5 -63q-156 0 -249 46t-93 134q0 64 51 115h180l23 -168
q40 -4 59 -4q65 0 96 28.5t31 98.5q0 71 -35.5 102t-128.5 31h-39v123h91q40 35 58.5 68t18.5 87q0 57 -22.5 80t-69.5 23q-17 0 -45 -4l-20 -166h-181q-53 49 -53 104q0 90 96.5 138t255.5 48q160 0 252.5 -55t92.5 -172q0 -81 -47.5 -124.5t-141.5 -65.5zM1913 485v-24
q99 -42 145.5 -92t46.5 -136q0 -89 -52 -148t-137.5 -84.5t-203.5 -25.5q-182 0 -277.5 60.5t-95.5 173.5q0 80 46 124t124 68v23q-149 76 -149 207q0 63 31 109t86 72t120.5 38t143.5 12q159 0 251.5 -50.5t92.5 -152.5q0 -42 -15 -73.5t-42.5 -50.5t-53.5 -30t-61 -20z
M1743 748q-38 0 -66 -21t-28 -65q0 -39 24.5 -63t85.5 -48l31 -12q39 49 39 106q0 103 -86 103zM1700 92q54 0 84.5 30t30.5 81q0 48 -31 75.5t-103 51.5l-45 16q-41 -64 -41 -129q0 -125 105 -125z" />
    <glyph glyph-name="fiveeighths" unicode="&#x215d;" horiz-adv-x="2160" 
d="M1530 1366l20 -45q-274 -408 -444 -670q-72 -113 -215.5 -363t-196.5 -337l-129 41l-22 47q353 524 450 674q71 111 211.5 357.5t196.5 338.5zM451 1067q146 0 237.5 -70.5t91.5 -195.5q0 -137 -114.5 -218t-307.5 -81q-143 0 -222 44t-79 130q0 75 58 112h186l18 -159
q28 -4 43 -4q56 0 84.5 24.5t28.5 89.5q0 81 -50 120.5t-165 45.5l-141 10l18 451l150 23q103 -35 190 -35q115 0 236 37l28 -88q-77 -134 -266 -134q-104 0 -211 39l-22 -174q115 33 209 33zM1890 485v-24q99 -42 146 -92.5t47 -135.5q0 -89 -52 -148t-137.5 -84.5
t-203.5 -25.5q-182 0 -277.5 60.5t-95.5 173.5q0 80 46 124t124 68v23q-150 77 -150 207q0 63 31 109t86 72t120.5 38t143.5 12q159 0 251.5 -50.5t92.5 -152.5q0 -42 -15 -73.5t-42.5 -50.5t-53.5 -30t-61 -20zM1720 748q-38 0 -66 -21t-28 -65q0 -39 25 -63t86 -48l30 -12
q39 49 39 106q0 103 -86 103zM1677 92q54 0 84.5 30t30.5 81q0 48 -30.5 75.5t-102.5 51.5l-45 16q-41 -64 -41 -129q0 -125 104 -125z" />
    <glyph glyph-name="seveneighths" unicode="&#x215e;" horiz-adv-x="1939" 
d="M1309 1366l20 -45q-274 -408 -444 -670q-72 -113 -215.5 -363t-196.5 -337l-129 41l-22 47q353 524 450 674q71 111 211.5 357.5t196.5 338.5zM743 1362l13 -111q-240 -301 -307 -512l32 -207l-188 -45q-77 18 -114.5 67.5t-37.5 111.5q0 57 29 115.5t91 123.5t131 124
t175 140l-8 21l-350 -23l-19 -129l-137 6q-16 71 -16 156q0 90 20 158v4h686zM1669 485v-24q99 -42 146 -92.5t47 -135.5q0 -67 -29.5 -117.5t-83 -81t-124 -45t-157.5 -14.5q-182 0 -277 60.5t-95 173.5q0 80 46 124t124 68v23q-150 77 -150 207q0 63 31 109t86 72
t120.5 38t143.5 12q159 0 251.5 -50.5t92.5 -152.5q0 -42 -15 -73.5t-42.5 -50.5t-53.5 -30t-61 -20zM1499 748q-38 0 -66 -21t-28 -65q0 -39 25 -63t86 -48l30 -12q39 49 39 106q0 103 -86 103zM1456 92q54 0 84.5 30t30.5 81q0 48 -30.5 75.5t-102.5 51.5l-45 16
q-41 -64 -41 -129q0 -125 104 -125z" />
    <glyph glyph-name="uni215F" unicode="&#x215f;" horiz-adv-x="1196" 
d="M1403 1366l20 -45q-274 -408 -444 -670q-72 -113 -215.5 -363t-196.5 -337l-129 41l-22 47q353 524 450 674q71 111 211.5 357.5t196.5 338.5zM621 633v-107h-572v107l152 31v473q-68 -9 -152 -9v136q72 3 154.5 36t128.5 89l145 -11v-733z" />
    <glyph glyph-name="uni2189" unicode="&#x2189;" horiz-adv-x="2203" 
d="M1579 1366l20 -45q-274 -408 -444 -670q-72 -113 -215.5 -363t-196.5 -337l-129 41l-22 47q353 524 450 674q71 111 211.5 357.5t196.5 338.5zM506 1389q192 0 289.5 -114t97.5 -308q0 -221 -118 -343t-314 -122q-193 0 -291 116t-98 310q0 221 118.5 341t315.5 120z
M485 1266q-41 0 -62.5 -27t-30.5 -93.5t-9 -197.5q0 -133 9 -201t30.5 -95t62.5 -27q40 0 61 27t30.5 95.5t9.5 200.5q0 130 -9.5 197.5t-30.5 94t-61 26.5zM1907 442v-24q106 -15 164.5 -65t58.5 -134q0 -117 -111 -180.5t-293 -63.5q-156 0 -249 46.5t-93 134.5
q0 62 52 114h180l22 -168q40 -4 60 -4q65 0 96 28.5t31 98.5q0 71 -35.5 102t-128.5 31h-39v123h90q40 35 59 68.5t19 87.5q0 57 -22 79.5t-70 22.5q-17 0 -45 -4l-21 -166h-180q-53 49 -53 105q0 90 96.5 138t255.5 48q160 0 252 -55t92 -172q0 -81 -47.5 -125t-140.5 -66z
" />
    <glyph glyph-name="arrowleft" unicode="&#x2190;" horiz-adv-x="1810" 
d="M1098 711h635v-191h-635q-77 0 -155.5 7t-152.5 17.5t-102 12.5q5 -63 26 -138.5t37 -117t56 -137.5l-41 -29q-378 222 -705 455v51q359 256 705 459l41 -31q-37 -90 -55 -136.5t-38.5 -121.5t-25.5 -137q28 2 102 12.5t152.5 17.5t155.5 7z" />
    <glyph glyph-name="arrowup" unicode="&#x2191;" horiz-adv-x="1159" 
d="M1071 795l-29 -41q-88 35 -138.5 53.5t-125.5 37.5t-139 23q1 -8 14 -95.5t19 -156.5t6 -145v-471h-197v471q0 76 7 149.5t18 147.5t14 100q-65 -4 -140 -23t-124 -37t-139 -54l-29 41q205 338 465 688h53q260 -350 465 -688z" />
    <glyph glyph-name="arrowright" unicode="&#x2192;" horiz-adv-x="1810" 
d="M78 711h635q77 0 155 -7t152 -17.5t102 -12.5q-5 62 -25 136t-38.5 123t-54.5 136l40 31q346 -203 705 -459v-51q-327 -233 -705 -455l-40 29q38 92 55 136.5t37.5 119t25.5 137.5q-28 -2 -102 -12.5t-152 -17.5t-155 -7h-635v191z" />
    <glyph glyph-name="arrowdown" unicode="&#x2193;" horiz-adv-x="1159" 
d="M1042 608l29 -41q-205 -338 -465 -688h-53q-260 350 -465 688l29 41q90 -36 139 -54t124 -37t140 -23q-3 26 -14 100t-18 147.5t-7 149.5v471h197v-471q0 -76 -6 -145t-19 -156.5t-14 -95.5q64 4 139 23t125.5 37.5t138.5 53.5z" />
    <glyph glyph-name="arrowboth" unicode="&#x2194;" horiz-adv-x="2226" 
d="M1419 1069l43 31q335 -197 703 -459v-51q-336 -239 -703 -455l-43 29q3 7 16 39t17 41t15.5 37.5t15.5 40t13 37.5t13 40.5t10 37.5t9 40.5t6 38.5t4 41q-28 -3 -102.5 -13.5t-145 -17t-139.5 -6.5h-76q-77 0 -147.5 6.5t-141.5 17t-98 13.5q1 -20 4 -41t6 -38.5t9 -40.5
t10 -37.5t13 -40.5t13 -37.5t15.5 -40t15.5 -37.5t17 -41t16 -39l-43 -29q-390 229 -703 455v51q343 247 703 459l43 -31q-32 -77 -42.5 -104t-32.5 -88.5t-31.5 -108.5t-12.5 -94q27 3 98 13.5t141.5 17t147.5 6.5h76q69 0 139.5 -6.5t145 -17t102.5 -13.5q-3 47 -12.5 94
t-31.5 108.5t-32.5 88.5t-42.5 104z" />
    <glyph glyph-name="arrowupdn" unicode="&#x2195;" horiz-adv-x="1161" 
d="M643 426q62 4 138 24t122.5 37t138.5 54l31 -39q-49 -81 -113.5 -175t-102 -146t-132 -178t-119.5 -159h-53q-25 34 -97 130t-104 139.5t-86 119t-96 139.5t-82 130l31 39q188 -74 266 -93q70 -18 133 -22q-4 26 -14.5 79t-15.5 92.5t-5 82.5q0 34 4 69.5t8.5 59
t12.5 63.5t12 62q-25 -1 -52.5 -5.5t-47.5 -8t-52.5 -13t-47 -13.5t-52 -18t-47 -17.5t-53 -20.5t-49.5 -19l-29 41q40 66 82 130t96 139.5t86 119t104 139.5t97 130h53q25 -34 97 -130t104 -139.5t86 -119t96 -139.5t82 -130l-29 -41q-99 39 -140.5 54.5t-119.5 36
t-141 24.5q4 -22 12 -62t12.5 -63.5t8.5 -59t4 -69.5q0 -43 -5 -81t-17 -96t-15 -77z" />
    <glyph glyph-name="uni2196" unicode="&#x2196;" horiz-adv-x="1366" 
d="M80 1139l37 37q436 -65 827 -166l8 -49q-98 -40 -139 -57.5t-111 -56.5t-118 -81q17 -13 64 -47.5t79 -59t81 -66t93 -83.5l420 -399l-137 -138l-422 402q-54 53 -103 110.5t-93.5 115t-65.5 81.5q-42 -46 -81 -112t-62 -116t-58 -135l-51 11q-87 326 -168 809z" />
    <glyph glyph-name="uni2197" unicode="&#x2197;" horiz-adv-x="1366" 
d="M1245 1176l37 -37q-81 -483 -168 -809l-51 -11q-35 85 -58 135t-62 116t-81 112q-21 -24 -65.5 -81.5t-93.5 -115t-103 -110.5l-422 -402l-137 138l420 399q44 42 93 83.5t81 66t79 59t64 47.5q-48 42 -118 81t-111 56.5t-139 57.5l8 49q391 101 827 166z" />
    <glyph glyph-name="uni2198" unicode="&#x2198;" horiz-adv-x="1366" 
d="M1282 -4l-37 -37q-436 65 -827 166l-8 49q98 40 139 57.5t111 56.5t118 81q-17 13 -64 47.5t-79 59t-81 66t-93 83.5l-420 399l137 137l422 -401q54 -53 103 -110.5t93.5 -115t65.5 -81.5q60 66 104 150t97 212l51 -10q87 -326 168 -809z" />
    <glyph glyph-name="uni2199" unicode="&#x2199;" horiz-adv-x="1366" 
d="M117 -41l-37 37q81 483 168 809l51 10q35 -84 58 -134.5t62 -116t81 -111.5q21 24 65.5 81.5t93.5 115t103 110.5l422 401l137 -137l-420 -399q-44 -42 -93 -83.5t-81 -66t-79 -59t-64 -47.5q48 -42 118 -81t111 -56.5t139 -57.5l-8 -49q-391 -101 -827 -166z" />
    <glyph glyph-name="uni21A9" unicode="&#x21a9;" horiz-adv-x="1798" 
d="M764 958l43 -28q-32 -77 -42.5 -104t-32.5 -88.5t-31.5 -108.5t-12.5 -94q10 1 100 13.5t160.5 18.5t149.5 6h151q106 0 165 57t59 146q0 87 -58.5 145t-159.5 58h-219v190h224q197 0 320.5 -113.5t123.5 -279.5q0 -168 -126.5 -281.5t-338.5 -113.5h-141q-79 0 -150.5 6
t-158 18.5t-101.5 14.5q4 -64 25.5 -141t36.5 -115t57 -137l-43 -29q-335 194 -703 453v53q376 265 703 454z" />
    <glyph glyph-name="uni21AA" unicode="&#x21aa;" horiz-adv-x="1798" 
d="M991 930l43 28q327 -189 703 -454v-53q-368 -259 -703 -453l-43 29q75 178 95 252t24 141q-15 -2 -101.5 -14.5t-158 -18.5t-150.5 -6h-141q-212 0 -338.5 113.5t-126.5 281.5q0 166 124 279.5t321 113.5h223v-190h-219q-101 0 -159 -58t-58 -145q0 -89 59 -146t164 -57
h151q79 0 149.5 -6t160.5 -18.5t100 -13.5q-3 47 -12.5 94t-31.5 108.5t-32.5 88.5t-42.5 104z" />
    <glyph glyph-name="uni21BB" unicode="&#x21bb;" horiz-adv-x="1413" 
d="M924 887l86 157q136 -45 222.5 -175.5t86.5 -299.5q0 -122 -47.5 -232t-128.5 -190t-194 -127t-240 -47q-124 0 -237 46t-195.5 124.5t-131.5 188.5t-49 233q0 155 75 267t208 176q-15 15 -30.5 29.5t-37 30t-34.5 25t-41 26.5t-37 23t-43 25.5t-39 22.5l14 49
q369 34 672 37l35 -39q-113 -349 -228 -621l-51 -2q-36 189 -100 301q-79 -74 -114.5 -153.5t-35.5 -177.5q0 -131 56.5 -227t145.5 -141.5t198 -45.5q173 0 286 113t113 288q0 203 -184 316z" />
    <glyph glyph-name="partialdiff" unicode="&#x2202;" horiz-adv-x="1294" 
d="M686 1540q282 0 413.5 -163t131.5 -482q0 -83 -8 -165.5t-30 -175.5t-55.5 -175t-88 -158t-125 -130.5t-170 -87t-217.5 -32.5q-80 0 -149 14t-129.5 46t-103.5 80t-67.5 119.5t-24.5 160.5q0 143 57.5 264t172 198t264.5 77q164 0 258 -109h27q-1 144 -16.5 239
t-52.5 159.5t-98 92t-155 27.5q-96 0 -190 -20l-21 123q153 98 377 98zM578 121q235 0 262 555q-75 59 -168 59q-107 0 -164 -91.5t-57 -303.5q0 -113 28.5 -166t98.5 -53z" />
    <glyph glyph-name="emptyset" unicode="&#x2205;" horiz-adv-x="1462" 
d="M1300 1309l-141 -209q107 -89 167 -215.5t60 -272.5q0 -181 -92 -328.5t-244 -229t-329 -81.5q-151 0 -285 64l-145 -215l-109 43l-22 45l143 213q-107 89 -167 215.5t-60 271.5q0 181 92 328t244 228t329 81q150 0 281 -61l143 213l113 -43zM336 608q0 -171 102 -284
l451 665q-76 29 -154 29q-168 0 -283.5 -111.5t-115.5 -298.5zM727 203q168 0 284.5 112t116.5 299q0 176 -106 285l-453 -666q73 -30 158 -30z" />
    <glyph glyph-name="Delta" unicode="&#x2206;" horiz-adv-x="1323" 
d="M1305 49l-19 -51h-1249l-19 51l521 1309l188 31l53 -17zM289 258h616l-305 780z" />
    <glyph glyph-name="product" unicode="&#x220f;" horiz-adv-x="1583" 
d="M1532 1362v-127l-137 -47l-27 2v-1321q-136 -34 -338 -37l-47 47v1317h-381v-1327q-138 -34 -338 -37l-47 47v1331l-164 25v127h1479z" />
    <glyph glyph-name="summation" unicode="&#x2211;" horiz-adv-x="1224" 
d="M909 354l221 -12q13 -89 13 -180q0 -143 -31 -305h-1034l-21 163l443 478l-443 737l15 127h1046q12 -59 12 -154q0 -116 -24 -221h-205l-57 213l-324 19l-12 -19q75 -93 162 -239l178 -285v-53l-246 -273q-61 -66 -223 -219l10 -20l451 28z" />
    <glyph glyph-name="minus" unicode="&#x2212;" 
d="M1161 520h-1061v191h1061v-191z" />
    <glyph glyph-name="uni2219" unicode="&#x2219;" 
d="M627 950q163 0 253.5 -89.5t90.5 -246.5q0 -158 -90.5 -248t-253.5 -90q-162 0 -251 90t-89 248q0 157 89.5 246.5t250.5 89.5z" />
    <glyph glyph-name="radical" unicode="&#x221a;" horiz-adv-x="1290" 
d="M1231 1577l39 -35q-216 -701 -561 -1671l-258 -43l-60 16q-129 306 -215 531l-168 18v123h475h4q62 -200 127 -364h25q75 219 200 644t218 781h174z" />
    <glyph glyph-name="infinity" unicode="&#x221e;" horiz-adv-x="1902" 
d="M1487 932q100 0 174.5 -33t114.5 -87.5t58.5 -114.5t18.5 -126q0 -161 -104 -269.5t-281 -108.5q-175 0 -358 129l-205 143h-24q-84 -120 -201.5 -189t-263.5 -69q-100 0 -174.5 33t-114.5 87.5t-59 115t-19 126.5q0 160 105 268.5t282 108.5t357 -129l204 -143h25
q183 258 465 258zM1479 414q85 0 137.5 45.5t52.5 130.5q0 82 -51.5 130t-151.5 48q-173 0 -362 -168l108 -78q79 -55 141 -81.5t126 -26.5zM438 371q172 0 361 168l-109 77q-84 59 -142.5 84t-117.5 25q-87 0 -142 -46t-55 -132q0 -80 53 -128t152 -48z" />
    <glyph glyph-name="integral" unicode="&#x222b;" horiz-adv-x="821" 
d="M649 1542q81 0 172 -16v-152q-43 2 -114 2q-93 0 -130.5 -49t-37.5 -160q0 -117 50 -529t50 -523q-3 -422 -473 -422q-83 0 -166 14v154q41 -4 119 -4q85 2 125.5 44.5t40.5 155.5q0 98 -51 521t-50 546q0 217 116.5 317.5t348.5 100.5z" />
    <glyph glyph-name="approxequal" unicode="&#x2248;" 
d="M1044 528l119 -67q-84 -314 -286 -314q-67 0 -170 46q-130 53 -342 169l-150 -180l-119 68q89 313 287 313q68 0 170 -47q121 -49 342 -168zM1044 995l119 -67q-84 -314 -286 -314q-69 0 -170 45q-122 50 -342 170l-150 -180l-119 68q89 313 287 313q68 0 170 -47
q121 -49 342 -168z" />
    <glyph glyph-name="notequal" unicode="&#x2260;" 
d="M795 725l-133 -219h505v-191h-620l-172 -282l-113 43l-24 39l120 200h-252v191h367l131 219h-498v190h613l168 279l117 -43l24 -41l-119 -195h258v-190h-372z" />
    <glyph glyph-name="lessequal" unicode="&#x2264;" 
d="M1049 928l-562 -215v-27l562 -215l-58 -182l-805 274v273l805 272zM1061 0h-903v190h903v-190z" />
    <glyph glyph-name="greaterequal" unicode="&#x2265;" 
d="M1073 836v-273l-805 -274l-57 182l559 215v27l-559 215l57 180zM1100 0h-903v190h903v-190z" />
    <glyph glyph-name="dotmath" unicode="&#x22c5;" 
d="M651 811q90 0 140 -16q36 -57 36 -154q0 -120 -61 -207h-295l-41 334q101 43 221 43z" />
    <glyph glyph-name="uni24EA" unicode="&#x24ea;" horiz-adv-x="1599" 
d="M801 1389q197 0 365 -95t266 -258.5t98 -355.5t-98 -355t-266 -257.5t-365 -94.5q-148 0 -283.5 56t-233.5 150.5t-156 225.5t-58 275t58 275.5t156 226.5t233.5 151t283.5 56zM801 1249q-162 0 -295 -78t-207 -208.5t-74 -282.5t74 -281.5t207 -206.5t295 -77
q161 0 293.5 77t206 206.5t73.5 281.5t-73.5 282.5t-206 208.5t-293.5 78zM823 1083q180 0 270.5 -103.5t90.5 -279.5q0 -201 -108.5 -311t-295.5 -110q-179 0 -269.5 104.5t-90.5 282.5q0 201 107.5 309t295.5 108zM801 971q-60 0 -82.5 -64.5t-22.5 -222.5
q0 -161 22.5 -227t82.5 -66t82 66t22 227q0 158 -22 222.5t-82 64.5z" />
    <glyph glyph-name="uni24FF" unicode="&#x24ff;" horiz-adv-x="1599" 
d="M801 1389q197 0 365 -95t266 -258.5t98 -355.5t-98 -355t-266 -257.5t-365 -94.5q-148 0 -283.5 56t-233.5 150.5t-156 225.5t-58 275t58 275.5t156 226.5t233.5 151t283.5 56zM823 1083q-188 0 -295.5 -108t-107.5 -309q0 -178 90.5 -282.5t269.5 -104.5
q187 0 295.5 110t108.5 311q0 176 -90.5 279.5t-270.5 103.5zM801 971q60 0 82 -64.5t22 -222.5q0 -161 -22 -227t-82 -66t-82.5 66t-22.5 227q0 158 22.5 222.5t82.5 64.5z" />
    <glyph glyph-name="filledbox" unicode="&#x25a0;" horiz-adv-x="1714" 
d="M1501 57h-1286v1250h1286v-1250z" />
    <glyph glyph-name="H22073" unicode="&#x25a1;" horiz-adv-x="1714" 
d="M1501 57h-1286v1250h1286v-1250zM440 1100v-836h838v836h-838z" />
    <glyph glyph-name="H18543" unicode="&#x25aa;" horiz-adv-x="1148" 
d="M977 174h-803v778h803v-778z" />
    <glyph glyph-name="H18551" unicode="&#x25ab;" horiz-adv-x="1148" 
d="M977 174h-803v778h803v-778zM387 756v-385h375v385h-375z" />
    <glyph glyph-name="triagup" unicode="&#x25b2;" horiz-adv-x="1656" 
d="M1593 162l-16 -51h-1497l-17 51l742 1235h51z" />
    <glyph glyph-name="uni25B3" unicode="&#x25b3;" horiz-adv-x="1656" 
d="M1593 162l-16 -51h-1497l-17 51l742 1235h51zM827 1067l-460 -776h923z" />
    <glyph glyph-name="uni25B4" unicode="&#x25b4;" horiz-adv-x="1275" 
d="M1212 205l-16 -51h-1116l-17 51l549 856h54z" />
    <glyph glyph-name="uni25B5" unicode="&#x25b5;" horiz-adv-x="1275" 
d="M1212 205l-16 -51h-1116l-17 51l549 856h54zM639 772l-285 -448h568z" />
    <glyph glyph-name="uni25B6" unicode="&#x25b6;" horiz-adv-x="1431" 
d="M1368 705v-52l-1104 -680l-49 17v1382l49 17z" />
    <glyph glyph-name="uni25B7" unicode="&#x25b7;" horiz-adv-x="1429" 
d="M1368 705v-52l-1104 -680l-49 17v1382l49 17zM414 1079v-796l647 397z" />
    <glyph glyph-name="uni25B8" unicode="&#x25b8;" horiz-adv-x="1132" 
d="M1071 627v-54l-848 -530l-49 16v1084l49 16z" />
    <glyph glyph-name="uni25B9" unicode="&#x25b9;" horiz-adv-x="1132" 
d="M1071 627v-54l-848 -530l-49 16v1084l49 16zM367 858v-514l409 258z" />
    <glyph glyph-name="triagdn" unicode="&#x25bc;" horiz-adv-x="1656" 
d="M1577 1235l16 -51l-737 -1235h-51l-742 1235l17 51h1497z" />
    <glyph glyph-name="uni25BD" unicode="&#x25bd;" horiz-adv-x="1656" 
d="M1577 1239l16 -51l-737 -1235h-51l-742 1235l17 51h1497zM367 1059l460 -776l463 776h-923z" />
    <glyph glyph-name="uni25BE" unicode="&#x25be;" horiz-adv-x="1275" 
d="M1196 1042l16 -51l-546 -856h-54l-549 856l17 51h1116z" />
    <glyph glyph-name="uni25BF" unicode="&#x25bf;" horiz-adv-x="1275" 
d="M1196 1040l16 -51l-546 -856h-54l-549 856l17 51h1116zM354 870l285 -448l283 448h-568z" />
    <glyph glyph-name="uni25C0" unicode="&#x25c0;" horiz-adv-x="1431" 
d="M63 653v52l1104 684l50 -17v-1382l-50 -17z" />
    <glyph glyph-name="uni25C1" unicode="&#x25c1;" horiz-adv-x="1437" 
d="M61 653v52l1104 684l49 -17v-1382l-49 -17zM1016 283v796l-647 -399z" />
    <glyph glyph-name="uni25C2" unicode="&#x25c2;" horiz-adv-x="1132" 
d="M61 573v54l848 532l49 -16v-1084l-49 -16z" />
    <glyph glyph-name="uni25C3" unicode="&#x25c3;" horiz-adv-x="1132" 
d="M61 573v54l848 532l49 -16v-1084l-49 -16zM766 344v514l-410 -256z" />
    <glyph glyph-name="lozenge" unicode="&#x25ca;" horiz-adv-x="1288" 
d="M1227 700v-51l-559 -692h-52l-555 688v51l560 693h53zM623 1022l-263 -324l316 -385l260 320z" />
    <glyph glyph-name="circle" unicode="&#x25cb;" horiz-adv-x="1599" 
d="M801 1389q196 0 364 -95t266.5 -258t98.5 -354t-98.5 -354.5t-266.5 -259t-364 -95.5q-197 0 -365.5 95t-267 258.5t-98.5 355.5q0 191 98.5 354t267 258t365.5 95zM801 1190q-219 0 -368.5 -148.5t-149.5 -359.5q0 -139 67.5 -255.5t186.5 -184.5t264 -68
q146 0 264.5 68t185 184.5t66.5 255.5q0 138 -66.5 254.5t-185.5 185t-264 68.5z" />
    <glyph glyph-name="H18533" unicode="&#x25cf;" horiz-adv-x="1599" 
d="M805 1389q145 0 279 -56t231.5 -150.5t156 -224t58.5 -270.5q0 -142 -58.5 -274t-156 -228.5t-232 -154.5t-278.5 -58q-145 0 -280.5 58t-235 154t-159.5 228t-60 273q0 113 38 220.5t107 194t160 151.5t202 101t228 36z" />
    <glyph glyph-name="uni2605" unicode="&#x2605;" horiz-adv-x="1638" 
d="M1034 883l506 -25l16 -51l-405 -313l137 -488l-43 -33l-428 283l-440 -283l-41 33l147 494l-401 307l16 51l510 35l183 485h53z" />
    <glyph glyph-name="uni2606" unicode="&#x2606;" horiz-adv-x="1638" 
d="M1034 883l506 -25l16 -51l-405 -313l137 -488l-43 -33l-428 283l-440 -283l-41 33l147 494l-401 307l16 51l510 35l183 485h53zM745 700l-196 -10l156 -119l-56 -186l166 109l162 -109l-53 186l157 119l-196 10l-70 185z" />
    <glyph glyph-name="uni261A" unicode="&#x261a;" horiz-adv-x="2318" 
d="M1874 207v647l27 170l370 -20v-1004h-370zM952 1024h250l588 -164v-659q-111 -133 -311 -133q-89 0 -203 24q-138 -131 -213 -176q-96 0 -165.5 56t-78.5 134q-170 66 -170 195v2q-133 64 -133 182q0 21 4 37l9.5 9.5t38.5 27.5t77 44t131 57.5t193 68.5l-8 25
q-628 -97 -783 -97q-32 14 -54.5 27.5t-48 36t-39 55t-13.5 72.5q0 14 1.5 26.5t6 29.5t6.5 24t10 30.5t10 28.5q525 37 895 37zM354 954l-45 7q-16 -61 -61 -78t-152 -17l-2 -26q132 -40 196 -1t64 115zM1069 512l-12 25q-221 -57 -346 -177l55 -45q18 20 40.5 39
t60.5 42.5t56.5 34.5t75 42t70.5 39zM1194 309l-14 25q-198 -49 -308 -166l60 -39q67 77 262 180z" />
    <glyph glyph-name="uni261B" unicode="&#x261b;" horiz-adv-x="2318" 
d="M444 854v-647l-26 -207h-371v1004l371 20zM1116 1024h250q165 0 388.5 -9t365.5 -19l141 -9q3 -9 10 -29t10 -29.5t7.5 -25t6 -28.5t1.5 -27q0 -40 -13.5 -72.5t-39 -55t-48.5 -36t-55 -27.5q-154 0 -782 97l-8 -25q107 -34 192.5 -68t131.5 -58t76 -43t39 -28l9 -10
q4 -16 4 -37q0 -118 -133 -182v-2q0 -129 -170 -195q-9 -78 -78.5 -134t-165.5 -56q-75 45 -213 176q-114 -24 -202 -24q-201 0 -312 133v659zM2009 961l-45 -7q0 -76 64 -115t196 1l-2 26q-107 0 -152 17t-61 78zM1262 537l-13 -25q14 -8 70.5 -39t75 -42t56.5 -34.5
t60.5 -42.5t40.5 -39l56 45q-125 120 -346 177zM1139 334l-15 -25q195 -103 262 -180l60 39q-110 117 -307 166z" />
    <glyph glyph-name="uni261C" unicode="&#x261c;" horiz-adv-x="2318" 
d="M61 1032q489 23 891 23h250l627 -201l20 201l422 -23v-139h-250q-12 -199 -12 -381q0 -150 12 -350l250 -39v-123h-422l-22 221h-25q-114 -153 -319 -153q-110 0 -207 34q-44 -62 -101.5 -112t-109.5 -74q-123 0 -208 60t-85 155v6q-168 52 -168 180v15
q-64 25 -99.5 64.5t-35.5 86.5t6 70q32 23 116 60t206 71l-6 23q-79 -17 -186 -40t-159 -34.5t-112.5 -23.5t-96 -16.5t-61.5 -4.5q-153 79 -153 252q0 97 38 192zM238 758q73 6 222.5 21t269 23.5t224.5 8.5l31 -160q-227 -90 -323 -170q0 -28 22 -57q136 86 346 141
l53 -106q-191 -88 -284 -170q0 -34 26 -60q136 99 305 154l58 -107q-98 -60 -147.5 -95.5t-79.5 -71.5q0 -45 36 -74q50 52 131.5 117.5t161.5 107.5q114 -27 191 -27q211 0 348 166v322l-637 178h-193q-522 -3 -780 -25q-6 -12 -6 -38q0 -38 25 -78z" />
    <glyph glyph-name="uni261D" unicode="&#x261d;" horiz-adv-x="1357" 
d="M1323 549q-24 -52 -76 -106.5t-119 -94.5q39 -86 39 -184q0 -48 -10 -84.5t-33.5 -66.5t-48 -51t-67.5 -52v-23l227 -22v-277h-125l-39 129q-223 13 -362 13q-171 0 -394 -13v-129h-141l-24 277l174 20l-174 531v241q0 366 24 822q92 39 199 39q177 0 256 -150
q0 -30 -9.5 -80t-23 -103.5t-41 -165.5t-51.5 -216l24 -6q44 133 85 216t65 109q16 6 61 6q47 0 89 -35.5t67 -95.5h14q134 0 185 -161h8q98 0 159.5 -83.5t61.5 -203.5zM969 328l2 2q48 81 120 166t119 125q-42 45 -86 45q-11 -9 -22 -19.5t-23.5 -26t-21.5 -27.5
t-24.5 -35.5t-24 -36.5t-28.5 -44.5t-30 -46.5l-106 57q57 172 170 304q-41 32 -76 32q-19 -20 -36 -43t-38.5 -59.5t-31 -53t-38 -71t-34.5 -66.5l-107 54q56 195 156 342q-35 28 -68 28q-28 -31 -64 -94t-54.5 -102.5t-59.5 -130.5l-162 28q0 99 24.5 353t29.5 321
q-42 23 -80 23q-27 0 -39 -6q-27 -337 -27 -736v-184l152 -541h364q96 76 134 136.5t38 146.5q0 22 -3 45t-6 37.5t-9.5 40t-9.5 37.5z" />
    <glyph glyph-name="uni261E" unicode="&#x261e;" horiz-adv-x="2318" 
d="M2257 1032q39 -97 39 -192q0 -173 -154 -252q-26 0 -61.5 4.5t-96 16.5t-112.5 23.5t-158 34.5t-186 40l-6 -23q122 -34 205.5 -70.5t115.5 -60.5q6 -23 6 -70t-35.5 -86.5t-99.5 -64.5v-15q0 -128 -168 -180v-6q0 -95 -85 -155t-208 -60q-52 24 -109.5 74t-101.5 112
q-97 -34 -206 -34q-206 0 -320 153h-24l-23 -221h-422v123l250 39q12 200 12 350q0 181 -12 381h-250v139l422 23l20 -201l627 201h250q402 0 891 -23zM2081 758q24 39 24 78q0 26 -6 38q-258 22 -780 25h-193l-637 -178v-322q137 -166 349 -166q76 0 190 27
q80 -42 161.5 -107.5t131.5 -117.5q37 30 37 74q-30 35 -79.5 70.5t-148.5 96.5l58 107q169 -55 305 -154q27 27 27 60q-92 81 -285 170l53 106q210 -55 346 -141q23 31 23 57q-95 79 -324 170l31 160q105 0 224.5 -8.5t269.5 -23.5t223 -21z" />
    <glyph glyph-name="uni261F" unicode="&#x261f;" horiz-adv-x="1357" 
d="M1323 532q0 -120 -61.5 -203t-159.5 -83h-8q-51 -162 -185 -162h-14q-25 -60 -67 -95.5t-89 -35.5q-45 0 -61 6q-23 26 -64.5 109t-85.5 217l-24 -6q24 -104 51.5 -216t41 -165.5t23 -104t9.5 -80.5q-79 -149 -256 -149q-107 0 -199 39q-24 456 -24 821v242l174 530
l-174 21l24 276h141v-129q205 -12 394 -12q157 0 362 12l39 129h125v-276l-227 -23v-23q86 -61 122.5 -112t36.5 -141q0 -99 -39 -185q67 -40 119 -94.5t76 -106.5zM971 752l-2 2q3 12 9 37t9.5 39.5t6.5 37.5t3 45q0 86 -38 146.5t-134 136.5h-364l-152 -541v-184
q0 -398 27 -735q12 -6 39 -6q40 0 80 22q-5 67 -29.5 321t-24.5 353l162 29q93 -205 136 -272q22 -34 42 -56q32 0 68 29q-100 147 -156 342l107 53q9 -18 29.5 -57t30.5 -57l27.5 -49.5t29.5 -50t28.5 -40.5t32.5 -39q34 0 76 33q-113 132 -170 303l106 57q8 -13 26 -41
t25.5 -39.5t22 -33t22 -32t19.5 -26.5t20.5 -25.5t18.5 -19.5t20 -18q44 0 86 45q-47 40 -119 125t-120 166z" />
    <glyph glyph-name="uni2661" unicode="&#x2661;" horiz-adv-x="1607" 
d="M1174 1053q158 0 264 -104t106 -279q0 -88 -30 -162.5t-81.5 -129.5t-115 -101.5t-136 -88t-138.5 -79.5t-128.5 -85.5t-99.5 -97.5h-22q-37 50 -99.5 97.5t-128.5 85.5t-138.5 79.5t-136 88t-115.5 101.5t-82 129.5t-30 162.5q0 175 106.5 279t264.5 104
q143 0 237 -88.5t122 -227.5h22q28 139 122 227.5t237 88.5zM1112 877q-101 0 -162.5 -78t-97.5 -226h-98q-36 148 -97.5 226t-162.5 78q-87 0 -134 -54.5t-47 -152.5q0 -82 34 -147.5t91 -112.5t117.5 -87.5t127.5 -94.5t108 -111h24q41 57 108 111t127.5 94.5t117 87.5
t90.5 112.5t34 147.5q0 98 -46.5 152.5t-133.5 54.5z" />
    <glyph glyph-name="heart" unicode="&#x2665;" horiz-adv-x="1607" 
d="M1176 1051q156 0 262 -100.5t106 -278.5q0 -91 -30.5 -166.5t-82.5 -129.5t-116 -100t-137 -86.5t-138.5 -78t-127 -85.5t-97.5 -100h-22q-36 52 -97.5 100t-127.5 85.5t-138.5 78t-137 86.5t-116.5 100t-82.5 129.5t-30.5 166.5q0 178 106.5 278.5t262.5 100.5
q136 0 232.5 -81.5t128.5 -232.5h24q32 151 128 232.5t231 81.5z" />
    <glyph glyph-name="uni275B" unicode="&#x275b;" horiz-adv-x="901" 
d="M770 1389l55 -103q-189 -90 -288 -202.5t-99 -256.5q0 -38 2 -61l363 -72l14 -669q-146 -52 -299 -52q-75 0 -165.5 14t-153.5 42q-29 46 -46 78.5t-42 92t-37.5 132t-12.5 155.5q0 122 28.5 239t87 223.5t141.5 194t199 151.5t253 94z" />
    <glyph glyph-name="uni275C" unicode="&#x275c;" horiz-adv-x="901" 
d="M383 1386q76 0 166 -13.5t153 -41.5q29 -46 46.5 -78.5t42 -92.5t37 -132.5t12.5 -155.5q0 -153 -46 -297t-132.5 -266t-223 -211.5t-305.5 -126.5l-57 103q387 184 387 461q0 38 -2 61l-361 70l-14 669q140 51 297 51z" />
    <glyph glyph-name="uni275D" unicode="&#x275d;" horiz-adv-x="1796" 
d="M1665 1389l55 -103q-189 -90 -288 -202.5t-99 -256.5q0 -38 2 -61l363 -72l14 -669q-146 -52 -299 -52q-75 0 -165.5 14t-153.5 42q-29 46 -46 78.5t-42 92t-37.5 132t-12.5 155.5q0 122 28.5 239t87 223.5t141.5 194t199 151.5t253 94zM770 1389l55 -103
q-189 -90 -288 -202.5t-99 -256.5q0 -38 2 -61l363 -72l14 -669q-146 -52 -299 -52q-75 0 -165.5 14t-153.5 42q-29 46 -46 78.5t-42 92t-37.5 132t-12.5 155.5q0 122 28.5 239t87 223.5t141.5 194t199 151.5t253 94z" />
    <glyph glyph-name="uni275E" unicode="&#x275e;" horiz-adv-x="1796" 
d="M1278 1386q76 0 166 -13.5t153 -41.5q29 -46 46.5 -78.5t42 -92.5t37 -132.5t12.5 -155.5q0 -153 -46 -297t-132.5 -266t-223 -211.5t-305.5 -126.5l-57 103q387 184 387 461q0 38 -2 61l-361 70l-14 669q140 51 297 51zM383 1386q76 0 166 -13.5t153 -41.5
q29 -46 46.5 -78.5t42 -92.5t37 -132.5t12.5 -155.5q0 -153 -46 -297t-132.5 -266t-223 -211.5t-305.5 -126.5l-57 103q387 184 387 461q0 38 -2 61l-361 70l-14 669q140 51 297 51z" />
    <glyph glyph-name="uni275F" unicode="&#x275f;" horiz-adv-x="901" 
d="M383 1386q76 0 166 -13.5t153 -41.5q29 -46 46.5 -78.5t42 -92.5t37 -132.5t12.5 -155.5q0 -153 -46 -297t-132.5 -266t-223 -211.5t-305.5 -126.5l-57 103q387 184 387 461q0 38 -2 61l-361 70l-14 669q140 51 297 51z" />
    <glyph glyph-name="uni2760" unicode="&#x2760;" horiz-adv-x="1796" 
d="M1278 1386q76 0 166 -13.5t153 -41.5q29 -46 46.5 -78.5t42 -92.5t37 -132.5t12.5 -155.5q0 -153 -46 -297t-132.5 -266t-223 -211.5t-305.5 -126.5l-57 103q387 184 387 461q0 38 -2 61l-361 70l-14 669q140 51 297 51zM383 1386q76 0 166 -13.5t153 -41.5
q29 -46 46.5 -78.5t42 -92.5t37 -132.5t12.5 -155.5q0 -153 -46 -297t-132.5 -266t-223 -211.5t-305.5 -126.5l-57 103q387 184 387 461q0 38 -2 61l-361 70l-14 669q140 51 297 51z" />
    </font>
</defs>
</svg>
