<?xml version="1.0" standalone="no"?>
<!DOCTYPE svg PUBLIC "-//W3C//DTD SVG 1.1//EN" "http://www.w3.org/Graphics/SVG/1.1/DTD/svg11.dtd" >
<svg xmlns="http://www.w3.org/2000/svg" xmlns:xlink="http://www.w3.org/1999/xlink" version="1.1">
<metadata>
Created by FontForge 20170731 at Wed Sep  8 12:20:55 2021
 By Aleksey,,,
2014 published by FontShop International GmbH
</metadata>
<defs>
<font id="FranziskaPro-Demibold" horiz-adv-x="1259" >
  <font-face 
    font-family="FranziskaPro-Demibold"
    font-weight="600"
    font-stretch="normal"
    units-per-em="2048"
    panose-1="2 1 7 4 5 1 1 1 1 2"
    ascent="1612"
    descent="-436"
    x-height="1032"
    cap-height="1362"
    bbox="-924 -571 3279 1980"
    underline-thickness="143"
    underline-position="-347"
    unicode-range="U+000D-1F44E"
  />
<missing-glyph horiz-adv-x="1445" 
d="M1233 1362v-1362h-1020v1362h1020zM1083 1227h-628l628 -967v967zM358 135h643l-643 987v-987z" />
    <glyph glyph-name="T_h" unicode="Th" horiz-adv-x="2289" 
d="M2271 106v-106h-518v106l113 39v537q0 197 -176 197q-129 0 -226 -107v-651l131 -15v-106h-508v106l119 39v1067l-422 21v-1104l148 -14v-115h-602v115l172 39h2v1079l-240 -10l-45 -224h-158q-16 81 -16 222q0 83 10 141h1153q6 86 17 145q107 27 196 35l43 -14v-379
q0 -48 -2.5 -91.5t-8.5 -101t-7 -67.5h22q134 176 334 176q150 0 236 -87t86 -247v-610z" />
    <glyph glyph-name="T_k" unicode="Tk" horiz-adv-x="2232" 
d="M2216 100l-6 -84q-77 -36 -162 -36q-86 0 -140 32t-100 109q-10 17 -188 358h-156v-358l119 -15v-106h-496v106l119 39v1067l-422 21v-1104l148 -14v-115h-602v115l172 39h2v1079l-240 -10l-45 -224h-158q-16 81 -16 222q0 83 10 141h1153q6 86 17 145q107 27 196 35
l43 -14v-922h142q139 154 260 305l-144 13v108h455v-108l-137 -33q-126 -132 -250 -242q49 -71 100 -151.5t123.5 -198.5t95.5 -156z" />
    <glyph glyph-name="T_l" unicode="Tl" horiz-adv-x="1630" 
d="M1595 106v-106h-508v106l119 39v1067l-422 21v-1104l148 -14v-115h-602v115l172 39h2v1079l-240 -10l-45 -224h-158q-16 81 -16 222q0 83 10 141h1153q6 86 17 145q107 27 196 35l43 -14v-1407z" />
    <glyph glyph-name="Tbar_h" unicode="&#x166;h" horiz-adv-x="2289" 
d="M2271 106v-106h-518v106l113 39v537q0 197 -176 197q-129 0 -226 -107v-651l131 -15v-106h-508v106l119 39v1067l-422 21v-567h267v-127h-267v-410l148 -14v-115h-602v115l172 39h2v385h-275v127h275v567l-240 -10l-45 -224h-158q-16 81 -16 222q0 83 10 141h1153
q6 86 17 145q107 27 196 35l43 -14v-379q0 -48 -2.5 -91.5t-8.5 -101t-7 -67.5h22q134 176 334 176q150 0 236 -87t86 -247v-610z" />
    <glyph glyph-name="Tcaron_h" unicode="&#x164;h" horiz-adv-x="2289" 
d="M2271 106v-106h-518v106l113 39v537q0 197 -176 197q-129 0 -226 -107v-651l131 -15v-106h-508v106l119 39v1067l-422 21v-1104l148 -14v-115h-602v115l172 39h2v1079l-240 -10l-45 -224h-158q-16 81 -16 222q0 83 10 141h1153q6 86 17 145q107 27 196 35l43 -14v-379
q0 -48 -2.5 -91.5t-8.5 -101t-7 -67.5h22q134 176 334 176q150 0 236 -87t86 -247v-610zM662 1669h20l184 156h131l-301 -352h-155l-250 284l160 94z" />
    <glyph glyph-name="f_b" unicode="fb" horiz-adv-x="1921" 
d="M1446 1065q125 0 213 -65t130 -177t42 -262q0 -275 -144.5 -431.5t-412.5 -156.5q-94 0 -213.5 18.5t-208.5 45.5v1347q-85 21 -166 21q-113 0 -174 -59t-61 -191v-123h188v-131h-188v-780l196 -15v-106h-584v106l130 39v754l-138 19v104l138 33v43q0 222 121.5 333
t328.5 111q134 0 250 -51q85 38 174 51l43 -12v-381q0 -123 -18 -260h24q126 176 330 176zM1290 98q136 0 199 104.5t63 309.5q0 138 -27.5 221t-74 114.5t-117.5 31.5q-125 0 -221 -107v-635q82 -39 178 -39z" />
    <glyph glyph-name="f_f" unicode="ff" horiz-adv-x="1370" 
d="M1266 1542q137 0 226 -49t89 -137q0 -63 -53 -113h-176l-25 180q-10 2 -35 2q-84 0 -133 -51t-49 -182v-160h248v-131h-248v-780l195 -15v-106h-566v106l113 39v756h-401v-780l131 -15v-106h-519v106l130 39v754l-138 19v104l138 33v43q0 217 120 330.5t332 113.5
q186 0 326 -98q107 98 295 98zM451 1032h305l96 23v57q0 147 51 244q-108 47 -217 47q-118 0 -176.5 -61.5t-58.5 -198.5v-111z" />
    <glyph glyph-name="f_f_b" unicode="ffb" horiz-adv-x="2580" 
d="M2105 1065q125 0 213 -65t130 -177t42 -262q0 -275 -144.5 -431.5t-412.5 -156.5q-94 0 -213.5 18.5t-208.5 45.5v1347q-83 21 -165 21q-236 0 -236 -250v-123h186v-131h-186v-780l195 -15v-106h-580v106l127 39v754h-2l-14 2h-385v-780l131 -15v-106h-519v106l130 39
v754l-138 19v104l138 33v43q0 217 120 330.5t332 113.5q190 0 336 -104q116 104 322 104q133 0 249 -51q85 38 174 51l43 -12v-381q0 -123 -18 -260h25q126 176 329 176zM451 1032h305l96 23v43q0 154 59 254q-108 51 -225 51q-118 0 -176.5 -61.5t-58.5 -198.5v-111z
M1948 98q136 0 199 104.5t63 309.5q0 138 -27.5 221t-74 114.5t-117.5 31.5q-126 0 -222 -107v-635q82 -39 179 -39z" />
    <glyph glyph-name="f_f_h" unicode="ffh" horiz-adv-x="2594" 
d="M2576 106v-106h-518v106l113 39v537q0 197 -176 197q-132 0 -226 -109v-649l132 -15v-106h-504v106l114 39v1239q-83 21 -165 21q-236 0 -236 -250v-123h195v-131h-195v-780l131 -15v-106h-520v106l131 39v754h-2l-14 2h-385v-780l131 -15v-106h-519v106l130 39v754
l-138 19v104l138 33v43q0 217 120 330.5t332 113.5q190 0 336 -104q116 104 322 104q133 0 249 -51q85 38 174 51l43 -12v-381q0 -103 -18 -260h25q132 176 333 176q149 0 234.5 -87t85.5 -247v-610zM451 1032h305l96 23v43q0 154 59 254q-108 51 -225 51
q-118 0 -176.5 -61.5t-58.5 -198.5v-111z" />
    <glyph glyph-name="f_f_i" unicode="ffi" horiz-adv-x="1947" 
d="M1913 106v-106h-512v106l106 39v715l-112 37h-285v-776l131 -15v-106h-502v106l113 39v754h-2l-14 2h-385v-780l131 -15v-106h-519v106l130 39v754l-138 19v104l138 33v43q0 217 120 330.5t332 113.5q194 0 338 -106q120 106 371 106q190 0 304 -57t114 -150
q0 -32 -14.5 -64.5t-41.5 -53.5h-198l-25 178q-79 12 -137 12q-132 0 -189 -68.5t-57 -222.5v-84h403l209 27l43 -15v-921h2zM451 1032h305l96 23v32q0 162 59 265q-108 51 -225 51q-118 0 -176.5 -61.5t-58.5 -198.5v-111z" />
    <glyph glyph-name="f_f_j" unicode="ffj" horiz-adv-x="1929" 
d="M1722 1059l43 -15v-1042q0 -168 -82 -271t-247 -167l-60 63l131 191v1042l-112 37h-285v-776l193 -15v-106h-564v106l113 39v754h-2l-14 2h-385v-780l131 -15v-106h-519v106l130 39v754l-138 19v104l138 33v43q0 217 120 330.5t332 113.5q194 0 338 -106q120 106 371 106
q191 0 305.5 -57t114.5 -150q0 -33 -15 -65t-43 -53h-198l-23 178q-79 12 -139 12q-132 0 -189 -68.5t-57 -222.5v-84h403zM451 1032h305l96 23v32q0 162 59 265q-108 51 -225 51q-118 0 -176.5 -61.5t-58.5 -198.5v-111z" />
    <glyph glyph-name="f_f_k" unicode="ffk" horiz-adv-x="2537" 
d="M2521 100l-6 -84q-77 -36 -162 -36q-86 0 -139.5 32t-99.5 109q-37 67 -189 358h-156v-358l138 -15v-106h-510v106l114 39v1239q-83 21 -165 21q-236 0 -236 -250v-123h195v-131h-195v-780l131 -15v-106h-520v106l131 39v754h-2l-14 2h-385v-780l131 -15v-106h-519v106
l130 39v754l-138 19v104l138 33v43q0 217 120 330.5t332 113.5q190 0 336 -104q116 104 322 104q133 0 249 -51q85 38 174 51l43 -12v-924h142q139 154 260 305l-143 13v108h454v-108l-139 -35q-123 -129 -248 -240q40 -56 87.5 -129t74 -116t86 -141t72.5 -120zM451 1032
h305l96 23v43q0 154 59 254q-108 51 -225 51q-118 0 -176.5 -61.5t-58.5 -198.5v-111z" />
    <glyph glyph-name="f_f_l" unicode="ffl" horiz-adv-x="1951" 
d="M1917 106v-106h-520v106l114 39v1239q-83 21 -165 21q-236 0 -236 -250v-123h195v-131h-195v-780l131 -15v-106h-520v106l131 39v754h-2l-14 2h-385v-780l131 -15v-106h-519v106l130 39v754l-138 19v104l138 33v43q0 217 120 330.5t332 113.5q190 0 336 -104
q116 104 322 104q133 0 249 -51q85 38 174 51l43 -12v-1409zM451 1032h305l96 23v43q0 154 59 254q-108 51 -225 51q-118 0 -176.5 -61.5t-58.5 -198.5v-111z" />
    <glyph glyph-name="f_h" unicode="fh" horiz-adv-x="1935" 
d="M1917 106v-106h-518v106l112 39v537q0 197 -176 197q-131 0 -225 -109v-649l131 -15v-106h-504v106l115 39v1239q-85 21 -166 21q-113 0 -174 -59t-61 -191v-123h196v-131h-196v-780l133 -15v-106h-521v106l130 39v754l-138 19v104l138 33v43q0 222 121.5 333t328.5 111
q134 0 250 -51q85 38 174 51l43 -12v-381q0 -103 -18 -260h24q132 176 334 176q149 0 234 -87t85 -247v-610z" />
    <glyph glyph-name="f_hbar" unicode="f&#x127;" horiz-adv-x="1935" 
d="M1917 106v-106h-518v106l112 39v537q0 197 -176 197q-131 0 -225 -109v-649l131 -15v-106h-504v106l115 39v1239q-85 21 -166 21q-113 0 -174 -59t-61 -191v-123h196v-131h-196v-780l133 -15v-106h-521v106l130 39v754l-138 19v104l138 33v43q0 222 121.5 333t328.5 111
q134 0 250 -51q85 38 174 51l43 -12v-162h311v-127h-311v-92q0 -103 -18 -260h24q132 176 334 176q149 0 234 -87t85 -247v-610z" />
    <glyph glyph-name="f_i" unicode="fi" horiz-adv-x="1288" 
d="M1253 106v-106h-512v106l107 39h2v715l-113 37h-286v-776l133 -15v-106h-521v106l130 39v754l-138 19v104l138 33v32q0 235 126 345t375 110q190 0 304 -57t114 -150q0 -75 -55 -118h-199l-24 178q-80 12 -138 12q-132 0 -188.5 -68.5t-56.5 -222.5v-84h405l209 27
l43 -15v-921z" />
    <glyph glyph-name="f_icircumflex" unicode="f&#xee;" horiz-adv-x="1288" 
d="M1253 106v-106h-512v106l109 39v715l-125 41h-274v-780l133 -15v-106h-521v106l130 39v754l-138 19v104l138 33v43q0 212 123 322t327 110q102 0 197 -29l45 76h157l187 -324l-162 -88l-145 201h-23l-121 -180h-123l121 207q-54 4 -74 4q-251 0 -251 -254v-111h405
l209 27l43 -15v-921z" />
    <glyph glyph-name="f_imacron" unicode="f&#x12b;" horiz-adv-x="1288" 
d="M1253 106v-106h-520v106l117 39v715l-113 37h-286v-776l133 -15v-106h-521v106l130 39v754l-138 19v104l138 33v57q0 219 114.5 324.5t304.5 105.5q103 0 180 -28.5t109 -81.5h311q9 -37 9 -82q0 -46 -9 -84h-520l-20 157q-4 0 -17 1t-22 1q-84 0 -133 -51t-49 -182v-160
h405l209 27l43 -15v-921z" />
    <glyph glyph-name="f_iogonek" unicode="f&#x12f;" horiz-adv-x="1286" 
d="M1253 106v-106q-260 -70 -260 -205q0 -50 33 -75t90 -25q55 0 111 18l18 -94q-93 -55 -217 -55q-123 0 -187.5 53.5t-64.5 134.5q0 152 215 225v23h-248v106l107 37v717l-113 37h-286v-776l133 -15v-106h-521v106l130 39v754l-138 19v104l138 33v32q0 235 126 345
t375 110q190 0 304 -57t114 -150q0 -75 -55 -118h-199l-24 178q-80 12 -138 12q-132 0 -188.5 -68.5t-56.5 -222.5v-84h405l209 27l43 -15v-921z" />
    <glyph glyph-name="f_j" unicode="fj" horiz-adv-x="1269" 
d="M1065 1059l43 -15v-1042q0 -168 -82 -271t-248 -167l-59 63l131 191v1042l-113 37h-286v-776l196 -15v-106h-584v106l130 39v754l-138 19v104l138 33v32q0 235 126 345t375 110q191 0 305.5 -57t114.5 -150q0 -33 -14.5 -65t-42.5 -53h-199l-22 178q-79 12 -140 12
q-132 0 -188.5 -68.5t-56.5 -222.5v-84h405z" />
    <glyph glyph-name="f_k" unicode="fk" horiz-adv-x="1878" 
d="M1862 100l-7 -84q-77 -36 -161 -36q-86 0 -140 32t-100 109q-18 32 -188 358h-156v-358l137 -15v-106h-510v106l115 39v1239q-85 21 -166 21q-113 0 -174 -59t-61 -191v-123h196v-131h-196v-780l133 -15v-106h-521v106l130 39v754l-138 19v104l138 33v43q0 222 121.5 333
t328.5 111q134 0 250 -51q85 38 174 51l43 -12v-924h141q127 142 262 305l-143 13v108h455v-108l-142 -35q-153 -156 -247 -240q40 -55 86 -127t75.5 -119.5t84 -137.5t73.5 -122z" />
    <glyph glyph-name="f_l" unicode="fl" horiz-adv-x="1292" 
d="M1257 106v-106h-520v106l115 39v1239q-85 21 -166 21q-113 0 -174 -59t-61 -191v-123h196v-131h-196v-780l133 -15v-106h-521v106l130 39v754l-138 19v104l138 33v43q0 222 121.5 333t328.5 111q134 0 250 -51q85 38 174 51l43 -12v-1409z" />
    <glyph glyph-name="f_lacute" unicode="f&#x13a;" horiz-adv-x="1290" 
d="M1096 1532h-142l111 305h109q76 -46 116 -127zM1110 121l147 -15v-106h-520v106l115 39v1229q-92 29 -168 29q-233 0 -233 -248v-123h196v-131h-196v-780l133 -15v-106h-521v106l130 39v754l-138 19v104l138 33v43q0 112 33.5 198t93.5 138.5t140 79t177 26.5
q176 0 315 -96q64 13 115 16l43 -12v-1327z" />
    <glyph glyph-name="f_lcaron" unicode="f&#x13e;" horiz-adv-x="1540" 
d="M1257 106v-106h-520v106l115 39v1239q-85 21 -166 21q-113 0 -174 -59t-61 -191v-123h196v-131h-196v-780l133 -15v-106h-521v106l130 39v754l-138 19v104l138 33v43q0 222 121.5 333t328.5 111q134 0 250 -51q85 38 174 51l43 -12v-1409zM1382 1542q76 0 148 -39
q-3 -256 -178 -452h-121l55 278v203q42 10 96 10z" />
    <glyph glyph-name="uni021A_h" unicode="&#x21a;h" horiz-adv-x="2289" 
d="M2271 106v-106h-518v106l113 39v537q0 197 -176 197q-129 0 -226 -107v-651l131 -15v-106h-508v106l119 39v1067l-422 21v-1104l148 -14v-115h-602v115l172 39h2v1079l-240 -10l-45 -224h-158q-16 81 -16 222q0 83 10 141h1153q6 86 17 145q107 27 196 35l43 -14v-379
q0 -48 -2.5 -91.5t-8.5 -101t-7 -67.5h22q134 176 334 176q150 0 236 -87t86 -247v-610zM627 -96q55 0 104 -19q39 -58 39 -133q0 -96 -58 -164.5t-173 -93.5l-35 66q57 29 85.5 56.5t28.5 64.5q0 16 -2 28l-96 12l-6 166q66 17 113 17z" />
    <glyph glyph-name="uni030A_acutecomb" unicode="&#x30a;&#x301;" horiz-adv-x="2" 
d="M-283 1890h119q69 -45 109 -116l-254 -185h-123zM-352 1524q116 0 174.5 -49t58.5 -140q0 -102 -70 -154.5t-192 -52.5q-120 0 -181 49t-61 140q0 103 75 155t196 52zM-369 1427q-82 0 -82 -100q0 -102 80 -102q84 0 84 104q0 98 -82 98z" />
    <glyph glyph-name=".notdef" horiz-adv-x="1445" 
d="M1233 1362v-1362h-1020v1362h1020zM1083 1227h-628l628 -967v967zM358 135h643l-643 987v-987z" />
    <glyph glyph-name=".null" horiz-adv-x="0" 
 />
    <glyph glyph-name="nonmarkingreturn" horiz-adv-x="682" 
 />
    <glyph glyph-name="CR" unicode="&#xd;" horiz-adv-x="512" 
 />
    <glyph glyph-name="space" unicode=" " horiz-adv-x="512" 
 />
    <glyph glyph-name="exclam" unicode="!" horiz-adv-x="600" 
d="M408 1378l38 -39q0 -79 -3.5 -164.5t-14 -208t-15 -172.5t-21 -210.5t-17.5 -169.5h-154q-3 28 -15 145t-17 166t-14 153.5t-13.5 169t-8 147t-3.5 148.5q112 35 258 35zM285 248q90 0 133 -25q24 -43 24 -94q0 -88 -63 -154l-209 25l-6 233q54 15 121 15z" />
    <glyph glyph-name="quotedbl" unicode="&#x22;" horiz-adv-x="972" 
d="M838 1473l-60 -476h-168l-61 486q115 33 248 33zM420 1473l-60 -476h-167l-62 486q115 33 248 33z" />
    <glyph glyph-name="numbersign" unicode="#" horiz-adv-x="1236" 
d="M950 745l-35 -282h189v-189l-215 -34l-31 -267h-108l-37 33l28 242h-331l-33 -275h-109l-37 33l29 242h-192v186l219 37l32 283h-186v188l213 35l33 268h108l37 -33l-28 -243h331l33 276h109l37 -33l-29 -243h192v-187zM768 463l33 291h-332l-35 -291h334z" />
    <glyph glyph-name="dollar" unicode="$" horiz-adv-x="1107" 
d="M618 729l74 -33q168 -76 240 -151t72 -201q0 -161 -107 -246.5t-289 -99.5l4 -254l-118 -16l-31 18l8 250q-107 4 -188.5 29.5t-133 79.5t-51.5 131q0 87 66 137h166l30 -252q72 -8 115 -10l14 401l-73 33q-135 61 -207 141.5t-72 204.5q0 146 96.5 233.5t268.5 104.5
l-4 246l116 16l33 -18l-10 -242q102 -4 182.5 -29.5t133.5 -80t53 -132.5q0 -87 -66 -135h-164l-31 250q-78 8 -112 8zM367 954q0 -61 33.5 -100.5t111.5 -75.5l-6 330q-139 -26 -139 -154zM598 465l6 -346q144 28 144 160q0 71 -35 109.5t-115 76.5z" />
    <glyph glyph-name="percent" unicode="%" horiz-adv-x="1785" 
d="M1343 1241l15 -35q-28 -43 -182 -269.5t-234 -356.5q-59 -96 -182.5 -310t-194.5 -329l-112 45l-15 34q317 474 406 613q78 124 210 351.5t177 303.5zM440 1253q159 0 240.5 -101t81.5 -265q0 -181 -95.5 -286t-258.5 -105q-159 0 -240.5 99.5t-81.5 264.5
q0 182 95.5 287.5t258.5 105.5zM426 1155q-69 0 -100 -66t-31 -217t30.5 -215.5t100.5 -64.5q69 0 99 64t30 216t-30 217.5t-99 65.5zM1376 731q159 0 240.5 -101t81.5 -265q0 -181 -96.5 -286.5t-258.5 -105.5q-159 0 -240 100t-81 265q0 182 95.5 287.5t258.5 105.5z
M1368 633q-69 0 -100 -66t-31 -217t30.5 -215.5t100.5 -64.5q69 0 99 64t30 216t-30 217.5t-99 65.5z" />
    <glyph glyph-name="ampersand" unicode="&#x26;" horiz-adv-x="1564" 
d="M1552 111l-6 -93q-45 -23 -82.5 -32t-97.5 -9q-91 2 -182 37.5t-201 120.5q-87 -81 -187.5 -121.5t-244.5 -40.5q-79 0 -148.5 12t-132 40t-107 70t-71 105.5t-26.5 143.5q0 289 352 373q-119 190 -119 338q0 105 57.5 182t151 114.5t209.5 37.5q157 0 249.5 -72
t92.5 -205q0 -126 -88 -228.5t-250 -140.5q125 -165 346 -342q25 76 32 161.5t7 205.5l4 -2l-2 2q171 33 389 33v-164h-217q-6 -73 -41 -153t-92 -146q156 -120 287 -195zM721 1262q-70 0 -110 -45t-40 -125q0 -127 103 -281q176 109 176 291q0 160 -129 160zM610 113
q151 0 285 92q-283 240 -426 438q-131 -103 -131 -262q0 -133 78.5 -200.5t193.5 -67.5z" />
    <glyph glyph-name="quotesingle" unicode="'" horiz-adv-x="555" 
d="M420 1473l-60 -476h-167l-62 486q115 33 248 33z" />
    <glyph glyph-name="parenleft" unicode="(" horiz-adv-x="696" 
d="M475 1550l92 -45q-107 -220 -158 -442t-51 -485t51 -485.5t158 -442.5l-92 -45q-171 174 -257.5 438.5t-86.5 534.5q0 173 34.5 344.5t114 340.5t195.5 287z" />
    <glyph glyph-name="parenright" unicode=")" horiz-adv-x="696" 
d="M129 1505l94 45q171 -174 256.5 -438t85.5 -534t-85.5 -534.5t-256.5 -438.5l-94 45q108 218 158.5 440.5t50.5 487.5t-50.5 487t-158.5 440z" />
    <glyph glyph-name="asterisk" unicode="*" horiz-adv-x="987" 
d="M401 1608h189q8 -36 8 -78q0 -103 -57 -242h-90q-58 153 -58 242q0 42 8 78zM72 1235l57 178q32 -2 78 -16q74 -24 217 -129l-29 -84q-163 -9 -254 20q-31 8 -69 31zM858 1411l57 -176q-37 -23 -69 -31q-82 -29 -252 -24l-29 86q128 101 217 131q45 12 76 14zM401 1153
l76 -55q-42 -154 -98 -228q-18 -25 -53 -57l-152 107q12 32 37 69q47 61 190 164zM510 1096l72 55q137 -88 194 -164q21 -27 37 -67l-149 -109q-30 24 -54 55q-46 61 -100 230z" />
    <glyph glyph-name="plus" unicode="+" 
d="M1137 530h-418v-417h-180v417h-418v156h418v416h180v-416h418v-156z" />
    <glyph glyph-name="comma" unicode="," horiz-adv-x="557" 
d="M266 285q58 0 117 -21q53 -78 53 -192q0 -154 -94 -267t-258 -151l-33 76q90 43 149.5 101t59.5 128q0 19 -4 39l-111 14l-6 254q71 19 127 19z" />
    <glyph glyph-name="hyphen" unicode="-" horiz-adv-x="727" 
d="M629 522h-531v170h531v-170z" />
    <glyph glyph-name="period" unicode="." horiz-adv-x="555" 
d="M299 303q56 0 94 -10q41 -58 41 -135q0 -87 -47 -158h-229l-39 266q72 37 180 37z" />
    <glyph glyph-name="slash" unicode="/" horiz-adv-x="663" 
d="M618 1448l-415 -1821h-127l-31 27l416 1821h125z" />
    <glyph glyph-name="zero" unicode="0" horiz-adv-x="1267" 
d="M657 1251q127 0 224.5 -46t158.5 -129t92 -193.5t31 -245.5q0 -310 -150 -487t-405 -177q-127 0 -224.5 46.5t-158.5 130t-92 194.5t-31 246q0 310 149.5 485.5t405.5 175.5zM635 1126q-125 0 -182.5 -123.5t-57.5 -388.5q0 -267 57.5 -391.5t182.5 -124.5t181 124
t56 392q0 266 -56 389t-181 123z" />
    <glyph glyph-name="one" unicode="1" horiz-adv-x="831" 
d="M791 106v-106h-713v106l231 39v811q-93 -18 -233 -18v137q101 5 201 47t163 127l127 -8v-1120z" />
    <glyph glyph-name="two" unicode="2" horiz-adv-x="1034" 
d="M811 332l145 -4q17 -58 17 -156q0 -104 -21 -172h-891l-12 139q56 45 86 69.5t86.5 73t90 81t82.5 83t78.5 89.5t64 91t53.5 97.5t32 97.5t13 103q0 204 -193 204q-52 0 -108 -18l-35 -281h-176q-68 51 -68 142q0 121 125.5 201.5t313.5 80.5q202 0 320 -95t118 -247
q0 -75 -33 -150.5t-88 -144.5t-145 -146t-186.5 -146.5t-229.5 -155.5l8 -18q178 28 283 34l247 21z" />
    <glyph glyph-name="three" unicode="3" horiz-adv-x="1083" 
d="M698 592v-23q130 -25 208.5 -105.5t78.5 -211.5q0 -182 -147.5 -302t-386.5 -120q-172 0 -283 63.5t-111 182.5q0 85 62 141h174l33 -252q62 -10 110 -10q264 0 264 283q0 128 -61 195t-217 67h-78v133h186q127 94 127 278q0 117 -52 167t-154 50q-59 0 -111 -14
l-29 -244h-168q-63 53 -63 129q0 117 118.5 185.5t301.5 68.5q203 0 322.5 -91t119.5 -263q0 -129 -66 -200.5t-178 -106.5z" />
    <glyph glyph-name="four" unicode="4" horiz-adv-x="1103" 
d="M1059 160h-182v-303h-259v303h-563l-10 104q202 483 365 989l243 -63l6 -39q-232 -501 -419 -825l6 -21q174 17 235 17h137v387l191 57l68 -12v-432h182v-162z" />
    <glyph glyph-name="five" unicode="5" horiz-adv-x="1071" 
d="M537 733q204 0 329 -116.5t125 -311.5q0 -211 -148 -343t-392 -132q-166 0 -268.5 62.5t-102.5 179.5q0 91 65 139h179l30 -246q55 -10 99 -10q114 0 183 71t69 214q0 148 -81 219.5t-268 81.5l-194 10l24 672l142 28q133 -49 268 -49q156 0 317 51l31 -94
q-129 -178 -360 -178q-138 0 -271 55l-24 -342q128 39 248 39z" />
    <glyph glyph-name="six" unicode="6" horiz-adv-x="1222" 
d="M743 899q95 0 171 -34.5t123.5 -94t72.5 -136t25 -163.5q0 -220 -139.5 -359t-379.5 -139q-254 0 -384 162.5t-130 450.5q0 240 87.5 422.5t246.5 281.5t367 99q93 0 184 -25l-4 -109q-546 0 -590 -505h23q131 149 327 149zM629 98q106 0 163.5 82.5t57.5 235.5
q0 151 -51 224t-158 73q-130 0 -248 -125q-4 -66 -4 -99q0 -204 65 -297.5t175 -93.5z" />
    <glyph glyph-name="seven" unicode="7" horiz-adv-x="993" 
d="M965 1227l14 -101q-192 -285 -307.5 -526.5t-173.5 -470.5l51 -244l-184 -57q-158 49 -158 223q0 62 19 131.5t59.5 149.5t85.5 154.5t117.5 173.5t133 178t152.5 194l-8 17l-528 -33l-25 -170h-139q-17 80 -17 190q0 112 21 191h887z" />
    <glyph glyph-name="eight" unicode="8" horiz-adv-x="1177" 
d="M788 762v-23q69 -31 117 -61t90 -73t63 -101.5t21 -132.5q0 -102 -40 -180t-111 -125t-161 -70t-196 -23q-218 0 -345.5 92.5t-127.5 268.5q0 72 22.5 130.5t61.5 97.5t83.5 63.5t96.5 38.5v22q-235 115 -235 332q0 78 28 141.5t75 105.5t110.5 70.5t132 41t141.5 12.5
q89 0 166.5 -20t139 -59t96.5 -103t35 -146q0 -69 -24 -123.5t-65 -89t-83.5 -55t-90.5 -31.5zM604 1264q-96 0 -148.5 -55t-52.5 -142q0 -81 51.5 -131.5t172.5 -104.5l41 -18q129 76 129 229q0 103 -47.5 162.5t-145.5 59.5zM575 98q109 0 168.5 64.5t59.5 161.5
q0 90 -57.5 142t-215.5 122l-45 20q-133 -82 -133 -254q0 -121 56 -188.5t167 -67.5z" />
    <glyph glyph-name="nine" unicode="9" horiz-adv-x="1222" 
d="M604 1253q254 0 384 -163.5t130 -454.5q0 -366 -193.5 -585.5t-512.5 -219.5q-99 0 -201 25l4 108q272 0 431.5 126t182.5 380h-22q-133 -150 -328 -150q-96 0 -172.5 36t-123.5 97.5t-72 139t-25 164.5q0 219 140.5 358t377.5 139zM580 500q72 0 131 31.5t118 91.5
q2 33 2 98q0 208 -64 303.5t-173 95.5q-107 0 -164 -83t-57 -238q0 -153 50.5 -226t156.5 -73z" />
    <glyph glyph-name="colon" unicode=":" horiz-adv-x="555" 
d="M299 1044q56 0 94 -10q41 -58 41 -135q0 -87 -47 -158h-229l-39 267q70 36 180 36zM299 303q56 0 94 -10q41 -58 41 -135q0 -87 -47 -158h-229l-39 266q72 37 180 37z" />
    <glyph glyph-name="semicolon" unicode=";" horiz-adv-x="555" 
d="M301 1044q56 0 94 -10q41 -58 41 -135q0 -87 -47 -158h-229l-39 267q70 36 180 36zM268 285q58 0 117 -21q53 -78 53 -192q0 -154 -94 -267t-258 -151l-33 76q90 43 149.5 101t59.5 128q0 19 -4 39l-111 14l-6 254q71 19 127 19z" />
    <glyph glyph-name="less" unicode="&#x3c;" 
d="M1077 987l-702 -373v-24l702 -373l-67 -141l-871 422v209l871 421z" />
    <glyph glyph-name="equal" unicode="=" 
d="M1137 326h-1016v155h1016v-155zM1137 735h-1016v156h1016v-156z" />
    <glyph glyph-name="greater" unicode="&#x3e;" 
d="M1114 707v-209l-868 -422l-70 141l703 373v24l-703 373l70 141z" />
    <glyph glyph-name="question" unicode="?" horiz-adv-x="753" 
d="M272 1378q97 0 174.5 -28t127 -74.5t82.5 -109t47 -128t14 -135.5q0 -136 -67.5 -204.5t-258.5 -137.5l-14 -172h-141q-72 140 -72 240q0 59 30.5 89t114.5 62q186 75 215 90q61 31 71 69q3 11 3 24q0 89 -112.5 127.5t-356.5 29.5v242q82 16 143 16zM293 248
q90 0 133 -25q25 -45 25 -94q0 -87 -64 -154l-209 25l-6 233q58 15 121 15z" />
    <glyph glyph-name="at" unicode="@" horiz-adv-x="1955" 
d="M1139 1430q348 0 544.5 -179.5t196.5 -484.5q0 -154 -52.5 -281.5t-138.5 -208t-193 -124t-220 -43.5q-84 0 -120 25.5t-32 84.5l4 41h-24q-56 -86 -125.5 -125t-161.5 -39q-147 0 -222 92.5t-75 266.5q0 89 19.5 175.5t61 165.5t100.5 139t144.5 96t186.5 36
q153 0 248 -82q75 47 143 62l45 -23l-98 -786q156 19 253 152.5t97 352.5q0 264 -152.5 413t-437.5 149q-187 0 -343.5 -63t-262.5 -173.5t-164.5 -263t-58.5 -328.5q0 -323 196 -471.5t570 -148.5v-86q-122 -31 -227 -31q-123 0 -234 27.5t-205.5 85t-163.5 141t-108 202
t-39 261.5q0 204 79.5 384t218 309.5t333.5 204.5t418 75zM1124 377l64 510q-58 49 -127 49q-62 0 -113.5 -42t-82.5 -109t-47.5 -145t-16.5 -157q0 -109 34 -154.5t107 -45.5q54 0 95 22.5t87 71.5z" />
    <glyph glyph-name="A" unicode="A" horiz-adv-x="1425" 
d="M1407 111v-111h-569v111l137 36l-74 236h-510q-63 -210 -78 -258l136 -14v-111h-431v111l129 36q256 798 414 1207l232 35l36 -9q162 -397 449 -1255zM432 518h426q-118 365 -205 600h-22q-63 -171 -199 -600z" />
    <glyph glyph-name="B" unicode="B" horiz-adv-x="1333" 
d="M952 721v-23q283 -56 283 -327q0 -371 -537 -371h-616v111l151 39v1085h-2l-151 14v111q288 18 545 18q551 0 551 -360q0 -120 -58.5 -190t-165.5 -107zM506 1243v-479h260q115 90 115 248q0 115 -59 173t-195 58h-121zM506 135h174q140 0 200 62t60 190q0 124 -61 187
t-211 63h-162v-502z" />
    <glyph glyph-name="C" unicode="C" horiz-adv-x="1351" 
d="M1212 287l39 -105q-185 -209 -499 -209q-160 0 -287 53.5t-208 148.5t-124 221t-43 274q0 157 48 288t138 227t228.5 150t310.5 54q200 0 389 -80q10 -52 10 -125q0 -113 -18 -215h-168l-51 254q-78 22 -160 22q-418 0 -418 -522q0 -281 116 -420t327 -139q192 0 370 123
z" />
    <glyph glyph-name="D" unicode="D" horiz-adv-x="1476" 
d="M598 1378q788 0 788 -665q0 -336 -186 -524.5t-553 -188.5h-567v111l151 39v1085l-151 14v111q274 18 518 18zM512 135h135q234 0 332 131.5t98 431.5q0 285 -94 415t-319 130h-152v-1108z" />
    <glyph glyph-name="E" unicode="E" horiz-adv-x="1280" 
d="M1010 350l168 -12q6 -47 6 -119q0 -97 -25 -219h-1077v111l149 39v1083l-151 18v111h1081q13 -57 13 -141q0 -96 -17 -193h-162l-41 191l-442 14v-471l246 4l22 115h113v-379h-113l-24 125l-244 4v-502l434 14z" />
    <glyph glyph-name="F" unicode="F" horiz-adv-x="1202" 
d="M80 1362h1055q12 -52 12 -143q0 -94 -17 -191h-163l-41 191l-414 14v-516l244 4l22 121h117v-393h-117l-24 133l-242 4v-457l195 -14v-115h-625v111l149 39v1083l-151 18v111z" />
    <glyph glyph-name="G" unicode="G" horiz-adv-x="1421" 
d="M1341 606v-110l-96 -39h-2v-398l2 -2q-87 -37 -215.5 -60.5t-247.5 -23.5q-140 0 -255 35.5t-195 98.5t-135 150t-81 189.5t-26 217.5q0 160 49.5 293t142.5 229t233 149.5t314 53.5q223 0 398 -80q10 -52 10 -123q0 -87 -18 -197h-170l-45 230q-77 26 -175 26
q-216 0 -323 -137t-107 -426q0 -288 104 -426.5t298 -138.5q104 0 207 41l-31 323l-174 15v110h538z" />
    <glyph glyph-name="H" unicode="H" horiz-adv-x="1589" 
d="M1358 1212v-1087l151 -14v-111h-575v111l143 39v487h-565v-512l154 -14v-111h-586v111l151 39v1087l-151 14v111h586v-111l-154 -39v-438h565v463l-155 14v111h587v-111z" />
    <glyph glyph-name="I" unicode="I" horiz-adv-x="743" 
d="M512 1212v-1087l152 -14v-111h-584v111l151 39v1087l-151 14v111h584v-111z" />
    <glyph glyph-name="J" unicode="J" horiz-adv-x="1013" 
d="M967 1362v-111l-152 -39v-825q0 -114 -34 -197t-95 -129t-134 -67t-163 -21q-171 0 -264.5 70.5t-93.5 177.5q0 86 65 144h164l47 -248q33 -8 70 -8q79 0 118.5 50t39.5 173v905l-220 14v111h652z" />
    <glyph glyph-name="K" unicode="K" horiz-adv-x="1433" 
d="M1397 115l-6 -95q-88 -40 -170 -40q-101 0 -163 40.5t-120 129.5q-33 52 -74.5 129.5t-98 187.5t-83.5 162h-170v-504l156 -14v-111h-588v111l151 39v1085l-151 14v113h579v-111l-147 -39v-446h190q171 223 336 469l-159 16v111h481v-111l-125 -32q-158 -207 -356 -433
q21 -29 41.5 -58.5t44.5 -66.5t40.5 -61.5t45.5 -71.5t41.5 -66t46 -75t42 -69.5t47.5 -78t44 -73.5z" />
    <glyph glyph-name="L" unicode="L" horiz-adv-x="1155" 
d="M936 367l166 -13q8 -66 8 -131q0 -112 -27 -223h-1001v111l149 39v1087l-151 14v111h602v-111l-170 -39v-1083l356 12z" />
    <glyph glyph-name="M" unicode="M" horiz-adv-x="1900" 
d="M1851 111v-111h-585v111l153 39q-7 550 -24 1032h-23q-24 -119 -84 -295l-278 -817l-179 -29l-40 6l-281 825q-46 139 -90 310h-21q-16 -403 -28 -1057l166 -14v-111h-488v111l154 39q17 561 55 1085l-154 16v111h537q139 -407 307 -967h23q167 562 307 967h516v-111
l-152 -37q36 -475 58 -1089z" />
    <glyph glyph-name="N" unicode="N" horiz-adv-x="1556" 
d="M1493 1251l-150 -37v-1206l-233 -35l-41 9l-516 888q-86 151 -154 312h-20l22 -1057l177 -14v-111h-498v111l151 39v1085l-151 16v111h520l406 -707q104 -183 170 -329h22l-22 911l-179 14v111h496v-111z" />
    <glyph glyph-name="O" unicode="O" horiz-adv-x="1550" 
d="M803 1389q161 0 287.5 -52.5t206.5 -145.5t121.5 -216.5t41.5 -269.5q0 -330 -196.5 -531t-515.5 -201q-128 0 -235.5 35t-185 97.5t-131.5 149.5t-80 190.5t-26 220.5q0 327 195.5 525t517.5 198zM774 1245q-180 0 -276.5 -138t-96.5 -423t97 -426t276 -141t276 141
t97 426t-96.5 423t-276.5 138z" />
    <glyph glyph-name="P" unicode="P" horiz-adv-x="1277" 
d="M633 1378q292 0 432.5 -112t140.5 -336q0 -207 -115.5 -325t-312.5 -118q-61 0 -170 19v117h39q128 0 189 73t61 236q0 158 -63 233.5t-209 75.5h-113v-1112l190 -14v-115h-620v111l149 39v1085l-151 14v111q288 18 553 18z" />
    <glyph glyph-name="Q" unicode="Q" horiz-adv-x="1550" 
d="M803 1389q161 0 287.5 -52.5t206.5 -145.5t121.5 -216.5t41.5 -269.5q0 -246 -110.5 -420t-300.5 -248v-23l274 -221l129 -49l-6 -96q-89 -39 -189 -39q-89 0 -149.5 27.5t-114.5 105.5l-192 231h-56q-159 0 -285 53.5t-206 148t-122 219.5t-42 272q0 327 195.5 525
t517.5 198zM774 1245q-180 0 -276.5 -138t-96.5 -423t97 -426t276 -141t276 141t97 426t-96.5 423t-276.5 138z" />
    <glyph glyph-name="R" unicode="R" horiz-adv-x="1366" 
d="M1354 115l-6 -95q-82 -40 -179 -40q-70 0 -122 21t-81 50t-59 76q-74 110 -256 430h-147v-432l153 -14v-111h-577v111l151 39v1085l-151 14v111q265 18 510 18q321 0 464.5 -101t143.5 -296q0 -149 -74.5 -231.5t-208.5 -126.5l-4 -23q54 -52 104.5 -119t119.5 -171.5
t98 -145.5zM504 694h260q66 48 97.5 115t31.5 168q0 136 -62 198.5t-206 63.5h-121v-545z" />
    <glyph glyph-name="S" unicode="S" horiz-adv-x="1148" 
d="M547 858l176 -78q81 -36 137 -69.5t104.5 -81t72.5 -111t24 -143.5q0 -104 -39.5 -182.5t-111 -126t-165 -70.5t-208.5 -23q-119 0 -229.5 23t-188.5 57q-21 100 -21 193q0 40 11 112l161 13l66 -232q83 -28 186 -28q129 0 191.5 45.5t62.5 144.5q0 88 -48 136.5
t-155 94.5l-180 78q-127 56 -198.5 146t-71.5 231q0 189 129.5 295.5t355.5 106.5q213 0 381 -82q10 -52 10 -121q0 -84 -18 -176h-166l-45 219q-77 22 -158 22q-233 0 -233 -192q0 -73 38 -116.5t130 -84.5z" />
    <glyph glyph-name="T" unicode="T" horiz-adv-x="1286" 
d="M1229 1362h2q10 -58 10 -139q0 -123 -16 -224h-158l-47 224l-236 10v-1104l170 -14v-115h-624v115l172 39h2v1079l-238 -10l-47 -224h-158q-16 84 -16 224q0 81 10 139h1174z" />
    <glyph glyph-name="U" unicode="U" horiz-adv-x="1478" 
d="M1432 1251l-152 -39v-763q0 -218 -140.5 -347t-398.5 -129q-261 0 -401.5 131.5t-140.5 358.5v774l-152 14v111h584v-111l-152 -39v-761q0 -176 79.5 -258t234.5 -82q317 0 317 338v788l-172 14v111h494v-111z" />
    <glyph glyph-name="V" unicode="V" horiz-adv-x="1396" 
d="M1378 1251l-118 -37q-247 -772 -414 -1206l-225 -35l-39 9q-170 434 -441 1255l-123 14v111h570v-111l-144 -39q186 -625 314 -968h24q60 174 152 465.5t158 527.5l-166 14v111h452v-111z" />
    <glyph glyph-name="W" unicode="W" horiz-adv-x="2195" 
d="M2157 1251l-119 -37q-185 -622 -387 -1206l-226 -35l-36 9q-195 579 -269 823h-24q-137 -434 -273 -797l-225 -35l-39 9q-239 703 -401 1255l-119 14v111h569v-111l-145 -39q179 -673 274 -968h23q190 563 276 833l-49 158l-117 16v111h572v-111l-170 -39h-2
q197 -699 295 -968h22q150 477 283 993l-166 14v111h453v-111z" />
    <glyph glyph-name="X" unicode="X" horiz-adv-x="1445" 
d="M1399 111v-111h-608v111l135 39q-148 259 -258 417h-27q-145 -203 -293 -442l150 -14v-111h-451v111l121 34q215 301 403 531q-168 247 -358 561l-139 14v111h608v-111l-135 -34q140 -244 244 -394h22q41 60 81.5 125t93.5 154t81 135l-149 14v111h454v-111l-125 -34
q-225 -331 -358 -502q239 -365 375 -592z" />
    <glyph glyph-name="Y" unicode="Y" horiz-adv-x="1388" 
d="M1352 1251l-119 -37q-173 -363 -379 -725v-364l170 -14v-111h-625v111l172 39h2v319q-209 373 -405 768l-131 14v111h569v-111l-129 -32q118 -259 285 -568h22q141 252 287 586l-172 14v111h453v-111z" />
    <glyph glyph-name="Z" unicode="Z" horiz-adv-x="1228" 
d="M979 362l176 -12q8 -62 8 -119q0 -130 -24 -231h-1057l-12 82l587 911q24 39 50 76t67 93.5t47 64.5l-10 16l-487 -20l-41 -213h-166q-19 108 -19 194q0 94 11 158h1038l12 -82l-569 -889q-31 -49 -178 -254l10 -16l502 18z" />
    <glyph glyph-name="bracketleft" unicode="[" horiz-adv-x="681" 
d="M578 1399l-220 -13q43 -371 43 -792q0 -431 -43 -823l220 -13v-118h-385v1876h385v-117z" />
    <glyph glyph-name="backslash" unicode="\" horiz-adv-x="663" 
d="M461 -373l-416 1821l33 27h125l415 -1821l-30 -27h-127z" />
    <glyph glyph-name="bracketright" unicode="]" horiz-adv-x="681" 
d="M489 1516v-1876h-385v118l220 13q-43 392 -43 823q0 410 41 792l-218 13v117h385z" />
    <glyph glyph-name="asciicircum" unicode="^" horiz-adv-x="940" 
d="M883 1036l-133 -86l-269 348h-20l-268 -348l-136 86l322 471h184z" />
    <glyph glyph-name="underscore" unicode="_" horiz-adv-x="931" 
d="M852 -299h-774v131h774v-131z" />
    <glyph glyph-name="grave" unicode="`" horiz-adv-x="555" 
d="M494 1174h-123l-310 286q48 97 123 133h131z" />
    <glyph glyph-name="a" unicode="a" horiz-adv-x="1097" 
d="M1063 139v-102q-121 -53 -217 -53q-80 0 -118 33t-38 102v26h-22q-117 -172 -314 -172q-136 0 -210 73t-74 194q0 86 40 148.5t109 97t149 50t173 15.5q79 0 137 -8v194q1 115 -49.5 163t-147.5 48q-44 0 -88 -8l-33 -246h-170q-65 51 -65 123t61 130t157.5 88t205.5 30
q182 0 284 -87.5t101 -248.5l-6 -571zM463 139q116 0 213 111v203h-47q-153 0 -220 -45t-67 -138q0 -70 29.5 -100.5t91.5 -30.5z" />
    <glyph glyph-name="b" unicode="b" horiz-adv-x="1228" 
d="M418 1526v-377q0 -67 -19 -260h23q129 176 330 176q188 0 287.5 -138.5t99.5 -367.5q0 -276 -145.5 -431t-424.5 -155q-207 0 -409 64v1315l-133 32v103q171 49 348 55zM639 879q-125 0 -221 -107v-635q82 -39 174 -39q139 0 202.5 104.5t63.5 309.5q0 138 -27.5 221
t-74 114.5t-117.5 31.5z" />
    <glyph glyph-name="c" unicode="c" horiz-adv-x="1044" 
d="M934 244l35 -92q-152 -179 -406 -179q-123 0 -218 41.5t-153 114t-87 166t-29 203.5q0 261 147.5 414t378.5 153q93 0 170.5 -23.5t130.5 -80t53 -138.5q0 -93 -67 -141h-178l-29 258q-27 6 -64 6q-123 0 -190.5 -95.5t-67.5 -287.5q0 -206 75.5 -307.5t217.5 -101.5
q128 0 281 90z" />
    <glyph glyph-name="d" unicode="d" horiz-adv-x="1247" 
d="M1069 1526v-1356l133 -37v-98q-181 -44 -340 -53l-43 16l10 152h-22q-130 -177 -332 -177q-187 0 -286 137.5t-99 368.5q0 267 131.5 426.5t364.5 159.5q123 0 225 -39v324l-133 32v105q179 49 346 55zM627 940q-258 0 -258 -412q0 -105 15 -177.5t44.5 -113.5t68.5 -59
t93 -18q70 0 121.5 27.5t97.5 78.5v627q-78 47 -182 47z" />
    <glyph glyph-name="e" unicode="e" horiz-adv-x="1085" 
d="M659 156q133 0 299 94l37 -92q-157 -185 -422 -185q-127 0 -224.5 41t-156 114.5t-87.5 167t-29 204.5q0 261 147.5 413t386.5 152q195 0 290 -101.5t95 -269.5q0 -94 -24 -170h-621q9 -183 88.5 -275.5t220.5 -92.5zM578 940q-91 0 -153.5 -79.5t-72.5 -233.5l387 18v21
q0 139 -39 206.5t-122 67.5z" />
    <glyph glyph-name="f" unicode="f" horiz-adv-x="710" 
d="M614 1542q130 0 219 -49.5t89 -136.5q0 -62 -54 -113h-176l-24 180q-10 2 -35 2q-84 0 -133 -51t-49 -182v-160h249v-131h-249v-780l196 -15v-106h-584v106l130 39v754l-138 19v104l138 33v57q0 221 111.5 325.5t309.5 104.5z" />
    <glyph glyph-name="g" unicode="g" horiz-adv-x="1134" 
d="M946 1001l-53 -61q82 -88 82 -221q0 -167 -130 -265t-337 -98q-56 0 -105 9v-132l342 -36q181 -21 260.5 -81.5t79.5 -164.5q0 -114 -82.5 -202t-231 -136.5t-339.5 -48.5q-407 0 -407 239q0 96 61.5 160t157.5 76q-12 144 41 356q-99 42 -149 120t-50 179
q0 168 130.5 269.5t336.5 101.5q168 0 274 -70q20 102 58 157.5t114 55.5q68 0 111 -43l-16 -164h-148zM530 479q181 0 181 232q0 231 -181 231q-182 0 -182 -231q0 -232 182 -232zM643 -43l-336 43q-41 -65 -41 -143q0 -168 252 -168q85 0 164 17t135.5 54.5t56.5 87.5
q0 40 -47.5 65t-183.5 44z" />
    <glyph glyph-name="h" unicode="h" horiz-adv-x="1261" 
d="M1243 106v-106h-518v106l113 39v537q0 197 -176 197q-129 0 -226 -107v-651l129 -15v-106h-518v106l131 39v1205l-133 32v105q185 49 348 55l43 -16v-377q0 -48 -2.5 -91.5t-8.5 -101t-7 -67.5h22q132 176 334 176q150 0 236 -87t86 -247v-610z" />
    <glyph glyph-name="i" unicode="i" horiz-adv-x="628" 
d="M594 106v-106h-533v106l132 39v715l-132 43v105q168 42 345 51l45 -15v-921zM330 1511q60 0 90 -12q35 -52 35 -117q0 -66 -54 -143h-206l-31 246q85 26 166 26z" />
    <glyph glyph-name="j" unicode="j" horiz-adv-x="598" 
d="M438 1044v-1042q0 -168 -83.5 -270.5t-248.5 -167.5l-61 63l133 191v1042l-131 43v105q180 42 344 51zM317 1511q61 0 91 -12q34 -50 34 -117t-53 -143h-207l-30 246q84 26 165 26z" />
    <glyph glyph-name="k" unicode="k" horiz-adv-x="1204" 
d="M1188 100l-6 -84q-77 -36 -162 -36q-86 0 -140 32t-100 109q-10 17 -188 358h-156v-358l123 -12v-109h-512v106l131 39v1205l-133 34v103q171 49 348 55l43 -16v-920h142q139 154 260 305l-144 13v108h455v-108l-137 -33q-105 -111 -250 -242q40 -55 86 -127t75.5 -119.5
t84 -137.5t73.5 -122z" />
    <glyph glyph-name="l" unicode="l" horiz-adv-x="614" 
d="M580 106v-106h-533v106l131 39v1205l-133 34v103q166 48 348 55l43 -16v-1405z" />
    <glyph glyph-name="m" unicode="m" horiz-adv-x="1918" 
d="M1901 106v-106h-504v106l100 39v537q0 197 -174 197q-114 0 -219 -101v-657l108 -15v-106h-456v106l90 39v537q0 197 -174 197q-131 0 -221 -107v-651l122 -15v-106h-512v106l132 39v715l-132 43v105q190 45 336 51l45 -15l-10 -155h23q68 93 148.5 134.5t184.5 41.5
q57 0 103 -13.5t72.5 -30t49 -45.5t30.5 -46t20 -45h29q138 180 344 180q151 0 235 -86.5t84 -247.5v-610z" />
    <glyph glyph-name="n" unicode="n" horiz-adv-x="1277" 
d="M1260 106v-106h-519v106l113 39v537q0 197 -178 197q-132 0 -225 -107v-651l129 -15v-106h-519v106l132 39v715l-132 43v105q208 46 336 51l45 -15l-10 -155h23q132 176 333 176q150 0 237 -87t87 -247v-610z" />
    <glyph glyph-name="o" unicode="o" horiz-adv-x="1198" 
d="M625 1065q125 0 221.5 -41t156 -114t89.5 -166.5t30 -204.5q0 -255 -150 -410.5t-399 -155.5q-125 0 -221.5 41.5t-156 114.5t-89.5 167.5t-30 205.5q0 255 149.5 409t399.5 154zM600 940q-121 0 -177 -100.5t-56 -317.5q0 -219 56 -321.5t177 -102.5q122 0 178 102.5
t56 321.5q0 218 -55.5 318t-178.5 100z" />
    <glyph glyph-name="p" unicode="p" horiz-adv-x="1245" 
d="M770 1065q188 0 286.5 -137t98.5 -367q0 -174 -56 -305t-170.5 -207t-273.5 -76q-120 0 -219 41v-303l152 -14v-107h-541v107l131 39v1124l-131 43v105q190 45 336 51l45 -15l-10 -155h22q128 176 330 176zM618 98q259 0 259 416q0 202 -55.5 283.5t-164.5 81.5
q-125 0 -221 -107v-627q80 -47 182 -47z" />
    <glyph glyph-name="q" unicode="q" horiz-adv-x="1228" 
d="M1198 -303v-107h-553v107l166 39v192q0 31 2 65.5t4.5 56.5t6.5 55t5 45h-22q-130 -177 -332 -177q-186 0 -285.5 138t-99.5 366q0 129 32.5 235.5t96 185.5t163 123t226.5 44q87 0 149.5 -19t125.5 -55q66 53 141 68l45 -19v-1329zM809 266v604q-87 66 -178 66
q-262 0 -262 -414q0 -198 56 -280t165 -82q70 0 121.5 27.5t97.5 78.5z" />
    <glyph glyph-name="r" unicode="r" horiz-adv-x="845" 
d="M809 805h-236q-78 -60 -122 -133v-545l194 -14v-113h-584v115l132 30v715l-132 43v105q174 45 330 51l43 -15l-14 -229h24q58 118 118 184t138 66t119 -70z" />
    <glyph glyph-name="s" unicode="s" horiz-adv-x="956" 
d="M463 672l133 -56q71 -29 117.5 -55.5t87 -64t59.5 -87t19 -114.5q0 -110 -58 -183.5t-154 -106t-225 -32.5q-195 0 -352 70q-12 46 -12 123q0 84 16 149h156l33 -198q70 -23 149 -23q197 0 197 137q0 57 -34.5 90t-115.5 68l-129 53q-121 51 -183.5 120t-62.5 186
q0 151 106.5 234t299.5 83q172 0 311 -64q13 -63 13 -120q0 -63 -17 -146h-139l-35 187q-71 22 -137 22q-176 0 -176 -133q0 -50 29.5 -79t103.5 -60z" />
    <glyph glyph-name="t" unicode="t" horiz-adv-x="786" 
d="M739 172l27 -98q-128 -101 -299 -101q-138 0 -215.5 67t-77.5 198v669l-137 17v98l156 33l163 252l76 -9v-266h295v-131h-295v-631q0 -76 29.5 -106.5t97.5 -30.5q77 0 180 39z" />
    <glyph glyph-name="u" unicode="u" horiz-adv-x="1261" 
d="M1217 141v-106q-181 -44 -338 -53l-45 16l10 156h-23q-136 -181 -334 -181q-150 0 -235.5 88t-85.5 250v549l-131 43v105q207 46 344 51l45 -15v-686q0 -198 176 -198q127 0 225 110v594l-118 39v105q214 47 333 51l43 -15v-866z" />
    <glyph glyph-name="v" unicode="v" horiz-adv-x="1177" 
d="M1165 924l-118 -33q-103 -296 -340 -883l-172 -35l-39 9q-220 528 -359 929l-125 13v108h492v-108l-84 -35q130 -385 231 -643h23q141 373 223 665l-149 13v108h417v-108z" />
    <glyph glyph-name="w" unicode="w" horiz-adv-x="1847" 
d="M1794 924l-117 -33q-112 -399 -276 -883l-187 -35l-38 9q-113 318 -224 708h-22q-167 -505 -236 -682l-186 -35l-39 9q-178 515 -291 931l-125 11v108h502v-108l-94 -37q59 -258 174 -641h22q152 451 242 778l168 33l39 -6q114 -437 233 -805h23q105 365 164 665l-152 13
v108h420v-108z" />
    <glyph glyph-name="x" unicode="x" horiz-adv-x="1157" 
d="M1139 106v-106h-521v106l80 35q-62 104 -176 281h-22q-124 -190 -189 -303l135 -13v-106h-428v106l134 37q76 106 292 369q-228 330 -272 399l-137 13v108h524v-108l-84 -33q25 -43 56 -90t64 -97t48 -73h23q112 186 161 282l-125 11v108h420v-108l-137 -37
q-159 -207 -266 -340q198 -290 280 -426z" />
    <glyph glyph-name="y" unicode="y" horiz-adv-x="1179" 
d="M1167 924l-125 -35q-175 -510 -370 -963q-81 -182 -185.5 -272t-220.5 -90q-104 0 -155 69l14 129h324q53 85 83 168q-91 196 -202.5 475.5t-190.5 505.5l-127 13v108h492v-108l-82 -33q111 -342 229 -645h25q129 349 217 665l-145 13v108h419v-108z" />
    <glyph glyph-name="z" unicode="z" horiz-adv-x="958" 
d="M754 334l143 -10q8 -44 8 -113q0 -119 -28 -211h-811l-15 111l389 571q51 79 162 223l-10 17l-330 -17l-35 -192h-139q-16 88 -16 174q0 83 12 145h788l15 -112l-383 -570q-51 -77 -160 -223l8 -16l353 16z" />
    <glyph glyph-name="braceleft" unicode="{" horiz-adv-x="671" 
d="M569 1413l-215 -53q36 -149 52.5 -217.5t37.5 -181.5t21 -166q0 -78 -52 -124t-182 -65v-20q132 -20 183 -64.5t51 -126.5q0 -127 -111 -600l215 -53v-104q-2 0 -6 -1.5t-6 -1.5q-58 -6 -104 -6q-146 0 -217.5 51.5t-71.5 143.5q0 52 22 176.5t70 369.5q12 58 18 89
l-174 76v122l174 76q-11 50 -28 131.5t-25 119t-19.5 94.5t-16.5 86t-11 64.5t-8 58t-2 40.5q0 95 71 147t216 52q47 0 106 -6q2 0 6 -1t6 -1v-105z" />
    <glyph glyph-name="bar" unicode="|" horiz-adv-x="581" 
d="M371 -246h-158v1782h158v-1782z" />
    <glyph glyph-name="braceright" unicode="}" horiz-adv-x="671" 
d="M571 657v-122l-174 -76q9 -44 22 -111.5t20 -103.5t17.5 -88.5t16 -81t12.5 -67t10 -61.5t6.5 -48t5 -42.5t1.5 -31.5q0 -92 -71.5 -143.5t-217.5 -51.5q-25 0 -117 9v104l215 53q-110 469 -110 600q0 81 51.5 126t181.5 65v20q-130 19 -181.5 65t-51.5 124
q0 113 110 565l-215 53v105q82 8 119 8q145 0 216 -52t71 -147q0 -18 -2 -41t-8 -57t-11.5 -65t-16.5 -85t-20 -96t-25 -118t-28 -132z" />
    <glyph glyph-name="asciitilde" unicode="~" 
d="M1057 733l86 -59q-11 -36 -25.5 -70t-39 -71t-53 -64t-69 -45t-86.5 -18q-41 0 -86 16.5t-137 62.5q-117 54 -280 146l-166 -174l-86 61q15 47 36 89t54 84.5t80.5 67.5t103.5 25q40 0 86 -15.5t137 -61.5q115 -55 281 -146z" />
    <glyph glyph-name="uni00A0" unicode="&#xa0;" horiz-adv-x="512" 
 />
    <glyph glyph-name="exclamdown" unicode="&#xa1;" horiz-adv-x="600" 
d="M291 1065q88 0 133 -23q25 -48 25 -96q0 -86 -64 -153l-209 24l-6 234q51 14 121 14zM221 625h154q3 -31 15 -145.5t17 -165t14 -153.5t13.5 -168.5t8 -148t3.5 -149.5q-112 -35 -256 -35l-40 39q0 66 3.5 149t8 146t14 169t14 152.5t17 166t14.5 143.5z" />
    <glyph glyph-name="cent" unicode="&#xa2;" horiz-adv-x="1067" 
d="M958 346l37 -100q-132 -158 -333 -183l6 -206l-119 -17l-31 19l6 202q-110 9 -195 54t-136.5 116t-77 159.5t-25.5 191.5q0 232 120 382t316 181l-8 217l119 16l31 -18l-6 -207q64 -4 120 -20t102.5 -45t73.5 -75.5t27 -105.5q0 -87 -63 -137h-170l-31 258q-14 2 -64 8
q-8 -258 -8 -409q0 -203 6 -381h17q147 0 286 100zM373 655q0 -300 159 -381q5 273 5 342q0 183 -7 402q-157 -68 -157 -363z" />
    <glyph glyph-name="sterling" unicode="&#xa3;" horiz-adv-x="1210" 
d="M981 362h141q8 -86 8 -129q0 -144 -59.5 -202t-198.5 -58q-185 0 -540 105q-56 -105 -152 -105q-46 0 -94 25l-18 178l172 60q63 65 63 174q0 56 -16 122h-201v127h164q-31 118 -31 191q0 181 132 288t341 107q157 0 258 -59.5t101 -179.5q0 -92 -64 -140h-166l-33 254
q-44 6 -88 6q-100 0 -148 -55.5t-48 -157.5q0 -32 6 -68.5t11 -58t18.5 -67.5t17.5 -60h289v-127h-266l2 -38q0 -104 -52 -173.5t-176 -134.5l8 -20q143 31 228 31q161 0 330 -33z" />
    <glyph glyph-name="currency" unicode="&#xa4;" horiz-adv-x="1155" 
d="M971 606q0 -122 -64 -211l178 -176l-114 -115l-189 185q-92 -45 -215 -45q-114 0 -200 39l-183 -179l-116 115l172 168q-58 82 -58 197q0 129 74 219l-188 186l116 115l205 -201q93 41 211 41q100 0 176 -31l195 191l116 -115l-178 -176q62 -86 62 -207zM584 375
q159 0 159 221q0 217 -159 217q-83 0 -127.5 -55.5t-44.5 -161.5q0 -107 44.5 -164t127.5 -57z" />
    <glyph glyph-name="yen" unicode="&#xa5;" horiz-adv-x="1353" 
d="M1294 1114l-135 -37q-69 -140 -205 -364h224v-127h-299l-64 -105v-61h361v-127h-361v-168l172 -14v-111h-598v111l160 39v143h-367v127h367v59l-66 107h-301v127h224q-135 220 -228 389h-2l-119 14v111h559v-111l-131 -35q121 -248 244 -460h23q98 162 247 481l-141 12
v113h436v-113z" />
    <glyph glyph-name="brokenbar" unicode="&#xa6;" horiz-adv-x="581" 
d="M371 905h-158v631h158v-631zM371 -246h-158v631h158v-631z" />
    <glyph glyph-name="section" unicode="&#xa7;" horiz-adv-x="1075" 
d="M1026 465q0 -84 -44 -150t-153 -118q50 -68 50 -158q0 -145 -102.5 -229t-272.5 -84q-151 0 -244.5 63.5t-93.5 161.5q0 70 61 117h142l30 -213q67 -13 105 -13q84 0 124 37t40 96q0 13 -2.5 25t-6.5 22t-13 22t-16.5 21t-24.5 22.5t-29 23t-36.5 26.5t-42 29t-51 35
t-57.5 39q-52 37 -77.5 56t-64 48.5t-56.5 45.5t-44.5 40t-37.5 40.5l-26 39t-20.5 42.5t-9.5 44t-4 51q0 89 44 154t153 117q-49 70 -49 159q0 144 101.5 228t270.5 84q152 0 245 -64t93 -162q0 -70 -59 -116h-141l-33 213q-59 12 -103 12q-84 0 -123.5 -36.5t-39.5 -94.5
t48 -102t200 -145q20 -13 30 -20q74 -54 107.5 -78.5t82.5 -64.5t69 -64t43 -59t30.5 -68.5t7.5 -74.5zM569 416q138 -98 187 -140q59 56 59 113q0 64 -63.5 124t-247.5 185q-134 93 -187 140q-57 -54 -57 -115q0 -56 57 -113t252 -194z" />
    <glyph glyph-name="dieresis" unicode="&#xa8;" horiz-adv-x="833" 
d="M215 1499q55 0 84 -10q33 -61 33 -109q0 -63 -49 -133h-183l-30 226q72 26 145 26zM647 1499q55 0 84 -10q33 -53 33 -109q0 -63 -49 -133h-183l-30 226q72 26 145 26z" />
    <glyph glyph-name="copyright" unicode="&#xa9;" horiz-adv-x="1642" 
d="M834 1389q321 0 519.5 -192t198.5 -505q0 -215 -98 -380t-266 -252t-379 -87t-374.5 88t-254 248t-90.5 367q0 215 98 378.5t266.5 249t379.5 85.5zM819 94q122 0 225.5 41.5t178 116.5t116 187t41.5 247q0 267 -154 424.5t-403 157.5q-251 0 -407 -158t-156 -428
q0 -268 154 -428t405 -160zM905 410q105 0 213 77l33 -81q-119 -142 -320 -142q-123 0 -210 55t-127.5 144.5t-40.5 202.5q0 196 116.5 314t292.5 118q72 0 132 -19t101.5 -64t41.5 -110q0 -71 -50 -108h-147l-25 186q-30 6 -57 6q-76 0 -116 -68t-40 -200q0 -311 203 -311z
" />
    <glyph glyph-name="ordfeminine" unicode="&#xaa;" horiz-adv-x="765" 
d="M741 551v-74q-93 -39 -170 -39q-102 0 -102 84v19h-14q-72 -111 -201 -111q-93 0 -145 48.5t-52 133.5q0 59 28 102t76 65t100.5 32t113.5 10q54 0 86 -4l2 113q1 79 -31 110t-92 31q-31 0 -61 -6l-21 -154h-119q-45 32 -45 84q0 71 83.5 119.5t197.5 48.5
q126 0 202 -61.5t76 -179.5l-8 -359zM328 557q69 0 131 68l2 123h-33q-91 -5 -130.5 -31t-39.5 -84q0 -76 70 -76z" />
    <glyph glyph-name="guillemotleft" unicode="&#xab;" horiz-adv-x="1159" 
d="M1008 887l-166 -326l168 -328l-111 -71l-332 366v66l330 367zM545 887l-166 -326l168 -328l-111 -71l-332 366v66l330 367z" />
    <glyph glyph-name="logicalnot" unicode="&#xac;" 
d="M1040 176h-174v354h-747v156h921v-510z" />
    <glyph glyph-name="uni00AD" unicode="&#xad;" horiz-adv-x="727" 
d="M629 522h-531v170h531v-170z" />
    <glyph glyph-name="registered" unicode="&#xae;" horiz-adv-x="1261" 
d="M639 1477q236 0 385.5 -142t149.5 -372q0 -156 -73.5 -276.5t-198.5 -184.5t-279 -64q-237 0 -387 143.5t-150 372.5q0 156 73.5 276t199 183.5t280.5 63.5zM631 537q186 0 297.5 113.5t111.5 307.5q0 196 -112 308t-297 112q-187 0 -298.5 -113.5t-111.5 -308.5
t113 -307t297 -112zM745 946l-2 -10q56 -51 127 -162l39 -16l-2 -51q-39 -17 -78 -17t-61 12t-41 39q-14 22 -96 172h-43v-153l59 -6v-56h-258v56l62 16h2v401h-2l-62 7v57q122 8 207 8q144 0 203 -38.5t59 -117.5q0 -111 -113 -141zM588 981h78q41 38 41 102q0 47 -18.5 70
t-63.5 23h-37v-195z" />
    <glyph glyph-name="macron" unicode="&#xaf;" horiz-adv-x="716" 
d="M70 1432h575q10 -42 10 -82q0 -42 -10 -84h-575q-9 38 -9 84q0 44 9 82z" />
    <glyph glyph-name="degree" unicode="&#xb0;" horiz-adv-x="747" 
d="M385 1524q137 0 223 -88t86 -211q0 -132 -98.5 -221t-235.5 -89t-222 87t-85 210q0 132 97 222t235 90zM373 1376q-63 0 -107.5 -43.5t-44.5 -113.5t44 -113t108 -43q65 0 108 43t43 113q0 71 -43 114t-108 43z" />
    <glyph glyph-name="plusminus" unicode="&#xb1;" 
d="M1079 795v-156h-360v-311h-180v311h-359v156h359v309h180v-309h360zM180 156h899v-156h-899v156z" />
    <glyph glyph-name="twosuperior" unicode="&#xb2;" horiz-adv-x="636" 
d="M485 983h95q12 -37 12 -96q0 -66 -12 -101h-537l-8 91q59 44 95.5 72.5t89 77t82.5 88.5t52.5 92t22.5 102q0 106 -103 106q-27 0 -51 -8l-18 -154h-123q-43 27 -43 84q0 71 75 117.5t189 46.5q125 0 194.5 -54.5t69.5 -143.5q0 -52 -26.5 -102t-83.5 -102t-121 -97.5
t-164 -108.5l8 -16q68 14 156 26l137 12z" />
    <glyph glyph-name="threesuperior" unicode="&#xb3;" horiz-adv-x="679" 
d="M313 1501q123 0 192.5 -49.5t69.5 -138.5q0 -63 -37 -98t-106 -54v-18q168 -35 168 -162q0 -98 -84 -154.5t-221 -56.5q-112 0 -182 37t-70 104q0 50 39 86h121l18 -135q48 -6 60 -6q63 0 97 27.5t34 99.5q0 62 -32.5 91.5t-115.5 29.5h-47v84h107q63 43 63 127
q0 55 -24 77.5t-72 22.5q-16 0 -62 -8l-16 -133h-115q-43 34 -43 80q0 68 72.5 107.5t185.5 39.5z" />
    <glyph glyph-name="acute" unicode="&#xb4;" horiz-adv-x="557" 
d="M246 1593h133q72 -44 117 -133l-312 -286h-123z" />
    <glyph glyph-name="mu" unicode="&#xb5;" horiz-adv-x="1255" 
d="M1210 141v-106q-181 -44 -338 -53l-43 16l9 156h-23q-117 -181 -283 -181q-103 0 -163 80l-21 -10l39 -455q-89 -24 -233 -24l-39 41l45 526v891q113 28 215 37l43 -15v-686q0 -198 176 -198q130 0 225 110v750q110 30 215 39l43 -15v-866z" />
    <glyph glyph-name="paragraph" unicode="&#xb6;" horiz-adv-x="1173" 
d="M678 428h-119q-244 0 -377 118.5t-133 342.5t131.5 348t376.5 125h121v-934zM1126 1251l-157 -39v-983q0 -208 -104 -303.5t-285 -95.5q-210 0 -340 109l43 90q148 -74 297 -74q125 0 187 59.5t62 204.5v1143h297v-111z" />
    <glyph glyph-name="periodcentered" unicode="&#xb7;" horiz-adv-x="555" 
d="M299 764q56 0 94 -10q41 -58 41 -136q0 -86 -47 -157h-229l-39 266q72 37 180 37z" />
    <glyph glyph-name="cedilla" unicode="&#xb8;" horiz-adv-x="587" 
d="M334 12v-137q101 -1 146.5 -40t45.5 -101q0 -75 -63 -122.5t-180 -47.5q-142 0 -222 61l19 88q102 -26 141 -26q98 0 98 67q0 30 -27 44t-110 26l33 188h119z" />
    <glyph glyph-name="onesuperior" unicode="&#xb9;" horiz-adv-x="516" 
d="M485 864v-78h-432v78l133 23v432q-39 -8 -135 -8v92q57 2 118 25.5t97 72.5l90 -4v-623z" />
    <glyph glyph-name="ordmasculine" unicode="&#xba;" horiz-adv-x="802" 
d="M416 1165q109 0 185 -50t110 -129t34 -179q0 -171 -98.5 -275t-261.5 -104q-160 0 -244 100.5t-84 255.5q0 171 98.5 276t260.5 105zM401 1065q-72 0 -103.5 -63.5t-31.5 -204.5q0 -140 32 -204.5t105 -64.5q71 0 103.5 63.5t32.5 203.5t-33 205t-105 65z" />
    <glyph glyph-name="guillemotright" unicode="&#xbb;" horiz-adv-x="1161" 
d="M1057 594v-66l-332 -366l-111 71l168 328l-166 326l111 74zM592 594v-66l-332 -366l-110 71l167 328l-165 326l110 74z" />
    <glyph glyph-name="onequarter" unicode="&#xbc;" horiz-adv-x="1812" 
d="M1368 1364l14 -35q-316 -475 -440 -674q-72 -115 -210.5 -355t-205.5 -349l-112 45l-15 35q36 54 109.5 165t118.5 179t106 163t109 173q74 116 209.5 353t203.5 347zM592 623v-95h-526v95l161 26v522q-66 -14 -164 -14v111q71 4 145.5 33.5t117.5 87.5l110 -7v-749z
M1776 133h-123v-133h-205v133h-387l-8 86q131 311 243 647l191 -49l8 -37q-156 -306 -291 -516l6 -18q98 16 174 16h64v240l145 39l60 -9v-270h123v-129z" />
    <glyph glyph-name="onehalf" unicode="&#xbd;" horiz-adv-x="1890" 
d="M1368 1364l14 -35q-316 -475 -440 -674q-72 -115 -210.5 -355t-205.5 -349l-112 45l-15 35q36 54 109.5 165t118.5 179t106 163t109 173q74 116 209.5 353t203.5 347zM592 623v-95h-526v95l161 26v522q-66 -14 -164 -14v111q71 4 145.5 33.5t117.5 87.5l110 -7v-749z
M1710 240l115 -2q14 -52 14 -115q0 -71 -14 -123h-645l-11 111q14 11 59 46.5t64 51.5t59.5 50t60 55t51 54.5t47.5 60.5t33.5 60.5t24.5 67t7 68.5q0 133 -115 133q-23 0 -61 -10l-25 -189h-147q-53 38 -53 103q0 85 92 141.5t229 56.5q146 0 230.5 -66.5t84.5 -170.5
q0 -51 -24 -101.5t-60.5 -93.5t-102.5 -96t-128 -95t-160 -104l8 -18q130 23 187 26l164 13z" />
    <glyph glyph-name="threequarters" unicode="&#xbe;" horiz-adv-x="1927" 
d="M1483 1364l14 -35q-316 -475 -440 -674q-72 -115 -210.5 -355t-205.5 -349l-113 45l-14 35q29 44 108 163t120.5 182.5t103.5 160t110 174.5q74 116 210 353.5t204 346.5zM520 973v-21q197 -41 197 -192q0 -115 -103 -183.5t-268 -68.5q-132 0 -215.5 44.5t-83.5 127.5
q0 61 47 102h148l22 -166q30 -6 68 -6q74 0 114.5 34t40.5 116q0 74 -39 110.5t-135 36.5h-53v103h119q39 28 59.5 63t20.5 92q0 65 -29 92t-86 27q-37 0 -70 -8l-18 -162h-141q-52 45 -52 96q0 80 89 129.5t225 49.5q143 0 228 -60.5t85 -167.5q0 -137 -170 -188zM1890 133
h-123v-133h-204v133h-387l-9 86q136 323 244 647l191 -49l8 -37q-156 -306 -291 -516l6 -18q98 16 174 16h64v240l145 39l59 -9v-270h123v-129z" />
    <glyph glyph-name="questiondown" unicode="&#xbf;" horiz-adv-x="753" 
d="M371 817l-6 234q51 14 120 14q88 0 133 -23q25 -48 25 -98q0 -85 -63 -151zM190 78q0 -89 113 -128t356 -30v-242q-82 -16 -141 -16q-97 0 -175 28t-127.5 74.5t-83 109t-47 127t-13.5 134.5q0 71 15 119.5t54.5 88.5t98.5 70.5t157 65.5l15 172h141q72 -140 72 -239
q0 -58 -31 -89t-115 -63q-190 -76 -222 -93q-57 -31 -65 -68q-2 -10 -2 -21z" />
    <glyph glyph-name="Agrave" unicode="&#xc0;" horiz-adv-x="1425" 
d="M1407 111v-111h-569v111l137 36l-74 236h-510q-63 -210 -78 -258l136 -14v-111h-431v111l129 36q256 798 414 1207l232 35l36 -9q162 -397 449 -1255zM432 518h426q-118 365 -205 600h-22q-63 -171 -199 -600zM807 1473h-135l-307 239q45 92 116 131h133z" />
    <glyph glyph-name="Aacute" unicode="&#xc1;" horiz-adv-x="1425" 
d="M1407 111v-111h-569v111l137 36l-74 236h-510q-63 -210 -78 -258l136 -14v-111h-431v111l129 36q256 798 414 1207l232 35l36 -9q162 -397 449 -1255zM432 518h426q-118 365 -205 600h-22q-63 -171 -199 -600zM852 1843h133q72 -40 117 -131l-322 -239h-135z" />
    <glyph glyph-name="Acircumflex" unicode="&#xc2;" horiz-adv-x="1425" 
d="M1407 111v-111h-569v111l137 36l-74 236h-510q-63 -210 -78 -258l136 -14v-111h-431v111l129 36q256 798 414 1207l232 35l36 -9q162 -397 449 -1255zM432 518h426q-118 365 -205 600h-22q-63 -171 -199 -600zM1038 1540l-161 -94l-211 182h-21l-182 -155h-131l301 352
h155z" />
    <glyph glyph-name="Atilde" unicode="&#xc3;" horiz-adv-x="1425" 
d="M1407 111v-111h-569v111l137 36l-74 236h-510q-63 -210 -78 -258l136 -14v-111h-431v111l129 36q256 798 414 1207l232 35l36 -9q162 -397 449 -1255zM432 518h426q-118 365 -205 600h-22q-63 -171 -199 -600zM967 1782l69 -56q-17 -45 -33 -77t-42.5 -68t-63 -55
t-80.5 -19q-53 0 -110 25l-203 88l-101 -111l-71 56q17 45 33.5 77t42.5 68t63 55t82 19q52 0 109 -25l202 -88z" />
    <glyph glyph-name="Adieresis" unicode="&#xc4;" horiz-adv-x="1425" 
d="M1407 111v-111h-569v111l137 36l-74 236h-510q-63 -210 -78 -258l136 -14v-111h-431v111l129 36q256 798 414 1207l232 35l36 -9q162 -397 449 -1255zM432 518h426q-118 365 -205 600h-22q-63 -171 -199 -600zM451 1765q56 0 84 -12q32 -42 32 -111q0 -64 -47 -131h-184
l-31 228q72 26 146 26zM948 1765q54 0 84 -12q33 -44 33 -111q0 -64 -47 -131h-187l-30 228q76 26 147 26z" />
    <glyph glyph-name="Aring" unicode="&#xc5;" horiz-adv-x="1425" 
d="M1407 111v-111h-569v111l137 36l-74 236h-510q-63 -210 -78 -258l136 -14v-111h-431v111l129 36q256 798 414 1207l232 35l36 -9q162 -397 449 -1255zM432 518h426q-118 365 -205 600h-22q-63 -171 -199 -600zM698 1855q118 0 177 -49t59 -139q0 -100 -70 -150.5
t-192 -50.5q-119 0 -180.5 47.5t-61.5 135.5q0 101 75.5 153.5t192.5 52.5zM684 1757q-82 0 -82 -96t82 -96q39 0 60.5 26t21.5 72q0 94 -82 94z" />
    <glyph glyph-name="AE" unicode="&#xc6;" horiz-adv-x="1953" 
d="M1681 350l168 -12q9 -70 9 -119q0 -96 -27 -219h-1063v111l150 39v241h-474q-87 -181 -125 -266l134 -14v-111h-435v111l127 36q234 481 564 1088l-142 16v111h1268q10 -58 10 -143q0 -100 -16 -191h-162l-39 189l-430 16v-471l232 4l22 115h115v-379h-115l-25 125
l-229 6v-504l422 12zM918 524v697h-62q-163 -315 -348 -697h410z" />
    <glyph glyph-name="Ccedilla" unicode="&#xc7;" horiz-adv-x="1351" 
d="M1212 287l39 -105q-163 -185 -428 -207v-100q101 -1 147 -40t46 -101q0 -75 -63.5 -122.5t-180.5 -47.5q-141 0 -221 61l16 88q102 -26 142 -26q98 0 98 67q0 30 -27 44t-108 26h-2l26 151q-146 9 -262.5 66t-191 150.5t-113.5 215t-39 263.5q0 157 48 288t138 227
t228.5 150t310.5 54q200 0 389 -80q10 -52 10 -125q0 -113 -18 -215h-168l-51 254q-78 22 -160 22q-418 0 -418 -522q0 -281 116 -420t327 -139q192 0 370 123z" />
    <glyph glyph-name="Egrave" unicode="&#xc8;" horiz-adv-x="1280" 
d="M1010 350l168 -12q6 -47 6 -119q0 -97 -25 -219h-1077v111l149 39v1083l-151 18v111h1081q13 -57 13 -141q0 -96 -17 -193h-162l-41 191l-442 14v-471l246 4l22 115h113v-379h-113l-24 125l-244 4v-502l434 14zM762 1473h-135l-308 239q45 91 117 131h133z" />
    <glyph glyph-name="Eacute" unicode="&#xc9;" horiz-adv-x="1280" 
d="M1010 350l168 -12q6 -47 6 -119q0 -97 -25 -219h-1077v111l149 39v1083l-151 18v111h1081q13 -57 13 -141q0 -96 -17 -193h-162l-41 191l-442 14v-471l246 4l22 115h113v-379h-113l-24 125l-244 4v-502l434 14zM807 1843h133q72 -40 117 -131l-322 -239h-135z" />
    <glyph glyph-name="Ecircumflex" unicode="&#xca;" horiz-adv-x="1280" 
d="M1010 350l168 -12q6 -47 6 -119q0 -97 -25 -219h-1077v111l149 39v1083l-151 18v111h1081q13 -57 13 -141q0 -96 -17 -193h-162l-41 191l-442 14v-471l246 4l22 115h113v-379h-113l-24 125l-244 4v-502l434 14zM993 1540l-162 -94l-210 182h-21l-182 -155h-131l301 352
h155z" />
    <glyph glyph-name="Edieresis" unicode="&#xcb;" horiz-adv-x="1280" 
d="M1010 350l168 -12q6 -47 6 -119q0 -97 -25 -219h-1077v111l149 39v1083l-151 18v111h1081q13 -57 13 -141q0 -96 -17 -193h-162l-41 191l-442 14v-471l246 4l22 115h113v-379h-113l-24 125l-244 4v-502l434 14zM406 1765q55 0 83 -12q33 -44 33 -111q0 -64 -47 -131h-184
l-31 228q72 26 146 26zM903 1765q54 0 84 -12q33 -44 33 -111q0 -64 -47 -131h-187l-30 228q76 26 147 26z" />
    <glyph glyph-name="Igrave" unicode="&#xcc;" horiz-adv-x="743" 
d="M512 1212v-1087l152 -14v-111h-584v111l151 39v1087l-151 14v111h584v-111zM498 1473h-136l-307 239q45 91 117 131h133z" />
    <glyph glyph-name="Iacute" unicode="&#xcd;" horiz-adv-x="743" 
d="M512 1212v-1087l152 -14v-111h-584v111l151 39v1087l-151 14v111h584v-111zM543 1843h133q72 -40 117 -131l-322 -239h-135z" />
    <glyph glyph-name="Icircumflex" unicode="&#xce;" horiz-adv-x="743" 
d="M512 1212v-1087l152 -14v-111h-584v111l151 39v1087l-151 14v111h584v-111zM729 1540l-162 -94l-211 182h-20l-182 -155h-131l301 352h155z" />
    <glyph glyph-name="Idieresis" unicode="&#xcf;" horiz-adv-x="743" 
d="M512 1212v-1087l152 -14v-111h-584v111l151 39v1087l-151 14v111h584v-111zM141 1765q56 0 84 -12q33 -44 33 -111q0 -64 -47 -131h-184l-31 228q72 26 145 26zM639 1765q54 0 84 -12q33 -44 33 -111q0 -64 -47 -131h-187l-30 228q76 26 147 26z" />
    <glyph glyph-name="Eth" unicode="&#xd0;" horiz-adv-x="1499" 
d="M618 1378q791 0 791 -665q0 -336 -186 -524.5t-553 -188.5h-568v111l152 39v489h-152v133h152v463l-152 14v111q274 18 516 18zM535 135h135q234 0 332 131.5t98 431.5q0 285 -94.5 415t-319.5 130h-151v-471h264v-133h-264v-504z" />
    <glyph glyph-name="Ntilde" unicode="&#xd1;" horiz-adv-x="1556" 
d="M1493 1251l-150 -37v-1206l-233 -35l-41 9l-516 888q-86 151 -154 312h-20l22 -1057l177 -14v-111h-498v111l151 39v1085l-151 16v111h520l406 -707q104 -183 170 -329h22l-22 911l-179 14v111h496v-111zM1057 1782l69 -56q-17 -45 -33 -77t-42.5 -68t-63 -55t-80.5 -19
q-53 0 -110 25l-203 88l-100 -111l-72 56q17 45 33.5 77t42.5 68t63 55t82 19q52 0 109 -25l202 -88z" />
    <glyph glyph-name="Ograve" unicode="&#xd2;" horiz-adv-x="1550" 
d="M803 1389q161 0 287.5 -52.5t206.5 -145.5t121.5 -216.5t41.5 -269.5q0 -330 -196.5 -531t-515.5 -201q-128 0 -235.5 35t-185 97.5t-131.5 149.5t-80 190.5t-26 220.5q0 327 195.5 525t517.5 198zM774 1245q-180 0 -276.5 -138t-96.5 -423t97 -426t276 -141t276 141
t97 426t-96.5 423t-276.5 138zM897 1473h-135l-307 239q45 92 116 131h134z" />
    <glyph glyph-name="Oacute" unicode="&#xd3;" horiz-adv-x="1550" 
d="M803 1389q161 0 287.5 -52.5t206.5 -145.5t121.5 -216.5t41.5 -269.5q0 -330 -196.5 -531t-515.5 -201q-128 0 -235.5 35t-185 97.5t-131.5 149.5t-80 190.5t-26 220.5q0 327 195.5 525t517.5 198zM774 1245q-180 0 -276.5 -138t-96.5 -423t97 -426t276 -141t276 141
t97 426t-96.5 423t-276.5 138zM942 1843h133q72 -40 117 -131l-322 -239h-135z" />
    <glyph glyph-name="Ocircumflex" unicode="&#xd4;" horiz-adv-x="1550" 
d="M803 1389q161 0 287.5 -52.5t206.5 -145.5t121.5 -216.5t41.5 -269.5q0 -330 -196.5 -531t-515.5 -201q-128 0 -235.5 35t-185 97.5t-131.5 149.5t-80 190.5t-26 220.5q0 327 195.5 525t517.5 198zM774 1245q-180 0 -276.5 -138t-96.5 -423t97 -426t276 -141t276 141
t97 426t-96.5 423t-276.5 138zM1128 1540l-161 -94l-211 182h-21l-182 -155h-131l301 352h156z" />
    <glyph glyph-name="Otilde" unicode="&#xd5;" horiz-adv-x="1550" 
d="M803 1389q161 0 287.5 -52.5t206.5 -145.5t121.5 -216.5t41.5 -269.5q0 -330 -196.5 -531t-515.5 -201q-128 0 -235.5 35t-185 97.5t-131.5 149.5t-80 190.5t-26 220.5q0 327 195.5 525t517.5 198zM774 1245q-180 0 -276.5 -138t-96.5 -423t97 -426t276 -141t276 141
t97 426t-96.5 423t-276.5 138zM1057 1782l69 -56q-17 -45 -33 -77t-42.5 -68t-63 -55t-80.5 -19q-53 0 -110 25l-203 88l-100 -111l-72 56q17 45 33.5 77t42.5 68t63 55t82 19q52 0 109 -25l202 -88z" />
    <glyph glyph-name="Odieresis" unicode="&#xd6;" horiz-adv-x="1550" 
d="M803 1389q161 0 287.5 -52.5t206.5 -145.5t121.5 -216.5t41.5 -269.5q0 -330 -196.5 -531t-515.5 -201q-128 0 -235.5 35t-185 97.5t-131.5 149.5t-80 190.5t-26 220.5q0 327 195.5 525t517.5 198zM774 1245q-180 0 -276.5 -138t-96.5 -423t97 -426t276 -141t276 141
t97 426t-96.5 423t-276.5 138zM541 1765q56 0 84 -12q32 -42 32 -111q0 -64 -47 -131h-184l-31 228q72 26 146 26zM1038 1765q54 0 84 -12q33 -44 33 -111q0 -64 -47 -131h-186l-31 228q76 26 147 26z" />
    <glyph glyph-name="multiply" unicode="&#xd7;" 
d="M1067 930l-313 -324l319 -321l-121 -115l-315 324l-324 -324l-120 117l317 323l-324 320l123 114l316 -321l319 321z" />
    <glyph glyph-name="Oslash" unicode="&#xd8;" horiz-adv-x="1550" 
d="M1393 1446l-144 -207q104 -92 157.5 -229.5t53.5 -304.5q0 -330 -196.5 -531t-515.5 -201q-196 0 -347 82l-151 -215l-100 45l-13 33l154 221q-99 93 -150 229t-51 298q0 327 195.5 525t517.5 198q185 0 332 -72l145 207l100 -47zM782 1245q-190 0 -285.5 -135
t-95.5 -436q0 -210 45 -332l574 817q-86 86 -238 86zM766 117q190 0 285.5 137.5t95.5 439.5q0 219 -49 344l-580 -823q85 -98 248 -98z" />
    <glyph glyph-name="Ugrave" unicode="&#xd9;" horiz-adv-x="1478" 
d="M1432 1251l-152 -39v-763q0 -218 -140.5 -347t-398.5 -129q-261 0 -401.5 131.5t-140.5 358.5v774l-152 14v111h584v-111l-152 -39v-761q0 -176 79.5 -258t234.5 -82q317 0 317 338v788l-172 14v111h494v-111zM899 1473h-135l-307 239q45 92 116 131h134z" />
    <glyph glyph-name="Uacute" unicode="&#xda;" horiz-adv-x="1478" 
d="M1432 1251l-152 -39v-763q0 -218 -140.5 -347t-398.5 -129q-261 0 -401.5 131.5t-140.5 358.5v774l-152 14v111h584v-111l-152 -39v-761q0 -176 79.5 -258t234.5 -82q317 0 317 338v788l-172 14v111h494v-111zM944 1843h133q72 -40 117 -131l-322 -239h-135z" />
    <glyph glyph-name="Ucircumflex" unicode="&#xdb;" horiz-adv-x="1478" 
d="M1432 1251l-152 -39v-763q0 -218 -140.5 -347t-398.5 -129q-261 0 -401.5 131.5t-140.5 358.5v774l-152 14v111h584v-111l-152 -39v-761q0 -176 79.5 -258t234.5 -82q317 0 317 338v788l-172 14v111h494v-111zM1130 1540l-161 -94l-211 182h-21l-182 -155h-131l301 352
h156z" />
    <glyph glyph-name="Udieresis" unicode="&#xdc;" horiz-adv-x="1478" 
d="M1432 1251l-152 -39v-763q0 -218 -140.5 -347t-398.5 -129q-261 0 -401.5 131.5t-140.5 358.5v774l-152 14v111h584v-111l-152 -39v-761q0 -176 79.5 -258t234.5 -82q317 0 317 338v788l-172 14v111h494v-111zM543 1765q56 0 84 -12q32 -42 32 -111q0 -64 -47 -131h-184
l-31 228q72 26 146 26zM1040 1765q54 0 84 -12q33 -44 33 -111q0 -64 -47 -131h-186l-31 228q76 26 147 26z" />
    <glyph glyph-name="Yacute" unicode="&#xdd;" horiz-adv-x="1388" 
d="M1352 1251l-119 -37q-173 -363 -379 -725v-364l170 -14v-111h-625v111l172 39h2v319q-209 373 -405 768l-131 14v111h569v-111l-129 -32q118 -259 285 -568h22q141 252 287 586l-172 14v111h453v-111zM879 1843h133q71 -39 116 -131l-321 -239h-135z" />
    <glyph glyph-name="Thorn" unicode="&#xde;" horiz-adv-x="1284" 
d="M512 1153h129q295 0 433 -104t138 -322q0 -211 -118.5 -328.5t-333.5 -117.5q-118 0 -164 12v119h59q126 0 188 74.5t62 238.5q0 147 -58 219t-200 72h-135v-891l168 -14v-111h-598v111l149 39v1087l-151 14v111h403l29 -37v-172z" />
    <glyph glyph-name="germandbls" unicode="&#xdf;" horiz-adv-x="1304" 
d="M1032 647q232 -107 232 -321q0 -163 -113.5 -258t-294.5 -95q-56 0 -106 10t-93 31.5t-68.5 60t-25.5 89.5q0 83 55 121h109l27 -193q62 -10 100 -10q78 0 119 41.5t41 118.5q0 57 -28.5 96t-111.5 96q-53 36 -78.5 54t-58 46t-46.5 49.5t-24 51.5t-10 65q0 32 6 58
t24.5 56t27 41.5t39.5 49.5q50 64 75 129t25 162q0 130 -47.5 183t-138.5 53q-121 0 -169 -76.5t-48 -222.5v-1133h-390v100l132 37v762l-138 19v104l138 29q0 233 147 362t389 129q190 0 294.5 -80t104.5 -227q0 -61 -18 -112t-54 -90.5t-69.5 -65t-83.5 -56.5
q-41 -26 -58.5 -45t-17.5 -53q0 -45 38.5 -74t166.5 -92z" />
    <glyph glyph-name="agrave" unicode="&#xe0;" horiz-adv-x="1097" 
d="M1063 139v-102q-121 -53 -217 -53q-80 0 -118 33t-38 102v26h-22q-117 -172 -314 -172q-136 0 -210 73t-74 194q0 86 40 148.5t109 97t149 50t173 15.5q79 0 137 -8v194q1 115 -49.5 163t-147.5 48q-44 0 -88 -8l-33 -246h-170q-65 51 -65 123t61 130t157.5 88t205.5 30
q182 0 284 -87.5t101 -248.5l-6 -571zM463 139q116 0 213 111v203h-47q-153 0 -220 -45t-67 -138q0 -70 29.5 -100.5t91.5 -30.5zM647 1174h-123l-309 286q48 97 123 133h131z" />
    <glyph glyph-name="aacute" unicode="&#xe1;" horiz-adv-x="1097" 
d="M1063 139v-102q-121 -53 -217 -53q-80 0 -118 33t-38 102v26h-22q-117 -172 -314 -172q-136 0 -210 73t-74 194q0 86 40 148.5t109 97t149 50t173 15.5q79 0 137 -8v194q1 115 -49.5 163t-147.5 48q-44 0 -88 -8l-33 -246h-170q-65 51 -65 123t61 130t157.5 88t205.5 30
q182 0 284 -87.5t101 -248.5l-6 -571zM463 139q116 0 213 111v203h-47q-153 0 -220 -45t-67 -138q0 -70 29.5 -100.5t91.5 -30.5zM647 1593h133q72 -44 117 -133l-311 -286h-123z" />
    <glyph glyph-name="acircumflex" unicode="&#xe2;" horiz-adv-x="1097" 
d="M1063 139v-102q-121 -53 -217 -53q-80 0 -118 33t-38 102v26h-22q-117 -172 -314 -172q-136 0 -210 73t-74 194q0 86 40 148.5t109 97t149 50t173 15.5q79 0 137 -8v194q1 115 -49.5 163t-147.5 48q-44 0 -88 -8l-33 -246h-170q-65 51 -65 123t61 130t157.5 88t205.5 30
q182 0 284 -87.5t101 -248.5l-6 -571zM463 139q116 0 213 111v203h-47q-153 0 -220 -45t-67 -138q0 -70 29.5 -100.5t91.5 -30.5zM877 1241l-162 -88l-189 221h-22l-164 -200h-123l275 403h155z" />
    <glyph glyph-name="atilde" unicode="&#xe3;" horiz-adv-x="1097" 
d="M1063 139v-102q-121 -53 -217 -53q-80 0 -118 33t-38 102v26h-22q-117 -172 -314 -172q-136 0 -210 73t-74 194q0 86 40 148.5t109 97t149 50t173 15.5q79 0 137 -8v194q1 115 -49.5 163t-147.5 48q-44 0 -88 -8l-33 -246h-170q-65 51 -65 123t61 130t157.5 88t205.5 30
q182 0 284 -87.5t101 -248.5l-6 -571zM463 139q116 0 213 111v203h-47q-153 0 -220 -45t-67 -138q0 -70 29.5 -100.5t91.5 -30.5zM809 1501l70 -55q-82 -225 -222 -225q-45 0 -102 28l-166 84l-100 -112l-72 55q12 33 24.5 60t32.5 59.5t42 54t54 36.5t68 15q52 0 103 -26
l168 -84z" />
    <glyph glyph-name="adieresis" unicode="&#xe4;" horiz-adv-x="1097" 
d="M1063 139v-102q-121 -53 -217 -53q-80 0 -118 33t-38 102v26h-22q-117 -172 -314 -172q-136 0 -210 73t-74 194q0 86 40 148.5t109 97t149 50t173 15.5q79 0 137 -8v194q1 115 -49.5 163t-147.5 48q-44 0 -88 -8l-33 -246h-170q-65 51 -65 123t61 130t157.5 88t205.5 30
q182 0 284 -87.5t101 -248.5l-6 -571zM463 139q116 0 213 111v203h-47q-153 0 -220 -45t-67 -138q0 -70 29.5 -100.5t91.5 -30.5zM346 1499q55 0 84 -10q33 -61 33 -109q0 -63 -49 -133h-183l-30 226q72 26 145 26zM778 1499q55 0 84 -10q33 -53 33 -109q0 -63 -49 -133
h-182l-31 226q72 26 145 26z" />
    <glyph glyph-name="aring" unicode="&#xe5;" horiz-adv-x="1097" 
d="M1063 139v-102q-121 -53 -217 -53q-80 0 -118 33t-38 102v26h-22q-117 -172 -314 -172q-136 0 -210 73t-74 194q0 86 40 148.5t109 97t149 50t173 15.5q79 0 137 -8v194q1 115 -49.5 163t-147.5 48q-44 0 -88 -8l-33 -246h-170q-65 51 -65 123t61 130t157.5 88t205.5 30
q182 0 284 -87.5t101 -248.5l-6 -571zM463 139q116 0 213 111v203h-47q-153 0 -220 -45t-67 -138q0 -70 29.5 -100.5t91.5 -30.5zM563 1608q116 0 176 -52.5t60 -148.5q0 -107 -71 -163t-191 -56q-118 0 -180 52.5t-62 148.5q0 109 75 164t193 55zM549 1507q-82 0 -82 -108
q0 -111 80 -111q84 0 84 113q0 106 -82 106z" />
    <glyph glyph-name="ae" unicode="&#xe6;" horiz-adv-x="1640" 
d="M1223 156q128 0 290 94l37 -92q-157 -185 -417 -185q-279 0 -392 205h-26q-52 -92 -140.5 -148.5t-212.5 -56.5q-142 0 -217 72.5t-75 196.5q0 46 12 85t30.5 68.5t49.5 53.5t61 40.5t74.5 29.5t80 21t87 14t85.5 9t85 6l35 2l4 152q8 225 -201 225q-47 0 -80 -8
l-33 -246h-172q-65 49 -65 123q0 70 57.5 128t148.5 89t193 31q124 0 198 -47t99 -127h25q43 77 128.5 125.5t209.5 48.5q183 0 275.5 -103t92.5 -270q0 -96 -24 -176l-604 -20q13 -169 91.5 -254.5t209.5 -85.5zM1141 940q-93 0 -154 -86.5t-67 -257.5l378 39v18
q0 148 -39 217.5t-118 69.5zM467 139q125 0 231 140q-25 96 -28 196l-13 -2q-174 -14 -244.5 -62t-70.5 -137q0 -71 31 -103t94 -32z" />
    <glyph glyph-name="ccedilla" unicode="&#xe7;" horiz-adv-x="1044" 
d="M934 244l35 -92q-133 -155 -340 -175v-102q101 -1 146.5 -40t45.5 -101q0 -75 -63 -122.5t-180 -47.5q-142 0 -222 61l17 88q102 -26 141 -26q98 0 98 67q0 30 -27 44t-108 26h-2l29 153q-108 9 -191.5 53.5t-134.5 115.5t-76.5 160t-25.5 192q0 261 147.5 414t378.5 153
q93 0 170.5 -23.5t130.5 -80t53 -138.5q0 -93 -67 -141h-178l-29 258q-27 6 -64 6q-123 0 -190.5 -95.5t-67.5 -287.5q0 -206 75.5 -307.5t217.5 -101.5q128 0 281 90z" />
    <glyph glyph-name="egrave" unicode="&#xe8;" horiz-adv-x="1085" 
d="M659 156q133 0 299 94l37 -92q-157 -185 -422 -185q-127 0 -224.5 41t-156 114.5t-87.5 167t-29 204.5q0 261 147.5 413t386.5 152q195 0 290 -101.5t95 -269.5q0 -94 -24 -170h-621q9 -183 88.5 -275.5t220.5 -92.5zM578 940q-91 0 -153.5 -79.5t-72.5 -233.5l387 18v21
q0 139 -39 206.5t-122 67.5zM674 1174h-123l-309 286q48 97 123 133h131z" />
    <glyph glyph-name="eacute" unicode="&#xe9;" horiz-adv-x="1085" 
d="M659 156q133 0 299 94l37 -92q-157 -185 -422 -185q-127 0 -224.5 41t-156 114.5t-87.5 167t-29 204.5q0 261 147.5 413t386.5 152q195 0 290 -101.5t95 -269.5q0 -94 -24 -170h-621q9 -183 88.5 -275.5t220.5 -92.5zM578 940q-91 0 -153.5 -79.5t-72.5 -233.5l387 18v21
q0 139 -39 206.5t-122 67.5zM674 1593h133q72 -44 117 -133l-312 -286h-123z" />
    <glyph glyph-name="ecircumflex" unicode="&#xea;" horiz-adv-x="1085" 
d="M659 156q133 0 299 94l37 -92q-157 -185 -422 -185q-127 0 -224.5 41t-156 114.5t-87.5 167t-29 204.5q0 261 147.5 413t386.5 152q195 0 290 -101.5t95 -269.5q0 -94 -24 -170h-621q9 -183 88.5 -275.5t220.5 -92.5zM578 940q-91 0 -153.5 -79.5t-72.5 -233.5l387 18v21
q0 139 -39 206.5t-122 67.5zM903 1241l-162 -88l-188 221h-23l-163 -200h-123l274 403h156z" />
    <glyph glyph-name="edieresis" unicode="&#xeb;" horiz-adv-x="1085" 
d="M659 156q133 0 299 94l37 -92q-157 -185 -422 -185q-127 0 -224.5 41t-156 114.5t-87.5 167t-29 204.5q0 261 147.5 413t386.5 152q195 0 290 -101.5t95 -269.5q0 -94 -24 -170h-621q9 -183 88.5 -275.5t220.5 -92.5zM578 940q-91 0 -153.5 -79.5t-72.5 -233.5l387 18v21
q0 139 -39 206.5t-122 67.5zM373 1499q55 0 84 -10q32 -59 32 -109q0 -63 -49 -133h-182l-31 226q72 26 146 26zM805 1499q55 0 84 -10q33 -53 33 -109q0 -62 -50 -133h-182l-31 226q72 26 146 26z" />
    <glyph glyph-name="igrave" unicode="&#xec;" horiz-adv-x="628" 
d="M594 106v-106h-533v106l132 39v715l-132 43v105q168 42 345 51l45 -15v-921zM397 1174h-123l-299 286q48 97 123 133h131z" />
    <glyph glyph-name="iacute" unicode="&#xed;" horiz-adv-x="628" 
d="M594 106v-106h-533v106l132 39v715l-132 43v105q168 42 345 51l45 -15v-921zM379 1593h131q78 -43 119 -133l-289 -286h-123z" />
    <glyph glyph-name="icircumflex" unicode="&#xee;" horiz-adv-x="628" 
d="M594 106v-106h-533v106l132 39v715l-132 43v105q168 42 345 51l45 -15v-921zM569 1253l-161 -88l-146 201h-22l-121 -180h-123l229 391h158z" />
    <glyph glyph-name="idieresis" unicode="&#xef;" horiz-adv-x="628" 
d="M594 106v-106h-533v106l132 39v715l-132 43v105q168 42 345 51l45 -15v-921zM119 1499q57 0 82 -10q32 -51 32 -109q0 -63 -49 -133h-174l-28 226q72 26 137 26zM508 1499q55 0 84 -10q33 -61 33 -109q0 -63 -52 -133h-172l-30 226q70 26 137 26z" />
    <glyph glyph-name="eth" unicode="&#xf0;" horiz-adv-x="1191" 
d="M930 1454l-209 -113q113 -80 194 -180.5t122.5 -204t60 -196.5t18.5 -185q0 -273 -146 -438.5t-395 -165.5q-107 0 -197 32.5t-158 96t-106 165.5t-38 233q0 232 114 365.5t308 133.5q174 0 282 -112h23q-45 199 -254 364l-203 -108l-104 59l-9 31l195 104
q-104 68 -254 135l53 84q205 -48 365 -131l227 121l105 -59zM594 96q244 0 244 414q0 127 -25 258q-114 82 -225 82t-168.5 -85t-57.5 -284q0 -385 232 -385z" />
    <glyph glyph-name="ntilde" unicode="&#xf1;" horiz-adv-x="1277" 
d="M1260 106v-106h-519v106l113 39v537q0 197 -178 197q-132 0 -225 -107v-651l129 -15v-106h-519v106l132 39v715l-132 43v105q208 46 336 51l45 -15l-10 -155h23q132 176 333 176q150 0 237 -87t87 -247v-610zM915 1501l70 -55q-16 -43 -32.5 -77t-43 -70.5t-64 -57
t-81.5 -20.5q-45 0 -102 28l-166 84l-101 -112l-71 55q12 33 24.5 60t32.5 59.5t42 54t54 36.5t68 15q51 0 102 -26l168 -84z" />
    <glyph glyph-name="ograve" unicode="&#xf2;" horiz-adv-x="1198" 
d="M625 1065q125 0 221.5 -41t156 -114t89.5 -166.5t30 -204.5q0 -255 -150 -410.5t-399 -155.5q-125 0 -221.5 41.5t-156 114.5t-89.5 167.5t-30 205.5q0 255 149.5 409t399.5 154zM600 940q-121 0 -177 -100.5t-56 -317.5q0 -219 56 -321.5t177 -102.5q122 0 178 102.5
t56 321.5q0 218 -55.5 318t-178.5 100zM700 1174h-122l-310 286q48 97 123 133h131z" />
    <glyph glyph-name="oacute" unicode="&#xf3;" horiz-adv-x="1198" 
d="M625 1065q125 0 221.5 -41t156 -114t89.5 -166.5t30 -204.5q0 -255 -150 -410.5t-399 -155.5q-125 0 -221.5 41.5t-156 114.5t-89.5 167.5t-30 205.5q0 255 149.5 409t399.5 154zM600 940q-121 0 -177 -100.5t-56 -317.5q0 -219 56 -321.5t177 -102.5q122 0 178 102.5
t56 321.5q0 218 -55.5 318t-178.5 100zM700 1593h134q70 -43 116 -133l-311 -286h-123z" />
    <glyph glyph-name="ocircumflex" unicode="&#xf4;" horiz-adv-x="1198" 
d="M625 1065q125 0 221.5 -41t156 -114t89.5 -166.5t30 -204.5q0 -255 -150 -410.5t-399 -155.5q-125 0 -221.5 41.5t-156 114.5t-89.5 167.5t-30 205.5q0 255 149.5 409t399.5 154zM600 940q-121 0 -177 -100.5t-56 -317.5q0 -219 56 -321.5t177 -102.5q122 0 178 102.5
t56 321.5q0 218 -55.5 318t-178.5 100zM930 1241l-162 -88l-188 221h-23l-164 -200h-123l275 403h155z" />
    <glyph glyph-name="otilde" unicode="&#xf5;" horiz-adv-x="1198" 
d="M625 1065q125 0 221.5 -41t156 -114t89.5 -166.5t30 -204.5q0 -255 -150 -410.5t-399 -155.5q-125 0 -221.5 41.5t-156 114.5t-89.5 167.5t-30 205.5q0 255 149.5 409t399.5 154zM600 940q-121 0 -177 -100.5t-56 -317.5q0 -219 56 -321.5t177 -102.5q122 0 178 102.5
t56 321.5q0 218 -55.5 318t-178.5 100zM862 1501l70 -55q-16 -43 -32.5 -77t-43 -70.5t-64 -57t-81.5 -20.5q-46 0 -103 28l-166 84l-100 -112l-72 55q16 43 33 76t43.5 70.5t64 58t81.5 20.5q51 0 102 -26l168 -84z" />
    <glyph glyph-name="odieresis" unicode="&#xf6;" horiz-adv-x="1198" 
d="M625 1065q125 0 221.5 -41t156 -114t89.5 -166.5t30 -204.5q0 -255 -150 -410.5t-399 -155.5q-125 0 -221.5 41.5t-156 114.5t-89.5 167.5t-30 205.5q0 255 149.5 409t399.5 154zM600 940q-121 0 -177 -100.5t-56 -317.5q0 -219 56 -321.5t177 -102.5q122 0 178 102.5
t56 321.5q0 218 -55.5 318t-178.5 100zM399 1499q55 0 84 -10q33 -61 33 -109q0 -63 -49 -133h-182l-31 226q72 26 145 26zM831 1499q55 0 84 -10q33 -53 33 -109q0 -63 -49 -133h-182l-31 226q72 26 145 26z" />
    <glyph glyph-name="divide" unicode="&#xf7;" 
d="M653 1159q50 0 88 -10q39 -53 39 -123q0 -80 -47 -145h-219l-37 241q72 37 176 37zM1137 530h-1016v156h1016v-156zM653 369q51 0 88 -13q39 -62 39 -120q0 -81 -47 -146h-219l-37 242q72 37 176 37z" />
    <glyph glyph-name="oslash" unicode="&#xf8;" horiz-adv-x="1198" 
d="M1057 1153l-113 -188q89 -70 133.5 -181t44.5 -245q0 -255 -150 -410.5t-399 -155.5q-123 0 -219 41l-110 -184l-101 45l-14 29l109 182q-81 70 -121.5 178t-40.5 238q0 255 149.5 409t399.5 154q104 0 198 -33l119 195l100 -45zM604 940q-133 0 -189.5 -100.5
t-56.5 -327.5q0 -126 19 -219l362 608q-48 39 -135 39zM594 98q133 0 190.5 101.5t57.5 328.5q0 158 -27 252l-375 -624q55 -58 154 -58z" />
    <glyph glyph-name="ugrave" unicode="&#xf9;" horiz-adv-x="1261" 
d="M1217 141v-106q-181 -44 -338 -53l-45 16l10 156h-23q-136 -181 -334 -181q-150 0 -235.5 88t-85.5 250v549l-131 43v105q207 46 344 51l45 -15v-686q0 -198 176 -198q127 0 225 110v594l-118 39v105q214 47 333 51l43 -15v-866zM696 1174h-123l-309 286q48 97 123 133
h131z" />
    <glyph glyph-name="uacute" unicode="&#xfa;" horiz-adv-x="1261" 
d="M1217 141v-106q-181 -44 -338 -53l-45 16l10 156h-23q-136 -181 -334 -181q-150 0 -235.5 88t-85.5 250v549l-131 43v105q207 46 344 51l45 -15v-686q0 -198 176 -198q127 0 225 110v594l-118 39v105q214 47 333 51l43 -15v-866zM696 1593h133q72 -44 117 -133l-311 -286
h-123z" />
    <glyph glyph-name="ucircumflex" unicode="&#xfb;" horiz-adv-x="1261" 
d="M1217 141v-106q-181 -44 -338 -53l-45 16l10 156h-23q-136 -181 -334 -181q-150 0 -235.5 88t-85.5 250v549l-131 43v105q207 46 344 51l45 -15v-686q0 -198 176 -198q127 0 225 110v594l-118 39v105q214 47 333 51l43 -15v-866zM926 1241l-162 -88l-189 221h-22
l-164 -200h-123l275 403h155z" />
    <glyph glyph-name="udieresis" unicode="&#xfc;" horiz-adv-x="1261" 
d="M1217 141v-106q-181 -44 -338 -53l-45 16l10 156h-23q-136 -181 -334 -181q-150 0 -235.5 88t-85.5 250v549l-131 43v105q207 46 344 51l45 -15v-686q0 -198 176 -198q127 0 225 110v594l-118 39v105q214 47 333 51l43 -15v-866zM395 1499q55 0 84 -10q33 -61 33 -109
q0 -63 -49 -133h-182l-31 226q72 26 145 26zM827 1499q55 0 84 -10q33 -53 33 -109q0 -63 -49 -133h-182l-31 226q72 26 145 26z" />
    <glyph glyph-name="yacute" unicode="&#xfd;" horiz-adv-x="1179" 
d="M1167 924l-125 -35q-175 -510 -370 -963q-81 -182 -185.5 -272t-220.5 -90q-104 0 -155 69l14 129h324q53 85 83 168q-91 196 -202.5 475.5t-190.5 505.5l-127 13v108h492v-108l-82 -33q111 -342 229 -645h25q129 349 217 665l-145 13v108h419v-108zM705 1593h133
q70 -43 116 -133l-311 -286h-123z" />
    <glyph glyph-name="thorn" unicode="&#xfe;" horiz-adv-x="1228" 
d="M752 1065q188 0 287.5 -137t99.5 -367q0 -174 -56.5 -305.5t-170.5 -207t-273 -75.5q-122 0 -221 41v-303l151 -14v-107h-540v107l131 39v1614l-133 32v105q185 49 348 55l43 -16v-377q0 -94 -19 -260h23q128 176 330 176zM600 98q258 0 258 416q0 137 -27.5 219.5
t-74 114t-117.5 31.5q-125 0 -221 -107v-627q80 -47 182 -47z" />
    <glyph glyph-name="ydieresis" unicode="&#xff;" horiz-adv-x="1179" 
d="M1167 924l-125 -35q-175 -510 -370 -963q-81 -182 -185.5 -272t-220.5 -90q-104 0 -155 69l14 129h324q53 85 83 168q-91 196 -202.5 475.5t-190.5 505.5l-127 13v108h492v-108l-82 -33q111 -342 229 -645h25q129 349 217 665l-145 13v108h419v-108zM403 1499
q55 0 84 -10q33 -61 33 -109q0 -63 -49 -133h-182l-31 226q72 26 145 26zM836 1499q55 0 84 -10q32 -51 32 -109q0 -63 -49 -133h-182l-31 226q72 26 146 26z" />
    <glyph glyph-name="Amacron" unicode="&#x100;" horiz-adv-x="1425" 
d="M1407 111v-111h-569v111l137 36l-74 236h-510q-63 -210 -78 -258l136 -14v-111h-431v111l129 36q256 798 414 1207l232 35l36 -9q162 -397 449 -1255zM432 518h426q-118 365 -205 600h-22q-63 -171 -199 -600zM373 1722h624q9 -35 9 -82q0 -48 -9 -86h-624q-8 33 -8 86
q0 51 8 82z" />
    <glyph glyph-name="amacron" unicode="&#x101;" horiz-adv-x="1097" 
d="M1063 139v-102q-121 -53 -217 -53q-80 0 -118 33t-38 102v26h-22q-117 -172 -314 -172q-136 0 -210 73t-74 194q0 86 40 148.5t109 97t149 50t173 15.5q79 0 137 -8v194q1 115 -49.5 163t-147.5 48q-44 0 -88 -8l-33 -246h-170q-65 51 -65 123t61 130t157.5 88t205.5 30
q182 0 284 -87.5t101 -248.5l-6 -571zM463 139q116 0 213 111v203h-47q-153 0 -220 -45t-67 -138q0 -70 29.5 -100.5t91.5 -30.5zM258 1432h576q10 -42 10 -82q0 -42 -10 -84h-576q-8 33 -8 84q0 49 8 82z" />
    <glyph glyph-name="Abreve" unicode="&#x102;" horiz-adv-x="1425" 
d="M1407 111v-111h-569v111l137 36l-74 236h-510q-63 -210 -78 -258l136 -14v-111h-431v111l129 36q256 798 414 1207l232 35l36 -9q162 -397 449 -1255zM432 518h426q-118 365 -205 600h-22q-63 -171 -199 -600zM362 1765l175 39q21 -89 65 -130.5t125 -41.5q84 0 131 43
t72 127l90 -20q-17 -149 -108.5 -229t-237.5 -80q-144 0 -224 75.5t-88 216.5z" />
    <glyph glyph-name="abreve" unicode="&#x103;" horiz-adv-x="1097" 
d="M1063 139v-102q-121 -53 -217 -53q-80 0 -118 33t-38 102v26h-22q-117 -172 -314 -172q-136 0 -210 73t-74 194q0 86 40 148.5t109 97t149 50t173 15.5q79 0 137 -8v194q1 115 -49.5 163t-147.5 48q-44 0 -88 -8l-33 -246h-170q-65 51 -65 123t61 130t157.5 88t205.5 30
q182 0 284 -87.5t101 -248.5l-6 -571zM463 139q116 0 213 111v203h-47q-153 0 -220 -45t-67 -138q0 -70 29.5 -100.5t91.5 -30.5zM242 1513l174 37q14 -102 53.5 -150t116.5 -48q79 0 120.5 48t61.5 148l88 -22q-12 -164 -97.5 -249t-223.5 -85t-213.5 81.5t-79.5 239.5z
" />
    <glyph glyph-name="Aogonek" unicode="&#x104;" horiz-adv-x="1425" 
d="M1405 0h-377q-65 -92 -65 -180q0 -125 131 -125q58 0 110 18l19 -94q-93 -55 -217 -55q-126 0 -194.5 56.5t-68.5 152.5q0 180 246 325q-82 266 -88 285h-510q-63 -210 -78 -258l136 -14v-111h-431v111l129 36q256 798 414 1207l232 35l36 -9q162 -397 449 -1255l127 -14
v-111zM432 518h426q-118 365 -205 600h-22q-63 -171 -199 -600z" />
    <glyph glyph-name="aogonek" unicode="&#x105;" horiz-adv-x="1097" 
d="M1063 139v-104q-135 -46 -208 -102t-73 -136q0 -102 123 -102q55 0 111 18l18 -94q-93 -55 -221 -55q-123 0 -185.5 49.5t-62.5 138.5q0 75 43.5 132t110.5 91l-27 170h-24q-120 -172 -316 -172q-135 0 -208.5 73.5t-73.5 193.5q0 86 40 148.5t109 97t149 50t173 15.5
q79 0 137 -8v194q3 115 -48 163t-149 48q-42 0 -86 -8l-35 -246h-170q-65 51 -65 123t61 130t157.5 88t205.5 30q182 0 284 -87.5t101 -248.5l-6 -571zM463 139q116 0 213 111v203h-47q-153 0 -220 -45t-67 -138q0 -70 29.5 -100.5t91.5 -30.5z" />
    <glyph glyph-name="Cacute" unicode="&#x106;" horiz-adv-x="1351" 
d="M1212 287l39 -105q-185 -209 -499 -209q-160 0 -287 53.5t-208 148.5t-124 221t-43 274q0 157 48 288t138 227t228.5 150t310.5 54q200 0 389 -80q10 -52 10 -125q0 -113 -18 -215h-168l-51 254q-78 22 -160 22q-418 0 -418 -522q0 -281 116 -420t327 -139q192 0 370 123
zM920 1843h133q71 -39 116 -131l-321 -239h-135z" />
    <glyph glyph-name="cacute" unicode="&#x107;" horiz-adv-x="1044" 
d="M934 244l35 -92q-152 -179 -406 -179q-123 0 -218 41.5t-153 114t-87 166t-29 203.5q0 261 147.5 414t378.5 153q93 0 170.5 -23.5t130.5 -80t53 -138.5q0 -93 -67 -141h-178l-29 258q-27 6 -64 6q-123 0 -190.5 -95.5t-67.5 -287.5q0 -206 75.5 -307.5t217.5 -101.5
q128 0 281 90zM678 1593h133q72 -44 117 -133l-312 -286h-122z" />
    <glyph glyph-name="Ccircumflex" unicode="&#x108;" horiz-adv-x="1351" 
d="M1212 287l39 -105q-185 -209 -499 -209q-160 0 -287 53.5t-208 148.5t-124 221t-43 274q0 157 48 288t138 227t228.5 150t310.5 54q200 0 389 -80q10 -52 10 -125q0 -113 -18 -215h-168l-51 254q-78 22 -160 22q-418 0 -418 -522q0 -281 116 -420t327 -139q192 0 370 123
zM1106 1540l-162 -94l-211 182h-20l-183 -155h-131l301 352h156z" />
    <glyph glyph-name="ccircumflex" unicode="&#x109;" horiz-adv-x="1044" 
d="M934 244l35 -92q-152 -179 -406 -179q-123 0 -218 41.5t-153 114t-87 166t-29 203.5q0 261 147.5 414t378.5 153q93 0 170.5 -23.5t130.5 -80t53 -138.5q0 -93 -67 -141h-178l-29 258q-27 6 -64 6q-123 0 -190.5 -95.5t-67.5 -287.5q0 -206 75.5 -307.5t217.5 -101.5
q128 0 281 90zM907 1241l-162 -88l-188 221h-22l-164 -200h-123l274 403h156z" />
    <glyph glyph-name="Cdotaccent" unicode="&#x10a;" horiz-adv-x="1351" 
d="M1212 287l39 -105q-185 -209 -499 -209q-160 0 -287 53.5t-208 148.5t-124 221t-43 274q0 157 48 288t138 227t228.5 150t310.5 54q200 0 389 -80q10 -52 10 -125q0 -113 -18 -215h-168l-51 254q-78 22 -160 22q-418 0 -418 -522q0 -281 116 -420t327 -139q192 0 370 123
zM768 1774q52 0 96 -13q35 -56 35 -119q0 -67 -55 -143h-209l-29 246q71 29 162 29z" />
    <glyph glyph-name="cdotaccent" unicode="&#x10b;" horiz-adv-x="1044" 
d="M934 244l35 -92q-152 -179 -406 -179q-123 0 -218 41.5t-153 114t-87 166t-29 203.5q0 261 147.5 414t378.5 153q93 0 170.5 -23.5t130.5 -80t53 -138.5q0 -93 -67 -141h-178l-29 258q-27 6 -64 6q-123 0 -190.5 -95.5t-67.5 -287.5q0 -206 75.5 -307.5t217.5 -101.5
q128 0 281 90zM598 1503q60 0 90 -12q35 -52 35 -117q0 -67 -53 -143h-207l-31 246q84 26 166 26z" />
    <glyph glyph-name="Ccaron" unicode="&#x10c;" horiz-adv-x="1351" 
d="M1212 287l39 -105q-185 -209 -499 -209q-160 0 -287 53.5t-208 148.5t-124 221t-43 274q0 157 48 288t138 227t228.5 150t310.5 54q200 0 389 -80q10 -52 10 -125q0 -113 -18 -215h-168l-51 254q-78 22 -160 22q-418 0 -418 -522q0 -281 116 -420t327 -139q192 0 370 123
zM770 1669h21l184 156h131l-301 -352h-156l-250 284l160 94z" />
    <glyph glyph-name="ccaron" unicode="&#x10d;" horiz-adv-x="1044" 
d="M934 244l35 -92q-152 -179 -406 -179q-123 0 -218 41.5t-153 114t-87 166t-29 203.5q0 261 147.5 414t378.5 153q93 0 170.5 -23.5t130.5 -80t53 -138.5q0 -93 -67 -141h-178l-29 258q-27 6 -64 6q-123 0 -190.5 -95.5t-67.5 -287.5q0 -206 75.5 -307.5t217.5 -101.5
q128 0 281 90zM610 1378h21l164 201h123l-273 -403h-158l-229 335l162 88z" />
    <glyph glyph-name="Dcaron" unicode="&#x10e;" horiz-adv-x="1476" 
d="M598 1378q788 0 788 -665q0 -336 -186 -524.5t-553 -188.5h-567v111l151 39v1085l-151 14v111q274 18 518 18zM512 135h135q234 0 332 131.5t98 431.5q0 285 -94 415t-319 130h-152v-1108zM729 1669h21l184 156h131l-301 -352h-156l-250 284l160 94z" />
    <glyph glyph-name="dcaron" unicode="&#x10f;" horiz-adv-x="1490" 
d="M1069 1526v-1356l133 -37v-98q-181 -44 -340 -53l-43 16l10 152h-22q-130 -177 -332 -177q-187 0 -286 137.5t-99 368.5q0 267 131.5 426.5t364.5 159.5q123 0 225 -39v324l-133 32v105q179 49 346 55zM627 940q-258 0 -258 -412q0 -105 15 -177.5t44.5 -113.5t68.5 -59
t93 -18q70 0 121.5 27.5t97.5 78.5v627q-78 47 -182 47zM1333 1542q77 0 148 -39q-3 -256 -178 -452h-121l55 278v203q42 10 96 10z" />
    <glyph glyph-name="Dcroat" unicode="&#x110;" horiz-adv-x="1499" 
d="M618 1378q791 0 791 -665q0 -336 -186 -524.5t-553 -188.5h-568v111l152 39v489h-152v133h152v463l-152 14v111q274 18 516 18zM535 135h135q234 0 332 131.5t98 431.5q0 285 -94.5 415t-319.5 130h-151v-471h264v-133h-264v-504z" />
    <glyph glyph-name="dcroat" unicode="&#x111;" horiz-adv-x="1247" 
d="M1069 1241v-1071l133 -37v-98q-181 -44 -340 -53l-43 16l10 152h-22q-130 -177 -332 -177q-187 0 -286 137.5t-99 368.5q0 267 131.5 426.5t364.5 159.5q121 0 225 -39v215h-289v127h289v139q105 28 213 37l45 -14v-162h162v-127h-162zM809 266v627q-77 47 -182 47
q-258 0 -258 -412q0 -105 15 -177.5t44.5 -113.5t68.5 -59t93 -18q70 0 121.5 27.5t97.5 78.5z" />
    <glyph glyph-name="Emacron" unicode="&#x112;" horiz-adv-x="1280" 
d="M1010 350l168 -12q6 -47 6 -119q0 -97 -25 -219h-1077v111l149 39v1083l-151 18v111h1081q13 -57 13 -141q0 -96 -17 -193h-162l-41 191l-442 14v-471l246 4l22 115h113v-379h-113l-24 125l-244 4v-502l434 14zM328 1722h624q9 -35 9 -82q0 -48 -9 -86h-624q-9 38 -9 86
t9 82z" />
    <glyph glyph-name="emacron" unicode="&#x113;" horiz-adv-x="1085" 
d="M659 156q133 0 299 94l37 -92q-157 -185 -422 -185q-127 0 -224.5 41t-156 114.5t-87.5 167t-29 204.5q0 261 147.5 413t386.5 152q195 0 290 -101.5t95 -269.5q0 -94 -24 -170h-621q9 -183 88.5 -275.5t220.5 -92.5zM578 940q-91 0 -153.5 -79.5t-72.5 -233.5l387 18v21
q0 139 -39 206.5t-122 67.5zM285 1432h575q10 -42 10 -82q0 -42 -10 -84h-575q-9 38 -9 84q0 44 9 82z" />
    <glyph glyph-name="Ebreve" unicode="&#x114;" horiz-adv-x="1280" 
d="M1010 350l168 -12q6 -47 6 -119q0 -97 -25 -219h-1077v111l149 39v1083l-151 18v111h1081q13 -57 13 -141q0 -96 -17 -193h-162l-41 191l-442 14v-471l246 4l22 115h113v-379h-113l-24 125l-244 4v-502l434 14zM317 1765l175 39q21 -89 65 -130.5t125 -41.5q84 0 131 43
t72 127l90 -20q-17 -149 -108.5 -229t-237.5 -80q-144 0 -224 75.5t-88 216.5z" />
    <glyph glyph-name="ebreve" unicode="&#x115;" horiz-adv-x="1085" 
d="M659 156q133 0 299 94l37 -92q-157 -185 -422 -185q-127 0 -224.5 41t-156 114.5t-87.5 167t-29 204.5q0 261 147.5 413t386.5 152q195 0 290 -101.5t95 -269.5q0 -94 -24 -170h-621q9 -183 88.5 -275.5t220.5 -92.5zM578 940q-91 0 -153.5 -79.5t-72.5 -233.5l387 18v21
q0 139 -39 206.5t-122 67.5zM268 1513l174 37q14 -102 53.5 -150t116.5 -48q79 0 121 48.5t62 147.5l88 -22q-12 -164 -98 -249t-224 -85t-213.5 81.5t-79.5 239.5z" />
    <glyph glyph-name="Edotaccent" unicode="&#x116;" horiz-adv-x="1280" 
d="M1010 350l168 -12q6 -47 6 -119q0 -97 -25 -219h-1077v111l149 39v1083l-151 18v111h1081q13 -57 13 -141q0 -96 -17 -193h-162l-41 191l-442 14v-471l246 4l22 115h113v-379h-113l-24 125l-244 4v-502l434 14zM655 1774q53 0 97 -13q34 -55 34 -119q0 -67 -55 -143h-209
l-28 246q71 29 161 29z" />
    <glyph glyph-name="edotaccent" unicode="&#x117;" horiz-adv-x="1085" 
d="M659 156q133 0 299 94l37 -92q-157 -185 -422 -185q-127 0 -224.5 41t-156 114.5t-87.5 167t-29 204.5q0 261 147.5 413t386.5 152q195 0 290 -101.5t95 -269.5q0 -94 -24 -170h-621q9 -183 88.5 -275.5t220.5 -92.5zM578 940q-91 0 -153.5 -79.5t-72.5 -233.5l387 18v21
q0 139 -39 206.5t-122 67.5zM594 1503q60 0 90 -12q35 -52 35 -117q0 -67 -53 -143h-207l-31 246q84 26 166 26z" />
    <glyph glyph-name="Eogonek" unicode="&#x118;" horiz-adv-x="1280" 
d="M1159 0h-151q-65 -55 -95 -101.5t-30 -95.5q0 -55 33 -81.5t90 -26.5q56 0 108 18l19 -94q-93 -55 -218 -55q-124 0 -187.5 52t-63.5 136q0 71 48 129.5t144 95.5v23h-774v111l149 39v1083l-151 18v111h1081q13 -57 13 -143q0 -94 -17 -191h-162l-41 191l-442 14v-471
l246 4l22 115h113v-379h-113l-24 125l-244 4v-502l434 14l64 207l168 -12q6 -47 6 -119q0 -97 -25 -219z" />
    <glyph glyph-name="eogonek" unicode="&#x119;" horiz-adv-x="1085" 
d="M893 68q-109 -92 -152 -145t-43 -116q0 -112 121 -112q57 0 113 18l16 -94q-93 -55 -219 -55q-121 0 -184.5 49t-63.5 129q0 71 45 130.5t119 96.5l-4 15q-52 -9 -82 -9q-120 0 -213.5 41t-151.5 113.5t-88 167t-30 205.5q0 259 148 411t386 152q195 0 290 -101.5
t95 -269.5q0 -94 -24 -170h-621q9 -184 88.5 -276t220.5 -92q133 0 299 94l37 -94q-55 -52 -102 -88zM578 940q-91 0 -153.5 -79.5t-72.5 -233.5l387 18v21q0 139 -39 206.5t-122 67.5z" />
    <glyph glyph-name="Ecaron" unicode="&#x11a;" horiz-adv-x="1280" 
d="M1010 350l168 -12q6 -47 6 -119q0 -97 -25 -219h-1077v111l149 39v1083l-151 18v111h1081q13 -57 13 -141q0 -96 -17 -193h-162l-41 191l-442 14v-471l246 4l22 115h113v-379h-113l-24 125l-244 4v-502l434 14zM657 1669h21l184 156h131l-301 -352h-155l-250 284l159 94z
" />
    <glyph glyph-name="ecaron" unicode="&#x11b;" horiz-adv-x="1085" 
d="M659 156q133 0 299 94l37 -92q-157 -185 -422 -185q-127 0 -224.5 41t-156 114.5t-87.5 167t-29 204.5q0 261 147.5 413t386.5 152q195 0 290 -101.5t95 -269.5q0 -94 -24 -170h-621q9 -183 88.5 -275.5t220.5 -92.5zM578 940q-91 0 -153.5 -79.5t-72.5 -233.5l387 18v21
q0 139 -39 206.5t-122 67.5zM606 1378h21l164 201h122l-272 -403h-158l-229 335l162 88z" />
    <glyph glyph-name="Gcircumflex" unicode="&#x11c;" horiz-adv-x="1421" 
d="M1341 606v-110l-96 -39h-2v-398l2 -2q-87 -37 -215.5 -60.5t-247.5 -23.5q-140 0 -255 35.5t-195 98.5t-135 150t-81 189.5t-26 217.5q0 160 49.5 293t142.5 229t233 149.5t314 53.5q223 0 398 -80q10 -52 10 -123q0 -87 -18 -197h-170l-45 230q-77 26 -175 26
q-216 0 -323 -137t-107 -426q0 -288 104 -426.5t298 -138.5q104 0 207 41l-31 323l-174 15v110h538zM1106 1540l-162 -94l-211 182h-20l-183 -155h-131l301 352h156z" />
    <glyph glyph-name="gcircumflex" unicode="&#x11d;" horiz-adv-x="1134" 
d="M946 1001l-53 -61q82 -88 82 -221q0 -167 -130 -265t-337 -98q-56 0 -105 9v-132l342 -36q181 -21 260.5 -81.5t79.5 -164.5q0 -114 -82.5 -202t-231 -136.5t-339.5 -48.5q-407 0 -407 239q0 96 61.5 160t157.5 76q-12 144 41 356q-99 42 -149 120t-50 179
q0 168 130.5 269.5t336.5 101.5q168 0 274 -70q20 102 58 157.5t114 55.5q68 0 111 -43l-16 -164h-148zM530 479q181 0 181 232q0 231 -181 231q-182 0 -182 -231q0 -232 182 -232zM643 -43l-336 43q-41 -65 -41 -143q0 -168 252 -168q85 0 164 17t135.5 54.5t56.5 87.5
q0 40 -47.5 65t-183.5 44zM848 1241l-162 -88l-188 221h-23l-164 -200h-123l275 403h155z" />
    <glyph glyph-name="Gbreve" unicode="&#x11e;" horiz-adv-x="1421" 
d="M1341 606v-110l-96 -39h-2v-398l2 -2q-87 -37 -215.5 -60.5t-247.5 -23.5q-140 0 -255 35.5t-195 98.5t-135 150t-81 189.5t-26 217.5q0 160 49.5 293t142.5 229t233 149.5t314 53.5q223 0 398 -80q10 -52 10 -123q0 -87 -18 -197h-170l-45 230q-77 26 -175 26
q-216 0 -323 -137t-107 -426q0 -288 104 -426.5t298 -138.5q104 0 207 41l-31 323l-174 15v110h538zM430 1765l174 39q21 -89 65.5 -130.5t125.5 -41.5q84 0 130.5 43t71.5 127l90 -20q-17 -149 -108.5 -229t-237.5 -80q-144 0 -223.5 75t-87.5 217z" />
    <glyph glyph-name="gbreve" unicode="&#x11f;" horiz-adv-x="1134" 
d="M946 1001l-53 -61q82 -88 82 -221q0 -167 -130 -265t-337 -98q-56 0 -105 9v-132l342 -36q181 -21 260.5 -81.5t79.5 -164.5q0 -114 -82.5 -202t-231 -136.5t-339.5 -48.5q-407 0 -407 239q0 96 61.5 160t157.5 76q-12 144 41 356q-99 42 -149 120t-50 179
q0 168 130.5 269.5t336.5 101.5q168 0 274 -70q20 102 58 157.5t114 55.5q68 0 111 -43l-16 -164h-148zM530 479q181 0 181 232q0 231 -181 231q-182 0 -182 -231q0 -232 182 -232zM643 -43l-336 43q-41 -65 -41 -143q0 -168 252 -168q85 0 164 17t135.5 54.5t56.5 87.5
q0 40 -47.5 65t-183.5 44zM213 1513l174 37q14 -102 53.5 -150t116.5 -48q79 0 120.5 48t61.5 148l88 -22q-12 -164 -97.5 -249t-223.5 -85t-213.5 81.5t-79.5 239.5z" />
    <glyph glyph-name="Gdotaccent" unicode="&#x120;" horiz-adv-x="1421" 
d="M1341 606v-110l-96 -39h-2v-398l2 -2q-87 -37 -215.5 -60.5t-247.5 -23.5q-140 0 -255 35.5t-195 98.5t-135 150t-81 189.5t-26 217.5q0 160 49.5 293t142.5 229t233 149.5t314 53.5q223 0 398 -80q10 -52 10 -123q0 -87 -18 -197h-170l-45 230q-77 26 -175 26
q-216 0 -323 -137t-107 -426q0 -288 104 -426.5t298 -138.5q104 0 207 41l-31 323l-174 15v110h538zM768 1774q52 0 96 -13q35 -56 35 -119q0 -67 -55 -143h-209l-29 246q71 29 162 29z" />
    <glyph glyph-name="gdotaccent" unicode="&#x121;" horiz-adv-x="1134" 
d="M946 1001l-53 -61q82 -88 82 -221q0 -167 -130 -265t-337 -98q-56 0 -105 9v-132l342 -36q181 -21 260.5 -81.5t79.5 -164.5q0 -114 -82.5 -202t-231 -136.5t-339.5 -48.5q-407 0 -407 239q0 96 61.5 160t157.5 76q-12 144 41 356q-99 42 -149 120t-50 179
q0 168 130.5 269.5t336.5 101.5q168 0 274 -70q20 102 58 157.5t114 55.5q68 0 111 -43l-16 -164h-148zM530 479q181 0 181 232q0 231 -181 231q-182 0 -182 -231q0 -232 182 -232zM643 -43l-336 43q-41 -65 -41 -143q0 -168 252 -168q85 0 164 17t135.5 54.5t56.5 87.5
q0 40 -47.5 65t-183.5 44zM539 1503q60 0 90 -12q35 -52 35 -117q0 -66 -54 -143h-207l-30 246q84 26 166 26z" />
    <glyph glyph-name="Gcommaaccent" unicode="&#x122;" horiz-adv-x="1421" 
d="M1341 606v-110l-96 -39h-2v-398l2 -2q-87 -37 -215.5 -60.5t-247.5 -23.5q-140 0 -255 35.5t-195 98.5t-135 150t-81 189.5t-26 217.5q0 160 49.5 293t142.5 229t233 149.5t314 53.5q223 0 398 -80q10 -52 10 -123q0 -87 -18 -197h-170l-45 230q-77 26 -175 26
q-216 0 -323 -137t-107 -426q0 -288 104 -426.5t298 -138.5q104 0 207 41l-31 323l-174 15v110h538zM748 -96q55 0 104 -19q39 -58 39 -133q0 -96 -58.5 -164.5t-173.5 -93.5l-34 66q57 29 85.5 56.5t28.5 64.5q0 16 -2 28l-96 12l-6 166q66 17 113 17z" />
    <glyph glyph-name="gcommaaccent" unicode="&#x123;" horiz-adv-x="1134" 
d="M946 1001l-53 -61q82 -88 82 -221q0 -167 -130 -265t-337 -98q-56 0 -105 9v-132l342 -36q181 -21 260.5 -81.5t79.5 -164.5q0 -114 -82.5 -202t-231 -136.5t-339.5 -48.5q-407 0 -407 239q0 96 61.5 160t157.5 76q-12 144 41 356q-99 42 -149 120t-50 179
q0 168 130.5 269.5t336.5 101.5q168 0 274 -70q20 102 58 157.5t114 55.5q68 0 111 -43l-16 -164h-148zM530 479q181 0 181 232q0 231 -181 231q-182 0 -182 -231q0 -232 182 -232zM643 -43l-336 43q-41 -65 -41 -143q0 -168 252 -168q85 0 164 17t135.5 54.5t56.5 87.5
q0 40 -47.5 65t-183.5 44zM621 1595l34 -65q-62 -34 -90 -61.5t-28 -69.5q0 -17 2 -29l96 -12l6 -166q-55 -14 -113 -14q-62 0 -106 16q-37 62 -37 133q0 98 59.5 169.5t176.5 98.5z" />
    <glyph glyph-name="Hcircumflex" unicode="&#x124;" horiz-adv-x="1589" 
d="M1358 1212v-1087l151 -14v-111h-575v111l143 39v487h-565v-512l154 -14v-111h-586v111l151 39v1087l-151 14v111h586v-111l-154 -39v-438h565v463l-155 14v111h587v-111zM1165 1540l-161 -94l-211 182h-21l-182 -155h-131l301 352h155z" />
    <glyph glyph-name="hcircumflex" unicode="&#x125;" horiz-adv-x="1261" 
d="M965 1599l-162 -92l-189 152h-20l-145 -127h-121l254 305h155zM436 1444v-303q0 -48 -3 -90.5t-8.5 -94.5t-6.5 -67h22q132 176 334 176q150 0 236 -87t86 -247v-610l147 -15v-106h-518v106l113 39v537q0 197 -176 197q-129 0 -226 -107v-651l129 -15v-106h-518v106
l131 39v1123l-133 32v105q185 49 348 55z" />
    <glyph glyph-name="Hbar" unicode="&#x126;" horiz-adv-x="1615" 
d="M1372 907v-778l152 -18v-111h-588v111l154 39h2v415h-566v-436l154 -18v-111h-586v111l152 39v757h-201v129h201v197l-152 18v111h586v-111l-154 -39v-176h566v197l-156 18v111h588v-111l-152 -39v-176h199v-129h-199zM1092 907h-566v-207h566v207z" />
    <glyph glyph-name="hbar" unicode="&#x127;" horiz-adv-x="1261" 
d="M1243 106v-106h-518v106l113 39v537q0 197 -176 197q-129 0 -226 -107v-651l129 -15v-106h-518v106l131 39v1096h-160v127h160v137q110 28 215 37l43 -14v-160h309v-127h-309v-92q0 -48 -2.5 -91.5t-8.5 -101t-7 -67.5h22q134 176 334 176q150 0 236 -87t86 -247v-610z
" />
    <glyph glyph-name="Itilde" unicode="&#x128;" horiz-adv-x="743" 
d="M512 1212v-1087l152 -14v-111h-584v111l151 39v1087l-151 14v111h584v-111zM657 1782l70 -56q-17 -45 -33 -77t-42.5 -68t-63 -55t-80.5 -19q-54 0 -111 25l-202 88l-101 -111l-71 56q17 45 33.5 77t42.5 68t63 55t82 19q51 0 108 -25l203 -88z" />
    <glyph glyph-name="itilde" unicode="&#x129;" horiz-adv-x="628" 
d="M594 106v-106h-533v106l132 39v715l-132 43v105q168 42 345 51l45 -15v-921zM532 1499l68 -51q-80 -227 -203 -227q-47 0 -94 30l-141 82l-92 -110l-68 51q16 43 31 75.5t40 71t59 59.5t75 21q44 0 92 -31l141 -84z" />
    <glyph glyph-name="Imacron" unicode="&#x12a;" horiz-adv-x="743" 
d="M512 1212v-1087l152 -14v-111h-584v111l151 39v1087l-151 14v111h584v-111zM63 1722h625q8 -31 8 -82q0 -53 -8 -86h-625q-8 33 -8 86q0 51 8 82z" />
    <glyph glyph-name="imacron" unicode="&#x12b;" horiz-adv-x="628" 
d="M594 106v-106h-533v106l132 39v715l-132 43v105q168 42 345 51l45 -15v-921zM51 1432h502q10 -42 10 -82q0 -42 -10 -84h-502q-8 33 -8 84q0 49 8 82z" />
    <glyph glyph-name="Ibreve" unicode="&#x12c;" horiz-adv-x="743" 
d="M512 1212v-1087l152 -14v-111h-584v111l151 39v1087l-151 14v111h584v-111zM53 1765l174 39q21 -89 65.5 -130.5t125.5 -41.5q84 0 131 43t72 127l90 -20q-17 -149 -108.5 -229t-237.5 -80q-144 0 -224 75.5t-88 216.5z" />
    <glyph glyph-name="ibreve" unicode="&#x12d;" horiz-adv-x="628" 
d="M594 106v-106h-533v106l132 39v715l-132 43v105q168 42 345 51l45 -15v-921zM498 1548l88 -20q-12 -165 -91 -250.5t-206 -85.5q-124 0 -196.5 82.5t-76.5 236.5l174 39q11 -101 47 -149.5t103 -48.5q68 0 105.5 48t52.5 148z" />
    <glyph glyph-name="Iogonek" unicode="&#x12e;" horiz-adv-x="743" 
d="M512 1212v-1089l152 -12v-111q-269 -81 -269 -211q0 -46 33 -70t90 -24q59 0 111 18l18 -94q-93 -55 -219 -55q-122 0 -186 48t-64 124q0 79 62 141t161 100v23h-321v111l151 39v1087l-151 14v111h584v-111z" />
    <glyph glyph-name="iogonek" unicode="&#x12f;" horiz-adv-x="628" 
d="M190 1233l-30 244q78 28 166 28q55 0 90 -14q35 -49 35 -115q0 -69 -54 -143h-207zM594 106v-106q-258 -70 -258 -205q0 -100 123 -100q56 0 108 18l19 -94q-93 -55 -217 -55q-123 0 -187.5 53.5t-64.5 134.5q0 152 215 225v23h-271v106l132 39v715l-132 43v105
q168 42 345 51l45 -15v-921z" />
    <glyph glyph-name="Idotaccent" unicode="&#x130;" horiz-adv-x="743" 
d="M512 1212v-1087l152 -14v-111h-584v111l151 39v1087l-151 14v111h584v-111zM403 1772q59 0 91 -13q34 -50 34 -117t-53 -143h-207l-30 246q88 27 165 27z" />
    <glyph glyph-name="dotlessi" unicode="&#x131;" horiz-adv-x="628" 
d="M594 106v-106h-533v106l132 39v715l-132 43v105q168 42 345 51l45 -15v-921z" />
    <glyph glyph-name="IJ" unicode="&#x132;" horiz-adv-x="1757" 
d="M1710 1362v-111l-151 -39v-825q0 -114 -34 -197t-95 -129t-134 -67t-163 -21q-171 0 -265 70.5t-94 177.5q0 85 66 144h164l47 -248q33 -8 69 -8q79 0 118.5 50t39.5 173v905l-219 14v111h651zM512 1212v-1087l152 -14v-111h-584v111l151 39v1087l-151 14v111h584v-111z
" />
    <glyph glyph-name="ij" unicode="&#x133;" horiz-adv-x="1226" 
d="M1067 1044v-1042q0 -168 -83.5 -270.5t-248.5 -167.5l-61 63l133 191v1042l-131 43v105q180 42 344 51zM946 1511q60 0 90 -12q35 -52 35 -117q0 -67 -53 -143h-207l-31 246q84 26 166 26zM594 106v-106h-533v106l132 39v715l-132 43v105q168 42 345 51l45 -15v-921z
M330 1511q60 0 90 -12q35 -52 35 -117q0 -66 -54 -143h-206l-31 246q85 26 166 26z" />
    <glyph glyph-name="Jcircumflex" unicode="&#x134;" horiz-adv-x="1013" 
d="M967 1362v-111l-152 -39v-825q0 -114 -34 -197t-95 -129t-134 -67t-163 -21q-171 0 -264.5 70.5t-93.5 177.5q0 86 65 144h164l47 -248q33 -8 70 -8q79 0 118.5 50t39.5 173v905l-220 14v111h652zM983 1540l-162 -94l-211 182h-20l-182 -155h-132l302 352h155z" />
    <glyph glyph-name="jcircumflex" unicode="&#x135;" horiz-adv-x="598" 
d="M438 1044v-1042q0 -168 -83.5 -270.5t-248.5 -167.5l-61 63l133 191v1042l-131 43v105q180 42 344 51zM557 1253l-162 -88l-145 201h-23l-121 -180h-122l229 391h158z" />
    <glyph glyph-name="Kcommaaccent" unicode="&#x136;" horiz-adv-x="1433" 
d="M1397 115l-6 -95q-88 -40 -170 -40q-101 0 -163 40.5t-120 129.5q-33 52 -74.5 129.5t-98 187.5t-83.5 162h-170v-504l156 -14v-111h-588v111l151 39v1085l-151 14v113h579v-111l-147 -39v-446h190q171 223 336 469l-159 16v111h481v-111l-125 -32q-158 -207 -356 -433
q21 -29 41.5 -58.5t44.5 -66.5t40.5 -61.5t45.5 -71.5t41.5 -66t46 -75t42 -69.5t47.5 -78t44 -73.5zM721 -96q55 0 104 -19q39 -58 39 -133q0 -96 -58 -164.5t-173 -93.5l-35 66q58 30 86.5 57t28.5 64q0 16 -2 28l-97 12l-6 166q66 17 113 17z" />
    <glyph glyph-name="kcommaaccent" unicode="&#x137;" horiz-adv-x="1204" 
d="M1188 100l-6 -84q-77 -36 -162 -36q-86 0 -140 32t-100 109q-10 17 -188 358h-156v-358l123 -12v-109h-512v106l131 39v1205l-133 34v103q171 49 348 55l43 -16v-920h142q139 154 260 305l-144 13v108h455v-108l-137 -33q-105 -111 -250 -242q40 -55 86 -127t75.5 -119.5
t84 -137.5t73.5 -122zM625 -96q55 0 104 -19q39 -58 39 -133q0 -96 -58 -164.5t-173 -93.5l-35 66q57 29 85.5 56.5t28.5 64.5q0 16 -2 28l-96 12l-6 166q66 17 113 17z" />
    <glyph glyph-name="kgreenlandic" unicode="&#x138;" horiz-adv-x="1218" 
d="M1202 100l-6 -84q-77 -36 -162 -36q-86 0 -139.5 32t-99.5 109q-35 58 -189 358h-155v-358l122 -12v-109h-512v106l132 39v715l-132 43v105q185 45 345 51l45 -17v-436h141q139 154 260 305l-143 13v108h454v-108l-137 -33q-105 -111 -250 -242q40 -56 87.5 -129t74 -116
t86 -141t72.5 -120z" />
    <glyph glyph-name="Lacute" unicode="&#x139;" horiz-adv-x="1155" 
d="M936 367l166 -13q8 -66 8 -131q0 -112 -27 -223h-1001v111l149 39v1087l-151 14v111h602v-111l-170 -39v-1083l356 12zM547 1843h133q72 -40 117 -131l-322 -239h-135z" />
    <glyph glyph-name="lacute" unicode="&#x13a;" horiz-adv-x="614" 
d="M420 1532h-141l110 305h109q76 -46 116 -127zM436 121l144 -15v-106h-533v106l131 39v1123l-133 35v102q166 48 348 55l43 -16v-1323z" />
    <glyph glyph-name="Lcommaaccent" unicode="&#x13b;" horiz-adv-x="1155" 
d="M936 367l166 -13q8 -66 8 -131q0 -112 -27 -223h-1001v111l149 39v1087l-151 14v111h602v-111l-170 -39v-1083l356 12zM569 -96q56 0 105 -19q39 -58 39 -133q0 -96 -58.5 -164.5t-173.5 -93.5l-35 66q58 30 86.5 57t28.5 64q0 16 -2 28l-96 12l-6 166q66 17 112 17z" />
    <glyph glyph-name="lcommaaccent" unicode="&#x13c;" horiz-adv-x="614" 
d="M580 106v-106h-533v106l131 39v1205l-133 34v103q166 48 348 55l43 -16v-1405zM295 -96q55 0 104 -19q39 -58 39 -133q0 -96 -58 -164.5t-173 -93.5l-35 66q58 30 86.5 57t28.5 64q0 16 -2 28l-97 12l-6 166q66 17 113 17z" />
    <glyph glyph-name="Lcaron" unicode="&#x13d;" horiz-adv-x="1155" 
d="M936 367l166 -13q8 -66 8 -131q0 -112 -27 -223h-1001v111l149 39v1087l-151 14v111h602v-111l-170 -39v-1083l356 12zM956 1380q76 0 148 -39q-3 -256 -178 -452h-121l55 278v203q42 10 96 10z" />
    <glyph glyph-name="lcaron" unicode="&#x13e;" horiz-adv-x="868" 
d="M580 106v-106h-533v106l131 39v1205l-133 34v103q166 48 348 55l43 -16v-1405zM711 1542q75 0 147 -39q-3 -256 -178 -452h-121l55 278v203q42 10 97 10z" />
    <glyph glyph-name="Ldot" unicode="&#x13f;" horiz-adv-x="1142" 
d="M952 918q51 0 95 -13q34 -50 34 -117q0 -73 -55 -145h-195l-24 246q56 29 145 29zM936 367l166 -13q8 -66 8 -131q0 -112 -27 -223h-1001v111l149 39v1087l-151 14v111h602v-111l-170 -39v-1083l356 12z" />
    <glyph glyph-name="ldot" unicode="&#x140;" horiz-adv-x="739" 
d="M682 870q54 0 92 -12q35 -52 35 -119q0 -71 -55 -143h-187l-24 246q62 28 139 28zM580 106v-106h-533v106l131 39v1205l-133 34v103q166 48 348 55l43 -16v-1405z" />
    <glyph glyph-name="Lslash" unicode="&#x141;" horiz-adv-x="1157" 
d="M1112 223q0 -112 -27 -223h-2h-1001v111l149 39h2v413l-165 -63l-19 28v103l184 69v537l-153 14v111h604v-111l-170 -39v-419l389 151l19 -29v-102l-408 -158v-526l356 12l68 226l166 -13q1 -10 3 -34t3.5 -48.5t1.5 -48.5z" />
    <glyph glyph-name="lslash" unicode="&#x142;" horiz-adv-x="681" 
d="M471 713v-592l143 -15v-106h-532v106l129 39h2v459l-141 -69l-19 26v105l160 77v607l-133 34v103q165 48 346 55l45 -16v-672l145 70l17 -27v-104z" />
    <glyph glyph-name="Nacute" unicode="&#x143;" horiz-adv-x="1556" 
d="M1493 1251l-150 -37v-1206l-233 -35l-41 9l-516 888q-86 151 -154 312h-20l22 -1057l177 -14v-111h-498v111l151 39v1085l-151 16v111h520l406 -707q104 -183 170 -329h22l-22 911l-179 14v111h496v-111zM942 1843h133q72 -40 117 -131l-322 -239h-135z" />
    <glyph glyph-name="nacute" unicode="&#x144;" horiz-adv-x="1277" 
d="M1260 106v-106h-519v106l113 39v537q0 197 -178 197q-132 0 -225 -107v-651l129 -15v-106h-519v106l132 39v715l-132 43v105q208 46 336 51l45 -15l-10 -155h23q132 176 333 176q150 0 237 -87t87 -247v-610zM754 1593h133q72 -44 117 -133l-312 -286h-123z" />
    <glyph glyph-name="Ncommaaccent" unicode="&#x145;" horiz-adv-x="1556" 
d="M1493 1251l-150 -37v-1206l-233 -35l-41 9l-516 888q-86 151 -154 312h-20l22 -1057l177 -14v-111h-498v111l151 39v1085l-151 16v111h520l406 -707q104 -183 170 -329h22l-22 911l-179 14v111h496v-111zM760 -96q55 0 104 -19q39 -58 39 -133q0 -96 -58 -164.5
t-173 -93.5l-35 66q58 30 86.5 57t28.5 64q0 16 -2 28l-97 12l-6 166q66 17 113 17z" />
    <glyph glyph-name="ncommaaccent" unicode="&#x146;" horiz-adv-x="1277" 
d="M1260 106v-106h-519v106l113 39v537q0 197 -178 197q-132 0 -225 -107v-651l129 -15v-106h-519v106l132 39v715l-132 43v105q208 46 336 51l45 -15l-10 -155h23q132 176 333 176q150 0 237 -87t87 -247v-610zM639 -96q55 0 104 -19q39 -58 39 -133q0 -96 -58 -164.5
t-173 -93.5l-35 66q58 30 86.5 57t28.5 64q0 16 -2 28l-97 12l-6 166q66 17 113 17z" />
    <glyph glyph-name="Ncaron" unicode="&#x147;" horiz-adv-x="1556" 
d="M1493 1251l-150 -37v-1206l-233 -35l-41 9l-516 888q-86 151 -154 312h-20l22 -1057l177 -14v-111h-498v111l151 39v1085l-151 16v111h520l406 -707q104 -183 170 -329h22l-22 911l-179 14v111h496v-111zM811 1669h20l185 156h131l-301 -352h-156l-250 284l160 94z" />
    <glyph glyph-name="ncaron" unicode="&#x148;" horiz-adv-x="1277" 
d="M1260 106v-106h-519v106l113 39v537q0 197 -178 197q-132 0 -225 -107v-651l129 -15v-106h-519v106l132 39v715l-132 43v105q208 46 336 51l45 -15l-10 -155h23q132 176 333 176q150 0 237 -87t87 -247v-610zM686 1378h21l163 201h123l-272 -403h-158l-229 335l162 88z
" />
    <glyph glyph-name="napostrophe" unicode="&#x149;" horiz-adv-x="1277" 
d="M68 1542q72 0 120 -18q50 -76 50 -164q0 -114 -76 -190t-209 -95l-23 76q129 46 129 141q0 15 -4 35l-108 12l-6 187q72 16 127 16zM1260 106v-106h-519v106l113 39v537q0 197 -178 197q-132 0 -225 -107v-651l129 -15v-106h-519v106l132 39v715l-132 43v105
q208 46 336 51l45 -15l-10 -155h23q132 176 333 176q150 0 237 -87t87 -247v-610z" />
    <glyph glyph-name="Eng" unicode="&#x14a;" horiz-adv-x="1556" 
d="M1493 1251l-150 -37v-1116q0 -133 -33 -237.5t-89.5 -168t-126.5 -96t-150 -32.5q-109 0 -166 69l15 129h297q46 55 65 132l-596 976q-88 136 -158 312h-22l22 -1057l174 -14v-111h-495v111l151 39v1085l-151 16v111h518l403 -676q77 -126 173 -321h22l-22 872l-177 14
v111h496v-111z" />
    <glyph glyph-name="eng" unicode="&#x14b;" horiz-adv-x="1271" 
d="M788 1065q150 0 237 -87t87 -247v-739q-4 -164 -85.5 -264t-244.5 -164l-61 63l133 191v864q0 197 -178 197q-132 0 -225 -107v-651l129 -15v-106h-519v106l132 39v715l-132 43v103q170 44 336 53l45 -15l-10 -155h23q132 176 333 176z" />
    <glyph glyph-name="Omacron" unicode="&#x14c;" horiz-adv-x="1550" 
d="M803 1389q161 0 287.5 -52.5t206.5 -145.5t121.5 -216.5t41.5 -269.5q0 -330 -196.5 -531t-515.5 -201q-128 0 -235.5 35t-185 97.5t-131.5 149.5t-80 190.5t-26 220.5q0 327 195.5 525t517.5 198zM774 1245q-180 0 -276.5 -138t-96.5 -423t97 -426t276 -141t276 141
t97 426t-96.5 423t-276.5 138zM463 1722h624q9 -35 9 -82q0 -48 -9 -86h-624q-8 33 -8 86q0 51 8 82z" />
    <glyph glyph-name="omacron" unicode="&#x14d;" horiz-adv-x="1198" 
d="M625 1065q125 0 221.5 -41t156 -114t89.5 -166.5t30 -204.5q0 -255 -150 -410.5t-399 -155.5q-125 0 -221.5 41.5t-156 114.5t-89.5 167.5t-30 205.5q0 255 149.5 409t399.5 154zM600 940q-121 0 -177 -100.5t-56 -317.5q0 -219 56 -321.5t177 -102.5q122 0 178 102.5
t56 321.5q0 218 -55.5 318t-178.5 100zM311 1432h576q10 -42 10 -82q0 -42 -10 -84h-576q-8 33 -8 84q0 49 8 82z" />
    <glyph glyph-name="Obreve" unicode="&#x14e;" horiz-adv-x="1550" 
d="M803 1389q161 0 287.5 -52.5t206.5 -145.5t121.5 -216.5t41.5 -269.5q0 -330 -196.5 -531t-515.5 -201q-128 0 -235.5 35t-185 97.5t-131.5 149.5t-80 190.5t-26 220.5q0 327 195.5 525t517.5 198zM774 1245q-180 0 -276.5 -138t-96.5 -423t97 -426t276 -141t276 141
t97 426t-96.5 423t-276.5 138zM453 1765l174 39q21 -89 65 -130.5t125 -41.5q84 0 131 43t72 127l90 -20q-17 -149 -108.5 -229t-237.5 -80q-144 0 -223.5 75t-87.5 217z" />
    <glyph glyph-name="obreve" unicode="&#x14f;" horiz-adv-x="1198" 
d="M625 1065q125 0 221.5 -41t156 -114t89.5 -166.5t30 -204.5q0 -255 -150 -410.5t-399 -155.5q-125 0 -221.5 41.5t-156 114.5t-89.5 167.5t-30 205.5q0 255 149.5 409t399.5 154zM600 940q-121 0 -177 -100.5t-56 -317.5q0 -219 56 -321.5t177 -102.5q122 0 178 102.5
t56 321.5q0 218 -55.5 318t-178.5 100zM295 1513l174 37q14 -102 53.5 -150t116.5 -48q79 0 120.5 48t61.5 148l88 -22q-12 -164 -97.5 -249t-223.5 -85t-213.5 81.5t-79.5 239.5z" />
    <glyph glyph-name="Ohungarumlaut" unicode="&#x150;" horiz-adv-x="1550" 
d="M803 1389q161 0 287.5 -52.5t206.5 -145.5t121.5 -216.5t41.5 -269.5q0 -330 -196.5 -531t-515.5 -201q-128 0 -235.5 35t-185 97.5t-131.5 149.5t-80 190.5t-26 220.5q0 327 195.5 525t517.5 198zM774 1245q-180 0 -276.5 -138t-96.5 -423t97 -426t276 -141t276 141
t97 426t-96.5 423t-276.5 138zM623 1823h118q73 -30 119 -117l-186 -233h-127zM991 1823h119q72 -28 119 -117l-187 -233h-127z" />
    <glyph glyph-name="ohungarumlaut" unicode="&#x151;" horiz-adv-x="1198" 
d="M625 1065q125 0 221.5 -41t156 -114t89.5 -166.5t30 -204.5q0 -255 -150 -410.5t-399 -155.5q-125 0 -221.5 41.5t-156 114.5t-89.5 167.5t-30 205.5q0 255 149.5 409t399.5 154zM600 940q-121 0 -177 -100.5t-56 -317.5q0 -219 56 -321.5t177 -102.5q122 0 178 102.5
t56 321.5q0 218 -55.5 318t-178.5 100zM434 1593h121q78 -26 127 -114l-225 -305h-113zM791 1593h120q74 -25 127 -114l-227 -305h-111z" />
    <glyph glyph-name="OE" unicode="&#x152;" horiz-adv-x="2058" 
d="M817 1389q125 0 250 -27h872q11 -64 11 -143q0 -94 -17 -191h-161l-39 189l-430 16v-471l231 4l22 115h115v-379h-115l-22 125l-231 6v-504l421 12l62 209l168 -12q8 -62 8 -119q0 -81 -27 -219h-870q-159 -27 -297 -27q-134 0 -245 34.5t-190.5 97t-134.5 149t-81.5 190
t-26.5 220.5q0 330 198 527.5t529 197.5zM799 1249q-192 0 -295 -139.5t-103 -425.5q0 -288 103.5 -429.5t298.5 -141.5q127 0 219 49v1032q-99 55 -223 55z" />
    <glyph glyph-name="oe" unicode="&#x153;" horiz-adv-x="1802" 
d="M1382 156q132 0 291 94l37 -92q-154 -185 -401 -185q-244 0 -355 183h-22q-127 -183 -373 -183q-119 0 -212.5 41t-152 113.5t-88.5 167.5t-30 207q0 255 146 409t380 154q243 0 354 -184h21q126 184 364 184q186 0 278.5 -102t92.5 -269q0 -83 -24 -170h-2l-605 -12
q10 -177 88.5 -266.5t212.5 -89.5zM594 98q119 0 173 102t54 322q0 218 -54 318t-173 100t-173 -100t-54 -318q0 -220 54 -322t173 -102zM1300 940q-90 0 -151 -83.5t-68 -246.5l377 33v10q0 147 -39 217t-119 70z" />
    <glyph glyph-name="Racute" unicode="&#x154;" horiz-adv-x="1366" 
d="M1354 115l-6 -95q-82 -40 -179 -40q-70 0 -122 21t-81 50t-59 76q-74 110 -256 430h-147v-432l153 -14v-111h-577v111l151 39v1085l-151 14v111q265 18 510 18q321 0 464.5 -101t143.5 -296q0 -149 -74.5 -231.5t-208.5 -126.5l-4 -23q54 -52 104.5 -119t119.5 -171.5
t98 -145.5zM504 694h260q66 48 97.5 115t31.5 168q0 136 -62 198.5t-206 63.5h-121v-545zM791 1853h133q71 -39 116 -131l-321 -239h-135z" />
    <glyph glyph-name="racute" unicode="&#x155;" horiz-adv-x="845" 
d="M809 805h-236q-78 -60 -122 -133v-545l194 -14v-113h-584v115l132 30v715l-132 43v105q174 45 330 51l43 -15l-14 -229h24q58 118 118 184t138 66t119 -70zM492 1593h133q70 -43 116 -133l-311 -286h-123z" />
    <glyph glyph-name="Rcommaaccent" unicode="&#x156;" horiz-adv-x="1366" 
d="M1354 115l-6 -95q-82 -40 -179 -40q-70 0 -122 21t-81 50t-59 76q-74 110 -256 430h-147v-432l153 -14v-111h-577v111l151 39v1085l-151 14v111q265 18 510 18q321 0 464.5 -101t143.5 -296q0 -149 -74.5 -231.5t-208.5 -126.5l-4 -23q54 -52 104.5 -119t119.5 -171.5
t98 -145.5zM504 694h260q66 48 97.5 115t31.5 168q0 136 -62 198.5t-206 63.5h-121v-545zM735 -96q56 0 105 -19q39 -58 39 -133q0 -96 -58.5 -164.5t-173.5 -93.5l-35 66q58 30 86.5 57t28.5 64q0 16 -2 28l-96 12l-6 166q66 17 112 17z" />
    <glyph glyph-name="rcommaaccent" unicode="&#x157;" horiz-adv-x="845" 
d="M809 805h-236q-78 -60 -122 -133v-545l194 -14v-113h-584v115l132 30v715l-132 43v105q174 45 330 51l43 -15l-14 -229h24q58 118 118 184t138 66t119 -70zM338 -96q55 0 104 -19q39 -58 39 -133q0 -96 -58 -164.5t-173 -93.5l-35 66q58 30 86.5 57t28.5 64q0 16 -2 28
l-97 12l-6 166q66 17 113 17z" />
    <glyph glyph-name="Rcaron" unicode="&#x158;" horiz-adv-x="1366" 
d="M1354 115l-6 -95q-82 -40 -179 -40q-70 0 -122 21t-81 50t-59 76q-74 110 -256 430h-147v-432l153 -14v-111h-577v111l151 39v1085l-151 14v111q265 18 510 18q321 0 464.5 -101t143.5 -296q0 -149 -74.5 -231.5t-208.5 -126.5l-4 -23q54 -52 104.5 -119t119.5 -171.5
t98 -145.5zM504 694h260q66 48 97.5 115t31.5 168q0 136 -62 198.5t-206 63.5h-121v-545zM670 1679h20l184 156h132l-301 -352h-156l-250 284l160 95z" />
    <glyph glyph-name="rcaron" unicode="&#x159;" horiz-adv-x="845" 
d="M809 805h-236q-78 -60 -122 -133v-545l194 -14v-113h-584v115l132 30v715l-132 43v105q174 45 330 51l43 -15l-14 -229h24q58 118 118 184t138 66t119 -70zM424 1378h20l164 201h123l-272 -403h-158l-229 335l161 88z" />
    <glyph glyph-name="Sacute" unicode="&#x15a;" horiz-adv-x="1148" 
d="M547 858l176 -78q81 -36 137 -69.5t104.5 -81t72.5 -111t24 -143.5q0 -104 -39.5 -182.5t-111 -126t-165 -70.5t-208.5 -23q-119 0 -229.5 23t-188.5 57q-21 100 -21 193q0 40 11 112l161 13l66 -232q83 -28 186 -28q129 0 191.5 45.5t62.5 144.5q0 88 -48 136.5
t-155 94.5l-180 78q-127 56 -198.5 146t-71.5 231q0 189 129.5 295.5t355.5 106.5q213 0 381 -82q10 -52 10 -121q0 -84 -18 -176h-166l-45 219q-77 22 -158 22q-233 0 -233 -192q0 -73 38 -116.5t130 -84.5zM756 1843h133q72 -40 117 -131l-322 -239h-135z" />
    <glyph glyph-name="sacute" unicode="&#x15b;" horiz-adv-x="956" 
d="M463 672l133 -56q71 -29 117.5 -55.5t87 -64t59.5 -87t19 -114.5q0 -110 -58 -183.5t-154 -106t-225 -32.5q-195 0 -352 70q-12 46 -12 123q0 84 16 149h156l33 -198q70 -23 149 -23q197 0 197 137q0 57 -34.5 90t-115.5 68l-129 53q-121 51 -183.5 120t-62.5 186
q0 151 106.5 234t299.5 83q172 0 311 -64q13 -63 13 -120q0 -63 -17 -146h-139l-35 187q-71 22 -137 22q-176 0 -176 -133q0 -50 29.5 -79t103.5 -60zM569 1593h133q72 -44 117 -133l-311 -286h-123z" />
    <glyph glyph-name="Scircumflex" unicode="&#x15c;" horiz-adv-x="1148" 
d="M547 858l176 -78q81 -36 137 -69.5t104.5 -81t72.5 -111t24 -143.5q0 -104 -39.5 -182.5t-111 -126t-165 -70.5t-208.5 -23q-119 0 -229.5 23t-188.5 57q-21 100 -21 193q0 40 11 112l161 13l66 -232q83 -28 186 -28q129 0 191.5 45.5t62.5 144.5q0 88 -48 136.5
t-155 94.5l-180 78q-127 56 -198.5 146t-71.5 231q0 189 129.5 295.5t355.5 106.5q213 0 381 -82q10 -52 10 -121q0 -84 -18 -176h-166l-45 219q-77 22 -158 22q-233 0 -233 -192q0 -73 38 -116.5t130 -84.5zM942 1540l-162 -94l-211 182h-20l-182 -155h-131l301 352h155z
" />
    <glyph glyph-name="scircumflex" unicode="&#x15d;" horiz-adv-x="956" 
d="M463 672l133 -56q71 -29 117.5 -55.5t87 -64t59.5 -87t19 -114.5q0 -110 -58 -183.5t-154 -106t-225 -32.5q-195 0 -352 70q-12 46 -12 123q0 84 16 149h156l33 -198q70 -23 149 -23q197 0 197 137q0 57 -34.5 90t-115.5 68l-129 53q-121 51 -183.5 120t-62.5 186
q0 151 106.5 234t299.5 83q172 0 311 -64q13 -63 13 -120q0 -63 -17 -146h-139l-35 187q-71 22 -137 22q-176 0 -176 -133q0 -50 29.5 -79t103.5 -60zM799 1241l-162 -88l-188 221h-23l-164 -200h-123l275 403h155z" />
    <glyph glyph-name="Scedilla" unicode="&#x15e;" horiz-adv-x="1148" 
d="M547 858l176 -78q81 -36 137 -69.5t104.5 -81t72.5 -111t24 -143.5q0 -96 -34 -170t-96 -122t-144 -74.5t-183 -33.5v-100q101 -1 147 -40t46 -101q0 -75 -63.5 -122.5t-180.5 -47.5q-141 0 -221 61l18 88q102 -26 142 -26q98 0 98 67q0 30 -27 44t-110 26l26 151
q-206 8 -360 78q-21 100 -21 193q0 40 11 112l161 13l66 -232q83 -28 186 -28q129 0 191.5 45.5t62.5 144.5q0 88 -48 136.5t-155 94.5l-180 78q-127 56 -198.5 146t-71.5 231q0 189 129.5 295.5t355.5 106.5q213 0 381 -82q10 -52 10 -121q0 -84 -18 -176h-166l-45 219
q-77 22 -158 22q-233 0 -233 -192q0 -73 38 -116.5t130 -84.5z" />
    <glyph glyph-name="scedilla" unicode="&#x15f;" horiz-adv-x="956" 
d="M463 672l133 -56q71 -29 117.5 -55.5t87 -64t59.5 -87t19 -114.5q0 -143 -92.5 -221.5t-251.5 -96.5v-102q101 -1 146.5 -40t45.5 -101q0 -75 -63.5 -122.5t-180.5 -47.5q-141 0 -221 61l17 88q102 -26 141 -26q98 0 98 67q0 30 -27 44t-108 26h-2l27 149q-182 8 -318 70
q-12 46 -12 123q0 84 16 149h156l33 -198q70 -23 149 -23q197 0 197 137q0 57 -34.5 90t-115.5 68l-129 53q-121 51 -183.5 120t-62.5 186q0 151 106.5 234t299.5 83q172 0 311 -64q13 -63 13 -120q0 -63 -17 -146h-139l-35 187q-71 22 -137 22q-176 0 -176 -133
q0 -50 29.5 -79t103.5 -60z" />
    <glyph glyph-name="Scaron" unicode="&#x160;" horiz-adv-x="1148" 
d="M547 858l176 -78q81 -36 137 -69.5t104.5 -81t72.5 -111t24 -143.5q0 -104 -39.5 -182.5t-111 -126t-165 -70.5t-208.5 -23q-119 0 -229.5 23t-188.5 57q-21 100 -21 193q0 40 11 112l161 13l66 -232q83 -28 186 -28q129 0 191.5 45.5t62.5 144.5q0 88 -48 136.5
t-155 94.5l-180 78q-127 56 -198.5 146t-71.5 231q0 189 129.5 295.5t355.5 106.5q213 0 381 -82q10 -52 10 -121q0 -84 -18 -176h-166l-45 219q-77 22 -158 22q-233 0 -233 -192q0 -73 38 -116.5t130 -84.5zM606 1669h21l184 156h131l-301 -352h-156l-249 284l159 94z" />
    <glyph glyph-name="scaron" unicode="&#x161;" horiz-adv-x="956" 
d="M463 672l133 -56q71 -29 117.5 -55.5t87 -64t59.5 -87t19 -114.5q0 -110 -58 -183.5t-154 -106t-225 -32.5q-195 0 -352 70q-12 46 -12 123q0 84 16 149h156l33 -198q70 -23 149 -23q197 0 197 137q0 57 -34.5 90t-115.5 68l-129 53q-121 51 -183.5 120t-62.5 186
q0 151 106.5 234t299.5 83q172 0 311 -64q13 -63 13 -120q0 -63 -17 -146h-139l-35 187q-71 22 -137 22q-176 0 -176 -133q0 -50 29.5 -79t103.5 -60zM502 1378h20l164 201h123l-272 -403h-158l-229 335l161 88z" />
    <glyph glyph-name="Tcommaaccent" unicode="&#x162;" horiz-adv-x="1286" 
d="M1231 1362q10 -58 10 -139q0 -123 -16 -224h-158l-47 224l-236 10v-1104l170 -14v-115h-241v-125q101 -1 146.5 -40t45.5 -101q0 -75 -63 -122.5t-180 -47.5q-142 0 -222 61l19 88q102 -26 141 -26q98 0 98 67q0 30 -27 44t-110 26l31 176h-262v115l172 39h2v1079
l-238 -10l-47 -224h-158q-16 84 -16 224q0 81 10 139h1176z" />
    <glyph glyph-name="tcommaaccent" unicode="&#x163;" horiz-adv-x="786" 
d="M739 172l27 -98q-125 -98 -293 -101v-98q101 -1 147 -40t46 -101q0 -75 -63.5 -122.5t-180.5 -47.5q-141 0 -221 61l16 88q102 -26 141 -26q99 0 99 67q0 30 -27 44t-108 26h-3l31 166q-176 49 -176 248v669l-137 17v98l156 33l163 252l76 -9v-266h295v-131h-295v-631
q0 -76 29.5 -106.5t97.5 -30.5q77 0 180 39z" />
    <glyph glyph-name="Tcaron" unicode="&#x164;" horiz-adv-x="1286" 
d="M1229 1362h2q10 -58 10 -139q0 -123 -16 -224h-158l-47 224l-236 10v-1104l170 -14v-115h-624v115l172 39h2v1079l-238 -10l-47 -224h-158q-16 84 -16 224q0 81 10 139h1174zM672 1669h20l185 156h131l-301 -352h-156l-250 284l160 94z" />
    <glyph glyph-name="tcaron" unicode="&#x165;" horiz-adv-x="860" 
d="M739 172l27 -98q-128 -101 -299 -101q-138 0 -215.5 67t-77.5 198v669l-137 17v98l156 33l163 252l76 -9v-266h295v-131h-295v-631q0 -76 29.5 -106.5t97.5 -30.5q77 0 180 39zM709 1542q80 0 143 -39q-11 -120 -46.5 -205.5t-119.5 -175.5h-121l41 203v207q38 10 103 10
z" />
    <glyph glyph-name="Tbar" unicode="&#x166;" horiz-adv-x="1286" 
d="M1229 1362h2q10 -58 10 -139q0 -123 -16 -224h-158l-47 224l-236 10v-567h269v-127h-269v-410l170 -14v-115h-624v115l172 39h2v385h-273v127h273v567l-238 -10l-47 -224h-158q-16 84 -16 224q0 81 10 139h1174z" />
    <glyph glyph-name="tbar" unicode="&#x167;" horiz-adv-x="800" 
d="M748 172l26 -98q-128 -101 -299 -101q-138 0 -215.5 67t-77.5 198v335h-137v132h137v202l-137 17v98l156 33l164 252l75 -9v-266h295v-131h-295v-196h295v-132h-295v-303q0 -76 29.5 -106.5t97.5 -30.5q78 0 181 39z" />
    <glyph glyph-name="Utilde" unicode="&#x168;" horiz-adv-x="1478" 
d="M1432 1251l-152 -39v-763q0 -218 -140.5 -347t-398.5 -129q-261 0 -401.5 131.5t-140.5 358.5v774l-152 14v111h584v-111l-152 -39v-761q0 -176 79.5 -258t234.5 -82q317 0 317 338v788l-172 14v111h494v-111zM1059 1782l69 -56q-17 -45 -33 -77t-42.5 -68t-63 -55
t-80.5 -19q-53 0 -110 25l-203 88l-100 -111l-72 56q17 45 33.5 77t42.5 68t63 55t82 19q52 0 109 -25l202 -88z" />
    <glyph glyph-name="utilde" unicode="&#x169;" horiz-adv-x="1261" 
d="M1217 141v-106q-181 -44 -338 -53l-45 16l10 156h-23q-136 -181 -334 -181q-150 0 -235.5 88t-85.5 250v549l-131 43v105q207 46 344 51l45 -15v-686q0 -198 176 -198q127 0 225 110v594l-118 39v105q214 47 333 51l43 -15v-866zM858 1501l70 -55q-16 -43 -32.5 -77
t-43 -70.5t-64 -57t-81.5 -20.5q-46 0 -103 28l-166 84l-100 -112l-72 55q12 33 24.5 60t32.5 59.5t42 54t54 36.5t68 15q52 0 103 -26l168 -84z" />
    <glyph glyph-name="Umacron" unicode="&#x16a;" horiz-adv-x="1478" 
d="M1432 1251l-152 -39v-763q0 -218 -140.5 -347t-398.5 -129q-261 0 -401.5 131.5t-140.5 358.5v774l-152 14v111h584v-111l-152 -39v-761q0 -176 79.5 -258t234.5 -82q317 0 317 338v788l-172 14v111h494v-111zM465 1722h625q8 -31 8 -82q0 -53 -8 -86h-625q-8 33 -8 86
q0 51 8 82z" />
    <glyph glyph-name="umacron" unicode="&#x16b;" horiz-adv-x="1261" 
d="M1217 141v-106q-181 -44 -338 -53l-45 16l10 156h-23q-136 -181 -334 -181q-150 0 -235.5 88t-85.5 250v549l-131 43v105q207 46 344 51l45 -15v-686q0 -198 176 -198q127 0 225 110v594l-118 39v105q214 47 333 51l43 -15v-866zM307 1432h576q10 -42 10 -82
q0 -42 -10 -84h-576q-8 33 -8 84q0 49 8 82z" />
    <glyph glyph-name="Ubreve" unicode="&#x16c;" horiz-adv-x="1478" 
d="M1432 1251l-152 -39v-763q0 -218 -140.5 -347t-398.5 -129q-261 0 -401.5 131.5t-140.5 358.5v774l-152 14v111h584v-111l-152 -39v-761q0 -176 79.5 -258t234.5 -82q317 0 317 338v788l-172 14v111h494v-111zM455 1765l174 39q21 -89 65 -130.5t125 -41.5q84 0 131 43
t72 127l90 -20q-17 -149 -108.5 -229t-237.5 -80q-144 0 -223.5 75t-87.5 217z" />
    <glyph glyph-name="ubreve" unicode="&#x16d;" horiz-adv-x="1261" 
d="M1217 141v-106q-181 -44 -338 -53l-45 16l10 156h-23q-136 -181 -334 -181q-150 0 -235.5 88t-85.5 250v549l-131 43v105q207 46 344 51l45 -15v-686q0 -198 176 -198q127 0 225 110v594l-118 39v105q214 47 333 51l43 -15v-866zM291 1513l174 37q14 -102 53.5 -150
t116.5 -48q79 0 120.5 48t61.5 148l88 -22q-12 -164 -97.5 -249t-223.5 -85t-213.5 81.5t-79.5 239.5z" />
    <glyph glyph-name="Uring" unicode="&#x16e;" horiz-adv-x="1478" 
d="M1432 1251l-152 -39v-763q0 -218 -140.5 -347t-398.5 -129q-261 0 -401.5 131.5t-140.5 358.5v774l-152 14v111h584v-111l-152 -39v-761q0 -176 79.5 -258t234.5 -82q317 0 317 338v788l-172 14v111h494v-111zM791 1855q118 0 176.5 -49t58.5 -139q0 -100 -70 -150.5
t-192 -50.5q-119 0 -180.5 47.5t-61.5 135.5q0 101 76 153.5t193 52.5zM776 1757q-82 0 -82 -96t82 -96q39 0 60.5 26t21.5 72q0 94 -82 94z" />
    <glyph glyph-name="uring" unicode="&#x16f;" horiz-adv-x="1261" 
d="M1217 141v-106q-181 -44 -338 -53l-45 16l10 156h-23q-136 -181 -334 -181q-150 0 -235.5 88t-85.5 250v549l-131 43v105q207 46 344 51l45 -15v-686q0 -198 176 -198q127 0 225 110v594l-118 39v105q214 47 333 51l43 -15v-866zM612 1608q116 0 176 -52.5t60 -148.5
q0 -107 -71 -163t-191 -56q-118 0 -180 52.5t-62 148.5q0 109 75 164t193 55zM598 1507q-82 0 -82 -108q0 -111 80 -111q84 0 84 113q0 106 -82 106z" />
    <glyph glyph-name="Uhungarumlaut" unicode="&#x170;" horiz-adv-x="1478" 
d="M1432 1251l-152 -39v-763q0 -218 -140.5 -347t-398.5 -129q-261 0 -401.5 131.5t-140.5 358.5v774l-152 14v111h584v-111l-152 -39v-761q0 -176 79.5 -258t234.5 -82q317 0 317 338v788l-172 14v111h494v-111zM625 1823h118q73 -30 119 -117l-186 -233h-127zM993 1823
h119q72 -28 119 -117l-187 -233h-126z" />
    <glyph glyph-name="uhungarumlaut" unicode="&#x171;" horiz-adv-x="1261" 
d="M1217 141v-106q-181 -44 -338 -53l-45 16l10 156h-23q-136 -181 -334 -181q-150 0 -235.5 88t-85.5 250v549l-131 43v105q207 46 344 51l45 -15v-686q0 -198 176 -198q127 0 225 110v594l-118 39v105q214 47 333 51l43 -15v-866zM430 1593h121q78 -26 127 -114l-225 -305
h-113zM786 1593h121q74 -25 127 -114l-227 -305h-111z" />
    <glyph glyph-name="Uogonek" unicode="&#x172;" horiz-adv-x="1478" 
d="M1432 1251l-152 -39v-763q-1 -83 -17.5 -148.5t-47.5 -111.5t-60 -74t-70 -58q-104 -75 -140 -110q-75 -75 -75 -150q0 -102 121 -102q55 0 111 18l18 -94q-93 -55 -221 -55q-122 0 -185 46.5t-63 127.5q0 141 176 229l-6 21q-50 -13 -110 -13q-237 0 -374.5 132
t-137.5 356v774l-152 14v111h584v-111l-152 -39v-761q0 -177 79.5 -258.5t236.5 -81.5q159 0 237 83t78 255v788l-172 14v111h494v-111z" />
    <glyph glyph-name="uogonek" unicode="&#x173;" horiz-adv-x="1261" 
d="M1217 141v-106q-134 -46 -206.5 -102t-72.5 -136q0 -102 123 -102q56 0 108 18l19 -94q-93 -55 -221 -55q-122 0 -185 50t-63 138q0 75 43.5 132.5t111.5 90.5l-30 179h-23q-133 -181 -334 -181q-150 0 -235.5 88t-85.5 250v549l-131 43v105q207 46 344 51l45 -15v-686
q0 -198 176 -198q127 0 225 110v594l-118 39v105q214 47 333 51l43 -15v-866z" />
    <glyph glyph-name="Wcircumflex" unicode="&#x174;" horiz-adv-x="2195" 
d="M2157 1251l-119 -37q-185 -622 -387 -1206l-226 -35l-36 9q-195 579 -269 823h-24q-137 -434 -273 -797l-225 -35l-39 9q-239 703 -401 1255l-119 14v111h569v-111l-145 -39q179 -673 274 -968h23q190 563 276 833l-49 158l-117 16v111h572v-111l-170 -39h-2
q197 -699 295 -968h22q150 477 283 993l-166 14v111h453v-111zM1509 1540l-161 -94l-211 182h-21l-182 -155h-131l301 352h156z" />
    <glyph glyph-name="wcircumflex" unicode="&#x175;" horiz-adv-x="1847" 
d="M1794 924l-117 -33q-112 -399 -276 -883l-187 -35l-38 9q-113 318 -224 708h-22q-167 -505 -236 -682l-186 -35l-39 9q-178 515 -291 931l-125 11v108h502v-108l-94 -37q59 -258 174 -641h22q152 451 242 778l168 33l39 -6q114 -437 233 -805h23q105 365 164 665l-152 13
v108h420v-108zM1325 1241l-162 -88l-188 221h-23l-164 -200h-122l274 403h156z" />
    <glyph glyph-name="Ycircumflex" unicode="&#x176;" horiz-adv-x="1388" 
d="M1352 1251l-119 -37q-173 -363 -379 -725v-364l170 -14v-111h-625v111l172 39h2v319q-209 373 -405 768l-131 14v111h569v-111l-129 -32q118 -259 285 -568h22q141 252 287 586l-172 14v111h453v-111zM1065 1540l-162 -94l-211 182h-20l-183 -155h-131l301 352h156z" />
    <glyph glyph-name="ycircumflex" unicode="&#x177;" horiz-adv-x="1179" 
d="M1167 924l-125 -35q-175 -510 -370 -963q-81 -182 -185.5 -272t-220.5 -90q-104 0 -155 69l14 129h324q53 85 83 168q-91 196 -202.5 475.5t-190.5 505.5l-127 13v108h492v-108l-82 -33q111 -342 229 -645h25q129 349 217 665l-145 13v108h419v-108zM934 1241l-162 -88
l-188 221h-23l-164 -200h-123l275 403h156z" />
    <glyph glyph-name="Ydieresis" unicode="&#x178;" horiz-adv-x="1388" 
d="M1352 1251l-119 -37q-173 -363 -379 -725v-364l170 -14v-111h-625v111l172 39h2v319q-209 373 -405 768l-131 14v111h569v-111l-129 -32q118 -259 285 -568h22q141 252 287 586l-172 14v111h453v-111zM477 1765q56 0 84 -12q33 -44 33 -111q0 -64 -47 -131h-185l-30 228
q72 26 145 26zM975 1765q54 0 84 -12q33 -44 33 -111q0 -63 -48 -131h-186l-31 228q76 26 148 26z" />
    <glyph glyph-name="Zacute" unicode="&#x179;" horiz-adv-x="1228" 
d="M979 362l176 -12q8 -62 8 -119q0 -130 -24 -231h-1057l-12 82l587 911q24 39 50 76t67 93.5t47 64.5l-10 16l-487 -20l-41 -213h-166q-19 108 -19 194q0 94 11 158h1038l12 -82l-569 -889q-31 -49 -178 -254l10 -16l502 18zM776 1843h133q72 -40 117 -131l-321 -239h-136
z" />
    <glyph glyph-name="zacute" unicode="&#x17a;" horiz-adv-x="958" 
d="M754 334l143 -10q8 -44 8 -113q0 -119 -28 -211h-811l-15 111l389 571q51 79 162 223l-10 17l-330 -17l-35 -192h-139q-16 88 -16 174q0 83 12 145h788l15 -112l-383 -570q-51 -77 -160 -223l8 -16l353 16zM573 1593h134q70 -43 116 -133l-311 -286h-123z" />
    <glyph glyph-name="Zdotaccent" unicode="&#x17b;" horiz-adv-x="1228" 
d="M979 362l176 -12q8 -62 8 -119q0 -130 -24 -231h-1057l-12 82l587 911q24 39 50 76t67 93.5t47 64.5l-10 16l-487 -20l-41 -213h-166q-19 108 -19 194q0 94 11 158h1038l12 -82l-569 -889q-31 -49 -178 -254l10 -16l502 18zM625 1774q52 0 96 -13q35 -56 35 -119
q0 -66 -56 -143h-208l-29 246q71 29 162 29z" />
    <glyph glyph-name="zdotaccent" unicode="&#x17c;" horiz-adv-x="958" 
d="M754 334l143 -10q8 -44 8 -113q0 -119 -28 -211h-811l-15 111l389 571q51 79 162 223l-10 17l-330 -17l-35 -192h-139q-16 88 -16 174q0 83 12 145h788l15 -112l-383 -570q-51 -77 -160 -223l8 -16l353 16zM494 1503q60 0 90 -12q34 -50 34 -117t-53 -143h-207l-30 246
q84 26 166 26z" />
    <glyph glyph-name="Zcaron" unicode="&#x17d;" horiz-adv-x="1228" 
d="M979 362l176 -12q8 -62 8 -119q0 -130 -24 -231h-1057l-12 82l587 911q24 39 50 76t67 93.5t47 64.5l-10 16l-487 -20l-41 -213h-166q-19 108 -19 194q0 94 11 158h1038l12 -82l-569 -889q-31 -49 -178 -254l10 -16l502 18zM627 1669h20l184 156h132l-301 -352h-156
l-250 284l160 94z" />
    <glyph glyph-name="zcaron" unicode="&#x17e;" horiz-adv-x="958" 
d="M754 334l143 -10q8 -44 8 -113q0 -119 -28 -211h-811l-15 111l389 571q51 79 162 223l-10 17l-330 -17l-35 -192h-139q-16 88 -16 174q0 83 12 145h788l15 -112l-383 -570q-51 -77 -160 -223l8 -16l353 16zM506 1378h20l164 201h123l-272 -403h-158l-229 335l161 88z" />
    <glyph glyph-name="longs" unicode="&#x17f;" horiz-adv-x="645" 
d="M614 1542q130 0 219 -49.5t89 -136.5q0 -65 -54 -119h-176l-24 186q-10 2 -35 2q-84 0 -133 -51t-49 -182v-1071l155 -15v-106h-543v106l130 39v754l-138 19v104l138 33v57q0 221 111.5 325.5t309.5 104.5z" />
    <glyph glyph-name="uni018F" unicode="&#x18f;" horiz-adv-x="1351" 
d="M621 1389q156 0 279.5 -53.5t201.5 -148t119 -219t41 -270.5q0 -162 -51 -298.5t-140.5 -229.5t-215 -145t-271.5 -52q-124 0 -220 36.5t-155 102.5t-89 153t-30 192q0 110 27 225h833q-7 261 -117.5 388.5t-302.5 127.5q-189 0 -370 -123l-37 105q183 209 498 209z
M616 129q137 0 225 107.5t105 320.5l-557 -20v-43q0 -184 51.5 -274.5t175.5 -90.5z" />
    <glyph glyph-name="florin" unicode="&#x192;" horiz-adv-x="1300" 
d="M1001 1251q122 0 203.5 -49.5t81.5 -132.5q0 -70 -61 -119h-166l-25 193h-24q-77 0 -121.5 -57t-61.5 -187l-16 -133h246v-127h-262l-50 -383q-11 -92 -42.5 -165t-74.5 -121t-98.5 -80t-113.5 -46t-121 -14q-120 0 -200.5 48t-80.5 130q0 73 62 123h170l22 -190h23
q74 0 120 52.5t62 186.5l59 459h-198v127h215l8 57q14 111 56 195.5t103.5 134t133 74t151.5 24.5z" />
    <glyph glyph-name="uni01E2" unicode="&#x1e2;" horiz-adv-x="1953" 
d="M1681 350l168 -12q9 -70 9 -119q0 -96 -27 -219h-1063v111l150 39v241h-474q-87 -181 -125 -266l134 -14v-111h-435v111l127 36q234 481 564 1088l-142 16v111h1268q10 -58 10 -143q0 -100 -16 -191h-162l-39 189l-430 16v-471l232 4l22 115h115v-379h-115l-25 125
l-229 6v-504l422 12zM918 524v697h-62q-163 -315 -348 -697h410zM823 1720h576q10 -42 10 -82q0 -42 -10 -84h-576q-8 33 -8 84q0 49 8 82z" />
    <glyph glyph-name="uni01E3" unicode="&#x1e3;" horiz-adv-x="1640" 
d="M1223 156q128 0 290 94l37 -92q-157 -185 -417 -185q-279 0 -392 205h-26q-52 -92 -140.5 -148.5t-212.5 -56.5q-142 0 -217 72.5t-75 196.5q0 46 12 85t30.5 68.5t49.5 53.5t61 40.5t74.5 29.5t80 21t87 14t85.5 9t85 6l35 2l4 152q8 225 -201 225q-47 0 -80 -8
l-33 -246h-172q-65 49 -65 123q0 70 57.5 128t148.5 89t193 31q124 0 198 -47t99 -127h25q43 77 128.5 125.5t209.5 48.5q183 0 275.5 -103t92.5 -270q0 -96 -24 -176l-604 -20q13 -169 91.5 -254.5t209.5 -85.5zM1141 940q-93 0 -154 -86.5t-67 -257.5l378 39v18
q0 148 -39 217.5t-118 69.5zM467 139q125 0 231 140q-25 96 -28 196l-13 -2q-174 -14 -244.5 -62t-70.5 -137q0 -71 31 -103t94 -32zM537 1423h575q10 -42 10 -82q0 -42 -10 -84h-575q-9 37 -9 84q0 45 9 82z" />
    <glyph glyph-name="Aringacute" unicode="&#x1fa;" horiz-adv-x="1425" 
d="M760 1669h-129l166 311h127q69 -45 106 -116zM1407 111v-111h-569v111l137 36l-76 236h-506q-17 -52 -45 -144.5t-35 -113.5l136 -14v-111h-431v111l129 36q181 562 383 1098q-96 44 -96 156q0 101 75 152t193 51q117 0 176.5 -48t59.5 -137q0 -97 -74 -149
q192 -491 414 -1145zM688 1505q-82 0 -82 -92q0 -94 82 -94q39 0 60.5 24.5t21.5 69.5q0 44 -21 68t-61 24zM436 518h418q-115 350 -201 574h-22q-78 -212 -195 -574z" />
    <glyph glyph-name="aringacute" unicode="&#x1fb;" horiz-adv-x="1097" 
d="M1063 139v-102q-121 -53 -217 -53q-80 0 -118 33t-38 102v26h-22q-117 -172 -314 -172q-136 0 -210 73t-74 194q0 86 40 148.5t109 97t149 50t173 15.5q79 0 137 -8v194q1 115 -49.5 163t-147.5 48q-44 0 -88 -8l-33 -246h-170q-65 51 -65 123t61 130t157.5 88t205.5 30
q182 0 284 -87.5t101 -248.5l-6 -571zM463 139q116 0 213 111v203h-47q-153 0 -220 -45t-67 -138q0 -70 29.5 -100.5t91.5 -30.5zM635 1898h119q67 -44 108 -116l-254 -185h-123zM565 1532q117 0 175.5 -49t58.5 -140q0 -102 -70 -154t-192 -52q-120 0 -181 48.5t-61 139.5
q0 103 74.5 155t195.5 52zM549 1436q-82 0 -82 -101q0 -102 80 -102q84 0 84 104q0 99 -82 99z" />
    <glyph glyph-name="AEacute" unicode="&#x1fc;" horiz-adv-x="1953" 
d="M1681 350l168 -12q9 -70 9 -119q0 -96 -27 -219h-1063v111l150 39v241h-474q-87 -181 -125 -266l134 -14v-111h-435v111l127 36q234 481 564 1088l-142 16v111h1268q10 -58 10 -143q0 -100 -16 -191h-162l-39 189l-430 16v-471l232 4l22 115h115v-379h-115l-25 125
l-229 6v-504l422 12zM918 524v697h-62q-163 -315 -348 -697h410zM1280 1843h133q72 -40 117 -131l-322 -239h-135z" />
    <glyph glyph-name="aeacute" unicode="&#x1fd;" horiz-adv-x="1640" 
d="M1223 156q128 0 290 94l37 -92q-157 -185 -417 -185q-279 0 -392 205h-26q-52 -92 -140.5 -148.5t-212.5 -56.5q-142 0 -217 72.5t-75 196.5q0 46 12 85t30.5 68.5t49.5 53.5t61 40.5t74.5 29.5t80 21t87 14t85.5 9t85 6l35 2l4 152q8 225 -201 225q-47 0 -80 -8
l-33 -246h-172q-65 49 -65 123q0 70 57.5 128t148.5 89t193 31q124 0 198 -47t99 -127h25q43 77 128.5 125.5t209.5 48.5q183 0 275.5 -103t92.5 -270q0 -96 -24 -176l-604 -20q13 -169 91.5 -254.5t209.5 -85.5zM1141 940q-93 0 -154 -86.5t-67 -257.5l378 39v18
q0 148 -39 217.5t-118 69.5zM467 139q125 0 231 140q-25 96 -28 196l-13 -2q-174 -14 -244.5 -62t-70.5 -137q0 -71 31 -103t94 -32zM926 1585h133q72 -44 117 -133l-312 -287h-123z" />
    <glyph glyph-name="Oslashacute" unicode="&#x1fe;" horiz-adv-x="1550" 
d="M1393 1446l-144 -207q104 -92 157.5 -229.5t53.5 -304.5q0 -330 -196.5 -531t-515.5 -201q-196 0 -347 82l-151 -215l-100 45l-13 33l154 221q-99 93 -150 229t-51 298q0 327 195.5 525t517.5 198q185 0 332 -72l145 207l100 -47zM782 1245q-190 0 -285.5 -135
t-95.5 -436q0 -210 45 -332l574 817q-86 86 -238 86zM766 117q190 0 285.5 137.5t95.5 439.5q0 219 -49 344l-580 -823q85 -98 248 -98zM924 1843h133q72 -40 117 -131l-322 -239h-135z" />
    <glyph glyph-name="oslashacute" unicode="&#x1ff;" horiz-adv-x="1198" 
d="M1057 1153l-113 -188q89 -70 133.5 -181t44.5 -245q0 -255 -150 -410.5t-399 -155.5q-123 0 -219 41l-110 -184l-101 45l-14 29l109 182q-81 70 -121.5 178t-40.5 238q0 255 149.5 409t399.5 154q104 0 198 -33l119 195l100 -45zM604 940q-133 0 -189.5 -100.5
t-56.5 -327.5q0 -126 19 -219l362 608q-48 39 -135 39zM594 98q133 0 190.5 101.5t57.5 328.5q0 158 -27 252l-375 -624q55 -58 154 -58zM694 1585h133q72 -44 117 -133l-311 -287h-123z" />
    <glyph glyph-name="Scommaaccent" unicode="&#x218;" horiz-adv-x="1148" 
d="M547 858l176 -78q81 -36 137 -69.5t104.5 -81t72.5 -111t24 -143.5q0 -104 -39.5 -182.5t-111 -126t-165 -70.5t-208.5 -23q-119 0 -229.5 23t-188.5 57q-21 100 -21 193q0 40 11 112l161 13l66 -232q83 -28 186 -28q129 0 191.5 45.5t62.5 144.5q0 88 -48 136.5
t-155 94.5l-180 78q-127 56 -198.5 146t-71.5 231q0 189 129.5 295.5t355.5 106.5q213 0 381 -82q10 -52 10 -121q0 -84 -18 -176h-166l-45 219q-77 22 -158 22q-233 0 -233 -192q0 -73 38 -116.5t130 -84.5zM530 -96q56 0 105 -19q39 -58 39 -133q0 -96 -58.5 -164.5
t-173.5 -93.5l-34 66q57 29 85.5 56.5t28.5 64.5q0 16 -2 28l-96 12l-6 166q66 17 112 17z" />
    <glyph glyph-name="scommaaccent" unicode="&#x219;" horiz-adv-x="956" 
d="M463 672l133 -56q71 -29 117.5 -55.5t87 -64t59.5 -87t19 -114.5q0 -110 -58 -183.5t-154 -106t-225 -32.5q-195 0 -352 70q-12 46 -12 123q0 84 16 149h156l33 -198q70 -23 149 -23q197 0 197 137q0 57 -34.5 90t-115.5 68l-129 53q-121 51 -183.5 120t-62.5 186
q0 151 106.5 234t299.5 83q172 0 311 -64q13 -63 13 -120q0 -63 -17 -146h-139l-35 187q-71 22 -137 22q-176 0 -176 -133q0 -50 29.5 -79t103.5 -60zM459 -96q55 0 104 -19q39 -58 39 -133q0 -96 -58 -164.5t-173 -93.5l-35 66q58 30 86.5 57t28.5 64q0 16 -2 28l-97 12
l-6 166q66 17 113 17z" />
    <glyph glyph-name="uni021A" unicode="&#x21a;" horiz-adv-x="1286" 
d="M1229 1362h2q10 -58 10 -139q0 -123 -16 -224h-158l-47 224l-236 10v-1104l170 -14v-115h-624v115l172 39h2v1079l-238 -10l-47 -224h-158q-16 84 -16 224q0 81 10 139h1174zM639 -96q55 0 104 -19q39 -58 39 -133q0 -96 -58 -164.5t-173 -93.5l-35 66q58 30 86.5 57
t28.5 64q0 16 -2 28l-97 12l-6 166q66 17 113 17z" />
    <glyph glyph-name="uni021B" unicode="&#x21b;" horiz-adv-x="786" 
d="M739 172l27 -98q-128 -101 -299 -101q-138 0 -215.5 67t-77.5 198v669l-137 17v98l156 33l163 252l76 -9v-266h295v-131h-295v-631q0 -76 29.5 -106.5t97.5 -30.5q77 0 180 39zM397 -96q56 0 105 -19q39 -58 39 -133q0 -96 -58.5 -164.5t-173.5 -93.5l-35 66
q58 30 86.5 57t28.5 64q0 16 -2 28l-96 12l-6 166q66 17 112 17z" />
    <glyph glyph-name="uni0232" unicode="&#x232;" horiz-adv-x="1388" 
d="M1352 1251l-119 -37q-173 -363 -379 -725v-364l170 -14v-111h-625v111l172 39h2v319q-209 373 -405 768l-131 14v111h569v-111l-129 -32q118 -259 285 -568h22q141 252 287 586l-172 14v111h453v-111zM422 1720h575q11 -46 11 -82q0 -38 -11 -84h-575q-8 33 -8 84
q0 49 8 82z" />
    <glyph glyph-name="uni0233" unicode="&#x233;" horiz-adv-x="1179" 
d="M1167 924l-125 -35q-175 -510 -370 -963q-81 -182 -185.5 -272t-220.5 -90q-104 0 -155 69l14 129h324q53 85 83 168q-91 196 -202.5 475.5t-190.5 505.5l-127 13v108h492v-108l-82 -33q111 -342 229 -645h25q129 349 217 665l-145 13v108h419v-108zM315 1432h576
q10 -42 10 -82q0 -42 -10 -84h-576q-8 33 -8 84q0 49 8 82z" />
    <glyph glyph-name="uni0237" unicode="&#x237;" horiz-adv-x="598" 
d="M438 1044v-1042q0 -168 -83.5 -270.5t-248.5 -167.5l-61 63l133 191v1042l-131 43v105q180 42 344 51z" />
    <glyph glyph-name="uni0259" unicode="&#x259;" horiz-adv-x="1089" 
d="M532 1065q100 0 181 -27t136.5 -74.5t93 -114t54.5 -143t17 -163.5q0 -263 -148 -416.5t-385 -153.5q-100 0 -175.5 28.5t-121 79.5t-68 117.5t-22.5 147.5q0 88 25 168h620q-7 182 -81.5 272.5t-208.5 90.5q-137 0 -275 -89l-39 95q143 182 397 182zM514 98q90 0 151 79
t72 235l-387 -19v-20q0 -275 164 -275z" />
    <glyph glyph-name="uni02BB" unicode="&#x2bb;" horiz-adv-x="555" 
d="M420 1534l26 -78q-65 -33 -106 -87t-41 -114q0 -18 4 -34l107 -15l8 -221q-67 -18 -125 -18q-66 0 -119 20q-53 74 -53 180q0 134 78 234t221 133z" />
    <glyph glyph-name="afii57929" unicode="&#x2bc;" horiz-adv-x="555" 
d="M262 1516q66 0 119 -19q53 -83 53 -182q0 -139 -79 -236t-222 -129l-24 78q145 76 145 199q0 27 -2 37l-109 14l-8 221q64 17 127 17z" />
    <glyph glyph-name="circumflex" unicode="&#x2c6;" horiz-adv-x="782" 
d="M721 1241l-162 -88l-188 221h-23l-164 -200h-123l275 403h156z" />
    <glyph glyph-name="caron" unicode="&#x2c7;" horiz-adv-x="782" 
d="M414 1378h20l164 201h123l-272 -403h-158l-230 335l162 88z" />
    <glyph glyph-name="breve" unicode="&#x2d8;" horiz-adv-x="737" 
d="M61 1513l175 37q14 -102 53.5 -150t116.5 -48q79 0 120.5 48t61.5 148l88 -22q-12 -164 -98 -249t-224 -85t-213.5 81.5t-79.5 239.5z" />
    <glyph glyph-name="dotaccent" unicode="&#x2d9;" horiz-adv-x="413" 
d="M227 1511q60 0 90 -12q35 -52 35 -117q0 -67 -53 -143h-207l-31 246q84 26 166 26z" />
    <glyph glyph-name="ring" unicode="&#x2da;" horiz-adv-x="626" 
d="M330 1608q116 0 175.5 -52.5t59.5 -148.5q0 -107 -71 -163t-191 -56q-118 0 -180 52.5t-62 148.5q0 108 75.5 163.5t193.5 55.5zM315 1507q-82 0 -82 -108q0 -111 80 -111q84 0 84 113q0 106 -82 106z" />
    <glyph glyph-name="ogonek" unicode="&#x2db;" horiz-adv-x="591" 
d="M381 39l63 -8q-163 -120 -163 -232q0 -50 32 -77t90 -27q57 0 109 18l18 -94q-93 -55 -217 -55q-123 0 -187.5 52.5t-64.5 135.5q0 95 87 167.5t233 119.5z" />
    <glyph glyph-name="tilde" unicode="&#x2dc;" horiz-adv-x="784" 
d="M653 1501l70 -55q-16 -43 -32.5 -77t-43 -70.5t-64 -57t-81.5 -20.5q-46 0 -103 28l-166 84l-100 -112l-72 55q16 43 33 76t43.5 70.5t64 58t81.5 20.5q51 0 102 -26l168 -84z" />
    <glyph glyph-name="hungarumlaut" unicode="&#x2dd;" horiz-adv-x="817" 
d="M152 1593h120q78 -26 127 -114l-225 -305h-113zM508 1593h121q74 -25 127 -114l-228 -305h-110z" />
    <glyph glyph-name="gravecomb" unicode="&#x300;" horiz-adv-x="0" 
d="M-123 1174h-123l-309 286q48 97 123 133h131z" />
    <glyph glyph-name="acutecomb" unicode="&#x301;" horiz-adv-x="0" 
d="M-371 1593h133q72 -44 117 -133l-311 -286h-123z" />
    <glyph glyph-name="uni0302" unicode="&#x302;" horiz-adv-x="0" 
d="M-66 1241l-161 -88l-189 221h-22l-164 -200h-123l274 403h156z" />
    <glyph glyph-name="tildecomb" unicode="&#x303;" horiz-adv-x="0" 
d="M-104 1501l69 -55q-16 -43 -32.5 -77t-43 -70.5t-64 -57t-81.5 -20.5q-45 0 -102 28l-166 84l-101 -112l-71 55q12 33 24.5 60t32.5 59.5t42 54t54 36.5t68 15q51 0 102 -26l168 -84z" />
    <glyph glyph-name="uni0304" unicode="&#x304;" horiz-adv-x="0" 
d="M-702 1432h575q10 -42 10 -82q0 -42 -10 -84h-575q-9 38 -9 84q0 44 9 82z" />
    <glyph glyph-name="uni0306" unicode="&#x306;" horiz-adv-x="0" 
d="M-717 1513l174 37q14 -102 53.5 -150t116.5 -48q79 0 121 48.5t62 147.5l88 -22q-12 -164 -98 -249t-224 -85t-213.5 81.5t-79.5 239.5z" />
    <glyph glyph-name="uni0307" unicode="&#x307;" horiz-adv-x="0" 
d="M-389 1503q60 0 90 -12q35 -52 35 -117q0 -67 -53 -143h-207l-31 246q85 26 166 26z" />
    <glyph glyph-name="uni0308" unicode="&#x308;" horiz-adv-x="2" 
d="M-680 1499q55 0 84 -10q33 -61 33 -109q0 -63 -49 -133h-183l-30 226q72 26 145 26zM-248 1499q55 0 84 -10q33 -53 33 -109q0 -63 -49 -133h-182l-31 226q72 26 145 26z" />
    <glyph glyph-name="uni030A" unicode="&#x30a;" horiz-adv-x="0" 
d="M-362 1608q116 0 175.5 -52.5t59.5 -148.5q0 -107 -71 -163t-191 -56q-118 0 -180 52.5t-62 148.5q0 108 75.5 163.5t193.5 55.5zM-377 1507q-82 0 -82 -108q0 -111 80 -111q84 0 84 113q0 106 -82 106z" />
    <glyph glyph-name="uni030B" unicode="&#x30b;" horiz-adv-x="0" 
d="M-678 1593h121q78 -26 127 -114l-225 -305h-113zM-322 1593h121q74 -25 127 -114l-227 -305h-111z" />
    <glyph glyph-name="uni030C" unicode="&#x30c;" horiz-adv-x="0" 
d="M-406 1378h21l164 201h123l-273 -403h-157l-230 335l162 88z" />
    <glyph glyph-name="uni0312" unicode="&#x312;" horiz-adv-x="2" 
d="M-281 1595l35 -65q-63 -34 -91 -61.5t-28 -69.5q0 -11 3 -29l96 -12l6 -166q-55 -14 -113 -14q-62 0 -106 16q-37 62 -37 133q0 98 59 169.5t176 98.5z" />
    <glyph glyph-name="uni0326" unicode="&#x326;" horiz-adv-x="0" 
d="M-233 -96q55 0 104 -19q39 -59 39 -133q0 -96 -58.5 -164.5t-173.5 -93.5l-34 66q57 29 85.5 56.5t28.5 64.5q0 16 -2 28l-96 12l-6 166q66 17 113 17z" />
    <glyph glyph-name="uni0327" unicode="&#x327;" horiz-adv-x="0" 
d="M-293 12v-137q101 -1 147 -40t46 -101q0 -75 -63.5 -122.5t-180.5 -47.5q-141 0 -221 61l16 88q102 -26 141 -26q99 0 99 67q0 30 -27 44t-108 26h-2l34 188h119z" />
    <glyph glyph-name="uni0328" unicode="&#x328;" horiz-adv-x="2" 
d="M381 39l63 -8q-163 -120 -163 -232q0 -50 32 -77t90 -27q57 0 109 18l18 -94q-93 -55 -217 -55q-123 0 -187.5 52.5t-64.5 135.5q0 95 87 167.5t233 119.5z" />
    <glyph glyph-name="uni0394" unicode="&#x394;" horiz-adv-x="1255" 
d="M1229 35l-15 -35h-1175l-14 35l507 1325l148 29l39 -9zM256 199h666l-330 886z" />
    <glyph glyph-name="uni03A9" unicode="&#x3a9;" horiz-adv-x="1540" 
d="M1352 365l149 -13q8 -70 8 -119q0 -116 -20 -233h-602v354q243 124 243 455q0 212 -93 324t-267 112q-173 0 -266.5 -111t-93.5 -321q0 -168 62 -286t181 -173v-354h-602q-20 117 -20 233q0 49 8 119l149 13l41 -148l291 -24v110q-65 17 -123.5 44.5t-114 71.5t-95.5 99
t-64.5 131t-24.5 164q0 124 48.5 230t136.5 182.5t219 120t289 43.5q160 0 286 -43.5t204.5 -120.5t119.5 -178t41 -220q0 -206 -117 -342.5t-305 -189.5v-102l291 24z" />
    <glyph glyph-name="uni03BC" unicode="&#x3bc;" horiz-adv-x="1255" 
d="M1210 141v-106q-181 -44 -338 -53l-43 16l9 156h-23q-117 -181 -283 -181q-103 0 -163 80l-21 -10l39 -455q-89 -24 -233 -24l-39 41l45 526v891q113 28 215 37l43 -15v-686q0 -198 176 -198q130 0 225 110v750q110 30 215 39l43 -15v-866z" />
    <glyph glyph-name="pi" unicode="&#x3c0;" horiz-adv-x="1323" 
d="M1120 160l133 -21v-102q-115 -53 -219 -53q-97 0 -138.5 47.5t-41.5 156.5q0 230 18 621h-380v-801q-94 -17 -228 -20l-43 28l47 510v283q-108 -7 -215 -68l-51 80q40 74 84 117t120.5 68.5t188.5 25.5h840l27 -28l-23 -195h-119v-649z" />
    <glyph glyph-name="Wgrave" unicode="&#x1e80;" horiz-adv-x="2195" 
d="M2157 1251l-119 -37q-185 -622 -387 -1206l-226 -35l-36 9q-195 579 -269 823h-24q-137 -434 -273 -797l-225 -35l-39 9q-239 703 -401 1255l-119 14v111h569v-111l-145 -39q179 -673 274 -968h23q190 563 276 833l-49 158l-117 16v111h572v-111l-170 -39h-2
q197 -699 295 -968h22q150 477 283 993l-166 14v111h453v-111zM1278 1473h-135l-307 239q45 92 116 131h133z" />
    <glyph glyph-name="wgrave" unicode="&#x1e81;" horiz-adv-x="1847" 
d="M1794 924l-117 -33q-112 -399 -276 -883l-187 -35l-38 9q-113 318 -224 708h-22q-167 -505 -236 -682l-186 -35l-39 9q-178 515 -291 931l-125 11v108h502v-108l-94 -37q59 -258 174 -641h22q152 451 242 778l168 33l39 -6q114 -437 233 -805h23q105 365 164 665l-152 13
v108h420v-108zM1096 1174h-123l-309 286q48 98 122 133h132z" />
    <glyph glyph-name="Wacute" unicode="&#x1e82;" horiz-adv-x="2195" 
d="M2157 1251l-119 -37q-185 -622 -387 -1206l-226 -35l-36 9q-195 579 -269 823h-24q-137 -434 -273 -797l-225 -35l-39 9q-239 703 -401 1255l-119 14v111h569v-111l-145 -39q179 -673 274 -968h23q190 563 276 833l-49 158l-117 16v111h572v-111l-170 -39h-2
q197 -699 295 -968h22q150 477 283 993l-166 14v111h453v-111zM1323 1843h133q72 -40 117 -131l-322 -239h-135z" />
    <glyph glyph-name="wacute" unicode="&#x1e83;" horiz-adv-x="1847" 
d="M1794 924l-117 -33q-112 -399 -276 -883l-187 -35l-38 9q-113 318 -224 708h-22q-167 -505 -236 -682l-186 -35l-39 9q-178 515 -291 931l-125 11v108h502v-108l-94 -37q59 -258 174 -641h22q152 451 242 778l168 33l39 -6q114 -437 233 -805h23q105 365 164 665l-152 13
v108h420v-108zM1096 1593h133q72 -44 117 -133l-312 -286h-123z" />
    <glyph glyph-name="Wdieresis" unicode="&#x1e84;" horiz-adv-x="2195" 
d="M2157 1251l-119 -37q-185 -622 -387 -1206l-226 -35l-36 9q-195 579 -269 823h-24q-137 -434 -273 -797l-225 -35l-39 9q-239 703 -401 1255l-119 14v111h569v-111l-145 -39q179 -673 274 -968h23q190 563 276 833l-49 158l-117 16v111h572v-111l-170 -39h-2
q197 -699 295 -968h22q150 477 283 993l-166 14v111h453v-111zM922 1765q56 0 84 -12q32 -42 32 -111q0 -64 -47 -131h-184l-31 228q72 26 146 26zM1419 1765q54 0 84 -12q33 -44 33 -111q0 -64 -47 -131h-186l-31 228q76 26 147 26z" />
    <glyph glyph-name="wdieresis" unicode="&#x1e85;" horiz-adv-x="1847" 
d="M1794 924l-117 -33q-112 -399 -276 -883l-187 -35l-38 9q-113 318 -224 708h-22q-167 -505 -236 -682l-186 -35l-39 9q-178 515 -291 931l-125 11v108h502v-108l-94 -37q59 -258 174 -641h22q152 451 242 778l168 33l39 -6q114 -437 233 -805h23q105 365 164 665l-152 13
v108h420v-108zM795 1499q55 0 84 -10q32 -59 32 -109q0 -63 -49 -133h-182l-31 226q72 26 146 26zM1227 1499q55 0 84 -10q32 -51 32 -109q0 -63 -49 -133h-182l-31 226q72 26 146 26z" />
    <glyph glyph-name="uni1E9E" unicode="&#x1e9e;" horiz-adv-x="1546" 
d="M836 1389q116 0 249 -18t238 -50v-139q-127 -58 -188.5 -123.5t-61.5 -147.5q0 -60 34.5 -105t129.5 -122q48 -38 73 -59t59.5 -57t51.5 -67t30 -75t13 -94q0 -89 -35.5 -158.5t-97 -113t-140.5 -65.5t-169 -22q-166 0 -315 78q-13 56 -13 127q0 84 19 168h145l33 -215
q56 -20 117 -20q92 0 133 46t41 119q0 65 -35 108.5t-135 123.5q-98 74 -147.5 146t-49.5 169q0 127 84 222.5t238 152.5v21q-112 30 -256 30q-99 0 -170.5 -18t-126.5 -61.5t-82 -120t-27 -187.5v-862h-428v111l152 39v710q0 140 45.5 243t131.5 165t200 91.5t260 29.5z
" />
    <glyph glyph-name="Ygrave" unicode="&#x1ef2;" horiz-adv-x="1388" 
d="M1352 1251l-119 -37q-173 -363 -379 -725v-364l170 -14v-111h-625v111l172 39h2v319q-209 373 -405 768l-131 14v111h569v-111l-129 -32q118 -259 285 -568h22q141 252 287 586l-172 14v111h453v-111zM834 1473h-136l-307 239q45 91 117 131h133z" />
    <glyph glyph-name="ygrave" unicode="&#x1ef3;" horiz-adv-x="1179" 
d="M1167 924l-125 -35q-175 -510 -370 -963q-81 -182 -185.5 -272t-220.5 -90q-104 0 -155 69l14 129h324q53 85 83 168q-91 196 -202.5 475.5t-190.5 505.5l-127 13v108h492v-108l-82 -33q111 -342 229 -645h25q129 349 217 665l-145 13v108h419v-108zM705 1174h-123
l-310 286q48 97 123 133h131z" />
    <glyph glyph-name="uni2007" unicode="&#x2007;" horiz-adv-x="1267" 
 />
    <glyph glyph-name="uni2008" unicode="&#x2008;" horiz-adv-x="555" 
 />
    <glyph glyph-name="uni2009" unicode="&#x2009;" horiz-adv-x="358" 
 />
    <glyph glyph-name="uni200B" unicode="&#x200b;" horiz-adv-x="0" 
 />
    <glyph glyph-name="endash" unicode="&#x2013;" horiz-adv-x="1024" 
d="M924 530h-826v156h826v-156z" />
    <glyph glyph-name="emdash" unicode="&#x2014;" horiz-adv-x="2048" 
d="M1901 530h-1751v156h1751v-156z" />
    <glyph glyph-name="quoteleft" unicode="&#x2018;" horiz-adv-x="555" 
d="M420 1534l26 -78q-65 -33 -106 -87t-41 -114q0 -18 4 -34l107 -15l8 -221q-67 -18 -125 -18q-66 0 -119 20q-53 74 -53 180q0 134 78 234t221 133z" />
    <glyph glyph-name="quoteright" unicode="&#x2019;" horiz-adv-x="555" 
d="M262 1516q66 0 119 -19q53 -83 53 -182q0 -139 -79 -236t-222 -129l-24 78q145 76 145 199q0 27 -2 37l-109 14l-8 221q64 17 127 17z" />
    <glyph glyph-name="quotesinglbase" unicode="&#x201a;" horiz-adv-x="555" 
d="M262 252q60 0 119 -21q53 -83 53 -182q0 -138 -79 -235t-222 -129l-24 77q145 76 145 199q0 29 -2 37l-109 14l-8 221q71 19 127 19z" />
    <glyph glyph-name="quotedblleft" unicode="&#x201c;" horiz-adv-x="978" 
d="M844 1534l26 -78q-65 -33 -106 -87t-41 -114q0 -18 4 -34l107 -15l8 -221q-68 -18 -125 -18q-66 0 -119 20q-53 74 -53 180q0 134 78 234t221 133zM420 1534l26 -78q-65 -33 -106 -87t-41 -114q0 -18 4 -34l107 -15l8 -221q-67 -18 -125 -18q-66 0 -119 20
q-53 74 -53 180q0 134 78 234t221 133z" />
    <glyph glyph-name="quotedblright" unicode="&#x201d;" horiz-adv-x="978" 
d="M686 1516q66 0 119 -19q53 -83 53 -182q0 -139 -79 -236t-222 -129l-25 78q146 77 146 199q0 27 -2 37l-109 14l-8 221q64 17 127 17zM262 1516q66 0 119 -19q53 -83 53 -182q0 -139 -79 -236t-222 -129l-24 78q145 76 145 199q0 27 -2 37l-109 14l-8 221q64 17 127 17z
" />
    <glyph glyph-name="quotedblbase" unicode="&#x201e;" horiz-adv-x="978" 
d="M686 252q60 0 119 -21q53 -83 53 -182q0 -138 -79 -235t-222 -129l-25 77q146 77 146 199q0 29 -2 37l-109 14l-8 221q71 19 127 19zM262 252q60 0 119 -21q53 -83 53 -182q0 -138 -79 -235t-222 -129l-24 77q145 76 145 199q0 29 -2 37l-109 14l-8 221q71 19 127 19z
" />
    <glyph glyph-name="dagger" unicode="&#x2020;" horiz-adv-x="956" 
d="M385 1516h186q11 -37 11 -89q0 -100 -58 -258h-92q-55 163 -55 258q0 53 8 89zM139 1190q118 0 262 -57v-89q-155 -57 -262 -57q-43 0 -88 10v185q36 8 88 8zM815 1190q52 0 88 -8v-185q-45 -10 -88 -10q-107 0 -262 57v89q144 57 262 57zM432 1010h92q54 -149 54 -275
q0 -49 -5.5 -108.5t-11.5 -101.5t-18.5 -122t-18.5 -120h-94q-6 44 -17.5 120.5t-17.5 120.5t-11 103t-5 108q0 135 53 275z" />
    <glyph glyph-name="daggerdbl" unicode="&#x2021;" horiz-adv-x="997" 
d="M406 1516h186q10 -34 10 -89q0 -103 -57 -258h-92q-56 166 -56 258q0 49 9 89zM160 1190q118 0 262 -57v-89q-155 -57 -262 -57q-43 0 -88 10v185q36 8 88 8zM836 1190q52 0 88 -8v-185q-45 -10 -88 -10q-108 0 -263 57v89q57 23 131.5 40t131.5 17zM453 1010h92
q53 -137 53 -252t-53 -252h-92q-54 133 -54 252t54 252zM160 528q107 0 262 -57v-88q-144 -57 -262 -57q-52 0 -88 8v184q45 10 88 10zM836 528q43 0 88 -10v-184q-36 -8 -88 -8q-57 0 -131.5 17t-131.5 40v88q155 57 263 57zM453 346h92q57 -155 57 -258q0 -54 -10 -88
h-186q-9 40 -9 88q0 92 56 258z" />
    <glyph glyph-name="bullet" unicode="&#x2022;" horiz-adv-x="866" 
d="M432 899q141 0 219 -78.5t78 -214.5q0 -138 -77.5 -215.5t-219.5 -77.5q-141 0 -218 77.5t-77 215.5q0 137 77 215t218 78z" />
    <glyph glyph-name="ellipsis" unicode="&#x2026;" horiz-adv-x="1681" 
d="M1425 303q57 0 95 -10q41 -58 41 -135q0 -85 -48 -158h-229l-39 266q72 37 180 37zM299 303q56 0 94 -10q41 -58 41 -135q0 -87 -47 -158h-229l-39 266q72 37 180 37zM860 303q56 0 94 -10q41 -58 41 -135q0 -87 -47 -158h-229l-39 266q72 37 180 37z" />
    <glyph glyph-name="perthousand" unicode="&#x2030;" horiz-adv-x="2562" 
d="M2152 731q159 0 240.5 -101t81.5 -265q0 -181 -95.5 -286.5t-258.5 -105.5q-159 0 -240.5 100t-81.5 265q0 182 95.5 287.5t258.5 105.5zM2138 635q-69 0 -100 -66t-31 -217t30.5 -215.5t100.5 -64.5q69 0 99 64t30 216t-30 217.5t-99 65.5zM1343 1241l15 -35
q-28 -43 -182 -269.5t-234 -356.5q-59 -96 -182.5 -310t-194.5 -329l-112 45l-15 34q317 474 406 613q78 124 210 351.5t177 303.5zM440 1253q159 0 240.5 -101t81.5 -265q0 -181 -95.5 -286t-258.5 -105q-159 0 -240.5 99.5t-81.5 264.5q0 182 95.5 287.5t258.5 105.5z
M426 1155q-69 0 -100 -66t-31 -217t30.5 -215.5t100.5 -64.5q69 0 99 64t30 216t-30 217.5t-99 65.5zM1376 731q159 0 240.5 -101t81.5 -265q0 -181 -96.5 -286.5t-258.5 -105.5q-159 0 -240 100t-81 265q0 182 95.5 287.5t258.5 105.5zM1368 633q-69 0 -100 -66t-31 -217
t30.5 -215.5t100.5 -64.5q69 0 99 64t30 216t-30 217.5t-99 65.5z" />
    <glyph glyph-name="minute" unicode="&#x2032;" horiz-adv-x="530" 
d="M438 1454l-188 -491h-160l76 516q130 26 233 26z" />
    <glyph glyph-name="second" unicode="&#x2033;" horiz-adv-x="964" 
d="M438 1454l-188 -491h-160l76 516q130 26 233 26zM872 1454l-188 -491h-160l76 516q130 26 234 26z" />
    <glyph glyph-name="uni2034" unicode="&#x2034;" horiz-adv-x="1388" 
d="M438 1454l-188 -491h-160l76 516q130 26 233 26zM866 1454l-188 -491h-160l76 516q130 26 233 26zM1296 1454l-188 -491h-160l76 516q130 26 233 26z" />
    <glyph glyph-name="guilsinglleft" unicode="&#x2039;" horiz-adv-x="696" 
d="M545 887l-166 -326l168 -328l-111 -71l-332 366v66l330 367z" />
    <glyph glyph-name="guilsinglright" unicode="&#x203a;" horiz-adv-x="696" 
d="M592 594v-66l-332 -366l-110 71l167 328l-165 326l110 74z" />
    <glyph glyph-name="fraction" unicode="&#x2044;" horiz-adv-x="528" 
d="M741 1364l15 -35q-332 -499 -441 -674q-72 -115 -210 -354.5t-205 -349.5l-113 45l-14 35q29 44 108 163t120.5 182.5t103.5 160t110 174.5q74 116 210 353.5t204 346.5z" />
    <glyph glyph-name="uni2070" unicode="&#x2070;" horiz-adv-x="788" 
d="M408 1501q149 0 226 -97t77 -255q0 -175 -89 -277t-241 -102q-151 0 -228 97t-77 257q0 174 89.5 275.5t242.5 101.5zM395 1413q-65 0 -95 -63.5t-30 -210.5q0 -150 30 -215.5t95 -65.5q64 0 94.5 65.5t30.5 215.5q0 146 -30.5 210t-94.5 64z" />
    <glyph glyph-name="uni2074" unicode="&#x2074;" horiz-adv-x="669" 
d="M637 903h-109v-117h-168v117h-319l-6 68q106 257 196 538l154 -43l8 -28q-100 -208 -233 -426l6 -19q91 17 143 17h51v204l121 31l47 -6v-229h109v-107z" />
    <glyph glyph-name="uni2075" unicode="&#x2075;" horiz-adv-x="657" 
d="M551 1501l20 -59q-73 -101 -211 -101q-76 0 -153 31l-19 -160q98 27 160 27q102 0 177 -59t75 -160q0 -106 -87 -178t-226 -72q-100 0 -164 37.5t-64 105.5q0 54 43 82h121l19 -133q48 -6 49 -6q54 0 86.5 33t32.5 98q0 70 -42.5 103t-142.5 36l-123 7l15 352l102 16
q69 -26 150 -26q78 0 182 26z" />
    <glyph glyph-name="uni2076" unicode="&#x2076;" horiz-adv-x="751" 
d="M467 1249q97 0 158 -58.5t61 -158.5q0 -115 -83 -188.5t-218 -73.5q-152 0 -230.5 91t-78.5 247q0 190 111 291.5t294 101.5q61 0 119 -14l-2 -74q-317 3 -334 -242h19q69 78 184 78zM383 856q54 0 83.5 36.5t29.5 108.5q0 129 -103 129q-64 0 -125 -61q0 -119 30.5 -166
t84.5 -47z" />
    <glyph glyph-name="uni2077" unicode="&#x2077;" horiz-adv-x="612" 
d="M592 1475l10 -70q-224 -321 -264 -475l24 -142l-126 -34q-39 13 -64 50.5t-25 80.5q0 77 76.5 183t243.5 290l-6 16l-293 -24l-16 -97h-95q-10 58 -10 123q0 47 10 92v7h535z" />
    <glyph glyph-name="uni2078" unicode="&#x2078;" horiz-adv-x="729" 
d="M496 1182v-19q75 -30 114 -73.5t39 -112.5q0 -72 -42 -120t-105.5 -67.5t-145.5 -19.5q-128 0 -202 48t-74 140q0 122 141 168v19q-127 55 -127 168q0 65 44 109t105.5 61.5t135.5 17.5q111 0 183.5 -44.5t72.5 -129.5q0 -63 -38.5 -95.5t-100.5 -49.5zM373 1421
q-48 0 -72.5 -24.5t-24.5 -67.5q0 -34 23 -58.5t88 -47.5l27 -11q16 15 25 26t17.5 34t8.5 51q0 98 -92 98zM356 850q56 0 83.5 29t27.5 82q0 44 -27.5 69.5t-109.5 52.5l-27 9q-55 -49 -55 -125q0 -117 108 -117z" />
    <glyph glyph-name="uni2079" unicode="&#x2079;" horiz-adv-x="751" 
d="M365 1501q154 0 232.5 -91.5t78.5 -246.5q0 -191 -111 -292t-295 -101q-68 0 -127 16l4 74q160 -3 245.5 53.5t94.5 186.5h-18q-71 -80 -184 -80q-97 0 -158 59.5t-61 159.5q0 117 82 189.5t217 72.5zM360 1137q61 0 123 59q0 120 -30.5 166.5t-85.5 46.5
q-52 0 -81.5 -36.5t-29.5 -106.5q0 -129 104 -129z" />
    <glyph glyph-name="uni2080" unicode="&#x2080;" horiz-adv-x="788" 
d="M408 559q149 0 226 -97t77 -255q0 -175 -89 -277t-241 -102q-151 0 -228 97t-77 257q0 174 89.5 275.5t242.5 101.5zM395 471q-65 0 -95 -63.5t-30 -210.5q0 -150 30 -215.5t95 -65.5q64 0 94.5 65.5t30.5 215.5q0 146 -30.5 210t-94.5 64z" />
    <glyph glyph-name="uni2081" unicode="&#x2081;" horiz-adv-x="516" 
d="M485 -66v-77h-432v77l133 23v432q-39 -8 -135 -8v92q57 2 118 25.5t97 72.5l90 -4v-622z" />
    <glyph glyph-name="uni2082" unicode="&#x2082;" horiz-adv-x="636" 
d="M485 53h95q12 -37 12 -96q0 -65 -12 -100h-537l-8 90q59 44 95.5 72.5t89 77t82.5 88.5t52.5 92t22.5 102q0 106 -103 106q-27 0 -51 -8l-18 -153h-123q-43 27 -43 84q0 70 75 116.5t189 46.5q125 0 194.5 -54.5t69.5 -143.5q0 -52 -26.5 -102t-83.5 -102t-121 -97.5
t-164 -108.5l8 -16q68 14 156 26l137 13z" />
    <glyph glyph-name="uni2083" unicode="&#x2083;" horiz-adv-x="679" 
d="M313 571q123 0 192.5 -49.5t69.5 -138.5q0 -63 -37 -98t-106 -54v-18q168 -35 168 -162q0 -98 -84 -154.5t-221 -56.5q-112 0 -182 37.5t-70 104.5q0 50 39 86h121l18 -136q48 -6 60 -6q63 0 97 27.5t34 99.5q0 62 -32.5 91.5t-115.5 29.5h-47v84h107q63 43 63 127
q0 55 -24 77.5t-72 22.5q-16 0 -62 -8l-16 -133h-115q-43 34 -43 80q0 68 72.5 107.5t185.5 39.5z" />
    <glyph glyph-name="uni2084" unicode="&#x2084;" horiz-adv-x="669" 
d="M637 -39h-109v-117h-168v117h-319l-6 68q106 257 196 538l154 -43l8 -28q-100 -208 -233 -426l6 -19q91 17 143 17h51v204l121 31l47 -6v-229h109v-107z" />
    <glyph glyph-name="uni2085" unicode="&#x2085;" horiz-adv-x="657" 
d="M551 559l20 -59q-73 -101 -211 -101q-76 0 -153 31l-19 -160q98 27 160 27q102 0 177 -59t75 -160q0 -106 -87 -178t-226 -72q-100 0 -164 37.5t-64 105.5q0 54 43 82h121l19 -133q48 -6 49 -6q54 0 86.5 33t32.5 98q0 70 -42.5 103t-142.5 36l-123 6l15 353l102 16
q71 -27 150 -27q74 0 182 27z" />
    <glyph glyph-name="uni2086" unicode="&#x2086;" horiz-adv-x="751" 
d="M467 307q97 0 158 -58.5t61 -158.5q0 -115 -83 -188.5t-218 -73.5q-152 0 -230.5 91t-78.5 247q0 190 111 291.5t294 101.5q61 0 119 -14l-2 -74q-317 3 -334 -242h19q69 78 184 78zM383 -86q54 0 83.5 36.5t29.5 108.5q0 129 -103 129q-64 0 -125 -61q0 -119 30.5 -166
t84.5 -47z" />
    <glyph glyph-name="uni2087" unicode="&#x2087;" horiz-adv-x="612" 
d="M592 532l10 -69q-224 -321 -264 -475l24 -142l-126 -34q-39 13 -64 50.5t-25 80.5q0 77 76.5 183t243.5 290l-6 16l-293 -24l-16 -97h-95q-10 58 -10 123q0 47 10 92v6h535z" />
    <glyph glyph-name="uni2088" unicode="&#x2088;" horiz-adv-x="729" 
d="M496 242v-19q75 -30 114 -73.5t39 -112.5q0 -72 -42 -120t-105.5 -67.5t-145.5 -19.5q-128 0 -202 48t-74 140q0 122 141 168v19q-127 55 -127 168q0 65 44 109t105.5 61.5t135.5 17.5q111 0 183.5 -44.5t72.5 -129.5q0 -63 -38.5 -95.5t-100.5 -49.5zM373 481
q-48 0 -72.5 -24.5t-24.5 -67.5q0 -34 23 -58.5t88 -47.5l27 -11q16 15 25 26t17.5 34t8.5 51q0 98 -92 98zM356 -90q111 0 111 110q0 44 -28 70t-109 53l-27 9q-55 -49 -55 -125q0 -117 108 -117z" />
    <glyph glyph-name="uni2089" unicode="&#x2089;" horiz-adv-x="751" 
d="M365 561q154 0 232.5 -91.5t78.5 -246.5q0 -191 -111 -292t-295 -101q-68 0 -127 16l4 74q160 -3 245.5 53.5t94.5 186.5h-18q-71 -80 -184 -80q-97 0 -158 59.5t-61 159.5q0 117 82 189.5t217 72.5zM360 197q61 0 123 59q0 120 -30.5 166.5t-85.5 46.5
q-52 0 -81.5 -36.5t-29.5 -106.5q0 -129 104 -129z" />
    <glyph glyph-name="Euro" unicode="&#x20ac;" horiz-adv-x="1230" 
d="M1120 244l37 -86q-156 -185 -422 -185q-211 0 -344 117.5t-174 321.5h-149v120h135l-2 60q0 54 6 106h-139v121h159q54 205 200 319.5t357 114.5q97 0 176 -24t131 -79.5t52 -135.5q0 -84 -66 -131h-166l-30 241q-60 11 -101 11q-237 0 -286 -316h329v-121h-342l-2 -71
q0 -66 2 -95h342v-120h-325q30 -145 104 -208t193 -63q163 0 325 103z" />
    <glyph glyph-name="uni20B9" unicode="&#x20b9;" horiz-adv-x="991" 
d="M647 1100l-4 -21q110 -41 145 -139h136v-127h-121q-6 -145 -97.5 -218t-275.5 -99l-4 -31q64 -44 118 -91t120.5 -113.5t99.5 -96.5l121 -49l-6 -95q-85 -40 -185 -40q-151 0 -231 71q-93 75 -373 457l31 82h264q108 74 119 223h-436v127h430q-20 98 -109 160h-321v127
h856v-127h-277z" />
    <glyph glyph-name="uni20BA" unicode="&#x20ba;" horiz-adv-x="1122" 
d="M897 541l162 10q24 -83 24 -148q0 -85 -32 -159t-95 -133t-167.5 -93t-239.5 -34q-160 0 -316 39v460l-153 -53l-19 27v102l172 57v170l-153 -53l-19 27v102l172 58v294q98 30 230 33l37 -35v-202l313 106l18 -26v-101l-331 -112v-170l313 106l18 -27v-100l-331 -113
v-464h32q93 0 165.5 33t115.5 87.5t64.5 118.5t21.5 133q0 12 -1 32t-1 28z" />
    <glyph glyph-name="uni20BD" unicode="&#x20bd;" horiz-adv-x="1208" 
d="M528 559v-164h447v-127h-447v-143l191 -14v-111h-615v111l150 34v123h-193v127h193v164h-193v129h193v418l-150 14v107q250 14 533 14q260 0 380 -79.5t120 -248.5q0 -178 -119.5 -266t-343.5 -88h-146zM528 688h101q119 0 173 53.5t54 165.5q0 108 -52.5 156.5
t-174.5 48.5h-101v-424z" />
    <glyph glyph-name="afii61289" unicode="&#x2113;" horiz-adv-x="845" 
d="M754 201l43 -82q-123 -146 -316 -146q-148 0 -227 78t-94 203q-56 -24 -127 -41l-19 111q91 31 142 57v620q0 103 10 183.5t34.5 149t63.5 113.5t99 70t139 25q136 0 193 -78.5t57 -251.5q0 -100 -17 -202.5t-54.5 -215.5t-108 -224.5t-166.5 -204.5v-39
q0 -107 39.5 -161t109.5 -54q50 0 97 24t102 66zM502 1421q-39 0 -59 -29t-28.5 -99.5t-8.5 -207.5v-553q184 251 184 672q0 125 -19 171t-69 46z" />
    <glyph glyph-name="afii61352" unicode="&#x2116;" horiz-adv-x="2318" 
d="M1407 1409q79 0 129 -33l4 -123l-223 -65q-51 -153 -51 -438q0 -255 26 -742l-221 -31l-47 7l-457 776q-54 94 -137 284h-22q45 -447 45 -698q0 -105 -23 -180.5t-64.5 -116t-90 -58.5t-109.5 -18q-59 0 -93.5 16t-58.5 48l19 123h219q18 52 23.5 110t5.5 156
q0 153 -23 674l-154 14v113h517l401 -701q35 -65 94 -211h23q-37 427 -37 609q0 255 77 370t228 115zM1890 1231q85 0 151 -29t106 -79t60.5 -113t20.5 -136q0 -170 -102 -273t-271 -103q-164 0 -249.5 99t-85.5 253q0 171 101 276t269 105zM1874 1130q-74 0 -107.5 -63.5
t-33.5 -202.5t33.5 -203.5t107.5 -64.5q75 0 108 62.5t33 203.5q0 140 -33 204t-108 64zM2105 160h-458v155h458v-155z" />
    <glyph glyph-name="uni2117" unicode="&#x2117;" horiz-adv-x="1642" 
d="M834 1389q321 0 519.5 -192t198.5 -505q0 -215 -98 -380t-266 -252t-379 -87t-374.5 88t-254 248t-90.5 367q0 215 98 378.5t266.5 249t379.5 85.5zM819 94q122 0 225.5 41.5t178 116.5t116 187t41.5 247q0 267 -154 424.5t-403 157.5q-251 0 -407 -158t-156 -428
q0 -268 154 -428t405 -160zM848 1081q186 0 281.5 -71t95.5 -207q0 -111 -72.5 -185.5t-185.5 -74.5q-24 0 -52 3t-45 6.5t-18 4.5v88h8q71 0 102 37.5t31 126.5q0 90 -36.5 128t-127.5 38h-28v-596l110 -10v-86h-411v86l100 24v576l-102 10v88q222 14 350 14z" />
    <glyph glyph-name="trademark" unicode="&#x2122;" horiz-adv-x="1867" 
d="M27 1362h690q4 -29 4 -94q0 -76 -10 -138h-103l-24 138l-115 4v-596l98 -8v-80h-395v80l100 22v582l-114 -4l-25 -138h-102q-11 68 -11 138q0 60 7 94zM1833 666v-78h-371v78l90 22q0 317 -6 569h-20q-15 -71 -39 -159l-137 -463l-129 -27l-39 6l-152 492q-23 74 -37 151
h-20q-1 -66 -4 -272t-4 -309l106 -10v-78h-315v78l98 24q13 385 27 586l-95 10v76h367q100 -332 143 -533h21q60 260 149 533h342v-74l-90 -22q23 -417 27 -592z" />
    <glyph glyph-name="Omega" unicode="&#x2126;" horiz-adv-x="1540" 
d="M1352 365l149 -13q8 -70 8 -119q0 -116 -20 -233h-602v354q243 124 243 455q0 212 -93 324t-267 112q-173 0 -266.5 -111t-93.5 -321q0 -168 62 -286t181 -173v-354h-602q-20 117 -20 233q0 49 8 119l149 13l41 -148l291 -24v110q-65 17 -123.5 44.5t-114 71.5t-95.5 99
t-64.5 131t-24.5 164q0 124 48.5 230t136.5 182.5t219 120t289 43.5q160 0 286 -43.5t204.5 -120.5t119.5 -178t41 -220q0 -206 -117 -342.5t-305 -189.5v-102l291 24z" />
    <glyph glyph-name="estimated" unicode="&#x212e;" horiz-adv-x="1300" 
d="M285 502v-287q65 -92 169.5 -138t225.5 -46q139 0 251.5 55.5t188.5 138.5l27 -41q-81 -99 -203 -155t-268 -56q-168 0 -306 73t-216 198t-78 276q0 149 77 274.5t209.5 198t288.5 72.5t288 -72.5t209 -197.5t77 -273v-20h-940zM651 1010q-108 0 -205 -48.5t-161 -136.5
v-272h729v272q-64 91 -159.5 138t-203.5 47z" />
    <glyph glyph-name="uni2150" unicode="&#x2150;" horiz-adv-x="1867" 
d="M1368 1364l14 -35q-316 -475 -440 -674q-72 -115 -210.5 -355t-205.5 -349l-112 45l-15 35q36 54 109.5 165t118.5 179t106 163t109 173q74 116 209.5 353t203.5 347zM592 623v-95h-526v95l161 26v522q-66 -14 -164 -14v111q71 4 145.5 33.5t117.5 87.5l110 -7v-749z
M1843 834l12 -82q-252 -362 -315 -576l33 -170l-150 -43q-58 16 -87 60t-29 96q0 94 94.5 223t296.5 344l-8 19l-353 -25l-18 -117l-111 2q-14 66 -14 150q0 73 14 119h635z" />
    <glyph glyph-name="uni2151" unicode="&#x2151;" horiz-adv-x="1961" 
d="M1368 1364l14 -35q-316 -475 -440 -674q-72 -115 -210.5 -355t-205.5 -349l-112 45l-15 35q36 54 109.5 165t118.5 179t106 163t109 173q74 116 209.5 353t203.5 347zM592 623v-95h-526v95l161 26v522q-66 -14 -164 -14v111q71 4 145.5 33.5t117.5 87.5l110 -7v-749z
M1507 860q179 0 273 -108t94 -295q0 -231 -133.5 -354t-351.5 -123q-76 0 -146 18l2 86q190 -2 290 64.5t110 226.5h-23q-82 -94 -209 -94q-121 0 -194.5 77t-73.5 191q0 132 98.5 221.5t263.5 89.5zM1499 416q70 0 141 71v17q0 139 -36 192.5t-97 53.5t-95 -42t-34 -128
q0 -164 121 -164z" />
    <glyph glyph-name="uni2152" unicode="&#x2152;" horiz-adv-x="2697" 
d="M1368 1364l14 -35q-316 -475 -440 -674q-72 -115 -210.5 -355t-205.5 -349l-112 45l-15 35q36 54 109.5 165t118.5 179t106 163t109 173q74 116 209.5 353t203.5 347zM592 623v-95h-526v95l161 26v522q-66 -14 -164 -14v111q71 4 145.5 33.5t117.5 87.5l110 -7v-749z
M2247 860q90 0 160 -32t113.5 -89.5t66 -134.5t22.5 -170q0 -211 -107.5 -332.5t-287.5 -121.5q-119 0 -202.5 57t-122 151t-38.5 218q0 210 108 332t288 122zM2232 756q-76 0 -110.5 -74.5t-34.5 -259.5q0 -188 34.5 -263t110.5 -75q75 0 109.5 75.5t34.5 262.5
q0 185 -34.5 259.5t-109.5 74.5zM1731 94v-94h-527v94l162 27v522q-66 -14 -164 -14v110q71 4 145 33t117 88l111 -6v-750z" />
    <glyph glyph-name="onethird" unicode="&#x2153;" horiz-adv-x="1935" 
d="M1368 1364l14 -35q-316 -475 -440 -674q-72 -115 -210.5 -355t-205.5 -349l-112 45l-15 35q36 54 109.5 165t118.5 179t106 163t109 173q74 116 209.5 353t203.5 347zM592 623v-95h-526v95l161 26v522q-66 -14 -164 -14v111q71 4 145.5 33.5t117.5 87.5l110 -7v-749z
M1647 444v-20q196 -41 196 -193q0 -115 -102.5 -183t-267.5 -68q-132 0 -215.5 44.5t-83.5 127.5q0 61 47 102h147l23 -166q30 -6 67 -6q75 0 115.5 34t40.5 115q0 74 -39 111t-135 37h-54v102h119q39 28 59.5 63.5t20.5 92.5q0 65 -29 92t-86 27q-36 0 -69 -8l-19 -162
h-141q-51 44 -51 96q0 80 88.5 129t224.5 49q143 0 228.5 -60t85.5 -167q0 -138 -170 -189z" />
    <glyph glyph-name="twothirds" unicode="&#x2154;" horiz-adv-x="2070" 
d="M1503 1364l15 -35q-332 -499 -441 -674q-72 -115 -210 -354.5t-205 -349.5l-113 45l-14 35q29 44 108 163t120.5 182.5t103.5 160t110 174.5q74 116 210 353.5t204 346.5zM582 768l114 -2q15 -55 15 -115q0 -67 -15 -123h-645l-10 111q15 12 53.5 42.5t57 45t54 44.5
t54.5 48.5t48.5 49t46 53t36.5 53t30.5 57.5t17.5 58.5t7 62.5q0 133 -114 133q-24 0 -62 -10l-24 -189h-148q-53 38 -53 103q0 85 92.5 142t229.5 57q146 0 230.5 -67t84.5 -171q0 -51 -24 -101.5t-60 -93t-103 -95.5t-128.5 -94.5t-159.5 -104.5l8 -19q139 24 186 27
l164 12zM1782 444v-20q196 -41 196 -193q0 -115 -102.5 -183t-267.5 -68q-132 0 -215.5 44.5t-83.5 127.5q0 61 47 102h147l23 -166q30 -6 67 -6q75 0 115.5 34t40.5 115q0 74 -39 111t-135 37h-53v102h118q39 28 59.5 63.5t20.5 92.5q0 65 -28.5 92t-85.5 27q-37 0 -70 -8
l-18 -162h-142q-51 44 -51 96q0 80 88.5 129t224.5 49q143 0 228.5 -60t85.5 -167q0 -138 -170 -189z" />
    <glyph glyph-name="uni2155" unicode="&#x2155;" horiz-adv-x="1861" 
d="M1368 1364l14 -35q-316 -475 -440 -674q-72 -115 -210.5 -355t-205.5 -349l-112 45l-15 35q36 54 109.5 165t118.5 179t106 163t109 173q74 116 209.5 353t203.5 347zM592 623v-95h-526v95l161 26v522q-66 -14 -164 -14v111q71 4 145.5 33.5t117.5 87.5l110 -7v-749z
M1491 545q129 0 216 -71.5t87 -192.5q0 -131 -104.5 -216t-274.5 -85q-124 0 -201 44t-77 126q0 67 53 100h145l23 -162q54 -6 55 -6q69 0 109.5 36.5t40.5 114.5q0 84 -49 125.5t-162 47.5l-158 10l16 424l129 20q91 -31 177 -31q103 0 219 31l26 -72q-83 -114 -254 -114
q-99 0 -186 33l-23 -193q114 31 193 31z" />
    <glyph glyph-name="uni2156" unicode="&#x2156;" horiz-adv-x="1996" 
d="M1503 1364l15 -35q-332 -499 -441 -674q-72 -115 -210 -354.5t-205 -349.5l-113 45l-14 35q29 44 108 163t120.5 182.5t103.5 160t110 174.5q74 116 210 353.5t204 346.5zM582 768l114 -2q15 -55 15 -115q0 -67 -15 -123h-645l-10 111q15 12 53.5 42.5t57 45t54 44.5
t54.5 48.5t48.5 49t46 53t36.5 53t30.5 57.5t17.5 58.5t7 62.5q0 133 -114 133q-24 0 -62 -10l-24 -189h-148q-53 38 -53 103q0 85 92.5 142t229.5 57q146 0 230.5 -67t84.5 -171q0 -51 -24 -101.5t-60 -93t-103 -95.5t-128.5 -94.5t-159.5 -104.5l8 -19q139 24 186 27
l164 12zM1626 545q129 0 216 -71.5t87 -192.5q0 -131 -104.5 -216t-274.5 -85q-124 0 -201 44t-77 126q0 67 53 100h145l23 -162q54 -6 55 -6q69 0 109.5 36.5t40.5 114.5q0 84 -49 125.5t-162 47.5l-158 10l17 424l129 20q91 -31 176 -31q103 0 219 31l26 -72
q-83 -114 -254 -114q-99 0 -186 33l-22 -193q114 31 192 31z" />
    <glyph glyph-name="uni2157" unicode="&#x2157;" horiz-adv-x="1976" 
d="M1483 1364l14 -35q-316 -475 -440 -674q-72 -115 -210.5 -355t-205.5 -349l-113 45l-14 35q29 44 108 163t120.5 182.5t103.5 160t110 174.5q74 116 210 353.5t204 346.5zM520 973v-21q197 -41 197 -192q0 -115 -103 -183.5t-268 -68.5q-132 0 -215.5 44.5t-83.5 127.5
q0 61 47 102h148l22 -166q30 -6 68 -6q74 0 114.5 34t40.5 116q0 74 -39 110.5t-135 36.5h-53v103h119q39 28 59.5 63t20.5 92q0 65 -29 92t-86 27q-37 0 -70 -8l-18 -162h-141q-52 45 -52 96q0 80 89 129.5t225 49.5q143 0 228 -60.5t85 -167.5q0 -137 -170 -188zM1606 545
q129 0 216 -71.5t87 -192.5q0 -131 -104.5 -216t-274.5 -85q-124 0 -201.5 44t-77.5 126q0 66 54 100h145l23 -162q54 -6 55 -6q69 0 109 36.5t40 114.5q0 84 -49 125.5t-162 47.5l-157 10l16 424l129 20q91 -31 176 -31q103 0 219 31l27 -72q-83 -114 -254 -114
q-99 0 -186 33l-23 -193q114 31 193 31z" />
    <glyph glyph-name="uni2158" unicode="&#x2158;" horiz-adv-x="2004" 
d="M1511 1364l15 -35q-332 -499 -441 -674q-72 -115 -210 -354.5t-205 -349.5l-113 45l-14 35q29 44 108 163t120.5 182.5t103.5 160t110 174.5q74 116 210 353.5t204 346.5zM760 662h-123v-134h-205v134h-387l-8 86q136 323 244 647l190 -49l8 -37q-156 -306 -291 -516
l7 -19q104 17 174 17h63v239l146 39l59 -8v-270h123v-129zM1634 545q129 0 216 -71.5t87 -192.5q0 -131 -104.5 -216t-273.5 -85q-124 0 -201.5 44t-77.5 126q0 67 53 100h146l22 -162q54 -6 55 -6q69 0 109.5 36.5t40.5 114.5q0 84 -49 125.5t-162 47.5l-158 10l17 424
l129 20q91 -31 176 -31q103 0 219 31l27 -72q-83 -114 -254 -114q-100 0 -187 33l-22 -193q114 31 192 31z" />
    <glyph glyph-name="uni2159" unicode="&#x2159;" horiz-adv-x="1900" 
d="M1368 1364l14 -35q-316 -475 -440 -674q-72 -115 -210.5 -355t-205.5 -349l-112 45l-15 35q36 54 109.5 165t118.5 179t106 163t109 173q74 116 209.5 353t203.5 347zM592 623v-95h-526v95l161 26v522q-66 -14 -164 -14v111q71 4 145.5 33.5t117.5 87.5l110 -7v-749z
M1561 559q120 0 193 -77t73 -189q0 -133 -102 -223t-265 -90q-176 0 -269 108t-93 297q0 230 133.5 352.5t351.5 122.5q78 0 148 -18l-5 -86q-189 2 -289 -64.5t-110 -226.5h23q82 94 211 94zM1464 84q61 0 95 42.5t34 129.5q0 162 -118 162q-72 0 -144 -72v-16
q0 -140 36 -193t97 -53z" />
    <glyph glyph-name="uni215A" unicode="&#x215a;" horiz-adv-x="2004" 
d="M1473 1364l14 -35q-316 -475 -440 -674q-72 -115 -210.5 -355t-205.5 -349l-113 45l-14 35q29 44 108 163t120.5 182.5t103.5 160t110 174.5q74 116 210 353.5t204 346.5zM422 1073q129 0 216 -71.5t87 -192.5q0 -131 -104.5 -216t-274.5 -85q-124 0 -201 44t-77 126
q0 67 53 100h145l23 -162q54 -6 55 -6q69 0 109.5 37t40.5 115q0 84 -49 125t-162 47l-158 10l16 424l129 21q91 -31 176 -31q104 0 220 31l26 -72q-84 -115 -254 -115q-99 0 -186 33l-23 -193q114 31 193 31zM1665 559q120 0 193 -77t73 -189q0 -133 -101.5 -223
t-264.5 -90q-176 0 -269.5 108t-93.5 297q0 230 134 352.5t352 122.5q77 0 147 -18l-4 -86q-189 2 -289 -64.5t-110 -226.5h22q82 94 211 94zM1569 84q61 0 95 42.5t34 129.5q0 162 -119 162q-71 0 -143 -72v-16q0 -140 36 -193t97 -53z" />
    <glyph glyph-name="oneeighth" unicode="&#x215b;" horiz-adv-x="1939" 
d="M1368 1364l14 -35q-316 -475 -440 -674q-72 -115 -210.5 -355t-205.5 -349l-112 45l-15 35q36 54 109.5 165t118.5 179t106 163t109 173q74 116 209.5 353t203.5 347zM592 623v-95h-526v95l161 26v522q-66 -14 -164 -14v111q71 4 145.5 33.5t117.5 87.5l110 -7v-749z
M1665 473v-22q89 -35 135.5 -87.5t46.5 -136.5q0 -124 -100.5 -185.5t-253.5 -61.5q-154 0 -244 59.5t-90 169.5q0 143 166 199v22q-147 72 -147 203q0 60 30 105.5t80 71t108 38t122 12.5q136 0 223.5 -53.5t87.5 -155.5q0 -41 -14.5 -72.5t-41.5 -51.5t-51 -32t-57 -22z
M1513 760q-53 0 -83.5 -27.5t-30.5 -77.5q0 -46 29.5 -74.5t103.5 -56.5l31 -12q31 27 47 54t16 73q0 59 -29 90t-84 31zM1491 80q64 0 99.5 34t35.5 93q0 54 -35.5 86t-128.5 63l-32 13q-66 -63 -66 -150q0 -139 127 -139z" />
    <glyph glyph-name="threeeighths" unicode="&#x215c;" horiz-adv-x="2054" 
d="M1483 1364l14 -35q-316 -475 -440 -674q-72 -115 -210.5 -355t-205.5 -349l-113 45l-14 35q29 44 108 163t120.5 182.5t103.5 160t110 174.5q74 116 210 353.5t204 346.5zM520 973v-21q197 -41 197 -192q0 -115 -103 -183.5t-268 -68.5q-132 0 -215.5 44.5t-83.5 127.5
q0 61 47 102h148l22 -166q30 -6 68 -6q74 0 114.5 34t40.5 116q0 74 -39 110.5t-135 36.5h-53v103h119q39 28 59.5 63t20.5 92q0 65 -29 92t-86 27q-37 0 -70 -8l-18 -162h-141q-52 45 -52 96q0 80 89 129.5t225 49.5q143 0 228 -60.5t85 -167.5q0 -137 -170 -188zM1780 473
v-22q89 -35 135.5 -87.5t46.5 -136.5q0 -124 -100.5 -185.5t-253.5 -61.5q-154 0 -244 59.5t-90 169.5q0 143 166 199v22q-148 72 -148 203q0 60 30 105.5t80 71t108 38t122 12.5q136 0 224 -53.5t88 -155.5q0 -41 -14.5 -72.5t-41.5 -51.5t-51 -32t-57 -22zM1628 760
q-53 0 -84 -27.5t-31 -77.5q0 -46 30 -74t104 -57l30 -12q21 18 32.5 31t21.5 38.5t10 57.5q0 59 -29 90t-84 31zM1606 80q64 0 99.5 34t35.5 93q0 54 -35.5 86t-128.5 63l-33 13q-65 -62 -65 -150q0 -139 127 -139z" />
    <glyph glyph-name="fiveeighths" unicode="&#x215d;" horiz-adv-x="2043" 
d="M1473 1364l14 -35q-316 -475 -440 -674q-72 -115 -210.5 -355t-205.5 -349l-113 45l-14 35q29 44 108 163t120.5 182.5t103.5 160t110 174.5q74 116 210 353.5t204 346.5zM422 1073q129 0 216 -71.5t87 -192.5q0 -131 -104.5 -216t-274.5 -85q-124 0 -201 44t-77 126
q0 67 53 100h145l23 -162q54 -6 55 -6q69 0 109.5 37t40.5 115q0 84 -49 125t-162 47l-158 10l16 424l129 21q91 -31 176 -31q104 0 220 31l26 -72q-84 -115 -254 -115q-99 0 -186 33l-23 -193q114 31 193 31zM1769 473v-22q89 -35 136 -87.5t47 -136.5t-50.5 -141.5
t-128 -81.5t-176.5 -24q-154 0 -243.5 59.5t-89.5 169.5q0 143 166 199v22q-148 72 -148 203q0 60 30 105.5t80 71t108 38t122 12.5q136 0 223.5 -53.5t87.5 -155.5q0 -41 -14.5 -72.5t-41.5 -51.5t-51 -32t-57 -22zM1618 760q-53 0 -84 -27.5t-31 -77.5q0 -46 29.5 -74.5
t103.5 -56.5l31 -12q21 18 32.5 31t21.5 38.5t10 57.5q0 59 -29 90t-84 31zM1595 80q64 0 100 34t36 93q0 54 -35.5 86t-128.5 63l-33 13q-66 -63 -66 -150q0 -139 127 -139z" />
    <glyph glyph-name="seveneighths" unicode="&#x215e;" horiz-adv-x="1820" 
d="M1249 1364l15 -35q-332 -499 -441 -674q-72 -115 -210 -354.5t-205 -349.5l-113 45l-14 35q29 44 108 163t120.5 182.5t103.5 160t110 174.5q74 116 210 353.5t204 346.5zM696 1362l13 -82q-255 -365 -316 -575l33 -170l-150 -43q-58 16 -87 59.5t-29 95.5q0 94 94.5 223
t296.5 344l-8 19l-353 -25l-18 -116l-111 2q-14 66 -14 149q0 73 14 119h635zM1546 473v-22q89 -35 136 -87.5t47 -136.5t-50.5 -141.5t-128 -81.5t-176.5 -24q-154 0 -244 59.5t-90 169.5q0 143 166 199v22q-147 72 -147 203q0 60 30 105.5t80 71t108 38t122 12.5
q136 0 223.5 -53.5t87.5 -155.5q0 -41 -14.5 -72.5t-41.5 -51.5t-51 -32t-57 -22zM1395 760q-53 0 -84 -27.5t-31 -77.5q0 -46 29.5 -74.5t103.5 -56.5l31 -12q31 27 47 54t16 73q0 121 -112 121zM1372 80q64 0 99.5 34t35.5 93q0 54 -35.5 86t-128.5 63l-32 13
q-66 -63 -66 -150q0 -139 127 -139z" />
    <glyph glyph-name="uni215F" unicode="&#x215f;" horiz-adv-x="1155" 
d="M1368 1364l14 -35q-316 -475 -440 -674q-72 -115 -210.5 -355t-205.5 -349l-112 45l-15 35q36 54 109.5 165t118.5 179t106 163t109 173q74 116 209.5 353t203.5 347zM592 623v-95h-526v95l161 26v522q-66 -14 -164 -14v111q71 4 145.5 33.5t117.5 87.5l110 -7v-749z" />
    <glyph glyph-name="uni2189" unicode="&#x2189;" horiz-adv-x="2097" 
d="M1530 1364l14 -35q-316 -475 -440 -674q-72 -115 -210.5 -355t-205.5 -349l-113 45l-14 35q36 54 109.5 165t118.5 179t106 163t109 173q74 116 209.5 353t203.5 347zM481 1389q178 0 270.5 -117.5t92.5 -308.5q0 -211 -107.5 -333t-287.5 -122q-119 0 -202.5 57
t-122 151t-38.5 218q0 211 107.5 333t287.5 122zM467 1284q-76 0 -110.5 -74.5t-34.5 -259.5q0 -188 34.5 -263t110.5 -75q75 0 109 75t34 263q0 185 -34 259.5t-109 74.5zM1808 444v-20q197 -41 197 -193q0 -115 -103 -183t-268 -68q-132 0 -215.5 44.5t-83.5 127.5
q0 61 47 102h148l22 -166q30 -6 68 -6q75 0 115.5 34t40.5 115q0 74 -39 111t-135 37h-54v102h119q39 28 59.5 63.5t20.5 92.5q0 65 -29 92t-86 27q-36 0 -69 -8l-19 -162h-141q-51 44 -51 96q0 80 88.5 129t224.5 49q143 0 228 -60t85 -167q0 -138 -170 -189z" />
    <glyph glyph-name="arrowleft" unicode="&#x2190;" horiz-adv-x="1710" 
d="M995 686h617v-156h-617q-65 0 -134.5 5t-150 13.5t-100.5 10.5q22 -111 109 -344l-29 -20q-312 190 -614 395v35q331 224 614 397l29 -21q-86 -231 -109 -344q7 0 152.5 14.5t232.5 14.5z" />
    <glyph glyph-name="arrowup" unicode="&#x2191;" horiz-adv-x="1052" 
d="M944 838l-18 -29q-229 86 -346 106q2 -34 9.5 -108.5t12 -139.5t4.5 -128v-539h-157v537q0 84 12.5 218t13.5 160q-21 -4 -44.5 -9t-41.5 -9.5t-45.5 -13t-41 -12.5t-45 -15t-41 -14.5t-46 -16.5t-43.5 -16l-18 29q142 231 399 606h37q228 -328 399 -606z" />
    <glyph glyph-name="arrowright" unicode="&#x2192;" horiz-adv-x="1710" 
d="M98 686h617q87 0 232.5 -14.5t152.5 -14.5q-23 113 -109 344l29 21q283 -173 614 -397v-35q-302 -205 -614 -395l-29 20q87 233 109 344q-20 -2 -100.5 -10.5t-150 -13.5t-134.5 -5h-617v156z" />
    <glyph glyph-name="arrowdown" unicode="&#x2193;" horiz-adv-x="1052" 
d="M926 553l18 -29q-171 -278 -399 -606h-37q-257 375 -399 606l18 29q8 -3 57 -21t62 -22.5t53.5 -18t62 -19.5t53.5 -13.5t60 -12.5q-1 26 -13.5 160.5t-12.5 218.5v537h157v-539q0 -63 -4.5 -128.5t-12 -140t-9.5 -108.5q112 19 346 107z" />
    <glyph glyph-name="arrowboth" unicode="&#x2194;" horiz-adv-x="2099" 
d="M1378 1001l29 21q270 -164 616 -397v-35q-314 -211 -616 -395l-29 20q90 229 109 342q-36 -3 -106.5 -10.5t-133.5 -12t-121 -4.5h-151q-62 0 -125 4.5t-133 12t-105 10.5q3 -19 7 -37.5t10 -40t9.5 -35.5t12.5 -40t12 -36t14 -39.5t13 -36t15 -40.5t14 -37l-29 -20
q-312 190 -614 395v35q331 224 614 397l29 -21q-32 -86 -44.5 -121t-33 -102t-29.5 -119q30 2 156 14.5t207 12.5h151q76 0 202.5 -12.5t158.5 -14.5q-21 116 -109 342z" />
    <glyph glyph-name="arrowupdn" unicode="&#x2195;" horiz-adv-x="1054" 
d="M580 414q108 18 346 106l18 -26q-106 -172 -399 -594h-37q-33 48 -100.5 146t-106.5 155t-93.5 139.5t-98.5 153.5l20 26q5 -2 42.5 -15.5t45.5 -16.5t40.5 -14.5t45 -15.5t40.5 -12.5t45.5 -13t41 -9.5t45.5 -9q-26 195 -26 266q0 42 4 84.5t11.5 101.5t10.5 82
q-108 -18 -346 -106l-18 26q44 71 98.5 153.5t93.5 139.5t106.5 155t100.5 146h37q293 -422 399 -594l-18 -26q-237 87 -348 106q26 -195 26 -268q0 -71 -26 -266z" />
    <glyph glyph-name="uni2196" unicode="&#x2196;" horiz-adv-x="1370" 
d="M98 1143l25 24q327 -57 721 -149l4 -33q-6 -3 -46.5 -21t-51 -23t-44 -20.5t-49.5 -24t-42.5 -23t-47.5 -27.5t-41 -27q17 -14 82.5 -67.5t113.5 -95t95 -87.5l500 -485l-113 -111l-499 486q-34 34 -71 75.5t-62 71.5t-62.5 76t-54.5 66q-32 -45 -65.5 -106t-51 -98
t-53.5 -116l-33 6q-71 286 -154 709z" />
    <glyph glyph-name="uni2197" unicode="&#x2197;" horiz-adv-x="1370" 
d="M1245 1167l25 -24q-83 -423 -154 -709l-33 -6q-36 79 -53.5 116t-51 98t-65.5 106q-13 -15 -68.5 -83.5t-96.5 -115.5t-84 -90l-500 -486l-113 111l500 485q47 46 95 87.5t113.5 95t82.5 67.5q-20 14 -41 27t-47.5 27.5t-42.5 23t-49.5 24t-44 20.5t-51 23t-46.5 21l4 33
q394 92 721 149z" />
    <glyph glyph-name="uni2198" unicode="&#x2198;" horiz-adv-x="1370" 
d="M1270 -8l-25 -25q-310 54 -721 150l-4 33q11 5 54.5 24.5t59 26.5t51.5 24.5t56.5 28.5t48.5 28t52 33q-17 14 -82.5 67.5t-113.5 95t-95 87.5l-500 486l113 110l500 -485q43 -43 84 -90t96.5 -115.5t68.5 -83.5q32 45 65.5 106t51 98t53.5 116l33 -7q72 -289 154 -708z
" />
    <glyph glyph-name="uni2199" unicode="&#x2199;" horiz-adv-x="1370" 
d="M123 -33l-25 25q82 419 154 708l33 7q36 -79 53.5 -116t51 -98t65.5 -106q17 20 54.5 66t62.5 76t62 71.5t71 75.5l499 485l113 -110l-500 -486q-47 -46 -95 -87.5t-113.5 -95t-82.5 -67.5q24 -16 52 -33t48.5 -28t56.5 -28.5t51.5 -24.5t59 -26.5t54.5 -24.5l-4 -33
q-411 -96 -721 -150z" />
    <glyph glyph-name="uni21A9" unicode="&#x21a9;" horiz-adv-x="1718" 
d="M692 891l29 -19q-90 -233 -109 -344q36 3 111 10.5t142.5 12t131.5 4.5h172q125 0 193 64.5t68 164.5t-66 165t-182 65h-195v155h197q190 0 309 -111t119 -274q0 -164 -122 -274.5t-327 -110.5h-166q-64 0 -131.5 4.5t-142.5 12t-111 10.5q20 -114 109 -342l-29 -18
q-238 143 -616 393v37q355 239 616 395z" />
    <glyph glyph-name="uni21AA" unicode="&#x21aa;" horiz-adv-x="1718" 
d="M997 872l29 19q261 -156 616 -395v-37q-378 -250 -616 -393l-29 18q89 228 109 342q-36 -3 -111 -10.5t-142.5 -12t-131.5 -4.5h-166q-205 0 -327 110.5t-122 274.5q0 163 119.5 274t309.5 111h196v-155h-194q-116 0 -182 -65t-66 -165t67.5 -164.5t192.5 -64.5h172
q64 0 131.5 -4.5t142.5 -12t111 -10.5q-19 111 -109 344z" />
    <glyph glyph-name="uni21BB" unicode="&#x21bb;" horiz-adv-x="1392" 
d="M926 922l67 127q131 -44 218 -177.5t87 -304.5q0 -161 -79 -297.5t-217.5 -216.5t-305.5 -80q-163 0 -301 77t-219.5 214t-81.5 303q0 155 74.5 271.5t204.5 185.5q-87 80 -244 184l10 35q457 17 652 17l24 -29q-163 -396 -252 -594l-35 -2q-43 194 -88 305
q-174 -147 -174 -358q0 -203 125.5 -327t306.5 -124q185 0 306.5 126t121.5 312q0 230 -200 353z" />
    <glyph glyph-name="partialdiff" unicode="&#x2202;" horiz-adv-x="1230" 
d="M651 1540q256 0 380 -168t124 -473q0 -82 -8.5 -164.5t-29.5 -175.5t-53 -176t-84 -159.5t-118 -131.5t-158.5 -88t-201.5 -33q-92 0 -167.5 23.5t-134.5 70.5t-91.5 126t-32.5 184q0 109 36 209.5t100 177t161 122.5t211 46q172 0 266 -101h24v29q0 259 -80 386.5
t-274 127.5q-86 0 -188 -24l-21 98q140 94 340 94zM532 96q82 0 145.5 53t101 143.5t58.5 187t31 208.5q-86 80 -217 80q-145 0 -219 -106t-74 -306q0 -260 174 -260z" />
    <glyph glyph-name="emptyset" unicode="&#x2205;" horiz-adv-x="1470" 
d="M1303 1317l-150 -217q107 -89 167 -216.5t60 -273.5q0 -181 -90 -328t-240 -228t-325 -81q-159 0 -293 70l-147 -215l-101 41l-16 33l147 217q-106 89 -165.5 216.5t-59.5 274.5q0 135 53 254.5t142 202t209 130.5t251 48q158 0 293 -69l146 215l102 -41zM291 610
q0 -211 129 -340l518 760q-95 45 -203 45q-187 0 -315.5 -127t-128.5 -338zM731 145q91 0 172 32t142 91t97 148t36 196q0 206 -127 336l-519 -758q86 -45 199 -45z" />
    <glyph glyph-name="Delta" unicode="&#x2206;" horiz-adv-x="1255" 
d="M1229 35l-15 -35h-1175l-14 35l507 1325l148 29l39 -9zM256 199h666l-330 886z" />
    <glyph glyph-name="product" unicode="&#x220f;" horiz-adv-x="1517" 
d="M1452 1362v-111l-152 -39h-10v-1347q-106 -24 -235 -27l-45 29v1358h-500v-1360q-106 -24 -236 -27l-45 29v1368l-166 16v111h1389z" />
    <glyph glyph-name="summation" unicode="&#x2211;" horiz-adv-x="1167" 
d="M895 287l168 -13q8 -66 8 -141q0 -137 -29 -276h-956l-14 100l440 569l-442 754l12 82h962q13 -57 13 -143q0 -94 -17 -191h-161l-41 193l-414 18l-10 -16q61 -82 143 -217l209 -342v-35l-260 -355q-55 -71 -170 -194l10 -19l496 23z" />
    <glyph glyph-name="minus" unicode="&#x2212;" 
d="M1137 530h-1016v156h1016v-156z" />
    <glyph glyph-name="uni2219" unicode="&#x2219;" 
d="M629 899q141 0 219 -78.5t78 -214.5q0 -138 -78 -215.5t-219 -77.5t-218 77.5t-77 215.5q0 137 77 215t218 78z" />
    <glyph glyph-name="radical" unicode="&#x221a;" horiz-adv-x="1249" 
d="M1188 1577l31 -27q-254 -799 -572 -1687l-186 -33l-39 6q-155 346 -221 520l-187 17v106h408q51 -151 147 -377h23q186 538 452 1475h144z" />
    <glyph glyph-name="infinity" unicode="&#x221e;" horiz-adv-x="1859" 
d="M1446 924q76 0 136.5 -21.5t99.5 -56.5t65 -81.5t36.5 -94t10.5 -97.5q0 -157 -99.5 -260.5t-262.5 -103.5q-160 0 -338 127l-195 141h-25q-199 -262 -460 -262q-76 0 -136.5 21.5t-99.5 56t-65 81t-36.5 94.5t-10.5 99q0 156 99.5 259.5t262.5 103.5q161 0 338 -127
l199 -144h20q204 265 461 265zM1442 387q81 0 139.5 50.5t58.5 146.5q0 86 -53 139t-164 53q-186 0 -368 -182l127 -92q82 -59 142 -87t118 -28zM436 362q186 0 369 183l-127 92q-86 61 -144 88t-114 27q-82 0 -141.5 -50.5t-59.5 -146.5q0 -87 54 -140t163 -53z" />
    <glyph glyph-name="integral" unicode="&#x222b;" horiz-adv-x="745" 
d="M602 1542q71 0 143 -14v-125q-59 6 -106 6q-94 0 -138 -51.5t-44 -186.5q0 -112 45.5 -541t44.5 -544q0 -112 -30 -191.5t-87 -124.5t-128.5 -65t-164.5 -20q-71 0 -137 14v125q37 -4 113 -4q42 0 70.5 8t54.5 31t38.5 70t12.5 120q0 104 -45.5 539.5t-44.5 554.5
q1 108 29.5 186t82.5 124.5t125.5 67.5t165.5 21z" />
    <glyph glyph-name="approxequal" unicode="&#x2248;" 
d="M1057 510l86 -59q-11 -36 -25.5 -70t-39 -71.5t-53 -64.5t-69 -45t-86.5 -18q-41 0 -85.5 16.5t-137.5 63.5q-117 54 -280 146l-166 -175l-86 62q15 47 36 89t54 84.5t80.5 67.5t103.5 25q39 0 85 -16t138 -62q128 -61 281 -145zM1057 956l86 -59q-11 -36 -25.5 -70
t-39 -71t-53 -64t-69 -45t-86.5 -18q-41 0 -85.5 16.5t-137.5 63.5q-127 59 -280 145l-166 -174l-86 61q15 47 36 89.5t54 85t80.5 67.5t103.5 25q39 0 85 -16t138 -62q115 -55 281 -146z" />
    <glyph glyph-name="notequal" unicode="&#x2260;" 
d="M795 735l-158 -254h504v-155h-600l-185 -299l-102 47l-18 30l137 222h-248v155h344l158 254h-502v156h598l180 293l103 -45l18 -31l-133 -217h250v-156h-346z" />
    <glyph glyph-name="lessequal" unicode="&#x2264;" 
d="M1034 969l-606 -267v-24l606 -266l-55 -146l-795 320v209l795 317zM1055 0h-899v156h899v-156z" />
    <glyph glyph-name="greaterequal" unicode="&#x2265;" 
d="M1073 795v-209l-794 -320l-58 146l606 266v24l-606 267l58 143zM1100 0h-899v156h899v-156z" />
    <glyph glyph-name="dotmath" unicode="&#x22c5;" 
d="M651 764q56 0 94 -10q41 -58 41 -136q0 -86 -47 -157h-229l-39 266q72 37 180 37z" />
    <glyph glyph-name="uni24EA" unicode="&#x24ea;" horiz-adv-x="1601" 
d="M801 1389q117 0 227 -36t198 -101.5t154.5 -152.5t103 -195.5t36.5 -223.5q0 -144 -57 -275t-153 -225.5t-229.5 -150.5t-279.5 -56t-279.5 56t-229.5 150.5t-153 225.5t-57 275q0 115 36.5 223.5t103 195.5t154.5 152.5t198 101.5t227 36zM801 1270q-123 0 -233 -48
t-187.5 -128t-122.5 -188.5t-45 -225.5t45 -225t122.5 -188t187.5 -127.5t233 -47.5q122 0 231.5 47.5t186.5 127.5t122 188t45 225t-45 225.5t-122 188.5t-186.5 128t-231.5 48zM815 1083q164 0 249 -106.5t85 -280.5q0 -193 -97.5 -305t-265.5 -112q-165 0 -250 107.5
t-85 283.5q0 191 98 302t266 111zM801 987q-73 0 -106 -71t-33 -232q0 -165 33 -237t106 -72q70 0 103.5 72.5t33.5 236.5q0 160 -33.5 231.5t-103.5 71.5z" />
    <glyph glyph-name="uni24FF" unicode="&#x24ff;" horiz-adv-x="1601" 
d="M801 1389q117 0 227 -36t198 -101.5t154.5 -152.5t103 -195.5t36.5 -223.5q0 -144 -57 -275t-153 -225.5t-229.5 -150.5t-279.5 -56t-279.5 56t-229.5 150.5t-153 225.5t-57 275q0 115 36.5 223.5t103 195.5t154.5 152.5t198 101.5t227 36zM815 1083q-168 0 -266 -111
t-98 -302q0 -176 85 -283.5t250 -107.5q168 0 265.5 112t97.5 305q0 174 -85 280.5t-249 106.5zM801 987q70 0 103.5 -71.5t33.5 -231.5q0 -164 -33.5 -236.5t-103.5 -72.5q-73 0 -106 72t-33 237q0 161 33 232t106 71z" />
    <glyph glyph-name="filledbox" unicode="&#x25a0;" horiz-adv-x="1691" 
d="M1481 57h-1268v1250h1268v-1250z" />
    <glyph glyph-name="H22073" unicode="&#x25a1;" horiz-adv-x="1691" 
d="M1481 57h-1268v1250h1268v-1250zM395 1137v-910h901v910h-901z" />
    <glyph glyph-name="H18543" unicode="&#x25aa;" horiz-adv-x="1134" 
d="M965 174h-793v778h793v-778z" />
    <glyph glyph-name="H18551" unicode="&#x25ab;" horiz-adv-x="1134" 
d="M965 174h-793v778h793v-778zM344 793v-459h447v459h-447z" />
    <glyph glyph-name="triagup" unicode="&#x25b2;" horiz-adv-x="1644" 
d="M1569 154l-13 -35h-1468l-12 35l731 1239h35z" />
    <glyph glyph-name="uni25B3" unicode="&#x25b3;" horiz-adv-x="1644" 
d="M1569 154l-13 -35h-1468l-12 35l731 1239h35zM823 1092l-479 -818h956z" />
    <glyph glyph-name="uni25B4" unicode="&#x25b4;" horiz-adv-x="1263" 
d="M1188 199l-12 -35h-1088l-12 35l538 856h37z" />
    <glyph glyph-name="uni25B5" unicode="&#x25b5;" horiz-adv-x="1263" 
d="M1188 199l-12 -35h-1088l-12 35l538 856h37zM633 797l-303 -488h606z" />
    <glyph glyph-name="uni25B6" unicode="&#x25b6;" horiz-adv-x="1413" 
d="M1337 696v-34l-1089 -689l-35 13v1390l35 13z" />
    <glyph glyph-name="uni25B7" unicode="&#x25b7;" horiz-adv-x="1413" 
d="M1337 696v-34l-1089 -689l-35 13v1390l35 13zM377 1120v-880l696 438z" />
    <glyph glyph-name="uni25B8" unicode="&#x25b8;" horiz-adv-x="1112" 
d="M1036 618v-36l-829 -529l-35 13v1073l35 10z" />
    <glyph glyph-name="uni25B9" unicode="&#x25b9;" horiz-adv-x="1112" 
d="M1036 618v-36l-829 -529l-35 13v1073l35 10zM332 887v-572l446 285z" />
    <glyph glyph-name="triagdn" unicode="&#x25bc;" horiz-adv-x="1644" 
d="M1556 1227l13 -35l-727 -1239h-35l-731 1239l12 35h1468z" />
    <glyph glyph-name="uni25BD" unicode="&#x25bd;" horiz-adv-x="1644" 
d="M1556 1237l13 -35l-727 -1239h-35l-731 1239l12 35h1468zM344 1081l479 -817l477 817h-956z" />
    <glyph glyph-name="uni25BE" unicode="&#x25be;" horiz-adv-x="1263" 
d="M1176 1032l12 -35l-537 -856h-37l-538 856l12 35h1088z" />
    <glyph glyph-name="uni25BF" unicode="&#x25bf;" horiz-adv-x="1263" 
d="M1176 1032l12 -35l-537 -856h-37l-538 856l12 35h1088zM330 887l303 -488l303 488h-606z" />
    <glyph glyph-name="uni25C0" unicode="&#x25c0;" horiz-adv-x="1413" 
d="M76 662v34l1089 693l35 -13v-1390l-35 -13z" />
    <glyph glyph-name="uni25C1" unicode="&#x25c1;" horiz-adv-x="1435" 
d="M76 662v34l1089 693l35 -13v-1390l-35 -13zM1036 240v880l-696 -442z" />
    <glyph glyph-name="uni25C2" unicode="&#x25c2;" horiz-adv-x="1112" 
d="M76 582v36l829 531l35 -10v-1073l-35 -13z" />
    <glyph glyph-name="uni25C3" unicode="&#x25c3;" horiz-adv-x="1112" 
d="M76 582v36l829 531l35 -10v-1073l-35 -13zM780 315v572l-446 -287z" />
    <glyph glyph-name="lozenge" unicode="&#x25ca;" horiz-adv-x="1284" 
d="M1208 690v-37l-546 -696h-35l-551 700v35l547 697h36zM629 1100l-324 -412l354 -446l324 407z" />
    <glyph glyph-name="circle" unicode="&#x25cb;" horiz-adv-x="1601" 
d="M803 1389q144 0 276.5 -56t229 -150.5t154 -224.5t57.5 -272q0 -191 -97 -355.5t-262.5 -261t-357.5 -96.5q-143 0 -276 57t-230.5 153t-156 227.5t-58.5 273.5t58 273t155.5 225.5t230.5 150.5t277 56zM803 1221q-228 0 -384.5 -155.5t-156.5 -381.5q0 -149 70.5 -274
t195 -198t275.5 -73t274.5 73t192.5 198t69 274q0 148 -69 271t-192 194.5t-275 71.5z" />
    <glyph glyph-name="H18533" unicode="&#x25cf;" horiz-adv-x="1601" 
d="M805 1389q143 0 275.5 -56t228.5 -150.5t153.5 -224t57.5 -270.5q0 -189 -97 -354t-262 -263t-356 -98q-142 0 -275.5 58t-231.5 154t-157 228t-59 273t58.5 271.5t156.5 225t231.5 150.5t276.5 56z" />
    <glyph glyph-name="uni2605" unicode="&#x2605;" horiz-adv-x="1638" 
d="M1014 870l532 -12l13 -37l-431 -317l154 -508l-29 -21l-436 310l-440 -312l-29 23l160 512l-428 313l10 37l535 16l174 504h37z" />
    <glyph glyph-name="uni2606" unicode="&#x2606;" horiz-adv-x="1638" 
d="M1014 870l532 -12l13 -37l-431 -315l154 -510l-29 -21l-436 310l-440 -312l-29 23l160 512l-428 313l10 37l535 16l174 504h37zM737 719l-250 -6l201 -146l-72 -231l199 145l199 -145l-72 231l203 146l-250 6l-80 229z" />
    <glyph glyph-name="uni261A" unicode="&#x261a;" horiz-adv-x="2318" 
d="M1862 213v641l24 170l367 -20v-1004h-367zM954 1024h246l580 -156v-673q-108 -127 -307 -127q-85 0 -199 24q-140 -133 -209 -176q-96 0 -164.5 55.5t-77.5 134.5q-166 65 -166 195v2q-133 64 -133 182q0 21 4 37l9.5 9.5t38.5 27.5t76 44t128.5 57.5t190.5 68.5l-8 25
q-617 -97 -768 -97q-32 14 -55 28t-48 36.5t-38 55t-13 73.5q0 10 0.5 19t3 19.5t4 18t5.5 20t5.5 18t7 21t7.5 21.5q516 37 880 37zM365 954l-43 7q-16 -61 -60.5 -78t-150.5 -17l-2 -26q130 -40 193 -1t63 115zM1067 512l-12 25q-210 -55 -342 -177l57 -45
q18 20 39.5 38.5t59 42.5t55 34.5t74.5 42.5t69 39zM1190 309l-12 25q-68 -17 -122.5 -39.5t-93 -50.5t-53 -40.5t-37.5 -35.5l60 -39q67 77 258 180z" />
    <glyph glyph-name="uni261B" unicode="&#x261b;" horiz-adv-x="2316" 
d="M457 854v-641l-25 -213h-366v1004l366 20zM1118 1024h246q162 0 382.5 -9t359.5 -19l139 -9q32 -94 32 -137q0 -77 -42 -120t-111 -73q-151 0 -768 97l-8 -25q106 -34 190 -68t129 -58t75 -43t39 -28l9 -10q4 -16 4 -37q0 -118 -133 -182v-2q0 -130 -166 -195
q-9 -79 -77.5 -134.5t-164.5 -55.5q-69 43 -209 176q-114 -24 -198 -24q-199 0 -307 127v673zM1997 961l-43 -7q0 -76 63 -115t193 1l-2 26q-106 0 -150.5 17t-60.5 78zM1264 537l-13 -25q18 -10 59.5 -33.5t60 -34t51 -30.5t51 -33t39.5 -31t36 -35l58 45
q-132 122 -342 177zM1141 334l-13 -25q191 -103 258 -180l60 39q-20 20 -27.5 27t-38 31.5t-58.5 39t-77 34.5t-104 34z" />
    <glyph glyph-name="uni261C" unicode="&#x261c;" horiz-adv-x="2318" 
d="M76 1010q465 28 878 28h246l643 -184l21 184l389 -20v-115h-254q-12 -200 -12 -391q0 -178 12 -377l254 -29v-106h-389l-23 221h-22q-125 -153 -342 -153q-111 0 -203 30q-51 -58 -108.5 -108.5t-100.5 -73.5q-108 0 -184.5 59.5t-81.5 145.5q-166 60 -166 188v8
q-133 60 -133 166q0 39 6 74q117 71 280 123l-6 20q-76 -13 -179 -31.5t-152.5 -27.5t-107.5 -18.5t-91 -13t-57 -3.5q-154 77 -154 232q0 80 37 172zM956 795l29 -121q-105 -46 -195 -99t-131 -98q0 -33 23 -67q130 89 356 149l43 -86q-77 -40 -117.5 -62t-90 -55.5
t-80.5 -64.5q0 -44 32 -76q157 108 322 156l45 -84q-185 -107 -238 -174q0 -51 50 -97q41 45 118.5 106.5t157.5 106.5q106 -26 193 -26q222 0 370 172v362l-649 174h-217q-444 -5 -776 -28q-6 -24 -6 -52q0 -48 34 -90q59 5 230 21.5t286.5 24.5t210.5 8z" />
    <glyph glyph-name="uni261D" unicode="&#x261d;" horiz-adv-x="1357" 
d="M997 -121l226 -22v-267h-109l-29 152q-205 12 -383 12q-192 0 -397 -12v-152h-115l-22 267l172 20l-172 533v241q0 340 31 824q96 34 174 34q157 0 233 -151q0 -25 -3.5 -57t-13.5 -85.5t-20 -100.5t-29.5 -143.5t-35.5 -174.5l22 -4q49 128 91 203t65 98q24 4 49 4
q109 0 170 -131h8q129 0 189 -162q88 -5 148.5 -80t60.5 -182q-24 -44 -77 -100t-110 -95q33 -86 33 -178q0 -87 -34 -143t-122 -127v-21zM459 -123h383q100 86 138 146.5t38 146.5q0 30 -4 55.5t-13 61.5t-10 43q78 139 217 278q-47 51 -100 51q-39 -31 -79 -88t-97 -153
l-86 43q51 165 176 313q-47 43 -94 43q-14 -14 -27.5 -29.5t-28.5 -37.5t-25 -37t-27 -45t-24.5 -43.5t-27.5 -50.5t-27 -50l-86 43q60 215 168 346q-40 35 -84 35q-19 -16 -39 -41.5t-43 -64.5t-38 -66.5t-43 -80.5t-39 -74l-121 28q0 78 9.5 193t24.5 265t21 236
q-44 33 -92 33q-27 0 -51 -6q-29 -351 -29 -741v-213z" />
    <glyph glyph-name="uni261E" unicode="&#x261e;" horiz-adv-x="2318" 
d="M2243 1010q36 -90 36 -172q0 -156 -153 -232q-24 0 -57 3.5t-91.5 13t-107.5 18t-153 27.5t-179 32l-6 -20q163 -52 280 -123q7 -40 7 -74q0 -106 -133 -166v-8q0 -128 -166 -188q-5 -86 -81.5 -145.5t-185.5 -59.5q-43 23 -100.5 73.5t-108.5 108.5q-92 -30 -202 -30
q-217 0 -342 153h-23l-22 -221h-389v106l253 29q13 216 13 377q0 175 -13 391h-253v115l389 20l20 -184l643 184h246q414 0 879 -28zM1333 674l29 121q95 0 210.5 -8t286.5 -24.5t230 -21.5q35 43 35 90q0 28 -6 52q-332 23 -777 28h-217l-649 -174v-362q148 -172 371 -172
q86 0 192 26q81 -46 158.5 -107.5t118.5 -105.5q49 45 49 97q-53 67 -238 174l45 84q165 -48 322 -156q33 33 33 76q-31 31 -81.5 64.5t-89.5 55t-118 62.5l43 86q226 -60 356 -149q23 34 23 67q-41 45 -131 98t-195 99z" />
    <glyph glyph-name="uni261F" unicode="&#x261f;" horiz-adv-x="1357" 
d="M1223 1217l-226 -23v-20q87 -71 121.5 -127.5t34.5 -143.5q0 -92 -33 -178q57 -39 110 -95t77 -100q0 -107 -60.5 -182t-148.5 -80q-60 -162 -189 -162h-8q-61 -131 -170 -131q-19 0 -49 5q-23 23 -65 98t-91 203l-22 -5q16 -78 35.5 -174.5t29.5 -143.5t20 -100.5
t13.5 -85.5t3.5 -57q-76 -151 -233 -151q-76 0 -174 35q-31 484 -31 823v242l172 532l-172 21l22 266h115v-152q206 -12 397 -12q178 0 383 12l29 152h109v-266zM842 1196h-383l-160 -539v-213q0 -390 29 -741q24 -6 51 -6q48 0 92 33q-6 86 -21 236t-24.5 265t-9.5 193
l121 29q12 -22 39 -74t42.5 -80.5t38.5 -67.5t43 -64.5t39 -41.5q44 0 84 35q-108 131 -168 346l86 43q7 -13 27 -50t27.5 -50.5t24.5 -43.5t27 -45t25 -37t28.5 -37.5t27.5 -29.5q47 0 94 43q-125 148 -176 313l86 43q57 -96 97 -153t79 -88q53 0 100 51q-139 139 -217 278
q1 7 10 43t13 61.5t4 55.5q0 86 -38 146.5t-138 146.5z" />
    <glyph glyph-name="uni2661" unicode="&#x2661;" horiz-adv-x="1611" 
d="M1169 1051q155 0 260 -101.5t105 -277.5q0 -89 -30 -164.5t-81 -130t-113.5 -100.5t-134 -87t-136.5 -79t-125.5 -86t-96.5 -99h-22q-36 51 -97 99t-126 86t-136.5 79t-134.5 87t-114 100.5t-81 130t-30 164.5q0 176 104.5 277.5t259.5 101.5q137 0 231 -85t124 -229h22
q28 144 121.5 229t230.5 85zM1143 909q-110 0 -184 -88t-109 -231h-90q-35 144 -108.5 231.5t-182.5 87.5q-93 0 -148 -64.5t-55 -172.5q0 -88 38 -157.5t101 -119t130 -91.5t141.5 -97.5t118.5 -114.5h22q33 44 81.5 85.5t96.5 73t99.5 64.5t95.5 68t79.5 75.5t56 95
t20.5 118.5q0 108 -55 172.5t-148 64.5z" />
    <glyph glyph-name="heart" unicode="&#x2665;" horiz-adv-x="1609" 
d="M1171 1051q153 0 258 -100.5t105 -278.5q0 -91 -30 -166.5t-81.5 -129.5t-114.5 -100t-134.5 -86.5t-136 -78t-125 -85.5t-95.5 -100h-22q-36 52 -96.5 100t-125.5 85.5t-136.5 78t-134.5 86.5t-114.5 100t-81.5 129.5t-30 166.5q0 178 105 278.5t259 100.5
q133 0 228 -81.5t127 -232.5h22q30 151 125.5 232.5t228.5 81.5z" />
    <glyph glyph-name="uni275B" unicode="&#x275b;" horiz-adv-x="905" 
d="M766 1389l45 -97q-408 -192 -408 -456q0 -28 3 -62l393 -80l14 -669q-143 -52 -295 -52q-73 0 -162 14t-151 42q-28 46 -44 77t-41 91t-37.5 132t-12.5 154q0 120 28 235t85.5 221t139 194t195 154.5t248.5 101.5z" />
    <glyph glyph-name="uni275C" unicode="&#x275c;" horiz-adv-x="905" 
d="M387 1389q74 0 162.5 -14t150.5 -42q28 -46 44.5 -77t41.5 -91.5t37.5 -133t12.5 -154.5q0 -119 -28 -234t-85.5 -221t-139.5 -194t-195.5 -154.5t-248.5 -100.5l-45 97q408 192 408 456q0 39 -2 62l-394 80l-14 669q143 52 295 52z" />
    <glyph glyph-name="uni275D" unicode="&#x275d;" horiz-adv-x="1787" 
d="M1649 1389l45 -97q-408 -192 -408 -456q0 -39 2 -62l393 -80l15 -669q-143 -52 -295 -52q-73 0 -162.5 14t-151.5 42q-28 46 -44 77t-41 91t-37.5 132t-12.5 154q0 151 45 293t130.5 263.5t220 214t301.5 135.5zM766 1389l45 -97q-408 -192 -408 -456q0 -28 3 -62
l393 -80l14 -669q-143 -52 -295 -52q-73 0 -162 14t-151 42q-28 46 -44 77t-41 91t-37.5 132t-12.5 154q0 120 28 235t85.5 221t139 194t195 154.5t248.5 101.5z" />
    <glyph glyph-name="uni275E" unicode="&#x275e;" horiz-adv-x="1787" 
d="M1270 1389q74 0 162.5 -14t150.5 -42q27 -45 44 -77t41.5 -92t37 -132.5t12.5 -154.5q0 -119 -28 -234t-85.5 -221t-139 -194t-195 -154.5t-248.5 -100.5l-45 97q407 192 407 456q0 39 -2 62l-393 80l-14 669q143 52 295 52zM387 1389q74 0 162.5 -14t150.5 -42
q28 -46 44.5 -77t41.5 -91.5t37.5 -133t12.5 -154.5q0 -119 -28 -234t-85.5 -221t-139.5 -194t-195.5 -154.5t-248.5 -100.5l-45 97q408 192 408 456q0 39 -2 62l-394 80l-14 669q143 52 295 52z" />
    <glyph glyph-name="uni275F" unicode="&#x275f;" horiz-adv-x="905" 
d="M387 1389q74 0 162.5 -14t150.5 -42q28 -46 44.5 -77t41.5 -91.5t37.5 -133t12.5 -154.5q0 -119 -28 -234t-85.5 -221t-139.5 -194t-195.5 -154.5t-248.5 -100.5l-45 97q408 192 408 456q0 39 -2 62l-394 80l-14 669q143 52 295 52z" />
    <glyph glyph-name="uni2760" unicode="&#x2760;" horiz-adv-x="1787" 
d="M1270 1389q74 0 162.5 -14t150.5 -42q27 -45 44 -77t41.5 -92t37 -132.5t12.5 -154.5q0 -119 -28 -234t-85.5 -221t-139 -194t-195 -154.5t-248.5 -100.5l-45 97q407 192 407 456q0 39 -2 62l-393 80l-14 669q143 52 295 52zM387 1389q74 0 162.5 -14t150.5 -42
q28 -46 44.5 -77t41.5 -91.5t37.5 -133t12.5 -154.5q0 -119 -28 -234t-85.5 -221t-139.5 -194t-195.5 -154.5t-248.5 -100.5l-45 97q408 192 408 456q0 39 -2 62l-394 80l-14 669q143 52 295 52z" />
    <glyph glyph-name="uni2766" unicode="&#x2766;" horiz-adv-x="2105" 
d="M1444 1264q178 0 309.5 -78.5t196.5 -208.5t65 -293q0 -266 -166.5 -452t-441.5 -226l-25 88q222 94 333.5 233t111.5 335q0 210 -119.5 338t-341.5 128q-88 0 -227 -30q-23 -155 -191 -269l-51 39q35 42 53.5 66.5t37 62.5t24.5 76q-86 -14 -152 -14q-154 0 -234.5 57
t-80.5 152q0 92 72 149.5t188 57.5q136 0 225 -77t109 -194q57 19 92 29.5t95 20.5t118 10zM727 1249q0 -48 45 -74t121 -26q52 0 117 14q-14 79 -68.5 123.5t-120.5 44.5q-46 0 -70 -22.5t-24 -59.5zM1604 600q0 -112 -53 -212t-140 -171t-189.5 -119.5t-211.5 -72.5
q15 -148 20 -187l-39 -22q-139 0 -274 36t-250 103.5t-203 157.5t-138 205.5t-50 240.5q0 100 33 180.5t90 131.5t130.5 77.5t157.5 26.5q169 0 289 -100.5t154 -260.5h20q40 127 133.5 212t225.5 85q129 0 212 -83t83 -228zM281 539q0 -109 56.5 -215t143.5 -182.5
t190.5 -126.5t198.5 -58q-45 307 -10 573q-115 279 -330 279q-112 0 -180.5 -74t-68.5 -196zM1010 535q-23 -171 -11 -383q105 27 193.5 83.5t146.5 143.5t58 186q0 88 -42.5 134t-109.5 46q-77 0 -132.5 -55.5t-102.5 -154.5z" />
    <glyph glyph-name="uni2776" unicode="&#x2776;" horiz-adv-x="1601" 
d="M801 1389q117 0 227 -36t198 -101.5t154.5 -152.5t103 -195.5t36.5 -223.5q0 -144 -57 -275t-153 -225.5t-229.5 -150.5t-279.5 -56t-279.5 56t-229.5 150.5t-153 225.5t-57 275q0 115 36.5 223.5t103 195.5t154.5 152.5t198 101.5t227 36zM909 1102l-104 6
q-40 -57 -111 -85t-141 -32v-104q93 0 160 12v-506l-158 -26v-91h508v91l-154 10v725z" />
    <glyph glyph-name="uni2777" unicode="&#x2777;" horiz-adv-x="1601" 
d="M801 1389q117 0 227 -36t198 -101.5t154.5 -152.5t103 -195.5t36.5 -223.5q0 -144 -57 -275t-153 -225.5t-229.5 -150.5t-279.5 -56t-279.5 56t-229.5 150.5t-153 225.5t-57 275q0 115 36.5 223.5t103 195.5t154.5 152.5t198 101.5t227 36zM797 1110q-133 0 -221.5 -54.5
t-88.5 -137.5q0 -61 52 -97h141l25 180q37 11 61 11q52 0 82.5 -31.5t30.5 -97.5q0 -30 -7 -61t-17 -57t-29.5 -56t-35.5 -51.5t-45 -51t-47.5 -47.5t-53.5 -47.5t-53 -43.5t-56 -44t-52 -41l11 -104h622q14 49 14 116q0 63 -14 109l-112 4l-13 -84l-160 -10
q-52 -4 -182 -27l-6 19q94 60 153 101t123 92.5t99.5 93t58.5 90.5t23 98q0 99 -82 164t-221 65z" />
    <glyph glyph-name="uni2778" unicode="&#x2778;" horiz-adv-x="1601" 
d="M801 1389q117 0 227 -36t198 -101.5t154.5 -152.5t103 -195.5t36.5 -223.5q0 -144 -57 -275t-153 -225.5t-229.5 -150.5t-279.5 -56t-279.5 56t-229.5 150.5t-153 225.5t-57 275q0 115 36.5 223.5t103 195.5t154.5 152.5t198 101.5t227 36zM809 1106q-130 0 -215.5 -46.5
t-85.5 -123.5q0 -53 49 -92h135l17 153q46 11 69 11q55 0 84 -26.5t29 -88.5q0 -96 -78 -152h-117v-98h56q93 0 130.5 -35t37.5 -108q0 -146 -152 -146q-8 0 -68 6l-20 160h-141q-45 -36 -45 -98q0 -80 80.5 -123t207.5 -43q158 0 257.5 67t99.5 179q0 142 -191 184v21
q162 50 162 182q0 102 -81.5 159.5t-219.5 57.5z" />
    <glyph glyph-name="uni2779" unicode="&#x2779;" horiz-adv-x="1601" 
d="M801 1389q117 0 227 -36t198 -101.5t154.5 -152.5t103 -195.5t36.5 -223.5q0 -144 -57 -275t-153 -225.5t-229.5 -150.5t-279.5 -56t-279.5 56t-229.5 150.5t-153 225.5t-57 275q0 115 36.5 223.5t103 195.5t154.5 152.5t198 101.5t227 36zM864 1067l-180 49
q-107 -321 -238 -627l9 -81h372v-129h195v129h121v124h-121v261l-57 8l-138 -37v-232h-61q-62 0 -168 -18l-8 18q122 190 282 502z" />
    <glyph glyph-name="uni277A" unicode="&#x277a;" horiz-adv-x="1601" 
d="M801 1389q117 0 227 -36t198 -101.5t154.5 -152.5t103 -195.5t36.5 -223.5q0 -144 -57 -275t-153 -225.5t-229.5 -150.5t-279.5 -56t-279.5 56t-229.5 150.5t-153 225.5t-57 275q0 115 36.5 223.5t103 195.5t154.5 152.5t198 101.5t227 36zM1085 1038l-26 70
q-113 -31 -211 -31q-83 0 -170 31l-125 -21l-14 -407l155 -10q106 -6 154.5 -46.5t48.5 -119.5q0 -76 -39.5 -113t-107.5 -37q-6 0 -54 6l-22 158h-139q-52 -34 -52 -96q0 -80 75.5 -123t193.5 -43q164 0 265 82.5t101 208.5q0 117 -84.5 186.5t-208.5 69.5q-83 0 -186 -29
l20 187q97 -33 181 -33q166 0 245 110z" />
    </font>
</defs>
</svg>
