<?xml version="1.0" standalone="no"?>
<!DOCTYPE svg PUBLIC "-//W3C//DTD SVG 1.1//EN" "http://www.w3.org/Graphics/SVG/1.1/DTD/svg11.dtd" >
<svg xmlns="http://www.w3.org/2000/svg" xmlns:xlink="http://www.w3.org/1999/xlink" version="1.1">
<metadata>
Created by FontForge 20170731 at Wed Sep  8 12:20:55 2021
 By Aleksey,,,
2014 published by FontShop International GmbH
</metadata>
<defs>
<font id="FranziskaPro-Book" horiz-adv-x="1259" >
  <font-face 
    font-family="FranziskaPro-Book"
    font-weight="450"
    font-stretch="normal"
    units-per-em="2048"
    panose-1="2 1 6 4 4 1 1 1 1 2"
    ascent="1612"
    descent="-436"
    x-height="1026"
    cap-height="1362"
    bbox="-868 -573 3154 1970"
    underline-thickness="122"
    underline-position="-327"
    unicode-range="U+000D-1F44E"
  />
<missing-glyph horiz-adv-x="1406" 
d="M1196 1362v-1362h-985v1362h985zM1069 1245h-641l641 -1012v1012zM340 119h651l-651 1026v-1026z" />
    <glyph glyph-name="T_h" unicode="Th" horiz-adv-x="2217" 
d="M2193 96v-96h-481v96l133 33v551q0 229 -205 229q-152 0 -266 -137v-666h2l152 -10v-96h-471v96l129 33v1100l-469 24v-1140l166 -13v-100h-553v100l182 33v1120l-281 -12l-32 -207h-127q-13 66 -13 195q0 76 11 133h1118q0 78 12 151q85 23 133 29l41 -8v-459
q0 -29 -2 -60.5t-5.5 -69.5t-4.5 -56h20q142 166 324 166q147 0 237.5 -88t90.5 -254v-607z" />
    <glyph glyph-name="T_k" unicode="Tk" horiz-adv-x="2136" 
d="M2118 72l-9 -66q-56 -22 -124 -22q-79 0 -129.5 31t-96.5 106q-7 11 -37.5 63.5t-78 131.5t-101.5 169h-168v-379h2l133 -10v-96h-452v96l129 33v1100l-469 24v-1140l166 -13v-100h-553v100l182 33v1120l-281 -14l-32 -205h-127q-13 66 -13 195q0 76 11 133h1118
q0 78 12 151q85 23 133 29l41 -8v-940h148q81 90 272 326l-145 10v96h422v-96l-125 -31q-154 -164 -287 -289q55 -75 114.5 -161t129 -187.5t100.5 -146.5z" />
    <glyph glyph-name="T_l" unicode="Tl" horiz-adv-x="1570" 
d="M1528 96v-96h-471v96l129 33v1100l-469 24v-1140l166 -13v-100h-553v100l182 33v1120l-281 -12l-32 -207h-127q-13 66 -13 195q0 76 11 133h1118q0 78 12 151q85 23 133 29l41 -8v-1428h2z" />
    <glyph glyph-name="Tbar_h" unicode="&#x166;h" horiz-adv-x="2217" 
d="M2193 96v-96h-481v96l133 33v551q0 229 -205 229q-152 0 -266 -137v-666h2l152 -10v-96h-471v96l129 33v1100l-469 24v-598h287v-108h-287v-434l166 -13v-100h-553v100l182 33v414h-299v108h299v598l-281 -12l-32 -207h-127q-13 66 -13 195q0 76 11 133h1118q0 78 12 151
q85 23 133 29l41 -8v-459q0 -29 -2 -60.5t-5.5 -69.5t-4.5 -56h20q142 166 324 166q147 0 237.5 -88t90.5 -254v-607z" />
    <glyph glyph-name="Tcaron_h" unicode="&#x164;h" horiz-adv-x="2217" 
d="M2193 96v-96h-481v96l133 33v551q0 229 -205 229q-152 0 -266 -137v-666h2l152 -10v-96h-471v96l129 33v1100l-469 24v-1140l166 -13v-100h-553v100l182 33v1120l-281 -12l-32 -207h-127q-13 66 -13 195q0 76 11 133h1118q0 78 12 151q85 23 133 29l41 -8v-459
q0 -29 -2 -60.5t-5.5 -69.5t-4.5 -56h20q142 166 324 166q147 0 237.5 -88t90.5 -254v-607zM618 1667h21l178 148h123l-295 -336h-115l-245 274l131 84z" />
    <glyph glyph-name="f_b" unicode="fb" horiz-adv-x="1867" 
d="M1370 1055q129 0 221.5 -67t136.5 -179t44 -258q0 -264 -144.5 -421t-378.5 -157q-84 0 -200.5 18.5t-198.5 45.5v1366q-84 24 -182 24q-124 0 -194.5 -67t-70.5 -215v-119h209v-115h-209v-805l209 -10v-96h-538v96l141 33v782h-2l-141 13v88l143 32v64q0 112 33.5 197
t92.5 136t134.5 76t165.5 25q120 0 221 -43q66 28 135 43l41 -6v-461q0 -15 -12 -186h21q129 166 323 166zM1253 82q155 0 234.5 116.5t79.5 327.5q0 205 -70 294t-197 89q-82 0 -143.5 -34t-118.5 -103v-641q93 -49 215 -49z" />
    <glyph glyph-name="f_f" unicode="ff" horiz-adv-x="1320" 
d="M1217 1542q116 0 194 -45t78 -125q0 -59 -45 -98h-135l-25 158q-24 4 -45 4q-203 0 -203 -269v-141h279v-115h-279v-805l207 -10v-96h-528v96l131 33h2v782h-445v-805l154 -10v-96h-483v96l141 33v782h-2l-141 13v88l143 32v66q0 209 116.5 320.5t311.5 111.5
q175 0 309 -98q95 98 265 98zM403 1026h365l80 18v82q0 146 49 242q-114 57 -233 57q-261 0 -261 -299v-100z" />
    <glyph glyph-name="f_f_b" unicode="ffb" horiz-adv-x="2498" 
d="M2001 1055q129 0 221 -67t136 -179t44 -258q0 -265 -144 -421.5t-378 -156.5q-84 0 -200.5 18.5t-198.5 45.5v1366q-84 24 -181 24q-264 0 -264 -282v-119h209v-115h-209v-805l209 -10v-96h-532v96l135 33v782h-445v-805l154 -10v-96h-483v96l141 33v782h-2l-141 13v88
l143 32v66q0 209 116.5 320.5t311.5 111.5q181 0 324 -106q112 106 307 106q120 0 221 -43q74 33 133 43l41 -6v-461q0 -15 -12 -186h20q129 166 324 166zM403 1026h365l80 18v64q0 151 61 254q-120 63 -245 63q-261 0 -261 -299v-100zM1884 82q155 0 234.5 116.5
t79.5 327.5q0 205 -70 294t-197 89q-82 0 -143.5 -34t-118.5 -103v-641q93 -49 215 -49z" />
    <glyph glyph-name="f_f_h" unicode="ffh" horiz-adv-x="2512" 
d="M2488 96v-96h-481v96l133 33v551q0 229 -205 229q-153 0 -266 -139v-664l154 -10v-96h-477v96l135 33v1274q-84 24 -181 24q-264 0 -264 -282v-119h211v-115h-211v-805l154 -10v-96h-483v96l141 33v782h-445v-805l154 -10v-96h-483v96l141 33v782h-2l-141 13v88l143 32
v66q0 209 116.5 320.5t311.5 111.5q181 0 324 -106q112 106 307 106q120 0 221 -43q74 33 133 43l41 -6v-461q0 -29 -2 -60.5t-5.5 -69.5t-4.5 -56h20q142 166 324 166q147 0 237.5 -88t90.5 -254v-607zM403 1026h365l80 18v64q0 151 61 254q-120 63 -245 63
q-261 0 -261 -299v-100z" />
    <glyph glyph-name="f_f_i" unicode="ffi" horiz-adv-x="1865" 
d="M1823 96v-96h-471v96l125 33h2v745l-117 33h-326v-801l154 -10v-96h-475v96l131 33h2v782h-2h-443v-805l154 -10v-96h-483v96l141 33v782h-2l-141 13v88l143 32v66q0 209 116.5 320.5t311.5 111.5q181 0 326 -108q114 108 340 108q168 0 267 -56t99 -140q0 -66 -51 -105
h-151l-23 170q-80 14 -152 14q-137 0 -199.5 -77t-62.5 -244v-78h381l209 23l41 -11v-932zM403 1026h365l80 18v46q0 163 61 272q-118 63 -245 63q-261 0 -261 -299v-100z" />
    <glyph glyph-name="f_f_j" unicode="ffj" horiz-adv-x="1845" 
d="M1626 1049l41 -11v-1052q0 -159 -58.5 -252.5t-199.5 -169.5l-61 63l131 191v1056l-117 33h-326v-801l207 -10v-96h-528v96l131 33h2v782h-2h-443v-805l154 -10v-96h-483v96l141 33v782h-2l-141 13v88l143 32v66q0 209 116.5 320.5t311.5 111.5q181 0 326 -108
q114 108 340 108q170 0 268 -55.5t98 -140.5q0 -67 -49 -105h-151l-23 170q-80 14 -154 14q-137 0 -199.5 -77t-62.5 -244v-78h381zM403 1026h365l80 18v46q0 163 61 272q-118 63 -245 63q-261 0 -261 -299v-100z" />
    <glyph glyph-name="f_f_k" unicode="ffk" horiz-adv-x="2430" 
d="M2413 72l-9 -66q-56 -22 -125 -22q-79 0 -129 30.5t-96 106.5q0 1 -217 364h-168v-379l156 -10v-96h-479v96l135 33v1274q-84 24 -181 24q-264 0 -264 -282v-119h211v-115h-211v-805l154 -10v-96h-483v96l141 33v782h-445v-805l154 -10v-96h-483v96l141 33v782h-2
l-141 13v88l143 32v66q0 209 116.5 320.5t311.5 111.5q181 0 324 -106q112 106 307 106q120 0 221 -43q74 33 133 43l41 -6v-942h148q81 90 272 326l-145 10v96h421v-96l-124 -31q-154 -164 -287 -289q56 -75 115.5 -161t128 -187t100.5 -147zM403 1026h365l80 18v64
q0 151 61 254q-120 63 -245 63q-261 0 -261 -299v-100z" />
    <glyph glyph-name="f_f_l" unicode="ffl" horiz-adv-x="1871" 
d="M1829 96v-96h-483v96l135 33v1274q-84 24 -181 24q-264 0 -264 -282v-119h211v-115h-211v-805l154 -10v-96h-483v96l141 33v782h-445v-805l154 -10v-96h-483v96l141 33v782h-2l-141 13v88l143 32v66q0 209 116.5 320.5t311.5 111.5q181 0 324 -106q112 106 307 106
q120 0 221 -43q74 33 133 43l41 -6v-1430zM403 1026h365l80 18v64q0 151 61 254q-120 63 -245 63q-261 0 -261 -299v-100z" />
    <glyph glyph-name="f_h" unicode="fh" horiz-adv-x="1880" 
d="M1855 96v-96h-481v96l133 33h2v551q0 229 -204 229q-154 0 -267 -139v-664l152 -10v-96h-477v96l135 33h2v1274q-84 24 -182 24q-124 0 -194.5 -67t-70.5 -215v-119h211v-115h-211v-805l154 -10v-96h-483v96l141 33v782h-2l-141 13v88l143 32v64q0 112 33.5 197t92.5 136
t134.5 76t165.5 25q120 0 221 -43q66 28 135 43l41 -6v-461q0 -29 -2 -60.5t-5.5 -69.5t-4.5 -56h21q142 166 323 166q147 0 237.5 -88t90.5 -254v-607z" />
    <glyph glyph-name="f_hbar" unicode="f&#x127;" horiz-adv-x="1880" 
d="M1855 96v-96h-481v96l133 33h2v551q0 229 -204 229q-154 0 -267 -139v-664l152 -10v-96h-477v96l135 33h2v1274q-84 24 -182 24q-124 0 -194.5 -67t-70.5 -215v-119h211v-115h-211v-805l154 -10v-96h-483v96l141 33v782h-2l-141 13v88l143 32v64q0 112 33.5 197t92.5 136
t134.5 76t165.5 25q120 0 221 -43q66 28 135 43l41 -6v-172h322v-109h-322v-180q0 -29 -2 -60.5t-5.5 -69.5t-4.5 -56h21q142 166 323 166q147 0 237.5 -88t90.5 -254v-607z" />
    <glyph glyph-name="f_i" unicode="fi" horiz-adv-x="1232" 
d="M1190 96v-96h-471v96l125 33h2v745l-117 33h-326v-801l154 -10v-96h-483v96l141 33v782h-2l-141 13v88l143 32v46q0 452 461 452q168 0 267 -56t99 -140q0 -66 -51 -105h-151l-23 170q-80 14 -151 14q-137 0 -200 -77.5t-63 -243.5v-78h381l209 23l41 -11v-932z" />
    <glyph glyph-name="f_icircumflex" unicode="f&#xee;" horiz-adv-x="1232" 
d="M1190 96v-96h-471v96l127 33v745l-131 37h-312v-805l154 -10v-96h-483v96l141 33v782h-2l-141 13v88l143 32v64q0 104 34.5 185.5t95 131.5t136.5 75.5t164 25.5q93 0 178 -27l41 68h115l184 -314l-129 -75l-143 198h-21l-116 -184h-113l129 219q-58 4 -80 4
q-132 0 -209.5 -70.5t-77.5 -220.5v-98h381l209 23l41 -11v-932z" />
    <glyph glyph-name="f_imacron" unicode="f&#x12b;" horiz-adv-x="1232" 
d="M1190 96v-96h-481v96l137 33v745l-117 33h-326v-801l152 -10v-96h-481v96l141 33v782h-2l-141 13v88l143 32v82q0 111 29.5 193.5t81.5 130t116.5 70t141.5 22.5q101 0 174.5 -34.5t91.5 -96.5h301q8 -31 8 -72q0 -38 -8 -69h-475l-25 162q-24 4 -45 4q-203 0 -203 -269
v-141h381l209 23l41 -11v-932z" />
    <glyph glyph-name="f_iogonek" unicode="f&#x12f;" horiz-adv-x="1232" 
d="M1190 96v-96q-129 -37 -202 -93t-73 -128q0 -51 35 -80t94 -29q51 0 113 23l19 -78q-71 -51 -183 -51q-118 0 -178.5 53.5t-60.5 132.5q0 143 194 230v20h-229v96l127 33v745l-117 33h-326v-801l154 -10v-96h-483v96l141 33v782h-2l-141 13v88l143 32v46q0 452 461 452
q168 0 267 -56t99 -140q0 -66 -51 -105h-151l-23 170q-80 14 -151 14q-137 0 -200 -77.5t-63 -243.5v-78h381l209 23l41 -11v-932z" />
    <glyph glyph-name="f_j" unicode="fj" horiz-adv-x="1212" 
d="M993 1049l41 -11v-1052q0 -159 -58.5 -252.5t-199.5 -169.5l-61 63l131 191v1056l-117 33h-326v-801l209 -10v-96h-538v96l141 33v782h-2l-141 13v88l143 32v46q0 452 461 452q170 0 268 -55.5t98 -140.5q0 -67 -49 -105h-151l-23 170q-80 14 -153 14q-137 0 -200 -77.5
t-63 -243.5v-78h381z" />
    <glyph glyph-name="f_k" unicode="fk" horiz-adv-x="1798" 
d="M1780 72l-8 -66q-56 -22 -125 -22q-79 0 -129.5 31t-96.5 106q-12 19 -39 64t-78 131t-102 169h-164v-379l154 -10v-96h-479v96l135 33h2v1274q-84 24 -182 24q-124 0 -194.5 -67t-70.5 -215v-119h211v-115h-211v-805l154 -10v-96h-483v96l141 33v782h-2l-141 13v88
l143 32v64q0 112 33.5 197t92.5 136t134.5 76t165.5 25q120 0 221 -43q66 28 135 43l41 -6v-942h148q81 90 272 326l-147 10v96h422v-96l-125 -31q-144 -156 -287 -291q44 -58 97 -133t80 -114t93 -137t74 -109z" />
    <glyph glyph-name="f_l" unicode="fl" horiz-adv-x="1239" 
d="M1196 96v-96h-483v96l135 33h2v1274q-84 24 -182 24q-124 0 -194.5 -67t-70.5 -215v-119h211v-115h-211v-805l154 -10v-96h-483v96l141 33v782h-2l-141 13v88l143 32v64q0 112 33.5 197t92.5 136t134.5 76t165.5 25q120 0 221 -43q66 28 135 43l41 -6v-1430z" />
    <glyph glyph-name="f_lacute" unicode="f&#x13a;" horiz-adv-x="1236" 
d="M1036 1540h-118l133 293h65q83 -40 121 -113zM1038 106l158 -10v-96h-483v96l135 33h2v1264q-86 34 -182 34q-124 0 -194.5 -67t-70.5 -215v-119h211v-115h-211v-805l154 -10v-96h-483v96l141 33v782h-2l-141 13v88l143 32v64q0 111 33.5 196.5t92.5 136.5t133.5 76
t162.5 25q169 0 299 -94q29 9 61 12l41 -6v-1348z" />
    <glyph glyph-name="f_lcaron" unicode="f&#x13e;" horiz-adv-x="1431" 
d="M1196 96v-96h-483v96l135 33h2v1274q-84 24 -182 24q-124 0 -194.5 -67t-70.5 -215v-119h211v-115h-211v-805l154 -10v-96h-483v96l141 33v782h-2l-141 13v88l143 32v64q0 112 33.5 197t92.5 136t134.5 76t165.5 25q120 0 221 -43q66 28 135 43l41 -6v-1430zM1296 1542
q66 0 121 -31q-3 -125 -39 -226t-112 -202h-90l47 256v195q24 8 73 8z" />
    <glyph glyph-name="uni021A_h" unicode="&#x21a;h" horiz-adv-x="2217" 
d="M2193 96v-96h-481v96l133 33v551q0 229 -205 229q-152 0 -266 -137v-666h2l152 -10v-96h-471v96l129 33v1100l-469 24v-1140l166 -13v-100h-553v100l182 33v1120l-281 -12l-32 -207h-127q-13 66 -13 195q0 76 11 133h1118q0 78 12 151q85 23 133 29l41 -8v-459
q0 -29 -2 -60.5t-5.5 -69.5t-4.5 -56h20q142 166 324 166q147 0 237.5 -88t90.5 -254v-607zM596 -106q49 0 84 -17q37 -61 37 -127q0 -85 -50.5 -153.5t-142.5 -98.5l-32 56q51 35 77.5 66t26.5 71q0 16 -2 28l-86 15l-2 145q51 15 90 15z" />
    <glyph glyph-name="uni030A_acutecomb" unicode="&#x30a;&#x301;" horiz-adv-x="2" 
d="M-233 1868h69q72 -44 111 -101l-238 -186h-110zM-330 1509q104 0 160.5 -47.5t56.5 -136.5q0 -99 -65.5 -150t-171.5 -51q-104 0 -161.5 48.5t-57.5 138.5q0 98 67 148t172 50zM-338 1421q-86 0 -86 -104q0 -51 22.5 -77t61.5 -26q84 0 84 105q0 102 -82 102z" />
    <glyph glyph-name=".notdef" horiz-adv-x="1406" 
d="M1196 1362v-1362h-985v1362h985zM1069 1245h-641l641 -1012v1012zM340 119h651l-651 1026v-1026z" />
    <glyph glyph-name=".null" horiz-adv-x="0" 
 />
    <glyph glyph-name="nonmarkingreturn" horiz-adv-x="682" 
 />
    <glyph glyph-name="CR" unicode="&#xd;" horiz-adv-x="512" 
 />
    <glyph glyph-name="space" unicode=" " horiz-adv-x="512" 
 />
    <glyph glyph-name="exclam" unicode="!" horiz-adv-x="557" 
d="M356 1386l35 -32q0 -105 -9.5 -267.5t-24 -367.5t-19.5 -305h-125q-5 99 -19.5 305t-24 369t-9.5 268q92 30 196 30zM268 217q68 0 101 -20q26 -50 26 -93q0 -69 -57 -129l-166 25l-4 205q40 12 100 12z" />
    <glyph glyph-name="quotedbl" unicode="&#x22;" horiz-adv-x="870" 
d="M727 1470l-53 -432h-127l-51 435q88 32 194 32zM373 1470l-54 -432h-126l-52 435q88 32 195 32z" />
    <glyph glyph-name="numbersign" unicode="#" horiz-adv-x="1228" 
d="M930 770l-39 -332h188v-157l-211 -31l-32 -277h-101l-33 31l31 254h-323l-33 -285h-98l-35 31l30 254h-190v158l211 30l39 332h-184v158l206 31l33 278h100l33 -31l-30 -256h323l33 287h100l33 -31l-31 -256h195v-157zM754 438l39 340h-322l-39 -340h322z" />
    <glyph glyph-name="dollar" unicode="$" horiz-adv-x="1085" 
d="M969 319q0 -154 -101.5 -232t-273.5 -91l2 -252l-107 -12l-22 14l8 250q-102 4 -180 27.5t-129 75.5t-51 128q0 79 55 121h131l33 -235q73 -10 143 -13l15 439l-58 26q-50 23 -88.5 45t-75.5 53t-61 65t-38.5 80t-14.5 99q0 137 91 219.5t253 96.5l-2 252l104 12l23 -14
l-9 -248q68 -3 128.5 -18t111.5 -42t81 -71.5t30 -102.5q0 -77 -56 -119h-131l-32 236q-112 11 -136 12l-12 -418l55 -26q85 -40 140 -74t96 -76t59.5 -92t18.5 -115zM326 944q0 -68 41.5 -111t138.5 -88l-4 371q-176 -23 -176 -172zM588 496l4 -392q93 12 137.5 55
t44.5 124q0 80 -42.5 123.5t-143.5 89.5z" />
    <glyph glyph-name="percent" unicode="%" horiz-adv-x="1744" 
d="M1311 1231l10 -27q-45 -69 -124.5 -188.5t-147 -224.5t-129.5 -207q-50 -82 -176 -302t-205 -345l-101 47l-10 26q238 358 401 621q78 128 203 345.5t176 303.5zM426 1247q151 0 228 -102t77 -264q0 -178 -89.5 -285t-242.5 -107q-150 0 -226.5 102t-76.5 265
q0 178 89 284.5t241 106.5zM416 1157q-73 0 -110.5 -68.5t-37.5 -220.5t37.5 -220t110.5 -68q72 0 108.5 68t36.5 220t-36.5 220.5t-108.5 68.5zM1341 731q151 0 228.5 -102t77.5 -264q0 -178 -89.5 -285t-242.5 -107q-150 0 -226.5 102t-76.5 265q0 178 89 284.5t240 106.5
zM1331 641q-73 0 -110 -68.5t-37 -220.5t37 -220.5t110 -68.5q146 0 146 289t-146 289z" />
    <glyph glyph-name="ampersand" unicode="&#x26;" horiz-adv-x="1492" 
d="M1475 86l-11 -78q-66 -28 -133 -28q-95 1 -178 36.5t-182 110.5l-21 14q-82 -84 -179.5 -126t-231.5 -42q-90 0 -168.5 19.5t-146 61t-107 116.5t-39.5 176q0 152 87.5 241.5t246.5 139.5q-115 189 -115 332q0 102 56.5 179t143.5 114t189 37q142 0 226.5 -74t84.5 -199
q0 -132 -94.5 -239.5t-261.5 -153.5q126 -178 363 -373q24 56 36 130.5t13.5 126.5t1.5 149q179 28 358 28v-137h-205q-3 -88 -37 -182t-96 -170q131 -101 275 -180zM674 1280q-81 0 -127.5 -54t-46.5 -147q0 -132 96 -291q118 64 167.5 142.5t49.5 175.5q0 174 -139 174z
M575 88q69 0 149.5 29t154.5 86q-266 226 -428 461q-166 -114 -166 -293q0 -71 26 -127.5t68.5 -89t92.5 -49.5t103 -17z" />
    <glyph glyph-name="quotesingle" unicode="'" horiz-adv-x="516" 
d="M373 1470l-54 -432h-126l-52 435q88 32 195 32z" />
    <glyph glyph-name="parenleft" unicode="(" horiz-adv-x="669" 
d="M451 1544l79 -39q-108 -216 -157 -437.5t-49 -489.5q0 -269 49 -490.5t157 -437.5l-79 -39q-154 175 -232 437t-78 530t78 529.5t232 436.5z" />
    <glyph glyph-name="parenright" unicode=")" horiz-adv-x="669" 
d="M139 1505l80 39q154 -175 231.5 -436.5t77.5 -529.5t-77.5 -530t-231.5 -437l-80 39q108 216 157.5 438t49.5 490t-49.5 489.5t-157.5 437.5z" />
    <glyph glyph-name="asterisk" unicode="*" horiz-adv-x="960" 
d="M403 1602h158q8 -36 8 -74q0 -87 -45 -232h-82q-47 139 -47 232q0 38 8 74zM80 1253l47 150q33 -2 74 -14q70 -20 207 -115l-25 -78q-148 0 -236 29q-27 7 -67 28zM831 1401l50 -148q-35 -20 -66 -30q-83 -27 -237 -31l-25 78q114 88 207 116q43 13 71 15zM391 1159
l68 -49q-18 -55 -47.5 -119t-53.5 -96q-21 -27 -49 -53l-127 90q12 28 35 65q56 74 174 162zM498 1106l65 51q123 -88 176 -158q20 -26 39 -65l-125 -92q-21 15 -53 51q-47 65 -102 213z" />
    <glyph glyph-name="plus" unicode="+" 
d="M1122 537h-422v-424h-145v424h-418v131h418v424h145v-424h422v-131z" />
    <glyph glyph-name="comma" unicode="," horiz-adv-x="518" 
d="M246 227q58 0 94 -20q47 -73 47 -170q0 -129 -79.5 -229.5t-213.5 -143.5l-33 62q191 110 191 231q0 21 -4 41l-101 16l-4 199q49 14 103 14z" />
    <glyph glyph-name="hyphen" unicode="-" horiz-adv-x="741" 
d="M627 530h-512v144h512v-144z" />
    <glyph glyph-name="period" unicode="." horiz-adv-x="516" 
d="M279 252q31 0 63 -8q43 -58 43 -121q0 -65 -39 -123h-180l-37 219q64 33 150 33z" />
    <glyph glyph-name="slash" unicode="/" horiz-adv-x="671" 
d="M618 1452l-430 -1825h-106l-27 23l428 1825h109z" />
    <glyph glyph-name="zero" unicode="0" horiz-adv-x="1224" 
d="M631 1245q119 0 211 -47t150 -130.5t88 -195t30 -245.5q0 -299 -139.5 -476.5t-376.5 -177.5q-119 0 -211.5 47t-150 131t-87.5 195.5t-30 245.5q0 299 139.5 476t376.5 177zM612 1137q-284 0 -284 -527q0 -528 284 -528q287 0 287 528q0 527 -287 527z" />
    <glyph glyph-name="one" unicode="1" horiz-adv-x="808" 
d="M760 96v-96h-668v96l242 33v858q-82 -24 -246 -24v112q232 13 342 170l92 -6v-1133z" />
    <glyph glyph-name="two" unicode="2" horiz-adv-x="985" 
d="M770 283h133q12 -56 12 -150q0 -75 -12 -133h-840l-12 123q211 172 302 261q295 289 296 529q0 110 -57.5 168t-159.5 58q-65 0 -133 -27l-33 -246h-139q-59 46 -59 123q0 109 114 183.5t281 74.5q187 0 297 -95.5t110 -242.5q0 -73 -32 -149.5t-85 -147.5t-140.5 -154
t-179 -156.5t-218.5 -168.5l6 -18q160 21 271 28l260 19z" />
    <glyph glyph-name="three" unicode="3" horiz-adv-x="1036" 
d="M662 596v-21q122 -27 194 -110t72 -209q0 -178 -141 -302t-363 -124q-154 0 -255 61t-101 175q0 81 55 124h139l33 -239q65 -14 123 -14q64 0 116.5 16t95.5 50.5t67 95.5t24 145q0 130 -66 201t-225 71h-92v115h207q135 83 135 270q0 238 -242 238q-70 0 -131 -21
l-31 -229h-129q-57 47 -57 117q0 106 109.5 173.5t275.5 67.5q189 0 300.5 -94t111.5 -258q0 -123 -61 -192.5t-164 -106.5z" />
    <glyph glyph-name="four" unicode="4" horiz-adv-x="1067" 
d="M1012 184h-205v-327h-189v327h-552l-11 80q221 496 396 985l176 -59l4 -27q-207 -466 -426 -841l6 -19q168 12 248 12h159v418l142 33l47 -6v-445h205v-131z" />
    <glyph glyph-name="five" unicode="5" horiz-adv-x="1030" 
d="M506 729q197 0 316.5 -115t119.5 -307q0 -207 -139 -342t-363 -135q-151 0 -250.5 61.5t-99.5 174.5q0 82 55 122h142l32 -237q65 -14 117 -14q131 0 214 82.5t83 242.5q0 148 -80.5 224.5t-251.5 86.5l-233 15l22 631l127 28q118 -47 254 -47q158 0 301 47l29 -73
q-137 -154 -348 -154q-123 0 -248 49l-24 -371q121 31 225 31z" />
    <glyph glyph-name="six" unicode="6" horiz-adv-x="1173" 
d="M684 893q92 0 168 -35t124.5 -95.5t74.5 -138.5t26 -165q0 -135 -58 -244.5t-170.5 -175.5t-258.5 -66q-229 0 -352 160.5t-123 441.5q0 241 88 427.5t240 286.5t343 100q85 0 156 -19l-6 -96q-279 0 -424 -128t-178 -396h20q146 143 330 143zM608 82q120 0 191 89
t71 255q0 155 -61.5 238.5t-187.5 83.5q-160 0 -293 -160q-4 -31 -4 -86q0 -114 23 -198t64 -131t90 -69t107 -22z" />
    <glyph glyph-name="seven" unicode="7" horiz-adv-x="948" 
d="M918 1221l14 -76q-205 -311 -320.5 -562.5t-177.5 -498.5l55 -203l-147 -53q-119 49 -119 195q0 88 39.5 200.5t123.5 259t165.5 272t214.5 318.5l-10 14l-535 -34l-22 -150h-119q-12 66 -12 166q0 97 12 152h2h836z" />
    <glyph glyph-name="eight" unicode="8" horiz-adv-x="1126" 
d="M725 750v-21q53 -22 93 -44.5t79.5 -54.5t64.5 -69.5t40.5 -88.5t15.5 -112q0 -97 -38 -173t-104 -121.5t-149 -69t-178 -23.5q-196 0 -318 94.5t-122 264.5q0 74 24 134.5t65 100t87 64.5t98 37v22q-248 113 -248 336q0 93 40.5 165.5t107 114t142.5 62.5t157 21
q110 0 201 -36t149.5 -113.5t58.5 -184.5q0 -71 -25.5 -127.5t-67.5 -91t-84.5 -55t-88.5 -31.5zM340 1055q0 -92 57.5 -145.5t194.5 -114.5l24 -11q92 40 134.5 100.5t42.5 151.5q0 109 -56 177.5t-168 68.5t-170.5 -65.5t-58.5 -161.5zM561 82q119 0 186.5 70t67.5 180
q0 51 -15.5 88.5t-56 71.5t-92.5 62t-145 69l-19 8q-180 -73 -180 -271q0 -128 65.5 -203t188.5 -75z" />
    <glyph glyph-name="nine" unicode="9" horiz-adv-x="1173" 
d="M582 1247q230 0 353.5 -161t123.5 -443q0 -181 -52 -334t-143 -257.5t-216.5 -163t-270.5 -58.5q-89 0 -166 18l4 97q561 0 625 524h-21q-143 -143 -327 -143q-123 0 -215 62.5t-136.5 160.5t-44.5 215q0 206 133.5 344.5t352.5 138.5zM553 469q160 0 293 160q4 31 4 88
q0 114 -23.5 198t-64.5 131.5t-90 70t-107 22.5q-120 0 -191 -89t-71 -257q0 -155 62 -239.5t188 -84.5z" />
    <glyph glyph-name="colon" unicode=":" horiz-adv-x="516" 
d="M279 1034q31 0 63 -8q43 -58 43 -121q0 -65 -39 -123h-180l-37 219q64 33 150 33zM279 252q31 0 63 -8q43 -58 43 -121q0 -65 -39 -123h-180l-37 219q64 33 150 33z" />
    <glyph glyph-name="semicolon" unicode=";" horiz-adv-x="518" 
d="M279 1034q31 0 63 -8q43 -58 43 -121q0 -65 -39 -123h-180l-37 219q64 33 150 33zM246 227q58 0 94 -20q47 -73 47 -170q0 -129 -79.5 -229.5t-213.5 -143.5l-33 62q191 110 191 231q0 21 -4 41l-101 16l-4 199q49 14 103 14z" />
    <glyph glyph-name="less" unicode="&#x3c;" 
d="M1071 1004l-727 -392v-20l727 -391l-59 -119l-867 440v160l867 440z" />
    <glyph glyph-name="equal" unicode="=" 
d="M1122 332h-985v131h985v-131zM1122 741h-985v131h985v-131z" />
    <glyph glyph-name="greater" unicode="&#x3e;" 
d="M1108 682v-160l-866 -440l-60 119l727 391v20l-727 392l60 118z" />
    <glyph glyph-name="question" unicode="?" horiz-adv-x="731" 
d="M260 1374q93 0 168 -26t123 -68.5t80 -100.5t45.5 -118.5t13.5 -126.5q0 -68 -15 -114.5t-56 -86.5t-98.5 -71.5t-155.5 -73.5l-3 -211h-118q-58 144 -58 241q0 48 26 79t95 63q176 80 216 108q52 36 56 84q1 7 1 15q0 107 -118 161.5t-323 51.5v182q78 12 121 12z
M299 217q67 0 100 -20q27 -52 27 -93q0 -69 -57 -129l-166 25l-4 205q40 12 100 12z" />
    <glyph glyph-name="at" unicode="@" horiz-adv-x="1882" 
d="M1096 1430q328 0 514 -180t186 -484q0 -154 -49.5 -281t-130.5 -206.5t-180 -122.5t-203 -43q-68 0 -99 20.5t-28 67.5l2 43h-18q-107 -148 -275 -148q-144 0 -219.5 93t-75.5 266q0 116 34 223.5t95.5 191.5t155 134.5t203.5 50.5q136 0 219 -80q66 53 112 69l43 -16
l-102 -809q172 19 274.5 155.5t102.5 364.5q0 268 -147.5 426t-424.5 158q-177 0 -329.5 -66t-257 -179.5t-163.5 -269t-59 -331.5q0 -169 54.5 -293t157.5 -199t240.5 -111t313.5 -36v-76q-97 -22 -188 -22q-155 0 -289.5 45t-239 132t-165 227.5t-60.5 318.5
q0 160 48.5 308t138.5 266.5t212 207.5t275.5 137t321.5 48zM1108 362l63 517q-73 67 -155 67q-87 0 -154.5 -66.5t-102 -172t-34.5 -228.5q0 -131 42 -184t126 -53q65 0 110.5 27.5t104.5 92.5z" />
    <glyph glyph-name="A" unicode="A" horiz-adv-x="1394" 
d="M1370 100v-100h-502v100l146 31l-86 268h-541q-50 -160 -88 -288l145 -11v-100h-419v100l129 31q97 301 222.5 661.5t207.5 567.5l164 29l24 -3q174 -423 465 -1275zM422 512h469q-139 422 -227 655h-23q-72 -200 -219 -655z" />
    <glyph glyph-name="B" unicode="B" horiz-adv-x="1263" 
d="M887 725v-20q129 -31 198.5 -114.5t69.5 -217.5q0 -177 -127 -275t-395 -98h-537v100l160 33v1118l-162 11v100q312 12 502 12q247 0 372.5 -95.5t125.5 -262.5q0 -216 -207 -291zM881 1016q0 122 -66.5 184t-220.5 62h-135v-504h291q131 84 131 258zM459 113h188
q159 0 227 66t68 204q0 135 -70 199.5t-235 64.5h-178v-534z" />
    <glyph glyph-name="C" unicode="C" horiz-adv-x="1325" 
d="M1171 256l43 -78q-170 -205 -466 -205q-157 0 -282 55.5t-204 152t-120.5 222.5t-41.5 271q0 154 46.5 284.5t133 226.5t218 150t293.5 54q82 0 161.5 -15t118.5 -29t92 -36q11 -53 11 -113q0 -48 -15 -201h-131l-37 240q-88 33 -190 33q-234 0 -355.5 -145t-121.5 -418
q0 -289 128.5 -437.5t348.5 -148.5q197 0 370 137z" />
    <glyph glyph-name="D" unicode="D" horiz-adv-x="1429" 
d="M584 1374q159 0 285 -32.5t211.5 -90.5t142 -142t81.5 -183.5t25 -218.5q0 -159 -41.5 -286.5t-125.5 -222.5t-221 -146.5t-320 -51.5h-527v100l162 33v1118l-162 11v100q308 12 490 12zM461 115h162q252 0 367.5 145t115.5 442q0 273 -110 415.5t-357 142.5h-178v-1145z
" />
    <glyph glyph-name="E" unicode="E" horiz-adv-x="1247" 
d="M1004 319l129 -12q4 -54 4 -92q0 -90 -27 -215h-1016v100l162 33v1118l-162 11v100h1018q10 -52 10 -135q0 -97 -12 -170h-127l-29 178l-493 16v-493l276 2l21 125h98v-379h-98l-25 137l-272 2v-534l489 16z" />
    <glyph glyph-name="F" unicode="F" horiz-adv-x="1173" 
d="M94 1362h998q10 -52 10 -135q0 -97 -12 -170h-129l-29 176l-471 18v-540h272l21 127h102v-383h-102l-25 141l-268 2v-485l201 -13v-100h-568v100l162 33v1118l-162 11v100z" />
    <glyph glyph-name="G" unicode="G" horiz-adv-x="1392" 
d="M1200 463v-408l2 -2q-90 -37 -208 -58.5t-222 -21.5q-132 0 -242.5 36t-189 99.5t-133.5 151.5t-81 191.5t-26 218.5q0 156 49 288.5t139 228t224 149t297 53.5q189 0 375 -80q10 -48 10 -111q0 -86 -14 -182h-131l-33 213q-83 39 -201 39q-236 0 -363.5 -148
t-127.5 -436q0 -287 123.5 -438.5t338.5 -151.5q131 0 242 51l-29 340l-196 11v100h500v-100z" />
    <glyph glyph-name="H" unicode="H" horiz-adv-x="1568" 
d="M1313 1231v-1120l160 -11v-100h-525v100l160 33v514h-647v-536l174 -11v-100h-541v100l162 33v1118l-162 11v100h541v-100l-174 -31v-467h647v487l-176 11v100h543v-100z" />
    <glyph glyph-name="I" unicode="I" horiz-adv-x="714" 
d="M461 1231v-1120l160 -11v-100h-527v100l162 33v1118l-162 11v100h527v-100z" />
    <glyph glyph-name="J" unicode="J" horiz-adv-x="968" 
d="M911 1362v-100l-161 -31v-856q0 -111 -31.5 -191.5t-87 -125t-121 -65t-143.5 -20.5q-155 0 -239.5 71t-84.5 165q0 71 55 123h140l34 -230q48 -10 82 -10q92 0 141.5 56.5t49.5 191.5v911l-232 11v100h598z" />
    <glyph glyph-name="K" unicode="K" horiz-adv-x="1392" 
d="M1348 86l-11 -76q-68 -26 -133 -26q-52 0 -91.5 11t-72 36.5t-56.5 53.5t-56 75q-38 59 -83.5 137t-106 188t-87.5 158h-190v-532l172 -11v-100h-539v100l162 33v1118l-162 11v100h520v-100l-153 -31v-471h209q178 243 340 489l-174 13v100h475v-100l-129 -25
q-186 -244 -387 -477q61 -83 123 -175.5t160 -245t128 -198.5z" />
    <glyph glyph-name="L" unicode="L" horiz-adv-x="1130" 
d="M940 340l125 -12q6 -50 6 -117q0 -112 -27 -211h-950v100l162 33v1118l-162 11v100h555v-100l-188 -31v-1120l422 14z" />
    <glyph glyph-name="M" unicode="M" horiz-adv-x="1847" 
d="M1788 100v-100h-541v100l176 33q-16 704 -34 1086h-19q-22 -106 -88 -297l-305 -856l-127 -25l-25 2l-307 866q-46 139 -90 310h-22q-33 -634 -41 -1108l176 -11v-100h-482v100l160 33q24 592 64 1116l-160 13v100h461q179 -498 338 -1022h22q159 519 344 1022h436v-100
l-157 -29q39 -556 59 -1122z" />
    <glyph glyph-name="N" unicode="N" horiz-adv-x="1552" 
d="M1477 1262l-160 -31v-1229l-158 -29l-29 2l-569 949q-75 124 -155 295h-19l14 -1108l187 -11v-100h-494v100l162 33v1116l-162 13v100h445l452 -758q96 -158 178 -321h21l-16 968l-191 11v100h494v-100z" />
    <glyph glyph-name="O" unicode="O" horiz-adv-x="1505" 
d="M774 1389q123 0 226.5 -35.5t177.5 -98t125.5 -149t76.5 -189t25 -217.5q0 -158 -48 -292.5t-134 -230.5t-212.5 -150t-277.5 -54q-152 0 -274.5 55t-199.5 151t-118 221t-41 270q0 210 81 372.5t235 254.5t358 92zM754 1268q-197 0 -311.5 -149.5t-114.5 -434.5
q0 -286 114.5 -438t311.5 -152q195 0 309.5 152.5t114.5 437.5t-114 434.5t-310 149.5z" />
    <glyph glyph-name="P" unicode="P" horiz-adv-x="1198" 
d="M596 1374q257 0 389.5 -116.5t132.5 -325.5q0 -194 -114.5 -312t-290.5 -118q-20 0 -42 1.5t-40 4t-33 5t-24.5 4t-10.5 1.5v98h45q148 0 216.5 77t68.5 237q0 162 -73.5 244.5t-237.5 82.5h-121v-1144l196 -13v-100h-563v100l162 33v1118l-162 11v100q312 12 502 12z
" />
    <glyph glyph-name="Q" unicode="Q" horiz-adv-x="1505" 
d="M774 1389q153 0 275 -54t199 -149t117 -219t40 -269q0 -245 -110 -424t-310 -254v-22l279 -231l137 -52l-8 -84q-73 -18 -144 -18q-72 0 -123 20t-100 78l-235 262h-60q-152 0 -273.5 55t-198.5 151t-118 222t-41 271q0 209 81 371t235 254t358 92zM754 1268
q-197 0 -311.5 -149.5t-114.5 -434.5q0 -286 114.5 -438t311.5 -152q195 0 309.5 152.5t114.5 437.5t-114 434.5t-310 149.5z" />
    <glyph glyph-name="R" unicode="R" horiz-adv-x="1306" 
d="M1292 86l-8 -76q-63 -26 -137 -26q-50 0 -89 11t-68.5 33.5t-47 42t-39.5 50.5q-43 60 -144.5 220.5t-144.5 225.5h-155v-456l174 -11v-100h-539v100l162 33v1118l-162 11v100q274 12 443 12q155 0 268.5 -29.5t180.5 -84t98.5 -125.5t31.5 -160q0 -145 -77.5 -231.5
t-215.5 -131.5l-4 -22q76 -78 191.5 -246t146.5 -207zM459 684h282q76 45 113 114.5t37 174.5q0 145 -72.5 212t-236.5 68h-123v-569z" />
    <glyph glyph-name="S" unicode="S" horiz-adv-x="1110" 
d="M498 836l170 -78q82 -36 137.5 -69.5t106 -81t75.5 -111t25 -144.5q0 -98 -37.5 -172t-105 -118.5t-155 -66.5t-192.5 -22q-210 0 -391 82q-22 104 -22 187q0 40 6 86l121 12l59 -209q102 -41 225 -41q141 0 212 51t71 162q0 98 -54.5 153t-173.5 109l-176 80
q-57 26 -100.5 55.5t-82.5 72t-60 102t-21 131.5q0 178 121.5 280.5t327.5 102.5q185 0 358 -82q12 -58 12 -111q0 -74 -14 -160h-131l-31 197q-92 39 -196 39q-128 0 -194 -57t-66 -166q0 -81 40 -126t136 -87z" />
    <glyph glyph-name="T" unicode="T" horiz-adv-x="1226" 
d="M1155 1360l2 2q10 -52 10 -129q0 -133 -12 -199h-127l-33 207l-278 12v-1140l180 -13v-100h-567v100l182 33v1120l-281 -12l-32 -207h-127q-13 72 -13 199q0 72 11 129z" />
    <glyph glyph-name="U" unicode="U" horiz-adv-x="1470" 
d="M1413 1262l-160 -33v-774q0 -219 -132.5 -350.5t-377.5 -131.5q-249 0 -386.5 134.5t-137.5 361.5v782l-162 11v100h531v-100l-164 -31v-764q0 -192 87 -282.5t255 -90.5t255 90.5t87 282.5v784l-188 11v100h493v-100z" />
    <glyph glyph-name="V" unicode="V" horiz-adv-x="1370" 
d="M1346 1262l-115 -29q-99 -301 -227 -662.5t-211 -568.5l-158 -29l-25 2q-139 338 -465 1278l-120 9v100h516v-100l-170 -31q210 -670 350 -1036h20q65 181 167 494t175 562l-180 11v100h443v-100z" />
    <glyph glyph-name="W" unicode="W" horiz-adv-x="2123" 
d="M2079 1262l-117 -29q-211 -691 -399 -1231l-158 -29l-25 2q-230 668 -293 869h-22q-162 -506 -293 -842l-160 -29l-24 2q-259 740 -424 1278l-119 9v100h516v-100l-170 -31q163 -598 309 -1036h21q162 464 293 872l-60 184l-116 11v100h520v-100l-189 -31
q239 -818 322 -1036h20q181 579 306 1056l-181 11v100h443v-100z" />
    <glyph glyph-name="X" unicode="X" horiz-adv-x="1437" 
d="M1380 100v-100h-559v100l160 33q-174 291 -287 449h-26q-113 -152 -330 -471l164 -11v-100h-445v100l119 29q219 289 438 547q-232 336 -381 575l-143 11v100h557v-100l-166 -29q156 -261 273 -418h22q46 63 91 130t105.5 159.5t96.5 146.5l-162 11v100h443v-100
l-115 -27q-244 -332 -399 -518q215 -313 399 -608z" />
    <glyph glyph-name="Y" unicode="Y" horiz-adv-x="1370" 
d="M1317 1262l-117 -31q-177 -366 -399 -744v-376h2l180 -11v-100h-567v100l180 33v350q-206 352 -418 768l-125 11v100h516v-100l-166 -29q162 -323 320 -598h20q66 107 156 281.5t162 334.5l-187 11v100h443v-100z" />
    <glyph glyph-name="Z" unicode="Z" horiz-adv-x="1214" 
d="M999 338l136 -12q6 -81 6 -95q0 -123 -27 -231h-1026l-10 51l647 989q26 40 75.5 108.5t67.5 94.5l-10 17l-577 -23l-31 -201h-131q-15 107 -15 174q0 92 11 152h1009l13 -51l-629 -961q-13 -21 -164 -231l10 -15l598 23z" />
    <glyph glyph-name="bracketleft" unicode="[" horiz-adv-x="671" 
d="M557 1413l-219 -12q31 -406 31 -807q0 -407 -31 -838l219 -12v-104h-354v1876h354v-103z" />
    <glyph glyph-name="backslash" unicode="\" horiz-adv-x="671" 
d="M485 -373l-430 1825l27 23h108l428 -1825l-26 -23h-107z" />
    <glyph glyph-name="bracketright" unicode="]" horiz-adv-x="673" 
d="M471 1516v-1876h-356v104l221 12q-31 431 -31 838q0 401 31 807l-221 12v103h356z" />
    <glyph glyph-name="asciicircum" unicode="^" horiz-adv-x="905" 
d="M840 1032l-117 -71l-260 354h-21l-260 -354l-116 71l309 471h155z" />
    <glyph glyph-name="underscore" unicode="_" horiz-adv-x="935" 
d="M842 -283h-748v115h748v-115z" />
    <glyph glyph-name="grave" unicode="`" horiz-adv-x="524" 
d="M461 1174h-109l-291 288q51 83 132 113h71z" />
    <glyph glyph-name="a" unicode="a" horiz-adv-x="1069" 
d="M1024 115v-84q-89 -47 -180 -47q-71 0 -104 32t-33 97v28h-23q-65 -81 -139.5 -124.5t-177.5 -43.5q-135 0 -208 71.5t-73 186.5q0 71 30.5 126.5t78 88t112.5 53.5t126 28.5t128 7.5q74 0 135 -9l2 197q3 225 -223 225q-57 0 -108 -10l-33 -238h-133q-60 45 -60 111
q0 69 59.5 126.5t148.5 87.5t183 30q158 0 257 -86t98 -240l-6 -602zM430 106q149 0 264 150l2 193h-41q-195 0 -279.5 -47.5t-84.5 -153.5q0 -142 139 -142z" />
    <glyph glyph-name="b" unicode="b" horiz-adv-x="1196" 
d="M367 1530v-455q0 -63 -13 -186h21q132 166 323 166q193 0 297.5 -140.5t104.5 -365.5q0 -266 -144.5 -421t-394.5 -155q-86 0 -192 17.5t-191 46.5v1347l-139 25v88q144 38 287 45zM629 909q-82 0 -143.5 -34t-118.5 -103v-641q90 -49 211 -49q159 0 238 116t79 328
q0 205 -69.5 294t-196.5 89z" />
    <glyph glyph-name="c" unicode="c" horiz-adv-x="1007" 
d="M891 231l41 -71q-148 -187 -389 -187q-112 0 -201 42t-144 115t-83.5 166.5t-28.5 201.5q0 248 136.5 402.5t352.5 154.5q60 0 116 -13t105.5 -39.5t79 -73.5t29.5 -108q0 -82 -57 -123h-141l-33 242q-41 8 -76 8q-143 0 -224 -105.5t-81 -307.5q0 -204 82 -309t221 -105
q142 0 295 110z" />
    <glyph glyph-name="d" unicode="d" horiz-adv-x="1216" 
d="M1018 1530v-1376l141 -37v-86q-152 -38 -287 -47l-41 10l11 145h-21q-129 -166 -323 -166q-193 0 -297.5 139t-104.5 361q0 259 136.5 420.5t357.5 161.5q124 0 239 -45v372l-139 25v88q153 41 287 47zM604 946q-150 0 -226.5 -119.5t-76.5 -326.5q0 -381 266 -381
q85 0 145.5 34.5t116.5 102.5v629q-96 61 -225 61z" />
    <glyph glyph-name="e" unicode="e" horiz-adv-x="1050" 
d="M911 233l41 -71q-148 -189 -397 -189q-118 0 -209.5 42t-147 115.5t-84 166.5t-28.5 201q0 249 138.5 403t361.5 154q180 0 271 -102.5t91 -270.5q0 -81 -18 -158h-639q3 -195 87.5 -299t225.5 -104q149 0 307 112zM563 946q-106 0 -180 -85.5t-88 -244.5l461 19v4
q0 307 -193 307z" />
    <glyph glyph-name="f" unicode="f" horiz-adv-x="688" 
d="M584 1542q115 0 193.5 -45t78.5 -125q0 -59 -45 -98h-135l-25 158q-24 4 -45 4q-203 0 -203 -269v-141h279v-115h-279v-805l209 -10v-96h-538v96l141 33v782h-2l-141 13v88l143 32v82q0 111 29 193.5t81 130t116.5 70t142.5 22.5z" />
    <glyph glyph-name="g" unicode="g" horiz-adv-x="1097" 
d="M920 1012l-68 -76q84 -93 84 -229q0 -163 -120 -265t-316 -102q-52 0 -107 10v-145l291 -37q193 -26 274.5 -83.5t81.5 -160.5q0 -162 -165 -261t-433 -99q-193 0 -295 60.5t-102 195.5q0 102 58.5 170t154.5 82q-3 111 35 309q-94 43 -142.5 123t-48.5 180
q0 163 120.5 267t316.5 104q155 0 258 -70q9 42 20 74.5t29.5 65t47.5 50t67 17.5q60 0 104 -47l-18 -133h-127zM520 444q107 0 162 65t55 187t-55 187t-162 65q-109 0 -164 -65t-55 -187t55 -187t164 -65zM586 2l-283 39q-61 -77 -61 -180q0 -191 266 -191q89 0 171 20
t141 65t59 106q0 33 -20.5 56t-86.5 45t-186 40z" />
    <glyph glyph-name="h" unicode="h" horiz-adv-x="1230" 
d="M1206 96v-96h-481v96l133 33v551q0 229 -205 229q-152 0 -266 -137v-666l152 -10v-96h-482v96l142 33v1253l-140 25v88q153 41 287 47l41 -12v-455q0 -29 -2 -60.5t-5.5 -69.5t-4.5 -56h20q142 166 324 166q147 0 237.5 -88t90.5 -254v-607z" />
    <glyph glyph-name="i" unicode="i" horiz-adv-x="602" 
d="M559 96v-96h-485v96l141 33v745l-141 39v88q177 41 286 48l43 -11v-932zM309 1491q43 0 68 -10q35 -53 35 -103q0 -58 -47 -123h-158l-27 218q61 18 129 18z" />
    <glyph glyph-name="j" unicode="j" horiz-adv-x="567" 
d="M387 1038v-1052q0 -159 -58.5 -252.5t-201.5 -169.5l-59 63l131 191v1056l-142 39v88q177 41 287 48zM295 1491q42 0 67 -10q35 -53 35 -103q0 -58 -47 -123h-157l-27 218q61 18 129 18z" />
    <glyph glyph-name="k" unicode="k" horiz-adv-x="1148" 
d="M1130 72l-8 -66q-56 -22 -125 -22q-79 0 -129 30.5t-96 106.5q-7 11 -37.5 63.5t-78 131.5t-101.5 169h-168v-379l135 -10v-96h-465v96l142 33v1255l-140 25v88q144 38 287 45l41 -12v-936h148q81 90 272 326l-145 10v96h421v-96l-127 -31q-149 -162 -284 -289
q56 -75 115.5 -161t128 -187t100.5 -147z" />
    <glyph glyph-name="l" unicode="l" horiz-adv-x="585" 
d="M543 96v-96h-486v96l142 33v1255l-140 25v88q144 38 287 45l41 -12v-1424z" />
    <glyph glyph-name="m" unicode="m" horiz-adv-x="1884" 
d="M1860 96v-96h-463v96l116 33v551q0 229 -202 229q-78 0 -139 -34t-119 -97v-672h2l123 -10v-96h-412v96l98 33v551q0 229 -200 229q-156 0 -261 -137v-666l144 -10v-96h-473v96l141 33v745l-141 39v88q177 41 284 48l43 -11l-10 -149h21q74 90 148.5 128t170.5 38
q54 0 99.5 -12t73.5 -28.5t52 -43t35.5 -45t24.5 -43.5h22q78 89 158 130.5t180 41.5q150 0 238 -87.5t88 -254.5v-607h2z" />
    <glyph glyph-name="n" unicode="n" horiz-adv-x="1251" 
d="M1227 96v-96h-482v96l132 33v551q0 115 -53.5 172t-153.5 57q-153 0 -267 -137v-666l152 -10v-96h-481v96l141 33v745l-141 39v88q177 41 284 48l43 -11l-10 -149h21q142 166 323 166q147 0 238.5 -88t91.5 -254v-607h2z" />
    <glyph glyph-name="o" unicode="o" horiz-adv-x="1153" 
d="M596 1055q94 0 172.5 -27.5t133 -76.5t92 -115.5t55.5 -144t18 -163.5q0 -244 -139 -399.5t-371 -155.5q-116 0 -207.5 42t-148 115t-86 167t-29.5 203q0 246 139 400.5t371 154.5zM578 946q-279 0 -279 -430q0 -434 279 -434q276 0 276 434q0 430 -276 430z" />
    <glyph glyph-name="p" unicode="p" horiz-adv-x="1216" 
d="M719 1055q193 0 297 -139t104 -361q0 -168 -60 -299.5t-174 -207t-265 -75.5q-119 0 -234 47v-323l158 -10v-97h-488v97l142 32v1155l-142 39v88q177 41 285 48l43 -11l-10 -149h20q131 166 324 166zM608 82q154 0 230.5 119t76.5 327q0 203 -69.5 292t-196.5 89
q-82 0 -143.5 -34t-118.5 -103v-631q100 -59 221 -59z" />
    <glyph glyph-name="q" unicode="q" horiz-adv-x="1196" 
d="M1159 -313v-97h-506v97l176 32v240q0 31 2.5 62t6 65t4.5 53h-21q-132 -166 -323 -166q-129 0 -221.5 66.5t-136.5 178.5t-44 257q0 123 33.5 228t96.5 184t161.5 123.5t220.5 44.5q84 0 141 -20t117 -60q49 49 111 74l41 -17v-1335zM829 256v602q-58 46 -107 67t-110 21
q-153 0 -232 -120t-79 -328q0 -379 268 -379q84 0 144 34.5t116 102.5z" />
    <glyph glyph-name="r" unicode="r" horiz-adv-x="804" 
d="M754 836h-217q-81 -58 -134 -154v-573l201 -13v-96h-530v98l141 31v745l-141 39v88q162 41 276 48l43 -11l-12 -221h20q130 238 252 238q77 0 117 -72z" />
    <glyph glyph-name="s" unicode="s" horiz-adv-x="925" 
d="M440 635l115 -45q56 -22 93.5 -40.5t76.5 -46t61.5 -57.5t37 -72.5t14.5 -94.5q0 -155 -111.5 -230.5t-294.5 -75.5q-170 0 -334 70q-10 48 -10 119q0 82 12 143h129l29 -194q71 -31 168 -31q219 0 219 156q0 65 -41 103t-133 75l-106 45q-57 23 -97 46t-76.5 57
t-54.5 81t-18 107q0 144 100 224.5t277 80.5q147 0 290 -66q13 -63 13 -119q0 -61 -13 -141h-118l-29 184q-69 35 -152 35q-95 0 -146.5 -40.5t-51.5 -114.5q0 -59 33.5 -91t117.5 -67z" />
    <glyph glyph-name="t" unicode="t" horiz-adv-x="751" 
d="M698 147l25 -84q-112 -90 -260 -90q-122 0 -196 60.5t-74 187.5v692l-142 13v86l146 30l120 254l64 -4v-266h303v-115h-303v-665q0 -77 31 -109.5t104 -32.5q77 0 182 43z" />
    <glyph glyph-name="u" unicode="u" horiz-adv-x="1230" 
d="M1174 119v-88q-152 -38 -287 -47l-41 10l10 149h-20q-77 -94 -156 -132t-168 -38q-147 0 -237.5 89t-90.5 255v557l-139 39v88q176 40 287 48l43 -11l-2 -22v-666q0 -231 205 -231q151 0 266 141v614l-137 39v88q178 41 284 48l41 -11v-882z" />
    <glyph glyph-name="v" unicode="v" horiz-adv-x="1161" 
d="M1147 930l-125 -31q-68 -193 -352 -897l-125 -29l-25 2q-214 494 -373 945l-133 10v96h441v-96l-97 -31q115 -342 256 -688h23q151 381 254 709l-156 10v96h412v-96z" />
    <glyph glyph-name="w" unicode="w" horiz-adv-x="1783" 
d="M1735 930l-125 -31q-113 -400 -289 -897l-133 -29l-25 2q-129 380 -241 787h-19q-203 -613 -256 -760l-133 -29l-25 2q-189 520 -309 947l-131 8v96h445v-96l-105 -33q46 -190 199 -686h20q150 425 260 813l129 29l27 -2q124 -483 240 -840h20q139 460 195 709l-156 10
v96h412v-96z" />
    <glyph glyph-name="x" unicode="x" horiz-adv-x="1116" 
d="M1096 96v-96h-459v96l98 29q-117 178 -207 305h-18q-139 -198 -215 -324l154 -10v-96h-429v96l127 31q126 164 316 383q-35 49 -101.5 138.5t-113.5 155t-80 116.5l-131 10v96h459v-96l-105 -31q71 -111 199 -283h18q116 166 199 304l-139 10v96h411v-96l-127 -31
q-85 -111 -299 -358q185 -253 303 -435z" />
    <glyph glyph-name="y" unicode="y" horiz-adv-x="1161" 
d="M1147 930l-127 -31q-160 -461 -393 -1003q-68 -162 -159 -247t-200 -85q-98 0 -145 63l16 111h277q78 123 116 235q-184 398 -385 947l-133 10v96h441v-96l-97 -31q101 -308 256 -688h23q155 396 254 709l-156 10v96h412v-96z" />
    <glyph glyph-name="z" unicode="z" horiz-adv-x="940" 
d="M750 315l120 -8q4 -54 4 -96q0 -113 -26 -211h-770l-15 92l429 619q11 17 143 202l-8 15l-381 -17l-29 -188h-119q-10 72 -10 166q0 89 10 137h742l14 -94l-424 -617q-41 -62 -145 -202l8 -15l405 15z" />
    <glyph glyph-name="braceleft" unicode="{" horiz-adv-x="653" 
d="M551 1423l-217 -55q6 -31 36.5 -182.5t46 -248t15.5 -149.5q0 -74 -44 -117t-159 -65v-20q115 -23 159 -65t44 -120q0 -55 -16 -158t-45.5 -260t-36.5 -196l217 -55v-94q-65 -7 -100 -7q-269 0 -269 191q0 26 4 64t14.5 103t20 121.5t28 166.5t32.5 192l-164 72v110
l164 72q-14 79 -32.5 181t-28.5 156t-20 114.5t-14 97t-4 61.5q0 191 267 191q47 0 102 -6v-95z" />
    <glyph glyph-name="bar" unicode="|" horiz-adv-x="552" 
d="M342 -246h-131v1782h131v-1782z" />
    <glyph glyph-name="braceright" unicode="}" horiz-adv-x="653" 
d="M537 651v-110l-164 -72q13 -76 32.5 -191t28.5 -168.5t19 -120t14 -104t4 -63.5q0 -191 -268 -191q-36 0 -101 7v94l220 55q-8 41 -29 150.5t-34.5 181.5t-25.5 155.5t-12 126.5q0 78 44 120t159 65v20q-115 22 -159 65t-44 117q0 41 12 120t25.5 147t34.5 171t29 142
l-220 55v95q56 6 103 6q266 0 266 -191q0 -25 -4 -61t-14 -98t-19.5 -113.5t-28.5 -157.5t-32 -180z" />
    <glyph glyph-name="asciitilde" unicode="~" 
d="M1067 715l61 -58q-10 -28 -23.5 -55.5t-37.5 -61t-51.5 -58t-67 -41.5t-82.5 -17q-44 0 -93 20t-169 82q-54 28 -131 70.5t-104 56.5l-179 -166l-61 56q13 37 34.5 73.5t53.5 74.5t78 61.5t98 23.5q41 0 93.5 -20t168.5 -82q96 -50 236 -125z" />
    <glyph glyph-name="uni00A0" unicode="&#xa0;" horiz-adv-x="512" 
 />
    <glyph glyph-name="exclamdown" unicode="&#xa1;" horiz-adv-x="557" 
d="M270 1055q68 0 101 -23q26 -50 26 -90q0 -71 -57 -131l-166 25l-4 204q38 15 100 15zM213 614h125q5 -99 19.5 -305t24 -369t9.5 -268q-83 -30 -194 -30l-37 32q0 105 9.5 267.5t24 367.5t19.5 305z" />
    <glyph glyph-name="cent" unicode="&#xa2;" horiz-adv-x="1024" 
d="M903 330l41 -74q-125 -156 -313 -182l6 -217l-107 -13l-22 15l6 213q-103 7 -184 51.5t-131.5 116t-76.5 161.5t-26 193q0 222 113.5 371.5t304.5 177.5l-6 219l104 12l23 -14l-6 -213q58 -3 110.5 -18t98.5 -42t73 -72.5t27 -103.5q0 -80 -55 -125h-138l-32 250
q-19 3 -86 8q-6 -196 -6 -413q0 -233 6 -424q143 9 276 123zM303 627q0 -172 57 -275t158 -133q4 246 4 395q0 224 -6 418q-103 -31 -158 -134.5t-55 -270.5z" />
    <glyph glyph-name="sterling" unicode="&#xa3;" horiz-adv-x="1187" 
d="M991 338h103q4 -70 4 -102q0 -146 -55.5 -204.5t-182.5 -58.5q-45 0 -100.5 7t-102 16t-103 23t-90 24t-78 23.5t-52.5 15.5q-60 -109 -154 -109q-44 0 -84 25l-18 156l168 57q71 73 71 197q0 63 -16 135h-199v106h174q-28 132 -28 197q0 176 119 287.5t317 111.5
q89 0 161.5 -21.5t123.5 -75.5t51 -134q0 -81 -55 -123h-131l-33 237q-53 9 -109 9q-120 0 -178.5 -66.5t-58.5 -187.5q0 -17 1 -33.5t4 -35.5t4.5 -31.5t6.5 -35.5t7 -31t8.5 -35t7.5 -32h333v-106h-311q6 -38 6 -74q0 -91 -44 -160.5t-152 -132.5l8 -18q88 14 192 14
q213 0 406 -37z" />
    <glyph glyph-name="currency" unicode="&#xa4;" horiz-adv-x="1144" 
d="M946 602q0 -118 -57 -203l184 -184l-98 -100l-189 186q-91 -57 -219 -57t-211 53l-184 -182l-100 98l182 182q-53 80 -53 193q0 126 71 219l-200 199l100 98l211 -209q88 49 211 49q104 0 180 -39l201 199l98 -100l-190 -191q63 -84 63 -211zM578 352q180 0 180 244
q0 240 -180 240q-92 0 -141.5 -63t-49.5 -177q0 -116 49.5 -180t141.5 -64z" />
    <glyph glyph-name="yen" unicode="&#xa5;" horiz-adv-x="1300" 
d="M1233 1122l-135 -32q-94 -186 -221 -390h241v-108h-309l-57 -94v-86h366v-109h-366v-192l174 -11v-100h-531v100l156 33v170h-369v109h369v88l-57 92h-312v108h244q-166 269 -242 412h-2l-114 10v101h499v-101l-153 -30q154 -309 262 -484h20q105 166 262 504l-145 10
v101h420v-101z" />
    <glyph glyph-name="brokenbar" unicode="&#xa6;" horiz-adv-x="552" 
d="M342 934h-131v602h131v-602zM342 -246h-131v602h131v-602z" />
    <glyph glyph-name="section" unicode="&#xa7;" horiz-adv-x="1017" 
d="M963 430q0 -76 -40 -136.5t-141 -111.5q43 -64 43 -147q0 -138 -95 -223.5t-253 -85.5q-134 0 -218.5 61t-84.5 154q0 68 51 106h119l31 -203q56 -12 106 -12q92 0 135 42t43 112q0 26 -8.5 48t-19.5 39.5t-46.5 48.5t-64 53.5t-96.5 74.5q-200 155 -249 200
q-91 85 -111 161q-9 33 -9 71q0 79 41 139.5t142 110.5q-45 67 -45 151q0 134 95.5 220t254.5 86q134 0 218.5 -61t84.5 -154q0 -64 -53 -107h-119l-29 203q-56 12 -108 12q-90 0 -134.5 -42.5t-44.5 -109.5q0 -61 45.5 -109.5t190.5 -156.5q194 -148 248 -198
q97 -91 115 -177q6 -29 6 -59zM719 252q67 60 67 131q0 74 -66.5 143t-236.5 191q-129 92 -184 143q-36 -33 -51 -62t-15 -67q0 -65 58 -128.5t246 -205.5q141 -105 182 -145z" />
    <glyph glyph-name="dieresis" unicode="&#xa8;" horiz-adv-x="761" 
d="M184 1470q43 0 64 -8q33 -58 33 -96q0 -54 -41 -113h-144l-26 199q43 18 114 18zM594 1470q42 0 63 -8q33 -58 33 -96q0 -54 -41 -113h-143l-27 199q44 18 115 18z" />
    <glyph glyph-name="copyright" unicode="&#xa9;" horiz-adv-x="1617" 
d="M821 1389q311 0 504 -192t193 -505q0 -215 -95 -380t-258 -252t-368 -87t-363.5 88t-246 248t-87.5 367q0 215 95 378.5t258 249t368 85.5zM809 76q253 0 410 166t157 442q0 274 -157 438t-410 164t-410 -164t-157 -438q0 -275 157 -441.5t410 -166.5zM864 383
q115 0 223 94l39 -67q-112 -146 -307 -146q-118 0 -202.5 56.5t-124 147t-39.5 202.5q0 189 110.5 308.5t278.5 119.5q49 0 94.5 -10.5t86 -32.5t65 -61t24.5 -89q0 -69 -43 -100h-125l-26 182q-42 10 -72 10q-91 0 -141 -78.5t-50 -222.5q0 -157 55.5 -235t153.5 -78z" />
    <glyph glyph-name="ordfeminine" unicode="&#xaa;" horiz-adv-x="747" 
d="M713 541v-66q-76 -37 -148 -37q-92 0 -92 78v21h-12q-40 -51 -85.5 -79t-115.5 -28q-91 0 -142.5 48.5t-51.5 131.5q0 51 21.5 89.5t53.5 60.5t77.5 35.5t86 17.5t86.5 4q44 0 76 -4l2 111q3 153 -137 153q-28 0 -76 -10l-20 -149h-95q-41 33 -41 79q0 68 77.5 117
t180.5 49q112 0 184.5 -61.5t71.5 -181.5l-6 -371zM309 541q86 0 156 86l2 125l-29 -2q-114 -6 -162.5 -33.5t-48.5 -91.5q0 -84 82 -84z" />
    <glyph glyph-name="guillemotleft" unicode="&#xab;" horiz-adv-x="1087" 
d="M924 891l-176 -326l178 -325l-88 -62l-314 369v37l312 368zM514 891l-176 -326l178 -325l-88 -62l-313 369v37l311 368z" />
    <glyph glyph-name="logicalnot" unicode="&#xac;" 
d="M1020 193h-143v344h-742v131h885v-475z" />
    <glyph glyph-name="uni00AD" unicode="&#xad;" horiz-adv-x="741" 
d="M627 530h-512v144h512v-144z" />
    <glyph glyph-name="registered" unicode="&#xae;" horiz-adv-x="1226" 
d="M621 1477q224 0 365.5 -138.5t141.5 -361.5q0 -152 -70 -269t-188.5 -179t-265.5 -62q-224 0 -366 139.5t-142 362.5q0 228 150 368t375 140zM612 547q180 0 294 117.5t114 308.5q0 192 -114 308t-292 116q-180 0 -293.5 -116t-113.5 -308q0 -191 114 -308.5t291 -117.5z
M705 956l-3 -10q16 -16 35.5 -39t33 -41.5t35 -47t30.5 -40.5l38 -16l-2 -45q-25 -10 -65 -10q-63 0 -92 45q-13 20 -52 87t-53 91h-47v-160h2l68 -6v-51h-248v51l61 12v414l-61 4v51q114 8 178 8q140 0 197 -39.5t57 -115.5q0 -114 -112 -142zM563 991h82q47 32 47 103
q0 48 -20 73t-70 25h-39v-201z" />
    <glyph glyph-name="macron" unicode="&#xaf;" horiz-adv-x="677" 
d="M70 1411h538q8 -31 8 -72q0 -38 -8 -69h-538q-9 34 -9 69q0 37 9 72z" />
    <glyph glyph-name="degree" unicode="&#xb0;" horiz-adv-x="708" 
d="M362 1505q121 0 202 -83t81 -199q0 -121 -89.5 -205t-211.5 -84t-201.5 82t-79.5 198q0 123 88.5 207t210.5 84zM352 1389q-66 0 -112.5 -47.5t-46.5 -122.5t46.5 -121.5t112.5 -46.5t112 46.5t46 121.5t-46 122.5t-112 47.5z" />
    <glyph glyph-name="plusminus" unicode="&#xb1;" 
d="M1069 770v-129h-369v-322h-145v322h-365v129h365v322h145v-322h369zM190 131h879v-131h-879v131z" />
    <glyph glyph-name="twosuperior" unicode="&#xb2;" horiz-adv-x="606" 
d="M555 868q0 -50 -6 -75v-7h-504l-8 80q49 38 69 54t65.5 55t67 62t54.5 61t48.5 68t27.5 67.5t12 73.5q0 118 -113 118q-34 0 -59 -10l-21 -143h-100q-41 24 -41 76q0 66 69 109.5t169 43.5q114 0 179.5 -55.5t65.5 -140.5q0 -41 -19.5 -84t-48.5 -80t-82.5 -85t-101 -85
t-124.5 -94l6 -15q110 15 141 17l148 12l10 70h86q10 -39 10 -93z" />
    <glyph glyph-name="threesuperior" unicode="&#xb3;" horiz-adv-x="653" 
d="M299 1501q113 0 177.5 -52t64.5 -136q0 -109 -125 -150v-18q147 -39 147 -158q0 -96 -80.5 -156.5t-206.5 -60.5q-96 0 -160.5 37t-64.5 102q0 51 37 78h100l21 -135q54 -6 63 -6q146 0 146 137q0 65 -34 98t-116 33h-57v72h119q65 40 65 131q0 60 -28 84t-84 24
q-36 0 -70 -10l-16 -131h-93q-41 30 -41 74q0 62 69 102.5t167 40.5z" />
    <glyph glyph-name="acute" unicode="&#xb4;" horiz-adv-x="518" 
d="M262 1575h72q35 -15 69 -46t54 -67l-285 -288h-111z" />
    <glyph glyph-name="mu" unicode="&#xb5;" horiz-adv-x="1226" 
d="M1169 119v-88q-152 -38 -286 -47l-41 10l10 149h-23q-133 -170 -303 -170q-116 0 -188 93l-19 -11l31 -473q-63 -18 -168 -18l-37 35l35 516v901q75 21 146 33l43 -9v-690q0 -231 204 -231q149 0 267 141v756q80 23 145 33l43 -9v-884z" />
    <glyph glyph-name="paragraph" unicode="&#xb6;" horiz-adv-x="1171" 
d="M655 461h-102q-237 -2 -367.5 112.5t-130.5 333.5q0 215 127.5 334.5t368.5 120.5h104v-901zM1114 1264l-170 -33v-1002q0 -108 -29 -187t-81.5 -124.5t-119.5 -66.5t-151 -21q-193 0 -315 107l43 77q128 -69 280 -69q124 0 185 61.5t61 212.5v1143h297v-98z" />
    <glyph glyph-name="periodcentered" unicode="&#xb7;" horiz-adv-x="516" 
d="M279 731q31 0 63 -8q43 -58 43 -121q0 -65 -39 -123h-180l-37 219q64 33 150 33z" />
    <glyph glyph-name="cedilla" unicode="&#xb8;" horiz-adv-x="548" 
d="M309 12v-147q90 -3 134 -38t44 -95q0 -73 -60.5 -120.5t-166.5 -47.5q-127 0 -199 57l19 76q88 -27 135 -27q50 0 80.5 18.5t30.5 55.5q0 31 -28 44.5t-116 29.5l31 194h96z" />
    <glyph glyph-name="onesuperior" unicode="&#xb9;" horiz-adv-x="505" 
d="M471 856v-70h-408v70l140 21v464q-45 -14 -144 -14v78q140 5 205 96l70 -2v-635h2z" />
    <glyph glyph-name="ordmasculine" unicode="&#xba;" horiz-adv-x="792" 
d="M408 1163q104 0 178 -51.5t107.5 -131t33.5 -175.5q0 -165 -95 -270t-249 -105q-152 0 -234.5 102t-82.5 254q0 164 94 270.5t248 106.5zM395 1073q-168 0 -168 -276q0 -279 170 -279q86 0 127 67.5t41 207.5q0 280 -170 280z" />
    <glyph glyph-name="guillemotright" unicode="&#xbb;" horiz-adv-x="1089" 
d="M975 584v-37l-313 -369l-89 62l179 325l-177 326l89 61zM563 584v-37l-313 -369l-88 62l178 325l-176 326l88 61z" />
    <glyph glyph-name="onequarter" unicode="&#xbc;" horiz-adv-x="1740" 
d="M1341 1362l11 -27q-321 -486 -437 -676q-65 -106 -200 -341.5t-217 -366.5l-103 49l-10 27q323 488 440 682q70 112 203.5 343.5t212.5 358.5zM571 614v-84h-493v84l168 25v557q-63 -16 -172 -16v92q171 9 248 117l84 -5v-761zM1696 141h-137v-141h-154v141h-373l-8 66
q151 351 260 655l146 -51l6 -23q-155 -317 -293 -536l6 -19q100 17 170 17h86v256l104 22l50 -4v-274h137v-109z" />
    <glyph glyph-name="onehalf" unicode="&#xbd;" horiz-adv-x="1820" 
d="M1341 1362l11 -27q-321 -486 -437 -676q-65 -106 -200 -341.5t-217 -366.5l-103 49l-10 27q323 488 440 682q70 112 203.5 343.5t212.5 358.5zM571 614v-84h-493v84l168 25v557q-63 -16 -172 -16v92q171 9 248 117l84 -5v-761zM1647 209h102q14 -49 14 -111
q0 -43 -10 -98h-604l-10 94q11 9 35 28q165 136 235 213q139 152 139 290q0 72 -34.5 107.5t-94.5 35.5q-35 0 -73 -12l-25 -174h-121q-49 34 -49 92q0 77 83.5 130.5t203.5 53.5q134 0 213.5 -67.5t79.5 -167.5q0 -50 -23.5 -101.5t-58 -95.5t-99 -101.5t-121 -101.5
t-149.5 -112l6 -19q128 19 170 21l178 12z" />
    <glyph glyph-name="threequarters" unicode="&#xbe;" horiz-adv-x="1830" 
d="M1432 1362l10 -27q-308 -466 -436 -676q-64 -105 -200 -340.5t-218 -367.5l-103 49l-10 27q323 488 440 682q70 112 203.5 343.5t212.5 358.5zM496 979v-21q178 -46 178 -186q0 -115 -97.5 -187.5t-250.5 -72.5q-115 0 -192 44t-77 122q0 61 45 94h121l25 -164
q40 -8 76 -8q174 0 174 164q0 78 -41.5 120t-139.5 42h-67v84h139q82 55 82 157q0 131 -133 131q-44 0 -84 -12l-21 -158h-112q-49 34 -49 89q0 74 82 123t202 49q133 0 211 -63t78 -163q0 -131 -149 -184zM1786 141h-137v-141h-154v141h-373l-8 66q151 351 260 655l146 -51
l6 -23q-155 -317 -293 -536l6 -19q100 17 170 17h86v256l104 22l50 -4v-274h137v-109z" />
    <glyph glyph-name="questiondown" unicode="&#xbf;" horiz-adv-x="731" 
d="M375 836l-4 204q37 15 100 15q67 0 100 -23q27 -52 27 -90q0 -71 -57 -131zM190 61q0 -106 117.5 -160.5t323.5 -52.5v-180q-58 -12 -121 -12q-93 0 -168 26t-123 68.5t-80 100.5t-45.5 118.5t-13.5 126.5q0 129 67 197.5t259 148.5l4 211h116q58 -148 58 -241
q0 -48 -25.5 -80t-93.5 -62q-178 -82 -218 -110q-52 -36 -56 -84q-1 -7 -1 -15z" />
    <glyph glyph-name="Agrave" unicode="&#xc0;" horiz-adv-x="1394" 
d="M1370 100v-100h-502v100l146 31l-86 268h-541q-50 -160 -88 -288l145 -11v-100h-419v100l129 31q97 301 222.5 661.5t207.5 567.5l164 29l24 -3q174 -423 465 -1275zM422 512h469q-139 422 -227 655h-23q-72 -200 -219 -655zM784 1479h-118l-293 241q46 76 121 113h71z
" />
    <glyph glyph-name="Aacute" unicode="&#xc1;" horiz-adv-x="1394" 
d="M1370 100v-100h-502v100l146 31l-86 268h-541q-50 -160 -88 -288l145 -11v-100h-419v100l129 31q97 301 222.5 661.5t207.5 567.5l164 29l24 -3q174 -423 465 -1275zM422 512h469q-139 422 -227 655h-23q-72 -200 -219 -655zM852 1833h72q79 -40 120 -113l-296 -241h-119
z" />
    <glyph glyph-name="Acircumflex" unicode="&#xc2;" horiz-adv-x="1394" 
d="M1370 100v-100h-502v100l146 31l-86 268h-541q-50 -160 -88 -288l145 -11v-100h-419v100l129 31q97 301 222.5 661.5t207.5 567.5l164 29l24 -3q174 -423 465 -1275zM422 512h469q-139 422 -227 655h-23q-72 -200 -219 -655zM995 1540l-131 -84l-202 170h-21l-176 -147
h-125l295 336h115z" />
    <glyph glyph-name="Atilde" unicode="&#xc3;" horiz-adv-x="1394" 
d="M1370 100v-100h-502v100l146 31l-86 268h-541q-50 -160 -88 -288l145 -11v-100h-419v100l129 31q97 301 222.5 661.5t207.5 567.5l164 29l24 -3q174 -423 465 -1275zM422 512h469q-139 422 -227 655h-23q-72 -200 -219 -655zM934 1761l57 -55q-13 -27 -16.5 -34.5
t-18 -34t-23 -37.5t-26 -30.5t-33 -28t-37.5 -16t-46 -7.5q-48 0 -101 26l-178 84l-106 -106l-60 55q19 40 31.5 62.5t38.5 57t59 51.5t74 17q45 0 98 -26l178 -86z" />
    <glyph glyph-name="Adieresis" unicode="&#xc4;" horiz-adv-x="1394" 
d="M1370 100v-100h-502v100l146 31l-86 268h-541q-50 -160 -88 -288l145 -11v-100h-419v100l129 31q97 301 222.5 661.5t207.5 567.5l164 29l24 -3q174 -423 465 -1275zM422 512h469q-139 422 -227 655h-23q-72 -200 -219 -655zM438 1749q42 0 66 -8q33 -44 33 -101
q0 -53 -39 -112h-148l-28 203q44 18 116 18zM913 1749q41 0 68 -8q33 -44 33 -101q0 -53 -39 -112h-150l-26 203q41 18 114 18z" />
    <glyph glyph-name="Aring" unicode="&#xc5;" horiz-adv-x="1394" 
d="M1370 100v-100h-502v100l146 31l-86 268h-541q-50 -160 -88 -288l145 -11v-100h-419v100l129 31q97 301 222.5 661.5t207.5 567.5l164 29l24 -3q174 -423 465 -1275zM422 512h469q-139 422 -227 655h-23q-72 -200 -219 -655zM680 1835q104 0 159.5 -47t55.5 -131
q0 -92 -64.5 -140.5t-171.5 -48.5q-106 0 -162.5 46t-56.5 131q0 93 66.5 141.5t173.5 48.5zM670 1745q-41 0 -63.5 -24t-22.5 -70q0 -44 23 -69.5t63 -25.5t62 25.5t22 71.5q0 92 -84 92z" />
    <glyph glyph-name="AE" unicode="&#xc6;" horiz-adv-x="1900" 
d="M1655 319l129 -12q6 -81 6 -92q0 -80 -27 -215h-999v100l162 33v268h-484q-73 -149 -137 -290l139 -11v-100h-419v100l133 31q267 550 587 1122l-137 9v100h1155q11 -57 11 -135q0 -90 -13 -170h-127l-28 178l-476 14v-491l256 2l23 125h96v-379h-96l-27 139h-252v-534
l472 14zM926 514v733h-49q-158 -282 -379 -733h428z" />
    <glyph glyph-name="Ccedilla" unicode="&#xc7;" horiz-adv-x="1325" 
d="M1171 256l43 -78q-158 -192 -428 -203v-110q91 -1 136 -37t45 -96q0 -73 -61 -120.5t-167 -47.5q-125 0 -200 57l18 76q88 -27 135 -27q52 0 81.5 18.5t29.5 55.5q0 31 -27.5 45t-116.5 29l3 4l24 153q-142 11 -255 70t-184.5 154t-109 216t-37.5 259q0 154 46.5 284.5
t133 226.5t218 150t293.5 54q82 0 161.5 -15t118.5 -29t92 -36q11 -53 11 -113q0 -48 -15 -201h-131l-37 240q-88 33 -190 33q-234 0 -355.5 -145t-121.5 -418q0 -289 128.5 -437.5t348.5 -148.5q197 0 370 137z" />
    <glyph glyph-name="Egrave" unicode="&#xc8;" horiz-adv-x="1247" 
d="M1004 319l129 -12q4 -54 4 -92q0 -90 -27 -215h-1016v100l162 33v1118l-162 11v100h1018q10 -52 10 -135q0 -97 -12 -170h-127l-29 178l-493 16v-493l276 2l21 125h98v-379h-98l-25 137l-272 2v-534l489 16zM733 1479h-119l-292 241q46 77 120 113h72z" />
    <glyph glyph-name="Eacute" unicode="&#xc9;" horiz-adv-x="1247" 
d="M1004 319l129 -12q4 -54 4 -92q0 -90 -27 -215h-1016v100l162 33v1118l-162 11v100h1018q10 -52 10 -135q0 -97 -12 -170h-127l-29 178l-493 16v-493l276 2l21 125h98v-379h-98l-25 137l-272 2v-534l489 16zM801 1833h71q80 -41 121 -113l-297 -241h-118z" />
    <glyph glyph-name="Ecircumflex" unicode="&#xca;" horiz-adv-x="1247" 
d="M1004 319l129 -12q4 -54 4 -92q0 -90 -27 -215h-1016v100l162 33v1118l-162 11v100h1018q10 -52 10 -135q0 -97 -12 -170h-127l-29 178l-493 16v-493l276 2l21 125h98v-379h-98l-25 137l-272 2v-534l489 16zM944 1540l-131 -84l-203 170h-20l-176 -147h-125l295 336h114z
" />
    <glyph glyph-name="Edieresis" unicode="&#xcb;" horiz-adv-x="1247" 
d="M1004 319l129 -12q4 -54 4 -92q0 -90 -27 -215h-1016v100l162 33v1118l-162 11v100h1018q10 -52 10 -135q0 -97 -12 -170h-127l-29 178l-493 16v-493l276 2l21 125h98v-379h-98l-25 137l-272 2v-534l489 16zM387 1749q42 0 66 -8q32 -42 32 -101q0 -53 -39 -112h-147
l-29 203q43 18 117 18zM862 1749q41 0 68 -8q33 -44 33 -101q0 -53 -39 -112h-150l-26 203q40 18 114 18z" />
    <glyph glyph-name="Igrave" unicode="&#xcc;" horiz-adv-x="714" 
d="M461 1231v-1120l160 -11v-100h-527v100l162 33v1118l-162 11v100h527v-100zM475 1479h-119l-293 241q46 76 121 113h72z" />
    <glyph glyph-name="Iacute" unicode="&#xcd;" horiz-adv-x="714" 
d="M461 1231v-1120l160 -11v-100h-527v100l162 33v1118l-162 11v100h527v-100zM543 1833h71q80 -41 121 -113l-297 -241h-119z" />
    <glyph glyph-name="Icircumflex" unicode="&#xce;" horiz-adv-x="714" 
d="M461 1231v-1120l160 -11v-100h-527v100l162 33v1118l-162 11v100h527v-100zM686 1540l-131 -84l-203 170h-20l-176 -147h-125l295 336h114z" />
    <glyph glyph-name="Idieresis" unicode="&#xcf;" horiz-adv-x="714" 
d="M461 1231v-1120l160 -11v-100h-527v100l162 33v1118l-162 11v100h527v-100zM129 1749q42 0 66 -8q32 -42 32 -101q0 -53 -39 -112h-147l-29 203q43 18 117 18zM604 1749q41 0 68 -8q33 -44 33 -101q0 -53 -39 -112h-150l-27 203q40 18 115 18z" />
    <glyph glyph-name="Eth" unicode="&#xd0;" horiz-adv-x="1454" 
d="M608 1374q159 0 285 -32.5t211.5 -90.5t142 -142t82 -183.5t25.5 -218.5q0 -159 -41.5 -286.5t-126 -222.5t-222 -146.5t-319.5 -51.5h-526v100l160 33v514h-160v115h160v489l-160 11v100q308 12 489 12zM483 115h164q254 0 368.5 145t114.5 442q0 273 -109.5 415.5
t-356.5 142.5h-181v-498h281v-115h-281v-532z" />
    <glyph glyph-name="Ntilde" unicode="&#xd1;" horiz-adv-x="1552" 
d="M1477 1262l-160 -31v-1229l-158 -29l-29 2l-569 949q-75 124 -155 295h-19l14 -1108l187 -11v-100h-494v100l162 33v1116l-162 13v100h445l452 -758q96 -158 178 -321h21l-16 968l-191 11v100h494v-100zM1044 1761l58 -55q-16 -34 -24 -49.5t-28.5 -47.5t-38.5 -47.5
t-47.5 -29.5t-62.5 -14q-47 0 -100 26l-178 84l-107 -106l-59 55l24 49.5t28.5 47.5t39 47.5t48 30t62.5 13.5q46 0 99 -26l178 -86z" />
    <glyph glyph-name="Ograve" unicode="&#xd2;" horiz-adv-x="1505" 
d="M774 1389q123 0 226.5 -35.5t177.5 -98t125.5 -149t76.5 -189t25 -217.5q0 -158 -48 -292.5t-134 -230.5t-212.5 -150t-277.5 -54q-152 0 -274.5 55t-199.5 151t-118 221t-41 270q0 210 81 372.5t235 254.5t358 92zM754 1268q-197 0 -311.5 -149.5t-114.5 -434.5
q0 -286 114.5 -438t311.5 -152q195 0 309.5 152.5t114.5 437.5t-114 434.5t-310 149.5zM868 1479h-118l-293 241q46 76 121 113h71z" />
    <glyph glyph-name="Oacute" unicode="&#xd3;" horiz-adv-x="1505" 
d="M774 1389q123 0 226.5 -35.5t177.5 -98t125.5 -149t76.5 -189t25 -217.5q0 -158 -48 -292.5t-134 -230.5t-212.5 -150t-277.5 -54q-152 0 -274.5 55t-199.5 151t-118 221t-41 270q0 210 81 372.5t235 254.5t358 92zM754 1268q-197 0 -311.5 -149.5t-114.5 -434.5
q0 -286 114.5 -438t311.5 -152q195 0 309.5 152.5t114.5 437.5t-114 434.5t-310 149.5zM936 1833h72q79 -40 120 -113l-297 -241h-118z" />
    <glyph glyph-name="Ocircumflex" unicode="&#xd4;" horiz-adv-x="1505" 
d="M774 1389q123 0 226.5 -35.5t177.5 -98t125.5 -149t76.5 -189t25 -217.5q0 -158 -48 -292.5t-134 -230.5t-212.5 -150t-277.5 -54q-152 0 -274.5 55t-199.5 151t-118 221t-41 270q0 210 81 372.5t235 254.5t358 92zM754 1268q-197 0 -311.5 -149.5t-114.5 -434.5
q0 -286 114.5 -438t311.5 -152q195 0 309.5 152.5t114.5 437.5t-114 434.5t-310 149.5zM1079 1540l-131 -84l-203 170h-20l-176 -147h-125l295 336h115z" />
    <glyph glyph-name="Otilde" unicode="&#xd5;" horiz-adv-x="1505" 
d="M774 1389q123 0 226.5 -35.5t177.5 -98t125.5 -149t76.5 -189t25 -217.5q0 -158 -48 -292.5t-134 -230.5t-212.5 -150t-277.5 -54q-152 0 -274.5 55t-199.5 151t-118 221t-41 270q0 210 81 372.5t235 254.5t358 92zM754 1268q-197 0 -311.5 -149.5t-114.5 -434.5
q0 -286 114.5 -438t311.5 -152q195 0 309.5 152.5t114.5 437.5t-114 434.5t-310 149.5zM1018 1761l57 -55q-16 -34 -24 -49.5t-28.5 -47.5t-38.5 -47.5t-47.5 -29.5t-62.5 -14q-47 0 -100 26l-178 84l-107 -106l-59 55q19 40 31.5 62.5t38.5 57t59 51.5t74 17q45 0 98 -26
l178 -86z" />
    <glyph glyph-name="Odieresis" unicode="&#xd6;" horiz-adv-x="1505" 
d="M774 1389q123 0 226.5 -35.5t177.5 -98t125.5 -149t76.5 -189t25 -217.5q0 -158 -48 -292.5t-134 -230.5t-212.5 -150t-277.5 -54q-152 0 -274.5 55t-199.5 151t-118 221t-41 270q0 210 81 372.5t235 254.5t358 92zM754 1268q-197 0 -311.5 -149.5t-114.5 -434.5
q0 -286 114.5 -438t311.5 -152q195 0 309.5 152.5t114.5 437.5t-114 434.5t-310 149.5zM522 1749q42 0 66 -8q33 -44 33 -101q0 -53 -39 -112h-148l-28 203q44 18 116 18zM997 1749q41 0 68 -8q33 -44 33 -101q0 -53 -39 -112h-150l-26 203q40 18 114 18z" />
    <glyph glyph-name="multiply" unicode="&#xd7;" 
d="M1055 932l-328 -330l328 -330l-94 -94l-328 330l-332 -330l-94 94l328 330l-330 330l96 94l328 -330l329 330z" />
    <glyph glyph-name="Oslash" unicode="&#xd8;" horiz-adv-x="1505" 
d="M1374 1448l-157 -227q92 -94 140 -228.5t48 -292.5t-48 -292.5t-134 -230.5t-212.5 -150t-277.5 -54q-195 0 -340 90l-147 -213l-94 39l-11 25l156 225q-97 94 -147 232t-50 299q0 210 81 372.5t235 254.5t358 92q201 0 346 -93l150 215l94 -38zM764 1268
q-210 0 -323 -147.5t-113 -450.5q0 -248 78 -389l622 897q-100 90 -264 90zM741 94q209 0 323 150t114 454q0 239 -72 377l-621 -895q96 -86 256 -86z" />
    <glyph glyph-name="Ugrave" unicode="&#xd9;" horiz-adv-x="1470" 
d="M1413 1262l-160 -33v-774q0 -219 -132.5 -350.5t-377.5 -131.5q-249 0 -386.5 134.5t-137.5 361.5v782l-162 11v100h531v-100l-164 -31v-764q0 -192 87 -282.5t255 -90.5t255 90.5t87 282.5v784l-188 11v100h493v-100zM868 1479h-118l-293 241q46 76 121 113h71z" />
    <glyph glyph-name="Uacute" unicode="&#xda;" horiz-adv-x="1470" 
d="M1413 1262l-160 -33v-774q0 -219 -132.5 -350.5t-377.5 -131.5q-249 0 -386.5 134.5t-137.5 361.5v782l-162 11v100h531v-100l-164 -31v-764q0 -192 87 -282.5t255 -90.5t255 90.5t87 282.5v784l-188 11v100h493v-100zM936 1833h72q79 -40 120 -113l-297 -241h-118z" />
    <glyph glyph-name="Ucircumflex" unicode="&#xdb;" horiz-adv-x="1470" 
d="M1413 1262l-160 -33v-774q0 -219 -132.5 -350.5t-377.5 -131.5q-249 0 -386.5 134.5t-137.5 361.5v782l-162 11v100h531v-100l-164 -31v-764q0 -192 87 -282.5t255 -90.5t255 90.5t87 282.5v784l-188 11v100h493v-100zM1079 1540l-131 -84l-203 170h-20l-176 -147h-125
l295 336h115z" />
    <glyph glyph-name="Udieresis" unicode="&#xdc;" horiz-adv-x="1470" 
d="M1413 1262l-160 -33v-774q0 -219 -132.5 -350.5t-377.5 -131.5q-249 0 -386.5 134.5t-137.5 361.5v782l-162 11v100h531v-100l-164 -31v-764q0 -192 87 -282.5t255 -90.5t255 90.5t87 282.5v784l-188 11v100h493v-100zM522 1749q42 0 66 -8q33 -44 33 -101
q0 -53 -39 -112h-148l-28 203q44 18 116 18zM997 1749q41 0 68 -8q33 -44 33 -101q0 -53 -39 -112h-150l-26 203q40 18 114 18z" />
    <glyph glyph-name="Yacute" unicode="&#xdd;" horiz-adv-x="1370" 
d="M1317 1262l-117 -31q-177 -366 -399 -744v-376h2l180 -11v-100h-567v100l180 33v350q-206 352 -418 768l-125 11v100h516v-100l-166 -29q162 -323 320 -598h20q66 107 156 281.5t162 334.5l-187 11v100h443v-100zM874 1833h72q80 -41 121 -113l-297 -241h-119z" />
    <glyph glyph-name="Thorn" unicode="&#xde;" horiz-adv-x="1206" 
d="M461 1149h129q271 0 403.5 -107.5t132.5 -310.5q0 -201 -119.5 -323.5t-322.5 -122.5q-35 0 -85.5 3t-55.5 5v102h75q285 0 285 332q0 149 -66.5 227t-226.5 78h-149v-921l164 -11v-100h-531v100l162 33v1118l-162 11v100h344l23 -31v-182z" />
    <glyph glyph-name="germandbls" unicode="&#xdf;" horiz-adv-x="1245" 
d="M983 612q41 -22 72 -44.5t67 -60t56 -90t20 -116.5q0 -151 -108 -239.5t-271 -88.5q-73 0 -133 17.5t-102.5 62t-42.5 111.5q0 70 49 112h102l27 -188q59 -12 106 -12q87 0 131.5 48t44.5 132q0 59 -29 103.5t-104 97.5q-48 35 -67 49t-51.5 40t-44 41t-26.5 38.5
t-19.5 47t-4.5 52.5q0 41 14 76.5t29.5 56.5t53.5 66q53 60 79.5 123t26.5 155q0 132 -54 184t-151 52q-76 0 -127.5 -26.5t-77 -78t-35.5 -110.5t-10 -142v-1081h-329v94l141 33v784h-2l-141 13v88l143 30v17q0 225 134.5 354t350.5 129q171 0 266 -82t95 -229
q0 -60 -16 -110.5t-47 -90.5t-60 -67t-72 -58q-25 -17 -38 -28.5t-25 -33.5t-12 -50q0 -53 38 -85.5t154 -95.5z" />
    <glyph glyph-name="agrave" unicode="&#xe0;" horiz-adv-x="1069" 
d="M1024 115v-84q-89 -47 -180 -47q-71 0 -104 32t-33 97v28h-23q-65 -81 -139.5 -124.5t-177.5 -43.5q-135 0 -208 71.5t-73 186.5q0 71 30.5 126.5t78 88t112.5 53.5t126 28.5t128 7.5q74 0 135 -9l2 197q3 225 -223 225q-57 0 -108 -10l-33 -238h-133q-60 45 -60 111
q0 69 59.5 126.5t148.5 87.5t183 30q158 0 257 -86t98 -240l-6 -602zM430 106q149 0 264 150l2 193h-41q-195 0 -279.5 -47.5t-84.5 -153.5q0 -142 139 -142zM618 1174h-108l-291 288q52 83 131 113h72z" />
    <glyph glyph-name="aacute" unicode="&#xe1;" horiz-adv-x="1069" 
d="M1024 115v-84q-89 -47 -180 -47q-71 0 -104 32t-33 97v28h-23q-65 -81 -139.5 -124.5t-177.5 -43.5q-135 0 -208 71.5t-73 186.5q0 71 30.5 126.5t78 88t112.5 53.5t126 28.5t128 7.5q74 0 135 -9l2 197q3 225 -223 225q-57 0 -108 -10l-33 -238h-133q-60 45 -60 111
q0 69 59.5 126.5t148.5 87.5t183 30q158 0 257 -86t98 -240l-6 -602zM430 106q149 0 264 150l2 193h-41q-195 0 -279.5 -47.5t-84.5 -153.5q0 -142 139 -142zM659 1575h72q35 -15 69 -46t54 -67l-285 -288h-110z" />
    <glyph glyph-name="acircumflex" unicode="&#xe2;" horiz-adv-x="1069" 
d="M1024 115v-84q-89 -47 -180 -47q-71 0 -104 32t-33 97v28h-23q-65 -81 -139.5 -124.5t-177.5 -43.5q-135 0 -208 71.5t-73 186.5q0 71 30.5 126.5t78 88t112.5 53.5t126 28.5t128 7.5q74 0 135 -9l2 197q3 225 -223 225q-57 0 -108 -10l-33 -238h-133q-60 45 -60 111
q0 69 59.5 126.5t148.5 87.5t183 30q158 0 257 -86t98 -240l-6 -602zM430 106q149 0 264 150l2 193h-41q-195 0 -279.5 -47.5t-84.5 -153.5q0 -142 139 -142zM834 1235l-132 -76l-184 219h-20l-158 -204h-113l265 393h114z" />
    <glyph glyph-name="atilde" unicode="&#xe3;" horiz-adv-x="1069" 
d="M1024 115v-84q-89 -47 -180 -47q-71 0 -104 32t-33 97v28h-23q-65 -81 -139.5 -124.5t-177.5 -43.5q-135 0 -208 71.5t-73 186.5q0 71 30.5 126.5t78 88t112.5 53.5t126 28.5t128 7.5q74 0 135 -9l2 197q3 225 -223 225q-57 0 -108 -10l-33 -238h-133q-60 45 -60 111
q0 69 59.5 126.5t148.5 87.5t183 30q158 0 257 -86t98 -240l-6 -602zM430 106q149 0 264 150l2 193h-41q-195 0 -279.5 -47.5t-84.5 -153.5q0 -142 139 -142zM782 1485l60 -55q-17 -36 -32 -63t-41 -62t-60.5 -54.5t-73.5 -19.5q-35 0 -92 29l-154 79l-108 -108l-60 55
q17 36 32 63t41.5 62t61 54.5t74.5 19.5q33 0 90 -29l154 -80z" />
    <glyph glyph-name="adieresis" unicode="&#xe4;" horiz-adv-x="1069" 
d="M1024 115v-84q-89 -47 -180 -47q-71 0 -104 32t-33 97v28h-23q-65 -81 -139.5 -124.5t-177.5 -43.5q-135 0 -208 71.5t-73 186.5q0 71 30.5 126.5t78 88t112.5 53.5t126 28.5t128 7.5q74 0 135 -9l2 197q3 225 -223 225q-57 0 -108 -10l-33 -238h-133q-60 45 -60 111
q0 69 59.5 126.5t148.5 87.5t183 30q158 0 257 -86t98 -240l-6 -602zM430 106q149 0 264 150l2 193h-41q-195 0 -279.5 -47.5t-84.5 -153.5q0 -142 139 -142zM336 1470q42 0 63 -8q33 -58 33 -96q0 -54 -41 -113h-143l-27 199q44 18 115 18zM745 1470q43 0 64 -8
q33 -58 33 -96q0 -54 -41 -113h-144l-26 199q44 18 114 18z" />
    <glyph glyph-name="aring" unicode="&#xe5;" horiz-adv-x="1069" 
d="M1024 115v-84q-89 -47 -180 -47q-71 0 -104 32t-33 97v28h-23q-65 -81 -139.5 -124.5t-177.5 -43.5q-135 0 -208 71.5t-73 186.5q0 71 30.5 126.5t78 88t112.5 53.5t126 28.5t128 7.5q74 0 135 -9l2 197q3 225 -223 225q-57 0 -108 -10l-33 -238h-133q-60 45 -60 111
q0 69 59.5 126.5t148.5 87.5t183 30q158 0 257 -86t98 -240l-6 -602zM430 106q149 0 264 150l2 193h-41q-195 0 -279.5 -47.5t-84.5 -153.5q0 -142 139 -142zM543 1583q104 0 160.5 -48.5t56.5 -137.5q0 -100 -65.5 -151.5t-172.5 -51.5q-104 0 -161.5 48.5t-57.5 139.5
q0 99 67.5 150t172.5 51zM535 1495q-86 0 -86 -106q0 -52 22 -78.5t61 -26.5q41 0 62.5 28t21.5 79q0 104 -81 104z" />
    <glyph glyph-name="ae" unicode="&#xe6;" horiz-adv-x="1607" 
d="M1466 233l43 -71q-148 -189 -395 -189q-266 0 -364 211h-23q-143 -211 -362 -211q-136 0 -207.5 70.5t-71.5 187.5q0 49 13 90t34 71.5t55.5 55.5t68 42t81.5 30.5t86 20.5t92 13t89 8.5t87 4.5l4 138q4 124 -60.5 183.5t-168.5 59.5q-53 0 -100 -12l-33 -236h-133
q-60 40 -60 111q0 68 55 125t142 88t184 31q117 0 188 -48t95 -133h18q41 79 122.5 130t205.5 51q175 0 263.5 -103t88.5 -272q0 -76 -16 -158h-2l-621 -20q9 -186 92 -283.5t215 -97.5q141 0 295 112zM1128 946q-105 0 -179 -93.5t-83 -264.5l451 41q-3 317 -189 317z
M432 106q158 0 281 177q-22 99 -25 198q-219 -20 -309 -73t-90 -158q0 -144 143 -144z" />
    <glyph glyph-name="ccedilla" unicode="&#xe7;" horiz-adv-x="1007" 
d="M891 231l41 -71q-130 -164 -336 -185v-110q91 -1 135.5 -37t44.5 -96q0 -73 -60.5 -120.5t-166.5 -47.5q-126 0 -201 57l19 76q88 -27 135 -27q110 0 110 74q0 32 -27 45.5t-116 28.5l2 4l25 153q-102 9 -181.5 54t-128.5 116.5t-74.5 161t-25.5 191.5q0 248 136.5 402.5
t352.5 154.5q60 0 116 -13t105.5 -39.5t79 -73.5t29.5 -108q0 -82 -57 -123h-141l-33 242q-41 8 -76 8q-143 0 -224 -105.5t-81 -307.5q0 -204 82 -309t221 -105q142 0 295 110z" />
    <glyph glyph-name="egrave" unicode="&#xe8;" horiz-adv-x="1050" 
d="M911 233l41 -71q-148 -189 -397 -189q-118 0 -209.5 42t-147 115.5t-84 166.5t-28.5 201q0 249 138.5 403t361.5 154q180 0 271 -102.5t91 -270.5q0 -81 -18 -158h-639q3 -195 87.5 -299t225.5 -104q149 0 307 112zM563 946q-106 0 -180 -85.5t-88 -244.5l461 19v4
q0 307 -193 307zM643 1174h-108l-291 288q52 83 131 113h71z" />
    <glyph glyph-name="eacute" unicode="&#xe9;" horiz-adv-x="1050" 
d="M911 233l41 -71q-148 -189 -397 -189q-118 0 -209.5 42t-147 115.5t-84 166.5t-28.5 201q0 249 138.5 403t361.5 154q180 0 271 -102.5t91 -270.5q0 -81 -18 -158h-639q3 -195 87.5 -299t225.5 -104q149 0 307 112zM563 946q-106 0 -180 -85.5t-88 -244.5l461 19v4
q0 307 -193 307zM684 1575h72q35 -15 69 -46t54 -67l-285 -288h-111z" />
    <glyph glyph-name="ecircumflex" unicode="&#xea;" horiz-adv-x="1050" 
d="M911 233l41 -71q-148 -189 -397 -189q-118 0 -209.5 42t-147 115.5t-84 166.5t-28.5 201q0 249 138.5 403t361.5 154q180 0 271 -102.5t91 -270.5q0 -81 -18 -158h-639q3 -195 87.5 -299t225.5 -104q149 0 307 112zM563 946q-106 0 -180 -85.5t-88 -244.5l461 19v4
q0 307 -193 307zM858 1235l-131 -76l-184 219h-21l-157 -204h-113l264 393h115z" />
    <glyph glyph-name="edieresis" unicode="&#xeb;" horiz-adv-x="1050" 
d="M911 233l41 -71q-148 -189 -397 -189q-118 0 -209.5 42t-147 115.5t-84 166.5t-28.5 201q0 249 138.5 403t361.5 154q180 0 271 -102.5t91 -270.5q0 -81 -18 -158h-639q3 -195 87.5 -299t225.5 -104q149 0 307 112zM563 946q-106 0 -180 -85.5t-88 -244.5l461 19v4
q0 307 -193 307zM360 1470q43 0 64 -8q33 -58 33 -96q0 -54 -41 -113h-144l-26 199q43 18 114 18zM770 1470q43 0 64 -8q32 -56 32 -96q0 -54 -41 -113h-143l-27 199q43 18 115 18z" />
    <glyph glyph-name="igrave" unicode="&#xec;" horiz-adv-x="602" 
d="M559 96v-96h-485v96l141 33v745l-141 39v88q177 41 286 48l43 -11v-932zM369 1174h-109l-268 288q52 83 131 113h72z" />
    <glyph glyph-name="iacute" unicode="&#xed;" horiz-adv-x="602" 
d="M559 96v-96h-485v96l141 33v745l-141 39v88q177 41 286 48l43 -11v-932zM383 1575h72q36 -15 69 -46t54 -67l-252 -288h-111z" />
    <glyph glyph-name="icircumflex" unicode="&#xee;" horiz-adv-x="602" 
d="M559 96v-96h-485v96l141 33v745l-141 39v88q177 41 286 48l43 -11v-932zM530 1253l-129 -75l-143 198h-20l-117 -184h-113l223 375h115z" />
    <glyph glyph-name="idieresis" unicode="&#xef;" horiz-adv-x="602" 
d="M559 96v-96h-485v96l141 33v745l-141 39v88q177 41 286 48l43 -11v-932zM111 1470q44 0 63 -8q33 -58 33 -96q0 -54 -41 -113h-141l-27 199q44 18 113 18zM479 1470q45 0 66 -8q33 -58 33 -96q0 -51 -43 -113h-142l-26 199q43 18 112 18z" />
    <glyph glyph-name="eth" unicode="&#xf0;" horiz-adv-x="1146" 
d="M883 1466l-213 -123q110 -82 190.5 -184.5t122 -207t60 -198t18.5 -184.5q0 -171 -60.5 -306t-177 -213.5t-270.5 -78.5q-99 0 -183.5 33.5t-148 98t-99.5 165.5t-36 228q0 235 115 371.5t303 136.5q167 0 289 -113h20q-53 195 -283 375l-196 -113l-90 49l-8 25l194 110
q-122 80 -240 140l43 73q191 -56 330 -137l223 129l91 -49zM571 80q60 0 109.5 23.5t90.5 72.5t64 135t23 201q0 146 -31 262q-133 103 -264 103q-124 0 -194 -95t-70 -293q0 -199 70.5 -304t201.5 -105z" />
    <glyph glyph-name="ntilde" unicode="&#xf1;" horiz-adv-x="1251" 
d="M1227 96v-96h-482v96l132 33v551q0 115 -53.5 172t-153.5 57q-153 0 -267 -137v-666l152 -10v-96h-481v96l141 33v745l-141 39v88q177 41 284 48l43 -11l-10 -149h21q142 166 323 166q147 0 238.5 -88t91.5 -254v-607h2zM881 1485l59 -55q-17 -36 -32 -63t-41 -62
t-60.5 -54.5t-73.5 -19.5q-35 0 -92 29l-154 79l-108 -108l-60 55q17 36 32 63t41.5 62t61 54.5t74.5 19.5q33 0 90 -29l154 -80z" />
    <glyph glyph-name="ograve" unicode="&#xf2;" horiz-adv-x="1153" 
d="M596 1055q94 0 172.5 -27.5t133 -76.5t92 -115.5t55.5 -144t18 -163.5q0 -244 -139 -399.5t-371 -155.5q-116 0 -207.5 42t-148 115t-86 167t-29.5 203q0 246 139 400.5t371 154.5zM578 946q-279 0 -279 -430q0 -434 279 -434q276 0 276 434q0 430 -276 430zM664 1174
h-109l-291 288q52 83 131 113h72z" />
    <glyph glyph-name="oacute" unicode="&#xf3;" horiz-adv-x="1153" 
d="M596 1055q94 0 172.5 -27.5t133 -76.5t92 -115.5t55.5 -144t18 -163.5q0 -244 -139 -399.5t-371 -155.5q-116 0 -207.5 42t-148 115t-86 167t-29.5 203q0 246 139 400.5t371 154.5zM578 946q-279 0 -279 -430q0 -434 279 -434q276 0 276 434q0 430 -276 430zM705 1575h71
q35 -15 69 -46t54 -67l-285 -288h-110z" />
    <glyph glyph-name="ocircumflex" unicode="&#xf4;" horiz-adv-x="1153" 
d="M596 1055q94 0 172.5 -27.5t133 -76.5t92 -115.5t55.5 -144t18 -163.5q0 -244 -139 -399.5t-371 -155.5q-116 0 -207.5 42t-148 115t-86 167t-29.5 203q0 246 139 400.5t371 154.5zM578 946q-279 0 -279 -430q0 -434 279 -434q276 0 276 434q0 430 -276 430zM879 1235
l-131 -76l-185 219h-20l-158 -204h-113l265 393h114z" />
    <glyph glyph-name="otilde" unicode="&#xf5;" horiz-adv-x="1153" 
d="M596 1055q94 0 172.5 -27.5t133 -76.5t92 -115.5t55.5 -144t18 -163.5q0 -244 -139 -399.5t-371 -155.5q-116 0 -207.5 42t-148 115t-86 167t-29.5 203q0 246 139 400.5t371 154.5zM578 946q-279 0 -279 -430q0 -434 279 -434q276 0 276 434q0 430 -276 430zM827 1485
l60 -55q-17 -36 -32 -63t-41 -62t-60.5 -54.5t-73.5 -19.5q-35 0 -92 29l-154 79l-108 -108l-60 55q17 36 32 63t41.5 62t61 54.5t74.5 19.5q33 0 90 -29l154 -80z" />
    <glyph glyph-name="odieresis" unicode="&#xf6;" horiz-adv-x="1153" 
d="M596 1055q94 0 172.5 -27.5t133 -76.5t92 -115.5t55.5 -144t18 -163.5q0 -244 -139 -399.5t-371 -155.5q-116 0 -207.5 42t-148 115t-86 167t-29.5 203q0 246 139 400.5t371 154.5zM578 946q-279 0 -279 -430q0 -434 279 -434q276 0 276 434q0 430 -276 430zM381 1470
q42 0 63 -8q33 -58 33 -96q0 -54 -41 -113h-143l-27 199q44 18 115 18zM791 1470q42 0 63 -8q33 -58 33 -96q0 -54 -41 -113h-144l-26 199q43 18 115 18z" />
    <glyph glyph-name="divide" unicode="&#xf7;" 
d="M651 1122q38 0 62 -6q43 -62 43 -119q0 -62 -39 -120h-178l-37 215q58 30 149 30zM1122 537h-985v131h985v-131zM651 369q38 0 62 -9q43 -62 43 -116q0 -63 -39 -121h-178l-37 213q58 33 149 33z" />
    <glyph glyph-name="oslash" unicode="&#xf8;" horiz-adv-x="1153" 
d="M1024 1147l-119 -201q80 -70 121 -179.5t41 -238.5q0 -244 -139 -399.5t-371 -155.5q-125 0 -217 47l-111 -184l-92 41l-12 23l113 190q-75 72 -113.5 178.5t-38.5 231.5q0 246 139 400.5t371 154.5q118 0 205 -41l117 196l92 -41zM584 946q-150 0 -218.5 -107
t-68.5 -337q0 -166 37 -264l395 671q-58 37 -145 37zM569 82q148 0 217.5 107t69.5 337q0 186 -45 285l-401 -682q58 -47 159 -47z" />
    <glyph glyph-name="ugrave" unicode="&#xf9;" horiz-adv-x="1230" 
d="M1174 119v-88q-152 -38 -287 -47l-41 10l10 149h-20q-77 -94 -156 -132t-168 -38q-147 0 -237.5 89t-90.5 255v557l-139 39v88q176 40 287 48l43 -11l-2 -22v-666q0 -231 205 -231q151 0 266 141v614l-137 39v88q178 41 284 48l41 -11v-882zM670 1174h-109l-291 288
q52 83 131 113h72z" />
    <glyph glyph-name="uacute" unicode="&#xfa;" horiz-adv-x="1230" 
d="M1174 119v-88q-152 -38 -287 -47l-41 10l10 149h-20q-77 -94 -156 -132t-168 -38q-147 0 -237.5 89t-90.5 255v557l-139 39v88q176 40 287 48l43 -11l-2 -22v-666q0 -231 205 -231q151 0 266 141v614l-137 39v88q178 41 284 48l41 -11v-882zM711 1575h71q35 -15 69 -46
t54 -67l-284 -288h-111z" />
    <glyph glyph-name="ucircumflex" unicode="&#xfb;" horiz-adv-x="1230" 
d="M1174 119v-88q-152 -38 -287 -47l-41 10l10 149h-20q-77 -94 -156 -132t-168 -38q-147 0 -237.5 89t-90.5 255v557l-139 39v88q176 40 287 48l43 -11l-2 -22v-666q0 -231 205 -231q151 0 266 141v614l-137 39v88q178 41 284 48l41 -11v-882zM885 1235l-131 -76l-185 219
h-20l-158 -204h-112l264 393h114z" />
    <glyph glyph-name="udieresis" unicode="&#xfc;" horiz-adv-x="1230" 
d="M1174 119v-88q-152 -38 -287 -47l-41 10l10 149h-20q-77 -94 -156 -132t-168 -38q-147 0 -237.5 89t-90.5 255v557l-139 39v88q176 40 287 48l43 -11l-2 -22v-666q0 -231 205 -231q151 0 266 141v614l-137 39v88q178 41 284 48l41 -11v-882zM387 1470q43 0 64 -8
q32 -56 32 -96q0 -54 -41 -113h-143l-27 199q43 18 115 18zM797 1470q42 0 63 -8q33 -58 33 -96q0 -54 -41 -113h-143l-27 199q44 18 115 18z" />
    <glyph glyph-name="yacute" unicode="&#xfd;" horiz-adv-x="1161" 
d="M1147 930l-127 -31q-160 -461 -393 -1003q-68 -162 -159 -247t-200 -85q-98 0 -145 63l16 111h277q78 123 116 235q-184 398 -385 947l-133 10v96h441v-96l-97 -31q101 -308 256 -688h23q155 396 254 709l-156 10v96h412v-96zM731 1575h72q35 -15 69 -46t54 -67
l-285 -288h-111z" />
    <glyph glyph-name="thorn" unicode="&#xfe;" horiz-adv-x="1196" 
d="M698 1055q193 0 297.5 -139t104.5 -361q0 -168 -60 -300t-173.5 -207t-262.5 -75q-122 0 -237 47v-323h2l157 -10v-97h-487v97l139 32v1663l-139 25v88q153 41 287 47l41 -12v-455q0 -58 -13 -186h21q134 166 323 166zM588 82q154 0 230.5 119t76.5 327q0 203 -69.5 292
t-196.5 89q-82 0 -143.5 -34t-118.5 -103v-631q100 -59 221 -59z" />
    <glyph glyph-name="ydieresis" unicode="&#xff;" horiz-adv-x="1161" 
d="M1147 930l-127 -31q-160 -461 -393 -1003q-68 -162 -159 -247t-200 -85q-98 0 -145 63l16 111h277q78 123 116 235q-184 398 -385 947l-133 10v96h441v-96l-97 -31q101 -308 256 -688h23q155 396 254 709l-156 10v96h412v-96zM408 1470q42 0 63 -8q33 -58 33 -96
q0 -54 -41 -113h-144l-26 199q44 18 115 18zM817 1470q43 0 64 -8q32 -56 32 -96q0 -54 -41 -113h-143l-27 199q44 18 115 18z" />
    <glyph glyph-name="Amacron" unicode="&#x100;" horiz-adv-x="1394" 
d="M1370 100v-100h-502v100l146 31l-86 268h-541q-50 -160 -88 -288l145 -11v-100h-419v100l129 31q97 301 222.5 661.5t207.5 567.5l164 29l24 -3q174 -423 465 -1275zM422 512h469q-139 422 -227 655h-23q-72 -200 -219 -655zM375 1706h583q9 -34 9 -72t-9 -73h-583
q-8 31 -8 73q0 41 8 72z" />
    <glyph glyph-name="amacron" unicode="&#x101;" horiz-adv-x="1069" 
d="M1024 115v-84q-89 -47 -180 -47q-71 0 -104 32t-33 97v28h-23q-65 -81 -139.5 -124.5t-177.5 -43.5q-135 0 -208 71.5t-73 186.5q0 71 30.5 126.5t78 88t112.5 53.5t126 28.5t128 7.5q74 0 135 -9l2 197q3 225 -223 225q-57 0 -108 -10l-33 -238h-133q-60 45 -60 111
q0 69 59.5 126.5t148.5 87.5t183 30q158 0 257 -86t98 -240l-6 -602zM430 106q149 0 264 150l2 193h-41q-195 0 -279.5 -47.5t-84.5 -153.5q0 -142 139 -142zM260 1411h539q8 -31 8 -72q0 -38 -8 -69h-539q-8 31 -8 69q0 41 8 72z" />
    <glyph glyph-name="Abreve" unicode="&#x102;" horiz-adv-x="1394" 
d="M1370 100v-100h-502v100l146 31l-86 268h-541q-50 -160 -88 -288l145 -11v-100h-419v100l129 31q97 301 222.5 661.5t207.5 567.5l164 29l24 -3q174 -423 465 -1275zM422 512h469q-139 422 -227 655h-23q-72 -200 -219 -655zM369 1741l133 43q25 -88 72.5 -128t125.5 -40
q81 -1 129 41.5t80 126.5l72 -27q-23 -135 -105.5 -206.5t-213.5 -71.5q-132 0 -205.5 68.5t-87.5 193.5z" />
    <glyph glyph-name="abreve" unicode="&#x103;" horiz-adv-x="1069" 
d="M1024 115v-84q-89 -47 -180 -47q-71 0 -104 32t-33 97v28h-23q-65 -81 -139.5 -124.5t-177.5 -43.5q-135 0 -208 71.5t-73 186.5q0 71 30.5 126.5t78 88t112.5 53.5t126 28.5t128 7.5q74 0 135 -9l2 197q3 225 -223 225q-57 0 -108 -10l-33 -238h-133q-60 45 -60 111
q0 69 59.5 126.5t148.5 87.5t183 30q158 0 257 -86t98 -240l-6 -602zM430 106q149 0 264 150l2 193h-41q-195 0 -279.5 -47.5t-84.5 -153.5q0 -142 139 -142zM244 1497l133 43q15 -105 58.5 -155t121.5 -50q78 -1 121.5 50t66.5 155l72 -27q-15 -154 -93.5 -234.5
t-205.5 -80.5q-129 0 -198.5 77.5t-75.5 221.5z" />
    <glyph glyph-name="Aogonek" unicode="&#x104;" horiz-adv-x="1394" 
d="M1368 0h-346q-80 -99 -80 -190q0 -74 39 -107t102 -33q53 0 115 23l19 -78q-71 -51 -187 -51q-121 0 -186.5 55t-65.5 152q0 183 244 331q-43 139 -94 297h-541q-50 -160 -88 -288l145 -11v-100h-419v100l129 31q97 301 222.5 661.5t207.5 567.5l164 29l24 -3
q174 -423 465 -1275l131 -11v-100zM422 512h469q-139 422 -227 655h-23q-72 -200 -219 -655z" />
    <glyph glyph-name="aogonek" unicode="&#x105;" horiz-adv-x="1069" 
d="M1024 115v-84q-268 -88 -268 -248q0 -58 34.5 -85.5t94.5 -27.5q47 0 114 23l19 -78q-74 -51 -189 -51q-117 0 -176 49.5t-59 136.5q0 74 38.5 132t100.5 95l-26 164h-23q-67 -81 -141.5 -124.5t-175.5 -43.5q-135 0 -208 71.5t-73 186.5q0 71 30.5 126.5t78 88
t112.5 53.5t126 28.5t128 7.5q74 0 135 -9l2 197q5 225 -223 225q-55 0 -106 -10l-35 -238h-133q-60 45 -60 111q0 69 59.5 126.5t148.5 87.5t183 30q158 0 257 -86.5t98 -239.5l-6 -602zM430 106q149 0 264 150l2 193h-41q-195 0 -279.5 -47.5t-84.5 -153.5
q0 -142 139 -142z" />
    <glyph glyph-name="Cacute" unicode="&#x106;" horiz-adv-x="1325" 
d="M1171 256l43 -78q-170 -205 -466 -205q-157 0 -282 55.5t-204 152t-120.5 222.5t-41.5 271q0 154 46.5 284.5t133 226.5t218 150t293.5 54q82 0 161.5 -15t118.5 -29t92 -36q11 -53 11 -113q0 -48 -15 -201h-131l-37 240q-88 33 -190 33q-234 0 -355.5 -145t-121.5 -418
q0 -289 128.5 -437.5t348.5 -148.5q197 0 370 137zM909 1833h72q80 -41 121 -113l-297 -241h-119z" />
    <glyph glyph-name="cacute" unicode="&#x107;" horiz-adv-x="1007" 
d="M891 231l41 -71q-148 -187 -389 -187q-112 0 -201 42t-144 115t-83.5 166.5t-28.5 201.5q0 248 136.5 402.5t352.5 154.5q60 0 116 -13t105.5 -39.5t79 -73.5t29.5 -108q0 -82 -57 -123h-141l-33 242q-41 8 -76 8q-143 0 -224 -105.5t-81 -307.5q0 -204 82 -309t221 -105
q142 0 295 110zM684 1575h72q35 -15 69 -46t54 -67l-285 -288h-111z" />
    <glyph glyph-name="Ccircumflex" unicode="&#x108;" horiz-adv-x="1325" 
d="M1171 256l43 -78q-170 -205 -466 -205q-157 0 -282 55.5t-204 152t-120.5 222.5t-41.5 271q0 154 46.5 284.5t133 226.5t218 150t293.5 54q82 0 161.5 -15t118.5 -29t92 -36q11 -53 11 -113q0 -48 -15 -201h-131l-37 240q-88 33 -190 33q-234 0 -355.5 -145t-121.5 -418
q0 -289 128.5 -437.5t348.5 -148.5q197 0 370 137zM1053 1540l-131 -84l-203 170h-21l-176 -147h-125l295 336h115z" />
    <glyph glyph-name="ccircumflex" unicode="&#x109;" horiz-adv-x="1007" 
d="M891 231l41 -71q-148 -187 -389 -187q-112 0 -201 42t-144 115t-83.5 166.5t-28.5 201.5q0 248 136.5 402.5t352.5 154.5q60 0 116 -13t105.5 -39.5t79 -73.5t29.5 -108q0 -82 -57 -123h-141l-33 242q-41 8 -76 8q-143 0 -224 -105.5t-81 -307.5q0 -204 82 -309t221 -105
q142 0 295 110zM858 1235l-131 -76l-184 219h-21l-157 -204h-113l264 393h115z" />
    <glyph glyph-name="Cdotaccent" unicode="&#x10a;" horiz-adv-x="1325" 
d="M1171 256l43 -78q-170 -205 -466 -205q-157 0 -282 55.5t-204 152t-120.5 222.5t-41.5 271q0 154 46.5 284.5t133 226.5t218 150t293.5 54q82 0 161.5 -15t118.5 -29t92 -36q11 -53 11 -113q0 -48 -15 -201h-131l-37 240q-88 33 -190 33q-234 0 -355.5 -145t-121.5 -418
q0 -289 128.5 -437.5t348.5 -148.5q197 0 370 137zM733 1757q41 0 76 -12q35 -50 35 -105q0 -57 -49 -124h-160l-25 219q50 22 123 22z" />
    <glyph glyph-name="cdotaccent" unicode="&#x10b;" horiz-adv-x="1007" 
d="M891 231l41 -71q-148 -187 -389 -187q-112 0 -201 42t-144 115t-83.5 166.5t-28.5 201.5q0 248 136.5 402.5t352.5 154.5q60 0 116 -13t105.5 -39.5t79 -73.5t29.5 -108q0 -82 -57 -123h-141l-33 242q-41 8 -76 8q-143 0 -224 -105.5t-81 -307.5q0 -204 82 -309t221 -105
q142 0 295 110zM569 1489q43 0 68 -10q35 -53 35 -103q0 -58 -47 -123h-158l-27 217q64 19 129 19z" />
    <glyph glyph-name="Ccaron" unicode="&#x10c;" horiz-adv-x="1325" 
d="M1171 256l43 -78q-170 -205 -466 -205q-157 0 -282 55.5t-204 152t-120.5 222.5t-41.5 271q0 154 46.5 284.5t133 226.5t218 150t293.5 54q82 0 161.5 -15t118.5 -29t92 -36q11 -53 11 -113q0 -48 -15 -201h-131l-37 240q-88 33 -190 33q-234 0 -355.5 -145t-121.5 -418
q0 -289 128.5 -437.5t348.5 -148.5q197 0 370 137zM731 1667h21l178 148h123l-295 -336h-115l-246 274l131 84z" />
    <glyph glyph-name="ccaron" unicode="&#x10d;" horiz-adv-x="1007" 
d="M891 231l41 -71q-148 -187 -389 -187q-112 0 -201 42t-144 115t-83.5 166.5t-28.5 201.5q0 248 136.5 402.5t352.5 154.5q60 0 116 -13t105.5 -39.5t79 -73.5t29.5 -108q0 -82 -57 -123h-141l-33 242q-41 8 -76 8q-143 0 -224 -105.5t-81 -307.5q0 -204 82 -309t221 -105
q142 0 295 110zM567 1364h21l160 205h112l-264 -393h-117l-225 331l131 74z" />
    <glyph glyph-name="Dcaron" unicode="&#x10e;" horiz-adv-x="1429" 
d="M584 1374q159 0 285 -32.5t211.5 -90.5t142 -142t81.5 -183.5t25 -218.5q0 -159 -41.5 -286.5t-125.5 -222.5t-221 -146.5t-320 -51.5h-527v100l162 33v1118l-162 11v100q308 12 490 12zM461 115h162q252 0 367.5 145t115.5 442q0 273 -110 415.5t-357 142.5h-178v-1145z
M702 1667h21l178 148h123l-295 -336h-115l-245 274l131 84z" />
    <glyph glyph-name="dcaron" unicode="&#x10f;" horiz-adv-x="1409" 
d="M1018 1530v-1376l141 -37v-86q-152 -38 -287 -47l-41 10l11 145h-21q-129 -166 -323 -166q-193 0 -297.5 139t-104.5 361q0 259 136.5 420.5t357.5 161.5q124 0 239 -45v372l-139 25v88q153 41 287 47zM604 946q-150 0 -226.5 -119.5t-76.5 -326.5q0 -381 266 -381
q85 0 145.5 34.5t116.5 102.5v629q-96 61 -225 61zM1274 1542q66 0 121 -31q-3 -124 -39.5 -225.5t-112.5 -202.5h-90l47 256v195q24 8 74 8z" />
    <glyph glyph-name="Dcroat" unicode="&#x110;" horiz-adv-x="1454" 
d="M608 1374q159 0 285 -32.5t211.5 -90.5t142 -142t82 -183.5t25.5 -218.5q0 -159 -41.5 -286.5t-126 -222.5t-222 -146.5t-319.5 -51.5h-526v100l160 33v514h-160v115h160v489l-160 11v100q308 12 489 12zM483 115h164q254 0 368.5 145t114.5 442q0 273 -109.5 415.5
t-356.5 142.5h-181v-498h281v-115h-281v-532z" />
    <glyph glyph-name="dcroat" unicode="&#x111;" horiz-adv-x="1216" 
d="M1018 1255v-1101l141 -37v-86q-152 -38 -287 -47l-41 10l11 145h-21q-129 -166 -323 -166q-193 0 -297.5 139t-104.5 361q0 259 136.5 420.5t357.5 161.5q123 0 239 -45v245h-292v109h292v149q60 17 148 31l41 -8v-172h172v-109h-172zM829 256v629q-94 61 -225 61
q-150 0 -226.5 -119.5t-76.5 -326.5q0 -381 266 -381q85 0 145.5 34.5t116.5 102.5z" />
    <glyph glyph-name="Emacron" unicode="&#x112;" horiz-adv-x="1247" 
d="M1004 319l129 -12q4 -54 4 -92q0 -90 -27 -215h-1016v100l162 33v1118l-162 11v100h1018q10 -52 10 -135q0 -97 -12 -170h-127l-29 178l-493 16v-493l276 2l21 125h98v-379h-98l-25 137l-272 2v-534l489 16zM324 1706h583q8 -31 8 -72q0 -42 -8 -73h-583q-9 34 -9 73
q0 38 9 72z" />
    <glyph glyph-name="emacron" unicode="&#x113;" horiz-adv-x="1050" 
d="M911 233l41 -71q-148 -189 -397 -189q-118 0 -209.5 42t-147 115.5t-84 166.5t-28.5 201q0 249 138.5 403t361.5 154q180 0 271 -102.5t91 -270.5q0 -81 -18 -158h-639q3 -195 87.5 -299t225.5 -104q149 0 307 112zM563 946q-106 0 -180 -85.5t-88 -244.5l461 19v4
q0 307 -193 307zM285 1411h538q8 -31 8 -72q0 -38 -8 -69h-538q-9 34 -9 69q0 37 9 72z" />
    <glyph glyph-name="Ebreve" unicode="&#x114;" horiz-adv-x="1247" 
d="M1004 319l129 -12q4 -54 4 -92q0 -90 -27 -215h-1016v100l162 33v1118l-162 11v100h1018q10 -52 10 -135q0 -97 -12 -170h-127l-29 178l-493 16v-493l276 2l21 125h98v-379h-98l-25 137l-272 2v-534l489 16zM317 1741l134 43q25 -88 72.5 -128t125.5 -40q81 -1 129 41.5
t80 126.5l72 -27q-23 -135 -106 -206.5t-214 -71.5q-132 0 -205.5 68.5t-87.5 193.5z" />
    <glyph glyph-name="ebreve" unicode="&#x115;" horiz-adv-x="1050" 
d="M911 233l41 -71q-148 -189 -397 -189q-118 0 -209.5 42t-147 115.5t-84 166.5t-28.5 201q0 249 138.5 403t361.5 154q180 0 271 -102.5t91 -270.5q0 -81 -18 -158h-639q3 -195 87.5 -299t225.5 -104q149 0 307 112zM563 946q-106 0 -180 -85.5t-88 -244.5l461 19v4
q0 307 -193 307zM268 1497l133 43q15 -105 59 -155t122 -50q78 -1 121.5 50t66.5 155l72 -27q-15 -154 -93.5 -234.5t-205.5 -80.5q-129 0 -199 77.5t-76 221.5z" />
    <glyph glyph-name="Edotaccent" unicode="&#x116;" horiz-adv-x="1247" 
d="M1004 319l129 -12q4 -54 4 -92q0 -90 -27 -215h-1016v100l162 33v1118l-162 11v100h1018q10 -52 10 -135q0 -97 -12 -170h-127l-29 178l-493 16v-493l276 2l21 125h98v-379h-98l-25 137l-272 2v-534l489 16zM625 1757q41 0 75 -12q35 -50 35 -105q0 -57 -49 -124h-160
l-24 219q50 22 123 22z" />
    <glyph glyph-name="edotaccent" unicode="&#x117;" horiz-adv-x="1050" 
d="M911 233l41 -71q-148 -189 -397 -189q-118 0 -209.5 42t-147 115.5t-84 166.5t-28.5 201q0 249 138.5 403t361.5 154q180 0 271 -102.5t91 -270.5q0 -81 -18 -158h-639q3 -195 87.5 -299t225.5 -104q149 0 307 112zM563 946q-106 0 -180 -85.5t-88 -244.5l461 19v4
q0 307 -193 307zM569 1489q43 0 68 -10q35 -53 35 -103q0 -58 -47 -123h-158l-27 217q64 19 129 19z" />
    <glyph glyph-name="Eogonek" unicode="&#x118;" horiz-adv-x="1247" 
d="M993 -330q48 0 115 23l18 -78q-74 -51 -184 -51q-118 0 -179 51.5t-61 138.5q0 138 160 226v20h-768v100l162 33v1118l-162 11v100h1018q10 -52 10 -135q0 -97 -12 -170h-127l-29 178l-493 16v-493l276 2l21 125h98v-379h-98l-25 137l-272 2v-534l489 16l54 192l129 -12
q4 -54 4 -92q0 -90 -27 -215h-129q-117 -114 -117 -209q0 -59 35.5 -90t93.5 -31z" />
    <glyph glyph-name="eogonek" unicode="&#x119;" horiz-adv-x="1050" 
d="M860 74q-107 -94 -150.5 -152t-43.5 -125q0 -63 34 -95t93 -32q49 0 116 23l19 -78q-74 -51 -187 -51q-116 0 -176.5 48.5t-60.5 127.5q0 70 42 132t107 103l-4 13q-54 -15 -106 -15q-111 0 -199.5 42.5t-144 115.5t-84.5 167t-29 202q0 246 139 400.5t361 154.5
q180 0 271 -102.5t91 -270.5q0 -81 -18 -158h-639q3 -195 87.5 -299t225.5 -104q149 0 307 112l41 -73q-27 -29 -92 -86zM563 946q-106 0 -180 -85.5t-88 -244.5l461 19v4q0 307 -193 307z" />
    <glyph glyph-name="Ecaron" unicode="&#x11a;" horiz-adv-x="1247" 
d="M1004 319l129 -12q4 -54 4 -92q0 -90 -27 -215h-1016v100l162 33v1118l-162 11v100h1018q10 -52 10 -135q0 -97 -12 -170h-127l-29 178l-493 16v-493l276 2l21 125h98v-379h-98l-25 137l-272 2v-534l489 16zM623 1667h20l178 148h123l-295 -336h-114l-246 274l131 84z
" />
    <glyph glyph-name="ecaron" unicode="&#x11b;" horiz-adv-x="1050" 
d="M911 233l41 -71q-148 -189 -397 -189q-118 0 -209.5 42t-147 115.5t-84 166.5t-28.5 201q0 249 138.5 403t361.5 154q180 0 271 -102.5t91 -270.5q0 -81 -18 -158h-639q3 -195 87.5 -299t225.5 -104q149 0 307 112zM563 946q-106 0 -180 -85.5t-88 -244.5l461 19v4
q0 307 -193 307zM567 1364h21l160 205h112l-264 -393h-117l-225 331l131 74z" />
    <glyph glyph-name="Gcircumflex" unicode="&#x11c;" horiz-adv-x="1392" 
d="M1200 463v-408l2 -2q-90 -37 -208 -58.5t-222 -21.5q-132 0 -242.5 36t-189 99.5t-133.5 151.5t-81 191.5t-26 218.5q0 156 49 288.5t139 228t224 149t297 53.5q189 0 375 -80q10 -48 10 -111q0 -86 -14 -182h-131l-33 213q-83 39 -201 39q-236 0 -363.5 -148
t-127.5 -436q0 -287 123.5 -438.5t338.5 -151.5q131 0 242 51l-29 340l-196 11v100h500v-100zM1053 1540l-131 -84l-203 170h-21l-176 -147h-125l295 336h115z" />
    <glyph glyph-name="gcircumflex" unicode="&#x11d;" horiz-adv-x="1097" 
d="M920 1012l-68 -76q84 -93 84 -229q0 -163 -120 -265t-316 -102q-52 0 -107 10v-145l291 -37q193 -26 274.5 -83.5t81.5 -160.5q0 -162 -165 -261t-433 -99q-193 0 -295 60.5t-102 195.5q0 102 58.5 170t154.5 82q-3 111 35 309q-94 43 -142.5 123t-48.5 180
q0 163 120.5 267t316.5 104q155 0 258 -70q9 42 20 74.5t29.5 65t47.5 50t67 17.5q60 0 104 -47l-18 -133h-127zM520 444q107 0 162 65t55 187t-55 187t-162 65q-109 0 -164 -65t-55 -187t55 -187t164 -65zM586 2l-283 39q-61 -77 -61 -180q0 -191 266 -191q89 0 171 20
t141 65t59 106q0 33 -20.5 56t-86.5 45t-186 40zM805 1235l-131 -76l-185 219h-20l-158 -204h-112l264 393h115z" />
    <glyph glyph-name="Gbreve" unicode="&#x11e;" horiz-adv-x="1392" 
d="M1200 463v-408l2 -2q-90 -37 -208 -58.5t-222 -21.5q-132 0 -242.5 36t-189 99.5t-133.5 151.5t-81 191.5t-26 218.5q0 156 49 288.5t139 228t224 149t297 53.5q189 0 375 -80q10 -48 10 -111q0 -86 -14 -182h-131l-33 213q-83 39 -201 39q-236 0 -363.5 -148
t-127.5 -436q0 -287 123.5 -438.5t338.5 -151.5q131 0 242 51l-29 340l-196 11v100h500v-100zM426 1741l133 43q25 -87 73 -127.5t126 -40.5q81 -1 129 41.5t80 126.5l71 -27q-23 -135 -105.5 -206.5t-213.5 -71.5q-132 0 -205.5 68.5t-87.5 193.5z" />
    <glyph glyph-name="gbreve" unicode="&#x11f;" horiz-adv-x="1097" 
d="M920 1012l-68 -76q84 -93 84 -229q0 -163 -120 -265t-316 -102q-52 0 -107 10v-145l291 -37q193 -26 274.5 -83.5t81.5 -160.5q0 -162 -165 -261t-433 -99q-193 0 -295 60.5t-102 195.5q0 102 58.5 170t154.5 82q-3 111 35 309q-94 43 -142.5 123t-48.5 180
q0 163 120.5 267t316.5 104q155 0 258 -70q9 42 20 74.5t29.5 65t47.5 50t67 17.5q60 0 104 -47l-18 -133h-127zM520 444q107 0 162 65t55 187t-55 187t-162 65q-109 0 -164 -65t-55 -187t55 -187t164 -65zM586 2l-283 39q-61 -77 -61 -180q0 -191 266 -191q89 0 171 20
t141 65t59 106q0 33 -20.5 56t-86.5 45t-186 40zM215 1497l133 43q15 -105 58.5 -155t121.5 -50q78 -1 122 50t67 155l71 -27q-15 -154 -93.5 -234.5t-205.5 -80.5q-129 0 -198.5 77.5t-75.5 221.5z" />
    <glyph glyph-name="Gdotaccent" unicode="&#x120;" horiz-adv-x="1392" 
d="M1200 463v-408l2 -2q-90 -37 -208 -58.5t-222 -21.5q-132 0 -242.5 36t-189 99.5t-133.5 151.5t-81 191.5t-26 218.5q0 156 49 288.5t139 228t224 149t297 53.5q189 0 375 -80q10 -48 10 -111q0 -86 -14 -182h-131l-33 213q-83 39 -201 39q-236 0 -363.5 -148
t-127.5 -436q0 -287 123.5 -438.5t338.5 -151.5q131 0 242 51l-29 340l-196 11v100h500v-100zM733 1757q41 0 76 -12q35 -50 35 -105q0 -57 -49 -124h-160l-25 219q50 22 123 22z" />
    <glyph glyph-name="gdotaccent" unicode="&#x121;" horiz-adv-x="1097" 
d="M920 1012l-68 -76q84 -93 84 -229q0 -163 -120 -265t-316 -102q-52 0 -107 10v-145l291 -37q193 -26 274.5 -83.5t81.5 -160.5q0 -162 -165 -261t-433 -99q-193 0 -295 60.5t-102 195.5q0 102 58.5 170t154.5 82q-3 111 35 309q-94 43 -142.5 123t-48.5 180
q0 163 120.5 267t316.5 104q155 0 258 -70q9 42 20 74.5t29.5 65t47.5 50t67 17.5q60 0 104 -47l-18 -133h-127zM520 444q107 0 162 65t55 187t-55 187t-162 65q-109 0 -164 -65t-55 -187t55 -187t164 -65zM586 2l-283 39q-61 -77 -61 -180q0 -191 266 -191q89 0 171 20
t141 65t59 106q0 33 -20.5 56t-86.5 45t-186 40zM516 1489q43 0 68 -10q34 -52 34 -103q0 -58 -47 -123h-157l-27 217q64 19 129 19z" />
    <glyph glyph-name="Gcommaaccent" unicode="&#x122;" horiz-adv-x="1392" 
d="M1200 463v-408l2 -2q-90 -37 -208 -58.5t-222 -21.5q-132 0 -242.5 36t-189 99.5t-133.5 151.5t-81 191.5t-26 218.5q0 156 49 288.5t139 228t224 149t297 53.5q189 0 375 -80q10 -48 10 -111q0 -86 -14 -182h-131l-33 213q-83 39 -201 39q-236 0 -363.5 -148
t-127.5 -436q0 -287 123.5 -438.5t338.5 -151.5q131 0 242 51l-29 340l-196 11v100h500v-100zM723 -106q49 0 84 -17q37 -61 37 -127q0 -85 -50.5 -153.5t-142.5 -98.5l-33 56q51 35 78 66t27 71q0 16 -2 28l-86 15l-2 145q51 15 90 15z" />
    <glyph glyph-name="gcommaaccent" unicode="&#x123;" horiz-adv-x="1097" 
d="M920 1012l-68 -76q84 -93 84 -229q0 -163 -120 -265t-316 -102q-52 0 -107 10v-145l291 -37q193 -26 274.5 -83.5t81.5 -160.5q0 -162 -165 -261t-433 -99q-193 0 -295 60.5t-102 195.5q0 102 58.5 170t154.5 82q-3 111 35 309q-94 43 -142.5 123t-48.5 180
q0 163 120.5 267t316.5 104q155 0 258 -70q9 42 20 74.5t29.5 65t47.5 50t67 17.5q60 0 104 -47l-18 -133h-127zM520 444q107 0 162 65t55 187t-55 187t-162 65q-109 0 -164 -65t-55 -187t55 -187t164 -65zM586 2l-283 39q-61 -77 -61 -180q0 -191 266 -191q89 0 171 20
t141 65t59 106q0 33 -20.5 56t-86.5 45t-186 40zM584 1579l34 -53q-39 -26 -58 -41t-36.5 -41t-17.5 -55q0 -17 4 -31l86 -12l2 -146q-47 -14 -92 -14q-49 0 -82 16q-37 61 -37 127q0 86 51.5 153.5t145.5 96.5z" />
    <glyph glyph-name="Hcircumflex" unicode="&#x124;" horiz-adv-x="1568" 
d="M1313 1231v-1120l160 -11v-100h-525v100l160 33v514h-647v-536l174 -11v-100h-541v100l162 33v1118l-162 11v100h541v-100l-174 -31v-467h647v487l-176 11v100h543v-100zM1116 1540l-131 -84l-203 170h-20l-176 -147h-125l295 336h114z" />
    <glyph glyph-name="hcircumflex" unicode="&#x125;" horiz-adv-x="1230" 
d="M926 1602l-129 -84l-187 155h-20l-139 -133h-111l244 293h114zM387 1448v-373q0 -30 -2 -61.5t-5.5 -69t-4.5 -55.5h20q142 166 324 166q147 0 237.5 -88t90.5 -254v-607l159 -10v-96h-481v96l133 33v551q0 229 -205 229q-152 0 -266 -137v-666l152 -10v-96h-482v96
l142 33v1171l-142 25v88q157 41 287 47z" />
    <glyph glyph-name="Hbar" unicode="&#x126;" horiz-adv-x="1591" 
d="M1325 918v-805l162 -13v-100h-541v100l174 33v445h-647v-465l174 -13v-100h-541v100l162 33v785h-221v108h221v225l-162 11v100h541v-100l-174 -31v-205h647v225l-176 11v100h543v-100l-162 -31v-205h219v-108h-219zM1120 918h-647v-224h647v224z" />
    <glyph glyph-name="hbar" unicode="&#x127;" horiz-adv-x="1230" 
d="M1206 96v-96h-481v96l133 33v551q0 229 -205 229q-152 0 -266 -137v-666l152 -10v-96h-482v96l142 33v1126h-170v109h170v145q77 22 147 33l41 -8v-170h322v-109h-322v-180q0 -29 -2 -60.5t-5.5 -69.5t-4.5 -56h20q142 166 324 166q147 0 237.5 -88t90.5 -254v-607z" />
    <glyph glyph-name="Itilde" unicode="&#x128;" horiz-adv-x="714" 
d="M461 1231v-1120l160 -11v-100h-527v100l162 33v1118l-162 11v100h527v-100zM625 1761l57 -55q-16 -34 -24 -49.5t-28.5 -47.5t-38.5 -47.5t-47.5 -29.5t-62.5 -14q-47 0 -100 26l-178 84l-107 -106l-59 55q19 40 31.5 62.5t38.5 57t59 51.5t74 17q45 0 98 -26l178 -86z
" />
    <glyph glyph-name="itilde" unicode="&#x129;" horiz-adv-x="602" 
d="M559 96v-96h-485v96l141 33v745l-141 39v88q177 41 286 48l43 -11v-932zM510 1483l57 -53q-16 -37 -30 -63.5t-39 -61.5t-57.5 -54.5t-69.5 -19.5q-36 0 -86 33l-117 77l-100 -108l-58 53q13 28 22.5 48t29.5 51.5t39 50.5t47.5 34t58.5 15q36 0 86 -33l117 -78z" />
    <glyph glyph-name="Imacron" unicode="&#x12a;" horiz-adv-x="714" 
d="M461 1231v-1120l160 -11v-100h-527v100l162 33v1118l-162 11v100h527v-100zM66 1706h583q8 -31 8 -72q0 -42 -8 -73h-583q-9 35 -9 73t9 72z" />
    <glyph glyph-name="imacron" unicode="&#x12b;" horiz-adv-x="602" 
d="M559 96v-96h-485v96l141 33v745l-141 39v88q177 41 286 48l43 -11v-932zM55 1411h463q8 -31 8 -72q0 -38 -8 -69h-463q-8 31 -8 69q0 41 8 72z" />
    <glyph glyph-name="Ibreve" unicode="&#x12c;" horiz-adv-x="714" 
d="M461 1231v-1120l160 -11v-100h-527v100l162 33v1118l-162 11v100h527v-100zM59 1741l134 43q25 -88 72.5 -128t125.5 -40q81 -1 129 41.5t80 126.5l72 -27q-23 -135 -106 -206.5t-214 -71.5q-132 0 -205.5 68.5t-87.5 193.5z" />
    <glyph glyph-name="ibreve" unicode="&#x12d;" horiz-adv-x="602" 
d="M559 96v-96h-485v96l141 33v745l-141 39v88q177 41 286 48l43 -11v-932zM475 1538l72 -27q-17 -155 -88 -234t-187 -79q-114 0 -177.5 77t-71.5 220l133 45q15 -107 51.5 -156t101.5 -49q69 0 107 49.5t59 153.5z" />
    <glyph glyph-name="Iogonek" unicode="&#x12e;" horiz-adv-x="714" 
d="M461 1231v-1120l160 -13v-98q-130 -39 -202.5 -98t-72.5 -129q0 -49 35.5 -76t93.5 -27q48 0 115 23l18 -78q-74 -51 -186 -51q-115 0 -176.5 48t-61.5 124q0 75 56 139.5t141 104.5v20h-287v100l162 31v1120l-162 11v100h527v-100z" />
    <glyph glyph-name="iogonek" unicode="&#x12f;" horiz-adv-x="602" 
d="M205 1253l-27 217q64 19 129 19q43 0 68 -10q35 -53 35 -103q0 -56 -48 -123h-157zM559 96v-96q-128 -37 -201 -93t-73 -128q0 -51 35 -80t94 -29q47 0 114 23l17 -78q-71 -51 -183 -51q-117 0 -178 53.5t-61 132.5q0 143 194 230v20h-243v96l141 33v745l-141 39v88
q177 41 286 48l43 -11v-932z" />
    <glyph glyph-name="Idotaccent" unicode="&#x130;" horiz-adv-x="714" 
d="M461 1231v-1120l160 -11v-100h-527v100l162 33v1118l-162 11v100h527v-100zM381 1751q43 0 68 -10q34 -52 34 -103q0 -57 -47 -122h-157l-27 217q61 18 129 18z" />
    <glyph glyph-name="dotlessi" unicode="&#x131;" horiz-adv-x="602" 
d="M559 96v-96h-485v96l141 33v745l-141 39v88q177 41 286 48l43 -11v-932z" />
    <glyph glyph-name="IJ" unicode="&#x132;" horiz-adv-x="1683" 
d="M1626 1362v-100l-162 -31v-856q0 -111 -31.5 -191.5t-87 -125t-121 -65t-143.5 -20.5q-155 0 -239 71t-84 165q0 71 55 123h139l35 -230q48 -10 82 -10q92 0 141.5 56.5t49.5 191.5v911l-232 11v100h598zM461 1231v-1120l160 -11v-100h-527v100l162 33v1118l-162 11v100
h527v-100z" />
    <glyph glyph-name="ij" unicode="&#x133;" horiz-adv-x="1169" 
d="M559 96v-96h-485v96l141 33v745l-141 39v88q177 41 286 48l43 -11v-932zM989 1038v-1052q0 -159 -58.5 -252.5t-201.5 -169.5l-59 63l131 191v1056l-142 39v88q177 41 287 48zM897 1491q43 0 68 -10q34 -52 34 -103q0 -58 -47 -123h-157l-27 218q61 18 129 18zM309 1491
q43 0 68 -10q35 -53 35 -103q0 -58 -47 -123h-158l-27 218q61 18 129 18z" />
    <glyph glyph-name="Jcircumflex" unicode="&#x134;" horiz-adv-x="968" 
d="M911 1362v-100l-161 -31v-856q0 -111 -31.5 -191.5t-87 -125t-121 -65t-143.5 -20.5q-155 0 -239.5 71t-84.5 165q0 71 55 123h140l34 -230q48 -10 82 -10q92 0 141.5 56.5t49.5 191.5v911l-232 11v100h598zM932 1540l-131 -84l-203 170h-20l-177 -147h-125l295 336h115z
" />
    <glyph glyph-name="jcircumflex" unicode="&#x135;" horiz-adv-x="567" 
d="M387 1038v-1052q0 -159 -58.5 -252.5t-201.5 -169.5l-59 63l131 191v1056l-142 39v88q177 41 287 48zM516 1253l-129 -75l-143 198h-21l-117 -184h-112l223 375h115z" />
    <glyph glyph-name="Kcommaaccent" unicode="&#x136;" horiz-adv-x="1392" 
d="M1348 86l-11 -76q-68 -26 -133 -26q-52 0 -91.5 11t-72 36.5t-56.5 53.5t-56 75q-38 59 -83.5 137t-106 188t-87.5 158h-190v-532l172 -11v-100h-539v100l162 33v1118l-162 11v100h520v-100l-153 -31v-471h209q178 243 340 489l-174 13v100h475v-100l-129 -25
q-186 -244 -387 -477q61 -83 123 -175.5t160 -245t128 -198.5zM700 -106q49 0 84 -17q37 -61 37 -127q0 -85 -50 -153.5t-142 -98.5l-33 56q51 35 77.5 66t26.5 71q0 16 -2 28l-86 15l-2 145q51 15 90 15z" />
    <glyph glyph-name="kcommaaccent" unicode="&#x137;" horiz-adv-x="1148" 
d="M1130 72l-8 -66q-56 -22 -125 -22q-79 0 -129 30.5t-96 106.5q-7 11 -37.5 63.5t-78 131.5t-101.5 169h-168v-379l135 -10v-96h-465v96l142 33v1255l-140 25v88q144 38 287 45l41 -12v-936h148q81 90 272 326l-145 10v96h421v-96l-127 -31q-149 -162 -284 -289
q56 -75 115.5 -161t128 -187t100.5 -147zM606 -106q49 0 84 -17q37 -61 37 -127q0 -85 -50 -153.5t-142 -98.5l-33 56q51 35 77.5 66t26.5 71q0 16 -2 28l-86 15l-2 145q51 15 90 15z" />
    <glyph glyph-name="kgreenlandic" unicode="&#x138;" horiz-adv-x="1163" 
d="M1145 72l-8 -66q-56 -22 -125 -22q-79 0 -129.5 31t-96.5 106q-20 28 -219 364h-164v-379l136 -10v-96h-465v96l141 33v745l-141 39v88q171 43 286 48l43 -13v-442h148q81 90 272 326l-145 10v96h422v-96l-127 -31q-124 -137 -287 -291q44 -58 97 -133t80 -114t93 -137
t74 -109z" />
    <glyph glyph-name="Lacute" unicode="&#x139;" horiz-adv-x="1130" 
d="M940 340l125 -12q6 -50 6 -117q0 -112 -27 -211h-950v100l162 33v1118l-162 11v100h555v-100l-188 -31v-1120l422 14zM547 1833h71q80 -41 121 -113l-297 -241h-118z" />
    <glyph glyph-name="lacute" unicode="&#x13a;" horiz-adv-x="585" 
d="M385 1540h-119l133 293h66q83 -40 121 -113zM387 106l156 -10v-96h-486v96l142 33v1174l-140 24v88q144 38 287 45l41 -12v-1342z" />
    <glyph glyph-name="Lcommaaccent" unicode="&#x13b;" horiz-adv-x="1130" 
d="M940 340l125 -12q6 -50 6 -117q0 -112 -27 -211h-950v100l162 33v1118l-162 11v100h555v-100l-188 -31v-1120l422 14zM551 -106q49 0 84 -17q37 -61 37 -127q0 -85 -50.5 -153.5t-142.5 -98.5l-33 56q51 35 78 66t27 71q0 16 -2 28l-86 15l-2 145q51 15 90 15z" />
    <glyph glyph-name="lcommaaccent" unicode="&#x13c;" horiz-adv-x="585" 
d="M543 96v-96h-486v96l142 33v1255l-140 25v88q144 38 287 45l41 -12v-1424zM281 -106q49 0 84 -17q36 -59 36 -127q0 -85 -50 -153.5t-142 -98.5l-33 56q51 35 78 66t27 71q0 16 -2 28l-86 15l-3 145q51 15 91 15z" />
    <glyph glyph-name="Lcaron" unicode="&#x13d;" horiz-adv-x="1130" 
d="M940 340l125 -12q6 -50 6 -117q0 -112 -27 -211h-950v100l162 33v1118l-162 11v100h555v-100l-188 -31v-1120l422 14zM928 1386q67 0 121 -30q-3 -124 -39.5 -225.5t-112.5 -202.5h-90l47 256v194q24 8 74 8z" />
    <glyph glyph-name="lcaron" unicode="&#x13e;" horiz-adv-x="786" 
d="M543 96v-96h-486v96l142 33v1255l-140 25v88q144 38 287 45l41 -12v-1424zM651 1542q66 0 121 -31q-3 -125 -39 -226t-112 -202h-91l48 256v195q24 8 73 8z" />
    <glyph glyph-name="Ldot" unicode="&#x13f;" horiz-adv-x="1112" 
d="M918 889q37 0 75 -10q35 -53 35 -105q0 -61 -49 -125h-158l-22 219q44 21 119 21zM940 340l125 -12q6 -50 6 -117q0 -112 -27 -211h-950v100l162 33v1118l-162 11v100h555v-100l-188 -31v-1120l422 14z" />
    <glyph glyph-name="ldot" unicode="&#x140;" horiz-adv-x="663" 
d="M625 846q37 0 75 -10q35 -50 35 -105q0 -58 -49 -125h-156l-22 219q44 21 117 21zM543 96v-96h-486v96l142 33v1255l-140 25v88q144 38 287 45l41 -12v-1424z" />
    <glyph glyph-name="Lslash" unicode="&#x141;" horiz-adv-x="1132" 
d="M942 340l125 -12q6 -50 6 -117q0 -116 -26 -211h-951v100l160 33v442l-182 -73l-15 22v90l197 80v557l-162 11v100h557v-100l-190 -31v-465l424 174l12 -22v-93l-436 -180v-534l424 14z" />
    <glyph glyph-name="lslash" unicode="&#x142;" horiz-adv-x="665" 
d="M426 702v-596h2l156 -10v-96h-486v96l140 33v487l-152 -79l-14 20v92l166 86v649l-140 25v88q144 38 287 45l41 -12v-707l162 86l14 -22v-90z" />
    <glyph glyph-name="Nacute" unicode="&#x143;" horiz-adv-x="1552" 
d="M1477 1262l-160 -31v-1229l-158 -29l-29 2l-569 949q-75 124 -155 295h-19l14 -1108l187 -11v-100h-494v100l162 33v1116l-162 13v100h445l452 -758q96 -158 178 -321h21l-16 968l-191 11v100h494v-100zM963 1833h71q80 -41 121 -113l-297 -241h-119z" />
    <glyph glyph-name="nacute" unicode="&#x144;" horiz-adv-x="1251" 
d="M1227 96v-96h-482v96l132 33v551q0 115 -53.5 172t-153.5 57q-153 0 -267 -137v-666l152 -10v-96h-481v96l141 33v745l-141 39v88q177 41 284 48l43 -11l-10 -149h21q142 166 323 166q147 0 238.5 -88t91.5 -254v-607h2zM758 1575h71q35 -15 69 -46t54 -67l-284 -288
h-111z" />
    <glyph glyph-name="Ncommaaccent" unicode="&#x145;" horiz-adv-x="1552" 
d="M1477 1262l-160 -31v-1229l-158 -29l-29 2l-569 949q-75 124 -155 295h-19l14 -1108l187 -11v-100h-494v100l162 33v1116l-162 13v100h445l452 -758q96 -158 178 -321h21l-16 968l-191 11v100h494v-100zM766 -106q49 0 84 -17q37 -61 37 -127q0 -85 -50.5 -153.5
t-142.5 -98.5l-32 56q51 35 77.5 66t26.5 71q0 16 -2 28l-86 15l-2 145q51 15 90 15z" />
    <glyph glyph-name="ncommaaccent" unicode="&#x146;" horiz-adv-x="1251" 
d="M1227 96v-96h-482v96l132 33v551q0 115 -53.5 172t-153.5 57q-153 0 -267 -137v-666l152 -10v-96h-481v96l141 33v745l-141 39v88q177 41 284 48l43 -11l-10 -149h21q142 166 323 166q147 0 238.5 -88t91.5 -254v-607h2zM616 -106q49 0 84 -17q37 -61 37 -127
q0 -85 -50 -153.5t-142 -98.5l-33 56q51 35 77.5 66t26.5 71q0 16 -2 28l-86 15l-2 145q51 15 90 15z" />
    <glyph glyph-name="Ncaron" unicode="&#x147;" horiz-adv-x="1552" 
d="M1477 1262l-160 -31v-1229l-158 -29l-29 2l-569 949q-75 124 -155 295h-19l14 -1108l187 -11v-100h-494v100l162 33v1116l-162 13v100h445l452 -758q96 -158 178 -321h21l-16 968l-191 11v100h494v-100zM801 1667h20l178 148h123l-295 -336h-114l-246 274l131 84z" />
    <glyph glyph-name="ncaron" unicode="&#x148;" horiz-adv-x="1251" 
d="M1227 96v-96h-482v96l132 33v551q0 115 -53.5 172t-153.5 57q-153 0 -267 -137v-666l152 -10v-96h-481v96l141 33v745l-141 39v88q177 41 284 48l43 -11l-10 -149h21q142 166 323 166q147 0 238.5 -88t91.5 -254v-607h2zM641 1364h21l159 205h113l-264 -393h-117
l-225 331l131 74z" />
    <glyph glyph-name="napostrophe" unicode="&#x149;" horiz-adv-x="1251" 
d="M33 1542q61 0 98 -18q43 -74 43 -154q0 -113 -62.5 -193t-170.5 -106l-23 62q50 25 84.5 69.5t34.5 102.5q0 20 -4 36l-96 17l-5 172q49 12 101 12zM1227 96v-96h-482v96l132 33v551q0 115 -53.5 172t-153.5 57q-153 0 -267 -137v-666l152 -10v-96h-481v96l141 33v745
l-141 39v88q177 41 284 48l43 -11l-10 -149h21q142 166 323 166q147 0 238.5 -88t91.5 -254v-607h2z" />
    <glyph glyph-name="Eng" unicode="&#x14a;" horiz-adv-x="1552" 
d="M1477 1262l-160 -31v-1208q0 -112 -30 -201.5t-80.5 -144.5t-112 -84t-129.5 -29q-103 0 -150 63l16 111h267q36 37 51.5 76t19.5 114l-606 996q-75 120 -157 295h-19l14 -1108l185 -11v-100h-492v100l162 33v1116l-162 13v100h445l452 -750q93 -156 176 -321h21l-14 960
l-191 11v100h494v-100z" />
    <glyph glyph-name="eng" unicode="&#x14b;" horiz-adv-x="1245" 
d="M735 1055q147 0 238.5 -88t91.5 -254v-729q0 -159 -58 -251.5t-200 -168.5l-59 63l129 191v862q0 115 -53.5 172t-153.5 57q-153 0 -267 -137v-666l152 -10v-96h-481v96l141 33v745l-141 39v88q177 41 284 48l43 -11l-10 -149h21q142 166 323 166z" />
    <glyph glyph-name="Omacron" unicode="&#x14c;" horiz-adv-x="1505" 
d="M774 1389q123 0 226.5 -35.5t177.5 -98t125.5 -149t76.5 -189t25 -217.5q0 -158 -48 -292.5t-134 -230.5t-212.5 -150t-277.5 -54q-152 0 -274.5 55t-199.5 151t-118 221t-41 270q0 210 81 372.5t235 254.5t358 92zM754 1268q-197 0 -311.5 -149.5t-114.5 -434.5
q0 -286 114.5 -438t311.5 -152q195 0 309.5 152.5t114.5 437.5t-114 434.5t-310 149.5zM459 1706h583q9 -34 9 -72t-9 -73h-583q-8 31 -8 73q0 41 8 72z" />
    <glyph glyph-name="omacron" unicode="&#x14d;" horiz-adv-x="1153" 
d="M596 1055q94 0 172.5 -27.5t133 -76.5t92 -115.5t55.5 -144t18 -163.5q0 -244 -139 -399.5t-371 -155.5q-116 0 -207.5 42t-148 115t-86 167t-29.5 203q0 246 139 400.5t371 154.5zM578 946q-279 0 -279 -430q0 -434 279 -434q276 0 276 434q0 430 -276 430zM305 1411
h539q8 -31 8 -72q0 -38 -8 -69h-539q-8 31 -8 69q0 41 8 72z" />
    <glyph glyph-name="Obreve" unicode="&#x14e;" horiz-adv-x="1505" 
d="M774 1389q123 0 226.5 -35.5t177.5 -98t125.5 -149t76.5 -189t25 -217.5q0 -158 -48 -292.5t-134 -230.5t-212.5 -150t-277.5 -54q-152 0 -274.5 55t-199.5 151t-118 221t-41 270q0 210 81 372.5t235 254.5t358 92zM754 1268q-197 0 -311.5 -149.5t-114.5 -434.5
q0 -286 114.5 -438t311.5 -152q195 0 309.5 152.5t114.5 437.5t-114 434.5t-310 149.5zM453 1741l133 43q25 -88 72.5 -128t125.5 -40q81 -1 129 41.5t80 126.5l72 -27q-23 -135 -106 -206.5t-214 -71.5q-132 0 -205 68.5t-87 193.5z" />
    <glyph glyph-name="obreve" unicode="&#x14f;" horiz-adv-x="1153" 
d="M596 1055q94 0 172.5 -27.5t133 -76.5t92 -115.5t55.5 -144t18 -163.5q0 -244 -139 -399.5t-371 -155.5q-116 0 -207.5 42t-148 115t-86 167t-29.5 203q0 246 139 400.5t371 154.5zM578 946q-279 0 -279 -430q0 -434 279 -434q276 0 276 434q0 430 -276 430zM289 1497
l133 43q15 -105 58.5 -155t121.5 -50q78 -1 122 50t67 155l71 -27q-15 -154 -93.5 -234.5t-205.5 -80.5q-129 0 -198.5 77.5t-75.5 221.5z" />
    <glyph glyph-name="Ohungarumlaut" unicode="&#x150;" horiz-adv-x="1505" 
d="M774 1389q123 0 226.5 -35.5t177.5 -98t125.5 -149t76.5 -189t25 -217.5q0 -158 -48 -292.5t-134 -230.5t-212.5 -150t-277.5 -54q-152 0 -274.5 55t-199.5 151t-118 221t-41 270q0 210 81 372.5t235 254.5t358 92zM754 1268q-197 0 -311.5 -149.5t-114.5 -434.5
q0 -286 114.5 -438t311.5 -152q195 0 309.5 152.5t114.5 437.5t-114 434.5t-310 149.5zM637 1812h65q76 -20 125 -88l-172 -245h-96zM975 1812h67q72 -19 125 -88l-174 -245h-94z" />
    <glyph glyph-name="ohungarumlaut" unicode="&#x151;" horiz-adv-x="1153" 
d="M596 1055q94 0 172.5 -27.5t133 -76.5t92 -115.5t55.5 -144t18 -163.5q0 -244 -139 -399.5t-371 -155.5q-116 0 -207.5 42t-148 115t-86 167t-29.5 203q0 246 139 400.5t371 154.5zM578 946q-279 0 -279 -430q0 -434 279 -434q276 0 276 434q0 430 -276 430zM438 1575h66
q78 -13 141 -86l-209 -315h-92zM774 1575h66q78 -13 141 -86l-209 -315h-92z" />
    <glyph glyph-name="OE" unicode="&#x152;" horiz-adv-x="2000" 
d="M793 1389q115 0 247 -27h826q10 -52 10 -135q0 -97 -12 -170h-127l-29 178l-475 14v-491l256 2l22 125h97v-379h-97l-24 139h-254v-534l471 14l53 194l129 -12q4 -54 4 -92q0 -95 -24 -215h-828q-150 -27 -278 -27q-126 0 -233 35.5t-185 99t-133 150.5t-82 191.5
t-27 220.5q0 210 85.5 373t243.5 254.5t364 91.5zM788 1274q-215 0 -337.5 -152.5t-122.5 -437.5q0 -287 122.5 -440.5t337.5 -153.5q143 0 240 47v1084q-109 53 -240 53z" />
    <glyph glyph-name="oe" unicode="&#x153;" horiz-adv-x="1757" 
d="M1618 233l41 -71q-148 -189 -385 -189t-346 195h-21q-119 -195 -360 -195q-113 0 -202 41.5t-145 114.5t-85 167.5t-29 203.5q0 247 136.5 401t359.5 154q245 0 346 -197h20q21 37 50 68.5t71 62t101.5 48.5t129.5 18q175 0 265 -103t90 -270q0 -61 -19 -158h-4l-616 -18
q7 -188 89.5 -286.5t215.5 -98.5q139 0 297 112zM567 82q269 0 269 434q0 430 -269 430q-268 0 -268 -430q0 -434 268 -434zM1280 946q-105 0 -178.5 -92t-83.5 -262l448 37q-3 317 -186 317z" />
    <glyph glyph-name="Racute" unicode="&#x154;" horiz-adv-x="1306" 
d="M1292 86l-8 -76q-63 -26 -137 -26q-50 0 -89 11t-68.5 33.5t-47 42t-39.5 50.5q-43 60 -144.5 220.5t-144.5 225.5h-155v-456l174 -11v-100h-539v100l162 33v1118l-162 11v100q274 12 443 12q155 0 268.5 -29.5t180.5 -84t98.5 -125.5t31.5 -160q0 -145 -77.5 -231.5
t-215.5 -131.5l-4 -22q76 -78 191.5 -246t146.5 -207zM459 684h282q76 45 113 114.5t37 174.5q0 145 -72.5 212t-236.5 68h-123v-569zM797 1843h71q81 -41 121 -112l-297 -242h-119z" />
    <glyph glyph-name="racute" unicode="&#x155;" horiz-adv-x="804" 
d="M754 836h-217q-81 -58 -134 -154v-573l201 -13v-96h-530v98l141 31v745l-141 39v88q162 41 276 48l43 -11l-12 -221h20q130 238 252 238q77 0 117 -72zM492 1575h71q35 -15 69 -46t54 -67l-285 -288h-110z" />
    <glyph glyph-name="Rcommaaccent" unicode="&#x156;" horiz-adv-x="1306" 
d="M1292 86l-8 -76q-63 -26 -137 -26q-50 0 -89 11t-68.5 33.5t-47 42t-39.5 50.5q-43 60 -144.5 220.5t-144.5 225.5h-155v-456l174 -11v-100h-539v100l162 33v1118l-162 11v100q274 12 443 12q155 0 268.5 -29.5t180.5 -84t98.5 -125.5t31.5 -160q0 -145 -77.5 -231.5
t-215.5 -131.5l-4 -22q76 -78 191.5 -246t146.5 -207zM459 684h282q76 45 113 114.5t37 174.5q0 145 -72.5 212t-236.5 68h-123v-569zM705 -106q48 0 83 -17q37 -61 37 -127q0 -85 -50 -153.5t-142 -98.5l-33 56q51 35 78 66t27 71q0 10 -3 28l-86 15l-2 145q51 15 91 15z
" />
    <glyph glyph-name="rcommaaccent" unicode="&#x157;" horiz-adv-x="804" 
d="M754 836h-217q-81 -58 -134 -154v-573l201 -13v-96h-530v98l141 31v745l-141 39v88q162 41 276 48l43 -11l-12 -221h20q130 238 252 238q77 0 117 -72zM326 -106q49 0 84 -17q36 -59 36 -127q0 -85 -50 -153.5t-142 -98.5l-33 56q51 35 78 66t27 71q0 16 -2 28l-86 15
l-2 145q51 15 90 15z" />
    <glyph glyph-name="Rcaron" unicode="&#x158;" horiz-adv-x="1306" 
d="M1292 86l-8 -76q-63 -26 -137 -26q-50 0 -89 11t-68.5 33.5t-47 42t-39.5 50.5q-43 60 -144.5 220.5t-144.5 225.5h-155v-456l174 -11v-100h-539v100l162 33v1118l-162 11v100q274 12 443 12q155 0 268.5 -29.5t180.5 -84t98.5 -125.5t31.5 -160q0 -145 -77.5 -231.5
t-215.5 -131.5l-4 -22q76 -78 191.5 -246t146.5 -207zM459 684h282q76 45 113 114.5t37 174.5q0 145 -72.5 212t-236.5 68h-123v-569zM637 1677h20l179 148h122l-294 -336h-115l-246 274l131 84z" />
    <glyph glyph-name="rcaron" unicode="&#x159;" horiz-adv-x="804" 
d="M754 836h-217q-81 -58 -134 -154v-573l201 -13v-96h-530v98l141 31v745l-141 39v88q162 41 276 48l43 -11l-12 -221h20q130 238 252 238q77 0 117 -72zM375 1364h20l160 205h113l-265 -393h-116l-226 331l132 74z" />
    <glyph glyph-name="Sacute" unicode="&#x15a;" horiz-adv-x="1110" 
d="M498 836l170 -78q82 -36 137.5 -69.5t106 -81t75.5 -111t25 -144.5q0 -98 -37.5 -172t-105 -118.5t-155 -66.5t-192.5 -22q-210 0 -391 82q-22 104 -22 187q0 40 6 86l121 12l59 -209q102 -41 225 -41q141 0 212 51t71 162q0 98 -54.5 153t-173.5 109l-176 80
q-57 26 -100.5 55.5t-82.5 72t-60 102t-21 131.5q0 178 121.5 280.5t327.5 102.5q185 0 358 -82q12 -58 12 -111q0 -74 -14 -160h-131l-31 197q-92 39 -196 39q-128 0 -194 -57t-66 -166q0 -81 40 -126t136 -87zM754 1833h71q80 -41 121 -113l-297 -241h-119z" />
    <glyph glyph-name="sacute" unicode="&#x15b;" horiz-adv-x="925" 
d="M440 635l115 -45q56 -22 93.5 -40.5t76.5 -46t61.5 -57.5t37 -72.5t14.5 -94.5q0 -155 -111.5 -230.5t-294.5 -75.5q-170 0 -334 70q-10 48 -10 119q0 82 12 143h129l29 -194q71 -31 168 -31q219 0 219 156q0 65 -41 103t-133 75l-106 45q-57 23 -97 46t-76.5 57
t-54.5 81t-18 107q0 144 100 224.5t277 80.5q147 0 290 -66q13 -63 13 -119q0 -61 -13 -141h-118l-29 184q-69 35 -152 35q-95 0 -146.5 -40.5t-51.5 -114.5q0 -59 33.5 -91t117.5 -67zM586 1575h71q35 -15 69 -46t54 -67l-284 -288h-111z" />
    <glyph glyph-name="Scircumflex" unicode="&#x15c;" horiz-adv-x="1110" 
d="M498 836l170 -78q82 -36 137.5 -69.5t106 -81t75.5 -111t25 -144.5q0 -98 -37.5 -172t-105 -118.5t-155 -66.5t-192.5 -22q-210 0 -391 82q-22 104 -22 187q0 40 6 86l121 12l59 -209q102 -41 225 -41q141 0 212 51t71 162q0 98 -54.5 153t-173.5 109l-176 80
q-57 26 -100.5 55.5t-82.5 72t-60 102t-21 131.5q0 178 121.5 280.5t327.5 102.5q185 0 358 -82q12 -58 12 -111q0 -74 -14 -160h-131l-31 197q-92 39 -196 39q-128 0 -194 -57t-66 -166q0 -81 40 -126t136 -87zM897 1540l-131 -84l-203 170h-20l-176 -147h-125l295 336h114
z" />
    <glyph glyph-name="scircumflex" unicode="&#x15d;" horiz-adv-x="925" 
d="M440 635l115 -45q56 -22 93.5 -40.5t76.5 -46t61.5 -57.5t37 -72.5t14.5 -94.5q0 -155 -111.5 -230.5t-294.5 -75.5q-170 0 -334 70q-10 48 -10 119q0 82 12 143h129l29 -194q71 -31 168 -31q219 0 219 156q0 65 -41 103t-133 75l-106 45q-57 23 -97 46t-76.5 57
t-54.5 81t-18 107q0 144 100 224.5t277 80.5q147 0 290 -66q13 -63 13 -119q0 -61 -13 -141h-118l-29 184q-69 35 -152 35q-95 0 -146.5 -40.5t-51.5 -114.5q0 -59 33.5 -91t117.5 -67zM760 1235l-131 -76l-185 219h-20l-158 -204h-112l264 393h114z" />
    <glyph glyph-name="Scedilla" unicode="&#x15e;" horiz-adv-x="1110" 
d="M498 836l170 -78q82 -36 137.5 -69.5t106 -81t75.5 -111t25 -144.5q0 -91 -32.5 -162t-91.5 -115.5t-136 -69.5t-172 -30v-110q90 -3 134 -38t44 -95q0 -73 -61 -120.5t-167 -47.5q-126 0 -198 57l18 76q88 -27 135 -27q50 0 80.5 18.5t30.5 55.5q0 31 -27.5 44.5
t-115.5 29.5l24 157q-193 8 -346 80q-22 104 -22 187q0 40 6 86l121 12l59 -209q102 -41 225 -41q141 0 212 51t71 162q0 98 -54.5 153t-173.5 109l-176 80q-57 26 -100.5 55.5t-82.5 72t-60 102t-21 131.5q0 178 121.5 280.5t327.5 102.5q185 0 358 -82q12 -58 12 -111
q0 -74 -14 -160h-131l-31 197q-92 39 -196 39q-128 0 -194 -57t-66 -166q0 -81 40 -126t136 -87z" />
    <glyph glyph-name="scedilla" unicode="&#x15f;" horiz-adv-x="925" 
d="M440 635l115 -45q56 -22 93.5 -40.5t76.5 -46t61.5 -57.5t37 -72.5t14.5 -94.5q0 -138 -89.5 -213t-240.5 -89v-112q91 -1 135.5 -37t44.5 -96q0 -73 -60.5 -120.5t-166.5 -47.5q-126 0 -201 57l19 76q88 -27 135 -27q110 0 110 74q0 32 -27 45.5t-116 28.5l2 4l25 151
q-157 4 -310 70q-10 48 -10 119q0 82 12 143h129l29 -194q71 -31 168 -31q219 0 219 156q0 65 -41 103t-133 75l-106 45q-57 23 -97 46t-76.5 57t-54.5 81t-18 107q0 144 100 224.5t277 80.5q147 0 290 -66q13 -63 13 -119q0 -61 -13 -141h-118l-29 184q-69 35 -152 35
q-95 0 -146.5 -40.5t-51.5 -114.5q0 -59 33.5 -91t117.5 -67z" />
    <glyph glyph-name="Scaron" unicode="&#x160;" horiz-adv-x="1110" 
d="M498 836l170 -78q82 -36 137.5 -69.5t106 -81t75.5 -111t25 -144.5q0 -98 -37.5 -172t-105 -118.5t-155 -66.5t-192.5 -22q-210 0 -391 82q-22 104 -22 187q0 40 6 86l121 12l59 -209q102 -41 225 -41q141 0 212 51t71 162q0 98 -54.5 153t-173.5 109l-176 80
q-57 26 -100.5 55.5t-82.5 72t-60 102t-21 131.5q0 178 121.5 280.5t327.5 102.5q185 0 358 -82q12 -58 12 -111q0 -74 -14 -160h-131l-31 197q-92 39 -196 39q-128 0 -194 -57t-66 -166q0 -81 40 -126t136 -87zM575 1667h21l178 148h123l-295 -336h-115l-245 274l131 84z
" />
    <glyph glyph-name="scaron" unicode="&#x161;" horiz-adv-x="925" 
d="M440 635l115 -45q56 -22 93.5 -40.5t76.5 -46t61.5 -57.5t37 -72.5t14.5 -94.5q0 -155 -111.5 -230.5t-294.5 -75.5q-170 0 -334 70q-10 48 -10 119q0 82 12 143h129l29 -194q71 -31 168 -31q219 0 219 156q0 65 -41 103t-133 75l-106 45q-57 23 -97 46t-76.5 57
t-54.5 81t-18 107q0 144 100 224.5t277 80.5q147 0 290 -66q13 -63 13 -119q0 -61 -13 -141h-118l-29 184q-69 35 -152 35q-95 0 -146.5 -40.5t-51.5 -114.5q0 -59 33.5 -91t117.5 -67zM469 1364h20l160 205h113l-264 -393h-117l-225 331l131 74z" />
    <glyph glyph-name="Tcommaaccent" unicode="&#x162;" horiz-adv-x="1226" 
d="M1155 1360l2 2q10 -52 10 -129q0 -133 -12 -199h-127l-33 207l-278 12v-1140l180 -13v-100h-229v-135q90 -3 134 -38t44 -95q0 -73 -61 -120.5t-167 -47.5q-126 0 -198 57l18 76q88 -27 135 -27q50 0 80.5 18.5t30.5 55.5q0 31 -27.5 44.5t-115.5 29.5l28 182h-239v100
l182 33v1120l-281 -12l-32 -207h-127q-13 72 -13 199q0 72 11 129z" />
    <glyph glyph-name="tcommaaccent" unicode="&#x163;" horiz-adv-x="751" 
d="M698 147l25 -84q-112 -90 -260 -90h-12v-108q91 -1 135.5 -37t44.5 -96q0 -73 -61 -120.5t-167 -47.5q-125 0 -200 57l18 76q88 -27 135 -27q52 0 81.5 18.5t29.5 55.5q0 32 -27 45.5t-116 28.5l2 4l26 166q-159 48 -159 233v692l-142 13v86l146 30l120 254l64 -4v-266
h303v-115h-303v-665q0 -77 31 -109.5t104 -32.5q77 0 182 43z" />
    <glyph glyph-name="Tcaron" unicode="&#x164;" horiz-adv-x="1226" 
d="M1155 1360l2 2q10 -52 10 -129q0 -133 -12 -199h-127l-33 207l-278 12v-1140l180 -13v-100h-567v100l182 33v1120l-281 -12l-32 -207h-127q-13 72 -13 199q0 72 11 129zM623 1667h20l178 148h123l-295 -336h-114l-246 274l131 84z" />
    <glyph glyph-name="tcaron" unicode="&#x165;" horiz-adv-x="774" 
d="M698 147l25 -84q-112 -90 -260 -90q-122 0 -196 60.5t-74 187.5v692l-142 13v86l146 30l120 254l64 -4v-266h303v-115h-303v-665q0 -77 31 -109.5t104 -32.5q77 0 182 43zM645 1542q66 0 117 -31q-10 -117 -41 -204.5t-103 -178.5h-90l41 211v195q24 8 76 8z" />
    <glyph glyph-name="Tbar" unicode="&#x166;" horiz-adv-x="1226" 
d="M1155 1360l2 2q10 -52 10 -129q0 -133 -12 -199h-127l-33 207l-278 12v-598h291v-108h-291v-434l180 -13v-100h-567v100l182 33v414h-295v108h295v598l-281 -12l-32 -207h-127q-13 72 -13 199q0 72 11 129z" />
    <glyph glyph-name="tbar" unicode="&#x167;" horiz-adv-x="768" 
d="M709 147l24 -84q-112 -90 -260 -90q-122 0 -196 60.5t-74 187.5v377h-142v113h142v202l-142 13v86l146 30l121 254l63 -4v-266h303v-115h-303v-200h303v-113h-303v-352q0 -77 31 -109.5t104 -32.5q78 0 183 43z" />
    <glyph glyph-name="Utilde" unicode="&#x168;" horiz-adv-x="1470" 
d="M1413 1262l-160 -33v-774q0 -219 -132.5 -350.5t-377.5 -131.5q-249 0 -386.5 134.5t-137.5 361.5v782l-162 11v100h531v-100l-164 -31v-764q0 -192 87 -282.5t255 -90.5t255 90.5t87 282.5v784l-188 11v100h493v-100zM1018 1761l57 -55q-16 -34 -24 -49.5t-28.5 -47.5
t-38.5 -47.5t-47.5 -29.5t-62.5 -14q-47 0 -100 26l-178 84l-107 -106l-59 55q19 40 31.5 62.5t38.5 57t59 51.5t74 17q45 0 98 -26l178 -86z" />
    <glyph glyph-name="utilde" unicode="&#x169;" horiz-adv-x="1230" 
d="M1174 119v-88q-152 -38 -287 -47l-41 10l10 149h-20q-77 -94 -156 -132t-168 -38q-147 0 -237.5 89t-90.5 255v557l-139 39v88q176 40 287 48l43 -11l-2 -22v-666q0 -231 205 -231q151 0 266 141v614l-137 39v88q178 41 284 48l41 -11v-882zM834 1485l59 -55
q-17 -36 -32 -63t-41 -62t-60.5 -54.5t-73.5 -19.5q-35 0 -92 29l-154 79l-108 -108l-60 55q17 36 32 63t41.5 62t61 54.5t74.5 19.5q33 0 90 -29l154 -80z" />
    <glyph glyph-name="Umacron" unicode="&#x16a;" horiz-adv-x="1470" 
d="M1413 1262l-160 -33v-774q0 -219 -132.5 -350.5t-377.5 -131.5q-249 0 -386.5 134.5t-137.5 361.5v782l-162 11v100h531v-100l-164 -31v-764q0 -192 87 -282.5t255 -90.5t255 90.5t87 282.5v784l-188 11v100h493v-100zM459 1706h583q9 -34 9 -72t-9 -73h-583q-8 31 -8 73
q0 41 8 72z" />
    <glyph glyph-name="umacron" unicode="&#x16b;" horiz-adv-x="1230" 
d="M1174 119v-88q-152 -38 -287 -47l-41 10l10 149h-20q-77 -94 -156 -132t-168 -38q-147 0 -237.5 89t-90.5 255v557l-139 39v88q176 40 287 48l43 -11l-2 -22v-666q0 -231 205 -231q151 0 266 141v614l-137 39v88q178 41 284 48l41 -11v-882zM311 1411h539q8 -31 8 -72
q0 -38 -8 -69h-539q-8 31 -8 69q0 41 8 72z" />
    <glyph glyph-name="Ubreve" unicode="&#x16c;" horiz-adv-x="1470" 
d="M1413 1262l-160 -33v-774q0 -219 -132.5 -350.5t-377.5 -131.5q-249 0 -386.5 134.5t-137.5 361.5v782l-162 11v100h531v-100l-164 -31v-764q0 -192 87 -282.5t255 -90.5t255 90.5t87 282.5v784l-188 11v100h493v-100zM453 1741l133 43q25 -88 72.5 -128t125.5 -40
q81 -1 129 41.5t80 126.5l72 -27q-23 -135 -106 -206.5t-214 -71.5q-132 0 -205 68.5t-87 193.5z" />
    <glyph glyph-name="ubreve" unicode="&#x16d;" horiz-adv-x="1230" 
d="M1174 119v-88q-152 -38 -287 -47l-41 10l10 149h-20q-77 -94 -156 -132t-168 -38q-147 0 -237.5 89t-90.5 255v557l-139 39v88q176 40 287 48l43 -11l-2 -22v-666q0 -231 205 -231q151 0 266 141v614l-137 39v88q178 41 284 48l41 -11v-882zM295 1497l133 43
q15 -105 58.5 -155t121.5 -50q78 -1 122 50t67 155l71 -27q-15 -154 -93.5 -234.5t-205.5 -80.5q-129 0 -198.5 77.5t-75.5 221.5z" />
    <glyph glyph-name="Uring" unicode="&#x16e;" horiz-adv-x="1470" 
d="M1413 1262l-160 -33v-774q0 -219 -132.5 -350.5t-377.5 -131.5q-249 0 -386.5 134.5t-137.5 361.5v782l-162 11v100h531v-100l-164 -31v-764q0 -192 87 -282.5t255 -90.5t255 90.5t87 282.5v784l-188 11v100h493v-100zM764 1835q104 0 159.5 -47t55.5 -131
q0 -92 -64.5 -140.5t-171.5 -48.5q-106 0 -162.5 46t-56.5 131q0 93 66.5 141.5t173.5 48.5zM754 1745q-41 0 -63.5 -24t-22.5 -70q0 -44 23 -69.5t63 -25.5t62 25.5t22 71.5q0 92 -84 92z" />
    <glyph glyph-name="uring" unicode="&#x16f;" horiz-adv-x="1230" 
d="M1174 119v-88q-152 -38 -287 -47l-41 10l10 149h-20q-77 -94 -156 -132t-168 -38q-147 0 -237.5 89t-90.5 255v557l-139 39v88q176 40 287 48l43 -11l-2 -22v-666q0 -231 205 -231q151 0 266 141v614l-137 39v88q178 41 284 48l41 -11v-882zM594 1583q104 0 160.5 -48.5
t56.5 -137.5q0 -100 -65.5 -151.5t-172.5 -51.5q-104 0 -161.5 48.5t-57.5 139.5q0 99 67.5 150t172.5 51zM586 1495q-86 0 -86 -106q0 -51 22.5 -78t61.5 -27q41 0 62.5 28t21.5 79q0 104 -82 104z" />
    <glyph glyph-name="Uhungarumlaut" unicode="&#x170;" horiz-adv-x="1470" 
d="M1413 1262l-160 -33v-774q0 -219 -132.5 -350.5t-377.5 -131.5q-249 0 -386.5 134.5t-137.5 361.5v782l-162 11v100h531v-100l-164 -31v-764q0 -192 87 -282.5t255 -90.5t255 90.5t87 282.5v784l-188 11v100h493v-100zM637 1812h65q76 -20 125 -88l-172 -245h-96z
M975 1812h67q72 -19 125 -88l-174 -245h-94z" />
    <glyph glyph-name="uhungarumlaut" unicode="&#x171;" horiz-adv-x="1230" 
d="M1174 119v-88q-152 -38 -287 -47l-41 10l10 149h-20q-77 -94 -156 -132t-168 -38q-147 0 -237.5 89t-90.5 255v557l-139 39v88q176 40 287 48l43 -11l-2 -22v-666q0 -231 205 -231q151 0 266 141v614l-137 39v88q178 41 284 48l41 -11v-882zM444 1575h66q78 -13 141 -86
l-209 -315h-92zM780 1575h66q78 -13 141 -86l-209 -315h-92z" />
    <glyph glyph-name="Uogonek" unicode="&#x172;" horiz-adv-x="1470" 
d="M1413 1262l-160 -33v-774q0 -82 -14.5 -147.5t-42.5 -112t-57.5 -77.5t-71.5 -63q-12 -9 -45 -34t-52 -39.5t-47 -41.5t-43.5 -49t-27.5 -52t-12 -60q0 -54 34.5 -81.5t92.5 -27.5q49 0 116 23l19 -78q-74 -51 -187 -51q-118 0 -177.5 48t-59.5 130q0 71 40 129t101 96
l-6 17q-49 -11 -98 -11q-225 0 -360.5 136.5t-135.5 359.5v782l-162 11v100h531v-100l-164 -31v-764q0 -194 87.5 -283.5t258.5 -89.5t254.5 90t83.5 283v784l-188 11v100h493v-100z" />
    <glyph glyph-name="uogonek" unicode="&#x173;" horiz-adv-x="1230" 
d="M1174 119v-88q-269 -88 -269 -248q0 -58 34.5 -85.5t94.5 -27.5q48 0 115 23l18 -78q-74 -51 -188 -51q-117 0 -176.5 49.5t-59.5 136.5q0 74 39 132t101 95l-27 166h-20q-77 -94 -156 -132t-168 -38q-147 0 -237.5 89t-90.5 255v557l-139 39v88q176 40 287 48l43 -11
l-2 -22v-666q0 -231 205 -231q151 0 266 141v614l-137 39v88q178 41 284 48l41 -11v-882z" />
    <glyph glyph-name="Wcircumflex" unicode="&#x174;" horiz-adv-x="2123" 
d="M2079 1262l-117 -29q-211 -691 -399 -1231l-158 -29l-25 2q-230 668 -293 869h-22q-162 -506 -293 -842l-160 -29l-24 2q-259 740 -424 1278l-119 9v100h516v-100l-170 -31q163 -598 309 -1036h21q162 464 293 872l-60 184l-116 11v100h520v-100l-189 -31
q239 -818 322 -1036h20q181 579 306 1056l-181 11v100h443v-100zM1436 1540l-131 -84l-203 170h-21l-176 -147h-125l295 336h115z" />
    <glyph glyph-name="wcircumflex" unicode="&#x175;" horiz-adv-x="1783" 
d="M1735 930l-125 -31q-113 -400 -289 -897l-133 -29l-25 2q-129 380 -241 787h-19q-203 -613 -256 -760l-133 -29l-25 2q-189 520 -309 947l-131 8v96h445v-96l-105 -33q46 -190 199 -686h20q150 425 260 813l129 29l27 -2q124 -483 240 -840h20q139 460 195 709l-156 10
v96h412v-96zM1245 1235l-131 -76l-184 219h-21l-157 -204h-113l264 393h115z" />
    <glyph glyph-name="Ycircumflex" unicode="&#x176;" horiz-adv-x="1370" 
d="M1317 1262l-117 -31q-177 -366 -399 -744v-376h2l180 -11v-100h-567v100l180 33v350q-206 352 -418 768l-125 11v100h516v-100l-166 -29q162 -323 320 -598h20q66 107 156 281.5t162 334.5l-187 11v100h443v-100zM1018 1540l-131 -84l-203 170h-20l-177 -147h-125
l295 336h115z" />
    <glyph glyph-name="ycircumflex" unicode="&#x177;" horiz-adv-x="1161" 
d="M1147 930l-127 -31q-160 -461 -393 -1003q-68 -162 -159 -247t-200 -85q-98 0 -145 63l16 111h277q78 123 116 235q-184 398 -385 947l-133 10v96h441v-96l-97 -31q101 -308 256 -688h23q155 396 254 709l-156 10v96h412v-96zM905 1235l-131 -76l-184 219h-21l-157 -204
h-113l264 393h115z" />
    <glyph glyph-name="Ydieresis" unicode="&#x178;" horiz-adv-x="1370" 
d="M1317 1262l-117 -31q-177 -366 -399 -744v-376h2l180 -11v-100h-567v100l180 33v350q-206 352 -418 768l-125 11v100h516v-100l-166 -29q162 -323 320 -598h20q66 107 156 281.5t162 334.5l-187 11v100h443v-100zM461 1749q41 0 65 -8q33 -44 33 -101q0 -53 -39 -112
h-147l-29 203q44 18 117 18zM936 1749q41 0 68 -8q32 -42 32 -101q0 -53 -39 -112h-149l-27 203q41 18 115 18z" />
    <glyph glyph-name="Zacute" unicode="&#x179;" horiz-adv-x="1214" 
d="M999 338l136 -12q6 -81 6 -95q0 -123 -27 -231h-1026l-10 51l647 989q26 40 75.5 108.5t67.5 94.5l-10 17l-577 -23l-31 -201h-131q-15 107 -15 174q0 92 11 152h1009l13 -51l-629 -961q-13 -21 -164 -231l10 -15l598 23zM788 1833h72q80 -41 121 -113l-297 -241h-119z
" />
    <glyph glyph-name="zacute" unicode="&#x17a;" horiz-adv-x="940" 
d="M750 315l120 -8q4 -54 4 -96q0 -113 -26 -211h-770l-15 92l429 619q11 17 143 202l-8 15l-381 -17l-29 -188h-119q-10 72 -10 166q0 89 10 137h742l14 -94l-424 -617q-41 -62 -145 -202l8 -15l405 15zM590 1575h72q35 -15 68 -46t54 -67l-284 -288h-111z" />
    <glyph glyph-name="Zdotaccent" unicode="&#x17b;" horiz-adv-x="1214" 
d="M999 338l136 -12q6 -81 6 -95q0 -123 -27 -231h-1026l-10 51l647 989q26 40 75.5 108.5t67.5 94.5l-10 17l-577 -23l-31 -201h-131q-15 107 -15 174q0 92 11 152h1009l13 -51l-629 -961q-13 -21 -164 -231l10 -15l598 23zM612 1757q42 0 76 -12q35 -50 35 -105
q0 -57 -49 -124h-160l-25 219q49 22 123 22z" />
    <glyph glyph-name="zdotaccent" unicode="&#x17c;" horiz-adv-x="940" 
d="M750 315l120 -8q4 -54 4 -96q0 -113 -26 -211h-770l-15 92l429 619q11 17 143 202l-8 15l-381 -17l-29 -188h-119q-10 72 -10 166q0 89 10 137h742l14 -94l-424 -617q-41 -62 -145 -202l8 -15l405 15zM475 1489q43 0 68 -10q35 -53 35 -103q0 -56 -48 -123h-157l-27 217
q64 19 129 19z" />
    <glyph glyph-name="Zcaron" unicode="&#x17d;" horiz-adv-x="1214" 
d="M999 338l136 -12q6 -81 6 -95q0 -123 -27 -231h-1026l-10 51l647 989q26 40 75.5 108.5t67.5 94.5l-10 17l-577 -23l-31 -201h-131q-15 107 -15 174q0 92 11 152h1009l13 -51l-629 -961q-13 -21 -164 -231l10 -15l598 23zM610 1667h21l178 148h123l-295 -336h-115
l-246 274l132 84z" />
    <glyph glyph-name="zcaron" unicode="&#x17e;" horiz-adv-x="940" 
d="M750 315l120 -8q4 -54 4 -96q0 -113 -26 -211h-770l-15 92l429 619q11 17 143 202l-8 15l-381 -17l-29 -188h-119q-10 72 -10 166q0 89 10 137h742l14 -94l-424 -617q-41 -62 -145 -202l8 -15l405 15zM473 1364h21l159 205h113l-264 -393h-117l-225 331l131 74z" />
    <glyph glyph-name="longs" unicode="&#x17f;" horiz-adv-x="614" 
d="M584 1542q115 0 193.5 -45t78.5 -125q0 -58 -45 -100h-135l-25 160q-24 4 -45 4q-203 0 -203 -269v-1061l168 -10v-96h-497v96l141 33v782h-2l-141 13v88l143 32v82q0 111 29 193.5t81 130t116.5 70t142.5 22.5z" />
    <glyph glyph-name="uni018F" unicode="&#x18f;" horiz-adv-x="1288" 
d="M586 1389q147 0 263.5 -55t189.5 -151t111 -220.5t38 -268.5q0 -320 -173.5 -520.5t-453.5 -200.5q-116 0 -205 36.5t-144.5 102.5t-83.5 154t-28 195t21 209h840q-1 286 -116.5 429.5t-314.5 143.5q-185 0 -362 -135l-45 76q74 93 191.5 149t271.5 56zM584 113
q156 0 255 115t117 337l-630 -18v-43q0 -199 58.5 -295t199.5 -96z" />
    <glyph glyph-name="florin" unicode="&#x192;" horiz-adv-x="1185" 
d="M928 1247q101 0 170 -45.5t69 -116.5q0 -57 -59 -104h-123l-22 172h-27q-85 0 -136 -67t-69 -216l-14 -114h266v-107h-281l-51 -403q-14 -113 -54 -197t-97 -130t-118 -67.5t-128 -21.5q-100 0 -168 43t-68 113q0 65 60 110h127l22 -172h23q80 0 133 62.5t72 218.5
l57 444h-201v107h213l11 73q13 109 51.5 191.5t93.5 131t117 72t131 23.5z" />
    <glyph glyph-name="uni01E2" unicode="&#x1e2;" horiz-adv-x="1900" 
d="M1655 319l129 -12q6 -81 6 -92q0 -80 -27 -215h-999v100l162 33v268h-484q-73 -149 -137 -290l139 -11v-100h-419v100l133 31q267 550 587 1122l-137 9v100h1155q11 -57 11 -135q0 -90 -13 -170h-127l-28 178l-476 14v-491l256 2l23 125h96v-379h-96l-27 139h-252v-534
l472 14zM926 514v733h-49q-158 -282 -379 -733h428zM840 1702h538q8 -31 8 -72q0 -38 -8 -69h-538q-9 35 -9 69q0 38 9 72z" />
    <glyph glyph-name="uni01E3" unicode="&#x1e3;" horiz-adv-x="1607" 
d="M1466 233l43 -71q-148 -189 -395 -189q-266 0 -364 211h-23q-143 -211 -362 -211q-136 0 -207.5 70.5t-71.5 187.5q0 49 13 90t34 71.5t55.5 55.5t68 42t81.5 30.5t86 20.5t92 13t89 8.5t87 4.5l4 138q4 124 -60.5 183.5t-168.5 59.5q-53 0 -100 -12l-33 -236h-133
q-60 40 -60 111q0 68 55 125t142 88t184 31q117 0 188 -48t95 -133h18q41 79 122.5 130t205.5 51q175 0 263.5 -103t88.5 -272q0 -76 -16 -158h-2l-621 -20q9 -186 92 -283.5t215 -97.5q141 0 295 112zM1128 946q-105 0 -179 -93.5t-83 -264.5l451 41q-3 317 -189 317z
M432 106q158 0 281 177q-22 99 -25 198q-219 -20 -309 -73t-90 -158q0 -144 143 -144zM537 1409h538q8 -31 8 -72q0 -38 -8 -69h-538q-9 34 -9 69q0 37 9 72z" />
    <glyph glyph-name="Aringacute" unicode="&#x1fa;" horiz-adv-x="1394" 
d="M743 1667h-112l188 303h70q74 -44 110 -100zM1370 100v-100h-502v100l144 31q-31 100 -88 268h-533q-62 -187 -92 -288l145 -11v-100h-419v100l129 31q205 613 401 1114q-111 42 -111 160q0 92 67 140t173 48q105 0 161 -46t56 -130q0 -107 -92 -157q176 -432 428 -1149z
M676 1505q-40 0 -63 -24.5t-23 -69.5q0 -44 23 -69t63 -25q39 0 60.5 24.5t21.5 69.5q0 94 -82 94zM428 512h457q-122 356 -221 618h-23q-89 -234 -213 -618z" />
    <glyph glyph-name="aringacute" unicode="&#x1fb;" horiz-adv-x="1069" 
d="M1024 115v-84q-89 -47 -180 -47q-71 0 -104 32t-33 97v28h-23q-65 -81 -139.5 -124.5t-177.5 -43.5q-135 0 -208 71.5t-73 186.5q0 71 30.5 126.5t78 88t112.5 53.5t126 28.5t128 7.5q74 0 135 -9l2 197q3 225 -223 225q-57 0 -108 -10l-33 -238h-133q-60 45 -60 111
q0 69 59.5 126.5t148.5 87.5t183 30q158 0 257 -86t98 -240l-6 -602zM430 106q149 0 264 150l2 193h-41q-195 0 -279.5 -47.5t-84.5 -153.5q0 -142 139 -142zM639 1870h70q70 -43 110 -101l-237 -186h-111zM543 1511q104 0 160.5 -47.5t56.5 -136.5q0 -99 -66 -150t-172 -51
q-104 0 -161.5 48.5t-57.5 138.5q0 98 67.5 148t172.5 50zM535 1423q-86 0 -86 -104q0 -102 83 -102q84 0 84 104q0 102 -81 102z" />
    <glyph glyph-name="AEacute" unicode="&#x1fc;" horiz-adv-x="1900" 
d="M1655 319l129 -12q6 -81 6 -92q0 -80 -27 -215h-999v100l162 33v268h-484q-73 -149 -137 -290l139 -11v-100h-419v100l133 31q267 550 587 1122l-137 9v100h1155q11 -57 11 -135q0 -90 -13 -170h-127l-28 178l-476 14v-491l256 2l23 125h96v-379h-96l-27 139h-252v-534
l472 14zM926 514v733h-49q-158 -282 -379 -733h428zM1294 1833h72q80 -41 121 -113l-297 -241h-119z" />
    <glyph glyph-name="aeacute" unicode="&#x1fd;" horiz-adv-x="1607" 
d="M1466 233l43 -71q-148 -189 -395 -189q-266 0 -364 211h-23q-143 -211 -362 -211q-136 0 -207.5 70.5t-71.5 187.5q0 49 13 90t34 71.5t55.5 55.5t68 42t81.5 30.5t86 20.5t92 13t89 8.5t87 4.5l4 138q4 124 -60.5 183.5t-168.5 59.5q-53 0 -100 -12l-33 -236h-133
q-60 40 -60 111q0 68 55 125t142 88t184 31q117 0 188 -48t95 -133h18q41 79 122.5 130t205.5 51q175 0 263.5 -103t88.5 -272q0 -76 -16 -158h-2l-621 -20q9 -186 92 -283.5t215 -97.5q141 0 295 112zM1128 946q-105 0 -179 -93.5t-83 -264.5l451 41q-3 317 -189 317z
M432 106q158 0 281 177q-22 99 -25 198q-219 -20 -309 -73t-90 -158q0 -144 143 -144zM936 1573h72q35 -15 68 -46t54 -67l-284 -289h-111z" />
    <glyph glyph-name="Oslashacute" unicode="&#x1fe;" horiz-adv-x="1505" 
d="M1374 1448l-157 -227q92 -94 140 -228.5t48 -292.5t-48 -292.5t-134 -230.5t-212.5 -150t-277.5 -54q-195 0 -340 90l-147 -213l-94 39l-11 25l156 225q-97 94 -147 232t-50 299q0 210 81 372.5t235 254.5t358 92q201 0 346 -93l150 215l94 -38zM764 1268
q-210 0 -323 -147.5t-113 -450.5q0 -248 78 -389l622 897q-100 90 -264 90zM741 94q209 0 323 150t114 454q0 239 -72 377l-621 -895q96 -86 256 -86zM942 1833h72q80 -41 121 -113l-297 -241h-119z" />
    <glyph glyph-name="oslashacute" unicode="&#x1ff;" horiz-adv-x="1153" 
d="M1024 1147l-119 -201q80 -70 121 -179.5t41 -238.5q0 -244 -139 -399.5t-371 -155.5q-125 0 -217 47l-111 -184l-92 41l-12 23l113 190q-75 72 -113.5 178.5t-38.5 231.5q0 246 139 400.5t371 154.5q118 0 205 -41l117 196l92 -41zM584 946q-150 0 -218.5 -107
t-68.5 -337q0 -166 37 -264l395 671q-58 37 -145 37zM569 82q148 0 217.5 107t69.5 337q0 186 -45 285l-401 -682q58 -47 159 -47zM705 1573h71q35 -15 69 -46t54 -67l-285 -289h-110z" />
    <glyph glyph-name="Scommaaccent" unicode="&#x218;" horiz-adv-x="1110" 
d="M498 836l170 -78q82 -36 137.5 -69.5t106 -81t75.5 -111t25 -144.5q0 -98 -37.5 -172t-105 -118.5t-155 -66.5t-192.5 -22q-210 0 -391 82q-22 104 -22 187q0 40 6 86l121 12l59 -209q102 -41 225 -41q141 0 212 51t71 162q0 98 -54.5 153t-173.5 109l-176 80
q-57 26 -100.5 55.5t-82.5 72t-60 102t-21 131.5q0 178 121.5 280.5t327.5 102.5q185 0 358 -82q12 -58 12 -111q0 -74 -14 -160h-131l-31 197q-92 39 -196 39q-128 0 -194 -57t-66 -166q0 -81 40 -126t136 -87zM516 -106q49 0 84 -17q37 -61 37 -127q0 -85 -50.5 -153.5
t-142.5 -98.5l-32 56q51 35 77.5 66t26.5 71q0 16 -2 28l-86 15l-2 145q51 15 90 15z" />
    <glyph glyph-name="scommaaccent" unicode="&#x219;" horiz-adv-x="925" 
d="M440 635l115 -45q56 -22 93.5 -40.5t76.5 -46t61.5 -57.5t37 -72.5t14.5 -94.5q0 -155 -111.5 -230.5t-294.5 -75.5q-170 0 -334 70q-10 48 -10 119q0 82 12 143h129l29 -194q71 -31 168 -31q219 0 219 156q0 65 -41 103t-133 75l-106 45q-57 23 -97 46t-76.5 57
t-54.5 81t-18 107q0 144 100 224.5t277 80.5q147 0 290 -66q13 -63 13 -119q0 -61 -13 -141h-118l-29 184q-69 35 -152 35q-95 0 -146.5 -40.5t-51.5 -114.5q0 -59 33.5 -91t117.5 -67zM444 -106q49 0 84 -17q37 -61 37 -127q0 -85 -50 -153.5t-142 -98.5l-33 56
q51 35 77.5 66t26.5 71q0 16 -2 28l-86 15l-2 145q51 15 90 15z" />
    <glyph glyph-name="uni021A" unicode="&#x21a;" horiz-adv-x="1226" 
d="M1155 1360l2 2q10 -52 10 -129q0 -133 -12 -199h-127l-33 207l-278 12v-1140l180 -13v-100h-567v100l182 33v1120l-281 -12l-32 -207h-127q-13 72 -13 199q0 72 11 129zM604 -106q49 0 84 -17q37 -61 37 -127q0 -85 -50.5 -153.5t-142.5 -98.5l-32 56q51 35 77.5 66
t26.5 71q0 16 -2 28l-86 15l-2 145q51 15 90 15z" />
    <glyph glyph-name="uni021B" unicode="&#x21b;" horiz-adv-x="751" 
d="M698 147l25 -84q-112 -90 -260 -90q-122 0 -196 60.5t-74 187.5v692l-142 13v86l146 30l120 254l64 -4v-266h303v-115h-303v-665q0 -77 31 -109.5t104 -32.5q77 0 182 43zM387 -106q49 0 84 -17q37 -61 37 -127q0 -85 -50.5 -153.5t-142.5 -98.5l-32 56q51 35 77.5 66
t26.5 71q0 16 -2 28l-86 15l-2 145q51 15 90 15z" />
    <glyph glyph-name="uni0232" unicode="&#x232;" horiz-adv-x="1370" 
d="M1317 1262l-117 -31q-177 -366 -399 -744v-376h2l180 -11v-100h-567v100l180 33v350q-206 352 -418 768l-125 11v100h516v-100l-166 -29q162 -323 320 -598h20q66 107 156 281.5t162 334.5l-187 11v100h443v-100zM420 1702h538q9 -34 9 -72q0 -34 -9 -69h-538
q-8 31 -8 69q0 41 8 72z" />
    <glyph glyph-name="uni0233" unicode="&#x233;" horiz-adv-x="1161" 
d="M1147 930l-127 -31q-160 -461 -393 -1003q-68 -162 -159 -247t-200 -85q-98 0 -145 63l16 111h277q78 123 116 235q-184 398 -385 947l-133 10v96h441v-96l-97 -31q101 -308 256 -688h23q155 396 254 709l-156 10v96h412v-96zM332 1411h538q9 -35 9 -72q0 -35 -9 -69
h-538q-8 31 -8 69q0 41 8 72z" />
    <glyph glyph-name="uni0237" unicode="&#x237;" horiz-adv-x="567" 
d="M387 1038v-1052q0 -159 -58.5 -252.5t-201.5 -169.5l-59 63l131 191v1056l-142 39v88q177 41 287 48z" />
    <glyph glyph-name="uni0259" unicode="&#x259;" horiz-adv-x="1052" 
d="M512 1055q115 0 204 -42.5t143 -116t81 -166t27 -198.5q0 -251 -138.5 -405t-361.5 -154q-180 0 -271.5 102.5t-91.5 270.5q0 77 19 158h639q-1 194 -80.5 294.5t-216.5 100.5q-148 0 -283 -104l-43 75q134 185 373 185zM492 82q105 0 178.5 84.5t87.5 245.5l-461 -19v-4
q0 -156 48 -231.5t147 -75.5z" />
    <glyph glyph-name="uni02BB" unicode="&#x2bb;" horiz-adv-x="516" 
d="M377 1522l22 -64q-56 -30 -92.5 -87.5t-36.5 -113.5q0 -20 4 -36l95 -17l6 -180q-53 -12 -101 -12q-61 0 -98 18q-45 72 -45 158q0 115 64.5 208t181.5 126z" />
    <glyph glyph-name="afii57929" unicode="&#x2bc;" horiz-adv-x="516" 
d="M242 1505q61 0 98 -18q45 -74 45 -162q0 -123 -64.5 -210.5t-181.5 -119.5l-22 64q56 28 92.5 80t36.5 118q0 19 -4 39l-95 15l-6 180q49 14 101 14z" />
    <glyph glyph-name="circumflex" unicode="&#x2c6;" horiz-adv-x="729" 
d="M668 1235l-131 -76l-185 219h-20l-158 -204h-113l265 393h114z" />
    <glyph glyph-name="caron" unicode="&#x2c7;" horiz-adv-x="729" 
d="M375 1364h20l160 205h113l-265 -393h-116l-226 331l132 74z" />
    <glyph glyph-name="breve" unicode="&#x2d8;" horiz-adv-x="696" 
d="M61 1497l134 43q15 -105 58.5 -155t121.5 -50q78 -1 121.5 50t66.5 155l72 -27q-15 -154 -93.5 -234.5t-205.5 -80.5q-129 0 -199 77.5t-76 221.5z" />
    <glyph glyph-name="dotaccent" unicode="&#x2d9;" horiz-adv-x="354" 
d="M190 1491q43 0 68 -10q35 -53 35 -103q0 -58 -47 -123h-158l-27 218q61 18 129 18z" />
    <glyph glyph-name="ring" unicode="&#x2da;" horiz-adv-x="579" 
d="M301 1583q104 0 160.5 -48.5t56.5 -137.5q0 -100 -65.5 -151.5t-171.5 -51.5q-104 0 -162 48.5t-58 139.5q0 99 67.5 150t172.5 51zM293 1495q-86 0 -86 -106q0 -51 22.5 -78t61.5 -27q41 0 62.5 28t21.5 79q0 104 -82 104z" />
    <glyph glyph-name="ogonek" unicode="&#x2db;" horiz-adv-x="546" 
d="M309 43l64 -12q-77 -69 -113.5 -133.5t-36.5 -114.5q0 -52 35.5 -82.5t93.5 -30.5q48 0 115 23l16 -78q-71 -51 -182 -51q-117 0 -178.5 52t-61.5 134q0 164 248 293z" />
    <glyph glyph-name="tilde" unicode="&#x2dc;" horiz-adv-x="743" 
d="M623 1485l59 -55q-17 -36 -32 -63t-41 -62t-60.5 -54.5t-73.5 -19.5q-35 0 -92 29l-154 79l-108 -108l-60 55q17 36 32 63t41.5 62t61 54.5t74.5 19.5q33 0 90 -29l154 -80z" />
    <glyph glyph-name="hungarumlaut" unicode="&#x2dd;" horiz-adv-x="759" 
d="M156 1575h65q78 -13 141 -86l-208 -315h-93zM492 1575h65q78 -13 141 -86l-209 -315h-92z" />
    <glyph glyph-name="gravecomb" unicode="&#x300;" horiz-adv-x="0" 
d="M-156 1174h-108l-291 288q52 83 131 113h72z" />
    <glyph glyph-name="acutecomb" unicode="&#x301;" horiz-adv-x="0" 
d="M-354 1575h71q35 -15 69 -46t54 -67l-284 -288h-111z" />
    <glyph glyph-name="uni0302" unicode="&#x302;" horiz-adv-x="0" 
d="M-68 1235l-131 -76l-184 219h-20l-158 -204h-113l264 393h115z" />
    <glyph glyph-name="tildecomb" unicode="&#x303;" horiz-adv-x="0" 
d="M-90 1485l59 -55q-17 -36 -32 -63t-41 -62t-60.5 -54.5t-73.5 -19.5q-35 0 -92 29l-153 79l-109 -108l-59 55q17 36 32 63t41.5 62t61 54.5t74.5 19.5q33 0 90 -29l153 -80z" />
    <glyph glyph-name="uni0304" unicode="&#x304;" horiz-adv-x="0" 
d="M-662 1411h539q8 -31 8 -72q0 -38 -8 -69h-539q-8 31 -8 69q0 41 8 72z" />
    <glyph glyph-name="uni0306" unicode="&#x306;" horiz-adv-x="0" 
d="M-672 1497l133 43q15 -105 59 -155t122 -50q78 -1 121.5 50t66.5 155l72 -27q-15 -154 -93.5 -234.5t-205.5 -80.5q-129 0 -199 77.5t-76 221.5z" />
    <glyph glyph-name="uni0307" unicode="&#x307;" horiz-adv-x="0" 
d="M-426 1489q43 0 68 -10q34 -52 34 -103q0 -58 -47 -123h-157l-27 217q64 19 129 19z" />
    <glyph glyph-name="uni0308" unicode="&#x308;" horiz-adv-x="2" 
d="M-651 1470q42 0 63 -8q33 -58 33 -96q0 -54 -41 -113h-143l-27 199q44 18 115 18zM-242 1470q43 0 64 -8q33 -58 33 -96q0 -54 -41 -113h-144l-26 199q43 18 114 18z" />
    <glyph glyph-name="uni030A" unicode="&#x30a;" horiz-adv-x="0" 
d="M-332 1583q104 0 160.5 -48.5t56.5 -137.5q0 -100 -65.5 -151.5t-171.5 -51.5q-104 0 -161.5 48.5t-57.5 139.5q0 99 67 150t172 51zM-340 1495q-86 0 -86 -106q0 -51 22.5 -78t61.5 -27q41 0 62.5 28t21.5 79q0 104 -82 104z" />
    <glyph glyph-name="uni030B" unicode="&#x30b;" horiz-adv-x="0" 
d="M-604 1575h65q79 -13 142 -86l-209 -315h-92zM-268 1575h65q79 -13 142 -86l-209 -315h-92z" />
    <glyph glyph-name="uni030C" unicode="&#x30c;" horiz-adv-x="0" 
d="M-399 1364h20l160 205h113l-265 -393h-116l-226 331l131 74z" />
    <glyph glyph-name="uni0312" unicode="&#x312;" horiz-adv-x="2" 
d="M-319 1579l34 -53q-39 -26 -58 -41t-36.5 -41t-17.5 -55q0 -17 4 -31l86 -12l2 -146q-47 -14 -92 -14q-49 0 -82 16q-37 61 -37 127q0 86 51.5 153.5t145.5 96.5z" />
    <glyph glyph-name="uni0326" unicode="&#x326;" horiz-adv-x="0" 
d="M-201 -106q49 0 84 -17q37 -61 37 -127q0 -85 -50 -153.5t-142 -98.5l-33 56q51 35 77.5 66t26.5 71q0 16 -2 28l-86 15l-2 145q51 15 90 15z" />
    <glyph glyph-name="uni0327" unicode="&#x327;" horiz-adv-x="0" 
d="M-279 12v-147q91 -1 136 -37t45 -96q0 -73 -61 -120.5t-167 -47.5q-125 0 -200 57l18 76q88 -27 135 -27q52 0 81.5 18.5t29.5 55.5q0 31 -27.5 45t-116.5 29l3 4l30 190h94z" />
    <glyph glyph-name="uni0328" unicode="&#x328;" horiz-adv-x="2" 
d="M309 43l64 -12q-77 -69 -113.5 -133.5t-36.5 -114.5q0 -52 35.5 -82.5t93.5 -30.5q48 0 115 23l16 -78q-71 -51 -182 -51q-117 0 -178.5 52t-61.5 134q0 164 248 293z" />
    <glyph glyph-name="uni0394" unicode="&#x394;" horiz-adv-x="1204" 
d="M1174 25l-13 -25h-1120l-12 25l497 1337l121 27l25 -3zM233 154h703l-350 966z" />
    <glyph glyph-name="uni03A9" unicode="&#x3a9;" horiz-adv-x="1468" 
d="M1303 324l120 -13q7 -51 7 -100q0 -81 -17 -211h-549v313q277 139 277 482q0 225 -107.5 349t-298.5 124q-193 0 -300 -123t-107 -348q0 -350 278 -484v-313h-551q-16 98 -16 211q0 42 4 100l123 13l31 -142l299 -18v108q-79 21 -148 64t-125.5 107t-89.5 155.5
t-33 198.5q0 122 43 229t123 188t204.5 128t277.5 47t273.5 -47t195 -128t113 -185t38.5 -224q0 -201 -105.5 -341.5t-289.5 -193.5v-106l299 18z" />
    <glyph glyph-name="uni03BC" unicode="&#x3bc;" horiz-adv-x="1226" 
d="M1169 119v-88q-152 -38 -286 -47l-41 10l10 149h-23q-133 -170 -303 -170q-116 0 -188 93l-19 -11l31 -473q-63 -18 -168 -18l-37 35l35 516v901q75 21 146 33l43 -9v-690q0 -231 204 -231q149 0 267 141v756q80 23 145 33l43 -9v-884z" />
    <glyph glyph-name="pi" unicode="&#x3c0;" horiz-adv-x="1267" 
d="M1047 129l141 -14v-84q-92 -47 -178 -47q-81 0 -121.5 44.5t-40.5 139.5q0 202 20 682h-440v-844q-62 -13 -166 -20l-41 18l35 506v338q-110 -7 -217 -74l-39 60q55 105 133 148.5t234 43.5h809l18 -22l-23 -154h-124v-721z" />
    <glyph glyph-name="Wgrave" unicode="&#x1e80;" horiz-adv-x="2123" 
d="M2079 1262l-117 -29q-211 -691 -399 -1231l-158 -29l-25 2q-230 668 -293 869h-22q-162 -506 -293 -842l-160 -29l-24 2q-259 740 -424 1278l-119 9v100h516v-100l-170 -31q163 -598 309 -1036h21q162 464 293 872l-60 184l-116 11v100h520v-100l-189 -31
q239 -818 322 -1036h20q181 579 306 1056l-181 11v100h443v-100zM1225 1479h-119l-293 241q46 76 121 113h72z" />
    <glyph glyph-name="wgrave" unicode="&#x1e81;" horiz-adv-x="1783" 
d="M1735 930l-125 -31q-113 -400 -289 -897l-133 -29l-25 2q-129 380 -241 787h-19q-203 -613 -256 -760l-133 -29l-25 2q-189 520 -309 947l-131 8v96h445v-96l-105 -33q46 -190 199 -686h20q150 425 260 813l129 29l27 -2q124 -483 240 -840h20q139 460 195 709l-156 10
v96h412v-96zM1030 1174h-108l-291 288q52 83 131 113h72z" />
    <glyph glyph-name="Wacute" unicode="&#x1e82;" horiz-adv-x="2123" 
d="M2079 1262l-117 -29q-211 -691 -399 -1231l-158 -29l-25 2q-230 668 -293 869h-22q-162 -506 -293 -842l-160 -29l-24 2q-259 740 -424 1278l-119 9v100h516v-100l-170 -31q163 -598 309 -1036h21q162 464 293 872l-60 184l-116 11v100h520v-100l-189 -31
q239 -818 322 -1036h20q181 579 306 1056l-181 11v100h443v-100zM1292 1833h72q80 -41 121 -113l-297 -241h-119z" />
    <glyph glyph-name="wacute" unicode="&#x1e83;" horiz-adv-x="1783" 
d="M1735 930l-125 -31q-113 -400 -289 -897l-133 -29l-25 2q-129 380 -241 787h-19q-203 -613 -256 -760l-133 -29l-25 2q-189 520 -309 947l-131 8v96h445v-96l-105 -33q46 -190 199 -686h20q150 425 260 813l129 29l27 -2q124 -483 240 -840h20q139 460 195 709l-156 10
v96h412v-96zM1071 1575h72q35 -15 69 -46t54 -67l-285 -288h-111z" />
    <glyph glyph-name="Wdieresis" unicode="&#x1e84;" horiz-adv-x="2123" 
d="M2079 1262l-117 -29q-211 -691 -399 -1231l-158 -29l-25 2q-230 668 -293 869h-22q-162 -506 -293 -842l-160 -29l-24 2q-259 740 -424 1278l-119 9v100h516v-100l-170 -31q163 -598 309 -1036h21q162 464 293 872l-60 184l-116 11v100h520v-100l-189 -31
q239 -818 322 -1036h20q181 579 306 1056l-181 11v100h443v-100zM879 1749q41 0 65 -8q33 -44 33 -101q0 -53 -39 -112h-147l-29 203q44 18 117 18zM1354 1749q40 0 67 -8q33 -44 33 -101q0 -53 -39 -112h-149l-27 203q40 18 115 18z" />
    <glyph glyph-name="wdieresis" unicode="&#x1e85;" horiz-adv-x="1783" 
d="M1735 930l-125 -31q-113 -400 -289 -897l-133 -29l-25 2q-129 380 -241 787h-19q-203 -613 -256 -760l-133 -29l-25 2q-189 520 -309 947l-131 8v96h445v-96l-105 -33q46 -190 199 -686h20q150 425 260 813l129 29l27 -2q124 -483 240 -840h20q139 460 195 709l-156 10
v96h412v-96zM748 1470q42 0 63 -8q33 -58 33 -96q0 -54 -41 -113h-144l-26 199q43 18 115 18zM1157 1470q43 0 64 -8q32 -56 32 -96q0 -54 -41 -113h-143l-27 199q44 18 115 18z" />
    <glyph glyph-name="uni1E9E" unicode="&#x1e9e;" horiz-adv-x="1499" 
d="M811 1389q111 0 235.5 -18t219.5 -50v-117q-118 -70 -177 -138.5t-59 -150.5q0 -58 34.5 -107.5t123.5 -127.5q49 -44 72 -65.5t57.5 -60t50 -68.5t27.5 -73t12 -91q0 -163 -115.5 -256t-298.5 -93q-154 0 -301 82q-10 47 -10 121q0 90 14 164h127l31 -225
q70 -25 133 -25q112 0 160.5 56.5t48.5 142.5q0 39 -8.5 69t-34.5 62.5t-50.5 56t-78.5 70.5q-90 78 -135 146.5t-45 160.5q0 110 68.5 204t199.5 159v18q-119 33 -272 33q-214 0 -316 -90.5t-102 -309.5v-868h-365v100l162 33v733q0 138 42 240t121.5 163.5t186 90.5
t242.5 29z" />
    <glyph glyph-name="Ygrave" unicode="&#x1ef2;" horiz-adv-x="1370" 
d="M1317 1262l-117 -31q-177 -366 -399 -744v-376h2l180 -11v-100h-567v100l180 33v350q-206 352 -418 768l-125 11v100h516v-100l-166 -29q162 -323 320 -598h20q66 107 156 281.5t162 334.5l-187 11v100h443v-100zM807 1479h-119l-293 241q46 76 121 113h72z" />
    <glyph glyph-name="ygrave" unicode="&#x1ef3;" horiz-adv-x="1161" 
d="M1147 930l-127 -31q-160 -461 -393 -1003q-68 -162 -159 -247t-200 -85q-98 0 -145 63l16 111h277q78 123 116 235q-184 398 -385 947l-133 10v96h441v-96l-97 -31q101 -308 256 -688h23q155 396 254 709l-156 10v96h412v-96zM690 1174h-108l-291 288q52 83 131 113h72z
" />
    <glyph glyph-name="uni2007" unicode="&#x2007;" horiz-adv-x="1224" 
 />
    <glyph glyph-name="uni2008" unicode="&#x2008;" horiz-adv-x="516" 
 />
    <glyph glyph-name="uni2009" unicode="&#x2009;" horiz-adv-x="358" 
 />
    <glyph glyph-name="uni200B" unicode="&#x200b;" horiz-adv-x="0" 
 />
    <glyph glyph-name="endash" unicode="&#x2013;" horiz-adv-x="1024" 
d="M909 537h-794v131h794v-131z" />
    <glyph glyph-name="emdash" unicode="&#x2014;" horiz-adv-x="2048" 
d="M1878 537h-1706v131h1706v-131z" />
    <glyph glyph-name="quoteleft" unicode="&#x2018;" horiz-adv-x="516" 
d="M377 1522l22 -64q-56 -30 -92.5 -87.5t-36.5 -113.5q0 -20 4 -36l95 -17l6 -180q-53 -12 -101 -12q-61 0 -98 18q-45 72 -45 158q0 115 64.5 208t181.5 126z" />
    <glyph glyph-name="quoteright" unicode="&#x2019;" horiz-adv-x="516" 
d="M242 1505q61 0 98 -18q45 -74 45 -162q0 -123 -64.5 -210.5t-181.5 -119.5l-22 64q56 28 92.5 80t36.5 118q0 19 -4 39l-95 15l-6 180q49 14 101 14z" />
    <glyph glyph-name="quotesinglbase" unicode="&#x201a;" horiz-adv-x="516" 
d="M242 207q59 0 98 -19q45 -74 45 -161q0 -122 -64.5 -210t-181.5 -120l-22 63q56 30 92.5 82.5t36.5 116.5q0 23 -4 39l-95 16l-6 181q53 12 101 12z" />
    <glyph glyph-name="quotedblleft" unicode="&#x201c;" horiz-adv-x="886" 
d="M748 1522l22 -64q-56 -30 -92.5 -87.5t-36.5 -113.5q0 -20 4 -36l94 -17l6 -180q-53 -12 -100 -12q-61 0 -98 18q-45 72 -45 158q0 115 64.5 208t181.5 126zM377 1522l22 -64q-56 -30 -92.5 -87.5t-36.5 -113.5q0 -20 4 -36l95 -17l6 -180q-53 -12 -101 -12q-61 0 -98 18
q-45 72 -45 158q0 115 64.5 208t181.5 126z" />
    <glyph glyph-name="quotedblright" unicode="&#x201d;" horiz-adv-x="886" 
d="M612 1505q62 0 99 -18q45 -74 45 -162q0 -123 -64.5 -210.5t-181.5 -119.5l-23 64q56 28 92.5 80t36.5 118q0 19 -4 39l-94 15l-6 180q49 14 100 14zM242 1505q61 0 98 -18q45 -74 45 -162q0 -123 -64.5 -210.5t-181.5 -119.5l-22 64q56 28 92.5 80t36.5 118q0 19 -4 39
l-95 15l-6 180q49 14 101 14z" />
    <glyph glyph-name="quotedblbase" unicode="&#x201e;" horiz-adv-x="886" 
d="M612 207q60 0 99 -19q45 -74 45 -161q0 -122 -64.5 -210t-181.5 -120l-23 63q56 30 92.5 82.5t36.5 116.5q0 23 -4 39l-94 16l-6 181q52 12 100 12zM242 207q59 0 98 -19q45 -74 45 -161q0 -122 -64.5 -210t-181.5 -120l-22 63q56 30 92.5 82.5t36.5 116.5q0 23 -4 39
l-95 16l-6 181q53 12 101 12z" />
    <glyph glyph-name="dagger" unicode="&#x2020;" horiz-adv-x="952" 
d="M399 1516h156q10 -34 10 -89q0 -114 -47 -253h-82q-45 145 -45 253q0 53 8 89zM147 1178q51 0 124.5 -14t131.5 -34v-81q-57 -18 -131 -30.5t-125 -12.5q-52 0 -88 8v155q40 9 88 9zM805 1178q47 0 88 -9v-155q-36 -8 -88 -8q-51 0 -125 12.5t-131 30.5v81
q58 20 131.5 34t124.5 14zM436 1012h82q41 -135 41 -271q0 -31 -1.5 -66.5t-3.5 -61.5t-7 -75t-7.5 -70.5t-10.5 -88.5t-11 -90h-82q-3 23 -11 90t-10.5 88.5t-7.5 70.5t-7 75t-3.5 61.5t-1.5 66.5q0 144 41 271z" />
    <glyph glyph-name="daggerdbl" unicode="&#x2021;" horiz-adv-x="993" 
d="M420 1516h155q11 -37 11 -89q0 -114 -47 -253h-82q-45 145 -45 253q0 53 8 89zM168 1178q51 0 124.5 -14t131.5 -34v-81q-57 -18 -131 -30.5t-125 -12.5q-52 0 -88 8v155q41 9 88 9zM825 1178q47 0 88 -9v-155q-36 -8 -88 -8q-51 0 -125 12.5t-131 30.5v81
q58 20 131.5 34t124.5 14zM457 1012h82q41 -132 41 -254t-41 -254h-82q-41 132 -41 254t41 254zM168 510q51 0 125 -12.5t131 -30.5v-82q-57 -19 -131 -33t-125 -14q-52 0 -88 8v156q36 8 88 8zM825 510q52 0 88 -8v-156q-36 -8 -88 -8q-51 0 -125 14t-131 33v82
q57 18 131 30.5t125 12.5zM457 342h82q19 -57 33 -130t14 -124t-11 -88h-155q-8 36 -8 88q0 109 45 254z" />
    <glyph glyph-name="bullet" unicode="&#x2022;" horiz-adv-x="823" 
d="M412 860q127 0 194.5 -68.5t67.5 -191.5t-67.5 -192.5t-194.5 -69.5q-126 0 -194 69.5t-68 192.5t68 191.5t194 68.5z" />
    <glyph glyph-name="ellipsis" unicode="&#x2026;" horiz-adv-x="1566" 
d="M1329 252q32 0 64 -8q43 -58 43 -121q0 -65 -39 -123h-180l-37 219q64 33 149 33zM279 252q31 0 63 -8q43 -58 43 -121q0 -65 -39 -123h-180l-37 219q64 33 150 33zM801 252q31 0 63 -8q43 -58 43 -121q0 -65 -39 -123h-180l-37 219q64 33 150 33z" />
    <glyph glyph-name="perthousand" unicode="&#x2030;" horiz-adv-x="2473" 
d="M2071 731q151 0 228 -102t77 -264q0 -178 -89.5 -285t-242.5 -107q-150 0 -226.5 102t-76.5 265q0 178 89 284.5t241 106.5zM2060 643q-73 0 -110 -68.5t-37 -220.5t37 -220t110 -68q72 0 109 68t37 220q0 289 -146 289zM1311 1231l10 -27q-45 -69 -124.5 -188.5
t-147 -224.5t-129.5 -207q-50 -82 -176 -302t-205 -345l-101 47l-10 26q238 358 401 621q78 128 203 345.5t176 303.5zM426 1247q151 0 228 -102t77 -264q0 -178 -89.5 -285t-242.5 -107q-150 0 -226.5 102t-76.5 265q0 178 89 284.5t241 106.5zM416 1157
q-73 0 -110.5 -68.5t-37.5 -220.5t37.5 -220t110.5 -68q72 0 108.5 68t36.5 220t-36.5 220.5t-108.5 68.5zM1341 731q151 0 228.5 -102t77.5 -264q0 -178 -89.5 -285t-242.5 -107q-150 0 -226.5 102t-76.5 265q0 178 89 284.5t240 106.5zM1331 641q-73 0 -110 -68.5
t-37 -220.5t37 -220.5t110 -68.5q146 0 146 289t-146 289z" />
    <glyph glyph-name="minute" unicode="&#x2032;" horiz-adv-x="509" 
d="M403 1446l-182 -459h-117l91 481q103 21 180 21z" />
    <glyph glyph-name="second" unicode="&#x2033;" horiz-adv-x="907" 
d="M403 1446l-182 -459h-117l91 481q103 21 180 21zM801 1446l-183 -459h-116l90 481q103 21 180 21z" />
    <glyph glyph-name="uni2034" unicode="&#x2034;" horiz-adv-x="1271" 
d="M403 1446l-182 -459h-117l91 481q103 21 180 21zM784 1446l-182 -459h-117l90 481q103 21 181 21zM1165 1446l-182 -459h-117l90 481q103 21 181 21z" />
    <glyph glyph-name="guilsinglleft" unicode="&#x2039;" horiz-adv-x="677" 
d="M514 891l-176 -326l178 -325l-88 -62l-313 369v37l311 368z" />
    <glyph glyph-name="guilsinglright" unicode="&#x203a;" horiz-adv-x="677" 
d="M563 584v-37l-313 -369l-88 62l178 325l-176 326l88 61z" />
    <glyph glyph-name="fraction" unicode="&#x2044;" horiz-adv-x="514" 
d="M729 1362l10 -27q-308 -466 -436 -676q-64 -105 -200 -340.5t-218 -367.5l-102 49l-10 27q323 488 440 682q70 112 203.5 343.5t212.5 358.5z" />
    <glyph glyph-name="uni2070" unicode="&#x2070;" horiz-adv-x="763" 
d="M393 1501q139 0 212 -99t73 -257q0 -169 -81.5 -272t-221.5 -103q-142 0 -215.5 99.5t-73.5 258.5q0 168 83.5 270.5t223.5 102.5zM383 1423q-73 0 -110 -66.5t-37 -217.5q0 -155 37 -224t110 -69q147 0 147 293q0 150 -37.5 217t-109.5 67z" />
    <glyph glyph-name="uni2074" unicode="&#x2074;" horiz-adv-x="643" 
d="M602 907h-117v-121h-129v121h-309l-6 54q106 244 215 544l121 -43l6 -18q-128 -256 -244 -447l6 -14q96 14 142 14h69v213l88 19l41 -2v-230h117v-90z" />
    <glyph glyph-name="uni2075" unicode="&#x2075;" horiz-adv-x="638" 
d="M526 1501l23 -51q-73 -86 -205 -86q-68 0 -141 25l-19 -172q84 24 152 24q96 0 166.5 -60.5t70.5 -156.5q0 -106 -81.5 -180t-208.5 -74q-90 0 -153.5 37.5t-63.5 103.5q0 51 38 76h101l18 -135q54 -6 58 -6q65 0 104 37.5t39 111.5q0 70 -41 106t-133 40l-139 8l12 338
l92 14q63 -24 139 -24q67 0 172 24z" />
    <glyph glyph-name="uni2076" unicode="&#x2076;" horiz-adv-x="720" 
d="M432 1249q92 0 154.5 -61t62.5 -158q0 -108 -80 -184t-202 -76q-132 0 -206.5 91.5t-74.5 244.5q0 97 31 173.5t85 124t123.5 72.5t149.5 25q59 0 105 -12l-5 -62q-162 3 -243 -55t-96 -196h20q70 73 176 73zM371 846q60 0 94.5 39.5t34.5 122.5q0 147 -121 147
q-39 0 -71.5 -17.5t-69.5 -54.5v-8q0 -229 133 -229z" />
    <glyph glyph-name="uni2077" unicode="&#x2077;" horiz-adv-x="581" 
d="M559 1475l10 -52q-231 -353 -268 -518l27 -119l-101 -34q-35 13 -54 46t-19 70q0 71 70.5 186t228.5 328l-4 15l-295 -25l-17 -90h-76q-10 55 -10 119q0 43 8 74h500z" />
    <glyph glyph-name="uni2078" unicode="&#x2078;" horiz-adv-x="704" 
d="M469 1174v-15q145 -60 145 -186q0 -68 -40.5 -115.5t-100 -67.5t-129.5 -20q-110 0 -182 50t-72 141q0 117 137 169v17q-123 57 -123 168q0 48 24.5 85.5t64 58.5t83.5 31.5t89 10.5q96 0 166.5 -46.5t70.5 -129.5q0 -34 -12 -60.5t-34 -44t-41.5 -27.5t-45.5 -19z
M356 1427q-55 0 -82.5 -27t-27.5 -73q0 -37 26.5 -65t98.5 -56l26 -8q18 13 25 19t20 21t18 34t5 45q0 110 -109 110zM350 844q60 0 92.5 32t32.5 87q0 46 -33.5 76.5t-124.5 60.5l-22 6q-68 -48 -68 -135q0 -127 123 -127z" />
    <glyph glyph-name="uni2079" unicode="&#x2079;" horiz-adv-x="720" 
d="M352 1501q134 0 208.5 -91t74.5 -243q0 -98 -31 -175t-85 -124.5t-123.5 -72.5t-149.5 -25q-60 0 -107 12l4 62q164 -3 245.5 55.5t94.5 196.5h-18q-71 -74 -176 -74q-92 0 -154.5 61.5t-62.5 159.5q0 111 79 184.5t201 73.5zM342 1114q40 0 72 17.5t69 56.5v6
q0 231 -135 231q-59 0 -93 -39t-34 -122q0 -150 121 -150z" />
    <glyph glyph-name="uni2080" unicode="&#x2080;" horiz-adv-x="763" 
d="M393 559q139 0 212 -99t73 -257q0 -169 -81.5 -272t-221.5 -103q-142 0 -215.5 99.5t-73.5 258.5q0 168 83.5 270.5t223.5 102.5zM383 481q-73 0 -110 -66.5t-37 -217.5q0 -155 37 -224t110 -69q147 0 147 293q0 150 -37.5 217t-109.5 67z" />
    <glyph glyph-name="uni2081" unicode="&#x2081;" horiz-adv-x="505" 
d="M471 -74v-69h-408v69l140 21v465q-49 -15 -144 -15v78q140 5 205 96l70 -2v-635h2z" />
    <glyph glyph-name="uni2082" unicode="&#x2082;" horiz-adv-x="606" 
d="M555 -61q0 -51 -6 -76v-6h-504l-8 80q50 40 69 54.5t65.5 54t67 61.5t54 60.5t48.5 68t27.5 67.5t12.5 74q0 119 -113 119q-32 0 -59 -11l-21 -143h-100q-41 24 -41 76q0 66 69 109.5t169 43.5q114 0 179.5 -55.5t65.5 -140.5q0 -41 -19.5 -84t-48.5 -80t-82.5 -85
t-101 -85t-124.5 -94l6 -15q110 15 141 17l148 12l10 70h86q10 -39 10 -92z" />
    <glyph glyph-name="uni2083" unicode="&#x2083;" horiz-adv-x="653" 
d="M299 571q113 0 177.5 -52t64.5 -136q0 -109 -125 -150v-18q147 -39 147 -158q0 -96 -80.5 -156.5t-206.5 -60.5q-96 0 -160.5 37.5t-64.5 102.5q0 50 37 77h100l21 -135q54 -6 63 -6q146 0 146 137q0 65 -34 98t-116 33h-57v72h119q65 40 65 131q0 60 -28 84.5t-84 24.5
q-33 0 -70 -11l-16 -131h-93q-41 30 -41 74q0 62 69 102.5t167 40.5z" />
    <glyph glyph-name="uni2084" unicode="&#x2084;" horiz-adv-x="643" 
d="M602 -35h-117v-121h-129v121h-309l-6 53q104 239 215 545l121 -43l6 -18q-128 -256 -244 -447l6 -14q96 14 142 14h69v213l88 19l41 -2v-230h117v-90z" />
    <glyph glyph-name="uni2085" unicode="&#x2085;" horiz-adv-x="638" 
d="M526 559l23 -51q-73 -86 -205 -86q-71 0 -141 24l-19 -172q87 25 152 25q96 0 166.5 -60.5t70.5 -156.5q0 -106 -81.5 -180t-208.5 -74q-90 0 -153.5 37.5t-63.5 103.5q0 51 38 76h101l18 -135q54 -6 58 -6q65 0 104 37.5t39 111.5q0 70 -41 106t-133 40l-139 8l12 338
l92 14q63 -24 139 -24q67 0 172 24z" />
    <glyph glyph-name="uni2086" unicode="&#x2086;" horiz-adv-x="720" 
d="M432 307q92 0 154.5 -61t62.5 -158q0 -108 -80 -184t-202 -76q-132 0 -206.5 91.5t-74.5 244.5q0 97 31 173.5t85 124t123.5 72.5t149.5 25q59 0 105 -12l-5 -62q-162 3 -243 -55.5t-96 -196.5h20q71 74 176 74zM371 -96q60 0 94.5 39.5t34.5 122.5q0 147 -121 147
q-39 0 -71.5 -17.5t-69.5 -54.5v-8q0 -229 133 -229z" />
    <glyph glyph-name="uni2087" unicode="&#x2087;" horiz-adv-x="581" 
d="M559 532l10 -51q-231 -353 -268 -518l27 -119l-101 -34q-35 13 -54 46t-19 70q0 71 70.5 186t228.5 328l-4 15l-295 -25l-17 -90h-76q-10 55 -10 119q0 42 8 73h500z" />
    <glyph glyph-name="uni2088" unicode="&#x2088;" horiz-adv-x="704" 
d="M469 233v-14q145 -60 145 -186q0 -68 -40.5 -115.5t-100 -67.5t-129.5 -20q-110 0 -182 49.5t-72 140.5q0 118 137 170v17q-123 57 -123 168q0 48 24.5 85.5t64 58.5t83.5 31.5t89 10.5q96 0 166.5 -46.5t70.5 -129.5q0 -64 -38 -98t-95 -54zM356 487q-55 0 -82.5 -27
t-27.5 -73q0 -37 26.5 -65t98.5 -56l26 -8q18 13 25 19t20 21t18 34t5 45q0 110 -109 110zM350 -96q60 0 92.5 32t32.5 87q0 46 -33.5 76.5t-124.5 60.5l-22 6q-68 -48 -68 -135q0 -127 123 -127z" />
    <glyph glyph-name="uni2089" unicode="&#x2089;" horiz-adv-x="720" 
d="M352 561q134 0 208.5 -91t74.5 -243q0 -98 -31 -175t-85 -124.5t-123.5 -72.5t-149.5 -25q-60 0 -107 12l4 62q164 -3 245.5 55.5t94.5 196.5h-18q-71 -74 -176 -74q-92 0 -154.5 61.5t-62.5 159.5q0 111 79 184.5t201 73.5zM342 174q40 0 72 17.5t69 56.5v6
q0 231 -135 231q-59 0 -93 -39t-34 -122q0 -150 121 -150z" />
    <glyph glyph-name="Euro" unicode="&#x20ac;" horiz-adv-x="1200" 
d="M1077 231l41 -69q-148 -189 -397 -189q-201 0 -328.5 121t-165.5 326h-149v106h137q-2 20 -2 64q0 62 6 117h-141v106h162q51 201 187.5 317.5t336.5 116.5q89 0 162 -21.5t124.5 -75.5t51.5 -134q0 -76 -58 -123h-131l-30 233q-72 13 -119 13q-265 0 -324 -326h363v-106
h-375q-4 -66 -4 -101q0 -55 2 -80h377v-106h-365q27 -161 105 -236t205 -75q184 0 329 122z" />
    <glyph glyph-name="uni20B9" unicode="&#x20b9;" horiz-adv-x="956" 
d="M610 1112l-4 -16q109 -51 133 -162h138v-109h-129q-7 -145 -102.5 -224t-272.5 -105l-4 -23q42 -37 77.5 -70.5t72.5 -70.5t58 -59t65 -69t63 -67l135 -51l-9 -76q-70 -26 -141 -26q-128 0 -198 61q-45 41 -157 177.5t-233 303.5l35 64h250q123 55 135 235h-444v109h438
q-23 113 -121 178h-317v109h799v-109h-267z" />
    <glyph glyph-name="uni20BA" unicode="&#x20ba;" horiz-adv-x="1067" 
d="M874 541l121 10q25 -77 25 -139q0 -85 -34.5 -160.5t-99 -135t-166.5 -94t-228 -34.5q-129 0 -236 28v500l-178 -61l-15 20v88l193 68v182l-178 -61l-15 20v88l193 68v284q80 22 164 25l29 -25v-217l301 105l12 -23v-88l-313 -108v-183l301 105l12 -23v-88l-313 -108
v-488h20q80 0 148 22t115 59.5t80.5 87.5t49 104.5t15.5 111.5q0 12 -1.5 32t-1.5 28z" />
    <glyph glyph-name="uni20BD" unicode="&#x20bd;" horiz-adv-x="1130" 
d="M467 553v-176h440v-109h-440v-157h2l199 -11v-100h-555v100l159 31v137h-209v109h209v176h-209v113h209v446l-159 12v97q225 10 489 10q232 0 340.5 -80.5t108.5 -243.5q0 -178 -117.5 -266t-329.5 -88h-137zM467 666h117q136 0 197 55t61 176q0 118 -60 170.5t-198 52.5
h-117v-454z" />
    <glyph glyph-name="afii61289" unicode="&#x2113;" horiz-adv-x="813" 
d="M711 176l43 -67q-110 -136 -275 -136q-137 0 -212.5 83t-86.5 214q-69 -37 -139 -57l-23 92q82 29 160 78v618q0 129 15.5 225.5t50 169t94.5 109.5t145 37q120 0 171 -77.5t51 -245.5q0 -99 -16 -198.5t-52 -212t-105.5 -226.5t-166.5 -211v-52q0 -115 44 -173t117 -58
q85 0 185 88zM471 1436q-27 0 -45 -11.5t-30.5 -36.5t-19 -73t-9 -112t-2.5 -163v-522q200 271 200 688q0 134 -22 182t-72 48z" />
    <glyph glyph-name="afii61352" unicode="&#x2116;" horiz-adv-x="2242" 
d="M1358 1393q66 0 108 -29l4 -104l-206 -64q-30 -75 -43 -161.5t-13 -237.5q0 -188 29 -795l-145 -25l-35 3l-510 847q-52 89 -127 250h-21q29 -445 29 -719q0 -111 -21 -189t-59.5 -119.5t-84.5 -59t-105 -17.5q-58 0 -88 14.5t-52 39.5l17 104h223q18 53 23.5 108.5
t5.5 155.5q0 127 -21 713l-164 12v101h437l471 -801q24 -42 69 -139h21q-31 451 -31 612q0 257 71.5 378.5t217.5 121.5zM1823 1241q104 0 178 -51.5t107.5 -131t33.5 -175.5q0 -164 -95.5 -269.5t-250.5 -105.5q-153 0 -236 102.5t-83 253.5q0 165 95 271t251 106z
M1808 1151q-86 0 -128 -68t-42 -209q0 -276 172 -276q87 0 128.5 67t41.5 207q0 279 -172 279zM2025 178h-430v131h430v-131z" />
    <glyph glyph-name="uni2117" unicode="&#x2117;" horiz-adv-x="1617" 
d="M821 1389q311 0 504 -192t193 -505q0 -215 -95 -380t-258 -252t-368 -87t-363.5 88t-246 248t-87.5 367q0 215 95 378.5t258 249t368 85.5zM809 76q253 0 410 166t157 442q0 274 -157 438t-410 164t-410 -164t-157 -438q0 -275 157 -441.5t410 -166.5zM831 1079
q180 0 275.5 -72.5t95.5 -205.5q0 -108 -76 -184t-178 -76q-66 0 -114 14v86h8q86 0 121.5 39.5t35.5 124.5q0 91 -41.5 129.5t-146.5 38.5h-27v-596l117 -8v-88h-401v88l108 24v574h-2l-110 8v94q176 10 335 10z" />
    <glyph glyph-name="trademark" unicode="&#x2122;" horiz-adv-x="1746" 
d="M33 1362h629q4 -31 4 -92q0 -71 -7 -125h-90l-18 129l-129 6v-608l100 -6v-74h-354v72l104 18v598l-129 -6l-18 -129h-90q-6 47 -6 125q0 61 4 92zM1706 664v-72h-338v70l96 20q0 339 -6 588h-20q-12 -53 -41 -148l-144 -485l-96 -25h-29l-161 525q-21 64 -35 133h-21
q0 -33 -3.5 -260.5t-4.5 -337.5l113 -8v-72h-314v70l103 20q14 438 26 600l-96 8v72h322q113 -384 149 -555h21q58 256 157 555h293v-70l-92 -16q23 -403 27 -606z" />
    <glyph glyph-name="Omega" unicode="&#x2126;" horiz-adv-x="1468" 
d="M1303 324l120 -13q7 -51 7 -100q0 -81 -17 -211h-549v313q277 139 277 482q0 225 -107.5 349t-298.5 124q-193 0 -300 -123t-107 -348q0 -350 278 -484v-313h-551q-16 98 -16 211q0 42 4 100l123 13l31 -142l299 -18v108q-79 21 -148 64t-125.5 107t-89.5 155.5
t-33 198.5q0 122 43 229t123 188t204.5 128t277.5 47t273.5 -47t195 -128t113 -185t38.5 -224q0 -201 -105.5 -341.5t-289.5 -193.5v-106l299 18z" />
    <glyph glyph-name="estimated" unicode="&#x212e;" horiz-adv-x="1308" 
d="M293 500v-297q64 -92 168.5 -137.5t222.5 -45.5q139 0 252.5 56.5t185.5 138.5l25 -33q-82 -98 -202.5 -153.5t-264.5 -55.5q-167 0 -303.5 72t-213.5 196t-77 273q0 147 76 271.5t207 197t286 72.5q154 0 285 -72.5t207 -196.5t76 -270v-16h-930zM655 1008
q-108 0 -203.5 -48.5t-158.5 -134.5v-282h721v282q-64 91 -159 137t-200 46z" />
    <glyph glyph-name="uni2150" unicode="&#x2150;" horiz-adv-x="1804" 
d="M1341 1362l11 -27q-321 -486 -437 -676q-65 -106 -200 -341.5t-217 -366.5l-103 49l-10 27q323 488 440 682q70 112 203.5 343.5t212.5 358.5zM571 614v-84h-493v84l168 25v557q-63 -16 -172 -16v92q171 9 248 117l84 -5v-761zM1778 831l12 -61q-275 -421 -322 -620
l35 -144l-123 -43q-44 16 -67 55.5t-23 83.5q0 86 87.5 227t275.5 388l-6 18l-355 -28l-16 -107h-92q-13 67 -13 143q0 44 9 88h598z" />
    <glyph glyph-name="uni2151" unicode="&#x2151;" horiz-adv-x="1896" 
d="M1341 1362l11 -27q-321 -486 -437 -676q-65 -106 -200 -341.5t-217 -366.5l-103 49l-10 27q323 488 440 682q70 112 203.5 343.5t212.5 358.5zM571 614v-84h-493v84l168 25v557q-63 -16 -172 -16v92q171 9 248 117l84 -5v-761zM1460 858q161 0 250.5 -108.5t89.5 -290.5
q0 -117 -37.5 -209.5t-102 -150t-147 -87.5t-176.5 -30q-68 0 -129 14l4 74q198 -3 295.5 65t110.5 234h-21q-88 -88 -208 -88q-112 0 -188.5 79.5t-76.5 192.5q0 124 92.5 214.5t243.5 90.5zM1450 389q47 0 85 21.5t83 66.5v15q0 274 -160 274q-70 0 -110.5 -47.5
t-40.5 -145.5q0 -92 37.5 -138t105.5 -46z" />
    <glyph glyph-name="uni2152" unicode="&#x2152;" horiz-adv-x="2621" 
d="M1341 1362l11 -27q-321 -486 -437 -676q-65 -106 -200 -341.5t-217 -366.5l-103 49l-10 27q323 488 440 682q70 112 203.5 343.5t212.5 358.5zM571 614v-84h-493v84l168 25v557q-63 -16 -172 -16v92q171 9 248 117l84 -5v-761zM2179 858q112 0 191 -57.5t116 -152.5
t37 -218q0 -202 -99 -325t-267 -123q-112 0 -191.5 57.5t-116.5 152t-37 216.5q0 204 99.5 327t267.5 123zM2169 766q-88 0 -132 -80.5t-44 -263.5q0 -186 44 -268t132 -82q86 0 130 82t44 268q0 183 -44 263.5t-130 80.5zM1675 84v-84h-493v84l168 25v557q-67 -17 -172 -17
v92q170 9 247 117l84 -4v-762z" />
    <glyph glyph-name="onethird" unicode="&#x2153;" horiz-adv-x="1867" 
d="M1341 1362l11 -27q-321 -486 -437 -676q-65 -106 -200 -341.5t-217 -366.5l-103 49l-10 27q323 488 440 682q70 112 203.5 343.5t212.5 358.5zM571 614v-84h-493v84l168 25v557q-63 -16 -172 -16v92q171 9 248 117l84 -5v-761zM1589 449v-21q178 -46 178 -186
q0 -115 -97.5 -187.5t-250.5 -72.5q-115 0 -191.5 43.5t-76.5 121.5q0 62 45 95h121l24 -164q40 -8 76 -8q174 0 174 163q0 79 -41 120.5t-139 41.5h-68v84h140q82 55 82 158q0 131 -133 131q-44 0 -84 -12l-21 -158h-113q-49 34 -49 88q0 74 82.5 123t202.5 49
q133 0 211 -62.5t78 -162.5q0 -130 -150 -184z" />
    <glyph glyph-name="twothirds" unicode="&#x2154;" horiz-adv-x="1980" 
d="M1454 1362l10 -27q-308 -466 -436 -676q-64 -105 -200 -340.5t-218 -367.5l-102 49l-10 27q323 488 440 682q70 112 203.5 343.5t212.5 358.5zM551 739h102q15 -53 15 -110q0 -39 -11 -99h-604l-10 95q12 10 38 31q57 47 87.5 72.5t82.5 73t81 83.5t60.5 82.5t46 93.5
t14.5 94q0 72 -34.5 107.5t-94.5 35.5q-36 0 -74 -12l-25 -174h-121q-49 34 -49 92q0 77 83.5 131t203.5 54q134 0 213.5 -68t79.5 -168q0 -50 -23.5 -101.5t-58 -95.5t-99 -101.5t-121 -101.5t-149.5 -112l6 -18q116 17 170 20l179 12zM1702 449v-21q178 -46 178 -186
q0 -115 -97.5 -187.5t-250.5 -72.5q-115 0 -191.5 43.5t-76.5 121.5q0 62 45 95h121l24 -164q40 -8 76 -8q174 0 174 163q0 79 -41 120.5t-139 41.5h-68v84h139q82 55 82 158q0 131 -133 131q-44 0 -84 -12l-20 -158h-113q-49 34 -49 88q0 74 82.5 123t202.5 49
q133 0 210.5 -62.5t77.5 -162.5q0 -131 -149 -184z" />
    <glyph glyph-name="uni2155" unicode="&#x2155;" horiz-adv-x="1800" 
d="M1341 1362l11 -27q-321 -486 -437 -676q-65 -106 -200 -341.5t-217 -366.5l-103 49l-10 27q323 488 440 682q70 112 203.5 343.5t212.5 358.5zM571 614v-84h-493v84l168 25v557q-63 -16 -172 -16v92q171 9 248 117l84 -5v-761zM1442 547q117 0 199.5 -73t82.5 -191
q0 -126 -98 -213.5t-252 -87.5q-108 0 -184 44.5t-76 123.5q0 60 49 92h119l23 -164q40 -8 65 -8q79 0 126.5 45.5t47.5 134.5q0 83 -49 125.5t-156 48.5l-172 10l15 406l112 18q82 -29 168 -29q82 0 207 29l27 -61q-87 -103 -246 -103q-81 0 -170 29l-23 -207
q114 31 185 31z" />
    <glyph glyph-name="uni2156" unicode="&#x2156;" horiz-adv-x="1912" 
d="M1454 1362l10 -27q-308 -466 -436 -676q-64 -105 -200 -340.5t-218 -367.5l-102 49l-10 27q323 488 440 682q70 112 203.5 343.5t212.5 358.5zM551 739h102q15 -53 15 -110q0 -39 -11 -99h-604l-10 95q12 10 38 31q57 47 87.5 72.5t82.5 73t81 83.5t60.5 82.5t46 93.5
t14.5 94q0 72 -34.5 107.5t-94.5 35.5q-36 0 -74 -12l-25 -174h-121q-49 34 -49 92q0 77 83.5 131t203.5 54q134 0 213.5 -68t79.5 -168q0 -50 -23.5 -101.5t-58 -95.5t-99 -101.5t-121 -101.5t-149.5 -112l6 -18q116 17 170 20l179 12zM1554 547q117 0 200 -73t83 -191
q0 -126 -98 -213.5t-252 -87.5q-108 0 -184 44.5t-76 123.5q0 60 49 92h119l22 -164q40 -8 66 -8q79 0 126.5 45.5t47.5 134.5q0 83 -49 125.5t-156 48.5l-172 10l14 406l113 18q82 -29 168 -29q82 0 207 29l26 -61q-87 -103 -245 -103q-81 0 -170 29l-23 -207
q114 31 184 31z" />
    <glyph glyph-name="uni2157" unicode="&#x2157;" horiz-adv-x="1890" 
d="M1432 1362l10 -27q-308 -466 -436 -676q-64 -105 -200 -340.5t-218 -367.5l-103 49l-10 27q323 488 440 682q70 112 203.5 343.5t212.5 358.5zM496 979v-21q178 -46 178 -186q0 -115 -97.5 -187.5t-250.5 -72.5q-115 0 -192 44t-77 122q0 61 45 94h121l25 -164
q40 -8 76 -8q174 0 174 164q0 78 -41.5 120t-139.5 42h-67v84h139q82 55 82 157q0 131 -133 131q-44 0 -84 -12l-21 -158h-112q-49 34 -49 89q0 74 82 123t202 49q133 0 211 -63t78 -163q0 -131 -149 -184zM1532 547q117 0 200 -73t83 -191q0 -126 -98.5 -213.5
t-252.5 -87.5q-108 0 -184 44.5t-76 123.5q0 60 49 92h119l23 -164q40 -8 65 -8q79 0 126.5 45.5t47.5 134.5q0 83 -48.5 125.5t-155.5 48.5l-173 10l15 406l112 18q82 -29 168 -29q82 0 207 29l27 -61q-87 -103 -246 -103q-81 0 -170 29l-22 -207q114 31 184 31z" />
    <glyph glyph-name="uni2158" unicode="&#x2158;" horiz-adv-x="1912" 
d="M1454 1362l10 -27q-308 -466 -436 -676q-64 -105 -200 -340.5t-218 -367.5l-102 49l-10 27q323 488 440 682q70 112 203.5 343.5t212.5 358.5zM717 672h-137v-142h-154v142h-373l-8 65q149 346 260 656l146 -52l6 -22q-157 -322 -293 -537l6 -18q94 16 170 16h86v256
l104 23l50 -4v-275h137v-108zM1554 547q117 0 200 -73t83 -191q0 -126 -98 -213.5t-252 -87.5q-108 0 -184 44.5t-76 123.5q0 60 49 92h119l22 -164q40 -8 66 -8q79 0 126.5 45.5t47.5 134.5q0 83 -49 125.5t-156 48.5l-172 10l14 406l113 18q82 -29 168 -29q82 0 207 29
l26 -61q-87 -103 -245 -103q-81 0 -170 29l-23 -207q114 31 184 31z" />
    <glyph glyph-name="uni2159" unicode="&#x2159;" horiz-adv-x="1835" 
d="M1341 1362l11 -27q-321 -486 -437 -676q-65 -106 -200 -341.5t-217 -366.5l-103 49l-10 27q323 488 440 682q70 112 203.5 343.5t212.5 358.5zM571 614v-84h-493v84l168 25v557q-63 -16 -172 -16v92q171 9 248 117l84 -5v-761zM1489 559q112 0 189 -79.5t77 -190.5
q0 -123 -98 -215t-244 -92q-157 0 -245.5 108.5t-88.5 292.5q0 116 37.5 208t102 149.5t146.5 87.5t175 30q66 0 131 -14l-4 -74q-197 3 -294.5 -65.5t-110.5 -233.5h20q88 88 207 88zM1421 70q68 0 110 49t42 145q0 182 -143 182q-85 0 -168 -86v-16q0 -274 159 -274z" />
    <glyph glyph-name="uni215A" unicode="&#x215a;" horiz-adv-x="1921" 
d="M1427 1362l11 -27q-321 -486 -437 -676q-65 -106 -200 -341.5t-217 -366.5l-103 49l-10 27q323 488 440 682q70 112 203.5 343.5t212.5 358.5zM403 1077q117 0 200 -73t83 -191q0 -126 -98 -213.5t-252 -87.5q-108 0 -184 44.5t-76 123.5q0 60 49 92h119l22 -164
q40 -8 66 -8q79 0 126.5 45.5t47.5 134.5q0 83 -49 125.5t-156 48.5l-172 11l14 405l113 19q82 -29 168 -29q82 0 207 29l26 -62q-86 -102 -245 -102q-84 0 -170 28l-23 -206q111 30 184 30zM1575 559q112 0 189 -79.5t77 -190.5q0 -123 -98 -215t-244 -92
q-157 0 -245.5 108.5t-88.5 292.5q0 116 37.5 208t102 149.5t146.5 87.5t175 30q66 0 131 -14l-4 -74q-197 3 -294.5 -65.5t-110.5 -233.5h20q88 88 207 88zM1507 70q68 0 110 49t42 145q0 182 -143 182q-85 0 -168 -86v-16q0 -274 159 -274z" />
    <glyph glyph-name="oneeighth" unicode="&#x215b;" horiz-adv-x="1873" 
d="M1341 1362l11 -27q-321 -486 -437 -676q-65 -106 -200 -341.5t-217 -366.5l-103 49l-10 27q323 488 440 682q70 112 203.5 343.5t212.5 358.5zM571 614v-84h-493v84l168 25v557q-63 -16 -172 -16v92q171 9 248 117l84 -5v-761zM1597 465v-21q175 -73 175 -221
q0 -62 -28 -110t-75 -75.5t-103.5 -41.5t-119.5 -14q-133 0 -219 59t-86 168q0 143 164 203v22q-148 68 -148 199q0 59 29 104t76.5 70.5t99.5 38t106 12.5q75 0 139.5 -22.5t107 -72t42.5 -116.5q0 -41 -14.5 -73t-41.5 -53t-49 -32.5t-55 -23.5zM1458 770q-63 0 -97 -33
t-34 -88q0 -51 33.5 -81t118.5 -62l30 -12q26 18 39.5 30.5t27 42t13.5 68.5q0 135 -131 135zM1452 70q71 0 110.5 37t39.5 102q0 60 -39.5 94t-147.5 72l-24 8q-84 -58 -84 -162q0 -151 145 -151z" />
    <glyph glyph-name="threeeighths" unicode="&#x215c;" horiz-adv-x="1964" 
d="M1432 1362l10 -27q-308 -466 -436 -676q-64 -105 -200 -340.5t-218 -367.5l-103 49l-10 27q323 488 440 682q70 112 203.5 343.5t212.5 358.5zM496 979v-21q178 -46 178 -186q0 -115 -97.5 -187.5t-250.5 -72.5q-115 0 -192 44t-77 122q0 61 45 94h121l25 -164
q40 -8 76 -8q174 0 174 164q0 78 -41.5 120t-139.5 42h-67v84h139q82 55 82 157q0 131 -133 131q-44 0 -84 -12l-21 -158h-112q-49 34 -49 89q0 74 82 123t202 49q133 0 211 -63t78 -163q0 -131 -149 -184zM1688 465v-21q174 -73 174 -221q0 -62 -28 -110t-75 -75.5
t-103.5 -41.5t-119.5 -14q-133 0 -219 59t-86 168q0 143 164 203v22q-148 68 -148 199q0 59 29 104t76.5 70.5t100 38t106.5 12.5q75 0 139 -22.5t106.5 -72t42.5 -116.5q0 -41 -14 -73t-41 -53t-49.5 -32.5t-54.5 -23.5zM1548 770q-63 0 -97 -33t-34 -88q0 -51 33.5 -81
t118.5 -62l30 -12q26 18 39.5 30.5t27 42t13.5 68.5q0 135 -131 135zM1542 70q71 0 110.5 37t39.5 102q0 60 -39.5 94t-147.5 72l-24 8q-84 -58 -84 -162q0 -151 145 -151z" />
    <glyph glyph-name="fiveeighths" unicode="&#x215d;" horiz-adv-x="1959" 
d="M1427 1362l11 -27q-321 -486 -437 -676q-65 -106 -200 -341.5t-217 -366.5l-103 49l-10 27q323 488 440 682q70 112 203.5 343.5t212.5 358.5zM403 1077q117 0 200 -73t83 -191q0 -126 -98 -213.5t-252 -87.5q-108 0 -184 44.5t-76 123.5q0 60 49 92h119l22 -164
q40 -8 66 -8q79 0 126.5 45.5t47.5 134.5q0 83 -49 125.5t-156 48.5l-172 11l14 405l113 19q82 -29 168 -29q82 0 207 29l26 -62q-86 -102 -245 -102q-84 0 -170 28l-23 -206q111 30 184 30zM1683 465v-21q175 -73 175 -221q0 -62 -28 -110t-75 -75.5t-103.5 -41.5
t-119.5 -14q-133 0 -219 59t-86 168q0 143 164 203v22q-148 68 -148 199q0 59 29 104t76.5 70.5t99.5 38t106 12.5q75 0 139.5 -22.5t107 -72t42.5 -116.5q0 -41 -14.5 -73t-41.5 -53t-49 -32.5t-55 -23.5zM1544 770q-63 0 -97 -33t-34 -88q0 -51 33.5 -81t118.5 -62l30 -12
q26 18 39.5 30.5t27 42t13.5 68.5q0 135 -131 135zM1538 70q71 0 110.5 37t39.5 102q0 60 -39.5 94t-147.5 72l-24 8q-84 -58 -84 -162q0 -151 145 -151z" />
    <glyph glyph-name="seveneighths" unicode="&#x215e;" horiz-adv-x="1736" 
d="M1204 1362l10 -27q-308 -466 -436 -676q-64 -105 -200 -340.5t-218 -367.5l-102 49l-10 27q323 488 440 682q70 112 203.5 343.5t212.5 358.5zM664 1362l12 -62q-275 -421 -322 -620l35 -143l-123 -43q-44 16 -67 55.5t-23 83.5q0 86 87 226t276 388l-7 19l-354 -29
l-16 -107h-92q-13 67 -13 144q0 44 9 88h598zM1460 465v-21q174 -73 174 -221q0 -82 -48.5 -138t-119.5 -79.5t-157 -23.5q-133 0 -219 59t-86 168q0 144 163 203v22q-147 68 -147 199q0 59 29 104t76.5 70.5t99.5 38t106 12.5q75 0 139.5 -22.5t107 -72t42.5 -116.5
q0 -41 -14.5 -73t-41.5 -53t-49 -32.5t-55 -23.5zM1321 770q-63 0 -97 -33t-34 -88q0 -51 33 -81t118 -62l31 -12q26 18 39.5 30.5t27 42t13.5 68.5q0 135 -131 135zM1315 70q71 0 110 37t39 102q0 60 -39 94.5t-147 71.5l-25 8q-84 -58 -84 -162q0 -151 146 -151z" />
    <glyph glyph-name="uni215F" unicode="&#x215f;" horiz-adv-x="1126" 
d="M1341 1362l11 -27q-321 -486 -437 -676q-65 -106 -200 -341.5t-217 -366.5l-103 49l-10 27q323 488 440 682q70 112 203.5 343.5t212.5 358.5zM571 614v-84h-493v84l168 25v557q-63 -16 -172 -16v92q171 9 248 117l84 -5v-761z" />
    <glyph glyph-name="uni2189" unicode="&#x2189;" horiz-adv-x="2017" 
d="M1491 1362l10 -27q-308 -466 -436 -676q-64 -105 -200 -340.5t-218 -367.5l-102 49l-10 27q323 488 440 682q70 112 203.5 343.5t212.5 358.5zM463 1389q112 0 191 -57.5t116 -152.5t37 -218q0 -202 -99.5 -325.5t-267.5 -123.5q-112 0 -191 57.5t-116 152t-37 216.5
q0 204 99.5 327.5t267.5 123.5zM453 1296q-88 0 -132.5 -80.5t-44.5 -263.5q0 -186 44.5 -268t132.5 -82q86 0 130 82t44 268q0 183 -44 263.5t-130 80.5zM1739 449v-21q178 -46 178 -186q0 -115 -97.5 -187.5t-250.5 -72.5q-115 0 -192 43.5t-77 121.5q0 61 46 95h120
l25 -164q40 -8 76 -8q174 0 174 163q0 79 -41 120.5t-139 41.5h-68v84h139q82 55 82 158q0 131 -133 131q-43 0 -84 -12l-20 -158h-113q-49 34 -49 88q0 74 82 123t202 49q133 0 211 -62.5t78 -162.5q0 -131 -149 -184z" />
    <glyph glyph-name="arrowleft" unicode="&#x2190;" horiz-adv-x="1638" 
d="M637 967l18 -13q-69 -205 -100 -309q29 2 102.5 8.5t140 10.5t122.5 4h604v-131h-604q-56 0 -122 4t-140.5 10t-102.5 8q41 -136 100 -307l-18 -12q-352 220 -553 350v24q339 219 553 353z" />
    <glyph glyph-name="arrowup" unicode="&#x2191;" horiz-adv-x="978" 
d="M854 868l-12 -18q-171 59 -307 100q1 -15 10.5 -152.5t9.5 -211.5v-586h-131v584q0 75 9.5 211.5t10.5 154.5q-136 -41 -307 -100l-12 18q45 71 354 549h23q130 -198 352 -549z" />
    <glyph glyph-name="arrowright" unicode="&#x2192;" horiz-adv-x="1638" 
d="M983 954l18 13q214 -134 553 -353v-24q-201 -130 -553 -350l-18 12q59 171 100 307q-28 -2 -102.5 -8t-140 -10t-121.5 -4h-604v131h604q56 0 122 -4t139 -10.5t103 -8.5q-31 104 -100 309z" />
    <glyph glyph-name="arrowdown" unicode="&#x2193;" horiz-adv-x="978" 
d="M842 512l12 -18q-222 -351 -352 -549h-23q-309 478 -354 549l12 18q171 -59 307 -100q-1 18 -10.5 154.5t-9.5 211.5v584h131v-586q0 -74 -9.5 -211.5t-10.5 -152.5q136 41 307 100z" />
    <glyph glyph-name="arrowboth" unicode="&#x2194;" horiz-adv-x="2000" 
d="M1346 954l18 13q214 -134 553 -353v-24q-201 -130 -553 -350l-18 12q56 164 100 305q-19 -1 -147 -10.5t-197 -9.5h-205q-69 0 -197 9.5t-147 10.5q44 -141 100 -305l-18 -12q-292 183 -551 350v24q397 257 551 353l18 -13q-69 -205 -100 -307q26 1 150.5 11t193.5 10
h205q69 0 193.5 -10t150.5 -11q-31 102 -100 307z" />
    <glyph glyph-name="arrowupdn" unicode="&#x2195;" horiz-adv-x="978" 
d="M535 403q111 34 307 101l12 -17q-135 -216 -352 -546h-23q-19 29 -152.5 233t-201.5 313l12 17q182 -63 307 -98q-2 18 -8.5 83t-9 107t-2.5 84q0 43 2.5 84.5t9.5 108.5t8 83q-125 -35 -307 -98l-12 16q51 82 110 173t131.5 201t112.5 173h23q204 -311 352 -547l-12 -16
q-171 59 -307 100q2 -19 8.5 -84.5t9 -108.5t2.5 -85t-3 -84.5t-9 -107.5t-8 -85z" />
    <glyph glyph-name="uni2196" unicode="&#x2196;" horiz-adv-x="1372" 
d="M111 1147l16 16q217 -45 643 -139l2 -20q-243 -122 -291 -146q27 -24 85.5 -74.5t104 -91.5t85.5 -80l557 -544l-94 -95l-555 547q-37 35 -74 76t-96 110.5t-72 84.5q-56 -98 -148 -285l-20 4q-49 211 -143 637z" />
    <glyph glyph-name="uni2197" unicode="&#x2197;" horiz-adv-x="1372" 
d="M1245 1163l17 -16q-75 -340 -144 -637l-20 -4q-92 187 -148 285q-17 -20 -72.5 -85.5t-93.5 -108t-75 -77.5l-555 -547l-95 95l557 544q40 39 85.5 80t104 91.5t85.5 74.5q-48 25 -291 146l2 20q426 94 643 139z" />
    <glyph glyph-name="uni2198" unicode="&#x2198;" horiz-adv-x="1372" 
d="M1262 -12l-17 -17q-142 29 -643 140l-2 20q25 13 130 64.5t161 80.5q-27 24 -85.5 74.5t-104 91.5t-85.5 80l-557 545l95 94l555 -547q37 -35 74 -76t95.5 -109.5t71.5 -84.5q56 98 148 285l20 -4q69 -297 144 -637z" />
    <glyph glyph-name="uni2199" unicode="&#x2199;" horiz-adv-x="1372" 
d="M127 -29l-16 17q94 426 143 637l20 4q92 -187 148 -285q18 21 57.5 67.5t63.5 74t58 64.5t63 64l555 547l94 -94l-557 -545q-40 -39 -85.5 -80t-104 -91.5t-85.5 -74.5q56 -29 161 -80.5t130 -64.5l-2 -20q-501 -111 -643 -140z" />
    <glyph glyph-name="uni21A9" unicode="&#x21a9;" horiz-adv-x="1656" 
d="M637 842l18 -13q-69 -205 -100 -307q25 1 158.5 11t206.5 10h186q140 0 214.5 70t74.5 178t-72.5 177.5t-200.5 69.5h-174v131h174q186 0 302 -108.5t116 -269.5t-119 -270t-317 -109h-184q-74 0 -210.5 9.5t-154.5 10.5q36 -119 100 -305l-18 -12q-352 220 -553 350v24
q339 219 553 353z" />
    <glyph glyph-name="uni21AA" unicode="&#x21aa;" horiz-adv-x="1656" 
d="M1001 829l19 13q214 -134 553 -353v-24q-201 -130 -553 -350l-19 12q73 212 101 305q-18 -1 -154.5 -10.5t-210.5 -9.5h-184q-198 0 -317 109t-119 270t116 269.5t302 108.5h174v-131h-174q-128 0 -200.5 -69.5t-72.5 -177.5t74.5 -178t214.5 -70h186q73 0 206.5 -10
t158.5 -11q-22 71 -101 307z" />
    <glyph glyph-name="uni21BB" unicode="&#x21bb;" horiz-adv-x="1376" 
d="M926 946l55 107q126 -44 214.5 -179.5t88.5 -308.5q0 -159 -78 -295t-215.5 -216.5t-302.5 -80.5q-121 0 -230.5 45.5t-190 124t-128 189.5t-47.5 235q0 156 74 275t205 194q-119 98 -232 187l8 22q426 4 637 4l15 -22q-234 -506 -267 -576h-24q-30 138 -80 312
q-99 -79 -145.5 -172t-46.5 -209q0 -210 132.5 -344t323.5 -134q126 0 229.5 62.5t161.5 169t58 233.5q0 124 -56.5 219.5t-158.5 157.5z" />
    <glyph glyph-name="partialdiff" unicode="&#x2202;" horiz-adv-x="1187" 
d="M627 1540q121 0 212.5 -46t148.5 -131t85.5 -200.5t28.5 -259.5q0 -81 -8.5 -164t-29.5 -176t-52.5 -176.5t-81 -160.5t-112.5 -133t-150 -89t-189 -33q-176 0 -284.5 99t-108.5 295q0 112 37 214.5t103 180t164.5 124t213.5 46.5q88 0 160 -25.5t115 -68.5h20l2 59
q0 500 -379 500q-80 0 -188 -27l-19 82q130 90 312 90zM502 80q75 0 137 39t103.5 100.5t72.5 146t48 165t26 167.5q-93 93 -252 93q-171 0 -257.5 -116t-86.5 -308q0 -287 209 -287z" />
    <glyph glyph-name="emptyset" unicode="&#x2205;" horiz-adv-x="1476" 
d="M1303 1321l-152 -221q106 -89 165.5 -217t59.5 -275q0 -135 -52.5 -254.5t-140.5 -202t-206.5 -130.5t-247.5 -48q-165 0 -301 76l-149 -217l-95 41l-12 25l152 221q-105 90 -164.5 217.5t-59.5 273.5q0 135 53 254.5t141.5 202t206.5 130.5t247 48q162 0 301 -74
l147 215l94 -38zM260 610q0 -234 143 -374l568 823q-108 57 -234 57q-97 0 -183.5 -35.5t-152 -99t-103.5 -160t-38 -211.5zM737 102q98 0 185 35.5t152.5 99.5t104 160.5t38.5 212.5q0 232 -146 375l-567 -825q110 -58 233 -58z" />
    <glyph glyph-name="Delta" unicode="&#x2206;" horiz-adv-x="1204" 
d="M1174 25l-13 -25h-1120l-12 25l497 1337l121 27l25 -3zM233 154h703l-350 966z" />
    <glyph glyph-name="product" unicode="&#x220f;" horiz-adv-x="1470" 
d="M1397 1362v-100l-160 -31h-4v-1368q-72 -17 -162 -23l-43 19v1386h-582v-1382q-75 -17 -163 -23l-43 19v1392l-166 11v100h1323z" />
    <glyph glyph-name="summation" unicode="&#x2211;" horiz-adv-x="1124" 
d="M1018 113q0 -113 -27 -248v-8h-901l-10 53l438 641l-440 760l10 51h903q10 -52 10 -135q0 -97 -12 -170h-127l-31 180l-477 18l-10 -14q104 -159 131 -205l232 -381v-22l-271 -412q-28 -43 -133 -180l10 -14l527 18l43 195l129 -13q6 -87 6 -114z" />
    <glyph glyph-name="minus" unicode="&#x2212;" 
d="M1122 537h-985v131h985v-131z" />
    <glyph glyph-name="uni2219" unicode="&#x2219;" 
d="M629 860q127 0 194.5 -68.5t67.5 -191.5t-67.5 -192.5t-194.5 -69.5q-126 0 -194 69.5t-68 192.5t68 191.5t194 68.5z" />
    <glyph glyph-name="radical" unicode="&#x221a;" horiz-adv-x="1218" 
d="M1153 1577l27 -23q-290 -901 -580 -1695l-133 -29l-25 2q-112 236 -225 508l-199 16v97h355h2q55 -154 162 -385h20q227 664 475 1509h121z" />
    <glyph glyph-name="infinity" unicode="&#x221e;" horiz-adv-x="1828" 
d="M1415 918q89 0 157 -31t105.5 -83t55.5 -110t18 -121q0 -153 -96 -253.5t-248 -100.5q-148 0 -326 127l-190 141h-21q-45 -56 -86.5 -97t-98.5 -83t-125.5 -64t-145.5 -22q-72 0 -130.5 20.5t-96 54.5t-63 79t-36 92.5t-10.5 97.5q0 154 96 254.5t248 100.5
q151 0 326 -127l192 -144h18q46 57 87 98t98 83.5t126 65t146 22.5zM1417 371q79 0 142 52.5t63 156.5q0 89 -55 145.5t-172 56.5q-196 0 -375 -192l141 -105q81 -59 141 -86.5t115 -27.5zM436 356q194 0 375 191l-143 106q-82 60 -140.5 87.5t-111.5 27.5
q-36 0 -71.5 -11.5t-67 -35t-51 -65t-19.5 -95.5q0 -90 56.5 -147.5t172.5 -57.5z" />
    <glyph glyph-name="integral" unicode="&#x222b;" horiz-adv-x="690" 
d="M567 1542q69 0 123 -14v-103q-61 7 -98 7q-48 0 -80.5 -10t-60 -36.5t-41 -78.5t-13.5 -131q0 -111 42.5 -552t41.5 -558q0 -110 -27.5 -188t-78.5 -120.5t-114 -61t-144 -18.5q-61 0 -117 15v104q35 -6 109 -6q28 1 47.5 3.5t42.5 11t38.5 26t29 44t20 69t6.5 98.5
q0 110 -42.5 553.5t-41.5 558.5q3 387 358 387z" />
    <glyph glyph-name="approxequal" unicode="&#x2248;" 
d="M1067 502l61 -58q-10 -28 -23.5 -55.5t-37.5 -61t-51.5 -58t-67 -41.5t-82.5 -17q-44 0 -93 20t-169 82q-54 28 -131 70.5t-104 56.5l-179 -166l-61 56q13 37 34.5 73.5t53.5 74.5t78 61.5t98 23.5q41 0 93.5 -20t168.5 -82q96 -50 236 -125zM1067 928l61 -58
q-10 -28 -23.5 -55.5t-37.5 -61t-51.5 -58t-67 -41.5t-82.5 -17q-44 0 -93 20t-169 82q-54 28 -131 70.5t-104 56.5l-179 -166l-61 56q13 37 34.5 73.5t53.5 74.5t78 61.5t98 23.5q41 0 93.5 -20t168.5 -82q96 -50 236 -125z" />
    <glyph glyph-name="notequal" unicode="&#x2260;" 
d="M795 741l-174 -278h501v-131h-583l-195 -309l-94 49l-14 22l149 238h-248v131h330l176 278h-506v131h588l190 304l95 -48l14 -22l-147 -234h245v-131h-327z" />
    <glyph glyph-name="lessequal" unicode="&#x2264;" 
d="M1024 999l-641 -305v-20l641 -305l-57 -119l-785 354v160l785 352zM1051 0h-895v131h895v-131z" />
    <glyph glyph-name="greaterequal" unicode="&#x2265;" 
d="M1071 764v-160l-784 -354l-58 119l641 305v20l-641 305l58 117zM1100 0h-895v131h895v-131z" />
    <glyph glyph-name="dotmath" unicode="&#x22c5;" 
d="M651 731q32 0 64 -8q43 -58 43 -121q0 -65 -39 -123h-180l-37 219q64 33 149 33z" />
    <glyph glyph-name="uni24EA" unicode="&#x24ea;" horiz-adv-x="1601" 
d="M801 1389q193 0 356.5 -95t258.5 -258.5t95 -355.5t-95 -355t-258.5 -257.5t-356.5 -94.5q-145 0 -276.5 56t-226.5 150.5t-151.5 225.5t-56.5 275t56.5 275.5t151.5 226.5t226.5 151t276.5 56zM801 1286q-165 0 -303 -83t-215.5 -222t-77.5 -301t77.5 -300.5t215.5 -221
t303 -82.5q123 0 234 48.5t189.5 130t124.5 193t46 232.5t-46 232.5t-124.5 193.5t-189.5 131t-234 49zM813 1083q152 0 233.5 -109.5t81.5 -281.5q0 -186 -90.5 -299.5t-244.5 -113.5q-103 0 -176 53.5t-107.5 141t-34.5 200.5q0 184 92 296.5t246 112.5zM799 997
q-80 0 -121 -74t-41 -239q0 -169 41 -244t121 -75t122 75.5t42 243.5q0 313 -164 313z" />
    <glyph glyph-name="uni24FF" unicode="&#x24ff;" horiz-adv-x="1601" 
d="M801 1389q193 0 356.5 -95t258.5 -258.5t95 -355.5t-95 -355t-258.5 -257.5t-356.5 -94.5q-145 0 -276.5 56t-226.5 150.5t-151.5 225.5t-56.5 275t56.5 275.5t151.5 226.5t226.5 151t276.5 56zM813 1083q-154 0 -246 -112.5t-92 -296.5q0 -113 34.5 -200.5t107.5 -141
t176 -53.5q154 0 244.5 113.5t90.5 299.5q0 172 -81.5 281.5t-233.5 109.5zM799 997q164 0 164 -313q0 -168 -42 -243.5t-122 -75.5t-121 75t-41 244q0 165 41 239t121 74z" />
    <glyph glyph-name="filledbox" unicode="&#x25a0;" horiz-adv-x="1675" 
d="M1464 57h-1253v1250h1253v-1250z" />
    <glyph glyph-name="H22073" unicode="&#x25a1;" horiz-adv-x="1675" 
d="M1464 57h-1253v1250h1253v-1250zM365 1165v-966h948v966h-948z" />
    <glyph glyph-name="H18543" unicode="&#x25aa;" horiz-adv-x="1124" 
d="M952 174h-782v778h782v-778z" />
    <glyph glyph-name="H18551" unicode="&#x25ab;" horiz-adv-x="1124" 
d="M952 174h-782v778h782v-778zM311 821v-516h500v516h-500z" />
    <glyph glyph-name="triagup" unicode="&#x25b2;" horiz-adv-x="1634" 
d="M1550 150l-8 -25h-1448l-8 25l723 1239h25z" />
    <glyph glyph-name="uni25B3" unicode="&#x25b3;" horiz-adv-x="1634" 
d="M1550 150l-8 -25h-1448l-8 25l723 1239h25zM821 1110l-491 -848h977z" />
    <glyph glyph-name="uni25B4" unicode="&#x25b4;" horiz-adv-x="1255" 
d="M1171 197l-8 -25h-1069l-8 25l532 856h25z" />
    <glyph glyph-name="uni25B5" unicode="&#x25b5;" horiz-adv-x="1255" 
d="M1171 197l-8 -25h-1069l-8 25l532 856h25zM629 817l-318 -518h633z" />
    <glyph glyph-name="uni25B6" unicode="&#x25b6;" horiz-adv-x="1400" 
d="M1315 690v-24l-1079 -693l-25 9v1398l25 9z" />
    <glyph glyph-name="uni25B7" unicode="&#x25b7;" horiz-adv-x="1398" 
d="M1315 690v-24l-1079 -693l-25 9v1398l25 9zM352 1149v-938l727 467z" />
    <glyph glyph-name="uni25B8" unicode="&#x25b8;" horiz-adv-x="1097" 
d="M1012 612v-24l-817 -527l-25 9v1065l25 8z" />
    <glyph glyph-name="uni25B9" unicode="&#x25b9;" horiz-adv-x="1097" 
d="M1012 612v-24l-817 -527l-25 9v1065l25 8zM311 905v-608l471 303z" />
    <glyph glyph-name="triagdn" unicode="&#x25bc;" horiz-adv-x="1634" 
d="M1542 1221l8 -25l-716 -1239h-25l-723 1239l8 25h1448z" />
    <glyph glyph-name="uni25BD" unicode="&#x25bd;" horiz-adv-x="1634" 
d="M1542 1235l8 -25l-716 -1239h-25l-723 1239l8 25h1448zM330 1098l491 -848l486 848h-977z" />
    <glyph glyph-name="uni25BE" unicode="&#x25be;" horiz-adv-x="1255" 
d="M1163 1024l8 -25l-528 -856h-25l-532 856l8 25h1069z" />
    <glyph glyph-name="uni25BF" unicode="&#x25bf;" horiz-adv-x="1255" 
d="M1163 1026l8 -25l-528 -856h-25l-532 856l8 25h1069zM311 899l318 -518l315 518h-633z" />
    <glyph glyph-name="uni25C0" unicode="&#x25c0;" horiz-adv-x="1400" 
d="M86 666v24l1079 699l25 -9v-1398l-25 -9z" />
    <glyph glyph-name="uni25C1" unicode="&#x25c1;" horiz-adv-x="1431" 
d="M84 666v24l1079 699l25 -9v-1398l-25 -9zM1047 211v938l-728 -471z" />
    <glyph glyph-name="uni25C2" unicode="&#x25c2;" horiz-adv-x="1097" 
d="M86 588v24l817 531l25 -8v-1065l-25 -9z" />
    <glyph glyph-name="uni25C3" unicode="&#x25c3;" horiz-adv-x="1097" 
d="M86 588v24l817 531l25 -8v-1065l-25 -9zM786 297v608l-471 -305z" />
    <glyph glyph-name="lozenge" unicode="&#x25ca;" horiz-adv-x="1275" 
d="M1192 680v-23l-539 -700h-22l-547 709v22l539 701h24zM631 1157l-367 -473l383 -496l365 474z" />
    <glyph glyph-name="circle" unicode="&#x25cb;" horiz-adv-x="1601" 
d="M805 1389q142 0 272.5 -56t225.5 -150.5t151.5 -224t56.5 -270.5q0 -190 -95.5 -355t-258.5 -262.5t-352 -97.5q-141 0 -273 57.5t-228.5 154t-155 228.5t-58.5 273t58 271.5t154.5 225t228.5 150.5t274 56zM805 1245q-154 0 -282.5 -73t-202.5 -201.5t-74 -284.5
q0 -155 73.5 -286.5t202 -208t283.5 -76.5q154 0 281 76.5t198.5 207.5t71.5 287q0 237 -158 398t-393 161z" />
    <glyph glyph-name="H18533" unicode="&#x25cf;" horiz-adv-x="1601" 
d="M805 1389q142 0 272.5 -56t225.5 -150.5t151.5 -224t56.5 -270.5q0 -189 -95.5 -354t-258.5 -263t-352 -98q-140 0 -272 58t-229 154t-155.5 228t-58.5 273t58 271.5t154.5 225t228.5 150.5t274 56z" />
    <glyph glyph-name="uni2605" unicode="&#x2605;" horiz-adv-x="1636" 
d="M999 860l551 -2l9 -27l-449 -319l166 -524l-19 -13l-440 332l-440 -334l-21 15l166 526l-444 317l8 27l551 4l168 516h24z" />
    <glyph glyph-name="uni2606" unicode="&#x2606;" horiz-adv-x="1636" 
d="M999 860l551 -2l9 -27l-449 -317l166 -526l-19 -13l-440 332l-440 -334l-21 15l166 526l-444 317l8 27l551 4l168 516h24zM731 731h-289l232 -168l-82 -262l223 170l225 -170l-84 262l234 168h-287l-86 262z" />
    <glyph glyph-name="uni261A" unicode="&#x261a;" horiz-adv-x="2318" 
d="M1851 215v639l25 170l362 -20v-1004h-362zM954 1024h242l573 -150v-684q-106 -122 -303 -122q-86 0 -196 24q-144 -136 -207 -176q-95 0 -163 56t-77 134q-164 67 -164 195v2q-131 63 -131 182q0 21 4 37l9.5 9.5t37.5 27.5t75 44t128 57.5t189 68.5l-8 25
q-614 -97 -762 -97q-68 30 -110 73t-42 120q0 10 0.5 19t3 19.5t4 18t5.5 20t5.5 18t7 21t7.5 21.5q511 37 872 37zM371 954l-43 7q-14 -61 -58.5 -78t-148.5 -17l-2 -26q129 -40 190.5 -1t61.5 115zM1067 512l-12 25q-212 -56 -338 -177l55 -45q18 20 40.5 39t57.5 41.5
t56 35.5t72 42t69 39zM1188 309l-12 25q-68 -17 -122 -40t-91 -49.5t-53 -41t-36 -35.5l60 -39q63 75 254 180z" />
    <glyph glyph-name="uni261B" unicode="&#x261b;" horiz-adv-x="2318" 
d="M467 854v-639l-25 -215h-362v1004l362 20zM1122 1024h242q161 0 379 -9t355 -19l138 -9q2 -6 7.5 -21.5t7 -21t5.5 -18t5.5 -20t4 -18t3 -19.5t0.5 -19q0 -41 -13 -73.5t-37 -55t-47 -36.5t-54 -28q-148 0 -762 97l-8 -25q105 -34 188.5 -68t128.5 -58t74.5 -43t38.5 -28
l8 -10q4 -16 4 -37q0 -119 -131 -182v-2q0 -128 -164 -195q-9 -78 -77 -134t-163 -56q-60 38 -206 176q-110 -24 -197 -24q-197 0 -303 122v684zM1991 961l-43 -7q0 -76 61.5 -115t190.5 1l-2 26q-104 0 -148.5 17t-58.5 78zM1264 537l-13 -25q18 -10 69 -39t72 -42
t56 -35.5t57.5 -41.5t40.5 -39l56 45q-126 121 -338 177zM1143 334l-13 -25q191 -105 254 -180l60 39q-20 21 -36 35t-52.5 41t-90.5 50t-122 40z" />
    <glyph glyph-name="uni261C" unicode="&#x261c;" horiz-adv-x="2318" 
d="M84 991q512 37 870 37h242l655 -174l21 174l366 -22v-97h-258q-12 -200 -12 -397q0 -194 12 -393l258 -23v-96h-366l-23 221h-22q-132 -153 -357 -153q-100 0 -198 26q-130 -130 -209 -178q-96 0 -164.5 56.5t-77.5 136.5q-166 67 -166 194v4q-135 63 -135 176q0 32 8 78
q131 72 248 115l-6 20q-476 -75 -569 -75q-31 14 -54 30t-47.5 41.5t-37.5 62t-13 81.5q0 57 35 155zM956 784l27 -92q-109 -52 -200.5 -111.5t-125.5 -107.5q0 -34 23 -78q130 97 367 160l34 -70q-23 -13 -69.5 -39t-70.5 -40.5t-57 -35.5t-55.5 -40t-40.5 -39
q0 -45 37 -88q26 19 60.5 41t115 60t158.5 58l35 -69q-187 -104 -246 -178q0 -63 58 -113q38 42 109.5 99t152.5 102l4 2q110 -27 192 -27q236 0 387 180v390l-655 172h-238q-280 -4 -772 -33q-6 -30 -6 -60q0 -54 41 -98q22 2 144.5 14t170.5 16t141 11.5t158.5 10.5
t120.5 3z" />
    <glyph glyph-name="uni261D" unicode="&#x261d;" horiz-adv-x="1357" 
d="M989 -127l221 -23v-260h-94l-22 170q-219 13 -398 13q-181 0 -397 -13v-170h-98l-21 260l170 21l-170 535v241q0 362 35 823q93 33 158 33q46 0 82.5 -13t61.5 -37t40.5 -47t30.5 -54q0 -16 -1.5 -36.5t-3.5 -40.5t-7 -53.5t-9 -59t-12.5 -74t-14.5 -82.5t-18 -101
t-20 -112l20 -5q39 87 75 153.5t56 93.5t31 36q20 4 43 4q114 0 176 -131h4q128 0 193 -162q82 -9 139 -77.5t57 -165.5q-25 -43 -78 -99.5t-104 -91.5q29 -78 29 -174q0 -85 -32 -142.5t-122 -137.5v-21zM457 -129h395q70 64 105.5 105t55 88.5t19.5 107.5q0 24 -3 49.5
t-5.5 38t-9.5 40.5l-8 32q46 81 104 154.5t98 111.5q-49 57 -110 57q-74 -58 -180 -247l-70 36q44 169 180 318q-51 51 -108 51q-20 -18 -39 -40.5t-41 -56t-35.5 -56.5t-40.5 -71t-39 -69l-70 35q60 221 179 350q-42 39 -99 39q-24 -17 -54.5 -58t-50.5 -74.5t-59 -103
t-53 -92.5l-94 29q0 80 9.5 198t24.5 271t21 240q-45 39 -98 39q-29 0 -57 -7q-35 -394 -35 -745v-235z" />
    <glyph glyph-name="uni261E" unicode="&#x261e;" horiz-adv-x="2318" 
d="M2234 991q35 -98 35 -155q0 -85 -42 -134.5t-109 -80.5q-94 0 -570 75l-6 -20q117 -43 248 -115q8 -46 8 -78q0 -113 -135 -176v-4q0 -127 -166 -194q-9 -80 -77.5 -136.5t-164.5 -56.5q-77 46 -208 178q-98 -26 -199 -26q-224 0 -356 153h-23l-23 -221h-366v96l258 23
q12 199 12 393q0 197 -12 397h-258v97l366 22l21 -174l655 174h242q358 0 870 -37zM1335 692l27 92q55 0 120.5 -3t158.5 -10.5t141 -11.5t170.5 -16t144.5 -14q41 44 41 98q0 30 -6 60q-492 29 -772 33h-238l-655 -172v-390q151 -180 387 -180q83 0 193 27l4 -2
q81 -45 152.5 -102t109.5 -99q57 49 57 113q-59 74 -246 178l35 69q78 -20 158.5 -58t115 -60t60.5 -41q37 43 37 88q-18 20 -40.5 39t-55.5 40t-57 35.5t-70.5 40.5t-69.5 39l35 70q235 -62 366 -160q23 44 23 78q-34 48 -125.5 107.5t-200.5 111.5z" />
    <glyph glyph-name="uni261F" unicode="&#x261f;" horiz-adv-x="1357" 
d="M1210 1217l-221 -23v-20q90 -80 122 -138t32 -143q0 -96 -29 -174q51 -35 104 -91.5t78 -99.5q0 -97 -57 -165.5t-139 -77.5q-65 -162 -193 -162h-4q-62 -131 -176 -131q-23 0 -43 4q-11 9 -31 36t-56 93.5t-75 153.5l-20 -5q8 -45 20 -112t18 -101t14.5 -82.5t12.5 -74
t9 -59t7 -53.5t3.5 -40.5t1.5 -36.5q-15 -31 -30.5 -54t-40.5 -47t-61.5 -37t-82.5 -13q-65 0 -158 33q-35 461 -35 823v242l170 534l-170 21l21 260h98v-170q216 -13 397 -13q179 0 398 13l22 170h94v-260zM852 1196h-395l-168 -534v-236q0 -351 35 -745q28 -7 57 -7
q53 0 98 39q-6 87 -21 240t-24.5 271t-9.5 198l94 29q14 -23 53 -92.5t59 -103t50.5 -74.5t54.5 -58q57 0 99 39q-119 129 -179 350l70 35q12 -21 39 -69t40.5 -71t35.5 -56.5t41 -56t39 -40.5q57 0 108 51q-136 149 -180 318l70 36q106 -189 180 -247q61 0 110 57
q-40 38 -98 111.5t-104 154.5l8 32t9.5 40.5t5.5 38t3 49.5q0 60 -19.5 107.5t-55 88.5t-105.5 105z" />
    <glyph glyph-name="uni2661" unicode="&#x2661;" horiz-adv-x="1613" 
d="M1169 1051q97 0 177.5 -42t131 -130t50.5 -207q0 -90 -29.5 -165.5t-80.5 -129.5t-113.5 -100t-133.5 -86.5t-135 -78.5t-124 -86t-95 -100h-20q-35 52 -95 100t-124 86t-135 78.5t-133.5 86.5t-113.5 100t-80.5 129.5t-29.5 165.5q0 178 103.5 278.5t256.5 100.5
q132 0 226.5 -82.5t124.5 -231.5h20q30 149 124 231.5t228 82.5zM1163 932q-78 0 -144 -48t-107 -121t-64 -163h-84q-35 141 -117 236.5t-196 95.5q-98 0 -159 -71.5t-61 -186.5q0 -78 30 -142.5t77 -108t110.5 -87.5t123.5 -78t122.5 -82.5t102.5 -99.5h20q35 44 86.5 86
t103 74t106.5 66t102 70.5t85.5 78.5t60 99t21.5 124q0 116 -60.5 187t-158.5 71z" />
    <glyph glyph-name="heart" unicode="&#x2665;" horiz-adv-x="1613" 
d="M1169 1051q97 0 177.5 -42t131 -130t50.5 -207q0 -91 -29.5 -166.5t-80.5 -129.5t-113.5 -100t-133.5 -86.5t-135 -78t-124 -85.5t-95 -100h-20q-35 52 -94.5 100t-123.5 85.5t-135 78t-134 86.5t-113.5 100t-80.5 129.5t-30 166.5q0 178 103.5 278.5t256.5 100.5
q132 0 226.5 -81.5t124.5 -232.5h20q30 151 125 232.5t227 81.5z" />
    <glyph glyph-name="uni275B" unicode="&#x275b;" horiz-adv-x="909" 
d="M766 1389l37 -93q-95 -45 -167.5 -91.5t-132 -102.5t-91 -122t-31.5 -138q0 -39 2 -62l416 -86l14 -669q-140 -52 -291 -52q-72 0 -160.5 14t-150.5 42q-26 42 -43 74.5t-41 91.5t-36.5 132t-12.5 154q0 147 44.5 288t129 263t217 216t297.5 141z" />
    <glyph glyph-name="uni275C" unicode="&#x275c;" horiz-adv-x="909" 
d="M387 1389q74 0 161.5 -14t149.5 -42q26 -42 43 -74.5t41 -91.5t36.5 -132t12.5 -154q0 -147 -44.5 -288t-129 -263t-217 -216t-297.5 -141l-37 93q198 94 311 204.5t113 249.5q0 39 -2 62l-417 86l-15 669q140 52 291 52z" />
    <glyph glyph-name="uni275D" unicode="&#x275d;" horiz-adv-x="1781" 
d="M1638 1389l37 -93q-95 -45 -167.5 -91.5t-132 -102.5t-91 -122t-31.5 -138q0 -39 2 -62l416 -86l15 -669q-140 -52 -291 -52q-73 0 -161.5 14t-150.5 42q-26 42 -43 74.5t-41 91.5t-36.5 132t-12.5 154q0 147 44.5 288t129 263t217 216t297.5 141zM766 1389l37 -93
q-95 -45 -167.5 -91.5t-132 -102.5t-91 -122t-31.5 -138q0 -39 2 -62l416 -86l14 -669q-140 -52 -291 -52q-72 0 -160.5 14t-150.5 42q-26 42 -43 74.5t-41 91.5t-36.5 132t-12.5 154q0 147 44.5 288t129 263t217 216t297.5 141z" />
    <glyph glyph-name="uni275E" unicode="&#x275e;" horiz-adv-x="1781" 
d="M1260 1389q74 0 161.5 -14t149.5 -42q26 -42 43 -74.5t41 -91.5t36.5 -132t12.5 -154q0 -147 -44.5 -288t-129 -263t-217 -216t-297.5 -141l-37 93q198 94 311 204.5t113 249.5q0 39 -2 62l-418 86l-14 669q140 52 291 52zM387 1389q74 0 161.5 -14t149.5 -42
q26 -42 43 -74.5t41 -91.5t36.5 -132t12.5 -154q0 -147 -44.5 -288t-129 -263t-217 -216t-297.5 -141l-37 93q198 94 311 204.5t113 249.5q0 39 -2 62l-417 86l-15 669q140 52 291 52z" />
    <glyph glyph-name="uni275F" unicode="&#x275f;" horiz-adv-x="909" 
d="M387 1389q74 0 161.5 -14t149.5 -42q26 -42 43 -74.5t41 -91.5t36.5 -132t12.5 -154q0 -147 -44.5 -288t-129 -263t-217 -216t-297.5 -141l-37 93q198 94 311 204.5t113 249.5q0 39 -2 62l-417 86l-15 669q140 52 291 52z" />
    <glyph glyph-name="uni2760" unicode="&#x2760;" horiz-adv-x="1781" 
d="M1260 1389q74 0 161.5 -14t149.5 -42q26 -42 43 -74.5t41 -91.5t36.5 -132t12.5 -154q0 -147 -44.5 -288t-129 -263t-217 -216t-297.5 -141l-37 93q198 94 311 204.5t113 249.5q0 39 -2 62l-418 86l-14 669q140 52 291 52zM387 1389q74 0 161.5 -14t149.5 -42
q26 -42 43 -74.5t41 -91.5t36.5 -132t12.5 -154q0 -147 -44.5 -288t-129 -263t-217 -216t-297.5 -141l-37 93q198 94 311 204.5t113 249.5q0 39 -2 62l-417 86l-15 669q140 52 291 52z" />
    <glyph glyph-name="uni2766" unicode="&#x2766;" horiz-adv-x="2029" 
d="M1378 1253q129 0 234.5 -44.5t174.5 -121.5t106.5 -180t37.5 -221q0 -254 -159.5 -433.5t-415.5 -225.5l-25 77q453 185 453 562q0 208 -125.5 338.5t-347.5 130.5q-85 0 -207 -27q-19 -151 -184 -270l-48 39q38 43 57 66t38.5 61t25.5 77q-94 -16 -155 -16
q-147 0 -222 57.5t-75 147.5t71 147.5t179 57.5q127 0 213.5 -78t101.5 -197q149 53 272 53zM684 1257q0 -56 50.5 -85t129.5 -29q63 0 131 20q-12 86 -71 139.5t-131 53.5q-52 0 -80.5 -28.5t-28.5 -70.5zM1544 600q0 -90 -34.5 -174t-92 -149t-133 -119t-156.5 -89
t-163 -53q6 -65 22 -184l-29 -16q-161 0 -319 58.5t-280 156.5t-197.5 237.5t-75.5 290.5q0 132 58 228.5t147.5 142t195.5 45.5q152 0 267.5 -90.5t148.5 -241.5h21q40 113 129 190.5t207 77.5q122 0 203 -83.5t81 -227.5zM236 547q0 -95 41.5 -189.5t109 -168.5
t149 -132.5t166 -90.5t156.5 -34q-54 349 -10 627q-119 291 -338 291q-119 0 -196.5 -84t-77.5 -219zM967 563q-30 -164 -13 -434q82 20 158.5 59.5t140.5 96t103 134t39 163.5q0 98 -49.5 151t-122.5 53q-80 0 -140.5 -59.5t-115.5 -163.5z" />
    <glyph glyph-name="uni2776" unicode="&#x2776;" horiz-adv-x="1601" 
d="M801 1389q193 0 356.5 -95t258.5 -258.5t95 -355.5t-95 -355t-258.5 -257.5t-356.5 -94.5q-145 0 -276.5 56t-226.5 150.5t-151.5 225.5t-56.5 275t56.5 275.5t151.5 226.5t226.5 151t276.5 56zM891 1114l-82 4q-43 -60 -110.5 -86t-135.5 -28v-93q109 0 170 19v-555
l-166 -25v-84h490v84l-166 8v756z" />
    <glyph glyph-name="uni2777" unicode="&#x2777;" horiz-adv-x="1601" 
d="M801 1389q193 0 356.5 -95t258.5 -258.5t95 -355.5t-95 -355t-258.5 -257.5t-356.5 -94.5q-145 0 -276.5 56t-226.5 150.5t-151.5 225.5t-56.5 275t56.5 275.5t151.5 226.5t226.5 151t276.5 56zM793 1120q-120 0 -202.5 -53.5t-82.5 -130.5q0 -60 47 -90h121l22 172
q40 12 76 12q60 0 94.5 -35.5t34.5 -107.5q0 -56 -23.5 -114t-58 -105.5t-87.5 -100.5t-98 -91.5t-104 -86.5q-24 -19 -36 -29l10 -92h598q10 41 10 94q0 62 -12 111l-103 2l-12 -84l-176 -12q-41 -2 -170 -21l-6 19q93 69 148 112t119.5 100.5t98.5 101t57 94.5t23 100
q0 100 -78 167.5t-210 67.5z" />
    <glyph glyph-name="uni2778" unicode="&#x2778;" horiz-adv-x="1601" 
d="M801 1389q193 0 356.5 -95t258.5 -258.5t95 -355.5t-95 -355t-258.5 -257.5t-356.5 -94.5q-145 0 -276.5 56t-226.5 150.5t-151.5 225.5t-56.5 275t56.5 275.5t151.5 226.5t226.5 151t276.5 56zM815 1118q-119 0 -201 -48t-82 -122q0 -52 50 -86h110l19 154q54 14 86 14
q64 0 97.5 -30.5t33.5 -100.5q0 -106 -80 -156h-139v-84h67q96 0 137 -41t41 -118q0 -162 -172 -162q-45 0 -75 6l-25 164h-119q-45 -33 -45 -94q0 -78 76.5 -122t189.5 -44q150 0 247 72t97 186q0 141 -176 186v21q150 54 150 182q0 98 -78 160.5t-209 62.5z" />
    <glyph glyph-name="uni2779" unicode="&#x2779;" horiz-adv-x="1601" 
d="M801 1389q193 0 356.5 -95t258.5 -258.5t95 -355.5t-95 -355t-258.5 -257.5t-356.5 -94.5q-145 0 -276.5 56t-226.5 150.5t-151.5 225.5t-56.5 275t56.5 275.5t151.5 226.5t226.5 151t276.5 56zM866 1073l-143 49q-119 -329 -258 -649l8 -63h371v-142h151v142h135v106
h-135v272l-51 5l-100 -23v-254h-86q-76 0 -170 -16l-6 16q136 220 290 535z" />
    </font>
</defs>
</svg>
