<?xml version="1.0" standalone="no"?>
<!DOCTYPE svg PUBLIC "-//W3C//DTD SVG 1.1//EN" "http://www.w3.org/Graphics/SVG/1.1/DTD/svg11.dtd" >
<svg xmlns="http://www.w3.org/2000/svg" xmlns:xlink="http://www.w3.org/1999/xlink" version="1.1">
<metadata>
Created by FontForge 20170731 at Wed Sep  8 12:20:56 2021
 By Aleksey,,,
2014 published by FontShop International GmbH
</metadata>
<defs>
<font id="FranziskaPro-DemiboldItalic" horiz-adv-x="1259" >
  <font-face 
    font-family="FranziskaPro-DemiboldItalic"
    font-weight="600"
    font-style="italic"
    font-stretch="normal"
    units-per-em="2048"
    panose-1="2 1 7 4 5 1 1 1 1 2"
    ascent="1612"
    descent="-436"
    x-height="1059"
    cap-height="1362"
    bbox="-1047 -571 2583 1980"
    underline-thickness="143"
    underline-position="-347"
    slope="-6.5"
    unicode-range="U+000D-1F44E"
  />
<missing-glyph horiz-adv-x="1419" 
d="M1284 1362l-127 -1362h-983l127 1362h983zM1128 1227h-636l548 -967zM330 135h631l-543 961z" />
    <glyph glyph-name="T_h" unicode="Th" horiz-adv-x="2181" 
d="M2118 188l18 -94q-64 -52 -140 -83t-145 -31q-147 0 -147 135q0 59 50 333t50 347q0 54 -21.5 79t-72.5 25q-31 0 -51 -2q-162 -221 -342 -897q-76 -20 -182 -20l-50 45l140 1255q-35 -37 -95.5 -53.5t-121.5 -16.5q-49 0 -209 21l-103 -1112l146 -15v-47l-6 -57h-582
v100q77 32 182 43l105 1100h-201l-78 -239l-141 10q-4 58 -4 90q0 141 49 287l53 6l461 -35h270q174 0 289 43l12 106q122 29 195 31l51 -45l-65 -512q-21 -166 -89 -514l25 -4q47 146 82.5 240t74 168.5t79.5 113t89 57.5t111 19q242 0 242 -242q0 -21 -1.5 -48.5t-6 -63
t-8.5 -66.5t-11.5 -79l-12.5 -80t-14.5 -88t-14.5 -86t-16 -91t-15 -86q71 0 172 53z" />
    <glyph glyph-name="T_k" unicode="Tk" horiz-adv-x="2166" 
d="M2083 188l20 -96q-126 -112 -270 -112q-47 0 -80.5 13t-56 42.5t-36.5 62t-30 84.5q-49 148 -57 269l102 30q65 66 104.5 153t39.5 165q0 54 -24 77t-81 23q-32 0 -55 -4q-158 -216 -342 -895q-73 -20 -182 -20l-50 45l140 1255q-35 -37 -95.5 -53.5t-121.5 -16.5
q-49 0 -209 21l-103 -1112l146 -15v-47l-6 -57h-582v100q77 32 182 43l105 1100h-201l-78 -239l-141 10q-4 58 -4 90q0 141 49 287l53 6l461 -35h270q174 0 289 43l12 106q122 29 195 31l51 -45l-65 -512q-21 -166 -89 -514l25 -4q80 249 141.5 373t130.5 174.5t175 50.5
q127 0 198.5 -59t71.5 -181q0 -129 -81 -228.5t-208 -147.5q85 -233 125 -314q75 5 162 53z" />
    <glyph glyph-name="T_l" unicode="Tl" horiz-adv-x="1583" 
d="M1528 186l20 -94q-65 -51 -141.5 -81.5t-146.5 -30.5q-158 0 -158 155q0 50 16.5 201.5t51.5 447.5t57 498q-36 -38 -98 -55t-121 -17q-49 0 -209 21l-103 -1112l146 -15v-47l-6 -57h-582v100q77 32 182 43l105 1100h-201l-78 -239l-141 10q-4 58 -4 90q0 141 49 287
l53 6l461 -35h270q176 0 291 43l10 106q122 29 197 31l49 -45q-18 -155 -60.5 -487.5t-68 -554.5t-29.5 -320q37 0 91.5 15t97.5 36z" />
    <glyph glyph-name="Tbar_h" unicode="&#x166;h" horiz-adv-x="2181" 
d="M2118 188l18 -94q-64 -52 -140 -83t-145 -31q-147 0 -147 135q0 59 50 333t50 347q0 54 -21.5 79t-72.5 25q-31 0 -51 -2q-162 -221 -342 -897q-76 -20 -182 -20l-50 45l140 1255q-35 -37 -95.5 -53.5t-121.5 -16.5q-49 0 -209 21l-54 -565h246v-48l-12 -83h-246
l-37 -416l146 -15v-47l-6 -57h-582v100q77 32 182 43l37 392h-235v45l12 86h235l56 577h-201l-78 -239l-141 10q-4 58 -4 90q0 141 49 287l53 6l461 -35h270q174 0 289 43l12 106q122 29 195 31l51 -45l-65 -512q-21 -166 -89 -514l25 -4q47 146 82.5 240t74 168.5t79.5 113
t89 57.5t111 19q242 0 242 -242q0 -21 -1.5 -48.5t-6 -63t-8.5 -66.5t-11.5 -79l-12.5 -80t-14.5 -88t-14.5 -86t-16 -91t-15 -86q71 0 172 53z" />
    <glyph glyph-name="Tcaron_h" unicode="&#x164;h" horiz-adv-x="2181" 
d="M2118 188l18 -94q-64 -52 -140 -83t-145 -31q-147 0 -147 135q0 59 50 333t50 347q0 54 -21.5 79t-72.5 25q-31 0 -51 -2q-162 -221 -342 -897q-76 -20 -182 -20l-50 45l140 1255q-35 -37 -95.5 -53.5t-121.5 -16.5q-49 0 -209 21l-103 -1112l146 -15v-47l-6 -57h-582
v100q77 32 182 43l105 1100h-201l-78 -239l-141 10q-4 58 -4 90q0 141 49 287l53 6l461 -35h270q174 0 289 43l12 106q122 29 195 31l51 -45l-65 -512q-21 -166 -89 -514l25 -4q47 146 82.5 240t74 168.5t79.5 113t89 57.5t111 19q242 0 242 -242q0 -21 -1.5 -48.5t-6 -63
t-8.5 -66.5t-11.5 -79l-12.5 -80t-14.5 -88t-14.5 -86t-16 -91t-15 -86q71 0 172 53zM735 1657h19l186 168h119l-314 -352h-147l-192 290l165 84z" />
    <glyph glyph-name="f_b" unicode="fb" horiz-adv-x="1765" 
d="M1438 1065q65 0 112.5 -17t84.5 -56.5t56 -112t19 -177.5q0 -84 -13 -166.5t-40 -166t-74 -154t-108.5 -125.5t-150.5 -86t-194 -31q-91 0 -205.5 20t-201.5 48l145 1335q-85 28 -198 31q-68 0 -125 -14q-31 -61 -50 -145.5t-34 -231.5h194v-58l-16 -69h-190l-80 -836
q-24 -256 -113.5 -372.5t-245.5 -116.5q-80 0 -160.5 28t-138.5 80l29 99q191 -60 317 -60q46 91 62 277l86 884l-139 21v96q57 21 153 35q61 518 451 518q129 0 227 -53q88 43 182 53l51 -45l-67 -520q-9 -66 -22.5 -146t-23 -130.5t-26 -135.5t-20.5 -106l22 -6
q60 190 104.5 301t96.5 184.5t108 100t136 26.5zM1268 113q86 110 131 280t45 330q0 100 -22.5 138t-78.5 38q-13 0 -53 -4q-67 -92 -137.5 -270t-167.5 -502q92 -29 166 -29q58 0 117 19z" />
    <glyph glyph-name="f_f" unicode="ff" horiz-adv-x="1216" 
d="M1485 1290l-328 80q-30 -8 -59 -24q-25 -123 -35 -330h213v-58l-16 -69h-205l-80 -836q-25 -247 -130.5 -351.5t-301.5 -104.5q-186 0 -301 79q-92 -112 -242 -112q-77 0 -153.5 27.5t-135.5 80.5l29 99q191 -60 317 -60q46 91 62 277l86 884l-139 21v96q43 15 153 37
q16 137 51.5 231.5t92 149.5t126.5 78.5t164 23.5q200 0 322 -98q121 131 323 131q155 0 234 -82zM657 1374q-62 0 -135 -18q-34 -88 -61 -340h317l45 6q20 181 90 305q-129 47 -256 47zM532 -268q70 0 140 20q35 78 55 258l82 867l-111 12h-249l-80 -836q-15 -166 -68 -282
q115 -39 231 -39z" />
    <glyph glyph-name="f_f_b" unicode="ffb" horiz-adv-x="2375" 
d="M2050 1065q64 0 111 -17t84 -56.5t56 -112t19 -177.5q0 -102 -18 -200.5t-61 -195.5t-107.5 -170t-165.5 -118t-227 -45q-90 0 -208 20t-204 48l146 1335q-88 28 -201 31q-68 0 -125 -14q-29 -60 -48 -144t-36 -233h195v-58l-17 -69h-190l-78 -836q-24 -247 -130 -351.5
t-302 -104.5q-186 0 -301 79q-92 -112 -242 -112q-77 0 -153.5 27.5t-135.5 80.5l29 99q191 -60 317 -60q46 91 62 277l86 884l-139 21v96q43 15 153 37q16 137 51.5 231.5t92 149.5t126.5 78.5t164 23.5q195 0 316 -94q112 127 307 127q127 0 225 -53q96 44 182 53l52 -45
l-66 -520q-8 -64 -21 -143.5t-22.5 -134t-24.5 -135t-20 -105.5l23 -6q48 152 85 250t76 173t81 113.5t90.5 57t113.5 18.5zM657 1374q-62 0 -135 -18q-34 -88 -61 -340h317l45 6q21 187 86 305q-120 47 -252 47zM1878 113q86 110 131 280t45 330q0 100 -22 138t-78 38
q-13 0 -49 -4q-69 -91 -140.5 -268.5t-169.5 -503.5q96 -29 166 -29q58 0 117 19zM532 -268q69 0 142 20q37 84 53 258l82 867l-111 12h-249l-80 -836q-15 -166 -68 -282q115 -39 231 -39z" />
    <glyph glyph-name="f_f_h" unicode="ffh" horiz-adv-x="2422" 
d="M2359 188l19 -94q-64 -52 -140 -83t-145 -31q-147 0 -147 135q0 59 50 333t50 347q0 54 -21.5 79t-72.5 25q-31 0 -51 -4q-164 -217 -345 -895q-73 -20 -180 -20l-49 45l148 1351q-88 28 -201 31q-68 0 -125 -14q-30 -59 -48 -141.5t-36 -235.5h195v-58l-17 -69h-190
l-78 -836q-24 -247 -130 -351.5t-302 -104.5q-186 0 -301 79q-92 -112 -242 -112q-77 0 -153.5 27.5t-135.5 80.5l29 99q191 -60 317 -60q46 91 62 277l86 884l-139 21v96q43 15 153 37q16 137 51.5 231.5t92 149.5t126.5 78.5t164 23.5q195 0 316 -94q112 127 307 127
q127 0 225 -53q102 45 185 53l49 -45l-66 -520q-17 -136 -84 -506l23 -4q48 147 84 240.5t75 168t79.5 113t88.5 57.5t111 19q242 0 242 -242q0 -27 -3 -63.5t-9.5 -87t-12.5 -92t-17.5 -110t-18.5 -107t-21 -118t-19 -110.5q71 0 172 53zM657 1374q-62 0 -135 -18
q-34 -88 -61 -340h317l45 6q21 187 86 305q-120 47 -252 47zM532 -268q69 0 142 20q37 84 53 258l82 867l-111 12h-249l-80 -836q-15 -166 -68 -282q115 -39 231 -39z" />
    <glyph glyph-name="f_f_i" unicode="ffi" horiz-adv-x="1796" 
d="M1743 188l20 -94q-144 -114 -276 -114q-152 0 -152 139q0 93 90 770h-370l-80 -836q-25 -247 -130.5 -351.5t-301.5 -104.5q-186 0 -301 79q-92 -112 -242 -112q-77 0 -153.5 27.5t-135.5 80.5l29 99q191 -60 317 -60q46 91 62 277l86 884l-139 21v96q43 15 153 37
q16 137 51.5 231.5t92 149.5t126.5 78.5t164 23.5q203 0 324 -100q127 133 362 133q292 0 363 -190l-117 -142l-278 209q-91 3 -162 -24q-58 -156 -78 -379h309q149 36 258 41l49 -45q-26 -223 -106 -877q69 0 166 53zM657 1374q-62 0 -135 -18q-34 -88 -61 -340h311l51 10
q24 184 92 299q-125 49 -258 49zM532 -268q70 0 140 20q35 78 55 258l82 860l-107 19h-253l-80 -836q-15 -166 -68 -282q115 -39 231 -39z" />
    <glyph glyph-name="f_f_j" unicode="ffj" horiz-adv-x="1773" 
d="M1067 1016h309q153 36 258 41l49 -43l-118 -979q-29 -244 -117.5 -356.5t-239.5 -112.5q-121 0 -200 76l28 100q122 -29 215 -29q45 91 66 273l108 903h-370l-80 -836q-25 -247 -130.5 -351.5t-301.5 -104.5q-186 0 -301 79q-92 -112 -242 -112q-77 0 -153.5 27.5
t-135.5 80.5l29 99q191 -60 317 -60q46 91 62 277l86 884l-139 21v96q43 15 153 37q16 137 51.5 231.5t92 149.5t126.5 78.5t164 23.5q203 0 324 -100q127 133 362 133q292 0 363 -190l-117 -142l-278 209q-91 3 -162 -24q-58 -156 -78 -379zM657 1374q-62 0 -135 -18
q-34 -88 -61 -340h311l51 10q24 184 92 299q-125 49 -258 49zM532 -268q70 0 140 20q35 78 55 258l82 860l-107 19h-253l-80 -836q-15 -166 -68 -282q115 -39 231 -39z" />
    <glyph glyph-name="f_f_k" unicode="ffk" horiz-adv-x="2408" 
d="M2324 186l21 -94q-122 -112 -270 -112q-47 0 -80.5 13.5t-56 43t-36.5 61t-30 82.5q-49 145 -57 269l102 30q64 66 103.5 153.5t39.5 164.5q0 55 -24 78.5t-80 23.5q-13 0 -53 -4q-160 -214 -347 -897q-74 -18 -180 -18l-49 45l148 1351q-88 28 -201 31q-68 0 -125 -14
q-30 -59 -48 -141.5t-36 -235.5h195v-58l-17 -69h-190l-78 -836q-24 -247 -130 -351.5t-302 -104.5q-186 0 -301 79q-92 -112 -242 -112q-77 0 -153.5 27.5t-135.5 80.5l29 99q191 -60 317 -60q46 91 62 277l86 884l-139 21v96q43 15 153 37q16 137 51.5 231.5t92 149.5
t126.5 78.5t164 23.5q195 0 316 -94q112 127 307 127q127 0 225 -53q102 45 185 53l49 -45l-66 -520q-19 -154 -84 -506l23 -6q61 188 107 299t99 181.5t108.5 95t135.5 24.5q128 0 198.5 -59t70.5 -179q0 -131 -78.5 -230.5t-208.5 -152.5q68 -199 121 -309q75 8 163 51z
M657 1374q-62 0 -135 -18q-34 -88 -61 -340h317l45 6q21 187 86 305q-120 47 -252 47zM532 -268q69 0 142 20q37 84 53 258l82 867l-111 12h-249l-80 -836q-15 -166 -68 -282q115 -39 231 -39z" />
    <glyph glyph-name="f_f_l" unicode="ffl" horiz-adv-x="1818" 
d="M1763 186l21 -94q-63 -50 -140.5 -81t-146.5 -31q-160 0 -160 155q0 37 8 120.5t25 226t31 258.5t40.5 322t39.5 312q-99 30 -207 33q-68 0 -125 -14q-29 -60 -48 -144t-36 -233h195v-58l-17 -69h-190l-78 -836q-24 -247 -130 -351.5t-302 -104.5q-186 0 -301 79
q-92 -112 -242 -112q-77 0 -153.5 27.5t-135.5 80.5l29 99q191 -60 317 -60q46 91 62 277l86 884l-139 21v96q43 15 153 37q16 137 51.5 231.5t92 149.5t126.5 78.5t164 23.5q195 0 316 -94q112 127 307 127q127 0 229 -55q80 46 185 55l49 -45q-20 -172 -62 -491.5
t-70 -547t-32 -323.5q39 0 93 15t95 36zM657 1374q-62 0 -135 -18q-34 -88 -61 -340h317l45 6q21 187 86 305q-120 47 -252 47zM532 -268q69 0 142 20q37 84 53 258l82 867l-111 12h-249l-80 -836q-15 -166 -68 -282q115 -39 231 -39z" />
    <glyph glyph-name="f_h" unicode="fh" horiz-adv-x="1816" 
d="M1753 188l19 -94q-64 -52 -140 -83t-145 -31q-148 0 -148 135q0 59 50.5 333t50.5 347q0 54 -21.5 79t-72.5 25q-32 0 -52 -4q-162 -214 -344 -895q-73 -20 -180 -20l-49 45l147 1351q-85 28 -198 31q-68 0 -125 -14q-31 -61 -50 -145.5t-34 -231.5h194v-58l-16 -69h-190
l-80 -836q-24 -256 -113.5 -372.5t-245.5 -116.5q-80 0 -160.5 28t-138.5 80l29 99q191 -60 317 -60q46 91 62 277l86 884l-139 21v96q57 21 153 35q61 518 451 518q129 0 227 -53q88 43 182 53l49 -45l-65 -520q-17 -136 -84 -506l22 -4q48 146 84 240t75 168.5t80 113
t89 57.5t111 19q241 0 241 -242q0 -21 -1.5 -48.5t-6 -63t-8.5 -66.5t-11.5 -79l-12.5 -80t-14.5 -88t-14.5 -86t-16 -91t-15 -86q71 0 172 53z" />
    <glyph glyph-name="f_hbar" unicode="f&#x127;" horiz-adv-x="1816" 
d="M1753 188l19 -94q-64 -52 -140 -83t-145 -31q-148 0 -148 135q0 59 50.5 333t50.5 347q0 54 -21.5 79t-72.5 25q-32 0 -52 -4q-162 -214 -344 -895q-73 -20 -180 -20l-49 45l147 1351q-85 28 -198 31q-68 0 -125 -14q-31 -61 -50 -145.5t-34 -231.5h194v-58l-16 -69h-190
l-80 -836q-24 -256 -113.5 -372.5t-245.5 -116.5q-80 0 -160.5 28t-138.5 80l29 99q191 -60 317 -60q46 91 62 277l86 884l-139 21v96q57 21 153 35q61 518 451 518q129 0 227 -53q88 43 182 53l49 -45l-16 -129h274v-53l-14 -66h-274l-35 -272q-17 -136 -84 -506l22 -4
q48 146 84 240t75 168.5t80 113t89 57.5t111 19q241 0 241 -242q0 -21 -1.5 -48.5t-6 -63t-8.5 -66.5t-11.5 -79l-12.5 -80t-14.5 -88t-14.5 -86t-16 -91t-15 -86q71 0 172 53z" />
    <glyph glyph-name="f_i" unicode="fi" horiz-adv-x="1189" 
d="M1139 188l18 -94q-141 -114 -274 -114q-152 0 -152 139q0 93 90 770h-370l-82 -836q-26 -257 -114.5 -373t-244.5 -116q-80 0 -160.5 28t-138.5 80l29 99q191 -60 317 -60q46 91 62 277l86 884l-139 21v96q54 20 153 35q35 268 164 393t352 125q290 0 361 -190l-117 -142
l-277 209q-91 3 -159 -24q-59 -150 -80 -379h309q149 36 258 41l49 -45q-26 -223 -106 -877q69 0 166 53z" />
    <glyph glyph-name="f_icircumflex" unicode="f&#xee;" horiz-adv-x="1189" 
d="M1077 1012l-104 -877q67 0 164 53l20 -94q-141 -114 -274 -114q-152 0 -152 139q0 68 30.5 317.5t59.5 452.5h-370l-82 -836q-24 -256 -113.5 -372.5t-245.5 -116.5q-80 0 -160.5 28t-138.5 80l29 99q191 -60 317 -60q46 91 62 277l86 884l-139 21v96q57 21 153 35
q21 189 78.5 302t145.5 159.5t219 46.5q136 0 243 -47l60 90h147l131 -328l-164 -69l-104 194h-21l-131 -186h-112l129 196q-76 13 -150 13q-79 0 -166 -19q-39 -97 -61 -360h309q149 36 258 41z" />
    <glyph glyph-name="f_imacron" unicode="f&#x12b;" horiz-adv-x="1191" 
d="M1198 1270h-453q-4 12 -4 45q0 27 9 71q-58 5 -74 5q-70 0 -152 -15q-39 -99 -61 -360h309q153 36 258 41l49 -45q-26 -223 -106 -877q69 0 166 53l20 -94q-144 -114 -278 -114q-150 0 -150 137q0 95 90 772h-370l-82 -836q-24 -256 -113.5 -372.5t-245.5 -116.5
q-80 0 -160.5 28t-138.5 80l29 99q191 -60 317 -60q46 91 62 277l86 884l-139 21v96q57 21 153 35q17 142 54.5 241.5t95.5 156t129 81.5t164 25q189 0 311 -98h244q4 -12 4 -46q0 -62 -23 -114z" />
    <glyph glyph-name="f_iogonek" unicode="f&#x12f;" horiz-adv-x="1191" 
d="M987 -309q40 0 96 18l7 -88q-77 -57 -205 -57q-106 0 -157.5 43.5t-51.5 113.5q1 78 59.5 140t151.5 102l-2 23q-20 -3 -37 0q-117 10 -117 131q0 95 90 772h-370l-82 -836q-26 -257 -114.5 -373t-244.5 -116q-80 0 -160.5 28t-138.5 80l29 99q191 -60 317 -60
q46 91 62 277l86 884l-139 21v96q54 20 153 35q35 268 164 393t352 125q289 0 363 -190l-117 -142l-279 209q-91 3 -159 -24q-59 -150 -80 -379h309q153 36 258 41l49 -45q-26 -223 -106 -877q69 0 166 53l20 -94q-128 -83 -200 -155.5t-72 -151.5q0 -47 26 -71.5t74 -24.5z
" />
    <glyph glyph-name="f_j" unicode="fj" horiz-adv-x="1167" 
d="M463 1018l309 -2q149 36 258 41l47 -45l-119 -977q-29 -244 -117 -356.5t-239 -112.5q-115 0 -209 76l39 100q122 -29 215 -29q41 81 66 273l108 903h-370l-82 -834q-26 -258 -114.5 -373.5t-244.5 -115.5q-80 0 -160.5 27t-138.5 79l29 101q197 -62 317 -62
q46 94 62 279l84 882l-137 21v96q76 23 153 35q33 270 162 395t354 125q287 0 361 -190l-117 -142l-279 207q-96 3 -157 -24q-59 -145 -80 -377z" />
    <glyph glyph-name="f_k" unicode="fk" horiz-adv-x="1802" 
d="M1718 186l21 -94q-57 -52 -128 -82t-143 -30q-47 0 -80 13.5t-56 43t-36.5 60.5t-29.5 83q-50 148 -58 269l103 30q64 66 103.5 153.5t39.5 164.5q0 55 -24 78.5t-80 23.5q-8 0 -54 -4q-159 -212 -346 -897q-74 -18 -180 -18l-49 45l147 1351q-85 28 -198 31
q-68 0 -125 -14q-31 -61 -50 -145.5t-34 -231.5h194v-58l-16 -69h-190l-80 -836q-24 -256 -113.5 -372.5t-245.5 -116.5q-80 0 -160.5 28t-138.5 80l29 99q191 -60 317 -60q46 91 62 277l86 884l-139 21v96q57 21 153 35q61 518 451 518q129 0 227 -53q88 43 182 53l49 -45
l-65 -520q-17 -136 -84 -506l22 -6q62 188 108 298.5t99 181.5t108.5 95.5t135.5 24.5q128 0 198 -59t70 -179q0 -132 -78 -231t-208 -152q71 -207 120 -309q76 8 164 51z" />
    <glyph glyph-name="f_l" unicode="fl" horiz-adv-x="1214" 
d="M1159 186l21 -94q-63 -50 -140.5 -81t-146.5 -31q-160 0 -160 157q0 142 141 1237q-95 30 -204 33q-68 0 -125 -14q-31 -61 -50 -145.5t-34 -231.5h194v-58l-16 -69h-190l-80 -836q-24 -256 -113.5 -372.5t-245.5 -116.5q-80 0 -160.5 28t-138.5 80l29 99
q191 -60 317 -60q46 91 62 277l86 884l-139 21v96q57 21 153 35q61 518 451 518q129 0 231 -55q80 47 184 55l50 -45q-19 -156 -62.5 -488t-70.5 -554.5t-31 -319.5q39 0 93 15t95 36z" />
    <glyph glyph-name="f_lacute" unicode="f&#x13a;" horiz-adv-x="1212" 
d="M1114 1534h-125l135 303h125q66 -40 90 -127zM973 135q39 0 93 15t95 36l21 -94q-63 -50 -140.5 -81t-146.5 -31q-160 0 -160 157q0 57 17.5 212t59.5 483t58 462q-100 35 -217 35q-65 3 -125 -12q-26 -55 -39.5 -122.5t-25.5 -178.5h194v-58l-16 -69h-190l-82 -836
q-24 -256 -113.5 -372.5t-245.5 -116.5q-80 0 -160.5 28t-138.5 80l29 99q191 -60 317 -60q46 91 62 277l86 884l-137 21v96q75 23 151 35q28 212 138 326t296 114q139 0 242 -61q64 37 182 47l49 -45q-20 -174 -59.5 -469t-64.5 -500t-29 -301z" />
    <glyph glyph-name="f_lcaron" unicode="f&#x13e;" horiz-adv-x="1409" 
d="M1161 186l21 -94q-63 -50 -140.5 -81t-146.5 -31q-160 0 -160 157q0 134 142 1237q-95 30 -205 33q-68 0 -125 -14q-31 -61 -50 -145.5t-34 -231.5h194v-58l-16 -69h-190l-80 -836q-24 -256 -113.5 -372.5t-245.5 -116.5q-80 0 -160.5 28t-138.5 80l29 99
q191 -60 317 -60q46 91 62 277l86 884l-139 21v96q57 21 153 35q61 518 451 518q129 0 231 -55q80 47 184 55l50 -45q-19 -156 -62.5 -488t-70.5 -554.5t-31 -319.5q39 0 93 15t95 36zM1378 1542q78 0 140 -41q-12 -127 -55 -228t-134 -206h-92l63 260v203q30 12 78 12z" />
    <glyph glyph-name="uni021A_h" unicode="&#x21a;h" horiz-adv-x="2181" 
d="M2118 188l18 -94q-64 -52 -140 -83t-145 -31q-147 0 -147 135q0 59 50 333t50 347q0 54 -21.5 79t-72.5 25q-31 0 -51 -2q-162 -221 -342 -897q-76 -20 -182 -20l-50 45l140 1255q-35 -37 -95.5 -53.5t-121.5 -16.5q-49 0 -209 21l-103 -1112l146 -15v-47l-6 -57h-582
v100q77 32 182 43l105 1100h-201l-78 -239l-141 10q-4 58 -4 90q0 141 49 287l53 6l461 -35h270q174 0 289 43l12 106q122 29 195 31l51 -45l-65 -512q-21 -166 -89 -514l25 -4q47 146 82.5 240t74 168.5t79.5 113t89 57.5t111 19q242 0 242 -242q0 -21 -1.5 -48.5t-6 -63
t-8.5 -66.5t-11.5 -79l-12.5 -80t-14.5 -88t-14.5 -86t-16 -91t-15 -86q71 0 172 53zM520 -102q68 0 117 -25q22 -28 22 -96q0 -107 -61 -182.5t-184 -100.5l-23 64q61 30 90 59t29 76v22l-86 9l14 165q40 9 82 9z" />
    <glyph glyph-name="uni030A_acutecomb" unicode="&#x30a;&#x301;" horiz-adv-x="2" 
d="M-115 1890h115q59 -45 84 -112l-254 -189h-111zM-221 1532q101 0 154 -46t53 -132q0 -103 -69 -164.5t-189 -61.5q-102 0 -155.5 46t-53.5 133q0 102 70 163.5t190 61.5zM-233 1436q-33 0 -52 -13q-34 -43 -34 -116q0 -82 59 -82q30 0 51 14q35 41 35 117q0 80 -59 80z
" />
    <glyph glyph-name=".notdef" horiz-adv-x="1419" 
d="M1284 1362l-127 -1362h-983l127 1362h983zM1128 1227h-636l548 -967zM330 135h631l-543 961z" />
    <glyph glyph-name=".null" horiz-adv-x="0" 
 />
    <glyph glyph-name="nonmarkingreturn" horiz-adv-x="682" 
 />
    <glyph glyph-name="CR" unicode="&#xd;" horiz-adv-x="512" 
 />
    <glyph glyph-name="space" unicode=" " horiz-adv-x="512" 
 />
    <glyph glyph-name="exclam" unicode="!" horiz-adv-x="567" 
d="M463 1389l45 -48q-22 -211 -69 -474.5t-101 -473.5h-141q9 161 19.5 534.5t12.5 424.5q124 37 234 37zM272 270q52 0 90 -14q21 -40 21 -90q0 -75 -55 -166h-195l-12 244q84 26 151 26z" />
    <glyph glyph-name="quotedbl" unicode="&#x22;" horiz-adv-x="901" 
d="M885 1473l-111 -472h-158v482q112 33 234 33zM502 1473l-111 -472h-158v482q112 33 234 33z" />
    <glyph glyph-name="numbersign" unicode="#" horiz-adv-x="1079" 
d="M862 754l-51 -297h178v-183l-217 -32l-47 -269h-98l-33 33l43 244h-299l-49 -277h-101l-30 33l43 244h-150v178l187 35l51 297h-174v182l213 33l47 270h102l29 -33l-43 -245h301l49 278h98l33 -33l-43 -245h150v-179zM674 457l53 303h-301l-53 -303h301z" />
    <glyph glyph-name="dollar" unicode="$" horiz-adv-x="995" 
d="M567 733l21 -12q68 -41 108 -68t82.5 -63t64 -69t35 -76.5t13.5 -96.5q0 -52 -11 -97t-38.5 -88t-70.5 -75t-110.5 -53.5t-154.5 -26.5l-12 -264l-111 -16l-27 18l27 262q-177 11 -303 72q-12 74 -12 143q0 60 12 178l156 11l57 -262q49 -12 102 -15l37 383
q-67 40 -113 74.5t-86 79t-59.5 97.5t-19.5 116q0 139 91.5 229.5t246.5 102.5l12 258l110 16l29 -18l-27 -261q50 -9 97 -28l2 18q82 21 137 21l53 -39q4 -28 4 -58q0 -138 -41 -282h-143l-20 237q-61 10 -101 13zM379 936q0 -49 20.5 -80t73.5 -65l12 292q-25 -3 -43 -12
q-63 -47 -63 -135zM596 164q51 47 51 133q0 57 -24.5 89t-94.5 75l-16 -324q50 6 84 27z" />
    <glyph glyph-name="percent" unicode="%" horiz-adv-x="1689" 
d="M1370 1237l10 -43q-242 -283 -454.5 -585t-433.5 -652l-111 45l-16 47q571 793 798 1043l-16 16q-72 -69 -141.5 -95t-151.5 -26q-74 0 -135 17q6 -44 6 -89q0 -56 -10 -111t-35.5 -111.5t-64 -99.5t-100 -70t-138.5 -27q-139 0 -207 82.5t-70 224.5q-2 167 82 293.5
t217 154.5l43 -67q-69 -43 -110 -152.5t-41 -253.5q0 -101 24 -143.5t82 -42.5q36 0 76 14q43 48 67.5 161t24.5 212q0 54 -14 115q-45 38 -72 86q36 54 86 77h2h45q41 -54 64 -110q91 -47 201 -47q92 0 186 40t211 142zM1333 727q140 0 209.5 -83t69.5 -222q0 -58 -11 -117
t-39 -119.5t-69 -107t-107 -76t-147 -29.5q-140 0 -209 82.5t-69 223.5q0 59 11.5 117.5t39 119t68.5 107t106.5 75.5t146.5 29zM1331 84q46 50 69 161.5t23 211.5q0 176 -106 176q-35 0 -78 -17q-45 -50 -67.5 -160t-22.5 -210q0 -92 26 -134t80 -42q36 0 76 14z" />
    <glyph glyph-name="ampersand" unicode="&#x26;" horiz-adv-x="1462" 
d="M1421 639h-207q-16 -210 -210 -393q166 -161 372 -307l-57 -107q-118 10 -247 80t-253 184q-163 -123 -383 -123q-182 0 -290.5 82.5t-108.5 253.5q0 150 90.5 250.5t269.5 134.5q-63 160 -63 301q0 97 33.5 173.5t91 124t130.5 72t156 24.5q135 0 215 -66.5t80 -189.5
q0 -84 -38 -166t-124 -156.5t-208 -114.5q93 -198 280 -395q50 92 73.5 198.5t23.5 252.5q166 46 333 49l41 -47v-115zM649 1249q-57 -78 -57 -225q0 -125 45 -252q207 155 207 358q0 71 -25 104.5t-80 33.5q-47 0 -90 -19zM297 348q0 -120 65.5 -181t174.5 -61
q107 0 217 52q-203 210 -324 460q-133 -106 -133 -270z" />
    <glyph glyph-name="quotesingle" unicode="'" horiz-adv-x="518" 
d="M502 1473l-111 -472h-158v482q112 33 234 33z" />
    <glyph glyph-name="parenleft" unicode="(" horiz-adv-x="624" 
d="M518 1550l84 -49q-283 -527 -283 -1128q0 -202 28.5 -365.5t88.5 -359.5l-90 -43q-117 156 -175 370t-58 439q0 127 20 265.5t63.5 294t126.5 308t195 268.5z" />
    <glyph glyph-name="parenright" unicode=")" horiz-adv-x="624" 
d="M203 1507l90 43q117 -156 175 -370t58 -439q0 -126 -21 -265.5t-66 -294.5t-128 -307.5t-194 -268.5l-84 49q286 548 286 1128q0 202 -28 366.5t-88 358.5z" />
    <glyph glyph-name="asterisk" unicode="*" horiz-adv-x="976" 
d="M643 1608l62 -11q2 -14 2 -38q0 -103 -84 -271h-91q-34 117 -34 199q0 57 18 121h127zM193 1358l30 55q33 -3 76 -16q91 -31 203 -129l-35 -84q-166 -9 -252 20q-35 11 -68 31zM985 1296l8 -61q-40 -22 -73 -31q-85 -29 -254 -24l-21 86q132 98 229 131q37 11 76 14z
M471 1153l70 -55q-52 -146 -121 -228q-19 -27 -58 -57l-98 61l-43 46q9 19 45 69q48 59 205 164zM573 1096l78 55q128 -88 178 -164q17 -26 33 -67l-104 -80l-58 -29q-26 21 -49 55q-41 63 -78 230z" />
    <glyph glyph-name="plus" unicode="+" 
d="M1110 684v-53l-12 -99h-377l-51 -415h-121l-51 18l49 397h-375v54l12 98h381l49 414h119l53 -19l-47 -395h371z" />
    <glyph glyph-name="comma" unicode="," horiz-adv-x="512" 
d="M205 274q83 0 139 -34q29 -63 29 -142q0 -48 -9 -95t-34.5 -102.5t-65.5 -101t-110 -85t-160 -60.5l-27 76q97 41 163.5 104t66.5 135v29l-101 14l17 252q55 10 92 10z" />
    <glyph glyph-name="hyphen" unicode="-" horiz-adv-x="653" 
d="M578 633l-13 -109h-467v60l13 106h467v-57z" />
    <glyph glyph-name="period" unicode="." horiz-adv-x="512" 
d="M242 299q68 0 98 -12q22 -42 22 -99q0 -87 -61 -188h-207l-12 272q75 27 160 27z" />
    <glyph glyph-name="slash" unicode="/" horiz-adv-x="600" 
d="M666 1448l-582 -1821h-115l-26 27l579 1821h117z" />
    <glyph glyph-name="zero" unicode="0" horiz-adv-x="1157" 
d="M664 1251q108 0 189 -38.5t130.5 -108t73.5 -161t24 -204.5q0 -82 -13 -166t-39 -171.5t-72 -163.5t-106 -136t-146.5 -94.5t-188.5 -34.5q-107 0 -188 38t-130.5 107t-74.5 161t-25 206q0 100 18 201t60.5 204t105.5 182t162 129t220 50zM643 1130q-59 0 -113 -26
q-79 -88 -123.5 -304t-44.5 -411q0 -152 42 -223.5t135 -71.5q56 0 112 27q80 84 122 299.5t42 415.5q0 150 -40 222t-132 72z" />
    <glyph glyph-name="one" unicode="1" horiz-adv-x="755" 
d="M662 100v-47l-7 -53h-626v98q96 36 209 43l84 826q-74 -21 -205 -25v57l10 76q90 5 188 48t164 126l111 -24l-113 -1108z" />
    <glyph glyph-name="two" unicode="2" horiz-adv-x="968" 
d="M723 315l131 -6q10 -68 10 -116q0 -140 -51 -230h-123q-121 2 -271.5 23t-250.5 53l-100 -72q-44 12 -91 49v37q69 56 102 83t99.5 83t101.5 89.5t90.5 88t86 93.5t68.5 91.5t57.5 96.5t33 94.5t13.5 97.5q0 100 -51.5 147.5t-128.5 47.5q-79 0 -130 -46.5t-51 -133.5
q0 -45 19 -113l-107 -35q-86 89 -86 191q0 138 115.5 231.5t296.5 93.5q174 0 283.5 -95t109.5 -249q0 -174 -147 -354.5t-424 -380.5h358z" />
    <glyph glyph-name="three" unicode="3" horiz-adv-x="999" 
d="M637 580v-23q117 -35 174 -107.5t57 -189.5q0 -188 -132.5 -309t-362.5 -121q-176 0 -334 74l14 100q95 -14 178 -14q367 0 367 276q0 74 -31 126t-106 83q-77 -27 -158 -41l-37 29q-6 30 -6 67q0 24 4 60q38 18 133 18q22 0 58 -4q80 48 130 121.5t50 165.5
q0 93 -51.5 136.5t-130.5 43.5q-97 0 -144 -57t-47 -137v-39l-110 -7q-46 75 -46 138q0 114 108.5 199t291.5 85t289 -92.5t106 -247.5q0 -70 -22.5 -127t-63.5 -96t-83 -64t-95 -46z" />
    <glyph glyph-name="four" unicode="4" horiz-adv-x="1021" 
d="M956 317v-57l-12 -98h-156q-10 -96 -26 -305h-242q13 162 27 305h-490l-39 102q212 434 322 725l-49 211l198 57q97 -78 97 -186q0 -95 -85.5 -258t-299.5 -491l10 -19q133 14 217 14h135q15 136 43 324q87 51 189 68l55 -29q-24 -163 -47 -363h153z" />
    <glyph glyph-name="five" unicode="5" horiz-adv-x="956" 
d="M375 698q232 0 356.5 -109t124.5 -300q0 -129 -55.5 -232.5t-165.5 -165t-256 -61.5q-183 0 -328 74l19 114q88 -14 170 -14q182 0 265 75.5t83 207.5q0 137 -96.5 193t-350.5 83l80 660l133 28q112 -49 238 -49q130 0 272 51l27 -94q-129 -170 -332 -170q-121 0 -237 53
l-54 -346q37 2 107 2z" />
    <glyph glyph-name="six" unicode="6" horiz-adv-x="1120" 
d="M838 1397q89 0 184 -25l2 -100q-110 0 -201.5 -25t-159 -68.5t-119.5 -107.5t-85.5 -137t-54.5 -161.5t-29.5 -177t-7.5 -187.5q1 -40 3 -70t7.5 -70t17.5 -67.5t30.5 -53.5t48.5 -39.5t69 -13.5q52 0 108 23q58 52 89.5 151.5t29.5 206.5q0 115 -36 162t-103 47
q-52 0 -139 -33l-15 97q102 112 256 112q141 0 223 -90.5t82 -255.5q0 -83 -21.5 -162t-66 -147.5t-106 -120.5t-147.5 -81.5t-185 -29.5q-82 0 -148 22t-110 62t-75 89.5t-48 111t-24 118.5t-7 120q0 131 27 258t86.5 244t144 205.5t208.5 141t272 52.5z" />
    <glyph glyph-name="seven" unicode="7" horiz-adv-x="978" 
d="M1030 1200l6 -37q-134 -186 -242 -356t-176 -299t-108 -218.5t-66 -162.5l21 -246l-178 -53q-59 18 -92 69t-33 117q-1 153 154.5 392t469.5 606h-489l-41 -158h-131q-10 58 -10 123q0 168 45 270q181 0 389 -22.5t319 -61.5l58 78q56 -9 104 -41z" />
    <glyph glyph-name="eight" unicode="8" horiz-adv-x="1095" 
d="M745 737v-22q52 -35 80.5 -57t63 -54.5t51.5 -61.5t29 -69.5t12 -87.5q0 -57 -14.5 -111.5t-50 -110t-90 -97t-141.5 -67.5t-196 -26q-194 0 -303.5 81t-109.5 237q0 139 81.5 242t204.5 149v23q-59 39 -97 77.5t-64.5 97.5t-26.5 132q0 75 27 141t80.5 119.5t144 85
t207.5 31.5q177 0 284 -75t107 -224q0 -73 -27 -135t-72 -104t-88.5 -68.5t-91.5 -45.5zM510 1239q-32 -31 -52 -82t-20 -102q0 -72 42 -126t124 -106l35 -22q145 112 145 289q0 178 -149 178q-65 0 -125 -29zM635 123q36 33 58 93t22 120q0 41 -11 72t-40 62.5t-65 58
t-101 69.5l-33 23q-75 -61 -113.5 -146t-38.5 -178q0 -98 44.5 -150.5t134.5 -52.5q72 0 143 29z" />
    <glyph glyph-name="nine" unicode="9" horiz-adv-x="1120" 
d="M631 1253q98 0 173 -32.5t119 -83.5t72 -122.5t37.5 -140t9.5 -145.5q0 -131 -27.5 -258t-86.5 -243.5t-143.5 -204.5t-208.5 -140.5t-271 -52.5q-93 0 -184 25l-2 98q110 0 201.5 24.5t158.5 68t119.5 106.5t85.5 135.5t54 160.5t29 176t7 187q0 48 -2.5 84t-13 80
t-28.5 72.5t-51.5 48.5t-80.5 20q-52 0 -106 -22q-58 -52 -89.5 -151.5t-31.5 -207.5q1 -114 37 -160.5t102 -46.5q49 0 139 39l17 -88q-102 -112 -258 -112q-141 0 -222.5 90t-81.5 254q0 106 35 202.5t100 172.5t167 121.5t225 45.5z" />
    <glyph glyph-name="colon" unicode=":" horiz-adv-x="512" 
d="M242 299q68 0 98 -12q22 -42 22 -99q0 -87 -61 -188h-207l-12 272q75 27 160 27zM319 1047q67 0 99 -13q22 -42 22 -98q0 -87 -61 -188h-207l-12 272q75 27 159 27z" />
    <glyph glyph-name="semicolon" unicode=";" horiz-adv-x="512" 
d="M205 274q83 0 139 -34q29 -63 29 -142q0 -48 -9 -95t-34.5 -102.5t-65.5 -101t-110 -85t-160 -60.5l-27 76q97 41 163.5 104t66.5 135v29l-101 14l17 252q55 10 92 10zM319 1047q67 0 99 -13q22 -42 22 -98q0 -87 -61 -188h-207l-12 272q75 27 159 27z" />
    <glyph glyph-name="less" unicode="&#x3c;" 
d="M1128 989l-708 -377v-24l606 -365l-74 -145l-766 424l25 205l862 421z" />
    <glyph glyph-name="equal" unicode="=" 
d="M1085 426l-12 -98h-926v53l13 98h925v-53zM1135 836l-13 -99h-925v54l12 98h926v-53z" />
    <glyph glyph-name="greater" unicode="&#x3e;" 
d="M1096 705l-25 -205l-864 -422l-53 139l706 377v24l-606 365l76 145z" />
    <glyph glyph-name="question" unicode="?" horiz-adv-x="698" 
d="M338 1378q80 0 142.5 -22.5t103.5 -60t67.5 -90.5t37.5 -110.5t11 -123.5q0 -44 -6 -79t-27 -80t-57 -84t-102 -82.5t-156 -82.5l-26 -170h-144q-35 95 -35 172q0 39 8.5 67.5t20.5 48.5t42.5 41t58 36t83.5 41q136 64 184 105.5t48 111.5q0 5 -4 55q-64 35 -172.5 55
t-239.5 19l21 217q86 16 141 16zM268 270q52 0 90 -14q21 -40 21 -90q0 -75 -55 -166h-195l-12 244q85 26 151 26z" />
    <glyph glyph-name="at" unicode="@" horiz-adv-x="1826" 
d="M1077 1430q342 0 523.5 -176.5t181.5 -479.5q0 -153 -47.5 -281.5t-126 -211t-176.5 -127.5t-201 -45q-71 0 -106 22t-35 74q0 20 6.5 60.5t15 82t26 129.5t31.5 158l-22 4q-42 -133 -74 -218t-66.5 -152.5t-71.5 -102.5t-81 -52.5t-102 -17.5q-120 0 -188 73.5
t-68 248.5q0 75 13 150t38 148t66 135.5t93 110.5t122.5 75.5t150.5 27.5q135 0 199 -70l14 54q52 16 168 16l45 -39l-94 -788q146 20 231.5 156.5t85.5 348.5q0 263 -138 412.5t-396 149.5q-158 0 -302.5 -57.5t-256 -162t-178 -264t-66.5 -350.5q0 -136 34.5 -240.5
t96.5 -175t154 -115t201.5 -64t244.5 -19.5v-86q-122 -31 -225 -31q-117 0 -221.5 27t-195 84.5t-155.5 141t-102 203.5t-37 265q0 208 74 388t203.5 307.5t314.5 200.5t399 73zM891 266q62 85 119.5 229.5t138.5 413.5q-68 35 -143 35q-58 0 -101 -16q-77 -97 -116 -238
t-39 -280q0 -86 21 -117t77 -31q25 0 43 4z" />
    <glyph glyph-name="A" unicode="A" horiz-adv-x="1327" 
d="M1276 104v-47l-6 -57h-543v100q62 32 143 43q-9 41 -27.5 122t-27.5 122h-438q-18 -45 -53 -134t-52 -134l140 -15v-47l-9 -57h-421v100q61 31 145 43q229 551 498 1121l-21 94l53 45q115 0 203 -23q185 -873 287 -1263zM430 518h356q-5 22 -106 526h-23
q-78 -171 -227 -526z" />
    <glyph glyph-name="B" unicode="B" horiz-adv-x="1241" 
d="M868 717v-23q136 -29 199 -95t63 -193q0 -64 -15 -120.5t-53.5 -110t-97.5 -91.5t-153 -61t-215 -23h-565v100q77 30 159 45l99 1082l-150 18v47l6 60q258 26 484 26q264 0 386 -79t122 -240q0 -122 -66.5 -211.5t-202.5 -130.5zM854 1057q0 99 -50.5 144.5t-174.5 45.5
h-82l-45 -485h237q49 51 82 130t33 165zM784 176q33 38 48.5 110t15.5 136q0 106 -52.5 162.5t-183.5 56.5h-123l-47 -510h131q141 0 211 45z" />
    <glyph glyph-name="C" unicode="C" horiz-adv-x="1226" 
d="M606 1210q-92 -72 -154.5 -262t-62.5 -391q0 -213 74 -304t229 -91q82 0 186 36t197 107l27 -104q-97 -104 -230 -166t-268 -62q-254 0 -381 155t-127 423q0 120 25 238t79 227t130 191.5t187.5 132t242.5 49.5q117 0 209 -54l4 33q102 23 145 23l53 -39q5 -35 5 -60
q0 -128 -41 -313h-152l-20 244q-96 26 -177 26q-88 0 -180 -39z" />
    <glyph glyph-name="D" unicode="D" horiz-adv-x="1357" 
d="M637 1378q184 0 314.5 -40t206 -118t109 -180.5t33.5 -240.5q0 -75 -9 -148.5t-32.5 -154t-59 -151t-92.5 -135t-129.5 -110.5t-173.5 -73t-220 -27h-553v100q91 35 159 45l99 1082l-150 18v47l6 60q266 26 492 26zM844 201q86 103 127 271t41 359q0 210 -73 314
t-251 104h-135l-102 -1118h118q166 0 275 70z" />
    <glyph glyph-name="E" unicode="E" horiz-adv-x="1177" 
d="M549 1239l-45 -483l338 16l18 -45l-14 -113l-352 19l-48 -514h373l78 235l152 -12q4 -58 4 -88q0 -125 -49 -283l-54 -6l-641 35h-280v100q77 30 159 45l99 1082l-150 16v49l8 60q283 10 525 10h288q97 29 144 29l51 -29q4 -32 4 -68q0 -133 -39 -286h-147l-19 215z" />
    <glyph glyph-name="F" unicode="F" horiz-adv-x="1093" 
d="M1069 1391l51 -29q4 -32 4 -68q0 -133 -39 -286h-147l-18 215l-369 16l-49 -524l340 16l18 -45l-14 -113l-357 19l-43 -469l172 -12v-52l-6 -59h-583v100q77 34 159 45l99 1082l-150 16v49l8 60q283 10 525 10h256q97 29 143 29z" />
    <glyph glyph-name="G" unicode="G" horiz-adv-x="1304" 
d="M1235 606v-100q-55 -25 -92 -33l-43 -461l-56 -37q-72 0 -137 19l-12 55q-119 -76 -285 -76q-241 0 -377.5 155t-136.5 429q0 118 25.5 234.5t80 224.5t131.5 191t188.5 132.5t242.5 49.5t223 -52l2 31q102 23 146 23l53 -39q4 -28 4 -60q0 -128 -41 -313h-152l-20 246
q-91 24 -184 24t-191 -39q-92 -75 -154.5 -273.5t-62.5 -416.5q0 -94 13.5 -165t45 -127t87.5 -85.5t135 -29.5q115 0 217 51l12 321l-141 13v51l8 57h471z" />
    <glyph glyph-name="H" unicode="H" horiz-adv-x="1464" 
d="M1477 1362v-100q-75 -32 -162 -43l-103 -1100l152 -15v-47l-6 -57h-559v100q78 36 155 43l45 496h-503l-47 -520l139 -15v-47l-8 -57h-549v100q77 36 159 43l101 1100l-152 14v48l6 57h557v-100q-67 -33 -151 -43l-43 -451h504l43 475l-142 14v48l7 57h557z" />
    <glyph glyph-name="I" unicode="I" horiz-adv-x="700" 
d="M713 1362v-100q-72 -32 -162 -43l-102 -1100l151 -15v-47l-6 -57h-563v100q77 36 159 43l101 1100l-152 14v48l6 57h568z" />
    <glyph glyph-name="J" unicode="J" horiz-adv-x="933" 
d="M948 1362v-100q-71 -30 -162 -45l-96 -992q-9 -89 -25 -157.5t-46.5 -130t-75 -100.5t-112 -62t-155.5 -23q-112 0 -206 34.5t-150 98.5l41 111q208 -74 397 -80q54 95 72 305l96 1020l-266 12v50l8 59h680z" />
    <glyph glyph-name="K" unicode="K" horiz-adv-x="1359" 
d="M1348 1362v-100q-54 -26 -140 -41q-170 -246 -362 -465q153 -402 291 -613l125 7l8 -107q-103 -63 -223 -63q-74 0 -122 33t-83 96q-104 177 -185 516h-161l-47 -506l145 -15v-47l-8 -57h-555v100q77 36 159 43l101 1100l-152 14v48l6 57h566v-100q-68 -32 -160 -43
l-45 -474l186 13q176 217 342 485l-149 14v48l6 57h457z" />
    <glyph glyph-name="L" unicode="L" horiz-adv-x="1081" 
d="M850 354l151 -12q5 -73 5 -88q0 -122 -50 -283l-51 -6l-592 35h-282v100q91 35 159 45l101 1098l-152 14v48l6 57h578v-100q-77 -33 -172 -43l-102 -1100h323z" />
    <glyph glyph-name="M" unicode="M" horiz-adv-x="1771" 
d="M1755 1362v-100q-81 -36 -166 -43q-17 -575 -53 -1098l154 -17v-47l-7 -57h-553v100q66 32 148 43q64 709 82 1043h-23q-97 -223 -430 -1112q-76 -29 -162 -35l-45 12q-100 559 -223 1135h-22q-39 -282 -123 -1065l153 -17v-47l-6 -57h-461v100q61 27 160 43
q71 566 150 1084l-158 16v49l6 58q199 12 524 12q46 -196 100 -487t79 -490h22q191 576 363 977h491z" />
    <glyph glyph-name="N" unicode="N" horiz-adv-x="1445" 
d="M1460 1362v-100q-30 -15 -77 -27.5t-83 -15.5l-114 -1211q-98 -28 -205 -31l-45 11l-354 803q-101 241 -146 391h-24l-66 -1063l152 -15v-47l-9 -57h-458v100q77 34 157 45l103 1080l-152 18v49l6 58q246 12 478 12l288 -660q70 -159 158 -401h23l49 940l-162 16v48l6 57
h475z" />
    <glyph glyph-name="O" unicode="O" horiz-adv-x="1404" 
d="M805 1389q260 0 401.5 -158t141.5 -432q0 -98 -18.5 -195t-54.5 -190t-95 -172.5t-135.5 -140t-180.5 -94.5t-225 -34q-260 0 -401.5 158t-141.5 434q0 119 25 234t81 222.5t137 188.5t201 130t265 49zM782 1249q-81 0 -176 -39q-93 -72 -155 -267.5t-62 -418.5
q0 -94 13.5 -165.5t44 -128.5t86 -87t133.5 -30q84 0 176 39q93 72 155 267.5t62 418.5q0 94 -13.5 165.5t-44 128.5t-86 87t-133.5 30z" />
    <glyph glyph-name="P" unicode="P" horiz-adv-x="1181" 
d="M643 1374q146 0 248 -26.5t159.5 -79t82 -120.5t24.5 -161q0 -223 -118.5 -355t-329.5 -132q-53 0 -127 12v113q106 2 184 28q100 119 100 344q0 127 -47 188.5t-174 61.5h-96l-103 -1122l195 -14v-52l-6 -59h-606v100q69 32 159 43l101 1084l-152 16v49l8 60
q290 22 498 22z" />
    <glyph glyph-name="Q" unicode="Q" horiz-adv-x="1413" 
d="M807 1389q263 0 403 -158t140 -443q0 -136 -32 -265t-93 -238.5t-160 -184t-223 -92.5l-2 -22q163 -104 298 -147.5t300 -43.5q79 0 172 8l12 -102q-51 -38 -131 -61t-172 -23q-87 0 -169 21t-145 54.5t-117.5 78.5t-91.5 89.5t-63 90.5v104q113 58 187.5 175
t106.5 263.5t32 323.5q0 78 -7 139t-25.5 118t-48.5 94t-79 59t-115 22q-84 0 -176 -39q-93 -71 -156 -268.5t-63 -406.5q0 -180 59.5 -293.5t200.5 -165.5l-26 -103q-253 6 -389 165.5t-136 434.5q0 95 17.5 189t53 186.5t94 171.5t134.5 139.5t181.5 95t228.5 34.5z" />
    <glyph glyph-name="R" unicode="R" horiz-adv-x="1286" 
d="M1235 150l6 -107q-103 -63 -223 -63q-79 0 -124 33t-81 96q-89 149 -168 450h-164l-39 -440l154 -15v-47l-8 -57h-557v100q66 31 159 43l99 1084l-150 18v49l6 58q254 26 488 26q279 -1 404.5 -89t125.5 -267q0 -286 -291 -416q128 -303 236 -463zM494 692h241
q144 121 144 328q0 117 -56.5 170t-181.5 53h-98z" />
    <glyph glyph-name="S" unicode="S" horiz-adv-x="1071" 
d="M621 815l71 -45q63 -40 107.5 -77.5t86 -87.5t62.5 -112.5t21 -136.5q0 -60 -14 -113t-50 -103.5t-90.5 -86.5t-141.5 -58t-198 -22q-221 0 -393 80q-14 77 -14 158q0 79 14 186l162 11l57 -275q80 -24 168 -24q114 0 170 34q55 55 55 154q0 45 -11.5 80.5t-39 65.5
t-54 51t-75.5 53l-72 45q-138 89 -206 187t-68 222q0 168 114.5 278t303.5 110q120 0 213 -56l4 35q102 23 145 23l53 -39q5 -35 5 -58q0 -133 -41 -290h-152l-20 225q-82 24 -166 24q-79 0 -135 -24q-70 -56 -70 -154q0 -44 13.5 -80t44 -68t60.5 -55t81 -57z" />
    <glyph glyph-name="T" unicode="T" horiz-adv-x="1173" 
d="M1157 1391l51 -29q4 -32 4 -68q0 -137 -38 -286h-148l-18 217l-209 12l-103 -1118l166 -15v-47l-6 -57h-602v100q77 32 182 43l105 1100h-201l-78 -239l-141 10q-4 58 -4 90q0 141 49 287l53 6l461 -35h334q97 29 143 29z" />
    <glyph glyph-name="U" unicode="U" horiz-adv-x="1355" 
d="M1401 1362v-100q-58 -31 -166 -45q-36 -543 -66 -760q-68 -484 -524 -484q-226 0 -339 112.5t-113 332.5q0 156 71 825l-151 14v48l6 57h559v-100q-61 -28 -154 -43q-73 -678 -73 -826q0 -151 57.5 -219t189.5 -68q112 0 199 46q93 96 117 317q33 279 65 772l-145 16v48
l6 57h461z" />
    <glyph glyph-name="V" unicode="V" horiz-adv-x="1294" 
d="M1352 1362v-100q-53 -26 -121 -39q-86 -262 -228 -608.5t-262 -606.5q-84 -25 -198 -28l-60 40q-82 343 -268 1225l-125 12v48l6 57h537v-100q-55 -32 -137 -43q22 -120 92.5 -495t93.5 -507h23q90 212 199 505.5t171 518.5l-153 16v48l6 57h424z" />
    <glyph glyph-name="W" unicode="W" horiz-adv-x="2007" 
d="M2056 1362v-100q-52 -25 -119 -39q-85 -266 -221 -615.5t-246 -599.5q-84 -25 -198 -28l-60 40q-85 427 -143 814h-22q-105 -342 -318 -826q-84 -25 -199 -28l-61 40q-64 291 -236 1225l-124 12v48l6 57h536v-100q-59 -32 -139 -43q108 -706 158 -1002h22
q59 139 151 391.5t163 472.5l-31 166l-94 10v48l6 57h510v-100q-66 -36 -144 -43q126 -800 160 -1002h23q82 205 184 501t160 523l-154 16v48l6 57h424z" />
    <glyph glyph-name="X" unicode="X" horiz-adv-x="1335" 
d="M1225 1219q-246 -345 -375 -508q191 -382 285 -594l127 -13v-47l-9 -57h-579v100q63 28 153 43q-151 346 -194 428h-25q-147 -201 -305 -452l143 -15v-47l-6 -57h-440v100q67 32 139 43q123 169 412 537q-181 357 -270 563l-134 14v48l7 57h581v-100q-79 -23 -145 -39
q84 -216 176 -404h25q108 159 270 424l-143 14v48l6 57h430v-100q-56 -29 -129 -43z" />
    <glyph glyph-name="Y" unicode="Y" horiz-adv-x="1273" 
d="M1186 1219q-138 -297 -414 -738l-33 -362l162 -15v-47l-6 -57h-596v100q71 30 180 43l31 332q-155 447 -291 768l-129 14v48l6 57h555v-100q-61 -30 -153 -41q134 -364 207 -596h22q199 330 311 616l-141 16v48l6 57h428v-100q-75 -37 -145 -43z" />
    <glyph glyph-name="Z" unicode="Z" horiz-adv-x="1142" 
d="M907 354l152 -12q4 -58 4 -88q0 -125 -49 -283l-53 -6l-693 35l-209 -2l-16 82q284 433 442.5 670t213.5 314.5t122 164.5l-6 16l-473 -20l-39 -217h-149q-17 126 -17 206q0 75 15 148l53 29q42 0 139 -29h778l17 -80q-381 -587 -527 -803t-247 -346l8 -16l456 2z" />
    <glyph glyph-name="bracketleft" unicode="[" horiz-adv-x="620" 
d="M614 1403l-204 -10q4 -108 2 -166q-9 -721 -146 -1463l197 -10l-6 -114h-297l-54 53l162 1823h346v-113z" />
    <glyph glyph-name="backslash" unicode="\" horiz-adv-x="925" 
d="M729 -373l-582 1821l27 27h117l579 -1821l-26 -27h-115z" />
    <glyph glyph-name="bracketright" unicode="]" horiz-adv-x="618" 
d="M530 1462l-163 -1822h-349v112l207 10q-4 108 -2 166q9 709 148 1463l-199 10l6 115h299z" />
    <glyph glyph-name="asciicircum" unicode="^" horiz-adv-x="886" 
d="M901 1036l-141 -86l-240 348h-20l-277 -348l-119 86l367 471h178z" />
    <glyph glyph-name="underscore" unicode="_" horiz-adv-x="837" 
d="M684 -211l-8 -84h-692v41l8 84h692v-41z" />
    <glyph glyph-name="grave" unicode="`" horiz-adv-x="514" 
d="M528 1174h-110l-248 290q55 92 127 129h125z" />
    <glyph glyph-name="a" unicode="a" horiz-adv-x="1167" 
d="M1114 188l21 -94q-65 -52 -141.5 -83t-141.5 -31q-133 0 -133 114q0 19 3.5 47.5t12.5 75t18 91.5t25 124.5t29 147.5l-23 4q-48 -151 -85.5 -249t-76.5 -172.5t-80.5 -113.5t-89.5 -57.5t-112 -18.5q-63 0 -110 17t-84.5 56.5t-56.5 110.5t-19 173t19 203.5t60.5 198
t101.5 170t149 118.5t196 45q145 0 223 -78l17 60q64 18 163 18l50 -45l-107 -885q75 0 172 53zM487 145q67 88 136.5 264t164.5 492q-74 45 -163 45q-45 0 -115 -18q-86 -109 -130 -280t-44 -335q0 -98 21.5 -136t76.5 -38q23 0 53 6z" />
    <glyph glyph-name="b" unicode="b" horiz-adv-x="1155" 
d="M813 1065q65 0 112.5 -17t84.5 -56.5t56 -112t19 -177.5q0 -102 -18 -200.5t-61 -195.5t-107.5 -170t-165.5 -118t-227 -45q-91 0 -206 20t-202 48l148 1325l-119 33l10 96q141 40 322 47l47 -45l-66 -520q-24 -161 -94 -518l23 -6q40 126 71.5 213.5t65 159.5t64.5 115
t69 72.5t79 40.5t95 11zM643 113q86 109 130 279t44 331q0 101 -21 138.5t-77 37.5q-13 0 -49 -4q-69 -91 -140.5 -268.5t-169.5 -503.5q85 -29 166 -29q58 0 117 19z" />
    <glyph glyph-name="c" unicode="c" horiz-adv-x="927" 
d="M508 154q138 0 299 122l24 -100q-82 -95 -189.5 -149t-227.5 -54t-201 58.5t-116.5 153t-35.5 218.5q0 88 17.5 176.5t59 177t102 156t155 110t209.5 42.5q106 0 184 -38.5t97 -119.5l-99 -127l-251 162q-33 -5 -66 -20q-67 -73 -103 -219t-36 -277q0 -272 178 -272z" />
    <glyph glyph-name="d" unicode="d" horiz-adv-x="1167" 
d="M1114 188l21 -94q-65 -52 -141.5 -83t-141.5 -31q-133 0 -133 114q0 23 7.5 68.5t17 93.5t29.5 146t36 178l-25 6q-47 -151 -84 -248.5t-75.5 -173t-80 -114.5t-90 -58t-112.5 -19t-111.5 17t-85 56.5t-56.5 110.5t-19 173q0 84 13.5 169t40.5 168t71 154.5t101 126
t134.5 86t167.5 31.5q136 0 213 -53l37 354l-121 33l12 96q152 40 320 47l49 -45l-166 -1362q75 0 172 53zM485 145q69 93 142.5 275.5t163.5 490.5q-89 35 -164 35q-50 0 -115 -18q-88 -109 -132 -280t-44 -335q0 -98 22 -136t76 -38q21 0 51 6z" />
    <glyph glyph-name="e" unicode="e" horiz-adv-x="972" 
d="M518 150q70 0 156.5 37t167.5 104l26 -98q-88 -102 -202.5 -161t-245.5 -59q-92 0 -162 32t-112.5 90.5t-63.5 135t-21 170.5q0 89 17 177.5t58.5 177.5t102.5 156.5t157 110t214 42.5q161 0 240.5 -72.5t79.5 -193.5q0 -99 -51.5 -171t-140 -111t-192 -55.5
t-220.5 -12.5v-27q0 -272 192 -272zM571 944q-53 0 -102 -22q-56 -56 -90.5 -164.5t-46.5 -227.5q179 20 261.5 91.5t82.5 193.5q0 65 -24 97t-81 32z" />
    <glyph glyph-name="f" unicode="f" horiz-adv-x="612" 
d="M881 1290l-330 80q-30 -8 -59 -24q-25 -123 -35 -330h213v-58l-17 -69h-204l-80 -836q-24 -256 -113.5 -372.5t-245.5 -116.5q-80 0 -160.5 28t-138.5 80l29 99q191 -60 317 -60q46 91 62 277l86 884l-139 21v96q76 23 153 35q15 123 51.5 217t82.5 150t106.5 91
t116 47.5t116.5 12.5q154 0 236 -82z" />
    <glyph glyph-name="g" unicode="g" horiz-adv-x="1017" 
d="M399 236l209 -58q174 -51 247 -102t73 -142q0 -71 -39.5 -136.5t-113.5 -118t-191.5 -84t-261.5 -31.5q-377 0 -377 211q0 53 25.5 100t70.5 83t96 63t111 47q-33 38 -33 96q0 100 102 205q-113 27 -170 100.5t-57 183.5q0 82 32.5 156.5t91 131.5t146.5 90.5t191 33.5
q131 0 221 -55q43 231 217 231l64 -147l-217 -133q82 -88 82 -218q0 -73 -29 -141t-84 -124.5t-145.5 -90t-204.5 -33.5l-41 2zM432 924q-40 -34 -67 -115t-27 -168q0 -89 37.5 -128.5t97.5 -39.5q53 0 100 21q38 34 66.5 115t28.5 169q0 166 -133 166q-55 0 -103 -20z
M672 -248q43 37 43 80q0 30 -19.5 48.5t-70.5 35.5l-240 76q-45 14 -82 33q-131 -112 -131 -199q0 -67 54.5 -104t160.5 -37q77 0 155 17t130 50z" />
    <glyph glyph-name="h" unicode="h" horiz-adv-x="1189" 
d="M1126 188l19 -94q-64 -52 -140 -83t-145 -31q-147 0 -147 135q0 59 50 333t50 347q0 54 -21.5 79t-72.5 25q-31 0 -51 -4q-162 -214 -344 -895q-73 -20 -181 -20l-49 45l152 1341l-121 33l12 96q152 40 320 47l49 -45l-68 -520q-32 -254 -86 -506l23 -4q48 147 84 240.5
t75 168t79.5 113t88.5 57.5t111 19q242 0 242 -242q0 -27 -3 -63.5t-9.5 -87t-12.5 -92t-17.5 -110t-18.5 -107t-21 -118t-19 -110.5q71 0 172 53z" />
    <glyph glyph-name="i" unicode="i" horiz-adv-x="579" 
d="M467 1012l-105 -877q65 0 166 53l19 -94q-141 -114 -275 -114q-73 0 -112 32t-39 107q0 120 88 762l-143 12v96q181 59 354 68zM414 1516q45 0 82 -13q22 -42 22 -88q0 -76 -57 -168h-193l-12 242q88 27 158 27z" />
    <glyph glyph-name="j" unicode="j" horiz-adv-x="559" 
d="M469 1012l-119 -977q-29 -245 -117 -358t-239 -113q-146 0 -244 88l31 98q7 -2 35.5 -8.5t41.5 -9.5t40.5 -8t46 -7.5t44 -4t48.5 -1.5q45 89 65 275l109 895l-145 12v96q181 59 356 68zM389 1516q45 0 82 -13q23 -44 23 -88q0 -74 -58 -168h-192l-13 242q88 27 158 27z
" />
    <glyph glyph-name="k" unicode="k" horiz-adv-x="1177" 
d="M1094 188l20 -96q-126 -112 -270 -112q-47 0 -80.5 13t-56 42.5t-36.5 62t-30 84.5q-49 148 -57 269l102 30q65 66 104 153t39 165q0 54 -23.5 77t-80.5 23q-31 0 -51 -4q-161 -213 -346 -895q-73 -20 -183 -20l-49 45l150 1341l-119 33l10 96q152 40 320 47l49 -45
l-66 -520q-40 -293 -86 -506l23 -4q62 188 108 298.5t98.5 180.5t107 94.5t134.5 24.5q127 0 199 -59t72 -181q0 -129 -79.5 -228t-207.5 -153q71 -203 123 -307q68 5 162 51z" />
    <glyph glyph-name="l" unicode="l" horiz-adv-x="585" 
d="M457 1542l49 -45q-20 -172 -62 -491.5t-70 -547t-32 -323.5q37 0 92 15t96 36l21 -94q-63 -50 -140.5 -81t-146.5 -31q-160 0 -160 155q0 57 20.5 235t62.5 507.5t61 488.5l-123 33l10 96q152 40 322 47z" />
    <glyph glyph-name="m" unicode="m" horiz-adv-x="1826" 
d="M1761 188l21 -94q-144 -114 -283 -114q-149 0 -149 135q0 59 50 333.5t50 348.5q0 53 -21.5 77.5t-72.5 24.5q-29 0 -47 -4q-157 -209 -342 -895q-70 -20 -187 -20l-49 45q17 136 43.5 322t38.5 284.5t12 152.5q0 61 -20 88t-74 27q-29 0 -49 -4q-156 -211 -340 -895
q-70 -20 -186 -20l-50 45l103 856l-143 12v96q181 59 354 68l45 -45l-98 -541l22 -4q48 149 84.5 244t75 169t79 111.5t87.5 55.5t110 18q230 0 230 -211q0 -96 -64 -383l25 -4q47 148 82 239.5t73 167t78.5 114t89 58t113.5 19.5q240 0 240 -242q0 -124 -95 -644
q-5 -29 -8 -44q75 0 172 53z" />
    <glyph glyph-name="n" unicode="n" horiz-adv-x="1202" 
d="M1139 188l18 -94q-64 -52 -140 -83t-145 -31q-149 0 -149 135q0 59 51 333t51 347q0 54 -21.5 79t-74.5 25q-27 0 -47 -4q-175 -232 -344 -895q-73 -20 -182 -20l-50 45l103 856l-143 12v96q170 58 352 68l47 -45l-100 -541l24 -4q59 184 102.5 291t94.5 180.5t106 100
t133 26.5q242 0 242 -242q0 -128 -102 -688q73 0 174 53z" />
    <glyph glyph-name="o" unicode="o" horiz-adv-x="1077" 
d="M610 1065q104 0 183 -32.5t127 -92t72 -138t24 -175.5q0 -84 -17 -170t-58 -174.5t-101.5 -156t-156.5 -110.5t-214 -43q-204 0 -305 119.5t-101 319.5q0 70 12.5 141.5t38 146.5t69.5 139.5t102.5 115.5t142 80.5t182.5 29.5zM586 944q-58 0 -107 -22
q-72 -72 -110.5 -245t-38.5 -333q0 -128 40 -189t126 -61q55 0 106 23q71 70 109.5 244t38.5 331q0 132 -39 192t-125 60z" />
    <glyph glyph-name="p" unicode="p" horiz-adv-x="1155" 
d="M817 1065q63 0 110 -17t84.5 -56t56.5 -109.5t19 -171.5q0 -103 -18.5 -204.5t-60 -198.5t-101 -171t-148 -119t-194.5 -45q-145 0 -219 66l-49 -449q-64 -26 -193 -26l-49 45l154 1272l-143 12v96q183 59 344 68l47 -45l-109 -553l23 -6q47 150 84.5 249t76.5 173.5
t81.5 113.5t91 57.5t112.5 18.5zM649 113q86 109 129 278.5t43 333.5q0 99 -21 136.5t-77 37.5q-11 0 -51 -4q-68 -90 -139.5 -267t-165.5 -493q77 -41 170 -41q53 0 112 19z" />
    <glyph glyph-name="q" unicode="q" horiz-adv-x="1140" 
d="M901 -262l121 -31l-12 -96q-152 -40 -320 -47l-49 45l59 430q8 59 19 121.5t25 128t23 106.5t24 106t18 79l-25 4q-60 -189 -104.5 -300t-96.5 -184.5t-107 -100t-134 -26.5q-64 0 -111.5 17t-85 56.5t-56.5 110.5t-19 173q0 103 19 204.5t61 197.5t102 170t149 118.5
t195 44.5q151 0 223 -78l17 60q64 18 163 18l52 -45zM485 143q68 90 138 266.5t163 491.5q-71 45 -161 45q-48 0 -113 -18q-88 -109 -132 -280t-44 -335q0 -98 22 -136t76 -38q11 0 51 4z" />
    <glyph glyph-name="r" unicode="r" horiz-adv-x="829" 
d="M827 813l-188 12q-73 -124 -141 -315.5t-156 -509.5q-73 -20 -186 -20l-50 45l103 856l-143 12v96q171 59 344 68l47 -45l-103 -559l23 -7q36 119 61 195t54.5 153.5t55 122t56 81.5t64.5 52t75 15q74 0 115 -64z" />
    <glyph glyph-name="s" unicode="s" horiz-adv-x="833" 
d="M524 594q59 -48 90.5 -77.5t65.5 -70.5t48.5 -82.5t14.5 -91.5q0 -137 -106 -218t-281 -81q-133 0 -220.5 47t-110.5 140l110 127l268 -191q41 6 76 21q29 42 29 96q-1 59 -34.5 98.5t-135.5 122.5q-65 55 -95 83.5t-65.5 71t-49 83t-13.5 90.5q0 142 112 222.5t285 80.5
q120 0 201 -40t102 -120l-98 -123l-256 162q-50 -6 -82 -20q-37 -46 -37 -107q0 -53 32.5 -91t130.5 -117q12 -10 19 -15z" />
    <glyph glyph-name="t" unicode="t" horiz-adv-x="718" 
d="M721 1016v-58l-16 -69h-250q-79 -592 -86 -762q124 0 268 55l18 -94q-68 -50 -168.5 -82.5t-181.5 -32.5q-87 0 -131.5 41.5t-44.5 135.5q0 77 26 292t62 430l-121 21v96q75 26 150 37q21 123 51 221q105 36 170 41l35 -35l-31 -237h250z" />
    <glyph glyph-name="u" unicode="u" horiz-adv-x="1206" 
d="M1155 188l19 -94q-65 -51 -145.5 -82.5t-147.5 -31.5q-133 0 -133 114q0 30 8.5 82.5t32 174.5t40.5 216l-22 4q-40 -122 -70.5 -205.5t-63.5 -154.5t-63.5 -113t-67.5 -72t-78 -41.5t-93 -11.5q-242 0 -242 242q0 27 2.5 62t9.5 86.5t12 87.5t17 107.5t17 102
t19.5 115.5t18.5 105l-143 12v96q196 62 354 68l47 -43q-5 -39 -34.5 -213t-53.5 -335t-24 -222q0 -55 21.5 -80t72.5 -25q27 0 45 2q160 211 348 897q76 21 180 21l52 -45l-107 -879q75 0 172 53z" />
    <glyph glyph-name="v" unicode="v" horiz-adv-x="1064" 
d="M711 977l155 88q74 -22 112 -92t38 -156q0 -71 -27.5 -162t-74.5 -184.5t-113.5 -183t-139.5 -159.5t-157 -112.5t-162 -42.5q-93 0 -153 59.5t-60 180.5q0 143 96 668l-143 12v96q187 59 352 68l47 -45q-5 -30 -27 -165t-37 -228t-28.5 -203t-13.5 -160q0 -61 22 -89
t78 -28q25 0 39 2q108 100 195.5 247t140.5 323z" />
    <glyph glyph-name="w" unicode="w" horiz-adv-x="1662" 
d="M1309 977l155 88q73 -22 111.5 -92.5t38.5 -155.5q0 -71 -28 -162t-75 -184.5t-114 -183t-140.5 -159.5t-158.5 -112.5t-164 -42.5q-84 0 -134 48t-50 139q0 75 38 207l-22 6q-87 -205 -186.5 -302.5t-223.5 -97.5q-103 0 -165 60t-62 182q0 141 96 666l-143 12v96
q187 59 352 68l47 -45q-3 -18 -19.5 -116t-28.5 -175t-27 -176t-23 -175t-8 -116q0 -59 22.5 -87t81.5 -28l31 2q157 179 268 521q25 214 60 374q76 21 188 21l49 -45q0 -137 -67 -344q-31 -345 -31 -412q0 -62 20 -89.5t76 -27.5q21 0 35 2q106 97 194 244t146 326z" />
    <glyph glyph-name="x" unicode="x" horiz-adv-x="1044" 
d="M821 137q68 5 162 51l21 -94q-130 -114 -263 -114q-82 0 -124.5 41.5t-79.5 132.5q-25 61 -48 136.5t-30 110.5h-23q-56 -216 -136.5 -320t-195.5 -104q-92 0 -139 70l33 146l174 -17q109 122 215 338q-86 266 -123 365l-172 14v96q67 25 166.5 45t177.5 23l45 -45
q44 -140 99 -357h20q44 186 127 295t193 109q66 0 100 -27l16 -166l-213 -43q-66 -74 -180 -272q79 -243 178 -414z" />
    <glyph glyph-name="y" unicode="y" horiz-adv-x="1067" 
d="M707 979l155 86q70 -21 112 -87t42 -165q0 -165 -112.5 -412t-297.5 -477q-291 -360 -506 -360q-60 0 -120.5 25t-104.5 73l31 100q3 -1 23.5 -6t26.5 -6.5t26.5 -6.5t29 -7t28 -6t31.5 -6t30.5 -5t33 -4t32 -2.5t34.5 -1.5q92 59 174 144q-122 644 -215 1026l-144 12v96
q187 63 324 68l49 -45q139 -622 168 -932h25q81 117 158.5 292t109.5 337z" />
    <glyph glyph-name="z" unicode="z" horiz-adv-x="897" 
d="M694 354l123 -14q6 -77 6 -160q0 -113 -42 -170t-132 -57q-84 0 -213.5 36.5t-249.5 92.5l-90 -117q-43 7 -106 39l-17 31l598 776l-309 16l-35 -135h-131q-13 75 -1.5 185.5t44.5 181.5q305 0 547 -96l76 98q43 -7 106 -39l17 -29l-586 -764q192 -40 340 -43z" />
    <glyph glyph-name="braceleft" unicode="{" horiz-adv-x="630" 
d="M600 1415l-201 -51q3 -18 13 -88.5t15 -103t13 -94.5t12 -99.5t7.5 -80t3.5 -71.5q0 -102 -48.5 -149.5t-191.5 -71.5v-22q113 -17 161 -54t48 -102q0 -51 -30.5 -173t-57.5 -210t-78 -250l205 -51l-10 -102q-55 -9 -119 -9q-109 0 -179.5 37t-70.5 123q0 26 6.5 63
t23 100.5t33 123t48.5 173.5t57 208l-162 76v8l8 110l173 76q-11 102 -28.5 239t-25.5 210t-8 114q0 127 68.5 179.5t187.5 52.5q57 0 129 -10z" />
    <glyph glyph-name="bar" unicode="|" horiz-adv-x="561" 
d="M371 -246h-152v1782h152v-1782z" />
    <glyph glyph-name="braceright" unicode="}" horiz-adv-x="612" 
d="M535 655l-9 -118l-176 -78q11 -103 28.5 -250.5t25.5 -224.5t8 -119q0 -129 -69 -182.5t-189 -53.5q-46 0 -125 11l2 102l200 51q-63 425 -63 569q0 70 19.5 111t72 68.5t150.5 42.5v22q-111 20 -154 57t-43 105q0 21 3 46t10 57t14 60.5t19.5 69.5t21.5 69t25 75
t24.5 72t26 75l24.5 70l-205 51l8 103q49 8 117 8q71 0 124.5 -13t91.5 -50.5t38 -96.5q0 -25 -6 -59.5t-23.5 -98t-32.5 -114.5t-49.5 -166l-58.5 -195z" />
    <glyph glyph-name="asciitilde" unicode="~" 
d="M1044 731l74 -57q-18 -46 -42 -88.5t-58.5 -84.5t-80.5 -67.5t-97 -25.5q-38 0 -78 18t-121 70q-17 10 -61 35.5t-89.5 52t-84.5 49.5l-170 -174l-74 59q19 48 43.5 90.5t59 84t80.5 66.5t97 25q35 0 75.5 -17.5t123.5 -70.5q24 -14 74.5 -42.5t89.5 -51t72 -43.5z" />
    <glyph glyph-name="uni00A0" unicode="&#xa0;" horiz-adv-x="512" 
 />
    <glyph glyph-name="exclamdown" unicode="&#xa1;" horiz-adv-x="567" 
d="M356 1065q50 0 90 -12q21 -41 21 -90q0 -75 -55 -166h-195l-12 241q75 27 151 27zM236 672h141q7 -230 -1 -498t-32 -461q-124 -37 -233 -37l-45 48q69 359 170 948z" />
    <glyph glyph-name="cent" unicode="&#xa2;" horiz-adv-x="978" 
d="M645 1030q-27 -213 -43 -403q-4 -41 -33 -396q135 10 293 123l27 -92q-142 -155 -330 -192l-14 -213l-107 -17l-30 19l24 200q-171 7 -259.5 127t-88.5 312q0 88 18 175.5t55.5 168.5t90 145.5t127.5 108t162 53.5q8 140 14 213l106 16l31 -18l-29 -215q51 -7 101 -37
l4 29q67 20 137 20l53 -39q4 -28 4 -57q0 -137 -40 -291h-144l-20 238q-55 19 -109 22zM352 516q0 -198 105 -262q30 242 41 364q12 123 30 406q-18 -5 -36 -16q-67 -73 -103.5 -219.5t-36.5 -272.5z" />
    <glyph glyph-name="sterling" unicode="&#xa3;" horiz-adv-x="1150" 
d="M889 360l139 -18q12 -70 12 -135q0 -175 -125 -291q-171 8 -334.5 47t-287.5 103l-187 -119l-88 102q-1 89 46.5 126.5t144.5 37.5q96 93 96 225q0 46 -14 121h-180v39l8 78h149q-16 98 -16 151q0 119 50.5 214t154 153.5t245.5 58.5q105 0 177 -34l2 16q71 18 137 18
l53 -39q4 -28 4 -57q0 -126 -41 -297h-143l-21 252q-57 14 -120 14q-94 0 -148 -28q-38 -36 -58 -99.5t-20 -128.5q0 -48 25 -194h268v-39l-8 -78h-244q4 -46 4 -67q0 -109 -54 -183t-191 -135l6 -20q217 -34 485 -25z" />
    <glyph glyph-name="currency" unicode="&#xa4;" horiz-adv-x="1091" 
d="M930 639q0 -136 -82 -248l149 -170l-118 -112l-156 178q-84 -43 -199 -43q-125 0 -207 51l-186 -176l-102 110l184 172q-37 67 -37 152q0 148 96 258l-151 176l121 111l161 -191q85 37 189 37q114 0 188 -41l199 184l96 -114l-186 -172q41 -71 41 -162zM625 387
q84 62 84 266q-2 84 -28.5 125t-102.5 41q-49 0 -93 -16q-39 -31 -61.5 -101t-22.5 -161q0 -89 27 -130.5t98 -41.5q46 0 99 18z" />
    <glyph glyph-name="yen" unicode="&#xa5;" horiz-adv-x="1273" 
d="M1282 1227v-101q-90 -38 -147 -45q-102 -195 -222 -379h191v-38l-10 -78h-256l-78 -113l-4 -53h315v-39l-8 -76h-320l-16 -186l168 -15v-47l-8 -57h-602v100q52 28 182 43l16 162h-323v39l8 76h326l4 53l-41 113h-267v39l9 77h213q-53 134 -164 406l-129 14v47l6 58h549
v-101q-67 -31 -148 -41q141 -399 164 -477h25q171 261 276 500l-129 14v47l6 58h414z" />
    <glyph glyph-name="brokenbar" unicode="&#xa6;" horiz-adv-x="561" 
d="M371 905h-152v631h152v-631zM371 -246h-152v631h152v-631z" />
    <glyph glyph-name="section" unicode="&#xa7;" horiz-adv-x="1028" 
d="M977 465q0 -190 -236 -264q47 -77 47 -164q0 -141 -111 -226t-274 -85q-131 0 -203.5 57t-72.5 151q0 86 61 134h127l23 -226q41 -6 70 -6q91 0 147 33q29 47 29 106q0 61 -50.5 119t-177.5 158q-86 73 -132.5 116t-88.5 93t-58 93.5t-16 94.5q0 190 236 264
q-47 77 -47 164q0 141 111.5 226.5t273.5 85.5q131 0 204.5 -57.5t73.5 -151.5q0 -82 -61 -133h-129l-21 225q-40 6 -69 6q-94 0 -150 -33q-28 -51 -28 -106q0 -61 50 -118.5t177 -158.5q86 -73 132.5 -116t88.5 -93t58 -93.5t16 -94.5zM690 270q44 33 62 61t18 70
q0 60 -41.5 107t-179.5 157q-24 19 -37 29q-108 83 -164 150q-42 -33 -60 -61t-18 -70q0 -60 41.5 -107t179.5 -157q24 -19 37 -29q112 -91 162 -150z" />
    <glyph glyph-name="dieresis" unicode="&#xa8;" horiz-adv-x="772" 
d="M307 1497q49 0 76 -12q20 -45 20 -84q0 -71 -51 -150h-168l-14 219q71 27 137 27zM715 1497q46 0 76 -12q20 -42 20 -82q0 -70 -51 -152h-168l-14 219q71 27 137 27z" />
    <glyph glyph-name="copyright" unicode="&#xa9;" horiz-adv-x="1579" 
d="M844 1389q306 0 489 -168.5t183 -481.5q0 -156 -48.5 -293.5t-140.5 -243.5t-237 -167.5t-326 -61.5q-308 0 -484.5 171t-177.5 479q-1 123 27.5 235.5t89 209.5t147 168.5t209.5 112t269 40.5zM772 90q143 0 256.5 53t183.5 144t106 205t36 243q0 258 -140.5 397.5
t-377.5 139.5q-116 0 -212 -35.5t-162 -96.5t-111 -143.5t-66 -174.5t-21 -193q0 -261 136 -400t372 -139zM1034 850l-168 139q-36 -5 -49 -10q-45 -48 -74.5 -142.5t-29.5 -207.5q0 -64 12 -108.5t47 -74.5t94 -30q47 0 93.5 16.5t111.5 54.5l21 -81q-52 -57 -136.5 -97.5
t-185.5 -40.5q-143 0 -216 85t-73 243q0 96 27.5 185t79 160t132.5 114t179 43q56 0 105.5 -14t87 -48.5t45.5 -83.5z" />
    <glyph glyph-name="ordfeminine" unicode="&#xaa;" horiz-adv-x="806" 
d="M801 586l14 -68q-42 -36 -96 -56t-103 -20q-94 0 -94 74q0 13 2.5 31.5t9.5 52t12.5 59t19 84.5t22.5 97l-23 6q-25 -78 -41.5 -126t-35.5 -97t-34.5 -75.5t-34.5 -51t-41 -35.5t-47.5 -17t-58.5 -6q-96 0 -144 52.5t-48 181.5q0 85 21.5 167.5t63 154.5t113.5 116.5
t164 44.5q97 0 146 -49l12 37q35 12 123 12l33 -29l-68 -575q60 0 113 35zM373 561q87 122 192 473q-48 31 -102 31q-36 0 -76 -12q-58 -74 -88.5 -179t-30.5 -206q0 -61 15.5 -86t52.5 -25q13 0 37 4z" />
    <glyph glyph-name="guillemotleft" unicode="&#xab;" horiz-adv-x="1058" 
d="M967 887l-187 -322l115 -332l-111 -69l-256 364v66l342 364zM545 887l-187 -322l115 -332l-111 -69l-256 364v66l343 364z" />
    <glyph glyph-name="logicalnot" unicode="&#xac;" 
d="M1051 631l-54 -455h-163l43 356h-693v54l13 98h815z" />
    <glyph glyph-name="uni00AD" unicode="&#xad;" horiz-adv-x="653" 
d="M578 633l-13 -109h-467v60l13 106h467v-57z" />
    <glyph glyph-name="registered" unicode="&#xae;" horiz-adv-x="1251" 
d="M700 1477q238 0 375 -131t137 -359q0 -114 -37 -213t-106 -173.5t-175.5 -117.5t-238.5 -43q-235 0 -374.5 129t-139.5 359q0 114 36.5 213t105.5 174t176.5 118.5t240.5 43.5zM694 1380q-107 0 -190.5 -36t-134 -99t-76 -142.5t-25.5 -170.5q0 -190 104.5 -293.5
t289.5 -103.5q107 0 189.5 36t133 98.5t76.5 142.5t26 173q0 190 -104.5 292.5t-288.5 102.5zM668 1243q125 0 184 -34.5t59 -110.5q0 -113 -123 -162q7 -15 21 -44.5t23 -47t20 -38.5t20 -34l64 2l4 -53q-57 -31 -100 -31q-71 0 -105 62q-34 66 -55 161h-57l-17 -155l64 -6
v-27l-2 -27h-246v52q23 9 65 16l37 399l-61 6v31l6 29q91 12 199 12zM643 1176l-16 -195h90q53 49 53 113q0 82 -88 82h-39z" />
    <glyph glyph-name="macron" unicode="&#xaf;" horiz-adv-x="665" 
d="M176 1430h520q4 -12 4 -46q0 -64 -22 -114h-520q-4 12 -4 45q0 61 22 115z" />
    <glyph glyph-name="degree" unicode="&#xb0;" horiz-adv-x="724" 
d="M463 1524q131 0 213 -84t82 -207q0 -133 -97 -225.5t-237 -92.5q-131 0 -213 83t-82 206q0 133 97 226.5t237 93.5zM455 1380q-55 0 -97 -22q-61 -48 -61 -144q0 -73 37.5 -114t101.5 -41q52 0 94 22q62 49 62 144q0 72 -38 113.5t-99 41.5z" />
    <glyph glyph-name="plusminus" unicode="&#xb1;" 
d="M786 1083l-34 -295h319v-57l-12 -94h-328l-37 -313h-121l-49 18l35 295h-321v53l12 98h328l36 312h117zM995 96l-10 -96h-821l-2 53l10 99h823v-56z" />
    <glyph glyph-name="twosuperior" unicode="&#xb2;" horiz-adv-x="616" 
d="M522 1012l94 -2q7 -44 7 -82q0 -93 -33 -146h-74q-187 4 -328 49l-67 -49q-29 9 -62 37l-2 27q26 21 82.5 65.5t81.5 65t67.5 57.5t62 60t42.5 54.5t32 60.5t9 59q0 51 -27 74.5t-69 23.5t-68 -23t-26 -65q0 -24 10 -66l-84 -22q-53 56 -53 121q0 80 73 135t193 55
q115 0 185.5 -52t70.5 -142q0 -91 -83 -181t-251 -194h197z" />
    <glyph glyph-name="threesuperior" unicode="&#xb3;" horiz-adv-x="630" 
d="M477 1163v-22q146 -19 146 -144q0 -95 -81 -155t-225 -60q-120 0 -221 52l8 69q57 -8 134 -8q97 0 137.5 25.5t40.5 83.5q0 65 -62 88q-59 -21 -102 -27l-25 18q-4 24 -4 45q0 10 1 23t1 16q25 11 74 11q15 0 43 -4q96 47 96 118q0 80 -94 80q-53 0 -76.5 -26.5
t-23.5 -67.5v-18l-84 -5q-31 53 -31 86q0 64 68.5 112t193.5 48q112 0 180 -45t68 -131q0 -33 -11.5 -59.5t-27 -42.5t-40 -29t-42 -19t-41.5 -12z" />
    <glyph glyph-name="acute" unicode="&#xb4;" horiz-adv-x="520" 
d="M350 1593h127q65 -45 90 -129l-317 -290h-113z" />
    <glyph glyph-name="mu" unicode="&#xb5;" horiz-adv-x="1206" 
d="M1155 188l19 -94q-65 -51 -145.5 -82.5t-147.5 -31.5q-133 0 -133 114q0 30 8.5 82.5t32 174.5t40.5 216l-22 4q-72 -238 -129.5 -363.5t-120.5 -180t-151 -54.5q-50 0 -81 20t-53 64l-20 -10q4 -27 14.5 -87.5t15.5 -94t12 -84t11 -97.5t6 -96q-68 -24 -215 -24l-30 39
q41 624 159 1278l-143 12v96q197 62 354 68l47 -43q-5 -39 -34.5 -213t-53.5 -335t-24 -222q0 -55 21.5 -80t72.5 -25q27 0 45 2q160 211 348 897q76 21 180 21l52 -45l-107 -879q75 0 172 53z" />
    <glyph glyph-name="paragraph" unicode="&#xb6;" horiz-adv-x="1163" 
d="M676 428h-119q-227 0 -349 106t-122 306q0 57 10.5 113.5t34 116.5t66.5 111t102 92t147 65t195 24h123zM1208 1362v-100q-77 -34 -168 -45l-92 -988q-20 -208 -122.5 -303.5t-284.5 -95.5q-100 0 -194.5 28t-153.5 81l51 90q141 -74 291 -74q124 0 192.5 60t81.5 204
l106 1143h293z" />
    <glyph glyph-name="periodcentered" unicode="&#xb7;" horiz-adv-x="509" 
d="M293 762q68 0 98 -12q23 -44 23 -99q0 -86 -62 -188h-207l-12 272q75 27 160 27z" />
    <glyph glyph-name="cedilla" unicode="&#xb8;" horiz-adv-x="546" 
d="M254 12l-14 -139q157 -4 157 -123q0 -80 -63.5 -133t-177.5 -53q-128 0 -195 61l25 84q93 -26 125 -26q44 0 69 21t25 56q0 28 -21.5 40t-89.5 24h-2l53 188h109z" />
    <glyph glyph-name="onesuperior" unicode="&#xb9;" horiz-adv-x="481" 
d="M502 862v-31l-4 -32h-398v63q60 24 113 27l41 428q-52 -8 -111 -8v37l7 55q54 4 117 29.5t102 70.5l86 -16l-58 -611z" />
    <glyph glyph-name="ordmasculine" unicode="&#xba;" horiz-adv-x="759" 
d="M459 1155q145 0 219 -78.5t74 -210.5q0 -45 -8.5 -91.5t-26.5 -95.5t-49 -91.5t-72 -76.5t-100.5 -53.5t-130.5 -19.5q-145 0 -218 78.5t-73 210.5q0 56 11.5 112t40 114t71 102t110.5 72t152 28zM442 1061q-43 0 -71 -14q-46 -49 -71.5 -155t-25.5 -202q0 -158 109 -158
q44 0 74 15q44 47 70 154.5t26 199.5q0 160 -111 160z" />
    <glyph glyph-name="guillemotright" unicode="&#xbb;" horiz-adv-x="1054" 
d="M924 594v-66l-344 -364l-95 69l187 322l-113 332l109 71zM502 594v-66l-344 -364l-95 69l187 322l-113 332l109 71z" />
    <glyph glyph-name="onequarter" unicode="&#xbc;" horiz-adv-x="1619" 
d="M1309 1364l12 -33q-256 -354 -475 -672q-72 -106 -222.5 -346.5t-232.5 -359.5l-100 43l-12 35q137 190 479 680q75 111 222.5 347t225.5 351zM532 608l-2 -33l-4 -36h-458v69q64 24 145 31l57 547q-68 -15 -143 -15v41l6 58q64 3 135.5 33.5t118.5 85.5l86 -17l-78 -749
zM1565 281v-45l-9 -72h-110l-14 -164h-183q6 88 15 164h-338l-31 78q141 281 203 444l-33 148l147 43q74 -52 74 -134q0 -63 -55.5 -160t-198.5 -300l6 -15q115 13 152 13h86q13 115 29 215q61 36 143 51l43 -21q-21 -149 -33 -245h107z" />
    <glyph glyph-name="onehalf" unicode="&#xbd;" horiz-adv-x="1687" 
d="M1309 1364l12 -33q-256 -354 -475 -672q-72 -106 -222.5 -346.5t-232.5 -359.5l-100 43l-12 35q137 190 479 680q75 111 222.5 347t225.5 351zM532 608l-2 -33l-4 -36h-458v69q64 24 145 31l57 547q-68 -15 -143 -15v41l6 58q64 3 135.5 33.5t118.5 85.5l86 -17l-78 -749
zM1497 225l96 -2q9 -46 9 -86q0 -99 -37 -164h-82q-88 0 -195.5 16t-181.5 40l-72 -54q-38 10 -65 37l-2 29q195 155 260 217q175 164 187 295q1 11 1 22q0 127 -121 127q-54 0 -87 -29t-33 -85q0 -34 12 -78l-82 -27q-60 63 -60 135q0 96 81.5 161t211.5 65q127 0 206 -64
t79 -170q0 -117 -100.5 -233t-298.5 -248h250z" />
    <glyph glyph-name="threequarters" unicode="&#xbe;" horiz-adv-x="1722" 
d="M1411 1364l12 -33q-256 -354 -475 -672q-72 -106 -222 -346.5t-232 -359.5l-101 43l-12 35q137 190 479 680q75 111 223 347t226 351zM492 979v-23q87 -15 127 -57t40 -119q0 -117 -91 -189.5t-255 -72.5q-139 0 -245 53l10 72q63 -8 127 -8q136 0 192 39t56 114
q0 42 -19 68.5t-69 44.5q-56 -21 -113 -31l-25 21q-8 19 -8 49q0 25 6 43q25 14 88 14q21 0 45 -4q121 68 121 164t-117 96q-71 0 -102 -35.5t-31 -91.5v-24l-86 -4q-30 52 -30 96q0 79 77 137t209 58q130 0 206.5 -58t76.5 -155q0 -148 -190 -197zM1667 281v-45l-8 -72
h-111l-14 -164h-182q8 113 14 164h-338l-31 78q141 281 203 444l-33 148l148 43q74 -52 74 -134q0 -63 -55.5 -160t-198.5 -300l6 -15q115 13 151 13h86q13 115 29 215q61 36 143 51l43 -21q-15 -102 -32 -245h106z" />
    <glyph glyph-name="questiondown" unicode="&#xbf;" horiz-adv-x="745" 
d="M641 1053q21 -41 21 -90q0 -74 -56 -166h-194l-13 241q75 27 152 27q49 0 90 -12zM393 268q-72 -35 -107 -54.5t-68 -45.5t-44.5 -53t-11.5 -64q0 -32 4 -57q62 -35 170 -55t242 -19l-21 -217q-86 -16 -143 -16q-79 0 -141.5 22.5t-103 60t-67.5 90.5t-38 110.5
t-11 123.5q0 44 6 79.5t27 81t57 84.5t101.5 83t156.5 84l25 166h145q35 -95 35 -172q0 -39 -8.5 -67.5t-20.5 -48t-43 -40.5t-57.5 -35t-83.5 -41z" />
    <glyph glyph-name="Agrave" unicode="&#xc0;" horiz-adv-x="1327" 
d="M1276 104v-47l-6 -57h-543v100q62 32 143 43q-9 41 -27.5 122t-27.5 122h-438q-18 -45 -53 -134t-52 -134l140 -15v-47l-9 -57h-421v100q61 31 145 43q229 551 498 1121l-21 94l53 45q115 0 203 -23q185 -873 287 -1263zM430 518h356q-5 22 -106 526h-23
q-78 -171 -227 -526zM782 1473h-125l-247 241q55 94 120 127h127z" />
    <glyph glyph-name="Aacute" unicode="&#xc1;" horiz-adv-x="1327" 
d="M1276 104v-47l-6 -57h-543v100q62 32 143 43q-9 41 -27.5 122t-27.5 122h-438q-18 -45 -53 -134t-52 -134l140 -15v-47l-9 -57h-421v100q61 31 145 43q229 551 498 1121l-21 94l53 45q115 0 203 -23q185 -873 287 -1263zM430 518h356q-5 22 -106 526h-23
q-78 -171 -227 -526zM887 1843h125q66 -40 90 -127l-322 -243h-125z" />
    <glyph glyph-name="Acircumflex" unicode="&#xc2;" horiz-adv-x="1327" 
d="M1276 104v-47l-6 -57h-543v100q62 32 143 43q-9 41 -27.5 122t-27.5 122h-438q-18 -45 -53 -134t-52 -134l140 -15v-47l-9 -57h-421v100q61 31 145 43q229 551 498 1121l-21 94l53 45q115 0 203 -23q185 -873 287 -1263zM430 518h356q-5 22 -106 526h-23
q-78 -171 -227 -526zM1053 1538l-160 -90l-168 192h-18l-185 -167h-121l316 352h145z" />
    <glyph glyph-name="Atilde" unicode="&#xc3;" horiz-adv-x="1327" 
d="M1276 104v-47l-6 -57h-543v100q62 32 143 43q-9 41 -27.5 122t-27.5 122h-438q-18 -45 -53 -134t-52 -134l140 -15v-47l-9 -57h-421v100q61 31 145 43q229 551 498 1121l-21 94l53 45q115 0 203 -23q185 -873 287 -1263zM430 518h356q-5 22 -106 526h-23
q-78 -171 -227 -526zM1016 1778l59 -54q-75 -217 -223 -217q-54 0 -119 35l-155 78l-105 -109l-59 54q31 95 86 155t137 60q51 0 115 -31l157 -82z" />
    <glyph glyph-name="Adieresis" unicode="&#xc4;" horiz-adv-x="1327" 
d="M1276 104v-47l-6 -57h-543v100q62 32 143 43q-9 41 -27.5 122t-27.5 122h-438q-18 -45 -53 -134t-52 -134l140 -15v-47l-9 -57h-421v100q61 31 145 43q229 551 498 1121l-21 94l53 45q115 0 203 -23q185 -873 287 -1263zM430 518h356q-5 22 -106 526h-23
q-78 -171 -227 -526zM532 1763q52 0 76 -12q21 -35 21 -82q0 -76 -49 -153h-170l-17 221q72 26 139 26zM1004 1763q49 0 73 -12q21 -30 21 -80q0 -81 -47 -155h-172l-15 221q69 26 140 26z" />
    <glyph glyph-name="Aring" unicode="&#xc5;" horiz-adv-x="1327" 
d="M1276 104v-47l-6 -57h-543v100q62 32 143 43q-9 41 -27.5 122t-27.5 122h-438q-18 -45 -53 -134t-52 -134l140 -15v-47l-9 -57h-421v100q61 31 145 43q229 551 498 1121l-21 94l53 45q115 0 203 -23q185 -873 287 -1263zM430 518h356q-5 22 -106 526h-23
q-78 -171 -227 -526zM776 1855q203 0 203 -169q0 -99 -69 -159.5t-191 -60.5q-99 0 -152 43.5t-53 126.5q0 99 70 159t192 60zM762 1759q-32 0 -53 -12q-33 -48 -33 -107q0 -77 59 -77q27 0 51 14q35 47 35 109q0 40 -14.5 56.5t-44.5 16.5z" />
    <glyph glyph-name="AE" unicode="&#xc6;" horiz-adv-x="1781" 
d="M1149 1239l-47 -483l336 16l18 -45l-14 -113l-350 19l-50 -514h381l78 235l152 -12q4 -58 4 -88q0 -125 -49 -283l-54 -6l-647 35h-286v100q91 35 161 45l25 248h-410q-94 -188 -137 -276l131 -13v-47l-6 -57h-405v100q53 29 122 43q271 524 609 1104l-129 6v50l8 59h964
q97 29 144 29l51 -29q4 -32 4 -68q0 -133 -39 -286h-147l-19 215zM819 522l66 707h-41q-159 -281 -379 -705z" />
    <glyph glyph-name="Ccedilla" unicode="&#xc7;" horiz-adv-x="1226" 
d="M606 1210q-92 -72 -154.5 -262t-62.5 -391q0 -213 74 -304t229 -91q82 0 186 36t197 107l27 -104q-84 -90 -194 -148t-228 -73l-10 -107q155 -4 155 -123q0 -80 -62.5 -133t-176.5 -53q-130 0 -197 61l25 84q93 -26 125 -26q44 0 70 21t26 56q0 27 -22 39.5t-91 24.5
l43 151q-235 12 -352 164.5t-117 411.5q0 120 25 238t79 227t130 191.5t187.5 132t242.5 49.5q117 0 209 -54l4 33q102 23 145 23l53 -39q5 -35 5 -60q0 -128 -41 -313h-152l-20 244q-96 26 -177 26q-88 0 -180 -39z" />
    <glyph glyph-name="Egrave" unicode="&#xc8;" horiz-adv-x="1177" 
d="M549 1239l-45 -483l338 16l18 -45l-14 -113l-352 19l-48 -514h373l78 235l152 -12q4 -58 4 -88q0 -125 -49 -283l-54 -6l-641 35h-280v100q77 30 159 45l99 1082l-150 16v49l8 60q283 10 525 10h288q97 29 144 29l51 -29q4 -32 4 -68q0 -133 -39 -286h-147l-19 215z
M735 1473h-125l-248 241q54 93 121 127h127z" />
    <glyph glyph-name="Eacute" unicode="&#xc9;" horiz-adv-x="1177" 
d="M549 1239l-45 -483l338 16l18 -45l-14 -113l-352 19l-48 -514h373l78 235l152 -12q4 -58 4 -88q0 -125 -49 -283l-54 -6l-641 35h-280v100q77 30 159 45l99 1082l-150 16v49l8 60q283 10 525 10h288q97 29 144 29l51 -29q4 -32 4 -68q0 -133 -39 -286h-147l-19 215z
M840 1843h125q66 -40 90 -127l-322 -243h-125z" />
    <glyph glyph-name="Ecircumflex" unicode="&#xca;" horiz-adv-x="1177" 
d="M549 1239l-45 -483l338 16l18 -45l-14 -113l-352 19l-48 -514h373l78 235l152 -12q4 -58 4 -88q0 -125 -49 -283l-54 -6l-641 35h-280v100q77 30 159 45l99 1082l-150 16v49l8 60q283 10 525 10h288q97 29 144 29l51 -29q4 -32 4 -68q0 -133 -39 -286h-147l-19 215z
M1006 1538l-160 -90l-168 192h-19l-184 -167h-121l316 352h145z" />
    <glyph glyph-name="Edieresis" unicode="&#xcb;" horiz-adv-x="1177" 
d="M549 1239l-45 -483l338 16l18 -45l-14 -113l-352 19l-48 -514h373l78 235l152 -12q4 -58 4 -88q0 -125 -49 -283l-54 -6l-641 35h-280v100q77 30 159 45l99 1082l-150 16v49l8 60q283 10 525 10h288q97 29 144 29l51 -29q4 -32 4 -68q0 -133 -39 -286h-147l-19 215z
M485 1763q52 0 76 -12q21 -35 21 -82q0 -74 -50 -153h-170l-16 221q72 26 139 26zM956 1763q50 0 74 -12q21 -30 21 -80q0 -81 -47 -155h-173l-14 221q69 26 139 26z" />
    <glyph glyph-name="Igrave" unicode="&#xcc;" horiz-adv-x="700" 
d="M713 1362v-100q-72 -32 -162 -43l-102 -1100l151 -15v-47l-6 -57h-563v100q77 36 159 43l101 1100l-152 14v48l6 57h568zM502 1473h-125l-248 241q54 93 121 127h127z" />
    <glyph glyph-name="Iacute" unicode="&#xcd;" horiz-adv-x="700" 
d="M713 1362v-100q-72 -32 -162 -43l-102 -1100l151 -15v-47l-6 -57h-563v100q77 36 159 43l101 1100l-152 14v48l6 57h568zM606 1843h125q66 -40 90 -127l-321 -243h-125z" />
    <glyph glyph-name="Icircumflex" unicode="&#xce;" horiz-adv-x="700" 
d="M713 1362v-100q-72 -32 -162 -43l-102 -1100l151 -15v-47l-6 -57h-563v100q77 36 159 43l101 1100l-152 14v48l6 57h568zM772 1538l-160 -90l-168 192h-18l-184 -167h-121l315 352h146z" />
    <glyph glyph-name="Idieresis" unicode="&#xcf;" horiz-adv-x="700" 
d="M713 1362v-100q-72 -32 -162 -43l-102 -1100l151 -15v-47l-6 -57h-563v100q77 36 159 43l101 1100l-152 14v48l6 57h568zM293 1772q43 0 76 -13q22 -37 22 -84q0 -82 -53 -153h-170l-14 221q71 29 139 29zM678 1772q42 0 74 -13q22 -34 22 -84q0 -81 -51 -153h-172
l-12 221q67 29 139 29z" />
    <glyph glyph-name="Eth" unicode="&#xd0;" horiz-adv-x="1382" 
d="M662 1378q184 0 314 -40t205.5 -117.5t109.5 -180.5t34 -241q0 -75 -9.5 -148.5t-33 -154t-59.5 -151t-93 -135t-129.5 -110.5t-174 -73t-220.5 -27h-551v100q91 35 160 45l45 496h-147v41l12 88h147l41 457l-149 18v47l6 60q266 26 492 26zM868 201q86 103 126 270.5
t40 359.5q0 211 -71.5 314.5t-249.5 103.5h-135l-46 -479h236v-43l-12 -86h-234l-47 -510h119q165 0 274 70z" />
    <glyph glyph-name="Ntilde" unicode="&#xd1;" horiz-adv-x="1445" 
d="M1460 1362v-100q-30 -15 -77 -27.5t-83 -15.5l-114 -1211q-98 -28 -205 -31l-45 11l-354 803q-101 241 -146 391h-24l-66 -1063l152 -15v-47l-9 -57h-458v100q77 34 157 45l103 1080l-152 18v49l6 58q246 12 478 12l288 -660q70 -159 158 -401h23l49 940l-162 16v48l6 57
h475zM1110 1778l59 -54q-75 -217 -223 -217q-54 0 -119 35l-155 78l-105 -109l-59 54q31 95 86 155t137 60q51 0 115 -31l158 -82z" />
    <glyph glyph-name="Ograve" unicode="&#xd2;" horiz-adv-x="1404" 
d="M805 1389q260 0 401.5 -158t141.5 -432q0 -98 -18.5 -195t-54.5 -190t-95 -172.5t-135.5 -140t-180.5 -94.5t-225 -34q-260 0 -401.5 158t-141.5 434q0 119 25 234t81 222.5t137 188.5t201 130t265 49zM782 1249q-81 0 -176 -39q-93 -72 -155 -267.5t-62 -418.5
q0 -94 13.5 -165.5t44 -128.5t86 -87t133.5 -30q84 0 176 39q93 72 155 267.5t62 418.5q0 94 -13.5 165.5t-44 128.5t-86 87t-133.5 30zM858 1473h-125l-248 241q54 93 121 127h127z" />
    <glyph glyph-name="Oacute" unicode="&#xd3;" horiz-adv-x="1404" 
d="M805 1389q260 0 401.5 -158t141.5 -432q0 -98 -18.5 -195t-54.5 -190t-95 -172.5t-135.5 -140t-180.5 -94.5t-225 -34q-260 0 -401.5 158t-141.5 434q0 119 25 234t81 222.5t137 188.5t201 130t265 49zM782 1249q-81 0 -176 -39q-93 -72 -155 -267.5t-62 -418.5
q0 -94 13.5 -165.5t44 -128.5t86 -87t133.5 -30q84 0 176 39q93 72 155 267.5t62 418.5q0 94 -13.5 165.5t-44 128.5t-86 87t-133.5 30zM963 1843h124q67 -41 91 -127l-322 -243h-125z" />
    <glyph glyph-name="Ocircumflex" unicode="&#xd4;" horiz-adv-x="1404" 
d="M805 1389q260 0 401.5 -158t141.5 -432q0 -98 -18.5 -195t-54.5 -190t-95 -172.5t-135.5 -140t-180.5 -94.5t-225 -34q-260 0 -401.5 158t-141.5 434q0 119 25 234t81 222.5t137 188.5t201 130t265 49zM782 1249q-81 0 -176 -39q-93 -72 -155 -267.5t-62 -418.5
q0 -94 13.5 -165.5t44 -128.5t86 -87t133.5 -30q84 0 176 39q93 72 155 267.5t62 418.5q0 94 -13.5 165.5t-44 128.5t-86 87t-133.5 30zM1128 1538l-159 -90l-168 192h-19l-184 -167h-121l316 352h145z" />
    <glyph glyph-name="Otilde" unicode="&#xd5;" horiz-adv-x="1404" 
d="M805 1389q260 0 401.5 -158t141.5 -432q0 -98 -18.5 -195t-54.5 -190t-95 -172.5t-135.5 -140t-180.5 -94.5t-225 -34q-260 0 -401.5 158t-141.5 434q0 119 25 234t81 222.5t137 188.5t201 130t265 49zM782 1249q-81 0 -176 -39q-93 -72 -155 -267.5t-62 -418.5
q0 -94 13.5 -165.5t44 -128.5t86 -87t133.5 -30q84 0 176 39q93 72 155 267.5t62 418.5q0 94 -13.5 165.5t-44 128.5t-86 87t-133.5 30zM1092 1778l59 -54q-75 -217 -223 -217q-54 0 -119 35l-156 78l-104 -109l-60 54q31 95 86.5 155t137.5 60q50 0 114 -31l158 -82z" />
    <glyph glyph-name="Odieresis" unicode="&#xd6;" horiz-adv-x="1404" 
d="M805 1389q260 0 401.5 -158t141.5 -432q0 -98 -18.5 -195t-54.5 -190t-95 -172.5t-135.5 -140t-180.5 -94.5t-225 -34q-260 0 -401.5 158t-141.5 434q0 119 25 234t81 222.5t137 188.5t201 130t265 49zM782 1249q-81 0 -176 -39q-93 -72 -155 -267.5t-62 -418.5
q0 -94 13.5 -165.5t44 -128.5t86 -87t133.5 -30q84 0 176 39q93 72 155 267.5t62 418.5q0 94 -13.5 165.5t-44 128.5t-86 87t-133.5 30zM608 1763q52 0 76 -12q21 -35 21 -82q0 -74 -50 -153h-170l-16 221q72 26 139 26zM1079 1763q50 0 74 -12q21 -30 21 -80
q0 -80 -48 -155h-172l-14 221q69 26 139 26z" />
    <glyph glyph-name="multiply" unicode="&#xd7;" 
d="M1071 977l29 -49l-344 -324l293 -319l-68 -82l-47 -31l-299 326l-344 -326l-80 74l-27 45l344 325l-295 320l68 80l47 31l299 -328l346 325z" />
    <glyph glyph-name="Oslash" unicode="&#xd8;" horiz-adv-x="1404" 
d="M1352 1446l-152 -207q145 -151 148 -430q1 -119 -23.5 -235.5t-80.5 -226t-137 -192t-202 -132.5t-266 -50q-180 0 -309 80l-158 -213l-88 45l-10 31l162 217q-137 152 -140 422q-1 119 23.5 235.5t80 225.5t136.5 191t202 132t267 50q178 0 299 -74l151 207l88 -43z
M606 1210q-93 -72 -155 -267.5t-62 -418.5q0 -101 14 -172l584 803q-69 94 -205 94q-81 0 -176 -39zM842 152q93 72 155 267.5t62 418.5q0 105 -19 192l-587 -811q67 -106 213 -106q84 0 176 39z" />
    <glyph glyph-name="Ugrave" unicode="&#xd9;" horiz-adv-x="1355" 
d="M1401 1362v-100q-58 -31 -166 -45q-36 -543 -66 -760q-68 -484 -524 -484q-226 0 -339 112.5t-113 332.5q0 156 71 825l-151 14v48l6 57h559v-100q-61 -28 -154 -43q-73 -678 -73 -826q0 -151 57.5 -219t189.5 -68q112 0 199 46q93 96 117 317q33 279 65 772l-145 16v48
l6 57h461zM866 1473h-125l-247 241q55 94 120 127h127z" />
    <glyph glyph-name="Uacute" unicode="&#xda;" horiz-adv-x="1355" 
d="M1401 1362v-100q-58 -31 -166 -45q-36 -543 -66 -760q-68 -484 -524 -484q-226 0 -339 112.5t-113 332.5q0 156 71 825l-151 14v48l6 57h559v-100q-61 -28 -154 -43q-73 -678 -73 -826q0 -151 57.5 -219t189.5 -68q112 0 199 46q93 96 117 317q33 279 65 772l-145 16v48
l6 57h461zM971 1843h125q66 -40 90 -127l-322 -243h-125z" />
    <glyph glyph-name="Ucircumflex" unicode="&#xdb;" horiz-adv-x="1355" 
d="M1401 1362v-100q-58 -31 -166 -45q-36 -543 -66 -760q-68 -484 -524 -484q-226 0 -339 112.5t-113 332.5q0 156 71 825l-151 14v48l6 57h559v-100q-61 -28 -154 -43q-73 -678 -73 -826q0 -151 57.5 -219t189.5 -68q112 0 199 46q93 96 117 317q33 279 65 772l-145 16v48
l6 57h461zM1137 1538l-160 -90l-168 192h-18l-185 -167h-121l316 352h145z" />
    <glyph glyph-name="Udieresis" unicode="&#xdc;" horiz-adv-x="1355" 
d="M1401 1362v-100q-58 -31 -166 -45q-36 -543 -66 -760q-68 -484 -524 -484q-226 0 -339 112.5t-113 332.5q0 156 71 825l-151 14v48l6 57h559v-100q-61 -28 -154 -43q-73 -678 -73 -826q0 -151 57.5 -219t189.5 -68q112 0 199 46q93 96 117 317q33 279 65 772l-145 16v48
l6 57h461zM616 1763q52 0 76 -12q21 -35 21 -82q0 -76 -49 -153h-170l-17 221q72 26 139 26zM1087 1763q50 0 74 -12q21 -30 21 -80q0 -81 -47 -155h-172l-15 221q69 26 139 26z" />
    <glyph glyph-name="Yacute" unicode="&#xdd;" horiz-adv-x="1273" 
d="M1186 1219q-138 -297 -414 -738l-33 -362l162 -15v-47l-6 -57h-596v100q71 30 180 43l31 332q-155 447 -291 768l-129 14v48l6 57h555v-100q-61 -30 -153 -41q134 -364 207 -596h22q199 330 311 616l-141 16v48l6 57h428v-100q-75 -37 -145 -43zM899 1843h125
q66 -40 90 -127l-321 -243h-125z" />
    <glyph glyph-name="Thorn" unicode="&#xde;" horiz-adv-x="1191" 
d="M543 1151h127q108 0 189.5 -18.5t135 -51t86.5 -81.5t46.5 -105.5t13.5 -128.5q0 -223 -118.5 -350t-330.5 -127q-53 0 -127 12v111q107 5 183 30q102 121 102 330q0 125 -44.5 185.5t-164.5 60.5h-111l-84 -895l175 -12v-52l-7 -59h-583v100q68 32 157 43l103 1100
l-152 14v48l6 57h394l20 -35z" />
    <glyph glyph-name="germandbls" unicode="&#xdf;" horiz-adv-x="1159" 
d="M776 752q181 -177 248.5 -270t67.5 -187q0 -130 -103.5 -226t-277.5 -96q-208 0 -254 162l102 103l166 -146q49 3 102 19q37 50 37 118q0 25 -4.5 45.5t-28 59.5t-67.5 84q-10 11 -36 37t-35 36t-26 32t-23.5 37.5t-12.5 38.5t-6 48q0 27 7.5 51t16.5 39t32.5 50.5
t39.5 62.5q75 118 103 212t26 198q0 88 -26.5 124.5t-88.5 36.5q-55 0 -102 -20q-71 -65 -120.5 -198t-72.5 -374l-71 -776q-24 -256 -113.5 -372.5t-243.5 -116.5q-150 0 -250 90l31 100q164 -41 264 -43q42 93 62 277l86 884l-139 21v96q54 20 157 35q46 244 195 381
t368 137q324 0 324 -276q0 -76 -23 -143.5t-72 -131.5t-102 -116t-137 -123z" />
    <glyph glyph-name="agrave" unicode="&#xe0;" horiz-adv-x="1167" 
d="M1114 188l21 -94q-65 -52 -141.5 -83t-141.5 -31q-133 0 -133 114q0 19 3.5 47.5t12.5 75t18 91.5t25 124.5t29 147.5l-23 4q-48 -151 -85.5 -249t-76.5 -172.5t-80.5 -113.5t-89.5 -57.5t-112 -18.5q-63 0 -110 17t-84.5 56.5t-56.5 110.5t-19 173t19 203.5t60.5 198
t101.5 170t149 118.5t196 45q145 0 223 -78l17 60q64 18 163 18l50 -45l-107 -885q75 0 172 53zM487 145q67 88 136.5 264t164.5 492q-74 45 -163 45q-45 0 -115 -18q-86 -109 -130 -280t-44 -335q0 -98 21.5 -136t76.5 -38q23 0 53 6zM702 1174h-112l-248 290
q55 92 127 129h127z" />
    <glyph glyph-name="aacute" unicode="&#xe1;" horiz-adv-x="1167" 
d="M1114 188l21 -94q-65 -52 -141.5 -83t-141.5 -31q-133 0 -133 114q0 19 3.5 47.5t12.5 75t18 91.5t25 124.5t29 147.5l-23 4q-48 -151 -85.5 -249t-76.5 -172.5t-80.5 -113.5t-89.5 -57.5t-112 -18.5q-63 0 -110 17t-84.5 56.5t-56.5 110.5t-19 173t19 203.5t60.5 198
t101.5 170t149 118.5t196 45q145 0 223 -78l17 60q64 18 163 18l50 -45l-107 -885q75 0 172 53zM487 145q67 88 136.5 264t164.5 492q-74 45 -163 45q-45 0 -115 -18q-86 -109 -130 -280t-44 -335q0 -98 21.5 -136t76.5 -38q23 0 53 6zM801 1593h125q68 -45 90 -129
l-318 -290h-112z" />
    <glyph glyph-name="acircumflex" unicode="&#xe2;" horiz-adv-x="1167" 
d="M1114 188l21 -94q-65 -52 -141.5 -83t-141.5 -31q-133 0 -133 114q0 19 3.5 47.5t12.5 75t18 91.5t25 124.5t29 147.5l-23 4q-48 -151 -85.5 -249t-76.5 -172.5t-80.5 -113.5t-89.5 -57.5t-112 -18.5q-63 0 -110 17t-84.5 56.5t-56.5 110.5t-19 173t19 203.5t60.5 198
t101.5 170t149 118.5t196 45q145 0 223 -78l17 60q64 18 163 18l50 -45l-107 -885q75 0 172 53zM487 145q67 88 136.5 264t164.5 492q-74 45 -163 45q-45 0 -115 -18q-86 -109 -130 -280t-44 -335q0 -98 21.5 -136t76.5 -38q23 0 53 6zM954 1237l-161 -78l-144 227h-18
l-172 -210h-113l295 399h145z" />
    <glyph glyph-name="atilde" unicode="&#xe3;" horiz-adv-x="1167" 
d="M1114 188l21 -94q-65 -52 -141.5 -83t-141.5 -31q-133 0 -133 114q0 19 3.5 47.5t12.5 75t18 91.5t25 124.5t29 147.5l-23 4q-48 -151 -85.5 -249t-76.5 -172.5t-80.5 -113.5t-89.5 -57.5t-112 -18.5q-63 0 -110 17t-84.5 56.5t-56.5 110.5t-19 173t19 203.5t60.5 198
t101.5 170t149 118.5t196 45q145 0 223 -78l17 60q64 18 163 18l50 -45l-107 -885q75 0 172 53zM487 145q67 88 136.5 264t164.5 492q-74 45 -163 45q-45 0 -115 -18q-86 -109 -130 -280t-44 -335q0 -98 21.5 -136t76.5 -38q23 0 53 6zM918 1499l57 -53q-89 -223 -221 -223
q-50 0 -113 37l-125 73l-104 -108l-58 53q86 221 221 221q55 0 113 -37l123 -73z" />
    <glyph glyph-name="adieresis" unicode="&#xe4;" horiz-adv-x="1167" 
d="M1114 188l21 -94q-65 -52 -141.5 -83t-141.5 -31q-133 0 -133 114q0 19 3.5 47.5t12.5 75t18 91.5t25 124.5t29 147.5l-23 4q-48 -151 -85.5 -249t-76.5 -172.5t-80.5 -113.5t-89.5 -57.5t-112 -18.5q-63 0 -110 17t-84.5 56.5t-56.5 110.5t-19 173t19 203.5t60.5 198
t101.5 170t149 118.5t196 45q145 0 223 -78l17 60q64 18 163 18l50 -45l-107 -885q75 0 172 53zM487 145q67 88 136.5 264t164.5 492q-74 45 -163 45q-45 0 -115 -18q-86 -109 -130 -280t-44 -335q0 -98 21.5 -136t76.5 -38q23 0 53 6zM489 1497q49 0 76 -12q21 -47 21 -84
q0 -71 -51 -150h-168l-15 219q71 27 137 27zM897 1497q46 0 76 -12q20 -42 20 -82q0 -70 -51 -152h-168l-14 219q71 27 137 27z" />
    <glyph glyph-name="aring" unicode="&#xe5;" horiz-adv-x="1167" 
d="M1114 188l21 -94q-65 -52 -141.5 -83t-141.5 -31q-133 0 -133 114q0 19 3.5 47.5t12.5 75t18 91.5t25 124.5t29 147.5l-23 4q-48 -151 -85.5 -249t-76.5 -172.5t-80.5 -113.5t-89.5 -57.5t-112 -18.5q-63 0 -110 17t-84.5 56.5t-56.5 110.5t-19 173t19 203.5t60.5 198
t101.5 170t149 118.5t196 45q145 0 223 -78l17 60q64 18 163 18l50 -45l-107 -885q75 0 172 53zM487 145q67 88 136.5 264t164.5 492q-74 45 -163 45q-45 0 -115 -18q-86 -109 -130 -280t-44 -335q0 -98 21.5 -136t76.5 -38q23 0 53 6zM694 1606q102 0 154.5 -48t52.5 -137
q0 -104 -68 -168.5t-190 -64.5q-102 0 -155.5 48t-53.5 136q0 105 69.5 169.5t190.5 64.5zM684 1509q-29 0 -49 -10q-39 -45 -39 -131q0 -84 59 -84q32 0 50 12q40 50 40 131q0 44 -15 63t-46 19z" />
    <glyph glyph-name="ae" unicode="&#xe6;" horiz-adv-x="1581" 
d="M1124 150q70 0 157 37t169 104l27 -98q-89 -101 -204 -160.5t-247 -59.5q-68 0 -120 18t-84.5 51t-53.5 74.5t-28.5 92t-7 99.5t8.5 102l-24 6q-31 -97 -54.5 -159.5t-56 -121.5t-69 -91.5t-86 -51.5t-113.5 -19q-62 0 -109 17.5t-84 57t-56 111t-19 173.5t18.5 202.5
t60.5 197t102.5 170t151 118.5t199.5 45q183 0 293 -119q124 119 315 119q168 0 248 -72t80 -194q0 -99 -52 -171.5t-141 -111t-192 -55t-221 -12.5v-27q0 -272 192 -272zM748 723q51 107 90 158q-101 65 -209 65q-52 0 -117 -18q-88 -109 -132 -280t-44 -335
q0 -99 22 -136.5t78 -37.5q27 0 43 4q51 79 92.5 166.5t96.5 222t80 191.5zM1180 944q-54 0 -103 -22q-55 -55 -90 -163.5t-49 -228.5q346 38 346 285q0 66 -23.5 97.5t-80.5 31.5z" />
    <glyph glyph-name="ccedilla" unicode="&#xe7;" horiz-adv-x="927" 
d="M508 154q138 0 299 122l24 -100q-137 -160 -327 -194l-10 -109q155 -4 155 -123q0 -80 -62.5 -133t-176.5 -53q-130 0 -197 61l25 84q93 -26 124 -26q44 0 70.5 21t26.5 56q0 27 -22 39.5t-91 24.5l41 149q-84 4 -147.5 39t-102 94t-57.5 133.5t-19 163.5
q0 88 17.5 176.5t59 177t102 156t155 110t209.5 42.5q106 0 184 -38.5t97 -119.5l-99 -127l-251 162q-33 -5 -66 -20q-67 -73 -103 -219t-36 -277q0 -272 178 -272z" />
    <glyph glyph-name="egrave" unicode="&#xe8;" horiz-adv-x="972" 
d="M518 150q70 0 156.5 37t167.5 104l26 -98q-88 -102 -202.5 -161t-245.5 -59q-92 0 -162 32t-112.5 90.5t-63.5 135t-21 170.5q0 89 17 177.5t58.5 177.5t102.5 156.5t157 110t214 42.5q161 0 240.5 -72.5t79.5 -193.5q0 -99 -51.5 -171t-140 -111t-192 -55.5
t-220.5 -12.5v-27q0 -272 192 -272zM571 944q-53 0 -102 -22q-56 -56 -90.5 -164.5t-46.5 -227.5q179 20 261.5 91.5t82.5 193.5q0 65 -24 97t-81 32zM666 1174h-113l-248 290q55 92 127 129h127z" />
    <glyph glyph-name="eacute" unicode="&#xe9;" horiz-adv-x="972" 
d="M518 150q70 0 156.5 37t167.5 104l26 -98q-88 -102 -202.5 -161t-245.5 -59q-92 0 -162 32t-112.5 90.5t-63.5 135t-21 170.5q0 89 17 177.5t58.5 177.5t102.5 156.5t157 110t214 42.5q161 0 240.5 -72.5t79.5 -193.5q0 -99 -51.5 -171t-140 -111t-192 -55.5
t-220.5 -12.5v-27q0 -272 192 -272zM571 944q-53 0 -102 -22q-56 -56 -90.5 -164.5t-46.5 -227.5q179 20 261.5 91.5t82.5 193.5q0 65 -24 97t-81 32zM764 1593h125q68 -45 90 -129l-317 -290h-113z" />
    <glyph glyph-name="ecircumflex" unicode="&#xea;" horiz-adv-x="972" 
d="M518 150q70 0 156.5 37t167.5 104l26 -98q-88 -102 -202.5 -161t-245.5 -59q-92 0 -162 32t-112.5 90.5t-63.5 135t-21 170.5q0 89 17 177.5t58.5 177.5t102.5 156.5t157 110t214 42.5q161 0 240.5 -72.5t79.5 -193.5q0 -99 -51.5 -171t-140 -111t-192 -55.5
t-220.5 -12.5v-27q0 -272 192 -272zM571 944q-53 0 -102 -22q-56 -56 -90.5 -164.5t-46.5 -227.5q179 20 261.5 91.5t82.5 193.5q0 65 -24 97t-81 32zM918 1237l-162 -78l-144 227h-18l-172 -210h-113l295 399h146z" />
    <glyph glyph-name="edieresis" unicode="&#xeb;" horiz-adv-x="972" 
d="M518 150q70 0 156.5 37t167.5 104l26 -98q-88 -102 -202.5 -161t-245.5 -59q-92 0 -162 32t-112.5 90.5t-63.5 135t-21 170.5q0 89 17 177.5t58.5 177.5t102.5 156.5t157 110t214 42.5q161 0 240.5 -72.5t79.5 -193.5q0 -99 -51.5 -171t-140 -111t-192 -55.5
t-220.5 -12.5v-27q0 -272 192 -272zM571 944q-53 0 -102 -22q-56 -56 -90.5 -164.5t-46.5 -227.5q179 20 261.5 91.5t82.5 193.5q0 65 -24 97t-81 32zM453 1497q48 0 75 -12q21 -47 21 -84q0 -71 -51 -150h-168l-15 219q71 27 138 27zM860 1497q46 0 76 -12q20 -42 20 -82
q0 -70 -51 -152h-168l-14 219q71 27 137 27z" />
    <glyph glyph-name="igrave" unicode="&#xec;" horiz-adv-x="579" 
d="M467 1012l-105 -877q65 0 166 53l19 -94q-141 -114 -275 -114q-73 0 -112 32t-39 107q0 120 88 762l-143 12v96q181 59 354 68zM416 1174h-111l-239 290q51 92 127 129h124z" />
    <glyph glyph-name="iacute" unicode="&#xed;" horiz-adv-x="579" 
d="M467 1012l-105 -877q65 0 166 53l19 -94q-141 -114 -275 -114q-73 0 -112 32t-39 107q0 120 88 762l-143 12v96q181 59 354 68zM467 1593h125q68 -44 90 -129l-270 -290h-113z" />
    <glyph glyph-name="icircumflex" unicode="&#xee;" horiz-adv-x="579" 
d="M467 1012l-105 -877q65 0 166 53l19 -94q-141 -114 -275 -114q-73 0 -112 32t-39 107q0 120 88 762l-143 12v96q181 59 354 68zM633 1247l-162 -69l-106 194h-21l-131 -186h-113l256 389h146z" />
    <glyph glyph-name="idieresis" unicode="&#xef;" horiz-adv-x="579" 
d="M467 1012l-105 -877q65 0 166 53l19 -94q-141 -114 -275 -114q-73 0 -112 32t-39 107q0 120 88 762l-143 12v96q181 59 354 68zM217 1497q49 0 76 -12q18 -37 18 -84q0 -79 -49 -150h-162l-12 219q71 27 129 27zM584 1497q43 0 73 -12q19 -31 19 -84q0 -77 -49 -150h-160
l-14 219q69 27 131 27z" />
    <glyph glyph-name="eth" unicode="&#xf0;" horiz-adv-x="1064" 
d="M918 1456l-191 -104q283 -226 283 -639q0 -114 -19.5 -219.5t-63 -201.5t-107 -166.5t-158.5 -112.5t-211 -42q-184 0 -288 106.5t-104 309.5q0 78 14.5 157.5t49.5 162t87 146t133.5 104t182.5 40.5q67 0 109.5 -16t83.5 -49l20 4q-25 181 -176 326l-213 -119l-90 57
l-4 29l209 114q-85 60 -221 127l59 84q177 -50 313 -127l211 117l88 -57zM590 119q74 72 113.5 234t41.5 378q0 63 -2 92q-100 41 -168 41q-58 0 -106 -20q-65 -68 -104 -216.5t-39 -291.5q0 -120 35.5 -182t117.5 -62q49 0 111 27z" />
    <glyph glyph-name="ntilde" unicode="&#xf1;" horiz-adv-x="1202" 
d="M1139 188l18 -94q-64 -52 -140 -83t-145 -31q-149 0 -149 135q0 59 51 333t51 347q0 54 -21.5 79t-74.5 25q-27 0 -47 -4q-175 -232 -344 -895q-73 -20 -182 -20l-50 45l103 856l-143 12v96q170 58 352 68l47 -45l-100 -541l24 -4q59 184 102.5 291t94.5 180.5t106 100
t133 26.5q242 0 242 -242q0 -128 -102 -688q73 0 174 53zM993 1491l58 -53q-89 -224 -222 -224q-49 0 -112 37l-125 74l-105 -108l-57 53q86 221 221 221q55 0 113 -37l123 -74z" />
    <glyph glyph-name="ograve" unicode="&#xf2;" horiz-adv-x="1077" 
d="M610 1065q104 0 183 -32.5t127 -92t72 -138t24 -175.5q0 -84 -17 -170t-58 -174.5t-101.5 -156t-156.5 -110.5t-214 -43q-204 0 -305 119.5t-101 319.5q0 70 12.5 141.5t38 146.5t69.5 139.5t102.5 115.5t142 80.5t182.5 29.5zM586 944q-58 0 -107 -22
q-72 -72 -110.5 -245t-38.5 -333q0 -128 40 -189t126 -61q55 0 106 23q71 70 109.5 244t38.5 331q0 132 -39 192t-125 60zM664 1174h-113l-248 290q55 92 127 129h127z" />
    <glyph glyph-name="oacute" unicode="&#xf3;" horiz-adv-x="1077" 
d="M610 1065q104 0 183 -32.5t127 -92t72 -138t24 -175.5q0 -84 -17 -170t-58 -174.5t-101.5 -156t-156.5 -110.5t-214 -43q-204 0 -305 119.5t-101 319.5q0 70 12.5 141.5t38 146.5t69.5 139.5t102.5 115.5t142 80.5t182.5 29.5zM586 944q-58 0 -107 -22
q-72 -72 -110.5 -245t-38.5 -333q0 -128 40 -189t126 -61q55 0 106 23q71 70 109.5 244t38.5 331q0 132 -39 192t-125 60zM762 1593h125q68 -45 90 -129l-318 -290h-112z" />
    <glyph glyph-name="ocircumflex" unicode="&#xf4;" horiz-adv-x="1077" 
d="M610 1065q104 0 183 -32.5t127 -92t72 -138t24 -175.5q0 -84 -17 -170t-58 -174.5t-101.5 -156t-156.5 -110.5t-214 -43q-204 0 -305 119.5t-101 319.5q0 70 12.5 141.5t38 146.5t69.5 139.5t102.5 115.5t142 80.5t182.5 29.5zM586 944q-58 0 -107 -22
q-72 -72 -110.5 -245t-38.5 -333q0 -128 40 -189t126 -61q55 0 106 23q71 70 109.5 244t38.5 331q0 132 -39 192t-125 60zM915 1237l-161 -78l-144 227h-18l-172 -210h-113l295 399h146z" />
    <glyph glyph-name="otilde" unicode="&#xf5;" horiz-adv-x="1077" 
d="M610 1065q104 0 183 -32.5t127 -92t72 -138t24 -175.5q0 -84 -17 -170t-58 -174.5t-101.5 -156t-156.5 -110.5t-214 -43q-204 0 -305 119.5t-101 319.5q0 70 12.5 141.5t38 146.5t69.5 139.5t102.5 115.5t142 80.5t182.5 29.5zM586 944q-58 0 -107 -22
q-72 -72 -110.5 -245t-38.5 -333q0 -128 40 -189t126 -61q55 0 106 23q71 70 109.5 244t38.5 331q0 132 -39 192t-125 60zM879 1499l57 -53q-89 -223 -221 -223q-50 0 -113 37l-125 73l-104 -108l-58 53q86 221 222 221q54 0 112 -37l123 -73z" />
    <glyph glyph-name="odieresis" unicode="&#xf6;" horiz-adv-x="1077" 
d="M610 1065q104 0 183 -32.5t127 -92t72 -138t24 -175.5q0 -84 -17 -170t-58 -174.5t-101.5 -156t-156.5 -110.5t-214 -43q-204 0 -305 119.5t-101 319.5q0 70 12.5 141.5t38 146.5t69.5 139.5t102.5 115.5t142 80.5t182.5 29.5zM586 944q-58 0 -107 -22
q-72 -72 -110.5 -245t-38.5 -333q0 -128 40 -189t126 -61q55 0 106 23q71 70 109.5 244t38.5 331q0 132 -39 192t-125 60zM451 1497q48 0 75 -12q21 -47 21 -84q0 -71 -51 -150h-168l-15 219q71 27 138 27zM858 1497q46 0 76 -12q20 -42 20 -82q0 -70 -51 -152h-168l-14 219
q71 27 137 27z" />
    <glyph glyph-name="divide" unicode="&#xf7;" 
d="M721 1145q51 0 94 -12q21 -47 21 -91q0 -82 -62 -176h-194l-13 252q71 27 154 27zM1110 631l-12 -99h-926v54l12 98h926v-53zM625 369q47 0 94 -13q20 -45 20 -88q0 -83 -61 -178h-195l-12 252q71 27 154 27z" />
    <glyph glyph-name="oslash" unicode="&#xf8;" horiz-adv-x="1077" 
d="M1032 1153l-129 -192q113 -116 113 -334q0 -84 -17 -170t-58 -174.5t-101.5 -156t-156.5 -110.5t-214 -43q-120 0 -205 43l-125 -184l-88 43l-10 29l125 186q-103 118 -103 322q0 86 17 172t58 174t101.5 155t156.5 109.5t214 42.5q115 0 193 -37l133 197l86 -43z
M471 920q-72 -70 -112 -243.5t-40 -332.5v-39l392 590q-43 49 -121 49q-62 0 -119 -24zM610 119q49 48 84.5 154t50.5 215t15 206q0 32 -4 72l-400 -606q43 -66 136 -66q66 0 118 25z" />
    <glyph glyph-name="ugrave" unicode="&#xf9;" horiz-adv-x="1206" 
d="M1155 188l19 -94q-65 -51 -145.5 -82.5t-147.5 -31.5q-133 0 -133 114q0 30 8.5 82.5t32 174.5t40.5 216l-22 4q-40 -122 -70.5 -205.5t-63.5 -154.5t-63.5 -113t-67.5 -72t-78 -41.5t-93 -11.5q-242 0 -242 242q0 27 2.5 62t9.5 86.5t12 87.5t17 107.5t17 102
t19.5 115.5t18.5 105l-143 12v96q196 62 354 68l47 -43q-5 -39 -34.5 -213t-53.5 -335t-24 -222q0 -55 21.5 -80t72.5 -25q27 0 45 2q160 211 348 897q76 21 180 21l52 -45l-107 -879q75 0 172 53zM717 1174h-113l-248 290q55 92 127 129h127z" />
    <glyph glyph-name="uacute" unicode="&#xfa;" horiz-adv-x="1206" 
d="M1155 188l19 -94q-65 -51 -145.5 -82.5t-147.5 -31.5q-133 0 -133 114q0 30 8.5 82.5t32 174.5t40.5 216l-22 4q-40 -122 -70.5 -205.5t-63.5 -154.5t-63.5 -113t-67.5 -72t-78 -41.5t-93 -11.5q-242 0 -242 242q0 27 2.5 62t9.5 86.5t12 87.5t17 107.5t17 102
t19.5 115.5t18.5 105l-143 12v96q196 62 354 68l47 -43q-5 -39 -34.5 -213t-53.5 -335t-24 -222q0 -55 21.5 -80t72.5 -25q27 0 45 2q160 211 348 897q76 21 180 21l52 -45l-107 -879q75 0 172 53zM815 1593h125q68 -45 90 -129l-317 -290h-113z" />
    <glyph glyph-name="ucircumflex" unicode="&#xfb;" horiz-adv-x="1206" 
d="M1155 188l19 -94q-65 -51 -145.5 -82.5t-147.5 -31.5q-133 0 -133 114q0 30 8.5 82.5t32 174.5t40.5 216l-22 4q-40 -122 -70.5 -205.5t-63.5 -154.5t-63.5 -113t-67.5 -72t-78 -41.5t-93 -11.5q-242 0 -242 242q0 27 2.5 62t9.5 86.5t12 87.5t17 107.5t17 102
t19.5 115.5t18.5 105l-143 12v96q196 62 354 68l47 -43q-5 -39 -34.5 -213t-53.5 -335t-24 -222q0 -55 21.5 -80t72.5 -25q27 0 45 2q160 211 348 897q76 21 180 21l52 -45l-107 -879q75 0 172 53zM969 1237l-162 -78l-143 227h-19l-172 -210h-113l295 399h146z" />
    <glyph glyph-name="udieresis" unicode="&#xfc;" horiz-adv-x="1206" 
d="M1155 188l19 -94q-65 -51 -145.5 -82.5t-147.5 -31.5q-133 0 -133 114q0 30 8.5 82.5t32 174.5t40.5 216l-22 4q-40 -122 -70.5 -205.5t-63.5 -154.5t-63.5 -113t-67.5 -72t-78 -41.5t-93 -11.5q-242 0 -242 242q0 27 2.5 62t9.5 86.5t12 87.5t17 107.5t17 102
t19.5 115.5t18.5 105l-143 12v96q196 62 354 68l47 -43q-5 -39 -34.5 -213t-53.5 -335t-24 -222q0 -55 21.5 -80t72.5 -25q27 0 45 2q160 211 348 897q76 21 180 21l52 -45l-107 -879q75 0 172 53zM504 1497q49 0 76 -12q20 -45 20 -84q0 -71 -51 -150h-168l-14 219
q71 27 137 27zM911 1497q46 0 76 -12q21 -44 21 -82q0 -68 -52 -152h-168l-14 219q71 27 137 27z" />
    <glyph glyph-name="yacute" unicode="&#xfd;" horiz-adv-x="1067" 
d="M707 979l155 86q70 -21 112 -87t42 -165q0 -165 -112.5 -412t-297.5 -477q-291 -360 -506 -360q-60 0 -120.5 25t-104.5 73l31 100q3 -1 23.5 -6t26.5 -6.5t26.5 -6.5t29 -7t28 -6t31.5 -6t30.5 -5t33 -4t32 -2.5t34.5 -1.5q92 59 174 144q-122 644 -215 1026l-144 12v96
q187 63 324 68l49 -45q139 -622 168 -932h25q81 117 158.5 292t109.5 337zM776 1593h125q68 -45 90 -129l-317 -290h-113z" />
    <glyph glyph-name="thorn" unicode="&#xfe;" horiz-adv-x="1134" 
d="M797 1065q63 0 110 -17t84.5 -56t56.5 -109.5t19 -171.5q0 -103 -18.5 -204.5t-60 -198.5t-101 -171t-148 -119t-194.5 -45q-145 0 -219 66l-50 -449q-64 -26 -192 -26l-49 45l211 1757l-119 33l10 96q152 40 320 47l49 -45l-70 -467q-41 -271 -108 -571l22 -6
q59 188 104 300t97.5 185.5t109 100t136.5 26.5zM629 113q86 109 129 278t43 332q0 101 -21.5 138.5t-77.5 37.5q-11 0 -51 -4q-67 -89 -137.5 -264.5t-167.5 -495.5q77 -41 168 -41q56 0 115 19z" />
    <glyph glyph-name="ydieresis" unicode="&#xff;" horiz-adv-x="1067" 
d="M707 979l155 86q70 -21 112 -87t42 -165q0 -165 -112.5 -412t-297.5 -477q-291 -360 -506 -360q-60 0 -120.5 25t-104.5 73l31 100q3 -1 23.5 -6t26.5 -6.5t26.5 -6.5t29 -7t28 -6t31.5 -6t30.5 -5t33 -4t32 -2.5t34.5 -1.5q92 59 174 144q-122 644 -215 1026l-144 12v96
q187 63 324 68l49 -45q139 -622 168 -932h25q81 117 158.5 292t109.5 337zM465 1497q49 0 76 -12q20 -45 20 -84q0 -71 -51 -150h-168l-14 219q71 27 137 27zM872 1497q46 0 76 -12q21 -44 21 -82q0 -70 -51 -152h-168l-15 219q71 27 137 27z" />
    <glyph glyph-name="Amacron" unicode="&#x100;" horiz-adv-x="1327" 
d="M1276 104v-47l-6 -57h-543v100q62 32 143 43q-9 41 -27.5 122t-27.5 122h-438q-18 -45 -53 -134t-52 -134l140 -15v-47l-9 -57h-421v100q61 31 145 43q229 551 498 1121l-21 94l53 45q115 0 203 -23q185 -873 287 -1263zM430 518h356q-5 22 -106 526h-23
q-78 -171 -227 -526zM469 1720h563q6 -18 6 -49q0 -64 -22 -112h-563q-7 28 -7 47q0 61 23 114z" />
    <glyph glyph-name="amacron" unicode="&#x101;" horiz-adv-x="1167" 
d="M1114 188l21 -94q-65 -52 -141.5 -83t-141.5 -31q-133 0 -133 114q0 19 3.5 47.5t12.5 75t18 91.5t25 124.5t29 147.5l-23 4q-48 -151 -85.5 -249t-76.5 -172.5t-80.5 -113.5t-89.5 -57.5t-112 -18.5q-63 0 -110 17t-84.5 56.5t-56.5 110.5t-19 173t19 203.5t60.5 198
t101.5 170t149 118.5t196 45q145 0 223 -78l17 60q64 18 163 18l50 -45l-107 -885q75 0 172 53zM487 145q67 88 136.5 264t164.5 492q-74 45 -163 45q-45 0 -115 -18q-86 -109 -130 -280t-44 -335q0 -98 21.5 -136t76.5 -38q23 0 53 6zM414 1430h518q6 -18 6 -46
q0 -57 -25 -114h-518q-6 18 -6 45q0 61 25 115z" />
    <glyph glyph-name="Abreve" unicode="&#x102;" horiz-adv-x="1327" 
d="M1276 104v-47l-6 -57h-543v100q62 32 143 43q-9 41 -27.5 122t-27.5 122h-438q-18 -45 -53 -134t-52 -134l140 -15v-47l-9 -57h-421v100q61 31 145 43q229 551 498 1121l-21 94l53 45q115 0 203 -23q185 -873 287 -1263zM430 518h356q-5 22 -106 526h-23
q-78 -171 -227 -526zM459 1763l166 37q6 -88 41.5 -130t107.5 -42q73 0 118 41.5t85 128.5l82 -18q-77 -307 -340 -307q-139 0 -203.5 80.5t-56.5 209.5z" />
    <glyph glyph-name="abreve" unicode="&#x103;" horiz-adv-x="1167" 
d="M1114 188l21 -94q-65 -52 -141.5 -83t-141.5 -31q-133 0 -133 114q0 19 3.5 47.5t12.5 75t18 91.5t25 124.5t29 147.5l-23 4q-48 -151 -85.5 -249t-76.5 -172.5t-80.5 -113.5t-89.5 -57.5t-112 -18.5q-63 0 -110 17t-84.5 56.5t-56.5 110.5t-19 173t19 203.5t60.5 198
t101.5 170t149 118.5t196 45q145 0 223 -78l17 60q64 18 163 18l50 -45l-107 -885q75 0 172 53zM487 145q67 88 136.5 264t164.5 492q-74 45 -163 45q-45 0 -115 -18q-86 -109 -130 -280t-44 -335q0 -98 21.5 -136t76.5 -38q23 0 53 6zM403 1511l166 37q2 -102 30 -151
t101 -49q70 0 112 49t73 149l80 -22q-66 -328 -324 -328q-60 0 -106.5 18.5t-73 50t-43.5 72t-18 85t3 89.5z" />
    <glyph glyph-name="Aogonek" unicode="&#x104;" horiz-adv-x="1327" 
d="M1276 104v-47l-8 -57h-350q-89 -119 -89 -207q0 -102 103 -102q33 0 98 18l4 -88q-93 -57 -203 -57q-106 0 -159.5 50t-53.5 136q0 98 71 189t192 163q-41 168 -66 285h-438q-18 -45 -53 -134t-52 -134l140 -15v-47l-9 -57h-421v100q61 31 145 43q229 551 498 1121
l-21 94l53 45q115 0 203 -23q185 -873 287 -1263zM430 518h356q-5 22 -106 526h-23q-78 -171 -227 -526z" />
    <glyph glyph-name="aogonek" unicode="&#x105;" horiz-adv-x="1167" 
d="M979 -309q39 0 98 18l6 -88q-79 -57 -204 -57q-108 0 -158.5 44t-50.5 116q0 77 54 139t144 100l-4 23q-12 -2 -30 -2q-115 7 -115 108q0 32 9.5 85t36 182.5t44.5 220.5l-25 4q-60 -189 -104.5 -300t-96.5 -184.5t-107 -100t-134 -26.5q-64 0 -111.5 17t-85 56.5
t-56.5 110.5t-19 173t19 203.5t61 198t102 170t149 118.5t195 45q148 0 223 -78l17 60q64 18 163 18l52 -45l-107 -885q73 0 170 53l21 -94q-118 -79 -186 -153.5t-68 -153.5q0 -96 98 -96zM487 145q68 88 138 264t163 492q-74 45 -163 45q-48 0 -113 -18
q-88 -109 -132 -280t-44 -335q0 -98 22 -136t76 -38q23 0 53 6z" />
    <glyph glyph-name="Cacute" unicode="&#x106;" horiz-adv-x="1226" 
d="M606 1210q-92 -72 -154.5 -262t-62.5 -391q0 -213 74 -304t229 -91q82 0 186 36t197 107l27 -104q-97 -104 -230 -166t-268 -62q-254 0 -381 155t-127 423q0 120 25 238t79 227t130 191.5t187.5 132t242.5 49.5q117 0 209 -54l4 33q102 23 145 23l53 -39q5 -35 5 -60
q0 -128 -41 -313h-152l-20 244q-96 26 -177 26q-88 0 -180 -39zM915 1843h125q66 -40 90 -127l-321 -243h-125z" />
    <glyph glyph-name="cacute" unicode="&#x107;" horiz-adv-x="927" 
d="M508 154q138 0 299 122l24 -100q-82 -95 -189.5 -149t-227.5 -54t-201 58.5t-116.5 153t-35.5 218.5q0 88 17.5 176.5t59 177t102 156t155 110t209.5 42.5q106 0 184 -38.5t97 -119.5l-99 -127l-251 162q-33 -5 -66 -20q-67 -73 -103 -219t-36 -277q0 -272 178 -272z
M717 1593h125q68 -45 90 -129l-318 -290h-112z" />
    <glyph glyph-name="Ccircumflex" unicode="&#x108;" horiz-adv-x="1226" 
d="M606 1210q-92 -72 -154.5 -262t-62.5 -391q0 -213 74 -304t229 -91q82 0 186 36t197 107l27 -104q-97 -104 -230 -166t-268 -62q-254 0 -381 155t-127 423q0 120 25 238t79 227t130 191.5t187.5 132t242.5 49.5q117 0 209 -54l4 33q102 23 145 23l53 -39q5 -35 5 -60
q0 -128 -41 -313h-152l-20 244q-96 26 -177 26q-88 0 -180 -39zM1081 1538l-159 -90l-168 192h-19l-184 -167h-121l315 352h146z" />
    <glyph glyph-name="ccircumflex" unicode="&#x109;" horiz-adv-x="927" 
d="M508 154q138 0 299 122l24 -100q-82 -95 -189.5 -149t-227.5 -54t-201 58.5t-116.5 153t-35.5 218.5q0 88 17.5 176.5t59 177t102 156t155 110t209.5 42.5q106 0 184 -38.5t97 -119.5l-99 -127l-251 162q-33 -5 -66 -20q-67 -73 -103 -219t-36 -277q0 -272 178 -272z
M870 1237l-161 -78l-144 227h-18l-172 -210h-113l295 399h145z" />
    <glyph glyph-name="Cdotaccent" unicode="&#x10a;" horiz-adv-x="1226" 
d="M606 1210q-92 -72 -154.5 -262t-62.5 -391q0 -213 74 -304t229 -91q82 0 186 36t197 107l27 -104q-97 -104 -230 -166t-268 -62q-254 0 -381 155t-127 423q0 120 25 238t79 227t130 191.5t187.5 132t242.5 49.5q117 0 209 -54l4 33q102 23 145 23l53 -39q5 -35 5 -60
q0 -128 -41 -313h-152l-20 244q-96 26 -177 26q-88 0 -180 -39zM799 1772q49 0 86 -13q22 -49 22 -92q0 -72 -57 -166h-195l-12 242q71 29 156 29z" />
    <glyph glyph-name="cdotaccent" unicode="&#x10b;" horiz-adv-x="927" 
d="M508 154q138 0 299 122l24 -100q-82 -95 -189.5 -149t-227.5 -54t-201 58.5t-116.5 153t-35.5 218.5q0 88 17.5 176.5t59 177t102 156t155 110t209.5 42.5q106 0 184 -38.5t97 -119.5l-99 -127l-251 162q-33 -5 -66 -20q-67 -73 -103 -219t-36 -277q0 -272 178 -272z
M616 1516q45 0 82 -13q23 -44 23 -88q0 -76 -57 -168h-193l-12 242q88 27 157 27z" />
    <glyph glyph-name="Ccaron" unicode="&#x10c;" horiz-adv-x="1226" 
d="M606 1210q-92 -72 -154.5 -262t-62.5 -391q0 -213 74 -304t229 -91q82 0 186 36t197 107l27 -104q-97 -104 -230 -166t-268 -62q-254 0 -381 155t-127 423q0 120 25 238t79 227t130 191.5t187.5 132t242.5 49.5q117 0 209 -54l4 33q102 23 145 23l53 -39q5 -35 5 -60
q0 -128 -41 -313h-152l-20 244q-96 26 -177 26q-88 0 -180 -39zM795 1657h18l186 168h119l-313 -352h-148l-192 290l166 84z" />
    <glyph glyph-name="ccaron" unicode="&#x10d;" horiz-adv-x="927" 
d="M508 154q138 0 299 122l24 -100q-82 -95 -189.5 -149t-227.5 -54t-201 58.5t-116.5 153t-35.5 218.5q0 88 17.5 176.5t59 177t102 156t155 110t209.5 42.5q106 0 184 -38.5t97 -119.5l-99 -127l-251 162q-33 -5 -66 -20q-67 -73 -103 -219t-36 -277q0 -272 178 -272z
M602 1366h19l172 211h112l-295 -401h-147l-166 337l162 80z" />
    <glyph glyph-name="Dcaron" unicode="&#x10e;" horiz-adv-x="1357" 
d="M637 1378q184 0 314.5 -40t206 -118t109 -180.5t33.5 -240.5q0 -75 -9 -148.5t-32.5 -154t-59 -151t-92.5 -135t-129.5 -110.5t-173.5 -73t-220 -27h-553v100q91 35 159 45l99 1082l-150 18v47l6 60q266 26 492 26zM844 201q86 103 127 271t41 359q0 210 -73 314
t-251 104h-135l-102 -1118h118q166 0 275 70zM784 1657h19l186 168h119l-313 -352h-148l-192 290l166 84z" />
    <glyph glyph-name="dcaron" unicode="&#x10f;" horiz-adv-x="1359" 
d="M1114 188l21 -94q-65 -52 -141.5 -83t-141.5 -31q-133 0 -133 114q0 23 7.5 68.5t17 93.5t29.5 146t36 178l-25 6q-47 -151 -84 -248.5t-75.5 -173t-80 -114.5t-90 -58t-112.5 -19t-111.5 17t-85 56.5t-56.5 110.5t-19 173q0 84 13.5 169t40.5 168t71 154.5t101 126
t134.5 86t167.5 31.5q136 0 213 -53l37 354l-121 33l12 96q152 40 320 47l49 -45l-166 -1362q75 0 172 53zM485 145q69 93 142.5 275.5t163.5 490.5q-89 35 -164 35q-50 0 -115 -18q-88 -109 -132 -280t-44 -335q0 -98 22 -136t76 -38q21 0 51 6zM1329 1550q77 0 139 -41
q-12 -128 -55 -228.5t-133 -205.5h-92l63 260v203q30 12 78 12z" />
    <glyph glyph-name="Dcroat" unicode="&#x110;" horiz-adv-x="1382" 
d="M662 1378q184 0 314 -40t205.5 -117.5t109.5 -180.5t34 -241q0 -75 -9.5 -148.5t-33 -154t-59.5 -151t-93 -135t-129.5 -110.5t-174 -73t-220.5 -27h-551v100q91 35 160 45l45 496h-147v41l12 88h147l41 457l-149 18v47l6 60q266 26 492 26zM868 201q86 103 126 270.5
t40 359.5q0 211 -71.5 314.5t-249.5 103.5h-135l-46 -479h236v-43l-12 -86h-234l-47 -510h119q165 0 274 70z" />
    <glyph glyph-name="dcroat" unicode="&#x111;" horiz-adv-x="1165" 
d="M1239 1368v-55l-14 -66h-148l-135 -1112q75 0 172 53l21 -94q-65 -52 -141.5 -83t-141.5 -31q-133 0 -133 114q0 23 7.5 68.5t17 93.5t29.5 146t36 178l-25 6q-47 -151 -84 -248.5t-75.5 -173t-80 -114.5t-90 -58t-112.5 -19t-111.5 17t-85 56.5t-56.5 110.5t-19 173
q0 84 13.5 169t40.5 168t71 154.5t101 126t134.5 86t167.5 31.5q136 0 213 -53l25 235h-263v56l15 65h260l14 139q103 29 197 35l49 -45l-16 -129h147zM483 143q137 186 308 768q-89 35 -164 35q-50 0 -115 -18q-88 -109 -132 -280t-44 -335q0 -98 22 -136t76 -38q13 0 49 4
z" />
    <glyph glyph-name="Emacron" unicode="&#x112;" horiz-adv-x="1177" 
d="M549 1239l-45 -483l338 16l18 -45l-14 -113l-352 19l-48 -514h373l78 235l152 -12q4 -58 4 -88q0 -125 -49 -283l-54 -6l-641 35h-280v100q77 30 159 45l99 1082l-150 16v49l8 60q283 10 525 10h288q97 29 144 29l51 -29q4 -32 4 -68q0 -133 -39 -286h-147l-19 215z
M422 1720h563q6 -18 6 -49q0 -64 -22 -112h-563q-7 28 -7 47q0 61 23 114z" />
    <glyph glyph-name="emacron" unicode="&#x113;" horiz-adv-x="972" 
d="M518 150q70 0 156.5 37t167.5 104l26 -98q-88 -102 -202.5 -161t-245.5 -59q-92 0 -162 32t-112.5 90.5t-63.5 135t-21 170.5q0 89 17 177.5t58.5 177.5t102.5 156.5t157 110t214 42.5q161 0 240.5 -72.5t79.5 -193.5q0 -99 -51.5 -171t-140 -111t-192 -55.5
t-220.5 -12.5v-27q0 -272 192 -272zM571 944q-53 0 -102 -22q-56 -56 -90.5 -164.5t-46.5 -227.5q179 20 261.5 91.5t82.5 193.5q0 65 -24 97t-81 32zM377 1430h518q6 -18 6 -46q0 -59 -24 -114h-519q-6 18 -6 45q0 61 25 115z" />
    <glyph glyph-name="Ebreve" unicode="&#x114;" horiz-adv-x="1177" 
d="M549 1239l-45 -483l338 16l18 -45l-14 -113l-352 19l-48 -514h373l78 235l152 -12q4 -58 4 -88q0 -125 -49 -283l-54 -6l-641 35h-280v100q77 30 159 45l99 1082l-150 16v49l8 60q283 10 525 10h288q97 29 144 29l51 -29q4 -32 4 -68q0 -133 -39 -286h-147l-19 215z
M412 1763l166 37q6 -88 41.5 -130t107.5 -42q73 0 118 41.5t85 128.5l82 -18q-77 -307 -340 -307q-139 0 -203.5 80.5t-56.5 209.5z" />
    <glyph glyph-name="ebreve" unicode="&#x115;" horiz-adv-x="972" 
d="M518 150q70 0 156.5 37t167.5 104l26 -98q-88 -102 -202.5 -161t-245.5 -59q-92 0 -162 32t-112.5 90.5t-63.5 135t-21 170.5q0 89 17 177.5t58.5 177.5t102.5 156.5t157 110t214 42.5q161 0 240.5 -72.5t79.5 -193.5q0 -99 -51.5 -171t-140 -111t-192 -55.5
t-220.5 -12.5v-27q0 -272 192 -272zM571 944q-53 0 -102 -22q-56 -56 -90.5 -164.5t-46.5 -227.5q179 20 261.5 91.5t82.5 193.5q0 65 -24 97t-81 32zM367 1511l165 37q2 -102 30.5 -151t101.5 -49q70 0 111.5 48.5t72.5 149.5l80 -22q-66 -328 -324 -328q-60 0 -106.5 18.5
t-73 50t-43 72t-17.5 85t3 89.5z" />
    <glyph glyph-name="Edotaccent" unicode="&#x116;" horiz-adv-x="1177" 
d="M549 1239l-45 -483l338 16l18 -45l-14 -113l-352 19l-48 -514h373l78 235l152 -12q4 -58 4 -88q0 -125 -49 -283l-54 -6l-641 35h-280v100q77 30 159 45l99 1082l-150 16v49l8 60q283 10 525 10h288q97 29 144 29l51 -29q4 -32 4 -68q0 -133 -39 -286h-147l-19 215z
M723 1772q49 0 86 -13q22 -49 22 -92q0 -72 -57 -166h-194l-13 242q71 29 156 29z" />
    <glyph glyph-name="edotaccent" unicode="&#x117;" horiz-adv-x="972" 
d="M518 150q70 0 156.5 37t167.5 104l26 -98q-88 -102 -202.5 -161t-245.5 -59q-92 0 -162 32t-112.5 90.5t-63.5 135t-21 170.5q0 89 17 177.5t58.5 177.5t102.5 156.5t157 110t214 42.5q161 0 240.5 -72.5t79.5 -193.5q0 -99 -51.5 -171t-140 -111t-192 -55.5
t-220.5 -12.5v-27q0 -272 192 -272zM571 944q-53 0 -102 -22q-56 -56 -90.5 -164.5t-46.5 -227.5q179 20 261.5 91.5t82.5 193.5q0 65 -24 97t-81 32zM664 1516q44 0 81 -13q23 -44 23 -88q0 -76 -57 -168h-193l-12 242q88 27 158 27z" />
    <glyph glyph-name="Eogonek" unicode="&#x118;" horiz-adv-x="1177" 
d="M549 1239l-45 -483l338 16l18 -45l-14 -113l-352 19l-48 -514h373l78 235l152 -12q4 -58 4 -88q0 -123 -49 -281h-117q-109 -101 -109 -188q0 -44 26 -69t73 -25q42 0 98 18l6 -88q-79 -57 -207 -57q-105 0 -156 43t-51 117q0 140 187 231v20l-445 25h-280v100
q77 30 159 45l99 1082l-150 16v49l8 60q283 10 525 10h288q97 29 144 29l51 -29q4 -32 4 -68q0 -133 -39 -286h-147l-19 215z" />
    <glyph glyph-name="eogonek" unicode="&#x119;" horiz-adv-x="972" 
d="M518 152q70 0 156.5 37t167.5 102l26 -98q-57 -61 -163 -152q-156 -129 -156 -248q0 -102 98 -102q42 0 98 18l7 -88q-79 -57 -205 -57q-107 0 -158 44t-51 116q0 42 14.5 78t45 67t58.5 52t72 50l-10 21q-70 -19 -108 -19q-172 0 -260.5 117.5t-88.5 312.5
q0 61 8.5 123.5t28.5 128t49.5 125t74.5 112t100 90.5t129 60.5t159 22.5q161 0 240.5 -72.5t79.5 -193.5q0 -99 -51.5 -171t-140 -111t-192 -55.5t-220.5 -12.5v-27q0 -270 192 -270zM571 944q-53 0 -102 -22q-56 -56 -90.5 -164.5t-46.5 -227.5q179 20 261.5 91.5
t82.5 193.5q0 65 -24 97t-81 32z" />
    <glyph glyph-name="Ecaron" unicode="&#x11a;" horiz-adv-x="1177" 
d="M549 1239l-45 -483l338 16l18 -45l-14 -113l-352 19l-48 -514h373l78 235l152 -12q4 -58 4 -88q0 -125 -49 -283l-54 -6l-641 35h-280v100q77 30 159 45l99 1082l-150 16v49l8 60q283 10 525 10h288q97 29 144 29l51 -29q4 -32 4 -68q0 -133 -39 -286h-147l-19 215z
M719 1657h18l187 168h118l-313 -352h-147l-193 290l166 84z" />
    <glyph glyph-name="ecaron" unicode="&#x11b;" horiz-adv-x="972" 
d="M518 150q70 0 156.5 37t167.5 104l26 -98q-88 -102 -202.5 -161t-245.5 -59q-92 0 -162 32t-112.5 90.5t-63.5 135t-21 170.5q0 89 17 177.5t58.5 177.5t102.5 156.5t157 110t214 42.5q161 0 240.5 -72.5t79.5 -193.5q0 -99 -51.5 -171t-140 -111t-192 -55.5
t-220.5 -12.5v-27q0 -272 192 -272zM571 944q-53 0 -102 -22q-56 -56 -90.5 -164.5t-46.5 -227.5q179 20 261.5 91.5t82.5 193.5q0 65 -24 97t-81 32zM649 1366h19l172 211h112l-295 -401h-147l-166 337l162 80z" />
    <glyph glyph-name="Gcircumflex" unicode="&#x11c;" horiz-adv-x="1304" 
d="M1235 606v-100q-55 -25 -92 -33l-43 -461l-56 -37q-72 0 -137 19l-12 55q-119 -76 -285 -76q-241 0 -377.5 155t-136.5 429q0 118 25.5 234.5t80 224.5t131.5 191t188.5 132.5t242.5 49.5t223 -52l2 31q102 23 146 23l53 -39q4 -28 4 -60q0 -128 -41 -313h-152l-20 246
q-91 24 -184 24t-191 -39q-92 -75 -154.5 -273.5t-62.5 -416.5q0 -94 13.5 -165t45 -127t87.5 -85.5t135 -29.5q115 0 217 51l12 321l-141 13v51l8 57h471zM1081 1538l-159 -90l-168 192h-19l-184 -167h-121l315 352h146z" />
    <glyph glyph-name="gcircumflex" unicode="&#x11d;" horiz-adv-x="1017" 
d="M399 236l209 -58q174 -51 247 -102t73 -142q0 -71 -39.5 -136.5t-113.5 -118t-191.5 -84t-261.5 -31.5q-377 0 -377 211q0 53 25.5 100t70.5 83t96 63t111 47q-33 38 -33 96q0 100 102 205q-113 27 -170 100.5t-57 183.5q0 82 32.5 156.5t91 131.5t146.5 90.5t191 33.5
q131 0 221 -55q43 231 217 231l64 -147l-217 -133q82 -88 82 -218q0 -73 -29 -141t-84 -124.5t-145.5 -90t-204.5 -33.5l-41 2zM432 924q-40 -34 -67 -115t-27 -168q0 -89 37.5 -128.5t97.5 -39.5q53 0 100 21q38 34 66.5 115t28.5 169q0 166 -133 166q-55 0 -103 -20z
M672 -248q43 37 43 80q0 30 -19.5 48.5t-70.5 35.5l-240 76q-45 14 -82 33q-131 -112 -131 -199q0 -67 54.5 -104t160.5 -37q77 0 155 17t130 50zM848 1237l-162 -78l-143 227h-19l-172 -210h-112l295 399h145z" />
    <glyph glyph-name="Gbreve" unicode="&#x11e;" horiz-adv-x="1304" 
d="M1235 606v-100q-55 -25 -92 -33l-43 -461l-56 -37q-72 0 -137 19l-12 55q-119 -76 -285 -76q-241 0 -377.5 155t-136.5 429q0 118 25.5 234.5t80 224.5t131.5 191t188.5 132.5t242.5 49.5t223 -52l2 31q102 23 146 23l53 -39q4 -28 4 -60q0 -128 -41 -313h-152l-20 246
q-91 24 -184 24t-191 -39q-92 -75 -154.5 -273.5t-62.5 -416.5q0 -94 13.5 -165t45 -127t87.5 -85.5t135 -29.5q115 0 217 51l12 321l-141 13v51l8 57h471zM487 1763l166 37q6 -88 42 -130t108 -42q73 0 118 41.5t85 128.5l81 -18q-77 -307 -339 -307q-139 0 -204 80.5
t-57 209.5z" />
    <glyph glyph-name="gbreve" unicode="&#x11f;" horiz-adv-x="1017" 
d="M399 236l209 -58q174 -51 247 -102t73 -142q0 -71 -39.5 -136.5t-113.5 -118t-191.5 -84t-261.5 -31.5q-377 0 -377 211q0 53 25.5 100t70.5 83t96 63t111 47q-33 38 -33 96q0 100 102 205q-113 27 -170 100.5t-57 183.5q0 82 32.5 156.5t91 131.5t146.5 90.5t191 33.5
q131 0 221 -55q43 231 217 231l64 -147l-217 -133q82 -88 82 -218q0 -73 -29 -141t-84 -124.5t-145.5 -90t-204.5 -33.5l-41 2zM432 924q-40 -34 -67 -115t-27 -168q0 -89 37.5 -128.5t97.5 -39.5q53 0 100 21q38 34 66.5 115t28.5 169q0 166 -133 166q-55 0 -103 -20z
M672 -248q43 37 43 80q0 30 -19.5 48.5t-70.5 35.5l-240 76q-45 14 -82 33q-131 -112 -131 -199q0 -67 54.5 -104t160.5 -37q77 0 155 17t130 50zM297 1511l166 37q2 -102 30 -151t101 -49q70 0 111.5 48.5t72.5 149.5l80 -22q-66 -328 -323 -328q-60 0 -106.5 18.5t-73 50
t-43.5 72t-18 85t3 89.5z" />
    <glyph glyph-name="Gdotaccent" unicode="&#x120;" horiz-adv-x="1304" 
d="M1235 606v-100q-55 -25 -92 -33l-43 -461l-56 -37q-72 0 -137 19l-12 55q-119 -76 -285 -76q-241 0 -377.5 155t-136.5 429q0 118 25.5 234.5t80 224.5t131.5 191t188.5 132.5t242.5 49.5t223 -52l2 31q102 23 146 23l53 -39q4 -28 4 -60q0 -128 -41 -313h-152l-20 246
q-91 24 -184 24t-191 -39q-92 -75 -154.5 -273.5t-62.5 -416.5q0 -94 13.5 -165t45 -127t87.5 -85.5t135 -29.5q115 0 217 51l12 321l-141 13v51l8 57h471zM799 1772q49 0 86 -13q22 -49 22 -92q0 -72 -57 -166h-195l-12 242q71 29 156 29z" />
    <glyph glyph-name="gdotaccent" unicode="&#x121;" horiz-adv-x="1017" 
d="M399 236l209 -58q174 -51 247 -102t73 -142q0 -71 -39.5 -136.5t-113.5 -118t-191.5 -84t-261.5 -31.5q-377 0 -377 211q0 53 25.5 100t70.5 83t96 63t111 47q-33 38 -33 96q0 100 102 205q-113 27 -170 100.5t-57 183.5q0 82 32.5 156.5t91 131.5t146.5 90.5t191 33.5
q131 0 221 -55q43 231 217 231l64 -147l-217 -133q82 -88 82 -218q0 -73 -29 -141t-84 -124.5t-145.5 -90t-204.5 -33.5l-41 2zM432 924q-40 -34 -67 -115t-27 -168q0 -89 37.5 -128.5t97.5 -39.5q53 0 100 21q38 34 66.5 115t28.5 169q0 166 -133 166q-55 0 -103 -20z
M672 -248q43 37 43 80q0 30 -19.5 48.5t-70.5 35.5l-240 76q-45 14 -82 33q-131 -112 -131 -199q0 -67 54.5 -104t160.5 -37q77 0 155 17t130 50zM594 1516q45 0 82 -13q22 -42 22 -88q0 -76 -57 -168h-192l-13 242q88 27 158 27z" />
    <glyph glyph-name="Gcommaaccent" unicode="&#x122;" horiz-adv-x="1304" 
d="M1235 606v-100q-55 -25 -92 -33l-43 -461l-56 -37q-72 0 -137 19l-12 55q-119 -76 -285 -76q-241 0 -377.5 155t-136.5 429q0 118 25.5 234.5t80 224.5t131.5 191t188.5 132.5t242.5 49.5t223 -52l2 31q102 23 146 23l53 -39q4 -28 4 -60q0 -128 -41 -313h-152l-20 246
q-91 24 -184 24t-191 -39q-92 -75 -154.5 -273.5t-62.5 -416.5q0 -94 13.5 -165t45 -127t87.5 -85.5t135 -29.5q115 0 217 51l12 321l-141 13v51l8 57h471zM592 -102q68 0 117 -25q22 -28 22 -96q0 -107 -61.5 -182.5t-184.5 -100.5l-22 64q61 30 90 59t29 76v22l-86 9
l14 165q40 9 82 9z" />
    <glyph glyph-name="gcommaaccent" unicode="&#x123;" horiz-adv-x="1017" 
d="M399 236l209 -58q174 -51 247 -102t73 -142q0 -71 -39.5 -136.5t-113.5 -118t-191.5 -84t-261.5 -31.5q-377 0 -377 211q0 53 25.5 100t70.5 83t96 63t111 47q-33 38 -33 96q0 100 102 205q-113 27 -170 100.5t-57 183.5q0 82 32.5 156.5t91 131.5t146.5 90.5t191 33.5
q131 0 221 -55q43 231 217 231l64 -147l-217 -133q82 -88 82 -218q0 -73 -29 -141t-84 -124.5t-145.5 -90t-204.5 -33.5l-41 2zM432 924q-40 -34 -67 -115t-27 -168q0 -89 37.5 -128.5t97.5 -39.5q53 0 100 21q38 34 66.5 115t28.5 169q0 166 -133 166q-55 0 -103 -20z
M672 -248q43 37 43 80q0 30 -19.5 48.5t-70.5 35.5l-240 76q-45 14 -82 33q-131 -112 -131 -199q0 -67 54.5 -104t160.5 -37q77 0 155 17t130 50zM672 1595l24 -63q-63 -31 -94 -64t-31 -84v-22l86 -8l-14 -168q-40 -6 -82 -6q-70 0 -117 24q-22 28 -22 96q0 110 63.5 190
t186.5 105z" />
    <glyph glyph-name="Hcircumflex" unicode="&#x124;" horiz-adv-x="1464" 
d="M1477 1362v-100q-75 -32 -162 -43l-103 -1100l152 -15v-47l-6 -57h-559v100q78 36 155 43l45 496h-503l-47 -520l139 -15v-47l-8 -57h-549v100q77 36 159 43l101 1100l-152 14v48l6 57h557v-100q-67 -33 -151 -43l-43 -451h504l43 475l-142 14v48l7 57h557zM1167 1538
l-159 -90l-168 192h-19l-184 -167h-121l315 352h146z" />
    <glyph glyph-name="hcircumflex" unicode="&#x125;" horiz-adv-x="1189" 
d="M553 1532h-121l266 305h146l157 -242l-159 -88l-135 158h-19zM1126 188l19 -94q-64 -52 -140 -83t-145 -31q-147 0 -147 135q0 59 50 333t50 347q0 54 -21.5 79t-72.5 25q-31 0 -51 -4q-162 -214 -344 -895q-73 -20 -181 -20l-49 45l142 1251l-121 33l12 96
q148 40 317 47l52 -45l-58 -430q-32 -254 -86 -506l25 -4q47 146 82.5 240t74 168.5t79.5 113t89 57.5t111 19q242 0 242 -242q0 -27 -3 -63.5t-9.5 -87t-12.5 -92t-17.5 -110t-18.5 -107t-21 -118t-19 -110.5q71 0 172 53z" />
    <glyph glyph-name="Hbar" unicode="&#x126;" horiz-adv-x="1519" 
d="M1501 1362v-100q-71 -32 -164 -43l-18 -183h174v-43l-12 -82h-172l-74 -792l154 -15v-47l-7 -57h-559v100q68 31 154 43l39 426h-502l-41 -450l139 -15v-47l-8 -57h-549v100q77 36 160 43l70 768h-172v43l12 82h172l18 207l-151 14v48l6 57h557v-100q-67 -33 -152 -43
l-16 -183h500l18 207l-139 14v48l6 57h557zM1049 911h-502l-21 -213h502z" />
    <glyph glyph-name="hbar" unicode="&#x127;" horiz-adv-x="1191" 
d="M1128 188l19 -94q-64 -52 -140 -83t-145 -31q-147 0 -147 135q0 59 50 333t50 347q0 54 -21.5 79t-72.5 25q-29 0 -49 -4q-164 -221 -344 -895q-76 -20 -183 -20l-49 45l137 1224h-149v54l14 65h148l16 139q104 27 197 35l49 -45l-16 -129h276v-53l-14 -66h-279l-35 -272
q-32 -236 -86 -506l23 -4q48 147 84 240.5t75 168t79.5 113t88.5 57.5t111 19q242 0 242 -242q0 -27 -3 -63.5t-9.5 -87t-12.5 -92t-17.5 -110t-18.5 -107t-21 -118t-19 -110.5q71 0 172 53z" />
    <glyph glyph-name="Itilde" unicode="&#x128;" horiz-adv-x="700" 
d="M713 1362v-100q-72 -32 -162 -43l-102 -1100l151 -15v-47l-6 -57h-563v100q77 36 159 43l101 1100l-152 14v48l6 57h568zM713 1780l59 -54q-40 -96 -99 -156.5t-130 -60.5q-51 0 -109 39l-117 74l-108 -113l-59 54q38 94 96.5 155.5t132.5 61.5q52 0 108 -39l113 -74z
" />
    <glyph glyph-name="itilde" unicode="&#x129;" horiz-adv-x="579" 
d="M467 1012l-105 -877q65 0 166 53l19 -94q-141 -114 -275 -114q-73 0 -112 32t-39 107q0 120 88 762l-143 12v96q181 59 354 68zM610 1497l56 -49q-29 -98 -84.5 -161.5t-124.5 -63.5q-44 0 -99 41l-104 73l-96 -110l-58 49q30 96 85.5 159.5t123.5 63.5q46 0 99 -39
l106 -74z" />
    <glyph glyph-name="Imacron" unicode="&#x12a;" horiz-adv-x="700" 
d="M713 1362v-100q-72 -32 -162 -43l-102 -1100l151 -15v-47l-6 -57h-563v100q77 36 159 43l101 1100l-152 14v48l6 57h568zM188 1720h564q6 -18 6 -49q0 -62 -23 -112h-563q-6 24 -6 47q0 63 22 114z" />
    <glyph glyph-name="imacron" unicode="&#x12b;" horiz-adv-x="579" 
d="M467 1012l-105 -877q65 0 166 53l19 -94q-141 -114 -275 -114q-73 0 -112 32t-39 107q0 120 88 762l-143 12v96q181 59 354 68zM160 1430h450q6 -18 6 -46q0 -64 -22 -114h-453q-6 18 -6 45q0 61 25 115z" />
    <glyph glyph-name="Ibreve" unicode="&#x12c;" horiz-adv-x="700" 
d="M713 1362v-100q-72 -32 -162 -43l-102 -1100l151 -15v-47l-6 -57h-563v100q77 36 159 43l101 1100l-152 14v48l6 57h568zM178 1763l166 37q6 -88 42 -130t108 -42q73 0 117.5 41t84.5 129l82 -18q-77 -307 -340 -307q-139 0 -203.5 80.5t-56.5 209.5z" />
    <glyph glyph-name="ibreve" unicode="&#x12d;" horiz-adv-x="579" 
d="M467 1012l-105 -877q65 0 166 53l19 -94q-141 -114 -275 -114q-73 0 -112 32t-39 107q0 120 88 762l-143 12v96q181 59 354 68zM143 1509l166 37q0 -100 24 -149t85 -49q60 0 97 46.5t71 149.5l80 -18q-76 -330 -299 -330q-123 0 -184 89.5t-40 223.5z" />
    <glyph glyph-name="Iogonek" unicode="&#x12e;" horiz-adv-x="700" 
d="M713 1362v-100q-73 -32 -164 -43l-103 -1100l154 -15v-47l-6 -57q-275 -85 -275 -221q0 -88 99 -88q35 0 100 18l6 -88q-83 -57 -205 -57q-106 0 -157 42t-51 115q0 82 64.5 150t170.5 106v23h-315v100q78 36 159 43l101 1100l-152 14v48l6 57h568z" />
    <glyph glyph-name="iogonek" unicode="&#x12f;" horiz-adv-x="579" 
d="M412 1516q45 0 82 -13q22 -42 22 -88q0 -74 -55 -168h-195l-12 242q88 27 158 27zM418 1057l49 -45q-11 -97 -107 -877q69 0 166 53l21 -94q-61 -40 -103.5 -72t-84.5 -72t-63.5 -81t-21.5 -82q0 -47 26.5 -71.5t72.5 -24.5q42 0 98 18l8 -88q-82 -57 -207 -57
q-106 0 -157.5 44.5t-51.5 115.5q1 77 60 138t153 101l-4 23q-19 -3 -36 0q-117 10 -117 131q0 107 90 764l-143 12v96q181 59 352 68z" />
    <glyph glyph-name="Idotaccent" unicode="&#x130;" horiz-adv-x="700" 
d="M713 1362v-100q-72 -32 -162 -43l-102 -1100l151 -15v-47l-6 -57h-563v100q77 36 159 43l101 1100l-152 14v48l6 57h568zM489 1772q49 0 86 -13q23 -52 23 -92q0 -72 -57 -166h-195l-12 242q71 29 155 29z" />
    <glyph glyph-name="dotlessi" unicode="&#x131;" horiz-adv-x="579" 
d="M467 1012l-105 -877q65 0 166 53l19 -94q-141 -114 -275 -114q-73 0 -112 32t-39 107q0 120 88 762l-143 12v96q181 59 354 68z" />
    <glyph glyph-name="IJ" unicode="&#x132;" horiz-adv-x="1398" 
d="M592 0h-561v100q77 36 159 43l101 1100l-152 14v48l6 57h557v-100q-70 -33 -151 -43l-102 -1100l149 -15v-47zM1413 1362v-100q-72 -31 -160 -45l-96 -992q-11 -111 -34 -191.5t-68 -147t-121.5 -100.5t-183.5 -34q-94 0 -177 25t-135 67l33 109q188 -34 354 -37
q54 95 72 305l96 1020l-172 12v50l8 59h584z" />
    <glyph glyph-name="ij" unicode="&#x133;" horiz-adv-x="1138" 
d="M1049 1012l-119 -977q-29 -244 -117.5 -357.5t-239.5 -113.5q-145 0 -243 88l30 98q7 -2 35.5 -8.5t41.5 -9.5t40.5 -8t46 -7.5t44 -4t48.5 -1.5q46 92 66 275l109 895l-146 12v96q181 59 356 68zM969 1516q45 0 82 -13q22 -42 22 -88q0 -76 -57 -168h-193l-12 242
q88 27 158 27zM467 1012l-105 -877q65 0 166 53l19 -94q-141 -114 -275 -114q-73 0 -112 32t-39 107q0 120 88 762l-143 12v96q181 59 354 68zM414 1516q45 0 82 -13q22 -42 22 -88q0 -76 -57 -168h-193l-12 242q88 27 158 27z" />
    <glyph glyph-name="Jcircumflex" unicode="&#x134;" horiz-adv-x="933" 
d="M948 1362v-100q-71 -30 -162 -45l-96 -992q-9 -89 -25 -157.5t-46.5 -130t-75 -100.5t-112 -62t-155.5 -23q-112 0 -206 34.5t-150 98.5l41 111q208 -74 397 -80q54 95 72 305l96 1020l-266 12v50l8 59h680zM948 1538l-160 -90l-167 192h-19l-184 -167h-121l315 352h146z
" />
    <glyph glyph-name="jcircumflex" unicode="&#x135;" horiz-adv-x="559" 
d="M469 1012l-119 -977q-29 -245 -117 -358t-239 -113q-146 0 -244 88l31 98q7 -2 35.5 -8.5t41.5 -9.5t40.5 -8t46 -7.5t44 -4t48.5 -1.5q45 89 65 275l109 895l-145 12v96q181 59 356 68zM608 1247l-162 -69l-106 194h-21l-131 -186h-112l256 389h145z" />
    <glyph glyph-name="Kcommaaccent" unicode="&#x136;" horiz-adv-x="1359" 
d="M1348 1362v-100q-54 -26 -140 -41q-170 -246 -362 -465q153 -402 291 -613l125 7l8 -107q-103 -63 -223 -63q-74 0 -122 33t-83 96q-104 177 -185 516h-161l-47 -506l145 -15v-47l-8 -57h-555v100q77 36 159 43l101 1100l-152 14v48l6 57h566v-100q-68 -32 -160 -43
l-45 -474l186 13q176 217 342 485l-149 14v48l6 57h457zM645 -102q68 0 117 -25q22 -28 22 -96q0 -107 -61 -182.5t-184 -100.5l-23 64q61 30 90 59t29 76v22l-86 9l14 165q40 9 82 9z" />
    <glyph glyph-name="kcommaaccent" unicode="&#x137;" horiz-adv-x="1177" 
d="M1094 188l20 -96q-126 -112 -270 -112q-47 0 -80.5 13t-56 42.5t-36.5 62t-30 84.5q-49 148 -57 269l102 30q65 66 104 153t39 165q0 54 -23.5 77t-80.5 23q-31 0 -51 -4q-161 -213 -346 -895q-73 -20 -183 -20l-49 45l150 1341l-119 33l10 96q152 40 320 47l49 -45
l-66 -520q-40 -293 -86 -506l23 -4q62 188 108 298.5t98.5 180.5t107 94.5t134.5 24.5q127 0 199 -59t72 -181q0 -129 -79.5 -228t-207.5 -153q71 -203 123 -307q68 5 162 51zM526 -102q68 0 117 -25q23 -29 23 -96q0 -107 -61.5 -182.5t-184.5 -100.5l-23 64q61 30 90 59
t29 76v22l-86 9l14 165q40 9 82 9z" />
    <glyph glyph-name="kgreenlandic" unicode="&#x138;" horiz-adv-x="1142" 
d="M922 137q65 5 159 51l21 -94q-130 -114 -262 -114q-80 0 -125 42.5t-80 131.5q-48 119 -96 319h-142l-59 -473q-73 -20 -182 -20l-47 45l100 856l-143 12v96q73 26 174.5 45.5t177.5 22.5l47 -45l-53 -420l145 4q97 213 214 338t239 125q76 0 110 -27l17 -166l-238 -45
q-86 -82 -182 -203q87 -280 205 -481z" />
    <glyph glyph-name="Lacute" unicode="&#x139;" horiz-adv-x="1081" 
d="M850 354l151 -12q5 -73 5 -88q0 -122 -50 -283l-51 -6l-592 35h-282v100q91 35 159 45l101 1098l-152 14v48l6 57h578v-100q-77 -33 -172 -43l-102 -1100h323zM612 1843h125q66 -40 90 -127l-321 -243h-125z" />
    <glyph glyph-name="lacute" unicode="&#x13a;" horiz-adv-x="585" 
d="M492 1837h124q67 -41 91 -127l-226 -176h-125zM444 1450l50 -45q-20 -172 -59 -468.5t-64 -500.5t-29 -301q39 0 93.5 14.5t94.5 34.5l21 -94q-62 -50 -140 -80t-149 -30q-158 0 -158 155q0 57 17.5 211t56.5 463t58 465l-119 33l10 96q152 41 317 47z" />
    <glyph glyph-name="Lcommaaccent" unicode="&#x13b;" horiz-adv-x="1081" 
d="M850 354l151 -12q5 -73 5 -88q0 -122 -50 -283l-51 -6l-592 35h-282v100q91 35 159 45l101 1098l-152 14v48l6 57h578v-100q-77 -33 -172 -43l-102 -1100h323zM465 -102q68 0 117 -25q22 -28 22 -96q0 -107 -61.5 -182.5t-184.5 -100.5l-22 64q61 30 90 59t29 76v22
l-86 9l14 165q40 9 82 9z" />
    <glyph glyph-name="lcommaaccent" unicode="&#x13c;" horiz-adv-x="585" 
d="M457 1542l49 -45q-20 -172 -62 -491.5t-70 -547t-32 -323.5q37 0 92 15t96 36l21 -94q-63 -50 -140.5 -81t-146.5 -31q-160 0 -160 155q0 57 20.5 235t62.5 507.5t61 488.5l-123 33l10 96q152 40 322 47zM221 -102q68 0 117 -25q22 -28 22 -96q0 -107 -61 -182.5
t-184 -100.5l-23 64q61 30 90 59t29 76v22l-86 9l14 165q41 9 82 9z" />
    <glyph glyph-name="Lcaron" unicode="&#x13d;" horiz-adv-x="1081" 
d="M850 354l151 -12q5 -73 5 -88q0 -122 -50 -283l-51 -6l-592 35h-282v100q91 35 159 45l101 1098l-152 14v48l6 57h578v-100q-77 -33 -172 -43l-102 -1100h323zM954 1380q78 0 140 -41q-12 -127 -55 -228t-134 -206h-92l64 260v203q30 12 77 12z" />
    <glyph glyph-name="lcaron" unicode="&#x13e;" horiz-adv-x="761" 
d="M459 1542l49 -45q-20 -172 -62 -491.5t-70 -547t-32 -323.5q37 0 92 15t96 36l21 -94q-63 -50 -140.5 -81t-146.5 -31q-160 0 -160 155q0 57 20.5 235t62.5 507.5t61 488.5l-123 33l10 96q152 40 322 47zM731 1550q77 0 139 -41q-12 -128 -55 -228.5t-133 -205.5h-92
l63 260v203q30 12 78 12z" />
    <glyph glyph-name="Ldot" unicode="&#x13f;" horiz-adv-x="1091" 
d="M973 915q55 0 88 -10q22 -42 22 -90q0 -86 -61 -168h-182l-9 244q60 24 142 24zM850 354l151 -12q5 -73 5 -88q0 -122 -50 -283l-51 -6l-592 35h-282v100q91 35 159 45l101 1098l-152 14v48l6 57h578v-100q-77 -33 -172 -43l-102 -1100h323z" />
    <glyph glyph-name="ldot" unicode="&#x140;" horiz-adv-x="671" 
d="M637 864q54 0 84 -12q20 -42 20 -86q0 -80 -55 -168h-170l-8 242q66 24 129 24zM459 1542l49 -45q-20 -172 -62 -491.5t-70 -547t-32 -323.5q37 0 92 15t96 36l21 -94q-63 -50 -140.5 -81t-146.5 -31q-160 0 -160 155q0 57 20.5 235t62.5 507.5t61 488.5l-123 33l10 96
q152 40 322 47z" />
    <glyph glyph-name="Lslash" unicode="&#x141;" horiz-adv-x="1105" 
d="M874 354l152 -12q4 -58 4 -88q0 -125 -49 -283l-51 -6l-592 35h-283v100q90 34 160 45l37 408l-135 -57l-35 26v103l184 75l49 543l-151 14v48l6 57h578v-100q-76 -32 -173 -43l-40 -420l342 145l34 -26v-101l-389 -166l-49 -532h324z" />
    <glyph glyph-name="lslash" unicode="&#x142;" horiz-adv-x="624" 
d="M629 821l-209 -153q-54 -430 -58 -533q39 0 93.5 15t95.5 36l20 -94q-63 -51 -140 -81.5t-146 -30.5q-160 0 -160 155q0 54 35 359l-111 -80l-35 26v103l166 119q13 108 43 347.5t45 356.5l-123 33l11 96q152 40 321 47l49 -45q-14 -125 -84 -661l152 112l35 -26v-101z
" />
    <glyph glyph-name="Nacute" unicode="&#x143;" horiz-adv-x="1445" 
d="M1460 1362v-100q-30 -15 -77 -27.5t-83 -15.5l-114 -1211q-98 -28 -205 -31l-45 11l-354 803q-101 241 -146 391h-24l-66 -1063l152 -15v-47l-9 -57h-458v100q77 34 157 45l103 1080l-152 18v49l6 58q246 12 478 12l288 -660q70 -159 158 -401h23l49 940l-162 16v48l6 57
h475zM981 1843h125q66 -40 90 -127l-322 -243h-124z" />
    <glyph glyph-name="nacute" unicode="&#x144;" horiz-adv-x="1202" 
d="M1139 188l18 -94q-64 -52 -140 -83t-145 -31q-149 0 -149 135q0 59 51 333t51 347q0 54 -21.5 79t-74.5 25q-27 0 -47 -4q-175 -232 -344 -895q-73 -20 -182 -20l-50 45l103 856l-143 12v96q170 58 352 68l47 -45l-100 -541l24 -4q59 184 102.5 291t94.5 180.5t106 100
t133 26.5q242 0 242 -242q0 -128 -102 -688q73 0 174 53zM877 1585h124q31 -21 56 -55.5t35 -73.5l-318 -291h-112z" />
    <glyph glyph-name="Ncommaaccent" unicode="&#x145;" horiz-adv-x="1445" 
d="M1460 1362v-100q-30 -15 -77 -27.5t-83 -15.5l-114 -1211q-98 -28 -205 -31l-45 11l-354 803q-101 241 -146 391h-24l-66 -1063l152 -15v-47l-9 -57h-458v100q77 34 157 45l103 1080l-152 18v49l6 58q246 12 478 12l288 -660q70 -159 158 -401h23l49 940l-162 16v48l6 57
h475zM641 -102q68 0 117 -25q22 -28 22 -96q0 -107 -61 -182.5t-184 -100.5l-23 64q61 30 90 59t29 76v22l-86 9l14 165q41 9 82 9z" />
    <glyph glyph-name="ncommaaccent" unicode="&#x146;" horiz-adv-x="1202" 
d="M1139 188l18 -94q-64 -52 -140 -83t-145 -31q-149 0 -149 135q0 59 51 333t51 347q0 54 -21.5 79t-74.5 25q-27 0 -47 -4q-175 -232 -344 -895q-73 -20 -182 -20l-50 45l103 856l-143 12v96q170 58 352 68l47 -45l-100 -541l24 -4q59 184 102.5 291t94.5 180.5t106 100
t133 26.5q242 0 242 -242q0 -128 -102 -688q73 0 174 53zM530 -102q68 0 117 -25q23 -29 23 -96q0 -107 -61.5 -182.5t-184.5 -100.5l-23 64q61 30 90 59t29 76v22l-86 9l15 165q41 9 81 9z" />
    <glyph glyph-name="Ncaron" unicode="&#x147;" horiz-adv-x="1445" 
d="M1460 1362v-100q-30 -15 -77 -27.5t-83 -15.5l-114 -1211q-98 -28 -205 -31l-45 11l-354 803q-101 241 -146 391h-24l-66 -1063l152 -15v-47l-9 -57h-458v100q77 34 157 45l103 1080l-152 18v49l6 58q246 12 478 12l288 -660q70 -159 158 -401h23l49 940l-162 16v48l6 57
h475zM860 1657h19l186 168h119l-314 -352h-147l-193 290l166 84z" />
    <glyph glyph-name="ncaron" unicode="&#x148;" horiz-adv-x="1202" 
d="M1139 188l18 -94q-64 -52 -140 -83t-145 -31q-149 0 -149 135q0 59 51 333t51 347q0 54 -21.5 79t-74.5 25q-27 0 -47 -4q-175 -232 -344 -895q-73 -20 -182 -20l-50 45l103 856l-143 12v96q170 58 352 68l47 -45l-100 -541l24 -4q59 184 102.5 291t94.5 180.5t106 100
t133 26.5q242 0 242 -242q0 -128 -102 -688q73 0 174 53zM762 1358h18l172 211h113l-295 -402h-147l-166 338l161 80z" />
    <glyph glyph-name="napostrophe" unicode="&#x149;" horiz-adv-x="1204" 
d="M1141 188l18 -94q-64 -52 -140 -83t-145 -31q-149 0 -149 135q0 59 51 333t51 347q0 54 -21.5 79t-74.5 25q-27 0 -47 -4q-175 -232 -344 -895q-73 -20 -182 -20l-49 45l102 856l-143 12v96q170 58 352 68l47 -45l-100 -541l24 -4q59 184 102.5 291t94.5 180.5t106 100
t133 26.5q242 0 242 -242q0 -128 -102 -688q73 0 174 53zM135 1542q70 0 117 -24q22 -28 22 -97q0 -107 -61 -182t-184 -100l-23 63q61 30 90 59t29 76v23l-86 8l14 166q36 8 82 8z" />
    <glyph glyph-name="Eng" unicode="&#x14a;" horiz-adv-x="1445" 
d="M1460 1362v-100q-31 -15 -78 -27.5t-84 -15.5l-94 -994q-9 -111 -30.5 -191.5t-63 -147t-112 -100.5t-169.5 -34q-91 0 -170.5 29.5t-126.5 81.5l41 110q174 -51 338 -57q21 24 39 70l-364 805q-92 197 -150 391h-24l-66 -1063l131 -15v-47l-8 -57h-438v100q77 34 157 45
l103 1080l-152 18v49l6 58q246 12 478 12l282 -647q74 -167 162 -406h23l49 932l-160 16v48l6 57h475z" />
    <glyph glyph-name="eng" unicode="&#x14b;" horiz-adv-x="1193" 
d="M827 1065q120 0 180 -61.5t60 -192.5q0 -65 -17.5 -212t-74.5 -564q-32 -248 -119 -359.5t-235 -111.5t-246 88l31 98q171 -39 253 -39q43 82 68 275q98 707 98 802q0 59 -20.5 85t-75.5 26q-27 0 -45 -2q-161 -217 -346 -897q-73 -20 -182 -20l-50 45l103 856l-143 12
v96q170 58 352 68l47 -45l-100 -541l24 -4q33 104 59.5 177.5t54 140.5t53.5 110t55 78t62 54t70.5 28.5t83.5 9.5z" />
    <glyph glyph-name="Omacron" unicode="&#x14c;" horiz-adv-x="1404" 
d="M805 1389q260 0 401.5 -158t141.5 -432q0 -98 -18.5 -195t-54.5 -190t-95 -172.5t-135.5 -140t-180.5 -94.5t-225 -34q-260 0 -401.5 158t-141.5 434q0 119 25 234t81 222.5t137 188.5t201 130t265 49zM782 1249q-81 0 -176 -39q-93 -72 -155 -267.5t-62 -418.5
q0 -94 13.5 -165.5t44 -128.5t86 -87t133.5 -30q84 0 176 39q93 72 155 267.5t62 418.5q0 94 -13.5 165.5t-44 128.5t-86 87t-133.5 30zM545 1720h563q6 -18 6 -49q0 -64 -22 -112h-564q-6 24 -6 47q0 61 23 114z" />
    <glyph glyph-name="omacron" unicode="&#x14d;" horiz-adv-x="1077" 
d="M610 1065q104 0 183 -32.5t127 -92t72 -138t24 -175.5q0 -84 -17 -170t-58 -174.5t-101.5 -156t-156.5 -110.5t-214 -43q-204 0 -305 119.5t-101 319.5q0 70 12.5 141.5t38 146.5t69.5 139.5t102.5 115.5t142 80.5t182.5 29.5zM586 944q-58 0 -107 -22
q-72 -72 -110.5 -245t-38.5 -333q0 -128 40 -189t126 -61q55 0 106 23q71 70 109.5 244t38.5 331q0 132 -39 192t-125 60zM375 1430h518q6 -18 6 -46q0 -57 -25 -114h-518q-6 18 -6 45q0 61 25 115z" />
    <glyph glyph-name="Obreve" unicode="&#x14e;" horiz-adv-x="1404" 
d="M805 1389q260 0 401.5 -158t141.5 -432q0 -98 -18.5 -195t-54.5 -190t-95 -172.5t-135.5 -140t-180.5 -94.5t-225 -34q-260 0 -401.5 158t-141.5 434q0 119 25 234t81 222.5t137 188.5t201 130t265 49zM782 1249q-81 0 -176 -39q-93 -72 -155 -267.5t-62 -418.5
q0 -94 13.5 -165.5t44 -128.5t86 -87t133.5 -30q84 0 176 39q93 72 155 267.5t62 418.5q0 94 -13.5 165.5t-44 128.5t-86 87t-133.5 30zM535 1763l165 37q6 -88 42 -130t108 -42q73 0 118 41.5t85 128.5l82 -18q-77 -307 -340 -307q-139 0 -203.5 80.5t-56.5 209.5z" />
    <glyph glyph-name="obreve" unicode="&#x14f;" horiz-adv-x="1077" 
d="M610 1065q104 0 183 -32.5t127 -92t72 -138t24 -175.5q0 -84 -17 -170t-58 -174.5t-101.5 -156t-156.5 -110.5t-214 -43q-204 0 -305 119.5t-101 319.5q0 70 12.5 141.5t38 146.5t69.5 139.5t102.5 115.5t142 80.5t182.5 29.5zM586 944q-58 0 -107 -22
q-72 -72 -110.5 -245t-38.5 -333q0 -128 40 -189t126 -61q55 0 106 23q71 70 109.5 244t38.5 331q0 132 -39 192t-125 60zM365 1511l165 37q2 -102 30.5 -151t101.5 -49q70 0 111.5 48.5t72.5 149.5l80 -22q-66 -328 -324 -328q-60 0 -106.5 18.5t-73 50t-43 72t-17.5 85
t3 89.5z" />
    <glyph glyph-name="Ohungarumlaut" unicode="&#x150;" horiz-adv-x="1404" 
d="M805 1389q260 0 401.5 -158t141.5 -432q0 -98 -18.5 -195t-54.5 -190t-95 -172.5t-135.5 -140t-180.5 -94.5t-225 -34q-260 0 -401.5 158t-141.5 434q0 119 25 234t81 222.5t137 188.5t201 130t265 49zM782 1249q-81 0 -176 -39q-93 -72 -155 -267.5t-62 -418.5
q0 -94 13.5 -165.5t44 -128.5t86 -87t133.5 -30q84 0 176 39q93 72 155 267.5t62 418.5q0 94 -13.5 165.5t-44 128.5t-86 87t-133.5 30zM651 1821h115q63 -27 92 -111l-196 -237h-119zM1006 1821h114q63 -27 92 -111l-196 -237h-119z" />
    <glyph glyph-name="ohungarumlaut" unicode="&#x151;" horiz-adv-x="1077" 
d="M610 1065q104 0 183 -32.5t127 -92t72 -138t24 -175.5q0 -84 -17 -170t-58 -174.5t-101.5 -156t-156.5 -110.5t-214 -43q-204 0 -305 119.5t-101 319.5q0 70 12.5 141.5t38 146.5t69.5 139.5t102.5 115.5t142 80.5t182.5 29.5zM586 944q-58 0 -107 -22
q-72 -72 -110.5 -245t-38.5 -333q0 -128 40 -189t126 -61q55 0 106 23q71 70 109.5 244t38.5 331q0 132 -39 192t-125 60zM500 1593h114q63 -28 103 -112l-246 -307h-102zM844 1593h114q63 -28 103 -112l-244 -307h-104z" />
    <glyph glyph-name="OE" unicode="&#x152;" horiz-adv-x="1871" 
d="M1239 1239l-43 -483l340 16l18 -45l-14 -113l-356 19l-45 -514h374l78 235l152 -12q4 -58 4 -88q0 -125 -49 -283l-53 -6l-641 35h-95q-150 -27 -264 -27q-263 0 -405 154t-142 430q0 120 24 234.5t78.5 224t134.5 191.5t201.5 132t270.5 50q113 0 231 -27h615
q97 29 143 29l51 -29q4 -32 4 -68q0 -133 -39 -286h-147l-18 215zM883 158l96 1040q-79 51 -188 51q-88 0 -183 -39q-93 -73 -155 -267.5t-62 -420.5q0 -95 13.5 -166t45 -127.5t88.5 -86t138 -29.5q126 0 207 45z" />
    <glyph glyph-name="oe" unicode="&#x153;" horiz-adv-x="1634" 
d="M1178 150q70 0 156.5 37t168.5 104l27 -98q-86 -100 -199.5 -160t-236.5 -60q-204 0 -267 189h-22q-63 -93 -145 -141t-203 -48q-194 0 -294 120.5t-100 320.5q0 85 17 171t57 173.5t99 154.5t151.5 109.5t206.5 42.5q118 0 187 -47t116 -146h23q67 97 152 145t206 48
q157 0 235 -72.5t78 -193.5q0 -81 -35.5 -144.5t-93.5 -102.5t-138.5 -63.5t-163.5 -33.5t-175 -6v-27q0 -272 193 -272zM602 117q71 70 109.5 244t38.5 331q0 132 -39 192t-125 60q-58 0 -107 -22q-72 -72 -110.5 -245t-38.5 -333q0 -128 40 -189t126 -61q55 0 106 23z
M1233 944q-54 0 -103 -22q-55 -55 -90 -163.5t-49 -228.5q179 20 262.5 89t83.5 196q0 66 -23.5 97.5t-80.5 31.5z" />
    <glyph glyph-name="Racute" unicode="&#x154;" horiz-adv-x="1286" 
d="M1235 150l6 -107q-103 -63 -223 -63q-79 0 -124 33t-81 96q-89 149 -168 450h-164l-39 -440l154 -15v-47l-8 -57h-557v100q66 31 159 43l99 1084l-150 18v49l6 58q254 26 488 26q279 -1 404.5 -89t125.5 -267q0 -286 -291 -416q128 -303 236 -463zM494 692h241
q144 121 144 328q0 117 -56.5 170t-181.5 53h-98zM817 1843h125q66 -40 90 -127l-321 -243h-125z" />
    <glyph glyph-name="racute" unicode="&#x155;" horiz-adv-x="829" 
d="M827 813l-188 12q-73 -124 -141 -315.5t-156 -509.5q-73 -20 -186 -20l-50 45l103 856l-143 12v96q171 59 344 68l47 -45l-103 -559l23 -7q36 119 61 195t54.5 153.5t55 122t56 81.5t64.5 52t75 15q74 0 115 -64zM700 1585h125q68 -45 90 -129l-317 -291h-113z" />
    <glyph glyph-name="Rcommaaccent" unicode="&#x156;" horiz-adv-x="1286" 
d="M1235 150l6 -107q-103 -63 -223 -63q-79 0 -124 33t-81 96q-89 149 -168 450h-164l-39 -440l154 -15v-47l-8 -57h-557v100q66 31 159 43l99 1084l-150 18v49l6 58q254 26 488 26q279 -1 404.5 -89t125.5 -267q0 -286 -291 -416q128 -303 236 -463zM494 692h241
q144 121 144 328q0 117 -56.5 170t-181.5 53h-98zM637 -102q68 0 117 -25q22 -28 22 -96q0 -107 -61.5 -182.5t-184.5 -100.5l-22 64q61 30 90 59t29 76v22l-86 9l14 165q41 9 82 9z" />
    <glyph glyph-name="rcommaaccent" unicode="&#x157;" horiz-adv-x="829" 
d="M827 813l-188 12q-73 -124 -141 -315.5t-156 -509.5q-73 -20 -186 -20l-50 45l103 856l-143 12v96q171 59 344 68l47 -45l-103 -559l23 -7q36 119 61 195t54.5 153.5t55 122t56 81.5t64.5 52t75 15q74 0 115 -64zM223 -102q68 0 117 -25q22 -28 22 -96q0 -107 -61 -182.5
t-184 -100.5l-23 64q61 30 90 59t29 76v22l-86 9l14 165q41 9 82 9z" />
    <glyph glyph-name="Rcaron" unicode="&#x158;" horiz-adv-x="1286" 
d="M1235 150l6 -107q-103 -63 -223 -63q-79 0 -124 33t-81 96q-89 149 -168 450h-164l-39 -440l154 -15v-47l-8 -57h-557v100q66 31 159 43l99 1084l-150 18v49l6 58q254 26 488 26q279 -1 404.5 -89t125.5 -267q0 -286 -291 -416q128 -303 236 -463zM494 692h241
q144 121 144 328q0 117 -56.5 170t-181.5 53h-98zM741 1657h19l186 168h119l-313 -352h-148l-192 290l166 84z" />
    <glyph glyph-name="rcaron" unicode="&#x159;" horiz-adv-x="829" 
d="M827 813l-188 12q-73 -124 -141 -315.5t-156 -509.5q-73 -20 -186 -20l-50 45l103 856l-143 12v96q171 59 344 68l47 -45l-103 -559l23 -7q36 119 61 195t54.5 153.5t55 122t56 81.5t64.5 52t75 15q74 0 115 -64zM586 1358h18l172 211h113l-295 -402h-148l-165 338
l161 80z" />
    <glyph glyph-name="Sacute" unicode="&#x15a;" horiz-adv-x="1071" 
d="M621 815l71 -45q63 -40 107.5 -77.5t86 -87.5t62.5 -112.5t21 -136.5q0 -60 -14 -113t-50 -103.5t-90.5 -86.5t-141.5 -58t-198 -22q-221 0 -393 80q-14 77 -14 158q0 79 14 186l162 11l57 -275q80 -24 168 -24q114 0 170 34q55 55 55 154q0 45 -11.5 80.5t-39 65.5
t-54 51t-75.5 53l-72 45q-138 89 -206 187t-68 222q0 168 114.5 278t303.5 110q120 0 213 -56l4 35q102 23 145 23l53 -39q5 -35 5 -58q0 -133 -41 -290h-152l-20 225q-82 24 -166 24q-79 0 -135 -24q-70 -56 -70 -154q0 -44 13.5 -80t44 -68t60.5 -55t81 -57zM803 1843h125
q66 -40 90 -127l-322 -243h-125z" />
    <glyph glyph-name="sacute" unicode="&#x15b;" horiz-adv-x="833" 
d="M524 594q59 -48 90.5 -77.5t65.5 -70.5t48.5 -82.5t14.5 -91.5q0 -137 -106 -218t-281 -81q-133 0 -220.5 47t-110.5 140l110 127l268 -191q41 6 76 21q29 42 29 96q-1 59 -34.5 98.5t-135.5 122.5q-65 55 -95 83.5t-65.5 71t-49 83t-13.5 90.5q0 142 112 222.5t285 80.5
q120 0 201 -40t102 -120l-98 -123l-256 162q-50 -6 -82 -20q-37 -46 -37 -107q0 -53 32.5 -91t130.5 -117q12 -10 19 -15zM649 1593h125q68 -45 90 -129l-317 -290h-113z" />
    <glyph glyph-name="Scircumflex" unicode="&#x15c;" horiz-adv-x="1071" 
d="M621 815l71 -45q63 -40 107.5 -77.5t86 -87.5t62.5 -112.5t21 -136.5q0 -60 -14 -113t-50 -103.5t-90.5 -86.5t-141.5 -58t-198 -22q-221 0 -393 80q-14 77 -14 158q0 79 14 186l162 11l57 -275q80 -24 168 -24q114 0 170 34q55 55 55 154q0 45 -11.5 80.5t-39 65.5
t-54 51t-75.5 53l-72 45q-138 89 -206 187t-68 222q0 168 114.5 278t303.5 110q120 0 213 -56l4 35q102 23 145 23l53 -39q5 -35 5 -58q0 -133 -41 -290h-152l-20 225q-82 24 -166 24q-79 0 -135 -24q-70 -56 -70 -154q0 -44 13.5 -80t44 -68t60.5 -55t81 -57zM969 1538
l-160 -90l-168 192h-18l-185 -167h-121l316 352h145z" />
    <glyph glyph-name="scircumflex" unicode="&#x15d;" horiz-adv-x="833" 
d="M524 594q59 -48 90.5 -77.5t65.5 -70.5t48.5 -82.5t14.5 -91.5q0 -137 -106 -218t-281 -81q-133 0 -220.5 47t-110.5 140l110 127l268 -191q41 6 76 21q29 42 29 96q-1 59 -34.5 98.5t-135.5 122.5q-65 55 -95 83.5t-65.5 71t-49 83t-13.5 90.5q0 142 112 222.5t285 80.5
q120 0 201 -40t102 -120l-98 -123l-256 162q-50 -6 -82 -20q-37 -46 -37 -107q0 -53 32.5 -91t130.5 -117q12 -10 19 -15zM803 1237l-162 -78l-143 227h-19l-172 -210h-112l294 399h146z" />
    <glyph glyph-name="Scedilla" unicode="&#x15e;" horiz-adv-x="1071" 
d="M621 815l71 -45q63 -40 107.5 -77.5t86 -87.5t62.5 -112.5t21 -136.5q0 -71 -21 -132t-67 -115t-130.5 -89.5t-201.5 -44.5l-10 -102q155 -4 155 -123q0 -80 -62.5 -133t-176.5 -53q-130 0 -197 61l25 84q93 -26 125 -26q44 0 70 21t26 56q0 27 -22 39.5t-91 24.5l41 151
q-207 8 -350 78q-14 77 -14 158q0 79 14 186l162 11l57 -275q80 -24 168 -24q114 0 170 34q55 55 55 154q0 45 -11.5 80.5t-39 65.5t-54 51t-75.5 53l-72 45q-138 89 -206 187t-68 222q0 168 114.5 278t303.5 110q120 0 213 -56l4 35q102 23 145 23l53 -39q5 -35 5 -58
q0 -133 -41 -290h-152l-20 225q-82 24 -166 24q-79 0 -135 -24q-70 -56 -70 -154q0 -44 13.5 -80t44 -68t60.5 -55t81 -57z" />
    <glyph glyph-name="scedilla" unicode="&#x15f;" horiz-adv-x="833" 
d="M524 594q59 -48 90.5 -77.5t65.5 -70.5t48.5 -82.5t14.5 -91.5q0 -126 -90.5 -205.5t-242.5 -91.5l-11 -102q156 -4 156 -123q0 -80 -63 -133t-177 -53q-129 0 -196 61l24 84q93 -26 125 -26q44 0 70.5 21t26.5 56q0 27 -22 39.5t-91 24.5l43 153q-231 20 -270 183
l110 127l268 -191q41 6 76 21q29 42 29 96q-1 59 -34.5 98.5t-135.5 122.5q-65 55 -95 83.5t-65.5 71t-49 83t-13.5 90.5q0 142 112 222.5t285 80.5q120 0 201 -40t102 -120l-98 -123l-256 162q-50 -6 -82 -20q-37 -46 -37 -107q0 -53 32.5 -91t130.5 -117q12 -10 19 -15z
" />
    <glyph glyph-name="Scaron" unicode="&#x160;" horiz-adv-x="1071" 
d="M621 815l71 -45q63 -40 107.5 -77.5t86 -87.5t62.5 -112.5t21 -136.5q0 -60 -14 -113t-50 -103.5t-90.5 -86.5t-141.5 -58t-198 -22q-221 0 -393 80q-14 77 -14 158q0 79 14 186l162 11l57 -275q80 -24 168 -24q114 0 170 34q55 55 55 154q0 45 -11.5 80.5t-39 65.5
t-54 51t-75.5 53l-72 45q-138 89 -206 187t-68 222q0 168 114.5 278t303.5 110q120 0 213 -56l4 35q102 23 145 23l53 -39q5 -35 5 -58q0 -133 -41 -290h-152l-20 225q-82 24 -166 24q-79 0 -135 -24q-70 -56 -70 -154q0 -44 13.5 -80t44 -68t60.5 -55t81 -57zM682 1657h18
l187 168h119l-314 -352h-147l-193 290l166 84z" />
    <glyph glyph-name="scaron" unicode="&#x161;" horiz-adv-x="833" 
d="M524 594q59 -48 90.5 -77.5t65.5 -70.5t48.5 -82.5t14.5 -91.5q0 -137 -106 -218t-281 -81q-133 0 -220.5 47t-110.5 140l110 127l268 -191q41 6 76 21q29 42 29 96q-1 59 -34.5 98.5t-135.5 122.5q-65 55 -95 83.5t-65.5 71t-49 83t-13.5 90.5q0 142 112 222.5t285 80.5
q120 0 201 -40t102 -120l-98 -123l-256 162q-50 -6 -82 -20q-37 -46 -37 -107q0 -53 32.5 -91t130.5 -117q12 -10 19 -15zM535 1366h18l172 211h113l-295 -401h-148l-166 337l162 80z" />
    <glyph glyph-name="Tcommaaccent" unicode="&#x162;" horiz-adv-x="1173" 
d="M1157 1391l51 -29q4 -32 4 -68q0 -137 -38 -286h-148l-18 217l-209 12l-103 -1118l166 -15v-47l-6 -57h-246l-12 -127q156 -4 156 -123q0 -80 -63 -133t-177 -53q-130 0 -197 61l25 84q93 -26 125 -26q44 0 70 21t26 56q0 27 -22 39.5t-90 24.5l49 176h-246v100
q77 32 182 43l105 1100h-201l-78 -239l-141 10q-4 58 -4 90q0 141 49 287l53 6l461 -35h334q97 29 143 29z" />
    <glyph glyph-name="tcommaaccent" unicode="&#x163;" horiz-adv-x="718" 
d="M721 1016v-58l-16 -69h-250q-79 -592 -86 -762q124 0 268 55l18 -94q-59 -43 -142.5 -73t-160.5 -38l-10 -104q158 -4 158 -123q0 -80 -64 -133t-178 -53q-128 0 -195 61l25 84q93 -26 125 -26q44 0 69 21t25 56q0 28 -21 40t-89 24h-2l43 158q-109 25 -109 168
q0 77 26 292t62 430l-121 21v96q75 26 150 37q21 123 51 221q105 36 170 41l35 -35l-31 -237h250z" />
    <glyph glyph-name="Tcaron" unicode="&#x164;" horiz-adv-x="1173" 
d="M1157 1391l51 -29q4 -32 4 -68q0 -137 -38 -286h-148l-18 217l-209 12l-103 -1118l166 -15v-47l-6 -57h-602v100q77 32 182 43l105 1100h-201l-78 -239l-141 10q-4 58 -4 90q0 141 49 287l53 6l461 -35h334q97 29 143 29zM735 1657h19l186 168h119l-314 -352h-147
l-192 290l165 84z" />
    <glyph glyph-name="tcaron" unicode="&#x165;" horiz-adv-x="765" 
d="M721 1016v-58l-16 -69h-250q-79 -592 -86 -762q124 0 268 55l18 -94q-68 -50 -168.5 -82.5t-181.5 -32.5q-87 0 -131.5 41.5t-44.5 135.5q0 77 26 292t62 430l-121 21v96q75 26 150 37q21 123 51 221q105 36 170 41l35 -35l-31 -237h250zM735 1542q68 0 139 -39
q-11 -115 -49.5 -201.5t-122.5 -179.5h-94l49 199v211q33 10 78 10z" />
    <glyph glyph-name="Tbar" unicode="&#x166;" horiz-adv-x="1173" 
d="M1157 1391l51 -29q4 -32 4 -68q0 -137 -38 -286h-148l-18 217l-209 12l-54 -571h246v-48l-12 -83h-246l-37 -416l166 -15v-47l-6 -57h-602v100q77 32 182 43l37 392h-235v45l12 86h235l56 577h-201l-78 -239l-141 10q-4 58 -4 90q0 141 49 287l53 6l461 -35h334
q97 29 143 29z" />
    <glyph glyph-name="tbar" unicode="&#x167;" horiz-adv-x="731" 
d="M727 1016v-58l-16 -69h-250l-25 -189h256v-55l-16 -72h-256q-40 -329 -45 -446q124 0 268 55l19 -94q-68 -50 -169 -82.5t-182 -32.5q-87 0 -131.5 41.5t-44.5 135.5q0 122 43 421l-110 4v105q71 15 129 20l26 172l-121 21v96q75 26 150 37q21 123 51 221q105 36 170 41
l35 -35l-31 -237h250z" />
    <glyph glyph-name="Utilde" unicode="&#x168;" horiz-adv-x="1355" 
d="M1401 1362v-100q-58 -31 -166 -45q-36 -543 -66 -760q-68 -484 -524 -484q-226 0 -339 112.5t-113 332.5q0 156 71 825l-151 14v48l6 57h559v-100q-61 -28 -154 -43q-73 -678 -73 -826q0 -151 57.5 -219t189.5 -68q112 0 199 46q93 96 117 317q33 279 65 772l-145 16v48
l6 57h461zM1100 1778l59 -54q-75 -217 -223 -217q-54 0 -119 35l-155 78l-105 -109l-59 54q31 95 86 155t137 60q51 0 115 -31l157 -82z" />
    <glyph glyph-name="utilde" unicode="&#x169;" horiz-adv-x="1206" 
d="M1155 188l19 -94q-65 -51 -145.5 -82.5t-147.5 -31.5q-133 0 -133 114q0 30 8.5 82.5t32 174.5t40.5 216l-22 4q-40 -122 -70.5 -205.5t-63.5 -154.5t-63.5 -113t-67.5 -72t-78 -41.5t-93 -11.5q-242 0 -242 242q0 27 2.5 62t9.5 86.5t12 87.5t17 107.5t17 102
t19.5 115.5t18.5 105l-143 12v96q196 62 354 68l47 -43q-5 -39 -34.5 -213t-53.5 -335t-24 -222q0 -55 21.5 -80t72.5 -25q27 0 45 2q160 211 348 897q76 21 180 21l52 -45l-107 -879q75 0 172 53zM932 1499l57 -53q-89 -223 -221 -223q-50 0 -113 37l-125 73l-104 -108
l-57 53q86 221 221 221q54 0 112 -37l123 -73z" />
    <glyph glyph-name="Umacron" unicode="&#x16a;" horiz-adv-x="1355" 
d="M1401 1362v-100q-58 -31 -166 -45q-36 -543 -66 -760q-68 -484 -524 -484q-226 0 -339 112.5t-113 332.5q0 156 71 825l-151 14v48l6 57h559v-100q-61 -28 -154 -43q-73 -678 -73 -826q0 -151 57.5 -219t189.5 -68q112 0 199 46q93 96 117 317q33 279 65 772l-145 16v48
l6 57h461zM553 1720h563q6 -18 6 -49q0 -64 -22 -112h-563q-7 28 -7 47q0 61 23 114z" />
    <glyph glyph-name="umacron" unicode="&#x16b;" horiz-adv-x="1206" 
d="M1155 188l19 -94q-65 -51 -145.5 -82.5t-147.5 -31.5q-133 0 -133 114q0 30 8.5 82.5t32 174.5t40.5 216l-22 4q-40 -122 -70.5 -205.5t-63.5 -154.5t-63.5 -113t-67.5 -72t-78 -41.5t-93 -11.5q-242 0 -242 242q0 27 2.5 62t9.5 86.5t12 87.5t17 107.5t17 102
t19.5 115.5t18.5 105l-143 12v96q196 62 354 68l47 -43q-5 -39 -34.5 -213t-53.5 -335t-24 -222q0 -55 21.5 -80t72.5 -25q27 0 45 2q160 211 348 897q76 21 180 21l52 -45l-107 -879q75 0 172 53zM428 1430h518q6 -18 6 -46q0 -59 -24 -114h-518q-7 21 -7 45q0 61 25 115z
" />
    <glyph glyph-name="Ubreve" unicode="&#x16c;" horiz-adv-x="1355" 
d="M1401 1362v-100q-58 -31 -166 -45q-36 -543 -66 -760q-68 -484 -524 -484q-226 0 -339 112.5t-113 332.5q0 156 71 825l-151 14v48l6 57h559v-100q-61 -28 -154 -43q-73 -678 -73 -826q0 -151 57.5 -219t189.5 -68q112 0 199 46q93 96 117 317q33 279 65 772l-145 16v48
l6 57h461zM543 1763l166 37q6 -88 41.5 -130t107.5 -42q73 0 118 41.5t85 128.5l82 -18q-77 -307 -340 -307q-139 0 -203.5 80.5t-56.5 209.5z" />
    <glyph glyph-name="ubreve" unicode="&#x16d;" horiz-adv-x="1206" 
d="M1155 188l19 -94q-65 -51 -145.5 -82.5t-147.5 -31.5q-133 0 -133 114q0 30 8.5 82.5t32 174.5t40.5 216l-22 4q-40 -122 -70.5 -205.5t-63.5 -154.5t-63.5 -113t-67.5 -72t-78 -41.5t-93 -11.5q-242 0 -242 242q0 27 2.5 62t9.5 86.5t12 87.5t17 107.5t17 102
t19.5 115.5t18.5 105l-143 12v96q196 62 354 68l47 -43q-5 -39 -34.5 -213t-53.5 -335t-24 -222q0 -55 21.5 -80t72.5 -25q27 0 45 2q160 211 348 897q76 21 180 21l52 -45l-107 -879q75 0 172 53zM418 1511l166 37q2 -102 30 -151t101 -49q70 0 111.5 48.5t72.5 149.5
l80 -22q-66 -328 -324 -328q-60 0 -106.5 18.5t-73 50t-43 72t-17.5 85t3 89.5z" />
    <glyph glyph-name="Uring" unicode="&#x16e;" horiz-adv-x="1355" 
d="M1401 1362v-100q-58 -31 -166 -45q-36 -543 -66 -760q-68 -484 -524 -484q-226 0 -339 112.5t-113 332.5q0 156 71 825l-151 14v48l6 57h559v-100q-61 -28 -154 -43q-73 -678 -73 -826q0 -151 57.5 -219t189.5 -68q112 0 199 46q93 96 117 317q33 279 65 772l-145 16v48
l6 57h461zM860 1855q203 0 203 -169q0 -99 -69 -159.5t-191 -60.5q-99 0 -152 43.5t-53 126.5q0 99 70 159t192 60zM846 1759q-32 0 -53 -12q-33 -48 -33 -107q0 -77 59 -77q27 0 51 14q35 47 35 109q0 40 -14.5 56.5t-44.5 16.5z" />
    <glyph glyph-name="uring" unicode="&#x16f;" horiz-adv-x="1206" 
d="M1155 188l19 -94q-65 -51 -145.5 -82.5t-147.5 -31.5q-133 0 -133 114q0 30 8.5 82.5t32 174.5t40.5 216l-22 4q-40 -122 -70.5 -205.5t-63.5 -154.5t-63.5 -113t-67.5 -72t-78 -41.5t-93 -11.5q-242 0 -242 242q0 27 2.5 62t9.5 86.5t12 87.5t17 107.5t17 102
t19.5 115.5t18.5 105l-143 12v96q196 62 354 68l47 -43q-5 -39 -34.5 -213t-53.5 -335t-24 -222q0 -55 21.5 -80t72.5 -25q27 0 45 2q160 211 348 897q76 21 180 21l52 -45l-107 -879q75 0 172 53zM709 1606q102 0 154 -48t52 -137q0 -104 -68 -168.5t-190 -64.5
q-102 0 -155 47.5t-53 136.5q0 105 69.5 169.5t190.5 64.5zM698 1509q-29 0 -49 -10q-39 -45 -39 -131q0 -84 60 -84q31 0 49 12q41 52 41 131q0 82 -62 82z" />
    <glyph glyph-name="Uhungarumlaut" unicode="&#x170;" horiz-adv-x="1355" 
d="M1401 1362v-100q-58 -31 -166 -45q-36 -543 -66 -760q-68 -484 -524 -484q-226 0 -339 112.5t-113 332.5q0 156 71 825l-151 14v48l6 57h559v-100q-61 -28 -154 -43q-73 -678 -73 -826q0 -151 57.5 -219t189.5 -68q112 0 199 46q93 96 117 317q33 279 65 772l-145 16v48
l6 57h461zM659 1821h115q63 -27 92 -111l-196 -237h-119zM1014 1821h114q64 -28 93 -111l-197 -237h-119z" />
    <glyph glyph-name="uhungarumlaut" unicode="&#x171;" horiz-adv-x="1206" 
d="M1155 188l19 -94q-65 -51 -145.5 -82.5t-147.5 -31.5q-133 0 -133 114q0 30 8.5 82.5t32 174.5t40.5 216l-22 4q-40 -122 -70.5 -205.5t-63.5 -154.5t-63.5 -113t-67.5 -72t-78 -41.5t-93 -11.5q-242 0 -242 242q0 27 2.5 62t9.5 86.5t12 87.5t17 107.5t17 102
t19.5 115.5t18.5 105l-143 12v96q196 62 354 68l47 -43q-5 -39 -34.5 -213t-53.5 -335t-24 -222q0 -55 21.5 -80t72.5 -25q27 0 45 2q160 211 348 897q76 21 180 21l52 -45l-107 -879q75 0 172 53zM553 1593h115q62 -28 102 -112l-246 -307h-102zM897 1593h115
q62 -28 102 -112l-244 -307h-104z" />
    <glyph glyph-name="Uogonek" unicode="&#x172;" horiz-adv-x="1355" 
d="M1401 1362v-100q-62 -32 -166 -45q-42 -610 -66 -760q-21 -144 -66.5 -230.5t-137.5 -167.5q-7 -7 -30 -27t-33 -29t-29.5 -28.5t-29.5 -32t-24 -33t-20.5 -37t-11.5 -38t-5 -43.5q0 -100 99 -100q39 0 98 18l6 -88q-79 -57 -205 -57q-107 0 -158 43.5t-51 118.5
q0 149 191 254l-4 20q-70 -23 -142 -23q-190 0 -306.5 115t-116.5 332q0 150 71 819l-151 14v48l6 57h559v-100q-61 -28 -154 -43q-73 -678 -73 -826q0 -151 57.5 -219t189.5 -68q112 0 199 46q90 93 117 317q28 203 65 772l-145 16v48l6 57h461z" />
    <glyph glyph-name="uogonek" unicode="&#x173;" horiz-adv-x="1206" 
d="M1001 -309q43 0 99 18l6 -88q-79 -57 -205 -57q-108 0 -158.5 44t-50.5 116q0 77 58.5 138t152.5 101l-4 23q-12 -2 -31 -2q-120 7 -120 110q0 30 8.5 82.5t32 174.5t40.5 216l-22 4q-40 -122 -70.5 -205.5t-63.5 -154.5t-63.5 -113t-67.5 -72t-78 -41.5t-93 -11.5
q-242 0 -242 242q0 27 2.5 62t9.5 86.5t12 87.5t17 107.5t17 102t19.5 115.5t18.5 105l-143 12v96q196 62 354 68l47 -43q-5 -39 -34.5 -213t-53.5 -335t-24 -222q0 -55 21.5 -80t72.5 -25q27 0 45 2q160 211 348 897q76 21 180 21l52 -45l-107 -879q75 0 172 53l19 -94
q-61 -40 -102.5 -72t-83.5 -72t-63.5 -81t-21.5 -82q0 -96 98 -96z" />
    <glyph glyph-name="Wcircumflex" unicode="&#x174;" horiz-adv-x="2007" 
d="M2056 1362v-100q-52 -25 -119 -39q-85 -266 -221 -615.5t-246 -599.5q-84 -25 -198 -28l-60 40q-85 427 -143 814h-22q-105 -342 -318 -826q-84 -25 -199 -28l-61 40q-64 291 -236 1225l-124 12v48l6 57h536v-100q-59 -32 -139 -43q108 -706 158 -1002h22
q59 139 151 391.5t163 472.5l-31 166l-94 10v48l6 57h510v-100q-66 -36 -144 -43q126 -800 160 -1002h23q82 205 184 501t160 523l-154 16v48l6 57h424zM1466 1538l-159 -90l-168 192h-19l-184 -167h-121l315 352h146z" />
    <glyph glyph-name="wcircumflex" unicode="&#x175;" horiz-adv-x="1662" 
d="M1309 977l155 88q73 -22 111.5 -92.5t38.5 -155.5q0 -71 -28 -162t-75 -184.5t-114 -183t-140.5 -159.5t-158.5 -112.5t-164 -42.5q-84 0 -134 48t-50 139q0 75 38 207l-22 6q-87 -205 -186.5 -302.5t-223.5 -97.5q-103 0 -165 60t-62 182q0 141 96 666l-143 12v96
q187 59 352 68l47 -45q-3 -18 -19.5 -116t-28.5 -175t-27 -176t-23 -175t-8 -116q0 -59 22.5 -87t81.5 -28l31 2q157 179 268 521q25 214 60 374q76 21 188 21l49 -45q0 -137 -67 -344q-31 -345 -31 -412q0 -62 20 -89.5t76 -27.5q21 0 35 2q106 97 194 244t146 326z
M1249 1237l-162 -78l-143 227h-18l-172 -210h-113l295 399h145z" />
    <glyph glyph-name="Ycircumflex" unicode="&#x176;" horiz-adv-x="1273" 
d="M1186 1219q-138 -297 -414 -738l-33 -362l162 -15v-47l-6 -57h-596v100q71 30 180 43l31 332q-155 447 -291 768l-129 14v48l6 57h555v-100q-61 -30 -153 -41q134 -364 207 -596h22q199 330 311 616l-141 16v48l6 57h428v-100q-75 -37 -145 -43zM1065 1538l-160 -90
l-168 192h-18l-184 -167h-121l315 352h145z" />
    <glyph glyph-name="ycircumflex" unicode="&#x177;" horiz-adv-x="1067" 
d="M707 979l155 86q70 -21 112 -87t42 -165q0 -165 -112.5 -412t-297.5 -477q-291 -360 -506 -360q-60 0 -120.5 25t-104.5 73l31 100q3 -1 23.5 -6t26.5 -6.5t26.5 -6.5t29 -7t28 -6t31.5 -6t30.5 -5t33 -4t32 -2.5t34.5 -1.5q92 59 174 144q-122 644 -215 1026l-144 12v96
q187 63 324 68l49 -45q139 -622 168 -932h25q81 117 158.5 292t109.5 337zM930 1237l-162 -78l-143 227h-19l-172 -210h-112l294 399h146z" />
    <glyph glyph-name="Ydieresis" unicode="&#x178;" horiz-adv-x="1273" 
d="M1186 1219q-138 -297 -414 -738l-33 -362l162 -15v-47l-6 -57h-596v100q71 30 180 43l31 332q-155 447 -291 768l-129 14v48l6 57h555v-100q-61 -30 -153 -41q134 -364 207 -596h22q199 330 311 616l-141 16v48l6 57h428v-100q-75 -37 -145 -43zM545 1763q52 0 76 -12
q20 -33 20 -82q0 -76 -49 -153h-170l-16 221q72 26 139 26zM1016 1763q50 0 74 -12q20 -29 20 -80q0 -81 -47 -155h-172l-14 221q69 26 139 26z" />
    <glyph glyph-name="Zacute" unicode="&#x179;" horiz-adv-x="1142" 
d="M907 354l152 -12q4 -58 4 -88q0 -125 -49 -283l-53 -6l-693 35l-209 -2l-16 82q284 433 442.5 670t213.5 314.5t122 164.5l-6 16l-473 -20l-39 -217h-149q-17 126 -17 206q0 75 15 148l53 29q42 0 139 -29h778l17 -80q-381 -587 -527 -803t-247 -346l8 -16l456 2z
M834 1843h124q67 -41 91 -127l-322 -243h-125z" />
    <glyph glyph-name="zacute" unicode="&#x17a;" horiz-adv-x="897" 
d="M694 354l123 -14q6 -77 6 -160q0 -113 -42 -170t-132 -57q-84 0 -213.5 36.5t-249.5 92.5l-90 -117q-43 7 -106 39l-17 31l598 776l-309 16l-35 -135h-131q-13 75 -1.5 185.5t44.5 181.5q305 0 547 -96l76 98q43 -7 106 -39l17 -29l-586 -764q192 -40 340 -43zM674 1593
h125q68 -45 90 -129l-318 -290h-112z" />
    <glyph glyph-name="Zdotaccent" unicode="&#x17b;" horiz-adv-x="1142" 
d="M907 354l152 -12q4 -58 4 -88q0 -125 -49 -283l-53 -6l-693 35l-209 -2l-16 82q284 433 442.5 670t213.5 314.5t122 164.5l-6 16l-473 -20l-39 -217h-149q-17 126 -17 206q0 75 15 148l53 29q42 0 139 -29h778l17 -80q-381 -587 -527 -803t-247 -346l8 -16l456 2z
M717 1772q49 0 86 -13q22 -49 22 -92q0 -72 -57 -166h-195l-12 242q71 29 156 29z" />
    <glyph glyph-name="zdotaccent" unicode="&#x17c;" horiz-adv-x="897" 
d="M694 354l123 -14q6 -77 6 -160q0 -113 -42 -170t-132 -57q-84 0 -213.5 36.5t-249.5 92.5l-90 -117q-43 7 -106 39l-17 31l598 776l-309 16l-35 -135h-131q-13 75 -1.5 185.5t44.5 181.5q305 0 547 -96l76 98q43 -7 106 -39l17 -29l-586 -764q192 -40 340 -43zM573 1516
q45 0 82 -13q23 -44 23 -88q0 -76 -57 -168h-193l-12 242q88 27 157 27z" />
    <glyph glyph-name="Zcaron" unicode="&#x17d;" horiz-adv-x="1142" 
d="M907 354l152 -12q4 -58 4 -88q0 -125 -49 -283l-53 -6l-693 35l-209 -2l-16 82q284 433 442.5 670t213.5 314.5t122 164.5l-6 16l-473 -20l-39 -217h-149q-17 126 -17 206q0 75 15 148l53 29q42 0 139 -29h778l17 -80q-381 -587 -527 -803t-247 -346l8 -16l456 2z
M713 1657h18l187 168h118l-313 -352h-148l-192 290l166 84z" />
    <glyph glyph-name="zcaron" unicode="&#x17e;" horiz-adv-x="897" 
d="M694 354l123 -14q6 -77 6 -160q0 -113 -42 -170t-132 -57q-84 0 -213.5 36.5t-249.5 92.5l-90 -117q-43 7 -106 39l-17 31l598 776l-309 16l-35 -135h-131q-13 75 -1.5 185.5t44.5 181.5q305 0 547 -96l76 98q43 -7 106 -39l17 -29l-586 -764q192 -40 340 -43zM559 1366
h19l172 211h112l-295 -401h-147l-166 337l162 80z" />
    <glyph glyph-name="longs" unicode="&#x17f;" horiz-adv-x="579" 
d="M881 1290l-330 80q-30 -8 -59 -24q-5 -63 -19.5 -210t-26.5 -270l-77 -813q-24 -256 -113.5 -372.5t-245.5 -116.5q-80 0 -160.5 28t-138.5 80l29 99q191 -60 317 -60q46 91 62 277l86 884l-139 21v96q54 20 153 35q15 123 51.5 217t82.5 150t106.5 91t116.5 47.5
t118 12.5q152 0 234 -82z" />
    <glyph glyph-name="uni018F" unicode="&#x18f;" horiz-adv-x="1193" 
d="M641 1389q128 0 225 -43.5t156 -123t88 -182.5t29 -229q0 -121 -25.5 -239t-80.5 -226.5t-133.5 -191t-194 -132t-252.5 -49.5q-193 0 -296.5 91.5t-103.5 244.5q0 86 33 158t91.5 121.5t134 87t166 58.5t181.5 31t187 9v31q0 211 -75 303t-222 92q-176 0 -350 -123
l-27 101q98 102 211 156.5t258 54.5zM629 152q82 68 135.5 204.5t73.5 298.5q-267 -32 -389.5 -112.5t-122.5 -243.5q0 -186 155 -186q72 0 148 39z" />
    <glyph glyph-name="florin" unicode="&#x192;" horiz-adv-x="1011" 
d="M1008 1253l53 -39q4 -28 4 -57q0 -129 -41 -283h-143l-21 248q-14 2 -43 2q-61 0 -117 -24q-41 -78 -73 -238l-21 -96h207v-49l-8 -78h-227l-80 -371q-48 -225 -134.5 -331.5t-232.5 -106.5q-150 0 -270 109l28 100q6 -2 40 -13.5t46 -15t42 -12t49 -12t46 -6.5t52 -3
q36 67 82 277l80 385h-168v51l8 76h184l12 57q46 217 148.5 322.5t247.5 105.5q56 0 112 -16q70 18 138 18z" />
    <glyph glyph-name="uni01E2" unicode="&#x1e2;" horiz-adv-x="1781" 
d="M1149 1239l-47 -483l336 16l18 -45l-14 -113l-350 19l-50 -514h381l78 235l152 -12q4 -58 4 -88q0 -125 -49 -283l-54 -6l-647 35h-286v100q91 35 161 45l25 248h-410q-94 -188 -137 -276l131 -13v-47l-6 -57h-405v100q53 29 122 43q271 524 609 1104l-129 6v50l8 59h964
q97 29 144 29l51 -29q4 -32 4 -68q0 -133 -39 -286h-147l-19 215zM819 522l66 707h-41q-159 -281 -379 -705zM860 1718h520q4 -12 4 -45q0 -64 -22 -114h-520q-4 12 -4 45q0 60 22 114z" />
    <glyph glyph-name="uni01E3" unicode="&#x1e3;" horiz-adv-x="1581" 
d="M1124 150q70 0 157 37t169 104l27 -98q-89 -101 -204 -160.5t-247 -59.5q-68 0 -120 18t-84.5 51t-53.5 74.5t-28.5 92t-7 99.5t8.5 102l-24 6q-31 -97 -54.5 -159.5t-56 -121.5t-69 -91.5t-86 -51.5t-113.5 -19q-62 0 -109 17.5t-84 57t-56 111t-19 173.5t18.5 202.5
t60.5 197t102.5 170t151 118.5t199.5 45q183 0 293 -119q124 119 315 119q168 0 248 -72t80 -194q0 -99 -52 -171.5t-141 -111t-192 -55t-221 -12.5v-27q0 -272 192 -272zM748 723q51 107 90 158q-101 65 -209 65q-52 0 -117 -18q-88 -109 -132 -280t-44 -335
q0 -99 22 -136.5t78 -37.5q27 0 43 4q51 79 92.5 166.5t96.5 222t80 191.5zM1180 944q-54 0 -103 -22q-55 -55 -90 -163.5t-49 -228.5q346 38 346 285q0 66 -23.5 97.5t-80.5 31.5zM688 1430h520q4 -12 4 -46q0 -64 -22 -114h-520q-4 12 -4 45q0 61 22 115z" />
    <glyph glyph-name="Aringacute" unicode="&#x1fa;" horiz-adv-x="1327" 
d="M852 1669h-121l187 311h118q59 -41 82 -112zM1278 104v-47l-8 -57h-543v100q62 32 145 43q-37 151 -55 244h-440q-18 -45 -53 -134t-52 -134l140 -15v-47l-9 -57h-421v100q61 31 145 43q257 617 487 1100q-86 39 -86 143q0 95 69 155.5t189 60.5q100 0 154.5 -43
t54.5 -127q0 -127 -112 -183q21 -90 77.5 -341t100 -437t86.5 -354zM723 1493q-33 -48 -33 -100q0 -76 60 -76q32 0 53 12q33 41 33 101q0 75 -60 75q-32 0 -53 -12zM430 518h358q-5 22 -106 526h-25q-78 -171 -227 -526z" />
    <glyph glyph-name="aringacute" unicode="&#x1fb;" horiz-adv-x="1167" 
d="M1114 188l21 -94q-65 -52 -141.5 -83t-141.5 -31q-133 0 -133 114q0 19 3.5 47.5t12.5 75t18 91.5t25 124.5t29 147.5l-23 4q-48 -151 -85.5 -249t-76.5 -172.5t-80.5 -113.5t-89.5 -57.5t-112 -18.5q-63 0 -110 17t-84.5 56.5t-56.5 110.5t-19 173t19 203.5t60.5 198
t101.5 170t149 118.5t196 45q145 0 223 -78l17 60q64 18 163 18l50 -45l-107 -885q75 0 172 53zM487 145q67 88 136.5 264t164.5 492q-74 45 -163 45q-45 0 -115 -18q-86 -109 -130 -280t-44 -335q0 -98 21.5 -136t76.5 -38q23 0 53 6zM805 1898h115q59 -45 84 -112
l-254 -189h-111zM698 1540q101 0 154 -46t53 -132q0 -102 -69 -163.5t-189 -61.5q-102 0 -155.5 45.5t-53.5 132.5q0 102 70 163.5t190 61.5zM686 1444q-33 0 -51 -12q-35 -44 -35 -117q0 -82 59 -82q31 0 52 14q34 40 34 117q0 80 -59 80z" />
    <glyph glyph-name="AEacute" unicode="&#x1fc;" horiz-adv-x="1781" 
d="M1149 1239l-47 -483l336 16l18 -45l-14 -113l-350 19l-50 -514h381l78 235l152 -12q4 -58 4 -88q0 -125 -49 -283l-54 -6l-647 35h-286v100q91 35 161 45l25 248h-410q-94 -188 -137 -276l131 -13v-47l-6 -57h-405v100q53 29 122 43q271 524 609 1104l-129 6v50l8 59h964
q97 29 144 29l51 -29q4 -32 4 -68q0 -133 -39 -286h-147l-19 215zM819 522l66 707h-41q-159 -281 -379 -705zM1251 1843h125q66 -40 90 -127l-321 -243h-125z" />
    <glyph glyph-name="aeacute" unicode="&#x1fd;" horiz-adv-x="1581" 
d="M1124 150q70 0 157 37t169 104l27 -98q-89 -101 -204 -160.5t-247 -59.5q-68 0 -120 18t-84.5 51t-53.5 74.5t-28.5 92t-7 99.5t8.5 102l-24 6q-31 -97 -54.5 -159.5t-56 -121.5t-69 -91.5t-86 -51.5t-113.5 -19q-62 0 -109 17.5t-84 57t-56 111t-19 173.5t18.5 202.5
t60.5 197t102.5 170t151 118.5t199.5 45q183 0 293 -119q124 119 315 119q168 0 248 -72t80 -194q0 -99 -52 -171.5t-141 -111t-192 -55t-221 -12.5v-27q0 -272 192 -272zM748 723q51 107 90 158q-101 65 -209 65q-52 0 -117 -18q-88 -109 -132 -280t-44 -335
q0 -99 22 -136.5t78 -37.5q27 0 43 4q51 79 92.5 166.5t96.5 222t80 191.5zM1180 944q-54 0 -103 -22q-55 -55 -90 -163.5t-49 -228.5q346 38 346 285q0 66 -23.5 97.5t-80.5 31.5zM1077 1585h125q68 -45 90 -129l-317 -291h-113z" />
    <glyph glyph-name="Oslashacute" unicode="&#x1fe;" horiz-adv-x="1404" 
d="M1352 1446l-152 -207q145 -151 148 -430q1 -119 -23.5 -235.5t-80.5 -226t-137 -192t-202 -132.5t-266 -50q-180 0 -309 80l-158 -213l-88 45l-10 31l162 217q-137 152 -140 422q-1 119 23.5 235.5t80 225.5t136.5 191t202 132t267 50q178 0 299 -74l151 207l88 -43z
M606 1210q-93 -72 -155 -267.5t-62 -418.5q0 -101 14 -172l584 803q-69 94 -205 94q-81 0 -176 -39zM842 152q93 72 155 267.5t62 418.5q0 105 -19 192l-587 -811q67 -106 213 -106q84 0 176 39zM963 1843h124q67 -41 91 -127l-322 -243h-125z" />
    <glyph glyph-name="oslashacute" unicode="&#x1ff;" horiz-adv-x="1077" 
d="M1032 1153l-129 -192q113 -116 113 -334q0 -84 -17 -170t-58 -174.5t-101.5 -156t-156.5 -110.5t-214 -43q-120 0 -205 43l-125 -184l-88 43l-10 29l125 186q-103 118 -103 322q0 86 17 172t58 174t101.5 155t156.5 109.5t214 42.5q115 0 193 -37l133 197l86 -43z
M471 920q-72 -70 -112 -243.5t-40 -332.5v-39l392 590q-43 49 -121 49q-62 0 -119 -24zM610 119q49 48 84.5 154t50.5 215t15 206q0 32 -4 72l-400 -606q43 -66 136 -66q66 0 118 25zM770 1585h125q68 -45 90 -129l-317 -291h-113z" />
    <glyph glyph-name="Scommaaccent" unicode="&#x218;" horiz-adv-x="1071" 
d="M621 815l71 -45q63 -40 107.5 -77.5t86 -87.5t62.5 -112.5t21 -136.5q0 -60 -14 -113t-50 -103.5t-90.5 -86.5t-141.5 -58t-198 -22q-221 0 -393 80q-14 77 -14 158q0 79 14 186l162 11l57 -275q80 -24 168 -24q114 0 170 34q55 55 55 154q0 45 -11.5 80.5t-39 65.5
t-54 51t-75.5 53l-72 45q-138 89 -206 187t-68 222q0 168 114.5 278t303.5 110q120 0 213 -56l4 35q102 23 145 23l53 -39q5 -35 5 -58q0 -133 -41 -290h-152l-20 225q-82 24 -166 24q-79 0 -135 -24q-70 -56 -70 -154q0 -44 13.5 -80t44 -68t60.5 -55t81 -57zM463 -102
q68 0 117 -25q22 -28 22 -96q0 -107 -61.5 -182.5t-184.5 -100.5l-22 64q61 30 90 59t29 76v22l-86 9l14 165q41 9 82 9z" />
    <glyph glyph-name="scommaaccent" unicode="&#x219;" horiz-adv-x="833" 
d="M524 594q59 -48 90.5 -77.5t65.5 -70.5t48.5 -82.5t14.5 -91.5q0 -137 -106 -218t-281 -81q-133 0 -220.5 47t-110.5 140l110 127l268 -191q41 6 76 21q29 42 29 96q-1 59 -34.5 98.5t-135.5 122.5q-65 55 -95 83.5t-65.5 71t-49 83t-13.5 90.5q0 142 112 222.5t285 80.5
q120 0 201 -40t102 -120l-98 -123l-256 162q-50 -6 -82 -20q-37 -46 -37 -107q0 -53 32.5 -91t130.5 -117q12 -10 19 -15zM324 -102q67 0 116 -25q23 -29 23 -96q0 -107 -61.5 -182.5t-184.5 -100.5l-22 64q61 30 89.5 59t28.5 76v22l-86 9l15 165q40 9 82 9z" />
    <glyph glyph-name="uni021A" unicode="&#x21a;" horiz-adv-x="1173" 
d="M1157 1391l51 -29q4 -32 4 -68q0 -137 -38 -286h-148l-18 217l-209 12l-103 -1118l166 -15v-47l-6 -57h-602v100q77 32 182 43l105 1100h-201l-78 -239l-141 10q-4 58 -4 90q0 141 49 287l53 6l461 -35h334q97 29 143 29zM522 -102q68 0 117 -25q23 -29 23 -96
q0 -107 -61.5 -182.5t-184.5 -100.5l-23 64q61 30 90 59t29 76v22l-86 9l14 165q40 9 82 9z" />
    <glyph glyph-name="uni021B" unicode="&#x21b;" horiz-adv-x="718" 
d="M721 1016v-58l-16 -69h-250q-79 -592 -86 -762q124 0 268 55l18 -94q-68 -50 -168.5 -82.5t-181.5 -32.5q-87 0 -131.5 41.5t-44.5 135.5q0 77 26 292t62 430l-121 21v96q75 26 150 37q21 123 51 221q105 36 170 41l35 -35l-31 -237h250zM266 -102q68 0 117 -25
q23 -29 23 -96q0 -107 -61.5 -182.5t-184.5 -100.5l-23 64q61 30 90 59t29 76v22l-86 9l14 165q40 9 82 9z" />
    <glyph glyph-name="uni0232" unicode="&#x232;" horiz-adv-x="1273" 
d="M1186 1219q-138 -297 -414 -738l-33 -362l162 -15v-47l-6 -57h-596v100q71 30 180 43l31 332q-155 447 -291 768l-129 14v48l6 57h555v-100q-61 -30 -153 -41q134 -364 207 -596h22q199 330 311 616l-141 16v48l6 57h428v-100q-75 -37 -145 -43zM508 1718h520
q4 -12 4 -45q0 -64 -22 -114h-521q-4 12 -4 45q0 58 23 114z" />
    <glyph glyph-name="uni0233" unicode="&#x233;" horiz-adv-x="1067" 
d="M707 979l155 86q70 -21 112 -87t42 -165q0 -165 -112.5 -412t-297.5 -477q-291 -360 -506 -360q-60 0 -120.5 25t-104.5 73l31 100q3 -1 23.5 -6t26.5 -6.5t26.5 -6.5t29 -7t28 -6t31.5 -6t30.5 -5t33 -4t32 -2.5t34.5 -1.5q92 59 174 144q-122 644 -215 1026l-144 12v96
q187 63 324 68l49 -45q139 -622 168 -932h25q81 117 158.5 292t109.5 337zM387 1438h520q4 -12 4 -45q0 -65 -22 -115h-520q-4 12 -4 45q0 61 22 115z" />
    <glyph glyph-name="uni0237" unicode="&#x237;" horiz-adv-x="559" 
d="M469 1012l-119 -977q-29 -245 -117 -358t-239 -113q-146 0 -244 88l31 98q7 -2 35.5 -8.5t41.5 -9.5t40.5 -8t46 -7.5t44 -4t48.5 -1.5q45 89 65 275l109 895l-145 12v96q181 59 356 68z" />
    <glyph glyph-name="uni0259" unicode="&#x259;" horiz-adv-x="970" 
d="M547 1065q184 0 273 -116.5t89 -311.5q0 -73 -12.5 -147t-38 -150t-69.5 -141t-102.5 -116t-142 -80.5t-182.5 -29.5q-163 0 -242 73t-79 194q0 99 52 171t140.5 111t192.5 55.5t221 12.5v28q0 137 -50.5 201t-152.5 64q-138 0 -282 -103l-25 97q74 87 180.5 137.5
t229.5 50.5zM399 94q52 0 103 23q56 56 90.5 163.5t48.5 227.5q-346 -38 -346 -285q0 -66 23.5 -97.5t80.5 -31.5z" />
    <glyph glyph-name="uni02BB" unicode="&#x2bb;" horiz-adv-x="516" 
d="M502 1530l24 -70q-73 -35 -122.5 -91.5t-49.5 -119.5v-26l101 -13l-17 -229q-41 -8 -96 -8q-86 0 -135 33q-27 52 -27 129q-1 57 14 113t49.5 113.5t101 102.5t157.5 66z" />
    <glyph glyph-name="afii57929" unicode="&#x2bc;" horiz-adv-x="518" 
d="M342 1513q89 0 137 -30q27 -64 27 -131q0 -43 -8 -86t-30.5 -92t-57.5 -90t-93 -75.5t-133 -52.5l-26 70q73 35 122.5 91.5t49.5 119.5v27l-99 12l15 229q41 8 96 8z" />
    <glyph glyph-name="circumflex" unicode="&#x2c6;" horiz-adv-x="724" 
d="M745 1237l-161 -78l-144 227h-18l-172 -210h-113l297 399h146z" />
    <glyph glyph-name="caron" unicode="&#x2c7;" horiz-adv-x="724" 
d="M477 1366h19l174 211h112l-295 -401h-147l-166 337l162 80z" />
    <glyph glyph-name="breve" unicode="&#x2d8;" horiz-adv-x="681" 
d="M174 1511l166 37q2 -102 30 -151t101 -49q70 0 111.5 48.5t72.5 149.5l80 -22q-66 -328 -323 -328q-60 0 -106.5 18.5t-73 50t-43.5 72t-18 85t3 89.5z" />
    <glyph glyph-name="dotaccent" unicode="&#x2d9;" horiz-adv-x="393" 
d="M330 1516q45 0 82 -13q22 -42 22 -88q0 -74 -55 -168h-195l-12 242q88 27 158 27z" />
    <glyph glyph-name="ring" unicode="&#x2da;" horiz-adv-x="585" 
d="M420 1606q102 0 154.5 -48t52.5 -137q0 -104 -69 -168.5t-189 -64.5q-103 0 -156 47.5t-53 136.5q0 105 69.5 169.5t190.5 64.5zM410 1509q-30 0 -50 -10q-38 -48 -38 -131q0 -84 59 -84q30 0 51 12q39 57 39 131q0 44 -15 63t-46 19z" />
    <glyph glyph-name="ogonek" unicode="&#x2db;" horiz-adv-x="550" 
d="M291 35l71 -4q-178 -131 -178 -246q0 -44 26 -69t73 -25q42 0 98 18l6 -88q-79 -57 -205 -57q-107 0 -158 43.5t-51 118.5q0 101 87.5 179.5t230.5 129.5z" />
    <glyph glyph-name="tilde" unicode="&#x2dc;" horiz-adv-x="724" 
d="M713 1499l57 -53q-89 -223 -221 -223q-50 0 -113 37l-127 73l-102 -108l-60 53q91 221 222 221q54 0 112 -37l125 -73z" />
    <glyph glyph-name="hungarumlaut" unicode="&#x2dd;" horiz-adv-x="778" 
d="M268 1593h115q62 -28 102 -112l-245 -307h-103zM612 1593h115q64 -30 100 -112l-241 -307h-105z" />
    <glyph glyph-name="gravecomb" unicode="&#x300;" horiz-adv-x="0" 
d="M-88 1174h-113l-248 290q55 92 127 129h127z" />
    <glyph glyph-name="acutecomb" unicode="&#x301;" horiz-adv-x="0" 
d="M-266 1593h125q68 -45 90 -129l-318 -290h-112z" />
    <glyph glyph-name="uni0302" unicode="&#x302;" horiz-adv-x="0" 
d="M-10 1237l-162 -78l-143 227h-19l-172 -210h-112l294 399h146z" />
    <glyph glyph-name="tildecomb" unicode="&#x303;" horiz-adv-x="0" 
d="M-109 1499l58 -53q-89 -223 -221 -223q-50 0 -113 37l-125 73l-104 -108l-58 53q86 221 221 221q55 0 113 -37l123 -73z" />
    <glyph glyph-name="uni0304" unicode="&#x304;" horiz-adv-x="0" 
d="M-514 1430h518q6 -18 6 -46q0 -59 -24 -114h-518q-7 21 -7 45q0 61 25 115z" />
    <glyph glyph-name="uni0306" unicode="&#x306;" horiz-adv-x="0" 
d="M-518 1511l166 37q2 -102 30 -151t101 -49q70 0 111.5 48.5t72.5 149.5l80 -22q-66 -328 -324 -328q-60 0 -106.5 18.5t-73 50t-43 72t-17.5 85t3 89.5z" />
    <glyph glyph-name="uni0307" unicode="&#x307;" horiz-adv-x="0" 
d="M-156 1516q45 0 82 -13q23 -44 23 -88q0 -74 -58 -168h-192l-12 242q88 27 157 27z" />
    <glyph glyph-name="uni0308" unicode="&#x308;" horiz-adv-x="2" 
d="M-508 1497q49 0 76 -12q20 -45 20 -84q0 -71 -51 -150h-168l-14 219q71 27 137 27zM-100 1497q45 0 75 -12q21 -44 21 -82q0 -70 -51 -152h-168l-15 219q71 27 138 27z" />
    <glyph glyph-name="uni030A" unicode="&#x30a;" horiz-adv-x="0" 
d="M-272 1606q102 0 154 -48t52 -137q0 -104 -68 -168.5t-190 -64.5q-102 0 -155 47.5t-53 136.5q0 105 69.5 169.5t190.5 64.5zM-283 1509q-29 0 -49 -10q-39 -45 -39 -131q0 -84 60 -84q31 0 49 12q41 52 41 131q0 82 -62 82z" />
    <glyph glyph-name="uni030B" unicode="&#x30b;" horiz-adv-x="0" 
d="M-629 1593h115q62 -28 102 -112l-245 -307h-103zM-285 1593h115q62 -28 102 -112l-243 -307h-105z" />
    <glyph glyph-name="uni030C" unicode="&#x30c;" horiz-adv-x="0" 
d="M-276 1366h18l172 211h113l-295 -401h-148l-166 337l162 80z" />
    <glyph glyph-name="uni0312" unicode="&#x312;" horiz-adv-x="2" 
d="M-145 1595l24 -63q-63 -31 -94 -64t-31 -84v-22l86 -8l-14 -168q-41 -6 -82 -6q-70 0 -117 24q-22 28 -22 96q0 110 63.5 190t186.5 105z" />
    <glyph glyph-name="uni0326" unicode="&#x326;" horiz-adv-x="0" 
d="M-535 -102q68 0 117 -25q23 -29 23 -96q0 -107 -61.5 -182.5t-184.5 -100.5l-23 64q61 30 90 59t29 76v22l-86 9l15 165q40 9 81 9z" />
    <glyph glyph-name="uni0327" unicode="&#x327;" horiz-adv-x="0" 
d="M-399 12l-15 -139q156 -4 156 -123q0 -80 -63 -133t-177 -53q-129 0 -196 61l24 84q93 -26 125 -26q44 0 70 21t26 56q0 27 -22 39.5t-90 24.5l53 188h109z" />
    <glyph glyph-name="uni0328" unicode="&#x328;" horiz-adv-x="0" 
d="M-365 35l72 -4q-178 -131 -178 -246q0 -44 26 -69t72 -25q43 0 99 18l8 -88q-82 -57 -207 -57q-107 0 -158 43.5t-51 118.5q0 101 87 179.5t230 129.5z" />
    <glyph glyph-name="uni0394" unicode="&#x394;" horiz-adv-x="1128" 
d="M1057 33l-17 -33h-1065l-10 33l584 1327l127 29l47 -9zM193 190h602l-215 902z" />
    <glyph glyph-name="uni03A9" unicode="&#x3a9;" horiz-adv-x="1394" 
d="M1204 354l139 -12q5 -73 5 -88q0 -117 -39 -254h-557l34 350q265 141 265 537q0 172 -62.5 267t-212.5 95q-84 0 -176 -39q-83 -52 -140 -191.5t-57 -299.5q0 -272 179 -369l-35 -350h-543h-2q-15 195 27 342l145 12l21 -161l245 -23l13 131q-68 22 -125.5 57.5t-106 88
t-77 128.5t-29.5 168q-1 94 22.5 184t77 174t131.5 148t195 102t258 38q262 0 402 -130t140 -364q0 -90 -23 -177t-71.5 -171t-136 -151.5t-205.5 -102.5l-12 -123l258 23z" />
    <glyph glyph-name="uni03BC" unicode="&#x3bc;" horiz-adv-x="1206" 
d="M1155 188l19 -94q-65 -51 -145.5 -82.5t-147.5 -31.5q-133 0 -133 114q0 30 8.5 82.5t32 174.5t40.5 216l-22 4q-72 -238 -129.5 -363.5t-120.5 -180t-151 -54.5q-50 0 -81 20t-53 64l-20 -10q4 -27 14.5 -87.5t15.5 -94t12 -84t11 -97.5t6 -96q-68 -24 -215 -24l-30 39
q41 624 159 1278l-143 12v96q197 62 354 68l47 -43q-5 -39 -34.5 -213t-53.5 -335t-24 -222q0 -55 21.5 -80t72.5 -25q27 0 45 2q160 211 348 897q76 21 180 21l52 -45l-107 -879q75 0 172 53z" />
    <glyph glyph-name="pi" unicode="&#x3c0;" horiz-adv-x="1171" 
d="M1190 1032v-86l-31 -129h-147l-84 -680q81 9 168 51l20 -94q-145 -114 -289 -114q-70 0 -107.5 35t-37.5 102q0 72 100 700h-307l-98 -817q-105 -20 -197 -20l-49 45l100 499l35 293q-102 -3 -213 -74l-37 78q68 111 151 161t232 50h791z" />
    <glyph glyph-name="Wgrave" unicode="&#x1e80;" horiz-adv-x="2007" 
d="M2056 1362v-100q-52 -25 -119 -39q-85 -266 -221 -615.5t-246 -599.5q-84 -25 -198 -28l-60 40q-85 427 -143 814h-22q-105 -342 -318 -826q-84 -25 -199 -28l-61 40q-64 291 -236 1225l-124 12v48l6 57h536v-100q-59 -32 -139 -43q108 -706 158 -1002h22
q59 139 151 391.5t163 472.5l-31 166l-94 10v48l6 57h510v-100q-66 -36 -144 -43q126 -800 160 -1002h23q82 205 184 501t160 523l-154 16v48l6 57h424zM1196 1473h-125l-248 241q54 93 121 127h127z" />
    <glyph glyph-name="wgrave" unicode="&#x1e81;" horiz-adv-x="1662" 
d="M1309 977l155 88q73 -22 111.5 -92.5t38.5 -155.5q0 -71 -28 -162t-75 -184.5t-114 -183t-140.5 -159.5t-158.5 -112.5t-164 -42.5q-84 0 -134 48t-50 139q0 75 38 207l-22 6q-87 -205 -186.5 -302.5t-223.5 -97.5q-103 0 -165 60t-62 182q0 141 96 666l-143 12v96
q187 59 352 68l47 -45q-3 -18 -19.5 -116t-28.5 -175t-27 -176t-23 -175t-8 -116q0 -59 22.5 -87t81.5 -28l31 2q157 179 268 521q25 214 60 374q76 21 188 21l49 -45q0 -137 -67 -344q-31 -345 -31 -412q0 -62 20 -89.5t76 -27.5q21 0 35 2q106 97 194 244t146 326z
M997 1174h-112l-248 290q55 92 127 129h127z" />
    <glyph glyph-name="Wacute" unicode="&#x1e82;" horiz-adv-x="2007" 
d="M2056 1362v-100q-52 -25 -119 -39q-85 -266 -221 -615.5t-246 -599.5q-84 -25 -198 -28l-60 40q-85 427 -143 814h-22q-105 -342 -318 -826q-84 -25 -199 -28l-61 40q-64 291 -236 1225l-124 12v48l6 57h536v-100q-59 -32 -139 -43q108 -706 158 -1002h22
q59 139 151 391.5t163 472.5l-31 166l-94 10v48l6 57h510v-100q-66 -36 -144 -43q126 -800 160 -1002h23q82 205 184 501t160 523l-154 16v48l6 57h424zM1300 1843h125q67 -41 91 -127l-322 -243h-125z" />
    <glyph glyph-name="wacute" unicode="&#x1e83;" horiz-adv-x="1662" 
d="M1309 977l155 88q73 -22 111.5 -92.5t38.5 -155.5q0 -71 -28 -162t-75 -184.5t-114 -183t-140.5 -159.5t-158.5 -112.5t-164 -42.5q-84 0 -134 48t-50 139q0 75 38 207l-22 6q-87 -205 -186.5 -302.5t-223.5 -97.5q-103 0 -165 60t-62 182q0 141 96 666l-143 12v96
q187 59 352 68l47 -45q-3 -18 -19.5 -116t-28.5 -175t-27 -176t-23 -175t-8 -116q0 -59 22.5 -87t81.5 -28l31 2q157 179 268 521q25 214 60 374q76 21 188 21l49 -45q0 -137 -67 -344q-31 -345 -31 -412q0 -62 20 -89.5t76 -27.5q21 0 35 2q106 97 194 244t146 326z
M1096 1593h125q68 -45 90 -129l-318 -290h-112z" />
    <glyph glyph-name="Wdieresis" unicode="&#x1e84;" horiz-adv-x="2007" 
d="M2056 1362v-100q-52 -25 -119 -39q-85 -266 -221 -615.5t-246 -599.5q-84 -25 -198 -28l-60 40q-85 427 -143 814h-22q-105 -342 -318 -826q-84 -25 -199 -28l-61 40q-64 291 -236 1225l-124 12v48l6 57h536v-100q-59 -32 -139 -43q108 -706 158 -1002h22
q59 139 151 391.5t163 472.5l-31 166l-94 10v48l6 57h510v-100q-66 -36 -144 -43q126 -800 160 -1002h23q82 205 184 501t160 523l-154 16v48l6 57h424zM946 1763q52 0 76 -12q20 -33 20 -82q0 -76 -49 -153h-170l-16 221q72 26 139 26zM1417 1763q50 0 74 -12
q20 -29 20 -80q0 -81 -47 -155h-172l-14 221q69 26 139 26z" />
    <glyph glyph-name="wdieresis" unicode="&#x1e85;" horiz-adv-x="1662" 
d="M1309 977l155 88q73 -22 111.5 -92.5t38.5 -155.5q0 -71 -28 -162t-75 -184.5t-114 -183t-140.5 -159.5t-158.5 -112.5t-164 -42.5q-84 0 -134 48t-50 139q0 75 38 207l-22 6q-87 -205 -186.5 -302.5t-223.5 -97.5q-103 0 -165 60t-62 182q0 141 96 666l-143 12v96
q187 59 352 68l47 -45q-3 -18 -19.5 -116t-28.5 -175t-27 -176t-23 -175t-8 -116q0 -59 22.5 -87t81.5 -28l31 2q157 179 268 521q25 214 60 374q76 21 188 21l49 -45q0 -137 -67 -344q-31 -345 -31 -412q0 -62 20 -89.5t76 -27.5q21 0 35 2q106 97 194 244t146 326z
M784 1497q49 0 76 -12q21 -47 21 -84q0 -70 -52 -150h-167l-15 219q71 27 137 27zM1192 1497q46 0 76 -12q20 -42 20 -82q0 -70 -51 -152h-168l-14 219q71 27 137 27z" />
    <glyph glyph-name="uni1E9E" unicode="&#x1e9e;" horiz-adv-x="1429" 
d="M1212 633q70 -75 104 -143.5t34 -159.5q0 -168 -110 -262.5t-310 -94.5q-65 0 -122.5 11.5t-91 25t-83.5 37.5q-12 73 -12 143q0 61 16 179l133 8l49 -256q43 -12 88 -12q87 0 140 30q34 55 34 137q0 60 -24 103t-92 119q-66 71 -94 105.5t-52 88t-24 111.5
q0 243 331 399v23q-92 28 -223 28q-181 0 -278.5 -93t-118.5 -310l-78 -850h-2h-410v100q70 31 164 43l66 705q49 541 596 541q268 0 454 -95v-133q-254 -110 -254 -278q0 -29 7.5 -54t26.5 -50.5t34.5 -42.5t48.5 -49.5t53 -53.5z" />
    <glyph glyph-name="Ygrave" unicode="&#x1ef2;" horiz-adv-x="1273" 
d="M1186 1219q-138 -297 -414 -738l-33 -362l162 -15v-47l-6 -57h-596v100q71 30 180 43l31 332q-155 447 -291 768l-129 14v48l6 57h555v-100q-61 -30 -153 -41q134 -364 207 -596h22q199 330 311 616l-141 16v48l6 57h428v-100q-75 -37 -145 -43zM795 1473h-125l-248 241
q54 93 121 127h127z" />
    <glyph glyph-name="ygrave" unicode="&#x1ef3;" horiz-adv-x="1067" 
d="M707 979l155 86q70 -21 112 -87t42 -165q0 -165 -112.5 -412t-297.5 -477q-291 -360 -506 -360q-60 0 -120.5 25t-104.5 73l31 100q3 -1 23.5 -6t26.5 -6.5t26.5 -6.5t29 -7t28 -6t31.5 -6t30.5 -5t33 -4t32 -2.5t34.5 -1.5q92 59 174 144q-122 644 -215 1026l-144 12v96
q187 63 324 68l49 -45q139 -622 168 -932h25q81 117 158.5 292t109.5 337zM678 1174h-113l-248 290q55 92 127 129h127z" />
    <glyph glyph-name="uni2007" unicode="&#x2007;" horiz-adv-x="1157" 
 />
    <glyph glyph-name="uni2008" unicode="&#x2008;" horiz-adv-x="512" 
 />
    <glyph glyph-name="uni2009" unicode="&#x2009;" horiz-adv-x="358" 
 />
    <glyph glyph-name="uni200B" unicode="&#x200b;" horiz-adv-x="0" 
 />
    <glyph glyph-name="endash" unicode="&#x2013;" horiz-adv-x="1024" 
d="M948 631l-12 -99h-838v54l13 98h837v-53z" />
    <glyph glyph-name="emdash" unicode="&#x2014;" horiz-adv-x="2048" 
d="M1913 631l-12 -99h-1743v54l12 98h1743v-53z" />
    <glyph glyph-name="quoteleft" unicode="&#x2018;" horiz-adv-x="516" 
d="M502 1530l24 -70q-73 -35 -122.5 -91.5t-49.5 -119.5v-26l101 -13l-17 -229q-41 -8 -96 -8q-86 0 -135 33q-27 52 -27 129q-1 57 14 113t49.5 113.5t101 102.5t157.5 66z" />
    <glyph glyph-name="quoteright" unicode="&#x2019;" horiz-adv-x="518" 
d="M342 1513q89 0 137 -30q27 -64 27 -131q0 -43 -8 -86t-30.5 -92t-57.5 -90t-93 -75.5t-133 -52.5l-26 70q73 35 122.5 91.5t49.5 119.5v27l-99 12l15 229q41 8 96 8z" />
    <glyph glyph-name="quotesinglbase" unicode="&#x201a;" horiz-adv-x="518" 
d="M197 244q88 0 137 -33q26 -54 26 -129q0 -43 -8 -86t-30.5 -92t-57 -89.5t-92.5 -75t-133 -52.5l-27 67q72 35 122 92.5t50 120.5v27l-98 12l14 227q43 11 97 11z" />
    <glyph glyph-name="quotedblleft" unicode="&#x201c;" horiz-adv-x="903" 
d="M889 1530l24 -70q-73 -35 -122.5 -91.5t-49.5 -119.5v-26l101 -13l-17 -229q-41 -8 -96 -8q-86 0 -135 33q-27 52 -27 129q-1 57 14 113t49.5 113.5t101 102.5t157.5 66zM502 1530l24 -70q-73 -35 -122.5 -91.5t-49.5 -119.5v-26l101 -13l-17 -229q-41 -8 -96 -8
q-86 0 -135 33q-27 52 -27 129q-1 57 14 113t49.5 113.5t101 102.5t157.5 66z" />
    <glyph glyph-name="quotedblright" unicode="&#x201d;" horiz-adv-x="905" 
d="M729 1513q89 0 137 -30q27 -64 27 -131q0 -43 -8 -86t-30.5 -92t-57.5 -90t-93 -75.5t-133 -52.5l-26 70q73 35 122.5 91.5t49.5 119.5v27l-99 12l15 229q41 8 96 8zM342 1513q89 0 137 -30q27 -64 27 -131q0 -43 -8 -86t-30.5 -92t-57.5 -90t-93 -75.5t-133 -52.5
l-26 70q73 35 122.5 91.5t49.5 119.5v27l-99 12l15 229q41 8 96 8z" />
    <glyph glyph-name="quotedblbase" unicode="&#x201e;" horiz-adv-x="905" 
d="M584 244q88 0 137 -33q27 -56 27 -129q0 -43 -8 -86t-30.5 -92t-57.5 -89.5t-93 -75t-133 -52.5l-27 67q72 35 122 92.5t50 120.5v27l-98 12l14 227q43 11 97 11zM197 244q88 0 137 -33q26 -54 26 -129q0 -43 -8 -86t-30.5 -92t-57 -89.5t-92.5 -75t-133 -52.5l-27 67
q72 35 122 92.5t50 120.5v27l-98 12l14 227q43 11 97 11z" />
    <glyph glyph-name="dagger" unicode="&#x2020;" horiz-adv-x="974" 
d="M627 1516l61 -11q2 -12 2 -37q0 -119 -84 -299h-90q-35 129 -35 224q0 58 19 123h127zM225 1190q119 0 258 -57l-10 -89q-154 -55 -262 -55q-54 0 -90 8v56l18 129q54 8 86 8zM895 1190q45 0 90 -10v-54l-18 -131q-41 -6 -86 -6q-59 0 -131.5 16.5t-126.5 38.5l10 89
q160 57 262 57zM502 1010h90q33 -112 33 -197q0 -52 -10 -121.5t-20.5 -117.5t-34 -148.5t-32.5 -142.5h-94q-18 203 -18 311q0 114 16 209t70 207z" />
    <glyph glyph-name="daggerdbl" unicode="&#x2021;" horiz-adv-x="1028" 
d="M645 1516l62 -11q2 -12 2 -37q0 -119 -84 -299h-90q-35 129 -35 224q0 61 18 123h127zM244 1190q119 0 258 -57l-10 -89q-154 -55 -263 -55q-54 0 -90 8v56l19 129q54 8 86 8zM913 1190q46 0 91 -10v-54l-19 -131q-41 -6 -86 -6q-59 0 -131.5 16.5t-126.5 38.5l10 89
q160 57 262 57zM518 1010h92q33 -100 33 -189q0 -155 -82 -315h-90q-33 100 -33 186q0 159 80 318zM182 526q59 0 131.5 -16.5t126.5 -38.5l-10 -88q-160 -57 -262 -57q-45 0 -90 10v53l18 131q41 6 86 6zM854 526q54 0 90 -8v-55l-18 -129q-54 -8 -86 -8q-119 0 -258 57
l10 88q154 55 262 55zM457 346h90q35 -129 35 -223q0 -58 -19 -123h-127l-61 10q-2 12 -2 37q0 119 84 299z" />
    <glyph glyph-name="bullet" unicode="&#x2022;" horiz-adv-x="841" 
d="M430 899q141 0 219 -78.5t78 -214.5q0 -138 -77.5 -215.5t-219.5 -77.5q-141 0 -218 77.5t-77 215.5q0 137 77 215t218 78z" />
    <glyph glyph-name="ellipsis" unicode="&#x2026;" horiz-adv-x="1536" 
d="M1266 299q68 0 98 -12q22 -42 22 -99q0 -87 -61 -188h-207l-12 272q75 27 160 27zM242 299q68 0 98 -12q22 -42 22 -99q0 -87 -61 -188h-207l-12 272q75 27 160 27zM752 299q68 0 98 -12q22 -42 22 -99q0 -87 -61 -188h-207l-12 272q75 27 160 27z" />
    <glyph glyph-name="perthousand" unicode="&#x2030;" horiz-adv-x="2449" 
d="M2093 727q140 0 209.5 -83t69.5 -222q0 -58 -11 -117t-39 -119.5t-69 -107t-107 -76t-147 -29.5q-140 0 -209.5 82.5t-69.5 223.5q0 59 11.5 117.5t39.5 119t69 107t106.5 75.5t146.5 29zM2077 633q-35 0 -78 -17q-45 -50 -67.5 -160t-22.5 -210q0 -92 26 -134t80 -42
q36 0 76 14q46 50 69 161.5t23 211.5q0 176 -106 176zM1370 1237l10 -43q-242 -283 -454.5 -585t-433.5 -652l-111 45l-16 47q571 793 798 1043l-16 16q-72 -69 -141.5 -95t-151.5 -26q-74 0 -135 17q6 -44 6 -89q0 -56 -10 -111t-35.5 -111.5t-64 -99.5t-100 -70
t-138.5 -27q-139 0 -207 82.5t-70 224.5q-2 167 82 293.5t217 154.5l43 -67q-69 -43 -110 -152.5t-41 -253.5q0 -101 24 -143.5t82 -42.5q36 0 76 14q43 48 67.5 161t24.5 212q0 54 -14 115q-45 38 -72 86q36 54 86 77h2h45q41 -54 64 -110q91 -47 201 -47q92 0 186 40
t211 142zM1333 727q140 0 209.5 -83t69.5 -222q0 -58 -11 -117t-39 -119.5t-69 -107t-107 -76t-147 -29.5q-140 0 -209 82.5t-69 223.5q0 59 11.5 117.5t39 119t68.5 107t106.5 75.5t146.5 29zM1331 84q46 50 69 161.5t23 211.5q0 176 -106 176q-35 0 -78 -17
q-45 -50 -67.5 -160t-22.5 -210q0 -92 26 -134t80 -42q36 0 76 14z" />
    <glyph glyph-name="minute" unicode="&#x2032;" horiz-adv-x="471" 
d="M496 1454l-209 -489h-156l102 512q126 28 230 28z" />
    <glyph glyph-name="second" unicode="&#x2033;" horiz-adv-x="821" 
d="M496 1454l-209 -489h-156l102 512q126 28 230 28zM899 1454l-209 -489h-155l102 512q126 28 229 28z" />
    <glyph glyph-name="uni2034" unicode="&#x2034;" horiz-adv-x="1277" 
d="M496 1454l-209 -489h-156l102 512q126 28 230 28zM899 1454l-209 -489h-155l102 512q126 28 229 28zM1303 1454l-209 -489h-156l102 512q126 28 230 28z" />
    <glyph glyph-name="guilsinglleft" unicode="&#x2039;" horiz-adv-x="636" 
d="M543 887l-187 -322l115 -332l-111 -69l-256 364v66l342 364z" />
    <glyph glyph-name="guilsinglright" unicode="&#x203a;" horiz-adv-x="632" 
d="M541 594v-66l-344 -364l-95 69l187 322l-113 332l109 71z" />
    <glyph glyph-name="fraction" unicode="&#x2044;" horiz-adv-x="483" 
d="M770 1364l12 -33q-256 -354 -475 -672q-72 -106 -222 -346.5t-232 -359.5l-101 43l-12 35q137 190 479 680q75 111 223 347t226 351z" />
    <glyph glyph-name="uni2070" unicode="&#x2070;" horiz-adv-x="753" 
d="M492 1501q139 0 206.5 -79t67.5 -216q0 -58 -11 -114.5t-37.5 -113.5t-66 -99.5t-103 -69.5t-142.5 -27q-138 0 -206.5 78.5t-68.5 218.5q0 58 11 114t38 112.5t67 99.5t103.5 69.5t141.5 26.5zM479 1419q-30 0 -57 -10q-41 -46 -65.5 -172t-24.5 -236q0 -74 19 -106.5
t67 -32.5q35 0 59 12q41 42 63.5 166.5t22.5 239.5q0 74 -18 106.5t-66 32.5z" />
    <glyph glyph-name="uni2074" unicode="&#x2074;" horiz-adv-x="647" 
d="M670 924h-90l-11 -125h-182l10 125h-286l-29 71q86 186 160 387l-25 107l148 35q57 -39 57 -107q0 -59 -44.5 -139.5t-160.5 -245.5l6 -10q112 10 129 10h56q6 59 22 170q69 40 141 51l45 -20q-9 -63 -26 -201h86l2 -43z" />
    <glyph glyph-name="uni2075" unicode="&#x2075;" horiz-adv-x="600" 
d="M322 1221q286 0 286 -205q0 -103 -74.5 -168.5t-207.5 -65.5q-131 0 -224 52l11 67q52 -8 106 -8q184 0 184 111q0 59 -53 79t-205 33l2 4l48 365l90 16q65 -28 147 -28q76 0 164 30l18 -67q-73 -115 -202 -115q-78 0 -152 33l-24 -137q50 4 86 4z" />
    <glyph glyph-name="uni2076" unicode="&#x2076;" horiz-adv-x="722" 
d="M567 1501q68 0 131 -18l-2 -68q-88 -2 -152.5 -23t-104.5 -55t-64 -85t-33 -106.5t-8 -127.5q2 -80 19.5 -118t66.5 -38q28 0 55 12q57 48 57 166q0 53 -17 73t-48 20q-27 0 -66 -13l-10 70q64 72 160 72q85 0 134.5 -54.5t49.5 -136.5q0 -50 -19.5 -99t-58.5 -92.5
t-106 -70.5t-152 -27q-268 0 -268 283q0 90 25.5 167t76.5 138t137 96t197 35z" />
    <glyph glyph-name="uni2077" unicode="&#x2077;" horiz-adv-x="616" 
d="M715 1466v-22q-8 -12 -54 -79t-72 -106.5t-65 -102.5t-67 -117t-45 -101l8 -133l-131 -35q-45 13 -67.5 46t-22.5 75q0 75 77 175.5t246 254.5h-268l-25 -86h-92q-6 54 -6 76q0 46 8.5 103t20.5 87q106 0 240 -16t202 -41l39 53q36 -6 74 -31z" />
    <glyph glyph-name="uni2078" unicode="&#x2078;" horiz-adv-x="700" 
d="M551 1171v-20q72 -29 105.5 -63t33.5 -95q0 -39 -14 -73.5t-46 -67t-95.5 -51.5t-151.5 -19q-268 0 -268 170q0 71 43 117.5t118 60.5v21q-54 28 -80 63.5t-26 90.5q0 88 69.5 142t219.5 54q254 0 254 -164q0 -39 -15 -70t-41 -50t-51.5 -29.5t-54.5 -16.5zM401 1407
q-28 -28 -28 -78q0 -33 17.5 -55t58.5 -47l26 -15q62 48 62 123q0 84 -74 84q-35 0 -62 -12zM453 877q36 31 36 86q0 37 -23.5 61.5t-84.5 54.5l-29 15q-61 -48 -61 -133q0 -99 88 -99q44 0 74 15z" />
    <glyph glyph-name="uni2079" unicode="&#x2079;" horiz-adv-x="720" 
d="M465 1501q270 0 270 -284q0 -71 -15.5 -134t-49.5 -118.5t-84.5 -96t-123.5 -63.5t-163 -23q-65 0 -131 19v67q109 2 182 29t112.5 79.5t55 118t14.5 156.5q-2 79 -20 117.5t-68 38.5q-22 0 -55 -10q-57 -48 -57 -166q0 -53 17.5 -73.5t49.5 -20.5q12 0 66 12l8 -57
q-61 -70 -158 -70q-86 0 -135 53.5t-49 134.5q0 40 11.5 79.5t38 78t64 68t94.5 47.5t126 18z" />
    <glyph glyph-name="uni2080" unicode="&#x2080;" horiz-adv-x="753" 
d="M383 549q139 0 206.5 -79t67.5 -216q0 -58 -11 -114.5t-37.5 -113.5t-66 -99.5t-103 -69.5t-142.5 -27q-138 0 -206 78.5t-68 218.5q0 58 11 114t38 113t66.5 99.5t103 69t141.5 26.5zM371 467q-31 0 -58 -10q-41 -46 -65.5 -172t-24.5 -236q0 -74 19 -106.5t67 -32.5
q36 0 60 12q41 42 63.5 166.5t22.5 239.5q0 74 -18 106.5t-66 32.5z" />
    <glyph glyph-name="uni2081" unicode="&#x2081;" horiz-adv-x="481" 
d="M393 -80v-31l-4 -32h-397v63q60 24 112 27l41 428q-52 -8 -110 -8v36l6 56q54 4 117 29.5t102 70.5l86 -16l-57 -611z" />
    <glyph glyph-name="uni2082" unicode="&#x2082;" horiz-adv-x="616" 
d="M414 59l94 -2q6 -37 6 -82q0 -92 -33 -145h-73q-187 4 -328 49l-68 -49q-27 8 -61 37l-2 27q27 22 82.5 65.5t81.5 64.5t67.5 57.5t61.5 60t43 54.5t32 60t9 59q0 51 -27.5 75t-69.5 24t-68 -23t-26 -65q0 -24 10 -66l-84 -22q-53 56 -53 120q0 80 73 135.5t193 55.5
q115 0 185.5 -52.5t70.5 -142.5q0 -91 -82.5 -180.5t-250.5 -193.5h196z" />
    <glyph glyph-name="uni2083" unicode="&#x2083;" horiz-adv-x="630" 
d="M369 211v-23q145 -19 145 -143q0 -95 -80.5 -155t-224.5 -60q-122 0 -221 51l8 70q57 -8 133 -8q97 0 137.5 25t40.5 83q0 65 -61 88q-54 -20 -103 -26l-24 18q-4 24 -4 45q0 10 1 23t1 16q23 10 73 10q15 0 43 -4q97 48 97 119q0 80 -94 80q-53 0 -77 -26.5t-24 -67.5
v-19l-84 -4q-31 53 -31 86q0 64 69 112t194 48q112 0 179.5 -45t67.5 -131q0 -41 -15 -71t-43 -48t-50 -26.5t-53 -16.5z" />
    <glyph glyph-name="uni2084" unicode="&#x2084;" horiz-adv-x="647" 
d="M561 -18h-90l-10 -125h-182l10 125h-287l-29 71q86 186 160 387l-24 107l147 35q57 -39 57 -107q0 -59 -44.5 -140t-159.5 -245l6 -10q113 10 129 10h55q3 28 23 170q69 40 141 51l45 -20q-15 -102 -27 -201h86l2 -43z" />
    <glyph glyph-name="uni2085" unicode="&#x2085;" horiz-adv-x="600" 
d="M213 268q138 0 212.5 -51t74.5 -154t-75 -168t-208 -65q-132 0 -223 51l10 68q52 -8 107 -8q184 0 184 110q0 59 -53.5 79.5t-204.5 33.5l2 4l47 364l90 17q67 -29 148 -29q72 0 163 31l19 -68q-72 -114 -203 -114q-79 0 -151 32l-25 -137q50 4 86 4z" />
    <glyph glyph-name="uni2086" unicode="&#x2086;" horiz-adv-x="722" 
d="M459 549q65 0 131 -19l-2 -67q-88 -2 -153 -23t-105 -55t-64 -85t-33 -106.5t-8 -127.5q2 -80 19.5 -118t66.5 -38q29 0 56 12q57 48 57 166q0 53 -17.5 72.5t-48.5 19.5q-29 0 -65 -12l-10 70q63 71 159 71q85 0 135 -54t50 -136q0 -50 -19.5 -99t-58.5 -92.5
t-106 -70.5t-152 -27q-268 0 -268 283q0 90 25.5 167t76.5 138t137 96t197 35z" />
    <glyph glyph-name="uni2087" unicode="&#x2087;" horiz-adv-x="616" 
d="M606 514v-22q-8 -12 -54 -79t-72 -106.5t-65 -102.5t-67 -117t-45 -101l8 -133l-131 -35q-45 13 -67.5 46t-22.5 75q0 75 77.5 175t246.5 255h-269l-24 -86h-92q-6 54 -6 75q0 47 8 104t20 87q106 0 240.5 -16t202.5 -41l38 53q36 -6 74 -31z" />
    <glyph glyph-name="uni2088" unicode="&#x2088;" horiz-adv-x="700" 
d="M442 219v-20q72 -29 106 -63t34 -95q0 -30 -8 -58t-29.5 -56.5t-55 -49.5t-89 -34t-126.5 -13q-268 0 -268 170q0 71 43.5 117.5t118.5 60.5v21q-54 28 -80.5 63.5t-26.5 89.5q0 89 70 143t219 54q254 0 254 -164q0 -39 -15 -70t-41 -50t-51.5 -29.5t-54.5 -16.5z
M293 455q-29 -29 -29 -78q0 -34 17.5 -56t58.5 -47l27 -14q61 47 61 123q0 84 -74 84q-34 0 -61 -12zM344 -76q37 32 37 86q0 37 -24 62t-85 55l-28 14q-62 -49 -62 -133q0 -98 88 -98q46 0 74 14z" />
    <glyph glyph-name="uni2089" unicode="&#x2089;" horiz-adv-x="720" 
d="M356 549q271 0 271 -285q0 -89 -25.5 -165.5t-77 -137.5t-137.5 -96t-197 -35q-68 0 -131 18v68q88 2 152.5 20.5t105 50.5t65 80.5t34 104t8.5 127.5q-2 79 -20 117.5t-68 38.5q-18 0 -55 -11q-58 -49 -58 -165q0 -53 18 -74t50 -21q11 0 22.5 2t24.5 6t18 5l9 -58
q-61 -69 -158 -69q-86 0 -135 53.5t-49 134.5q0 50 19.5 99.5t57.5 93.5t104.5 71t151.5 27z" />
    <glyph glyph-name="Euro" unicode="&#x20ac;" horiz-adv-x="1148" 
d="M653 1092q-99 -77 -157 -277h295v-39l-9 -78h-313q-13 -66 -16 -166h307v-38l-8 -78h-295q15 -141 78 -205t176 -64q159 0 317 113l25 -94q-181 -191 -420 -191q-199 0 -309.5 118t-128.5 323h-129v39l8 77h116q3 77 19 166h-113v39l8 78h136q61 195 192 316.5t320 121.5
q98 0 170 -34l2 18q70 18 137 18l53 -38q4 -28 4 -58q0 -130 -41 -291h-143l-21 246q-55 12 -106 12q-82 0 -154 -34z" />
    <glyph glyph-name="uni20B9" unicode="&#x20b9;" horiz-adv-x="892" 
d="M909 1225v-39l-10 -76h-256l-4 -23q99 -42 115 -145h125v-39l-11 -76h-110q-6 -59 -27 -111t-62 -99.5t-112.5 -79.5t-167.5 -41l-10 -43q27 -24 53.5 -52t46 -50t45 -55t38.5 -50t39.5 -54t35.5 -49l121 7l8 -107q-105 -63 -227 -63q-74 0 -128 27.5t-104 92.5
q-81 94 -227 400l20 88h246q112 75 133 239h-387v39l8 76h383q-5 101 -84 168h-276v39l8 76h778z" />
    <glyph glyph-name="uni20BA" unicode="&#x20ba;" horiz-adv-x="1040" 
d="M752 498l147 30q76 -122 76 -252q0 -158 -111.5 -257t-324.5 -99q-102 0 -205.5 23t-181.5 57l53 485l-144 -51l-12 25l10 100l160 57l19 170l-142 -51l-12 27l10 100l158 58l33 294q124 31 219 31l31 -33l-23 -200l285 102l12 -27l-12 -98l-299 -108l-19 -170l281 102
l12 -27l-8 -98l-299 -108l-57 -525q46 -6 84 -6q286 0 286 275q0 68 -26 174z" />
    <glyph glyph-name="uni20BD" unicode="&#x20bd;" horiz-adv-x="1116" 
d="M494 559l-19 -166h397v-39l-8 -78h-401l-19 -155l166 -12v-50l-8 -59h-559v98q61 30 150 41l14 137h-174v39l8 78h180l19 166h-172v39l8 78h176l47 428l-141 16v49l8 58q229 14 479 14q235 0 338.5 -70t103.5 -231q0 -57 -12 -107.5t-43.5 -102t-81.5 -88.5t-132 -60
t-189 -23h-135zM506 676h84q101 0 164 37q71 104 71 227q0 90 -44.5 131t-143.5 41h-82z" />
    <glyph glyph-name="afii61289" unicode="&#x2113;" horiz-adv-x="778" 
d="M346 135q162 0 313 70l21 -96q-152 -129 -350 -129q-215 0 -215 196q0 12 4 78q-66 -29 -117 -41l-12 102q71 25 139 60q30 309 78 639q13 93 29.5 165t46.5 142.5t70.5 116.5t101 74t137.5 28q105 0 153 -53t48 -174q0 -92 -24.5 -213t-73.5 -257.5t-136.5 -270
t-198.5 -222.5q-12 -162 -14 -215zM526 1415q-26 -55 -41 -127t-47 -309q-40 -283 -59 -467q128 151 200 389t72 422q0 57 -12.5 83t-50.5 26q-28 0 -62 -17z" />
    <glyph glyph-name="afii61352" unicode="&#x2116;" horiz-adv-x="2060" 
d="M1423 1260l-221 -72q-21 -48 -38.5 -114.5t-31 -159.5t-23.5 -166.5t-20 -196t-14.5 -184t-13 -193.5t-10.5 -166q-98 -28 -203 -31l-41 7q-64 155 -136 313t-146.5 314t-106.5 227h-25q2 -80 -1 -249t-13 -267q-6 -74 -20 -131t-42.5 -109t-80 -80.5t-123.5 -28.5
q-106 0 -154 62l21 123h200q41 93 71 343.5t36 518.5l-137 213l36 63q106 27 215 27q137 -214 282.5 -505.5t250.5 -545.5h22q0 46 -1 143t-1 156q0 61 1 109.5t5 118.5t11 125.5t20 121t31 115t45 98.5t61 80t80 50.5t101 19.5q53 0 98 -25zM1726 1231q146 0 221.5 -80
t75.5 -231q0 -81 -22.5 -154t-67 -133t-120.5 -95.5t-173 -35.5q-145 0 -221 79.5t-76 231.5q0 65 14 124.5t44.5 113.5t74.5 93.5t108.5 63t141.5 23.5zM1735 627q75 93 75 307q0 92 -21.5 142t-74.5 50q-42 0 -86 -20q-76 -91 -76 -303q0 -95 22 -146t77 -51q43 0 84 21z
M1618 274q43 0 90 -14q21 -41 21 -92q0 -76 -56 -168h-194l-13 248q84 26 152 26z" />
    <glyph glyph-name="uni2117" unicode="&#x2117;" horiz-adv-x="1579" 
d="M844 1389q306 0 489 -168.5t183 -481.5q0 -156 -48.5 -293.5t-140.5 -243.5t-237 -167.5t-326 -61.5q-309 0 -485 171t-177 479q-1 125 28 238t90 209.5t147.5 167.5t209 111t267.5 40zM772 90q143 0 256.5 53t183.5 144t106 205t36 243q0 258 -140.5 397.5t-377.5 139.5
q-116 0 -212 -35.5t-162 -96.5t-111 -143.5t-66 -174.5t-21 -193q0 -261 136 -400t372 -139zM850 1075q338 0 338 -239q0 -134 -76.5 -206.5t-198.5 -72.5q-26 0 -84 8v80q60 5 105 19q47 60 47 186q0 70 -24.5 102.5t-100.5 32.5h-35l-63 -612l116 -11v-36l-4 -45h-411v75
q38 22 112 31l58 582l-107 10v37l6 45q201 14 322 14z" />
    <glyph glyph-name="trademark" unicode="&#x2122;" horiz-adv-x="1716" 
d="M526 1276l-61 -600l84 -10v-33l-4 -45h-361v76q44 17 99 24l63 594h-104l-47 -156l-95 9q-2 23 -2 61q0 89 33 184l35 6l274 -24h191q70 20 94 20l37 -20v-45q0 -89 -25 -187h-96l-12 140zM1749 1362v-72q-39 -13 -90 -20q-16 -354 -37 -598l78 -8v-31l-6 -45h-340v76
q36 15 90 22q46 464 55 576h-20q-21 -52 -222 -627q-77 -23 -122 -27l-39 21q-95 614 -97 633h-22l-66 -588l95 -10v-31l-5 -45h-286v76q46 18 98 24q58 446 84 592l-86 8v33l4 41q139 10 334 10q49 -230 80 -551h22q94 331 185 541h313z" />
    <glyph glyph-name="Omega" unicode="&#x2126;" horiz-adv-x="1394" 
d="M1204 354l139 -12q5 -73 5 -88q0 -117 -39 -254h-557l34 350q265 141 265 537q0 172 -62.5 267t-212.5 95q-84 0 -176 -39q-83 -52 -140 -191.5t-57 -299.5q0 -272 179 -369l-35 -350h-543h-2q-15 195 27 342l145 12l21 -161l245 -23l13 131q-68 22 -125.5 57.5t-106 88
t-77 128.5t-29.5 168q-1 94 22.5 184t77 174t131.5 148t195 102t258 38q262 0 402 -130t140 -364q0 -90 -23 -177t-71.5 -171t-136 -151.5t-205.5 -102.5l-12 -123l258 23z" />
    <glyph glyph-name="estimated" unicode="&#x212e;" horiz-adv-x="1300" 
d="M287 502v-287q65 -92 169.5 -138t225.5 -46q139 0 251.5 55.5t188.5 138.5l27 -41q-81 -99 -203 -155t-268 -56q-168 0 -306 73t-216 198t-78 276q0 149 77 274.5t209.5 198t288.5 72.5t288 -72.5t209 -197.5t77 -273v-20h-940zM653 1010q-108 0 -205 -48.5t-161 -136.5
v-272h729v272q-64 91 -159.5 138t-203.5 47z" />
    <glyph glyph-name="uni2150" unicode="&#x2150;" horiz-adv-x="1714" 
d="M1309 1364l12 -33q-256 -354 -475 -672q-72 -106 -222.5 -346.5t-232.5 -359.5l-100 43l-12 35q137 190 479 680q75 111 222.5 347t225.5 351zM532 608l-2 -33l-4 -36h-458v69q64 24 145 31l57 547q-68 -15 -143 -15v41l6 58q64 3 135.5 33.5t118.5 85.5l86 -17l-78 -749
zM1729 807l8 -25q-306 -387 -381 -616l12 -172l-133 -37q-94 41 -94 139q-1 92 95.5 222t307.5 346h-334l-28 -107h-97q-8 33 -8 90q0 107 33 197q125 0 273 -17t227 -45l43 56q45 -7 76 -31z" />
    <glyph glyph-name="uni2151" unicode="&#x2151;" horiz-adv-x="1730" 
d="M1309 1364l12 -33q-256 -354 -475 -672q-72 -106 -222.5 -346.5t-232.5 -359.5l-100 43l-12 35q137 190 479 680q75 111 222.5 347t225.5 351zM532 608l-2 -33l-4 -36h-458v69q64 24 145 31l57 547q-68 -15 -143 -15v41l6 58q64 3 135.5 33.5t118.5 85.5l86 -17l-78 -749
zM1362 844q299 0 299 -338q0 -103 -29.5 -196t-88.5 -169.5t-159.5 -122t-230.5 -45.5q-72 0 -135 17l-2 73q101 0 178.5 24.5t127 66.5t80.5 105t43.5 133.5t12.5 158.5q0 44 -4 76.5t-16 64t-36 48t-61 16.5q-32 0 -69 -15q-78 -69 -78 -200q0 -125 92 -125q34 0 86 18
l12 -72q-71 -79 -182 -79q-98 0 -154.5 60.5t-56.5 164.5q0 65 23.5 124.5t68.5 107t117 76t162 28.5z" />
    <glyph glyph-name="uni2152" unicode="&#x2152;" horiz-adv-x="2379" 
d="M1309 1364l12 -33q-256 -354 -475 -672q-72 -106 -222.5 -346.5t-232.5 -359.5l-100 43l-12 35q137 190 479 680q75 111 222.5 347t225.5 351zM532 608l-2 -33l-4 -36h-458v69q64 24 145 31l57 547q-68 -15 -143 -15v41l6 58q64 3 135.5 33.5t118.5 85.5l86 -17l-78 -749
zM2007 844q153 0 227 -95t74 -257q0 -68 -12.5 -136.5t-42.5 -138.5t-74.5 -123.5t-114.5 -87t-157 -33.5q-151 0 -226 95t-75 258q0 69 12.5 137.5t42.5 138t74.5 122.5t114.5 86.5t157 33.5zM1995 756q-35 0 -78 -17q-51 -58 -81 -208t-30 -281q0 -100 26.5 -144.5
t88.5 -44.5q40 0 74 17q52 55 81 204.5t29 284.5q0 97 -25.5 143t-84.5 46zM1493 70l-2 -33l-4 -37h-459v70q60 22 146 30l57 547q-63 -14 -144 -14v41l7 57q64 3 135.5 33.5t118.5 85.5l86 -16l-78 -750z" />
    <glyph glyph-name="onethird" unicode="&#x2153;" horiz-adv-x="1695" 
d="M1309 1364l12 -33q-256 -354 -475 -672q-72 -106 -222.5 -346.5t-232.5 -359.5l-100 43l-12 35q137 190 479 680q75 111 222.5 347t225.5 351zM532 608l-2 -33l-4 -36h-458v69q64 24 145 31l57 547q-68 -15 -143 -15v41l6 58q64 3 135.5 33.5t118.5 85.5l86 -17l-78 -749
zM1430 434v-22q87 -15 127 -57t40 -119q0 -118 -91 -190.5t-255 -72.5q-137 0 -245 54l10 71q63 -8 127 -8q136 0 192 39.5t56 114.5q0 42 -19 68t-69 44q-51 -19 -113 -30l-25 20q-8 19 -8 49q0 25 6 43q27 15 88 15q21 0 45 -4q121 68 121 163q0 97 -117 97
q-71 0 -102 -35.5t-31 -91.5v-25l-86 -4q-30 53 -30 96q0 79 77 137t209 58q130 0 206.5 -58t76.5 -155q0 -148 -190 -197z" />
    <glyph glyph-name="twothirds" unicode="&#x2154;" horiz-adv-x="1841" 
d="M1454 1364l12 -33q-256 -354 -475 -672q-72 -106 -222 -346.5t-232 -359.5l-101 43l-12 35q137 190 479 680q75 111 223 347t226 351zM557 770l96 -2q9 -47 9 -86q0 -99 -37 -164h-82q-88 0 -196 15.5t-181 39.5l-72 -53q-38 10 -65 37l-2 29q10 8 31 25q195 155 270 232
q147 151 147 277q0 127 -121 127q-54 0 -87.5 -29t-33.5 -85q0 -31 13 -78l-82 -27q-60 63 -60 135q0 96 81.5 161t211.5 65q127 0 206 -64t79 -170q0 -117 -100.5 -233t-298.5 -248h249zM1575 434v-22q87 -15 127.5 -57t40.5 -119q0 -118 -91 -190.5t-255 -72.5
q-138 0 -246 54l10 71q63 -8 127 -8q136 0 192 39.5t56 114.5q0 42 -19 68t-69 44q-51 -19 -113 -30l-24 20q-8 19 -8 49q0 25 6 43q27 15 88 15q21 0 45 -4q121 68 121 163q0 97 -117 97q-71 0 -102 -35.5t-31 -91.5v-25l-86 -4q-31 54 -31 96q0 79 77 137t210 58
q130 0 206 -58t76 -155q0 -148 -190 -197z" />
    <glyph glyph-name="uni2155" unicode="&#x2155;" horiz-adv-x="1605" 
d="M1309 1364l12 -33q-256 -354 -475 -672q-72 -106 -222.5 -346.5t-232.5 -359.5l-100 43l-12 35q137 190 479 680q75 111 222.5 347t225.5 351zM532 608l-2 -33l-4 -36h-458v69q64 24 145 31l57 547q-68 -15 -143 -15v41l6 58q64 3 135.5 33.5t118.5 85.5l86 -17l-78 -749
zM1188 502q162 0 250 -59.5t88 -176.5q0 -123 -90.5 -208t-245.5 -85q-138 0 -238 54l11 71q60 -8 116 -8q127 0 183.5 44.5t56.5 115.5q0 74 -66 101t-245 40h-2l53 432l96 21q80 -35 168 -35q93 0 193 35l20 -68q-86 -125 -233 -125q-93 0 -173 39l-32 -192q58 4 90 4z
" />
    <glyph glyph-name="uni2156" unicode="&#x2156;" horiz-adv-x="1751" 
d="M1454 1364l12 -33q-256 -354 -475 -672q-72 -106 -222 -346.5t-232 -359.5l-101 43l-12 35q137 190 479 680q75 111 223 347t226 351zM557 770l96 -2q9 -47 9 -86q0 -99 -37 -164h-82q-88 0 -196 15.5t-181 39.5l-72 -53q-38 10 -65 37l-2 29q10 8 31 25q195 155 270 232
q147 151 147 277q0 127 -121 127q-54 0 -87.5 -29t-33.5 -85q0 -31 13 -78l-82 -27q-60 63 -60 135q0 96 81.5 161t211.5 65q127 0 206 -64t79 -170q0 -117 -100.5 -233t-298.5 -248h249zM1333 502q162 0 250 -59.5t88 -176.5q0 -123 -90.5 -208t-245.5 -85q-137 0 -237 54
l10 71q60 -8 117 -8q127 0 183 44.5t56 115.5q0 74 -66 101t-245 40h-2l53 432l96 21q80 -35 168 -35q93 0 193 35l20 -68q-86 -125 -233 -125q-92 0 -172 39l-33 -192q58 4 90 4z" />
    <glyph glyph-name="uni2157" unicode="&#x2157;" horiz-adv-x="1708" 
d="M1411 1364l12 -33q-256 -354 -475 -672q-72 -106 -222 -346.5t-232 -359.5l-101 43l-12 35q137 190 479 680q75 111 223 347t226 351zM492 979v-23q87 -15 127 -57t40 -119q0 -117 -91 -189.5t-255 -72.5q-139 0 -245 53l10 72q63 -8 127 -8q136 0 192 39t56 114
q0 42 -19 68.5t-69 44.5q-56 -21 -113 -31l-25 21q-8 19 -8 49q0 25 6 43q25 14 88 14q21 0 45 -4q121 68 121 164t-117 96q-71 0 -102 -35.5t-31 -91.5v-24l-86 -4q-30 52 -30 96q0 79 77 137t209 58q130 0 206.5 -58t76.5 -155q0 -148 -190 -197zM1290 502
q162 0 250 -59.5t88 -176.5q0 -123 -90.5 -208t-245.5 -85q-137 0 -237 54l10 71q60 -8 117 -8q127 0 183 44.5t56 115.5q0 74 -66 101t-245 40h-2l53 432l96 21q80 -35 168 -35q93 0 193 35l20 -68q-86 -125 -233 -125q-92 0 -172 39l-33 -192q58 4 90 4z" />
    <glyph glyph-name="uni2158" unicode="&#x2158;" horiz-adv-x="1775" 
d="M1479 1364l12 -33q-256 -354 -475 -672q-72 -106 -222.5 -346.5t-232.5 -359.5l-100 43l-12 35q137 190 479 680q75 111 222.5 347t225.5 351zM727 819v-45l-8 -72h-111l-14 -163h-182q8 110 14 163h-338l-31 78q139 278 203 445l-33 147l148 43q74 -52 74 -133
q0 -63 -55.5 -161t-198.5 -300l6 -14q106 12 151 12h86q13 115 29 215q61 36 143 51l43 -20q-14 -96 -32 -246h106zM1358 502q162 0 250 -59.5t88 -176.5q0 -123 -90.5 -208t-245.5 -85q-138 0 -238 54l11 71q60 -8 116 -8q127 0 183.5 44.5t56.5 115.5q0 74 -66 101
t-245 40h-2l53 432l96 21q80 -35 168 -35q93 0 193 35l20 -68q-86 -125 -233 -125q-93 0 -173 39l-32 -192q58 4 90 4z" />
    <glyph glyph-name="uni2159" unicode="&#x2159;" horiz-adv-x="1669" 
d="M1309 1364l12 -33q-256 -354 -475 -672q-72 -106 -222.5 -346.5t-232.5 -359.5l-100 43l-12 35q137 190 479 680q75 111 222.5 347t225.5 351zM532 608l-2 -33l-4 -36h-458v69q64 24 145 31l57 547q-68 -15 -143 -15v41l6 58q64 3 135.5 33.5t118.5 85.5l86 -17l-78 -749
zM1430 844q74 0 137 -17l2 -73q-126 0 -214.5 -36t-137.5 -104.5t-70 -152.5t-21 -195q0 -44 4 -76.5t16 -64t36 -48t61 -16.5q29 0 70 15q76 67 76 200q0 68 -24 95.5t-69 27.5q-40 0 -86 -16l-12 70q69 79 182 79q98 0 154.5 -59.5t56.5 -163.5q0 -65 -23.5 -124.5
t-68 -107t-116.5 -76t-162 -28.5q-299 0 -299 336q0 104 30 197t89 170t159.5 122.5t229.5 45.5z" />
    <glyph glyph-name="uni215A" unicode="&#x215a;" horiz-adv-x="1732" 
d="M1372 1364l12 -33q-256 -354 -475 -672q-72 -106 -222 -346.5t-232 -359.5l-101 43l-12 35q137 190 479 680q75 111 223 347t226 351zM309 1047q162 0 250 -59.5t88 -176.5q0 -123 -90.5 -208t-245.5 -85q-139 0 -237 53l10 72q60 -8 117 -8q127 0 183 44.5t56 115.5
q0 74 -66 101t-245 40h-2l53 432l96 21q80 -35 168 -35q93 0 193 35l20 -68q-86 -125 -233 -125q-92 0 -172 39l-33 -193q73 5 90 5zM1493 844q74 0 137 -17l2 -73q-101 0 -178.5 -24.5t-127 -66.5t-80.5 -105t-43.5 -133.5t-12.5 -158.5q0 -44 4 -76.5t16 -64t36 -48
t61 -16.5q29 0 69 15q76 67 76 200q0 68 -23.5 95.5t-68.5 27.5q-40 0 -86 -16l-12 70q69 79 182 79q98 0 154.5 -59.5t56.5 -163.5q0 -65 -23.5 -124.5t-68.5 -107t-117 -76t-162 -28.5q-299 0 -299 336q0 104 30 197t89 170t159.5 122.5t229.5 45.5z" />
    <glyph glyph-name="oneeighth" unicode="&#x215b;" horiz-adv-x="1708" 
d="M1309 1364l12 -33q-256 -354 -475 -672q-72 -106 -222.5 -346.5t-232.5 -359.5l-100 43l-12 35q137 190 479 680q75 111 222.5 347t225.5 351zM532 608l-2 -33l-4 -36h-458v69q64 24 145 31l57 547q-68 -15 -143 -15v41l6 58q64 3 135.5 33.5t118.5 85.5l86 -17l-78 -749
zM1448 455v-23q81 -36 122.5 -81t41.5 -118q0 -46 -17 -89t-54.5 -83t-109 -64t-169.5 -24q-141 0 -219 51.5t-78 157.5q0 166 198 224v22q-66 32 -99.5 73t-33.5 107q0 103 82 169.5t246 66.5q130 0 206 -47.5t76 -145.5q0 -37 -12 -67t-28.5 -49t-45 -35.5t-50.5 -25
t-56 -19.5zM1278 737q-45 -42 -45 -102q0 -45 24.5 -72.5t75.5 -56.5l37 -19q49 40 70.5 74.5t21.5 87.5q0 54 -23.5 80.5t-74.5 26.5q-50 0 -86 -19zM1360 80q23 20 37 55t14 72q0 51 -29 81t-96 62l-43 21q-52 -39 -76 -83t-24 -104q0 -123 119 -123q55 0 98 19z" />
    </font>
</defs>
</svg>
