<?xml version="1.0" standalone="no"?>
<!DOCTYPE svg PUBLIC "-//W3C//DTD SVG 1.1//EN" "http://www.w3.org/Graphics/SVG/1.1/DTD/svg11.dtd" >
<svg xmlns="http://www.w3.org/2000/svg" xmlns:xlink="http://www.w3.org/1999/xlink" version="1.1">
<metadata>
Created by FontForge 20170731 at Wed Sep  8 12:20:55 2021
 By Aleksey,,,
2014 published by FontShop International GmbH
</metadata>
<defs>
<font id="FranziskaPro-BoldItalic" horiz-adv-x="1259" >
  <font-face 
    font-family="FranziskaPro-BoldItalic"
    font-weight="700"
    font-style="italic"
    font-stretch="normal"
    units-per-em="2048"
    panose-1="2 1 8 4 5 1 1 1 1 2"
    ascent="1612"
    descent="-436"
    x-height="1067"
    cap-height="1362"
    bbox="-1239 -571 2664 1987"
    underline-thickness="153"
    underline-position="-357"
    slope="-6.5"
    unicode-range="U+000D-1F44E"
  />
<missing-glyph horiz-adv-x="1417" 
d="M1286 1362l-133 -1362h-985l133 1362h985zM1122 1217h-624l534 -947zM336 145h612l-524 932z" />
    <glyph glyph-name="T_h" unicode="Th" horiz-adv-x="2211" 
d="M2146 186l15 -102q-153 -107 -293 -107q-160 0 -160 148q0 64 49 330t49 333q0 46 -18.5 67.5t-61.5 21.5q-15 0 -45 -3q-155 -227 -319 -874q-100 -23 -213 -23l-55 56l145 1231q-36 -35 -96.5 -51.5t-118.5 -16.5q-64 0 -186 18l-103 -1085l135 -16v-52l-8 -61h-612
v111q70 31 178 43l104 1079h-178l-82 -246l-161 10q-5 73 -5 90q0 148 50 304l65 6l477 -35h263q182 0 294 41l13 104q130 32 227 35l55 -53l-55 -434q-19 -149 -94 -531l22 -4q44 133 77.5 217.5t71 154.5t78 106.5t89.5 55.5t114 19q240 0 240 -239q0 -61 -18 -191
t-33 -216.5t-49 -279.5q57 0 153 39z" />
    <glyph glyph-name="T_k" unicode="Tk" horiz-adv-x="2207" 
d="M2134 186l14 -104q-127 -105 -274 -105q-48 0 -82 12.5t-57.5 39.5t-37.5 56.5t-30 76.5q-53 144 -65 282l94 31q56 62 90.5 147.5t34.5 161.5q0 50 -20.5 71.5t-69.5 21.5q-25 0 -48 -5q-154 -224 -321 -872q-97 -23 -213 -23l-55 56l145 1231q-36 -35 -96.5 -51.5
t-118.5 -16.5q-64 0 -186 18l-103 -1085l135 -16v-52l-8 -61h-612v111q70 31 178 43l104 1079h-178l-82 -246l-161 10q-5 73 -5 90q0 148 50 304l65 6l477 -35h263q182 0 294 41l13 104q130 32 227 35l55 -53l-55 -434q-19 -149 -94 -531l22 -4q56 170 101 271.5t96.5 167.5
t107.5 90t136 24q129 0 197.5 -60.5t68.5 -181.5q0 -125 -71.5 -219.5t-190.5 -146.5q71 -195 123 -315q65 3 143 36z" />
    <glyph glyph-name="T_l" unicode="Tl" horiz-adv-x="1609" 
d="M1559 184l14 -102q-151 -105 -293 -105q-170 0 -170 160q0 51 15.5 193.5t54 454t57.5 477.5q-69 -66 -213 -66q-64 0 -186 18l-103 -1085l135 -16v-52l-8 -61h-612v111q70 31 178 43l104 1079h-178l-82 -246l-161 10q-5 73 -5 90q0 148 50 304l65 6l477 -35h263
q177 0 292 39l13 106q140 35 231 35l53 -53q-20 -172 -61 -485.5t-68 -536t-32 -320.5q69 0 170 37z" />
    <glyph glyph-name="Tbar_h" unicode="&#x166;h" horiz-adv-x="2211" 
d="M2146 186l15 -102q-153 -107 -293 -107q-160 0 -160 148q0 64 49 330t49 333q0 46 -18.5 67.5t-61.5 21.5q-15 0 -45 -3q-155 -227 -319 -874q-100 -23 -213 -23l-55 56l145 1231q-36 -35 -96.5 -51.5t-118.5 -16.5q-64 0 -186 18l-52 -542h230v-51l-15 -91h-229
l-37 -401l135 -16v-52l-8 -61h-612v111q70 31 178 43l37 376h-221v50l14 92h221l53 561h-178l-82 -246l-161 10q-5 73 -5 90q0 148 50 304l65 6l477 -35h263q182 0 294 41l13 104q130 32 227 35l55 -53l-55 -434q-19 -149 -94 -531l22 -4q44 133 77.5 217.5t71 154.5
t78 106.5t89.5 55.5t114 19q240 0 240 -239q0 -61 -18 -191t-33 -216.5t-49 -279.5q57 0 153 39z" />
    <glyph glyph-name="Tcaron_h" unicode="&#x164;h" horiz-adv-x="2211" 
d="M2146 186l15 -102q-153 -107 -293 -107q-160 0 -160 148q0 64 49 330t49 333q0 46 -18.5 67.5t-61.5 21.5q-15 0 -45 -3q-155 -227 -319 -874q-100 -23 -213 -23l-55 56l145 1231q-36 -35 -96.5 -51.5t-118.5 -16.5q-64 0 -186 18l-103 -1085l135 -16v-52l-8 -61h-612
v111q70 31 178 43l104 1079h-178l-82 -246l-161 10q-5 73 -5 90q0 148 50 304l65 6l477 -35h263q182 0 294 41l13 104q130 32 227 35l55 -53l-55 -434q-19 -149 -94 -531l22 -4q44 133 77.5 217.5t71 154.5t78 106.5t89.5 55.5t114 19q240 0 240 -239q0 -61 -18 -191
t-33 -216.5t-49 -279.5q57 0 153 39zM762 1663h20l189 168h125l-320 -361h-172l-192 297l184 91z" />
    <glyph glyph-name="f_b" unicode="fb" horiz-adv-x="1814" 
d="M1481 1073q65 0 112.5 -17t84.5 -57.5t56 -113.5t19 -180q0 -106 -18 -205t-62 -196.5t-110 -169.5t-170.5 -116.5t-235.5 -44.5q-97 0 -217.5 20.5t-214.5 49.5l154 1321q-88 28 -193 31q-65 0 -119 -11q-50 -119 -78 -360h183v-66l-19 -73h-176l-80 -832
q-24 -257 -114.5 -373t-249.5 -116q-80 0 -161.5 27t-143.5 79l26 107q175 -49 295 -49q41 99 57 270l87 870l-130 23v104q71 23 144 35q31 255 149 382.5t318 127.5q135 0 233 -53q117 49 217 55l56 -53l-58 -445q-19 -144 -100 -528l25 -6q37 114 65.5 191t60.5 144.5
t62.5 107.5t68.5 68.5t80 40t97 11.5zM1280 123q79 115 120.5 283.5t41.5 318.5q0 87 -19 119.5t-67 32.5q-2 0 -47 -5q-64 -94 -129 -266.5t-148 -476.5q80 -25 142 -25q51 0 106 19z" />
    <glyph glyph-name="f_f" unicode="ff" horiz-adv-x="1249" 
d="M1518 1266l-340 82q-33 -12 -58 -27q-14 -109 -14 -297h207v-66l-19 -73h-194l-80 -832q-25 -246 -138.5 -352.5t-318.5 -106.5q-181 0 -299 80q-96 -110 -246 -110q-164 0 -290 106l26 107q175 -49 295 -49q41 99 57 270l87 870l-130 23v104q71 23 144 35
q17 135 55 229.5t98 149t133.5 78.5t170.5 24q202 0 323 -100q128 131 334 131q162 0 248 -80zM680 1366q-58 0 -129 -18q-38 -102 -59 -324h296l39 4q23 178 93 293q-120 45 -240 45zM545 -260q57 0 131 18q35 93 55 275l82 839l-100 13h-234l-80 -832q-14 -158 -69 -276
q106 -37 215 -37z" />
    <glyph glyph-name="f_f_b" unicode="ffb" horiz-adv-x="2439" 
d="M2105 1073q65 0 112.5 -17t85 -57.5t56.5 -114t19 -179.5t-18 -205t-62 -196.5t-110 -169.5t-170.5 -116.5t-235.5 -44.5q-97 0 -220 21t-216 49l153 1323q-91 26 -192 29q-69 0 -117 -13q-53 -116 -78 -358h178v-66l-16 -73h-176l-78 -832q-24 -245 -137.5 -352
t-319.5 -107q-181 0 -299 80q-96 -110 -246 -110q-164 0 -290 106l26 107q175 -49 295 -49q41 99 57 270l87 870l-130 23v104q71 23 144 35q17 135 55 229.5t98 149t133.5 78.5t170.5 24q195 0 317 -94q117 123 313 123q136 0 234 -53q113 49 217 55l55 -53l-57 -445
q-9 -69 -23.5 -154t-24.5 -137.5t-27.5 -137.5t-20.5 -99l24 -6q44 136 78 224t71.5 158t78.5 107t90.5 55.5t115.5 18.5zM680 1366q-58 0 -129 -18q-38 -102 -59 -324h296l39 4q21 177 86 295q-120 43 -233 43zM545 -260q57 0 131 18q40 99 55 275l82 839l-100 13h-234
l-80 -832q-14 -158 -69 -276q106 -37 215 -37zM1905 123q79 115 120 283.5t41 318.5q0 87 -18 119.5t-66 32.5q-5 0 -45 -5q-64 -89 -127.5 -259.5t-150.5 -485.5q74 -23 139 -23q56 0 107 19z" />
    <glyph glyph-name="f_f_h" unicode="ffh" horiz-adv-x="2461" 
d="M2396 186l14 -102q-153 -107 -292 -107q-160 0 -160 148q0 64 49 330t49 333q0 46 -18.5 67.5t-61.5 21.5q-17 0 -41 -3q-158 -223 -323 -874q-100 -23 -213 -23l-56 56l156 1333q-91 26 -192 29q-69 0 -117 -13q-53 -116 -78 -358h178v-66l-16 -73h-176l-78 -832
q-24 -245 -137.5 -352t-319.5 -107q-181 0 -299 80q-96 -110 -246 -110q-164 0 -290 106l26 107q175 -49 295 -49q41 99 57 270l87 870l-130 23v104q71 23 144 35q17 135 55 229.5t98 149t133.5 78.5t170.5 24q195 0 317 -94q117 123 313 123q136 0 234 -53q113 49 215 55
l57 -53l-57 -445q-18 -144 -92 -520l22 -4q44 133 77.5 217.5t71 154.5t78 106.5t89.5 55.5t114 19q240 0 240 -239q0 -61 -18 -191t-33 -216.5t-49 -279.5q57 0 153 39zM680 1366q-58 0 -129 -18q-38 -102 -59 -324h296l39 4q21 177 86 295q-120 43 -233 43zM545 -260
q57 0 131 18q40 99 55 275l82 839l-100 13h-234l-80 -832q-14 -158 -69 -276q106 -37 215 -37z" />
    <glyph glyph-name="f_f_i" unicode="ffi" horiz-adv-x="1843" 
d="M1790 186l14 -102q-149 -107 -280 -107q-83 0 -124.5 35t-41.5 115q0 116 90 758h-348l-80 -832q-25 -246 -138.5 -352.5t-318.5 -106.5q-181 0 -299 80q-96 -110 -246 -110q-164 0 -290 106l26 107q175 -49 295 -49q41 99 57 270l87 870l-130 23v104q71 23 144 35
q17 135 55 229.5t98 149t133.5 78.5t170.5 24q200 0 327 -102q133 133 379 133q308 0 385 -199l-139 -157l-283 223q-86 3 -157 -25q-50 -160 -66 -360h305q159 36 281 39l51 -51q-66 -559 -107 -865q54 0 150 39zM680 1366q-58 0 -129 -18q-38 -102 -59 -324h294l43 8
q20 169 91 289q-117 45 -240 45zM545 -260q57 0 131 18q35 93 55 275l82 833l-96 19h-238l-80 -832q-14 -158 -69 -276q106 -37 215 -37z" />
    <glyph glyph-name="f_f_j" unicode="ffj" horiz-adv-x="1824" 
d="M1110 1024h305q163 36 281 41l51 -53l-121 -971q-29 -249 -118 -363t-242 -114q-122 0 -211 80l26 108q98 -21 197 -24q39 97 59 270l111 887h-348l-80 -832q-25 -246 -138.5 -352.5t-318.5 -106.5q-181 0 -299 80q-96 -110 -246 -110q-164 0 -290 106l26 107
q175 -49 295 -49q41 99 57 270l87 870l-130 23v104q71 23 144 35q17 135 55 229.5t98 149t133.5 78.5t170.5 24q200 0 327 -102q133 133 379 133q308 0 385 -199l-139 -157l-283 223q-86 3 -157 -25q-50 -160 -66 -360zM680 1366q-58 0 -129 -18q-38 -102 -59 -324h294l43 8
q20 169 91 289q-117 45 -240 45zM545 -260q57 0 131 18q35 93 55 275l82 833l-96 19h-238l-80 -832q-14 -158 -69 -276q106 -37 215 -37z" />
    <glyph glyph-name="f_f_k" unicode="ffk" horiz-adv-x="2457" 
d="M2384 184l14 -102q-127 -105 -274 -105q-90 0 -132.5 45t-74.5 140q-54 139 -66 280l95 31q56 64 90.5 149.5t34.5 159.5q0 51 -21 73t-70 22q-3 0 -43 -5q-152 -213 -325 -872q-85 -23 -213 -23l-56 54l156 1335q-91 26 -192 29q-69 0 -117 -13q-53 -116 -78 -358h178
v-66l-16 -73h-176l-78 -832q-24 -245 -137.5 -352t-319.5 -107q-181 0 -299 80q-96 -110 -246 -110q-164 0 -290 106l26 107q175 -49 295 -49q41 99 57 270l87 870l-130 23v104q71 23 144 35q17 135 55 229.5t98 149t133.5 78.5t170.5 24q195 0 317 -94q117 123 313 123
q136 0 234 -53q113 49 215 55l57 -53l-57 -445q-18 -144 -92 -520l22 -6q45 136 82 226.5t76 157t81.5 102t91.5 51.5t114 16q262 0 262 -235q0 -129 -69 -224t-191 -151q79 -217 118 -311q59 4 146 34zM680 1366q-58 0 -129 -18q-38 -102 -59 -324h296l39 4q21 177 86 295
q-120 43 -233 43zM545 -260q57 0 131 18q40 99 55 275l82 839l-100 13h-234l-80 -832q-14 -158 -69 -276q106 -37 215 -37z" />
    <glyph glyph-name="f_f_l" unicode="ffl" horiz-adv-x="1859" 
d="M1808 184l15 -102q-151 -105 -293 -105q-172 0 -172 162q0 21 2.5 57.5t8.5 93.5t12 110.5t16 138.5t18 147t21.5 167t21.5 165.5t23 176.5t22 169q-88 28 -196 31q-69 0 -117 -13q-53 -116 -78 -358h178v-66l-16 -73h-176l-78 -832q-24 -245 -137.5 -352t-319.5 -107
q-181 0 -299 80q-96 -110 -246 -110q-164 0 -290 106l26 107q175 -49 295 -49q41 99 57 270l87 870l-130 23v104q71 23 144 35q17 135 55 229.5t98 149t133.5 78.5t170.5 24q195 0 317 -94q117 123 313 123q139 0 238 -55q106 52 217 57l55 -53q-20 -169 -63 -485t-71 -537
t-32 -320q65 0 170 37zM680 1366q-58 0 -129 -18q-38 -102 -59 -324h296l39 4q21 177 86 295q-120 43 -233 43zM545 -260q57 0 131 18q40 99 55 275l82 839l-100 13h-234l-80 -832q-14 -158 -69 -276q106 -37 215 -37z" />
    <glyph glyph-name="f_h" unicode="fh" horiz-adv-x="1841" 
d="M1776 186l14 -102q-153 -107 -293 -107q-160 0 -160 148q0 64 49.5 330t49.5 333q0 46 -18.5 67.5t-61.5 21.5q-17 0 -41 -3q-159 -226 -324 -874q-100 -23 -213 -23l-55 56l156 1331q-88 28 -193 31q-65 0 -119 -11q-50 -119 -78 -360h183v-66l-19 -73h-176l-80 -832
q-24 -257 -114.5 -373t-249.5 -116q-80 0 -161.5 27t-143.5 79l26 107q175 -49 295 -49q41 99 57 270l87 870l-130 23v104q71 23 144 35q31 255 149 382.5t318 127.5q132 0 233 -53q113 49 215 55l58 -53l-58 -445q-18 -144 -92 -520l23 -4q44 133 77.5 217.5t71 154.5
t78 106.5t89.5 55.5t114 19q239 0 239 -239q0 -61 -18 -191t-33 -216.5t-49 -279.5q58 0 154 39z" />
    <glyph glyph-name="f_hbar" unicode="f&#x127;" horiz-adv-x="1841" 
d="M1776 186l14 -102q-153 -107 -293 -107q-160 0 -160 148q0 64 49.5 330t49.5 333q0 46 -18.5 67.5t-61.5 21.5q-17 0 -41 -3q-159 -226 -324 -874q-100 -23 -213 -23l-55 56l156 1331q-88 28 -193 31q-65 0 -119 -11q-50 -119 -78 -360h183v-66l-19 -73h-176l-80 -832
q-24 -257 -114.5 -373t-249.5 -116q-80 0 -161.5 27t-143.5 79l26 107q175 -49 295 -49q41 99 57 270l87 870l-130 23v104q71 23 144 35q31 255 149 382.5t318 127.5q132 0 233 -53q113 49 215 55l58 -53l-15 -117h262v-59l-16 -72h-264l-25 -197q-18 -144 -92 -520l23 -4
q44 133 77.5 217.5t71 154.5t78 106.5t89.5 55.5t114 19q239 0 239 -239q0 -61 -18 -191t-33 -216.5t-49 -279.5q58 0 154 39z" />
    <glyph glyph-name="f_i" unicode="fi" horiz-adv-x="1220" 
d="M1169 186l15 -102q-149 -107 -281 -107q-82 0 -124 35t-42 115q0 116 90 758h-348l-80 -832q-26 -257 -116.5 -373t-249.5 -116q-80 0 -161.5 27t-143.5 79l26 107q175 -49 295 -49q41 99 57 270l87 870l-130 23v104q72 23 146 35q64 512 541 512q305 0 385 -199
l-142 -157l-280 223q-87 3 -158 -25q-50 -160 -66 -360h306q167 36 280 39l51 -51q-73 -620 -106 -865q57 0 149 39z" />
    <glyph glyph-name="f_icircumflex" unicode="f&#xee;" horiz-adv-x="1222" 
d="M1020 147q53 0 149 39l15 -102q-153 -107 -281 -107q-83 0 -125.5 35t-42.5 115q0 116 90 758h-346l-80 -832q-26 -257 -116.5 -373t-249.5 -116q-80 0 -161.5 27t-143.5 79l26 107q175 -49 295 -49q41 99 57 270l87 870l-130 23v104q71 23 144 35q33 272 145.5 388
t317.5 116q135 0 245 -47l64 96h172l129 -338l-182 -74l-109 195h-18l-135 -182h-119l125 190q-75 10 -142 10q-73 3 -145 -12q-37 -96 -63 -348h303q167 36 278 39l53 -51q-40 -342 -106 -865z" />
    <glyph glyph-name="f_imacron" unicode="f&#x12b;" horiz-adv-x="1222" 
d="M1231 1268h-475q-6 18 -6 49q0 27 6 61q-40 4 -66 4q-79 0 -135 -12q-37 -97 -63 -346h303q167 36 280 39l51 -51q-73 -620 -106 -865q53 0 149 39l15 -102q-149 -107 -285 -107q-162 0 -162 148q0 118 90 760h-348l-80 -832q-26 -257 -116.5 -373t-249.5 -116
q-80 0 -161.5 27t-143.5 79l26 107q175 -49 295 -49q41 99 57 270l87 870l-130 23v104q71 23 144 35q17 139 56 237t99.5 155t135.5 82.5t172 25.5q188 0 313 -88h266q6 -18 6 -51q0 -66 -24 -123z" />
    <glyph glyph-name="f_iogonek" unicode="f&#x12f;" horiz-adv-x="1220" 
d="M1012 -293q40 0 94 14l6 -98q-89 -59 -223 -59q-113 0 -167 45t-52 115q3 150 227 237l-2 23q-23 -3 -43 0q-115 16 -115 141q0 118 90 760h-348l-80 -832q-26 -257 -116.5 -373t-249.5 -116q-80 0 -161.5 27t-143.5 79l26 107q175 -49 295 -49q41 99 57 270l87 870
l-130 23v104q72 23 146 35q64 512 541 512q305 0 385 -199l-140 -157l-282 223q-87 3 -158 -25q-50 -160 -66 -360h306q167 36 280 39l51 -51q-73 -620 -106 -865q53 0 149 39l15 -102q-132 -78 -200.5 -146t-68.5 -141q0 -44 25.5 -67t71.5 -23z" />
    <glyph glyph-name="f_j" unicode="fj" horiz-adv-x="1204" 
d="M489 1024h306q167 36 278 39l53 -51l-120 -971q-30 -249 -119.5 -363t-241.5 -114q-113 0 -225 80l41 108q94 -21 196 -24q40 100 60 270l108 887l-346 2l-80 -834q-26 -256 -116.5 -372.5t-249.5 -116.5q-80 0 -161.5 27t-143.5 79l26 109q182 -51 295 -51q41 98 57 272
l87 868l-130 23v106q89 24 146 33q33 264 169.5 388t371.5 124q307 0 383 -196l-140 -160l-282 223q-90 3 -156 -23q-50 -164 -66 -362z" />
    <glyph glyph-name="f_k" unicode="fk" horiz-adv-x="1837" 
d="M1763 184l15 -102q-127 -105 -275 -105q-90 0 -132.5 45t-74.5 140q-53 136 -65 280l94 31q56 64 90.5 149.5t34.5 159.5q0 51 -20.5 73t-69.5 22q-3 0 -43 -5q-154 -215 -326 -872q-85 -23 -213 -23l-55 56l156 1331q-88 28 -193 31q-65 0 -119 -11q-50 -119 -78 -360
h183v-66l-19 -73h-176l-80 -832q-24 -257 -114.5 -373t-249.5 -116q-80 0 -161.5 27t-143.5 79l26 107q175 -49 295 -49q41 99 57 270l87 870l-130 23v104q71 23 144 35q31 255 149 382.5t318 127.5q132 0 233 -53q113 49 215 55l58 -53l-58 -445q-18 -144 -92 -520l23 -6
q56 171 100.5 272.5t96.5 167t109 89.5t138 24q262 0 262 -235q0 -129 -69 -224t-191 -151q72 -196 119 -311q58 4 145 34z" />
    <glyph glyph-name="f_l" unicode="fl" horiz-adv-x="1239" 
d="M1188 184l14 -102q-151 -105 -293 -105q-172 0 -172 164q0 132 146 1223q-92 28 -197 31q-65 0 -119 -11q-50 -119 -78 -360h183v-66l-19 -73h-176l-80 -832q-24 -257 -114.5 -373t-249.5 -116q-80 0 -161.5 27t-143.5 79l26 107q175 -49 295 -49q41 99 57 270l87 870
l-130 23v104q71 23 144 35q31 255 149 382.5t318 127.5q138 0 237 -55q106 52 217 57l56 -53q-14 -106 -63 -469.5t-73.5 -568t-29.5 -304.5q65 0 170 37z" />
    <glyph glyph-name="f_lacute" unicode="f&#x13a;" horiz-adv-x="1239" 
d="M1147 1530h-135l125 309h161q61 -39 84 -139zM1018 147q65 0 170 37l14 -102q-151 -105 -293 -105q-172 0 -172 164q0 57 19 220t59.5 469.5t58.5 453.5q-92 30 -204 33q-58 3 -117 -10q-41 -94 -61 -283h180v-66l-19 -73h-176l-78 -832q-26 -257 -116.5 -373
t-249.5 -116q-80 0 -161.5 27t-143.5 79l26 107q175 -49 295 -49q41 99 57 270l87 870l-130 23v104q72 23 146 35q27 205 142 319.5t306 114.5q143 0 250 -63q90 35 209 41l53 -53q-21 -177 -59 -462t-63 -483.5t-29 -296.5z" />
    <glyph glyph-name="f_lcaron" unicode="f&#x13e;" horiz-adv-x="1474" 
d="M1190 184l14 -102q-151 -105 -293 -105q-172 0 -172 164q0 132 146 1223q-92 28 -197 31q-65 0 -119 -11q-49 -116 -77 -360h182v-66l-19 -73h-176l-80 -832q-24 -257 -114.5 -373t-249.5 -116q-80 0 -161.5 27t-143.5 79l26 107q175 -49 295 -49q42 102 58 270l86 870
l-129 23v104q72 23 143 35q31 255 149 382.5t318 127.5q138 0 237 -55q106 52 217 57l56 -53q-14 -106 -63 -469.5t-73.5 -568t-29.5 -304.5q65 0 170 37zM1427 1542q82 0 156 -45q-16 -130 -62.5 -232.5t-144.5 -209.5h-102l65 268v207q34 12 88 12z" />
    <glyph glyph-name="uni021A_h" unicode="&#x21a;h" horiz-adv-x="2211" 
d="M2146 186l15 -102q-153 -107 -293 -107q-160 0 -160 148q0 64 49 330t49 333q0 46 -18.5 67.5t-61.5 21.5q-15 0 -45 -3q-155 -227 -319 -874q-100 -23 -213 -23l-55 56l145 1231q-36 -35 -96.5 -51.5t-118.5 -16.5q-64 0 -186 18l-103 -1085l135 -16v-52l-8 -61h-612
v111q70 31 178 43l104 1079h-178l-82 -246l-161 10q-5 73 -5 90q0 148 50 304l65 6l477 -35h263q182 0 294 41l13 104q130 32 227 35l55 -53l-55 -434q-19 -149 -94 -531l22 -4q44 133 77.5 217.5t71 154.5t78 106.5t89.5 55.5t114 19q240 0 240 -239q0 -61 -18 -191
t-33 -216.5t-49 -279.5q57 0 153 39zM535 -96q77 0 131 -25q24 -38 24 -100q0 -111 -66.5 -188t-205.5 -101l-23 72q64 26 94.5 53.5t30.5 71.5v20l-92 8l14 181q44 8 93 8z" />
    <glyph glyph-name="uni030A_acutecomb" unicode="&#x30a;&#x301;" horiz-adv-x="2" 
d="M-141 1905h145q59 -52 78 -123l-262 -187h-119zM-233 1544q108 0 164.5 -47.5t56.5 -134.5q0 -102 -72.5 -167t-204.5 -65q-109 0 -165 47.5t-56 135.5q0 102 73 166.5t204 64.5zM-246 1442q-25 0 -51 -15q-33 -44 -33 -114q0 -80 58 -80q26 0 51 14q35 47 35 119
q0 76 -60 76z" />
    <glyph glyph-name=".notdef" horiz-adv-x="1417" 
d="M1286 1362l-133 -1362h-985l133 1362h985zM1122 1217h-624l534 -947zM336 145h612l-524 932z" />
    <glyph glyph-name=".null" horiz-adv-x="0" 
 />
    <glyph glyph-name="nonmarkingreturn" horiz-adv-x="682" 
 />
    <glyph glyph-name="CR" unicode="&#xd;" horiz-adv-x="512" 
 />
    <glyph glyph-name="space" unicode=" " horiz-adv-x="512" 
 />
    <glyph glyph-name="exclam" unicode="!" horiz-adv-x="589" 
d="M489 1389l52 -54q-55 -497 -187 -929h-159q8 162 18 529t12 415q139 39 264 39zM285 291q44 0 102 -15q21 -41 21 -96q0 -79 -62 -180h-219l-14 258q86 33 172 33z" />
    <glyph glyph-name="quotedbl" unicode="&#x22;" horiz-adv-x="962" 
d="M952 1475l-121 -498h-182v510q119 35 266 35zM530 1475l-120 -498h-183v510q119 35 267 35z" />
    <glyph glyph-name="numbersign" unicode="#" horiz-adv-x="1091" 
d="M879 737l-48 -264h175v-201l-218 -39l-47 -260h-104l-35 35l41 234h-303l-47 -269h-107l-32 35l41 234h-150v200l193 37l47 264h-176v201l217 39l47 262h106l33 -35l-41 -235h303l49 270h105l35 -35l-43 -235h149v-199zM686 473l47 270h-303l-49 -270h305z" />
    <glyph glyph-name="dollar" unicode="$" horiz-adv-x="1007" 
d="M580 752l34 -21q65 -39 103.5 -64.5t81 -61t64 -69t36 -79t14.5 -99.5q0 -52 -11.5 -98t-40 -90.5t-73 -77.5t-114.5 -56t-160 -30l-10 -260l-119 -20l-31 22l25 258q-179 8 -309 68q-11 90 -11 147q0 75 15 182l176 11l55 -260q50 -10 88 -13l35 359l-4 2
q-63 37 -109 71.5t-87.5 80t-63 102.5t-21.5 123q0 141 94 236.5t255 107.5l10 252l119 18l32 -20l-26 -256q36 -7 80 -25l2 18q89 21 157 21l58 -45q4 -28 4 -58q0 -141 -43 -288h-164l-25 239q-77 11 -82 11zM399 942q0 -42 17 -70.5t59 -58.5l10 264q-10 -2 -30 -10
q-56 -46 -56 -125zM586 170q45 45 45 123q0 49 -21 79t-78 66l-12 -291q35 6 66 23z" />
    <glyph glyph-name="percent" unicode="%" horiz-adv-x="1701" 
d="M1370 1235l10 -53q-166 -192 -337.5 -426t-277 -393.5t-261.5 -405.5l-121 47l-21 55q169 230 272.5 369.5t266.5 348t254 308.5l-18 19q-70 -67 -137.5 -93t-149.5 -26q-68 0 -125 14q6 -41 6 -81q0 -56 -10 -110.5t-36 -111.5t-64.5 -99.5t-101 -69.5t-140.5 -27
q-142 0 -213.5 82.5t-71.5 226.5q-2 161 79 287.5t218 156.5l53 -63q-64 -49 -102.5 -164.5t-38.5 -255.5q0 -92 21.5 -131t72.5 -39q35 0 70 14q40 48 63 163.5t23 223.5q0 49 -6 89q-46 39 -74 86q42 62 96 84h52q39 -52 61 -109q85 -45 199 -45q91 0 181.5 38t207.5 134z
M1341 729q144 0 216.5 -83t72.5 -226q0 -58 -11.5 -116.5t-39.5 -119t-70 -106.5t-109 -75.5t-151 -29.5q-143 0 -215.5 82.5t-72.5 225.5q0 60 11.5 119t39.5 119.5t70 106t109 74.5t150 29zM1333 90q41 48 63.5 163.5t22.5 217.5q0 83 -22.5 120.5t-69.5 37.5
q-33 0 -72 -17q-41 -50 -63.5 -164.5t-22.5 -214.5q0 -84 22.5 -121.5t70.5 -37.5q34 0 71 16z" />
    <glyph glyph-name="ampersand" unicode="&#x26;" horiz-adv-x="1501" 
d="M1464 633h-215q-20 -199 -211 -361q151 -146 377 -317l-65 -123q-255 18 -531 264q-164 -123 -383 -123q-188 0 -296.5 81.5t-108.5 254.5q0 147 89.5 248t278.5 133q-63 160 -63 301q0 99 33.5 176.5t92.5 125t135 72t165 24.5q144 0 228.5 -66.5t84.5 -196.5
q0 -60 -20.5 -120t-61.5 -118t-113.5 -106.5t-166.5 -76.5q80 -176 268 -375q92 169 92 432q73 20 169.5 33.5t176.5 15.5l45 -55v-123zM686 1239q-51 -72 -51 -211q0 -122 41 -237q188 142 188 337q0 66 -22.5 97.5t-73.5 31.5q-44 0 -82 -18zM332 352q0 -115 59 -172
t162 -57q98 0 197 41q-200 203 -314 440q-104 -104 -104 -252z" />
    <glyph glyph-name="quotesingle" unicode="'" horiz-adv-x="540" 
d="M530 1475l-120 -498h-183v510q119 35 267 35z" />
    <glyph glyph-name="parenleft" unicode="(" horiz-adv-x="638" 
d="M539 1552l90 -53q-155 -288 -222 -566.5t-67 -567.5q0 -201 28 -363.5t87 -353.5l-99 -45q-125 153 -187.5 368t-62.5 441q0 128 21.5 268t68 296.5t135 308.5t208.5 267z" />
    <glyph glyph-name="parenright" unicode=")" horiz-adv-x="641" 
d="M199 1507l100 45q124 -153 187 -368.5t63 -440.5q0 -127 -22.5 -268t-70 -297t-136.5 -308t-207 -267l-90 53q292 547 292 1135q0 203 -28 365.5t-88 350.5z" />
    <glyph glyph-name="asterisk" unicode="*" horiz-adv-x="995" 
d="M651 1610l70 -11q4 -24 4 -38q0 -100 -92 -279h-96q-41 136 -41 207q0 60 20 121h135zM193 1356l34 61q46 -6 78 -16q95 -30 209 -135l-37 -90q-170 -14 -264 16q-30 9 -70 31zM1004 1294l10 -71q-33 -17 -76 -31q-82 -28 -262 -18l-23 90q154 112 238 137q26 8 78 16z
M479 1149l72 -57q-40 -139 -121 -238q-25 -34 -59 -59l-107 67l-49 51q6 14 15 27t20 27t12 16q10 12 23 25t24.5 23t29.5 23.5t28.5 21t31 21.5t28 18.5t28.5 18t24 15.5zM580 1090l84 57q104 -73 146 -116q24 -25 40 -50q13 -21 33 -70l-113 -86l-65 -32q-30 24 -50 57
q-45 69 -75 240z" />
    <glyph glyph-name="plus" unicode="+" 
d="M1122 694v-61l-12 -107h-383l-51 -411h-129l-62 20l50 391h-375v64l14 104h383l51 412h127l64 -21l-49 -391h372z" />
    <glyph glyph-name="comma" unicode="," horiz-adv-x="542" 
d="M217 307q98 0 156 -39q30 -65 30 -149q1 -51 -8 -102t-36.5 -111t-71 -108.5t-119 -89.5t-174.5 -60l-27 84q101 41 168.5 100.5t67.5 134.5v31l-107 12l17 285q59 12 104 12z" />
    <glyph glyph-name="hyphen" unicode="-" horiz-adv-x="649" 
d="M582 635l-15 -117h-477v70l14 114h478v-67z" />
    <glyph glyph-name="period" unicode="." horiz-adv-x="542" 
d="M262 332q74 0 117 -15q22 -42 22 -104q0 -106 -69 -213h-238l-14 299q86 33 182 33z" />
    <glyph glyph-name="slash" unicode="/" horiz-adv-x="598" 
d="M668 1444l-574 -1817h-127l-28 31l571 1817h129z" />
    <glyph glyph-name="zero" unicode="0" horiz-adv-x="1185" 
d="M678 1255q221 0 329.5 -139.5t108.5 -378.5q0 -101 -18 -201.5t-62 -203.5t-109 -181.5t-168 -128t-231 -49.5q-111 0 -195.5 37.5t-136.5 106.5t-78 163t-26 212q0 71 9 143t30.5 147.5t52.5 143.5t78.5 129t106.5 105t138.5 69.5t170.5 25.5zM659 1122q-57 0 -100 -24
q-71 -86 -114.5 -312.5t-43.5 -423.5q0 -134 34.5 -196t113.5 -62q50 0 102 25q72 81 113 306.5t41 432.5q0 131 -32.5 192.5t-113.5 61.5z" />
    <glyph glyph-name="one" unicode="1" horiz-adv-x="765" 
d="M680 106l-2 -51l-6 -55h-654v104q89 41 201 48l86 794q-85 -18 -194 -18v61l10 86q90 5 193.5 50t168.5 126l135 -26l-116 -1098z" />
    <glyph glyph-name="two" unicode="2" horiz-adv-x="1003" 
d="M752 342l143 -6q12 -82 12 -127q0 -72 -16.5 -140t-40.5 -108h-131q-130 2 -275.5 24.5t-255.5 59.5l-110 -80q-47 12 -98 58v43q83 66 140 113t129.5 110.5t120.5 113.5t98.5 111t80 114.5t48.5 113t19 116.5q0 96 -46 141t-119 45q-75 0 -121.5 -44.5t-46.5 -125.5
q0 -42 20 -114l-127 -39q-90 96 -90 203q0 141 119.5 236t314.5 95q185 0 299.5 -93t114.5 -251q0 -169 -139.5 -341t-413.5 -361h338z" />
    <glyph glyph-name="three" unicode="3" horiz-adv-x="1019" 
d="M649 578v-23q126 -32 187 -104.5t61 -192.5q0 -90 -32.5 -167.5t-93.5 -136t-158 -91.5t-218 -33q-194 0 -362 82l16 111q111 -13 182 -13q188 0 268.5 67.5t80.5 190.5q0 140 -123 195q-73 -28 -158 -43l-39 31q-8 27 -8 73q0 38 6 68q46 18 131 18q23 0 55 -4
q78 50 126 121.5t48 159.5q0 86 -47 126t-120 40q-89 0 -132 -54t-43 -131v-37l-131 -4q-45 76 -45 142q0 116 111.5 201t302.5 85q190 0 303 -91.5t113 -248.5q0 -72 -24 -129.5t-68 -96.5t-87.5 -64t-101.5 -47z" />
    <glyph glyph-name="four" unicode="4" horiz-adv-x="1040" 
d="M979 324v-70l-14 -107h-146q-2 -14 -24 -290h-283q7 121 25 290h-480l-45 117q207 435 310 709l-48 219l226 68q51 -37 79.5 -90.5t28.5 -112.5q0 -96 -87 -255t-302 -476l12 -21q181 19 215 19h109q20 176 41 313q101 60 219 80l68 -33q-28 -191 -45 -360h141z" />
    <glyph glyph-name="five" unicode="5" horiz-adv-x="978" 
d="M397 700q237 0 362.5 -107.5t125.5 -301.5q0 -128 -54 -231t-165 -166.5t-263 -63.5q-85 0 -182 21t-172 61l19 127q92 -14 174 -14q327 0 327 264q0 126 -90.5 178t-341.5 82l84 676l141 30q119 -51 246 -51q128 0 273 51l30 -104q-123 -186 -336 -186q-131 0 -247 55
l-54 -326q58 6 123 6z" />
    <glyph glyph-name="six" unicode="6" horiz-adv-x="1144" 
d="M846 1399q110 0 203 -27l2 -110q-657 0 -645 -877q1 -39 2.5 -67.5t6.5 -64t15.5 -59.5t26 -46t40.5 -33t58 -11q40 0 94 23q51 49 81 151t28 205q0 102 -31 143.5t-88 41.5q-41 0 -115 -27l-16 109q102 118 262 118q144 0 222.5 -90t78.5 -250q0 -80 -20 -157.5
t-63.5 -150t-105.5 -127t-154 -87.5t-202 -33q-100 0 -177 30t-124 79.5t-77.5 120t-42 143.5t-11.5 158q0 107 18.5 210.5t55 205t98.5 187.5t142.5 152t193 103t244.5 37z" />
    <glyph glyph-name="seven" unicode="7" horiz-adv-x="999" 
d="M1055 1198l6 -41q-407 -557 -582 -1003l15 -269l-201 -57q-70 20 -108 75t-38 126q0 152 154 376.5t475 571.5h-475l-41 -158h-145q-11 64 -11 123q0 81 14 168t36 143q174 0 390.5 -26t332.5 -66l63 84q65 -13 115 -47z" />
    <glyph glyph-name="eight" unicode="8" horiz-adv-x="1122" 
d="M778 743v-22q66 -46 103 -76.5t71.5 -70.5t49 -85t14.5 -102t-13.5 -111t-50 -110.5t-92.5 -98t-147.5 -68t-208.5 -26.5q-205 0 -320.5 80.5t-115.5 235.5q0 132 78.5 238t203.5 151v24q-89 62 -136.5 134.5t-47.5 175.5q0 59 16 112.5t52.5 102.5t91 84.5t137 56.5
t184.5 21q188 0 299 -73t111 -222q0 -73 -27 -135t-71 -103.5t-89 -69t-92 -43.5zM541 1231q-30 -28 -48 -76t-18 -94q0 -66 37.5 -117t108.5 -98l41 -29q124 115 124 279q0 159 -133 159q-63 0 -112 -24zM633 133q33 31 52.5 88.5t19.5 112.5q0 71 -40.5 118t-154.5 123
l-43 31q-62 -62 -95.5 -145t-33.5 -170q0 -185 160 -185q76 0 135 27z" />
    <glyph glyph-name="nine" unicode="9" horiz-adv-x="1144" 
d="M641 1255q100 0 177 -30t124 -79t77.5 -119.5t42 -143t11.5 -156.5q0 -129 -25.5 -252.5t-83.5 -241.5t-143.5 -206.5t-214.5 -142.5t-287 -54q-98 0 -200 27l-2 110q659 0 643 867q-1 47 -3.5 80.5t-11.5 72.5t-24.5 63.5t-43.5 41t-67 16.5q-36 0 -94 -21
q-49 -49 -78.5 -151.5t-29.5 -206.5q1 -101 31.5 -141.5t86.5 -40.5q44 0 117 31l14 -99q-103 -119 -260 -119q-144 0 -222.5 90.5t-78.5 251.5q0 79 20 156.5t63.5 149.5t105.5 126.5t154 87.5t202 33z" />
    <glyph glyph-name="colon" unicode=":" horiz-adv-x="542" 
d="M262 332q74 0 117 -15q22 -42 22 -104q0 -106 -69 -213h-238l-14 299q86 33 182 33zM338 1053q74 0 117 -15q22 -42 22 -104q0 -106 -69 -213h-238l-14 299q86 33 182 33z" />
    <glyph glyph-name="semicolon" unicode=";" horiz-adv-x="542" 
d="M217 307q98 0 156 -39q30 -65 30 -149q1 -51 -8 -102t-36.5 -111t-71 -108.5t-119 -89.5t-174.5 -60l-27 84q101 41 168.5 100.5t67.5 134.5v31l-107 12l17 285q59 12 104 12zM338 1053q74 0 117 -15q22 -42 22 -104q0 -106 -69 -213h-238l-14 299q86 33 182 33z" />
    <glyph glyph-name="less" unicode="&#x3c;" 
d="M1130 981l-690 -367v-24l592 -357l-84 -157l-764 413l29 234l860 407z" />
    <glyph glyph-name="equal" unicode="=" 
d="M1096 428l-13 -106h-950v63l14 104h949v-61zM1147 838l-12 -107h-951v64l15 104h948v-61z" />
    <glyph glyph-name="greater" unicode="&#x3e;" 
d="M1096 719l-29 -234l-858 -409l-59 151l690 365v24l-592 357l84 157z" />
    <glyph glyph-name="question" unicode="?" horiz-adv-x="708" 
d="M344 1380q82 0 146.5 -23t105.5 -62t67.5 -94.5t37 -115.5t10.5 -131q0 -46 -5.5 -81t-26 -80t-56 -83t-100.5 -80t-156 -81l-25 -143h-164q-43 88 -43 174q0 32 4.5 55.5t18 44t26.5 34t43.5 30.5t55 28.5t73.5 32.5q63 27 91.5 40t65.5 33.5t51 36.5t25 39t11 52
q0 27 -2 45q-142 69 -430 63l22 248q77 18 154 18zM279 291q44 0 102 -15q20 -39 20 -96q0 -81 -61 -180h-219l-15 258q86 33 173 33z" />
    <glyph glyph-name="at" unicode="@" horiz-adv-x="1855" 
d="M1094 1430q349 0 536 -176.5t187 -481.5q0 -154 -49 -282.5t-130.5 -211t-184 -127.5t-212.5 -45q-154 0 -154 101q0 26 9 72t31 146t36 167l-24 2q-33 -100 -58 -167t-53.5 -127t-55 -95t-60.5 -61t-72.5 -36t-87.5 -10q-122 0 -190 73.5t-68 250.5q0 117 30.5 230
t88 208.5t153.5 154t215 58.5q135 0 201 -69l16 51q64 18 191 18l49 -49l-97 -774q139 17 225.5 152.5t86.5 342.5q0 260 -142 404.5t-401 144.5q-161 0 -306.5 -56.5t-257.5 -159.5t-178.5 -262t-66.5 -351q0 -135 34 -237.5t94.5 -170.5t152 -111t199.5 -61t243 -18v-90
q-126 -37 -248 -37q-115 0 -218 26.5t-191.5 84t-152 140.5t-100 202t-36.5 264q0 280 129 502t361 346.5t526 124.5zM909 291q59 84 112.5 224.5t123.5 397.5q-63 29 -121 29q-48 0 -92 -14q-70 -103 -107 -244.5t-37 -269.5q0 -72 17.5 -99.5t64.5 -27.5q23 0 39 4z" />
    <glyph glyph-name="A" unicode="A" horiz-adv-x="1337" 
d="M1290 113v-52l-8 -61h-582v111q73 33 144 43q-8 37 -24.5 111.5t-24.5 111.5h-422q-54 -133 -97 -248l134 -16v-52l-9 -61h-424v111q73 34 142 43q249 595 493 1106l-18 88l63 53q125 0 236 -27q164 -805 274 -1247zM430 520h336q-10 51 -94 494h-27q-77 -170 -215 -494z
" />
    <glyph glyph-name="B" unicode="B" horiz-adv-x="1282" 
d="M905 719v-25q143 -27 209 -92.5t66 -198.5q0 -64 -14.5 -119t-53 -108.5t-99 -91.5t-158.5 -61t-226 -23h-606v111q88 35 151 45l100 1058l-143 23v51l8 62q238 30 523 30q276 0 401 -76.5t125 -242.5q0 -123 -68 -212t-215 -130zM858 1057q0 94 -45 137t-156 43h-86
l-43 -469h224q47 54 76.5 131t29.5 158zM786 188q32 37 48 107.5t16 132.5q0 99 -48 152t-171 53h-117l-47 -488h125q130 0 194 43z" />
    <glyph glyph-name="C" unicode="C" horiz-adv-x="1239" 
d="M625 1194q-82 -72 -139.5 -263.5t-57.5 -377.5q0 -197 71 -281t224 -84q83 0 183 31t190 92l22 -116q-93 -99 -227.5 -160.5t-276.5 -61.5q-261 0 -394.5 155t-133.5 423q0 117 24.5 233t78 225.5t129.5 193.5t188.5 135t245.5 51q122 0 209 -54l4 31q109 25 168 25
l59 -45q4 -28 4 -58q0 -142 -45 -327h-174l-25 251q-87 23 -153 23q-90 0 -174 -41z" />
    <glyph glyph-name="D" unicode="D" horiz-adv-x="1386" 
d="M651 1380q153 0 269.5 -26t195 -73t128.5 -119t71.5 -159t21.5 -198q0 -75 -9.5 -148.5t-33.5 -154.5t-60.5 -152t-95.5 -136t-134 -112t-180 -74.5t-230 -27.5h-571v111q88 35 151 45l100 1058l-143 23v51l8 62q99 13 253 21.5t259 8.5zM842 209q78 102 116.5 273
t38.5 370q0 94 -13 161.5t-45 120t-90.5 78.5t-143.5 25h-123l-105 -1092h107q160 0 258 64z" />
    <glyph glyph-name="E" unicode="E" horiz-adv-x="1198" 
d="M582 1227l-45 -469l321 20l16 -53l-14 -119l-336 21l-47 -498h346l82 246l172 -13q4 -62 4 -90q0 -126 -47 -290v-11l-65 -6l-656 35h-290v111q88 35 151 45l100 1061l-143 18v53l8 62q214 12 547 12h279q100 29 163 29l56 -29q4 -36 4 -72q0 -145 -43 -299h-168l-21 219
z" />
    <glyph glyph-name="F" unicode="F" horiz-adv-x="1112" 
d="M1094 1391l55 -29q4 -36 4 -72q0 -145 -43 -299h-168l-20 219l-340 17l-50 -510l326 20l16 -53l-14 -119l-340 21l-43 -451l168 -16v-53l-6 -66h-616v111q88 37 151 45l100 1061l-143 18v53l8 62q214 12 547 12h244q100 29 164 29z" />
    <glyph glyph-name="G" unicode="G" horiz-adv-x="1312" 
d="M1251 612v-108q-46 -24 -92 -37l-43 -451l-63 -43q-81 0 -158 23l-14 47q-118 -70 -275 -70q-240 0 -380 155.5t-140 426.5q0 115 25 230t79.5 224.5t131 193.5t189 135t245.5 51q132 0 221 -52l4 29q109 25 168 25l59 -45q4 -28 4 -58q0 -142 -45 -327h-174l-24 251
q-90 23 -162 23q-91 0 -184 -41q-83 -77 -139 -280t-56 -416q0 -89 12.5 -154.5t40 -115.5t76.5 -75.5t119 -25.5q101 0 190 41l8 313l-133 17v53l9 61h501z" />
    <glyph glyph-name="H" unicode="H" horiz-adv-x="1478" 
d="M1497 1362v-111q-80 -35 -158 -45l-102 -1077l147 -16v-52l-6 -61h-590v111q86 38 144 43l47 479h-455l-47 -504l127 -16v-52l-8 -61h-576v111q87 36 152 45l102 1077l-143 16v51l8 62h584v-111q-69 -34 -143 -43l-41 -434h452l43 459l-127 16v51l8 62h582z" />
    <glyph glyph-name="I" unicode="I" horiz-adv-x="716" 
d="M735 1362v-111q-91 -38 -155 -43l-103 -1079l146 -16v-52l-7 -61h-596v111q87 36 152 45l102 1077l-143 16v51l8 62h596z" />
    <glyph glyph-name="J" unicode="J" horiz-adv-x="954" 
d="M977 1362v-111q-76 -35 -154 -45l-98 -981q-9 -89 -25.5 -158t-49 -132t-80.5 -104t-120.5 -65t-166.5 -24q-115 0 -211 34t-152 99l43 123q208 -68 385 -74q55 98 74 322l94 989l-254 12v51l8 64h707z" />
    <glyph glyph-name="K" unicode="K" horiz-adv-x="1382" 
d="M1374 1362v-111q-66 -32 -137 -41q-156 -231 -342 -432q162 -424 289 -618l114 4l7 -117q-53 -33 -120 -51.5t-126 -18.5q-80 0 -132 35.5t-89 106.5q-87 155 -168 499h-148l-45 -489l135 -16v-52l-8 -61h-584v111q87 36 152 45l102 1077l-143 16v51l8 62h594v-111
q-66 -32 -153 -43l-43 -454l174 12q171 201 338 467l-138 16v51l9 62h454z" />
    <glyph glyph-name="L" unicode="L" horiz-adv-x="1091" 
d="M848 375l172 -13q4 -62 4 -90q0 -134 -49 -301l-66 -6l-598 35h-291v111q85 34 152 45l102 1077l-143 16v51l8 62h604v-111q-76 -32 -163 -45l-103 -1077h289z" />
    <glyph glyph-name="M" unicode="M" horiz-adv-x="1802" 
d="M1794 1362v-111q-78 -35 -162 -45q-15 -507 -55 -1075l147 -18v-52l-6 -61h-581v111q74 34 137 43q69 708 86 1009h-25q-112 -266 -409 -1087q-90 -27 -197 -37l-51 14q-85 511 -207 1110h-22q-41 -321 -115 -1032l141 -18v-52l-8 -61h-457v111q73 32 154 43
q66 530 149 1063l-153 18v51l8 62q176 14 567 14q42 -193 90.5 -474.5t69.5 -467.5h25q162 522 337 942h537z" />
    <glyph glyph-name="N" unicode="N" horiz-adv-x="1447" 
d="M1470 1362v-111q-82 -36 -153 -45l-117 -1196q-111 -30 -248 -33l-51 15l-326 762q-81 193 -145 403h-22l-64 -1028l137 -16v-52l-6 -61h-457v111q75 35 154 45l102 1058l-145 21v51l8 62q205 14 518 14l267 -623q69 -163 151 -405h23l45 897l-154 18v51l8 62h475z" />
    <glyph glyph-name="O" unicode="O" horiz-adv-x="1431" 
d="M817 1389q272 0 418.5 -154.5t146.5 -423.5q0 -82 -12.5 -164t-40 -165t-68 -157.5t-100.5 -139t-133 -111.5t-170 -74t-207 -27q-270 0 -416.5 155.5t-146.5 426.5q0 96 17.5 191.5t53 190t95 175.5t137.5 143.5t187.5 98t238.5 35.5zM799 1235q-88 0 -172 -41
q-83 -73 -139 -271t-56 -417q0 -89 11.5 -155.5t39 -118.5t75.5 -78.5t118 -26.5q88 0 172 41q83 73 138.5 271t55.5 417q0 90 -11.5 156t-38.5 118t-75 78.5t-118 26.5z" />
    <glyph glyph-name="P" unicode="P" horiz-adv-x="1228" 
d="M674 1378q150 0 255 -25t166.5 -76t89 -121.5t27.5 -168.5q0 -105 -28.5 -194.5t-84 -158t-145 -107t-204.5 -38.5q-61 0 -142 15v123q98 3 170 30q92 123 92 349q0 118 -40.5 174.5t-153.5 56.5h-94l-105 -1102l191 -16v-53l-6 -66h-639v111q77 34 151 43l102 1063
l-145 18v53l8 62q268 28 535 28z" />
    <glyph glyph-name="Q" unicode="Q" horiz-adv-x="1437" 
d="M821 1389q273 0 417 -157t144 -444q0 -135 -32.5 -263t-95 -236t-164.5 -181.5t-230 -91.5v-24q164 -95 298.5 -135.5t299.5 -40.5q69 0 174 6l13 -113q-51 -44 -136 -70t-180 -26q-105 0 -202 31t-169.5 82.5t-125 108.5t-87.5 118v113q104 66 172.5 189t96.5 267.5
t28 317.5q0 74 -5.5 130t-21.5 108t-42.5 85t-69.5 52.5t-102 19.5q-88 0 -172 -41q-84 -73 -140.5 -273.5t-56.5 -402.5q0 -166 52 -271t178 -161l-27 -113q-260 4 -402.5 163.5t-142.5 430.5q0 113 23.5 224t79 220.5t137.5 192t209 134t282 51.5z" />
    <glyph glyph-name="R" unicode="R" horiz-adv-x="1320" 
d="M1274 164l6 -117q-112 -70 -246 -70q-86 0 -135 36.5t-86 105.5q-80 144 -151 434h-154l-39 -424l139 -16v-52l-6 -61h-582v111q86 36 156 45l98 1058l-143 23v53l8 60q274 34 523 30q292 -1 422 -85.5t130 -268.5q0 -281 -282 -410q119 -296 227 -456zM520 698h230
q133 127 133 328q0 108 -51.5 158.5t-165.5 50.5h-95z" />
    <glyph glyph-name="S" unicode="S" horiz-adv-x="1089" 
d="M645 831l78 -47q63 -39 108.5 -77.5t85 -88.5t60 -112t20.5 -135q0 -63 -15 -118t-52.5 -107.5t-95 -90t-149 -60t-208.5 -22.5q-228 0 -403 78q-13 89 -13 160q0 95 17 192l186 13l58 -275q70 -18 145 -18q103 0 160 31q49 59 49 145q0 78 -39 125t-131 106l-76 48
q-136 85 -203 184t-67 223q0 170 116 287t310 117q123 0 213 -54l4 31q109 25 168 25l59 -45q4 -28 4 -56q0 -142 -45 -303h-174l-22 234q-73 20 -144 20q-74 0 -133 -27q-61 -54 -61 -139q0 -78 45.5 -129.5t144.5 -114.5z" />
    <glyph glyph-name="T" unicode="T" horiz-adv-x="1210" 
d="M1198 1391l55 -29q4 -36 4 -72q0 -145 -43 -299h-167l-23 223l-186 11l-103 -1096l156 -16v-52l-8 -61h-633v111q70 31 178 43l104 1079h-178l-82 -246l-161 10q-5 73 -5 90q0 148 50 304l65 6l477 -35h336q100 29 164 29z" />
    <glyph glyph-name="U" unicode="U" horiz-adv-x="1357" 
d="M1407 1362v-111q-65 -33 -156 -45q-36 -535 -67 -749q-34 -244 -167 -364t-374 -120q-465 0 -465 441q0 24 1.5 54.5t4.5 72t6 78t8.5 93t9.5 95t11 106t11 104t12 110.5t12 106l-148 16v51l9 62h585v-111q-70 -34 -143 -43q-7 -64 -22.5 -207.5t-22 -207t-15.5 -158
t-12.5 -152t-3.5 -98.5q0 -138 54 -203t180 -65q109 0 192 47q84 94 109 305q38 351 65 762l-139 18v51l8 62h457z" />
    <glyph glyph-name="V" unicode="V" horiz-adv-x="1302" 
d="M1364 1362v-111q-54 -26 -119 -39q-92 -275 -229 -616.5t-250 -585.5q-124 -30 -236 -33l-71 50q-105 472 -250 1208l-123 14v51l8 62h572v-111q-51 -28 -129 -43q27 -167 87.5 -510.5t77.5 -449.5h25q82 199 185 481.5t165 501.5l-145 18v51l8 62h424z" />
    <glyph glyph-name="W" unicode="W" horiz-adv-x="2035" 
d="M2091 1362v-111q-54 -26 -117 -39q-91 -281 -221.5 -624.5t-234.5 -577.5q-124 -30 -236 -33l-72 50q-83 421 -129 778h-24q-103 -330 -303 -795q-128 -30 -238 -33l-72 50q-30 145 -66 341t-88 490t-67 377l-121 14v51l9 62h571v-111q-64 -33 -133 -43
q26 -184 77 -534.5t62 -425.5h25q57 136 145.5 380.5t157.5 456.5l-27 152l-98 12v51l8 62h553v-111q-82 -38 -139 -43q81 -568 141 -960h25q75 194 171 478.5t154 504.5l-145 18v51l8 62h424z" />
    <glyph glyph-name="X" unicode="X" horiz-adv-x="1339" 
d="M1233 1208q-228 -335 -352 -497q165 -344 266 -584l123 -14v-52l-6 -61h-613v111q63 29 142 43q-112 270 -181 409h-24q-139 -195 -283 -434l137 -16v-52l-8 -61h-442v111q53 27 137 43q196 271 393 526q-152 308 -254 553l-131 16v51l8 62h611v-111q-20 -6 -44 -13.5
t-49 -15t-36 -10.5q67 -182 161 -387h23q100 154 246 408l-133 16v51l8 62h438v-111q-58 -28 -137 -43z" />
    <glyph glyph-name="Y" unicode="Y" horiz-adv-x="1282" 
d="M1206 1208q-143 -300 -403 -725l-33 -354l152 -16v-52l-9 -61h-626v111q78 33 178 45l31 305q-144 430 -283 772l-127 16v51l8 62h590v-111q-69 -32 -145 -41q109 -318 186 -575h25q186 321 294 596l-135 18v51l9 62h425v-111q-75 -35 -137 -43z" />
    <glyph glyph-name="Z" unicode="Z" horiz-adv-x="1148" 
d="M897 375l172 -13q4 -62 4 -90q0 -134 -49 -301l-66 -6l-682 35h-225l-16 100q399 612 529 804t227 315l-9 16l-417 -21l-41 -223h-170q-19 120 -19 213q0 85 17 158l57 29q64 0 160 -29h764l18 -100q-358 -559 -502.5 -772t-247.5 -345l9 -18l403 2z" />
    <glyph glyph-name="bracketleft" unicode="[" horiz-adv-x="626" 
d="M633 1393l-203 -11q4 -122 4 -190q-9 -717 -155 -1417l192 -11l-6 -124h-307l-58 59l168 1817h365v-123z" />
    <glyph glyph-name="backslash" unicode="\" horiz-adv-x="923" 
d="M717 -373l-574 1817l29 31h129l571 -1817l-28 -31h-127z" />
    <glyph glyph-name="bracketright" unicode="]" horiz-adv-x="626" 
d="M547 1456l-172 -1816h-365v122l205 11q-6 92 -6 190q9 691 160 1417l-199 11l6 125h313z" />
    <glyph glyph-name="asciicircum" unicode="^" horiz-adv-x="905" 
d="M922 1038l-154 -92l-242 342h-20l-275 -342l-127 92l371 471h193z" />
    <glyph glyph-name="underscore" unicode="_" horiz-adv-x="835" 
d="M692 -215l-10 -92h-707v47l9 92h708v-47z" />
    <glyph glyph-name="grave" unicode="`" horiz-adv-x="532" 
d="M545 1174h-119l-258 288q54 103 125 142h162z" />
    <glyph glyph-name="a" unicode="a" horiz-adv-x="1177" 
d="M1126 186l15 -102q-67 -48 -144.5 -77.5t-142.5 -29.5q-68 0 -105.5 30t-37.5 89q0 23 7 67t16.5 87.5t27.5 128t31 149.5l-25 7q-55 -171 -96.5 -271t-92 -169.5t-107 -95.5t-136.5 -26q-63 0 -110.5 17t-85.5 57t-57.5 112t-19.5 175q0 105 19.5 208t62 199.5t103 170
t149.5 117.5t195 44q147 0 225 -78l19 56q77 22 188 22l55 -55l-106 -871q57 0 153 39zM504 172q65 91 129 261t147 472q-67 37 -141 37q-52 0 -104 -18q-79 -115 -119.5 -283.5t-40.5 -321.5q0 -86 18.5 -118.5t65.5 -32.5q9 0 45 4z" />
    <glyph glyph-name="b" unicode="b" horiz-adv-x="1173" 
d="M840 1073q65 0 112.5 -17t84.5 -57.5t56 -113.5t19 -180q0 -106 -18 -205t-62 -196.5t-110 -169.5t-170.5 -116.5t-235.5 -44.5q-97 0 -217.5 20.5t-214.5 49.5l154 1309l-111 37l12 104q159 46 346 49l56 -53l-60 -445q-25 -182 -100 -528l25 -6q37 114 65.5 191
t60.5 144.5t62.5 107.5t68.5 68.5t80 40t97 11.5zM639 123q79 115 120.5 283.5t41.5 318.5q0 87 -18 119.5t-66 32.5q-5 0 -45 -5q-65 -89 -129 -260.5t-150 -484.5q74 -23 142 -23q53 0 104 19z" />
    <glyph glyph-name="c" unicode="c" horiz-adv-x="948" 
d="M547 178q131 0 291 109l20 -115q-81 -90 -193 -144.5t-239 -54.5q-125 0 -210 57.5t-123 153.5t-38 226q0 89 17.5 177.5t60 177t105 155.5t160.5 109t218 42q118 0 201 -42.5t101 -127.5l-113 -139l-254 176q-32 -6 -57 -18q-58 -74 -91.5 -218t-33.5 -266
q0 -258 178 -258z" />
    <glyph glyph-name="d" unicode="d" horiz-adv-x="1177" 
d="M1126 186l15 -102q-67 -48 -144.5 -77.5t-142.5 -29.5q-68 0 -105.5 30t-37.5 89q0 19 4 47.5t12.5 71.5t17 83t24 109.5t26.5 122.5l-25 7q-44 -136 -78 -223.5t-71.5 -158t-78.5 -107.5t-90 -56t-114 -19q-133 0 -204 80.5t-71 280.5q0 105 19.5 207.5t62 199
t103.5 170t150.5 118t195.5 44.5q125 0 209 -49l33 328l-109 37l12 104q161 46 346 49l54 -53l-168 -1342q59 0 155 39zM504 172q128 186 276 741q-78 29 -139 29q-55 0 -104 -18q-79 -115 -120.5 -284t-41.5 -321q0 -86 18.5 -118.5t65.5 -32.5q13 0 45 4z" />
    <glyph glyph-name="e" unicode="e" horiz-adv-x="1007" 
d="M559 172q71 0 157 33.5t165 91.5l20 -109q-85 -96 -204 -155.5t-261 -59.5q-193 0 -287 117t-94 318q0 90 18 178.5t61 177.5t106.5 156t163.5 109t223 42q177 0 260.5 -76.5t83.5 -201.5q0 -83 -36.5 -146.5t-95.5 -101.5t-140 -61.5t-163.5 -30.5t-173.5 -4v-15
q0 -262 197 -262zM584 940q-42 0 -90 -20q-50 -57 -82.5 -165.5t-42.5 -222.5q307 40 307 285q0 65 -21 94t-71 29z" />
    <glyph glyph-name="f" unicode="f" horiz-adv-x="626" 
d="M897 1266l-342 82q-31 -11 -57 -27q-13 -101 -13 -297h207v-66l-18 -73h-195l-80 -832q-26 -257 -116.5 -373t-249.5 -116q-80 0 -161.5 27t-143.5 79l26 107q175 -49 295 -49q41 99 57 270l87 870l-130 23v104q71 23 144 35q14 117 50.5 208.5t84.5 147.5t110 92
t121.5 50t124.5 14q165 0 248 -80z" />
    <glyph glyph-name="g" unicode="g" horiz-adv-x="1032" 
d="M397 258l238 -57q168 -46 241.5 -101.5t73.5 -148.5q0 -75 -42 -144t-120 -123.5t-201.5 -87t-273.5 -32.5q-191 0 -286 54t-95 155q0 68 44 126t105.5 94t139.5 62q-35 41 -35 105q0 107 113 223q-109 30 -165 102t-56 177q0 81 32 154.5t91 130.5t151.5 90.5
t204.5 33.5q134 0 227 -49q12 118 68 180t154 62l67 -164l-219 -129q86 -83 86 -219q0 -75 -28.5 -142.5t-85 -123t-150.5 -88.5t-215 -33l-49 2zM453 922q-37 -33 -62.5 -112.5t-25.5 -166.5q0 -147 116 -147q49 0 86 16q34 32 60 113t26 170q0 80 -29 112.5t-83 32.5
q-51 0 -88 -18zM662 -244q43 30 43 74q0 28 -18 43t-66 31l-244 69q-55 15 -94 35q-97 -108 -97 -176q0 -64 50.5 -100.5t154.5 -36.5q72 0 146.5 16t124.5 45z" />
    <glyph glyph-name="h" unicode="h" horiz-adv-x="1200" 
d="M1135 186l14 -102q-153 -107 -293 -107q-160 0 -160 148q0 64 49.5 330t49.5 333q0 46 -18.5 67.5t-61.5 21.5q-17 0 -41 -3q-159 -226 -324 -874q-100 -23 -213 -23l-55 56l156 1319l-111 37l12 104q153 44 346 47l54 -51l-56 -445q-25 -181 -94 -520l23 -4
q44 133 77.5 217.5t71 154.5t78 106.5t89.5 55.5t114 19q239 0 239 -239q0 -61 -18 -191t-33 -216.5t-49 -279.5q58 0 154 39z" />
    <glyph glyph-name="i" unicode="i" horiz-adv-x="591" 
d="M446 1063l52 -51q-66 -559 -107 -865q54 0 150 39l14 -102q-149 -107 -281 -107q-82 0 -123.5 35t-41.5 115q0 89 88 747l-134 17v104q210 65 383 68zM428 1530q64 0 94 -12q21 -47 21 -93q0 -84 -60 -184h-223l-14 258q91 31 182 31z" />
    <glyph glyph-name="j" unicode="j" horiz-adv-x="577" 
d="M500 1012l-121 -973q-30 -249 -119 -362t-242 -113q-147 0 -260 90l27 108q149 -34 244 -34q41 94 61 268l109 878l-136 17v104q210 65 386 68zM412 1530q64 0 94 -12q20 -45 20 -93q0 -85 -59 -184h-223l-15 258q91 31 183 31z" />
    <glyph glyph-name="k" unicode="k" horiz-adv-x="1196" 
d="M1122 186l15 -104q-127 -105 -275 -105q-48 0 -82 12.5t-57.5 39.5t-37.5 56.5t-30 76.5q-53 144 -65 282l94 31q56 62 90.5 147.5t34.5 161.5q0 50 -20.5 71.5t-69.5 21.5q-5 0 -12 -1t-17 -2t-16 -2q-151 -212 -324 -872q-97 -23 -213 -23l-55 56l156 1319l-111 37
l12 104q161 46 344 49l56 -53l-58 -445q-24 -184 -92 -520l23 -4q56 170 100.5 271.5t96 167.5t107.5 90t136 24q129 0 197.5 -60.5t68.5 -181.5q0 -126 -69.5 -219.5t-190.5 -148.5q78 -213 119 -313q68 8 145 36z" />
    <glyph glyph-name="l" unicode="l" horiz-adv-x="598" 
d="M487 1542l56 -53q-20 -169 -63 -485t-71 -537t-32 -320q65 0 170 37l14 -102q-151 -105 -293 -105q-172 0 -172 160q0 59 21.5 240t64 503t60.5 472l-115 37l14 104q157 46 346 49z" />
    <glyph glyph-name="m" unicode="m" horiz-adv-x="1824" 
d="M1761 186l13 -102q-149 -107 -287 -107q-164 0 -164 148q0 64 49 331t49 335q0 44 -18 65t-62 21q-17 0 -41 -3q-153 -224 -317 -874q-94 -23 -221 -23l-53 56q18 140 45 321t40 277.5t13 146.5q0 54 -17.5 76.5t-62.5 22.5q-16 0 -43 -3q-150 -219 -315 -874
q-94 -23 -222 -23l-53 56l103 841l-134 17v104q210 65 383 68l50 -51l-95 -488l23 -4q44 135 78 220.5t71.5 155t77.5 105.5t88.5 54t112.5 18q113 0 168 -51t55 -154q0 -94 -57 -344l22 -4q45 135 77.5 218t70.5 154t77 107t87.5 55t113.5 19q242 0 242 -242
q0 -134 -102 -684q59 0 155 39z" />
    <glyph glyph-name="n" unicode="n" horiz-adv-x="1210" 
d="M1145 186l14 -102q-153 -107 -293 -107q-159 0 -159 148q0 64 50 330t50 333q0 46 -18.5 67.5t-63.5 21.5q-18 0 -39 -3q-170 -236 -324 -874q-100 -23 -215 -23l-53 56l103 841l-134 17v104q82 27 188 47t193 21l52 -51l-97 -488l25 -4q44 134 78 220.5t71.5 155.5
t77.5 105t88 54t111 18q242 0 242 -239q0 -121 -91 -628q-7 -40 -10 -59q58 0 154 39z" />
    <glyph glyph-name="o" unicode="o" horiz-adv-x="1110" 
d="M629 1071q215 0 320.5 -118.5t105.5 -323.5q0 -87 -17 -173t-59.5 -175t-106 -156t-164 -109.5t-225.5 -42.5q-215 0 -320.5 119t-105.5 326q0 87 17.5 173.5t60 174.5t106 154.5t164 108.5t224.5 42zM604 940q-48 0 -96 -20q-63 -70 -100 -250.5t-37 -343.5
q0 -115 33 -168.5t110 -53.5q50 0 94 23q64 66 100.5 247t36.5 343q0 119 -33 171t-108 52z" />
    <glyph glyph-name="p" unicode="p" horiz-adv-x="1171" 
d="M838 1073q64 0 111.5 -17t85 -56.5t56.5 -111.5t19 -175q0 -105 -19.5 -208.5t-61.5 -200t-102 -170t-148 -117.5t-193 -44q-136 0 -215 58l-47 -437q-74 -30 -228 -30l-55 55l156 1255l-134 17v104q211 65 369 68l51 -51l-104 -496l24 -6q43 135 77.5 223t73 158
t79.5 107.5t90.5 56t114.5 18.5zM641 123q78 115 118 283t40 321q0 86 -17.5 118t-64.5 32q-2 0 -47 -5q-64 -91 -128.5 -261.5t-148.5 -473.5q74 -33 144 -33q49 0 104 19z" />
    <glyph glyph-name="q" unicode="q" horiz-adv-x="1159" 
d="M928 -248l110 -37l-12 -104q-165 -44 -346 -47l-53 53l53 379q13 93 34 192.5t49.5 212.5t31.5 127l-25 7q-55 -170 -97 -270.5t-92.5 -170t-106.5 -95.5t-136 -26q-133 0 -204 80.5t-71 280.5q0 105 19.5 208t62 199.5t103 170t149.5 117.5t195 44q153 0 225 -78l21 56
q77 22 186 22l57 -55zM504 172q64 92 128.5 264t145.5 469q-64 37 -139 37q-53 0 -102 -18q-79 -115 -120.5 -284t-41.5 -321q0 -86 18.5 -118.5t65.5 -32.5q13 0 45 4z" />
    <glyph glyph-name="r" unicode="r" horiz-adv-x="843" 
d="M844 793l-203 8q-131 -244 -272 -801q-100 -23 -222 -23l-53 56l103 841l-134 17v104q194 65 369 68l49 -51l-98 -516l25 -4q34 112 58 183.5t52 144.5t52.5 114t54.5 76t63.5 49t73.5 14q42 0 67 -16t45 -49z" />
    <glyph glyph-name="s" unicode="s" horiz-adv-x="860" 
d="M553 610q51 -40 78 -63.5t60 -57.5t49 -61.5t27 -64.5t11 -78q0 -147 -112 -229.5t-299 -82.5q-146 0 -237.5 51t-113.5 148l123 133l269 -199q26 4 69 21q25 35 25 90q0 51 -30 86.5t-123 111.5q-4 3 -6.5 5.5t-7 5.5t-7.5 6q-60 49 -92 78.5t-65.5 70.5t-47.5 83.5
t-14 93.5q0 148 116 230.5t301 82.5q133 0 219 -43.5t107 -128.5l-113 -131l-260 172q-47 -7 -76 -18q-32 -41 -32 -99q0 -11 2 -21t4 -18t8.5 -18t10.5 -17t15.5 -18.5t18.5 -18t24.5 -21.5t27.5 -23t33.5 -27.5t37.5 -30.5z" />
    <glyph glyph-name="t" unicode="t" horiz-adv-x="731" 
d="M743 1024v-66l-18 -73h-240q-76 -561 -86 -742q118 0 258 39l15 -104q-71 -45 -174.5 -75t-186.5 -30q-194 0 -194 185q0 78 27 289.5t65 420.5l-119 23v104q66 23 150 39q30 150 55 221q135 39 201 41l39 -39l-31 -233h239z" />
    <glyph glyph-name="u" unicode="u" horiz-adv-x="1212" 
d="M1161 186l15 -102q-71 -48 -155 -77.5t-149 -29.5q-69 0 -106 30t-37 89q0 23 6.5 66t15.5 86.5t25.5 125.5t28.5 146l-23 6q-44 -134 -78 -220t-71.5 -155t-77.5 -105t-88 -54.5t-111 -18.5q-241 0 -241 240q0 120 87 610l9 51l-133 17v104q211 64 385 70l49 -53
q-4 -35 -58.5 -356.5t-54.5 -397.5q0 -47 18.5 -68.5t63.5 -21.5q23 0 37 2q159 230 326 877q96 22 215 22l53 -55l-106 -867q59 0 155 39z" />
    <glyph glyph-name="v" unicode="v" horiz-adv-x="1062" 
d="M700 983l179 90q70 -24 107.5 -93t37.5 -157q0 -111 -62.5 -258.5t-158 -278.5t-223.5 -222t-246 -91q-96 0 -157.5 60t-61.5 178q0 152 96 663l-133 17v104q214 65 383 68l49 -51q-8 -53 -37.5 -233.5t-48 -312.5t-18.5 -194q0 -54 19 -79t69 -25q11 0 47 4
q96 96 173.5 230t121.5 290z" />
    <glyph glyph-name="w" unicode="w" horiz-adv-x="1675" 
d="M1313 983l180 90q69 -24 106 -93t37 -155q0 -74 -29 -167.5t-77.5 -187.5t-117 -184t-144 -159t-162 -111.5t-166.5 -42.5q-85 0 -135.5 47.5t-50.5 141.5q0 64 43 215l-23 4q-165 -408 -428 -408q-104 0 -167.5 60t-63.5 180q0 150 96 661l-133 17v104q214 65 383 68
l49 -51q-3 -23 -35.5 -220.5t-50.5 -329t-18 -192.5q0 -53 19.5 -77.5t72.5 -24.5q25 0 39 2q147 178 243 498q21 196 58 374q88 21 223 21l53 -53q0 -136 -61 -322q-31 -310 -31 -414q0 -57 17.5 -81.5t68.5 -24.5q25 0 41 4q94 94 172.5 228t128.5 292z" />
    <glyph glyph-name="x" unicode="x" horiz-adv-x="1054" 
d="M852 150q55 5 143 36l15 -102q-133 -107 -262 -107q-89 0 -135 43.5t-83 133.5q-48 120 -75 247h-25q-92 -428 -326 -428q-93 0 -145 72l35 164l174 -14q113 126 205 327q-69 210 -125 346l-158 23v104q68 26 176.5 46.5t192.5 21.5l49 -51q44 -142 96 -355h19
q41 196 120.5 304t192.5 108q66 0 102 -29l15 -184l-215 -45q-70 -88 -160 -260q78 -234 174 -401z" />
    <glyph glyph-name="y" unicode="y" horiz-adv-x="1075" 
d="M709 985l178 88q68 -24 107.5 -89.5t39.5 -164.5q0 -171 -116 -418.5t-300 -474.5q-290 -362 -512 -362q-59 0 -120.5 25t-108.5 75l29 107q180 -45 307 -45q84 57 149 120q-138 722 -212 1028l-134 17v104q200 65 357 68l51 -51q127 -586 156 -906h22q76 109 145.5 267
t102.5 315z" />
    <glyph glyph-name="z" unicode="z" horiz-adv-x="909" 
d="M702 377l136 -15q8 -114 8 -178q0 -123 -45.5 -178t-138.5 -55q-92 0 -220 36t-247 95l-95 -119q-47 7 -114 43l-19 33l584 745l-285 11l-33 -131h-145q-15 80 -1 206t48 197q316 0 559 -98l76 96q56 -8 117 -45l16 -31l-573 -733q171 -28 323 -35z" />
    <glyph glyph-name="braceleft" unicode="{" horiz-adv-x="641" 
d="M614 1407l-198 -49q63 -400 63 -522q0 -73 -19 -115.5t-74.5 -71t-158.5 -41.5v-24q120 -14 171 -54t51 -106q0 -51 -28.5 -162t-60 -208t-84.5 -255l199 -49l-10 -110q-71 -11 -123 -11q-54 0 -98.5 8.5t-82.5 27t-59.5 52t-21.5 80.5q0 19 3 42t11.5 60t17 69t26 92.5
t31 106t40 134t45.5 152.5l-166 79l12 127l172 80q-7 52 -19.5 150.5t-17.5 139.5t-12 101t-9.5 94t-2.5 60q0 244 276 244q55 0 127 -10v-111z" />
    <glyph glyph-name="bar" unicode="|" horiz-adv-x="569" 
d="M383 -246h-166v1782h166v-1782z" />
    <glyph glyph-name="braceright" unicode="}" horiz-adv-x="622" 
d="M575 1360q0 -14 -2 -31t-7 -40.5t-10 -45t-15.5 -57.5t-18.5 -64t-24 -79t-27.5 -87t-33 -103.5t-36.5 -115.5l154 -80l-12 -125l-176 -79q6 -49 19.5 -159t18 -150t11.5 -106.5t9.5 -102t2.5 -62.5q0 -244 -272 -244q-48 0 -131 11v108l200 49q-65 409 -65 559
q0 72 20 115t76.5 71.5t159.5 41.5v24q-120 14 -164.5 53t-44.5 111q0 57 29.5 166.5t56 185.5t84.5 234l-197 49l10 109q65 10 123 10q72 0 128 -14t95 -53t39 -99z" />
    <glyph glyph-name="asciitilde" unicode="~" 
d="M1040 743l88 -61q-20 -52 -45 -97.5t-60.5 -90t-82 -71t-98.5 -26.5q-37 0 -74 15.5t-111 58.5q-16 9 -65.5 36t-99.5 55.5t-93 53.5l-163 -176l-89 64q21 53 46 98.5t60.5 89.5t83 70t99.5 26q35 0 73.5 -15.5t111.5 -59.5q191 -105 256 -144z" />
    <glyph glyph-name="uni00A0" unicode="&#xa0;" horiz-adv-x="512" 
 />
    <glyph glyph-name="exclamdown" unicode="&#xa1;" horiz-adv-x="587" 
d="M375 1073q48 0 102 -14q21 -41 21 -98q0 -78 -62 -179h-219l-14 258q86 33 172 33zM238 668h161q26 -513 -30 -944q-139 -39 -265 -39l-51 53q73 359 185 930z" />
    <glyph glyph-name="cent" unicode="&#xa2;" horiz-adv-x="999" 
d="M659 1022q-32 -248 -43 -397q-20 -211 -28 -377h6q134 0 297 108l20 -102q-139 -149 -336 -188q-6 -119 -12 -209l-114 -19l-35 21l24 196q-179 9 -268.5 128t-89.5 317q0 159 53.5 300t161 238t248.5 113q6 114 12 211l115 18l35 -20l-29 -215q35 -8 82 -33l4 27
q73 20 158 20l57 -45q4 -28 4 -55q0 -137 -43 -303h-164l-24 250q-51 13 -91 16zM393 522q0 -165 76 -231q29 247 37 327q13 147 29 392l-17 -9q-58 -73 -91.5 -217t-33.5 -262z" />
    <glyph glyph-name="sterling" unicode="&#xa3;" horiz-adv-x="1173" 
d="M895 383l160 -18q14 -61 14 -142q0 -189 -131 -309q-177 6 -346 46t-293 106l-195 -121l-94 114q-1 94 50 134t153 40q84 87 84 205q0 47 -14 119h-179v39l11 86h141q-16 94 -16 147q0 192 125.5 309t336.5 117q115 0 187 -34l2 16q84 23 158 23l57 -48q4 -28 4 -55
q0 -130 -43 -313h-164l-24 260q-58 12 -107 12q-87 0 -147 -31q-31 -29 -47.5 -82t-16.5 -110q0 -22 3.5 -51t6.5 -47t11 -59.5t10 -53.5h244v-41l-9 -84h-221l2 -41q0 -115 -56.5 -192.5t-207.5 -141.5l6 -20q246 -29 467 -17z" />
    <glyph glyph-name="currency" unicode="&#xa4;" horiz-adv-x="1087" 
d="M936 643q0 -141 -84 -252l143 -168l-129 -121l-155 181q-88 -37 -197 -37q-110 0 -190 39l-189 -176l-108 122l176 162q-39 68 -39 156q0 151 96 258l-145 172l131 121l160 -189q87 33 186 33q111 0 184 -37l197 185l104 -123l-180 -168q39 -65 39 -158zM618 397
q38 29 58 100t20 158q-2 78 -28 116t-95 38q-44 0 -88 -16q-36 -29 -56.5 -99.5t-20.5 -156.5q0 -82 26 -120t90 -38q44 0 94 18z" />
    <glyph glyph-name="yen" unicode="&#xa5;" horiz-adv-x="1288" 
d="M1303 1231v-111q-87 -38 -142 -43q-72 -144 -211 -368h178v-39l-10 -86h-248l-79 -123l-3 -35h312v-39l-10 -86h-314l-16 -172l158 -16v-52l-7 -61h-635v111q23 13 79.5 26.5t99.5 18.5l14 145h-319v41l10 84h321l4 39l-43 119h-264v41l10 84h207q-52 136 -157 393
l-125 16v51l8 62h579v-111q-71 -33 -137 -41q14 -42 50.5 -147t61.5 -181t42 -137h24q154 242 263 486l-127 18v51l8 62h418z" />
    <glyph glyph-name="brokenbar" unicode="&#xa6;" horiz-adv-x="569" 
d="M383 889h-166v647h166v-647zM383 -246h-166v647h166v-647z" />
    <glyph glyph-name="section" unicode="&#xa7;" horiz-adv-x="1060" 
d="M1016 487q0 -195 -244 -276q47 -80 47 -166q0 -98 -57 -172t-148 -110.5t-200 -36.5q-137 0 -214 59t-77 156q0 85 65 139h140l22 -234q50 -4 68 -4q92 0 145 33q27 46 27 96q0 25 -11.5 50t-26 44.5t-51 51.5t-62.5 52.5t-84 64.5q-14 11 -21 16q-78 63 -123.5 104
t-84.5 88t-55 90.5t-16 94.5q0 194 244 278q-47 77 -47 164q0 98 57 172t148 111t200 37q136 0 212.5 -59t76.5 -156q0 -87 -63 -140h-142l-20 234q-50 4 -68 4q-91 0 -147 -33q-25 -48 -25 -96q0 -25 11.5 -50t26 -44.5t51 -51.5t62.5 -52.5t84 -64.5q14 -11 21 -16
q78 -63 123.5 -104t84.5 -88t55 -90.5t16 -94.5zM713 287q37 31 53 56.5t16 62.5q0 57 -41.5 100t-192.5 158q-17 13 -26 20q-111 83 -166 145q-38 -33 -53.5 -58.5t-15.5 -61.5q0 -58 43 -102.5t202 -163.5q11 -9 17 -13q103 -77 164 -143z" />
    <glyph glyph-name="dieresis" unicode="&#xa8;" horiz-adv-x="817" 
d="M330 1513q52 0 86 -12q20 -45 20 -90q0 -81 -57 -164h-191l-16 236q75 30 158 30zM750 1513q48 0 86 -12q20 -42 20 -86q0 -82 -57 -168h-191l-16 236q75 30 158 30z" />
    <glyph glyph-name="copyright" unicode="&#xa9;" horiz-adv-x="1589" 
d="M850 1389q314 0 498 -172t184 -484q0 -159 -51 -297t-146 -241t-241 -162.5t-326 -59.5q-315 0 -493.5 174t-180.5 482q0 158 49.5 295t142.5 241.5t238.5 164t325.5 59.5zM776 102q139 0 250 49.5t181.5 135.5t107.5 199.5t37 244.5q0 255 -136.5 392t-373.5 137
q-139 0 -249.5 -50t-179 -136.5t-104 -198.5t-35.5 -242q0 -256 133.5 -393.5t368.5 -137.5zM1038 842l-168 143q-19 -3 -41 -10q-39 -51 -65.5 -147.5t-26.5 -198.5q0 -96 34 -148.5t114 -52.5q44 0 87 15.5t109 50.5l17 -91q-50 -56 -134.5 -95.5t-189.5 -39.5
q-148 0 -223.5 85.5t-75.5 242.5q0 75 16.5 146.5t51.5 136.5t85 113.5t121 77t154 28.5q94 0 164.5 -38.5t81.5 -109.5z" />
    <glyph glyph-name="ordfeminine" unicode="&#xaa;" horiz-adv-x="808" 
d="M805 584l10 -70q-42 -33 -95.5 -51.5t-101.5 -18.5q-100 0 -100 76q0 12 2.5 30t9 47.5t12 53.5t17 72.5t19.5 81.5l-23 4q-27 -81 -44 -128t-38.5 -94.5t-39 -70.5t-42.5 -43t-53 -26.5t-66 -6.5q-98 0 -146 53t-48 181q0 86 21.5 168.5t63.5 153.5t113.5 114t161.5 43
q103 0 148 -51l14 37q46 14 137 14l37 -35l-69 -559q45 0 100 25zM383 582q85 122 176 448q-43 27 -92 27q-29 0 -68 -13q-51 -76 -78.5 -178t-27.5 -194q0 -54 12 -74t43 -20q23 0 35 4z" />
    <glyph glyph-name="guillemotleft" unicode="&#xab;" horiz-adv-x="1099" 
d="M1012 885l-178 -322l108 -334l-125 -77l-266 364v82l354 367zM557 885l-178 -322l108 -334l-125 -77l-266 364v82l355 367z" />
    <glyph glyph-name="logicalnot" unicode="&#xac;" 
d="M1069 633l-57 -467h-181l46 360h-703v64l14 104h832z" />
    <glyph glyph-name="uni00AD" unicode="&#xad;" horiz-adv-x="649" 
d="M582 635l-15 -117h-477v70l14 114h478v-67z" />
    <glyph glyph-name="registered" unicode="&#xae;" horiz-adv-x="1273" 
d="M713 1477q244 0 385 -134.5t141 -365.5q0 -243 -156 -399t-419 -156q-243 0 -386 134t-143 366q0 243 156 399t422 156zM705 1370q-207 0 -318 -124t-111 -322q0 -192 104 -294t290 -102q207 0 317.5 123.5t110.5 321.5q0 193 -103 295t-290 102zM678 1237
q129 0 191.5 -33.5t62.5 -111.5q0 -108 -121 -158q62 -136 84 -166h55l2 -55q-51 -31 -104 -31q-76 0 -109 61q-30 59 -51 162h-55l-15 -153l62 -9v-26l-4 -27h-252v53q38 13 63 17l37 397l-61 6v31l6 29q98 14 209 14zM655 1167l-16 -192h88q49 53 49 112q0 80 -82 80h-39z
" />
    <glyph glyph-name="macron" unicode="&#xaf;" horiz-adv-x="690" 
d="M180 1442h541q6 -18 6 -51q0 -63 -25 -123h-540q-6 18 -6 49q0 68 24 125z" />
    <glyph glyph-name="degree" unicode="&#xb0;" horiz-adv-x="749" 
d="M475 1534q141 0 227 -86t86 -213q0 -139 -101 -234.5t-253 -95.5q-141 0 -226 84.5t-85 212.5q0 139 100.5 235.5t251.5 96.5zM467 1372q-50 0 -96 -22q-56 -46 -56 -138q0 -67 36.5 -106t97.5 -39q50 0 94 23q57 44 57 137q0 67 -37 106t-96 39z" />
    <glyph glyph-name="plusminus" unicode="&#xb1;" 
d="M799 1090l-35 -287h317v-64l-12 -104h-328l-36 -305h-132l-59 20l35 285h-320v63l15 105h327l37 305h127zM1004 104l-11 -104h-841v63l12 105h840v-64z" />
    <glyph glyph-name="twosuperior" unicode="&#xb2;" horiz-adv-x="632" 
d="M537 1024h102q6 -40 6 -90q0 -103 -35 -154h-82q-165 3 -327 54l-74 -54q-37 10 -68 41v31q21 16 62 48.5t59.5 47t52 42t49 41.5t41 38t37 39t27 36.5t22.5 38.5t12 37t5 40q0 48 -24 71t-64 23q-39 0 -62.5 -22t-23.5 -60q0 -28 10 -66l-92 -26q-57 60 -57 127
q0 83 75 138.5t203 55.5q119 0 191.5 -52t72.5 -144q0 -88 -80 -175.5t-251 -187.5h192z" />
    <glyph glyph-name="threesuperior" unicode="&#xb3;" horiz-adv-x="638" 
d="M485 1161v-22q150 -19 150 -144q0 -96 -80.5 -155.5t-228.5 -59.5q-130 0 -234 56l8 75q57 -8 136 -8q94 0 132 23t38 75q0 57 -54 82q-44 -15 -104 -26l-27 18q-4 28 -4 49t4 41q28 11 72 11q7 0 21 -1t20 -1q92 42 92 112q0 40 -24 58t-60 18q-90 0 -90 -90v-17l-96 -2
q-31 50 -31 86q0 65 70 113.5t200 48.5q115 0 185.5 -44t70.5 -132q0 -41 -15.5 -71.5t-43 -48.5t-51.5 -27.5t-56 -16.5z" />
    <glyph glyph-name="acute" unicode="&#xb4;" horiz-adv-x="542" 
d="M342 1604h164q63 -53 82 -142l-334 -288h-119z" />
    <glyph glyph-name="mu" unicode="&#xb5;" horiz-adv-x="1210" 
d="M1159 186l15 -102q-70 -48 -153.5 -77.5t-150.5 -29.5q-69 0 -106 30t-37 89q0 23 7 66.5t15.5 85.5t26 126.5t29.5 145.5l-25 6q-64 -214 -118 -332t-114 -169.5t-140 -51.5q-45 0 -72.5 18t-48.5 58l-23 -10q4 -22 19.5 -104t21 -116.5t13.5 -100t12 -126.5
q-80 -28 -250 -28l-33 43q39 582 164 1267l-133 17v104q211 64 385 70l49 -53q-2 -18 -57.5 -347t-55.5 -407q0 -47 18.5 -68.5t61.5 -21.5q23 0 37 2q161 228 326 877q99 22 215 22l55 -55l-106 -867q57 0 153 39z" />
    <glyph glyph-name="paragraph" unicode="&#xb6;" horiz-adv-x="1165" 
d="M684 410h-129q-228 -2 -351.5 106t-123.5 311q0 71 14.5 139.5t54.5 142t101 128t163 90t232 35.5h131zM1214 1362v-111q-71 -35 -159 -45l-94 -977q-38 -399 -418 -399q-105 0 -202 27.5t-157 83.5l54 98q141 -76 299 -76q125 0 194 58t82 198l111 1143h290z" />
    <glyph glyph-name="periodcentered" unicode="&#xb7;" horiz-adv-x="542" 
d="M313 782q77 0 117 -14q23 -44 23 -104q0 -104 -70 -213h-238l-14 299q84 32 182 32z" />
    <glyph glyph-name="cedilla" unicode="&#xb8;" horiz-adv-x="569" 
d="M272 12l-16 -133q164 0 164 -127q0 -81 -65.5 -134.5t-186.5 -53.5q-140 0 -209 63l27 92q94 -24 129 -24q42 0 64 18.5t22 50.5q0 29 -21 41t-86 21l56 186h122z" />
    <glyph glyph-name="onesuperior" unicode="&#xb9;" horiz-adv-x="483" 
d="M506 864v-30l-4 -37h-408v67q60 25 109 31l39 412q-58 -9 -105 -9v39l8 62q54 4 119 30.5t103 71.5l98 -18l-57 -606z" />
    <glyph glyph-name="ordmasculine" unicode="&#xba;" horiz-adv-x="792" 
d="M475 1153q155 0 233 -78t78 -213q0 -55 -12 -109.5t-41.5 -112t-74.5 -101t-117 -71.5t-162 -28q-153 0 -230 78t-77 213q0 55 11.5 110t40.5 112.5t73.5 101t116 71t161.5 27.5zM459 1053q-32 0 -66 -15q-42 -48 -67 -155t-25 -203q0 -139 94 -139q37 0 68 14
q40 44 66 153.5t26 202.5q0 73 -23 107.5t-73 34.5z" />
    <glyph glyph-name="guillemotright" unicode="&#xbb;" horiz-adv-x="1097" 
d="M973 600v-82l-357 -366l-106 79l180 320l-108 334l125 80zM520 600v-82l-356 -366l-107 79l181 320l-109 334l125 80z" />
    <glyph glyph-name="onequarter" unicode="&#xbc;" horiz-adv-x="1648" 
d="M1323 1366l14 -39q-323 -446 -477 -672q-73 -108 -225 -350.5t-227 -353.5l-111 43l-14 39q136 188 481 678q77 112 226.5 353t219.5 345zM539 610l-2 -35l-5 -38h-473v73q77 30 144 33l57 531q-53 -9 -139 -13v43l8 64q64 3 138 34.5t120 86.5l100 -19l-79 -745z
M1593 281v-50l-10 -75h-104l-15 -156h-204q6 80 12 156h-332l-33 86q125 248 197 434l-33 151l162 47q37 -25 58.5 -63t21.5 -78q0 -62 -55 -156t-199 -294l6 -15q115 13 152 13h67q3 24 29 213q74 42 160 57l51 -25q-21 -149 -33 -245h102z" />
    <glyph glyph-name="onehalf" unicode="&#xbd;" horiz-adv-x="1722" 
d="M1323 1366l14 -39q-323 -446 -477 -672q-73 -108 -225 -350.5t-227 -353.5l-111 43l-14 39q136 188 481 678q77 112 226.5 353t219.5 345zM539 610l-2 -35l-5 -38h-473v73q77 30 144 33l57 531q-53 -9 -139 -13v43l8 64q64 3 138 34.5t120 86.5l100 -19l-79 -745z
M1532 240l104 -2q9 -70 9 -93q0 -51 -11.5 -99t-29.5 -73h-84q-90 0 -195.5 16.5t-185.5 41.5l-78 -56q-35 8 -72 41v33q65 51 101 79t90.5 73.5t84 75.5t66 71t55 74t31.5 71.5t13 75.5q0 123 -113 123q-52 0 -83.5 -28t-31.5 -82q0 -27 15 -78l-93 -29q-63 66 -63 141
q0 98 83.5 164t221.5 66q132 0 213.5 -63.5t81.5 -172.5q0 -113 -96 -223t-295 -240h237z" />
    <glyph glyph-name="threequarters" unicode="&#xbe;" horiz-adv-x="1753" 
d="M1430 1366l14 -39q-323 -446 -477 -672q-73 -108 -225.5 -350.5t-227.5 -353.5l-111 43l-14 39q136 188 481 678q78 112 227.5 353t219.5 345zM498 977v-23q91 -18 133.5 -59t42.5 -117q0 -118 -90 -190t-258 -72q-152 0 -263 57l11 78q65 -8 129 -8q132 0 185.5 36
t53.5 107q0 39 -17.5 64t-62.5 43q-50 -22 -112 -33l-29 21q-6 24 -6 55q0 19 4 47q34 12 90 12q9 0 23 -1t20 -1q117 65 117 158q0 92 -109 92q-66 0 -95 -34t-29 -89q0 -6 1 -13.5t1 -8.5l-97 -2q-32 53 -32 96q0 80 78 138.5t216 58.5q133 0 213 -58t80 -157
q0 -148 -198 -197zM1700 281v-50l-10 -75h-105l-14 -156h-205q6 80 12 156h-331l-33 86q120 239 196 434l-32 151l161 47q37 -25 58.5 -63t21.5 -78q0 -62 -55 -156t-199 -294l6 -15q115 13 152 13h68q7 64 28 213q74 42 160 57l51 -25q-21 -149 -33 -245h103z" />
    <glyph glyph-name="questiondown" unicode="&#xbf;" horiz-adv-x="747" 
d="M395 782l-14 258q86 33 172 33q48 0 102 -14q21 -41 21 -98q0 -78 -62 -179h-219zM401 268q-46 -20 -67 -29t-53.5 -25t-46.5 -25.5t-32.5 -24t-25.5 -28.5t-12.5 -31.5t-5.5 -38.5q0 -26 2 -46q65 -31 181 -47.5t249 -13.5l-23 -248q-86 -20 -153 -20q-82 0 -146.5 23
t-105.5 62.5t-67.5 95t-37 116t-10.5 131.5q0 46 5.5 81t26 79.5t56.5 82.5t101.5 80.5t156.5 81.5l25 144h162q43 -88 43 -174q0 -38 -8.5 -66t-21.5 -47.5t-44.5 -39.5t-60.5 -34t-87 -39z" />
    <glyph glyph-name="Agrave" unicode="&#xc0;" horiz-adv-x="1337" 
d="M1290 113v-52l-8 -61h-582v111q73 33 144 43q-8 37 -24.5 111.5t-24.5 111.5h-422q-54 -133 -97 -248l134 -16v-52l-9 -61h-424v111q73 34 142 43q249 595 493 1106l-18 88l63 53q125 0 236 -27q164 -805 274 -1247zM430 520h336q-10 51 -94 494h-27q-77 -170 -215 -494z
M797 1470h-135l-254 238q53 103 118 141h164z" />
    <glyph glyph-name="Aacute" unicode="&#xc1;" horiz-adv-x="1337" 
d="M1290 113v-52l-8 -61h-582v111q73 33 144 43q-8 37 -24.5 111.5t-24.5 111.5h-422q-54 -133 -97 -248l134 -16v-52l-9 -61h-424v111q73 34 142 43q249 595 493 1106l-18 88l63 53q125 0 236 -27q164 -805 274 -1247zM430 520h336q-10 51 -94 494h-27q-77 -170 -215 -494z
M885 1849h162q60 -38 83 -139l-335 -240h-136z" />
    <glyph glyph-name="Acircumflex" unicode="&#xc2;" horiz-adv-x="1337" 
d="M1290 113v-52l-8 -61h-582v111q73 33 144 43q-8 37 -24.5 111.5t-24.5 111.5h-422q-54 -133 -97 -248l134 -16v-52l-9 -61h-424v111q73 34 142 43q249 595 493 1106l-18 88l63 53q125 0 236 -27q164 -805 274 -1247zM430 520h336q-10 51 -94 494h-27q-77 -170 -215 -494z
M1079 1538l-180 -96l-170 196h-18l-189 -168h-127l322 361h172z" />
    <glyph glyph-name="Atilde" unicode="&#xc3;" horiz-adv-x="1337" 
d="M1290 113v-52l-8 -61h-582v111q73 33 144 43q-8 37 -24.5 111.5t-24.5 111.5h-422q-54 -133 -97 -248l134 -16v-52l-9 -61h-424v111q73 34 142 43q249 595 493 1106l-18 88l63 53q125 0 236 -27q164 -805 274 -1247zM430 520h336q-10 51 -94 494h-27q-77 -170 -215 -494z
M1040 1792l66 -55q-31 -104 -89.5 -170t-148.5 -66q-58 0 -125 33l-168 80l-102 -111l-67 53q31 104 90 170t149 66q60 0 121 -31l170 -84z" />
    <glyph glyph-name="Adieresis" unicode="&#xc4;" horiz-adv-x="1337" 
d="M1290 113v-52l-8 -61h-582v111q73 33 144 43q-8 37 -24.5 111.5t-24.5 111.5h-422q-54 -133 -97 -248l134 -16v-52l-9 -61h-424v111q73 34 142 43q249 595 493 1106l-18 88l63 53q125 0 236 -27q164 -805 274 -1247zM430 520h336q-10 51 -94 494h-27q-77 -170 -215 -494z
M543 1774q49 0 84 -15q22 -36 22 -88q0 -83 -55 -168h-193l-16 240q87 31 158 31zM1024 1774q46 0 84 -15q20 -33 20 -86q0 -85 -53 -170h-192l-17 240q87 31 158 31z" />
    <glyph glyph-name="Aring" unicode="&#xc5;" horiz-adv-x="1337" 
d="M1290 113v-52l-8 -61h-582v111q73 33 144 43q-8 37 -24.5 111.5t-24.5 111.5h-422q-54 -133 -97 -248l134 -16v-52l-9 -61h-424v111q73 34 142 43q249 595 493 1106l-18 88l63 53q125 0 236 -27q164 -805 274 -1247zM430 520h336q-10 51 -94 494h-27q-77 -170 -215 -494z
M788 1868q107 0 163.5 -45t56.5 -131q0 -99 -72.5 -163.5t-204.5 -64.5q-108 0 -163.5 45.5t-55.5 130.5q0 101 72 164.5t204 63.5zM776 1765q-26 0 -51 -14q-33 -44 -33 -109q0 -73 56 -73q33 0 51 12q35 47 35 113q0 38 -14 54.5t-44 16.5z" />
    <glyph glyph-name="AE" unicode="&#xc6;" horiz-adv-x="1804" 
d="M1182 1227l-45 -469l319 20l17 -53l-15 -119l-336 21l-47 -498h355l81 246l172 -13q5 -78 5 -90q0 -131 -50 -301l-65 -6l-664 35h-297v111q85 34 158 45l23 231h-398q-86 -176 -129 -260l125 -14v-52l-6 -61h-410v111q55 30 119 43q248 477 596 1085l-133 8v51l8 64h996
q100 29 163 29l56 -29q4 -36 4 -72q0 -145 -43 -299h-168l-21 219zM805 530l65 680h-39q-163 -292 -362 -680h336z" />
    <glyph glyph-name="Ccedilla" unicode="&#xc7;" horiz-adv-x="1239" 
d="M625 1194q-82 -72 -139.5 -263.5t-57.5 -377.5q0 -197 71 -281t224 -84q83 0 183 31t190 92l22 -116q-82 -87 -197 -146t-239 -72l-12 -98q166 0 166 -127q0 -81 -65.5 -134.5t-186.5 -53.5q-140 0 -209 63l26 92q94 -24 127 -24q43 0 65.5 18.5t22.5 50.5q0 29 -21 41
t-85 21h-2l45 151q-232 18 -349.5 170t-117.5 404q0 117 24.5 233t78 225.5t129.5 193.5t188.5 135t245.5 51q122 0 209 -54l4 31q109 25 168 25l59 -45q4 -28 4 -58q0 -142 -45 -327h-174l-25 251q-87 23 -153 23q-90 0 -174 -41z" />
    <glyph glyph-name="Egrave" unicode="&#xc8;" horiz-adv-x="1198" 
d="M582 1227l-45 -469l321 20l16 -53l-14 -119l-336 21l-47 -498h346l82 246l172 -13q4 -62 4 -90q0 -126 -47 -290v-11l-65 -6l-656 35h-290v111q88 35 151 45l100 1061l-143 18v53l8 62q214 12 547 12h279q100 29 163 29l56 -29q4 -36 4 -72q0 -145 -43 -299h-168l-21 219
zM756 1470h-135l-254 238q53 103 118 141h164z" />
    <glyph glyph-name="Eacute" unicode="&#xc9;" horiz-adv-x="1198" 
d="M582 1227l-45 -469l321 20l16 -53l-14 -119l-336 21l-47 -498h346l82 246l172 -13q4 -62 4 -90q0 -126 -47 -290v-11l-65 -6l-656 35h-290v111q88 35 151 45l100 1061l-143 18v53l8 62q214 12 547 12h279q100 29 163 29l56 -29q4 -36 4 -72q0 -145 -43 -299h-168l-21 219
zM844 1849h162q61 -39 84 -139l-336 -240h-136z" />
    <glyph glyph-name="Ecircumflex" unicode="&#xca;" horiz-adv-x="1198" 
d="M582 1227l-45 -469l321 20l16 -53l-14 -119l-336 21l-47 -498h346l82 246l172 -13q4 -62 4 -90q0 -126 -47 -290v-11l-65 -6l-656 35h-290v111q88 35 151 45l100 1061l-143 18v53l8 62q214 12 547 12h279q100 29 163 29l56 -29q4 -36 4 -72q0 -145 -43 -299h-168l-21 219
zM1038 1538l-180 -96l-170 196h-18l-189 -168h-127l322 361h172z" />
    <glyph glyph-name="Edieresis" unicode="&#xcb;" horiz-adv-x="1198" 
d="M582 1227l-45 -469l321 20l16 -53l-14 -119l-336 21l-47 -498h346l82 246l172 -13q4 -62 4 -90q0 -126 -47 -290v-11l-65 -6l-656 35h-290v111q88 35 151 45l100 1061l-143 18v53l8 62q214 12 547 12h279q100 29 163 29l56 -29q4 -36 4 -72q0 -145 -43 -299h-168l-21 219
zM502 1774q50 0 84 -15q22 -36 22 -88q0 -83 -55 -168h-193l-16 240q87 31 158 31zM983 1774q47 0 84 -15q20 -33 20 -86q0 -85 -53 -170h-192l-17 240q87 31 158 31z" />
    <glyph glyph-name="Igrave" unicode="&#xcc;" horiz-adv-x="716" 
d="M735 1362v-111q-91 -38 -155 -43l-103 -1079l146 -16v-52l-7 -61h-596v111q87 36 152 45l102 1077l-143 16v51l8 62h596zM516 1470h-135l-254 238q52 103 119 141h164z" />
    <glyph glyph-name="Iacute" unicode="&#xcd;" horiz-adv-x="716" 
d="M735 1362v-111q-91 -38 -155 -43l-103 -1079l146 -16v-52l-7 -61h-596v111q87 36 152 45l102 1077l-143 16v51l8 62h596zM604 1849h162q61 -39 84 -139l-336 -240h-135z" />
    <glyph glyph-name="Icircumflex" unicode="&#xce;" horiz-adv-x="716" 
d="M735 1362v-111q-91 -38 -155 -43l-103 -1079l146 -16v-52l-7 -61h-596v111q87 36 152 45l102 1077l-143 16v51l8 62h596zM799 1538l-181 -96l-169 196h-19l-188 -168h-127l321 361h172z" />
    <glyph glyph-name="Idieresis" unicode="&#xcf;" horiz-adv-x="716" 
d="M735 1362v-111q-91 -38 -155 -43l-103 -1079l146 -16v-52l-7 -61h-596v111q87 36 152 45l102 1077l-143 16v51l8 62h596zM301 1784q56 0 84 -12q23 -42 23 -91q0 -86 -58 -165h-192l-15 235q79 33 158 33zM702 1784q54 0 84 -12q23 -41 23 -91q0 -88 -59 -165h-193
l-14 235q83 33 159 33z" />
    <glyph glyph-name="Eth" unicode="&#xd0;" horiz-adv-x="1406" 
d="M672 1380q153 0 269.5 -26t195 -73t128.5 -119t71.5 -159t21.5 -198q0 -75 -9.5 -148.5t-33 -154.5t-60 -152t-95.5 -136t-134 -112t-180 -74.5t-230 -27.5h-571v111q87 35 154 45l45 479h-146v45l15 94h143l43 440l-143 23v51l6 62q101 13 254 21.5t256 8.5zM862 209
q78 103 117 274t39 369q0 194 -63 290t-228 95h-121l-43 -463h223v-45l-14 -94h-223l-47 -490h104q162 0 256 64z" />
    <glyph glyph-name="Ntilde" unicode="&#xd1;" horiz-adv-x="1447" 
d="M1470 1362v-111q-82 -36 -153 -45l-117 -1196q-111 -30 -248 -33l-51 15l-326 762q-81 193 -145 403h-22l-64 -1028l137 -16v-52l-6 -61h-457v111q75 35 154 45l102 1058l-145 21v51l8 62q205 14 518 14l267 -623q69 -163 151 -405h23l45 897l-154 18v51l8 62h475z
M1120 1792l66 -55q-31 -104 -89.5 -170t-148.5 -66q-58 0 -125 33l-168 80l-102 -111l-68 53q31 104 90.5 170t149.5 66q60 0 121 -31l170 -84z" />
    <glyph glyph-name="Ograve" unicode="&#xd2;" horiz-adv-x="1431" 
d="M817 1389q272 0 418.5 -154.5t146.5 -423.5q0 -82 -12.5 -164t-40 -165t-68 -157.5t-100.5 -139t-133 -111.5t-170 -74t-207 -27q-270 0 -416.5 155.5t-146.5 426.5q0 96 17.5 191.5t53 190t95 175.5t137.5 143.5t187.5 98t238.5 35.5zM799 1235q-88 0 -172 -41
q-83 -73 -139 -271t-56 -417q0 -89 11.5 -155.5t39 -118.5t75.5 -78.5t118 -26.5q88 0 172 41q83 73 138.5 271t55.5 417q0 90 -11.5 156t-38.5 118t-75 78.5t-118 26.5zM879 1470h-136l-254 238q52 103 119 141h164z" />
    <glyph glyph-name="Oacute" unicode="&#xd3;" horiz-adv-x="1431" 
d="M817 1389q272 0 418.5 -154.5t146.5 -423.5q0 -82 -12.5 -164t-40 -165t-68 -157.5t-100.5 -139t-133 -111.5t-170 -74t-207 -27q-270 0 -416.5 155.5t-146.5 426.5q0 96 17.5 191.5t53 190t95 175.5t137.5 143.5t187.5 98t238.5 35.5zM799 1235q-88 0 -172 -41
q-83 -73 -139 -271t-56 -417q0 -89 11.5 -155.5t39 -118.5t75.5 -78.5t118 -26.5q88 0 172 41q83 73 138.5 271t55.5 417q0 90 -11.5 156t-38.5 118t-75 78.5t-118 26.5zM967 1849h161q61 -39 84 -139l-335 -240h-136z" />
    <glyph glyph-name="Ocircumflex" unicode="&#xd4;" horiz-adv-x="1431" 
d="M817 1389q272 0 418.5 -154.5t146.5 -423.5q0 -82 -12.5 -164t-40 -165t-68 -157.5t-100.5 -139t-133 -111.5t-170 -74t-207 -27q-270 0 -416.5 155.5t-146.5 426.5q0 96 17.5 191.5t53 190t95 175.5t137.5 143.5t187.5 98t238.5 35.5zM799 1235q-88 0 -172 -41
q-83 -73 -139 -271t-56 -417q0 -89 11.5 -155.5t39 -118.5t75.5 -78.5t118 -26.5q88 0 172 41q83 73 138.5 271t55.5 417q0 90 -11.5 156t-38.5 118t-75 78.5t-118 26.5zM1161 1538l-180 -96l-170 196h-18l-189 -168h-127l322 361h172z" />
    <glyph glyph-name="Otilde" unicode="&#xd5;" horiz-adv-x="1431" 
d="M817 1389q272 0 418.5 -154.5t146.5 -423.5q0 -82 -12.5 -164t-40 -165t-68 -157.5t-100.5 -139t-133 -111.5t-170 -74t-207 -27q-270 0 -416.5 155.5t-146.5 426.5q0 96 17.5 191.5t53 190t95 175.5t137.5 143.5t187.5 98t238.5 35.5zM799 1235q-88 0 -172 -41
q-83 -73 -139 -271t-56 -417q0 -89 11.5 -155.5t39 -118.5t75.5 -78.5t118 -26.5q88 0 172 41q83 73 138.5 271t55.5 417q0 90 -11.5 156t-38.5 118t-75 78.5t-118 26.5zM1122 1792l66 -55q-31 -104 -89.5 -170t-148.5 -66q-58 0 -125 33l-168 80l-102 -111l-68 53
q31 104 90.5 170t149.5 66q60 0 121 -31l170 -84z" />
    <glyph glyph-name="Odieresis" unicode="&#xd6;" horiz-adv-x="1431" 
d="M817 1389q272 0 418.5 -154.5t146.5 -423.5q0 -82 -12.5 -164t-40 -165t-68 -157.5t-100.5 -139t-133 -111.5t-170 -74t-207 -27q-270 0 -416.5 155.5t-146.5 426.5q0 96 17.5 191.5t53 190t95 175.5t137.5 143.5t187.5 98t238.5 35.5zM799 1235q-88 0 -172 -41
q-83 -73 -139 -271t-56 -417q0 -89 11.5 -155.5t39 -118.5t75.5 -78.5t118 -26.5q88 0 172 41q83 73 138.5 271t55.5 417q0 90 -11.5 156t-38.5 118t-75 78.5t-118 26.5zM625 1774q49 0 84 -15q22 -36 22 -88q0 -83 -55 -168h-193l-16 240q87 31 158 31zM1106 1774
q46 0 84 -15q20 -33 20 -86q0 -85 -53 -170h-192l-17 240q87 31 158 31z" />
    <glyph glyph-name="multiply" unicode="&#xd7;" 
d="M1071 983l35 -53l-338 -324l291 -313l-74 -90l-55 -37l-297 323l-336 -321l-90 76l-33 53l338 324l-291 315l74 86l55 37l297 -324l338 322z" />
    <glyph glyph-name="Oslash" unicode="&#xd8;" horiz-adv-x="1431" 
d="M1382 811q1 -96 -17 -192t-54 -191t-96 -176.5t-138.5 -144t-188 -98.5t-237.5 -36q-185 0 -315 76l-164 -215l-90 49l-10 35l159 215q-140 152 -143 422q-1 96 16.5 191.5t53 190t95.5 175.5t138.5 143.5t188 98t237.5 35.5q169 0 297 -64l150 203l92 -47l8 -37
l-143 -197q158 -152 161 -436zM627 1194q-83 -73 -139 -271t-56 -417q0 -58 6 -111l547 748q-61 92 -186 92q-88 0 -172 -41zM848 168q83 73 138.5 271t55.5 417q0 92 -10 148l-555 -760q55 -117 199 -117q88 0 172 41z" />
    <glyph glyph-name="Ugrave" unicode="&#xd9;" horiz-adv-x="1357" 
d="M1407 1362v-111q-65 -33 -156 -45q-36 -535 -67 -749q-34 -244 -167 -364t-374 -120q-465 0 -465 441q0 24 1.5 54.5t4.5 72t6 78t8.5 93t9.5 95t11 106t11 104t12 110.5t12 106l-148 16v51l9 62h585v-111q-70 -34 -143 -43q-7 -64 -22.5 -207.5t-22 -207t-15.5 -158
t-12.5 -152t-3.5 -98.5q0 -138 54 -203t180 -65q109 0 192 47q84 94 109 305q38 351 65 762l-139 18v51l8 62h457zM885 1470h-135l-254 238q53 103 118 141h164z" />
    <glyph glyph-name="Uacute" unicode="&#xda;" horiz-adv-x="1357" 
d="M1407 1362v-111q-65 -33 -156 -45q-36 -535 -67 -749q-34 -244 -167 -364t-374 -120q-465 0 -465 441q0 24 1.5 54.5t4.5 72t6 78t8.5 93t9.5 95t11 106t11 104t12 110.5t12 106l-148 16v51l9 62h585v-111q-70 -34 -143 -43q-7 -64 -22.5 -207.5t-22 -207t-15.5 -158
t-12.5 -152t-3.5 -98.5q0 -138 54 -203t180 -65q109 0 192 47q84 94 109 305q38 351 65 762l-139 18v51l8 62h457zM973 1849h162q61 -39 84 -139l-336 -240h-135z" />
    <glyph glyph-name="Ucircumflex" unicode="&#xdb;" horiz-adv-x="1357" 
d="M1407 1362v-111q-65 -33 -156 -45q-36 -535 -67 -749q-34 -244 -167 -364t-374 -120q-465 0 -465 441q0 24 1.5 54.5t4.5 72t6 78t8.5 93t9.5 95t11 106t11 104t12 110.5t12 106l-148 16v51l9 62h585v-111q-70 -34 -143 -43q-7 -64 -22.5 -207.5t-22 -207t-15.5 -158
t-12.5 -152t-3.5 -98.5q0 -138 54 -203t180 -65q109 0 192 47q84 94 109 305q38 351 65 762l-139 18v51l8 62h457zM1167 1538l-180 -96l-170 196h-18l-189 -168h-127l322 361h172z" />
    <glyph glyph-name="Udieresis" unicode="&#xdc;" horiz-adv-x="1357" 
d="M1407 1362v-111q-65 -33 -156 -45q-36 -535 -67 -749q-34 -244 -167 -364t-374 -120q-465 0 -465 441q0 24 1.5 54.5t4.5 72t6 78t8.5 93t9.5 95t11 106t11 104t12 110.5t12 106l-148 16v51l9 62h585v-111q-70 -34 -143 -43q-7 -64 -22.5 -207.5t-22 -207t-15.5 -158
t-12.5 -152t-3.5 -98.5q0 -138 54 -203t180 -65q109 0 192 47q84 94 109 305q38 351 65 762l-139 18v51l8 62h457zM631 1774q49 0 84 -15q22 -36 22 -88q0 -83 -55 -168h-193l-16 240q87 31 158 31zM1112 1774q46 0 84 -15q21 -35 21 -86q0 -83 -54 -170h-192l-17 240
q87 31 158 31z" />
    <glyph glyph-name="Yacute" unicode="&#xdd;" horiz-adv-x="1282" 
d="M1206 1208q-143 -300 -403 -725l-33 -354l152 -16v-52l-9 -61h-626v111q78 33 178 45l31 305q-144 430 -283 772l-127 16v51l8 62h590v-111q-69 -32 -145 -41q109 -318 186 -575h25q186 321 294 596l-135 18v51l9 62h425v-111q-75 -35 -137 -43zM901 1849h162
q61 -39 84 -139l-336 -240h-135z" />
    <glyph glyph-name="Thorn" unicode="&#xde;" horiz-adv-x="1232" 
d="M575 1155h134q135 0 229 -25t149.5 -76t80 -120.5t24.5 -165.5q0 -219 -116.5 -351t-342.5 -132q-71 0 -143 14v125q95 3 164 27q98 128 98 331q0 115 -39.5 170.5t-146.5 55.5h-105l-84 -875l166 -14v-53l-6 -66h-617v111q87 36 154 45l102 1077l-145 16v51l8 62h428
l25 -39z" />
    <glyph glyph-name="germandbls" unicode="&#xdf;" horiz-adv-x="1202" 
d="M819 776q92 -91 143.5 -145.5t97 -114t63.5 -108.5t18 -101q0 -61 -25 -119t-72.5 -107t-126 -78.5t-174.5 -29.5q-121 0 -184.5 44t-83.5 128l115 113l168 -154q41 3 84 19q32 43 32 108q0 25 -4.5 45t-28 57.5t-67.5 82.5q-6 6 -36.5 35.5t-36.5 36.5t-25.5 31
t-24.5 38.5t-11.5 37.5t-6.5 48q0 37 10 63t40.5 72t49.5 82q66 111 90.5 204t22.5 198q0 80 -23.5 114.5t-81.5 34.5q-42 0 -94 -20q-137 -140 -176 -555l-72 -783q-24 -254 -114 -371.5t-246 -117.5q-150 0 -262 92l28 108q153 -36 244 -36q41 99 57 270l87 870l-130 23
v104q75 23 148 35q48 248 204.5 380t381.5 132q352 0 352 -280q0 -74 -22 -137.5t-70 -124t-100.5 -109t-137.5 -115.5z" />
    <glyph glyph-name="agrave" unicode="&#xe0;" horiz-adv-x="1177" 
d="M1126 186l15 -102q-67 -48 -144.5 -77.5t-142.5 -29.5q-68 0 -105.5 30t-37.5 89q0 23 7 67t16.5 87.5t27.5 128t31 149.5l-25 7q-55 -171 -96.5 -271t-92 -169.5t-107 -95.5t-136.5 -26q-63 0 -110.5 17t-85.5 57t-57.5 112t-19.5 175q0 105 19.5 208t62 199.5t103 170
t149.5 117.5t195 44q147 0 225 -78l19 56q77 22 188 22l55 -55l-106 -871q57 0 153 39zM504 172q65 91 129 261t147 472q-67 37 -141 37q-52 0 -104 -18q-79 -115 -119.5 -283.5t-40.5 -321.5q0 -86 18.5 -118.5t65.5 -32.5q9 0 45 4zM717 1174h-119l-258 288
q54 103 125 142h162z" />
    <glyph glyph-name="aacute" unicode="&#xe1;" horiz-adv-x="1177" 
d="M1126 186l15 -102q-67 -48 -144.5 -77.5t-142.5 -29.5q-68 0 -105.5 30t-37.5 89q0 23 7 67t16.5 87.5t27.5 128t31 149.5l-25 7q-55 -171 -96.5 -271t-92 -169.5t-107 -95.5t-136.5 -26q-63 0 -110.5 17t-85.5 57t-57.5 112t-19.5 175q0 105 19.5 208t62 199.5t103 170
t149.5 117.5t195 44q147 0 225 -78l19 56q77 22 188 22l55 -55l-106 -871q57 0 153 39zM504 172q65 91 129 261t147 472q-67 37 -141 37q-52 0 -104 -18q-79 -115 -119.5 -283.5t-40.5 -321.5q0 -86 18.5 -118.5t65.5 -32.5q9 0 45 4zM801 1604h164q63 -53 82 -142
l-334 -288h-119z" />
    <glyph glyph-name="acircumflex" unicode="&#xe2;" horiz-adv-x="1177" 
d="M1126 186l15 -102q-67 -48 -144.5 -77.5t-142.5 -29.5q-68 0 -105.5 30t-37.5 89q0 23 7 67t16.5 87.5t27.5 128t31 149.5l-25 7q-55 -171 -96.5 -271t-92 -169.5t-107 -95.5t-136.5 -26q-63 0 -110.5 17t-85.5 57t-57.5 112t-19.5 175q0 105 19.5 208t62 199.5t103 170
t149.5 117.5t195 44q147 0 225 -78l19 56q77 22 188 22l55 -55l-106 -871q57 0 153 39zM504 172q65 91 129 261t147 472q-67 37 -141 37q-52 0 -104 -18q-79 -115 -119.5 -283.5t-40.5 -321.5q0 -86 18.5 -118.5t65.5 -32.5q9 0 45 4zM985 1239l-182 -84l-146 225h-20
l-176 -206h-119l303 409h172z" />
    <glyph glyph-name="atilde" unicode="&#xe3;" horiz-adv-x="1177" 
d="M1126 186l15 -102q-67 -48 -144.5 -77.5t-142.5 -29.5q-68 0 -105.5 30t-37.5 89q0 23 7 67t16.5 87.5t27.5 128t31 149.5l-25 7q-55 -171 -96.5 -271t-92 -169.5t-107 -95.5t-136.5 -26q-63 0 -110.5 17t-85.5 57t-57.5 112t-19.5 175q0 105 19.5 208t62 199.5t103 170
t149.5 117.5t195 44q147 0 225 -78l19 56q77 22 188 22l55 -55l-106 -871q57 0 153 39zM504 172q65 91 129 261t147 472q-67 37 -141 37q-52 0 -104 -18q-79 -115 -119.5 -283.5t-40.5 -321.5q0 -86 18.5 -118.5t65.5 -32.5q9 0 45 4zM934 1509l65 -53q-18 -49 -38 -87.5
t-48 -75t-65.5 -56.5t-81.5 -20q-59 0 -119 34l-131 78l-100 -112l-66 55q88 239 234 239q55 0 116 -36l131 -78z" />
    <glyph glyph-name="adieresis" unicode="&#xe4;" horiz-adv-x="1177" 
d="M1126 186l15 -102q-67 -48 -144.5 -77.5t-142.5 -29.5q-68 0 -105.5 30t-37.5 89q0 23 7 67t16.5 87.5t27.5 128t31 149.5l-25 7q-55 -171 -96.5 -271t-92 -169.5t-107 -95.5t-136.5 -26q-63 0 -110.5 17t-85.5 57t-57.5 112t-19.5 175q0 105 19.5 208t62 199.5t103 170
t149.5 117.5t195 44q147 0 225 -78l19 56q77 22 188 22l55 -55l-106 -871q57 0 153 39zM504 172q65 91 129 261t147 472q-67 37 -141 37q-52 0 -104 -18q-79 -115 -119.5 -283.5t-40.5 -321.5q0 -86 18.5 -118.5t65.5 -32.5q9 0 45 4zM498 1513q54 0 84 -12q20 -45 20 -90
q0 -84 -55 -164h-191l-16 236q75 30 158 30zM918 1513q49 0 86 -12q20 -42 20 -86q0 -82 -57 -168h-191l-16 236q75 30 158 30z" />
    <glyph glyph-name="aring" unicode="&#xe5;" horiz-adv-x="1177" 
d="M1126 186l15 -102q-67 -48 -144.5 -77.5t-142.5 -29.5q-68 0 -105.5 30t-37.5 89q0 23 7 67t16.5 87.5t27.5 128t31 149.5l-25 7q-55 -171 -96.5 -271t-92 -169.5t-107 -95.5t-136.5 -26q-63 0 -110.5 17t-85.5 57t-57.5 112t-19.5 175q0 105 19.5 208t62 199.5t103 170
t149.5 117.5t195 44q147 0 225 -78l19 56q77 22 188 22l55 -55l-106 -871q57 0 153 39zM504 172q65 91 129 261t147 472q-67 37 -141 37q-52 0 -104 -18q-79 -115 -119.5 -283.5t-40.5 -321.5q0 -86 18.5 -118.5t65.5 -32.5q9 0 45 4zM711 1620q110 0 164.5 -50t54.5 -140
q0 -106 -71 -175t-204 -69q-111 0 -166 49t-55 139q0 107 71.5 176.5t205.5 69.5zM698 1518q-26 0 -49 -13q-39 -48 -39 -135q0 -82 56 -82q29 0 49 10q41 51 41 138q0 82 -58 82z" />
    <glyph glyph-name="ae" unicode="&#xe6;" horiz-adv-x="1617" 
d="M1169 172q71 0 157 33.5t165 91.5l20 -109q-85 -96 -204.5 -155.5t-262.5 -59.5q-80 0 -140 23.5t-93.5 64.5t-53.5 95t-20.5 115t6.5 126l-24 6q-31 -94 -56 -156t-58 -118.5t-70 -88t-87 -49.5t-114 -18q-63 0 -110 17t-84.5 57t-57 112.5t-19.5 176.5
q0 105 19.5 207.5t62 199t104 169.5t152 117t199.5 44q186 0 303 -117q128 117 328 117q182 0 266 -77t84 -203q0 -83 -36.5 -147t-95.5 -102t-140.5 -61t-163 -30t-172.5 -4v-15q0 -262 196 -262zM774 780q33 64 66 105q-96 57 -197 57q-57 0 -106 -18
q-79 -115 -120.5 -284t-41.5 -321q0 -86 18.5 -118.5t67.5 -32.5q25 0 39 4q66 112 153.5 325.5t120.5 282.5zM1194 940q-45 0 -90 -20q-50 -56 -82.5 -165t-42.5 -223q307 40 307 285q0 65 -21 94t-71 29z" />
    <glyph glyph-name="ccedilla" unicode="&#xe7;" horiz-adv-x="948" 
d="M547 178q131 0 291 109l20 -115q-142 -155 -332 -188l-12 -105q166 0 166 -127q0 -81 -65.5 -134.5t-186.5 -53.5q-140 0 -209 63l27 92q94 -24 127 -24q43 0 65.5 18.5t22.5 50.5q0 29 -21.5 41t-85.5 21h-2l43 149q-171 9 -255.5 126.5t-84.5 308.5q0 89 17.5 177.5
t60 177t105 155.5t160.5 109t218 42q118 0 201 -42.5t101 -127.5l-113 -139l-254 176q-32 -6 -57 -18q-58 -74 -91.5 -218t-33.5 -266q0 -258 178 -258z" />
    <glyph glyph-name="egrave" unicode="&#xe8;" horiz-adv-x="1007" 
d="M559 172q71 0 157 33.5t165 91.5l20 -109q-85 -96 -204 -155.5t-261 -59.5q-193 0 -287 117t-94 318q0 90 18 178.5t61 177.5t106.5 156t163.5 109t223 42q177 0 260.5 -76.5t83.5 -201.5q0 -83 -36.5 -146.5t-95.5 -101.5t-140 -61.5t-163.5 -30.5t-173.5 -4v-15
q0 -262 197 -262zM584 940q-42 0 -90 -20q-50 -57 -82.5 -165.5t-42.5 -222.5q307 40 307 285q0 65 -21 94t-71 29zM694 1174h-119l-258 288q54 103 125 142h162z" />
    <glyph glyph-name="eacute" unicode="&#xe9;" horiz-adv-x="1007" 
d="M559 172q71 0 157 33.5t165 91.5l20 -109q-85 -96 -204 -155.5t-261 -59.5q-193 0 -287 117t-94 318q0 90 18 178.5t61 177.5t106.5 156t163.5 109t223 42q177 0 260.5 -76.5t83.5 -201.5q0 -83 -36.5 -146.5t-95.5 -101.5t-140 -61.5t-163.5 -30.5t-173.5 -4v-15
q0 -262 197 -262zM584 940q-42 0 -90 -20q-50 -57 -82.5 -165.5t-42.5 -222.5q307 40 307 285q0 65 -21 94t-71 29zM778 1604h164q63 -53 82 -142l-334 -288h-119z" />
    <glyph glyph-name="ecircumflex" unicode="&#xea;" horiz-adv-x="1007" 
d="M559 172q71 0 157 33.5t165 91.5l20 -109q-85 -96 -204 -155.5t-261 -59.5q-193 0 -287 117t-94 318q0 90 18 178.5t61 177.5t106.5 156t163.5 109t223 42q177 0 260.5 -76.5t83.5 -201.5q0 -83 -36.5 -146.5t-95.5 -101.5t-140 -61.5t-163.5 -30.5t-173.5 -4v-15
q0 -262 197 -262zM584 940q-42 0 -90 -20q-50 -57 -82.5 -165.5t-42.5 -222.5q307 40 307 285q0 65 -21 94t-71 29zM963 1239l-183 -84l-145 225h-21l-176 -206h-119l304 409h172z" />
    <glyph glyph-name="edieresis" unicode="&#xeb;" horiz-adv-x="1007" 
d="M559 172q71 0 157 33.5t165 91.5l20 -109q-85 -96 -204 -155.5t-261 -59.5q-193 0 -287 117t-94 318q0 90 18 178.5t61 177.5t106.5 156t163.5 109t223 42q177 0 260.5 -76.5t83.5 -201.5q0 -83 -36.5 -146.5t-95.5 -101.5t-140 -61.5t-163.5 -30.5t-173.5 -4v-15
q0 -262 197 -262zM584 940q-42 0 -90 -20q-50 -57 -82.5 -165.5t-42.5 -222.5q307 40 307 285q0 65 -21 94t-71 29zM475 1513q54 0 84 -12q21 -47 21 -90q0 -82 -56 -164h-190l-17 236q75 30 158 30zM895 1513q49 0 86 -12q20 -42 20 -86q0 -82 -57 -168h-190l-17 236
q75 30 158 30z" />
    <glyph glyph-name="igrave" unicode="&#xec;" horiz-adv-x="591" 
d="M446 1063l52 -51q-66 -559 -107 -865q54 0 150 39l14 -102q-149 -107 -281 -107q-82 0 -123.5 35t-41.5 115q0 89 88 747l-134 17v104q210 65 383 68zM426 1174h-119l-258 288q54 103 123 142h164z" />
    <glyph glyph-name="iacute" unicode="&#xed;" horiz-adv-x="591" 
d="M446 1063l52 -51q-66 -559 -107 -865q54 0 150 39l14 -102q-149 -107 -281 -107q-82 0 -123.5 35t-41.5 115q0 89 88 747l-134 17v104q210 65 383 68zM465 1604h164q63 -50 82 -142l-289 -288h-119z" />
    <glyph glyph-name="icircumflex" unicode="&#xee;" horiz-adv-x="591" 
d="M446 1063l52 -51q-66 -559 -107 -865q54 0 150 39l14 -102q-149 -107 -281 -107q-82 0 -123.5 35t-41.5 115q0 89 88 747l-134 17v104q210 65 383 68zM653 1245l-184 -74l-107 195h-20l-133 -182h-121l262 399h172z" />
    <glyph glyph-name="idieresis" unicode="&#xef;" horiz-adv-x="591" 
d="M446 1063l52 -51q-66 -559 -107 -865q54 0 150 39l14 -102q-149 -107 -281 -107q-82 0 -123.5 35t-41.5 115q0 89 88 747l-134 17v104q210 65 383 68zM223 1513q54 0 84 -12q21 -38 21 -88q0 -84 -56 -166h-180l-14 236q75 30 145 30zM602 1513q48 0 86 -12
q19 -36 19 -88q0 -87 -56 -166h-178l-16 236q73 30 145 30z" />
    <glyph glyph-name="eth" unicode="&#xf0;" horiz-adv-x="1097" 
d="M956 1448l-182 -96q277 -220 277 -631q0 -115 -19.5 -220t-64 -203t-110.5 -169.5t-166 -114.5t-224 -43q-193 0 -302.5 106t-109.5 314q0 76 14 154t48.5 160t85.5 145.5t133 104t184 40.5q68 0 112 -17t89 -52l20 2q-18 187 -157 323l-217 -114l-97 61l-4 33l207 110
q-103 71 -229 125l69 90q192 -45 334 -122l211 112l96 -65zM598 129q67 70 104 235t37 386v61q-79 33 -145 33q-53 0 -96 -19q-58 -63 -94.5 -214t-36.5 -294q0 -106 30.5 -159.5t102.5 -53.5q50 0 98 25z" />
    <glyph glyph-name="ntilde" unicode="&#xf1;" horiz-adv-x="1210" 
d="M1145 186l14 -102q-153 -107 -293 -107q-159 0 -159 148q0 64 50 330t50 333q0 46 -18.5 67.5t-63.5 21.5q-18 0 -39 -3q-170 -236 -324 -874q-100 -23 -215 -23l-53 56l103 841l-134 17v104q82 27 188 47t193 21l52 -51l-97 -488l25 -4q44 134 78 220.5t71.5 155.5
t77.5 105t88 54t111 18q242 0 242 -239q0 -121 -91 -628q-7 -40 -10 -59q58 0 154 39zM1001 1499l66 -53q-88 -240 -233 -240q-57 0 -119 35l-131 78l-101 -113l-65 56q88 239 233 239q54 0 117 -37l131 -78z" />
    <glyph glyph-name="ograve" unicode="&#xf2;" horiz-adv-x="1110" 
d="M629 1071q215 0 320.5 -118.5t105.5 -323.5q0 -87 -17 -173t-59.5 -175t-106 -156t-164 -109.5t-225.5 -42.5q-215 0 -320.5 119t-105.5 326q0 87 17.5 173.5t60 174.5t106 154.5t164 108.5t224.5 42zM604 940q-48 0 -96 -20q-63 -70 -100 -250.5t-37 -343.5
q0 -115 33 -168.5t110 -53.5q50 0 94 23q64 66 100.5 247t36.5 343q0 119 -33 171t-108 52zM690 1174h-119l-258 288q54 103 125 142h162z" />
    <glyph glyph-name="oacute" unicode="&#xf3;" horiz-adv-x="1110" 
d="M629 1071q215 0 320.5 -118.5t105.5 -323.5q0 -87 -17 -173t-59.5 -175t-106 -156t-164 -109.5t-225.5 -42.5q-215 0 -320.5 119t-105.5 326q0 87 17.5 173.5t60 174.5t106 154.5t164 108.5t224.5 42zM604 940q-48 0 -96 -20q-63 -70 -100 -250.5t-37 -343.5
q0 -115 33 -168.5t110 -53.5q50 0 94 23q64 66 100.5 247t36.5 343q0 119 -33 171t-108 52zM774 1604h164q63 -53 82 -142l-334 -288h-119z" />
    <glyph glyph-name="ocircumflex" unicode="&#xf4;" horiz-adv-x="1110" 
d="M629 1071q215 0 320.5 -118.5t105.5 -323.5q0 -87 -17 -173t-59.5 -175t-106 -156t-164 -109.5t-225.5 -42.5q-215 0 -320.5 119t-105.5 326q0 87 17.5 173.5t60 174.5t106 154.5t164 108.5t224.5 42zM604 940q-48 0 -96 -20q-63 -70 -100 -250.5t-37 -343.5
q0 -115 33 -168.5t110 -53.5q50 0 94 23q64 66 100.5 247t36.5 343q0 119 -33 171t-108 52zM958 1239l-182 -84l-145 225h-21l-176 -206h-119l303 409h173z" />
    <glyph glyph-name="otilde" unicode="&#xf5;" horiz-adv-x="1110" 
d="M629 1071q215 0 320.5 -118.5t105.5 -323.5q0 -87 -17 -173t-59.5 -175t-106 -156t-164 -109.5t-225.5 -42.5q-215 0 -320.5 119t-105.5 326q0 87 17.5 173.5t60 174.5t106 154.5t164 108.5t224.5 42zM604 940q-48 0 -96 -20q-63 -70 -100 -250.5t-37 -343.5
q0 -115 33 -168.5t110 -53.5q50 0 94 23q64 66 100.5 247t36.5 343q0 119 -33 171t-108 52zM907 1509l66 -53q-88 -239 -234 -239q-58 0 -118 34l-132 78l-100 -112l-65 55q88 239 233 239q56 0 117 -36l131 -78z" />
    <glyph glyph-name="odieresis" unicode="&#xf6;" horiz-adv-x="1110" 
d="M629 1071q215 0 320.5 -118.5t105.5 -323.5q0 -87 -17 -173t-59.5 -175t-106 -156t-164 -109.5t-225.5 -42.5q-215 0 -320.5 119t-105.5 326q0 87 17.5 173.5t60 174.5t106 154.5t164 108.5t224.5 42zM604 940q-48 0 -96 -20q-63 -70 -100 -250.5t-37 -343.5
q0 -115 33 -168.5t110 -53.5q50 0 94 23q64 66 100.5 247t36.5 343q0 119 -33 171t-108 52zM471 1513q54 0 84 -12q20 -45 20 -90q0 -84 -55 -164h-190l-17 236q75 30 158 30zM891 1513q48 0 86 -12q20 -42 20 -86q0 -82 -57 -168h-190l-17 236q75 30 158 30z" />
    <glyph glyph-name="divide" unicode="&#xf7;" 
d="M731 1163q54 0 107 -16q22 -42 22 -90q0 -88 -69 -197h-222l-14 270q89 33 176 33zM1122 633l-12 -107h-950v64l14 104h948v-61zM633 373q44 0 106 -15q23 -44 23 -92q0 -49 -17 -93.5t-53 -100.5h-221l-14 268q79 33 176 33z" />
    <glyph glyph-name="oslash" unicode="&#xf8;" horiz-adv-x="1110" 
d="M1057 1157l-125 -186q123 -117 123 -342q0 -87 -17 -173t-59.5 -175t-106 -156t-164 -109.5t-225.5 -42.5q-120 0 -209 39l-127 -184l-90 45l-12 33l121 182q-109 115 -109 330q0 88 17.5 174.5t60 174.5t106 154t164 108t224.5 42q114 0 190 -33l135 197l93 -45z
M610 938q-66 0 -114 -23q-60 -65 -98.5 -233.5t-41.5 -329.5l363 541q-36 45 -109 45zM618 129q64 66 101 246.5t37 343.5v22l-377 -563q35 -74 125 -74q62 0 114 25z" />
    <glyph glyph-name="ugrave" unicode="&#xf9;" horiz-adv-x="1212" 
d="M1161 186l15 -102q-71 -48 -155 -77.5t-149 -29.5q-69 0 -106 30t-37 89q0 23 6.5 66t15.5 86.5t25.5 125.5t28.5 146l-23 6q-44 -134 -78 -220t-71.5 -155t-77.5 -105t-88 -54.5t-111 -18.5q-241 0 -241 240q0 120 87 610l9 51l-133 17v104q211 64 385 70l49 -53
q-4 -35 -58.5 -356.5t-54.5 -397.5q0 -47 18.5 -68.5t63.5 -21.5q23 0 37 2q159 230 326 877q96 22 215 22l53 -55l-106 -867q59 0 155 39zM727 1174h-119l-258 288q54 103 125 142h162z" />
    <glyph glyph-name="uacute" unicode="&#xfa;" horiz-adv-x="1212" 
d="M1161 186l15 -102q-71 -48 -155 -77.5t-149 -29.5q-69 0 -106 30t-37 89q0 23 6.5 66t15.5 86.5t25.5 125.5t28.5 146l-23 6q-44 -134 -78 -220t-71.5 -155t-77.5 -105t-88 -54.5t-111 -18.5q-241 0 -241 240q0 120 87 610l9 51l-133 17v104q211 64 385 70l49 -53
q-4 -35 -58.5 -356.5t-54.5 -397.5q0 -47 18.5 -68.5t63.5 -21.5q23 0 37 2q159 230 326 877q96 22 215 22l53 -55l-106 -867q59 0 155 39zM811 1604h164q63 -53 82 -142l-334 -288h-119z" />
    <glyph glyph-name="ucircumflex" unicode="&#xfb;" horiz-adv-x="1212" 
d="M1161 186l15 -102q-71 -48 -155 -77.5t-149 -29.5q-69 0 -106 30t-37 89q0 23 6.5 66t15.5 86.5t25.5 125.5t28.5 146l-23 6q-44 -134 -78 -220t-71.5 -155t-77.5 -105t-88 -54.5t-111 -18.5q-241 0 -241 240q0 120 87 610l9 51l-133 17v104q211 64 385 70l49 -53
q-4 -35 -58.5 -356.5t-54.5 -397.5q0 -47 18.5 -68.5t63.5 -21.5q23 0 37 2q159 230 326 877q96 22 215 22l53 -55l-106 -867q59 0 155 39zM995 1239l-182 -84l-145 225h-21l-176 -206h-119l303 409h172z" />
    <glyph glyph-name="udieresis" unicode="&#xfc;" horiz-adv-x="1212" 
d="M1161 186l15 -102q-71 -48 -155 -77.5t-149 -29.5q-69 0 -106 30t-37 89q0 23 6.5 66t15.5 86.5t25.5 125.5t28.5 146l-23 6q-44 -134 -78 -220t-71.5 -155t-77.5 -105t-88 -54.5t-111 -18.5q-241 0 -241 240q0 120 87 610l9 51l-133 17v104q211 64 385 70l49 -53
q-4 -35 -58.5 -356.5t-54.5 -397.5q0 -47 18.5 -68.5t63.5 -21.5q23 0 37 2q159 230 326 877q96 22 215 22l53 -55l-106 -867q59 0 155 39zM508 1513q54 0 84 -12q20 -45 20 -90q0 -84 -55 -164h-190l-17 236q75 30 158 30zM928 1513q48 0 86 -12q20 -42 20 -86
q0 -82 -57 -168h-191l-16 236q75 30 158 30z" />
    <glyph glyph-name="yacute" unicode="&#xfd;" horiz-adv-x="1075" 
d="M709 985l178 88q68 -24 107.5 -89.5t39.5 -164.5q0 -171 -116 -418.5t-300 -474.5q-290 -362 -512 -362q-59 0 -120.5 25t-108.5 75l29 107q180 -45 307 -45q84 57 149 120q-138 722 -212 1028l-134 17v104q200 65 357 68l51 -51q127 -586 156 -906h22q76 109 145.5 267
t102.5 315zM784 1604h164q63 -53 82 -142l-334 -288h-118z" />
    <glyph glyph-name="thorn" unicode="&#xfe;" horiz-adv-x="1153" 
d="M819 1073q64 0 111.5 -17t85 -56.5t57 -111.5t19.5 -175q0 -87 -14 -173.5t-41.5 -170t-71.5 -155t-100.5 -125.5t-133 -85t-164.5 -31q-136 0 -215 58l-47 -437q-74 -30 -227 -30l-55 55l215 1733l-111 37l12 104q153 44 346 47l54 -51l-60 -395q-40 -261 -119 -578
l25 -6q43 135 77.5 223t72.5 158t79 107.5t90.5 56t114.5 18.5zM623 123q78 115 117.5 283t39.5 321q0 86 -17.5 118t-64.5 32q-5 0 -45 -5q-63 -90 -127.5 -260t-150.5 -475q74 -33 143 -33q50 0 105 19z" />
    <glyph glyph-name="ydieresis" unicode="&#xff;" horiz-adv-x="1075" 
d="M709 985l178 88q68 -24 107.5 -89.5t39.5 -164.5q0 -171 -116 -418.5t-300 -474.5q-290 -362 -512 -362q-59 0 -120.5 25t-108.5 75l29 107q180 -45 307 -45q84 57 149 120q-138 722 -212 1028l-134 17v104q200 65 357 68l51 -51q127 -586 156 -906h22q76 109 145.5 267
t102.5 315zM481 1513q54 0 84 -12q21 -47 21 -90q0 -82 -56 -164h-190l-16 236q75 30 157 30zM901 1513q49 0 86 -12q21 -44 21 -86q0 -80 -58 -168h-190l-17 236q75 30 158 30z" />
    <glyph glyph-name="Amacron" unicode="&#x100;" horiz-adv-x="1337" 
d="M1290 113v-52l-8 -61h-582v111q73 33 144 43q-8 37 -24.5 111.5t-24.5 111.5h-422q-54 -133 -97 -248l134 -16v-52l-9 -61h-424v111q73 34 142 43q249 595 493 1106l-18 88l63 53q125 0 236 -27q164 -805 274 -1247zM430 520h336q-10 51 -94 494h-27q-77 -170 -215 -494z
M471 1731h588q6 -24 6 -54q0 -65 -27 -123h-587q-5 20 -5 52q0 68 25 125z" />
    <glyph glyph-name="amacron" unicode="&#x101;" horiz-adv-x="1177" 
d="M1126 186l15 -102q-67 -48 -144.5 -77.5t-142.5 -29.5q-68 0 -105.5 30t-37.5 89q0 23 7 67t16.5 87.5t27.5 128t31 149.5l-25 7q-55 -171 -96.5 -271t-92 -169.5t-107 -95.5t-136.5 -26q-63 0 -110.5 17t-85.5 57t-57.5 112t-19.5 175q0 105 19.5 208t62 199.5t103 170
t149.5 117.5t195 44q147 0 225 -78l19 56q77 22 188 22l55 -55l-106 -871q57 0 153 39zM504 172q65 91 129 261t147 472q-67 37 -141 37q-52 0 -104 -18q-79 -115 -119.5 -283.5t-40.5 -321.5q0 -86 18.5 -118.5t65.5 -32.5q9 0 45 4zM416 1442h540q7 -21 7 -51
q0 -65 -27 -123h-541q-4 12 -4 49q0 65 25 125z" />
    <glyph glyph-name="Abreve" unicode="&#x102;" horiz-adv-x="1337" 
d="M1290 113v-52l-8 -61h-582v111q73 33 144 43q-8 37 -24.5 111.5t-24.5 111.5h-422q-54 -133 -97 -248l134 -16v-52l-9 -61h-424v111q73 34 142 43q249 595 493 1106l-18 88l63 53q125 0 236 -27q164 -805 274 -1247zM430 520h336q-10 51 -94 494h-27q-77 -170 -215 -494z
M459 1780l188 35q6 -90 40 -133.5t108 -43.5q75 0 118 41t82 131l90 -14q-36 -159 -125.5 -242.5t-232.5 -83.5q-149 0 -215 87.5t-53 222.5z" />
    <glyph glyph-name="abreve" unicode="&#x103;" horiz-adv-x="1177" 
d="M1126 186l15 -102q-67 -48 -144.5 -77.5t-142.5 -29.5q-68 0 -105.5 30t-37.5 89q0 23 7 67t16.5 87.5t27.5 128t31 149.5l-25 7q-55 -171 -96.5 -271t-92 -169.5t-107 -95.5t-136.5 -26q-63 0 -110.5 17t-85.5 57t-57.5 112t-19.5 175q0 105 19.5 208t62 199.5t103 170
t149.5 117.5t195 44q147 0 225 -78l19 56q77 22 188 22l55 -55l-106 -871q57 0 153 39zM504 172q65 91 129 261t147 472q-67 37 -141 37q-52 0 -104 -18q-79 -115 -119.5 -283.5t-40.5 -321.5q0 -86 18.5 -118.5t65.5 -32.5q9 0 45 4zM408 1520l188 34q2 -99 27.5 -146.5
t99.5 -47.5q70 0 110 46.5t70 145.5l88 -22q-30 -170 -117.5 -254t-218.5 -84q-63 0 -112 19.5t-77 52t-45 74.5t-18 88.5t5 93.5z" />
    <glyph glyph-name="Aogonek" unicode="&#x104;" horiz-adv-x="1337" 
d="M1290 113v-52l-8 -61h-360q-80 -115 -80 -199q0 -96 100 -96q34 0 96 16l4 -98q-103 -59 -221 -59q-111 0 -167 52.5t-56 139.5q0 99 69.5 187.5t188.5 158.5q-56 252 -61 275h-422q-54 -133 -97 -248l134 -16v-52l-9 -61h-424v111q73 34 142 43q249 595 493 1106l-18 88
l63 53q125 0 236 -27q164 -805 274 -1247zM430 520h336q-10 51 -94 494h-27q-77 -170 -215 -494z" />
    <glyph glyph-name="aogonek" unicode="&#x105;" horiz-adv-x="1177" 
d="M987 -293q40 0 98 14l5 -98q-88 -59 -222 -59q-115 0 -168 44.5t-53 117.5q0 77 57 137t156 98l-2 23q-20 -3 -35 0q-110 6 -110 108q0 20 3.5 48t12.5 74t16.5 82t23.5 110.5t26 121.5l-25 7q-55 -170 -97 -270.5t-92.5 -170t-106.5 -95.5t-136 -26q-133 0 -204 80.5
t-71 280.5q0 105 19.5 208t62 199.5t103 170t149.5 117.5t195 44q147 0 225 -78l21 56q77 22 186 22l57 -55l-108 -871q59 0 155 39l15 -102q-250 -147 -250 -285q0 -92 94 -92zM506 174q64 89 127 257.5t147 473.5q-67 37 -141 37q-53 0 -102 -18q-79 -115 -120.5 -284
t-41.5 -321q0 -86 18.5 -118.5t65.5 -32.5q20 0 47 6z" />
    <glyph glyph-name="Cacute" unicode="&#x106;" horiz-adv-x="1239" 
d="M625 1194q-82 -72 -139.5 -263.5t-57.5 -377.5q0 -197 71 -281t224 -84q83 0 183 31t190 92l22 -116q-93 -99 -227.5 -160.5t-276.5 -61.5q-261 0 -394.5 155t-133.5 423q0 117 24.5 233t78 225.5t129.5 193.5t188.5 135t245.5 51q122 0 209 -54l4 31q109 25 168 25
l59 -45q4 -28 4 -58q0 -142 -45 -327h-174l-25 251q-87 23 -153 23q-90 0 -174 -41zM905 1849h162q61 -39 84 -139l-336 -240h-135z" />
    <glyph glyph-name="cacute" unicode="&#x107;" horiz-adv-x="948" 
d="M547 178q131 0 291 109l20 -115q-81 -90 -193 -144.5t-239 -54.5q-125 0 -210 57.5t-123 153.5t-38 226q0 89 17.5 177.5t60 177t105 155.5t160.5 109t218 42q118 0 201 -42.5t101 -127.5l-113 -139l-254 176q-32 -6 -57 -18q-58 -74 -91.5 -218t-33.5 -266
q0 -258 178 -258zM719 1604h164q63 -53 82 -142l-334 -288h-119z" />
    <glyph glyph-name="Ccircumflex" unicode="&#x108;" horiz-adv-x="1239" 
d="M625 1194q-82 -72 -139.5 -263.5t-57.5 -377.5q0 -197 71 -281t224 -84q83 0 183 31t190 92l22 -116q-93 -99 -227.5 -160.5t-276.5 -61.5q-261 0 -394.5 155t-133.5 423q0 117 24.5 233t78 225.5t129.5 193.5t188.5 135t245.5 51q122 0 209 -54l4 31q109 25 168 25
l59 -45q4 -28 4 -58q0 -142 -45 -327h-174l-25 251q-87 23 -153 23q-90 0 -174 -41zM1100 1538l-180 -96l-170 196h-19l-188 -168h-127l321 361h172z" />
    <glyph glyph-name="ccircumflex" unicode="&#x109;" horiz-adv-x="948" 
d="M547 178q131 0 291 109l20 -115q-81 -90 -193 -144.5t-239 -54.5q-125 0 -210 57.5t-123 153.5t-38 226q0 89 17.5 177.5t60 177t105 155.5t160.5 109t218 42q118 0 201 -42.5t101 -127.5l-113 -139l-254 176q-32 -6 -57 -18q-58 -74 -91.5 -218t-33.5 -266
q0 -258 178 -258zM903 1239l-182 -84l-146 225h-20l-176 -206h-119l303 409h172z" />
    <glyph glyph-name="Cdotaccent" unicode="&#x10a;" horiz-adv-x="1239" 
d="M625 1194q-82 -72 -139.5 -263.5t-57.5 -377.5q0 -197 71 -281t224 -84q83 0 183 31t190 92l22 -116q-93 -99 -227.5 -160.5t-276.5 -61.5q-261 0 -394.5 155t-133.5 423q0 117 24.5 233t78 225.5t129.5 193.5t188.5 135t245.5 51q122 0 209 -54l4 31q109 25 168 25
l59 -45q4 -28 4 -58q0 -142 -45 -327h-174l-25 251q-87 23 -153 23q-90 0 -174 -41zM811 1782q55 0 96 -13q23 -52 23 -96q0 -84 -62 -182h-223l-12 258q86 33 178 33z" />
    <glyph glyph-name="cdotaccent" unicode="&#x10b;" horiz-adv-x="948" 
d="M547 178q131 0 291 109l20 -115q-81 -90 -193 -144.5t-239 -54.5q-125 0 -210 57.5t-123 153.5t-38 226q0 89 17.5 177.5t60 177t105 155.5t160.5 109t218 42q118 0 201 -42.5t101 -127.5l-113 -139l-254 176q-32 -6 -57 -18q-58 -74 -91.5 -218t-33.5 -266
q0 -258 178 -258zM637 1530q64 0 94 -12q21 -47 21 -93q0 -84 -60 -184h-223l-14 258q91 31 182 31z" />
    <glyph glyph-name="Ccaron" unicode="&#x10c;" horiz-adv-x="1239" 
d="M625 1194q-82 -72 -139.5 -263.5t-57.5 -377.5q0 -197 71 -281t224 -84q83 0 183 31t190 92l22 -116q-93 -99 -227.5 -160.5t-276.5 -61.5q-261 0 -394.5 155t-133.5 423q0 117 24.5 233t78 225.5t129.5 193.5t188.5 135t245.5 51q122 0 209 -54l4 31q109 25 168 25
l59 -45q4 -28 4 -58q0 -142 -45 -327h-174l-25 251q-87 23 -153 23q-90 0 -174 -41zM805 1663h20l189 168h125l-320 -361h-172l-192 297l184 91z" />
    <glyph glyph-name="ccaron" unicode="&#x10d;" horiz-adv-x="948" 
d="M547 178q131 0 291 109l20 -115q-81 -90 -193 -144.5t-239 -54.5q-125 0 -210 57.5t-123 153.5t-38 226q0 89 17.5 177.5t60 177t105 155.5t160.5 109t218 42q118 0 201 -42.5t101 -127.5l-113 -139l-254 176q-32 -6 -57 -18q-58 -74 -91.5 -218t-33.5 -266
q0 -258 178 -258zM623 1378h18l174 205h121l-303 -407h-172l-166 340l180 90z" />
    <glyph glyph-name="Dcaron" unicode="&#x10e;" horiz-adv-x="1386" 
d="M651 1380q153 0 269.5 -26t195 -73t128.5 -119t71.5 -159t21.5 -198q0 -75 -9.5 -148.5t-33.5 -154.5t-60.5 -152t-95.5 -136t-134 -112t-180 -74.5t-230 -27.5h-571v111q88 35 151 45l100 1058l-143 23v51l8 62q99 13 253 21.5t259 8.5zM842 209q78 102 116.5 273
t38.5 370q0 94 -13 161.5t-45 120t-90.5 78.5t-143.5 25h-123l-105 -1092h107q160 0 258 64zM817 1663h21l188 168h125l-320 -361h-172l-192 297l184 91z" />
    <glyph glyph-name="dcaron" unicode="&#x10f;" horiz-adv-x="1409" 
d="M1126 186l15 -102q-67 -48 -144.5 -77.5t-142.5 -29.5q-68 0 -105.5 30t-37.5 89q0 19 4 47.5t12.5 71.5t17 83t24 109.5t26.5 122.5l-25 7q-44 -136 -78 -223.5t-71.5 -158t-78.5 -107.5t-90 -56t-114 -19q-133 0 -204 80.5t-71 280.5q0 105 19.5 207.5t62 199
t103.5 170t150.5 118t195.5 44.5q125 0 209 -49l33 328l-109 37l12 104q161 46 346 49l54 -53l-168 -1342q59 0 155 39zM504 172q128 186 276 741q-78 29 -139 29q-55 0 -104 -18q-79 -115 -120.5 -284t-41.5 -321q0 -86 18.5 -118.5t65.5 -32.5q13 0 45 4zM1364 1552
q82 0 156 -45q-16 -130 -62.5 -232.5t-144.5 -209.5h-103l66 268v207q34 12 88 12z" />
    <glyph glyph-name="Dcroat" unicode="&#x110;" horiz-adv-x="1406" 
d="M672 1380q153 0 269.5 -26t195 -73t128.5 -119t71.5 -159t21.5 -198q0 -75 -9.5 -148.5t-33 -154.5t-60 -152t-95.5 -136t-134 -112t-180 -74.5t-230 -27.5h-571v111q87 35 154 45l45 479h-146v45l15 94h143l43 440l-143 23v51l6 62q101 13 254 21.5t256 8.5zM862 209
q78 103 117 274t39 369q0 194 -63 290t-228 95h-121l-43 -463h223v-45l-14 -94h-223l-47 -490h104q162 0 256 64z" />
    <glyph glyph-name="dcroat" unicode="&#x111;" horiz-adv-x="1179" 
d="M1264 1370v-59l-15 -70h-141l-137 -1094q59 0 155 39l15 -102q-67 -48 -144.5 -77.5t-142.5 -29.5q-68 0 -105.5 30t-37.5 89q0 19 4 47.5t12.5 71.5t17 83t24 109.5t26.5 122.5l-25 7q-44 -136 -78 -223.5t-71.5 -158t-78.5 -107.5t-90 -56t-114 -19q-133 0 -204 80.5
t-71 280.5q0 105 19.5 207.5t62 199t103.5 170t150.5 118t195.5 44.5q125 0 209 -49l22 217h-260v59l17 70h258l14 135q131 32 229 37l56 -53l-15 -119h140zM504 172q128 186 276 741q-78 29 -139 29q-55 0 -104 -18q-79 -115 -120.5 -284t-41.5 -321q0 -86 18.5 -118.5
t65.5 -32.5q9 0 45 4z" />
    <glyph glyph-name="Emacron" unicode="&#x112;" horiz-adv-x="1198" 
d="M582 1227l-45 -469l321 20l16 -53l-14 -119l-336 21l-47 -498h346l82 246l172 -13q4 -62 4 -90q0 -126 -47 -290v-11l-65 -6l-656 35h-290v111q88 35 151 45l100 1061l-143 18v53l8 62q214 12 547 12h279q100 29 163 29l56 -29q4 -36 4 -72q0 -145 -43 -299h-168l-21 219
zM430 1731h588q6 -24 6 -54q0 -65 -27 -123h-587q-4 16 -4 52q0 70 24 125z" />
    <glyph glyph-name="emacron" unicode="&#x113;" horiz-adv-x="1007" 
d="M559 172q71 0 157 33.5t165 91.5l20 -109q-85 -96 -204 -155.5t-261 -59.5q-193 0 -287 117t-94 318q0 90 18 178.5t61 177.5t106.5 156t163.5 109t223 42q177 0 260.5 -76.5t83.5 -201.5q0 -83 -36.5 -146.5t-95.5 -101.5t-140 -61.5t-163.5 -30.5t-173.5 -4v-15
q0 -262 197 -262zM584 940q-42 0 -90 -20q-50 -57 -82.5 -165.5t-42.5 -222.5q307 40 307 285q0 65 -21 94t-71 29zM393 1442h541q6 -18 6 -51q0 -65 -27 -123h-540q-4 12 -4 49q0 68 24 125z" />
    <glyph glyph-name="Ebreve" unicode="&#x114;" horiz-adv-x="1198" 
d="M582 1227l-45 -469l321 20l16 -53l-14 -119l-336 21l-47 -498h346l82 246l172 -13q4 -62 4 -90q0 -126 -47 -290v-11l-65 -6l-656 35h-290v111q88 35 151 45l100 1061l-143 18v53l8 62q214 12 547 12h279q100 29 163 29l56 -29q4 -36 4 -72q0 -145 -43 -299h-168l-21 219
zM418 1780l188 35q6 -90 40 -133.5t108 -43.5q75 0 118 41t82 131l90 -14q-36 -159 -125.5 -242.5t-232.5 -83.5q-149 0 -215 87.5t-53 222.5z" />
    <glyph glyph-name="ebreve" unicode="&#x115;" horiz-adv-x="1007" 
d="M559 172q71 0 157 33.5t165 91.5l20 -109q-85 -96 -204 -155.5t-261 -59.5q-193 0 -287 117t-94 318q0 90 18 178.5t61 177.5t106.5 156t163.5 109t223 42q177 0 260.5 -76.5t83.5 -201.5q0 -83 -36.5 -146.5t-95.5 -101.5t-140 -61.5t-163.5 -30.5t-173.5 -4v-15
q0 -262 197 -262zM584 940q-42 0 -90 -20q-50 -57 -82.5 -165.5t-42.5 -222.5q307 40 307 285q0 65 -21 94t-71 29zM385 1520l188 34q2 -99 27.5 -146.5t99.5 -47.5q70 0 110.5 47t70.5 145l88 -22q-30 -170 -117.5 -254t-218.5 -84q-63 0 -112 19.5t-77 52t-45.5 74.5
t-18.5 88.5t5 93.5z" />
    <glyph glyph-name="Edotaccent" unicode="&#x116;" horiz-adv-x="1198" 
d="M582 1227l-45 -469l321 20l16 -53l-14 -119l-336 21l-47 -498h346l82 246l172 -13q4 -62 4 -90q0 -126 -47 -290v-11l-65 -6l-656 35h-290v111q88 35 151 45l100 1061l-143 18v53l8 62q214 12 547 12h279q100 29 163 29l56 -29q4 -36 4 -72q0 -145 -43 -299h-168l-21 219
zM750 1782q55 0 96 -13q22 -49 22 -96q0 -86 -61 -182h-223l-13 258q86 33 179 33z" />
    <glyph glyph-name="edotaccent" unicode="&#x117;" horiz-adv-x="1007" 
d="M559 172q71 0 157 33.5t165 91.5l20 -109q-85 -96 -204 -155.5t-261 -59.5q-193 0 -287 117t-94 318q0 90 18 178.5t61 177.5t106.5 156t163.5 109t223 42q177 0 260.5 -76.5t83.5 -201.5q0 -83 -36.5 -146.5t-95.5 -101.5t-140 -61.5t-163.5 -30.5t-173.5 -4v-15
q0 -262 197 -262zM584 940q-42 0 -90 -20q-50 -57 -82.5 -165.5t-42.5 -222.5q307 40 307 285q0 65 -21 94t-71 29zM696 1530q65 0 95 -12q20 -45 20 -93q0 -85 -59 -184h-224l-14 258q91 31 182 31z" />
    <glyph glyph-name="Eogonek" unicode="&#x118;" horiz-adv-x="1198" 
d="M582 1227l-45 -469l321 20l16 -53l-14 -119l-336 21l-47 -498h346l82 246l172 -13q4 -62 4 -90q0 -124 -47 -288v-11h-114q-109 -90 -109 -178t94 -88q42 0 96 14l7 -98q-88 -59 -226 -59q-111 0 -164 41.5t-53 115.5q0 147 209 232v22l-461 25h-290v111q88 35 151 45
l100 1061l-143 18v53l8 62q214 12 547 12h279q100 29 163 29l56 -29q4 -36 4 -72q0 -145 -43 -299h-168l-21 219z" />
    <glyph glyph-name="eogonek" unicode="&#x119;" horiz-adv-x="1007" 
d="M559 174q70 0 156 33t166 90l20 -109q-63 -65 -158 -143q-77 -65 -112 -122t-35 -118q0 -52 23 -75t71 -23q38 0 96 14l5 -98q-88 -59 -222 -59q-114 0 -166.5 44t-52.5 118q0 44 15.5 79.5t48 66t63.5 51t82 48.5l-12 23q-75 -21 -121 -21q-184 0 -277.5 118.5
t-93.5 318.5q0 89 18 177.5t61 177t106.5 155.5t163.5 109t223 42q177 0 260.5 -76.5t83.5 -201.5q0 -83 -36.5 -146.5t-95.5 -101.5t-140 -61.5t-163.5 -30.5t-173.5 -4v-15q0 -260 197 -260zM584 940q-42 0 -90 -20q-50 -55 -81.5 -163t-43.5 -225q307 40 307 285
q0 65 -21 94t-71 29z" />
    <glyph glyph-name="Ecaron" unicode="&#x11a;" horiz-adv-x="1198" 
d="M582 1227l-45 -469l321 20l16 -53l-14 -119l-336 21l-47 -498h346l82 246l172 -13q4 -62 4 -90q0 -126 -47 -290v-11l-65 -6l-656 35h-290v111q88 35 151 45l100 1061l-143 18v53l8 62q214 12 547 12h279q100 29 163 29l56 -29q4 -36 4 -72q0 -145 -43 -299h-168l-21 219
zM743 1663h21l188 168h125l-319 -361h-172l-193 297l185 91z" />
    <glyph glyph-name="ecaron" unicode="&#x11b;" horiz-adv-x="1007" 
d="M559 172q71 0 157 33.5t165 91.5l20 -109q-85 -96 -204 -155.5t-261 -59.5q-193 0 -287 117t-94 318q0 90 18 178.5t61 177.5t106.5 156t163.5 109t223 42q177 0 260.5 -76.5t83.5 -201.5q0 -83 -36.5 -146.5t-95.5 -101.5t-140 -61.5t-163.5 -30.5t-173.5 -4v-15
q0 -262 197 -262zM584 940q-42 0 -90 -20q-50 -57 -82.5 -165.5t-42.5 -222.5q307 40 307 285q0 65 -21 94t-71 29zM682 1378h18l174 205h121l-303 -407h-172l-166 340l181 90z" />
    <glyph glyph-name="Gcircumflex" unicode="&#x11c;" horiz-adv-x="1312" 
d="M1251 612v-108q-46 -24 -92 -37l-43 -451l-63 -43q-81 0 -158 23l-14 47q-118 -70 -275 -70q-240 0 -380 155.5t-140 426.5q0 115 25 230t79.5 224.5t131 193.5t189 135t245.5 51q132 0 221 -52l4 29q109 25 168 25l59 -45q4 -28 4 -58q0 -142 -45 -327h-174l-24 251
q-90 23 -162 23q-91 0 -184 -41q-83 -77 -139 -280t-56 -416q0 -89 12.5 -154.5t40 -115.5t76.5 -75.5t119 -25.5q101 0 190 41l8 313l-133 17v53l9 61h501zM1100 1538l-180 -96l-170 196h-19l-188 -168h-127l321 361h172z" />
    <glyph glyph-name="gcircumflex" unicode="&#x11d;" horiz-adv-x="1032" 
d="M397 258l238 -57q168 -46 241.5 -101.5t73.5 -148.5q0 -75 -42 -144t-120 -123.5t-201.5 -87t-273.5 -32.5q-191 0 -286 54t-95 155q0 68 44 126t105.5 94t139.5 62q-35 41 -35 105q0 107 113 223q-109 30 -165 102t-56 177q0 81 32 154.5t91 130.5t151.5 90.5
t204.5 33.5q134 0 227 -49q12 118 68 180t154 62l67 -164l-219 -129q86 -83 86 -219q0 -75 -28.5 -142.5t-85 -123t-150.5 -88.5t-215 -33l-49 2zM453 922q-37 -33 -62.5 -112.5t-25.5 -166.5q0 -147 116 -147q49 0 86 16q34 32 60 113t26 170q0 80 -29 112.5t-83 32.5
q-51 0 -88 -18zM662 -244q43 30 43 74q0 28 -18 43t-66 31l-244 69q-55 15 -94 35q-97 -108 -97 -176q0 -64 50.5 -100.5t154.5 -36.5q72 0 146.5 16t124.5 45zM874 1239l-182 -84l-145 225h-21l-176 -206h-119l304 409h172z" />
    <glyph glyph-name="Gbreve" unicode="&#x11e;" horiz-adv-x="1312" 
d="M1251 612v-108q-46 -24 -92 -37l-43 -451l-63 -43q-81 0 -158 23l-14 47q-118 -70 -275 -70q-240 0 -380 155.5t-140 426.5q0 115 25 230t79.5 224.5t131 193.5t189 135t245.5 51q132 0 221 -52l4 29q109 25 168 25l59 -45q4 -28 4 -58q0 -142 -45 -327h-174l-24 251
q-90 23 -162 23q-91 0 -184 -41q-83 -77 -139 -280t-56 -416q0 -89 12.5 -154.5t40 -115.5t76.5 -75.5t119 -25.5q101 0 190 41l8 313l-133 17v53l9 61h501zM479 1780l189 35q6 -90 39.5 -133.5t107.5 -43.5q75 0 119 41.5t82 130.5l90 -14q-36 -159 -125.5 -242.5
t-232.5 -83.5q-77 0 -133 25t-87 68.5t-43 98t-6 118.5z" />
    <glyph glyph-name="gbreve" unicode="&#x11f;" horiz-adv-x="1032" 
d="M397 258l238 -57q168 -46 241.5 -101.5t73.5 -148.5q0 -75 -42 -144t-120 -123.5t-201.5 -87t-273.5 -32.5q-191 0 -286 54t-95 155q0 68 44 126t105.5 94t139.5 62q-35 41 -35 105q0 107 113 223q-109 30 -165 102t-56 177q0 81 32 154.5t91 130.5t151.5 90.5
t204.5 33.5q134 0 227 -49q12 118 68 180t154 62l67 -164l-219 -129q86 -83 86 -219q0 -75 -28.5 -142.5t-85 -123t-150.5 -88.5t-215 -33l-49 2zM453 922q-37 -33 -62.5 -112.5t-25.5 -166.5q0 -147 116 -147q49 0 86 16q34 32 60 113t26 170q0 80 -29 112.5t-83 32.5
q-51 0 -88 -18zM662 -244q43 30 43 74q0 28 -18 43t-66 31l-244 69q-55 15 -94 35q-97 -108 -97 -176q0 -64 50.5 -100.5t154.5 -36.5q72 0 146.5 16t124.5 45zM297 1520l188 34q2 -99 27.5 -146.5t99.5 -47.5q70 0 110.5 47t70.5 145l88 -22q-30 -170 -117.5 -254
t-218.5 -84q-63 0 -112 19.5t-77 52t-45.5 74.5t-18.5 88.5t5 93.5z" />
    <glyph glyph-name="Gdotaccent" unicode="&#x120;" horiz-adv-x="1312" 
d="M1251 612v-108q-46 -24 -92 -37l-43 -451l-63 -43q-81 0 -158 23l-14 47q-118 -70 -275 -70q-240 0 -380 155.5t-140 426.5q0 115 25 230t79.5 224.5t131 193.5t189 135t245.5 51q132 0 221 -52l4 29q109 25 168 25l59 -45q4 -28 4 -58q0 -142 -45 -327h-174l-24 251
q-90 23 -162 23q-91 0 -184 -41q-83 -77 -139 -280t-56 -416q0 -89 12.5 -154.5t40 -115.5t76.5 -75.5t119 -25.5q101 0 190 41l8 313l-133 17v53l9 61h501zM811 1782q55 0 96 -13q23 -52 23 -96q0 -84 -62 -182h-223l-12 258q86 33 178 33z" />
    <glyph glyph-name="gdotaccent" unicode="&#x121;" horiz-adv-x="1032" 
d="M397 258l238 -57q168 -46 241.5 -101.5t73.5 -148.5q0 -75 -42 -144t-120 -123.5t-201.5 -87t-273.5 -32.5q-191 0 -286 54t-95 155q0 68 44 126t105.5 94t139.5 62q-35 41 -35 105q0 107 113 223q-109 30 -165 102t-56 177q0 81 32 154.5t91 130.5t151.5 90.5
t204.5 33.5q134 0 227 -49q12 118 68 180t154 62l67 -164l-219 -129q86 -83 86 -219q0 -75 -28.5 -142.5t-85 -123t-150.5 -88.5t-215 -33l-49 2zM453 922q-37 -33 -62.5 -112.5t-25.5 -166.5q0 -147 116 -147q49 0 86 16q34 32 60 113t26 170q0 80 -29 112.5t-83 32.5
q-51 0 -88 -18zM662 -244q43 30 43 74q0 28 -18 43t-66 31l-244 69q-55 15 -94 35q-97 -108 -97 -176q0 -64 50.5 -100.5t154.5 -36.5q72 0 146.5 16t124.5 45zM608 1530q64 0 94 -12q21 -47 21 -93q0 -85 -59 -184h-224l-14 258q91 31 182 31z" />
    <glyph glyph-name="Gcommaaccent" unicode="&#x122;" horiz-adv-x="1312" 
d="M1251 612v-108q-46 -24 -92 -37l-43 -451l-63 -43q-81 0 -158 23l-14 47q-118 -70 -275 -70q-240 0 -380 155.5t-140 426.5q0 115 25 230t79.5 224.5t131 193.5t189 135t245.5 51q132 0 221 -52l4 29q109 25 168 25l59 -45q4 -28 4 -58q0 -142 -45 -327h-174l-24 251
q-90 23 -162 23q-91 0 -184 -41q-83 -77 -139 -280t-56 -416q0 -89 12.5 -154.5t40 -115.5t76.5 -75.5t119 -25.5q101 0 190 41l8 313l-133 17v53l9 61h501zM584 -96q77 0 131 -25q24 -38 24 -100q0 -111 -66.5 -188t-205.5 -101l-23 72q64 26 94.5 53.5t30.5 71.5v20l-92 8
l15 181q44 8 92 8z" />
    <glyph glyph-name="gcommaaccent" unicode="&#x123;" horiz-adv-x="1032" 
d="M397 258l238 -57q168 -46 241.5 -101.5t73.5 -148.5q0 -75 -42 -144t-120 -123.5t-201.5 -87t-273.5 -32.5q-191 0 -286 54t-95 155q0 68 44 126t105.5 94t139.5 62q-35 41 -35 105q0 107 113 223q-109 30 -165 102t-56 177q0 81 32 154.5t91 130.5t151.5 90.5
t204.5 33.5q134 0 227 -49q12 118 68 180t154 62l67 -164l-219 -129q86 -83 86 -219q0 -75 -28.5 -142.5t-85 -123t-150.5 -88.5t-215 -33l-49 2zM453 922q-37 -33 -62.5 -112.5t-25.5 -166.5q0 -147 116 -147q49 0 86 16q34 32 60 113t26 170q0 80 -29 112.5t-83 32.5
q-51 0 -88 -18zM662 -244q43 30 43 74q0 28 -18 43t-66 31l-244 69q-55 15 -94 35q-97 -108 -97 -176q0 -64 50.5 -100.5t154.5 -36.5q72 0 146.5 16t124.5 45zM692 1604l23 -70q-66 -29 -97.5 -60.5t-31.5 -82.5v-21l92 -8l-14 -180q-44 -8 -95 -8q-81 0 -129 26
q-24 31 -24 98q0 117 67.5 199t208.5 107z" />
    <glyph glyph-name="Hcircumflex" unicode="&#x124;" horiz-adv-x="1478" 
d="M1497 1362v-111q-80 -35 -158 -45l-102 -1077l147 -16v-52l-6 -61h-590v111q86 38 144 43l47 479h-455l-47 -504l127 -16v-52l-8 -61h-576v111q87 36 152 45l102 1077l-143 16v51l8 62h584v-111q-69 -34 -143 -43l-41 -434h452l43 459l-127 16v51l8 62h582zM1188 1538
l-180 -96l-170 196h-19l-188 -168h-127l321 361h172z" />
    <glyph glyph-name="hcircumflex" unicode="&#x125;" horiz-adv-x="1200" 
d="M549 1526h-125l272 313h170l156 -244l-178 -96l-135 156h-19zM1135 186l14 -102q-153 -107 -293 -107q-160 0 -160 148q0 64 49.5 330t49.5 333q0 46 -18.5 67.5t-61.5 21.5q-17 0 -41 -3q-159 -226 -324 -874q-100 -23 -213 -23l-55 56l143 1224l-110 39l14 105
q151 40 344 47l55 -53l-45 -351q-25 -181 -94 -520l23 -4q44 133 77.5 217.5t71 154.5t78 106.5t89.5 55.5t114 19q239 0 239 -239q0 -61 -18 -191t-33 -216.5t-49 -279.5q58 0 154 39z" />
    <glyph glyph-name="Hbar" unicode="&#x126;" horiz-adv-x="1531" 
d="M1522 1362v-111q-75 -36 -156 -43l-16 -166h161v-51l-14 -86h-160l-75 -776l147 -16v-52l-6 -61h-590v111q84 37 145 45l39 403h-452l-41 -430l125 -16v-52l-8 -61h-576v111q87 36 154 45l71 749h-161v51l14 86h162l16 191l-145 16v51l8 62h584v-111q-69 -34 -142 -43
l-16 -166h452l19 191l-129 16v51l8 62h582zM1030 905h-452l-21 -203h455z" />
    <glyph glyph-name="hbar" unicode="&#x127;" horiz-adv-x="1202" 
d="M1137 186l14 -102q-153 -107 -293 -107q-160 0 -160 148q0 64 49.5 330t49.5 333q0 46 -18.5 67.5t-61.5 21.5q-18 0 -39 -3q-161 -223 -326 -874q-100 -23 -213 -23l-55 56l143 1208h-143v59l16 72h142l16 133q132 32 229 37l54 -53l-15 -117h271v-59l-17 -72h-272
l-25 -197q-29 -223 -94 -520l25 -4q44 133 77.5 217.5t71 154.5t78 106.5t89.5 55.5t114 19q239 0 239 -239q0 -61 -18 -191t-33 -216.5t-49 -279.5q58 0 154 39z" />
    <glyph glyph-name="Itilde" unicode="&#x128;" horiz-adv-x="716" 
d="M735 1362v-111q-91 -38 -155 -43l-103 -1079l146 -16v-52l-7 -61h-596v111q87 36 152 45l102 1077l-143 16v51l8 62h596zM735 1792l66 -53q-41 -108 -102 -173t-138 -65q-48 0 -117 37l-133 78l-104 -113l-68 53q94 236 242 236q53 0 117 -37l131 -76z" />
    <glyph glyph-name="itilde" unicode="&#x129;" horiz-adv-x="591" 
d="M446 1063l52 -51q-66 -559 -107 -865q54 0 150 39l14 -102q-149 -107 -281 -107q-82 0 -123.5 35t-41.5 115q0 89 88 747l-134 17v104q210 65 383 68zM625 1507l61 -47q-31 -110 -87 -176.5t-130 -66.5q-44 0 -102 38l-119 74l-90 -108l-64 47q29 108 86 175.5t131 67.5
q48 0 103 -38l118 -76z" />
    <glyph glyph-name="Imacron" unicode="&#x12a;" horiz-adv-x="716" 
d="M735 1362v-111q-91 -38 -155 -43l-103 -1079l146 -16v-52l-7 -61h-596v111q87 36 152 45l102 1077l-143 16v51l8 62h596zM190 1731h588q6 -24 6 -54q0 -67 -26 -123h-588q-4 16 -4 52q0 70 24 125z" />
    <glyph glyph-name="imacron" unicode="&#x12b;" horiz-adv-x="591" 
d="M446 1063l52 -51q-66 -559 -107 -865q54 0 150 39l14 -102q-149 -107 -281 -107q-82 0 -123.5 35t-41.5 115q0 89 88 747l-134 17v104q210 65 383 68zM158 1442h475q6 -18 6 -51q0 -65 -27 -123h-475q-4 12 -4 49q0 65 25 125z" />
    <glyph glyph-name="Ibreve" unicode="&#x12c;" horiz-adv-x="716" 
d="M735 1362v-111q-91 -38 -155 -43l-103 -1079l146 -16v-52l-7 -61h-596v111q87 36 152 45l102 1077l-143 16v51l8 62h596zM178 1780l189 35q6 -90 39.5 -133.5t107.5 -43.5q75 0 119 41.5t82 130.5l90 -14q-36 -159 -126 -242.5t-233 -83.5q-149 0 -215 87.5t-53 222.5z
" />
    <glyph glyph-name="ibreve" unicode="&#x12d;" horiz-adv-x="591" 
d="M446 1063l52 -51q-66 -559 -107 -865q54 0 150 39l14 -102q-149 -107 -281 -107q-82 0 -123.5 35t-41.5 115q0 89 88 747l-134 17v104q210 65 383 68zM139 1520l189 32q0 -98 21.5 -145t84.5 -47q61 0 97 44.5t67 145.5l88 -14q-69 -344 -311 -344q-132 0 -194.5 96
t-41.5 232z" />
    <glyph glyph-name="Iogonek" unicode="&#x12e;" horiz-adv-x="716" 
d="M735 1362v-111q-89 -37 -153 -45l-105 -1077l146 -16v-52l-7 -61q-268 -83 -268 -211q0 -84 96 -84q39 0 97 16l6 -98q-95 -59 -223 -59q-112 0 -166 42.5t-54 114.5q0 84 67.5 150t182.5 106v23h-334v111q87 36 154 45l100 1077l-143 16v51l8 62h596z" />
    <glyph glyph-name="iogonek" unicode="&#x12f;" horiz-adv-x="591" 
d="M424 1530q64 0 94 -12q21 -47 21 -93q0 -84 -60 -184h-223l-14 258q91 31 182 31zM444 1063l54 -51q-25 -210 -107 -865q54 0 150 39l14 -102q-132 -78 -200 -146.5t-68 -140.5q0 -90 94 -90q38 0 96 14l4 -98q-88 -59 -221 -59q-114 0 -167.5 45t-51.5 117
q0 77 61.5 136t165.5 99l-2 23q-25 -3 -43 0q-117 17 -117 141q0 30 6 94.5t18 156t22 168t24.5 183t20.5 147.5l-134 17v104q206 65 381 68z" />
    <glyph glyph-name="Idotaccent" unicode="&#x130;" horiz-adv-x="716" 
d="M735 1362v-111q-91 -38 -155 -43l-103 -1079l146 -16v-52l-7 -61h-596v111q87 36 152 45l102 1077l-143 16v51l8 62h596zM510 1782q55 0 96 -13q23 -52 23 -96q0 -84 -62 -182h-223l-12 258q86 33 178 33z" />
    <glyph glyph-name="dotlessi" unicode="&#x131;" horiz-adv-x="591" 
d="M446 1063l52 -51q-66 -559 -107 -865q54 0 150 39l14 -102q-149 -107 -281 -107q-82 0 -123.5 35t-41.5 115q0 89 88 747l-134 17v104q210 65 383 68z" />
    <glyph glyph-name="IJ" unicode="&#x132;" horiz-adv-x="1419" 
d="M612 0h-592v111q87 36 152 45l102 1077l-143 16v51l8 62h584v-111q-79 -35 -143 -43l-103 -1079l141 -16v-52zM1442 1362v-111q-80 -36 -156 -45l-96 -981q-9 -87 -25.5 -156t-48.5 -132t-78.5 -104.5t-117 -66t-162.5 -24.5q-98 0 -183.5 25t-142.5 67l33 121
q211 -31 348 -31q52 88 74 322l94 987l-150 14v51l9 64h602z" />
    <glyph glyph-name="ij" unicode="&#x133;" horiz-adv-x="1169" 
d="M1092 1012l-121 -973q-30 -249 -119 -362t-242 -113q-147 0 -260 90l27 108q149 -34 244 -34q41 94 61 268l109 878l-136 17v104q210 65 385 68zM1004 1530q64 0 94 -12q20 -45 20 -93q0 -85 -59 -184h-223l-15 258q91 31 183 31zM446 1063l52 -51q-66 -559 -107 -865
q54 0 150 39l14 -102q-149 -107 -281 -107q-82 0 -123.5 35t-41.5 115q0 89 88 747l-134 17v104q210 65 383 68zM428 1530q64 0 94 -12q21 -47 21 -93q0 -84 -60 -184h-223l-14 258q91 31 182 31z" />
    <glyph glyph-name="Jcircumflex" unicode="&#x134;" horiz-adv-x="954" 
d="M977 1362v-111q-76 -35 -154 -45l-98 -981q-9 -89 -25.5 -158t-49 -132t-80.5 -104t-120.5 -65t-166.5 -24q-115 0 -211 34t-152 99l43 123q208 -68 385 -74q55 98 74 322l94 989l-254 12v51l8 64h707zM979 1538l-180 -96l-170 196h-19l-188 -168h-127l321 361h172z" />
    <glyph glyph-name="jcircumflex" unicode="&#x135;" horiz-adv-x="577" 
d="M500 1012l-121 -973q-30 -249 -119 -362t-242 -113q-147 0 -260 90l27 108q149 -34 244 -34q41 94 61 268l109 878l-136 17v104q210 65 386 68zM637 1245l-184 -74l-107 195h-20l-133 -182h-121l262 399h172z" />
    <glyph glyph-name="Kcommaaccent" unicode="&#x136;" horiz-adv-x="1382" 
d="M1374 1362v-111q-66 -32 -137 -41q-156 -231 -342 -432q162 -424 289 -618l114 4l7 -117q-53 -33 -120 -51.5t-126 -18.5q-80 0 -132 35.5t-89 106.5q-87 155 -168 499h-148l-45 -489l135 -16v-52l-8 -61h-584v111q87 36 152 45l102 1077l-143 16v51l8 62h594v-111
q-66 -32 -153 -43l-43 -454l174 12q171 201 338 467l-138 16v51l9 62h454zM664 -96q77 0 131 -25q24 -38 24 -100q0 -111 -66.5 -188t-205.5 -101l-23 72q64 26 94.5 53.5t30.5 71.5v20l-92 8l14 181q44 8 93 8z" />
    <glyph glyph-name="kcommaaccent" unicode="&#x137;" horiz-adv-x="1196" 
d="M1122 186l15 -104q-127 -105 -275 -105q-48 0 -82 12.5t-57.5 39.5t-37.5 56.5t-30 76.5q-53 144 -65 282l94 31q56 62 90.5 147.5t34.5 161.5q0 50 -20.5 71.5t-69.5 21.5q-5 0 -12 -1t-17 -2t-16 -2q-151 -212 -324 -872q-97 -23 -213 -23l-55 56l156 1319l-111 37
l12 104q161 46 344 49l56 -53l-58 -445q-24 -184 -92 -520l23 -4q56 170 100.5 271.5t96 167.5t107.5 90t136 24q129 0 197.5 -60.5t68.5 -181.5q0 -126 -69.5 -219.5t-190.5 -148.5q78 -213 119 -313q68 8 145 36zM537 -96q77 0 131 -25q24 -38 24 -100q0 -111 -66.5 -188
t-205.5 -101l-23 72q64 26 94.5 53.5t30.5 71.5v20l-92 8l14 181q44 8 93 8z" />
    <glyph glyph-name="kgreenlandic" unicode="&#x138;" horiz-adv-x="1167" 
d="M965 150q50 4 143 36l14 -102q-133 -107 -262 -107q-87 0 -135 44t-82 133q-52 128 -92 317h-127l-62 -471q-97 -23 -215 -23l-53 56l103 841l-134 17v104q82 28 190.5 47t190.5 21l52 -51l-54 -412l142 6q96 220 212 341.5t242 121.5q32 0 66 -8.5t49 -20.5l14 -184
l-249 -49q-83 -79 -158 -174q98 -298 205 -483z" />
    <glyph glyph-name="Lacute" unicode="&#x139;" horiz-adv-x="1091" 
d="M848 375l172 -13q4 -62 4 -90q0 -134 -49 -301l-66 -6l-598 35h-291v111q85 34 152 45l102 1077l-143 16v51l8 62h604v-111q-76 -32 -163 -45l-103 -1077h289zM610 1849h162q61 -39 84 -139l-336 -240h-135z" />
    <glyph glyph-name="lacute" unicode="&#x13a;" horiz-adv-x="598" 
d="M496 1839h161q61 -39 84 -139l-235 -170h-135zM473 1442l53 -53q-20 -173 -58.5 -461t-62.5 -485.5t-28 -295.5q79 0 170 37l14 -104q-149 -103 -295 -103q-170 0 -170 162q0 58 17 209.5t57 460t57 442.5l-110 39l12 105q165 44 344 47z" />
    <glyph glyph-name="Lcommaaccent" unicode="&#x13b;" horiz-adv-x="1091" 
d="M848 375l172 -13q4 -62 4 -90q0 -134 -49 -301l-66 -6l-598 35h-291v111q85 34 152 45l102 1077l-143 16v51l8 62h604v-111q-76 -32 -163 -45l-103 -1077h289zM471 -96q77 0 131 -25q25 -39 25 -100q0 -111 -67 -188t-206 -101l-22 72q64 26 94.5 53.5t30.5 71.5v20
l-92 8l14 181q44 8 92 8z" />
    <glyph glyph-name="lcommaaccent" unicode="&#x13c;" horiz-adv-x="598" 
d="M487 1542l56 -53q-20 -169 -63 -485t-71 -537t-32 -320q65 0 170 37l14 -102q-151 -105 -293 -105q-172 0 -172 160q0 59 21.5 240t64 503t60.5 472l-115 37l14 104q157 46 346 49zM225 -96q77 0 131 -25q25 -39 25 -100q0 -111 -66.5 -188t-205.5 -101l-23 72
q64 26 94.5 53.5t30.5 71.5v20l-92 8l14 181q44 8 92 8z" />
    <glyph glyph-name="Lcaron" unicode="&#x13d;" horiz-adv-x="1091" 
d="M848 375l172 -13q4 -62 4 -90q0 -134 -49 -301l-66 -6l-598 35h-291v111q85 34 152 45l102 1077l-143 16v51l8 62h604v-111q-76 -32 -163 -45l-103 -1077h289zM971 1378q81 0 155 -45q-16 -131 -62 -233t-144 -209h-103l66 268v207q35 12 88 12z" />
    <glyph glyph-name="lcaron" unicode="&#x13e;" horiz-adv-x="813" 
d="M487 1542l56 -53q-20 -169 -63 -485t-71 -537t-32 -320q65 0 170 37l14 -102q-151 -105 -293 -105q-172 0 -172 160q0 59 21.5 240t64 503t60.5 472l-115 37l14 104q157 46 346 49zM768 1552q82 0 156 -45q-16 -130 -62.5 -232.5t-144.5 -209.5h-103l66 268v207
q34 12 88 12z" />
    <glyph glyph-name="Ldot" unicode="&#x13f;" horiz-adv-x="1107" 
d="M987 934q70 0 100 -12q21 -37 21 -95q0 -93 -64 -184h-206l-11 262q74 29 160 29zM848 375l172 -13q4 -62 4 -90q0 -134 -49 -301l-66 -6l-598 35h-291v111q85 34 152 45l102 1077l-143 16v51l8 62h604v-111q-76 -32 -163 -45l-103 -1077h289z" />
    <glyph glyph-name="ldot" unicode="&#x140;" horiz-adv-x="712" 
d="M672 877q57 0 94 -13q18 -45 18 -92q0 -90 -61 -182h-184l-9 260q75 27 142 27zM487 1542l56 -53q-20 -169 -63 -485t-71 -537t-32 -320q65 0 170 37l14 -102q-151 -105 -293 -105q-172 0 -172 160q0 59 21.5 240t64 503t60.5 472l-115 37l14 104q157 46 346 49z" />
    <glyph glyph-name="Lslash" unicode="&#x141;" horiz-adv-x="1116" 
d="M872 375l172 -13q5 -78 5 -90q0 -131 -50 -301l-65 -6l-598 35h-291v111q85 34 152 45l36 389l-122 -49l-37 30v107l176 72l49 528l-143 16v51l8 62h604v-111q-75 -32 -164 -45l-37 -393l322 133l37 -31v-106l-375 -154l-49 -526h289z" />
    <glyph glyph-name="lslash" unicode="&#x142;" horiz-adv-x="638" 
d="M651 821l-196 -139q-55 -407 -60 -535q65 0 170 37l15 -102q-151 -105 -293 -105q-172 0 -172 160q0 56 35 350l-101 -67l-37 31v106l160 109q12 98 43 333t45 353l-115 37l15 104q160 46 346 49l55 -53q-27 -229 -82 -627l135 96l37 -30v-107z" />
    <glyph glyph-name="Nacute" unicode="&#x143;" horiz-adv-x="1447" 
d="M1470 1362v-111q-82 -36 -153 -45l-117 -1196q-111 -30 -248 -33l-51 15l-326 762q-81 193 -145 403h-22l-64 -1028l137 -16v-52l-6 -61h-457v111q75 35 154 45l102 1058l-145 21v51l8 62q205 14 518 14l267 -623q69 -163 151 -405h23l45 897l-154 18v51l8 62h475z
M965 1849h161q61 -39 84 -139l-336 -240h-135z" />
    <glyph glyph-name="nacute" unicode="&#x144;" horiz-adv-x="1210" 
d="M1145 186l14 -102q-153 -107 -293 -107q-159 0 -159 148q0 64 50 330t50 333q0 46 -18.5 67.5t-63.5 21.5q-18 0 -39 -3q-170 -236 -324 -874q-100 -23 -215 -23l-53 56l103 841l-134 17v104q82 27 188 47t193 21l52 -51l-97 -488l25 -4q44 134 78 220.5t71.5 155.5
t77.5 105t88 54t111 18q242 0 242 -239q0 -121 -91 -628q-7 -40 -10 -59q58 0 154 39zM868 1593h164q29 -24 51 -61.5t31 -79.5l-334 -289h-118z" />
    <glyph glyph-name="Ncommaaccent" unicode="&#x145;" horiz-adv-x="1447" 
d="M1470 1362v-111q-82 -36 -153 -45l-117 -1196q-111 -30 -248 -33l-51 15l-326 762q-81 193 -145 403h-22l-64 -1028l137 -16v-52l-6 -61h-457v111q75 35 154 45l102 1058l-145 21v51l8 62q205 14 518 14l267 -623q69 -163 151 -405h23l45 897l-154 18v51l8 62h475z
M631 -96q77 0 131 -25q24 -38 24 -100q0 -111 -66.5 -188t-205.5 -101l-22 72q64 25 94 53t30 72v20l-92 8l15 181q44 8 92 8z" />
    <glyph glyph-name="ncommaaccent" unicode="&#x146;" horiz-adv-x="1210" 
d="M1145 186l14 -102q-153 -107 -293 -107q-159 0 -159 148q0 64 50 330t50 333q0 46 -18.5 67.5t-63.5 21.5q-18 0 -39 -3q-170 -236 -324 -874q-100 -23 -215 -23l-53 56l103 841l-134 17v104q82 27 188 47t193 21l52 -51l-97 -488l25 -4q44 134 78 220.5t71.5 155.5
t77.5 105t88 54t111 18q242 0 242 -239q0 -121 -91 -628q-7 -40 -10 -59q58 0 154 39zM530 -96q78 0 132 -25q24 -38 24 -100q0 -111 -66.5 -188t-205.5 -101l-23 72q64 26 94.5 53.5t30.5 71.5v20l-92 8l14 181q44 8 92 8z" />
    <glyph glyph-name="Ncaron" unicode="&#x147;" horiz-adv-x="1447" 
d="M1470 1362v-111q-82 -36 -153 -45l-117 -1196q-111 -30 -248 -33l-51 15l-326 762q-81 193 -145 403h-22l-64 -1028l137 -16v-52l-6 -61h-457v111q75 35 154 45l102 1058l-145 21v51l8 62q205 14 518 14l267 -623q69 -163 151 -405h23l45 897l-154 18v51l8 62h475z
M881 1663h20l189 168h124l-319 -361h-172l-193 297l185 91z" />
    <glyph glyph-name="ncaron" unicode="&#x148;" horiz-adv-x="1210" 
d="M1145 186l14 -102q-153 -107 -293 -107q-159 0 -159 148q0 64 50 330t50 333q0 46 -18.5 67.5t-63.5 21.5q-18 0 -39 -3q-170 -236 -324 -874q-100 -23 -215 -23l-53 56l103 841l-134 17v104q82 27 188 47t193 21l52 -51l-97 -488l25 -4q44 134 78 220.5t71.5 155.5
t77.5 105t88 54t111 18q242 0 242 -239q0 -121 -91 -628q-7 -40 -10 -59q58 0 154 39zM772 1368h19l174 205h120l-303 -408h-172l-166 340l181 90z" />
    <glyph glyph-name="napostrophe" unicode="&#x149;" horiz-adv-x="1212" 
d="M1147 186l14 -102q-153 -107 -293 -107q-159 0 -159 148q0 64 50 330t50 333q0 46 -18.5 67.5t-63.5 21.5q-18 0 -39 -3q-169 -234 -323 -874q-100 -23 -215 -23l-54 56l103 841l-133 17v104q82 28 187.5 47.5t192.5 20.5l52 -51l-97 -488l25 -4q44 134 78 220.5
t71.5 155.5t77.5 105t88 54t111 18q242 0 242 -239q0 -121 -91 -628q-7 -40 -10 -59q58 0 154 39zM154 1542q79 0 131 -24q24 -38 24 -101q0 -111 -66.5 -188t-205.5 -101l-23 72q64 26 94.5 53.5t30.5 71.5v21l-92 8l14 180q44 8 93 8z" />
    <glyph glyph-name="Eng" unicode="&#x14a;" horiz-adv-x="1447" 
d="M1470 1362v-111q-90 -38 -153 -43l-96 -983q-8 -87 -23.5 -156t-45 -132t-72 -104.5t-107.5 -66t-148 -24.5q-96 0 -177.5 30.5t-127.5 86.5l43 123q172 -52 328 -58q22 31 33 60l-342 770q-92 205 -152 403h-22l-64 -1028l117 -16v-52l-6 -61h-437v111q75 35 154 45
l102 1058l-145 21v51l8 62q205 14 518 14l260 -606q82 -194 156 -412h25l45 887l-154 18v51l8 62h475z" />
    <glyph glyph-name="eng" unicode="&#x14b;" horiz-adv-x="1204" 
d="M854 1073q124 0 181 -62.5t57 -191.5q0 -65 -17.5 -211.5t-75.5 -568.5q-34 -252 -122 -363.5t-238 -111.5q-147 0 -260 90l27 108q149 -34 243 -34q38 90 62 268q90 674 95 752q1 19 1 34q0 50 -17.5 72.5t-64.5 22.5q-15 0 -39 -3q-157 -227 -324 -874
q-100 -23 -215 -23l-53 56l103 841l-134 17v104q82 27 188 47t193 21l52 -51l-97 -488l25 -4q44 134 77 217.5t70.5 154.5t77.5 107t89.5 55t115.5 19z" />
    <glyph glyph-name="Omacron" unicode="&#x14c;" horiz-adv-x="1431" 
d="M817 1389q272 0 418.5 -154.5t146.5 -423.5q0 -82 -12.5 -164t-40 -165t-68 -157.5t-100.5 -139t-133 -111.5t-170 -74t-207 -27q-270 0 -416.5 155.5t-146.5 426.5q0 96 17.5 191.5t53 190t95 175.5t137.5 143.5t187.5 98t238.5 35.5zM799 1235q-88 0 -172 -41
q-83 -73 -139 -271t-56 -417q0 -89 11.5 -155.5t39 -118.5t75.5 -78.5t118 -26.5q88 0 172 41q83 73 138.5 271t55.5 417q0 90 -11.5 156t-38.5 118t-75 78.5t-118 26.5zM553 1731h588q6 -24 6 -54q0 -65 -27 -123h-588q-4 16 -4 52q0 68 25 125z" />
    <glyph glyph-name="omacron" unicode="&#x14d;" horiz-adv-x="1110" 
d="M629 1071q215 0 320.5 -118.5t105.5 -323.5q0 -87 -17 -173t-59.5 -175t-106 -156t-164 -109.5t-225.5 -42.5q-215 0 -320.5 119t-105.5 326q0 87 17.5 173.5t60 174.5t106 154.5t164 108.5t224.5 42zM604 940q-48 0 -96 -20q-63 -70 -100 -250.5t-37 -343.5
q0 -115 33 -168.5t110 -53.5q50 0 94 23q64 66 100.5 247t36.5 343q0 119 -33 171t-108 52zM389 1442h541q6 -18 6 -51q0 -65 -27 -123h-540q-4 12 -4 49q0 68 24 125z" />
    <glyph glyph-name="Obreve" unicode="&#x14e;" horiz-adv-x="1431" 
d="M817 1389q272 0 418.5 -154.5t146.5 -423.5q0 -82 -12.5 -164t-40 -165t-68 -157.5t-100.5 -139t-133 -111.5t-170 -74t-207 -27q-270 0 -416.5 155.5t-146.5 426.5q0 96 17.5 191.5t53 190t95 175.5t137.5 143.5t187.5 98t238.5 35.5zM799 1235q-88 0 -172 -41
q-83 -73 -139 -271t-56 -417q0 -89 11.5 -155.5t39 -118.5t75.5 -78.5t118 -26.5q88 0 172 41q83 73 138.5 271t55.5 417q0 90 -11.5 156t-38.5 118t-75 78.5t-118 26.5zM541 1780l188 35q6 -90 40 -133.5t108 -43.5q75 0 118 41t82 131l90 -14q-36 -159 -125.5 -242.5
t-232.5 -83.5q-149 0 -215 87.5t-53 222.5z" />
    <glyph glyph-name="obreve" unicode="&#x14f;" horiz-adv-x="1110" 
d="M629 1071q215 0 320.5 -118.5t105.5 -323.5q0 -87 -17 -173t-59.5 -175t-106 -156t-164 -109.5t-225.5 -42.5q-215 0 -320.5 119t-105.5 326q0 87 17.5 173.5t60 174.5t106 154.5t164 108.5t224.5 42zM604 940q-48 0 -96 -20q-63 -70 -100 -250.5t-37 -343.5
q0 -115 33 -168.5t110 -53.5q50 0 94 23q64 66 100.5 247t36.5 343q0 119 -33 171t-108 52zM381 1520l188 34q2 -99 27.5 -146.5t99.5 -47.5q70 0 110.5 47t70.5 145l88 -22q-30 -170 -117.5 -254t-218.5 -84q-63 0 -112 19.5t-77 52t-45.5 74.5t-18.5 88.5t5 93.5z" />
    <glyph glyph-name="Ohungarumlaut" unicode="&#x150;" horiz-adv-x="1431" 
d="M817 1389q272 0 418.5 -154.5t146.5 -423.5q0 -82 -12.5 -164t-40 -165t-68 -157.5t-100.5 -139t-133 -111.5t-170 -74t-207 -27q-270 0 -416.5 155.5t-146.5 426.5q0 96 17.5 191.5t53 190t95 175.5t137.5 143.5t187.5 98t238.5 35.5zM799 1235q-88 0 -172 -41
q-83 -73 -139 -271t-56 -417q0 -89 11.5 -155.5t39 -118.5t75.5 -78.5t118 -26.5q88 0 172 41q83 73 138.5 271t55.5 417q0 90 -11.5 156t-38.5 118t-75 78.5t-118 26.5zM641 1827h145q60 -36 86 -127l-204 -230h-138zM1024 1827h147q60 -36 86 -127l-204 -230h-138z" />
    <glyph glyph-name="ohungarumlaut" unicode="&#x151;" horiz-adv-x="1110" 
d="M629 1071q215 0 320.5 -118.5t105.5 -323.5q0 -87 -17 -173t-59.5 -175t-106 -156t-164 -109.5t-225.5 -42.5q-215 0 -320.5 119t-105.5 326q0 87 17.5 173.5t60 174.5t106 154.5t164 108.5t224.5 42zM604 940q-48 0 -96 -20q-63 -70 -100 -250.5t-37 -343.5
q0 -115 33 -168.5t110 -53.5q50 0 94 23q64 66 100.5 247t36.5 343q0 119 -33 171t-108 52zM506 1604h149q59 -38 90 -129l-256 -301h-114zM872 1604h148q61 -37 92 -129l-256 -301h-115z" />
    <glyph glyph-name="OE" unicode="&#x152;" horiz-adv-x="1900" 
d="M1282 1227l-43 -469l320 20l16 -53l-14 -119l-334 21l-47 -498h346l82 246l172 -13q4 -62 4 -90q0 -126 -47 -290v-11l-66 -6l-657 35h-90q-165 -27 -271 -27q-271 0 -418 155t-147 431q0 82 11.5 162.5t38 163t66 156t98.5 138t131.5 111t170 73t209.5 26.5
q107 0 242 -27h610q100 29 164 29l55 -29q4 -36 4 -72q0 -145 -43 -299h-168l-20 219zM877 172l96 1010q-73 53 -176 53q-88 0 -172 -41q-83 -74 -139 -271.5t-56 -418.5q0 -91 11.5 -156.5t39.5 -117t78 -77.5t123 -26q119 0 195 45z" />
    <glyph glyph-name="oe" unicode="&#x153;" horiz-adv-x="1669" 
d="M1221 172q71 0 156.5 33.5t164.5 91.5l21 -109q-82 -94 -200 -154.5t-249 -60.5q-204 0 -272 181h-25q-63 -88 -146.5 -134.5t-205.5 -46.5q-200 0 -304 120.5t-104 326.5q0 61 8.5 122.5t28.5 126t49.5 122.5t74 110t99.5 89t129 59t160 22q119 0 189 -44t120 -138h25
q67 90 154.5 136t210.5 46q165 0 246 -77t81 -203q0 -83 -36.5 -146.5t-95 -101t-140.5 -60.5t-163.5 -30t-172.5 -4v-15q0 -262 197 -262zM608 127q64 66 100.5 247t36.5 343q0 119 -33 171t-108 52q-48 0 -96 -20q-63 -70 -100 -250.5t-37 -343.5q0 -115 33 -168.5
t110 -53.5q50 0 94 23zM1245 940q-42 0 -90 -20q-50 -56 -82.5 -164t-42.5 -221q159 18 233 88.5t74 193.5q0 65 -21 94t-71 29z" />
    <glyph glyph-name="Racute" unicode="&#x154;" horiz-adv-x="1320" 
d="M1274 164l6 -117q-112 -70 -246 -70q-86 0 -135 36.5t-86 105.5q-80 144 -151 434h-154l-39 -424l139 -16v-52l-6 -61h-582v111q86 36 156 45l98 1058l-143 23v53l8 60q274 34 523 30q292 -1 422 -85.5t130 -268.5q0 -281 -282 -410q119 -296 227 -456zM520 698h230
q133 127 133 328q0 108 -51.5 158.5t-165.5 50.5h-95zM825 1849h162q61 -39 84 -139l-336 -240h-135z" />
    <glyph glyph-name="racute" unicode="&#x155;" horiz-adv-x="843" 
d="M844 793l-203 8q-131 -244 -272 -801q-100 -23 -222 -23l-53 56l103 841l-134 17v104q194 65 369 68l49 -51l-98 -516l25 -4q34 112 58 183.5t52 144.5t52.5 114t54.5 76t63.5 49t73.5 14q42 0 67 -16t45 -49zM707 1593h163q29 -24 51 -61.5t31 -79.5l-334 -289h-118z
" />
    <glyph glyph-name="Rcommaaccent" unicode="&#x156;" horiz-adv-x="1320" 
d="M1274 164l6 -117q-112 -70 -246 -70q-86 0 -135 36.5t-86 105.5q-80 144 -151 434h-154l-39 -424l139 -16v-52l-6 -61h-582v111q86 36 156 45l98 1058l-143 23v53l8 60q274 34 523 30q292 -1 422 -85.5t130 -268.5q0 -281 -282 -410q119 -296 227 -456zM520 698h230
q133 127 133 328q0 108 -51.5 158.5t-165.5 50.5h-95zM653 -96q77 0 131 -25q25 -39 25 -100q0 -111 -66.5 -188t-205.5 -101l-23 72q64 26 94.5 53.5t30.5 71.5v20l-92 8l14 181q44 8 92 8z" />
    <glyph glyph-name="rcommaaccent" unicode="&#x157;" horiz-adv-x="843" 
d="M844 793l-203 8q-131 -244 -272 -801q-100 -23 -222 -23l-53 56l103 841l-134 17v104q194 65 369 68l49 -51l-98 -516l25 -4q34 112 58 183.5t52 144.5t52.5 114t54.5 76t63.5 49t73.5 14q42 0 67 -16t45 -49zM236 -96q77 0 131 -25q24 -37 24 -100q0 -111 -66.5 -188
t-205.5 -101l-23 72q64 26 94.5 53.5t30.5 71.5v20l-92 8l14 181q44 8 93 8z" />
    <glyph glyph-name="Rcaron" unicode="&#x158;" horiz-adv-x="1320" 
d="M1274 164l6 -117q-112 -70 -246 -70q-86 0 -135 36.5t-86 105.5q-80 144 -151 434h-154l-39 -424l139 -16v-52l-6 -61h-582v111q86 36 156 45l98 1058l-143 23v53l8 60q274 34 523 30q292 -1 422 -85.5t130 -268.5q0 -281 -282 -410q119 -296 227 -456zM520 698h230
q133 127 133 328q0 108 -51.5 158.5t-165.5 50.5h-95zM770 1663h21l188 168h125l-320 -361h-172l-192 297l184 91z" />
    <glyph glyph-name="rcaron" unicode="&#x159;" horiz-adv-x="843" 
d="M844 793l-203 8q-131 -244 -272 -801q-100 -23 -222 -23l-53 56l103 841l-134 17v104q194 65 369 68l49 -51l-98 -516l25 -4q34 112 58 183.5t52 144.5t52.5 114t54.5 76t63.5 49t73.5 14q42 0 67 -16t45 -49zM610 1368h19l174 205h121l-303 -408h-172l-166 340l180 90z
" />
    <glyph glyph-name="Sacute" unicode="&#x15a;" horiz-adv-x="1089" 
d="M645 831l78 -47q63 -39 108.5 -77.5t85 -88.5t60 -112t20.5 -135q0 -63 -15 -118t-52.5 -107.5t-95 -90t-149 -60t-208.5 -22.5q-228 0 -403 78q-13 89 -13 160q0 95 17 192l186 13l58 -275q70 -18 145 -18q103 0 160 31q49 59 49 145q0 78 -39 125t-131 106l-76 48
q-136 85 -203 184t-67 223q0 170 116 287t310 117q123 0 213 -54l4 31q109 25 168 25l59 -45q4 -28 4 -56q0 -142 -45 -303h-174l-22 234q-73 20 -144 20q-74 0 -133 -27q-61 -54 -61 -139q0 -78 45.5 -129.5t144.5 -114.5zM801 1849h162q61 -39 84 -139l-336 -240h-136z
" />
    <glyph glyph-name="sacute" unicode="&#x15b;" horiz-adv-x="860" 
d="M553 610q51 -40 78 -63.5t60 -57.5t49 -61.5t27 -64.5t11 -78q0 -147 -112 -229.5t-299 -82.5q-146 0 -237.5 51t-113.5 148l123 133l269 -199q26 4 69 21q25 35 25 90q0 51 -30 86.5t-123 111.5q-4 3 -6.5 5.5t-7 5.5t-7.5 6q-60 49 -92 78.5t-65.5 70.5t-47.5 83.5
t-14 93.5q0 148 116 230.5t301 82.5q133 0 219 -43.5t107 -128.5l-113 -131l-260 172q-47 -7 -76 -18q-32 -41 -32 -99q0 -11 2 -21t4 -18t8.5 -18t10.5 -17t15.5 -18.5t18.5 -18t24.5 -21.5t27.5 -23t33.5 -27.5t37.5 -30.5zM651 1604h164q63 -53 82 -142l-334 -288h-119z
" />
    <glyph glyph-name="Scircumflex" unicode="&#x15c;" horiz-adv-x="1089" 
d="M645 831l78 -47q63 -39 108.5 -77.5t85 -88.5t60 -112t20.5 -135q0 -63 -15 -118t-52.5 -107.5t-95 -90t-149 -60t-208.5 -22.5q-228 0 -403 78q-13 89 -13 160q0 95 17 192l186 13l58 -275q70 -18 145 -18q103 0 160 31q49 59 49 145q0 78 -39 125t-131 106l-76 48
q-136 85 -203 184t-67 223q0 170 116 287t310 117q123 0 213 -54l4 31q109 25 168 25l59 -45q4 -28 4 -56q0 -142 -45 -303h-174l-22 234q-73 20 -144 20q-74 0 -133 -27q-61 -54 -61 -139q0 -78 45.5 -129.5t144.5 -114.5zM995 1538l-180 -96l-170 196h-18l-189 -168h-127
l322 361h172z" />
    <glyph glyph-name="scircumflex" unicode="&#x15d;" horiz-adv-x="860" 
d="M553 610q51 -40 78 -63.5t60 -57.5t49 -61.5t27 -64.5t11 -78q0 -147 -112 -229.5t-299 -82.5q-146 0 -237.5 51t-113.5 148l123 133l269 -199q26 4 69 21q25 35 25 90q0 51 -30 86.5t-123 111.5q-4 3 -6.5 5.5t-7 5.5t-7.5 6q-60 49 -92 78.5t-65.5 70.5t-47.5 83.5
t-14 93.5q0 148 116 230.5t301 82.5q133 0 219 -43.5t107 -128.5l-113 -131l-260 172q-47 -7 -76 -18q-32 -41 -32 -99q0 -11 2 -21t4 -18t8.5 -18t10.5 -17t15.5 -18.5t18.5 -18t24.5 -21.5t27.5 -23t33.5 -27.5t37.5 -30.5zM836 1239l-183 -84l-145 225h-21l-176 -206
h-118l303 409h172z" />
    <glyph glyph-name="Scedilla" unicode="&#x15e;" horiz-adv-x="1089" 
d="M645 831l78 -47q63 -39 108.5 -77.5t85 -88.5t60 -112t20.5 -135q0 -58 -12.5 -109.5t-44 -101t-79.5 -87t-124 -63.5t-172 -33l-12 -98q166 0 166 -127q0 -81 -65.5 -134.5t-186.5 -53.5q-140 0 -209 63l27 92q94 -24 127 -24q43 0 65.5 18.5t22.5 50.5q0 29 -21.5 41
t-85.5 21h-2l43 149q-208 6 -360 76q-13 89 -13 160q0 95 17 192l186 13l58 -275q70 -18 145 -18q103 0 160 31q49 59 49 145q0 78 -39 125t-131 106l-76 48q-136 85 -203 184t-67 223q0 170 116 287t310 117q123 0 213 -54l4 31q109 25 168 25l59 -45q4 -28 4 -56
q0 -142 -45 -303h-174l-22 234q-73 20 -144 20q-74 0 -133 -27q-61 -54 -61 -139q0 -78 45.5 -129.5t144.5 -114.5z" />
    <glyph glyph-name="scedilla" unicode="&#x15f;" horiz-adv-x="860" 
d="M553 610q51 -40 78 -63.5t60 -57.5t49 -61.5t27 -64.5t11 -78q0 -134 -93.5 -214t-254.5 -94l-12 -98q166 0 166 -127q0 -81 -65.5 -134.5t-186.5 -53.5q-140 0 -209 63l27 92q94 -24 126 -24q43 0 66 18.5t23 50.5q0 29 -21.5 41t-85.5 21h-2l45 151q-248 22 -285 195
l123 133l269 -199q26 4 69 21q25 35 25 90q0 51 -30 86.5t-123 111.5q-4 3 -6.5 5.5t-7 5.5t-7.5 6q-60 49 -92 78.5t-65.5 70.5t-47.5 83.5t-14 93.5q0 148 116 230.5t301 82.5q133 0 219 -43.5t107 -128.5l-113 -131l-260 172q-47 -7 -76 -18q-32 -41 -32 -99q0 -11 2 -21
t4 -18t8.5 -18t10.5 -17t15.5 -18.5t18.5 -18t24.5 -21.5t27.5 -23t33.5 -27.5t37.5 -30.5z" />
    <glyph glyph-name="Scaron" unicode="&#x160;" horiz-adv-x="1089" 
d="M645 831l78 -47q63 -39 108.5 -77.5t85 -88.5t60 -112t20.5 -135q0 -63 -15 -118t-52.5 -107.5t-95 -90t-149 -60t-208.5 -22.5q-228 0 -403 78q-13 89 -13 160q0 95 17 192l186 13l58 -275q70 -18 145 -18q103 0 160 31q49 59 49 145q0 78 -39 125t-131 106l-76 48
q-136 85 -203 184t-67 223q0 170 116 287t310 117q123 0 213 -54l4 31q109 25 168 25l59 -45q4 -28 4 -56q0 -142 -45 -303h-174l-22 234q-73 20 -144 20q-74 0 -133 -27q-61 -54 -61 -139q0 -78 45.5 -129.5t144.5 -114.5zM700 1663h21l188 168h125l-319 -361h-172
l-193 297l185 91z" />
    <glyph glyph-name="scaron" unicode="&#x161;" horiz-adv-x="860" 
d="M553 610q51 -40 78 -63.5t60 -57.5t49 -61.5t27 -64.5t11 -78q0 -147 -112 -229.5t-299 -82.5q-146 0 -237.5 51t-113.5 148l123 133l269 -199q26 4 69 21q25 35 25 90q0 51 -30 86.5t-123 111.5q-4 3 -6.5 5.5t-7 5.5t-7.5 6q-60 49 -92 78.5t-65.5 70.5t-47.5 83.5
t-14 93.5q0 148 116 230.5t301 82.5q133 0 219 -43.5t107 -128.5l-113 -131l-260 172q-47 -7 -76 -18q-32 -41 -32 -99q0 -11 2 -21t4 -18t8.5 -18t10.5 -17t15.5 -18.5t18.5 -18t24.5 -21.5t27.5 -23t33.5 -27.5t37.5 -30.5zM555 1378h18l175 205h120l-303 -407h-172
l-166 340l181 90z" />
    <glyph glyph-name="Tcommaaccent" unicode="&#x162;" horiz-adv-x="1210" 
d="M1198 1391l55 -29q4 -36 4 -72q0 -145 -43 -299h-167l-23 223l-186 11l-103 -1096l156 -16v-52l-8 -61h-250l-15 -121q166 0 166 -127q0 -81 -65.5 -134.5t-186.5 -53.5q-139 0 -208 63l26 92q94 -24 127 -24q43 0 65.5 18.5t22.5 50.5q0 29 -21 41t-85 21h-2l51 174
h-258v111q70 31 178 43l104 1079h-178l-82 -246l-161 10q-5 73 -5 90q0 148 50 304l65 6l477 -35h336q100 29 164 29z" />
    <glyph glyph-name="tcommaaccent" unicode="&#x163;" horiz-adv-x="731" 
d="M743 1024v-66l-18 -73h-240q-76 -561 -86 -742q118 0 258 39l15 -104q-58 -37 -141 -64.5t-160 -36.5l-13 -98q164 0 164 -127q0 -81 -65.5 -134.5t-186.5 -53.5q-140 0 -209 63l27 92q94 -24 129 -24q42 0 64 18.5t22 50.5q0 29 -20.5 41t-85.5 21l45 156
q-125 26 -125 176q0 78 27 289.5t65 420.5l-119 23v104q66 23 150 39q30 150 55 221q135 39 201 41l39 -39l-31 -233h239z" />
    <glyph glyph-name="Tcaron" unicode="&#x164;" horiz-adv-x="1210" 
d="M1198 1391l55 -29q4 -36 4 -72q0 -145 -43 -299h-167l-23 223l-186 11l-103 -1096l156 -16v-52l-8 -61h-633v111q70 31 178 43l104 1079h-178l-82 -246l-161 10q-5 73 -5 90q0 148 50 304l65 6l477 -35h336q100 29 164 29zM762 1663h20l189 168h125l-320 -361h-172
l-192 297l184 91z" />
    <glyph glyph-name="tcaron" unicode="&#x165;" horiz-adv-x="806" 
d="M743 1024v-66l-18 -73h-240q-76 -561 -86 -742q118 0 258 39l15 -104q-71 -45 -174.5 -75t-186.5 -30q-194 0 -194 185q0 78 27 289.5t65 420.5l-119 23v104q66 23 150 39q30 150 55 221q135 39 201 41l39 -39l-31 -233h239zM764 1542q84 0 154 -45q-10 -115 -53 -200.5
t-134 -178.5h-102l47 193v219q35 12 88 12z" />
    <glyph glyph-name="Tbar" unicode="&#x166;" horiz-adv-x="1210" 
d="M1198 1391l55 -29q4 -36 4 -72q0 -145 -43 -299h-167l-23 223l-186 11l-52 -553h230v-51l-15 -91h-229l-37 -401l156 -16v-52l-8 -61h-633v111q70 31 178 43l37 376h-221v50l14 92h221l53 561h-178l-82 -246l-161 10q-5 73 -5 90q0 148 50 304l65 6l477 -35h336
q100 29 164 29z" />
    <glyph glyph-name="tbar" unicode="&#x167;" horiz-adv-x="741" 
d="M748 1024v-66l-19 -73h-240l-26 -191h250v-61l-19 -74h-248q-37 -279 -43 -416q119 0 259 39l14 -104q-71 -45 -174.5 -75t-186.5 -30q-194 0 -194 185q0 108 41 397l-103 6v113q93 15 123 18l31 176l-119 23v104q66 23 150 39q30 150 55 221q135 39 201 41l39 -39
l-31 -233h240z" />
    <glyph glyph-name="Utilde" unicode="&#x168;" horiz-adv-x="1357" 
d="M1407 1362v-111q-65 -33 -156 -45q-36 -535 -67 -749q-34 -244 -167 -364t-374 -120q-465 0 -465 441q0 24 1.5 54.5t4.5 72t6 78t8.5 93t9.5 95t11 106t11 104t12 110.5t12 106l-148 16v51l9 62h585v-111q-70 -34 -143 -43q-7 -64 -22.5 -207.5t-22 -207t-15.5 -158
t-12.5 -152t-3.5 -98.5q0 -138 54 -203t180 -65q109 0 192 47q84 94 109 305q38 351 65 762l-139 18v51l8 62h457zM1128 1792l66 -55q-31 -104 -89.5 -170t-148.5 -66q-58 0 -125 33l-167 80l-103 -111l-67 53q31 104 90 170t149 66q60 0 121 -31l170 -84z" />
    <glyph glyph-name="utilde" unicode="&#x169;" horiz-adv-x="1212" 
d="M1161 186l15 -102q-71 -48 -155 -77.5t-149 -29.5q-69 0 -106 30t-37 89q0 23 6.5 66t15.5 86.5t25.5 125.5t28.5 146l-23 6q-44 -134 -78 -220t-71.5 -155t-77.5 -105t-88 -54.5t-111 -18.5q-241 0 -241 240q0 120 87 610l9 51l-133 17v104q211 64 385 70l49 -53
q-4 -35 -58.5 -356.5t-54.5 -397.5q0 -47 18.5 -68.5t63.5 -21.5q23 0 37 2q159 230 326 877q96 22 215 22l53 -55l-106 -867q59 0 155 39zM944 1509l66 -53q-88 -239 -234 -239q-59 0 -119 34l-131 78l-100 -112l-66 55q88 239 234 239q56 0 117 -36l131 -78z" />
    <glyph glyph-name="Umacron" unicode="&#x16a;" horiz-adv-x="1357" 
d="M1407 1362v-111q-65 -33 -156 -45q-36 -535 -67 -749q-34 -244 -167 -364t-374 -120q-465 0 -465 441q0 24 1.5 54.5t4.5 72t6 78t8.5 93t9.5 95t11 106t11 104t12 110.5t12 106l-148 16v51l9 62h585v-111q-70 -34 -143 -43q-7 -64 -22.5 -207.5t-22 -207t-15.5 -158
t-12.5 -152t-3.5 -98.5q0 -138 54 -203t180 -65q109 0 192 47q84 94 109 305q38 351 65 762l-139 18v51l8 62h457zM559 1731h588q6 -24 6 -54q0 -65 -27 -123h-587q-4 16 -4 52q0 70 24 125z" />
    <glyph glyph-name="umacron" unicode="&#x16b;" horiz-adv-x="1212" 
d="M1161 186l15 -102q-71 -48 -155 -77.5t-149 -29.5q-69 0 -106 30t-37 89q0 23 6.5 66t15.5 86.5t25.5 125.5t28.5 146l-23 6q-44 -134 -78 -220t-71.5 -155t-77.5 -105t-88 -54.5t-111 -18.5q-241 0 -241 240q0 120 87 610l9 51l-133 17v104q211 64 385 70l49 -53
q-4 -35 -58.5 -356.5t-54.5 -397.5q0 -47 18.5 -68.5t63.5 -21.5q23 0 37 2q159 230 326 877q96 22 215 22l53 -55l-106 -867q59 0 155 39zM426 1442h541q6 -18 6 -51q0 -65 -27 -123h-540q-5 15 -5 49q0 65 25 125z" />
    <glyph glyph-name="Ubreve" unicode="&#x16c;" horiz-adv-x="1357" 
d="M1407 1362v-111q-65 -33 -156 -45q-36 -535 -67 -749q-34 -244 -167 -364t-374 -120q-465 0 -465 441q0 24 1.5 54.5t4.5 72t6 78t8.5 93t9.5 95t11 106t11 104t12 110.5t12 106l-148 16v51l9 62h585v-111q-70 -34 -143 -43q-7 -64 -22.5 -207.5t-22 -207t-15.5 -158
t-12.5 -152t-3.5 -98.5q0 -138 54 -203t180 -65q109 0 192 47q84 94 109 305q38 351 65 762l-139 18v51l8 62h457zM547 1780l188 35q6 -90 40 -133.5t108 -43.5q75 0 118 41t82 131l91 -14q-36 -159 -126 -242.5t-233 -83.5q-149 0 -215 87.5t-53 222.5z" />
    <glyph glyph-name="ubreve" unicode="&#x16d;" horiz-adv-x="1212" 
d="M1161 186l15 -102q-71 -48 -155 -77.5t-149 -29.5q-69 0 -106 30t-37 89q0 23 6.5 66t15.5 86.5t25.5 125.5t28.5 146l-23 6q-44 -134 -78 -220t-71.5 -155t-77.5 -105t-88 -54.5t-111 -18.5q-241 0 -241 240q0 120 87 610l9 51l-133 17v104q211 64 385 70l49 -53
q-4 -35 -58.5 -356.5t-54.5 -397.5q0 -47 18.5 -68.5t63.5 -21.5q23 0 37 2q159 230 326 877q96 22 215 22l53 -55l-106 -867q59 0 155 39zM418 1520l188 34q2 -99 27.5 -146.5t99.5 -47.5q70 0 110 46.5t70 145.5l88 -22q-30 -170 -117 -254t-218 -84q-63 0 -112 19.5
t-77 52t-45.5 74.5t-18.5 88.5t5 93.5z" />
    <glyph glyph-name="Uring" unicode="&#x16e;" horiz-adv-x="1357" 
d="M1407 1362v-111q-65 -33 -156 -45q-36 -535 -67 -749q-34 -244 -167 -364t-374 -120q-465 0 -465 441q0 24 1.5 54.5t4.5 72t6 78t8.5 93t9.5 95t11 106t11 104t12 110.5t12 106l-148 16v51l9 62h585v-111q-70 -34 -143 -43q-7 -64 -22.5 -207.5t-22 -207t-15.5 -158
t-12.5 -152t-3.5 -98.5q0 -138 54 -203t180 -65q109 0 192 47q84 94 109 305q38 351 65 762l-139 18v51l8 62h457zM877 1868q107 0 163 -45t56 -131q0 -99 -72.5 -163.5t-204.5 -64.5q-108 0 -163.5 45.5t-55.5 130.5q0 101 72.5 164.5t204.5 63.5zM864 1765q-26 0 -51 -14
q-33 -44 -33 -109q0 -73 56 -73q33 0 51 12q35 47 35 113q0 38 -14 54.5t-44 16.5z" />
    <glyph glyph-name="uring" unicode="&#x16f;" horiz-adv-x="1212" 
d="M1161 186l15 -102q-71 -48 -155 -77.5t-149 -29.5q-69 0 -106 30t-37 89q0 23 6.5 66t15.5 86.5t25.5 125.5t28.5 146l-23 6q-44 -134 -78 -220t-71.5 -155t-77.5 -105t-88 -54.5t-111 -18.5q-241 0 -241 240q0 120 87 610l9 51l-133 17v104q211 64 385 70l49 -53
q-4 -35 -58.5 -356.5t-54.5 -397.5q0 -47 18.5 -68.5t63.5 -21.5q23 0 37 2q159 230 326 877q96 22 215 22l53 -55l-106 -867q59 0 155 39zM721 1620q110 0 164.5 -50t54.5 -140q0 -106 -70.5 -175t-203.5 -69q-111 0 -166.5 49t-55.5 139q0 107 71.5 176.5t205.5 69.5z
M709 1518q-27 0 -50 -13q-38 -47 -38 -135q0 -82 55 -82q29 0 49 10q41 51 41 138q0 82 -57 82z" />
    <glyph glyph-name="Uhungarumlaut" unicode="&#x170;" horiz-adv-x="1357" 
d="M1407 1362v-111q-65 -33 -156 -45q-36 -535 -67 -749q-34 -244 -167 -364t-374 -120q-465 0 -465 441q0 24 1.5 54.5t4.5 72t6 78t8.5 93t9.5 95t11 106t11 104t12 110.5t12 106l-148 16v51l9 62h585v-111q-70 -34 -143 -43q-7 -64 -22.5 -207.5t-22 -207t-15.5 -158
t-12.5 -152t-3.5 -98.5q0 -138 54 -203t180 -65q109 0 192 47q84 94 109 305q38 351 65 762l-139 18v51l8 62h457zM647 1827h146q60 -36 86 -127l-205 -230h-137zM1030 1827h148q60 -36 86 -127l-205 -230h-137z" />
    <glyph glyph-name="uhungarumlaut" unicode="&#x171;" horiz-adv-x="1212" 
d="M1161 186l15 -102q-71 -48 -155 -77.5t-149 -29.5q-69 0 -106 30t-37 89q0 23 6.5 66t15.5 86.5t25.5 125.5t28.5 146l-23 6q-44 -134 -78 -220t-71.5 -155t-77.5 -105t-88 -54.5t-111 -18.5q-241 0 -241 240q0 120 87 610l9 51l-133 17v104q211 64 385 70l49 -53
q-4 -35 -58.5 -356.5t-54.5 -397.5q0 -47 18.5 -68.5t63.5 -21.5q23 0 37 2q159 230 326 877q96 22 215 22l53 -55l-106 -867q59 0 155 39zM543 1604h149q59 -38 90 -129l-256 -301h-114zM909 1604h148q61 -37 92 -129l-256 -301h-115z" />
    <glyph glyph-name="Uogonek" unicode="&#x172;" horiz-adv-x="1357" 
d="M1407 1362v-111q-74 -35 -156 -45q-41 -571 -67 -749q-21 -142 -69.5 -229t-143.5 -169q-86 -73 -112 -104q-66 -74 -66 -154q0 -94 94 -94q42 0 96 14l6 -98q-88 -59 -223 -59q-114 0 -166.5 44t-52.5 120q0 148 203 249l-2 21q-70 -21 -136 -21q-194 0 -314 114.5
t-120 330.5q0 118 76 811l-148 16v51l9 62h585v-111q-70 -34 -143 -43q-7 -64 -22.5 -207.5t-22 -207t-15.5 -158t-12.5 -152t-3.5 -98.5q0 -138 54 -203t180 -65q109 0 192 47q81 90 109 305q32 251 65 762l-139 18v51l8 62h457z" />
    <glyph glyph-name="uogonek" unicode="&#x173;" horiz-adv-x="1212" 
d="M999 -293q41 0 99 14l4 -98q-88 -59 -223 -59q-113 0 -166.5 45t-53.5 117q1 77 63.5 136t166.5 99l-4 23q-19 -3 -35 0q-121 7 -121 112q0 23 6.5 66t15.5 86.5t25.5 125.5t28.5 146l-23 6q-44 -134 -78 -220t-71.5 -155t-77.5 -105t-88 -54.5t-111 -18.5
q-241 0 -241 240q0 120 87 610l9 51l-133 17v104q211 64 385 70l49 -53q-4 -35 -58.5 -356.5t-54.5 -397.5q0 -47 18.5 -68.5t63.5 -21.5q23 0 37 2q159 230 326 877q96 22 215 22l53 -55l-106 -867q59 0 155 39l15 -102q-133 -79 -202 -147t-69 -140q0 -90 94 -90z" />
    <glyph glyph-name="Wcircumflex" unicode="&#x174;" horiz-adv-x="2035" 
d="M2091 1362v-111q-54 -26 -117 -39q-91 -281 -221.5 -624.5t-234.5 -577.5q-124 -30 -236 -33l-72 50q-83 421 -129 778h-24q-103 -330 -303 -795q-128 -30 -238 -33l-72 50q-30 145 -66 341t-88 490t-67 377l-121 14v51l9 62h571v-111q-64 -33 -133 -43
q26 -184 77 -534.5t62 -425.5h25q57 136 145.5 380.5t157.5 456.5l-27 152l-98 12v51l8 62h553v-111q-82 -38 -139 -43q81 -568 141 -960h25q75 194 171 478.5t154 504.5l-145 18v51l8 62h424zM1507 1538l-180 -96l-170 196h-18l-189 -168h-127l322 361h172z" />
    <glyph glyph-name="wcircumflex" unicode="&#x175;" horiz-adv-x="1675" 
d="M1313 983l180 90q69 -24 106 -93t37 -155q0 -74 -29 -167.5t-77.5 -187.5t-117 -184t-144 -159t-162 -111.5t-166.5 -42.5q-85 0 -135.5 47.5t-50.5 141.5q0 64 43 215l-23 4q-165 -408 -428 -408q-104 0 -167.5 60t-63.5 180q0 150 96 661l-133 17v104q214 65 383 68
l49 -51q-3 -23 -35.5 -220.5t-50.5 -329t-18 -192.5q0 -53 19.5 -77.5t72.5 -24.5q25 0 39 2q147 178 243 498q21 196 58 374q88 21 223 21l53 -53q0 -136 -61 -322q-31 -310 -31 -414q0 -57 17.5 -81.5t68.5 -24.5q25 0 41 4q94 94 172.5 228t128.5 292zM1288 1239
l-182 -84l-145 225h-21l-176 -206h-119l303 409h172z" />
    <glyph glyph-name="Ycircumflex" unicode="&#x176;" horiz-adv-x="1282" 
d="M1206 1208q-143 -300 -403 -725l-33 -354l152 -16v-52l-9 -61h-626v111q78 33 178 45l31 305q-144 430 -283 772l-127 16v51l8 62h590v-111q-69 -32 -145 -41q109 -318 186 -575h25q186 321 294 596l-135 18v51l9 62h425v-111q-75 -35 -137 -43zM1096 1538l-181 -96
l-170 196h-18l-188 -168h-127l321 361h172z" />
    <glyph glyph-name="ycircumflex" unicode="&#x177;" horiz-adv-x="1075" 
d="M709 985l178 88q68 -24 107.5 -89.5t39.5 -164.5q0 -171 -116 -418.5t-300 -474.5q-290 -362 -512 -362q-59 0 -120.5 25t-108.5 75l29 107q180 -45 307 -45q84 57 149 120q-138 722 -212 1028l-134 17v104q200 65 357 68l51 -51q127 -586 156 -906h22q76 109 145.5 267
t102.5 315zM969 1239l-183 -84l-145 225h-20l-177 -206h-118l303 409h172z" />
    <glyph glyph-name="Ydieresis" unicode="&#x178;" horiz-adv-x="1282" 
d="M1206 1208q-143 -300 -403 -725l-33 -354l152 -16v-52l-9 -61h-626v111q78 33 178 45l31 305q-144 430 -283 772l-127 16v51l8 62h590v-111q-69 -32 -145 -41q109 -318 186 -575h25q186 321 294 596l-135 18v51l9 62h425v-111q-75 -35 -137 -43zM559 1774q49 0 84 -15
q23 -38 23 -88q0 -82 -56 -168h-192l-17 240q87 31 158 31zM1040 1774q46 0 84 -15q21 -35 21 -86q0 -85 -53 -170h-193l-16 240q87 31 157 31z" />
    <glyph glyph-name="Zacute" unicode="&#x179;" horiz-adv-x="1148" 
d="M897 375l172 -13q4 -62 4 -90q0 -134 -49 -301l-66 -6l-682 35h-225l-16 100q399 612 529 804t227 315l-9 16l-417 -21l-41 -223h-170q-19 120 -19 213q0 85 17 158l57 29q64 0 160 -29h764l18 -100q-358 -559 -502.5 -772t-247.5 -345l9 -18l403 2zM821 1849h162
q61 -39 84 -139l-336 -240h-135z" />
    <glyph glyph-name="zacute" unicode="&#x17a;" horiz-adv-x="909" 
d="M702 377l136 -15q8 -114 8 -178q0 -123 -45.5 -178t-138.5 -55q-92 0 -220 36t-247 95l-95 -119q-47 7 -114 43l-19 33l584 745l-285 11l-33 -131h-145q-15 80 -1 206t48 197q316 0 559 -98l76 96q56 -8 117 -45l16 -31l-573 -733q171 -28 323 -35zM666 1604h163
q63 -53 82 -142l-333 -288h-119z" />
    <glyph glyph-name="Zdotaccent" unicode="&#x17b;" horiz-adv-x="1148" 
d="M897 375l172 -13q4 -62 4 -90q0 -134 -49 -301l-66 -6l-682 35h-225l-16 100q399 612 529 804t227 315l-9 16l-417 -21l-41 -223h-170q-19 120 -19 213q0 85 17 158l57 29q64 0 160 -29h764l18 -100q-358 -559 -502.5 -772t-247.5 -345l9 -18l403 2zM727 1782
q55 0 96 -13q23 -52 23 -96q0 -84 -62 -182h-223l-12 258q86 33 178 33z" />
    <glyph glyph-name="zdotaccent" unicode="&#x17c;" horiz-adv-x="909" 
d="M702 377l136 -15q8 -114 8 -178q0 -123 -45.5 -178t-138.5 -55q-92 0 -220 36t-247 95l-95 -119q-47 7 -114 43l-19 33l584 745l-285 11l-33 -131h-145q-15 80 -1 206t48 197q316 0 559 -98l76 96q56 -8 117 -45l16 -31l-573 -733q171 -28 323 -35zM584 1530q64 0 94 -12
q20 -45 20 -93q0 -85 -59 -184h-223l-15 258q91 31 183 31z" />
    <glyph glyph-name="Zcaron" unicode="&#x17d;" horiz-adv-x="1148" 
d="M897 375l172 -13q4 -62 4 -90q0 -134 -49 -301l-66 -6l-682 35h-225l-16 100q399 612 529 804t227 315l-9 16l-417 -21l-41 -223h-170q-19 120 -19 213q0 85 17 158l57 29q64 0 160 -29h764l18 -100q-358 -559 -502.5 -772t-247.5 -345l9 -18l403 2zM721 1663h20l189 168
h125l-320 -361h-172l-192 297l184 91z" />
    <glyph glyph-name="zcaron" unicode="&#x17e;" horiz-adv-x="909" 
d="M702 377l136 -15q8 -114 8 -178q0 -123 -45.5 -178t-138.5 -55q-92 0 -220 36t-247 95l-95 -119q-47 7 -114 43l-19 33l584 745l-285 11l-33 -131h-145q-15 80 -1 206t48 197q316 0 559 -98l76 96q56 -8 117 -45l16 -31l-573 -733q171 -28 323 -35zM569 1378h19l174 205
h121l-303 -407h-172l-166 340l180 90z" />
    <glyph glyph-name="longs" unicode="&#x17f;" horiz-adv-x="595" 
d="M897 1266l-342 82q-33 -13 -55 -27q-8 -283 -27 -496l-74 -772q-26 -257 -116.5 -373t-249.5 -116q-80 0 -161.5 27t-143.5 79l26 107q175 -49 295 -49q41 99 57 270l87 870l-130 23v104q71 23 144 35q14 117 50.5 208.5t84.5 147.5t110 92t122 50t126 14q160 0 246 -80z
" />
    <glyph glyph-name="uni018F" unicode="&#x18f;" horiz-adv-x="1228" 
d="M664 1391q131 0 230.5 -43t161.5 -121.5t93 -183.5t31 -234q0 -118 -24.5 -233.5t-79.5 -225.5t-135.5 -193t-201.5 -133.5t-268 -50.5q-211 0 -317.5 95t-106.5 256q0 106 49 188t126.5 132t184 81.5t211.5 43.5t220 11v27q0 199 -72 283t-215 84q-181 0 -352 -115
l-23 115q101 103 218 160t270 57zM643 166q71 67 118 198.5t66 284.5q-247 -30 -357 -108t-110 -232q0 -95 36 -137.5t108 -42.5q70 0 139 37z" />
    <glyph glyph-name="florin" unicode="&#x192;" horiz-adv-x="1069" 
d="M1063 1257l57 -45q4 -28 4 -57q0 -132 -43 -291h-163l-25 248l-29 2q-66 0 -121 -24q-37 -75 -69 -228l-21 -90h195v-53l-10 -86h-215l-86 -389q-44 -209 -132 -311.5t-239 -102.5q-157 0 -287 107l27 106q8 -2 35 -9.5t37.5 -10.5t34.5 -9t39 -8.5t36.5 -5.5t42 -4.5
t41.5 -1.5q38 86 78 270l78 369h-168v55l10 84h188l11 49q46 219 154.5 326.5t262.5 107.5q66 0 119 -18q85 20 158 20z" />
    <glyph glyph-name="uni01E2" unicode="&#x1e2;" horiz-adv-x="1804" 
d="M1182 1227l-45 -469l319 20l17 -53l-15 -119l-336 21l-47 -498h355l81 246l172 -13q5 -78 5 -90q0 -131 -50 -301l-65 -6l-664 35h-297v111q85 34 158 45l23 231h-398q-86 -176 -129 -260l125 -14v-52l-6 -61h-410v111q55 30 119 43q248 477 596 1085l-133 8v51l8 64h996
q100 29 163 29l56 -29q4 -36 4 -72q0 -145 -43 -299h-168l-21 219zM805 530l65 680h-39q-163 -292 -362 -680h336zM850 1731h541q6 -18 6 -52q0 -63 -25 -123h-541q-6 18 -6 50q0 65 25 125z" />
    <glyph glyph-name="uni01E3" unicode="&#x1e3;" horiz-adv-x="1617" 
d="M1169 172q71 0 157 33.5t165 91.5l20 -109q-85 -96 -204.5 -155.5t-262.5 -59.5q-80 0 -140 23.5t-93.5 64.5t-53.5 95t-20.5 115t6.5 126l-24 6q-31 -94 -56 -156t-58 -118.5t-70 -88t-87 -49.5t-114 -18q-63 0 -110 17t-84.5 57t-57 112.5t-19.5 176.5
q0 105 19.5 207.5t62 199t104 169.5t152 117t199.5 44q186 0 303 -117q128 117 328 117q182 0 266 -77t84 -203q0 -83 -36.5 -147t-95.5 -102t-140.5 -61t-163 -30t-172.5 -4v-15q0 -262 196 -262zM774 780q33 64 66 105q-96 57 -197 57q-57 0 -106 -18
q-79 -115 -120.5 -284t-41.5 -321q0 -86 18.5 -118.5t67.5 -32.5q25 0 39 4q66 112 153.5 325.5t120.5 282.5zM1194 940q-45 0 -90 -20q-50 -56 -82.5 -165t-42.5 -223q307 40 307 285q0 65 -21 94t-71 29zM688 1442h541q6 -18 6 -51q0 -63 -25 -123h-540q-6 18 -6 49
q0 68 24 125z" />
    <glyph glyph-name="Aringacute" unicode="&#x1fa;" horiz-adv-x="1337" 
d="M864 1671h-131l174 316h154q54 -42 78 -123zM1290 113v-52l-6 -61h-584v111q73 34 142 43q-38 178 -47 223h-422q-54 -133 -97 -248l134 -16v-52l-9 -61h-424v111q73 34 142 43q247 588 485 1087q-86 42 -86 143q0 95 71 159.5t202 64.5q107 0 166 -46.5t59 -131.5
q0 -118 -105 -177q8 -37 37 -173t41.5 -194t39.5 -181t45 -201.5t43 -182t48 -192.5zM729 1491q-31 -48 -31 -100q0 -72 56 -72q34 0 55 12q33 41 33 101q0 71 -60 71q-32 0 -53 -12zM430 520h336q-43 215 -96 494h-25q-77 -170 -215 -494z" />
    <glyph glyph-name="aringacute" unicode="&#x1fb;" horiz-adv-x="1177" 
d="M1126 186l15 -102q-67 -48 -144.5 -77.5t-142.5 -29.5q-68 0 -105.5 30t-37.5 89q0 23 7 67t16.5 87.5t27.5 128t31 149.5l-25 7q-55 -171 -96.5 -271t-92 -169.5t-107 -95.5t-136.5 -26q-63 0 -110.5 17t-85.5 57t-57.5 112t-19.5 175q0 105 19.5 208t62 199.5t103 170
t149.5 117.5t195 44q147 0 225 -78l19 56q77 22 188 22l55 -55l-106 -871q57 0 153 39zM504 172q65 91 129 261t147 472q-67 37 -141 37q-52 0 -104 -18q-79 -115 -119.5 -283.5t-40.5 -321.5q0 -86 18.5 -118.5t65.5 -32.5q9 0 45 4zM807 1915h145q59 -52 78 -123
l-262 -186h-119zM715 1554q108 0 164.5 -47.5t56.5 -134.5q0 -102 -72.5 -166.5t-204.5 -64.5q-109 0 -165 47.5t-56 134.5q0 102 73 166.5t204 64.5zM702 1452q-26 0 -51 -14q-33 -44 -33 -115q0 -80 58 -80q26 0 51 14q35 47 35 119q0 76 -60 76z" />
    <glyph glyph-name="AEacute" unicode="&#x1fc;" horiz-adv-x="1804" 
d="M1182 1227l-45 -469l319 20l17 -53l-15 -119l-336 21l-47 -498h355l81 246l172 -13q5 -78 5 -90q0 -131 -50 -301l-65 -6l-664 35h-297v111q85 34 158 45l23 231h-398q-86 -176 -129 -260l125 -14v-52l-6 -61h-410v111q55 30 119 43q248 477 596 1085l-133 8v51l8 64h996
q100 29 163 29l56 -29q4 -36 4 -72q0 -145 -43 -299h-168l-21 219zM805 530l65 680h-39q-163 -292 -362 -680h336zM1235 1849h162q61 -39 84 -139l-336 -240h-135z" />
    <glyph glyph-name="aeacute" unicode="&#x1fd;" horiz-adv-x="1617" 
d="M1169 172q71 0 157 33.5t165 91.5l20 -109q-85 -96 -204.5 -155.5t-262.5 -59.5q-80 0 -140 23.5t-93.5 64.5t-53.5 95t-20.5 115t6.5 126l-24 6q-31 -94 -56 -156t-58 -118.5t-70 -88t-87 -49.5t-114 -18q-63 0 -110 17t-84.5 57t-57 112.5t-19.5 176.5
q0 105 19.5 207.5t62 199t104 169.5t152 117t199.5 44q186 0 303 -117q128 117 328 117q182 0 266 -77t84 -203q0 -83 -36.5 -147t-95.5 -102t-140.5 -61t-163 -30t-172.5 -4v-15q0 -262 196 -262zM774 780q33 64 66 105q-96 57 -197 57q-57 0 -106 -18
q-79 -115 -120.5 -284t-41.5 -321q0 -86 18.5 -118.5t67.5 -32.5q25 0 39 4q66 112 153.5 325.5t120.5 282.5zM1194 940q-45 0 -90 -20q-50 -56 -82.5 -165t-42.5 -223q307 40 307 285q0 65 -21 94t-71 29zM1073 1593h164q29 -24 51 -61.5t31 -79.5l-334 -289h-119z" />
    <glyph glyph-name="Oslashacute" unicode="&#x1fe;" horiz-adv-x="1431" 
d="M1382 811q1 -96 -17 -192t-54 -191t-96 -176.5t-138.5 -144t-188 -98.5t-237.5 -36q-185 0 -315 76l-164 -215l-90 49l-10 35l159 215q-140 152 -143 422q-1 96 16.5 191.5t53 190t95.5 175.5t138.5 143.5t188 98t237.5 35.5q169 0 297 -64l150 203l92 -47l8 -37
l-143 -197q158 -152 161 -436zM627 1194q-83 -73 -139 -271t-56 -417q0 -58 6 -111l547 748q-61 92 -186 92q-88 0 -172 -41zM848 168q83 73 138.5 271t55.5 417q0 92 -10 148l-555 -760q55 -117 199 -117q88 0 172 41zM967 1849h161q61 -39 84 -139l-335 -240h-136z" />
    <glyph glyph-name="oslashacute" unicode="&#x1ff;" horiz-adv-x="1110" 
d="M1057 1157l-125 -186q123 -117 123 -342q0 -87 -17 -173t-59.5 -175t-106 -156t-164 -109.5t-225.5 -42.5q-120 0 -209 39l-127 -184l-90 45l-12 33l121 182q-109 115 -109 330q0 88 17.5 174.5t60 174.5t106 154t164 108t224.5 42q114 0 190 -33l135 197l93 -45z
M610 938q-66 0 -114 -23q-60 -65 -98.5 -233.5t-41.5 -329.5l363 541q-36 45 -109 45zM618 129q64 66 101 246.5t37 343.5v22l-377 -563q35 -74 125 -74q62 0 114 25zM776 1593h164q29 -24 51 -61.5t31 -79.5l-334 -289h-119z" />
    <glyph glyph-name="Scommaaccent" unicode="&#x218;" horiz-adv-x="1089" 
d="M645 831l78 -47q63 -39 108.5 -77.5t85 -88.5t60 -112t20.5 -135q0 -63 -15 -118t-52.5 -107.5t-95 -90t-149 -60t-208.5 -22.5q-228 0 -403 78q-13 89 -13 160q0 95 17 192l186 13l58 -275q70 -18 145 -18q103 0 160 31q49 59 49 145q0 78 -39 125t-131 106l-76 48
q-136 85 -203 184t-67 223q0 170 116 287t310 117q123 0 213 -54l4 31q109 25 168 25l59 -45q4 -28 4 -56q0 -142 -45 -303h-174l-22 234q-73 20 -144 20q-74 0 -133 -27q-61 -54 -61 -139q0 -78 45.5 -129.5t144.5 -114.5zM469 -96q77 0 131 -25q25 -39 25 -100
q0 -111 -67 -188t-206 -101l-22 72q64 26 94.5 53.5t30.5 71.5v20l-93 8l15 181q44 8 92 8z" />
    <glyph glyph-name="scommaaccent" unicode="&#x219;" horiz-adv-x="860" 
d="M553 610q51 -40 78 -63.5t60 -57.5t49 -61.5t27 -64.5t11 -78q0 -147 -112 -229.5t-299 -82.5q-146 0 -237.5 51t-113.5 148l123 133l269 -199q26 4 69 21q25 35 25 90q0 51 -30 86.5t-123 111.5q-4 3 -6.5 5.5t-7 5.5t-7.5 6q-60 49 -92 78.5t-65.5 70.5t-47.5 83.5
t-14 93.5q0 148 116 230.5t301 82.5q133 0 219 -43.5t107 -128.5l-113 -131l-260 172q-47 -7 -76 -18q-32 -41 -32 -99q0 -11 2 -21t4 -18t8.5 -18t10.5 -17t15.5 -18.5t18.5 -18t24.5 -21.5t27.5 -23t33.5 -27.5t37.5 -30.5zM334 -96q77 0 131 -25q24 -37 24 -100
q0 -111 -66.5 -188t-205.5 -101l-22 72q64 25 94 53t30 72v20l-92 8l15 181q44 8 92 8z" />
    <glyph glyph-name="uni021A" unicode="&#x21a;" horiz-adv-x="1210" 
d="M1198 1391l55 -29q4 -36 4 -72q0 -145 -43 -299h-167l-23 223l-186 11l-103 -1096l156 -16v-52l-8 -61h-633v111q70 31 178 43l104 1079h-178l-82 -246l-161 10q-5 73 -5 90q0 148 50 304l65 6l477 -35h336q100 29 164 29zM535 -96q77 0 131 -25q24 -38 24 -100
q0 -111 -66.5 -188t-205.5 -101l-23 72q64 26 94.5 53.5t30.5 71.5v20l-92 8l14 181q44 8 93 8z" />
    <glyph glyph-name="uni021B" unicode="&#x21b;" horiz-adv-x="731" 
d="M743 1024v-66l-18 -73h-240q-76 -561 -86 -742q118 0 258 39l15 -104q-71 -45 -174.5 -75t-186.5 -30q-194 0 -194 185q0 78 27 289.5t65 420.5l-119 23v104q66 23 150 39q30 150 55 221q135 39 201 41l39 -39l-31 -233h239zM274 -96q78 0 132 -25q24 -37 24 -100
q0 -111 -66.5 -188t-205.5 -101l-23 72q64 26 94.5 53.5t30.5 71.5v20l-92 8l14 181q44 8 92 8z" />
    <glyph glyph-name="uni0232" unicode="&#x232;" horiz-adv-x="1282" 
d="M1206 1208q-143 -300 -403 -725l-33 -354l152 -16v-52l-9 -61h-626v111q78 33 178 45l31 305q-144 430 -283 772l-127 16v51l8 62h590v-111q-69 -32 -145 -41q109 -318 186 -575h25q186 321 294 596l-135 18v51l9 62h425v-111q-75 -35 -137 -43zM516 1731h541
q6 -18 6 -52q0 -63 -25 -123h-540q-6 18 -6 50q0 68 24 125z" />
    <glyph glyph-name="uni0233" unicode="&#x233;" horiz-adv-x="1075" 
d="M709 985l178 88q68 -24 107.5 -89.5t39.5 -164.5q0 -171 -116 -418.5t-300 -474.5q-290 -362 -512 -362q-59 0 -120.5 25t-108.5 75l29 107q180 -45 307 -45q84 57 149 120q-138 722 -212 1028l-134 17v104q200 65 357 68l51 -51q127 -586 156 -906h22q76 109 145.5 267
t102.5 315zM399 1452h541q6 -18 6 -51q0 -66 -24 -123h-541q-6 18 -6 49q0 68 24 125z" />
    <glyph glyph-name="uni0237" unicode="&#x237;" horiz-adv-x="577" 
d="M500 1012l-121 -973q-30 -249 -119 -362t-242 -113q-147 0 -260 90l27 108q149 -34 244 -34q41 94 61 268l109 878l-136 17v104q210 65 386 68z" />
    <glyph glyph-name="uni0259" unicode="&#x259;" horiz-adv-x="1005" 
d="M569 1071q194 0 288.5 -116.5t94.5 -315.5q0 -91 -17.5 -180t-60.5 -178t-106.5 -156.5t-163.5 -109.5t-223 -42q-177 0 -260.5 77.5t-83.5 203.5q0 82 36.5 145.5t95 101.5t140 61t163.5 30t173 4v16q0 132 -50.5 194t-152.5 62q-140 0 -286 -96l-21 107
q74 85 187 138.5t247 53.5zM424 104q42 0 90 23q50 56 82.5 164t42.5 221q-307 -40 -307 -283q0 -67 21 -96t71 -29z" />
    <glyph glyph-name="uni02BB" unicode="&#x2bb;" horiz-adv-x="538" 
d="M528 1536l25 -76q-75 -34 -127.5 -90t-52.5 -119v-30l106 -11l-16 -254q-44 -10 -107 -10q-96 0 -153 35q-31 60 -31 137q0 47 9.5 93.5t34.5 99.5t63.5 96.5t102.5 78.5t146 50z" />
    <glyph glyph-name="afii57929" unicode="&#x2bc;" horiz-adv-x="538" 
d="M348 1522q98 0 154 -37q28 -58 28 -135q0 -46 -8.5 -92t-33 -99t-63 -96.5t-103.5 -80t-148 -52.5l-24 78q75 34 127.5 89.5t52.5 119.5v28l-107 12l17 254q64 11 108 11z" />
    <glyph glyph-name="circumflex" unicode="&#x2c6;" horiz-adv-x="757" 
d="M778 1239l-182 -84l-145 225h-21l-176 -206h-119l303 409h172z" />
    <glyph glyph-name="caron" unicode="&#x2c7;" horiz-adv-x="757" 
d="M504 1378h18l176 205h119l-303 -407h-170l-168 340l180 90z" />
    <glyph glyph-name="breve" unicode="&#x2d8;" horiz-adv-x="706" 
d="M176 1520l189 34q2 -99 27.5 -146.5t99.5 -47.5q70 0 110 46.5t70 145.5l88 -22q-31 -171 -118 -254.5t-218 -83.5q-54 0 -97 13.5t-71 37t-48 55.5t-27.5 68.5t-10 76t5.5 77.5z" />
    <glyph glyph-name="dotaccent" unicode="&#x2d9;" horiz-adv-x="430" 
d="M356 1530q65 0 95 -12q20 -45 20 -93q0 -85 -59 -184h-224l-14 258q91 31 182 31z" />
    <glyph glyph-name="ring" unicode="&#x2da;" horiz-adv-x="616" 
d="M438 1620q110 0 165.5 -50t55.5 -140q0 -106 -71.5 -175t-204.5 -69q-110 0 -165.5 49t-55.5 139q0 107 72 176.5t204 69.5zM426 1518q-28 0 -47 -13q-41 -47 -41 -135q0 -82 57 -82q26 0 49 10q41 55 41 138q0 82 -59 82z" />
    <glyph glyph-name="ogonek" unicode="&#x2db;" horiz-adv-x="579" 
d="M328 31h80q-189 -123 -189 -236q0 -88 94 -88q43 0 97 14l6 -98q-88 -59 -223 -59q-113 0 -166.5 44.5t-53.5 119.5q0 105 97.5 182t257.5 121z" />
    <glyph glyph-name="tilde" unicode="&#x2dc;" horiz-adv-x="749" 
d="M731 1509l66 -53q-88 -239 -234 -239q-60 0 -117 34l-133 78l-100 -112l-66 55q88 239 234 239q56 0 117 -36l131 -78z" />
    <glyph glyph-name="hungarumlaut" unicode="&#x2dd;" horiz-adv-x="825" 
d="M268 1604h148q62 -38 90 -129l-256 -301h-115zM637 1604h145q61 -37 92 -129l-256 -301h-114z" />
    <glyph glyph-name="gravecomb" unicode="&#x300;" horiz-adv-x="0" 
d="M-70 1174h-118l-258 288q54 104 124 142h162z" />
    <glyph glyph-name="acutecomb" unicode="&#x301;" horiz-adv-x="0" 
d="M-272 1604h163q63 -53 82 -142l-333 -288h-119z" />
    <glyph glyph-name="uni0302" unicode="&#x302;" horiz-adv-x="0" 
d="M6 1239l-182 -84l-146 225h-20l-176 -206h-119l303 409h172z" />
    <glyph glyph-name="tildecomb" unicode="&#x303;" horiz-adv-x="0" 
d="M-90 1509l65 -53q-18 -49 -38 -87.5t-48 -75t-65.5 -56.5t-81.5 -20q-59 0 -119 34l-131 78l-100 -112l-66 55q88 239 234 239q55 0 116 -36l131 -78z" />
    <glyph glyph-name="uni0304" unicode="&#x304;" horiz-adv-x="0" 
d="M-547 1442h541q6 -18 6 -51q0 -65 -27 -123h-540q-4 12 -4 49q0 68 24 125z" />
    <glyph glyph-name="uni0306" unicode="&#x306;" horiz-adv-x="0" 
d="M-551 1520l189 34q2 -99 27 -146.5t99 -47.5q70 0 110.5 47t70.5 145l88 -22q-30 -170 -117.5 -254t-218.5 -84q-63 0 -112 19.5t-77 52t-45.5 74.5t-18.5 88.5t5 93.5z" />
    <glyph glyph-name="uni0307" unicode="&#x307;" horiz-adv-x="0" 
d="M-166 1530q64 0 94 -12q21 -47 21 -93q0 -84 -60 -184h-223l-14 258q91 31 182 31z" />
    <glyph glyph-name="uni0308" unicode="&#x308;" horiz-adv-x="2" 
d="M-545 1513q54 0 84 -12q21 -47 21 -90q0 -82 -56 -164h-190l-16 236q75 30 157 30zM-125 1513q49 0 86 -12q21 -44 21 -86q0 -80 -58 -168h-190l-17 236q75 30 158 30z" />
    <glyph glyph-name="uni030A" unicode="&#x30a;" horiz-adv-x="0" 
d="M-289 1620q110 0 164.5 -50t54.5 -140q0 -106 -70.5 -175t-203.5 -69q-111 0 -166 49t-55 139q0 107 71 176.5t205 69.5zM-301 1518q-26 0 -49 -13q-39 -48 -39 -135q0 -82 55 -82q29 0 49 10q41 51 41 138q0 82 -57 82z" />
    <glyph glyph-name="uni030B" unicode="&#x30b;" horiz-adv-x="0" 
d="M-664 1604h150q59 -38 90 -129l-256 -301h-115zM-297 1604h147q62 -38 93 -129l-256 -301h-115z" />
    <glyph glyph-name="uni030C" unicode="&#x30c;" horiz-adv-x="0" 
d="M-270 1378h18l174 205h121l-303 -407h-172l-166 340l180 90z" />
    <glyph glyph-name="uni0312" unicode="&#x312;" horiz-adv-x="2" 
d="M-137 1604l22 -70q-66 -29 -97.5 -60.5t-31.5 -82.5v-21l92 -8l-14 -180q-44 -8 -94 -8q-81 0 -129 26q-25 32 -25 98q0 117 68 199t209 107z" />
    <glyph glyph-name="uni0326" unicode="&#x326;" horiz-adv-x="0" 
d="M-526 -96q77 0 131 -25q24 -37 24 -100q0 -111 -66.5 -188t-205.5 -101l-23 72q64 26 94.5 53.5t30.5 71.5v20l-92 8l15 181q44 8 92 8z" />
    <glyph glyph-name="uni0327" unicode="&#x327;" horiz-adv-x="0" 
d="M-399 12l-17 -133q166 0 166 -127q0 -81 -65.5 -134.5t-186.5 -53.5q-140 0 -209 63l27 92q94 -24 127 -24q43 0 65.5 18.5t22.5 50.5q0 29 -21 41t-85 21h-3l56 186h123z" />
    <glyph glyph-name="uni0328" unicode="&#x328;" horiz-adv-x="0" 
d="M-344 31h78q-187 -124 -187 -236q0 -43 24.5 -65.5t70.5 -22.5q42 0 96 14l6 -98q-88 -59 -223 -59q-114 0 -166.5 44t-52.5 120q0 105 96.5 182t257.5 121z" />
    <glyph glyph-name="uni0394" unicode="&#x394;" horiz-adv-x="1161" 
d="M1094 39l-19 -41h-1098l-10 41l592 1319l148 31l51 -11zM584 1069l-375 -852h584z" />
    <glyph glyph-name="uni03A9" unicode="&#x3a9;" horiz-adv-x="1439" 
d="M1395 272q0 -118 -41 -272h-2h-590l39 375q62 34 108 86.5t71.5 106t41.5 118.5t20.5 115t4.5 104q0 161 -54.5 245.5t-187.5 84.5q-90 0 -174 -41q-74 -50 -126 -185.5t-52 -287.5q0 -260 159 -346l-39 -375h-575q-15 198 29 362l163 13l21 -160l242 -25l14 127
q-70 23 -129 57.5t-111.5 86.5t-82.5 127.5t-31 167.5q-1 89 22.5 175.5t78 170t134.5 147t203 102t274 38.5q272 0 416.5 -126t144.5 -356q0 -72 -14.5 -142t-49 -141t-85.5 -130.5t-129 -109t-176 -77.5l-10 -119l256 27l53 160l160 -13q4 -62 4 -90z" />
    <glyph glyph-name="uni03BC" unicode="&#x3bc;" horiz-adv-x="1210" 
d="M1159 186l15 -102q-70 -48 -153.5 -77.5t-150.5 -29.5q-69 0 -106 30t-37 89q0 23 7 66.5t15.5 85.5t26 126.5t29.5 145.5l-25 6q-64 -214 -118 -332t-114 -169.5t-140 -51.5q-45 0 -72.5 18t-48.5 58l-23 -10q4 -22 19.5 -104t21 -116.5t13.5 -100t12 -126.5
q-80 -28 -250 -28l-33 43q39 582 164 1267l-133 17v104q211 64 385 70l49 -53q-2 -18 -57.5 -347t-55.5 -407q0 -47 18.5 -68.5t61.5 -21.5q23 0 37 2q161 228 326 877q99 22 215 22l55 -55l-106 -867q57 0 153 39z" />
    <glyph glyph-name="pi" unicode="&#x3c0;" horiz-adv-x="1204" 
d="M1229 1034v-96l-35 -147h-135l-82 -641q66 8 149 36l15 -102q-151 -107 -297 -107q-76 0 -116 39t-40 111q0 88 96 664h-278l-98 -791q-125 -23 -228 -23l-55 56l108 502l31 256q-97 -4 -207 -66l-43 90q48 74 96 119t124.5 72.5t181.5 27.5h813z" />
    <glyph glyph-name="Wgrave" unicode="&#x1e80;" horiz-adv-x="2035" 
d="M2091 1362v-111q-54 -26 -117 -39q-91 -281 -221.5 -624.5t-234.5 -577.5q-124 -30 -236 -33l-72 50q-83 421 -129 778h-24q-103 -330 -303 -795q-128 -30 -238 -33l-72 50q-30 145 -66 341t-88 490t-67 377l-121 14v51l9 62h571v-111q-64 -33 -133 -43
q26 -184 77 -534.5t62 -425.5h25q57 136 145.5 380.5t157.5 456.5l-27 152l-98 12v51l8 62h553v-111q-82 -38 -139 -43q81 -568 141 -960h25q75 194 171 478.5t154 504.5l-145 18v51l8 62h424zM1225 1470h-135l-254 238q53 103 118 141h164z" />
    <glyph glyph-name="wgrave" unicode="&#x1e81;" horiz-adv-x="1675" 
d="M1313 983l180 90q69 -24 106 -93t37 -155q0 -74 -29 -167.5t-77.5 -187.5t-117 -184t-144 -159t-162 -111.5t-166.5 -42.5q-85 0 -135.5 47.5t-50.5 141.5q0 64 43 215l-23 4q-165 -408 -428 -408q-104 0 -167.5 60t-63.5 180q0 150 96 661l-133 17v104q214 65 383 68
l49 -51q-3 -23 -35.5 -220.5t-50.5 -329t-18 -192.5q0 -53 19.5 -77.5t72.5 -24.5q25 0 39 2q147 178 243 498q21 196 58 374q88 21 223 21l53 -53q0 -136 -61 -322q-31 -310 -31 -414q0 -57 17.5 -81.5t68.5 -24.5q25 0 41 4q94 94 172.5 228t128.5 292zM1020 1174h-119
l-258 288q54 103 125 142h162z" />
    <glyph glyph-name="Wacute" unicode="&#x1e82;" horiz-adv-x="2035" 
d="M2091 1362v-111q-54 -26 -117 -39q-91 -281 -221.5 -624.5t-234.5 -577.5q-124 -30 -236 -33l-72 50q-83 421 -129 778h-24q-103 -330 -303 -795q-128 -30 -238 -33l-72 50q-30 145 -66 341t-88 490t-67 377l-121 14v51l9 62h571v-111q-64 -33 -133 -43
q26 -184 77 -534.5t62 -425.5h25q57 136 145.5 380.5t157.5 456.5l-27 152l-98 12v51l8 62h553v-111q-82 -38 -139 -43q81 -568 141 -960h25q75 194 171 478.5t154 504.5l-145 18v51l8 62h424zM1313 1849h162q61 -39 84 -139l-336 -240h-136z" />
    <glyph glyph-name="wacute" unicode="&#x1e83;" horiz-adv-x="1675" 
d="M1313 983l180 90q69 -24 106 -93t37 -155q0 -74 -29 -167.5t-77.5 -187.5t-117 -184t-144 -159t-162 -111.5t-166.5 -42.5q-85 0 -135.5 47.5t-50.5 141.5q0 64 43 215l-23 4q-165 -408 -428 -408q-104 0 -167.5 60t-63.5 180q0 150 96 661l-133 17v104q214 65 383 68
l49 -51q-3 -23 -35.5 -220.5t-50.5 -329t-18 -192.5q0 -53 19.5 -77.5t72.5 -24.5q25 0 39 2q147 178 243 498q21 196 58 374q88 21 223 21l53 -53q0 -136 -61 -322q-31 -310 -31 -414q0 -57 17.5 -81.5t68.5 -24.5q25 0 41 4q94 94 172.5 228t128.5 292zM1104 1604h164
q63 -53 82 -142l-334 -288h-119z" />
    <glyph glyph-name="Wdieresis" unicode="&#x1e84;" horiz-adv-x="2035" 
d="M2091 1362v-111q-54 -26 -117 -39q-91 -281 -221.5 -624.5t-234.5 -577.5q-124 -30 -236 -33l-72 50q-83 421 -129 778h-24q-103 -330 -303 -795q-128 -30 -238 -33l-72 50q-30 145 -66 341t-88 490t-67 377l-121 14v51l9 62h571v-111q-64 -33 -133 -43
q26 -184 77 -534.5t62 -425.5h25q57 136 145.5 380.5t157.5 456.5l-27 152l-98 12v51l8 62h553v-111q-82 -38 -139 -43q81 -568 141 -960h25q75 194 171 478.5t154 504.5l-145 18v51l8 62h424zM971 1774q49 0 84 -15q22 -36 22 -88q0 -83 -55 -168h-193l-16 240
q87 31 158 31zM1452 1774q47 0 84 -15q20 -33 20 -86q0 -85 -53 -170h-192l-17 240q87 31 158 31z" />
    <glyph glyph-name="wdieresis" unicode="&#x1e85;" horiz-adv-x="1675" 
d="M1313 983l180 90q69 -24 106 -93t37 -155q0 -74 -29 -167.5t-77.5 -187.5t-117 -184t-144 -159t-162 -111.5t-166.5 -42.5q-85 0 -135.5 47.5t-50.5 141.5q0 64 43 215l-23 4q-165 -408 -428 -408q-104 0 -167.5 60t-63.5 180q0 150 96 661l-133 17v104q214 65 383 68
l49 -51q-3 -23 -35.5 -220.5t-50.5 -329t-18 -192.5q0 -53 19.5 -77.5t72.5 -24.5q25 0 39 2q147 178 243 498q21 196 58 374q88 21 223 21l53 -53q0 -136 -61 -322q-31 -310 -31 -414q0 -57 17.5 -81.5t68.5 -24.5q25 0 41 4q94 94 172.5 228t128.5 292zM801 1513
q54 0 84 -12q20 -45 20 -90q0 -84 -55 -164h-191l-16 236q75 30 158 30zM1221 1513q49 0 86 -12q20 -42 20 -86q0 -82 -57 -168h-191l-16 236q75 30 158 30z" />
    <glyph glyph-name="uni1E9E" unicode="&#x1e9e;" horiz-adv-x="1460" 
d="M1237 639q73 -76 109 -144t36 -161q0 -170 -117 -265.5t-323 -95.5q-67 0 -127 12.5t-90 24t-84 35.5q-10 75 -10 139q0 59 18 183l144 8l47 -244q27 -8 75 -8q74 0 121 27q33 47 33 118q0 54 -24.5 93t-96.5 116q-49 52 -74 81.5t-51.5 68.5t-36.5 76.5t-10 82.5
q0 264 363 404v24q-88 27 -217 27q-86 0 -149 -19t-113 -63t-80 -121.5t-41 -189.5l-82 -848h-451v111q84 35 160 45l65 692q26 281 182.5 411t438.5 130q126 0 252 -25t225 -74v-145q-129 -45 -195.5 -112t-66.5 -148q0 -29 7.5 -53.5t26.5 -49.5t34.5 -41.5t49 -49
t52.5 -52.5z" />
    <glyph glyph-name="Ygrave" unicode="&#x1ef2;" horiz-adv-x="1282" 
d="M1206 1208q-143 -300 -403 -725l-33 -354l152 -16v-52l-9 -61h-626v111q78 33 178 45l31 305q-144 430 -283 772l-127 16v51l8 62h590v-111q-69 -32 -145 -41q109 -318 186 -575h25q186 321 294 596l-135 18v51l9 62h425v-111q-75 -35 -137 -43zM813 1470h-135l-254 238
q52 103 119 141h164z" />
    <glyph glyph-name="ygrave" unicode="&#x1ef3;" horiz-adv-x="1075" 
d="M709 985l178 88q68 -24 107.5 -89.5t39.5 -164.5q0 -171 -116 -418.5t-300 -474.5q-290 -362 -512 -362q-59 0 -120.5 25t-108.5 75l29 107q180 -45 307 -45q84 57 149 120q-138 722 -212 1028l-134 17v104q200 65 357 68l51 -51q127 -586 156 -906h22q76 109 145.5 267
t102.5 315zM700 1174h-118l-258 288q54 103 125 142h161z" />
    <glyph glyph-name="uni2007" unicode="&#x2007;" horiz-adv-x="1185" 
 />
    <glyph glyph-name="uni2008" unicode="&#x2008;" horiz-adv-x="542" 
 />
    <glyph glyph-name="uni2009" unicode="&#x2009;" horiz-adv-x="358" 
 />
    <glyph glyph-name="uni200B" unicode="&#x200b;" horiz-adv-x="0" 
 />
    <glyph glyph-name="endash" unicode="&#x2013;" horiz-adv-x="1024" 
d="M956 633l-14 -107h-852v64l14 104h852v-61z" />
    <glyph glyph-name="emdash" unicode="&#x2014;" horiz-adv-x="2048" 
d="M1925 633l-12 -107h-1770v64l15 104h1767v-61z" />
    <glyph glyph-name="quoteleft" unicode="&#x2018;" horiz-adv-x="538" 
d="M528 1536l25 -76q-75 -34 -127.5 -90t-52.5 -119v-30l106 -11l-16 -254q-44 -10 -107 -10q-96 0 -153 35q-31 60 -31 137q0 47 9.5 93.5t34.5 99.5t63.5 96.5t102.5 78.5t146 50z" />
    <glyph glyph-name="quoteright" unicode="&#x2019;" horiz-adv-x="538" 
d="M348 1522q98 0 154 -37q28 -58 28 -135q0 -46 -8.5 -92t-33 -99t-63 -96.5t-103.5 -80t-148 -52.5l-24 78q75 34 127.5 89.5t52.5 119.5v28l-107 12l17 254q64 11 108 11z" />
    <glyph glyph-name="quotesinglbase" unicode="&#x201a;" horiz-adv-x="540" 
d="M207 270q101 0 153 -34q29 -60 29 -138q0 -45 -8.5 -91t-33 -99t-63 -96t-103.5 -79t-148 -52l-25 75q75 34 127.5 90t52.5 119v31l-106 10l16 254q44 10 109 10z" />
    <glyph glyph-name="quotedblleft" unicode="&#x201c;" horiz-adv-x="956" 
d="M944 1536l25 -76q-75 -34 -128 -90t-53 -119v-30l107 -11l-16 -254q-44 -10 -107 -10q-97 0 -154 35q-30 58 -30 137q0 47 9.5 93.5t34.5 99.5t63.5 96.5t102.5 78.5t146 50zM526 1536l25 -76q-75 -34 -127.5 -90t-52.5 -119v-30l106 -11l-16 -254q-44 -10 -107 -10
q-96 0 -153 35q-31 60 -31 137q0 47 9.5 93.5t34.5 99.5t63.5 96.5t102.5 78.5t146 50z" />
    <glyph glyph-name="quotedblright" unicode="&#x201d;" horiz-adv-x="956" 
d="M764 1522q98 0 154 -37q28 -58 28 -135q0 -46 -8.5 -92t-33 -99t-63 -96.5t-103.5 -80t-148 -52.5l-25 78q75 34 127.5 89.5t52.5 119.5v28l-106 12l16 254q64 11 109 11zM346 1522q98 0 154 -37q28 -58 28 -135q0 -46 -8.5 -92t-33 -99t-63 -96.5t-103.5 -80t-148 -52.5
l-25 78q76 34 128.5 89.5t52.5 119.5v28l-107 12l17 254q64 11 108 11z" />
    <glyph glyph-name="quotedblbase" unicode="&#x201e;" horiz-adv-x="958" 
d="M625 270q101 0 153 -34q29 -60 29 -138q0 -45 -8.5 -91t-33 -99t-63 -96t-103.5 -79t-148 -52l-25 75q75 34 127.5 90t52.5 119v31l-106 10l16 254q44 10 109 10zM207 270q101 0 153 -34q29 -60 29 -138q0 -45 -8.5 -91t-33 -99t-63 -96t-103.5 -79t-148 -52l-25 75
q75 34 127.5 90t52.5 119v31l-106 10l16 254q44 10 109 10z" />
    <glyph glyph-name="dagger" unicode="&#x2020;" horiz-adv-x="978" 
d="M631 1516l69 -11q5 -35 5 -39q0 -108 -93 -299h-96q-41 141 -41 226q0 59 21 123h135zM223 1196q122 0 260 -61l-10 -95q-161 -61 -266 -61q-44 0 -92 10v62l20 139q41 6 88 6zM905 1196q54 0 90 -8v-64l-18 -137q-54 -8 -90 -8q-106 0 -260 61l10 95q166 61 268 61z
M502 1010h96q39 -116 39 -209q0 -44 -5.5 -92t-19 -110t-22 -97.5t-30.5 -116t-28 -104.5h-100q-24 197 -24 323q0 106 18 199.5t76 206.5z" />
    <glyph glyph-name="daggerdbl" unicode="&#x2021;" horiz-adv-x="1030" 
d="M649 1516l70 -11q4 -28 4 -39q0 -110 -92 -299h-96q-41 141 -41 226q0 62 20 123h135zM242 1196q122 0 260 -61l-10 -95q-161 -61 -267 -61q-44 0 -92 10v62l21 139q40 6 88 6zM924 1196q54 0 90 -8v-64l-19 -137q-54 -8 -90 -8q-106 0 -260 61l10 95q166 61 269 61z
M518 1010h98q39 -108 39 -199q0 -146 -90 -305h-96q-39 108 -39 194q0 147 88 310zM180 537q109 0 260 -62l-10 -94q-164 -62 -266 -62q-49 0 -92 9v63l20 137q61 9 88 9zM862 537q40 0 90 -11v-61l-18 -139q-47 -7 -90 -7q-115 0 -260 62l10 94q169 62 268 62zM455 348h96
q41 -141 41 -225q0 -59 -21 -123h-135l-69 10q-5 35 -5 39q0 108 93 299z" />
    <glyph glyph-name="bullet" unicode="&#x2022;" horiz-adv-x="868" 
d="M444 922q151 0 234.5 -83.5t83.5 -230.5q0 -146 -83.5 -228.5t-234.5 -82.5t-233 82.5t-82 228.5q0 148 82 231t233 83z" />
    <glyph glyph-name="ellipsis" unicode="&#x2026;" horiz-adv-x="1611" 
d="M1331 332q74 0 117 -15q22 -42 22 -104q0 -106 -69 -213h-238l-14 299q86 33 182 33zM262 332q74 0 117 -15q22 -42 22 -104q0 -106 -69 -213h-238l-14 299q86 33 182 33zM797 332q73 0 116 -15q23 -44 23 -104q0 -104 -70 -213h-237l-15 299q86 33 183 33z" />
    <glyph glyph-name="perthousand" unicode="&#x2030;" horiz-adv-x="2480" 
d="M2120 729q144 0 216 -82.5t72 -226.5q0 -58 -11 -116.5t-39 -119t-70 -106.5t-109 -75.5t-151 -29.5q-143 0 -216 82.5t-73 225.5q0 60 11.5 119t40 119.5t70.5 106t109 74.5t150 29zM2105 629q-32 0 -71 -17q-41 -50 -63.5 -164.5t-22.5 -214.5q0 -84 22 -121.5
t70 -37.5q34 0 71 16q41 48 64 164t23 217q0 83 -23 120.5t-70 37.5zM1370 1235l10 -53q-166 -192 -337.5 -426t-277 -393.5t-261.5 -405.5l-121 47l-21 55q169 230 272.5 369.5t266.5 348t254 308.5l-18 19q-70 -67 -137.5 -93t-149.5 -26q-68 0 -125 14q6 -41 6 -81
q0 -56 -10 -110.5t-36 -111.5t-64.5 -99.5t-101 -69.5t-140.5 -27q-142 0 -213.5 82.5t-71.5 226.5q-2 161 79 287.5t218 156.5l53 -63q-64 -49 -102.5 -164.5t-38.5 -255.5q0 -92 21.5 -131t72.5 -39q35 0 70 14q40 48 63 163.5t23 223.5q0 49 -6 89q-46 39 -74 86
q42 62 96 84h52q39 -52 61 -109q85 -45 199 -45q91 0 181.5 38t207.5 134zM1341 729q144 0 216.5 -83t72.5 -226q0 -58 -11.5 -116.5t-39.5 -119t-70 -106.5t-109 -75.5t-151 -29.5q-143 0 -215.5 82.5t-72.5 225.5q0 60 11.5 119t39.5 119.5t70 106t109 74.5t150 29z
M1333 90q41 48 63.5 163.5t22.5 217.5q0 83 -22.5 120.5t-69.5 37.5q-33 0 -72 -17q-41 -50 -63.5 -164.5t-22.5 -214.5q0 -84 22.5 -121.5t70.5 -37.5q34 0 71 16z" />
    <glyph glyph-name="minute" unicode="&#x2032;" horiz-adv-x="491" 
d="M524 1458l-223 -510h-178l108 535q140 33 258 33z" />
    <glyph glyph-name="second" unicode="&#x2033;" horiz-adv-x="894" 
d="M524 1458l-223 -510h-178l108 535q140 33 258 33zM967 1458l-224 -510h-178l109 535q140 33 258 33z" />
    <glyph glyph-name="uni2034" unicode="&#x2034;" horiz-adv-x="1376" 
d="M524 1458l-223 -510h-178l108 535q140 33 258 33zM967 1458l-224 -510h-178l109 535q140 33 258 33zM1409 1458l-223 -510h-178l108 535q140 33 258 33z" />
    <glyph glyph-name="guilsinglleft" unicode="&#x2039;" horiz-adv-x="645" 
d="M557 885l-178 -322l108 -334l-125 -77l-266 364v82l355 367z" />
    <glyph glyph-name="guilsinglright" unicode="&#x203a;" horiz-adv-x="645" 
d="M559 600v-82l-356 -366l-107 79l180 320l-108 334l125 80z" />
    <glyph glyph-name="fraction" unicode="&#x2044;" horiz-adv-x="497" 
d="M780 1366l15 -39q-341 -472 -478 -672q-73 -108 -225 -350.5t-227 -353.5l-111 43l-14 39q136 188 481 678q78 112 227.5 353t219.5 345z" />
    <glyph glyph-name="uni2070" unicode="&#x2070;" horiz-adv-x="765" 
d="M498 1501q144 0 215 -79.5t71 -219.5q0 -59 -11 -115t-38.5 -112.5t-68.5 -99t-107 -69t-149 -26.5q-143 0 -214 78t-71 221q0 59 11.5 115.5t39 113t68.5 98.5t106.5 68.5t147.5 26.5zM485 1413q-28 0 -51 -10q-36 -43 -60 -173.5t-24 -240.5q0 -65 16 -94t58 -29
q24 0 53 11q36 40 58 168.5t22 246.5q0 63 -15.5 92t-56.5 29z" />
    <glyph glyph-name="uni2074" unicode="&#x2074;" horiz-adv-x="655" 
d="M680 918h-84l-10 -121h-205l10 121h-282l-31 79q77 168 155 385l-22 101l160 37q61 -36 61 -109q0 -61 -43.5 -136t-163.5 -239l6 -12q78 10 127 10h45q11 98 23 168q77 47 156 58l51 -21q-16 -114 -27 -205h80l2 -47z" />
    <glyph glyph-name="uni2075" unicode="&#x2075;" horiz-adv-x="606" 
d="M334 1214q287 0 287 -202q0 -105 -73.5 -168.5t-209.5 -63.5q-145 0 -238 56l9 73q55 -8 110 -8q96 0 134 25t38 71q0 55 -50 74.5t-198 32.5h-2l49 379l97 16q81 -29 149 -29q73 0 164 31l23 -71q-71 -123 -207 -123q-80 0 -158 32l-22 -129q58 4 98 4z" />
    <glyph glyph-name="uni2076" unicode="&#x2076;" horiz-adv-x="735" 
d="M569 1501q80 0 142 -20l-2 -72q-89 -4 -153.5 -25.5t-103.5 -55.5t-62 -86t-31 -107.5t-7 -128.5q0 -72 15 -106t57 -34q18 0 51 11q49 49 49 157q0 49 -14.5 66.5t-42.5 17.5q-23 0 -51 -8l-13 78q64 72 164 72q86 0 134.5 -54t48.5 -133q0 -38 -10.5 -77t-36.5 -78.5
t-64 -69.5t-98.5 -49t-134.5 -19q-281 0 -281 287q0 70 15 132t49 118t84.5 96.5t126 64t169.5 23.5z" />
    <glyph glyph-name="uni2077" unicode="&#x2077;" horiz-adv-x="622" 
d="M723 1464v-26q-3 -5 -36.5 -54.5t-46.5 -69t-45 -68t-50 -79.5t-42.5 -73.5t-42.5 -79.5t-32 -70l6 -139l-143 -37q-52 13 -76.5 49t-24.5 80q0 76 74.5 168t243.5 235h-254l-23 -86h-98q-8 36 -8 76q0 50 9.5 113.5t21.5 97.5q106 0 240 -17t204 -44l43 55q37 -5 80 -31
z" />
    <glyph glyph-name="uni2078" unicode="&#x2078;" horiz-adv-x="714" 
d="M567 1169v-20q76 -31 110 -64t34 -94q0 -30 -8 -57t-29.5 -56t-56 -50t-93 -34.5t-133.5 -13.5q-282 0 -282 170q0 69 42 115.5t119 58.5v23q-104 55 -104 158q0 89 72 142.5t231 53.5q264 0 264 -162q0 -76 -49.5 -117.5t-116.5 -52.5zM418 1401q-29 -26 -29 -70
q0 -31 16 -53.5t52 -44.5l30 -16q52 46 52 120q0 76 -66 76q-34 0 -55 -12zM453 879q32 32 32 82q0 35 -21.5 58.5t-76.5 51.5l-33 16q-51 -48 -51 -129q0 -92 78 -92q39 0 72 13z" />
    <glyph glyph-name="uni2079" unicode="&#x2079;" horiz-adv-x="733" 
d="M471 1501q283 0 283 -287q0 -88 -25 -164t-76 -137.5t-139 -97t-205 -35.5q-71 0 -141 19v73q110 4 182.5 31t110.5 79.5t52.5 118.5t12.5 161q0 71 -15 105t-58 34q-20 0 -50 -10q-49 -46 -49 -158q0 -48 14.5 -66t41.5 -18q10 0 55 10l8 -65q-58 -72 -162 -72
q-87 0 -134.5 53.5t-47.5 132.5q0 48 18 96.5t55.5 94t107 74t161.5 28.5z" />
    <glyph glyph-name="uni2080" unicode="&#x2080;" horiz-adv-x="765" 
d="M389 551q145 0 216 -79.5t71 -219.5q0 -59 -11 -115t-38.5 -112.5t-69 -99t-107.5 -69t-149 -26.5q-143 0 -214 78t-71 221q0 59 11.5 115.5t39 113t68.5 98.5t106.5 68.5t147.5 26.5zM377 463q-28 0 -51 -10q-36 -43 -60 -173.5t-24 -240.5q0 -65 16 -94t57 -29
q27 0 54 10q36 40 58 169t22 247q0 63 -15.5 92t-56.5 29z" />
    <glyph glyph-name="uni2081" unicode="&#x2081;" horiz-adv-x="483" 
d="M397 -76v-30l-4 -37h-407v67q60 26 108 31l39 412q-59 -9 -104 -9v39l8 62q54 4 118.5 30.5t102.5 71.5l98 -18l-57 -606z" />
    <glyph glyph-name="uni2082" unicode="&#x2082;" horiz-adv-x="632" 
d="M428 74h102q7 -47 7 -90q0 -103 -35 -154h-82q-169 3 -328 53l-74 -53q-35 9 -67 41v31q21 16 62 48.5t59.5 47t52 42t49 41.5t40.5 38t36.5 39t27.5 36t22.5 38t11.5 37t5 40q0 48 -24 71t-64 23q-39 0 -62.5 -21.5t-23.5 -59.5q0 -24 11 -66l-93 -27q-57 60 -57 127
q0 83 75.5 139t203.5 56q119 0 191.5 -52.5t72.5 -144.5q0 -87 -80.5 -174.5t-251.5 -187.5h193z" />
    <glyph glyph-name="uni2083" unicode="&#x2083;" horiz-adv-x="638" 
d="M377 211v-23q149 -19 149 -143q0 -96 -80.5 -155.5t-228.5 -59.5q-131 0 -233 55l8 76q57 -8 135 -8q94 0 132 23t38 75q0 58 -53 82q-49 -17 -105 -27l-26 19q-4 28 -4 49t4 41q25 10 71 10q7 0 21 -1t20 -1q92 42 92 113q0 40 -24 58t-60 18q-90 0 -90 -90v-17l-96 -2
q-31 50 -31 86q0 65 70.5 113.5t200.5 48.5q115 0 185.5 -44t70.5 -132q0 -41 -15.5 -71.5t-43 -48.5t-51.5 -27.5t-56 -16.5z" />
    <glyph glyph-name="uni2084" unicode="&#x2084;" horiz-adv-x="655" 
d="M573 -23h-84l-10 -120h-205l11 120h-283l-31 80q82 177 156 385l-23 101l160 37q62 -37 62 -109q0 -61 -43.5 -136t-163.5 -239l6 -12q78 10 127 10h45q12 113 22 168q74 46 156 57l51 -20q-11 -75 -26 -205h80l2 -47z" />
    <glyph glyph-name="uni2085" unicode="&#x2085;" horiz-adv-x="606" 
d="M225 264q287 0 287 -203q0 -104 -73.5 -167.5t-209.5 -63.5q-146 0 -237 55l8 74q55 -8 111 -8q96 0 134 25t38 71q0 55 -50 74.5t-198 32.5h-2l49 378l96 17q81 -29 150 -29q73 0 164 31l22 -72q-71 -123 -207 -123q-76 0 -157 33l-23 -129q58 4 98 4z" />
    <glyph glyph-name="uni2086" unicode="&#x2086;" horiz-adv-x="735" 
d="M461 551q76 0 141 -21l-2 -71q-110 -4 -183 -35t-110 -88t-50.5 -122.5t-12.5 -158.5q0 -72 14.5 -105.5t56.5 -33.5q22 0 52 10q23 23 36 66.5t13 91.5q0 49 -15 66.5t-43 17.5q-23 0 -51 -8l-12 78q63 71 164 71q86 0 134 -53.5t48 -132.5q0 -38 -10.5 -77t-36.5 -78.5
t-64 -69.5t-98.5 -49t-134.5 -19q-281 0 -281 287q0 69 15 131.5t49 118.5t85 96.5t126.5 64t169.5 23.5z" />
    <glyph glyph-name="uni2087" unicode="&#x2087;" horiz-adv-x="622" 
d="M614 514v-27q-6 -9 -37 -54.5t-46 -68.5t-45 -68.5t-49.5 -78t-43.5 -74t-42 -79t-32 -70.5l7 -139l-144 -37q-52 13 -76 48.5t-24 80.5q0 76 74 168t243 235h-254l-22 -86h-98q-9 40 -9 76q0 50 9.5 113.5t21.5 97.5q105 0 240 -17.5t205 -44.5l43 56q35 -5 79 -31z" />
    <glyph glyph-name="uni2088" unicode="&#x2088;" horiz-adv-x="714" 
d="M459 219v-20q76 -31 109.5 -64t33.5 -94q0 -30 -7.5 -57t-29.5 -56t-56 -50t-92.5 -34.5t-133.5 -13.5q-137 0 -210 42.5t-73 127.5q0 69 42.5 115.5t119.5 58.5v23q-105 56 -105 157q0 89 72 143t231 54q265 0 265 -162q0 -76 -49.5 -117.5t-116.5 -52.5zM309 451
q-28 -25 -28 -70q0 -32 15.5 -54t51.5 -44l31 -17q51 45 51 121q0 39 -15 57.5t-50 18.5t-56 -12zM344 -72q33 33 33 82q0 35 -21.5 59t-76.5 52l-33 16q-51 -48 -51 -129q0 -47 18 -69.5t59 -22.5q42 0 72 12z" />
    <glyph glyph-name="uni2089" unicode="&#x2089;" horiz-adv-x="733" 
d="M362 551q283 0 283 -287q0 -88 -25 -164t-75.5 -137.5t-138.5 -97t-205 -35.5q-75 0 -142 18v74q110 4 182.5 30.5t111 79.5t53 118.5t12.5 160.5q0 71 -15.5 105.5t-58.5 34.5q-16 0 -49 -11q-49 -46 -49 -157q0 -48 14 -66t41 -18q10 0 55 10l9 -66q-57 -71 -162 -71
q-87 0 -135 53.5t-48 132.5q0 48 18 96.5t55.5 94t107 74t161.5 28.5z" />
    <glyph glyph-name="Euro" unicode="&#x20ac;" horiz-adv-x="1165" 
d="M672 1081q-89 -80 -140 -262h273v-41l-10 -84h-289q-11 -68 -14 -159h282v-39l-10 -86h-266q15 -126 74 -183t171 -57q154 0 310 98l20 -104q-81 -86 -190.5 -137.5t-233.5 -51.5q-206 0 -323 116t-138 319h-129v41l11 84h114q3 73 19 159h-113v41l10 84h133
q30 93 76 170.5t109 139.5t147.5 96.5t182.5 34.5q94 0 176 -37l2 16q84 23 157 23l58 -48q4 -28 4 -55q0 -135 -43 -301h-164l-25 250q-52 10 -90 10q-78 0 -151 -37z" />
    <glyph glyph-name="uni20B9" unicode="&#x20b9;" horiz-adv-x="917" 
d="M940 1229v-41l-10 -84h-262l-6 -25q102 -37 124 -135h121v-39l-10 -86h-104q-6 -60 -27 -110.5t-62 -96.5t-111 -76t-165 -40l-10 -43q28 -21 56 -47t46.5 -45.5t46.5 -53t39 -47.5t40.5 -53t35.5 -47l106 4l7 -117q-110 -70 -248 -70q-79 0 -135.5 26.5t-106.5 86.5
q-83 85 -231 399l18 99h254q100 80 125 231h-385v41l10 84h379q-4 54 -23.5 90.5t-58.5 69.5h-274v41l10 84h811z" />
    <glyph glyph-name="uni20BA" unicode="&#x20ba;" horiz-adv-x="1071" 
d="M776 508l166 29q74 -114 74 -246q0 -167 -119.5 -270t-345.5 -103q-108 0 -218 24t-192 58l52 467l-132 -47l-14 29l10 108l150 53l18 164l-129 -47l-14 29l12 108l146 54l32 299q116 31 263 34l30 -41l-20 -184l284 102l15 -30l-13 -107l-301 -108l-18 -162l283 100
l14 -28l-10 -107l-301 -108l-56 -519q23 -2 64 -2q293 0 293 287q0 77 -23 164z" />
    <glyph glyph-name="uni20BD" unicode="&#x20bd;" horiz-adv-x="1153" 
d="M526 561l-18 -158h403v-41l-10 -83h-405l-17 -148l158 -14v-51l-8 -66h-594v109q61 27 145 41l15 129h-166v38l10 86h168l18 158h-162v41l11 84h166l45 410l-140 20v53l9 60q202 18 518 18q246 0 354.5 -70t108.5 -233q0 -57 -11.5 -107.5t-43.5 -102.5t-82.5 -89
t-135 -60.5t-194.5 -23.5h-142zM539 686h73q87 0 152 35q67 105 67 225q0 84 -40 123t-129 39h-76z" />
    <glyph glyph-name="afii61289" unicode="&#x2113;" horiz-adv-x="794" 
d="M377 152q152 -3 307 57l14 -103q-72 -60 -165.5 -94.5t-192.5 -34.5q-236 0 -236 213l2 54q-60 -21 -108 -31l-8 117q50 15 129 47q32 319 78 633q13 95 32 170.5t51.5 145t76 116t106.5 73.5t143 27q115 0 166 -56.5t51 -180.5q0 -90 -24 -208.5t-72 -254t-136 -269.5
t-200 -225q-12 -143 -14 -196zM555 1405q-23 -49 -39 -121t-47 -295q-36 -261 -59 -465q85 101 147.5 253t89.5 290t27 250q0 54 -12 79t-48 25q-30 0 -59 -16z" />
    <glyph glyph-name="afii61352" unicode="&#x2116;" horiz-adv-x="2097" 
d="M1456 1257l-231 -73q-19 -49 -36 -115.5t-30.5 -166.5t-22.5 -164.5t-20 -200.5t-14 -178t-13 -193t-10 -156q-141 -32 -248 -35l-49 13q-66 172 -133 328.5t-130 298t-89 202.5h-24q7 -306 -11 -469q-3 -64 -11 -115.5t-27 -101.5t-48.5 -83.5t-76.5 -54t-109 -20.5
q-112 0 -168 68l25 133h200q44 92 74 335t35 507l-135 215l45 76q126 34 250 34q131 -209 268.5 -498.5t232.5 -537.5h25q-4 204 -4 311q0 63 1 112t5 117t11.5 121t21 115t32 108t46 91.5t62.5 74.5t82.5 46.5t104.5 17.5q55 0 101 -24zM1753 1225q156 0 234.5 -80.5
t78.5 -235.5q0 -79 -21.5 -150t-66.5 -132t-125 -97t-186 -36q-155 0 -234 80t-79 235q0 64 13 122.5t43.5 112.5t76 94t114 63.5t152.5 23.5zM1755 625q35 49 53.5 137t18.5 182q0 83 -18.5 125.5t-65.5 42.5q-37 0 -78 -18q-35 -44 -54.5 -132t-19.5 -182q0 -86 19 -130
t67 -44q32 0 78 19zM1647 293q59 0 102 -14q20 -39 20 -97q0 -83 -61 -182h-219l-14 262q91 31 172 31z" />
    <glyph glyph-name="uni2117" unicode="&#x2117;" horiz-adv-x="1587" 
d="M850 1389q314 0 497 -172t183 -484q0 -127 -31.5 -241t-95.5 -209t-154 -164t-213 -107.5t-268 -38.5q-316 0 -494 174t-180 482q0 160 50 298t144 241t238.5 162t323.5 59zM776 102q139 0 250 49.5t181.5 135.5t107.5 199.5t37 244.5q0 255 -136.5 392t-373.5 137
q-139 0 -249.5 -50t-179 -136.5t-104 -198.5t-35.5 -242q0 -256 133.5 -393.5t368.5 -137.5zM860 1077q96 0 164.5 -19t106 -53.5t54.5 -76t17 -92.5q0 -127 -74.5 -204t-201.5 -77q-28 0 -90 8v84q52 2 94 17q47 60 47 192q0 67 -22 97t-89 30h-39l-61 -608l108 -10v-37
l-4 -45h-413v75q33 20 106 31l58 580l-101 12v35l6 45q184 16 334 16z" />
    <glyph glyph-name="trademark" unicode="&#x2122;" horiz-adv-x="1787" 
d="M557 1270l-63 -592l81 -10v-33l-4 -49h-385v82q52 18 99 24l61 584h-96l-49 -160l-105 8q-2 20 -2 62q0 96 33 194l45 6l287 -22h196q67 18 103 18l39 -18q2 -16 2 -49q0 -85 -29 -195h-106l-13 144zM1829 1364v-78q-44 -16 -88 -22q-11 -255 -41 -588l76 -10l-2 -33
l-5 -47h-360v80q42 18 86 24q2 16 59 563h-22q-8 -20 -217 -620q-92 -23 -146 -27l-43 25q-87 575 -92 622h-22q-29 -281 -66 -577l90 -10v-33l-6 -47h-287v80q34 14 99 26q40 346 84 582l-84 12v33l4 45q123 8 362 8q49 -231 76 -534h23q89 317 178 526h344z" />
    <glyph glyph-name="Omega" unicode="&#x2126;" horiz-adv-x="1439" 
d="M1395 272q0 -118 -41 -272h-2h-590l39 375q62 34 108 86.5t71.5 106t41.5 118.5t20.5 115t4.5 104q0 161 -54.5 245.5t-187.5 84.5q-90 0 -174 -41q-74 -50 -126 -185.5t-52 -287.5q0 -260 159 -346l-39 -375h-575q-15 198 29 362l163 13l21 -160l242 -25l14 127
q-70 23 -129 57.5t-111.5 86.5t-82.5 127.5t-31 167.5q-1 89 22.5 175.5t78 170t134.5 147t203 102t274 38.5q272 0 416.5 -126t144.5 -356q0 -72 -14.5 -142t-49 -141t-85.5 -130.5t-129 -109t-176 -77.5l-10 -119l256 27l53 160l160 -13q4 -62 4 -90z" />
    <glyph glyph-name="estimated" unicode="&#x212e;" horiz-adv-x="1296" 
d="M283 504v-281q65 -92 169.5 -139t225.5 -47q139 0 251.5 55.5t190.5 138.5l31 -45q-84 -100 -206.5 -156.5t-268.5 -56.5q-169 0 -308 73.5t-217.5 199t-78.5 276.5q0 113 46 215.5t123.5 175.5t184.5 116.5t225 43.5q157 0 289.5 -73t209.5 -199.5t77 -276.5v-20h-944z
M651 1010q-109 0 -206 -48t-162 -137v-264h733v264q-66 91 -161.5 138t-203.5 47z" />
    <glyph glyph-name="uni2150" unicode="&#x2150;" horiz-adv-x="1740" 
d="M1323 1366l14 -39q-323 -446 -477 -672q-73 -108 -225 -350.5t-227 -353.5l-111 43l-14 39q136 188 481 678q77 112 226.5 353t219.5 345zM539 610l-2 -35l-5 -38h-473v73q77 30 144 33l57 531q-53 -9 -139 -13v43l8 64q64 3 138 34.5t120 86.5l100 -19l-79 -745z
M1759 807l8 -29q-289 -357 -372 -600l8 -182l-146 -39q-106 42 -106 147q0 91 95.5 214t309.5 327h-325l-27 -106h-102q-10 42 -10 92q0 123 36 215q124 0 273 -18t231 -48l45 60q49 -10 82 -33z" />
    <glyph glyph-name="uni2151" unicode="&#x2151;" horiz-adv-x="1761" 
d="M1323 1366l14 -39q-323 -446 -477 -672q-73 -108 -225 -350.5t-227 -353.5l-111 43l-14 39q136 188 481 678q77 112 226.5 353t219.5 345zM539 610l-2 -35l-5 -38h-473v73q77 30 144 33l57 531q-53 -9 -139 -13v43l8 64q64 3 138 34.5t120 86.5l100 -19l-79 -745z
M1393 846q87 0 148 -25t95 -72.5t49 -106.5t15 -136q0 -81 -17 -156t-56 -144.5t-96.5 -120.5t-145.5 -81.5t-197 -30.5q-74 0 -148 19l-2 80q101 0 177 23.5t125 64.5t79 104t42 134t12 161q0 44 -3.5 75t-14 60t-32 43.5t-53.5 14.5q-28 0 -65 -15q-32 -32 -50 -85.5
t-18 -112.5q0 -63 21 -88t61 -25q20 0 74 14l12 -78q-72 -83 -186 -83q-99 0 -154 60.5t-55 162.5q0 63 22.5 122t66.5 109.5t120 81.5t174 31z" />
    <glyph glyph-name="uni2152" unicode="&#x2152;" horiz-adv-x="2412" 
d="M1323 1366l14 -39q-323 -446 -477 -672q-73 -108 -225 -350.5t-227 -353.5l-111 43l-14 39q136 188 481 678q77 112 226.5 353t219.5 345zM539 610l-2 -35l-5 -38h-473v73q77 30 144 33l57 531q-53 -9 -139 -13v43l8 64q64 3 138 34.5t120 86.5l100 -19l-79 -745z
M2038 846q157 0 234 -95t77 -259q0 -69 -13 -137.5t-44 -138.5t-76.5 -123t-118.5 -86.5t-162 -33.5q-157 0 -234 94.5t-77 260.5q0 69 13 138t44 138.5t76.5 122.5t118 86t162.5 33zM2028 752q-32 0 -70 -15q-48 -57 -77.5 -212t-29.5 -289q0 -90 22.5 -129t78.5 -39
q39 0 67 14q47 53 76 209.5t29 294.5q0 87 -21 126.5t-75 39.5zM1518 74l-2 -35l-5 -39h-473v74q74 29 144 32l57 531q-45 -8 -139 -12v43l8 63q64 3 138 34.5t120 86.5l100 -18l-80 -746z" />
    <glyph glyph-name="onethird" unicode="&#x2153;" horiz-adv-x="1722" 
d="M1323 1366l14 -39q-323 -446 -477 -672q-73 -108 -225 -350.5t-227 -353.5l-111 43l-14 39q136 188 481 678q77 112 226.5 353t219.5 345zM539 610l-2 -35l-5 -38h-473v73q77 30 144 33l57 531q-53 -9 -139 -13v43l8 64q64 3 138 34.5t120 86.5l100 -19l-79 -745z
M1456 434v-22q91 -18 133.5 -59t42.5 -117q0 -118 -90 -190.5t-258 -72.5q-149 0 -262 58l10 78q74 -9 129 -9q132 0 186 36.5t54 107.5q0 39 -17.5 63.5t-62.5 42.5q-50 -21 -113 -33l-28 21q-6 24 -6 55q0 19 4 47q37 13 90 13q8 0 23 -1t20 -1q116 64 116 157
q0 92 -108 92q-66 0 -95.5 -33.5t-29.5 -88.5q0 -6 1 -14t1 -9l-96 -2q-33 54 -33 96q0 80 78.5 138.5t216.5 58.5q133 0 213 -58t80 -157q0 -147 -199 -197z" />
    <glyph glyph-name="twothirds" unicode="&#x2154;" horiz-adv-x="1880" 
d="M1481 1366l14 -39q-323 -446 -477 -672q-73 -108 -225.5 -350.5t-227.5 -353.5l-110 43l-15 39q175 242 482 678q77 112 226.5 353t219.5 345zM571 782l105 -2q8 -62 8 -92q0 -51 -11.5 -99t-29.5 -73h-84q-91 0 -196.5 16t-184.5 41l-78 -55q-33 8 -71 41v33
q65 50 101 79t90 74t84 75t66 71t54.5 74t31.5 71.5t13 75.5q0 123 -113 123q-51 0 -82.5 -28.5t-31.5 -82.5q0 -30 14 -77l-92 -29q-64 67 -64 141q0 98 84 164t222 66q132 0 213 -63.5t81 -172.5q0 -113 -96 -223t-295 -240h238zM1614 434v-22q91 -18 133.5 -59t42.5 -117
q0 -118 -90 -190.5t-258 -72.5q-149 0 -262 58l10 78q74 -9 129 -9q132 0 186 36.5t54 107.5q0 39 -17.5 63.5t-62.5 42.5q-50 -21 -113 -33l-29 21q-6 24 -6 55q0 19 4 47q37 13 90 13q9 0 23 -1t20 -1q117 65 117 157t-108 92q-66 0 -95.5 -33.5t-29.5 -88.5q0 -6 1 -14
t1 -9l-97 -2q-32 53 -32 96q0 80 78.5 138.5t216.5 58.5q133 0 212.5 -58t79.5 -157q0 -147 -198 -197z" />
    <glyph glyph-name="uni2155" unicode="&#x2155;" horiz-adv-x="1630" 
d="M1323 1366l14 -39q-323 -446 -477 -672q-73 -108 -225 -350.5t-227 -353.5l-111 43l-14 39q136 188 481 678q77 112 226.5 353t219.5 345zM539 610l-2 -35l-5 -38h-473v73q77 30 144 33l57 531q-53 -9 -139 -13v43l8 64q64 3 138 34.5t120 86.5l100 -19l-79 -745z
M1221 502q340 0 340 -234q0 -124 -89.5 -209.5t-246.5 -85.5q-151 0 -254 58l10 78q71 -9 119 -9q122 0 175.5 42.5t53.5 107.5q0 68 -64 94.5t-241 38.5l2 4l55 438l101 21q84 -35 172 -35q91 0 192 37l21 -76q-84 -133 -236 -133q-86 0 -176 39l-29 -180q54 4 95 4z" />
    <glyph glyph-name="uni2156" unicode="&#x2156;" horiz-adv-x="1787" 
d="M1481 1366l14 -39q-323 -446 -477 -672q-73 -108 -225.5 -350.5t-227.5 -353.5l-110 43l-15 39q175 242 482 678q77 112 226.5 353t219.5 345zM571 782l105 -2q8 -62 8 -92q0 -51 -11.5 -99t-29.5 -73h-84q-91 0 -196.5 16t-184.5 41l-78 -55q-33 8 -71 41v33
q65 50 101 79t90 74t84 75t66 71t54.5 74t31.5 71.5t13 75.5q0 123 -113 123q-51 0 -82.5 -28.5t-31.5 -82.5q0 -30 14 -77l-92 -29q-64 67 -64 141q0 98 84 164t222 66q132 0 213 -63.5t81 -172.5q0 -113 -96 -223t-295 -240h238zM1378 502q340 0 340 -234
q0 -124 -89.5 -209.5t-246.5 -85.5q-151 0 -254 58l11 78q71 -9 118 -9q122 0 176 42.5t54 107.5q0 68 -64 94.5t-241 38.5l2 4l55 438l100 21q84 -35 172 -35q92 0 193 37l20 -76q-84 -133 -235 -133q-86 0 -176 39l-29 -180q54 4 94 4z" />
    <glyph glyph-name="uni2157" unicode="&#x2157;" horiz-adv-x="1736" 
d="M1430 1366l14 -39q-323 -446 -477 -672q-73 -108 -225.5 -350.5t-227.5 -353.5l-111 43l-14 39q136 188 481 678q78 112 227.5 353t219.5 345zM498 977v-23q91 -18 133.5 -59t42.5 -117q0 -118 -90 -190t-258 -72q-152 0 -263 57l11 78q65 -8 129 -8q132 0 185.5 36
t53.5 107q0 39 -17.5 64t-62.5 43q-50 -22 -112 -33l-29 21q-6 24 -6 55q0 19 4 47q34 12 90 12q9 0 23 -1t20 -1q117 65 117 158q0 92 -109 92q-66 0 -95 -34t-29 -89q0 -6 1 -13.5t1 -8.5l-97 -2q-32 53 -32 96q0 80 78 138.5t216 58.5q133 0 213 -58t80 -157
q0 -148 -198 -197zM1327 502q340 0 340 -234q0 -124 -89.5 -209.5t-246.5 -85.5q-151 0 -254 58l10 78q71 -9 119 -9q122 0 176 42.5t54 107.5q0 68 -64.5 94.5t-241.5 38.5l3 4l55 438l100 21q84 -35 172 -35q92 0 193 37l20 -76q-84 -133 -235 -133q-86 0 -176 39
l-29 -180q54 4 94 4z" />
    <glyph glyph-name="uni2158" unicode="&#x2158;" horiz-adv-x="1806" 
d="M1499 1366l14 -39q-323 -446 -477 -672q-73 -108 -225 -350.5t-227 -353.5l-111 43l-14 39q136 188 481 678q77 112 226.5 353t219.5 345zM739 817v-49l-10 -76h-104l-15 -155h-204q4 53 12 155h-332l-33 86q125 248 197 434l-33 152l162 47q37 -25 58.5 -63t21.5 -78
q0 -62 -55.5 -157t-198.5 -294l6 -14q106 12 151 12h68q3 24 29 213q74 43 159 57l52 -24q-20 -143 -33 -246h102zM1397 502q340 0 340 -234q0 -124 -89.5 -209.5t-246.5 -85.5q-151 0 -254 58l10 78q71 -9 119 -9q122 0 175.5 42.5t53.5 107.5q0 68 -64 94.5t-241 38.5l2 4
l55 438l101 21q84 -35 172 -35q91 0 192 37l21 -76q-84 -133 -236 -133q-86 0 -176 39l-28 -180q54 4 94 4z" />
    <glyph glyph-name="uni2159" unicode="&#x2159;" horiz-adv-x="1699" 
d="M1323 1366l14 -39q-323 -446 -477 -672q-73 -108 -225 -350.5t-227 -353.5l-111 43l-14 39q136 188 481 678q77 112 226.5 353t219.5 345zM539 610l-2 -35l-5 -38h-473v73q77 30 144 33l57 531q-53 -9 -139 -13v43l8 64q64 3 138 34.5t120 86.5l100 -19l-79 -745z
M1450 846q75 0 145 -19l2 -79q-101 0 -177 -24t-124.5 -65.5t-78.5 -104t-42 -133.5t-12 -161q0 -91 21.5 -141.5t81.5 -50.5q33 0 65 14q70 67 70 199q0 112 -82 112q-27 0 -74 -14l-12 78q70 84 184 84q99 0 154 -61t55 -163q0 -63 -22.5 -122.5t-66.5 -110t-120 -81
t-174 -30.5q-166 0 -236.5 90t-70.5 250q0 81 17 156t56 144.5t97 120.5t146.5 81.5t197.5 30.5z" />
    <glyph glyph-name="uni215A" unicode="&#x215a;" horiz-adv-x="1765" 
d="M1389 1366l14 -39q-323 -446 -477 -672q-73 -108 -225.5 -350.5t-227.5 -353.5l-111 43l-14 39q136 188 481 678q78 112 227.5 353t219.5 345zM322 1044q340 0 340 -233q0 -124 -89.5 -209.5t-246.5 -85.5q-153 0 -254 57l10 78q63 -8 119 -8q122 0 175.5 42.5
t53.5 107.5q0 68 -64 94.5t-241 38.5l2 4l55 438l101 21q84 -35 172 -35q91 0 192 37l21 -76q-84 -133 -236 -133q-86 0 -176 39l-29 -181q54 4 95 4zM1516 846q75 0 145 -19l2 -79q-101 0 -177 -24t-124.5 -65.5t-78.5 -104t-42 -133.5t-12 -161q0 -92 21 -142t81 -50
q34 0 66 14q69 66 69 199q0 112 -82 112q-26 0 -73 -14l-13 78q70 84 185 84q99 0 154 -61t55 -163q0 -63 -22.5 -122.5t-66.5 -110t-120 -81t-174 -30.5q-86 0 -147.5 25t-95.5 72.5t-49.5 106.5t-15.5 136q0 81 17 156t56 144.5t97.5 120.5t147 81.5t197.5 30.5z" />
    </font>
</defs>
</svg>
