<?xml version="1.0" standalone="no"?>
<!DOCTYPE svg PUBLIC "-//W3C//DTD SVG 1.1//EN" "http://www.w3.org/Graphics/SVG/1.1/DTD/svg11.dtd" >
<svg xmlns="http://www.w3.org/2000/svg" xmlns:xlink="http://www.w3.org/1999/xlink" version="1.1">
<metadata>
Created by FontForge 20170731 at Wed Sep  8 13:44:15 2021
 By Aleksey,,,
Copyright (c) 2014 by Fontfabric LLC. All rights reserved.
</metadata>
<defs>
<font id="GloberxBold" horiz-adv-x="1380" >
  <font-face 
    font-family="Glober xBold"
    font-weight="800"
    font-stretch="normal"
    units-per-em="2048"
    panose-1="0 0 0 0 0 0 0 0 0 0"
    ascent="1536"
    descent="-512"
    x-height="1085"
    cap-height="1475"
    bbox="-365 -711 2202 2211.58"
    underline-thickness="102"
    underline-position="-307"
    unicode-range="U+0020-FB02"
  />
<missing-glyph horiz-adv-x="1265" 
d="M1178 0h-1102v1475h1102v-1475zM954 997q0 80 -27.5 139.5t-77 93.5t-110 50t-133.5 16q-76 0 -142.5 -15t-95.5 -29l-28 -15q-9 -93 63 -147q7 4 20.5 10.5t58.5 17t93 10.5q78 0 122 -30t44 -109q0 -45 -12.5 -78t-33 -54.5t-45 -40.5t-49.5 -43.5t-45.5 -55.5
t-33 -83.5t-12.5 -121.5q31 -20 82 -20q24 0 43.5 5t26.5 10l8 5q0 47 15.5 82.5t40.5 59.5t55.5 45.5t61 46.5t55.5 56t40.5 81t15.5 114zM694 367q-36 14 -104 14q-32 0 -58 -3.5t-36 -7.5l-9 -3v-189q31 -12 103 -12q30 0 56 3t37 6l11 3v189z" />
    <glyph glyph-name="fi" unicode="fi" horiz-adv-x="1226" 
d="M186 1200q0 336 428 336q133 0 255 -19t177 -38l56 -19q-6 -119 -84 -211q-18 5 -49.5 12.5t-127.5 20t-190 12.5q-77 0 -113 -25t-36 -81v-103h452q45 0 84.5 -4t56.5 -8l17 -4v-1053q-56 -16 -158 -16q-47 0 -86.5 4t-55.5 8l-15 4v836h-295v-836q-56 -16 -158 -16
q-46 0 -85.5 4t-56.5 8l-16 4v836h-131q-12 47 -12 119q0 31 3 59.5t6 41.5l3 13h131v115z" />
    <glyph glyph-name="fl" unicode="fl" horiz-adv-x="1228" 
d="M186 1200q0 336 428 336q114 0 238.5 -19t191.5 -38l68 -19v-1444q-56 -16 -158 -16q-47 0 -86.5 4t-55.5 8l-15 4v1272q-129 6 -146 6q-77 0 -113 -25t-36 -81v-103h149q13 -57 13 -116q0 -60 -13 -117h-149v-836q-56 -16 -158 -16q-46 0 -85.5 4t-56.5 8l-16 4v836
h-131q-10 58 -10 115q0 74 10 118h131v115z" />
    <glyph glyph-name=".notdef" horiz-adv-x="1265" 
d="M1178 0h-1102v1475h1102v-1475zM954 997q0 80 -27.5 139.5t-77 93.5t-110 50t-133.5 16q-76 0 -142.5 -15t-95.5 -29l-28 -15q-9 -93 63 -147q7 4 20.5 10.5t58.5 17t93 10.5q78 0 122 -30t44 -109q0 -45 -12.5 -78t-33 -54.5t-45 -40.5t-49.5 -43.5t-45.5 -55.5
t-33 -83.5t-12.5 -121.5q31 -20 82 -20q24 0 43.5 5t26.5 10l8 5q0 47 15.5 82.5t40.5 59.5t55.5 45.5t61 46.5t55.5 56t40.5 81t15.5 114zM694 367q-36 14 -104 14q-32 0 -58 -3.5t-36 -7.5l-9 -3v-189q31 -12 103 -12q30 0 56 3t37 6l11 3v189z" />
    <glyph glyph-name=".null" horiz-adv-x="0" 
 />
    <glyph glyph-name="nonmarkingreturn" horiz-adv-x="682" 
 />
    <glyph glyph-name="space" unicode=" " horiz-adv-x="403" 
 />
    <glyph glyph-name="exclam" unicode="!" horiz-adv-x="600" 
d="M172 446l-43 1012q59 17 170 17q47 0 90 -4.5t63 -8.5l19 -4l-43 -1012q-47 -18 -127 -18q-36 0 -68 4.5t-47 9.5zM459 309v-293q-58 -16 -158 -16q-47 0 -86.5 4t-55.5 8l-16 4v293q49 17 158 17q44 0 83.5 -4t57.5 -8z" />
    <glyph glyph-name="quotedbl" unicode="&#x22;" horiz-adv-x="806" 
d="M125 1010l-47 448q47 17 147 17q42 0 79.5 -4.5t53.5 -8.5l17 -4l-47 -448q-35 -15 -103 -15q-29 0 -54 3.5t-35 7.5zM479 1010l-47 448q50 17 150 17q42 0 78.5 -4.5t52.5 -8.5l16 -4l-47 -448q-34 -15 -100 -15q-30 0 -56 3.5t-36 7.5z" />
    <glyph glyph-name="numbersign" unicode="#" 
d="M975 1257q59 19 131 19q66 0 125 -19l-62 -217h142q16 -56 16 -110q0 -67 -16 -129h-209l-96 -344h135q16 -45 16 -121q0 -33 -4 -63t-8 -44l-4 -14h-203l-55 -197q-55 -18 -125 -18q-76 0 -131 18l53 197h-207l-53 -197q-59 -18 -133 -18q-69 0 -125 18l55 197h-149
q-17 43 -17 119q0 36 4.5 67t8.5 43l4 13h217l96 344h-143q-17 55 -17 121t17 118h211l61 217q59 19 125 19q71 0 133 -19l-61 -217h206zM637 801l-96 -344h207l96 344h-207z" />
    <glyph glyph-name="dollar" unicode="$" horiz-adv-x="1150" 
d="M455 1599q47 17 125 17q37 0 69.5 -4t46.5 -8l13 -5l-19 -231q84 -5 166 -19.5t122 -26.5l40 -11q4 -53 -19 -121q-9 -28 -23.5 -54t-25.5 -38l-10 -13q-141 39 -291 39q-256 0 -256 -129q0 -38 30.5 -66.5t80.5 -45t113.5 -36t130 -37.5t130 -51t113.5 -75t80.5 -111.5
t30.5 -158.5q0 -359 -414 -406l21 -256q-43 -16 -127 -16q-35 0 -66.5 4t-45.5 8l-15 4l18 252q-105 6 -203.5 28t-145.5 41l-46 19q-6 49 14 119q9 31 22.5 59t23.5 40l9 12q22 -6 59.5 -16t141 -26t191.5 -16q118 0 179.5 29.5t61.5 99.5q0 43 -30 75t-79.5 50t-112 37
t-128.5 36t-128.5 47.5t-112 70t-79.5 106t-30 152.5q0 165 100.5 267t292.5 128z" />
    <glyph glyph-name="percent" unicode="%" horiz-adv-x="1562" 
d="M1300 1423l-788 -1429q-39 -14 -119 -14q-35 0 -64 3.5t-41 6.5l-12 4l789 1429q37 15 117 15q35 0 64.5 -4t41.5 -8zM352 705q-147 0 -224 84.5t-77 271.5q0 356 301 356q147 0 225 -84.5t78 -271.5t-78 -271.5t-225 -84.5zM352 1253q-45 0 -63.5 -38t-18.5 -154
q0 -81 9.5 -123t26 -54t46.5 -12q29 0 45.5 12t26.5 54.5t10 122.5t-10 123t-26.5 56t-45.5 13zM1208 -20q-147 0 -224 84.5t-77 271.5q0 356 301 356q147 0 225 -84.5t78 -271.5t-78 -271.5t-225 -84.5zM1208 528q-45 0 -63.5 -38t-18.5 -154q0 -81 9.5 -123t26 -54
t46.5 -12q29 0 45.5 12t26.5 54.5t10 122.5t-10 123t-26.5 56t-45.5 13z" />
    <glyph glyph-name="ampersand" unicode="&#x26;" horiz-adv-x="1331" 
d="M651 1413q160 0 253 -70.5t93 -197.5q0 -71 -25 -134t-73 -115t-97 -90.5t-118 -82.5q84 -125 234 -256q30 49 77 166q67 1 127.5 -27t94.5 -76q-43 -94 -117 -192q104 -64 223 -113q-6 -73 -51.5 -137t-104.5 -90q-137 54 -264 133q-182 -151 -420 -151q-86 0 -160.5 21
t-134.5 62.5t-94.5 111t-34.5 159.5q0 80 29.5 152.5t78.5 126.5t93 89t92 64q-69 160 -69 307q0 158 91.5 249t276.5 91zM639 1227q-94 0 -94 -129q0 -94 43 -195q66 49 101.5 103.5t35.5 128.5q0 41 -22.5 66.5t-63.5 25.5zM526 211q106 0 197 57q-156 135 -268 312
q-107 -98 -107 -205q0 -73 49 -118.5t129 -45.5z" />
    <glyph glyph-name="quotesingle" unicode="'" horiz-adv-x="454" 
d="M125 1010l-45 448q47 17 147 17q42 0 79.5 -4.5t53.5 -8.5l17 -4l-47 -448q-37 -15 -103 -15q-29 0 -54.5 3.5t-36.5 7.5z" />
    <glyph glyph-name="parenleft" unicode="(" horiz-adv-x="612" 
d="M467 1628q31 -16 54.5 -37t31.5 -34l8 -13q-8 -14 -21 -40t-47 -114.5t-60 -185t-47 -246t-21 -303.5t20 -302t49 -249.5t58 -181t49 -117.5l20 -38q-2 -6 -7.5 -15.5t-29.5 -32t-57 -38.5q-31 -15 -63 -22.5t-48 -8.5h-16q-11 18 -28.5 52t-63 141.5t-80.5 219
t-63.5 274.5t-28.5 318t27 316t66 279.5t78 214.5t66 146l27 50q57 4 127 -33z" />
    <glyph glyph-name="parenright" unicode=")" horiz-adv-x="612" 
d="M250 655q0 154 -20.5 302t-50 249.5t-58.5 181t-49 118.5l-21 38q3 5 9 14t30 31.5t55 38.5t63 24.5t48 8.5h16q11 -18 29 -52t63.5 -141.5t80.5 -219t63.5 -275t28.5 -318.5t-27.5 -316t-66.5 -279t-77.5 -214.5t-65.5 -145.5l-28 -50q-57 -2 -127 31q-33 16 -56.5 37.5
t-30.5 35.5l-7 13q8 14 21.5 40t48 114t60.5 184.5t47.5 246t21.5 303.5z" />
    <glyph glyph-name="asterisk" unicode="*" horiz-adv-x="673" 
d="M260 1315v149q76 25 154 -2v-147l145 45q43 -49 43 -143l-141 -48l92 -125q-59 -67 -129 -86l-86 121l-86 -121q-74 20 -129 86l88 123l-139 50q0 93 47 143z" />
    <glyph glyph-name="plus" unicode="+" horiz-adv-x="931" 
d="M352 481h-272q-14 43 -14 113q0 31 3.5 59.5t6.5 40.5l4 13h272v274q43 14 113 14q31 0 59.5 -3.5t41.5 -7.5l12 -3v-274h274q14 -43 14 -113q0 -31 -3.5 -59.5t-6.5 -40.5l-4 -13h-274v-272q-43 -16 -113 -16q-31 0 -59.5 4t-41.5 8l-12 4v272z" />
    <glyph glyph-name="comma" unicode="," horiz-adv-x="520" 
d="M238 -303l-113 78q3 3 8 9.5t17.5 29t23 46.5t20 62.5t11.5 77.5q-28 2 -53.5 6t-37.5 7l-12 3v293q58 17 158 17q44 0 83.5 -4t56.5 -8l18 -5v-211q0 -73 -18.5 -141t-45 -113t-53 -80t-45.5 -51z" />
    <glyph glyph-name="hyphen" unicode="-" horiz-adv-x="714" 
d="M590 481h-465q-14 43 -14 113q0 31 3.5 59.5t7.5 40.5l3 13h465q14 -43 14 -113q0 -31 -3.5 -59.5t-6.5 -40.5z" />
    <glyph glyph-name="period" unicode="." horiz-adv-x="520" 
d="M418 309v-293q-56 -16 -158 -16q-47 0 -86.5 4t-55.5 8l-16 4v293q52 17 158 17q45 0 84.5 -4t56.5 -8z" />
    <glyph glyph-name="slash" unicode="/" horiz-adv-x="1073" 
d="M37 -78l682 1596q64 18 158 18q44 0 84 -4.5t59 -9.5l18 -4l-682 -1596q-63 -18 -157 -18q-44 0 -84.5 4.5t-58.5 9.5z" />
    <glyph glyph-name="zero" unicode="0" horiz-adv-x="1275" 
d="M637 -29q-272 0 -409.5 174t-137.5 551q0 374 138 549.5t409 175.5t410 -174.5t139 -550.5t-139 -550.5t-410 -174.5zM637 1163q-53 0 -89 -18.5t-64 -68.5t-41 -143.5t-13 -236.5t13 -236t41 -143t64 -69t89 -19q54 0 89.5 19t62.5 69t39 143t12 236q0 144 -12 237
t-39.5 143t-62.5 68.5t-89 18.5z" />
    <glyph glyph-name="one" unicode="1" horiz-adv-x="880" 
d="M35 1124q125 36 210.5 97.5t153.5 160.5q58 19 160 19q44 0 84.5 -4.5t58.5 -9.5l19 -5v-1364q-58 -18 -160 -18q-44 0 -85 4.5t-60 9.5l-19 4v793q0 113 6 193q-118 -93 -284 -132q-46 40 -69.5 109t-14.5 143z" />
    <glyph glyph-name="two" unicode="2" horiz-adv-x="1105" 
d="M203 1112q-46 35 -70.5 96t-19.5 127q7 3 20.5 9t56.5 21t89.5 26t116.5 20.5t139 9.5q225 0 356 -101t131 -300q0 -73 -16.5 -133.5t-44 -106.5t-77.5 -91.5t-101.5 -81t-131.5 -83.5q-23 -14 -66.5 -37t-69 -38.5t-55.5 -38.5t-45.5 -49.5t-17.5 -57.5q0 -13 4 -33h580
q27 -59 27 -135q0 -77 -27 -135h-893q-16 70 -16 152q0 88 25.5 165.5t54.5 127.5t93 108.5t99 84t114 78.5q2 2 3.5 3t3.5 2q135 93 182 151t47 140q0 76 -56 114.5t-157 38.5q-64 0 -133.5 -13.5t-107.5 -26.5z" />
    <glyph glyph-name="three" unicode="3" horiz-adv-x="1091" 
d="M1006 385q0 -200 -131.5 -302.5t-419.5 -102.5q-69 0 -134 7.5t-109 19t-78 22.5t-50 19l-16 7q-2 59 20 123.5t57 100.5q141 -41 291 -41q131 0 188.5 42.5t57.5 143.5q0 96 -49.5 140t-165.5 44h-186q-20 55 -20 122.5t20 119.5h186q174 0 174 156q0 86 -51.5 124.5
t-155.5 38.5q-68 0 -131.5 -10.5t-92.5 -20.5l-30 -10q-47 34 -73.5 93t-22.5 122q6 3 18 8.5t50.5 19t80.5 23.5t105 18.5t127 8.5q233 0 364.5 -96.5t131.5 -282.5q0 -223 -177 -305q222 -87 222 -352z" />
    <glyph glyph-name="four" unicode="4" horiz-adv-x="1202" 
d="M59 565l598 817q60 19 162 19q45 0 84 -4.5t55 -9.5l17 -5v-817h160q18 -45 18 -125q0 -36 -4.5 -66.5t-8.5 -43.5l-5 -13h-160v-299q-56 -18 -148 -18q-43 0 -81 4.5t-55 9.5l-17 4v299h-615q-20 43 -20 123q0 36 5 67t10 45zM674 989l-312 -424h312v424z" />
    <glyph glyph-name="five" unicode="5" horiz-adv-x="1081" 
d="M461 1139v-277q53 0 112 -6q431 -28 431 -432q0 -216 -142.5 -330t-417.5 -114q-71 0 -136 7.5t-107.5 18t-75 21.5t-47.5 19l-15 7q-3 136 72 223q129 -38 287 -38q130 0 194 45t64 141q0 108 -60.5 150t-205.5 42t-260 -8v793h782q20 -62 20 -133.5t-20 -128.5h-475z
" />
    <glyph glyph-name="six" unicode="6" horiz-adv-x="1132" 
d="M911 1401q20 -54 20 -124t-20 -124q-187 -21 -296 -91.5t-158 -209.5q93 22 176 22q94 0 172 -26t138.5 -79.5t94 -142.5t33.5 -206q0 -223 -128.5 -331.5t-364.5 -108.5q-235 0 -363.5 135.5t-128.5 414.5q0 412 213 629.5t612 241.5zM748 420q0 217 -177 217
q-76 0 -161 -29q-2 -27 -2 -86q0 -168 44 -238.5t126 -70.5q80 0 125 51t45 156z" />
    <glyph glyph-name="seven" unicode="7" horiz-adv-x="1028" 
d="M70 1401h901q17 -76 14 -162q-3 -95 -31.5 -182.5t-71.5 -158.5t-95 -142t-103 -148t-93.5 -161t-68.5 -196t-26 -239q-55 -12 -152 -12q-99 0 -154 12q0 132 21.5 248t57.5 203t80 162t92.5 139.5t91.5 121.5t80 122t55 127h-598q-19 53 -19 135q0 36 4.5 69t9.5 47z
" />
    <glyph glyph-name="eight" unicode="8" horiz-adv-x="1191" 
d="M586 -29q-234 0 -368 98t-134 281q0 221 238 355q-199 127 -199 346q0 169 124.5 269.5t344.5 100.5q214 0 335.5 -91.5t121.5 -256.5q0 -193 -177 -323q111 -67 174.5 -156t63.5 -223q0 -189 -137.5 -294.5t-386.5 -105.5zM594 1196q-77 0 -119.5 -35.5t-42.5 -97.5
q0 -37 17 -67t54.5 -56.5t70.5 -44t92 -43.5q96 84 96 197q0 72 -43 109.5t-125 37.5zM594 209q91 0 144 42t53 114q0 51 -41 95t-80 65t-129 62q-3 2 -4.5 2.5t-4.5 2t-5.5 2.5t-4.5 2q-135 -98 -135 -229q0 -74 53.5 -116t153.5 -42z" />
    <glyph glyph-name="nine" unicode="9" horiz-adv-x="1132" 
d="M221 0q-43 130 0 248q185 17 293.5 88t157.5 211q-86 -21 -174 -21q-93 0 -170.5 26t-138 79t-94.5 141.5t-34 204.5q0 223 128.5 333.5t363.5 110.5t364.5 -136t129.5 -415q0 -412 -213.5 -629t-612.5 -241zM385 977q0 -117 45 -166t129 -49q73 0 162 26q4 58 4 91
q0 168 -45 238.5t-127 70.5q-79 0 -123.5 -52t-44.5 -159z" />
    <glyph glyph-name="colon" unicode=":" horiz-adv-x="536" 
d="M426 1061v-293q-56 -16 -158 -16q-47 0 -86.5 4t-55.5 8l-15 4v293q51 16 157 16q45 0 84.5 -4t56.5 -8zM426 309v-293q-56 -16 -158 -16q-47 0 -86.5 4t-55.5 8l-15 4v293q51 17 157 17q45 0 84.5 -4t56.5 -8z" />
    <glyph glyph-name="semicolon" unicode=";" horiz-adv-x="536" 
d="M426 1061v-293q-56 -16 -158 -16q-47 0 -86.5 4t-55.5 8l-15 4v293q51 16 157 16q45 0 84.5 -4t56.5 -8zM246 -303l-113 78q3 3 8 9.5t17.5 29t23 46.5t20 62.5t11.5 77.5q-28 2 -53.5 6t-37.5 7l-11 3v293q53 17 157 17q44 0 83.5 -4t56.5 -8l18 -5v-211
q0 -73 -18.5 -141t-45 -113t-53 -80t-45.5 -51z" />
    <glyph glyph-name="less" unicode="&#x3c;" horiz-adv-x="874" 
d="M752 184l-670 293q-14 49 -14 119q0 32 3.5 61t6.5 41l4 13l670 293q14 -37 14 -113q0 -33 -3.5 -61.5t-6.5 -41.5l-4 -12l-420 -186l420 -180q14 -37 14 -113q0 -33 -3.5 -61t-6.5 -40z" />
    <glyph glyph-name="equal" unicode="=" horiz-adv-x="1050" 
d="M918 678h-787q-13 54 -13 116.5t13 108.5h787q15 -49 14.5 -111.5t-14.5 -113.5zM918 283h-787q-13 54 -13 116.5t13 108.5h787q15 -49 14.5 -111.5t-14.5 -113.5z" />
    <glyph glyph-name="greater" unicode="&#x3e;" horiz-adv-x="872" 
d="M793 477l-670 -293q-14 39 -14 113q0 34 3.5 62t7.5 39l3 12l418 180l-418 186q-14 41 -14 115q0 34 3.5 62t7.5 39l3 12l670 -293q14 -43 14 -115q0 -31 -3.5 -61t-7.5 -44z" />
    <glyph glyph-name="question" unicode="?" horiz-adv-x="915" 
d="M862 1049q0 -78 -19.5 -138.5t-51 -98.5t-69.5 -69t-76 -57t-69.5 -54t-51 -69t-19.5 -94q-41 -25 -127 -25q-36 0 -68.5 6t-46.5 12l-14 7q0 85 16 149.5t41.5 103.5t56 68.5t61.5 52t56.5 46t41.5 58.5t16 81q0 78 -46.5 108.5t-134.5 30.5q-56 0 -109.5 -11.5
t-78.5 -23.5l-25 -12q-52 36 -76 93.5t-18 125.5q15 8 44 20.5t121.5 33t189.5 20.5t175.5 -18t143.5 -58.5t101 -113.5t36 -174zM537 309v-293q-58 -16 -158 -16q-47 0 -86.5 4t-55.5 8l-16 4v293q49 17 158 17q44 0 83.5 -4t57.5 -8z" />
    <glyph glyph-name="at" unicode="@" horiz-adv-x="1859" 
d="M1774 621q0 -214 -108.5 -330.5t-287.5 -116.5q-214 0 -288 113q-74 -113 -263 -113q-152 0 -234.5 92t-82.5 303q0 213 82.5 305.5t234.5 92.5q151 0 226 -66v55q37 21 127 21q40 0 71 -5.5t43 -10.5l11 -5v-483q0 -106 86 -106q141 0 141 254q0 270 -149.5 426.5
t-421.5 156.5q-293 0 -456 -166t-163 -467q0 -131 33.5 -236t91 -174.5t137 -115.5t167.5 -66t187 -20q277 0 512 135q37 -18 60.5 -58t28.5 -87q-289 -193 -631 -193q-133 0 -256.5 31t-232.5 96.5t-190 160t-128 230t-47 297.5q0 255 116 444.5t315.5 286.5t455.5 97
q380 0 596.5 -210.5t216.5 -567.5zM782 569q0 -124 32 -169.5t108 -45.5q58 0 93 35t38 100v168q-4 63 -39 97t-92 34q-77 0 -108.5 -45t-31.5 -174z" />
    <glyph glyph-name="A" unicode="A" 
d="M483 1456q78 19 207 19q60 0 111.5 -4.5t73.5 -9.5l22 -5l467 -1438q-57 -18 -172 -18q-47 0 -86.5 4.5t-55.5 9.5l-16 4l-96 299h-514l-96 -299q-60 -18 -160 -18q-43 0 -81 4.5t-55 9.5l-16 4zM684 1167h-8q-14 -110 -55 -239l-121 -371h362l-119 371q-19 58 -34 118
t-20 90z" />
    <glyph glyph-name="B" unicode="B" horiz-adv-x="1290" 
d="M141 1475h602q199 0 312.5 -110t113.5 -302q0 -204 -159 -301q96 -47 149 -132t53 -204q0 -204 -122 -315t-338 -111h-611v1475zM467 866h211q81 0 123.5 50t42.5 137q0 89 -42 137.5t-124 48.5h-211v-373zM467 238h221q193 0 193 196q0 101 -48 149t-145 48h-221v-393z
" />
    <glyph glyph-name="C" unicode="C" horiz-adv-x="1167" 
d="M84 737q0 372 165.5 567t479.5 195q69 0 133 -8t106.5 -20t75 -24t47.5 -20l15 -8q6 -129 -94 -225q-111 41 -240 41q-82 0 -142 -23.5t-106.5 -79t-70 -155t-23.5 -242.5t23.5 -241.5t70 -152.5t106 -76.5t142.5 -22.5q62 0 126.5 11t97.5 23l34 11q45 -41 70.5 -103
t25.5 -129q-6 -3 -16.5 -8.5t-48 -19.5t-80 -24.5t-111 -19t-141.5 -8.5q-314 0 -479.5 195t-165.5 567z" />
    <glyph glyph-name="D" unicode="D" horiz-adv-x="1366" 
d="M141 1475h506q153 0 268.5 -41t198 -128.5t124.5 -230t42 -338.5t-42 -338t-124.5 -229.5t-198 -128.5t-268.5 -41h-506v1475zM469 256h166q59 0 102.5 12t82 43.5t62.5 85t38 139t14 201.5q0 118 -14 203.5t-38 139t-62.5 85t-82 43t-102.5 11.5h-166v-963z" />
    <glyph glyph-name="E" unicode="E" horiz-adv-x="1142" 
d="M141 1475h897q21 -65 21 -119q0 -70 -21 -131h-569v-357h467q20 -70 20 -120q0 -65 -20 -127h-467v-371h590q20 -55 20 -123q0 -74 -20 -127h-918v1475z" />
    <glyph glyph-name="F" unicode="F" horiz-adv-x="1095" 
d="M469 592v-574q-64 -18 -166 -18q-44 0 -84.5 4.5t-58.5 9.5l-19 4v1457h877q20 -66 20 -123q0 -69 -20 -127h-549v-383h487q21 -51 21 -121q0 -71 -21 -129h-487z" />
    <glyph glyph-name="G" unicode="G" horiz-adv-x="1306" 
d="M84 737q0 370 174.5 564t505.5 194q76 0 146.5 -8.5t117.5 -20.5t83 -24t53 -20l16 -9q-3 -137 -93 -227q-15 5 -41.5 13.5t-101.5 22t-143 13.5q-70 0 -125.5 -14.5t-103.5 -49.5t-80 -91.5t-50 -143.5t-18 -201q0 -142 25.5 -239.5t76 -151.5t115 -77t152.5 -23l100 6
v360h-223q-21 43 -21 123q0 36 5.5 68t10.5 45l5 14h530v-799q-6 -3 -18.5 -8.5t-54 -19.5t-88.5 -24.5t-121.5 -19.5t-153.5 -9q-331 0 -505.5 193.5t-174.5 563.5z" />
    <glyph glyph-name="H" unicode="H" horiz-adv-x="1394" 
d="M928 889v567q64 19 164 19q44 0 85 -4.5t59 -9.5l19 -5v-1438q-61 -18 -161 -18q-49 0 -90.5 4.5t-58.5 9.5l-17 4v605h-461v-605q-66 -18 -164 -18q-48 0 -89 4.5t-58 9.5l-17 4v1438q62 19 162 19q45 0 86.5 -4.5t60.5 -9.5l19 -5v-567h461z" />
    <glyph glyph-name="I" unicode="I" horiz-adv-x="606" 
d="M139 18v1438q62 19 162 19q45 0 86.5 -4.5t60.5 -9.5l19 -5v-1438q-66 -18 -164 -18q-48 0 -89 4.5t-58 9.5z" />
    <glyph glyph-name="J" unicode="J" horiz-adv-x="952" 
d="M492 449v1007q54 19 163 19q45 0 86 -4.5t59 -9.5l19 -5v-1038q0 -213 -122 -325.5t-332 -112.5q-90 0 -175 17t-125 35l-40 17q-2 65 20 129t64 107q86 -33 180 -33q203 0 203 197z" />
    <glyph glyph-name="K" unicode="K" horiz-adv-x="1290" 
d="M545 889l352 567q85 19 164 19q81 0 174 -19l-410 -661l473 -777q-75 -18 -192 -18q-51 0 -96 4.5t-64 9.5l-20 4l-381 625h-78v-625q-51 -18 -164 -18q-46 0 -87 4.5t-59 9.5l-18 4v1438q60 19 166 19q46 0 86.5 -4.5t58.5 -9.5l17 -5v-567h78z" />
    <glyph glyph-name="L" unicode="L" horiz-adv-x="1089" 
d="M141 0v1456q62 19 162 19q45 0 86.5 -4.5t60.5 -9.5l19 -5v-1190h573q21 -62 21 -133q0 -58 -21 -133h-901z" />
    <glyph glyph-name="M" unicode="M" horiz-adv-x="1697" 
d="M1145 1456q83 19 198 19q97 0 216 -19v-1438q-56 -18 -156 -18q-45 0 -85 4.5t-58 9.5l-17 4v431q0 178 8 371.5t19 277.5h-13q-19 -66 -72.5 -210t-105.5 -270l-133 -313q-41 -14 -117 -14q-34 0 -61 3.5t-37 7.5l-10 3q-120 279 -129 301q-56 128 -111 276t-73 216h-13
q15 -71 25 -253t10 -364v-463q-53 -18 -145 -18q-40 0 -76.5 4.5t-52.5 9.5l-17 4v1438q111 19 201 19q50 0 99 -4.5t73 -9.5l23 -5l161 -377q108 -257 142 -395h10q18 101 70 234q62 151 227 538z" />
    <glyph glyph-name="N" unicode="N" horiz-adv-x="1435" 
d="M885 18l-348 748q-34 77 -64 163t-43 133l-14 48h-10q20 -170 20 -391v-701q-47 -18 -145 -18q-43 0 -78.5 4.5t-49.5 9.5l-14 4v1438q70 19 209 19q62 0 112.5 -4.5t70.5 -9.5l20 -5l340 -741q34 -77 65.5 -169t46.5 -145l15 -53h8q-18 197 -18 416v692q53 19 147 19
q43 0 78 -4.5t49 -9.5l14 -5v-1438q-63 -18 -204 -18q-58 0 -110 4.5t-74 9.5z" />
    <glyph glyph-name="O" unicode="O" horiz-adv-x="1411" 
d="M86 737q0 194 43.5 340.5t125.5 238.5t195 137.5t257 45.5q293 0 455.5 -187.5t162.5 -574.5q0 -388 -161.5 -575t-456.5 -187q-297 0 -459 187t-162 575zM979 737q0 150 -18 250.5t-55 156t-84 77.5t-115 22q-53 0 -93 -13.5t-75 -47.5t-57.5 -90.5t-35 -145.5
t-12.5 -209t12.5 -208.5t35 -144.5t57.5 -90t75 -47.5t93 -13.5q68 0 115 22t84 77t55 155.5t18 249.5z" />
    <glyph glyph-name="P" unicode="P" horiz-adv-x="1245" 
d="M469 535v-517q-60 -18 -164 -18q-49 0 -90 4.5t-57 9.5l-17 4v1457h568q223 0 352 -126t129 -345q0 -218 -129 -343.5t-352 -125.5h-240zM469 788h193q91 0 140.5 56t49.5 160q0 105 -49.5 160t-140.5 55h-193v-431z" />
    <glyph glyph-name="Q" unicode="Q" horiz-adv-x="1411" 
d="M86 737q0 194 43.5 340.5t125.5 238.5t195 137.5t257 45.5q293 0 455.5 -187.5t162.5 -574.5q0 -420 -195 -612q115 -78 273 -109q-6 -85 -52 -156t-106 -100q-191 68 -325 246q-98 -31 -213 -31q-297 0 -459 187t-162 575zM979 737q0 150 -18 250.5t-55 156t-84 77.5
t-115 22q-53 0 -93 -13.5t-75 -47.5t-57.5 -90.5t-35 -145.5t-12.5 -209t12.5 -208.5t35 -144.5t57.5 -90t75 -47.5t93 -13.5q68 0 115 22t84 77t55 155.5t18 249.5z" />
    <glyph glyph-name="R" unicode="R" horiz-adv-x="1296" 
d="M141 1475h564q230 0 356.5 -123t126.5 -330q0 -145 -67 -253t-189 -157l334 -594q-68 -18 -187 -18q-51 0 -96 4.5t-65 9.5l-19 4l-303 553h-127v-553q-62 -18 -162 -18q-49 0 -90.5 4.5t-58.5 9.5l-17 4v1457zM469 1221v-396h188q93 0 141 51t48 146q0 96 -48 147.5
t-141 51.5h-188z" />
    <glyph glyph-name="S" unicode="S" horiz-adv-x="1181" 
d="M84 1049q0 209 135.5 329.5t405.5 120.5q118 0 225.5 -17.5t155.5 -34.5l49 -17q0 -67 -21 -132.5t-61 -109.5q-135 41 -297 41q-260 0 -260 -158q0 -27 14.5 -50t35 -38.5t58 -32t68 -26.5t82.5 -26.5t84 -27.5q61 -22 107.5 -45t96.5 -60t82 -81t53 -108t21 -142
q0 -225 -138.5 -342t-414.5 -117q-84 0 -165.5 10.5t-137.5 25t-100 29.5t-65 26l-21 10q0 64 21.5 132t56.5 118q21 -7 57 -17.5t138.5 -28.5t193.5 -18q235 0 235 158q0 64 -52.5 101.5t-158.5 74.5q-16 5 -50 16q-44 14 -67.5 22t-66 24.5t-67 29t-60.5 34.5t-57 43
t-46 52t-38 64t-22 76t-9 92z" />
    <glyph glyph-name="T" unicode="T" horiz-adv-x="1159" 
d="M55 1475h1049q20 -58 20 -136q0 -36 -5 -70.5t-10 -51.5l-5 -17h-356v-1182q-66 -18 -164 -18q-48 0 -88.5 4.5t-57.5 9.5l-16 4v1182h-367q-20 53 -20 135q0 36 5 71t10 52z" />
    <glyph glyph-name="U" unicode="U" 
d="M1249 1456v-942q0 -255 -152 -397t-409 -142q-256 0 -406.5 143t-150.5 396v942q58 19 162 19q46 0 87 -4.5t59 -9.5l18 -5v-967q0 -115 60.5 -176t174.5 -61q115 0 174.5 60.5t59.5 176.5v967q55 19 159 19q46 0 87 -4.5t59 -9.5z" />
    <glyph glyph-name="V" unicode="V" horiz-adv-x="1363" 
d="M350 1454l256 -815q25 -84 44.5 -166t26.5 -122l7 -40h8q21 135 80 330l258 813q46 21 152 21q45 0 86 -5.5t60 -10.5l18 -5l-455 -1438q-84 -16 -209 -16q-57 0 -110 4t-77 8l-24 4l-453 1434q68 25 179 25q45 0 83.5 -5.5t53.5 -10.5z" />
    <glyph glyph-name="W" unicode="W" horiz-adv-x="2023" 
d="M1225 18l-158 785q-19 97 -30.5 189t-12.5 136l-2 43h-10q-2 -149 -47 -368l-158 -785q-88 -18 -217 -18q-124 0 -205 18l-350 1438q60 19 166 19q45 0 84 -4.5t55 -9.5l16 -5l197 -819q16 -71 30 -153t21 -128l6 -47h8q15 164 48 326l170 821q59 19 188 19
q56 0 103.5 -4.5t66.5 -9.5l20 -5l168 -819q15 -76 25.5 -158t14.5 -126l3 -44h9q16 148 57 326l201 821q55 19 147 19q40 0 78 -4.5t56 -9.5l18 -5l-355 -1438q-73 -18 -200 -18q-58 0 -111 4.5t-77 9.5z" />
    <glyph glyph-name="X" unicode="X" horiz-adv-x="1320" 
d="M936 1456q84 19 168 19q88 0 172 -19l-399 -674l440 -759q-63 -23 -182 -23q-52 0 -97.5 5t-65.5 10l-20 5l-303 515l-309 -519q-72 -16 -156 -16q-115 0 -186 16l444 754l-391 686q64 19 191 19q49 0 94 -4.5t66 -9.5l20 -5l254 -436z" />
    <glyph glyph-name="Y" unicode="Y" horiz-adv-x="1329" 
d="M979 1456q64 19 168 19q47 0 91 -4.5t64 -9.5l21 -5l-498 -872v-566q-55 -18 -159 -18q-52 0 -93.5 4.5t-56.5 9.5l-16 4v564l-484 874q68 19 193 19q49 0 93.5 -4.5t64.5 -9.5l20 -5l293 -534z" />
    <glyph glyph-name="Z" unicode="Z" horiz-adv-x="1251" 
d="M131 1475h1010q20 -50 20 -127q0 -83 -20 -142l-695 -936h721q17 -66 17 -131q0 -78 -17 -139h-1093q-21 64 -21 139t21 131l682 936h-625q-18 64 -18 142q0 68 18 127z" />
    <glyph glyph-name="bracketleft" unicode="[" horiz-adv-x="700" 
d="M154 1659h479q14 -39 14 -115q0 -33 -3.5 -60.5t-7.5 -38.5l-3 -11h-184v-1557h184q14 -39 14 -113q0 -34 -3.5 -62t-7.5 -39l-3 -11h-479v2007z" />
    <glyph glyph-name="backslash" unicode="\" horiz-adv-x="1077" 
d="M358 1518l682 -1596q-63 -18 -163 -18q-42 0 -82 4.5t-59 9.5l-19 4l-682 1596q66 18 164 18q43 0 82.5 -4.5t58.5 -9.5z" />
    <glyph glyph-name="bracketright" unicode="]" horiz-adv-x="700" 
d="M547 -348h-479q-15 36 -15 112q0 33 3.5 61t7.5 40l4 12h184v1557h-184q-15 36 -15 110q0 34 3.5 62.5t7.5 40.5l4 12h479v-2007z" />
    <glyph glyph-name="asciicircum" unicode="^" horiz-adv-x="1097" 
d="M672 1460l368 -540q-51 -15 -127 -15q-34 0 -67 3.5t-50 7.5l-16 4l-231 337l-230 -337q-59 -15 -135 -15q-34 0 -65.5 3.5t-46.5 7.5l-15 4l371 540q47 15 121 15q33 0 63.5 -3.5t45.5 -7.5z" />
    <glyph glyph-name="underscore" unicode="_" horiz-adv-x="1112" 
d="M1014 -238h-916q-14 29 -14 99q0 31 3.5 55.5t6.5 33.5l4 9h916q14 -28 14 -98q0 -31 -3.5 -56t-6.5 -34z" />
    <glyph glyph-name="grave" unicode="`" horiz-adv-x="487" 
d="M297 1286l-281 285q32 52 112.5 83.5t156.5 22.5l186 -301q-50 -69 -174 -90z" />
    <glyph glyph-name="a" unicode="a" horiz-adv-x="1058" 
d="M133 1020q7 3 19 9t52.5 20.5t83 25.5t106.5 20t128 9q228 0 330 -91.5t102 -287.5v-709q-45 -16 -131 -16q-36 0 -69 4t-48 8l-14 4l-37 101q-69 -137 -286 -137q-154 0 -236 89t-82 267q0 172 102.5 251t307.5 79q59 0 178 -9v33q0 156 -168 156q-56 0 -118.5 -12
t-96.5 -24l-35 -11q-40 30 -67 96q-13 29 -18 60.5t-4 48.5zM639 467q-61 6 -131 6t-105.5 -33t-35.5 -106q0 -77 29.5 -110.5t88.5 -33.5q54 0 89.5 32t50 79t14.5 105v61z" />
    <glyph glyph-name="b" unicode="b" horiz-adv-x="1148" 
d="M428 1520v-521q88 105 262 105q89 0 157 -29t120 -93.5t79 -175t27 -265.5q0 -154 -27 -264.5t-79 -174.5t-120 -93t-157 -29q-174 0 -262 102v-66q-60 -16 -160 -16q-44 0 -83 4t-55 8l-17 4v1504q55 16 155 16q44 0 84 -4t58 -8zM741 541q0 126 -19 196.5t-52.5 95.5
t-91.5 25q-67 0 -107.5 -50.5t-42.5 -135.5v-262q0 -84 41 -134.5t109 -50.5q58 0 91.5 25t52.5 95t19 196z" />
    <glyph glyph-name="c" unicode="c" horiz-adv-x="917" 
d="M610 854q-116 0 -164.5 -73t-48.5 -240q0 -163 51.5 -233t169.5 -70q44 0 86 7.5t62 14.5l20 8q38 -36 62 -94.5t29 -122.5q-4 -3 -12.5 -7.5t-38.5 -17t-64.5 -22t-92 -17t-120.5 -7.5q-240 0 -358.5 138t-118.5 421q0 565 477 565q95 0 171.5 -16t105.5 -32l30 -16
q-2 -60 -26 -118.5t-64 -96.5q-64 29 -156 29z" />
    <glyph glyph-name="d" unicode="d" horiz-adv-x="1146" 
d="M719 1520q60 16 160 16q44 0 83 -4t56 -8l16 -4v-1504q-57 -16 -141 -16q-38 0 -74 4t-53 8l-16 4l-15 84q-90 -120 -276 -120q-89 0 -157 29t-120 93t-79 174t-27 263q0 154 26 264t77 175.5t119.5 95.5t160.5 30q172 0 260 -105v521zM719 688q-3 75 -42.5 122.5
t-105.5 47.5q-59 0 -93 -25t-53 -95.5t-19 -198.5q0 -124 19 -193.5t53 -95t93 -25.5q67 0 106.5 48t41.5 124v291z" />
    <glyph glyph-name="e" unicode="e" horiz-adv-x="1036" 
d="M950 449h-555q14 -120 68 -165.5t153 -45.5q56 0 110.5 12t81.5 24l26 13q38 -34 66.5 -94.5t29.5 -120.5q-5 -4 -14.5 -10t-44 -22t-73.5 -28t-102 -22t-131 -10q-252 0 -372.5 136t-120.5 421t125 426t354 141q205 0 313.5 -107t108.5 -323q0 -60 -5.5 -116t-11.5 -82z
M690 709q0 165 -133 165q-142 0 -164 -229h293q4 40 4 64z" />
    <glyph glyph-name="f" unicode="f" horiz-adv-x="745" 
d="M186 1200q0 163 89.5 249.5t291.5 86.5q75 0 142.5 -14t98.5 -28l30 -13q-8 -120 -86 -211q-54 24 -148 24q-53 0 -77.5 -25t-24.5 -81v-111h205q14 -52 14 -112q0 -67 -14 -113h-205v-836q-56 -16 -158 -16q-46 0 -85.5 4t-56.5 8l-16 4v836h-131q-12 70 -12 117
q0 59 12 108h131v123z" />
    <glyph glyph-name="g" unicode="g" horiz-adv-x="1114" 
d="M768 1053l297 51q20 -45 19.5 -115t-19.5 -117l-145 21q34 -64 34 -168q0 -180 -112 -280.5t-328 -100.5q-41 0 -59 2q-27 -42 -19 -80q6 -27 36.5 -43.5t76 -22.5t101.5 -14.5t113.5 -16t112.5 -29.5t97 -53.5t68 -88.5t26 -135q0 -170 -152 -272.5t-415 -102.5
q-240 0 -358.5 72t-118.5 207q0 160 180 266q-43 49 -43 125q0 123 112 231q-198 88 -198 336q0 177 113 278t327 101q149 0 254 -51zM651 725q0 180 -137 180t-137 -180q0 -182 137 -182t137 182zM766 -176q0 32 -24 52t-69 29.5t-92.5 15t-111 13.5t-107.5 19
q-49 -58 -49 -123q0 -131 193 -131q131 0 195.5 33t64.5 92z" />
    <glyph glyph-name="h" unicode="h" horiz-adv-x="1120" 
d="M1014 799v-783q-54 -16 -158 -16q-47 0 -86.5 4t-55.5 8l-16 4v717q0 123 -131 123q-78 0 -141 -57v-783q-56 -16 -158 -16q-47 0 -86.5 4t-55.5 8l-15 4v1504q51 16 157 16q45 0 84.5 -4t56.5 -8l17 -4v-512q105 96 274 96q153 0 233.5 -82.5t80.5 -222.5z" />
    <glyph glyph-name="i" unicode="i" horiz-adv-x="540" 
d="M428 1540v-256q-58 -16 -158 -16q-47 0 -86.5 4t-55.5 8l-15 4v256q48 16 157 16q44 0 83.5 -4t56.5 -8zM428 1069v-1053q-58 -16 -158 -16q-47 0 -86.5 4t-55.5 8l-15 4v1053q48 16 157 16q44 0 83.5 -4t56.5 -8z" />
    <glyph glyph-name="j" unicode="j" horiz-adv-x="544" 
d="M430 1538v-258q-56 -16 -158 -16q-47 0 -86.5 4t-55.5 8l-15 4v258q51 16 157 16q45 0 84.5 -4t56.5 -8zM115 -135v1204q53 16 157 16q44 0 83.5 -4t56.5 -8l18 -4v-1249q0 -161 -83 -246.5t-251 -85.5q-52 0 -99 8t-68 16l-21 9q-8 32 -8 69q0 46 8.5 85.5t17.5 56.5
l8 16q35 -8 70 -8q56 0 83.5 29.5t27.5 95.5z" />
    <glyph glyph-name="k" unicode="k" horiz-adv-x="1064" 
d="M481 680l217 389q54 16 154 16q42 0 82.5 -4t59.5 -8l20 -4l-266 -485l313 -568q-70 -18 -176 -18q-45 0 -87 4.5t-62 9.5l-19 4l-240 437h-49v-437q-56 -16 -156 -16q-44 0 -84 4t-58 8l-17 4v1508q61 12 159 12q40 0 79 -3t58 -6l19 -3v-844h53z" />
    <glyph glyph-name="l" unicode="l" horiz-adv-x="544" 
d="M430 1520v-1504q-56 -16 -158 -16q-47 0 -86.5 4t-55.5 8l-15 4v1504q51 16 157 16q45 0 84.5 -4t56.5 -8z" />
    <glyph glyph-name="m" unicode="m" horiz-adv-x="1679" 
d="M950 979q125 125 316 125q148 0 227.5 -84t79.5 -227v-777q-60 -16 -158 -16q-46 0 -85.5 4t-55.5 8l-17 4v717q0 123 -124 123q-77 0 -134 -57v-783q-59 -16 -157 -16q-46 0 -85.5 4t-56.5 8l-16 4v717q0 123 -123 123q-77 0 -135 -55v-785q-60 -16 -158 -16
q-46 0 -85.5 4t-55.5 8l-16 4v1051q51 16 157 16q44 0 83.5 -4t56.5 -8l18 -4v-63q48 45 117.5 72.5t148.5 27.5q174 0 258 -125z" />
    <glyph glyph-name="n" unicode="n" horiz-adv-x="1120" 
d="M1014 797v-781q-54 -16 -158 -16q-47 0 -86.5 4t-55.5 8l-16 4v717q0 123 -131 123q-78 0 -141 -57v-783q-56 -16 -158 -16q-47 0 -86.5 4t-55.5 8l-15 4v1051q51 16 157 16q45 0 84.5 -4t56.5 -8l17 -4v-61q107 98 274 98q153 0 233.5 -83t80.5 -224z" />
    <glyph glyph-name="o" unicode="o" horiz-adv-x="1132" 
d="M72 543q0 561 495 561q117 0 205.5 -30.5t154.5 -96.5t100 -175t34 -259q0 -563 -494 -563q-495 0 -495 563zM733 543q0 95 -11 159t-33.5 99t-51.5 49t-70 14q-57 0 -91.5 -25.5t-55.5 -98t-21 -197.5q0 -126 20.5 -199t56 -100t91.5 -27q84 0 125 71t41 255z" />
    <glyph glyph-name="p" unicode="p" horiz-adv-x="1148" 
d="M428 1001q86 103 266 103q87 0 153.5 -28.5t118.5 -91.5t79.5 -174t27.5 -267q0 -154 -27 -264.5t-79 -175t-119.5 -94t-155.5 -29.5q-177 0 -264 104v-526q-60 -17 -160 -17q-44 0 -83 4.5t-55 8.5l-17 4v1511q55 16 155 16q44 0 84 -4t58 -8l18 -4v-68zM741 543
q0 95 -10 157.5t-32 97t-50.5 47.5t-70.5 13q-67 0 -107.5 -49t-42.5 -131v-260q0 -82 39.5 -137.5t110.5 -55.5q41 0 69 12.5t50.5 46t33 97.5t10.5 162z" />
    <glyph glyph-name="q" unicode="q" horiz-adv-x="1148" 
d="M721 -442v526q-87 -104 -262 -104q-89 0 -157 30t-120 94.5t-79 175t-27 263.5q0 154 26.5 263.5t78 174t120 94t158.5 29.5q176 0 262 -103v68q56 16 156 16q44 0 84 -4t57 -8l18 -4v-1511q-55 -17 -155 -17q-44 0 -84 4.5t-58 8.5zM406 543q0 -127 20 -198t54 -95.5
t91 -24.5q67 0 107 52.5t43 132.5v266q0 83 -40.5 132.5t-109.5 49.5q-34 0 -58 -8t-45.5 -28.5t-34.5 -55.5t-20 -90.5t-7 -132.5z" />
    <glyph glyph-name="r" unicode="r" horiz-adv-x="831" 
d="M414 961q94 143 237 143q92 0 180 -57q-6 -79 -39 -139t-94 -115q-47 41 -106 41q-93 0 -166 -95v-723q-60 -16 -158 -16q-46 0 -85.5 4t-55.5 8l-16 4v1053q53 16 157 16q45 0 79.5 -4t46.5 -8l12 -4z" />
    <glyph glyph-name="s" unicode="s" horiz-adv-x="925" 
d="M76 760q0 163 103 253.5t310 90.5q100 0 183 -16t116 -32l33 -16q2 -61 -15.5 -118t-55.5 -93q-107 33 -228 33q-153 0 -153 -90q0 -21 13 -36.5t40.5 -27t55 -19.5t70.5 -20.5t73 -23.5q52 -18 91.5 -40.5t77 -58.5t58 -90.5t20.5 -125.5q0 -168 -105 -259t-319 -91
q-67 0 -130 8.5t-105.5 20t-76 23.5t-48.5 20l-16 9q0 137 75 215q132 -47 273 -47q149 0 149 90q0 15 -5.5 27.5t-18.5 23t-25.5 18t-35 16t-39.5 13.5t-46 14t-47 15q-45 14 -79 28.5t-72.5 40t-63 57t-41 80t-16.5 108.5z" />
    <glyph glyph-name="t" unicode="t" horiz-adv-x="802" 
d="M504 852v-457q0 -101 39.5 -137.5t126.5 -36.5q18 0 38.5 2t31.5 4l12 2q24 -47 24 -125q0 -28 -3.5 -53.5t-6.5 -36.5l-4 -12q-81 -22 -184 -22q-206 0 -298 96.5t-92 310.5v465h-147q-14 43 -14 111q0 34 3.5 62.5t7.5 40.5l3 11h147v183q59 32 145 45.5t171 5.5v-234
h221q14 -40 14 -112q0 -29 -3.5 -57.5t-7.5 -41.5l-3 -14h-221z" />
    <glyph glyph-name="u" unicode="u" horiz-adv-x="1120" 
d="M106 287v782q54 16 158 16q47 0 86.5 -4t55.5 -8l16 -4v-721q0 -123 129 -123q79 0 143 58v786q56 16 158 16q46 0 85.5 -4t56.5 -8l16 -4v-1053q-52 -16 -158 -16q-45 0 -84.5 4t-56.5 8l-17 4v62q-107 -98 -274 -98q-153 0 -233.5 83t-80.5 224z" />
    <glyph glyph-name="v" unicode="v" horiz-adv-x="1087" 
d="M340 1069l147 -479q21 -72 36.5 -149t20.5 -117l5 -41h8q19 145 68 309l149 477q58 16 146 16q42 0 78.5 -4t52.5 -8l16 -4l-326 -1053q-75 -16 -194 -16q-56 0 -105 4t-70 8l-22 4l-334 1053q66 16 164 16q46 0 86 -4t57 -8z" />
    <glyph glyph-name="w" unicode="w" horiz-adv-x="1638" 
d="M969 16l-97 404q-39 169 -47 377h-8q-8 -210 -47 -377l-96 -404q-79 -16 -185 -16q-113 0 -192 16l-272 1053q59 16 155 16q45 0 79 -4t45 -8l11 -4l129 -479q35 -142 50 -297h6q22 187 51 299l117 477q76 16 168 16q44 0 82.5 -4t55.5 -8l17 -4l115 -477
q33 -145 47 -299h6q14 147 53 299l127 477q50 16 138 16q41 0 74.5 -4t46.5 -8l14 -4l-269 -1053q-76 -16 -188 -16q-110 0 -186 16z" />
    <glyph glyph-name="x" unicode="x" horiz-adv-x="1081" 
d="M342 553l-305 516q70 16 172 16q48 0 91 -4t62 -8l19 -4l172 -291l182 291q54 16 148 16q44 0 85.5 -4t61.5 -8l19 -4l-314 -498l342 -555q-72 -16 -174 -16q-48 0 -91 4t-62 8l-19 4l-205 338l-211 -338q-61 -16 -151 -16q-44 0 -84.5 4t-59.5 8l-18 4z" />
    <glyph glyph-name="y" unicode="y" horiz-adv-x="1118" 
d="M1096 1069l-353 -1186q-31 -103 -64.5 -171t-84.5 -121.5t-122.5 -78t-170.5 -24.5q-39 0 -78 6t-59 12l-19 7q-18 46 -18 112q0 29 5.5 59t11.5 45l6 15q49 -8 90 -8q43 0 69 6t53.5 25.5t48.5 59.5t42 107l20 66q-50 0 -96 16l-359 1053q62 16 166 16q48 0 88 -4t56 -8
l16 -4l166 -485q24 -70 40 -141t20 -107l5 -35h9q14 123 61 283l146 485q53 16 151 16q42 0 80.5 -4t55.5 -8z" />
    <glyph glyph-name="z" unicode="z" horiz-adv-x="980" 
d="M418 248h473q18 -45 18 -125q0 -34 -4.5 -64.5t-8.5 -44.5l-5 -14h-813q-17 58 -17 129q0 53 17 119l475 590h-453q-16 51 -16 125q0 33 4 63.5t8 44.5l4 14h793q14 -49 14 -116q0 -74 -14 -131z" />
    <glyph glyph-name="braceleft" unicode="{" horiz-adv-x="765" 
d="M483 1659h215q15 -49 15 -115q0 -52 -15 -114h-98q-100 0 -100 -101v-411q0 -160 -103 -232q103 -72 103 -233v-412q0 -100 100 -100h98q15 -53 15 -119q0 -64 -15 -111h-215q-138 0 -212 77.5t-74 209.5v473q0 100 -101 100h-53q-16 41 -16 115q0 63 16 113h53
q101 0 101 100v473q0 132 74 209.5t212 77.5z" />
    <glyph glyph-name="bar" unicode="|" horiz-adv-x="624" 
d="M152 1602q57 16 161 16q44 0 84.5 -4t58.5 -8l19 -4v-1989q-64 -16 -162 -16q-46 0 -86.5 4t-57.5 8l-17 4v1989z" />
    <glyph glyph-name="braceright" unicode="}" horiz-adv-x="763" 
d="M68 1659h215q138 0 212 -77.5t74 -209.5v-473q0 -100 101 -100h53q16 -50 16 -113q0 -74 -16 -115h-53q-101 0 -101 -100v-473q0 -132 -74 -209.5t-212 -77.5h-215q-15 47 -15 111q0 66 15 119h98q100 0 100 100v412q0 163 103 233q-103 70 -103 232v411q0 101 -100 101
h-98q-15 62 -15 114q0 66 15 115z" />
    <glyph glyph-name="asciitilde" unicode="~" horiz-adv-x="1048" 
d="M360 502q-43 0 -77 -18t-47 -36l-13 -18q-53 19 -89 59t-46 93q3 6 9 16t28 36t49 45.5t74 35.5t100 16q52 0 100.5 -16.5t80 -35.5t75 -35.5t86.5 -16.5q26 0 49.5 7.5t38.5 17.5t26 20.5t16 17.5l5 8q55 -19 92 -59t46 -92q-3 -6 -9 -16t-28.5 -36t-49.5 -46t-74 -36
t-100 -16q-52 0 -101 16.5t-81 36t-75 36t-85 16.5z" />
    <glyph glyph-name="exclamdown" unicode="&#xa1;" horiz-adv-x="573" 
d="M129 1044q56 17 158 17q46 0 85.5 -4.5t55.5 -8.5l16 -4v-292q-51 -17 -157 -17q-45 0 -84.5 4.5t-56.5 8.5l-17 4v292zM160 614q45 15 125 15q36 0 68 -3.5t47 -7.5l14 -4l43 -1011q-57 -17 -170 -17q-46 0 -88.5 4t-62.5 8l-19 5z" />
    <glyph glyph-name="cent" unicode="&#xa2;" horiz-adv-x="948" 
d="M430 1284q59 21 133 21q36 0 70 -5.5t49 -10.5l16 -5l-18 -190q57 -6 103 -19t63 -23l18 -10q-6 -118 -90 -202q-64 26 -158 26q-114 0 -162 -77.5t-48 -247.5q0 -165 51.5 -240.5t167.5 -75.5q44 0 86.5 7.5t62.5 15.5l21 8q78 -74 90 -205q-66 -43 -205 -61l18 -197
q-53 -20 -135 -20q-33 0 -66 5t-50 10l-17 5l16 195q-368 55 -368 551q0 499 368 557z" />
    <glyph glyph-name="sterling" unicode="&#xa3;" horiz-adv-x="1107" 
d="M879 582h-314q14 -184 -125 -314h572q18 -51 18 -133q0 -36 -4.5 -69.5t-9.5 -49.5l-4 -16h-893v268q89 88 120 163t23 151h-164q-16 44 -16 110q0 29 4 56t8 39l4 12h109q-37 122 -37 227q0 102 36 178t101 121.5t147.5 67.5t182.5 22q202 0 379 -76q6 -133 -88 -217
q-114 42 -230 45q-204 0 -204 -178q0 -76 30 -190h355q14 -39 14 -105q0 -29 -3.5 -57t-7.5 -41z" />
    <glyph glyph-name="currency" unicode="&#xa4;" horiz-adv-x="1230" 
d="M989 25l-147 145q-103 -61 -226 -61q-124 0 -227 61l-145 -145q-50 2 -105 57q-23 24 -36 49t-15 38l-2 13l147 148q-63 102 -63 225q0 118 63 225l-147 148q4 49 55 102q24 24 50 38t39 16l14 1l145 -147q101 63 227 63q119 0 226 -63l147 147q5 0 14.5 -1.5t37 -15.5
t51.5 -38q23 -24 36.5 -49.5t15.5 -38.5l3 -14l-148 -148q64 -108 64 -225q0 -119 -64 -227l148 -146q-2 -51 -53 -104q-24 -25 -50.5 -38.5t-40.5 -13.5zM616 780q-94 0 -159.5 -65t-65.5 -160t65.5 -160t159.5 -65q95 0 160.5 65t65.5 160t-65.5 160t-160.5 65z" />
    <glyph glyph-name="yen" unicode="&#xa5;" horiz-adv-x="1298" 
d="M938 1384q64 17 162 17q39 0 77.5 -4.5t56.5 -8.5l19 -4l-374 -628h202q13 -47 13 -92q0 -48 -13 -95h-299v-125h299q13 -44 13 -88q0 -48 -13 -98h-299v-240q-65 -18 -143 -18q-34 0 -68.5 4.5t-52.5 9.5l-18 4v240h-307q-13 54 -13 98q0 41 13 88h307v125h-307
q-13 50 -13 93q0 44 13 94h208l-352 622q63 23 172 23q45 0 86.5 -5.5t60.5 -10.5l19 -5l266 -481z" />
    <glyph glyph-name="brokenbar" unicode="&#xa6;" horiz-adv-x="610" 
d="M143 733v877q58 16 162 16q44 0 84.5 -4t58.5 -8l19 -4v-877q-64 -16 -162 -16q-46 0 -86.5 4t-58.5 8zM143 -395v899q58 16 162 16q44 0 84.5 -4t58.5 -8l19 -4v-899q-64 -17 -162 -17q-46 0 -86.5 4t-58.5 8z" />
    <glyph glyph-name="section" unicode="&#xa7;" horiz-adv-x="997" 
d="M616 289q0 26 -22.5 44.5t-59 28.5t-83.5 21.5t-96 21.5t-96 31t-83.5 48.5t-59 74t-22.5 107.5q0 126 111 225q-90 76 -90 219q0 149 108.5 226t294.5 77q172 0 320 -53q2 -53 -15 -106t-51 -87q-105 24 -188 29q-191 8 -191 -92q0 -30 28 -50t72.5 -30.5t98.5 -21
t108 -28.5t98.5 -45.5t72.5 -79t28 -122.5q0 -124 -106 -211q118 -82 118 -240q0 -77 -35 -135.5t-97.5 -93t-140.5 -51t-171 -16.5q-88 0 -179 15t-138 31l-46 15q-6 57 11 112t57 87q120 -36 252 -39q192 -4 192 88zM393 809q-35 -44 -35 -94q0 -21 11 -37.5t25.5 -26.5
t42.5 -20t49 -15t58 -13.5t58 -14.5q31 39 31 92q0 21 -10.5 37t-25.5 26.5t-41.5 20t-48.5 15.5t-56.5 14.5t-57.5 15.5z" />
    <glyph glyph-name="dieresis" unicode="&#xa8;" horiz-adv-x="931" 
d="M391 1491v-236q-47 -14 -135 -14q-39 0 -73 3.5t-48 7.5l-14 3v236q45 14 135 14q39 0 73 -3.5t48 -7.5zM795 1491v-236q-50 -14 -136 -14q-40 0 -73.5 3.5t-47.5 7.5l-14 3v236q45 14 135 14q38 0 72 -3.5t49 -7.5z" />
    <glyph glyph-name="copyright" unicode="&#xa9;" horiz-adv-x="1622" 
d="M811 -35q-200 0 -368 97.5t-265.5 265.5t-97.5 368t97.5 368t265.5 265.5t368 97.5t368 -97.5t265.5 -265.5t97.5 -368t-97.5 -368t-265.5 -265.5t-368 -97.5zM811 1227q-145 0 -266.5 -70.5t-191.5 -193t-70 -267.5t70 -267t191.5 -192.5t266.5 -70.5t266.5 70.5
t191.5 192.5t70 267t-70 267.5t-191.5 193t-266.5 70.5zM819 299q-179 0 -272.5 106t-93.5 304q0 201 93 304t273 103q64 0 122.5 -14t84.5 -28l27 -15q-3 -95 -78 -152q-59 29 -127 29q-79 0 -122.5 -52.5t-43.5 -176.5q0 -123 43 -171.5t123 -48.5q34 0 67.5 6t50.5 11
l17 6q38 -22 58 -64t22 -90q-11 -6 -30.5 -15.5t-83 -25.5t-130.5 -16z" />
    <glyph glyph-name="ordfeminine" unicode="&#xaa;" horiz-adv-x="735" 
d="M127 1235q12 6 34.5 15t88.5 24.5t129 15.5q139 0 200.5 -57.5t61.5 -177.5v-424q-33 -17 -90 -17q-23 0 -45 4t-32 8l-11 5l-17 45q-59 -72 -170 -72q-93 0 -145.5 56t-52.5 163q0 106 66 156.5t184 50.5l102 -4v25q0 71 -84 71q-36 0 -76 -7.5t-62 -14.5l-22 -8
q-56 63 -59 143zM430 893q-29 2 -70 2q-69 0 -69 -72q0 -38 15 -54.5t46 -16.5q39 0 58.5 31.5t19.5 78.5v31zM94 500h541q12 -38 11.5 -84t-11.5 -84h-541q-10 40 -10 86.5t10 81.5z" />
    <glyph glyph-name="guillemotleft" unicode="&#xab;" horiz-adv-x="1112" 
d="M86 674l426 379q73 -70 90 -189l-274 -313l274 -311q-16 -118 -90 -189l-426 373q-20 43 -20 121q0 36 5 68t10 47zM543 668l405 360q69 -63 86 -176l-260 -301l260 -299q-19 -112 -86 -176l-405 356q-21 43 -21 113q0 34 5 64.5t11 44.5z" />
    <glyph glyph-name="logicalnot" unicode="&#xac;" horiz-adv-x="1232" 
d="M1112 913v-581q-45 -23 -127 -23q-36 0 -68 6t-45 11l-14 6v330h-758q-22 50 -22 124q0 35 5.5 66.5t10.5 45.5l6 15h1012z" />
    <glyph glyph-name="uni00AD" unicode="&#xad;" horiz-adv-x="446" 
 />
    <glyph glyph-name="registered" unicode="&#xae;" horiz-adv-x="1093" 
d="M547 508q-189 0 -323 134t-134 323t134 322.5t323 133.5t323 -133.5t134 -322.5t-134 -323t-323 -134zM547 1298q-139 0 -237.5 -97t-98.5 -236t99 -237.5t237 -98.5q139 0 236.5 98t97.5 238q0 139 -97 236t-237 97zM584 1206q73 0 118.5 -40t45.5 -105q0 -46 -24.5 -82
t-66.5 -51l111 -172q-29 -17 -72 -17q-16 0 -31 2.5t-21 5.5l-7 3l-111 165h-24v-165q-27 -11 -62 -11q-17 0 -32.5 2.5t-21.5 5.5l-7 3v456h205zM502 1014h63q56 0 56 47q0 49 -56 49h-63v-96z" />
    <glyph glyph-name="macron" unicode="&#xaf;" horiz-adv-x="833" 
d="M741 1280h-675q-12 43 -12 94t12 88h675q12 -40 11.5 -90.5t-11.5 -91.5z" />
    <glyph glyph-name="degree" unicode="&#xb0;" horiz-adv-x="722" 
d="M66 1237q0 117 80.5 205t218.5 88t215 -85.5t77 -201.5t-77 -201.5t-215 -85.5q-143 0 -221 83t-78 198zM465 1241q0 43 -27.5 75t-75.5 32q-51 0 -78.5 -32t-27.5 -77q0 -41 27.5 -71.5t78.5 -30.5q48 0 75.5 31t27.5 73z" />
    <glyph glyph-name="plusminus" unicode="&#xb1;" horiz-adv-x="1009" 
d="M391 711h-272q-15 42 -15 112q0 31 4 59.5t8 41.5l3 12h272v205q43 14 113 14q31 0 59 -3.5t41 -7.5l12 -3v-205h275q14 -43 14 -113q0 -31 -3.5 -59t-7.5 -40l-3 -13h-275v-205q-42 -14 -112 -14q-31 0 -59.5 3.5t-40.5 6.5l-13 4v205zM891 209h-772q-15 43 -15 113
q0 31 4 59t8 41l3 12h772q14 -42 14 -112q0 -31 -3.5 -59.5t-7.5 -40.5z" />
    <glyph glyph-name="twosuperior" unicode="&#xb2;" horiz-adv-x="618" 
d="M41 807q0 56 17.5 101t45.5 74t62 52.5t68.5 41t62.5 34.5t45.5 38t17.5 46q0 63 -104 63q-62 0 -129 -18q-53 59 -43 147q94 35 219 35q121 0 192.5 -52t71.5 -157q0 -62 -23.5 -107t-62 -72t-79 -47.5t-85 -47t-69.5 -57.5h284q15 -44 15 -88q0 -43 -15 -84h-481
q-10 41 -10 98z" />
    <glyph glyph-name="threesuperior" unicode="&#xb3;" horiz-adv-x="618" 
d="M567 907q0 -101 -69 -155t-230 -54q-64 0 -121 11t-81 23l-25 11q0 36 13.5 75t37.5 61q68 -23 146 -23q61 0 89.5 18t28.5 56q0 37 -21.5 53t-74.5 16h-98q-12 34 -12 76t12 76h98q41 0 58.5 13t17.5 40q0 32 -22.5 47t-71.5 15q-32 0 -66 -5t-52 -9l-18 -5
q-23 20 -37 57t-14 78q90 39 215 39q135 0 206 -49.5t71 -140.5q0 -109 -90 -152q110 -45 110 -172z" />
    <glyph glyph-name="acute" unicode="&#xb4;" horiz-adv-x="458" 
d="M463 1571l-279 -285q-126 21 -176 90l187 301q75 9 155.5 -22.5t112.5 -83.5z" />
    <glyph glyph-name="mu" unicode="&#xb5;" horiz-adv-x="1196" 
d="M733 1069q60 16 158 16q46 0 85.5 -4t55.5 -8l17 -4v-1053q-54 -16 -158 -16q-44 0 -83.5 4t-57.5 8l-17 4v47q-74 -83 -203 -83q-77 0 -131 40q16 -129 44.5 -244.5t48.5 -166.5l20 -51q-60 -51 -162 -65t-178 9q-27 128 -27 469v1098q60 16 158 16q46 0 85.5 -4
t55.5 -8l17 -4v-719q0 -125 129 -125q77 0 143 60v784z" />
    <glyph glyph-name="paragraph" unicode="&#xb6;" horiz-adv-x="1409" 
d="M516 -453v912q-115 2 -207 44.5t-148 111.5t-85.5 153.5t-28.5 175.5q2 94 34 180t90.5 155.5t152 111t208.5 41.5h242v-1885q-49 -12 -129 -12q-37 0 -69.5 3t-45.5 6zM1243 1419v-1872q-49 -12 -129 -12q-37 0 -69.5 3t-46.5 6l-13 3v1872q45 13 129 13q36 0 68 -3
t46 -7z" />
    <glyph glyph-name="periodcentered" unicode="&#xb7;" horiz-adv-x="497" 
d="M387 711v-254q-49 -17 -137 -17q-42 0 -76.5 4t-48.5 8l-14 5v254q45 16 139 16q39 0 73.5 -4t48.5 -8z" />
    <glyph glyph-name="cedilla" unicode="&#xb8;" horiz-adv-x="606" 
d="M199 109l163 -37l-22 -119q113 0 164 -54.5t51 -148.5q0 -103 -71.5 -157t-196.5 -54q-62 0 -115.5 12.5t-76.5 24.5l-23 12q-2 33 12.5 67.5t38.5 51.5q58 -26 133 -26q123 -4 123 77q0 72 -88 72h-109l-28 33z" />
    <glyph glyph-name="onesuperior" unicode="&#xb9;" horiz-adv-x="524" 
d="M25 1282q130 35 204 117q34 10 107 10q48 0 96 -10v-682q-48 -10 -98 -10q-67 0 -113 10v370q0 62 4 91q-64 -44 -149 -54q-26 26 -40 70.5t-11 87.5z" />
    <glyph glyph-name="ordmasculine" unicode="&#xba;" horiz-adv-x="757" 
d="M78 948q0 180 74.5 261t226.5 81q151 0 227 -80t76 -262q0 -181 -76 -262.5t-227 -81.5q-152 0 -226.5 81t-74.5 263zM461 948q0 75 -10 115t-26.5 52.5t-45.5 12.5q-45 0 -63.5 -35.5t-18.5 -144.5q0 -75 9.5 -114t26 -50.5t46.5 -11.5q29 0 45.5 11.5t26.5 50.5t10 114
zM106 500h541q12 -38 12 -82q0 -46 -12 -86h-541q-10 34 -10 86q0 51 10 82z" />
    <glyph glyph-name="guillemotright" unicode="&#xbb;" horiz-adv-x="1112" 
d="M600 1053l426 -379q21 -49 21 -129q0 -35 -5.5 -65t-10.5 -43l-5 -13l-426 -373q-71 71 -90 189l274 311l-274 313q17 119 90 189zM164 1028l405 -360q21 -47 21 -123q0 -31 -5 -59.5t-11 -41.5l-5 -12l-405 -356q-67 64 -86 176l260 299l-260 301q17 113 86 176z" />
    <glyph glyph-name="onequarter" unicode="&#xbc;" horiz-adv-x="1419" 
d="M207 -6l788 1429q37 15 117 15q36 0 65.5 -4t41.5 -8l12 -3l-791 -1429q-46 -14 -118 -14q-30 0 -59 3.5t-43 6.5zM47 1282q132 35 205 117q34 10 106 10q49 0 97 -10v-682q-48 -10 -99 -10q-66 0 -112 10v370q0 62 4 91q-64 -44 -150 -54q-26 26 -40 70.5t-11 87.5z
M1278 291h76q10 -34 10 -74q0 -28 -10 -70h-76v-137q-44 -10 -92 -10q-49 0 -90 10v137h-330q-10 38 -10 68q0 37 8 64l319 411q47 12 99 12t96 -12v-399zM1096 471l-138 -180h138v180z" />
    <glyph glyph-name="onehalf" unicode="&#xbd;" horiz-adv-x="1509" 
d="M995 1423q37 15 117 15q36 0 65.5 -4t41.5 -8l12 -3l-791 -1429q-46 -14 -118 -14q-30 0 -59 3.5t-43 6.5l-13 4zM252 1399q34 10 106 10q49 0 97 -10v-682q-48 -10 -99 -10q-66 0 -112 10v370q0 62 4 91q-64 -44 -150 -54q-26 26 -40 70.5t-11 87.5q132 35 205 117z
M961 678q96 35 219 35q121 0 193.5 -52t72.5 -157q0 -62 -23.5 -107t-62.5 -72.5t-80.5 -48t-86 -47t-69.5 -57.5h287q14 -41 14 -88q0 -46 -14 -84h-483q-10 41 -10 98q0 56 17.5 101t46 74t63 52.5t68.5 41t62.5 34.5t46 38t17.5 46q0 64 -100 64q-56 2 -135 -19
q-25 27 -36.5 67.5t-6.5 80.5z" />
    <glyph glyph-name="threequarters" unicode="&#xbe;" horiz-adv-x="1480" 
d="M1063 1423q37 15 117 15q36 0 65.5 -4t40.5 -8l12 -3l-790 -1429q-47 -14 -119 -14q-30 0 -59 3.5t-42 6.5l-14 4zM76 1382q90 39 215 39q135 0 205.5 -49t70.5 -141q0 -109 -90 -152q111 -45 111 -172q0 -101 -69 -155t-230 -54q-64 0 -121 11t-82 23l-25 11q0 36 14 75
t38 61q67 -23 145 -23q119 0 119 74q0 37 -21.5 53t-74.5 16h-99q-12 34 -12 76t12 76h99q41 0 58 13t17 40q0 32 -22.5 47t-71.5 15q-32 0 -65.5 -5t-51.5 -9l-18 -5q-23 20 -37 57t-14 78zM1151 690q47 12 98 12q53 0 97 -12v-399h75q11 -37 11 -74q0 -24 -11 -70h-75
v-137q-44 -10 -93 -10t-90 10v137h-329q-11 42 -11 70q0 35 8 62zM1026 291h137v180z" />
    <glyph glyph-name="questiondown" unicode="&#xbf;" horiz-adv-x="905" 
d="M375 756v293q55 16 157 16q46 0 85.5 -4t56.5 -8l16 -4v-293q-52 -17 -158 -17q-45 0 -84.5 4.5t-55.5 8.5zM49 18q0 78 19.5 138.5t51 98.5t69.5 69t76.5 57t70 54t51 69t19.5 94q40 16 124 16q37 0 70 -4t48 -8l14 -4q0 -85 -16 -150t-41.5 -104t-56.5 -69t-61.5 -52.5
t-56 -46t-41.5 -58.5t-16 -81q0 -78 46 -108.5t132 -30.5q56 0 110 12t79 24l26 11q50 -36 74.5 -93.5t19.5 -125.5q-15 -8 -43.5 -20.5t-121.5 -33t-191 -20.5q-97 0 -175.5 18.5t-143.5 59t-100.5 113.5t-35.5 175z" />
    <glyph glyph-name="Agrave" unicode="&#xc0;" 
d="M670 1925l186 -301q-50 -69 -174 -90l-281 285q32 52 112.5 83.5t156.5 22.5zM483 1456q80 19 207 19q61 0 112.5 -4.5t73.5 -9.5l21 -5l467 -1438q-57 -18 -172 -18q-46 0 -85.5 4.5t-56.5 9.5l-16 4l-96 299h-514l-96 -299q-60 -18 -158 -18q-44 0 -82.5 4.5t-55.5 9.5
l-16 4zM684 1167h-8q-14 -110 -53 -239l-123 -371h362l-119 371q-19 58 -34 118t-20 90z" />
    <glyph glyph-name="Aacute" unicode="&#xc1;" 
d="M545 1626l186 301q75 9 155.5 -22.5t112.5 -83.5l-280 -285q-121 17 -174 90zM483 1456q78 19 207 19q60 0 111.5 -4.5t73.5 -9.5l22 -5l467 -1438q-57 -18 -172 -18q-47 0 -86.5 4.5t-55.5 9.5l-16 4l-96 299h-514l-96 -299q-60 -18 -160 -18q-43 0 -81 4.5t-55 9.5
l-16 4zM684 1167h-8q-14 -110 -55 -239l-121 -371h362l-119 371q-19 58 -34 118t-20 90z" />
    <glyph glyph-name="Acircumflex" unicode="&#xc2;" horiz-adv-x="1382" 
d="M717 1946l321 -271q-53 -104 -139 -139l-219 137l-215 -135q-90 37 -141 137l319 271h74zM485 1456q78 19 207 19q60 0 111 -4.5t73 -9.5l21 -5l469 -1438q-59 -18 -172 -18q-47 0 -87 4.5t-57 9.5l-16 4l-96 299h-514l-96 -299q-58 -18 -158 -18q-43 0 -81.5 4.5
t-55.5 9.5l-17 4zM686 1167h-8q-14 -110 -55 -239l-123 -371h362l-119 371q-18 58 -32.5 118t-19.5 90z" />
    <glyph glyph-name="Atilde" unicode="&#xc3;" 
d="M334 1655q4 16 19 39t40 48.5t65.5 44.5t86.5 21q55 3 101.5 -17t87 -40t81.5 -18q27 2 50.5 15t33.5 26l10 12q41 -14 77.5 -43t55.5 -64q-8 -16 -23.5 -35.5t-42 -43t-66.5 -40t-85 -18.5q-56 -3 -101.5 15t-84 36.5t-78.5 16.5q-31 -1 -56 -14.5t-35 -26.5l-9 -13
q-97 23 -127 99zM483 1456q78 19 207 19q60 0 111.5 -4.5t73.5 -9.5l22 -5l467 -1438q-57 -18 -172 -18q-47 0 -86.5 4.5t-55.5 9.5l-16 4l-96 299h-516l-96 -299q-58 -18 -158 -18q-43 0 -81 4.5t-55 9.5l-16 4zM684 1167h-8q-14 -110 -55 -239l-121 -371h362l-121 371
q-18 58 -32.5 118t-19.5 90z" />
    <glyph glyph-name="Adieresis" unicode="&#xc4;" 
d="M346 1786q45 14 135 14q39 0 73 -3.5t48 -6.5l14 -4v-236q-47 -14 -135 -14q-39 0 -73 3.5t-48 6.5l-14 4v236zM750 1786q45 14 135 14q38 0 72 -3.5t49 -6.5l14 -4v-236q-49 -14 -135 -14q-40 0 -73.5 3.5t-47.5 6.5l-14 4v236zM483 1456q80 19 207 19q61 0 112.5 -4.5
t73.5 -9.5l21 -5l467 -1438q-57 -18 -172 -18q-46 0 -85.5 4.5t-56.5 9.5l-16 4l-96 299h-514l-96 -299q-60 -18 -158 -18q-44 0 -82.5 4.5t-55.5 9.5l-16 4zM684 1167h-8q-14 -110 -53 -239l-123 -371h362l-119 371q-19 58 -34 118t-20 90z" />
    <glyph glyph-name="Aring" unicode="&#xc5;" 
d="M903 1413l463 -1395q-59 -18 -174 -18q-46 0 -85.5 4.5t-56.5 9.5l-16 4l-96 299h-514l-96 -299q-60 -18 -158 -18q-44 0 -83 4.5t-56 9.5l-17 4l463 1391q-80 67 -80 182q0 124 85.5 194t203.5 70t205.5 -70t87.5 -194q0 -112 -76 -178zM793 1591q0 42 -28.5 71.5
t-80.5 29.5q-49 0 -75.5 -30t-26.5 -71q0 -42 26.5 -71t75.5 -29q52 0 80.5 30t28.5 70zM862 557l-119 363q-19 58 -34 118t-20 90l-5 31h-8q-12 -110 -55 -239l-121 -363h362z" />
    <glyph glyph-name="AE" unicode="&#xc6;" horiz-adv-x="1847" 
d="M877 1475h866q22 -60 21 -126t-21 -120h-506v-361h403q20 -57 20 -125t-20 -122h-403v-373h526q21 -60 21 -128t-21 -120h-839v326h-410l-180 -306q-68 -20 -176 -20q-118 0 -168 20zM659 571h265v445z" />
    <glyph glyph-name="Ccedilla" unicode="&#xc7;" horiz-adv-x="1165" 
d="M1100 184q14 -30 20.5 -61.5t5.5 -47.5v-16q-14 -8 -40.5 -19.5t-118.5 -32.5t-195 -25l-12 -70q113 0 164 -54.5t51 -148.5q0 -103 -71.5 -157t-196.5 -54q-62 0 -115.5 12t-76.5 24l-23 13q-2 33 12.5 67.5t38.5 51.5q58 -26 133 -26q123 -4 123 77q0 72 -88 72h-109
l-29 33l31 168q-254 35 -387 225.5t-133 521.5q0 370 165.5 564t479.5 194q108 0 202.5 -19.5t134.5 -39.5l40 -19q4 -53 -23 -123q-14 -33 -32 -58.5t-29 -34.5l-12 -9q-111 41 -238 41q-65 0 -116 -14t-94.5 -49t-71.5 -91t-44 -142.5t-16 -201.5t16 -201t44 -141
t71.5 -88.5t94 -47t116.5 -13.5q62 0 126 11t97 23l33 11q41 -31 72 -105z" />
    <glyph glyph-name="Egrave" unicode="&#xc8;" horiz-adv-x="1140" 
d="M569 1534l-280 285q32 52 112.5 83.5t155.5 22.5l186 -301q-50 -69 -174 -90zM141 1475h895q21 -54 21 -119q0 -78 -21 -131h-569v-357h467q20 -58 20 -120q0 -74 -20 -127h-467v-371h590q20 -55 20 -123q0 -74 -20 -127h-916v1475z" />
    <glyph glyph-name="Eacute" unicode="&#xc9;" horiz-adv-x="1140" 
d="M854 1823l-279 -287q-124 21 -176 90l187 303q75 8 155.5 -23.5t112.5 -82.5zM141 1475h895q21 -54 21 -119q0 -78 -21 -131h-569v-357h467q20 -58 20 -120q0 -74 -20 -127h-467v-371h590q20 -55 20 -123q0 -74 -20 -127h-916v1475z" />
    <glyph glyph-name="Ecircumflex" unicode="&#xca;" horiz-adv-x="1142" 
d="M629 1946l321 -271q-52 -102 -139 -139l-219 137l-217 -135q-88 36 -139 137l319 271h74zM141 1475h897q21 -65 21 -119q0 -70 -21 -131h-569v-357h467q20 -70 20 -120q0 -65 -20 -127h-467v-371h590q20 -55 20 -123q0 -74 -20 -127h-918v1475z" />
    <glyph glyph-name="Edieresis" unicode="&#xcb;" horiz-adv-x="1142" 
d="M514 1786v-236q-49 -14 -135 -14q-40 0 -73.5 3.5t-47.5 6.5l-14 4v236q45 14 135 14q38 0 72 -3.5t49 -6.5zM915 1786v-236q-47 -14 -135 -14q-39 0 -73 3.5t-48 6.5l-14 4v236q45 14 135 14q39 0 73 -3.5t48 -6.5zM141 1475h897q21 -65 21 -119q0 -70 -21 -131h-569
v-357h467q20 -70 20 -120q0 -65 -20 -127h-467v-371h590q20 -55 20 -123q0 -74 -20 -127h-918v1475z" />
    <glyph glyph-name="Igrave" unicode="&#xcc;" horiz-adv-x="606" 
d="M307 1534l-280 285q32 52 112.5 83.5t155.5 22.5l186 -301q-50 -69 -174 -90zM139 18v1438q62 19 162 19q45 0 86.5 -4.5t60.5 -9.5l19 -5v-1438q-66 -18 -164 -18q-48 0 -89 4.5t-58 9.5z" />
    <glyph glyph-name="Iacute" unicode="&#xcd;" horiz-adv-x="606" 
d="M565 1823l-280 -287q-121 20 -174 90l186 303q75 8 155.5 -23.5t112.5 -82.5zM139 18v1438q62 19 162 19q45 0 86.5 -4.5t60.5 -9.5l19 -5v-1438q-66 -18 -164 -18q-48 0 -89 4.5t-58 9.5z" />
    <glyph glyph-name="Icircumflex" unicode="&#xce;" horiz-adv-x="606" 
d="M342 1946l322 -271q-48 -101 -140 -139l-217 137l-217 -135q-92 38 -139 137l317 271h74zM141 18v1438q60 19 160 19q45 0 86.5 -4.5t60.5 -9.5l19 -5v-1438q-66 -18 -164 -18q-48 0 -88.5 4.5t-56.5 9.5z" />
    <glyph glyph-name="Idieresis" unicode="&#xcf;" horiz-adv-x="604" 
d="M231 1786v-236q-47 -14 -135 -14q-39 0 -73 3.5t-48 6.5l-14 4v236q45 14 135 14q39 0 73 -3.5t48 -6.5zM635 1786v-236q-49 -14 -135 -14q-40 0 -73.5 3.5t-47.5 6.5l-14 4v236q45 14 135 14q38 0 72 -3.5t48 -6.5zM139 18v1438q62 19 162 19q45 0 86 -4.5t59 -9.5
l19 -5v-1438q-64 -18 -162 -18q-48 0 -89 4.5t-58 9.5z" />
    <glyph glyph-name="Eth" unicode="&#xd0;" horiz-adv-x="1411" 
d="M188 1475h506q153 0 268 -41t197.5 -128.5t124 -230t41.5 -338.5t-41.5 -338t-124 -229.5t-197.5 -128.5t-268 -41h-506v625h-151q-12 44 -12 107.5t12 103.5h151v639zM514 1219v-383h223q13 -42 12.5 -106t-12.5 -105h-223v-369h168q59 0 102.5 12t82 43.5t62.5 85
t38 139t14 201.5q0 118 -14 203.5t-38 139t-62.5 85t-82 43t-102.5 11.5h-168z" />
    <glyph glyph-name="Ntilde" unicode="&#xd1;" horiz-adv-x="1433" 
d="M877 1745q33 0 60 13.5t37 26.5l11 13q43 -22 71 -66t34 -92q-3 -4 -9 -11t-26.5 -25t-43.5 -32t-59.5 -25t-74.5 -11q-69 0 -143 33t-120 33q-30 0 -56.5 -13.5t-37.5 -26.5l-12 -14q-96 53 -105 158q3 4 9.5 11t27 25t43.5 32t58.5 25t72.5 11q71 0 144 -32.5
t119 -32.5zM883 18l-346 748q-35 77 -65.5 163t-43.5 133l-14 48h-11q23 -170 23 -391v-701q-49 -18 -147 -18q-43 0 -78 4.5t-49 9.5l-13 4v1438q70 19 207 19q62 0 112.5 -4.5t70.5 -9.5l20 -5l340 -741q34 -77 65.5 -169t46.5 -145l15 -53h10q-18 197 -18 416v692
q53 19 145 19q43 0 78 -4.5t49 -9.5l14 -5v-1438q-63 -18 -202 -18q-59 0 -111.5 4.5t-74.5 9.5z" />
    <glyph glyph-name="Ograve" unicode="&#xd2;" horiz-adv-x="1411" 
d="M713 1933l186 -303q-54 -71 -174 -88l-281 285q32 52 112.5 83.5t156.5 22.5zM86 737q0 383 163.5 572.5t455.5 189.5q295 0 457.5 -187.5t162.5 -574.5q0 -388 -161.5 -575t-458.5 -187q-296 0 -457.5 187t-161.5 575zM977 737q0 150 -17.5 250.5t-54.5 156t-84.5 77.5
t-115.5 22q-52 0 -92 -13.5t-75 -47.5t-57 -90.5t-34.5 -145.5t-12.5 -209q0 -149 18.5 -249.5t55.5 -155.5t84 -77t113 -22q68 0 115.5 22t84.5 77t54.5 155.5t17.5 249.5z" />
    <glyph glyph-name="Oacute" unicode="&#xd3;" horiz-adv-x="1411" 
d="M616 1667l187 301q75 9 155.5 -22.5t112.5 -83.5l-278 -285q-127 21 -177 90zM86 737q0 383 163.5 572.5t455.5 189.5q295 0 457.5 -187.5t162.5 -574.5q0 -388 -161.5 -575t-458.5 -187q-296 0 -457.5 187t-161.5 575zM977 737q0 150 -17.5 250.5t-54.5 156t-84.5 77.5
t-115.5 22q-52 0 -92 -13.5t-75 -47.5t-57 -90.5t-34.5 -145.5t-12.5 -209q0 -149 18.5 -249.5t55.5 -155.5t84 -77t113 -22q68 0 115.5 22t84.5 77t54.5 155.5t17.5 249.5z" />
    <glyph glyph-name="Ocircumflex" unicode="&#xd4;" horiz-adv-x="1409" 
d="M741 1946l322 -271q-22 -47 -58 -84t-81 -55l-219 137l-216 -135q-92 38 -139 137l318 271h73zM84 737q0 194 43.5 340.5t125.5 238.5t195 137.5t257 45.5q294 0 456 -187.5t162 -574.5q0 -388 -161.5 -575t-456.5 -187q-297 0 -459 187t-162 575zM977 737
q0 150 -18 250.5t-55 156t-84 77.5t-115 22q-53 0 -93 -13.5t-75 -47.5t-57.5 -90.5t-35 -145.5t-12.5 -209t12.5 -208.5t35 -144.5t57.5 -90t75 -47.5t93 -13.5q68 0 115 22t84 77t55 155.5t18 249.5z" />
    <glyph glyph-name="Otilde" unicode="&#xd5;" horiz-adv-x="1411" 
d="M844 1782q32 2 58 16t36 28l10 13q43 -20 73 -62.5t38 -88.5q-3 -4 -8.5 -11.5t-25.5 -26.5t-42.5 -34t-58.5 -27.5t-74 -13.5q-61 -2 -139 28t-125 29q-30 -1 -56.5 -15t-37.5 -28l-11 -14q-97 46 -110 154q3 4 9 11.5t26.5 26t43 32.5t58 26.5t72.5 13.5q70 2 144 -28
t120 -29zM707 -25q-297 0 -459 187t-162 575q0 194 43.5 340.5t125.5 238.5t195 137.5t257 45.5q294 0 456 -187.5t162 -574.5q0 -388 -161.5 -575t-456.5 -187zM707 1243q-53 0 -93 -13.5t-75 -47.5t-57.5 -90.5t-35 -145.5t-12.5 -209t12.5 -208.5t35 -144.5t57.5 -90
t75 -47.5t93 -13.5q68 0 115 22t84 77t55 155.5t18 249.5q0 150 -18 250.5t-55 156t-84 77.5t-115 22z" />
    <glyph glyph-name="Odieresis" unicode="&#xd6;" horiz-adv-x="1411" 
d="M373 1808q45 15 135 15q38 0 72 -3.5t48 -7.5l15 -4v-235q-49 -14 -135 -14q-40 0 -73.5 3.5t-47.5 7.5l-14 3v235zM774 1808q45 15 135 15q39 0 73 -3.5t48 -7.5l14 -4v-235q-47 -14 -135 -14q-39 0 -73 3.5t-48 7.5l-14 3v235zM86 737q0 383 163.5 572.5t455.5 189.5
q295 0 457.5 -187.5t162.5 -574.5q0 -388 -161.5 -575t-458.5 -187q-296 0 -457.5 187t-161.5 575zM977 737q0 150 -17.5 250.5t-54.5 156t-84.5 77.5t-115.5 22q-52 0 -92 -13.5t-75 -47.5t-57 -90.5t-34.5 -145.5t-12.5 -209q0 -149 18.5 -249.5t55.5 -155.5t84 -77
t113 -22q68 0 115.5 22t84.5 77t54.5 155.5t17.5 249.5z" />
    <glyph glyph-name="multiply" unicode="&#xd7;" horiz-adv-x="962" 
d="M483 432l-233 -233q-43 18 -92 69q-22 22 -39 44.5t-23 33.5l-6 12l234 234l-234 233q19 41 68 90q22 22 45 39.5t35 23.5l12 7l233 -235l234 235q41 -19 90 -70q23 -22 39.5 -44.5t21.5 -34.5l6 -11l-233 -233l233 -234q-16 -43 -67 -92q-22 -22 -44.5 -38.5
t-34.5 -22.5l-11 -6z" />
    <glyph glyph-name="Oslash" unicode="&#xd8;" horiz-adv-x="1409" 
d="M987 1440l88 143q59 -1 116.5 -29.5t92.5 -70.5l-113 -185q152 -194 152 -561q0 -388 -161.5 -575t-456.5 -187q-176 0 -302 66l-90 -150q-60 2 -118 30t-93 73l121 196q-139 190 -139 547q0 194 43.5 340.5t125.5 238.5t195 137.5t257 45.5q158 0 282 -59zM856 1198
q-59 45 -151 45q-53 0 -93 -13.5t-75 -47.5t-57.5 -90.5t-35 -145.5t-12.5 -209q0 -127 17 -205zM956 958l-409 -675q55 -50 158 -50q68 0 115 22t84 77t55 155.5t18 249.5q0 118 -21 221z" />
    <glyph glyph-name="Ugrave" unicode="&#xd9;" 
d="M680 1534l-281 285q32 52 112.5 83.5t156.5 22.5l186 -301q-50 -69 -174 -90zM1249 1456v-942q0 -255 -152 -397t-409 -142q-256 0 -406.5 143t-150.5 396v942q58 19 162 19q46 0 87 -4.5t59 -9.5l18 -5v-967q0 -115 60.5 -176t174.5 -61q115 0 174.5 60.5t59.5 176.5
v967q55 19 159 19q46 0 87 -4.5t59 -9.5z" />
    <glyph glyph-name="Uacute" unicode="&#xda;" 
d="M979 1823l-281 -287q-121 20 -174 90l187 303q75 8 155.5 -23.5t112.5 -82.5zM1249 1456v-942q0 -255 -152 -397t-409 -142q-256 0 -406.5 143t-150.5 396v942q58 19 162 19q46 0 87 -4.5t59 -9.5l18 -5v-967q0 -115 60.5 -176t174.5 -61q115 0 174.5 60.5t59.5 176.5
v967q55 19 159 19q46 0 87 -4.5t59 -9.5z" />
    <glyph glyph-name="Ucircumflex" unicode="&#xdb;" 
d="M745 1946l322 -271q-52 -102 -139 -139l-219 137l-215 -135q-91 37 -142 137l320 271h73zM1249 1456v-942q0 -255 -151 -397t-408 -142q-256 0 -407.5 143.5t-151.5 395.5v942q58 19 162 19q47 0 88.5 -4.5t59.5 -9.5l18 -5v-967q0 -116 60 -176.5t175 -60.5
q114 0 174 61t60 176v967q53 19 157 19q46 0 87 -4.5t59 -9.5z" />
    <glyph glyph-name="Udieresis" unicode="&#xdc;" 
d="M629 1786v-236q-49 -14 -135 -14q-40 0 -74 3.5t-48 6.5l-14 4v236q46 14 136 14q38 0 72 -3.5t48 -6.5zM1030 1786v-236q-49 -14 -135 -14q-40 0 -73.5 3.5t-47.5 6.5l-14 4v236q45 14 135 14q38 0 72 -3.5t49 -6.5zM1249 1456v-942q0 -255 -152 -397t-409 -142
q-256 0 -406.5 143t-150.5 396v942q58 19 162 19q46 0 87 -4.5t59 -9.5l18 -5v-967q0 -115 60.5 -176t174.5 -61q115 0 174.5 60.5t59.5 176.5v967q55 19 159 19q46 0 87 -4.5t59 -9.5z" />
    <glyph glyph-name="Yacute" unicode="&#xdd;" horiz-adv-x="1331" 
d="M502 1626l186 303q75 8 155.5 -23.5t112.5 -82.5l-280 -287q-121 20 -174 90zM979 1456q66 19 170 19q46 0 90 -4.5t65 -9.5l21 -5l-498 -872v-566q-55 -18 -159 -18q-52 0 -93.5 4.5t-56.5 9.5l-16 4v564l-486 874q68 19 195 19q49 0 93.5 -4.5t64.5 -9.5l20 -5
l293 -534z" />
    <glyph glyph-name="Thorn" unicode="&#xde;" horiz-adv-x="1247" 
d="M141 1456q58 19 158 19q45 0 85.5 -4.5t58.5 -9.5l18 -5v-229h258q217 0 344 -127t127 -340t-127 -340t-344 -127h-258v-275q-62 -18 -160 -18q-48 0 -88 4.5t-56 9.5l-16 4v1438zM461 973v-426h192q205 0 205 213t-205 213h-192z" />
    <glyph glyph-name="germandbls" unicode="&#xdf;" horiz-adv-x="1196" 
d="M113 16v1117q0 201 124 302t355 101q211 0 324.5 -105.5t115.5 -273.5q0 -96 -33 -186q-20 -2 -45 -10t-56.5 -24t-52 -47t-20.5 -71q0 -37 18 -69.5t47.5 -58t64.5 -51.5t70 -57t64.5 -67.5t47.5 -89.5t18 -117q0 -162 -103 -245.5t-276 -83.5q-69 0 -133.5 10t-94.5 20
l-30 10q-12 125 62 213q75 -22 139 -22q58 0 94.5 23t36.5 73q0 29 -18 56.5t-46 51.5t-62.5 49.5t-69 56.5t-62.5 67t-46 86.5t-18 109.5q0 42 10 80t25.5 66t34.5 51.5t38.5 39t35 26.5t25.5 15l10 5q16 53 16 92q-2 62 -37.5 100.5t-99.5 38.5q-84 0 -124 -43t-40 -137
v-1102q-60 -16 -158 -16q-46 0 -84 4t-52 8z" />
    <glyph glyph-name="agrave" unicode="&#xe0;" horiz-adv-x="1058" 
d="M475 1610l187 -301q-50 -69 -175 -90l-280 284q32 52 112.5 84t155.5 23zM133 1020q7 3 19 9t52.5 21t83 26t106.5 20.5t128 9.5q228 0 330 -92.5t102 -288.5v-709q-45 -16 -131 -16q-36 0 -69 4t-48 8l-14 4l-37 101q-69 -137 -286 -137q-154 0 -236 89t-82 267
q0 172 102.5 251t307.5 79q59 0 178 -9v43q0 146 -168 146q-56 0 -118.5 -12t-96.5 -24l-35 -11q-40 30 -67 96q-13 29 -18 60.5t-4 48.5zM639 467q-61 6 -131 6t-105.5 -33t-35.5 -106q0 -77 29.5 -110.5t88.5 -33.5q54 0 89.5 32t50 79t14.5 105v61z" />
    <glyph glyph-name="aacute" unicode="&#xe1;" horiz-adv-x="1058" 
d="M336 1309l186 301q75 9 156 -23t113 -84l-279 -284q-126 21 -176 90zM133 1020q7 3 19 9t52.5 21t83 26t106.5 20.5t128 9.5q228 0 330 -92.5t102 -288.5v-709q-45 -16 -131 -16q-36 0 -69 4t-48 8l-14 4l-37 101q-69 -137 -286 -137q-154 0 -236 89t-82 267
q0 172 102.5 251t307.5 79q59 0 178 -9v43q0 146 -168 146q-56 0 -118.5 -12t-96.5 -24l-35 -11q-40 30 -67 96q-13 29 -18 60.5t-4 48.5zM639 467q-61 6 -131 6t-105.5 -33t-35.5 -106q0 -77 29.5 -110.5t88.5 -33.5q54 0 89.5 32t50 79t14.5 105v61z" />
    <glyph glyph-name="acircumflex" unicode="&#xe2;" horiz-adv-x="1058" 
d="M575 1618l316 -264q-54 -103 -137 -135l-213 133l-211 -131q-88 33 -137 133l311 264h71zM133 1020q7 3 19 9t52.5 21t83 26t106.5 20.5t128 9.5q228 0 330 -92.5t102 -288.5v-709q-45 -16 -131 -16q-36 0 -69 4t-48 8l-14 4l-37 101q-69 -137 -286 -137q-154 0 -236 89
t-82 267q0 172 102.5 251t307.5 79q59 0 178 -9v50q0 139 -168 139q-56 0 -118.5 -12t-96.5 -24l-35 -11q-40 30 -67 96q-13 29 -18 60.5t-4 48.5zM639 467q-61 6 -131 6t-105.5 -33t-35.5 -106q0 -77 29.5 -110.5t88.5 -33.5q54 0 89.5 32t50 79t14.5 105v61z" />
    <glyph glyph-name="atilde" unicode="&#xe3;" horiz-adv-x="1058" 
d="M190 1391q3 4 9.5 11t27.5 25t44.5 32t59 25t72.5 11q69 0 143 -32.5t120 -32.5q32 0 58.5 13t37.5 27l10 13q43 -23 71.5 -67t33.5 -91q-3 -4 -9 -11t-26.5 -25t-43 -32t-58.5 -25t-74 -11q-71 0 -144 32.5t-119 32.5q-31 0 -58 -13t-39 -27l-11 -13q-96 55 -105 158z
M133 1020q7 3 19 9t52.5 21t83 26t106.5 20.5t128 9.5q228 0 330 -92.5t102 -288.5v-709q-45 -16 -131 -16q-36 0 -69 4t-48 8l-14 4l-37 101q-69 -137 -286 -137q-154 0 -236 89t-82 267q0 172 102.5 251t307.5 79q59 0 178 -9v54q0 71 -39.5 103t-128.5 32
q-56 0 -118.5 -12t-96.5 -24l-35 -11q-40 30 -67 96q-13 29 -18 60.5t-4 48.5zM639 467q-61 6 -131 6t-105.5 -33t-35.5 -106q0 -77 29.5 -110.5t88.5 -33.5q54 0 89.5 32t50 79t14.5 105v61z" />
    <glyph glyph-name="adieresis" unicode="&#xe4;" horiz-adv-x="1058" 
d="M203 1468q45 15 135 15q39 0 73 -3.5t48 -7.5l14 -4v-235q-47 -14 -135 -14q-39 0 -73 3.5t-48 7.5l-14 3v235zM606 1468q45 15 135 15q38 0 72 -3.5t49 -7.5l15 -4v-235q-50 -14 -136 -14q-40 0 -73.5 3.5t-47.5 7.5l-14 3v235zM133 1020q7 3 19 9t52.5 21t83 26
t106.5 20.5t128 9.5q228 0 330 -92.5t102 -288.5v-709q-45 -16 -131 -16q-36 0 -69 4t-48 8l-14 4l-37 101q-69 -137 -286 -137q-154 0 -236 89t-82 267q0 172 102.5 251t307.5 79q59 0 178 -9v48q0 141 -168 141q-56 0 -118.5 -12t-96.5 -24l-35 -11q-40 30 -67 96
q-13 29 -18 60.5t-4 48.5zM639 467q-61 6 -131 6t-105.5 -33t-35.5 -106q0 -77 29.5 -110.5t88.5 -33.5q54 0 89.5 32t50 79t14.5 105v61z" />
    <glyph glyph-name="aring" unicode="&#xe5;" horiz-adv-x="1058" 
d="M252 1434q0 114 83 177.5t200 63.5q115 0 199.5 -63.5t84.5 -177.5q0 -116 -82.5 -182t-204.5 -66q-123 0 -201.5 66t-78.5 182zM633 1434q0 36 -26.5 61t-74.5 25q-45 0 -70.5 -25.5t-25.5 -60.5q0 -36 25.5 -61t70.5 -25q48 0 74.5 25.5t26.5 60.5zM133 1020q7 3 19 9
t52.5 21t83 26t106.5 20.5t128 9.5q228 0 330 -92.5t102 -288.5v-709q-45 -16 -131 -16q-36 0 -69 4t-48 8l-14 4l-37 101q-69 -137 -286 -137q-154 0 -236 89t-82 267q0 172 102.5 251t307.5 79q59 0 178 -9v43q0 71 -39 108.5t-129 37.5q-56 0 -118.5 -12t-96.5 -24
l-35 -11q-40 30 -67 96q-13 29 -18 60.5t-4 48.5zM639 467q-61 6 -131 6t-105.5 -33t-35.5 -106q0 -77 29.5 -110.5t88.5 -33.5q54 0 89.5 32t50 79t14.5 105v61z" />
    <glyph glyph-name="ae" unicode="&#xe6;" horiz-adv-x="1581" 
d="M813 983q123 123 287 123q197 0 309.5 -107.5t112.5 -320.5q0 -56 -6 -111.5t-12 -82.5l-5 -27h-555q13 -120 66.5 -175t148.5 -55q54 0 106.5 12t78.5 23l26 12q37 -31 62.5 -86t29.5 -116q-5 -4 -14 -10t-41.5 -22t-70 -28t-100 -22t-130.5 -10q-76 0 -140 18.5
t-105.5 48t-66 55t-40.5 52.5q-111 -174 -355 -174q-348 0 -348 354q0 169 103 245t307 76h164v56q0 68 -36.5 101.5t-123.5 33.5q-55 0 -115.5 -12t-93.5 -24l-33 -11q-87 90 -90 221l18 9t51.5 21t81.5 26t105.5 20.5t126.5 9.5q200 0 297 -123zM1219 709q0 168 -121 168
q-65 0 -105 -52.5t-51 -173.5h272q5 29 5 58zM625 463h-119q-74 0 -105.5 -31t-31.5 -104q0 -133 106 -133q76 0 113 57t37 151v60z" />
    <glyph glyph-name="ccedilla" unicode="&#xe7;" horiz-adv-x="917" 
d="M580 -20l-15 -78q213 0 213 -203q0 -103 -71.5 -157t-194.5 -54q-62 0 -115.5 12t-76.5 24l-23 13q-2 33 12.5 67.5t38.5 51.5q60 -27 133 -27q53 -2 88 16.5t35 61.5q0 72 -90 72h-106l-29 33l33 180q-340 73 -340 547q0 567 479 567q94 0 170.5 -16t106.5 -32l30 -16
q-6 -118 -90 -202q-64 26 -158 26q-114 0 -162.5 -77.5t-48.5 -247.5q0 -165 51.5 -240.5t167.5 -75.5q44 0 86.5 7.5t63.5 15.5l20 8q79 -75 91 -205q-4 -3 -11.5 -7t-35 -16t-59 -21t-84 -17t-109.5 -10z" />
    <glyph glyph-name="egrave" unicode="&#xe8;" horiz-adv-x="1054" 
d="M547 1219l-281 284q32 52 113 84t156 23l186 -301q-50 -69 -174 -90zM973 449h-572q13 -119 67.5 -165t154.5 -46q56 0 110.5 12t80.5 24l26 13q38 -33 65.5 -94t30.5 -121q-5 -4 -14.5 -10t-44 -22t-73.5 -28t-102 -22t-131 -10q-253 0 -376 139.5t-123 425.5
q0 284 127 422.5t358 138.5q206 0 322 -108.5t116 -323.5q0 -60 -5.5 -116t-11.5 -82zM690 709q0 168 -129 168q-140 0 -162 -232h289q2 20 2 64z" />
    <glyph glyph-name="eacute" unicode="&#xe9;" horiz-adv-x="1054" 
d="M799 1503l-279 -284q-126 21 -176 90l186 301q75 9 156 -23t113 -84zM973 449h-572q13 -119 67.5 -165t154.5 -46q56 0 110.5 12t80.5 24l26 13q38 -33 65.5 -94t30.5 -121q-5 -4 -14.5 -10t-44 -22t-73.5 -28t-102 -22t-131 -10q-253 0 -376 139.5t-123 425.5
q0 284 127 422.5t358 138.5q206 0 322 -108.5t116 -323.5q0 -60 -5.5 -116t-11.5 -82zM690 709q0 168 -129 168q-140 0 -162 -232h289q2 20 2 64z" />
    <glyph glyph-name="ecircumflex" unicode="&#xea;" horiz-adv-x="1054" 
d="M584 1618l315 -264q-54 -103 -137 -135l-213 133l-211 -131q-88 33 -137 133l311 264h72zM973 449h-572q13 -119 67.5 -165t154.5 -46q56 0 110.5 12t80.5 24l26 13q38 -33 65.5 -94t30.5 -121q-5 -4 -14.5 -10t-44 -22t-73.5 -28t-102 -22t-131 -10q-253 0 -376 139.5
t-123 425.5q0 284 127 422.5t358 138.5q206 0 322 -108.5t116 -323.5q0 -60 -5.5 -116t-11.5 -82zM690 709q0 168 -129 168q-140 0 -162 -232h289q2 20 2 64z" />
    <glyph glyph-name="edieresis" unicode="&#xeb;" horiz-adv-x="1054" 
d="M481 1468v-235q-47 -14 -135 -14q-39 0 -73 3.5t-48 7.5l-14 3v235q45 15 135 15q39 0 73 -3.5t48 -7.5zM885 1468v-235q-49 -14 -135 -14q-40 0 -74 3.5t-48 7.5l-14 3v235q46 15 136 15q38 0 72 -3.5t48 -7.5zM973 449h-572q13 -119 67.5 -165t154.5 -46q56 0 110.5 12
t80.5 24l26 13q38 -33 65.5 -94t30.5 -121q-5 -4 -14.5 -10t-44 -22t-73.5 -28t-102 -22t-131 -10q-253 0 -376 139.5t-123 425.5q0 284 127 422.5t358 138.5q206 0 322 -108.5t116 -323.5q0 -60 -5.5 -116t-11.5 -82zM690 709q0 168 -129 168q-140 0 -162 -232h289
q2 20 2 64z" />
    <glyph glyph-name="igrave" unicode="&#xec;" horiz-adv-x="542" 
d="M264 1223l-280 284q32 52 112.5 84t155.5 23l186 -301q-53 -73 -174 -90zM430 1069v-1053q-56 -16 -158 -16q-47 0 -86.5 4t-55.5 8l-15 4v1053q51 16 157 16q45 0 84.5 -4t56.5 -8z" />
    <glyph glyph-name="iacute" unicode="&#xed;" horiz-adv-x="542" 
d="M541 1503l-281 -284q-124 21 -174 90l186 301q75 9 156 -23t113 -84zM430 1069v-1053q-56 -16 -158 -16q-46 0 -85.5 4t-55.5 8l-16 4v1053q51 16 157 16q45 0 84.5 -4t56.5 -8z" />
    <glyph glyph-name="icircumflex" unicode="&#xee;" horiz-adv-x="542" 
d="M309 1618l316 -264q-54 -102 -138 -135l-213 133l-213 -131q-84 33 -137 133l314 264h71zM430 1069v-1053q-56 -16 -158 -16q-46 0 -85.5 4t-55.5 8l-16 4v1053q51 16 157 16q45 0 84.5 -4t56.5 -8z" />
    <glyph glyph-name="idieresis" unicode="&#xef;" horiz-adv-x="542" 
d="M205 1468v-235q-47 -14 -135 -14q-39 0 -73 3.5t-49 7.5l-14 3v235q46 15 136 15q39 0 73 -3.5t48 -7.5zM608 1468v-235q-49 -14 -135 -14q-40 0 -73.5 3.5t-47.5 7.5l-14 3v235q45 15 135 15q38 0 72 -3.5t49 -7.5zM430 1069v-1053q-56 -16 -158 -16q-47 0 -86.5 4
t-55.5 8l-15 4v1053q51 16 157 16q45 0 84.5 -4t56.5 -8z" />
    <glyph glyph-name="eth" unicode="&#xf0;" horiz-adv-x="1144" 
d="M911 1384l-116 -67q131 -120 202.5 -294.5t71.5 -393.5q0 -148 -24 -260.5t-66.5 -186t-107.5 -119t-140 -64.5t-170 -19q-112 0 -199.5 29t-154 91t-102 167t-35.5 249q0 522 471 522q111 0 188 -47q-47 122 -143 203l-224 -133q-75 60 -98 158l144 84q-81 32 -166 49
q-13 121 53 184q188 -25 334 -104l188 110q35 -27 60 -70t34 -88zM561 213q34 0 59 7t47 27t36 53.5t22 87.5t8 128q0 76 -8 130.5t-21.5 88t-36 53t-47.5 26.5t-59 7q-57 0 -91.5 -23t-55.5 -91.5t-21 -190.5t21 -190t55.5 -90.5t91.5 -22.5z" />
    <glyph glyph-name="ntilde" unicode="&#xf1;" horiz-adv-x="1120" 
d="M201 1384q3 4 9.5 11t27.5 25.5t44.5 32t59 25t72.5 11.5q69 0 142.5 -33t119.5 -33q32 0 58.5 13.5t37.5 27.5l10 13q43 -21 71.5 -65.5t33.5 -90.5q-3 -4 -9 -11t-26.5 -25t-43 -32t-58.5 -25t-74 -11q-71 0 -143.5 32.5t-118.5 32.5q-20 0 -38 -5.5t-30.5 -13
t-22 -15.5t-13.5 -14l-5 -5q-95 51 -104 155zM426 1008q107 98 274 98q153 0 233.5 -83t80.5 -224v-783q-54 -16 -158 -16q-47 0 -86.5 4t-55.5 8l-16 4v719q0 123 -131 123q-78 0 -141 -57v-785q-56 -16 -158 -16q-47 0 -86.5 4t-55.5 8l-15 4v1053q51 16 157 16
q45 0 84.5 -4t56.5 -8l17 -4v-61z" />
    <glyph glyph-name="ograve" unicode="&#xf2;" horiz-adv-x="1132" 
d="M494 1610l188 -301q-53 -70 -176 -90l-281 284q32 52 113 84t156 23zM72 543q0 563 493 563q496 0 496 -563t-496 -563q-493 0 -493 563zM733 543q0 125 -21 198t-56 99t-91 26q-41 0 -70.5 -14.5t-52 -50t-34 -99.5t-11.5 -159q0 -125 21 -198.5t56.5 -100.5t90.5 -27
q56 0 91.5 27t56 100t20.5 199z" />
    <glyph glyph-name="oacute" unicode="&#xf3;" horiz-adv-x="1134" 
d="M356 1309l187 301q75 9 155.5 -23t112.5 -84l-279 -284q-126 21 -176 90zM72 543q0 563 495 563q496 0 496 -563t-496 -563q-495 0 -495 563zM733 543q0 126 -20 198.5t-55 98.5t-91 26q-41 0 -70.5 -14.5t-52 -50t-34 -99.5t-11.5 -159q0 -125 21 -198.5t56.5 -100.5
t90.5 -27q56 0 91 27t55 100t20 199z" />
    <glyph glyph-name="ocircumflex" unicode="&#xf4;" horiz-adv-x="1134" 
d="M596 1602l315 -265q-53 -100 -137 -133l-213 133l-211 -131q-89 34 -137 131l311 265h72zM72 543q0 563 495 563q496 0 496 -563t-496 -563q-495 0 -495 563zM733 543q0 126 -20 198.5t-55 98.5t-91 26q-41 0 -70.5 -14.5t-52 -50t-34 -99.5t-11.5 -159q0 -125 21 -198.5
t56.5 -100.5t90.5 -27q56 0 91 27t55 100t20 199z" />
    <glyph glyph-name="otilde" unicode="&#xf5;" horiz-adv-x="1132" 
d="M211 1386q3 4 9.5 11t27.5 25.5t44.5 32t59 25t72.5 11.5q69 0 142.5 -33t119.5 -33q32 0 59 13.5t37 27.5l11 13q43 -21 71 -65t33 -91q-3 -4 -9 -11t-26.5 -25t-43 -32t-58.5 -25t-74 -11q-71 0 -143.5 32.5t-118.5 32.5q-20 0 -38 -5.5t-30.5 -13t-22 -15.5t-13.5 -14
l-5 -5q-95 51 -104 155zM72 543q0 563 495 563q238 0 366 -134t128 -429q0 -563 -494 -563q-495 0 -495 563zM733 543q0 125 -20.5 198t-55.5 99t-90 26q-56 0 -91 -26t-56 -99t-21 -198q0 -126 20.5 -199t56 -100t91.5 -27q84 0 125 71t41 255z" />
    <glyph glyph-name="odieresis" unicode="&#xf6;" horiz-adv-x="1134" 
d="M223 1468q45 15 135 15q39 0 73 -3.5t49 -7.5l14 -4v-235q-48 -14 -136 -14q-39 0 -73 3.5t-48 7.5l-14 3v235zM627 1468q45 15 135 15q38 0 72 -3.5t48 -7.5l15 -4v-235q-49 -14 -135 -14q-40 0 -73.5 3.5t-47.5 7.5l-14 3v235zM72 543q0 563 495 563q496 0 496 -563
t-496 -563q-495 0 -495 563zM733 543q0 126 -20 198.5t-55 98.5t-91 26q-41 0 -70.5 -14.5t-52 -50t-34 -99.5t-11.5 -159q0 -125 21 -198.5t56.5 -100.5t90.5 -27q56 0 91 27t55 100t20 199z" />
    <glyph glyph-name="divide" unicode="&#xf7;" horiz-adv-x="1038" 
d="M672 1090v-279q-56 -16 -152 -16q-44 0 -81.5 4t-52.5 8l-15 4v279q47 16 149 16q43 0 81 -4t55 -8zM956 481h-874q-14 43 -14 113q0 31 3.5 59.5t6.5 40.5l4 13h874q17 -43 17 -113q0 -31 -4.5 -59.5t-8.5 -40.5zM672 377v-279q-56 -16 -152 -16q-44 0 -81.5 4t-52.5 8
l-15 4v279q47 16 149 16q43 0 81 -4t55 -8z" />
    <glyph glyph-name="oslash" unicode="&#xf8;" horiz-adv-x="1134" 
d="M786 1069l72 117q45 -1 88.5 -24t69.5 -54l-84 -135q131 -140 131 -430q0 -563 -496 -563q-128 0 -219 36l-82 -131q-101 3 -160 78l95 152q-129 142 -129 428q0 563 495 563q126 0 219 -37zM657 840q-36 26 -90 26q-56 0 -91 -26t-56 -99t-21 -198q0 -65 9 -111z
M725 653l-250 -407q36 -29 92 -29t90.5 26t55 98.5t20.5 199.5q0 71 -8 112z" />
    <glyph glyph-name="ugrave" unicode="&#xf9;" horiz-adv-x="1120" 
d="M535 1610l186 -301q-50 -69 -174 -90l-281 284q32 52 113 84t156 23zM694 1069q56 16 158 16q46 0 85.5 -4t56.5 -8l16 -4v-1053q-52 -16 -158 -16q-45 0 -84.5 4t-56.5 8l-17 4v62q-107 -98 -274 -98q-153 0 -233.5 83t-80.5 224v782q54 16 158 16q47 0 86.5 -4t55.5 -8
l16 -4v-721q0 -123 129 -123q79 0 143 58v786z" />
    <glyph glyph-name="uacute" unicode="&#xfa;" horiz-adv-x="1120" 
d="M815 1503l-278 -284q-127 21 -177 90l187 301q75 9 155.5 -23t112.5 -84zM106 287v782q54 16 158 16q47 0 86.5 -4t55.5 -8l16 -4v-721q0 -123 129 -123q79 0 143 58v786q56 16 158 16q46 0 85.5 -4t56.5 -8l16 -4v-1053q-52 -16 -158 -16q-45 0 -84.5 4t-56.5 8l-17 4
v62q-107 -98 -274 -98q-153 0 -233.5 83t-80.5 224z" />
    <glyph glyph-name="ucircumflex" unicode="&#xfb;" horiz-adv-x="1120" 
d="M600 1618l315 -264q-54 -103 -137 -135l-213 133l-211 -131q-88 33 -137 133l311 264h72zM106 287v782q54 16 158 16q47 0 86.5 -4t55.5 -8l16 -4v-721q0 -123 129 -123q79 0 143 58v786q56 16 158 16q46 0 85.5 -4t56.5 -8l16 -4v-1053q-52 -16 -158 -16q-45 0 -84.5 4
t-56.5 8l-17 4v62q-107 -98 -274 -98q-153 0 -233.5 83t-80.5 224z" />
    <glyph glyph-name="udieresis" unicode="&#xfc;" horiz-adv-x="1120" 
d="M227 1468q45 15 135 15q39 0 73 -3.5t49 -7.5l14 -4v-235q-48 -14 -136 -14q-39 0 -73 3.5t-48 7.5l-14 3v235zM631 1468q45 15 135 15q38 0 72 -3.5t48 -7.5l15 -4v-235q-49 -14 -135 -14q-40 0 -73.5 3.5t-47.5 7.5l-14 3v235zM694 1069q56 16 158 16q46 0 85.5 -4
t56.5 -8l16 -4v-1053q-52 -16 -158 -16q-45 0 -84.5 4t-56.5 8l-17 4v62q-107 -98 -274 -98q-153 0 -233.5 83t-80.5 224v782q54 16 158 16q47 0 86.5 -4t55.5 -8l16 -4v-721q0 -123 129 -123q79 0 143 58v786z" />
    <glyph glyph-name="yacute" unicode="&#xfd;" horiz-adv-x="1118" 
d="M827 1503l-278 -284q-126 21 -176 90l186 301q75 9 155.5 -23t112.5 -84zM1096 1069l-353 -1186q-31 -103 -64.5 -171t-84.5 -121.5t-122.5 -78t-170.5 -24.5q-39 0 -78 6t-59 12l-19 7q-18 46 -18 112q0 29 5.5 59t11.5 45l6 15q49 -8 90 -8q43 0 69 6t53.5 25.5
t48.5 59.5t42 107l20 66q-50 0 -96 16l-359 1053q62 16 166 16q48 0 88 -4t56 -8l16 -4l166 -485q24 -70 40 -141t20 -107l5 -35h9q14 123 61 283l146 485q53 16 151 16q42 0 80.5 -4t55.5 -8z" />
    <glyph glyph-name="thorn" unicode="&#xfe;" horiz-adv-x="1148" 
d="M113 1528q57 16 157 16q44 0 83.5 -4t56.5 -8l18 -4v-527q88 105 266 105q86 0 153 -29t119 -92.5t79.5 -174.5t27.5 -267q0 -154 -27 -264.5t-79 -175t-119.5 -94t-155.5 -29.5q-177 0 -264 104v-526q-58 -17 -158 -17q-44 0 -83.5 4.5t-56.5 8.5l-17 4v1970zM741 543
q0 126 -19 196t-52.5 94.5t-91.5 24.5q-67 0 -107.5 -49t-42.5 -131v-260q0 -82 39.5 -137.5t110.5 -55.5q41 0 69 12.5t50.5 46t33 97.5t10.5 162z" />
    <glyph glyph-name="ydieresis" unicode="&#xff;" horiz-adv-x="1118" 
d="M514 1468v-235q-47 -14 -135 -14q-39 0 -72.5 3.5t-46.5 7.5l-14 3v235q43 15 133 15q39 0 73 -3.5t48 -7.5zM918 1468v-235q-50 -14 -136 -14q-40 0 -73.5 3.5t-47.5 7.5l-14 3v235q45 15 135 15q38 0 72 -3.5t49 -7.5zM1096 1069l-353 -1186q-31 -103 -64.5 -171
t-84.5 -121.5t-122.5 -78t-170.5 -24.5q-39 0 -78 6t-59 12l-19 7q-18 46 -18 112q0 29 5.5 59t11.5 45l6 15q49 -8 90 -8q43 0 69 6t53.5 25.5t48.5 59.5t42 107l20 66q-50 0 -96 16l-359 1053q62 16 166 16q48 0 88 -4t56 -8l16 -4l166 -485q24 -70 40 -141t20 -107l5 -35
h9q14 123 61 283l146 485q53 16 151 16q42 0 80.5 -4t55.5 -8z" />
    <glyph glyph-name="Amacron" unicode="&#x100;" 
d="M362 1763h639q22 -85 0 -184h-639q-10 43 -10 94.5t10 89.5zM485 1456q78 19 205 19q61 0 112.5 -4.5t73.5 -9.5l21 -5l467 -1438q-57 -18 -172 -18q-46 0 -85.5 4.5t-56.5 9.5l-16 4l-96 299h-514l-96 -299q-58 -18 -158 -18q-44 0 -82.5 4.5t-55.5 9.5l-16 4zM686 1167
h-8q-14 -110 -55 -239l-123 -371h362l-119 371q-18 58 -32.5 118t-19.5 90z" />
    <glyph glyph-name="amacron" unicode="&#x101;" horiz-adv-x="1058" 
d="M225 1436h621q12 -38 11.5 -86.5t-11.5 -89.5h-621q-20 96 0 176zM133 1020q7 3 19 9t52.5 21t83.5 26t107.5 20.5t128.5 9.5q227 0 328.5 -92.5t101.5 -288.5v-709q-45 -16 -131 -16q-36 0 -68.5 4t-47.5 8l-15 4l-35 101q-72 -137 -288 -137q-153 0 -235.5 89.5
t-82.5 266.5q0 171 103.5 250.5t308.5 79.5q57 0 176 -9v43q0 72 -38.5 109t-127.5 37q-57 0 -119.5 -12t-96.5 -24l-34 -11q-40 30 -69 96q-13 29 -18 60.5t-4 48.5zM639 467q-58 6 -129 6q-70 0 -105.5 -33t-35.5 -106q0 -77 29.5 -110.5t88.5 -33.5q78 0 115 62.5
t37 153.5v61z" />
    <glyph glyph-name="Abreve" unicode="&#x102;" 
d="M682 1800q63 0 118 13t79 27l24 13q45 -17 81.5 -54t51.5 -79q-4 -6 -13 -15.5t-41 -34.5t-69 -44.5t-99.5 -35t-131.5 -15.5t-131 15t-101 36.5t-68.5 42.5t-42.5 36l-13 15q18 43 54 79.5t81 53.5q9 -6 26 -15t74.5 -23.5t120.5 -14.5zM483 1456q80 19 207 19
q61 0 112.5 -4.5t73.5 -9.5l21 -5l467 -1438q-57 -18 -172 -18q-46 0 -85.5 4.5t-56.5 9.5l-16 4l-96 299h-514l-96 -299q-60 -18 -158 -18q-44 0 -82.5 4.5t-55.5 9.5l-16 4zM684 1167h-8q-14 -110 -53 -239l-123 -371h362l-119 371q-19 58 -34 118t-20 90z" />
    <glyph glyph-name="abreve" unicode="&#x103;" horiz-adv-x="1058" 
d="M530 1454q61 0 114.5 14t77.5 28l23 15q44 -19 80.5 -58t51.5 -83q-4 -6 -13 -16.5t-40 -36.5t-68 -45.5t-98 -36t-128 -16.5t-127 15.5t-97.5 37.5t-66 44.5t-41.5 37.5l-12 16q15 45 50 84t79 57q9 -6 25.5 -15.5t72.5 -25.5t117 -16zM133 1020q7 3 19 9t52.5 21t83 26
t106.5 20.5t128 9.5q228 0 330 -92.5t102 -288.5v-709q-45 -16 -131 -16q-36 0 -69 4t-48 8l-14 4l-37 101q-69 -137 -286 -137q-154 0 -236 89t-82 267q0 172 102.5 251t307.5 79q59 0 178 -9v54q0 135 -168 135q-56 0 -118.5 -12t-96.5 -24l-35 -11q-40 30 -67 96
q-13 29 -18 60.5t-4 48.5zM639 467q-61 6 -131 6t-105.5 -33t-35.5 -106q0 -77 29.5 -110.5t88.5 -33.5q54 0 89.5 32t50 79t14.5 105v61z" />
    <glyph glyph-name="Aogonek" unicode="&#x104;" 
d="M1268 -256q15 0 29 2.5t21 5.5l7 2q48 -36 45 -106q-8 -5 -23.5 -13t-61.5 -21t-91 -13q-95 0 -159 55t-64 154q0 132 127 196q-19 2 -35 5t-23 5l-6 2l-96 299h-514l-96 -299q-60 -18 -158 -18q-44 0 -82.5 4.5t-55.5 9.5l-16 4l467 1438q80 19 207 19q61 0 112.5 -4.5
t73.5 -9.5l21 -5l467 -1438q-14 -4 -45 -10q-67 -19 -108.5 -63.5t-41.5 -104.5q0 -48 28.5 -72t70.5 -24zM862 557l-119 371q-19 58 -33.5 118t-19.5 90l-4 31h-8q-16 -110 -55 -239l-123 -371h362z" />
    <glyph glyph-name="aogonek" unicode="&#x105;" horiz-adv-x="1058" 
d="M133 1020q7 3 19 9t52.5 21t83 26t106.5 20.5t128 9.5q228 0 330 -92.5t102 -288.5v-709q-89 -29 -142.5 -83.5t-53.5 -114.5q0 -82 98 -82q16 0 33.5 4t26.5 8l10 4q22 -17 34.5 -51t10.5 -68q-8 -6 -23 -15t-61 -23.5t-92 -14.5q-108 0 -177 54.5t-69 146.5
q0 65 42.5 128.5t123.5 102.5l-39 105q-87 -137 -307 -137q-154 0 -236 89t-82 267q0 172 102.5 251t307.5 79q59 0 178 -9v41q0 77 -37.5 112.5t-130.5 35.5q-56 0 -118.5 -12t-96.5 -24l-35 -11q-40 30 -67 96q-13 29 -18 60.5t-4 48.5zM639 467q-61 6 -131 6t-105.5 -33
t-35.5 -106q0 -77 29.5 -110.5t88.5 -33.5q54 0 89.5 32t50 79t14.5 105v61z" />
    <glyph glyph-name="Cacute" unicode="&#x106;" horiz-adv-x="1165" 
d="M967 1823l-279 -287q-124 21 -176 90l186 303q76 8 156.5 -23.5t112.5 -82.5zM729 -25q-315 0 -480 195t-165 567t165 567t480 195q108 0 202 -20t133 -40l40 -20q6 -132 -94 -225q-111 41 -238 41q-83 0 -143 -23.5t-106.5 -79t-69.5 -154.5t-23 -243t23 -241.5
t69.5 -152t106.5 -77t143 -22.5q62 0 126 11t97 23l33 11q47 -41 72.5 -103t23.5 -129q-6 -3 -16.5 -8.5t-47.5 -19.5t-79.5 -24.5t-110.5 -19t-141 -8.5z" />
    <glyph glyph-name="cacute" unicode="&#x107;" horiz-adv-x="917" 
d="M791 1503l-281 -284q-124 21 -174 90l186 301q75 9 156 -23t113 -84zM610 856q-115 0 -163 -73t-48 -242q0 -164 51 -233.5t168 -69.5q44 0 86.5 7.5t63.5 14.5l20 8q38 -36 62 -94.5t29 -122.5q-4 -3 -12.5 -7.5t-38.5 -17t-65 -22t-92.5 -17t-119.5 -7.5
q-240 0 -359.5 138t-119.5 421q0 567 479 567q94 0 170.5 -16t106.5 -32l30 -16q-3 -61 -27 -119t-63 -96q-64 29 -158 29z" />
    <glyph glyph-name="Ccircumflex" unicode="&#x108;" horiz-adv-x="1165" 
d="M772 1946l322 -271q-52 -102 -140 -139l-219 137l-217 -135q-88 37 -139 137l319 271h74zM729 -25q-315 0 -480 195t-165 567t165 567t480 195q108 0 202 -20t133 -40l40 -20q6 -132 -94 -225q-111 41 -238 41q-83 0 -143 -23.5t-106.5 -79t-69.5 -154.5t-23 -243
t23 -241.5t69.5 -152t106.5 -77t143 -22.5q62 0 126 11t97 23l33 11q47 -41 72.5 -103t23.5 -129q-6 -3 -16.5 -8.5t-47.5 -19.5t-79.5 -24.5t-110.5 -19t-141 -8.5z" />
    <glyph glyph-name="ccircumflex" unicode="&#x109;" horiz-adv-x="917" 
d="M563 1614l307 -260q-50 -99 -133 -131l-209 131l-206 -129q-88 34 -136 129l306 260h71zM610 856q-115 0 -163 -73t-48 -242q0 -164 51 -233.5t168 -69.5q44 0 86.5 7.5t63.5 14.5l20 8q38 -36 62 -94.5t29 -122.5q-4 -3 -12.5 -7.5t-38.5 -17t-65 -22t-92.5 -17
t-119.5 -7.5q-240 0 -359.5 138t-119.5 421q0 567 479 567q94 0 170.5 -16t106.5 -32l30 -16q-3 -61 -27 -119t-63 -96q-64 29 -158 29z" />
    <glyph glyph-name="Cdotaccent" unicode="&#x10a;" horiz-adv-x="1165" 
d="M868 1851v-262q-51 -14 -143 -14q-43 0 -78.5 3.5t-50.5 7.5l-14 3v262q47 15 143 15q41 0 76.5 -4t50.5 -8zM729 -25q-314 0 -479.5 195t-165.5 567t165.5 567t479.5 195q108 0 202.5 -20t134.5 -40l40 -20q3 -133 -96 -225q-111 41 -238 41q-82 0 -142 -23.5
t-106.5 -79t-70 -155t-23.5 -242.5t23.5 -241.5t70 -152.5t106 -76.5t142.5 -22.5q62 0 126 11t97 23l33 11q47 -41 72.5 -103t25.5 -129q-6 -3 -16.5 -8.5t-48 -19.5t-80 -24.5t-111 -19t-141.5 -8.5z" />
    <glyph glyph-name="cdotaccent" unicode="&#x10b;" horiz-adv-x="917" 
d="M678 1497v-256q-49 -16 -141 -16q-43 0 -79 4t-50 8l-15 4v256q48 14 144 14q41 0 76 -3.5t50 -7.5zM610 856q-115 0 -163 -73t-48 -242q0 -164 51 -233.5t168 -69.5q44 0 86.5 7.5t63.5 14.5l20 8q38 -36 62 -94.5t29 -122.5q-4 -3 -12.5 -7.5t-38.5 -17t-65 -22
t-92.5 -17t-119.5 -7.5q-240 0 -359.5 138t-119.5 421q0 567 479 567q94 0 170.5 -16t106.5 -32l30 -16q-3 -61 -27 -119t-63 -96q-64 29 -158 29z" />
    <glyph glyph-name="Ccaron" unicode="&#x10c;" horiz-adv-x="1165" 
d="M692 1536l-321 270q49 103 139 140l219 -138l215 136q91 -37 139 -138l-317 -270h-74zM729 -25q-314 0 -479.5 195t-165.5 567t165.5 567t479.5 195q108 0 202.5 -20t134.5 -40l40 -20q3 -133 -96 -225q-111 41 -238 41q-82 0 -142 -23.5t-106.5 -79t-70 -155
t-23.5 -242.5t23.5 -241.5t70 -152.5t106 -76.5t142.5 -22.5q62 0 126 11t97 23l33 11q47 -41 72.5 -103t25.5 -129q-6 -3 -16.5 -8.5t-48 -19.5t-80 -24.5t-111 -19t-141.5 -8.5z" />
    <glyph glyph-name="ccaron" unicode="&#x10d;" horiz-adv-x="917" 
d="M520 1219l-295 249q47 95 127 129l199 -127l199 125q83 -34 129 -127l-293 -249h-66zM610 856q-115 0 -163 -73t-48 -242q0 -164 51 -233.5t168 -69.5q44 0 86 7.5t62 14.5l20 8q39 -36 63.5 -94.5t29.5 -122.5q-4 -3 -12.5 -7.5t-38.5 -17t-65 -22t-92.5 -17
t-119.5 -7.5q-240 0 -359.5 138t-119.5 421q0 567 477 567q95 0 172 -16t107 -32l30 -16q-3 -61 -27.5 -119.5t-64.5 -95.5q-62 29 -156 29z" />
    <glyph glyph-name="Dcaron" unicode="&#x10e;" horiz-adv-x="1366" 
d="M575 1536l-321 270q53 104 141 140l217 -138l217 136q92 -38 140 -138l-318 -270h-76zM141 1475h506q153 0 268.5 -41t198 -128.5t124.5 -230t42 -338.5t-42 -338t-124.5 -229.5t-198 -128.5t-268.5 -41h-506v1475zM469 256h166q59 0 102.5 12t82 43.5t62.5 85t38 139
t14 201.5q0 118 -14 203.5t-38 139t-62.5 85t-82 43t-102.5 11.5h-166v-963z" />
    <glyph glyph-name="dcaron" unicode="&#x10f;" horiz-adv-x="1183" 
d="M1104 1227q60 75 80.5 139t13.5 160q157 30 246 -29q-9 -111 -64.5 -202.5t-136.5 -129.5q-92 3 -139 62zM721 1520q60 16 160 16q44 0 83 -4t56 -8l16 -4v-1504q-57 -16 -141 -16q-38 0 -74 4t-53 8l-16 4l-15 84q-90 -120 -276 -120q-89 0 -157.5 29t-120.5 93
t-79.5 174t-27.5 263q0 301 98.5 434t286.5 133q170 0 260 -107v521zM721 688q-5 76 -43.5 123t-104.5 47q-59 0 -93 -25t-53 -95.5t-19 -198.5q0 -124 19 -193.5t53 -95t93 -25.5q67 0 106.5 48t41.5 124v291z" />
    <glyph glyph-name="Dcroat" unicode="&#x110;" horiz-adv-x="1411" 
d="M188 1475h506q153 0 268 -41t197.5 -128.5t124 -230t41.5 -338.5t-41.5 -338t-124 -229.5t-197.5 -128.5t-268 -41h-506v625h-151q-12 44 -12 107.5t12 103.5h151v639zM514 1219v-383h223q13 -42 12.5 -106t-12.5 -105h-223v-369h168q59 0 102.5 12t82 43.5t62.5 85
t38 139t14 201.5q0 118 -14 203.5t-38 139t-62.5 85t-82 43t-102.5 11.5h-168z" />
    <glyph glyph-name="dcroat" unicode="&#x111;" horiz-adv-x="1148" 
d="M1157 1407q12 -35 12 -90q0 -24 -3 -47t-6 -34l-3 -11h-121v-1209q-57 -16 -141 -16q-39 0 -75 4t-52 8l-16 4l-17 84q-87 -120 -276 -120q-89 0 -157 29t-120 93t-79 174t-27 263q0 154 26 264.5t77 176t120 96t160 30.5q169 0 262 -107v226h-211q-12 37 -12 92
q0 24 3 46.5t6 32.5l3 11h211v113q60 16 160 16q44 0 83 -4t56 -8l16 -4v-113h121zM721 397v291q-5 76 -43.5 123t-104.5 47q-59 0 -93 -25t-53 -95.5t-19 -198.5q0 -124 19 -193.5t53 -95t93 -25.5q67 0 106.5 48t41.5 124z" />
    <glyph glyph-name="Emacron" unicode="&#x112;" horiz-adv-x="1142" 
d="M897 1579h-637q-12 43 -12 94.5t12 89.5h637q12 -41 11.5 -92t-11.5 -92zM141 1475h897q21 -65 21 -119q0 -70 -21 -131h-569v-357h467q20 -70 20 -120q0 -65 -20 -127h-467v-371h590q20 -55 20 -123q0 -74 -20 -127h-918v1475z" />
    <glyph glyph-name="emacron" unicode="&#x113;" horiz-adv-x="1054" 
d="M842 1247h-570q-10 41 -10 93t10 87h570q12 -37 12 -89.5t-12 -90.5zM973 449h-572q13 -119 67.5 -165t154.5 -46q56 0 110 12t79 24l26 13q39 -33 67 -94t29 -121q-5 -4 -14.5 -10t-43.5 -22t-72.5 -28t-101.5 -22t-131 -10q-253 0 -376 139.5t-123 425.5
q0 284 127 422.5t358 138.5q206 0 322 -108.5t116 -323.5q0 -60 -5.5 -116t-11.5 -82zM690 709q0 168 -129 168q-143 0 -162 -232h287q4 40 4 64z" />
    <glyph glyph-name="Ebreve" unicode="&#x114;" horiz-adv-x="1142" 
d="M932 1720q-4 -6 -13 -15.5t-40.5 -34.5t-69 -44.5t-99.5 -35t-130 -15.5q-69 0 -131 15t-101.5 36.5t-69 42.5t-42.5 36l-13 15q15 42 52 79t83 54q9 -6 26.5 -15t75 -23.5t120.5 -14.5t118 13t79 27l24 13q45 -17 81 -54t50 -79zM141 1475h897q21 -65 21 -119
q0 -70 -21 -131h-569v-357h467q20 -70 20 -120q0 -65 -20 -127h-467v-371h590q20 -55 20 -123q0 -74 -20 -127h-918v1475z" />
    <glyph glyph-name="ebreve" unicode="&#x115;" horiz-adv-x="1054" 
d="M899 1370q-4 -6 -12.5 -16.5t-40 -36.5t-68 -45.5t-97.5 -36t-128 -16.5t-127 15.5t-97.5 37.5t-66 44.5t-40.5 37.5l-13 16q15 45 50 84t79 57q9 -6 25.5 -15.5t72.5 -25.5t117 -16t114.5 14t76.5 28l24 15q45 -18 80.5 -57t50.5 -84zM973 449h-572q13 -119 67.5 -165
t154.5 -46q56 0 110.5 12t80.5 24l26 13q38 -33 65.5 -94t30.5 -121q-5 -4 -14.5 -10t-44 -22t-73.5 -28t-102 -22t-131 -10q-253 0 -376 139.5t-123 425.5q0 284 127 422.5t358 138.5q206 0 322 -108.5t116 -323.5q0 -60 -5.5 -116t-11.5 -82zM690 709q0 168 -129 168
q-140 0 -162 -232h289q2 20 2 64z" />
    <glyph glyph-name="Edotaccent" unicode="&#x116;" horiz-adv-x="1142" 
d="M725 1851v-262q-51 -14 -143 -14q-43 0 -78.5 3.5t-49.5 7.5l-14 3v262q46 15 142 15q41 0 76.5 -4t51.5 -8zM141 1475h897q21 -65 21 -119q0 -70 -21 -131h-569v-357h467q20 -70 20 -120q0 -65 -20 -127h-467v-371h590q20 -55 20 -123q0 -74 -20 -127h-918v1475z" />
    <glyph glyph-name="edotaccent" unicode="&#x117;" horiz-adv-x="1054" 
d="M694 1497v-262q-51 -16 -141 -16q-43 0 -78.5 4t-50.5 8l-14 4v262q47 14 143 14q40 0 75 -3.5t50 -7.5zM973 449h-572q13 -119 67.5 -165t154.5 -46q56 0 110.5 12t80.5 24l26 13q38 -33 65.5 -94t30.5 -121q-5 -4 -14.5 -10t-44 -22t-73.5 -28t-102 -22t-131 -10
q-253 0 -376 139.5t-123 425.5q0 284 127 422.5t358 138.5q206 0 322 -108.5t116 -323.5q0 -60 -5.5 -116t-11.5 -82zM690 709q0 168 -129 168q-140 0 -162 -232h289q2 20 2 64z" />
    <glyph glyph-name="Eogonek" unicode="&#x118;" horiz-adv-x="1140" 
d="M141 1475h895q21 -54 21 -119q0 -78 -21 -131h-569v-357h467q20 -58 20 -120q0 -74 -20 -127h-467v-371h590q20 -55 20 -123q0 -74 -20 -127q-100 -33 -152.5 -73.5t-52.5 -104.5q0 -48 27 -72t69 -24q16 0 31 2.5t22 5.5l7 2q47 -35 43 -107q-8 -5 -23 -13t-60.5 -21
t-90.5 -13q-97 0 -161.5 55t-64.5 154q0 144 154 209h-664v1475z" />
    <glyph glyph-name="eogonek" unicode="&#x119;" horiz-adv-x="1054" 
d="M72 545q0 284 127 422.5t358 138.5q206 0 322 -108.5t116 -323.5q0 -60 -5.5 -116t-11.5 -82l-5 -27h-572q13 -119 67.5 -165t154.5 -46q56 0 110.5 12t80.5 24l26 13q38 -33 65.5 -94t30.5 -121q-47 -35 -139 -62q-90 -33 -140.5 -84t-50.5 -114q0 -45 25 -57.5
t74 -12.5q15 0 29 3.5t21 6.5l7 4q22 -17 34.5 -49.5t10.5 -66.5q-8 -5 -23.5 -13t-61.5 -21.5t-91 -13.5q-99 0 -161 45t-62 142q0 129 108 203q-225 13 -334.5 153t-109.5 410zM690 709q0 168 -129 168q-140 0 -162 -232h289q2 20 2 64z" />
    <glyph glyph-name="Ecaron" unicode="&#x11a;" horiz-adv-x="1142" 
d="M532 1536l-321 270q49 103 139 140l219 -138l215 136q92 -38 140 -138l-318 -270h-74zM141 1475h897q21 -65 21 -119q0 -70 -21 -131h-569v-357h467q20 -70 20 -120q0 -65 -20 -127h-467v-371h590q20 -55 20 -123q0 -74 -20 -127h-918v1475z" />
    <glyph glyph-name="ecaron" unicode="&#x11b;" horiz-adv-x="1054" 
d="M516 1219l-305 258q50 98 131 131l211 -131l205 129q84 -33 133 -129l-303 -258h-72zM973 449h-572q13 -119 67.5 -165t154.5 -46q56 0 110 12t79 24l26 13q39 -33 67 -94t29 -121q-5 -4 -14.5 -10t-43.5 -22t-72.5 -28t-101.5 -22t-131 -10q-253 0 -376 139.5
t-123 425.5q0 284 127 422.5t358 138.5q206 0 322 -108.5t116 -323.5q0 -60 -5.5 -116t-11.5 -82zM690 709q0 168 -129 168q-143 0 -162 -232h287q4 40 4 64z" />
    <glyph glyph-name="Gcircumflex" unicode="&#x11c;" horiz-adv-x="1304" 
d="M805 1946l321 -271q-52 -102 -139 -139l-219 137l-217 -135q-88 36 -139 137l319 271h74zM764 -20q-331 0 -505.5 193.5t-174.5 563.5t174.5 564t505.5 194q119 0 222.5 -20.5t147.5 -40.5l44 -21q-3 -137 -93 -227q-15 5 -41.5 13.5t-101.5 22t-143 13.5
q-70 0 -125.5 -14.5t-103.5 -49.5t-80 -91.5t-50 -143.5t-18 -201t17.5 -199.5t48.5 -140.5t78.5 -89.5t102 -48t124.5 -13.5l98 6v360h-221q-23 43 -23 123q0 36 5.5 68t11.5 45l6 14h528v-799q-6 -3 -18.5 -8.5t-54 -19.5t-88 -24.5t-121 -19.5t-152.5 -9z" />
    <glyph glyph-name="gcircumflex" unicode="&#x11d;" horiz-adv-x="1114" 
d="M545 1618l315 -264q-54 -103 -137 -135l-213 133l-211 -131q-88 33 -137 133l311 264h72zM272 389q-198 88 -198 336q0 178 113 279.5t327 101.5q150 0 252 -51l299 51q20 -45 19.5 -115t-19.5 -117l-145 21q34 -64 34 -170q0 -180 -112 -280.5t-328 -100.5q-41 0 -59 2
q-29 -45 -19 -80q6 -27 36.5 -43.5t76 -22.5t101.5 -14.5t113.5 -16t112.5 -29.5t97 -53.5t68 -88.5t26 -135q0 -171 -152.5 -275t-414.5 -104q-240 0 -358.5 73.5t-118.5 209.5q0 160 180 266q-43 49 -43 125q0 123 112 231zM514 907q-137 0 -137 -182t137 -182t137 182
t-137 182zM506 -305q130 0 195 34.5t65 94.5q0 32 -24 52t-69 29.5t-92.5 15t-111 13.5t-107.5 19q-51 -60 -51 -123q0 -62 47.5 -98.5t147.5 -36.5z" />
    <glyph glyph-name="Gbreve" unicode="&#x11e;" horiz-adv-x="1304" 
d="M1130 1720q-4 -6 -13 -15.5t-41 -34.5t-69 -44.5t-99.5 -35t-131.5 -15.5t-131 15t-101 36.5t-68.5 42.5t-42.5 36l-13 15q18 43 54 79.5t81 53.5q9 -6 26 -15t74.5 -23.5t120.5 -14.5t118 13t79 27l24 13q45 -17 81.5 -54t51.5 -79zM764 -20q-331 0 -505.5 193.5
t-174.5 563.5t174.5 564t505.5 194q76 0 146.5 -8.5t117 -20.5t82 -24t52.5 -20l16 -9q0 -134 -93 -227q-15 5 -41 13.5t-100.5 22t-142.5 13.5q-88 0 -154 -24t-118.5 -79.5t-79.5 -155t-27 -241.5q0 -114 17.5 -199.5t48.5 -140.5t78.5 -89.5t102 -48t124.5 -13.5l100 6
v360h-223q-21 43 -21 123q0 36 5.5 68t10.5 45l5 14h528v-799q-6 -3 -18 -8.5t-53.5 -19.5t-88 -24.5t-121 -19.5t-153.5 -9z" />
    <glyph glyph-name="gbreve" unicode="&#x11f;" horiz-adv-x="1114" 
d="M864 1370q-4 -6 -12.5 -16.5t-40 -36.5t-68 -45.5t-97.5 -36t-128 -16.5t-127 15.5t-97.5 37.5t-66 44.5t-41.5 37.5l-12 16q15 45 50 84t79 57q9 -6 25.5 -15.5t72.5 -25.5t117 -16t114.5 14t77.5 28l23 15q45 -18 80.5 -57t50.5 -84zM272 389q-198 88 -198 336
q0 178 113 279.5t327 101.5q150 0 252 -51l299 51q20 -45 19.5 -115t-19.5 -117l-145 21q34 -64 34 -170q0 -180 -112 -280.5t-328 -100.5q-41 0 -59 2q-29 -45 -19 -80q6 -27 36.5 -43.5t76 -22.5t101.5 -14.5t113.5 -16t112.5 -29.5t97 -53.5t68 -88.5t26 -135
q0 -171 -152.5 -275t-414.5 -104q-240 0 -358.5 73.5t-118.5 209.5q0 160 180 266q-43 49 -43 125q0 123 112 231zM514 907q-137 0 -137 -182t137 -182t137 182t-137 182zM506 -305q130 0 195 34.5t65 94.5q0 32 -24 52t-69 29.5t-92.5 15t-111 13.5t-107.5 19
q-51 -60 -51 -123q0 -62 47.5 -98.5t147.5 -36.5z" />
    <glyph glyph-name="Gdotaccent" unicode="&#x120;" horiz-adv-x="1304" 
d="M905 1851v-262q-51 -14 -141 -14q-43 0 -78.5 3.5t-49.5 7.5l-15 3v262q47 15 143 15q40 0 75.5 -4t50.5 -8zM764 -20q-331 0 -505.5 193.5t-174.5 563.5t174.5 564t505.5 194q76 0 146.5 -8.5t117 -20.5t82 -24t52.5 -20l16 -9q0 -134 -93 -227q-15 5 -41 13.5
t-100.5 22t-142.5 13.5q-88 0 -154 -24t-118.5 -79.5t-79.5 -155t-27 -241.5q0 -114 17.5 -199.5t48.5 -140.5t78.5 -89.5t102 -48t124.5 -13.5l100 6v360h-223q-21 43 -21 123q0 36 5.5 68t10.5 45l5 14h528v-799q-6 -3 -18 -8.5t-53.5 -19.5t-88 -24.5t-121 -19.5
t-153.5 -9z" />
    <glyph glyph-name="gdotaccent" unicode="&#x121;" horiz-adv-x="1114" 
d="M662 1497v-262q-52 -16 -144 -16q-42 0 -77 4t-49 8l-15 4v262q45 14 141 14q41 0 77 -3.5t51 -7.5zM272 389q-198 88 -198 336q0 178 113 279.5t327 101.5q150 0 252 -51l299 51q20 -45 19.5 -115t-19.5 -117l-145 21q34 -64 34 -170q0 -180 -112 -280.5t-328 -100.5
q-41 0 -59 2q-29 -45 -19 -80q6 -27 36.5 -43.5t76 -22.5t101.5 -14.5t113.5 -16t112.5 -29.5t97 -53.5t68 -88.5t26 -135q0 -171 -152.5 -275t-414.5 -104q-240 0 -358.5 73.5t-118.5 209.5q0 160 180 266q-43 49 -43 125q0 123 112 231zM514 907q-137 0 -137 -182
t137 -182t137 182t-137 182zM506 -305q130 0 195 34.5t65 94.5q0 32 -24 52t-69 29.5t-92.5 15t-111 13.5t-107.5 19q-51 -60 -51 -123q0 -62 47.5 -98.5t147.5 -36.5z" />
    <glyph glyph-name="Gcommaaccent" unicode="&#x122;" horiz-adv-x="1304" 
d="M764 -20q-331 0 -505.5 193.5t-174.5 563.5t174.5 564t505.5 194q76 0 146.5 -8.5t117 -20.5t82 -24t52.5 -20l16 -9q0 -134 -93 -227q-15 5 -41 13.5t-100.5 22t-142.5 13.5q-88 0 -154 -24t-118.5 -79.5t-79.5 -155t-27 -241.5q0 -114 17.5 -199.5t48.5 -140.5
t78.5 -89.5t102 -48t124.5 -13.5l100 6v360h-223q-21 43 -21 123q0 36 5.5 68t10.5 45l5 14h528v-799q-6 -3 -18 -8.5t-53.5 -19.5t-88 -24.5t-121 -19.5t-153.5 -9zM743 -672l-118 72q3 3 8 9t18 26.5t23.5 43t20.5 58.5t12 74q-29 2 -56 5.5t-39 5.5l-12 3v275
q60 16 166 16q47 0 89 -4t61 -8l18 -4v-197q0 -68 -19.5 -132t-48 -106t-56.5 -74.5t-48 -47.5z" />
    <glyph glyph-name="gcommaaccent" unicode="&#x123;" horiz-adv-x="1114" 
d="M539 1774l116 -66q-3 -3 -8 -9t-18 -26t-23.5 -41.5t-20.5 -55.5t-12 -69q28 -2 54 -5.5t39 -5.5l12 -3v-260q-60 -14 -162 -14q-44 0 -84.5 3.5t-59.5 7.5l-18 3v188q0 64 19 123.5t46 99.5t54.5 70.5t46.5 45.5zM272 389q-198 88 -198 336q0 178 113 279.5t327 101.5
q150 0 252 -51l299 51q20 -45 19.5 -115t-19.5 -117l-145 21q34 -64 34 -170q0 -180 -112 -280.5t-328 -100.5q-41 0 -59 2q-29 -45 -19 -80q6 -27 36.5 -43.5t76 -22.5t101.5 -14.5t113.5 -16t112.5 -29.5t97 -53.5t68 -88.5t26 -135q0 -171 -152.5 -275t-414.5 -104
q-240 0 -358.5 73.5t-118.5 209.5q0 160 180 266q-43 49 -43 125q0 123 112 231zM514 907q-139 0 -139 -182t139 -182q137 0 137 182t-137 182zM506 -305q130 0 195 34.5t65 94.5q0 32 -24 52t-69 29.5t-92.5 15t-111 13.5t-107.5 19q-51 -60 -51 -123q0 -62 47.5 -98.5
t147.5 -36.5z" />
    <glyph glyph-name="Hcircumflex" unicode="&#x124;" horiz-adv-x="1394" 
d="M748 1946l321 -271q-52 -103 -141 -139l-217 137l-217 -135q-93 38 -140 137l320 271h74zM930 889v567q62 19 162 19q44 0 85 -4.5t59 -9.5l19 -5v-1438q-61 -18 -161 -18q-49 0 -90 4.5t-58 9.5l-16 4v605h-463v-605q-66 -18 -164 -18q-48 0 -88.5 4.5t-56.5 9.5l-17 4
v1438q60 19 160 19q45 0 86.5 -4.5t60.5 -9.5l19 -5v-567h463z" />
    <glyph glyph-name="hcircumflex" unicode="&#x125;" horiz-adv-x="1120" 
d="M303 1964l309 -262q-53 -97 -135 -133l-211 133l-207 -131q-82 33 -135 131l307 262h72zM1014 799v-783q-56 -16 -158 -16q-48 0 -87.5 4t-54.5 8l-16 4v719q0 125 -131 125q-77 0 -141 -57v-787q-58 -16 -158 -16q-47 0 -86.5 4t-55.5 8l-15 4v1504q48 16 157 16
q44 0 83.5 -4t56.5 -8l18 -4v-512q107 98 272 98q153 0 234.5 -83.5t81.5 -223.5z" />
    <glyph glyph-name="Hbar" unicode="&#x126;" horiz-adv-x="1464" 
d="M1290 1274h131q13 -42 12.5 -95.5t-12.5 -95.5h-131v-1065q-62 -18 -162 -18q-49 0 -90.5 4.5t-57.5 9.5l-17 4v605h-461v-605q-66 -18 -164 -18q-48 0 -89 4.5t-58 9.5l-17 4v1065h-133q-12 46 -12 98.5t12 92.5h133v182q62 19 162 19q45 0 86.5 -4.5t60.5 -9.5l19 -5
v-182h461v182q63 19 163 19q44 0 85 -4.5t60 -9.5l19 -5v-182zM502 1083v-194h461v194h-461z" />
    <glyph glyph-name="hbar" unicode="&#x127;" horiz-adv-x="1122" 
d="M428 1008q107 98 272 98q153 0 234.5 -83.5t81.5 -223.5v-783q-56 -16 -158 -16q-48 0 -87.5 4t-54.5 8l-16 4v719q0 123 -131 123q-81 0 -141 -57v-785q-58 -16 -158 -16q-47 0 -86.5 4t-55.5 8l-15 4v1211h-131q-26 90 0 180h131v113q48 16 157 16q44 0 83.5 -4
t56.5 -8l18 -4v-113h320q26 -88 0 -180h-320v-219z" />
    <glyph glyph-name="Itilde" unicode="&#x128;" horiz-adv-x="606" 
d="M428 1739q31 0 57 12.5t37 25.5l10 13q41 -21 69 -63.5t34 -88.5q-3 -4 -9 -11t-25.5 -24.5t-42 -31t-58 -24.5t-72.5 -11q-68 0 -139.5 31.5t-116.5 31.5q-30 0 -56 -12.5t-37 -25.5l-11 -13q-93 50 -103 152q3 4 9.5 11t27 24.5t43 31t57 24.5t70.5 11
q68 0 139.5 -31.5t116.5 -31.5zM139 18v1438q62 19 162 19q45 0 86.5 -4.5t60.5 -9.5l19 -5v-1438q-66 -18 -164 -18q-48 0 -89 4.5t-58 9.5z" />
    <glyph glyph-name="itilde" unicode="&#x129;" horiz-adv-x="542" 
d="M377 1413q26 0 48 12.5t31 25.5l9 13q35 -21 57 -62.5t25 -86.5q-2 -4 -7 -10.5t-21 -23.5t-34 -30t-47.5 -23.5t-60.5 -10.5q-56 0 -115.5 30.5t-97.5 30.5q-24 0 -45.5 -13t-30.5 -25l-10 -13q-78 53 -84 149q3 4 8 11t22 24.5t35.5 30.5t47.5 24t59 11q55 0 114 -32
t97 -32zM430 1069v-1053q-56 -16 -158 -16q-46 0 -85.5 4t-55.5 8l-16 4v1053q51 16 157 16q45 0 84.5 -4t56.5 -8z" />
    <glyph glyph-name="Imacron" unicode="&#x12a;" horiz-adv-x="606" 
d="M625 1536h-637q-12 44 -12 96t12 90h637q12 -41 11.5 -92t-11.5 -94zM139 18v1438q62 19 162 19q45 0 86.5 -4.5t60.5 -9.5l19 -5v-1438q-66 -18 -164 -18q-48 0 -89 4.5t-58 9.5z" />
    <glyph glyph-name="imacron" unicode="&#x12b;" horiz-adv-x="542" 
d="M483 1255h-417q-17 94 0 175h417q17 -86 0 -175zM430 1069v-1053q-56 -16 -158 -16q-47 0 -86.5 4t-55.5 8l-15 4v1053q51 16 157 16q45 0 84.5 -4t56.5 -8z" />
    <glyph glyph-name="Ibreve" unicode="&#x12c;" horiz-adv-x="606" 
d="M653 1720q-4 -6 -13 -15.5t-41 -34.5t-69 -44.5t-99.5 -35t-131.5 -15.5t-131 15t-101 36.5t-68.5 42.5t-42.5 36l-13 15q15 42 52 79t83 54q9 -6 26 -15t74.5 -23.5t120.5 -14.5t118 13t79 27l24 13q45 -17 81.5 -54t51.5 -79zM139 18v1438q62 19 162 19q45 0 86.5 -4.5
t60.5 -9.5l19 -5v-1438q-66 -18 -164 -18q-48 0 -89 4.5t-58 9.5z" />
    <glyph glyph-name="ibreve" unicode="&#x12d;" horiz-adv-x="542" 
d="M616 1370q-4 -6 -12.5 -16.5t-40 -36.5t-68 -45.5t-97.5 -36t-128 -16.5t-127.5 15.5t-98.5 37.5t-66.5 44.5t-41.5 37.5l-12 16q18 46 53 84.5t78 56.5q9 -6 25.5 -15.5t72.5 -25.5t117 -16t114.5 14t77.5 28l23 15q44 -19 80 -57.5t51 -83.5zM430 1069v-1053
q-56 -16 -158 -16q-47 0 -86.5 4t-55.5 8l-15 4v1053q51 16 157 16q45 0 84.5 -4t56.5 -8z" />
    <glyph glyph-name="Iogonek" unicode="&#x12e;" horiz-adv-x="606" 
d="M467 1456v-1438q-100 -33 -153.5 -73.5t-53.5 -104.5q0 -48 28 -72t70 -24q15 0 29.5 2.5t21.5 5.5l7 2q48 -36 45 -106q-8 -5 -23 -13t-61 -21t-92 -13q-96 0 -160 55t-64 154q0 131 129 198l-51 10v1438q62 19 162 19q45 0 86.5 -4.5t60.5 -9.5z" />
    <glyph glyph-name="iogonek" unicode="&#x12f;" horiz-adv-x="542" 
d="M115 1524q51 16 157 16q45 0 84.5 -4t56.5 -8l17 -4v-279q-56 -16 -158 -16q-47 0 -86.5 4t-55.5 8l-15 4v279zM115 1069q51 16 157 16q45 0 84.5 -4t56.5 -8l17 -4v-1053q-96 -24 -148.5 -75.5t-52.5 -116.5q0 -84 105 -84q16 0 32 3t24 6l9 3q23 -18 35 -53.5t10 -71.5
q-9 -6 -24.5 -14.5t-64.5 -22.5t-97 -14q-108 0 -184 54t-76 157q0 64 30.5 119.5t86.5 93.5v1069z" />
    <glyph glyph-name="Idotaccent" unicode="&#x130;" horiz-adv-x="606" 
d="M147 1815q52 16 158 16q44 0 83.5 -4t57.5 -8l17 -4v-277q-58 -16 -158 -16q-47 0 -86.5 4t-55.5 8l-16 4v277zM139 1456q62 19 162 19q45 0 86.5 -4.5t60.5 -9.5l19 -5v-1438q-66 -18 -164 -18q-48 0 -89 4.5t-58 9.5l-17 4v1438z" />
    <glyph glyph-name="dotlessi" unicode="&#x131;" horiz-adv-x="540" 
d="M428 1069v-1053q-56 -16 -158 -16q-47 0 -86.5 4t-55.5 8l-15 4v1053q51 16 157 16q45 0 84.5 -4t56.5 -8z" />
    <glyph glyph-name="IJ" unicode="&#x132;" horiz-adv-x="1536" 
d="M141 18v1438q62 19 162 19q45 0 86.5 -4.5t60.5 -9.5l19 -5v-1438q-66 -18 -164 -18q-48 0 -89 4.5t-58 9.5zM1075 449v1007q55 19 164 19q45 0 86 -4.5t59 -9.5l19 -5v-1044q0 -211 -121.5 -321.5t-331.5 -110.5q-91 0 -176.5 17t-125.5 35l-40 17q-2 65 20 129t64 107
q88 -33 182 -33q201 0 201 197z" />
    <glyph glyph-name="ij" unicode="&#x133;" horiz-adv-x="1071" 
d="M428 1520v-277q-58 -16 -158 -16q-47 0 -86.5 4t-55.5 8l-15 4v277q48 16 157 16q44 0 83.5 -4t56.5 -8zM428 1069v-1053q-58 -16 -158 -16q-47 0 -86.5 4t-55.5 8l-15 4v1053q48 16 157 16q44 0 83.5 -4t56.5 -8zM956 1518v-279q-55 -16 -157 -16q-47 0 -86.5 4t-55.5 8
l-16 4v279q52 16 158 16q45 0 84.5 -4t56.5 -8zM641 -135v1204q54 16 158 16q44 0 83 -4t56 -8l18 -4v-1249q0 -161 -83 -246.5t-250 -85.5q-52 0 -99 8t-68 16l-22 9q-8 32 -8 69q0 46 9 85.5t17 56.5l9 16q34 -8 69 -8q56 0 83.5 29.5t27.5 95.5z" />
    <glyph glyph-name="Jcircumflex" unicode="&#x134;" horiz-adv-x="952" 
d="M692 1946l322 -271q-52 -102 -140 -139l-219 137l-217 -135q-88 37 -139 137l319 271h74zM492 449v1007q54 19 163 19q45 0 86 -4.5t59 -9.5l19 -5v-1038q0 -213 -122 -325.5t-332 -112.5q-90 0 -175 17t-125 35l-40 17q-2 65 20 129t64 107q86 -33 180 -33
q203 0 203 197z" />
    <glyph glyph-name="jcircumflex" unicode="&#x135;" horiz-adv-x="544" 
d="M307 1575l316 -262q-51 -101 -138 -135l-213 133l-213 -133q-86 35 -137 135l311 262h74zM115 -135v1204q53 16 157 16q44 0 83.5 -4t56.5 -8l18 -4v-1249q0 -161 -83 -246.5t-251 -85.5q-52 0 -99 8t-68 16l-21 9q-8 32 -8 69q0 46 8.5 85.5t17.5 56.5l8 16q35 -8 70 -8
q56 0 83.5 29.5t27.5 95.5z" />
    <glyph glyph-name="Kcommaaccent" unicode="&#x136;" horiz-adv-x="1288" 
d="M545 889l352 567q82 19 164 19q81 0 174 -19l-410 -661l471 -777q-73 -18 -190 -18q-51 0 -96 4.5t-64 9.5l-20 4l-381 625h-80v-625q-49 -18 -162 -18q-46 0 -87 4.5t-59 9.5l-18 4v1438q60 19 166 19q46 0 86 -4.5t57 -9.5l17 -5v-567h80zM662 -711l-113 78q3 3 8 9.5
t17.5 29t23 46.5t20 62.5t11.5 77.5q-27 2 -53 6t-38 8l-12 3v293q58 16 158 16q44 0 83.5 -4t56.5 -8l18 -4v-211q0 -73 -18.5 -141t-45 -113.5t-53 -80.5t-45.5 -51z" />
    <glyph glyph-name="kcommaaccent" unicode="&#x137;" horiz-adv-x="1064" 
d="M481 680l217 389q54 16 154 16q42 0 82.5 -4t59.5 -8l20 -4l-266 -485l313 -568q-70 -18 -176 -18q-45 0 -87 4.5t-62 9.5l-19 4l-240 437h-49v-437q-56 -16 -156 -16q-44 0 -84 4t-58 8l-17 4v1508q61 12 159 12q40 0 79 -3t58 -6l19 -3v-844h53zM561 -705l-112 78
q8 9 19.5 27t32.5 76.5t25 122.5q-27 2 -52 6t-36 7l-12 3v293q58 16 158 16q44 0 83 -4t57 -8l17 -4v-211q0 -73 -18.5 -141t-45 -113.5t-53 -80.5t-44.5 -51z" />
    <glyph glyph-name="kgreenlandic" unicode="&#x138;" horiz-adv-x="1079" 
d="M700 647l387 -618q-57 -29 -182 -29q-50 0 -93.5 5t-61.5 10l-19 5l-233 373l-72 -90v-285q-64 -18 -156 -18q-100 0 -159 18v1047q62 12 161 12q96 0 154 -12v-369l283 369q68 12 155 12q102 0 170 -16z" />
    <glyph glyph-name="Lacute" unicode="&#x139;" horiz-adv-x="1087" 
d="M565 1823l-280 -287q-121 20 -174 90l186 303q75 8 155.5 -23.5t112.5 -82.5zM141 0v1456q62 19 162 19q45 0 86 -4.5t59 -9.5l19 -5v-1190h573q21 -62 21 -133q0 -58 -21 -133h-899z" />
    <glyph glyph-name="lacute" unicode="&#x13a;" horiz-adv-x="546" 
d="M539 1866l-281 -285q-124 21 -174 90l186 301q76 9 156.5 -22.5t112.5 -83.5zM430 1520v-1504q-56 -16 -158 -16q-47 0 -86.5 4t-55.5 8l-15 4v1504q51 16 157 16q45 0 84.5 -4t56.5 -8z" />
    <glyph glyph-name="Lcommaaccent" unicode="&#x13b;" horiz-adv-x="1087" 
d="M141 0v1456q62 19 162 19q45 0 86 -4.5t59 -9.5l19 -5v-1190h573q21 -62 21 -133q0 -58 -21 -133h-899zM573 -711l-112 78q3 3 8 9.5t17.5 29t23 46.5t20 62.5t11.5 77.5q-27 2 -53 6t-38 8l-12 3v293q58 16 158 16q44 0 83.5 -4t56.5 -8l18 -4v-211q0 -73 -18.5 -141
t-45 -113.5t-53.5 -80.5t-45 -51z" />
    <glyph glyph-name="lcommaaccent" unicode="&#x13c;" horiz-adv-x="546" 
d="M430 1520v-1504q-56 -16 -158 -16q-47 0 -86.5 4t-55.5 8l-15 4v1504q51 16 157 16q45 0 84.5 -4t56.5 -8zM252 -711l-113 78q3 3 7.5 9.5t17 29t22.5 46.5t19.5 62.5t11.5 77.5q-27 2 -52 6t-37 8l-11 3v293q57 16 157 16q44 0 83.5 -4t56.5 -8l18 -4v-211
q0 -73 -18.5 -141t-45 -113.5t-53 -80.5t-45.5 -51z" />
    <glyph glyph-name="Lcaron" unicode="&#x13d;" horiz-adv-x="1087" 
d="M678 1169q-42 5 -78 25.5t-55 50.5q67 69 94.5 131t30.5 158q163 10 243 -55q-24 -110 -87.5 -195.5t-147.5 -114.5zM141 0v1456q62 19 162 19q45 0 86 -4.5t59 -9.5l19 -5v-1190h573q21 -62 21 -133q0 -58 -21 -133h-899z" />
    <glyph glyph-name="lcaron" unicode="&#x13e;" horiz-adv-x="577" 
d="M637 1165q-92 3 -139 62q60 75 80.5 139t13.5 160q157 30 246 -29q-9 -111 -64.5 -202.5t-136.5 -129.5zM430 1520v-1504q-56 -16 -158 -16q-47 0 -86.5 4t-55.5 8l-15 4v1504q51 16 157 16q45 0 84.5 -4t56.5 -8z" />
    <glyph glyph-name="Ldot" unicode="&#x13f;" horiz-adv-x="1107" 
d="M141 0v1456q62 19 162 19q45 0 86 -4.5t59 -9.5l19 -5v-1190h573q21 -62 21 -133q0 -58 -21 -133h-899zM956 813v-254q-49 -16 -139 -16q-42 0 -76 4t-47 8l-14 4v254q43 16 137 16q40 0 74.5 -4t49.5 -8z" />
    <glyph glyph-name="ldot" unicode="&#x140;" horiz-adv-x="874" 
d="M430 1520v-1504q-56 -16 -158 -16q-47 0 -86.5 4t-55.5 8l-15 4v1504q51 16 157 16q45 0 84.5 -4t56.5 -8zM850 813v-254q-49 -16 -139 -16q-42 0 -77 4t-49 8l-14 4v254q46 16 140 16q40 0 74.5 -4t49.5 -8z" />
    <glyph glyph-name="Lslash" unicode="&#x141;" horiz-adv-x="1150" 
d="M205 1456q62 19 162 19q45 0 86 -4.5t59 -9.5l18 -5v-475l191 111q70 -77 92 -160l-283 -164v-502h574q20 -59 20 -133q0 -61 -20 -133h-899v580l-125 -72q-63 66 -92 160l217 125v663z" />
    <glyph glyph-name="lslash" unicode="&#x142;" horiz-adv-x="755" 
d="M219 1520q52 16 158 16q45 0 84.5 -4t56.5 -8l17 -4v-498l118 70q23 -19 56 -74q16 -25 25.5 -47t11.5 -31l2 -10l-213 -123v-791q-56 -16 -158 -16q-47 0 -86.5 4t-55.5 8l-16 4v611l-113 -66q-22 19 -55 74q-16 25 -25.5 46.5t-11.5 30.5l-2 9l207 117v682z" />
    <glyph glyph-name="Nacute" unicode="&#x143;" horiz-adv-x="1435" 
d="M1024 1823l-279 -287q-124 21 -176 90l187 303q75 8 155.5 -23.5t112.5 -82.5zM885 18l-348 748q-34 77 -64.5 163t-44.5 133l-14 48h-8q20 -170 20 -391v-701q-49 -18 -147 -18q-43 0 -78 4.5t-49 9.5l-13 4v1438q70 19 207 19q62 0 112.5 -4.5t70.5 -9.5l20 -5
l340 -741q35 -77 67 -169t47 -145l15 -53h8q-18 197 -18 416v692q53 19 145 19q44 0 79 -4.5t48 -9.5l14 -5v-1438q-63 -18 -202 -18q-59 0 -111 4.5t-74 9.5z" />
    <glyph glyph-name="nacute" unicode="&#x144;" horiz-adv-x="1120" 
d="M799 1503l-279 -284q-126 21 -176 90l186 301q75 9 156 -23t113 -84zM1014 799v-783q-56 -16 -158 -16q-48 0 -87.5 4t-54.5 8l-16 4v719q0 123 -131 123q-81 0 -141 -57v-785q-58 -16 -158 -16q-47 0 -86.5 4t-55.5 8l-15 4v1053q48 16 157 16q44 0 83.5 -4t56.5 -8
l18 -4v-61q107 98 272 98q153 0 234.5 -83.5t81.5 -223.5z" />
    <glyph glyph-name="Ncommaaccent" unicode="&#x145;" horiz-adv-x="1433" 
d="M885 18l-348 748q-34 77 -64.5 163t-44.5 133l-14 48h-8q20 -170 20 -391v-701q-49 -18 -147 -18q-43 0 -78 4.5t-49 9.5l-13 4v1438q70 19 207 19q62 0 112.5 -4.5t70.5 -9.5l20 -5l340 -741q35 -77 67 -169t47 -145l15 -53h8q-18 197 -18 416v692q53 19 145 19
q44 0 79 -4.5t48 -9.5l14 -5v-1438q-63 -18 -202 -18q-59 0 -111 4.5t-74 9.5zM707 -711l-113 78q3 3 8 9.5t17.5 29t23 46.5t20 62.5t11.5 77.5q-27 2 -53 6t-38 8l-12 3v293q58 16 158 16q44 0 83.5 -4t57.5 -8l17 -4v-211q0 -73 -18.5 -141t-45 -113.5t-53 -80.5
t-44.5 -51z" />
    <glyph glyph-name="ncommaaccent" unicode="&#x146;" horiz-adv-x="1122" 
d="M1016 799v-783q-56 -16 -158 -16q-48 0 -87.5 4t-54.5 8l-16 4v719q0 123 -131 123q-81 0 -141 -57v-785q-58 -16 -158 -16q-47 0 -86.5 4t-55.5 8l-15 4v1053q48 16 157 16q44 0 83.5 -4t56.5 -8l18 -4v-61q107 98 272 98q153 0 234.5 -83.5t81.5 -223.5zM551 -692
l-113 78q3 3 8 9.5t17.5 28.5t23 46t20 62.5t11.5 78.5q-28 2 -53.5 6t-36.5 7l-12 3v293q57 17 157 17q44 0 83.5 -4.5t57.5 -8.5l17 -4v-211q0 -73 -18.5 -141t-45 -113t-53 -80t-44.5 -51z" />
    <glyph glyph-name="Ncaron" unicode="&#x147;" horiz-adv-x="1435" 
d="M702 1536l-321 270q49 103 139 140l219 -138l215 136q92 -38 140 -138l-318 -270h-74zM885 18l-348 748q-34 77 -64.5 163t-44.5 133l-14 48h-8q20 -170 20 -391v-701q-49 -18 -147 -18q-43 0 -78 4.5t-49 9.5l-13 4v1438q70 19 207 19q62 0 112.5 -4.5t70.5 -9.5l20 -5
l340 -741q35 -77 67 -169t47 -145l15 -53h8q-18 197 -18 416v692q53 19 145 19q44 0 79 -4.5t48 -9.5l14 -5v-1438q-63 -18 -202 -18q-59 0 -111 4.5t-74 9.5z" />
    <glyph glyph-name="ncaron" unicode="&#x148;" horiz-adv-x="1122" 
d="M575 1456l199 125q79 -28 127 -125l-291 -250h-67l-293 250q20 43 53.5 77.5t73.5 49.5zM113 1069q48 16 157 16q44 0 83.5 -4t56.5 -8l18 -4v-61q107 98 272 98q153 0 234.5 -83.5t81.5 -223.5v-783q-56 -16 -158 -16q-48 0 -87.5 4t-54.5 8l-16 4v719q0 123 -131 123
q-81 0 -141 -57v-785q-58 -16 -158 -16q-47 0 -86.5 4t-55.5 8l-15 4v1053z" />
    <glyph glyph-name="napostrophe" unicode="&#x149;" horiz-adv-x="1120" 
d="M244 1169q-40 5 -76.5 25.5t-56.5 50.5q68 68 95 130t30 159q163 10 243 -55q-22 -110 -86.5 -195.5t-148.5 -114.5zM1014 799v-783q-56 -16 -158 -16q-48 0 -87.5 4t-54.5 8l-16 4v719q0 123 -131 123q-81 0 -141 -57v-785q-58 -16 -158 -16q-47 0 -86.5 4t-55.5 8
l-15 4v1053q48 16 157 16q44 0 83.5 -4t56.5 -8l18 -4v-61q107 98 272 98q153 0 234.5 -83.5t81.5 -223.5z" />
    <glyph glyph-name="Eng" unicode="&#x14a;" horiz-adv-x="1439" 
d="M1010 1456q53 19 147 19q43 0 78 -4.5t49 -9.5l14 -5v-1534q0 -170 -68 -265.5t-218 -141.5q-105 65 -105 202q51 22 71.5 67t20.5 138v82l-112 14l-348 748q-34 77 -64 163t-43 133l-14 48h-10q20 -170 20 -391v-701q-47 -18 -145 -18q-43 0 -78.5 4.5t-49.5 9.5l-14 4
v1438q70 19 209 19q62 0 112.5 -4.5t70.5 -9.5l20 -5l340 -741q34 -77 65.5 -169t46.5 -145l15 -53h8q-18 197 -18 416v692z" />
    <glyph glyph-name="eng" unicode="&#x14b;" horiz-adv-x="1122" 
d="M428 1008q107 98 272 98q153 0 234.5 -83.5t81.5 -223.5v-877q0 -168 -75 -264t-230 -143q-99 64 -99 204q50 22 69 66t19 137v813q0 123 -131 123q-81 0 -141 -57v-785q-58 -16 -158 -16q-47 0 -86.5 4t-55.5 8l-15 4v1053q48 16 157 16q44 0 83.5 -4t56.5 -8l18 -4v-61
z" />
    <glyph glyph-name="Omacron" unicode="&#x14c;" horiz-adv-x="1411" 
d="M399 1782h613q22 -86 0 -187h-613q-23 99 0 187zM86 737q0 384 163 573t456 189q295 0 457.5 -187.5t162.5 -574.5q0 -388 -161.5 -575t-458.5 -187t-458 187t-161 575zM977 737q0 150 -17.5 250.5t-54.5 156t-84.5 77.5t-115.5 22q-52 0 -92 -13.5t-75 -47.5t-57 -90.5
t-34.5 -145.5t-12.5 -209q0 -149 18.5 -249.5t55.5 -155.5t84 -77t113 -22q68 0 115.5 22t84.5 77t54.5 155.5t17.5 249.5z" />
    <glyph glyph-name="omacron" unicode="&#x14d;" horiz-adv-x="1132" 
d="M295 1434h545q22 -82 0 -181h-545q-17 97 0 181zM72 543q0 563 493 563q496 0 496 -563t-496 -563q-493 0 -493 563zM733 543q0 125 -21 198t-56 99t-91 26q-41 0 -70.5 -14.5t-52 -50t-34 -99.5t-11.5 -159q0 -125 21 -198.5t56.5 -100.5t90.5 -27q56 0 91.5 27t56 100
t20.5 199z" />
    <glyph glyph-name="Obreve" unicode="&#x14e;" horiz-adv-x="1411" 
d="M709 1800q63 0 118 13t79 27l24 13q45 -17 81.5 -54t51.5 -79q-4 -6 -13 -15.5t-41 -34.5t-69 -44.5t-99.5 -35t-131.5 -15.5t-131 15t-101.5 36.5t-69 42.5t-42.5 36l-13 15q15 42 52 79t83 54q9 -6 26.5 -15t75 -23.5t120.5 -14.5zM86 737q0 383 163.5 572.5
t455.5 189.5q295 0 457.5 -187.5t162.5 -574.5q0 -388 -161.5 -575t-458.5 -187q-296 0 -457.5 187t-161.5 575zM977 737q0 150 -17.5 250.5t-54.5 156t-84.5 77.5t-115.5 22q-52 0 -92 -13.5t-75 -47.5t-57 -90.5t-34.5 -145.5t-12.5 -209q0 -149 18.5 -249.5t55.5 -155.5
t84 -77t113 -22q68 0 115.5 22t84.5 77t54.5 155.5t17.5 249.5z" />
    <glyph glyph-name="obreve" unicode="&#x14f;" horiz-adv-x="1134" 
d="M567 1454q61 0 114.5 14t76.5 28l24 15q44 -19 79.5 -58t49.5 -83q-4 -6 -12.5 -16.5t-40 -36.5t-67.5 -45.5t-96.5 -36t-127.5 -16.5t-127.5 15.5t-98.5 37.5t-66.5 44.5t-40.5 37.5l-13 16q15 45 50.5 84t80.5 57q9 -6 25.5 -15.5t72.5 -25.5t117 -16zM72 543
q0 563 495 563q496 0 496 -563t-496 -563q-495 0 -495 563zM733 543q0 126 -20 198.5t-55 98.5t-91 26q-41 0 -70.5 -14.5t-52 -50t-34 -99.5t-11.5 -159q0 -125 21 -198.5t56.5 -100.5t90.5 -27q56 0 91 27t55 100t20 199z" />
    <glyph glyph-name="Ohungarumlaut" unicode="&#x150;" horiz-adv-x="1411" 
d="M375 1628l178 291q72 8 149 -22.5t109 -79.5l-270 -273q-116 17 -166 84zM754 1628l178 291q72 8 148.5 -22.5t107.5 -79.5l-266 -273q-118 17 -168 84zM86 737q0 383 163.5 572.5t455.5 189.5q295 0 457.5 -187.5t162.5 -574.5q0 -388 -161.5 -575t-458.5 -187
q-296 0 -457.5 187t-161.5 575zM977 737q0 150 -17.5 250.5t-54.5 156t-84.5 77.5t-115.5 22q-52 0 -92 -13.5t-75 -47.5t-57 -90.5t-34.5 -145.5t-12.5 -209q0 -149 18.5 -249.5t55.5 -155.5t84 -77t113 -22q68 0 115.5 22t84.5 77t54.5 155.5t17.5 249.5z" />
    <glyph glyph-name="ohungarumlaut" unicode="&#x151;" horiz-adv-x="1134" 
d="M276 1292l166 252q68 8 141.5 -18.5t104.5 -69.5l-250 -237q-114 17 -162 73zM633 1292l172 252q69 8 143 -18.5t103 -69.5l-256 -237q-118 18 -162 73zM72 543q0 563 495 563q496 0 496 -563t-496 -563q-495 0 -495 563zM733 543q0 126 -20 198.5t-55 98.5t-91 26
q-41 0 -70.5 -14.5t-52 -50t-34 -99.5t-11.5 -159q0 -125 21 -198.5t56.5 -100.5t90.5 -27q56 0 91 27t55 100t20 199z" />
    <glyph glyph-name="OE" unicode="&#x152;" horiz-adv-x="1828" 
d="M86 737q0 387 161.5 572.5t461.5 185.5q102 0 186 -20h829q21 -58 21 -123t-21 -123h-507v-361h405q20 -55 20 -123q0 -69 -20 -124h-405v-373h528q20 -58 20 -125q0 -68 -20 -123h-852q-98 -20 -184 -20q-299 0 -461 187t-162 570zM897 1198q-92 45 -188 45
q-57 0 -99.5 -13t-80 -46.5t-61 -90t-37 -145.5t-13.5 -211t13.5 -210.5t37 -145t61 -90t80 -46t99.5 -12.5q106 0 188 43v922z" />
    <glyph glyph-name="oe" unicode="&#x153;" horiz-adv-x="1652" 
d="M1571 449h-557q13 -121 62.5 -171.5t144.5 -50.5q56 0 111.5 12t82.5 23l27 12q36 -30 62 -86.5t30 -115.5q-5 -4 -14 -10t-43 -22t-72.5 -28t-102.5 -22t-133 -10q-196 0 -307 124q-127 -124 -297 -124q-495 0 -495 563t495 563q191 0 299 -129q108 129 291 129
q206 0 322 -108.5t116 -323.5q0 -60 -5.5 -116t-11.5 -82zM1290 709q0 168 -129 168q-65 0 -102 -54t-47 -178h274q4 40 4 64zM565 866q-56 0 -91 -26t-56 -99t-21 -198q0 -126 20.5 -199t56 -100t91.5 -27q54 0 86 27.5t49 99.5t17 199t-17 198.5t-48.5 98t-86.5 26.5z" />
    <glyph glyph-name="Racute" unicode="&#x154;" horiz-adv-x="1296" 
d="M412 1626l186 303q75 8 155.5 -23.5t112.5 -82.5l-280 -287q-121 20 -174 90zM141 1475h564q230 0 355.5 -123t125.5 -330q0 -146 -66 -253.5t-188 -156.5l334 -594q-68 -18 -187 -18q-51 0 -96 4.5t-65 9.5l-19 4l-303 553h-129v-553q-60 -18 -160 -18q-49 0 -90.5 4.5
t-58.5 9.5l-17 4v1457zM467 1221v-396h190q93 0 141 51t48 146q0 96 -48 147.5t-141 51.5h-190z" />
    <glyph glyph-name="racute" unicode="&#x155;" horiz-adv-x="831" 
d="M250 1309l186 301q75 9 156 -23t113 -84l-279 -284q-126 21 -176 90zM426 956q108 148 225 148q92 0 180 -57q-6 -79 -39 -139t-94 -115q-47 41 -106 41q-92 0 -166 -93v-725q-60 -16 -158 -16q-46 0 -85.5 4t-55.5 8l-16 4v1053q53 16 157 16q45 0 84.5 -4t56.5 -8
l17 -4v-113z" />
    <glyph glyph-name="Rcommaaccent" unicode="&#x156;" horiz-adv-x="1294" 
d="M139 1475h563q230 0 356 -123t126 -330q0 -146 -66 -253.5t-188 -156.5l334 -594q-68 -18 -187 -18q-51 0 -96 4.5t-65 9.5l-19 4l-303 553h-129v-553q-60 -18 -160 -18q-49 0 -90.5 4.5t-58.5 9.5l-17 4v1457zM465 1221v-396h190q93 0 141 51t48 146q0 96 -48 147.5
t-141 51.5h-190zM506 -98q58 16 158 16q44 0 83 -4t57 -8l17 -4v-211q0 -73 -18.5 -141t-45 -113.5t-53 -80.5t-44.5 -51l-19 -16l-113 78q3 3 7.5 9.5t17 29t22.5 46.5t19.5 62.5t11.5 77.5q-27 2 -52 6t-36 8l-12 3v293z" />
    <glyph glyph-name="rcommaaccent" unicode="&#x157;" horiz-adv-x="833" 
d="M428 956q108 148 225 148q93 0 181 -57q-6 -78 -39 -138.5t-95 -115.5q-47 41 -106 41q-92 0 -166 -93v-725q-60 -16 -158 -16q-46 0 -85.5 4t-55.5 8l-16 4v1053q53 16 157 16q45 0 84.5 -4t56.5 -8l17 -4v-113zM115 -98q57 16 157 16q44 0 83.5 -4t56.5 -8l18 -4v-211
q0 -73 -18.5 -141t-45 -113.5t-53 -80.5t-45.5 -51l-18 -16l-113 78q3 3 7.5 9.5t17 29t22.5 46.5t19.5 62.5t11.5 77.5q-27 2 -52 6t-37 8l-11 3v293z" />
    <glyph glyph-name="Rcaron" unicode="&#x158;" horiz-adv-x="1296" 
d="M598 1808l217 136q87 -36 139 -138l-319 -270h-74l-321 270q53 103 139 140zM141 1475h564q230 0 355.5 -123t125.5 -330q0 -146 -66 -253.5t-188 -156.5l334 -594q-68 -18 -187 -18q-51 0 -96 4.5t-65 9.5l-19 4l-303 553h-129v-553q-60 -18 -160 -18q-49 0 -90.5 4.5
t-58.5 9.5l-17 4v1457zM467 1221v-396h190q93 0 141 51t48 146q0 96 -48 147.5t-141 51.5h-190z" />
    <glyph glyph-name="rcaron" unicode="&#x159;" horiz-adv-x="831" 
d="M430 1462l199 125q80 -29 127 -125l-291 -250h-68l-295 250q22 44 55 78.5t74 48.5zM426 956q108 148 225 148q92 0 180 -57q-6 -79 -39 -139t-94 -115q-47 41 -106 41q-92 0 -166 -93v-725q-60 -16 -158 -16q-46 0 -85.5 4t-55.5 8l-16 4v1053q53 16 157 16
q45 0 84.5 -4t56.5 -8l17 -4v-113z" />
    <glyph glyph-name="Sacute" unicode="&#x15a;" horiz-adv-x="1183" 
d="M911 1833l-290 -270q-121 24 -170 96l196 291q75 6 154 -29t110 -88zM678 1229q-260 0 -260 -158q0 -28 15.5 -51.5t38.5 -39.5t62.5 -32.5t74.5 -27.5t87.5 -28.5t89.5 -31.5q71 -26 125 -58t104.5 -81.5t77.5 -122t27 -164.5q0 -225 -138 -342t-415 -117
q-84 0 -165 10.5t-137 25t-100 29.5t-65 26l-22 10q-2 69 19.5 138t58.5 112q21 -7 57 -17.5t138.5 -28.5t193.5 -18q121 0 178 39.5t57 118.5q0 50 -41.5 88t-82 55t-134.5 48l-10.5 3.5t-9.5 3.5q-52 17 -84.5 28.5t-81.5 33.5t-79.5 43t-66.5 54.5t-56 71t-34 89
t-14 111.5q0 209 135.5 329.5t405.5 120.5q118 0 225.5 -17.5t155.5 -34.5l49 -17q2 -69 -19 -134.5t-63 -107.5q-135 41 -297 41z" />
    <glyph glyph-name="sacute" unicode="&#x15b;" horiz-adv-x="923" 
d="M725 1503l-279 -284q-126 21 -176 90l187 301q75 9 155.5 -23t112.5 -84zM76 762q0 163 102.5 253.5t308.5 90.5q101 0 184 -16t115 -32l33 -16q3 -60 -14.5 -117t-54.5 -94q-107 33 -230 33q-151 0 -151 -90q0 -20 11 -34.5t37 -26.5t47.5 -19.5t65 -20t68.5 -20.5
q44 -15 78 -30t72 -42t62.5 -59.5t41 -82t16.5 -109.5q0 -168 -105 -259t-319 -91q-67 0 -130 8.5t-105.5 20t-76 23.5t-48.5 20l-16 9q0 137 75 215q132 -47 271 -47q80 0 115.5 22.5t35.5 67.5q0 15 -5 28t-18.5 23.5t-24.5 18t-35.5 16t-38 13t-45.5 13.5t-46 13
q-46 14 -80 28.5t-73 40.5t-64 58t-42 81t-17 110z" />
    <glyph glyph-name="Scircumflex" unicode="&#x15c;" horiz-adv-x="1183" 
d="M657 1962l322 -270q-54 -103 -139 -136l-219 142l-218 -139q-87 34 -139 133l320 270h73zM678 1229q-260 0 -260 -158q0 -29 16 -52.5t40.5 -40t65 -33t77 -28t89.5 -29t91 -32.5q69 -26 121.5 -58t101 -81t74.5 -120.5t26 -162.5q0 -225 -138.5 -342t-414.5 -117
q-84 0 -165.5 10.5t-137.5 25t-100 29.5t-65 26l-21 10q-2 69 19.5 138t58.5 112q21 -7 57 -17.5t138.5 -28.5t193.5 -18q235 0 235 158q0 22 -7.5 41.5t-18 34t-31.5 29.5t-37.5 24t-48.5 21.5t-51 19t-58.5 19.5t-58.5 20q-53 17 -93 33t-87.5 41t-81 56.5t-62.5 72.5
t-44 96t-15 121q0 209 135.5 329.5t405.5 120.5q118 0 225.5 -17.5t155.5 -34.5l49 -17q0 -69 -20.5 -134.5t-61.5 -107.5q-135 41 -297 41z" />
    <glyph glyph-name="scircumflex" unicode="&#x15d;" horiz-adv-x="923" 
d="M514 1589l315 -264q-53 -100 -137 -133l-213 133l-213 -131q-87 34 -135 131l311 264h72zM76 762q0 163 102.5 253.5t308.5 90.5q101 0 184 -16t115 -32l33 -16q3 -60 -14.5 -117t-54.5 -94q-107 33 -230 33q-151 0 -151 -90q0 -21 14 -36.5t42 -27.5t56.5 -21t72.5 -22
t75 -24q51 -19 89.5 -41.5t74.5 -58.5t55.5 -90t19.5 -123q0 -168 -105 -259t-319 -91q-67 0 -130 8.5t-105.5 20t-76 23.5t-48.5 20l-16 9q0 137 75 215q132 -47 271 -47q80 0 115.5 22.5t35.5 67.5q0 12 -3 22t-10.5 19t-15 15.5t-21.5 13.5t-24.5 11.5t-29.5 11t-31 10
t-34.5 10t-35.5 10.5q-47 15 -81.5 28.5t-75.5 40t-66.5 58t-43 81.5t-17.5 112z" />
    <glyph glyph-name="Scedilla" unicode="&#x15e;" horiz-adv-x="1183" 
d="M791 858q55 -21 99 -44t88.5 -59t74.5 -79.5t48.5 -105.5t18.5 -136q0 -417 -465 -454l-16 -93q215 0 215 -202q0 -103 -71.5 -157t-196.5 -54q-62 0 -115.5 12t-76.5 24l-23 13q-2 33 12.5 67.5t38.5 51.5q60 -27 133 -27q55 -2 89 16.5t34 61.5q0 71 -88 71h-109
l-28 33l41 183q-112 6 -216 30t-152 45l-48 21q-2 69 19.5 138t58.5 112q21 -7 57 -17.5t138.5 -28.5t193.5 -18q121 0 178 39.5t57 118.5q0 51 -42.5 89.5t-84.5 55.5t-138 48q-20 7 -30 10q-49 16 -82 28.5t-78.5 34t-76 43t-64 54.5t-53 70t-32.5 87t-13 109
q0 209 135.5 329.5t405.5 120.5q118 0 225.5 -17.5t155.5 -34.5l49 -17q2 -69 -19 -135t-63 -107q-135 41 -297 41q-260 0 -260 -158q0 -28 16 -51.5t39.5 -39.5t63.5 -32.5t76 -28t88 -29t90 -32.5z" />
    <glyph glyph-name="scedilla" unicode="&#x15f;" horiz-adv-x="925" 
d="M76 762q0 163 102.5 253.5t308.5 90.5q101 0 184 -16t115 -32l33 -16q3 -60 -14.5 -117t-54.5 -94q-107 33 -230 33q-151 0 -151 -90q0 -16 10 -30t24 -23.5t39.5 -19t47 -16t56.5 -16.5t58 -18q56 -19 97 -40.5t82 -58t63 -93t22 -129.5q0 -152 -85 -240.5t-257 -105.5
l-16 -86q209 0 209 -195q0 -99 -69.5 -151t-190.5 -52q-61 0 -113.5 12t-75.5 24l-22 11q-2 31 12 64.5t37 50.5q60 -27 131 -27q52 -2 86.5 16.5t34.5 59.5q0 32 -21.5 51t-64.5 19h-107l-26 31l30 172q-83 6 -156 25.5t-104 35.5l-32 16q0 137 75 215q132 -47 271 -47
q80 0 115.5 22.5t35.5 67.5q0 15 -5 27.5t-18 23t-23.5 17.5t-34.5 15.5t-36.5 13t-44.5 13.5t-45 13q-47 14 -81.5 28.5t-74.5 40.5t-65.5 58t-43 82t-17.5 111z" />
    <glyph glyph-name="Scaron" unicode="&#x160;" horiz-adv-x="1181" 
d="M592 1569l-322 246q53 100 140 137l219 -133l217 131q87 -36 139 -135l-319 -246h-74zM676 1229q-133 0 -196.5 -38t-63.5 -120q0 -28 15 -51t37 -39t60.5 -32.5t72 -27t85 -27.5t86.5 -30q59 -22 104 -45t93 -59.5t79.5 -80t51.5 -106.5t20 -139q0 -225 -139 -342
t-416 -117q-84 0 -165 10.5t-136.5 25t-99.5 29.5t-65 26l-21 10q0 63 21 131.5t55 118.5q21 -7 57 -17.5t138.5 -28.5t193.5 -18q237 0 237 158q0 26 -8.5 48t-28 40t-39 31t-54 26.5t-59.5 22t-68 22.5q-13 4 -19 6q-51 16 -84.5 28t-82 33.5t-80.5 43t-67.5 55t-56.5 71
t-35 89.5t-14 113q0 208 136.5 329t404.5 121q118 0 225.5 -17.5t155.5 -34.5l49 -17q2 -67 -19 -132.5t-61 -109.5q-135 41 -299 41z" />
    <glyph glyph-name="scaron" unicode="&#x161;" horiz-adv-x="925" 
d="M440 1214l-290 246q48 95 126 123l197 -123l197 123q79 -33 125 -123l-287 -246h-68zM76 762q0 163 102.5 253.5t308.5 90.5q101 0 184.5 -16t116.5 -32l33 -16q2 -61 -15.5 -118t-55.5 -93q-107 33 -228 33q-153 0 -153 -90q0 -14 6 -25.5t19 -20.5t27 -16.5t37 -15
t41.5 -13t47.5 -14t49 -14.5q45 -16 79 -31.5t72.5 -42.5t63 -59.5t41 -82t16.5 -109.5q0 -168 -105 -259t-319 -91q-67 0 -130 8.5t-105.5 20t-76 23.5t-48.5 20l-16 9q0 137 75 215q132 -47 271 -47q80 0 115.5 22.5t35.5 67.5q0 15 -5 27.5t-18 23t-23.5 17.5t-34.5 15.5
t-36.5 13t-44.5 13.5t-45 13q-48 15 -81.5 29t-74.5 40.5t-66 58t-42.5 81.5t-17.5 111z" />
    <glyph glyph-name="Tcommaaccent" unicode="&#x162;" horiz-adv-x="1161" 
d="M55 1475h1049q20 -58 20 -136q0 -36 -5 -70.5t-10 -51.5l-5 -17h-356v-1182q-66 -18 -164 -18q-48 0 -88.5 4.5t-57.5 9.5l-16 4v1182h-367q-20 53 -20 135q0 36 5 71t10 52zM569 -711l-112 78q3 3 7.5 9.5t17 29t22.5 46.5t19.5 62.5t11.5 77.5q-27 2 -52.5 6t-36.5 8
l-12 3v293q58 16 158 16q44 0 83.5 -4t56.5 -8l18 -4v-211q0 -73 -18.5 -141t-45 -113.5t-53.5 -80.5t-45 -51z" />
    <glyph glyph-name="Tcommaaccent" unicode="&#x21a;" horiz-adv-x="1161" 
d="M55 1475h1049q20 -58 20 -136q0 -36 -5 -70.5t-10 -51.5l-5 -17h-356v-1182q-66 -18 -164 -18q-48 0 -88.5 4.5t-57.5 9.5l-16 4v1182h-367q-20 53 -20 135q0 36 5 71t10 52zM569 -711l-112 78q3 3 7.5 9.5t17 29t22.5 46.5t19.5 62.5t11.5 77.5q-27 2 -52.5 6t-36.5 8
l-12 3v293q58 16 158 16q44 0 83.5 -4t56.5 -8l18 -4v-211q0 -73 -18.5 -141t-45 -113.5t-53.5 -80.5t-45 -51z" />
    <glyph glyph-name="tcommaaccent" unicode="&#x163;" horiz-adv-x="802" 
d="M504 852v-457q0 -101 39.5 -137.5t126.5 -36.5q18 0 38.5 2t31.5 4l12 2q24 -47 24 -125q0 -28 -3.5 -53.5t-6.5 -36.5l-4 -12q-81 -22 -184 -22q-206 0 -298 96.5t-92 310.5v465h-147q-14 43 -14 111q0 34 3.5 62.5t7.5 40.5l3 11h147v183q59 32 145 45.5t171 5.5v-234
h221q14 -40 14 -112q0 -29 -3.5 -57.5t-7.5 -41.5l-3 -14h-221zM479 -711l-112 78q8 9 20 27t33.5 76.5t25.5 121.5q-28 2 -53.5 6t-36.5 8l-12 3v293q58 16 158 16q44 0 83 -4t57 -8l17 -4v-211q0 -73 -18.5 -141t-45 -113.5t-53 -80.5t-44.5 -51z" />
    <glyph glyph-name="tcommaaccent" unicode="&#x21b;" horiz-adv-x="802" 
d="M504 852v-457q0 -101 39.5 -137.5t126.5 -36.5q18 0 38.5 2t31.5 4l12 2q24 -47 24 -125q0 -28 -3.5 -53.5t-6.5 -36.5l-4 -12q-81 -22 -184 -22q-206 0 -298 96.5t-92 310.5v465h-147q-14 43 -14 111q0 34 3.5 62.5t7.5 40.5l3 11h147v183q59 32 145 45.5t171 5.5v-234
h221q14 -40 14 -112q0 -29 -3.5 -57.5t-7.5 -41.5l-3 -14h-221zM479 -711l-112 78q8 9 20 27t33.5 76.5t25.5 121.5q-28 2 -53.5 6t-36.5 8l-12 3v293q58 16 158 16q44 0 83 -4t57 -8l17 -4v-211q0 -73 -18.5 -141t-45 -113.5t-53 -80.5t-44.5 -51z" />
    <glyph glyph-name="Tcaron" unicode="&#x164;" horiz-adv-x="1159" 
d="M551 1544l-322 262q53 104 140 140l219 -138l215 136q90 -37 141 -138l-319 -262h-74zM57 1475h1047q20 -58 20 -136q0 -36 -5 -70.5t-10 -51.5l-5 -17h-354v-1182q-66 -18 -164 -18q-48 0 -89 4.5t-58 9.5l-17 4v1182h-365q-20 53 -20 135q0 36 5 71t10 52z" />
    <glyph glyph-name="tcaron" unicode="&#x165;" horiz-adv-x="802" 
d="M707 1169q-42 5 -79 25.5t-55 50.5q67 69 94.5 131t30.5 158q164 10 244 -55q-24 -110 -87.5 -195.5t-147.5 -114.5zM506 852v-457q0 -101 39 -137.5t127 -36.5q17 0 37.5 2t32.5 4l12 2q22 -47 22 -125q0 -28 -3.5 -53.5t-6.5 -36.5l-4 -12q-78 -22 -184 -22
q-206 0 -297 96t-91 311v465h-149q-14 43 -14 111q0 34 3.5 62.5t7.5 40.5l3 11h149v183q59 32 145 45.5t171 5.5v-234h219q14 -40 14 -112q0 -29 -3.5 -57.5t-7.5 -41.5l-3 -14h-219z" />
    <glyph glyph-name="Tbar" unicode="&#x166;" horiz-adv-x="1189" 
d="M764 799h254q13 -42 12.5 -95.5t-12.5 -95.5h-254v-590q-66 -18 -164 -18q-48 0 -89 4.5t-58 9.5l-17 4v590h-266q-12 46 -12 98.5t12 92.5h266v401h-364q-21 53 -21 135q0 36 5.5 71t10.5 52l5 17h1046q21 -58 21 -136q0 -36 -5.5 -70.5t-10.5 -51.5l-5 -17h-354v-401z
" />
    <glyph glyph-name="tbar" unicode="&#x167;" horiz-adv-x="806" 
d="M674 221q17 0 37.5 2t32.5 4l12 2q22 -47 22 -125q0 -28 -3.5 -53.5t-6.5 -36.5l-4 -12q-78 -22 -184 -22q-206 0 -296.5 96t-90.5 311v98h-130q-26 99 0 181h130v186h-150q-14 43 -14 111q0 34 3.5 62.5t7.5 40.5l3 11h150v183q59 32 144.5 45.5t170.5 5.5v-234h219
q14 -40 14 -112q0 -29 -3.5 -57.5t-7.5 -41.5l-3 -14h-219v-186h199q28 -84 0 -181h-199v-90q0 -101 39 -137.5t127 -36.5z" />
    <glyph glyph-name="Utilde" unicode="&#x168;" horiz-adv-x="1378" 
d="M834 1737q33 0 60 12.5t38 25.5l10 13q43 -21 71 -63.5t34 -88.5q-3 -4 -9 -11t-26.5 -24t-43.5 -30t-59.5 -24t-74.5 -11q-69 0 -143 31.5t-120 31.5q-30 0 -56.5 -12.5t-38.5 -25.5l-11 -13q-95 50 -105 150q3 4 9.5 11t27 24t43.5 30t58.5 24t72.5 11q71 0 144 -30.5
t119 -30.5zM1247 1456v-942q0 -255 -151 -397t-408 -142q-256 0 -406.5 143t-150.5 396v942q58 19 160 19q47 0 88.5 -4.5t59.5 -9.5l18 -5v-967q0 -116 60 -176.5t175 -60.5t174.5 60.5t59.5 176.5v967q55 19 159 19q45 0 85.5 -4.5t58.5 -9.5z" />
    <glyph glyph-name="utilde" unicode="&#x169;" horiz-adv-x="1120" 
d="M217 1386q3 4 9.5 11t27 25.5t43.5 32t58.5 25t72.5 11.5q71 0 143.5 -33t118.5 -33q33 0 60 13.5t38 27.5l11 13q42 -21 70 -64.5t34 -91.5q-3 -4 -9 -11t-26.5 -25t-43.5 -32t-59.5 -25t-74.5 -11q-69 0 -142.5 32.5t-119.5 32.5q-31 0 -57.5 -13t-37.5 -27l-11 -13
q-95 50 -105 155zM694 1069q56 16 158 16q46 0 85.5 -4t56.5 -8l16 -4v-1053q-52 -16 -158 -16q-45 0 -84.5 4t-56.5 8l-17 4v62q-107 -98 -274 -98q-153 0 -233.5 83t-80.5 224v782q54 16 158 16q47 0 86.5 -4t55.5 -8l16 -4v-721q0 -123 129 -123q79 0 143 58v786z" />
    <glyph glyph-name="Umacron" unicode="&#x16a;" horiz-adv-x="1378" 
d="M1014 1599h-639q-23 99 0 187h639q22 -86 0 -187zM1247 1456v-942q0 -255 -151 -397t-408 -142q-256 0 -406.5 143t-150.5 396v942q58 19 160 19q47 0 88.5 -4.5t59.5 -9.5l18 -5v-967q0 -116 60 -176.5t175 -60.5t174.5 60.5t59.5 176.5v967q55 19 159 19
q45 0 85.5 -4.5t58.5 -9.5z" />
    <glyph glyph-name="umacron" unicode="&#x16b;" horiz-adv-x="1120" 
d="M301 1436h522q22 -75 0 -170h-522q-17 94 0 170zM694 1069q56 16 158 16q47 0 86.5 -4t55.5 -8l16 -4v-1053q-52 -16 -158 -16q-45 0 -84.5 4t-56.5 8l-17 4v62q-107 -98 -272 -98q-154 0 -235 83t-81 224v782q54 16 158 16q47 0 86.5 -4t55.5 -8l16 -4v-721
q0 -123 131 -123q77 0 141 58v786z" />
    <glyph glyph-name="Ubreve" unicode="&#x16c;" 
d="M1057 1720q-4 -6 -13 -15.5t-41 -34.5t-69.5 -44.5t-100 -35t-131.5 -15.5t-131 15t-101 36.5t-68.5 42.5t-42.5 36l-13 15q18 43 54 79.5t81 53.5q9 -6 26 -15t74.5 -23.5t120.5 -14.5t118.5 13t79.5 27l24 13q45 -17 81.5 -54t51.5 -79zM1249 1456v-942
q0 -255 -152 -397t-409 -142q-256 0 -406.5 143t-150.5 396v942q58 19 162 19q46 0 87 -4.5t59 -9.5l18 -5v-967q0 -115 60.5 -176t174.5 -61q115 0 174.5 60.5t59.5 176.5v967q55 19 159 19q46 0 87 -4.5t59 -9.5z" />
    <glyph glyph-name="ubreve" unicode="&#x16d;" horiz-adv-x="1120" 
d="M555 1454q61 0 114.5 14t76.5 28l24 15q44 -19 80 -57.5t51 -83.5q-4 -6 -12.5 -16.5t-40 -36.5t-68 -45.5t-97.5 -36t-128 -16.5t-127 15.5t-97.5 37.5t-66 44.5t-40.5 37.5l-13 16q15 45 50 84t79 57q9 -6 25.5 -15.5t72.5 -25.5t117 -16zM694 1069q56 16 158 16
q46 0 85.5 -4t56.5 -8l16 -4v-1053q-52 -16 -158 -16q-45 0 -84.5 4t-56.5 8l-17 4v62q-107 -98 -274 -98q-153 0 -233.5 83t-80.5 224v782q54 16 158 16q47 0 86.5 -4t55.5 -8l16 -4v-721q0 -123 129 -123q79 0 143 58v786z" />
    <glyph glyph-name="Uring" unicode="&#x16e;" 
d="M698 1536q-126 0 -206 72t-80 198q0 124 85 194.5t203 70.5q117 0 204 -70.5t87 -194.5q0 -126 -84 -198t-209 -72zM805 1806q0 41 -28 71t-79 30q-49 0 -76.5 -30.5t-27.5 -70.5q0 -41 27 -70.5t77 -29.5q51 0 79 30t28 70zM1249 1456v-942q0 -255 -152 -397t-409 -142
q-256 0 -406.5 143t-150.5 396v942q58 19 162 19q46 0 87 -4.5t59 -9.5l18 -5v-967q0 -115 60.5 -176t174.5 -61q115 0 174.5 60.5t59.5 176.5v967q55 19 159 19q46 0 87 -4.5t59 -9.5z" />
    <glyph glyph-name="uring" unicode="&#x16f;" horiz-adv-x="1120" 
d="M270 1458q0 124 85.5 194t203.5 70q117 0 204 -70t87 -194q0 -126 -84 -198t-209 -72q-126 0 -206.5 72t-80.5 198zM664 1458q0 40 -28 69t-79 29q-49 0 -76.5 -29.5t-27.5 -68.5q0 -42 27.5 -72t76.5 -30q51 0 79 31t28 71zM694 1069q56 16 158 16q46 0 85.5 -4t56.5 -8
l16 -4v-1053q-52 -16 -158 -16q-45 0 -84.5 4t-56.5 8l-17 4v62q-107 -98 -274 -98q-153 0 -233.5 83t-80.5 224v782q54 16 158 16q47 0 86.5 -4t55.5 -8l16 -4v-721q0 -123 129 -123q79 0 143 58v786z" />
    <glyph glyph-name="Uhungarumlaut" unicode="&#x170;" 
d="M813 1812l-270 -276q-117 17 -168 88l180 293q72 9 149.5 -22.5t108.5 -82.5zM1188 1812l-270 -276q-117 17 -168 88l178 293q73 9 151 -22.5t109 -82.5zM1249 1456v-942q0 -255 -152 -397t-409 -142q-256 0 -406.5 143t-150.5 396v942q58 19 162 19q46 0 87 -4.5
t59 -9.5l18 -5v-967q0 -115 60.5 -176t174.5 -61q115 0 174.5 60.5t59.5 176.5v967q55 19 159 19q46 0 87 -4.5t59 -9.5z" />
    <glyph glyph-name="uhungarumlaut" unicode="&#x171;" horiz-adv-x="1120" 
d="M662 1481l-259 -262q-114 17 -159 81l172 277q69 9 143 -20t103 -76zM1020 1481l-258 -262q-115 17 -162 81l172 277q69 9 143 -20t105 -76zM106 287v782q54 16 158 16q47 0 86.5 -4t55.5 -8l16 -4v-721q0 -123 129 -123q79 0 143 58v786q56 16 158 16q46 0 85.5 -4
t56.5 -8l16 -4v-1053q-52 -16 -158 -16q-45 0 -84.5 4t-56.5 8l-17 4v62q-107 -98 -274 -98q-153 0 -233.5 83t-80.5 224z" />
    <glyph glyph-name="Uogonek" unicode="&#x172;" 
d="M926 1456q55 19 159 19q46 0 87 -4.5t59 -9.5l18 -5v-942q0 -199 -94 -330t-262 -182q-99 -31 -152 -71.5t-53 -104.5q0 -50 27.5 -74t70.5 -24q15 0 29.5 2.5t21.5 5.5l7 2q46 -34 43 -107q-8 -5 -23 -13t-60.5 -21t-90.5 -13q-96 0 -160 55t-64 154q0 123 109 189
q-218 25 -342.5 164t-124.5 368v942q58 19 162 19q46 0 87 -4.5t59 -9.5l18 -5v-967q0 -115 60.5 -176t174.5 -61q115 0 174.5 60.5t59.5 176.5v967z" />
    <glyph glyph-name="uogonek" unicode="&#x173;" horiz-adv-x="1120" 
d="M694 1069q56 16 158 16q46 0 85.5 -4t56.5 -8l16 -4v-1053q-179 -62 -179 -196q0 -78 111 -78q15 0 29 2.5t21 5.5l7 2q22 -17 34.5 -50t10.5 -67q-8 -5 -23 -12.5t-61 -20t-92 -12.5q-99 0 -169 51t-70 148q0 131 96 201l-16 88q-109 -98 -281 -98q-155 0 -238.5 84.5
t-83.5 228.5v776q54 16 158 16q47 0 86.5 -4t55.5 -8l16 -4v-721q0 -123 129 -123q79 0 143 58v786z" />
    <glyph glyph-name="Wcircumflex" unicode="&#x174;" horiz-adv-x="2023" 
d="M1063 1946l321 -271q-52 -102 -139 -139l-219 137l-217 -135q-88 36 -139 137l319 271h74zM1225 18l-158 785q-19 97 -30.5 189t-12.5 136l-2 43h-10q-4 -149 -47 -368l-160 -785q-85 -18 -215 -18q-124 0 -205 18l-350 1438q60 19 164 19q46 0 85 -4.5t54 -9.5l16 -5
l199 -819q16 -71 29.5 -153t19.5 -128l6 -47h8q17 164 50 326l170 821q59 19 186 19q57 0 104.5 -4.5t66.5 -9.5l19 -5l168 -819q16 -76 27 -158t15 -126l3 -44h9q16 148 57 326l201 821q55 19 147 19q40 0 78 -4.5t56 -9.5l18 -5l-355 -1438q-73 -18 -200 -18
q-58 0 -111 4.5t-77 9.5z" />
    <glyph glyph-name="wcircumflex" unicode="&#x175;" horiz-adv-x="1636" 
d="M870 1618l316 -264q-54 -103 -137 -135l-211 133l-213 -131q-89 34 -138 133l312 264h71zM967 16l-97 404q-34 147 -47 377h-8q-8 -210 -47 -377l-96 -404q-76 -16 -185 -16q-111 0 -192 16l-270 1053q57 16 153 16q45 0 79.5 -4t46.5 -8l11 -4l127 -479q32 -129 52 -297
h6q15 158 49 299l119 477q74 16 166 16q44 0 82.5 -4t55.5 -8l17 -4l115 -477q31 -128 47 -299h6q18 154 53 299l127 477q50 16 138 16q41 0 74.5 -4t46.5 -8l14 -4l-269 -1053q-76 -16 -186 -16q-109 0 -188 16z" />
    <glyph glyph-name="Ycircumflex" unicode="&#x176;" horiz-adv-x="1331" 
d="M719 1946l321 -271q-53 -104 -139 -139l-219 137l-215 -135q-92 38 -139 137l317 271h74zM977 1456q66 19 170 19q46 0 90 -4.5t65 -9.5l21 -5l-498 -872v-566q-55 -18 -159 -18q-52 0 -93.5 4.5t-56.5 9.5l-16 4v564l-484 874q66 19 193 19q49 0 93.5 -4.5t64.5 -9.5
l20 -5l293 -534z" />
    <glyph glyph-name="ycircumflex" unicode="&#x177;" horiz-adv-x="1118" 
d="M604 1618l314 -264q-54 -103 -138 -135l-211 133l-213 -131q-84 32 -137 133l311 264h74zM1096 1069l-353 -1186q-31 -103 -64.5 -171t-84.5 -121.5t-122.5 -78t-170.5 -24.5q-39 0 -78 6t-59 12l-19 7q-18 46 -18 112q0 29 5.5 59t11.5 45l6 15q49 -8 90 -8q43 0 69 6
t53.5 25.5t48.5 59.5t42 107l20 66q-50 0 -96 16l-359 1053q62 16 166 16q48 0 88 -4t56 -8l16 -4l166 -485q24 -70 40 -141t20 -107l5 -35h9q14 123 61 283l146 485q53 16 151 16q42 0 80.5 -4t55.5 -8z" />
    <glyph glyph-name="Ydieresis" unicode="&#x178;" horiz-adv-x="1331" 
d="M350 1788q45 14 135 14q39 0 73 -3.5t48 -6.5l15 -4v-236q-48 -14 -136 -14q-39 0 -73 3.5t-48 6.5l-14 4v236zM754 1788q45 14 135 14q38 0 72 -3.5t49 -6.5l14 -4v-236q-49 -14 -135 -14q-40 0 -73.5 3.5t-47.5 6.5l-14 4v236zM979 1456q66 19 170 19q46 0 90 -4.5
t65 -9.5l21 -5l-498 -872v-566q-55 -18 -159 -18q-52 0 -93.5 4.5t-56.5 9.5l-16 4v564l-486 874q68 19 195 19q49 0 93.5 -4.5t64.5 -9.5l20 -5l293 -534z" />
    <glyph glyph-name="Zacute" unicode="&#x179;" horiz-adv-x="1251" 
d="M455 1626l186 303q75 8 155.5 -23.5t112.5 -82.5l-280 -287q-121 20 -174 90zM131 1475h1010q20 -50 20 -127q0 -83 -20 -142l-695 -936h721q17 -66 17 -131q0 -78 -17 -139h-1093q-21 64 -21 139t21 131l682 936h-625q-18 64 -18 142q0 68 18 127z" />
    <glyph glyph-name="zacute" unicode="&#x17a;" horiz-adv-x="980" 
d="M780 1503l-280 -284q-124 21 -174 90l186 301q75 9 155.5 -23t112.5 -84zM418 248h473q18 -45 18 -125q0 -34 -4.5 -64.5t-8.5 -44.5l-5 -14h-815q-15 62 -15 129q0 61 15 119l477 590h-453q-16 51 -16 125q0 33 4 63.5t8 44.5l4 14h793q14 -49 14 -116q0 -74 -14 -131z
" />
    <glyph glyph-name="Zdotaccent" unicode="&#x17b;" horiz-adv-x="1249" 
d="M483 1851q46 15 142 15q41 0 76.5 -4t50.5 -8l16 -3v-262q-51 -14 -143 -14q-42 0 -77.5 3.5t-49.5 7.5l-15 3v262zM129 1475h1012q20 -58 20 -127q0 -74 -20 -142l-697 -936h723q15 -73 15 -131q0 -75 -15 -139h-1095q-19 68 -19 139q0 72 19 131l682 936h-625
q-16 69 -16 142q0 65 16 127z" />
    <glyph glyph-name="zdotaccent" unicode="&#x17c;" horiz-adv-x="980" 
d="M653 1497v-262q-51 -16 -143 -16q-43 0 -78.5 4t-49.5 8l-15 4v262q47 14 143 14q41 0 76.5 -3.5t51.5 -7.5zM418 248h473q18 -45 18 -125q0 -34 -4.5 -64.5t-8.5 -44.5l-5 -14h-815q-15 62 -15 129q0 61 15 119l477 590h-453q-16 51 -16 125q0 33 4 63.5t8 44.5l4 14
h793q14 -49 14 -116q0 -74 -14 -131z" />
    <glyph glyph-name="Zcaron" unicode="&#x17d;" horiz-adv-x="1251" 
d="M633 1808l217 136q87 -36 139 -138l-319 -262h-74l-322 262q24 47 60.5 84.5t79.5 55.5zM131 1475h1010q20 -50 20 -127q0 -83 -20 -142l-695 -936h721q17 -66 17 -131q0 -78 -17 -139h-1093q-21 64 -21 139t21 131l682 936h-625q-18 64 -18 142q0 68 18 127z" />
    <glyph glyph-name="zcaron" unicode="&#x17e;" horiz-adv-x="980" 
d="M477 1219l-291 245q44 90 125 125l197 -125l197 123q80 -33 124 -123l-286 -245h-66zM418 248h473q18 -45 18 -125q0 -34 -4.5 -64.5t-8.5 -44.5l-5 -14h-815q-15 62 -15 129q0 61 15 119l477 590h-453q-16 51 -16 125q0 33 4 63.5t8 44.5l4 14h793q14 -49 14 -116
q0 -74 -14 -131z" />
    <glyph glyph-name="longs" unicode="&#x17f;" horiz-adv-x="655" 
d="M502 1188v-1172q-56 -16 -158 -16q-46 0 -85.5 4t-56.5 8l-16 4v836h-131q-25 117 0 225h131v123q0 163 89.5 249.5t291.5 86.5q75 0 142.5 -14t98.5 -28l30 -13q-8 -120 -86 -211q-54 24 -148 24q-53 0 -77.5 -25t-24.5 -81z" />
    <glyph glyph-name="florin" unicode="&#x192;" horiz-adv-x="1042" 
d="M651 764l-69 -731q-7 -74 -29.5 -130t-65.5 -100t-112.5 -67t-163.5 -23q-74 0 -141 13.5t-97 27.5l-30 13q6 119 71 196q62 -22 146 -22q59 0 87 27.5t34 90.5l67 705h-147q-15 40 -15 108q0 29 4 56t8 39l3 12h168l12 117q7 74 29.5 130t64.5 99.5t111.5 66.5t163.5 23
q75 0 142.5 -13.5t97.5 -26.5l30 -13q-6 -121 -74 -197q-59 23 -147 23q-55 0 -83 -28t-34 -89l-8 -92h160q16 -41 16 -107q0 -30 -4 -57t-8 -39l-4 -12h-183z" />
    <glyph glyph-name="Aringacute" unicode="&#x1fa;" horiz-adv-x="1382" 
d="M1006 2130l-263 -211q-111 13 -163 68l174 223q70 7 145.5 -17t106.5 -63zM905 1415l463 -1397q-59 -18 -174 -18q-46 0 -85.5 4.5t-56.5 9.5l-16 4l-96 299h-514l-96 -299q-60 -18 -158 -18q-44 0 -83.5 4.5t-56.5 9.5l-18 4l463 1387q-80 71 -80 186q0 124 85.5 194
t203.5 70q117 0 204 -70t87 -194q0 -107 -72 -176zM791 1591q0 41 -28 71t-79 30q-49 0 -76.5 -30.5t-27.5 -70.5q0 -41 27 -70.5t77 -29.5q51 0 79 30t28 70zM864 557l-119 363q-19 59 -34 119t-20 90l-5 30h-8q-12 -110 -53 -239l-123 -363h362z" />
    <glyph glyph-name="aringacute" unicode="&#x1fb;" horiz-adv-x="1058" 
d="M354 1767l174 226q71 6 146 -18t106 -62l-262 -211q-115 14 -164 65zM258 1413q0 118 82 186t197 68q113 0 196.5 -67.5t83.5 -186.5q0 -122 -80.5 -191t-201.5 -69q-122 0 -199.5 69.5t-77.5 190.5zM635 1413q0 38 -26 65t-74 27q-47 0 -73 -27.5t-26 -64.5
q0 -38 26 -66t73 -28q48 0 74 28t26 66zM133 1020q7 3 19 9t52.5 21t83 26t106.5 20.5t128 9.5q228 0 330 -92.5t102 -288.5v-709q-45 -16 -131 -16q-36 0 -69 4t-48 8l-14 4l-37 101q-69 -137 -286 -137q-154 0 -236 89t-82 267q0 172 102.5 251t307.5 79q59 0 178 -9v45
q0 75 -39.5 109.5t-128.5 34.5q-56 0 -118.5 -12t-96.5 -24l-35 -11q-40 30 -67 96q-13 29 -18 60.5t-4 48.5zM639 467q-61 6 -131 6t-105.5 -33t-35.5 -106q0 -77 29.5 -110.5t88.5 -33.5q54 0 89.5 32t50 79t14.5 105v61z" />
    <glyph glyph-name="AEacute" unicode="&#x1fc;" horiz-adv-x="1845" 
d="M1559 1823l-281 -287q-121 20 -174 90l186 303q76 8 156.5 -23.5t112.5 -82.5zM334 20q-65 -20 -174 -20q-117 0 -170 20l887 1455h866q19 -55 19 -125t-19 -121h-506v-361h403q20 -58 20 -125.5t-20 -121.5h-403v-373h526q45 -130 0 -248h-839v326h-410zM926 1016
l-264 -445h264v445z" />
    <glyph glyph-name="aeacute" unicode="&#x1fd;" horiz-adv-x="1581" 
d="M1053 1503l-281 -284q-124 21 -174 90l186 301q75 9 156 -23t113 -84zM813 983q123 123 287 123q197 0 309.5 -107.5t112.5 -320.5q0 -56 -6 -111.5t-12 -82.5l-5 -27h-555q13 -120 66.5 -175t148.5 -55q54 0 106.5 12t78.5 23l26 12q37 -31 62.5 -86t29.5 -116
q-5 -4 -14 -10t-41.5 -22t-70 -28t-100 -22t-130.5 -10q-76 0 -140 18.5t-105.5 48t-66 55t-40.5 52.5q-111 -174 -355 -174q-348 0 -348 354q0 169 103 245t307 76h164v56q0 68 -36.5 101.5t-123.5 33.5q-55 0 -115.5 -12t-93.5 -24l-33 -11q-87 90 -90 221l18 9t51.5 21
t81.5 26t105.5 20.5t126.5 9.5q200 0 297 -123zM1219 709q0 168 -121 168q-65 0 -105 -52.5t-51 -173.5h272q5 29 5 58zM625 463h-119q-74 0 -105.5 -31t-31.5 -104q0 -133 106 -133q76 0 113 57t37 151v60z" />
    <glyph glyph-name="Oslashacute" unicode="&#x1fe;" horiz-adv-x="1409" 
d="M1063 1862l-279 -285q-126 21 -176 90l187 301q75 9 155.5 -22.5t112.5 -83.5zM987 1440l88 143q59 -1 116.5 -29.5t92.5 -70.5l-113 -185q152 -194 152 -561q0 -388 -161.5 -575t-456.5 -187q-176 0 -302 66l-90 -150q-60 2 -118 30t-93 73l121 196q-139 190 -139 547
q0 194 43.5 340.5t125.5 238.5t195 137.5t257 45.5q158 0 282 -59zM856 1198q-59 45 -151 45q-53 0 -93 -13.5t-75 -47.5t-57.5 -90.5t-35 -145.5t-12.5 -209q0 -127 17 -205zM956 958l-409 -675q55 -50 158 -50q68 0 115 22t84 77t55 155.5t18 249.5q0 118 -21 221z" />
    <glyph glyph-name="oslashacute" unicode="&#x1ff;" horiz-adv-x="1134" 
d="M805 1503l-279 -284q-126 21 -176 90l187 301q75 9 155.5 -23t112.5 -84zM786 1069l72 117q45 -1 88.5 -24t69.5 -54l-84 -135q131 -140 131 -430q0 -563 -496 -563q-128 0 -219 36l-82 -131q-101 3 -160 78l95 152q-129 142 -129 428q0 563 495 563q126 0 219 -37z
M657 840q-36 26 -90 26q-56 0 -91 -26t-56 -99t-21 -198q0 -65 9 -111zM725 653l-250 -407q36 -29 92 -29t90.5 26t55 98.5t20.5 199.5q0 71 -8 112z" />
    <glyph glyph-name="Scommaaccent" unicode="&#x218;" horiz-adv-x="1181" 
d="M678 1229q-260 0 -260 -158q0 -28 15 -51t37.5 -38.5t60.5 -32t72 -27t85.5 -27.5t87.5 -31q74 -28 128.5 -59.5t107 -81.5t80.5 -123t28 -166q0 -225 -138.5 -342t-414.5 -117q-84 0 -165.5 10.5t-137.5 25t-100 29.5t-65 26l-21 10q-2 69 19.5 138t58.5 112
q21 -7 57 -17.5t138.5 -28.5t193.5 -18q235 0 235 158q0 50 -41 88.5t-82 55t-133 46.5q-26 9 -39 13q-57 18 -96.5 33.5t-90.5 41t-85 56.5t-65 72.5t-46.5 98t-15.5 124.5q0 209 135.5 329.5t405.5 120.5q118 0 225.5 -17.5t155.5 -34.5l49 -17q0 -160 -82 -242
q-135 41 -297 41zM563 -711l-112 78q8 9 19.5 27t32.5 76.5t25 121.5q-27 2 -52 6t-36 8l-12 3v293q58 16 158 16q44 0 83 -4t57 -8l17 -4v-211q0 -73 -18.5 -141t-45 -113.5t-53 -80.5t-44.5 -51z" />
    <glyph glyph-name="scommaaccent" unicode="&#x219;" horiz-adv-x="925" 
d="M76 762q0 163 103.5 253.5t309.5 90.5q101 0 184 -16t115 -32l33 -16q2 -61 -15.5 -118t-55.5 -93q-105 33 -228 33q-151 0 -151 -90q0 -17 10 -31t24 -23.5t39.5 -19t47.5 -15.5t57 -16t59 -18q44 -15 77 -31t69.5 -42.5t60 -59t38.5 -81t15 -107.5q0 -168 -105 -259
t-317 -91q-67 0 -130.5 8.5t-106 20t-76 23.5t-49.5 20l-16 9q0 137 75 215q132 -47 273 -47q149 0 149 90q0 15 -5 27.5t-17.5 23t-24 18t-34 15.5t-37 13t-44.5 14t-45 14q-59 17 -101.5 37t-87.5 55.5t-69 92.5t-24 133zM438 -711l-112 78q3 3 8 9.5t17.5 29t23 46.5
t20 62.5t11.5 77.5q-28 2 -53.5 6t-37.5 8l-12 3v293q58 16 158 16q44 0 83 -4t56 -8l18 -4v-211q0 -73 -18.5 -141t-45 -113.5t-53 -80.5t-45.5 -51z" />
    <glyph glyph-name="dotlessj" unicode="&#x237;" horiz-adv-x="544" 
d="M115 -135v1204q53 16 157 16q44 0 83.5 -4t56.5 -8l18 -4v-1249q0 -161 -83 -246.5t-251 -85.5q-52 0 -99 8t-68 16l-21 9q-8 32 -8 69q0 46 8.5 85.5t17.5 56.5l8 16q35 -8 70 -8q56 0 83.5 29.5t27.5 95.5z" />
    <glyph glyph-name="circumflex" unicode="&#x2c6;" horiz-adv-x="811" 
d="M440 1540l322 -270q-53 -104 -141 -140l-218 138l-217 -135q-92 38 -139 137l318 270h75z" />
    <glyph glyph-name="caron" unicode="&#x2c7;" horiz-adv-x="827" 
d="M369 1102l-322 270q55 104 139 137l220 -135l217 133q85 -32 139 -135l-320 -270h-73z" />
    <glyph glyph-name="breve" unicode="&#x2d8;" horiz-adv-x="663" 
d="M674 1358q-4 -6 -12.5 -16.5t-40 -36.5t-68 -46t-97.5 -36.5t-128 -16.5t-127 15.5t-97.5 38t-66 45t-41.5 37.5l-12 16q15 45 50 84t79 57q9 -6 25.5 -15.5t72.5 -25.5t117 -16t114.5 14t77.5 28l23 15q44 -19 80 -57.5t51 -83.5z" />
    <glyph glyph-name="dotaccent" unicode="&#x2d9;" horiz-adv-x="389" 
d="M336 1493v-262q-51 -14 -141 -14q-43 0 -79 3.5t-50 7.5l-15 3v262q48 14 144 14q40 0 75 -3.5t50 -7.5z" />
    <glyph glyph-name="ring" unicode="&#x2da;" horiz-adv-x="704" 
d="M348 989q-126 0 -206.5 72.5t-80.5 198.5q0 124 85.5 194t203.5 70q117 0 204 -70t87 -194q0 -126 -84 -198.5t-209 -72.5zM455 1260q0 41 -28 70.5t-79 29.5q-49 0 -76.5 -30t-27.5 -70q0 -41 27 -71t77 -30q51 0 79 30.5t28 70.5z" />
    <glyph glyph-name="ogonek" unicode="&#x2db;" horiz-adv-x="579" 
d="M365 -322q48 -36 45 -106q-8 -5 -23 -13t-60.5 -21t-90.5 -13q-97 0 -161.5 55t-64.5 154q0 110 94.5 178t272.5 72l39 -41q-100 -31 -153.5 -71.5t-53.5 -104.5q0 -48 28.5 -73.5t69.5 -25.5q15 0 29.5 2.5t21.5 5.5z" />
    <glyph glyph-name="tilde" unicode="&#x2dc;" horiz-adv-x="669" 
d="M467 1462q32 0 58.5 13.5t36.5 26.5l11 14q43 -21 71.5 -65.5t33.5 -90.5q-3 -4 -9 -11t-26.5 -25.5t-43 -32t-58.5 -25t-74 -11.5q-71 0 -143.5 33t-118.5 33q-31 0 -58.5 -13.5t-38.5 -26.5l-12 -13q-95 50 -104 155q3 4 9.5 11t27.5 25.5t44.5 32t59 25t72.5 11.5
q69 0 142.5 -33t119.5 -33z" />
    <glyph glyph-name="hungarumlaut" unicode="&#x2dd;" horiz-adv-x="790" 
d="M428 1561l-281 -285q-120 17 -176 90l189 301q75 9 155.5 -22.5t112.5 -83.5zM815 1561l-280 -285q-122 17 -175 90l187 301q75 9 155.5 -22.5t112.5 -83.5z" />
    <glyph glyph-name="pi" unicode="&#x3c0;" horiz-adv-x="1294" 
d="M471 1077h764q20 -58 20 -123q0 -68 -20 -123h-141v-344q0 -129 13 -237t27 -152l13 -43q-66 -55 -207 -55q-87 0 -119 14q-5 12 -12 40t-19 148t-12 281v348h-268v-813q-58 -18 -160 -18q-46 0 -85 4.5t-55 9.5l-15 4v797q-41 -5 -75.5 -11t-48.5 -10l-14 -3
q-20 55 -20 118q0 77 20 127q16 5 46.5 11.5t138 18t229.5 11.5z" />
    <glyph glyph-name="uni0401" unicode="&#x401;" horiz-adv-x="1142" 
d="M270 1835q46 14 136 14q39 0 73 -3.5t48 -7.5l14 -3v-236q-47 -14 -135 -14q-39 0 -73 3.5t-49 7.5l-14 3v236zM674 1835q45 14 135 14q38 0 71.5 -3.5t47.5 -7.5l14 -3v-236q-47 -14 -133 -14q-40 0 -73.5 3.5t-47.5 7.5l-14 3v236zM141 1475h897q21 -65 21 -119
q0 -70 -21 -131h-569v-357h467q20 -70 20 -120q0 -65 -20 -127h-467v-371h590q20 -55 20 -123q0 -74 -20 -127h-918v1475z" />
    <glyph glyph-name="uni0410" unicode="&#x410;" 
d="M483 1456q78 19 207 19q60 0 111.5 -4.5t73.5 -9.5l22 -5l467 -1438q-57 -18 -172 -18q-47 0 -86.5 4.5t-55.5 9.5l-16 4l-96 299h-514l-96 -299q-60 -18 -160 -18q-43 0 -81 4.5t-55 9.5l-16 4zM684 1167h-8q-14 -110 -55 -239l-121 -371h362l-119 371q-19 58 -34 118
t-20 90z" />
    <glyph glyph-name="uni0411" unicode="&#x411;" horiz-adv-x="1280" 
d="M141 1475h932q25 -44 25 -134q0 -36 -6 -68.5t-12 -47.5l-7 -15h-604v-303h283q222 0 347.5 -122.5t125.5 -329.5q0 -208 -125.5 -331.5t-347.5 -123.5h-611v1475zM469 668v-428h219q99 0 150 55.5t51 159.5q0 103 -51 158t-150 55h-219z" />
    <glyph glyph-name="uni0412" unicode="&#x412;" horiz-adv-x="1290" 
d="M141 1475h602q199 0 312.5 -110t113.5 -302q0 -204 -159 -301q96 -47 149 -132t53 -204q0 -204 -122 -315t-338 -111h-611v1475zM467 866h211q81 0 123.5 50t42.5 137q0 89 -42 137.5t-124 48.5h-211v-373zM467 238h221q193 0 193 196q0 101 -48 149t-145 48h-221v-393z
" />
    <glyph glyph-name="uni0413" unicode="&#x413;" horiz-adv-x="1034" 
d="M141 1475h844q21 -46 21 -134q0 -34 -5 -66.5t-11 -48.5l-5 -16h-516v-1192q-64 -18 -166 -18q-44 0 -84.5 4.5t-58.5 9.5l-19 4v1457z" />
    <glyph glyph-name="uni0414" unicode="&#x414;" horiz-adv-x="1472" 
d="M1253 250h160v-533q-72 -20 -145 -20q-90 0 -154 20v283h-782v-283q-68 -18 -150 -18q-84 0 -149 18v533h110q132 87 164 502l55 723h891v-1225zM655 1241l-34 -502q-22 -313 -111 -489h418v991h-273z" />
    <glyph glyph-name="uni0415" unicode="&#x415;" horiz-adv-x="1142" 
d="M141 1475h897q21 -65 21 -119q0 -70 -21 -131h-569v-353h467q20 -70 20 -120q0 -65 -20 -127h-467v-375h590q20 -55 20 -123q0 -74 -20 -127h-918v1475z" />
    <glyph glyph-name="uni0416" unicode="&#x416;" horiz-adv-x="1910" 
d="M1516 1456q86 19 163 19q85 0 174 -19l-393 -661l457 -777q-74 -18 -191 -18q-52 0 -97.5 4.5t-64.5 9.5l-20 4l-364 625h-62v-625q-49 -18 -164 -18q-46 0 -87 4.5t-59 9.5l-17 4v625h-60l-366 -625q-66 -18 -181 -18q-52 0 -99.5 4.5t-68.5 9.5l-22 4l455 777l-394 661
q93 19 174 19q82 0 164 -19l338 -567h60v567q59 19 165 19q46 0 86.5 -4.5t57.5 -9.5l18 -5v-567h62z" />
    <glyph glyph-name="uni0417" unicode="&#x417;" horiz-adv-x="1148" 
d="M68 1419q7 3 20 8.5t55.5 19.5t89 24.5t118 19t143.5 8.5q263 0 396.5 -102.5t133.5 -302.5q0 -252 -174 -332v-8q217 -91 217 -359q0 -201 -144 -310.5t-448 -109.5q-79 0 -152 8t-121.5 20t-85.5 24t-54 20l-17 8q-2 67 21 130.5t65 105.5q148 -45 297 -45
q151 0 228 45t77 145q0 101 -65 145t-205 44h-166q-20 50 -20 126.5t20 122.5h166q123 0 177 43t54 136q0 184 -241 184q-73 0 -145 -10.5t-108 -21.5l-36 -11q-50 36 -74.5 96.5t-21.5 128.5z" />
    <glyph glyph-name="uni0418" unicode="&#x418;" horiz-adv-x="1421" 
d="M903 1456q62 19 189 19q57 0 104.5 -4.5t66.5 -9.5l19 -5v-1438q-62 -18 -162 -18q-49 0 -90 4.5t-58 9.5l-16 4v480q0 158 8 301.5t16 207.5l7 64h-10q-44 -158 -191 -481l-256 -572l-4 -1q-5 -1 -13.5 -2.5t-20 -3.5t-28 -4t-35.5 -3.5t-44 -2.5t-51 -1
q-63 0 -111.5 4.5t-66.5 9.5l-17 4v1438q62 19 162 19q29 0 56.5 -2t46.5 -4.5t34 -5.5t23 -5l8 -2v-477q0 -156 -7.5 -304.5t-15.5 -218.5l-8 -71h11q47 168 198 502z" />
    <glyph glyph-name="uni0419" unicode="&#x419;" horiz-adv-x="1421" 
d="M713 1858q68 0 130 19t90 37l28 19q46 -22 84 -69.5t51 -102.5q-5 -6 -15 -16.5t-45 -37.5t-75.5 -47t-107.5 -37t-140 -17q-72 0 -138 16t-109 39t-75 45.5t-47 38.5l-14 16q13 55 51 102.5t84 69.5q4 -3 11 -8t31.5 -18t51.5 -23t69 -18t85 -8zM903 1456q62 19 189 19
q57 0 104.5 -4.5t66.5 -9.5l19 -5v-1438q-62 -18 -162 -18q-49 0 -90 4.5t-58 9.5l-16 4v480q0 158 8 301.5t16 207.5l7 64h-10q-44 -158 -191 -481l-256 -572l-4 -1q-5 -1 -13.5 -2.5t-20 -3.5t-28 -4t-35.5 -3.5t-44 -2.5t-51 -1q-63 0 -111.5 4.5t-66.5 9.5l-17 4v1438
q62 19 162 19q29 0 56.5 -2t46.5 -4.5t34 -5.5t23 -5l8 -2v-477q0 -156 -7.5 -304.5t-15.5 -218.5l-8 -71h11q47 168 198 502z" />
    <glyph glyph-name="uni041A" unicode="&#x41a;" horiz-adv-x="1292" 
d="M547 889l352 567q86 19 164 19q81 0 174 -19l-410 -661l473 -777q-75 -18 -192 -18q-51 0 -96 4.5t-64 9.5l-20 4l-381 625h-78v-625q-49 -18 -164 -18q-47 0 -88 4.5t-59 9.5l-17 4v1438q55 19 166 19q47 0 87.5 -4.5t57.5 -9.5l17 -5v-567h78z" />
    <glyph glyph-name="uni041B" unicode="&#x41b;" horiz-adv-x="1413" 
d="M199 -14q-84 0 -148 22q-20 58 -20 115q0 65 20 121q44 -4 84 2q23 4 44.5 18t49.5 53t50 98.5t42 164t31 239.5l51 656h869v-1457q-60 -18 -160 -18q-115 0 -164 18v1207h-270l-29 -410q-60 -829 -450 -829z" />
    <glyph glyph-name="uni041C" unicode="&#x41c;" horiz-adv-x="1697" 
d="M1145 1456q83 19 198 19q97 0 216 -19v-1438q-56 -18 -156 -18q-45 0 -85 4.5t-58 9.5l-17 4v431q0 178 8 371.5t19 277.5h-13q-19 -66 -72.5 -210t-105.5 -270l-133 -313q-41 -14 -117 -14q-34 0 -61 3.5t-37 7.5l-10 3q-120 279 -129 301q-56 128 -111 276t-73 216h-13
q15 -71 25 -253t10 -364v-463q-53 -18 -145 -18q-40 0 -76.5 4.5t-52.5 9.5l-17 4v1438q147 19 201 19q50 0 99 -4.5t73 -9.5l23 -5l161 -377q108 -257 142 -395h10q18 101 70 234q62 151 227 538z" />
    <glyph glyph-name="uni041D" unicode="&#x41d;" horiz-adv-x="1394" 
d="M928 889v567q64 19 164 19q44 0 85 -4.5t59 -9.5l19 -5v-1438q-61 -18 -161 -18q-49 0 -90.5 4.5t-58.5 9.5l-17 4v605h-461v-605q-66 -18 -164 -18q-48 0 -89 4.5t-58 9.5l-17 4v1438q62 19 162 19q45 0 86.5 -4.5t60.5 -9.5l19 -5v-567h461z" />
    <glyph glyph-name="uni041E" unicode="&#x41e;" horiz-adv-x="1411" 
d="M86 737q0 194 43.5 340.5t125.5 238.5t195 137.5t257 45.5q293 0 455.5 -187.5t162.5 -574.5q0 -388 -161.5 -575t-456.5 -187q-297 0 -459 187t-162 575zM979 737q0 150 -18 250.5t-55 156t-84 77.5t-115 22q-53 0 -93 -13.5t-75 -47.5t-57.5 -90.5t-35 -145.5
t-12.5 -209t12.5 -208.5t35 -144.5t57.5 -90t75 -47.5t93 -13.5q68 0 115 22t84 77t55 155.5t18 249.5z" />
    <glyph glyph-name="uni041F" unicode="&#x41f;" horiz-adv-x="1374" 
d="M1233 1475v-1457q-56 -18 -162 -18q-53 0 -94.5 4.5t-56.5 9.5l-15 4v1192h-436v-1192q-60 -18 -164 -18q-52 0 -93 4.5t-56 9.5l-15 4v1457h1092z" />
    <glyph glyph-name="uni0420" unicode="&#x420;" horiz-adv-x="1245" 
d="M469 535v-517q-60 -18 -164 -18q-49 0 -90 4.5t-57 9.5l-17 4v1457h568q223 0 352 -126t129 -345q0 -218 -129 -343.5t-352 -125.5h-240zM469 788h193q91 0 140.5 56t49.5 160q0 105 -49.5 160t-140.5 55h-193v-431z" />
    <glyph glyph-name="uni0421" unicode="&#x421;" horiz-adv-x="1167" 
d="M84 737q0 372 165.5 567t479.5 195q69 0 133 -8t106.5 -20t75 -24t47.5 -20l15 -8q6 -129 -94 -225q-111 41 -240 41q-82 0 -142 -23.5t-106.5 -79t-70 -155t-23.5 -242.5t23.5 -241.5t70 -152.5t106 -76.5t142.5 -22.5q62 0 126.5 11t97.5 23l34 11q45 -41 70.5 -103
t25.5 -129q-6 -3 -16.5 -8.5t-48 -19.5t-80 -24.5t-111 -19t-141.5 -8.5q-314 0 -479.5 195t-165.5 567z" />
    <glyph glyph-name="uni0422" unicode="&#x422;" horiz-adv-x="1159" 
d="M55 1475h1049q20 -58 20 -136q0 -36 -5 -70.5t-10 -51.5l-5 -17h-356v-1182q-66 -18 -164 -18q-48 0 -88.5 4.5t-57.5 9.5l-16 4v1182h-367q-20 53 -20 135q0 36 5 71t10 52z" />
    <glyph glyph-name="uni0423" unicode="&#x423;" horiz-adv-x="1273" 
d="M940 1456q62 19 160 19q39 0 79 -4.5t61 -9.5l20 -5l-388 -1061q-43 -116 -100 -196.5t-122 -122.5t-128.5 -59t-136.5 -17q-43 0 -85 6t-62 12l-21 7q-22 50 -22 122q0 31 3.5 62.5t7.5 46.5l3 16q64 -8 121 -8q68 0 121.5 38t101.5 138h-74l-467 1016q65 19 176 19
q54 0 98 -4.5t62 -9.5l17 -5l229 -506q24 -56 44 -112t28 -84l8 -27h8q23 96 72 227z" />
    <glyph glyph-name="uni0424" unicode="&#x424;" horiz-adv-x="1667" 
d="M670 1360v127q57 18 161 18q47 0 88.5 -4.5t59.5 -8.5l18 -5v-127q613 0 613 -590q0 -129 -29.5 -229t-82 -167.5t-130 -110.5t-168.5 -62t-203 -19v-164q-61 -18 -163 -18q-49 0 -90 4.5t-58 9.5l-16 4v164q-112 0 -203 19t-168.5 62t-130 110.5t-82 167.5t-29.5 229
q0 590 613 590zM678 420v700q-67 0 -117 -15.5t-91.5 -53t-63 -108t-21.5 -173.5q0 -104 21.5 -174.5t63 -108t91 -52.5t117.5 -15zM989 1120v-700q67 0 117 15.5t92 53t64 108t22 173.5q0 104 -21.5 174.5t-63.5 108t-92 52.5t-118 15z" />
    <glyph glyph-name="uni0425" unicode="&#x425;" horiz-adv-x="1320" 
d="M936 1456q84 19 168 19q88 0 172 -19l-399 -674l440 -759q-63 -23 -182 -23q-52 0 -97.5 5t-65.5 10l-20 5l-303 515l-309 -519q-72 -16 -156 -16q-115 0 -186 16l444 754l-391 686q64 19 191 19q49 0 94 -4.5t66 -9.5l20 -5l254 -436z" />
    <glyph glyph-name="uni0426" unicode="&#x426;" horiz-adv-x="1452" 
d="M141 0v1456q55 19 164 19q44 0 85 -4.5t60 -9.5l19 -5v-1192h436v1192q55 19 166 19q44 0 84.5 -4.5t58.5 -9.5l19 -5v-1192h158v-547q-72 -20 -146 -20q-86 0 -153 20v283h-951z" />
    <glyph glyph-name="uni0427" unicode="&#x427;" horiz-adv-x="1320" 
d="M856 836v620q64 19 164 19q44 0 84.5 -4.5t59.5 -9.5l18 -5v-1438q-60 -18 -160 -18q-49 0 -90.5 4.5t-58.5 9.5l-17 4v555q-130 -49 -297 -49q-232 0 -351.5 111.5t-119.5 363.5v457q62 19 162 19q45 0 86 -4.5t60 -9.5l18 -5v-452q0 -120 52 -169t161 -49q118 0 229 50
z" />
    <glyph glyph-name="uni0428" unicode="&#x428;" horiz-adv-x="1959" 
d="M139 0v1456q55 19 164 19q44 0 85 -4.5t60 -9.5l19 -5v-1192h348v1192q55 19 166 19q44 0 84.5 -4.5t58.5 -9.5l19 -5v-1192h348v1192q55 19 166 19q44 0 84.5 -4.5t58.5 -9.5l19 -5v-1456h-1680z" />
    <glyph glyph-name="uni0429" unicode="&#x429;" horiz-adv-x="2039" 
d="M141 0v1456q55 19 164 19q44 0 85 -4.5t60 -9.5l19 -5v-1192h348v1192q55 19 166 19q44 0 84.5 -4.5t58.5 -9.5l19 -5v-1192h348v1192q55 19 166 19q44 0 84.5 -4.5t58.5 -9.5l19 -5v-1192h157v-547q-54 -20 -149 -20q-86 0 -150 20v283h-1538z" />
    <glyph glyph-name="uni042A" unicode="&#x42a;" horiz-adv-x="1480" 
d="M672 915h272q223 0 352 -121.5t129 -334.5q0 -215 -129 -337t-352 -122h-598v1200h-291q-20 53 -20 135q0 36 5 71t10 52l5 17h617v-560zM672 662v-406h223q93 0 141.5 51t48.5 152q0 99 -48.5 151t-141.5 52h-223z" />
    <glyph glyph-name="uni042B" unicode="&#x42b;" horiz-adv-x="1828" 
d="M139 1456q53 19 164 19q46 0 87 -4.5t59 -9.5l18 -5v-541h270q224 0 353 -121.5t129 -334.5q0 -214 -129 -336.5t-353 -122.5h-598v1456zM1362 1456q64 19 164 19q45 0 86 -4.5t60 -9.5l18 -5v-1438q-66 -18 -164 -18q-48 0 -89 4.5t-58 9.5l-17 4v1438zM467 662v-406
h223q92 0 141.5 51.5t49.5 151.5q0 99 -49.5 151t-141.5 52h-223z" />
    <glyph glyph-name="uni042C" unicode="&#x42c;" horiz-adv-x="1275" 
d="M467 915h270q224 0 353 -121.5t129 -334.5q0 -214 -129 -336.5t-353 -122.5h-598v1456q53 19 164 19q46 0 87 -4.5t59 -9.5l18 -5v-541zM467 256h223q92 0 141.5 51.5t49.5 151.5q0 99 -49.5 151t-141.5 52h-223v-406z" />
    <glyph glyph-name="uni042D" unicode="&#x42d;" horiz-adv-x="1212" 
d="M68 1419q6 3 18 8.5t51.5 19.5t83 24.5t111.5 19t139 8.5q325 0 491 -194t166 -568t-166 -568t-491 -194q-116 0 -222.5 20t-154.5 40l-49 20q0 68 23 132.5t65 101.5q137 -45 293 -45q75 0 132 17.5t105.5 59t78.5 118t40 186.5h-489q-21 47 -21 127q0 36 5 66t11 42
l5 12h485q-11 103 -41.5 175.5t-78 112.5t-103.5 57.5t-129 17.5q-62 0 -128.5 -10.5t-101.5 -20.5l-36 -10q-44 38 -68 99.5t-24 125.5z" />
    <glyph glyph-name="uni042E" unicode="&#x42e;" horiz-adv-x="1978" 
d="M141 18v1438q64 19 164 19q45 0 86 -4.5t59 -9.5l19 -5v-592h188q27 320 186.5 477.5t428.5 157.5q297 0 458.5 -187t161.5 -575t-161.5 -575t-458.5 -187q-270 0 -429 156t-186 479h-188v-592q-66 -18 -164 -18q-48 0 -89 4.5t-58 9.5zM1272 1243q-53 0 -93 -13.5
t-75 -47.5t-57.5 -90.5t-35 -145.5t-12.5 -209t12.5 -208.5t35 -144.5t57.5 -90t75 -47.5t93 -13.5q68 0 115 22t84 77t55 155.5t18 249.5q0 150 -18 250.5t-55 156t-84 77.5t-115 22z" />
    <glyph glyph-name="uni042F" unicode="&#x42f;" horiz-adv-x="1298" 
d="M1157 1475v-1457q-55 -18 -164 -18q-45 0 -86 4.5t-59 9.5l-19 4v529h-137l-282 -529q-70 -18 -185 -18q-53 0 -98 4.5t-63 9.5l-19 4l311 570q-122 50 -189 159.5t-67 262.5q0 212 126 338.5t356 126.5h575zM829 1221h-200q-94 0 -142.5 -54t-48.5 -157
q0 -102 49 -155.5t142 -53.5h200v420z" />
    <glyph glyph-name="uni0430" unicode="&#x430;" horiz-adv-x="1058" 
d="M133 1020q7 3 19 9t52.5 21t83 26t106.5 20.5t128 9.5q228 0 330 -92.5t102 -288.5v-709q-45 -16 -131 -16q-36 0 -69 4t-48 8l-14 4l-37 101q-69 -137 -286 -137q-154 0 -236 89t-82 267q0 172 102.5 251t307.5 79q59 0 178 -9v41q0 72 -38 110t-130 38
q-56 0 -118.5 -12t-96.5 -24l-35 -11q-40 30 -67 96q-13 29 -18 60.5t-4 48.5zM639 467q-61 6 -131 6t-105.5 -33t-35.5 -106q0 -77 29.5 -110.5t88.5 -33.5q79 0 115.5 63.5t38.5 152.5v61z" />
    <glyph glyph-name="uni0431" unicode="&#x431;" horiz-adv-x="1171" 
d="M88 719q0 148 15 256t51.5 187.5t82.5 131.5t125.5 89t162 59t208.5 43q63 9 86 20.5t41 44.5q64 -5 119.5 -33t85.5 -73q-20 -110 -78 -161.5t-170 -65.5q-78 -11 -126.5 -18.5t-103.5 -19t-86 -23.5t-65.5 -30t-53 -39t-36.5 -51t-27.5 -66.5t-15.5 -84.5h8
q97 168 332 168q457 0 457 -537q0 -145 -34 -249t-100 -166.5t-155 -91.5t-207 -29q-96 0 -171 20t-141.5 70.5t-110 133t-68.5 212.5t-25 303zM604 821q-58 0 -92.5 -23.5t-55 -91.5t-20.5 -190q0 -118 20 -186t55 -92.5t93 -24.5t92.5 24.5t54 92.5t19.5 186
q0 175 -39.5 240t-126.5 65z" />
    <glyph glyph-name="uni0432" unicode="&#x432;" horiz-adv-x="1060" 
d="M639 1085q150 0 231.5 -78.5t81.5 -211.5q0 -168 -118 -236q159 -72 159 -246q0 -144 -91 -228.5t-259 -84.5h-530v1085h526zM424 647h133q49 0 74.5 32t25.5 87q0 52 -26 83.5t-74 31.5h-133v-234zM424 205h137q123 0 123 114q0 63 -29.5 93t-93.5 30h-137v-237z" />
    <glyph glyph-name="uni0433" unicode="&#x433;" horiz-adv-x="851" 
d="M111 1085h696q20 -50 20 -124q0 -33 -5 -63.5t-10 -45.5l-5 -14h-381v-822q-60 -16 -158 -16q-46 0 -85.5 4t-55.5 8l-16 4v1069z" />
    <glyph glyph-name="uni0434" unicode="&#x434;" horiz-adv-x="1230" 
d="M41 225h76q51 29 81.5 116.5t43.5 256.5l37 487h768v-860h129v-471q-43 -16 -136 -16q-100 0 -159 16v246h-545v-246q-50 -16 -148 -16q-108 0 -147 16v471zM545 854l-21 -276q-14 -211 -75 -353h284v629h-188z" />
    <glyph glyph-name="uni0435" unicode="&#x435;" horiz-adv-x="1052" 
d="M971 449h-572q14 -119 68.5 -165t153.5 -46q56 0 111.5 12t82.5 24l27 13q37 -32 63 -93t29 -122q-5 -4 -14.5 -10t-44 -22t-73.5 -28t-102 -22t-131 -10q-252 0 -374.5 139.5t-122.5 425.5q0 284 126.5 422.5t356.5 138.5q206 0 322 -108.5t116 -323.5q0 -60 -5.5 -116
t-11.5 -82zM690 709q0 168 -129 168q-142 0 -164 -232h289q4 40 4 64z" />
    <glyph glyph-name="uni0436" unicode="&#x436;" horiz-adv-x="1595" 
d="M1227 1069q53 16 153 16q43 0 83.5 -4t59.5 -8l19 -4l-237 -483l282 -568q-57 -18 -174 -18q-45 0 -86.5 4t-60.5 8l-19 4l-215 437h-76v-437q-55 -16 -155 -16q-45 0 -85 4t-58 8l-17 4v437h-78l-213 -437q-66 -16 -168 -16q-52 0 -95 4.5t-60 9.5l-17 4l283 568
l-238 483q66 16 166 16q45 0 83 -4t54 -8l15 -4l188 -389h80v389q60 16 160 16q41 0 79.5 -4t57.5 -8l18 -4v-389h80z" />
    <glyph glyph-name="uni0437" unicode="&#x437;" horiz-adv-x="954" 
d="M61 1044q5 3 14 7t42 14.5t71.5 19t102 15t133.5 6.5q430 0 430 -309q0 -177 -125 -238v-6q79 -31 116.5 -90t37.5 -154q0 -158 -111.5 -243.5t-361.5 -85.5q-100 0 -192 18t-134 36l-43 19q0 54 20.5 111t57.5 94q104 -39 260 -39q94 0 139 25.5t45 85.5
q0 59 -37.5 82.5t-124.5 23.5h-161q-19 47 -19 117q0 30 4.5 56t9.5 37l5 11h161q72 0 106 26.5t34 82.5q0 60 -43.5 84t-124.5 24q-59 0 -118 -8t-89 -16l-29 -8q-73 70 -76 202z" />
    <glyph glyph-name="uni0438" unicode="&#x438;" horiz-adv-x="1175" 
d="M748 1069q65 16 159 16q44 0 83.5 -4t57.5 -8l17 -4v-1053q-56 -16 -152 -16q-48 0 -89 4t-58 8l-16 4v269q0 111 6.5 218t13 162.5t10.5 57.5h-8q12 -6 -174 -383l-172 -324q-60 -16 -160 -16q-44 0 -82.5 4t-55.5 8l-17 4v1053q59 16 153 16q44 0 84.5 -4t59.5 -8
l18 -4v-272q0 -91 -7 -199t-14.5 -173t-9.5 -65h8q50 146 109 269z" />
    <glyph glyph-name="uni0439" unicode="&#x439;" horiz-adv-x="1175" 
d="M748 1069q65 16 159 16q44 0 83.5 -4t57.5 -8l17 -4v-1053q-56 -16 -152 -16q-48 0 -89 4t-58 8l-16 4v269q0 111 6.5 218t13 162.5t10.5 57.5h-8q12 -6 -174 -383l-172 -324q-60 -16 -160 -16q-44 0 -82.5 4t-55.5 8l-17 4v1053q59 16 153 16q44 0 84.5 -4t59.5 -8
l18 -4v-272q0 -91 -7 -199t-14.5 -173t-9.5 -65h8q50 146 109 269zM965 1358q-4 -6 -13 -15.5t-40 -34.5t-68 -44t-98 -34.5t-128 -15.5t-127 15t-97.5 36t-66 42t-41.5 36l-12 15q15 45 49 83t78 56q9 -6 26 -15t73.5 -24.5t117.5 -15.5t115.5 14t78.5 28l24 13
q44 -19 79 -56.5t50 -82.5z" />
    <glyph glyph-name="uni043A" unicode="&#x43a;" horiz-adv-x="1060" 
d="M479 680l217 389q58 16 158 16q42 0 81.5 -4t58.5 -8l18 -4l-267 -485l312 -568q-63 -16 -180 -16q-45 0 -85 4t-58 8l-17 4l-242 437h-49v-437q-64 -16 -156 -16q-42 0 -81.5 4t-58.5 8l-19 4v1053q59 16 159 16q41 0 80 -4t58 -8l18 -4v-389h53z" />
    <glyph glyph-name="uni043B" unicode="&#x43b;" horiz-adv-x="1159" 
d="M549 594q-12 -150 -37 -259t-57.5 -175t-79.5 -105t-95 -53t-112 -14q-31 0 -62.5 5t-47.5 10l-15 5q-16 37 -16 98q0 26 5.5 53.5t11.5 41.5l5 14q39 -6 78 2q106 23 135 385l37 483h748v-1069q-66 -16 -154 -16q-45 0 -85 4t-58 8l-17 4v838h-162z" />
    <glyph glyph-name="uni043C" unicode="&#x43c;" horiz-adv-x="1361" 
d="M913 1069q70 16 170 16q41 0 83 -4t64 -8l21 -4v-1053q-51 -16 -147 -16q-42 0 -79.5 4t-54.5 8l-16 4v301q0 105 9 206t19 149l9 49h-12q-21 -84 -82 -219l-141 -303q-29 -11 -80 -11q-23 0 -44 3t-30 5l-10 3l-137 284q-28 62 -50 121t-30 87l-8 28h-13
q37 -171 37 -404v-299q-57 -16 -139 -16q-37 0 -72.5 4t-51.5 8l-17 4v1053q72 16 170 16q43 0 82.5 -4t58.5 -8l18 -4l172 -352q44 -92 66 -178h6q14 69 64 178z" />
    <glyph glyph-name="uni043D" unicode="&#x43d;" horiz-adv-x="1140" 
d="M426 432v-416q-56 -16 -160 -16q-45 0 -84 4t-55 8l-16 4v1053q55 16 157 16q43 0 82.5 -4t57.5 -8l18 -4v-393h289v393q63 16 157 16q42 0 81.5 -4t58.5 -8l18 -4v-1053q-51 -16 -160 -16q-44 0 -83 4t-55 8l-17 4v416h-289z" />
    <glyph glyph-name="uni043E" unicode="&#x43e;" horiz-adv-x="1132" 
d="M72 543q0 563 493 563q496 0 496 -563t-496 -563q-493 0 -493 563zM733 543q0 125 -21 198t-56 99t-91 26q-41 0 -70.5 -14.5t-52 -50t-34 -99.5t-11.5 -159q0 -125 21 -198.5t56.5 -100.5t90.5 -27q56 0 91.5 27t56 100t20.5 199z" />
    <glyph glyph-name="uni043F" unicode="&#x43f;" horiz-adv-x="1126" 
d="M426 836v-820q-70 -16 -160 -16q-41 0 -79.5 4t-56.5 8l-19 4v1069h905v-1069q-64 -16 -160 -16q-40 0 -79 4t-58 8l-19 4v820h-274z" />
    <glyph glyph-name="uni0440" unicode="&#x440;" horiz-adv-x="1148" 
d="M428 1001q88 105 266 105q86 0 153 -29t119 -92.5t79.5 -174.5t27.5 -267q0 -154 -27 -264.5t-79 -175t-119.5 -94t-155.5 -29.5q-177 0 -264 104v-526q-60 -17 -160 -17q-44 0 -83 4.5t-55 8.5l-17 4v1511q55 16 155 16q44 0 84 -4t58 -8l18 -4v-68zM741 543
q0 95 -10 157.5t-32 97t-50.5 47.5t-70.5 13q-67 0 -107.5 -49t-42.5 -131v-260q0 -82 39.5 -137.5t110.5 -55.5q41 0 69 12.5t50.5 46t33 97.5t10.5 162z" />
    <glyph glyph-name="uni0441" unicode="&#x441;" horiz-adv-x="917" 
d="M610 856q-116 0 -164.5 -73t-48.5 -242q0 -163 51.5 -233t169.5 -70q44 0 86 7.5t62 14.5l20 8q38 -36 62 -94.5t29 -122.5q-4 -3 -12.5 -7.5t-38.5 -17t-64.5 -22t-92 -17t-120.5 -7.5q-240 0 -358.5 138t-118.5 421q0 567 477 567q95 0 171.5 -16t105.5 -32l30 -16
q-2 -60 -26 -118.5t-64 -96.5q-64 29 -156 29z" />
    <glyph glyph-name="uni0442" unicode="&#x442;" horiz-adv-x="983" 
d="M49 1085h887q20 -49 20 -127q0 -34 -5 -65t-10 -45l-5 -14h-285v-818q-57 -16 -157 -16q-47 0 -86.5 4t-55.5 8l-16 4v818h-287q-22 48 -22 124q0 35 5.5 66.5t11.5 45.5z" />
    <glyph glyph-name="uni0443" unicode="&#x443;" horiz-adv-x="1118" 
d="M1096 1069l-353 -1186q-31 -103 -64.5 -171t-84.5 -121.5t-122.5 -78t-170.5 -24.5q-39 0 -78 6t-59 12l-19 7q-18 46 -18 112q0 29 5.5 59t11.5 45l6 15q49 -8 90 -8q43 0 69 6t53.5 25.5t48.5 59.5t42 107l20 66q-50 0 -96 16l-359 1053q62 16 166 16q48 0 88 -4t56 -8
l16 -4l166 -485q24 -70 40 -141t20 -107l5 -35h9q14 123 61 283l146 485q53 16 151 16q42 0 80.5 -4t55.5 -8z" />
    <glyph glyph-name="uni0444" unicode="&#x444;" horiz-adv-x="1622" 
d="M653 1520q54 16 158 16q44 0 83.5 -4t57.5 -8l17 -4v-451q69 37 180 37q206 0 301.5 -140.5t95.5 -422.5t-95.5 -422.5t-301.5 -140.5q-47 0 -92 10.5t-67 21.5l-21 11v-519q-60 -16 -158 -16q-46 0 -85.5 4t-55.5 8l-17 4v519q-8 -5 -23.5 -12t-62.5 -19t-94 -12
q-205 0 -301 141.5t-96 421.5q0 282 95.5 422.5t301.5 140.5q49 0 94 -9t65 -19l21 -9v451zM668 846l-12 6q-13 6 -43.5 13t-67.5 7q-81 0 -118.5 -71t-37.5 -258q0 -128 18.5 -201.5t51 -100t86.5 -26.5q33 0 63.5 8.5t45.5 16.5l14 8v598zM1231 543q0 128 -18.5 201.5
t-51 100.5t-86.5 27q-36 0 -66.5 -7t-43.5 -13l-13 -6v-598q49 -33 123 -33q54 0 86.5 26.5t51 100t18.5 201.5z" />
    <glyph glyph-name="uni0445" unicode="&#x445;" horiz-adv-x="1081" 
d="M342 553l-305 516q70 16 172 16q48 0 91 -4t62 -8l19 -4l172 -291l182 291q54 16 148 16q44 0 85.5 -4t61.5 -8l19 -4l-314 -498l342 -555q-72 -16 -174 -16q-48 0 -91 4t-62 8l-19 4l-205 338l-211 -338q-61 -16 -151 -16q-44 0 -84.5 4t-59.5 8l-18 4z" />
    <glyph glyph-name="uni0446" unicode="&#x446;" horiz-adv-x="1200" 
d="M698 1069q60 16 156 16q42 0 82 -4t59 -8l19 -4v-819h129v-496q-46 -16 -139 -16q-115 0 -156 16v246h-737v1069q57 16 155 16q48 0 88 -4t56 -8l16 -4v-819h272v819z" />
    <glyph glyph-name="uni0447" unicode="&#x447;" horiz-adv-x="1085" 
d="M975 1069v-1053q-58 -16 -160 -16q-43 0 -82 4t-57 8l-17 4v367q-65 -23 -194 -23q-192 0 -293.5 85.5t-101.5 275.5v348q61 16 155 16q42 0 82 -4t59 -8l19 -4v-350q0 -64 34.5 -92.5t102.5 -28.5q39 0 73.5 5t48.5 10l15 5v451q60 16 156 16q45 0 85 -4t58 -8z" />
    <glyph glyph-name="uni0448" unicode="&#x448;" horiz-adv-x="1556" 
d="M111 0v1069q51 16 155 16q44 0 84 -4t58 -8l18 -4v-819h195v819q51 16 155 16q44 0 84 -4t58 -8l18 -4v-819h194v819q52 16 156 16q44 0 84 -4t58 -8l18 -4v-1069h-1335z" />
    <glyph glyph-name="uni0449" unicode="&#x449;" horiz-adv-x="1632" 
d="M1575 250v-496q-62 -16 -148 -16q-92 0 -147 16v246h-1169v1069q51 16 155 16q44 0 84 -4t58 -8l18 -4v-819h195v819q51 16 155 16q44 0 84 -4t58 -8l18 -4v-819h194v819q52 16 156 16q44 0 84 -4t58 -8l18 -4v-819h129z" />
    <glyph glyph-name="uni044A" unicode="&#x44a;" horiz-adv-x="1208" 
d="M598 678h197q172 0 269 -89.5t97 -248.5q0 -160 -97 -250t-269 -90h-512v834h-232q-24 56 -24 129t24 122h547v-407zM598 211h133q57 0 87 33.5t30 95.5q0 59 -30.5 93t-86.5 34h-133v-256z" />
    <glyph glyph-name="uni044B" unicode="&#x44b;" horiz-adv-x="1529" 
d="M111 1069q66 16 155 16q94 0 160 -16v-391h197q172 0 269 -89.5t97 -248.5q0 -160 -97 -250t-269 -90h-512v1069zM1104 1069q66 16 158 16q88 0 157 -16v-1053q-60 -16 -159 -16t-156 16v1053zM426 467v-256h133q57 0 88 33.5t31 95.5q0 59 -31.5 93t-87.5 34h-133z" />
    <glyph glyph-name="uni044C" unicode="&#x44c;" horiz-adv-x="1036" 
d="M426 678h197q172 0 269 -89.5t97 -248.5q0 -160 -97 -250t-269 -90h-512v1069q59 16 155 16q101 0 160 -16v-391zM426 211h133q57 0 88 33.5t31 95.5q0 59 -31.5 93t-87.5 34h-133v-256z" />
    <glyph glyph-name="uni044D" unicode="&#x44d;" horiz-adv-x="954" 
d="M555 436h-346q-19 41 -19 111q0 32 5 60t9 40l5 12h344q-17 107 -71.5 158t-151.5 51q-48 0 -95.5 -7t-70.5 -14l-23 -7q-75 75 -78 204q5 3 14 7t41 14.5t68 19t94 15t119 6.5q484 0 484 -567q0 -559 -488 -559q-64 0 -123.5 7.5t-99 17.5t-70.5 20.5t-45 18.5l-14 7
q6 132 78 207q92 -35 205 -35q101 0 157.5 52t71.5 161z" />
    <glyph glyph-name="uni044E" unicode="&#x44e;" horiz-adv-x="1622" 
d="M565 662q52 444 490 444q495 0 495 -563t-495 -563q-434 0 -488 430h-139v-394q-59 -16 -160 -16q-96 0 -155 16v1053q59 16 157 16q99 0 158 -16v-407h137zM1221 543q0 126 -20 198.5t-55 98.5t-91 26t-91 -26t-56 -99t-21 -198q0 -126 20.5 -199t56 -100t91.5 -27
t91 27t55 100t20 199z" />
    <glyph glyph-name="uni044F" unicode="&#x44f;" horiz-adv-x="1077" 
d="M559 381l-184 -365q-66 -16 -170 -16q-93 0 -168 16l223 412q-166 92 -166 307q0 159 98.5 254.5t272.5 95.5h502v-1069q-57 -16 -156 -16q-105 0 -160 16v365h-92zM528 870q-58 0 -88 -36t-30 -103q0 -66 30 -102.5t88 -36.5h123v278h-123z" />
    <glyph glyph-name="uni0451" unicode="&#x451;" horiz-adv-x="1054" 
d="M211 1464q45 15 135 15q39 0 73 -3.5t48 -7.5l14 -4v-233q-47 -14 -135 -14q-39 0 -73 3.5t-48 7.5l-14 3v233zM614 1464q46 15 136 15q38 0 72 -3.5t48 -7.5l15 -4v-233q-49 -14 -135 -14q-40 0 -74 3.5t-48 7.5l-14 3v233zM72 545q0 284 127 422.5t358 138.5
q206 0 322 -108.5t116 -323.5q0 -60 -5.5 -116t-11.5 -82l-5 -27h-572q13 -119 69 -170.5t153 -51.5q56 0 111.5 12t82.5 23l27 12q36 -30 62 -86.5t30 -115.5q-5 -4 -14 -10t-43 -22t-72.5 -28t-102.5 -22t-133 -10q-255 0 -377 138t-122 427zM690 709q0 168 -129 168
q-140 0 -162 -232h289q2 20 2 64z" />
    <glyph glyph-name="Wgrave" unicode="&#x1e80;" horiz-adv-x="2023" 
d="M997 1534l-280 285q32 52 112.5 83.5t155.5 22.5l186 -301q-50 -69 -174 -90zM1225 18l-158 785q-19 97 -30.5 189t-12.5 136l-2 43h-10q-4 -149 -47 -368l-160 -785q-85 -18 -215 -18q-124 0 -205 18l-350 1438q60 19 166 19q45 0 83.5 -4.5t53.5 -9.5l16 -5l199 -819
q16 -71 29.5 -153t19.5 -128l6 -47h8q17 164 50 326l170 821q59 19 186 19q57 0 104.5 -4.5t66.5 -9.5l19 -5l168 -819q16 -76 27 -158t15 -126l3 -44h9q16 148 57 326l201 821q55 19 147 19q40 0 78 -4.5t56 -9.5l18 -5l-355 -1438q-73 -18 -200 -18q-58 0 -111 4.5
t-77 9.5z" />
    <glyph glyph-name="wgrave" unicode="&#x1e81;" horiz-adv-x="1638" 
d="M782 1219l-280 286q32 51 112.5 83.5t155.5 23.5l186 -303q-52 -69 -174 -90zM969 16l-97 404q-39 169 -47 377h-8q-8 -210 -47 -377l-96 -404q-79 -16 -185 -16q-113 0 -192 16l-272 1053q59 16 155 16q45 0 79 -4t45 -8l11 -4l129 -479q35 -142 50 -297h6
q22 187 51 299l117 477q76 16 168 16q44 0 82.5 -4t55.5 -8l17 -4l115 -477q33 -145 47 -299h6q14 147 53 299l127 477q50 16 138 16q41 0 74.5 -4t46.5 -8l14 -4l-269 -1053q-76 -16 -188 -16q-110 0 -186 16z" />
    <glyph glyph-name="Wacute" unicode="&#x1e82;" horiz-adv-x="2025" 
d="M1290 1823l-280 -287q-121 20 -174 90l186 303q75 8 155.5 -23.5t112.5 -82.5zM1225 18l-158 785q-19 97 -30.5 189t-12.5 136l-2 43h-10q-4 -149 -47 -368l-160 -785q-85 -18 -215 -18q-124 0 -205 18l-350 1438q60 19 166 19q45 0 83.5 -4.5t53.5 -9.5l16 -5l199 -819
q16 -71 29.5 -153t19.5 -128l6 -47h8q17 164 50 326l170 821q59 19 186 19q57 0 104.5 -4.5t66.5 -9.5l19 -5l168 -819q16 -76 27 -158t15 -126l3 -44h9q16 148 57 326l201 821q55 19 147 19q40 0 78 -4.5t56 -9.5l18 -5l-355 -1438q-73 -18 -200 -18q-58 0 -111 4.5
t-77 9.5z" />
    <glyph glyph-name="wacute" unicode="&#x1e83;" horiz-adv-x="1636" 
d="M1057 1503l-281 -284q-124 21 -174 90l186 301q75 9 156 -23t113 -84zM967 16l-97 404q-34 147 -47 377h-8q-8 -210 -47 -377l-96 -404q-76 -16 -185 -16q-111 0 -192 16l-270 1053q57 16 153 16q45 0 79.5 -4t46.5 -8l11 -4l127 -479q32 -129 52 -297h6q15 158 49 299
l119 477q74 16 166 16q44 0 82.5 -4t55.5 -8l17 -4l115 -477q31 -128 47 -299h6q18 154 53 299l127 477q50 16 138 16q41 0 74.5 -4t46.5 -8l14 -4l-269 -1053q-76 -16 -186 -16q-109 0 -188 16z" />
    <glyph glyph-name="Wdieresis" unicode="&#x1e84;" horiz-adv-x="2023" 
d="M952 1819v-236q-49 -14 -135 -14q-40 0 -73.5 3.5t-47.5 7.5l-14 3v236q45 14 135 14q38 0 72 -3.5t49 -7.5zM1362 1819v-236q-47 -14 -133 -14q-40 0 -73.5 3.5t-47.5 7.5l-14 3v236q45 14 135 14q38 0 71.5 -3.5t47.5 -7.5zM1225 18l-158 785q-19 97 -30.5 189
t-12.5 136l-2 43h-10q-4 -149 -47 -368l-160 -785q-85 -18 -215 -18q-124 0 -205 18l-350 1438q60 19 166 19q45 0 83.5 -4.5t53.5 -9.5l16 -5l199 -819q16 -71 29.5 -153t19.5 -128l6 -47h8q17 164 50 326l170 821q59 19 186 19q57 0 104.5 -4.5t66.5 -9.5l19 -5l168 -819
q16 -76 27 -158t15 -126l3 -44h9q16 148 57 326l201 821q55 19 147 19q40 0 78 -4.5t56 -9.5l18 -5l-355 -1438q-73 -18 -200 -18q-58 0 -111 4.5t-77 9.5z" />
    <glyph glyph-name="wdieresis" unicode="&#x1e85;" horiz-adv-x="1638" 
d="M768 1468v-235q-47 -14 -135 -14q-39 0 -73 3.5t-48 7.5l-14 3v235q45 15 135 15q39 0 73 -3.5t48 -7.5zM1171 1468v-235q-49 -14 -135 -14q-40 0 -73.5 3.5t-47.5 7.5l-14 3v235q45 15 135 15q38 0 72 -3.5t48 -7.5zM967 16l-97 404q-34 147 -47 377h-8
q-8 -210 -47 -377l-96 -404q-76 -16 -185 -16q-111 0 -192 16l-270 1053q57 16 153 16q45 0 79.5 -4t46.5 -8l11 -4l127 -479q32 -129 52 -297h6q15 158 49 299l119 477q74 16 166 16q44 0 82.5 -4t55.5 -8l17 -4l115 -477q31 -128 47 -299h6q18 154 53 299l127 477
q50 16 138 16q41 0 74.5 -4t46.5 -8l14 -4l-269 -1053q-76 -16 -186 -16q-109 0 -188 16z" />
    <glyph glyph-name="Ygrave" unicode="&#x1ef2;" horiz-adv-x="1331" 
d="M639 1925l186 -301q-50 -69 -174 -90l-280 285q32 52 112.5 83.5t155.5 22.5zM979 1456q66 19 170 19q46 0 90 -4.5t65 -9.5l21 -5l-498 -872v-566q-55 -18 -159 -18q-52 0 -93.5 4.5t-56.5 9.5l-16 4v564l-486 874q68 19 195 19q49 0 93.5 -4.5t64.5 -9.5l20 -5
l293 -534z" />
    <glyph glyph-name="ygrave" unicode="&#x1ef3;" horiz-adv-x="1118" 
d="M518 1219l-280 286q32 51 112.5 83.5t155.5 23.5l186 -303q-53 -70 -174 -90zM1096 1069l-353 -1186q-31 -103 -64.5 -171t-84.5 -121.5t-122.5 -78t-170.5 -24.5q-39 0 -78 6t-59 12l-19 7q-18 46 -18 112q0 29 5.5 59t11.5 45l6 15q49 -8 90 -8q43 0 69 6t53.5 25.5
t48.5 59.5t42 107l20 66q-50 0 -96 16l-359 1053q62 16 166 16q48 0 88 -4t56 -8l16 -4l166 -485q24 -70 40 -141t20 -107l5 -35h9q14 123 61 283l146 485q53 16 151 16q42 0 80.5 -4t55.5 -8z" />
    <glyph glyph-name="endash" unicode="&#x2013;" horiz-adv-x="1124" 
d="M999 481h-874q-14 43 -14 113q0 31 3.5 59.5t7.5 40.5l3 13h874q15 -43 15 -113q0 -31 -4 -59.5t-8 -40.5z" />
    <glyph glyph-name="emdash" unicode="&#x2014;" horiz-adv-x="1636" 
d="M1511 481h-1386q-14 43 -14 113q0 31 3.5 59.5t7.5 40.5l3 13h1386q15 -43 15 -113q0 -31 -4 -59.5t-8 -40.5z" />
    <glyph glyph-name="quoteleft" unicode="&#x2018;" horiz-adv-x="499" 
d="M270 1475l113 -76q-8 -10 -20 -28t-34 -77t-26 -123q28 -2 53.5 -5.5t37.5 -5.5l12 -3v-293q-54 -16 -158 -16q-44 0 -83.5 4t-56.5 8l-18 4v211q0 72 18.5 140t45 113t53 80t45.5 51z" />
    <glyph glyph-name="quoteright" unicode="&#x2019;" horiz-adv-x="481" 
d="M223 848l-112 76q8 9 20 26.5t33.5 76t25.5 122.5q-28 2 -53.5 6t-36.5 7l-12 3v293q54 17 158 17q44 0 83 -4.5t57 -8.5l17 -4v-211q0 -72 -18.5 -140t-45 -113t-53 -79.5t-44.5 -50.5z" />
    <glyph glyph-name="quotesinglbase" unicode="&#x201a;" horiz-adv-x="520" 
d="M238 -303l-113 78q3 3 8 9.5t17.5 29t23 46.5t20 62.5t11.5 77.5q-28 2 -53.5 6t-37.5 7l-12 3v293q54 17 158 17q44 0 83.5 -4t56.5 -8l18 -5v-211q0 -73 -18.5 -141t-45 -113t-53 -80t-45.5 -51z" />
    <glyph glyph-name="quotedblleft" unicode="&#x201c;" horiz-adv-x="884" 
d="M272 1475l113 -76q-8 -10 -20 -28t-34 -77t-26 -123q28 -2 53.5 -5.5t37.5 -5.5l12 -3v-293q-54 -16 -158 -16q-44 0 -83.5 4t-56.5 8l-18 4v211q0 72 18.5 140t45 113t53 80t45.5 51zM655 1475l111 -76q-8 -10 -20 -28t-34 -77t-26 -123q28 -2 54.5 -5.5t38.5 -5.5
l12 -3v-293q-54 -16 -158 -16q-44 0 -83.5 4t-57.5 8l-17 4v211q0 72 18.5 140t45 113t53 80t44.5 51z" />
    <glyph glyph-name="quotedblright" unicode="&#x201d;" horiz-adv-x="864" 
d="M223 848l-112 76q8 9 20 26.5t33.5 76t25.5 122.5q-28 2 -53.5 6t-36.5 7l-12 3v293q54 17 158 17q44 0 83 -4.5t57 -8.5l17 -4v-211q0 -72 -18.5 -140t-45 -113t-53 -79.5t-44.5 -50.5zM606 848l-112 76q8 9 19.5 26.5t32.5 76t25 122.5q-27 2 -52 6t-37 7l-11 3v293
q54 17 158 17q44 0 83 -4.5t56 -8.5l18 -4v-211q0 -72 -18.5 -140t-45 -113t-53 -79.5t-45.5 -50.5z" />
    <glyph glyph-name="quotedblbase" unicode="&#x201e;" horiz-adv-x="903" 
d="M238 -303l-113 78q3 3 8 9.5t17.5 29t23 46.5t20 62.5t11.5 77.5q-28 2 -53.5 6t-37.5 7l-12 3v293q54 17 158 17q44 0 83.5 -4t56.5 -8l18 -5v-211q0 -73 -18.5 -141t-45 -113t-53 -80t-45.5 -51zM621 -303l-113 78q3 3 7.5 9.5t17 29t22.5 46.5t19.5 62.5t11.5 77.5
q-27 2 -52.5 6t-37.5 7l-11 3v293q54 17 158 17q44 0 83.5 -4t57.5 -8l17 -5v-211q0 -73 -18.5 -141t-45 -113t-53 -80t-44.5 -51z" />
    <glyph glyph-name="dagger" unicode="&#x2020;" horiz-adv-x="1157" 
d="M594 -276l-131 69l14 1034l-420 -14q-10 54 -10 115q0 32 2.5 60t4.5 40l3 12l420 -14l-14 408q59 10 129 10q32 0 64 -2.5t48 -5.5l15 -2l-14 -408l395 14q12 -49 12 -112q0 -28 -3 -56.5t-6 -43.5l-3 -15l-395 14l14 -1034z" />
    <glyph glyph-name="daggerdbl" unicode="&#x2021;" horiz-adv-x="1280" 
d="M754 358l420 15q10 -52 10 -115q0 -31 -2.5 -59.5t-5.5 -40.5l-2 -13l-420 15l14 -408q-59 -10 -129 -10q-32 0 -63.5 2.5t-47.5 5.5l-16 2l14 408l-417 -15q-13 52 -13 113q0 29 3 58t7 43l3 14l417 -15l-14 234l14 235l-420 -14q-10 54 -10 115q0 31 2.5 59t5.5 41
l2 12l420 -14l-14 408q59 10 129 10q32 0 64 -2.5t47 -5.5l16 -2l-14 -408l417 14q13 -49 13 -112q0 -28 -3 -57t-7 -43l-3 -15l-417 14l14 -235z" />
    <glyph glyph-name="bullet" unicode="&#x2022;" horiz-adv-x="741" 
d="M614 578q0 -106 -68.5 -172t-172.5 -66q-106 0 -176 66t-70 172q0 107 70 174t176 67q104 0 172.5 -67t68.5 -174z" />
    <glyph glyph-name="ellipsis" unicode="&#x2026;" horiz-adv-x="1460" 
d="M418 309v-293q-56 -16 -158 -16q-47 0 -86.5 4t-55.5 8l-16 4v293q52 17 158 17q45 0 84.5 -4t56.5 -8zM889 309v-293q-56 -16 -158 -16q-46 0 -85.5 4t-55.5 8l-17 4v293q52 17 158 17q45 0 84.5 -4t56.5 -8zM1358 309v-293q-56 -16 -158 -16q-47 0 -86.5 4t-55.5 8
l-16 4v293q52 17 158 17q45 0 84.5 -4t56.5 -8z" />
    <glyph glyph-name="perthousand" unicode="&#x2030;" horiz-adv-x="2250" 
d="M1300 1423l-788 -1429q-39 -14 -119 -14q-35 0 -64 3.5t-41 6.5l-12 4l789 1429q37 15 117 15q35 0 64.5 -4t41.5 -8zM352 705q-147 0 -224 84.5t-77 271.5q0 356 301 356q147 0 225 -84.5t78 -271.5t-78 -271.5t-225 -84.5zM352 1253q-45 0 -63.5 -38t-18.5 -154
q0 -81 9.5 -123t26 -54t46.5 -12q29 0 45.5 12t26.5 54.5t10 122.5t-10 123t-26.5 56t-45.5 13zM1208 -20q-147 0 -224 84.5t-77 271.5q0 356 301 356q147 0 225 -84.5t78 -271.5t-78 -271.5t-225 -84.5zM1898 -20q-147 0 -224 84.5t-77 271.5q0 356 301 356
q147 0 225.5 -84.5t78.5 -271.5t-78.5 -271.5t-225.5 -84.5zM1208 528q-45 0 -63.5 -38t-18.5 -154q0 -81 9.5 -123t26 -54t46.5 -12q29 0 45.5 12t26.5 54.5t10 122.5t-10 123t-26.5 56t-45.5 13zM1898 528q-30 0 -46 -13.5t-25.5 -56t-9.5 -122.5q0 -81 9.5 -123t25.5 -54
t46 -12q29 0 45.5 12t26.5 54.5t10 122.5t-10 123t-26.5 56t-45.5 13z" />
    <glyph glyph-name="guilsinglleft" unicode="&#x2039;" horiz-adv-x="688" 
d="M82 674l440 379q73 -70 90 -189l-274 -313l274 -311q-19 -118 -90 -189l-440 373q-19 43 -19 119q0 36 4.5 69t9.5 48z" />
    <glyph glyph-name="guilsinglright" unicode="&#x203a;" horiz-adv-x="686" 
d="M166 1053l440 -379q19 -49 19 -131q0 -34 -4.5 -63.5t-9.5 -42.5l-5 -13l-440 -373q-74 71 -90 189l274 311l-274 313q14 119 90 189z" />
    <glyph glyph-name="fraction" unicode="&#x2044;" horiz-adv-x="301" 
d="M-365 -6l791 1429q37 15 117 15q36 0 65.5 -4t41.5 -8l12 -3l-793 -1429q-45 -14 -117 -14q-30 0 -59.5 3.5t-43.5 6.5z" />
    <glyph glyph-name="zeroinferior" unicode="&#x2080;" horiz-adv-x="710" 
d="M354 -207q-301 0 -301 363q0 360 301 360q303 0 303 -360q0 -363 -303 -363zM354 354q-44 0 -63 -41t-19 -157q0 -81 9.5 -125t26 -58t46.5 -14q29 0 45.5 14t26.5 58t10 125q0 115 -19.5 156.5t-62.5 41.5z" />
    <glyph glyph-name="oneinferior" unicode="&#x2081;" horiz-adv-x="524" 
d="M25 379q130 35 204 117q34 10 105 10q50 0 98 -10v-682q-57 -11 -98 -11q-65 0 -113 11v370q0 61 2 90q-63 -43 -147 -53q-26 26 -40 70.5t-11 87.5z" />
    <glyph glyph-name="twoinferior" unicode="&#x2082;" horiz-adv-x="618" 
d="M41 -98q0 56 17.5 101t46 74t62.5 52.5t68.5 41t63 34.5t46 38t17.5 46q0 63 -102 63q-57 3 -133 -18q-53 59 -43 147q96 35 219 35q121 0 193.5 -52t72.5 -157q0 -62 -23.5 -107t-62.5 -72.5t-80 -48t-85.5 -48t-69.5 -58.5h287q14 -38 14 -86q0 -46 -14 -84h-484
q-10 42 -10 99z" />
    <glyph glyph-name="threeinferior" unicode="&#x2083;" horiz-adv-x="618" 
d="M567 2q0 -101 -69 -155t-230 -54q-64 0 -121 11t-81 22l-25 12q0 36 13.5 74.5t37.5 60.5q68 -22 146 -22q61 0 89.5 18t28.5 56q0 37 -21.5 53t-74.5 16h-98q-12 34 -12 76t12 76h98q41 0 58.5 13t17.5 40q0 32 -22 46.5t-72 14.5q-32 0 -66 -4.5t-52 -9.5l-18 -4
q-23 20 -37 57t-14 78q90 39 215 39q135 0 206 -49.5t71 -140.5q0 -109 -90 -152q110 -45 110 -172z" />
    <glyph glyph-name="fourinferior" unicode="&#x2084;" horiz-adv-x="679" 
d="M549 94h76q10 -34 10 -74q0 -27 -10 -69h-76v-137q-48 -11 -92 -11q-45 0 -90 11v137h-330q-10 38 -10 69q0 35 8 62l319 412q46 12 99 12q52 0 96 -12v-400zM367 274l-138 -180h138v180z" />
    <glyph glyph-name="fiveinferior" unicode="&#x2085;" horiz-adv-x="622" 
d="M285 342v-76q286 0 286 -235q0 -120 -74 -179t-233 -59q-63 0 -118.5 11t-79.5 22l-25 12q-4 89 49 142q70 -23 148 -23q118 0 118 76q0 44 -26 60t-92 16h-148v397h442q12 -38 11.5 -83.5t-11.5 -80.5h-247z" />
    <glyph glyph-name="sixinferior" unicode="&#x2086;" horiz-adv-x="643" 
d="M51 78q0 402 455 434q17 -29 17 -74.5t-17 -77.5q-161 -12 -213 -114q30 6 72 6q104 0 170.5 -54.5t66.5 -170.5q0 -114 -71.5 -174t-202.5 -60q-133 0 -205 71t-72 214zM395 27q0 84 -69 84q-3 0 -66 -7q-3 -165 68 -165q31 0 49 22.5t18 65.5z" />
    <glyph glyph-name="seveninferior" unicode="&#x2087;" horiz-adv-x="589" 
d="M336 334h-285q-22 84 0 172h502q10 -41 10 -82q0 -51 -16.5 -97.5t-42 -83.5t-55.5 -72.5t-60 -73t-54.5 -78t-38 -94t-11.5 -113.5q-114 -19 -205 0q1 88 19.5 156.5t49 115.5t62 83t68 80.5t57.5 86.5z" />
    <glyph glyph-name="eightinferior" unicode="&#x2088;" horiz-adv-x="665" 
d="M70 322q0 92 68 143t196 51q121 0 188.5 -48t67.5 -134q0 -100 -86 -158q112 -59 112 -176q0 -99 -73 -153t-211 -54q-133 0 -207 50.5t-74 146.5q0 112 111 168q-92 53 -92 164zM403 319q0 58 -69 58q-31 0 -48.5 -14t-17.5 -37q0 -49 103 -82q32 26 32 75zM418 -2
q0 10 -3.5 19t-11.5 17t-15 13.5t-21 12.5t-22.5 11t-25 11t-24.5 10q-5 -4 -13.5 -11t-22 -29.5t-13.5 -45.5q0 -67 90 -67q37 0 59.5 16t22.5 43z" />
    <glyph glyph-name="nineinferior" unicode="&#x2089;" horiz-adv-x="643" 
d="M41 283q0 114 71.5 173.5t202.5 59.5q133 0 205 -71t72 -214q0 -402 -455 -434q-17 29 -17 74.5t17 77.5q161 11 211 114q-27 -6 -69 -6q-104 0 -171 55t-67 171zM383 205q0 86 -16 126t-52 40q-31 0 -49 -22.5t-18 -65.5q0 -84 69 -84q39 0 66 6z" />
    <glyph glyph-name="Euro" unicode="&#x20ac;" horiz-adv-x="1218" 
d="M244 944q47 221 187 335t366 114q96 0 180 -18.5t120 -36.5l36 -19q0 -135 -91 -207q-98 39 -211 39q-103 0 -170.5 -47.5t-99.5 -159.5h447q9 -39 0.5 -94.5t-29.5 -91.5h-447q-2 -25 -2 -74q0 -48 2 -68h392q9 -39 0.5 -94.5t-29.5 -91.5h-334q30 -112 97.5 -157.5
t172.5 -45.5q54 0 112 9.5t89 19.5l31 10q43 -33 65.5 -91.5t22.5 -119.5q-5 -3 -15 -8t-44 -18t-72 -23t-98.5 -18t-124.5 -8q-227 0 -367 114t-186 336h-172q-9 41 -1 96t29 90h119v70v72h-147q-9 41 -1 96t29 90h144z" />
    <glyph glyph-name="uni2113" unicode="&#x2113;" horiz-adv-x="999" 
d="M227 1108q0 428 379 428q170 0 260 -79.5t90 -225.5q0 -368 -434 -692v-207q0 -107 90 -107q44 0 91.5 26.5t72.5 52.5l25 26q107 -41 135 -150q-6 -8 -17 -21.5t-50 -48t-83 -61t-113.5 -48t-142.5 -21.5q-68 0 -119.5 15.5t-93.5 52t-65.5 102.5t-24.5 161v45
q-41 -23 -100 -51q-88 65 -88 195q110 53 188 104v504zM684 1223q0 62 -17.5 89t-58.5 27q-31 0 -50 -17t-31.5 -70t-12.5 -148v-244q83 95 126.5 190.5t43.5 172.5z" />
    <glyph glyph-name="uni2117" unicode="&#x2117;" horiz-adv-x="1622" 
d="M80 696q0 200 97.5 368t265.5 265.5t368 97.5t368 -97.5t265.5 -265.5t97.5 -368t-97.5 -368t-265.5 -265.5t-368 -97.5t-368 97.5t-265.5 265.5t-97.5 368zM1339 696q0 145 -70 267.5t-191.5 193t-266.5 70.5t-266.5 -70.5t-191.5 -193t-70 -267.5t70 -267t191.5 -192.5
t266.5 -70.5t266.5 70.5t191.5 192.5t70 267zM582 1071h317q122 0 194 -72.5t72 -195.5q0 -124 -72 -196t-194 -72h-121v-234q-41 -19 -97 -19t-99 19v770zM778 905v-200h94q93 0 93 100q0 48 -24 74t-69 26h-94z" />
    <glyph glyph-name="trademark" unicode="&#x2122;" horiz-adv-x="1249" 
d="M59 1475h437q8 -19 8 -54q0 -23 -8 -51h-152v-477q-24 -8 -65 -8q-19 0 -35 2t-22 4l-7 2v477h-156q-8 28 -8 49q0 35 8 56zM563 1466q54 9 80 9q51 0 78 -9l65 -149q48 -118 56 -156q14 45 57 144l64 161q38 9 81 9q21 0 42.5 -2.5t32.5 -4.5l11 -2v-573q-22 -8 -61 -8
q-18 0 -34.5 2t-23.5 4l-7 2v221q0 146 4 197q-6 -17 -45 -119l-66 -152q-20 -8 -57 -8q-16 0 -30.5 2t-21.5 4l-6 2l-65 170q-25 51 -43 101q6 -62 6 -197v-221q-22 -8 -59 -8q-16 0 -30.5 2t-20.5 4l-7 2v573z" />
    <glyph glyph-name="Omega" unicode="&#x2126;" horiz-adv-x="1505" 
d="M131 778q0 367 161.5 542t461.5 175t462 -175t162 -542q0 -297 -172 -516h199q20 -72 20 -131q0 -63 -20 -131h-547q-22 56 -22.5 130t22.5 132q189 185 189 516q0 109 -13.5 190.5t-37.5 133.5t-61.5 84t-80.5 44.5t-100 12.5q-71 0 -122 -21t-90.5 -72t-59 -143.5
t-19.5 -228.5q0 -332 188 -516q20 -57 20 -128.5t-20 -133.5h-547q-24 58 -24 129q0 78 24 133h197q-170 212 -170 516z" />
    <glyph glyph-name="estimated" unicode="&#x212e;" horiz-adv-x="1572" 
d="M1186 195h137q-203 -215 -520 -215q-146 0 -279.5 57t-230 153.5t-154 230t-57.5 279.5t57.5 279.5t154 230t230 154t279.5 57.5t279.5 -57.5t230 -154t154 -230t57.5 -279.5v-49h-1114v-446q184 -137 393 -137q202 0 383 127zM1196 1194q-184 139 -393 139
q-204 0 -393 -137v-455h786v453z" />
    <glyph glyph-name="uni2153" unicode="&#x2153;" horiz-adv-x="1523" 
d="M995 1423q37 15 117 15q36 0 65.5 -4t41.5 -8l12 -3l-791 -1429q-46 -14 -118 -14q-30 0 -59 3.5t-43 6.5l-13 4zM252 1399q34 10 106 10q49 0 97 -10v-682q-48 -10 -99 -10q-66 0 -112 10v370q0 62 4 91q-64 -44 -150 -54q-26 26 -40 70.5t-11 87.5q132 35 205 117z
M952 674q90 39 215 39q135 0 206 -49.5t71 -141.5q0 -108 -90 -151q110 -45 110 -172q0 -101 -69 -155t-230 -54q-64 0 -121 11t-82 23l-24 11q0 36 13.5 74.5t37.5 60.5q68 -23 146 -23q61 0 89.5 18t28.5 56q0 37 -21.5 53.5t-74.5 16.5h-98q-12 34 -12 75.5t12 75.5h98
q41 0 58.5 13.5t17.5 40.5q0 32 -22 46.5t-72 14.5q-32 0 -65.5 -4.5t-51.5 -8.5l-18 -5q-23 20 -37.5 57t-14.5 78z" />
    <glyph glyph-name="uni2154" unicode="&#x2154;" horiz-adv-x="1615" 
d="M305 -6l789 1429q36 15 116 15q36 0 65.5 -4t41.5 -8l12 -3l-790 -1429q-47 -14 -119 -14q-30 0 -59 3.5t-43 6.5zM57 807q0 64 24 115t59.5 79.5t77.5 54.5t77.5 43t59.5 41.5t24 53.5q0 59 -98 63q-58 3 -138 -18q-53 59 -43 147q96 35 219 35q121 0 194 -52.5
t73 -156.5q0 -62 -23.5 -107t-62 -72t-79.5 -47.5t-85.5 -47t-69.5 -57.5h285q14 -41 14 -88q0 -46 -14 -84h-481q-13 41 -13 98zM1563 199q0 -101 -69 -155t-230 -54q-64 0 -121 11t-82 23l-25 11q0 36 13.5 74.5t37.5 60.5q68 -23 146 -23q119 0 119 74q0 37 -22 53.5
t-75 16.5h-98q-12 34 -12 75.5t12 75.5h98q41 0 58.5 13.5t17.5 40.5q0 32 -22 46.5t-72 14.5q-32 0 -65.5 -4.5t-51.5 -8.5l-18 -5q-23 20 -37 57t-14 78q90 39 215 39q135 0 205.5 -49.5t70.5 -141.5q0 -108 -90 -151q111 -45 111 -172z" />
    <glyph glyph-name="oneeighth" unicode="&#x215b;" horiz-adv-x="1519" 
d="M995 1423q37 15 117 15q36 0 65.5 -4t41.5 -8l12 -3l-791 -1429q-46 -14 -118 -14q-30 0 -59 3.5t-43 6.5l-13 4zM252 1399q34 10 106 10q49 0 97 -10v-682q-48 -10 -99 -10q-66 0 -112 10v370q0 62 4 91q-64 -44 -150 -54q-26 26 -40 70.5t-11 87.5q132 35 205 117z
M915 518q0 92 68.5 143.5t196.5 51.5q121 0 188.5 -48.5t67.5 -134.5q0 -99 -86 -157q112 -59 112 -176q0 -99 -73 -153t-211 -54q-134 0 -207.5 50t-73.5 146q0 112 111 168q-93 54 -93 164zM1249 516q0 57 -69 57q-31 0 -48.5 -14t-17.5 -37q0 -49 103 -82q32 26 32 76z
M1264 195q0 10 -3.5 19t-11.5 17t-15 13.5t-21 12.5t-22.5 11t-25 11t-24.5 10q-5 -4 -13.5 -11t-22 -29.5t-13.5 -45.5q0 -68 90 -68q37 0 59.5 16t22.5 44z" />
    <glyph glyph-name="threeeighths" unicode="&#x215c;" horiz-adv-x="1579" 
d="M1061 1423q37 15 117 15q36 0 65.5 -4t40.5 -8l12 -3l-790 -1429q-47 -14 -119 -14q-30 0 -59 3.5t-42 6.5l-14 4zM74 1382q90 39 215 39q135 0 205.5 -49t70.5 -141q0 -109 -90 -152q111 -45 111 -172q0 -101 -69 -155t-230 -54q-64 0 -121 11t-82 23l-25 11q0 36 14 75
t38 61q67 -23 145 -23q119 0 119 74q0 37 -21.5 53t-74.5 16h-99q-12 34 -12 76t12 76h99q41 0 58 13t17 40q0 32 -22.5 47t-71.5 15q-32 0 -65.5 -5t-51.5 -9l-18 -5q-23 20 -37 57t-14 78zM981 518q0 92 68 143.5t196 51.5q121 0 188.5 -48.5t67.5 -134.5q0 -99 -86 -157
q113 -60 113 -176q0 -99 -73.5 -153t-211.5 -54q-134 0 -207 50t-73 146q0 113 110 168q-92 53 -92 164zM1315 516q0 57 -70 57q-31 0 -48 -14t-17 -37q0 -50 102 -82q33 26 33 76zM1329 195q0 10 -3.5 19t-11.5 17t-15 13.5t-21 12.5t-22.5 11t-25 11t-24.5 10
q-5 -4 -13.5 -11t-22 -29.5t-13.5 -45.5q0 -68 90 -68q37 0 59.5 16t22.5 44z" />
    <glyph glyph-name="fiveeighths" unicode="&#x215d;" horiz-adv-x="1574" 
d="M1057 1423q37 15 117 15q36 0 65.5 -4t40.5 -8l12 -3l-790 -1429q-47 -14 -119 -14q-30 0 -59 3.5t-42 6.5l-14 4zM104 1411h443q12 -38 11.5 -83.5t-11.5 -80.5h-248v-76q287 0 287 -235q0 -120 -74 -179t-233 -59q-63 0 -119 11t-80 23l-25 11q-4 89 49 142
q70 -21 148 -21q61 0 90 17.5t29 56.5q0 43 -26.5 59.5t-92.5 16.5h-148v397zM977 518q0 92 68 143.5t196 51.5q121 0 188.5 -48.5t67.5 -134.5q0 -99 -86 -157q113 -60 113 -176q0 -99 -73.5 -153t-211.5 -54q-134 0 -207.5 50t-73.5 146q0 112 111 168q-92 53 -92 164z
M1311 516q0 57 -70 57q-31 0 -48 -14t-17 -37q0 -50 102 -82q33 26 33 76zM1325 195q0 10 -3.5 19t-11.5 17t-15 13.5t-21 12.5t-22.5 11t-25 11t-24.5 10q-5 -4 -13.5 -11t-22 -29.5t-13.5 -45.5q0 -68 90 -68q37 0 59.5 16t22.5 44z" />
    <glyph glyph-name="seveneighths" unicode="&#x215e;" horiz-adv-x="1427" 
d="M909 1423q37 15 117 15q36 0 65.5 -4t41.5 -8l12 -3l-791 -1429q-46 -14 -118 -14q-30 0 -59 3.5t-43 6.5l-13 4zM76 1411h502q10 -41 10 -82q0 -59 -20 -113t-49 -93t-63 -84.5t-63 -88t-47.5 -103.5t-17.5 -130q-111 -19 -203 0q1 87 17 155t43.5 115t56 83.5t63 81.5
t55.5 87h-284q-22 84 0 172zM829 518q0 92 68.5 143.5t196.5 51.5q121 0 188.5 -48.5t67.5 -134.5q0 -99 -86 -157q112 -59 112 -176q0 -99 -73 -153t-211 -54q-134 0 -207.5 50t-73.5 146q0 112 111 168q-93 54 -93 164zM1163 516q0 57 -69 57q-31 0 -48.5 -14t-17.5 -37
q0 -50 102 -82q33 26 33 76zM1178 195q0 10 -3.5 19t-11.5 17t-15 13.5t-21 12.5t-22.5 11t-25 11t-24.5 10q-5 -4 -13.5 -11t-22 -29.5t-13.5 -45.5q0 -68 90 -68q37 0 59.5 16t22.5 44z" />
    <glyph glyph-name="arrowleft" unicode="&#x2190;" horiz-adv-x="1277" 
d="M39 717l487 489q40 -13 73.5 -48.5t47.5 -76.5l-262 -260h815q14 -46 14 -104q0 -59 -14 -105h-815l262 -258q-15 -43 -49 -78t-72 -49z" />
    <glyph glyph-name="arrowup" unicode="&#x2191;" horiz-adv-x="1064" 
d="M532 1305l490 -488q-14 -40 -49 -74t-78 -47l-258 260v-813q-46 -14 -105 -14q-58 0 -104 14v813l-260 -260q-41 15 -76.5 49t-48.5 72z" />
    <glyph glyph-name="arrowright" unicode="&#x2192;" horiz-adv-x="1277" 
d="M1239 717l-487 -490q-38 14 -72 49t-49 78l262 258h-815q-15 62 -15 105q0 55 15 104h815l-262 260q15 42 48.5 77t72.5 48z" />
    <glyph glyph-name="arrowdown" unicode="&#x2193;" horiz-adv-x="1064" 
d="M428 1290q62 15 104 15q56 0 105 -15v-815l258 262q43 -15 78.5 -48.5t48.5 -72.5l-490 -487l-489 487q13 38 48.5 72t76.5 49l260 -262v815z" />
    <glyph glyph-name="uni2196" unicode="&#x2196;" horiz-adv-x="1048" 
d="M109 1133h684q18 -40 18 -86q0 -45 -18 -86h-367l575 -576q-14 -47 -55.5 -87t-89.5 -60l-575 575v-367q-38 -14 -86 -14q-51 0 -89 14z" />
    <glyph glyph-name="uni2197" unicode="&#x2197;" horiz-adv-x="1048" 
d="M940 1133l2 -687q-38 -14 -88 -14q-48 0 -86 14v367l-575 -575q-49 20 -90.5 60t-55.5 87l576 576h-367q-18 41 -18 86t18 86h684z" />
    <glyph glyph-name="uni2198" unicode="&#x2198;" horiz-adv-x="1077" 
d="M766 567v369q38 14 86 14q50 0 88 -14l-2 -686h-684q-18 40 -18 86t18 86h367l-576 575q14 47 55.5 87.5t89.5 60.5z" />
    <glyph glyph-name="uni2199" unicode="&#x2199;" horiz-adv-x="1077" 
d="M311 567l576 578q48 -20 89.5 -60.5t55.5 -87.5l-575 -575h366q19 -43 19 -86t-19 -86h-684l-2 686q38 14 88 14q48 0 86 -14v-369z" />
    <glyph glyph-name="partialdiff" unicode="&#x2202;" horiz-adv-x="1144" 
d="M248 1280q-15 64 -6.5 136t39.5 120q213 -15 361.5 -75t241 -170.5t134 -265t41.5 -368.5q0 -156 -22.5 -273t-63.5 -193.5t-103.5 -124t-136 -67t-168.5 -19.5q-117 0 -205 29t-153.5 91.5t-99 166.5t-33.5 249q0 537 456 537q65 0 144 -23q-48 109 -147 168t-279 82z
M727 780q-62 41 -160 41q-59 0 -94 -23.5t-55.5 -91.5t-20.5 -190q0 -120 20.5 -187.5t55.5 -91.5t94 -24t94 24t55.5 91.5t20.5 187.5q0 166 -10 264z" />
    <glyph glyph-name="Delta" unicode="&#x2206;" horiz-adv-x="1376" 
d="M541 1458q70 17 151 17q82 0 158 -17l483 -1296q-27 -98 -100 -162h-1088q-86 65 -102 160zM686 1073h-8q-33 -133 -86 -276l-203 -549h582l-203 551q-58 163 -82 274z" />
    <glyph glyph-name="product" unicode="&#x220f;" horiz-adv-x="1462" 
d="M1303 1419v-1822q-56 -21 -146 -21q-39 0 -75.5 5t-53.5 11l-16 5v1568h-561v-1568q-56 -21 -148 -21q-38 0 -74 5t-53 11l-16 5v1822h1143z" />
    <glyph glyph-name="summation" unicode="&#x2211;" horiz-adv-x="1259" 
d="M49 -299l465 834l-430 772v114h1081q19 -51 19 -125q0 -30 -5 -60t-9 -45l-5 -15h-692l363 -646l-390 -702h732q18 -53 18 -127q0 -31 -4.5 -62.5t-9.5 -46.5l-4 -16h-1129v125z" />
    <glyph glyph-name="minus" unicode="&#x2212;" horiz-adv-x="931" 
d="M801 563h-670q-14 43 -14 113q0 31 3.5 59t7.5 41l3 12h670q14 -42 14 -112q0 -31 -3.5 -59.5t-7.5 -40.5z" />
    <glyph glyph-name="uni2215" unicode="&#x2215;" horiz-adv-x="1001" 
d="M-16 -6l790 1429q37 15 117 15q36 0 65.5 -4t41.5 -8l12 -3l-793 -1429q-45 -14 -117 -14q-30 0 -59 3.5t-43 6.5z" />
    <glyph glyph-name="uni2219" unicode="&#x2219;" horiz-adv-x="520" 
d="M260 516q-71 0 -122.5 45t-51.5 127q0 80 51.5 126t122.5 46q70 0 122 -46t52 -126q0 -81 -52 -126.5t-122 -45.5z" />
    <glyph glyph-name="radical" unicode="&#x221a;" horiz-adv-x="1337" 
d="M590 -31l-303 680l-183 -80q-38 29 -61 81.5t-20 109.5l415 182l264 -610l400 1163q61 8 123.5 -7t101.5 -48l-496 -1471h-241z" />
    <glyph glyph-name="infinity" unicode="&#x221e;" horiz-adv-x="1646" 
d="M1174 291q-63 0 -122.5 20.5t-99 50.5t-70 59.5t-44.5 50.5l-15 20q-5 -8 -14.5 -21.5t-43 -48.5t-71 -61.5t-97.5 -48t-124 -21.5q-95 0 -172 31.5t-124.5 85t-73 119.5t-25.5 139q0 98 43 182t135 139t217 55q64 0 123 -21t98.5 -51t70 -60t44.5 -51l14 -21q5 8 15 22
t44 49t71.5 62t97.5 49t123 22q125 0 217.5 -55t136 -139t43.5 -182q0 -72 -25.5 -138.5t-74 -120t-125.5 -85t-172 -31.5zM473 528q35 0 68 14t55.5 34.5t40 41t25.5 34.5l8 14q-3 6 -8.5 15t-24.5 33t-40.5 42.5t-55 33.5t-68.5 15q-73 0 -111 -42t-38 -97t38 -96.5
t111 -41.5zM1174 805q-35 0 -68 -14.5t-55.5 -34.5t-40 -40.5t-25.5 -35.5l-8 -14q3 -6 8.5 -15t24.5 -33t40.5 -42t55 -33t68.5 -15q73 0 111 41.5t38 96.5t-38 97t-111 42z" />
    <glyph glyph-name="integral" unicode="&#x222b;" horiz-adv-x="1054" 
d="M383 18v1067q0 182 97.5 286t279.5 104q47 0 95 -11t83 -26.5t63.5 -31.5t42.5 -27l15 -11q-9 -48 -38.5 -97.5t-64.5 -78.5q-39 30 -90.5 46.5t-97.5 12.5q-58 -5 -93.5 -50.5t-35.5 -135.5v-1067q0 -185 -87.5 -288t-266.5 -103q-46 0 -93 11t-80.5 26.5t-60 31
t-39.5 26.5l-14 11q9 48 37 97t65 77q96 -70 174 -59q49 5 79 51t30 139z" />
    <glyph glyph-name="approxequal" unicode="&#x2248;" horiz-adv-x="1069" 
d="M371 711q-27 0 -51 -7.5t-39 -18.5t-26.5 -22t-16.5 -19l-5 -7q-113 44 -137 151q3 6 9 16t28.5 36t50 46t74.5 36t100 16q52 0 100.5 -16t80 -36t75 -36t86.5 -16q42 0 76 18t47 36l13 17q55 -19 91.5 -59t45.5 -92q-3 -6 -8.5 -16t-28 -35.5t-50 -45t-74.5 -35.5
t-101 -16q-52 0 -100.5 16.5t-80 36t-74.5 36t-85 16.5zM371 334q-27 0 -51 -7.5t-39 -18t-26.5 -21t-16.5 -17.5l-5 -8q-53 19 -89 58.5t-48 93.5q3 6 9 16t28.5 36t50 45.5t74.5 35.5t100 16q52 0 100.5 -16.5t80 -35.5t75 -35.5t86.5 -16.5q26 0 50 7.5t39 17.5t26 20.5
t16 17.5l5 8q55 -19 91.5 -59t45.5 -92q-3 -6 -8.5 -16t-28 -36t-50 -46t-74.5 -36t-101 -16q-52 0 -100.5 16.5t-80 36t-74.5 36t-85 16.5z" />
    <glyph glyph-name="notequal" unicode="&#x2260;" horiz-adv-x="1015" 
d="M438 283l-86 -162q-50 -15 -114 -15q-46 0 -97 15l86 162h-112q-15 66 -15 110q0 65 15 115h233l90 170h-323q-15 55 -15 119q0 52 15 106h442l80 144q43 14 108 14q54 0 105 -14l-80 -144h131q14 -41 14 -106q0 -70 -14 -119h-252l-90 -170h342q14 -43 14 -109
q0 -67 -14 -116h-463z" />
    <glyph glyph-name="lessequal" unicode="&#x2264;" horiz-adv-x="913" 
d="M786 414l-669 233q-15 51 -15 121q0 32 4 60t8 40l3 13l669 235q15 -36 15 -112q0 -33 -3.5 -61t-7.5 -40l-4 -12l-383 -129l383 -123q15 -37 15 -113q0 -33 -3.5 -61t-7.5 -39zM786 139h-669q-15 39 -15 109q0 31 4 58t8 38l3 12h669q17 -38 17 -108q0 -31 -4.5 -58.5
t-8.5 -39.5z" />
    <glyph glyph-name="greaterequal" unicode="&#x2265;" horiz-adv-x="911" 
d="M797 647l-670 -233q-14 38 -14 112q0 34 3.5 62t7.5 40l3 11l381 123l-381 129q-14 39 -14 113q0 34 3.5 62t7.5 39l3 11l670 -235q14 -41 14 -113q0 -31 -3.5 -61.5t-7.5 -44.5zM795 139h-670q-14 39 -14 109q0 31 3.5 58t7.5 38l3 12h670q14 -38 14 -108
q0 -31 -3.5 -58.5t-7.5 -39.5z" />
    <glyph glyph-name="lozenge" unicode="&#x25ca;" horiz-adv-x="1146" 
d="M485 14l-442 707l442 704h170l449 -704l-449 -707h-170zM811 719l-238 391l-233 -391l233 -391z" />
    <glyph glyph-name="commaaccentcomb" unicode="&#xf6c3;" horiz-adv-x="0" 
d="M197 -303l-113 78q3 3 8 9.5t17.5 29t23 46.5t20 62.5t11.5 77.5q-28 2 -54 6t-38 7l-11 3v293q54 17 158 17q44 0 83.5 -4t57.5 -8l17 -5v-211q0 -73 -18.5 -141t-45 -113t-53 -80t-44.5 -51z" />
    <glyph glyph-name="CR" horiz-adv-x="659" 
 />
    <glyph glyph-name="_0020" horiz-adv-x="0" 
 />
    <glyph glyph-name="_375" horiz-adv-x="1323" 
d="M514 1458q70 17 152 17q80 0 157 -17l484 -1296q-26 -97 -101 -162h-1087q-88 66 -103 160zM659 1073h-8q-33 -133 -86 -276l-203 -549h582l-203 551q-58 163 -82 274z" />
    <glyph glyph-name="_376" horiz-adv-x="1433" 
d="M1366 0h-547q-22 56 -22.5 130t22.5 132q189 185 189 516q0 109 -13.5 190.5t-37.5 133.5t-61.5 84t-80.5 44.5t-100 12.5q-71 0 -122 -21t-90.5 -72t-59 -143.5t-19.5 -228.5q0 -332 188 -516q20 -57 20 -128.5t-20 -133.5h-546q-25 61 -25 129q0 76 25 133h196
q-170 212 -170 516q0 367 161.5 542t461.5 175t462 -175t162 -542q0 -297 -172 -516h199q20 -72 20 -131q0 -63 -20 -131z" />
    <glyph glyph-name="commaaccentcomb.alt" horiz-adv-x="0" 
d="M221 1475l113 -76q-8 -10 -20 -28t-34 -77t-26 -123q28 -2 53.5 -5.5t36.5 -5.5l12 -3v-293q-53 -16 -157 -16q-44 0 -83.5 4t-57.5 8l-17 4v211q0 72 18.5 140t45 113t53 80t44.5 51z" />
    <glyph glyph-name="eight.denom" horiz-adv-x="665" 
d="M70 518q0 92 68 143.5t196 51.5q121 0 188.5 -48.5t67.5 -134.5q0 -99 -86 -157q112 -59 112 -176q0 -99 -73 -153t-211 -54q-134 0 -207.5 50t-73.5 146q0 112 111 168q-92 53 -92 164zM403 516q0 57 -69 57q-31 0 -48.5 -14t-17.5 -37q0 -49 103 -82q32 26 32 76z
M418 195q0 10 -3.5 19t-11.5 17t-15 13.5t-21 12.5t-22.5 11t-25 11t-24.5 10q-5 -4 -13.5 -11t-22 -29.5t-13.5 -45.5q0 -68 90 -68q37 0 59.5 16t22.5 44z" />
    <glyph glyph-name="eight.num" horiz-adv-x="665" 
d="M70 1227q0 92 68 143t196 51q121 0 188.5 -48t67.5 -134q0 -100 -86 -158q112 -59 112 -176q0 -99 -73 -153t-211 -54q-133 0 -207 50.5t-74 146.5q0 113 111 168q-92 53 -92 164zM403 1225q0 57 -69 57q-31 0 -48.5 -14t-17.5 -37q0 -49 103 -82q32 26 32 76zM418 903
q0 10 -3.5 19t-11.5 17t-15 13.5t-21 12.5t-22.5 11t-25 11t-24.5 10q-5 -4 -13.5 -11t-22 -29.5t-13.5 -45.5q0 -67 90 -67q37 0 59.5 16t22.5 43z" />
    <glyph glyph-name="five.denom" horiz-adv-x="622" 
d="M285 539v-76q286 0 286 -236q0 -120 -74 -178.5t-233 -58.5q-63 0 -118.5 11t-79.5 23l-25 11q-3 89 49 141q70 -20 148 -20q61 0 89.5 17t28.5 56q0 44 -26 60t-92 16h-148v397h442q12 -38 11.5 -83t-11.5 -80h-247z" />
    <glyph glyph-name="five.num" horiz-adv-x="620" 
d="M285 1247v-76q286 0 286 -235q0 -120 -74 -179t-233 -59q-63 0 -118.5 11t-79.5 23l-25 11q-4 89 49 142q70 -21 148 -21q61 0 89.5 17.5t28.5 56.5q0 44 -26 60t-92 16h-148v397h442q12 -38 11.5 -83.5t-11.5 -80.5h-247z" />
    <glyph glyph-name="four.denom" horiz-adv-x="679" 
d="M549 291h76q10 -34 10 -74q0 -28 -10 -70h-76v-137q-44 -10 -92 -10q-49 0 -90 10v137h-330q-10 38 -10 70q0 35 8 62l319 411q46 12 99 12q52 0 96 -12v-399zM367 471l-138 -180h138v180z" />
    <glyph glyph-name="four.num" horiz-adv-x="677" 
d="M549 999h76q10 -34 10 -73q0 -28 -10 -70h-76v-137q-44 -10 -92 -10q-49 0 -90 10v137h-330q-10 38 -10 70q0 34 8 61l319 412q46 12 99 12q52 0 96 -12v-400zM367 1180l-138 -181h138v181z" />
    <glyph glyph-name="g.alt" horiz-adv-x="1148" 
d="M721 53v31q-90 -104 -260 -104q-89 0 -157.5 29t-120.5 93t-79.5 174t-27.5 263q0 300 98.5 433.5t280.5 133.5q178 0 266 -105v68q60 16 160 16q44 0 83 -4t56 -8l16 -4v-1016q0 -293 -129 -429t-381 -136q-64 0 -125 8.5t-102.5 21t-73.5 25t-47 21.5l-16 8
q6 126 80 203q11 -5 31.5 -13t80 -21t115.5 -13q46 0 79.5 6t68 26.5t56 55t35 94.5t13.5 143zM406 539q0 -126 20 -196.5t54 -94t91 -23.5q66 0 106.5 50.5t43.5 127.5v271q-2 83 -41.5 133.5t-108.5 50.5q-43 0 -71 -12.5t-50.5 -46t-33 -97.5t-10.5 -163z" />
    <glyph glyph-name="gbreve.alt" horiz-adv-x="1148" 
d="M946 1370q-4 -6 -12.5 -16.5t-40 -36.5t-68 -45.5t-97.5 -36t-128 -16.5t-127 15.5t-97.5 37.5t-66 44.5t-41.5 37.5l-12 16q15 45 50 84t79 57q9 -6 25.5 -15.5t72.5 -25.5t117 -16t114.5 14t77.5 28l23 15q45 -19 81 -57.5t50 -83.5zM721 53v31q-90 -104 -260 -104
q-89 0 -157.5 29t-120.5 93t-79.5 174t-27.5 263q0 300 98.5 433.5t280.5 133.5q178 0 266 -105v68q60 16 160 16q44 0 83 -4t56 -8l16 -4v-1016q0 -293 -129 -429t-381 -136q-64 0 -125 8.5t-102.5 21t-73.5 25t-47 21.5l-16 8q6 126 80 203q11 -5 31.5 -13t80 -21
t115.5 -13q46 0 79.5 6t68 26.5t56 55t35 94.5t13.5 143zM406 539q0 -126 20 -196.5t54 -94t91 -23.5q66 0 106.5 50.5t43.5 127.5v271q-2 83 -41.5 133.5t-108.5 50.5q-43 0 -71 -12.5t-50.5 -46t-33 -97.5t-10.5 -163z" />
    <glyph glyph-name="gcircumflex.alt" horiz-adv-x="1148" 
d="M608 1618l316 -264q-54 -102 -138 -135l-213 133l-211 -131q-88 33 -137 133l312 264h71zM721 53v31q-90 -104 -260 -104q-89 0 -157.5 29t-120.5 93t-79.5 174t-27.5 263q0 300 98.5 433.5t280.5 133.5q178 0 266 -105v68q60 16 160 16q44 0 83 -4t56 -8l16 -4v-1016
q0 -293 -129 -429t-381 -136q-64 0 -125 8.5t-102.5 21t-73.5 25t-47 21.5l-16 8q6 126 80 203q11 -5 31.5 -13t80 -21t115.5 -13q46 0 79.5 6t68 26.5t56 55t35 94.5t13.5 143zM406 539q0 -126 20 -196.5t54 -94t91 -23.5q66 0 106.5 50.5t43.5 127.5v271
q-2 83 -41.5 133.5t-108.5 50.5q-43 0 -71 -12.5t-50.5 -46t-33 -97.5t-10.5 -163z" />
    <glyph glyph-name="gcommaaccent.alt" horiz-adv-x="1148" 
d="M623 1759l108 -67q-8 -8 -19.5 -23.5t-32 -66t-24.5 -105.5q25 -2 49.5 -5.5t35.5 -5.5l12 -3v-254q-56 -15 -154 -15q-43 0 -81.5 4t-55.5 8l-17 3v182q0 46 10 90t25.5 77.5t34.5 63.5t38.5 51t35 36t25.5 23zM721 53v31q-90 -104 -260 -104q-89 0 -157.5 29t-120.5 93
t-79.5 174t-27.5 263q0 300 98.5 433.5t280.5 133.5q178 0 266 -105v68q60 16 160 16q44 0 83 -4t56 -8l16 -4v-1016q0 -293 -129 -429t-381 -136q-64 0 -125 8.5t-102.5 21t-73.5 25t-47 21.5l-16 8q6 126 80 203q11 -5 31.5 -13t80 -21t115.5 -13q46 0 79.5 6t68 26.5
t56 55t35 94.5t13.5 143zM406 539q0 -126 20 -196.5t54 -94t91 -23.5q66 0 106.5 50.5t43.5 127.5v271q-2 83 -41.5 133.5t-108.5 50.5q-43 0 -71 -12.5t-50.5 -46t-33 -97.5t-10.5 -163z" />
    </font>
</defs>
</svg>
