<?xml version="1.0" standalone="no"?>
<!DOCTYPE svg PUBLIC "-//W3C//DTD SVG 1.1//EN" "http://www.w3.org/Graphics/SVG/1.1/DTD/svg11.dtd" >
<svg xmlns="http://www.w3.org/2000/svg" xmlns:xlink="http://www.w3.org/1999/xlink" version="1.1">
<metadata>
Created by FontForge 20170731 at Wed Sep  8 13:44:14 2021
 By Aleksey,,,
Copyright (c) 2014 by Fontfabric LLC. All rights reserved.
</metadata>
<defs>
<font id="GloberRegularItalic" horiz-adv-x="1124" >
  <font-face 
    font-family="Glober Regular Italic"
    font-weight="400"
    font-style="italic"
    font-stretch="normal"
    units-per-em="2048"
    panose-1="0 0 0 0 0 0 0 0 0 0"
    ascent="1536"
    descent="-512"
    x-height="1077"
    cap-height="1475"
    bbox="-461 -528 2073 2157.53"
    underline-thickness="102"
    underline-position="-307"
    unicode-range="U+0020-FB02"
  />
<missing-glyph horiz-adv-x="1265" 
d="M864 0h-1102l314 1475h1102zM842 1024q28 128 -40 200t-218 72q-70 0 -137 -14t-99 -28l-31 -13q-20 -55 19 -86q9 5 26.5 11.5t73 18t111.5 11.5q104 0 147 -46t25 -132q-11 -53 -35 -94.5t-54 -69.5t-64.5 -53.5t-70 -54.5t-67.5 -65t-59 -93.5t-43 -130.5
q14 -13 45 -13q15 0 27 3t17 7l5 3q13 60 39.5 107.5t60 79t71.5 59t76.5 56.5t72 62.5t61 85t41.5 117.5zM406 293q-21 8 -66 8q-20 0 -37 -2t-24 -4l-7 -2l-24 -119q18 -8 63 -8q20 0 37.5 2t25.5 4l7 2z" />
    <glyph glyph-name="fi" unicode="fi" horiz-adv-x="1165" 
d="M340 1200q34 165 140.5 250.5t305.5 85.5q98 0 192.5 -15t139.5 -31l45 -15q-12 -66 -61 -109q-15 5 -43 13.5t-113.5 22t-171.5 13.5q-133 0 -198 -49t-87 -156l-28 -133h551q38 0 78 -8l-226 -1059q-27 -10 -76 -10q-24 0 -41.5 2.5t-23.5 5.5l-6 2l203 951h-484
l-203 -951q-26 -10 -75 -10q-23 0 -41 2.5t-25 5.5l-6 2l203 951h-131q-4 22 4 59q4 16 9 30.5t8 20.5l3 6h131z" />
    <glyph glyph-name="fl" unicode="fl" horiz-adv-x="1171" 
d="M342 1200q71 336 434 336q98 0 198 -17.5t151 -34.5l51 -18l-310 -1456q-26 -10 -75 -10q-24 0 -42 2.5t-24 5.5l-6 2l291 1372q-125 33 -246 33q-125 0 -188 -50.5t-84 -154.5l-29 -133h229q0 -39 -4 -57q-6 -26 -20 -59h-230l-202 -951q-27 -10 -76 -10q-23 0 -41 2.5
t-25 5.5l-6 2l203 951h-131q0 41 4 59q9 41 20 57h131z" />
    <glyph glyph-name=".notdef" horiz-adv-x="1265" 
d="M864 0h-1102l314 1475h1102zM842 1024q28 128 -40 200t-218 72q-70 0 -137 -14t-99 -28l-31 -13q-20 -55 19 -86q9 5 26.5 11.5t73 18t111.5 11.5q104 0 147 -46t25 -132q-11 -53 -35 -94.5t-54 -69.5t-64.5 -53.5t-70 -54.5t-67.5 -65t-59 -93.5t-43 -130.5
q14 -13 45 -13q15 0 27 3t17 7l5 3q13 60 39.5 107.5t60 79t71.5 59t76.5 56.5t72 62.5t61 85t41.5 117.5zM406 293q-21 8 -66 8q-20 0 -37 -2t-24 -4l-7 -2l-24 -119q18 -8 63 -8q20 0 37.5 2t25.5 4l7 2z" />
    <glyph glyph-name=".null" horiz-adv-x="0" 
 />
    <glyph glyph-name="nonmarkingreturn" horiz-adv-x="682" 
 />
    <glyph glyph-name="space" unicode=" " horiz-adv-x="497" 
 />
    <glyph glyph-name="exclam" unicode="!" horiz-adv-x="532" 
d="M154 360l211 1104q18 11 81 11q27 0 46.5 -2.5t25.5 -5.5l6 -3l-260 -1104q-20 -12 -57 -12q-16 0 -29.5 3t-18.5 6zM248 160l-33 -150q-27 -10 -82 -10q-25 0 -44.5 2.5t-26.5 5.5l-7 2l33 150q25 10 82 10q24 0 43.5 -2.5t26.5 -5.5z" />
    <glyph glyph-name="quotedbl" unicode="&#x22;" horiz-adv-x="675" 
d="M246 1061l59 403q25 11 76 11q23 0 41 -2.5t24 -5.5l7 -3l-113 -403q-16 -8 -49 -8q-14 0 -25 2t-16 4zM512 1061l59 403q23 11 76 11q22 0 40 -2.5t25 -5.5l7 -3l-113 -403q-18 -8 -49 -8q-15 0 -26 2t-15 4z" />
    <glyph glyph-name="numbersign" unicode="#" horiz-adv-x="1341" 
d="M1147 1264q35 12 67 12q40 0 64 -12l-139 -279h184q4 -33 -2 -57q-6 -33 -23 -64h-217l-233 -471h178q0 -48 -2 -59q-9 -39 -25 -62h-213l-127 -260q-42 -12 -69 -12q-16 0 -64 12l129 260h-315l-129 -260q-42 -12 -70 -12q-19 0 -61 12l127 260h-191q0 49 2 60
q10 46 25 61h225l234 471h-187q-5 22 2 62q6 37 23 59h219l139 279q34 12 68 12q39 0 63 -12l-137 -279h316zM633 864l-232 -471h316l231 471h-315z" />
    <glyph glyph-name="dollar" unicode="$" horiz-adv-x="1140" 
d="M715 1606q26 10 69 10q20 0 37 -2.5t24 -5.5l7 -2l-68 -238q92 -3 174.5 -15t119.5 -23l36 -11q0 -1 -1.5 -8t-3.5 -14t-6.5 -18t-10.5 -22q-20 -38 -45 -51q-123 41 -299 41q-346 0 -396 -231q-12 -56 6 -98t57 -67t93 -46t115 -35.5t121 -36t112 -47t88.5 -68t50 -99.5
t-3.5 -142q-34 -164 -161.5 -260t-333.5 -111l-39 -260q-23 -10 -70 -10q-20 0 -37 2.5t-24 5.5l-7 2l68 258q-106 2 -201 20.5t-138 35.5l-42 18q0 19 17 59q24 43 43 53q19 -6 53.5 -15t130.5 -24.5t182 -15.5q352 0 402 234q13 60 -3.5 105.5t-55 71.5t-92 48t-114 35.5
t-120.5 34t-112.5 43.5t-89 63t-50.5 94.5t2 136.5q34 158 157.5 253t321.5 110z" />
    <glyph glyph-name="percent" unicode="%" horiz-adv-x="1538" 
d="M1405 1427l-1098 -1437q-24 -10 -67 -10q-18 0 -33.5 2.5t-22.5 5.5l-6 2l1100 1437q20 11 65 11q19 0 34.5 -3t21.5 -5zM383 707q-134 0 -185.5 84t-11.5 270q74 354 349 354q272 0 196 -354t-348 -354zM514 1319q-77 0 -127.5 -57.5t-81.5 -200.5q-24 -100 -15 -156.5
t35.5 -78t77.5 -21.5q75 0 126 56t81 200q23 99 14.5 156.5t-35 79.5t-75.5 22zM1036 -20q-133 0 -184.5 84t-11.5 270q74 354 346 354q132 0 184 -84.5t14 -269.5q-76 -354 -348 -354zM1165 592q-76 0 -127 -57.5t-80 -200.5q-16 -74 -16.5 -125t14.5 -79.5t39.5 -40
t61.5 -11.5q76 0 126 56t81 200q22 99 13 156.5t-36 79.5t-76 22z" />
    <glyph glyph-name="ampersand" unicode="&#x26;" horiz-adv-x="1298" 
d="M823 1413q136 0 200 -70.5t42 -179.5q-13 -62 -45 -116.5t-72.5 -97t-103 -86t-120 -75.5t-140.5 -73q74 -220 262 -393q102 102 186 262q36 3 66.5 -10.5t40.5 -38.5q-77 -146 -217 -281q104 -80 221 -133q-6 -36 -31.5 -70.5t-58.5 -52.5q-139 62 -252 152
q-25 -22 -60.5 -45.5t-94.5 -54.5t-138.5 -50.5t-161.5 -19.5q-77 0 -140.5 20t-111 62.5t-64 109t0.5 158.5q14 65 49.5 126t77 105t94.5 83t93 62t81 42q-41 168 -6 319q33 160 136.5 253t266.5 93zM791 1307q-87 0 -150 -59.5t-86 -172.5q-27 -131 2 -264q78 39 133.5 72
t106 74.5t81 89t42.5 102.5q15 73 -18 115.5t-111 42.5zM395 102q164 0 332 115q-192 186 -274 434q-39 -20 -75.5 -45t-79.5 -63t-74.5 -88.5t-43.5 -106.5q-25 -113 34 -179.5t181 -66.5z" />
    <glyph glyph-name="quotesingle" unicode="'" horiz-adv-x="409" 
d="M246 1061l59 403q23 11 76 11q22 0 40 -2.5t25 -5.5l7 -3l-113 -403q-16 -8 -49 -8q-14 0 -25 2t-16 4z" />
    <glyph glyph-name="parenleft" unicode="(" horiz-adv-x="587" 
d="M690 1645q15 -9 24.5 -20.5t11.5 -18.5l3 -7q-14 -15 -37.5 -43.5t-88 -123.5t-120.5 -197.5t-117.5 -261t-95.5 -318.5t-41 -316.5t8 -265t35 -194t38 -127.5l18 -41q-19 -27 -58 -45q-17 -8 -33.5 -12t-24.5 -4h-7q-8 17 -21.5 49.5t-42 137.5t-44 215.5t-12 275.5
t37.5 327q25 118 66.5 237.5t88 216t97 185.5t95.5 154.5t81.5 114t58.5 73.5l21 25q28 2 59 -16z" />
    <glyph glyph-name="parenright" unicode=")" horiz-adv-x="587" 
d="M332 655q34 160 40.5 316.5t-8.5 265t-35 194t-37 127.5l-18 41q19 26 58 46q17 8 33.5 12t24.5 4h7q8 -17 21 -49.5t41.5 -137t43.5 -215.5t11.5 -276.5t-37.5 -327.5t-99 -325t-133 -280t-131 -211t-103 -141l-40 -48q-30 -2 -61 16q-14 8 -23 19.5t-11 18.5l-3 7
q14 15 37 43.5t88 123.5t120.5 197.5t117.5 261t96 318.5z" />
    <glyph glyph-name="asterisk" unicode="*" horiz-adv-x="704" 
d="M440 1272l37 172q45 15 86 0l-37 -172l179 55q19 -27 6 -82l-176 -53l75 -145q-51 -40 -84 -50l-73 142l-131 -142q-38 11 -62 47l133 146l-151 55q13 54 45 82z" />
    <glyph glyph-name="plus" unicode="+" horiz-adv-x="944" 
d="M395 537h-297q-6 20 2 57q3 16 8.5 30.5t9.5 20.5l5 6h297l63 299q21 8 58 8q16 0 30.5 -2t20.5 -4l6 -2l-63 -299h299q1 -20 -5 -57q-4 -16 -9 -30.5t-8 -20.5l-3 -6h-299l-64 -297q-22 -11 -59 -11q-16 0 -30 2.5t-19 5.5l-6 3z" />
    <glyph glyph-name="comma" unicode="," horiz-adv-x="462" 
d="M10 -229l-49 39q9 8 23 22.5t44 63.5t46 104q-16 1 -29 3.5t-17 4.5l-5 2l32 150q31 10 84 10q24 0 44.5 -2.5t28.5 -5.5l9 -2l-22 -103q-11 -53 -35 -102t-49.5 -81t-49.5 -56.5t-39 -35.5z" />
    <glyph glyph-name="hyphen" unicode="-" horiz-adv-x="731" 
d="M547 537h-402q-6 20 2 57q3 16 8.5 30.5t10.5 20.5l4 6h401q4 -20 -2 -57q-4 -16 -9.5 -30.5t-9.5 -20.5z" />
    <glyph glyph-name="period" unicode="." horiz-adv-x="454" 
d="M221 160l-33 -150q-31 -10 -86 -10q-25 0 -45.5 2.5t-28.5 5.5l-8 2l33 150q29 10 86 10q24 0 44.5 -2.5t28.5 -5.5z" />
    <glyph glyph-name="slash" unicode="/" horiz-adv-x="935" 
d="M-102 -84l1030 1608q29 12 76 12q23 0 41 -3t25 -6l7 -3l-1030 -1608q-29 -12 -78 -12q-22 0 -39.5 3t-24.5 6z" />
    <glyph glyph-name="zero" unicode="0" horiz-adv-x="1263" 
d="M492 -20q-493 0 -334 745q79 368 235.5 528t403.5 160q243 0 331 -186t7 -563q-40 -189 -100.5 -321.5t-142.5 -212t-179.5 -115t-220.5 -35.5zM768 1286q-173 0 -283.5 -135t-179.5 -455q-48 -215 -35 -346t73 -187.5t175 -56.5q176 0 286.5 135.5t178.5 454.5
q35 163 38.5 276.5t-25 183t-84.5 100t-144 30.5z" />
    <glyph glyph-name="one" unicode="1" horiz-adv-x="821" 
d="M162 1085q269 68 465 295q24 13 73 13q22 0 40 -3.5t25 -6.5l7 -3l-291 -1368q-25 -12 -78 -12q-22 0 -40 3t-25 6l-8 3l190 897q34 156 70 275q-170 -162 -420 -223q-18 22 -20.5 55t12.5 69z" />
    <glyph glyph-name="two" unicode="2" horiz-adv-x="1083" 
d="M336 1231q-45 38 -21 108q19 8 53.5 20.5t138 33t202.5 20.5q185 0 284 -100t60 -289q-18 -81 -49 -139.5t-96 -110.5t-112 -80t-160 -88q-16 -9 -24.5 -13.5t-22.5 -12t-26 -13.5q-19 -10 -58.5 -30.5t-62.5 -33t-60 -34.5t-60.5 -40t-52.5 -44.5t-47.5 -53t-35 -61.5
t-24.5 -73q-3 -14 -4.5 -28.5t-2 -23t-1.5 -10.5h675q7 -20 -2 -67q-7 -34 -26 -68h-811q2 65 16 137q12 62 33.5 116.5t44 94.5t58.5 78.5t64 63t74 54.5t75 46t81.5 44.5t79.5 43.5q174 100 227 139q110 82 146 186q7 21 12 44q13 47 5 90.5t-32.5 77t-80 53.5t-136.5 20
q-73 0 -153 -14t-124 -28z" />
    <glyph glyph-name="three" unicode="3" horiz-adv-x="1062" 
d="M879 362q-18 -83 -59 -150t-107.5 -120.5t-169 -82.5t-232.5 -29q-60 0 -116.5 7t-93.5 17t-66 20.5t-42 17.5l-13 7q5 30 22.5 61t40.5 50q127 -49 285 -49q179 0 276.5 69.5t126.5 202.5q59 285 -272 285h-127q-13 62 26 123h127q292 0 344 251q27 120 -33 183t-208 63
q-71 0 -143 -12t-108 -24l-36 -13q-23 17 -30.5 46t3.5 61q17 8 47.5 19t123.5 29.5t184 18.5q205 0 293 -101t53 -268q-50 -239 -264 -313q228 -76 168 -369z" />
    <glyph glyph-name="four" unicode="4" horiz-adv-x="1177" 
d="M51 483l852 897q27 13 80 13q22 0 39.5 -3.5t23.5 -6.5l7 -3l-191 -897h197q8 -20 0 -61q-4 -18 -10.5 -33t-10.5 -21l-4 -6h-196l-76 -350q-29 -12 -74 -12q-21 0 -38.5 3t-24.5 6l-7 3l76 350h-667q-10 19 0 60q4 18 10 33.5t10 21.5zM866 1180l-659 -697h512z" />
    <glyph glyph-name="five" unicode="5" horiz-adv-x="1071" 
d="M471 1260l-98 -463q50 10 143 10q235 0 330 -114.5t51 -325.5q-43 -198 -188.5 -292.5t-409.5 -94.5q-64 0 -119.5 6.5t-90 15t-59.5 17.5t-36 15l-10 7q3 30 20.5 61t42.5 50q12 -5 33.5 -12t90 -19t138.5 -12q189 0 296.5 67.5t139.5 214.5q16 68 7.5 122t-41 91
t-101 56.5t-172.5 19.5q-45 0 -96 -3.5t-93.5 -8t-49.5 -4.5l153 729h701q9 -69 -27 -133h-555z" />
    <glyph glyph-name="six" unicode="6" horiz-adv-x="1130" 
d="M1042 1393q17 -58 -24 -121q-245 -26 -414 -143t-264 -351q172 74 313 74q89 0 158.5 -27t116.5 -83t60 -142t-11 -203q-30 -142 -107 -237t-185 -137.5t-245 -42.5q-207 0 -297.5 134.5t-31.5 411.5q88 416 330 630t601 237zM825 416q34 160 -26 237.5t-191 77.5
q-142 0 -315 -88q-25 -80 -33 -125q-46 -215 6.5 -317.5t186.5 -102.5q136 0 238 81.5t134 236.5z" />
    <glyph glyph-name="seven" unicode="7" horiz-adv-x="1009" 
d="M240 1393h839q5 -33 -6 -84q-24 -101 -73 -192.5t-110 -165.5t-131.5 -147.5t-142 -154.5t-135 -170.5t-117.5 -210.5t-83 -260q-56 -8 -72 -8q-10 0 -74 8q31 144 83 268.5t112.5 216t128.5 172t135.5 150.5t127 136.5t110 145t77.5 160.5h-698q-6 25 2 68q4 20 11 37
t12 24z" />
    <glyph glyph-name="eight" unicode="8" horiz-adv-x="1193" 
d="M453 -20q-213 0 -314.5 110t-66.5 277q10 45 30 87t41.5 73t55 61.5t58 49.5t63 42t57.5 32.5l53 26.5q-93 56 -136.5 149.5t-17.5 215.5q32 152 159.5 230.5t326.5 78.5q190 0 284 -100t60 -256q-10 -46 -28.5 -87t-45 -73.5t-51 -57.5t-60 -48.5t-57 -36.5t-55.5 -31
q113 -62 170 -163t27 -243q-35 -168 -176.5 -252.5t-376.5 -84.5zM737 1292q-127 0 -213 -56t-106 -151q-13 -59 0.5 -104.5t62.5 -83t83.5 -56.5t113.5 -54q25 -11 37 -17q213 125 250 301q23 106 -38 163.5t-190 57.5zM485 100q149 0 249 67t122 175q14 64 -0.5 112.5
t-66.5 89t-88 59.5t-120 57q-41 19 -61 28q-27 -15 -52 -30t-69 -49t-77.5 -69.5t-64 -88t-42.5 -107.5q-24 -110 44.5 -177t225.5 -67z" />
    <glyph glyph-name="nine" unicode="9" 
d="M109 0q-12 64 26 121q244 24 411.5 141t264.5 352q-138 -73 -289 -73q-89 0 -160.5 28t-121.5 85t-65.5 143.5t7.5 203.5q46 211 184.5 311.5t346.5 100.5q209 0 299.5 -135t31.5 -412q-45 -211 -132 -372t-208 -265.5t-269.5 -161t-325.5 -67.5zM326 977
q-34 -160 27 -237.5t192 -77.5q90 0 177 27.5t138 60.5q20 64 33 124q89 420 -207 420q-134 0 -230 -80.5t-130 -236.5z" />
    <glyph glyph-name="colon" unicode=":" horiz-adv-x="479" 
d="M395 969l-30 -150q-31 -10 -86 -10q-25 0 -45.5 2.5t-28.5 4.5l-8 3l30 150q31 10 88 10q24 0 44 -2.5t28 -4.5zM225 160l-32 -150q-32 -10 -87 -10q-25 0 -45.5 2.5t-28.5 5.5l-7 2l32 150q29 10 86 10q24 0 44.5 -2.5t28.5 -5.5z" />
    <glyph glyph-name="semicolon" unicode=";" horiz-adv-x="495" 
d="M408 969l-31 -150q-31 -10 -86 -10q-25 0 -45.5 2.5t-28.5 4.5l-8 3l31 150q31 10 88 10q24 0 44 -2.5t28 -4.5zM27 -229l-50 39q9 8 23 22.5t44 63.5t46 104q-16 1 -29.5 3.5t-18.5 4.5l-5 2l33 150q29 10 86 10q24 0 44.5 -2.5t29.5 -5.5l8 -2l-23 -103
q-11 -53 -35 -102t-49.5 -81t-49 -56.5t-39.5 -35.5z" />
    <glyph glyph-name="less" unicode="&#x3c;" horiz-adv-x="935" 
d="M686 229l-592 297q-4 29 4 68q4 18 9.5 34.5t9.5 23.5l4 7l719 297q8 -16 -2 -57q-4 -18 -9.5 -33.5t-9.5 -21.5l-4 -6l-588 -246l484 -242q6 -20 -2 -61q-4 -17 -9.5 -32t-9.5 -21z" />
    <glyph glyph-name="equal" unicode="=" horiz-adv-x="1054" 
d="M899 715h-709q-3 59 25 114h709q3 -56 -25 -114zM823 356h-708q-3 64 24 117h709q3 -59 -25 -117z" />
    <glyph glyph-name="greater" unicode="&#x3e;" horiz-adv-x="935" 
d="M799 526l-719 -297q-6 21 2 60q4 18 9.5 33.5t8.5 21.5l4 6l586 242l-481 246q-6 20 2 61q4 18 9.5 32.5t9.5 19.5l3 5l592 -297q6 -24 -2 -65q-4 -17 -10 -34t-10 -26z" />
    <glyph glyph-name="question" unicode="?" horiz-adv-x="878" 
d="M879 1073q-17 -82 -51.5 -147t-77 -107t-90.5 -78t-95.5 -70.5t-89 -73.5t-74.5 -98t-49 -134q-20 -17 -61 -17q-16 0 -30 4t-19 8l-6 5q19 92 53 163.5t73.5 116t83.5 81t86.5 68t80 66t67 86.5t43.5 119q24 106 -29.5 163.5t-183.5 57.5q-70 0 -136 -12t-97 -24
l-31 -13q-46 39 -23 109q15 8 43.5 19t116.5 29.5t176 18.5q185 0 269.5 -90.5t50.5 -249.5zM336 160l-33 -150q-31 -10 -86 -10q-25 0 -45.5 2.5t-28.5 5.5l-8 2l33 150q29 10 86 10q24 0 44.5 -2.5t29.5 -5.5z" />
    <glyph glyph-name="at" unicode="@" horiz-adv-x="1871" 
d="M1739 621q-44 -211 -162.5 -329t-286.5 -118q-186 0 -203 137q-102 -137 -292 -137q-56 0 -100.5 13t-80.5 41.5t-54 74t-21.5 112t16.5 154.5q23 109 64 188t96 124t116 65.5t132 20.5q165 0 221 -107l20 98q25 13 68 13q19 0 34 -3.5t20 -6.5l5 -3l-106 -507
q-39 -175 92 -175q99 0 181 86.5t118 258.5q43 202 -3 352.5t-179.5 234.5t-341.5 84q-205 0 -380 -86.5t-297 -250.5t-169 -384q-32 -148 -19 -263t57.5 -198t120.5 -136.5t168.5 -79t202.5 -25.5q150 0 303.5 44.5t286.5 119.5q44 -20 35 -78q-315 -193 -668 -193
q-160 0 -289.5 49.5t-220.5 150t-120.5 252.5t10.5 357q53 249 200 437t354.5 286.5t444.5 98.5q149 0 267.5 -36t198 -103.5t127.5 -162.5t54.5 -213.5t-20.5 -256.5zM694 569q-16 -70 -14 -121.5t13.5 -85t37 -54t55.5 -28.5t70 -8q89 0 156 57.5t90 139.5l41 199
q16 82 -26.5 141t-133.5 59q-51 0 -91 -12.5t-79.5 -43.5t-69.5 -92t-49 -151z" />
    <glyph glyph-name="A" unicode="A" horiz-adv-x="1323" 
d="M756 1462q35 13 86 13q24 0 44.5 -3.5t29.5 -6.5l8 -3l233 -1450q-29 -12 -86 -12q-17 0 -32.5 3t-22.5 6l-6 3l-64 391h-653l-230 -391q-27 -12 -90 -12q-22 0 -39 3t-24 6l-6 3zM815 1313h-6q-25 -62 -72 -142l-372 -641h563l-103 641q-5 36 -7.5 71.5t-2.5 53.5v17z
" />
    <glyph glyph-name="B" unicode="B" horiz-adv-x="1286" 
d="M381 1475h510q82 0 145 -23t99.5 -63t58.5 -94t21.5 -116t-11.5 -128q-14 -69 -46 -126t-70.5 -92.5t-72.5 -57t-65 -32.5q23 -5 48 -20t53 -44t44.5 -70.5t23 -99.5t-10.5 -132q-79 -377 -512 -377h-528zM389 805h336q275 0 334 274q58 273 -219 273h-334zM246 123h350
q162 0 249 71.5t116 208.5q31 146 -29 214.5t-217 68.5h-350z" />
    <glyph glyph-name="C" unicode="C" horiz-adv-x="1140" 
d="M154 737q80 376 265 567t470 191q99 0 181.5 -17t115.5 -34l33 -17q-10 -63 -72 -114q-12 6 -33.5 14.5t-91.5 22.5t-143 14q-80 0 -147.5 -18t-132 -62.5t-116.5 -115.5t-95.5 -180t-74.5 -253t-33 -252t19.5 -177.5t67.5 -112.5t105.5 -60.5t139.5 -17.5t158.5 12.5
t117.5 25.5l38 13q35 -45 22 -117q-6 -3 -17 -7.5t-48 -16.5t-78 -21t-106 -16.5t-132 -7.5q-572 0 -413 757z" />
    <glyph glyph-name="D" unicode="D" horiz-adv-x="1355" 
d="M381 1475h428q117 0 204 -26.5t147.5 -84t89.5 -147t26.5 -217.5t-37.5 -293q-43 -205 -110 -343.5t-162 -218t-207.5 -112.5t-263.5 -33h-428zM246 129h264q89 0 158.5 16t135 56.5t115.5 108.5t92.5 175t73.5 252q31 146 34 253t-18 175t-69 108.5t-110.5 56.5
t-151.5 16h-264z" />
    <glyph glyph-name="E" unicode="E" horiz-adv-x="1138" 
d="M381 1475h813q6 -26 0 -62q-9 -38 -27 -65h-661l-115 -539h559q6 -28 0 -59q-9 -38 -26 -66h-559l-119 -557h682q6 -27 0 -61q-10 -37 -27 -66h-833z" />
    <glyph glyph-name="F" unicode="F" horiz-adv-x="1097" 
d="M360 662l-139 -650q-27 -12 -78 -12q-23 0 -41 3t-25 6l-7 3l311 1463h805q5 -32 -2 -64q-6 -30 -25 -63h-653l-119 -560h571q7 -21 -2 -61q-7 -36 -24 -65h-572z" />
    <glyph glyph-name="G" unicode="G" horiz-adv-x="1284" 
d="M156 737q79 373 274.5 565.5t487.5 192.5q107 0 198 -17t128 -34l38 -17q-16 -69 -72 -112q-14 5 -40.5 13.5t-105.5 22t-155 13.5q-82 0 -152.5 -18t-139.5 -63t-124 -115.5t-101.5 -180t-76.5 -252.5t-30.5 -252t25 -178.5t75.5 -113t113 -61t145 -17.5q128 0 242 26
l112 531h-335q-6 24 2 63q4 19 10.5 35t11.5 22l4 7h481l-159 -750q-19 -8 -53.5 -19t-143 -29.5t-219.5 -18.5q-292 0 -405.5 190.5t-34.5 566.5z" />
    <glyph glyph-name="H" unicode="H" horiz-adv-x="1396" 
d="M1085 823l138 639q28 13 77 13q22 0 40.5 -3.5t25.5 -6.5l8 -3l-309 -1450q-27 -12 -78 -12q-24 0 -42.5 3t-24.5 6l-7 3l144 676h-692l-144 -676q-29 -12 -78 -12q-24 0 -42.5 3t-24.5 6l-6 3l309 1450q29 13 78 13q22 0 40 -3.5t25 -6.5l8 -3l-137 -639h692z" />
    <glyph glyph-name="I" unicode="I" horiz-adv-x="552" 
d="M70 12l309 1450q27 13 78 13q23 0 41 -3.5t25 -6.5l7 -3l-309 -1450q-29 -12 -78 -12q-24 0 -42 3t-25 6z" />
    <glyph glyph-name="J" unicode="J" horiz-adv-x="890" 
d="M492 356l235 1106q23 13 78 13q23 0 41.5 -3.5t25.5 -6.5l7 -3l-236 -1102q-41 -192 -153 -286t-287 -94q-71 0 -140.5 15t-102.5 31l-34 15q12 73 66 117q96 -43 213 -43q235 0 287 241z" />
    <glyph glyph-name="K" unicode="K" horiz-adv-x="1251" 
d="M604 829l563 633q35 13 95 13q44 0 79 -13l-624 -700l375 -750q-32 -12 -91 -12q-16 0 -32.5 3t-25.5 6l-9 3l-342 690h-223l-148 -690q-25 -12 -78 -12q-22 0 -40 3t-25 6l-8 3l309 1450q29 13 80 13q22 0 39.5 -3.5t24.5 -6.5l7 -3l-135 -633h209z" />
    <glyph glyph-name="L" unicode="L" horiz-adv-x="1044" 
d="M68 0l311 1462q29 13 78 13q23 0 41 -3.5t25 -6.5l7 -3l-282 -1329h641q0 -47 -4 -65q-6 -31 -25 -68h-792z" />
    <glyph glyph-name="M" unicode="M" horiz-adv-x="1726" 
d="M1505 1462q50 13 101 13q27 0 51.5 -3.5t35.5 -6.5l11 -3l-309 -1450q-29 -12 -78 -12q-22 0 -40.5 3t-26.5 6l-7 3l184 869q76 342 99 409h-6q-54 -98 -203 -301l-471 -606q-22 -8 -53 -8q-13 0 -24 2t-16 4l-5 2l-201 602q-73 227 -76 305h-6q0 -76 -70 -399l-186 -879
q-25 -12 -72 -12q-20 0 -36.5 3t-23.5 6l-7 3l309 1450q31 13 88 13q22 0 42 -3.5t29 -6.5l9 -3l278 -893h6z" />
    <glyph glyph-name="N" unicode="N" horiz-adv-x="1433" 
d="M924 12l-375 1043q-20 55 -38 113.5t-26 89.5l-8 32h-6q-14 -120 -57 -321l-203 -957q-25 -12 -74 -12q-21 0 -37.5 3t-23.5 6l-6 3l309 1450q35 13 92 13q27 0 49 -3.5t30 -6.5l9 -3l371 -1030q19 -53 38 -114.5t28 -96.5l10 -35h6q16 140 53 314l205 962q25 13 76 13
q22 0 38 -3.5t22 -6.5l5 -3l-309 -1450q-29 -12 -88 -12q-27 0 -49.5 3t-31.5 6z" />
    <glyph glyph-name="O" unicode="O" horiz-adv-x="1386" 
d="M162 764q79 383 257.5 557t450.5 174q267 0 375 -199.5t27 -588.5q-40 -196 -107 -337t-158.5 -226t-201 -124.5t-244.5 -39.5q-268 0 -373.5 197t-25.5 587zM1118 737q30 140 34.5 247t-13.5 179.5t-59 118.5t-97.5 66t-132.5 20q-96 0 -174.5 -32.5t-148.5 -105
t-124.5 -196t-91.5 -297.5q-30 -140 -34 -247t15 -179.5t60 -118.5t97.5 -66t132.5 -20q95 0 174 32.5t148 105t123 196t91 297.5z" />
    <glyph glyph-name="P" unicode="P" horiz-adv-x="1232" 
d="M346 598l-125 -586q-27 -12 -76 -12q-24 0 -43 3t-26 6l-6 3l311 1463h518q127 0 210.5 -64t110.5 -171t-1 -239q-41 -193 -174.5 -298t-331.5 -105h-367zM375 729h352q132 0 222 81.5t120 223.5q31 147 -23.5 229.5t-187.5 82.5h-352z" />
    <glyph glyph-name="Q" unicode="Q" horiz-adv-x="1386" 
d="M870 1495q267 0 375 -199.5t27 -588.5q-91 -445 -328 -615q91 -98 232 -129q-14 -41 -44.5 -76.5t-68.5 -52.5q-74 25 -137.5 77t-98.5 116q-117 -47 -266 -47q-268 0 -373.5 197t-25.5 587q79 383 257.5 557t450.5 174zM850 1368q-96 0 -174.5 -32.5t-148.5 -105
t-124.5 -196t-91.5 -297.5q-30 -140 -34 -247t15 -179.5t60 -118.5t97.5 -66t132.5 -20q95 0 174 32.5t148 105t123 196t91 297.5q30 140 34.5 247t-13.5 179.5t-59 118.5t-97.5 66t-132.5 20z" />
    <glyph glyph-name="R" unicode="R" horiz-adv-x="1282" 
d="M381 1475h508q128 0 213.5 -59.5t115 -160.5t1.5 -227q-32 -152 -129 -247.5t-246 -129.5l217 -639q-33 -12 -90 -12q-25 0 -43.5 3t-24.5 6l-6 3l-203 623h-340l-133 -623q-27 -12 -76 -12q-24 0 -43 3t-26 6l-6 3zM723 764q131 0 221 76.5t119 214.5q29 137 -28 214
t-187 77h-342l-125 -582h342z" />
    <glyph glyph-name="S" unicode="S" horiz-adv-x="1161" 
d="M231 1120q38 185 181.5 280t382.5 95q105 0 198.5 -13.5t134.5 -27.5l41 -14q-13 -70 -65 -119q-138 43 -316 43q-177 0 -280.5 -70t-130.5 -198q-6 -27 -7.5 -51t6 -45t12.5 -37.5t24.5 -33t29.5 -27t39.5 -24t42 -20t50.5 -19.5t50.5 -17t56.5 -18q1 0 1.5 -0.5
t1.5 -0.5q38 -12 69.5 -25t66 -30.5t61 -38t51.5 -46t41.5 -57t26.5 -68t9.5 -81t-10.5 -95.5q-80 -382 -583 -382q-73 0 -142 8.5t-116 20t-83.5 23.5t-53.5 20l-17 9q18 73 66 121q19 -7 53 -17.5t129.5 -28t181.5 -17.5q173 0 279 69.5t135 202.5q13 64 0.5 112.5t-51 81
t-82 53t-109.5 40.5q-163 55 -231 95q-161 97 -154 271q1 36 10 76z" />
    <glyph glyph-name="T" unicode="T" horiz-adv-x="1089" 
d="M244 1475h960q6 -25 -2 -66q-4 -17 -10.5 -34t-11.5 -25l-4 -9h-400l-282 -1329q-29 -12 -78 -12q-24 0 -42.5 3t-25.5 6l-6 3l283 1329h-410q-6 27 2 68q4 17 10.5 33.5t11.5 24.5z" />
    <glyph glyph-name="U" unicode="U" horiz-adv-x="1376" 
d="M1366 1462l-209 -981q-51 -240 -205.5 -370.5t-380.5 -130.5q-231 0 -346 134t-65 367l209 981q28 13 77 13q23 0 41.5 -3.5t25.5 -6.5l7 -3l-213 -1003q-35 -166 37 -258t238 -92q164 0 275.5 92t146.5 258l213 1003q26 13 75 13q22 0 40.5 -3.5t25.5 -6.5z" />
    <glyph glyph-name="V" unicode="V" horiz-adv-x="1275" 
d="M369 1462l153 -1091q6 -48 9.5 -96t3.5 -71v-24h6q31 82 92 191l620 1091q23 13 82 13q23 0 42 -3.5t27 -6.5l7 -3l-821 -1452q-35 -10 -84 -10q-23 0 -43.5 2.5t-29.5 5.5l-9 2l-201 1450q27 15 84 15q18 0 33.5 -3.5t21.5 -6.5z" />
    <glyph glyph-name="W" unicode="W" horiz-adv-x="1955" 
d="M1186 12l-56 1037q-3 81 -1 136t6 83l4 28h-6q-19 -87 -99 -247l-516 -1037q-36 -12 -92 -12q-50 0 -82 12l-111 1450q27 13 78 13q24 0 41.5 -3.5t23.5 -6.5l5 -3l80 -1046q4 -56 4.5 -115.5t-1.5 -90.5l-1 -32h6q35 111 96 236l525 1048q24 13 77 13q24 0 43 -3.5
t26 -6.5l7 -3l62 -1046q3 -67 1 -120t-6 -86l-4 -32h7q36 103 102 236l518 1048q35 13 80 13q20 0 37.5 -3.5t25.5 -6.5l7 -3l-719 -1450q-33 -12 -84 -12q-22 0 -43 3t-31 6z" />
    <glyph glyph-name="X" unicode="X" horiz-adv-x="1247" 
d="M1171 1462q35 13 99 13q47 0 82 -13l-609 -704l326 -744q-33 -14 -90 -14q-25 0 -43 3t-24 6l-5 3l-278 629l-531 -631q-35 -10 -96 -10q-41 0 -86 10l643 762l-301 690q33 13 92 13q24 0 41.5 -3.5t22.5 -6.5l6 -3l256 -575z" />
    <glyph glyph-name="Y" unicode="Y" horiz-adv-x="1273" 
d="M1233 1462q47 13 102 13q24 0 45 -3.5t30 -6.5l9 -3l-710 -841l-129 -609q-27 -12 -76 -12q-24 0 -43 3t-26 6l-7 3l129 604l-336 846q33 13 94 13q25 0 42 -3.5t21 -6.5l5 -3l276 -686z" />
    <glyph glyph-name="Z" unicode="Z" horiz-adv-x="1196" 
d="M328 1475h923q7 -20 -2 -66q-8 -38 -26 -70l-1067 -1204h837q4 -24 -4 -65q-9 -46 -24 -70h-1008q0 49 4 70q3 13 25 65l1063 1204h-750q0 51 4 72q5 24 25 64z" />
    <glyph glyph-name="bracketleft" unicode="[" horiz-adv-x="659" 
d="M420 1659h379q4 -21 -4 -62q-4 -18 -9 -33t-8 -20l-4 -6h-237l-377 -1765h237q4 -21 -4 -60q-4 -19 -9 -34.5t-8 -20.5l-3 -6h-379z" />
    <glyph glyph-name="backslash" unicode="\" horiz-adv-x="929" 
d="M391 1524l344 -1608q-27 -12 -80 -12q-22 0 -40 3t-25 6l-8 3l-346 1608q28 12 79 12q23 0 42 -3t27 -6z" />
    <glyph glyph-name="bracketright" unicode="]" horiz-adv-x="659" 
d="M254 -348h-377q-6 18 2 61q4 17 9.5 32t9.5 21l4 7h235l377 1765h-235q-6 18 2 59q4 18 9.5 33.5t9.5 21.5l3 7h377z" />
    <glyph glyph-name="asciicircum" unicode="^" horiz-adv-x="1054" 
d="M776 1464l244 -528q-21 -10 -64 -10q-19 0 -36 2.5t-24 5.5l-7 2l-201 434l-383 -434q-26 -10 -69 -10q-19 0 -34 2.5t-20 5.5l-6 2l469 528q23 11 68 11q20 0 36 -2.5t21 -5.5z" />
    <glyph glyph-name="underscore" unicode="_" horiz-adv-x="1114" 
d="M827 -145h-854q-8 14 0 53q4 16 9.5 29t9.5 17l4 5h854q4 -14 -4 -51q-4 -17 -8.5 -30.5t-7.5 -17.5z" />
    <glyph glyph-name="grave" unicode="`" horiz-adv-x="487" 
d="M299 1311l-195 284q22 27 65 45t79 15l149 -295q-37 -43 -98 -49z" />
    <glyph glyph-name="a" unicode="a" horiz-adv-x="1134" 
d="M934 1067q14 10 65 10q23 0 39.5 -2.5t21.5 -4.5l5 -3l-225 -1057q-27 -10 -64 -10q-17 0 -32 2.5t-21 5.5l-6 2l14 131q-126 -161 -346 -161q-403 0 -279 591q26 123 63.5 215t82 151t102 95.5t118.5 51t136 14.5q222 0 287 -166zM834 672q15 77 -2.5 144.5t-72 112
t-136.5 44.5q-152 0 -237.5 -97t-135.5 -337q-51 -243 -8 -339t194 -96q124 0 219.5 92.5t120.5 213.5z" />
    <glyph glyph-name="b" unicode="b" horiz-adv-x="1136" 
d="M504 1526l-123 -578q71 78 152 114t196 36q88 0 151 -32t102 -101.5t42.5 -179.5t-27.5 -267q-32 -153 -81.5 -259.5t-115 -166.5t-140 -86t-168.5 -26q-109 0 -181 41.5t-102 117.5l-35 -129q-30 -10 -70 -10q-23 0 -40 2.5t-23 5.5l-6 2l321 1516q25 10 76 10
q23 0 41 -2.5t25 -5.5zM850 539q24 121 25 204t-26.5 134t-75 73.5t-120.5 22.5q-122 0 -211.5 -88t-117.5 -211l-58 -264q-16 -77 1.5 -146.5t70 -114.5t131.5 -45q153 0 241 98t140 337z" />
    <glyph glyph-name="c" unicode="c" horiz-adv-x="907" 
d="M651 973q-163 0 -261 -107t-144 -327q-47 -220 8 -324t221 -104q123 0 207 39q20 -18 30.5 -48t4.5 -61q-53 -28 -118 -44.5t-175 -16.5q-217 0 -300 156t-24 433q58 270 195.5 399.5t355.5 129.5q79 0 141 -12t84 -24l23 -13q-12 -67 -63 -111q-70 35 -185 35z" />
    <glyph glyph-name="d" unicode="d" horiz-adv-x="1134" 
d="M1016 1526q25 10 76 10q23 0 40.5 -2.5t23.5 -5.5l7 -2l-321 -1516q-27 -10 -64 -10q-17 0 -33 2.5t-23 5.5l-7 2l14 125q-122 -155 -356 -155q-84 0 -146 33t-102 104.5t-45 183t26 268.5q32 153 82 258.5t116.5 163.5t140 82.5t165.5 24.5q103 0 177.5 -42.5
t103.5 -117.5zM836 672q15 76 -4.5 144.5t-72 112.5t-126.5 44q-149 0 -240 -99t-141 -335q-37 -160 -24 -256.5t66 -137.5t155 -41q83 0 154.5 45.5t115 114t59.5 146.5z" />
    <glyph glyph-name="e" unicode="e" horiz-adv-x="1034" 
d="M883 492h-650q-33 -206 25 -293.5t211 -87.5q69 0 135 16.5t98 33.5l31 17q20 -18 30.5 -48.5t4.5 -61.5q-6 -4 -16 -9.5t-45.5 -21t-73.5 -27t-98 -21t-121 -9.5q-217 0 -295.5 155.5t-18.5 439.5q31 141 85.5 244t127.5 163t156 88t180 28q170 0 254.5 -107.5
t46.5 -290.5q-13 -56 -29.5 -108t-26.5 -76zM813 719q24 113 -21 185.5t-169 72.5q-268 0 -367 -375h522q14 24 35 117z" />
    <glyph glyph-name="f" unicode="f" horiz-adv-x="708" 
d="M340 1200q33 162 124.5 249t268.5 87q55 0 105.5 -9t73.5 -17l24 -9q-15 -65 -64 -108q-57 22 -151 22q-109 0 -159.5 -49.5t-72.5 -155.5l-28 -133h289q0 -45 -2 -59q-2 -8 -23 -57h-289l-203 -951q-24 -10 -75 -10q-23 0 -41 2.5t-25 5.5l-6 2l203 951h-139q-4 25 4 59
q9 41 20 57h139z" />
    <glyph glyph-name="g" unicode="g" horiz-adv-x="1136" 
d="M707 53l18 74q-122 -147 -354 -147q-84 0 -146.5 33t-102.5 104.5t-44.5 183t26.5 268.5q32 153 81 258.5t115 163.5t139.5 82.5t168.5 24.5q215 0 281 -162l35 131q18 10 69 10q23 0 41 -2.5t24 -4.5l7 -3l-217 -1014q-31 -148 -75 -250.5t-113 -175t-165.5 -106
t-228.5 -33.5q-84 0 -156.5 16t-102.5 32l-30 15q16 67 66 105q105 -43 236 -43q72 0 124.5 10.5t100.5 38.5t83 77.5t65 126.5t55 187zM250 539q-24 -121 -24 -204.5t29 -134.5t75.5 -73.5t115.5 -22.5q66 0 124 28t98 72.5t67 94.5t39 100l60 275q6 40 6.5 81t-13 80
t-36.5 70t-64.5 49.5t-95.5 18.5q-153 0 -242 -98t-139 -336z" />
    <glyph glyph-name="h" unicode="h" horiz-adv-x="1126" 
d="M997 762l-159 -752q-29 -10 -76 -10q-23 0 -41 2.5t-25 5.5l-6 2l160 752q47 213 -176 213q-86 0 -174 -50t-152 -137l-166 -778q-27 -10 -76 -10q-23 0 -40.5 2.5t-23.5 5.5l-7 2l321 1516q25 10 76 10q22 0 40 -2.5t25 -5.5l7 -2l-125 -578q153 150 354 150
q150 0 223 -93t41 -243z" />
    <glyph glyph-name="i" unicode="i" horiz-adv-x="489" 
d="M508 1460l-33 -149q-31 -11 -86 -11q-25 0 -45.5 3t-28.5 5l-8 3l33 149q29 10 86 10q24 0 44.5 -2.5t29.5 -5.5zM414 1067l-226 -1057q-26 -10 -75 -10q-24 0 -42 2.5t-24 5.5l-6 2l225 1057q23 10 76 10q22 0 40 -2.5t25 -4.5z" />
    <glyph glyph-name="j" unicode="j" horiz-adv-x="489" 
d="M506 1464l-33 -149q-31 -12 -84 -12q-25 0 -45.5 3t-28.5 6l-8 3l33 149q29 11 86 11q24 0 44 -2.5t28 -5.5zM-2 -188l268 1255q23 10 76 10q22 0 40 -2.5t25 -4.5l7 -3l-267 -1247q-35 -165 -126.5 -248.5t-229.5 -83.5q-38 0 -69 4.5t-42 9.5l-12 4q-4 15 0 35
q5 23 13.5 42t14.5 27l5 7q31 -8 80 -8q88 0 142 49t75 154z" />
    <glyph glyph-name="k" unicode="k" horiz-adv-x="1019" 
d="M485 621l385 446q44 10 95 10q20 0 37.5 -2.5t24.5 -4.5l7 -3l-438 -510l262 -545q-35 -12 -86 -12q-19 0 -37 3t-27 6l-8 3l-229 492h-184l-105 -494q-28 -10 -73 -10q-22 0 -40.5 2.5t-26.5 5.5l-7 2l323 1518q29 8 76 8q19 0 37 -2t27 -4l8 -2l-195 -907h174z" />
    <glyph glyph-name="l" unicode="l" horiz-adv-x="497" 
d="M514 1526l-321 -1516q-27 -10 -76 -10q-24 0 -42 2.5t-24 5.5l-6 2l322 1516q22 10 75 10q22 0 40 -2.5t25 -5.5z" />
    <glyph glyph-name="m" unicode="m" horiz-adv-x="1710" 
d="M967 920q83 90 170.5 134t197.5 44q140 0 209 -95t39 -235l-162 -758q-26 -10 -75 -10q-23 0 -41 2.5t-25 5.5l-6 2l160 752q46 213 -158 213q-82 0 -164 -49t-145 -140l-166 -776q-27 -10 -76 -10q-23 0 -41 2.5t-24 5.5l-7 2l160 752q46 213 -158 213q-79 0 -162.5 -50
t-144.5 -137l-166 -778q-27 -10 -76 -10q-23 0 -40.5 2.5t-23.5 5.5l-7 2l225 1057q25 10 76 10q22 0 40 -2.5t25 -4.5l7 -3l-27 -127q152 158 334 158q100 0 169.5 -44.5t82.5 -133.5z" />
    <glyph glyph-name="n" unicode="n" horiz-adv-x="1126" 
d="M997 762l-159 -752q-29 -10 -76 -10q-23 0 -41 2.5t-25 5.5l-6 2l160 752q47 213 -176 213q-86 0 -174 -50t-152 -137l-166 -778q-27 -10 -76 -10q-23 0 -40.5 2.5t-23.5 5.5l-7 2l225 1057q25 10 76 10q22 0 40 -2.5t25 -4.5l7 -3l-29 -129q163 160 354 160
q152 0 224.5 -90.5t39.5 -245.5z" />
    <glyph glyph-name="o" unicode="o" horiz-adv-x="1103" 
d="M104 573q32 150 82.5 253t121.5 162t153.5 84.5t189.5 25.5q211 0 294 -145.5t20 -442.5q-32 -150 -83 -254t-122.5 -164t-155 -86t-190.5 -26q-210 0 -291.5 147.5t-18.5 445.5zM819 539q21 101 23.5 177t-11 126.5t-43.5 81.5t-70 44t-95 13q-69 0 -124 -21.5t-104 -71
t-86 -136.5t-63 -213q-24 -128 -24.5 -213.5t29.5 -136.5t76 -72t115 -21t123.5 21.5t103.5 71.5t86.5 137t63.5 213z" />
    <glyph glyph-name="p" unicode="p" horiz-adv-x="1138" 
d="M379 938q131 160 342 160q92 0 157 -33t105 -103.5t43.5 -181.5t-27.5 -268q-32 -153 -83 -259t-119 -164.5t-143.5 -83.5t-170.5 -25q-100 0 -172 43.5t-102 115.5l-131 -618q-25 -10 -76 -10q-23 0 -41 2.5t-25 4.5l-6 3l330 1546q25 10 76 10q23 0 38.5 -2.5
t19.5 -4.5l5 -3zM850 539q26 122 26.5 204.5t-24.5 134t-73.5 73.5t-125.5 22q-122 0 -211.5 -88t-117.5 -211l-58 -264q-15 -67 3.5 -137t71.5 -119.5t128 -49.5q153 0 241 98t140 337z" />
    <glyph glyph-name="q" unicode="q" horiz-adv-x="1134" 
d="M586 -479l129 604q-66 -77 -142.5 -111t-191.5 -34q-86 0 -149.5 32t-106 102t-48 180t24.5 267q32 153 81 259.5t114.5 166.5t140 85.5t168.5 25.5q219 0 281 -160l41 129q22 10 61 10q23 0 41.5 -2.5t25.5 -4.5l7 -3l-330 -1546q-25 -10 -76 -10q-23 0 -40.5 2.5
t-24.5 4.5zM248 539q-24 -121 -24 -204.5t28.5 -134.5t75 -73.5t116.5 -22.5q119 0 208.5 87t119.5 206l59 277q23 119 -35.5 209t-174.5 90q-152 0 -237.5 -97t-135.5 -337z" />
    <glyph glyph-name="r" unicode="r" horiz-adv-x="798" 
d="M375 918q43 56 87 94t85.5 55t73.5 23t69 6q92 0 166 -49q-26 -72 -88 -119q-47 35 -137 35q-69 0 -146 -55.5t-143 -149.5l-160 -748q-25 -10 -76 -10q-23 0 -40.5 2.5t-23.5 5.5l-7 2l225 1057q25 10 76 10q23 0 41 -2.5t25 -4.5l6 -3z" />
    <glyph glyph-name="s" unicode="s" horiz-adv-x="907" 
d="M154 813q30 138 138 211.5t292 73.5q81 0 147.5 -13t92.5 -25l26 -13q-11 -69 -66 -109q-90 35 -211 35q-120 0 -191.5 -46t-90.5 -134q-9 -42 3 -73.5t50 -55t68 -36t90 -32.5q32 -10 56.5 -20t51 -23t45.5 -28t37 -34t29 -41.5t17.5 -50t5.5 -61t-9 -72.5
q-32 -147 -138.5 -216.5t-295.5 -69.5q-57 0 -110.5 7t-88.5 17t-62 20.5t-40 17.5l-12 7q15 79 65 115q14 -6 38 -15t94 -24.5t134 -15.5q109 0 182.5 45t92.5 137q4 20 4.5 37.5t-4 32.5t-9.5 27t-17 23.5t-21 19.5t-27 17l-29 14.5t-33.5 13l-34.5 11.5t-36 11
q-31 9 -57.5 20t-55 26.5t-49 33.5t-39.5 42t-27 52.5t-12 64t7 76.5z" />
    <glyph glyph-name="t" unicode="t" horiz-adv-x="735" 
d="M436 961l-125 -588q-36 -148 -7 -209.5t147 -61.5q23 0 53.5 3t49.5 5l19 3q6 -25 -2 -62q-3 -16 -7.5 -29.5t-7.5 -19.5l-3 -6q-61 -16 -147 -16q-176 0 -230.5 96t-13.5 291l127 594h-160q-6 20 2 57q4 18 9.5 33t9.5 21l4 5h159l41 195q66 40 154 33l-47 -228h293
q6 -20 -2 -57q-4 -16 -9.5 -31t-9.5 -21l-4 -7h-293z" />
    <glyph glyph-name="u" unicode="u" 
d="M92 322l158 745q29 10 76 10q23 0 40.5 -2.5t23.5 -4.5l7 -3l-159 -752q-47 -213 178 -213q83 0 170.5 49.5t152.5 137.5l166 778q27 10 76 10q23 0 41 -2.5t24 -4.5l7 -3l-226 -1057q-14 -10 -65 -10q-22 0 -39.5 2.5t-24.5 5.5l-6 2l13 119q-149 -149 -351 -149
q-150 0 -222.5 96.5t-39.5 245.5z" />
    <glyph glyph-name="v" unicode="v" horiz-adv-x="1036" 
d="M287 1067l106 -700q7 -50 11.5 -103t5.5 -80v-28h6q42 94 108 209l402 702q33 10 78 10q21 0 39.5 -2.5t26.5 -4.5l9 -3l-606 -1057q-37 -10 -86 -10q-24 0 -44.5 2.5t-28.5 5.5l-9 2l-164 1057q29 10 80 10q24 0 40.5 -2.5t20.5 -4.5z" />
    <glyph glyph-name="w" unicode="w" horiz-adv-x="1619" 
d="M946 10l-59 629q-16 184 -2 272h-6q-29 -91 -127 -272l-338 -629q-45 -10 -80 -10q-30 0 -80 10l-102 1057q22 10 71 10q23 0 39.5 -2.5t21.5 -4.5l5 -3l73 -717q10 -94 3 -186h6q32 86 84 186l381 717q34 10 79 10q22 0 40 -2.5t25 -4.5l7 -3l64 -713q7 -90 0 -190h6
q27 73 88 188l375 715q26 10 69 10q21 0 38.5 -2.5t24.5 -4.5l7 -3l-553 -1057q-58 -10 -82 -10q-20 0 -78 10z" />
    <glyph glyph-name="x" unicode="x" horiz-adv-x="1009" 
d="M1042 1067l-473 -524l265 -533q-21 -10 -76 -10q-24 0 -42 2.5t-24 5.5l-6 2l-211 432l-389 -432q-43 -10 -96 -10q-22 0 -40.5 2.5t-25.5 5.5l-8 2l496 549l-254 508q29 10 82 10q24 0 41.5 -2.5t22.5 -4.5l5 -3l199 -408l364 408q42 10 93 10q23 0 42 -2.5t27 -4.5z
" />
    <glyph glyph-name="y" unicode="y" horiz-adv-x="1126" 
d="M907 1067q27 10 76 10q23 0 41 -2.5t24 -4.5l7 -3l-217 -1014q-46 -214 -113.5 -334t-178.5 -175.5t-290 -55.5q-84 0 -156.5 16t-102.5 32l-30 15q16 67 66 105q104 -43 235 -43q90 0 151 18t113.5 67t89.5 134.5t68 220.5l15 64q-75 -74 -158 -105.5t-191 -31.5
q-109 0 -177 47t-87.5 122t0.5 170l160 748q29 10 76 10q23 0 40.5 -2.5t23.5 -4.5l7 -3l-159 -752q-47 -213 178 -213q83 0 170.5 49.5t152.5 137.5z" />
    <glyph glyph-name="z" unicode="z" horiz-adv-x="933" 
d="M141 125h582q8 -21 -2 -64q-4 -17 -10 -32.5t-11 -22.5l-4 -6h-739q-5 18 4 66q7 36 23 59l755 827h-538q-6 23 2 64q4 18 10 33.5t10 21.5l4 6h697q0 -2 1 -13t0.5 -22t-3.5 -24q-3 -15 -25 -66z" />
    <glyph glyph-name="braceleft" unicode="{" horiz-adv-x="704" 
d="M725 1659h119q4 -24 -4 -60q-3 -11 -7 -23t-8.5 -22t-5.5 -14h-90q-158 0 -194 -158l-107 -501q-14 -72 -40.5 -118.5t-74.5 -76.5q35 -29 41.5 -78.5t-8.5 -115.5l-106 -504q-36 -158 125 -158h90q4 -23 -4 -59q-6 -31 -21 -60h-119q-132 0 -186 73.5t-27 199.5l117 544
q10 44 -5.5 70.5t-59.5 26.5h-64q-5 29 2 59q5 26 23 61h63q44 0 71.5 27.5t37.5 71.5l114 542q27 126 111.5 199.5t216.5 73.5z" />
    <glyph glyph-name="bar" unicode="|" horiz-adv-x="544" 
d="M408 1608q22 10 75 10q22 0 40 -2.5t25 -5.5l7 -2l-426 -2001q-27 -10 -76 -10q-24 0 -41.5 2.5t-23.5 4.5l-6 3z" />
    <glyph glyph-name="braceright" unicode="}" horiz-adv-x="704" 
d="M301 1659h117q133 0 187.5 -73.5t27.5 -199.5l-115 -542q-10 -44 5.5 -71.5t58.5 -27.5h61q5 -29 -2 -59q-8 -38 -23 -61h-61q-85 0 -106 -97l-117 -544q-27 -127 -112 -200t-218 -73h-117q-5 29 2 58q6 27 23 61h88q159 0 195 158l106 504q27 137 113 192
q-59 54 -31 197l106 501q36 158 -124 158h-89q-4 26 3 59q6 27 22 60z" />
    <glyph glyph-name="asciitilde" unicode="~" horiz-adv-x="1089" 
d="M371 592q-44 0 -85.5 -18.5t-61.5 -37.5l-19 -18q-58 15 -55 78q4 5 11 13t31 28t51 35.5t70.5 28t89.5 12.5q45 0 85.5 -16.5t66.5 -36t65 -36t82 -16.5q44 0 86 18.5t62 37.5l20 18q58 -16 58 -76q-4 -5 -10.5 -13t-31 -28.5t-52 -36t-71.5 -28.5t-91 -13
q-45 0 -86 16.5t-67 36t-65.5 36t-82.5 16.5z" />
    <glyph glyph-name="exclamdown" unicode="&#xa1;" horiz-adv-x="509" 
d="M262 1051q31 10 86 10q25 0 45.5 -2.5t28.5 -4.5l8 -3l-33 -150q-29 -10 -86 -10q-24 0 -44.5 2.5t-28.5 4.5l-9 3zM217 700q20 11 57 11q16 0 29.5 -2.5t18.5 -5.5l6 -3l-211 -1103q-19 -11 -82 -11q-27 0 -46.5 3t-25.5 5l-6 3z" />
    <glyph glyph-name="cent" unicode="&#xa2;" horiz-adv-x="944" 
d="M635 1284q36 12 70 12q35 0 59 -12l-51 -188q63 -3 113 -14.5t68 -21.5l19 -11q-12 -62 -67 -107q-65 35 -180 35q-162 0 -261 -108.5t-145 -329.5q-47 -221 8.5 -328t220.5 -107q53 0 104.5 10.5t76.5 20.5l26 10q37 -37 25 -104q-10 -6 -29.5 -14.5t-83.5 -24.5
t-133 -20l-29 -189q-21 -14 -67 -14q-48 0 -62 14l52 191q-182 17 -249.5 159t-13.5 396t181 395t317 160z" />
    <glyph glyph-name="sterling" unicode="&#xa3;" horiz-adv-x="1071" 
d="M813 633h-358q3 -66 -5 -122t-31.5 -120.5t-75 -129t-128.5 -126.5h627q10 -10 -2 -67q-11 -52 -27 -68h-797l29 135q87 66 142 131.5t79 129t30.5 117t2.5 120.5h-168q-8 17 2 57q9 49 23 58h135q-27 177 -2 296q41 189 174 280t330 91q181 0 313 -61q-6 -72 -70 -111
q-122 45 -250 45q-138 0 -226.5 -61.5t-115.5 -188.5q-5 -23 -7 -49.5t-3 -45.5t1 -51t3.5 -45.5t5.5 -51t5 -47.5h389q0 -46 -2 -56q-7 -36 -23 -59z" />
    <glyph glyph-name="currency" unicode="&#xa4;" horiz-adv-x="1208" 
d="M883 80l-119 151q-124 -81 -262 -81q-137 0 -228 81l-182 -151q-25 2 -45 31q-9 12 -13 24.5t-4 18.5l1 6l184 151q-61 108 -31 244q26 132 135 244l-120 151q8 24 39 51q16 12 30 18.5t20 7.5l7 1l119 -149q125 82 262 82q132 0 223 -84l184 151q20 0 43 -27
q9 -12 13.5 -24.5t4.5 -19.5l1 -7l-182 -151q59 -108 32 -244q-29 -135 -137 -246l121 -149q-6 -24 -39 -51q-15 -13 -29 -20t-21 -8zM651 850q-123 0 -226.5 -85.5t-129.5 -209.5q-28 -124 39.5 -209.5t191.5 -85.5t227.5 85t131.5 210q26 124 -41.5 209.5t-192.5 85.5z
" />
    <glyph glyph-name="yen" unicode="&#xa5;" horiz-adv-x="1249" 
d="M1190 1391q29 10 80 10q21 0 39 -2.5t26 -4.5l8 -3l-606 -727h293q4 -18 -2 -50q-9 -34 -20 -51h-342l-33 -155h342q4 -16 -2 -50q-3 -20 -19 -51h-342l-63 -295q-23 -12 -72 -12q-21 0 -37.5 3t-23.5 6l-6 3l63 295h-344q-4 21 2 53q5 24 19 48h344l32 155h-344
q0 31 4 51q4 26 19 50h295l-275 725q29 12 84 12q24 0 43.5 -3t27.5 -6l7 -3l250 -668z" />
    <glyph glyph-name="brokenbar" unicode="&#xa6;" horiz-adv-x="524" 
d="M297 1149q25 10 78 10q22 0 40.5 -2.5t26.5 -4.5l7 -3l-226 -1063q-29 -10 -78 -10q-24 0 -42 2.5t-25 5.5l-6 2z" />
    <glyph glyph-name="section" unicode="&#xa7;" horiz-adv-x="995" 
d="M647 258q8 39 -10.5 69t-56 47t-86.5 34t-101 30t-100 35t-83.5 49t-51 72t-2.5 104q30 133 192 238q-106 71 -76 209q27 132 136 200t276 68q151 0 270 -45q0 -26 -14.5 -54.5t-38.5 -45.5q-26 9 -89 20.5t-126 11.5q-247 0 -278 -153q-8 -40 9.5 -70t53 -48t82 -35
t96 -30t95 -35t79 -49t48 -72t1.5 -103q-28 -129 -180 -228q61 -37 88 -89.5t11 -131.5q-16 -75 -58.5 -130t-105 -86t-135 -45.5t-158.5 -14.5q-83 0 -161.5 12.5t-115.5 25.5l-37 13q4 69 56 104q30 -10 107.5 -24.5t152.5 -14.5q137 0 214 38t97 124zM442 885
q-132 -80 -151 -168q-7 -32 3.5 -57.5t29 -41.5t53.5 -31t64.5 -23.5t77 -21.5t75.5 -22q27 19 40 29t38.5 33t41 48.5t21.5 55.5q8 37 -4.5 64.5t-47.5 47t-67 31t-88 28.5t-86 28z" />
    <glyph glyph-name="dieresis" unicode="&#xa8;" horiz-adv-x="931" 
d="M354 1395l-28 -133q-27 -11 -76 -11q-23 0 -41.5 2.5t-25.5 5.5l-7 3l29 133q27 10 78 10q22 0 39.5 -2.5t24.5 -4.5zM678 1395l-29 -133q-27 -11 -76 -11q-23 0 -41 2.5t-25 5.5l-7 3l28 133q27 10 78 10q22 0 40 -2.5t25 -4.5z" />
    <glyph glyph-name="copyright" unicode="&#xa9;" horiz-adv-x="1644" 
d="M690 -2q-114 0 -213.5 35.5t-171 99t-119.5 151t-58.5 191.5t11.5 221q40 190 168 351t309 254.5t371 93.5t331 -93.5t199.5 -254.5t18.5 -351t-167.5 -351t-308 -254t-370.5 -93zM965 1290q-161 0 -315.5 -79.5t-264 -216.5t-143.5 -298t16.5 -298.5t171 -217.5
t281.5 -80q162 0 316 80t262.5 217t142.5 299t-15.5 298.5t-169.5 216t-282 79.5zM758 301q-173 0 -239.5 105.5t-24.5 304.5q87 407 438 407q60 0 110.5 -11t70.5 -23l20 -11q-9 -50 -54 -84q-71 35 -153 35q-127 0 -203.5 -73t-112.5 -240q-67 -310 185 -310
q40 0 83.5 7.5t67.5 14.5l23 7q31 -23 20 -82q-10 -5 -29 -13t-79 -21t-123 -13z" />
    <glyph glyph-name="ordfeminine" unicode="&#xaa;" horiz-adv-x="737" 
d="M293 1245q108 45 225 45q119 0 162.5 -55t19.5 -166l-94 -442q-16 -9 -45 -9q-11 0 -21 2t-14 4l-4 3l4 75q-83 -96 -223 -96q-89 0 -130.5 53t-20.5 150q41 197 278 197q80 0 152 -9l14 66q15 70 -11.5 103.5t-97.5 33.5q-40 0 -85 -8t-70 -16l-25 -7q-24 31 -14 76z
M567 922q-3 0 -53.5 3t-87.5 3q-149 0 -172 -119q-25 -119 96 -119q75 0 130.5 49.5t74.5 130.5zM96 500h477q3 -44 -18 -88h-477q-3 47 18 88z" />
    <glyph glyph-name="guillemotleft" unicode="&#xab;" horiz-adv-x="1034" 
d="M111 614l507 428q33 -26 33 -92l-438 -397l268 -399q-26 -66 -71 -93l-326 426q-8 23 0 62q4 18 10.5 34.5t11.5 23.5zM475 610l471 396q36 -28 29 -88l-397 -365l241 -367q-17 -60 -65 -88l-303 394q-6 20 2 57q4 17 9.5 32.5t9.5 22.5z" />
    <glyph glyph-name="logicalnot" unicode="&#xac;" horiz-adv-x="1228" 
d="M1118 899l-112 -528q-27 -15 -68 -15q-18 0 -33.5 4t-21.5 8l-6 3l86 401h-807q-1 3 -2 8t-2 21.5t2 32.5q4 18 11 34.5t12 23.5l5 7h936z" />
    <glyph glyph-name="uni00AD" unicode="&#xad;" horiz-adv-x="528" 
 />
    <glyph glyph-name="registered" unicode="&#xae;" horiz-adv-x="1093" 
d="M524 532q-178 0 -278 127t-62 306q38 178 192 305t333 127q117 0 204.5 -58t124 -157.5t11.5 -216.5t-104.5 -217t-191.5 -158t-229 -58zM694 1329q-151 0 -280.5 -106t-161.5 -258t52 -258.5t235 -106.5q152 0 281 106.5t161 258.5t-51.5 258t-235.5 106zM700 1206
q73 0 105 -37t18 -102q-23 -100 -116 -127l77 -190q-18 -11 -43 -11q-10 0 -19 1.5t-13 3.5l-4 1l-76 189h-101l-41 -189q-16 -6 -34 -6q-9 0 -17 1.5t-12 3.5l-4 1l98 461h182zM541 991h110q87 0 103 76q8 42 -8.5 62t-61.5 20h-111z" />
    <glyph glyph-name="macron" unicode="&#xaf;" horiz-adv-x="833" 
d="M672 1290h-615q-12 50 21 101h614q9 -44 -20 -101z" />
    <glyph glyph-name="degree" unicode="&#xb0;" horiz-adv-x="724" 
d="M242 1264q22 101 107 177.5t204 76.5q117 0 168 -74t31 -174q-22 -101 -103.5 -174.5t-199.5 -73.5q-123 0 -176 71t-31 171zM664 1268q13 71 -18 119.5t-111 48.5t-135 -50.5t-70 -119.5q-13 -68 19 -116t114 -48q80 0 133 48.5t68 117.5z" />
    <glyph glyph-name="plusminus" unicode="&#xb1;" horiz-adv-x="1044" 
d="M494 766h-297q-4 20 2 57q4 16 9.5 30.5t9.5 20.5l3 7h297l51 237q23 8 60 8q16 0 30 -2t19 -4l6 -2l-51 -237h299q4 -21 -4 -58q-3 -16 -8 -30.5t-9 -20.5l-4 -6h-299l-49 -236q-22 -10 -59 -10q-16 0 -30 2.5t-20 5.5l-6 2zM805 279h-711q-6 20 2 57q4 16 9.5 30.5
t9.5 20.5l4 6h710q4 -20 -4 -57q-4 -16 -9 -30.5t-8 -20.5z" />
    <glyph glyph-name="twosuperior" unicode="&#xb2;" horiz-adv-x="616" 
d="M106 793q16 77 66 132.5t110.5 86.5t120.5 58t105.5 64t56.5 87q10 53 -22 83.5t-111 30.5q-41 0 -85.5 -7.5t-59.5 -12.5q-19 37 -8 78q81 28 190 28q117 0 168.5 -51.5t30.5 -142.5q-12 -58 -47 -102.5t-79 -69.5t-95.5 -51.5t-97 -49.5t-84 -63t-54.5 -92h350
q4 -30 0 -45q-6 -24 -18 -45h-445q-2 37 8 84z" />
    <glyph glyph-name="threesuperior" unicode="&#xb3;" horiz-adv-x="614" 
d="M592 901q-43 -203 -322 -203q-50 0 -94.5 8.5t-63.5 17.5l-20 9q12 51 43 72q64 -21 150 -21q100 0 146 33t58 92q26 125 -120 125h-93q-6 42 19 84h92q125 0 148 107q12 56 -17.5 83t-99.5 27q-38 0 -77.5 -4.5t-60.5 -8.5l-20 -5q-23 26 -10 74q79 30 190 30
q115 0 167.5 -48t33.5 -136q-23 -111 -125 -158q106 -49 76 -178z" />
    <glyph glyph-name="acute" unicode="&#xb4;" horiz-adv-x="458" 
d="M424 1595l-318 -284q-62 6 -77 49l276 295q39 3 74 -14t45 -46z" />
    <glyph glyph-name="mu" unicode="&#xb5;" horiz-adv-x="1193" 
d="M942 1067q25 10 76 10q23 0 41 -2.5t25 -4.5l6 -3l-226 -1057q-25 -10 -76 -10q-23 0 -40.5 2.5t-23.5 5.5l-7 2l26 121q-148 -151 -340 -151q-143 0 -202 86q-31 -177 -42.5 -313t-6.5 -183l4 -47q-33 -25 -82 -32.5t-82 5.5q-1 5 -1 16t1.5 52.5t7 91.5t19 134.5
t34.5 180.5l234 1096q26 10 75 10q24 0 42 -2.5t24 -4.5l6 -3l-162 -754q-44 -211 181 -211q90 0 177 54t146 133z" />
    <glyph glyph-name="paragraph" unicode="&#xb6;" horiz-adv-x="1067" 
d="M121 -457l272 1288q-92 2 -150 46.5t-74.5 110.5t-0.5 142q30 124 127.5 213t236.5 89h111l-401 -1889q-23 -8 -62 -8q-20 0 -35 2t-19 4zM1024 1423l-399 -1880q-23 -8 -64 -8q-18 0 -32.5 2t-19.5 4l-5 2l399 1880q21 9 62 9q18 0 33 -2t20 -4z" />
    <glyph glyph-name="periodcentered" unicode="&#xb7;" horiz-adv-x="460" 
d="M309 649l-26 -133q-31 -12 -80 -12q-23 0 -41 3t-24 6l-7 3l27 133q27 10 78 10q22 0 40 -2.5t26 -4.5z" />
    <glyph glyph-name="cedilla" unicode="&#xb8;" horiz-adv-x="606" 
d="M-59 92l84 -18l-52 -127q114 0 158.5 -50t24.5 -139q-22 -100 -94 -151t-189 -51q-50 0 -93.5 12t-61.5 24l-19 11q9 47 49 71q64 -32 137 -32q141 0 166 118q22 107 -104 107h-72l-14 24z" />
    <glyph glyph-name="onesuperior" unicode="&#xb9;" horiz-adv-x="495" 
d="M186 1270q146 37 252 133q19 8 51 8q24 0 48 -8l-148 -688q-18 -6 -47 -6q-35 0 -53 6l102 483q16 68 21 82q-105 -72 -219 -94q-24 31 -7 84z" />
    <glyph glyph-name="ordmasculine" unicode="&#xba;" horiz-adv-x="770" 
d="M182 948q38 178 122 260t220 82q137 0 187.5 -81t11.5 -261q-37 -181 -122 -262.5t-222 -81.5q-136 0 -185.5 81.5t-11.5 262.5zM614 948q29 142 3.5 199t-111.5 57q-87 0 -137 -57.5t-80 -198.5q-29 -145 -4.5 -200.5t112.5 -55.5q87 0 137 57t80 199zM115 500h483
q3 -16 -2 -43q-6 -29 -16 -45h-484q-4 19 2 45q5 23 17 43z" />
    <glyph glyph-name="guillemotright" unicode="&#xbb;" horiz-adv-x="1036" 
d="M592 1042l330 -428q4 -24 -4 -65q-4 -17 -9.5 -32.5t-9.5 -22.5l-4 -7l-512 -426q-35 30 -31 93l436 399l-266 397q21 60 70 92zM248 1006l303 -396q6 -22 -2 -61q-4 -16 -9.5 -30.5t-9.5 -20.5l-4 -6l-471 -394q-28 22 -28 88l397 367l-242 365q26 65 66 88z" />
    <glyph glyph-name="onequarter" unicode="&#xbc;" horiz-adv-x="1337" 
d="M80 -12l1100 1439q18 11 57 11q17 0 30.5 -3t18.5 -5l4 -3l-1097 -1439q-23 -8 -60 -8q-15 0 -28 2t-19 4zM205 1270q146 37 252 133q19 8 51 8q19 0 47 -8l-147 -688q-21 -6 -48 -6q-37 0 -55 6l103 483q20 80 20 82q-101 -71 -217 -94q-24 27 -6 84zM1085 262h84
q0 -33 -2 -41q-4 -20 -14 -39h-84l-37 -176q-42 -6 -45 -6q-15 0 -45 6l37 176h-358v31q8 26 14 35l444 446q24 8 51 8q28 0 48 -8zM1061 573l-311 -311h245z" />
    <glyph glyph-name="onehalf" unicode="&#xbd;" horiz-adv-x="1445" 
d="M1180 1427q18 11 57 11q17 0 30.5 -3t18.5 -5l4 -3l-1097 -1439q-23 -8 -60 -8q-15 0 -28 2t-19 4l-6 2zM457 1403q19 8 51 8q19 0 47 -8l-147 -688q-21 -6 -48 -6q-37 0 -55 6l103 483q20 80 20 82q-101 -71 -217 -94q-24 27 -6 84q146 37 252 133zM940 684
q81 29 190 29q117 0 168.5 -52t32.5 -143q-11 -50 -38.5 -89.5t-64 -65t-79 -47.5t-85.5 -42.5t-81 -44t-68.5 -59t-44.5 -80.5h351q6 -15 2 -45q-6 -24 -21 -45h-444q0 37 10 84q16 77 65.5 132.5t110 86.5t120 58t105 64t56.5 87q11 53 -20 84t-109 31q-43 0 -89 -8
t-59 -13q-20 33 -8 78z" />
    <glyph glyph-name="threequarters" unicode="&#xbe;" horiz-adv-x="1439" 
d="M1282 1427q18 11 57 11q17 0 30.5 -3t18.5 -5l5 -3l-1098 -1439q-22 -8 -59 -8q-15 0 -28.5 2t-19.5 4l-6 2zM274 1391q80 30 191 30q114 0 166 -48t33 -136q-12 -58 -41.5 -96t-83.5 -62q52 -23 72 -64.5t3 -113.5q-43 -203 -319 -203q-50 0 -94.5 8.5t-64.5 17.5l-19 9
q7 45 41 72q65 -21 151 -21q100 0 146.5 33t58.5 92q26 125 -121 125h-92q-9 43 18 84h93q124 0 147 107q12 56 -18 83t-99 27q-38 0 -78 -4.5t-60 -8.5l-21 -5q-22 26 -9 74zM1182 694q24 8 51 8t47 -8l-92 -432h84q0 -33 -2 -41q-4 -16 -15 -39h-84l-36 -176
q-42 -6 -45 -6q-16 0 -46 6l37 176h-358q0 2 -0.5 8.5t-0.5 13t1 11.5q7 23 14 33zM852 262h246l65 311z" />
    <glyph glyph-name="questiondown" unicode="&#xbf;" horiz-adv-x="860" 
d="M500 905l30 150q31 10 84 10q25 0 45.5 -2.5t28.5 -4.5l8 -3l-30 -150q-29 -10 -86 -10q-24 0 -44 2.5t-28 4.5zM-47 -8q17 82 51.5 147t77 107t90 78t95.5 70.5t89.5 73.5t75 98t49.5 134q21 13 60 13q17 0 32 -3.5t21 -6.5l6 -3q-19 -92 -53.5 -163.5t-74 -116t-84 -81
t-87.5 -68t-80.5 -66t-67.5 -86.5t-44 -119q-22 -106 30.5 -163.5t182.5 -57.5q71 0 137 12.5t97 24.5l30 12q44 -36 24 -109q-15 -8 -43.5 -19t-116.5 -29.5t-176 -18.5q-185 0 -270 90.5t-51 249.5z" />
    <glyph glyph-name="Agrave" unicode="&#xc0;" horiz-adv-x="1323" 
d="M834 1888l149 -295q-37 -43 -98 -49l-195 285q22 27 65 44.5t79 14.5zM756 1462q35 13 86 13q24 0 44.5 -3.5t29.5 -6.5l8 -3l233 -1450q-29 -12 -86 -12q-17 0 -32.5 3t-22.5 6l-6 3l-64 391h-653l-230 -391q-27 -12 -90 -12q-22 0 -39 3t-24 6l-6 3zM815 1313h-6
q-25 -62 -72 -142l-372 -641h563l-103 641q-5 36 -7.5 71.5t-2.5 53.5v17z" />
    <glyph glyph-name="Aacute" unicode="&#xc1;" horiz-adv-x="1323" 
d="M743 1595l275 295q40 3 74.5 -13.5t44.5 -45.5l-318 -285q-61 7 -76 49zM756 1462q35 13 86 13q24 0 44.5 -3.5t29.5 -6.5l8 -3l233 -1450q-29 -12 -86 -12q-17 0 -32.5 3t-22.5 6l-6 3l-64 391h-653l-230 -391q-27 -12 -90 -12q-22 0 -39 3t-24 6l-6 3zM815 1313h-6
q-25 -62 -72 -142l-372 -641h563l-103 641q-5 36 -7.5 71.5t-2.5 53.5v17z" />
    <glyph glyph-name="Acircumflex" unicode="&#xc2;" horiz-adv-x="1323" 
d="M944 1855l223 -221q-1 -2 -6.5 -9.5t-7 -9.5t-6 -8.5t-6.5 -9t-6.5 -7.5t-7.5 -7.5t-7.5 -6t-8.5 -5.5l-9 -4.5t-10 -3.5l-195 161l-260 -161q-58 23 -64 71l318 221h53zM756 1462q35 13 86 13q24 0 44.5 -3.5t29.5 -6.5l8 -3l233 -1450q-29 -12 -86 -12q-17 0 -32.5 3
t-22.5 6l-6 3l-64 391h-653l-230 -391q-27 -12 -90 -12q-22 0 -39 3t-24 6l-6 3zM815 1313h-6q-25 -62 -72 -142l-372 -641h563l-103 641q-5 36 -7.5 71.5t-2.5 53.5v17z" />
    <glyph glyph-name="Atilde" unicode="&#xc3;" horiz-adv-x="1323" 
d="M592 1649q2 4 6 10.5t18.5 23.5t32 30.5t46.5 25t61 12.5q47 2 88.5 -16.5t78 -37t70.5 -16.5q25 0 48.5 14t34.5 28l11 14q21 -3 41.5 -21.5t28.5 -40.5q-2 -4 -6.5 -10t-20 -22t-33.5 -28.5t-47.5 -22.5t-62.5 -11q-47 -2 -88 16t-76 36.5t-67 17.5q-28 -1 -52 -15.5
t-34 -28.5l-11 -14q-26 3 -45 18.5t-22 37.5zM756 1462q35 13 86 13q24 0 44.5 -3.5t29.5 -6.5l8 -3l233 -1450q-29 -12 -86 -12q-17 0 -32.5 3t-22.5 6l-6 3l-64 391h-653l-230 -391q-27 -12 -90 -12q-22 0 -39 3t-24 6l-6 3zM815 1313h-6q-25 -62 -72 -142l-372 -641h563
l-103 641q-5 36 -7.5 71.5t-2.5 53.5v17z" />
    <glyph glyph-name="Adieresis" unicode="&#xc4;" horiz-adv-x="1323" 
d="M649 1745q27 8 78 8q22 0 40.5 -2t26.5 -4l7 -2l-29 -135q-29 -8 -78 -8q-23 0 -41 2t-25 4l-7 2zM973 1745q27 8 78 8q22 0 40 -2t25 -4l8 -2l-28 -135q-29 -8 -78 -8q-23 0 -41.5 2t-25.5 4l-7 2zM756 1462q35 13 86 13q24 0 44.5 -3.5t29.5 -6.5l8 -3l233 -1450
q-29 -12 -86 -12q-17 0 -32.5 3t-22.5 6l-6 3l-64 391h-653l-230 -391q-27 -12 -90 -12q-22 0 -39 3t-24 6l-6 3zM815 1313h-6q-25 -62 -72 -142l-372 -641h563l-103 641q-5 36 -7.5 71.5t-2.5 53.5v17z" />
    <glyph glyph-name="Aring" unicode="&#xc5;" horiz-adv-x="1320" 
d="M932 1423l223 -1411q-27 -12 -84 -12q-22 0 -37 3t-20 6l-4 3l-64 391h-653l-230 -391q-41 -12 -90 -12q-22 0 -39 3t-24 6l-6 3l825 1407q-53 20 -82.5 77.5t-13.5 131.5q22 101 103.5 156t181.5 55q96 0 154 -61t36 -164q-16 -73 -63.5 -121t-112.5 -70zM1014 1620
q11 56 -18.5 94.5t-98.5 38.5q-68 0 -113.5 -39t-56.5 -94q-11 -57 17 -97t96 -40t115.5 41t58.5 96zM928 530l-101 637q-5 36 -7.5 71.5t-2.5 53.5v17h-6q-25 -62 -72 -142l-374 -637h563z" />
    <glyph glyph-name="AE" unicode="&#xc6;" horiz-adv-x="1751" 
d="M1087 1475h719q14 -56 -26 -127h-570l-114 -539h467q10 -65 -27 -127h-467l-119 -555h590q6 -31 -1 -66t-26 -61h-716l82 389h-512l-306 -377q-38 -12 -94 -12q-54 0 -78 12zM471 516h436l164 758z" />
    <glyph glyph-name="Ccedilla" unicode="&#xc7;" horiz-adv-x="1140" 
d="M950 115q3 -18 2 -32.5t-4 -24.5l-2 -9q-16 -8 -45.5 -19t-127 -30t-202.5 -20l-30 -74q220 0 182 -189q-22 -100 -94 -151t-189 -51q-50 0 -94 11.5t-63 23.5l-19 12q13 50 51 71q8 -5 24 -11.5t48.5 -13.5t65.5 -7q140 0 165 118q22 107 -104 107h-72l-16 24l53 136
q-474 53 -327 751q80 376 264 567t469 191q100 0 183 -17t116 -34l33 -17q-1 -26 -21 -61q-11 -16 -24 -29.5t-20 -18.5l-7 -5q-12 6 -33.5 14.5t-91.5 22.5t-143 14q-80 0 -147.5 -18t-132 -62.5t-116.5 -115.5t-95.5 -180t-74.5 -253t-33 -252.5t19.5 -178t67.5 -113
t105.5 -61t139.5 -17.5t158.5 12.5t117.5 25.5l38 13q16 -14 26 -49z" />
    <glyph glyph-name="Egrave" unicode="&#xc8;" horiz-adv-x="1138" 
d="M819 1544l-194 285q22 27 64.5 44.5t78.5 14.5l150 -295q-37 -43 -99 -49zM381 1475h813q6 -26 0 -62q-9 -38 -27 -65h-661l-115 -539h559q6 -28 0 -59q-9 -38 -26 -66h-559l-119 -557h682q6 -27 0 -61q-10 -37 -27 -66h-833z" />
    <glyph glyph-name="Eacute" unicode="&#xc9;" horiz-adv-x="1138" 
d="M1049 1833l-316 -285q-63 6 -78 49l275 295q40 3 74.5 -13.5t44.5 -45.5zM381 1475h813q6 -26 0 -62q-9 -38 -27 -65h-661l-115 -539h559q6 -28 0 -59q-9 -38 -26 -66h-559l-119 -557h682q6 -27 0 -61q-10 -37 -27 -66h-833z" />
    <glyph glyph-name="Ecircumflex" unicode="&#xca;" horiz-adv-x="1138" 
d="M891 1855l223 -221q-34 -56 -86 -71l-192 161l-261 -161q-46 17 -55 71l318 221h53zM381 1475h813q6 -26 0 -62q-9 -38 -27 -65h-661l-115 -539h559q6 -28 0 -59q-9 -38 -26 -66h-559l-119 -557h682q6 -27 0 -61q-10 -37 -27 -66h-833z" />
    <glyph glyph-name="Edieresis" unicode="&#xcb;" horiz-adv-x="1138" 
d="M756 1724l-29 -135q-27 -8 -76 -8q-23 0 -41 2t-25 4l-7 2l28 135q27 9 78 9q22 0 40 -2.5t25 -4.5zM1079 1724l-28 -135q-27 -8 -76 -8q-23 0 -41.5 2t-25.5 4l-7 2l29 135q27 9 78 9q22 0 39.5 -2.5t24.5 -4.5zM381 1475h813q6 -26 0 -62q-9 -38 -27 -65h-661
l-115 -539h559q6 -28 0 -59q-9 -38 -26 -66h-559l-119 -557h682q6 -27 0 -61q-10 -37 -27 -66h-833z" />
    <glyph glyph-name="Igrave" unicode="&#xcc;" horiz-adv-x="552" 
d="M512 1544l-195 285q22 27 65 44.5t79 14.5l149 -295q-37 -43 -98 -49zM70 12l309 1450q27 13 78 13q23 0 41 -3.5t25 -6.5l7 -3l-309 -1450q-29 -12 -78 -12q-24 0 -42 3t-25 6z" />
    <glyph glyph-name="Iacute" unicode="&#xcd;" horiz-adv-x="552" 
d="M721 1833l-315 -285q-63 6 -78 49l274 295q40 3 74.5 -13.5t44.5 -45.5zM70 12l309 1450q27 13 78 13q23 0 41 -3.5t25 -6.5l7 -3l-309 -1450q-29 -12 -78 -12q-24 0 -42 3t-25 6z" />
    <glyph glyph-name="Icircumflex" unicode="&#xce;" horiz-adv-x="552" 
d="M557 1855l231 -221q-40 -58 -86 -71l-194 161l-260 -161q-44 17 -53 71l309 221h53zM70 12l309 1450q27 13 78 13q23 0 41 -3.5t25 -6.5l7 -3l-309 -1450q-29 -12 -78 -12q-24 0 -42 3t-25 6z" />
    <glyph glyph-name="Idieresis" unicode="&#xcf;" horiz-adv-x="552" 
d="M408 1714l-29 -135q-27 -8 -76 -8q-23 0 -41.5 2t-25.5 4l-7 2l29 135q27 8 78 8q22 0 40 -2t25 -4zM731 1714l-29 -135q-26 -8 -75 -8q-23 0 -41.5 2t-25.5 4l-7 2l29 135q26 8 77 8q22 0 40 -2t25 -4zM70 12l309 1450q27 13 78 13q23 0 41 -3.5t25 -6.5l7 -3
l-309 -1450q-29 -12 -78 -12q-24 0 -42 3t-25 6z" />
    <glyph glyph-name="Eth" unicode="&#xd0;" horiz-adv-x="1372" 
d="M399 1475h428q297 0 405 -183t21 -590q-35 -164 -85.5 -285t-113.5 -201t-147.5 -128t-178.5 -68t-214 -20h-428l143 676h-168q-3 57 23 108h168zM524 1346l-121 -562h320q3 -53 -23 -108h-319l-117 -547h264q89 0 158.5 16t135 56.5t116 108.5t93 175t73.5 252
q31 146 34 253t-18 175t-69.5 108.5t-111 56.5t-151.5 16h-264z" />
    <glyph glyph-name="Ntilde" unicode="&#xd1;" horiz-adv-x="1433" 
d="M1073 1686q27 0 53 13t38 27l12 13q21 -6 34 -26t13 -44q-6 -9 -16 -19.5t-30.5 -28t-51.5 -29t-66 -11.5q-58 0 -125 35t-105 35q-26 0 -52 -14t-39 -28l-13 -14q-48 23 -45 70q2 4 6 10t18 22t31 28t46 22t61 10q37 0 71 -11t55.5 -24.5t49.5 -24.5t55 -11zM924 12
l-375 1043q-20 55 -38 113.5t-26 89.5l-8 32h-6q-14 -120 -57 -321l-203 -957q-25 -12 -74 -12q-21 0 -37.5 3t-23.5 6l-6 3l309 1450q35 13 92 13q27 0 49 -3.5t30 -6.5l9 -3l371 -1030q19 -53 38 -114.5t28 -96.5l10 -35h6q16 140 53 314l205 962q25 13 76 13
q22 0 38 -3.5t22 -6.5l5 -3l-309 -1450q-29 -12 -88 -12q-27 0 -49.5 3t-31.5 6z" />
    <glyph glyph-name="Ograve" unicode="&#xd2;" horiz-adv-x="1386" 
d="M907 1884l140 -278q-32 -40 -97 -47l-184 268q22 26 63 43t78 14zM162 764q79 383 257.5 557t450.5 174q267 0 375 -199.5t27 -588.5q-40 -196 -107 -337t-158.5 -226t-201 -124.5t-244.5 -39.5q-268 0 -373.5 197t-25.5 587zM1118 737q30 140 34.5 247t-13.5 179.5
t-59 118.5t-97.5 66t-132.5 20q-96 0 -174.5 -32.5t-148.5 -105t-124.5 -196t-91.5 -297.5q-30 -140 -34 -247t15 -179.5t60 -118.5t97.5 -66t132.5 -20q95 0 174 32.5t148 105t123 196t91 297.5z" />
    <glyph glyph-name="Oacute" unicode="&#xd3;" horiz-adv-x="1386" 
d="M788 1630l267 285q39 3 74 -14t45 -46l-308 -274q-64 10 -78 49zM162 764q79 383 257.5 557t450.5 174q267 0 375 -199.5t27 -588.5q-40 -196 -107 -337t-158.5 -226t-201 -124.5t-244.5 -39.5q-268 0 -373.5 197t-25.5 587zM1118 737q30 140 34.5 247t-13.5 179.5
t-59 118.5t-97.5 66t-132.5 20q-96 0 -174.5 -32.5t-148.5 -105t-124.5 -196t-91.5 -297.5q-30 -140 -34 -247t15 -179.5t60 -118.5t97.5 -66t132.5 -20q95 0 174 32.5t148 105t123 196t91 297.5z" />
    <glyph glyph-name="Ocircumflex" unicode="&#xd4;" horiz-adv-x="1386" 
d="M973 1855l235 -221q-40 -57 -86 -71l-194 161l-260 -161q-48 19 -54 71l306 221h53zM162 764q79 383 257.5 557t450.5 174q267 0 375 -199.5t27 -588.5q-40 -196 -107 -337t-158.5 -226t-201 -124.5t-244.5 -39.5q-268 0 -373.5 197t-25.5 587zM1118 737q30 140 34.5 247
t-13.5 179.5t-59 118.5t-97.5 66t-132.5 20q-96 0 -174.5 -32.5t-148.5 -105t-124.5 -196t-91.5 -297.5q-30 -140 -34 -247t15 -179.5t60 -118.5t97.5 -66t132.5 -20q95 0 174 32.5t148 105t123 196t91 297.5z" />
    <glyph glyph-name="Otilde" unicode="&#xd5;" horiz-adv-x="1386" 
d="M1026 1720q27 1 52.5 16t37.5 30l12 14q20 -7 33 -26t15 -42q-2 -4 -5.5 -10.5t-17 -22.5t-30.5 -29t-45.5 -24t-61.5 -12q-54 -2 -126 31t-110 32q-27 -1 -53 -15.5t-39 -29.5l-12 -14q-39 22 -45 68q2 4 5.5 10t17 22t30.5 28.5t45.5 23.5t61.5 12q61 2 129.5 -30.5
t105.5 -31.5zM162 764q79 383 257.5 557t450.5 174q267 0 375 -199.5t27 -588.5q-40 -196 -107 -337t-158.5 -226t-201 -124.5t-244.5 -39.5q-268 0 -373.5 197t-25.5 587zM1118 737q30 140 34.5 247t-13.5 179.5t-59 118.5t-97.5 66t-132.5 20q-96 0 -174.5 -32.5
t-148.5 -105t-124.5 -196t-91.5 -297.5q-30 -140 -34 -247t15 -179.5t60 -118.5t97.5 -66t132.5 -20q95 0 174 32.5t148 105t123 196t91 297.5z" />
    <glyph glyph-name="Odieresis" unicode="&#xd6;" horiz-adv-x="1386" 
d="M688 1765q27 9 78 9q22 0 40.5 -2t25.5 -4l8 -3l-29 -135q-29 -8 -78 -8q-23 0 -41.5 2t-25.5 4l-7 2zM1012 1765q27 9 78 9q22 0 40 -2t26 -4l7 -3l-28 -135q-29 -8 -78 -8q-23 0 -41.5 2t-25.5 4l-7 2zM162 764q79 383 257.5 557t450.5 174q267 0 375 -199.5t27 -588.5
q-40 -196 -107 -337t-158.5 -226t-201 -124.5t-244.5 -39.5q-268 0 -373.5 197t-25.5 587zM1118 737q30 140 34.5 247t-13.5 179.5t-59 118.5t-97.5 66t-132.5 20q-96 0 -174.5 -32.5t-148.5 -105t-124.5 -196t-91.5 -297.5q-30 -140 -34 -247t15 -179.5t60 -118.5t97.5 -66
t132.5 -20q95 0 174 32.5t148 105t123 196t91 297.5z" />
    <glyph glyph-name="multiply" unicode="&#xd7;" horiz-adv-x="944" 
d="M444 506l-286 -238q-23 8 -41 37q-11 11 -18 23.5t-8 19.5l-1 6l287 238l-187 237q15 25 48 50q14 13 28 22t22 11l7 3l186 -237l289 237q23 -7 41 -36q11 -11 18 -23.5t8 -19.5l1 -7l-289 -237l188 -238q-14 -24 -47 -49q-14 -13 -28 -22t-22 -12l-7 -3z" />
    <glyph glyph-name="Oslash" unicode="&#xd8;" horiz-adv-x="1384" 
d="M1380 1513l-153 -190q130 -199 43 -616q-40 -196 -107 -337t-158.5 -226t-201 -124.5t-244.5 -39.5q-201 0 -309 108l-141 -182q-64 6 -99 53l174 221q-103 196 -24 584q79 383 257.5 557t450.5 174q181 0 287 -90l127 162q63 -6 98 -54zM848 1368q-96 0 -174.5 -32.5
t-148.5 -105t-124.5 -196t-91.5 -297.5q-60 -276 -18 -430l774 989q-75 72 -217 72zM580 106q95 0 174 32.5t148 105t123 196t91 297.5q66 311 10 461l-784 -997q74 -95 238 -95z" />
    <glyph glyph-name="Ugrave" unicode="&#xd9;" horiz-adv-x="1376" 
d="M870 1556l-186 273q22 27 64.5 44.5t78.5 14.5l142 -282q-34 -40 -99 -50zM1366 1462l-209 -981q-51 -240 -205.5 -370.5t-380.5 -130.5q-231 0 -346 134t-65 367l209 981q28 13 77 13q23 0 41.5 -3.5t25.5 -6.5l7 -3l-213 -1003q-35 -166 37 -258t238 -92
q164 0 275.5 92t146.5 258l213 1003q26 13 75 13q22 0 40.5 -3.5t25.5 -6.5z" />
    <glyph glyph-name="Uacute" unicode="&#xda;" horiz-adv-x="1376" 
d="M1155 1833l-315 -285q-63 6 -78 49l274 295q40 3 74.5 -13.5t44.5 -45.5zM1366 1462l-209 -981q-51 -240 -205.5 -370.5t-380.5 -130.5q-231 0 -346 134t-65 367l209 981q28 13 77 13q23 0 41.5 -3.5t25.5 -6.5l7 -3l-213 -1003q-35 -166 37 -258t238 -92q164 0 275.5 92
t146.5 258l213 1003q26 13 75 13q22 0 40.5 -3.5t25.5 -6.5z" />
    <glyph glyph-name="Ucircumflex" unicode="&#xdb;" horiz-adv-x="1376" 
d="M977 1855l235 -221q-40 -58 -86 -71l-194 161l-260 -161q-48 19 -54 71l306 221h53zM1366 1462l-209 -981q-51 -240 -205.5 -370.5t-380.5 -130.5q-231 0 -346 134t-65 367l209 981q28 13 77 13q23 0 41.5 -3.5t25.5 -6.5l7 -3l-213 -1003q-35 -166 37 -258t238 -92
q164 0 275.5 92t146.5 258l213 1003q26 13 75 13q22 0 40.5 -3.5t25.5 -6.5z" />
    <glyph glyph-name="Udieresis" unicode="&#xdc;" horiz-adv-x="1376" 
d="M836 1747l-29 -133q-27 -10 -76 -10q-23 0 -41.5 2.5t-25.5 5.5l-7 2l29 133q27 10 78 10q22 0 40 -2.5t25 -4.5zM1159 1747l-29 -133q-26 -10 -75 -10q-23 0 -41.5 2.5t-25.5 5.5l-7 2l29 133q26 10 77 10q22 0 40 -2.5t25 -4.5zM1366 1462l-209 -981
q-51 -240 -205.5 -370.5t-380.5 -130.5q-231 0 -346 134t-65 367l209 981q28 13 77 13q23 0 41.5 -3.5t25.5 -6.5l7 -3l-213 -1003q-35 -166 37 -258t238 -92q164 0 275.5 92t146.5 258l213 1003q26 13 75 13q22 0 40.5 -3.5t25.5 -6.5z" />
    <glyph glyph-name="Yacute" unicode="&#xdd;" horiz-adv-x="1273" 
d="M709 1597l274 295q40 3 74.5 -13.5t44.5 -45.5l-316 -285q-62 6 -77 49zM1233 1462q47 13 102 13q24 0 45 -3.5t30 -6.5l9 -3l-710 -841l-129 -609q-27 -12 -76 -12q-24 0 -43 3t-26 6l-7 3l129 604l-336 846q33 13 94 13q25 0 42 -3.5t21 -6.5l5 -3l276 -686z" />
    <glyph glyph-name="Thorn" unicode="&#xde;" horiz-adv-x="1236" 
d="M379 1462q25 13 78 13q24 0 42 -3.5t25 -6.5l6 -3l-59 -276h367q128 0 211 -60.5t111 -163t1 -231.5q-41 -189 -173.5 -292t-330.5 -103h-366l-70 -324q-27 -12 -78 -12q-24 0 -42.5 3t-24.5 6l-6 3zM444 1057l-127 -592h353q133 0 223 78t119 215q29 142 -26.5 220.5
t-188.5 78.5h-353z" />
    <glyph glyph-name="germandbls" unicode="&#xdf;" horiz-adv-x="1169" 
d="M35 10l239 1129q83 397 496 397q78 0 140 -20t99.5 -54.5t61 -80t25 -96t-8.5 -103.5q-24 -98 -88 -205q-9 0 -23.5 -1t-54 -10t-71.5 -25.5t-63 -53t-42 -86.5q-8 -39 1.5 -72.5t31.5 -57.5t51 -50t60 -49.5t59 -54.5t47.5 -66.5t25.5 -85t-7 -109.5
q-30 -139 -134 -207.5t-266 -68.5q-63 0 -115.5 9t-74.5 18l-21 9q7 72 58 111q74 -27 153 -27q106 0 171 46t83 126q9 44 1 82.5t-29 65.5t-49 54.5t-59 50.5t-59 52t-48 60t-27 74.5t4 95.5q14 64 46.5 113t67.5 73.5t75.5 39.5t63.5 18.5t38 3.5q33 59 47 125
q20 102 -24 168.5t-162 66.5q-141 0 -221.5 -69.5t-110.5 -206.5l-240 -1129q-25 -10 -76 -10q-23 0 -40.5 2.5t-23.5 5.5z" />
    <glyph glyph-name="agrave" unicode="&#xe0;" horiz-adv-x="1134" 
d="M680 1579l158 -289q-37 -43 -99 -49l-192 275q25 28 62.5 47t70.5 16zM934 1067q14 10 65 10q23 0 39.5 -2.5t21.5 -4.5l5 -3l-225 -1057q-27 -10 -64 -10q-17 0 -32 2.5t-21 5.5l-6 2l14 131q-126 -161 -346 -161q-403 0 -279 591q26 123 63.5 215t82 151t102 95.5
t118.5 51t136 14.5q222 0 287 -166zM834 672q15 77 -2.5 144.5t-72 112t-136.5 44.5q-152 0 -237.5 -97t-135.5 -337q-51 -243 -8 -339t194 -96q124 0 219.5 92.5t120.5 213.5z" />
    <glyph glyph-name="aacute" unicode="&#xe1;" horiz-adv-x="1134" 
d="M530 1253l275 295q37 3 67.5 -15t42.5 -48l-307 -281q-63 6 -78 49zM934 1067q14 10 65 10q23 0 39.5 -2.5t21.5 -4.5l5 -3l-225 -1057q-27 -10 -64 -10q-17 0 -32 2.5t-21 5.5l-6 2l14 131q-126 -161 -346 -161q-403 0 -279 591q26 123 63.5 215t82 151t102 95.5
t118.5 51t136 14.5q222 0 287 -166zM834 672q15 77 -2.5 144.5t-72 112t-136.5 44.5q-152 0 -237.5 -97t-135.5 -337q-51 -243 -8 -339t194 -96q124 0 219.5 92.5t120.5 213.5z" />
    <glyph glyph-name="acircumflex" unicode="&#xe2;" horiz-adv-x="1134" 
d="M784 1516l220 -213q-37 -57 -84 -68l-183 156l-256 -158q-40 15 -53 70l305 213h51zM934 1067q14 10 65 10q23 0 39.5 -2.5t21.5 -4.5l5 -3l-225 -1057q-27 -10 -64 -10q-17 0 -32 2.5t-21 5.5l-6 2l14 131q-126 -161 -346 -161q-403 0 -279 591q26 123 63.5 215t82 151
t102 95.5t118.5 51t136 14.5q222 0 287 -166zM834 672q15 77 -2.5 144.5t-72 112t-136.5 44.5q-152 0 -237.5 -97t-135.5 -337q-51 -243 -8 -339t194 -96q124 0 219.5 92.5t120.5 213.5z" />
    <glyph glyph-name="atilde" unicode="&#xe3;" horiz-adv-x="1134" 
d="M449 1364q69 92 163 92q58 0 125 -35t105 -35t65 18.5t37 35.5q45 -19 45 -70q-5 -10 -20 -27.5t-54.5 -40t-85.5 -22.5q-47 0 -87.5 18t-75.5 36t-68 18q-27 0 -53.5 -14.5t-39.5 -29.5l-13 -14q-43 27 -43 70zM934 1067q14 10 65 10q23 0 39.5 -2.5t21.5 -4.5l5 -3
l-225 -1057q-27 -10 -64 -10q-17 0 -32 2.5t-21 5.5l-6 2l14 131q-126 -161 -346 -161q-403 0 -279 591q26 123 63.5 215t82 151t102 95.5t118.5 51t136 14.5q222 0 287 -166zM834 672q15 77 -2.5 144.5t-72 112t-136.5 44.5q-152 0 -237.5 -97t-135.5 -337
q-51 -243 -8 -339t194 -96q124 0 219.5 92.5t120.5 213.5z" />
    <glyph glyph-name="adieresis" unicode="&#xe4;" horiz-adv-x="1134" 
d="M477 1442q27 10 78 10q22 0 40 -2.5t25 -5.5l7 -2l-29 -133q-27 -11 -76 -11q-23 0 -41 3t-25 5l-7 3zM801 1442q27 10 78 10q22 0 39.5 -2.5t24.5 -5.5l7 -2l-28 -133q-27 -11 -76 -11q-23 0 -41.5 3t-25.5 5l-7 3zM934 1067q14 10 65 10q23 0 39.5 -2.5t21.5 -4.5l5 -3
l-225 -1057q-27 -10 -64 -10q-17 0 -32 2.5t-21 5.5l-6 2l14 131q-126 -161 -346 -161q-403 0 -279 591q26 123 63.5 215t82 151t102 95.5t118.5 51t136 14.5q222 0 287 -166zM834 672q15 77 -2.5 144.5t-72 112t-136.5 44.5q-152 0 -237.5 -97t-135.5 -337
q-51 -243 -8 -339t194 -96q124 0 219.5 92.5t120.5 213.5z" />
    <glyph glyph-name="aring" unicode="&#xe5;" horiz-adv-x="1134" 
d="M496 1425q18 98 97 153.5t175 55.5q94 0 154.5 -55.5t42.5 -153.5q-20 -101 -98 -158t-179 -57q-102 0 -157 57t-35 158zM864 1425q10 51 -17.5 87t-92.5 36q-62 0 -105 -37t-53 -86q-11 -53 15 -90t89 -37q65 0 109 37.5t55 89.5zM934 1067q14 10 65 10q23 0 39.5 -2.5
t21.5 -4.5l5 -3l-225 -1057q-27 -10 -64 -10q-17 0 -32 2.5t-21 5.5l-6 2l14 131q-126 -161 -346 -161q-403 0 -279 591q26 123 63.5 215t82 151t102 95.5t118.5 51t136 14.5q222 0 287 -166zM834 672q15 77 -2.5 144.5t-72 112t-136.5 44.5q-152 0 -237.5 -97t-135.5 -337
q-51 -243 -8 -339t194 -96q124 0 219.5 92.5t120.5 213.5z" />
    <glyph glyph-name="ae" unicode="&#xe6;" horiz-adv-x="1617" 
d="M1268 1098q176 0 242 -102t26 -291q-11 -50 -27.5 -99.5t-27.5 -73.5l-11 -24h-596q-33 -208 17 -306t184 -98q65 0 127 16.5t92 33.5l29 16q36 -31 29 -100q-5 -4 -14 -10t-40.5 -21.5t-66 -27.5t-90 -21.5t-113.5 -9.5q-183 0 -229 163l-37 -133q-13 -10 -55 -10
q-17 0 -31 2.5t-20 5.5l-5 2l15 121q-62 -79 -135.5 -115t-184.5 -36q-77 0 -134.5 33t-95 104.5t-41.5 183t27 268.5q111 529 465 529q116 0 177.5 -39t89.5 -127l38 135q15 10 66 10q16 0 29 -2.5t19 -4.5l5 -3l-22 -125q139 156 299 156zM897 618h479q13 35 27 101
q13 52 9 99t-21.5 82t-58 56t-99.5 21q-112 0 -199 -85.5t-137 -273.5zM721 410l53 245q14 59 7 116t-28 102t-64 72.5t-99 27.5q-125 0 -210 -100.5t-134 -333.5q-26 -119 -27 -204t22 -135t63.5 -73t101.5 -23q122 0 205.5 90.5t109.5 215.5z" />
    <glyph glyph-name="ccedilla" unicode="&#xe7;" horiz-adv-x="901" 
d="M403 -20l-36 -99q220 0 182 -182q-42 -195 -281 -195q-50 0 -94 12t-63 24l-19 11q13 51 51 72q55 -33 136 -33q141 0 165 111q21 104 -104 104h-72l-16 23l61 160q-157 30 -210 184.5t-1 398.5q58 271 193.5 399t353.5 128q79 0 141 -12t84 -24l23 -13q-12 -61 -68 -107
q-65 35 -180 35q-162 0 -260.5 -108.5t-144.5 -329.5q-47 -221 8.5 -328t220.5 -107q53 0 104.5 10.5t76.5 20.5l26 10q37 -37 25 -104q-12 -7 -34.5 -16.5t-101 -26.5t-166.5 -18z" />
    <glyph glyph-name="egrave" unicode="&#xe8;" horiz-adv-x="1034" 
d="M707 1243l-195 285q22 27 64.5 44.5t78.5 14.5l150 -295q-37 -43 -98 -49zM883 492h-650q-33 -206 25 -293.5t211 -87.5q69 0 135 16.5t98 33.5l31 17q20 -18 30.5 -48.5t4.5 -61.5q-6 -4 -16 -9.5t-45.5 -21t-73.5 -27t-98 -21t-121 -9.5q-217 0 -295.5 155.5
t-18.5 439.5q31 141 85.5 244t127.5 163t156 88t180 28q170 0 254.5 -107.5t46.5 -290.5q-13 -56 -29.5 -108t-26.5 -76zM813 719q24 113 -21 185.5t-169 72.5q-268 0 -367 -375h522q14 24 35 117z" />
    <glyph glyph-name="eacute" unicode="&#xe9;" horiz-adv-x="1034" 
d="M918 1528l-318 -285q-63 6 -78 49l277 295q39 3 74 -13.5t45 -45.5zM883 492h-650q-33 -206 25 -293.5t211 -87.5q69 0 135 16.5t98 33.5l31 17q20 -18 30.5 -48.5t4.5 -61.5q-6 -4 -16 -9.5t-45.5 -21t-73.5 -27t-98 -21t-121 -9.5q-217 0 -295.5 155.5t-18.5 439.5
q31 141 85.5 244t127.5 163t156 88t180 28q170 0 254.5 -107.5t46.5 -290.5q-13 -56 -29.5 -108t-26.5 -76zM813 719q24 113 -21 185.5t-169 72.5q-268 0 -367 -375h522q14 24 35 117z" />
    <glyph glyph-name="ecircumflex" unicode="&#xea;" horiz-adv-x="1034" 
d="M750 1518l229 -215q-37 -57 -84 -68l-188 156l-254 -158q-43 16 -56 70l301 215h52zM883 492h-650q-33 -206 25 -293.5t211 -87.5q69 0 135 16.5t98 33.5l31 17q20 -18 30.5 -48.5t4.5 -61.5q-6 -4 -16 -9.5t-45.5 -21t-73.5 -27t-98 -21t-121 -9.5q-217 0 -295.5 155.5
t-18.5 439.5q31 141 85.5 244t127.5 163t156 88t180 28q170 0 254.5 -107.5t46.5 -290.5q-13 -56 -29.5 -108t-26.5 -76zM813 719q24 113 -21 185.5t-169 72.5q-268 0 -367 -375h522q14 24 35 117z" />
    <glyph glyph-name="edieresis" unicode="&#xeb;" horiz-adv-x="1034" 
d="M629 1423l-29 -133q-29 -10 -78 -10q-23 0 -40.5 2.5t-23.5 5.5l-7 2l28 133q25 11 76 11q22 0 40.5 -3t26.5 -5zM952 1423l-28 -133q-29 -10 -78 -10q-23 0 -41 2.5t-25 5.5l-6 2l29 133q25 11 76 11q22 0 40 -3t25 -5zM883 492h-650q-33 -206 25 -293.5t211 -87.5
q69 0 135 16.5t98 33.5l31 17q20 -18 30.5 -48.5t4.5 -61.5q-6 -4 -16 -9.5t-45.5 -21t-73.5 -27t-98 -21t-121 -9.5q-217 0 -295.5 155.5t-18.5 439.5q31 141 85.5 244t127.5 163t156 88t180 28q170 0 254.5 -107.5t46.5 -290.5q-13 -56 -29.5 -108t-26.5 -76zM813 719
q24 113 -21 185.5t-169 72.5q-268 0 -367 -375h522q14 24 35 117z" />
    <glyph glyph-name="igrave" unicode="&#xec;" horiz-adv-x="489" 
d="M406 1247l-195 285q24 27 66 44.5t77 14.5l152 -295q-37 -43 -100 -49zM414 1067l-226 -1057q-26 -10 -75 -10q-24 0 -42 2.5t-24 5.5l-6 2l225 1057q23 10 76 10q22 0 40 -2.5t25 -4.5z" />
    <glyph glyph-name="iacute" unicode="&#xed;" horiz-adv-x="489" 
d="M647 1528l-317 -285q-63 6 -78 49l276 295q39 3 74 -13.5t45 -45.5zM414 1067l-226 -1057q-26 -10 -75 -10q-24 0 -42 2.5t-24 5.5l-6 2l225 1057q23 10 76 10q22 0 40 -2.5t25 -4.5z" />
    <glyph glyph-name="icircumflex" unicode="&#xee;" horiz-adv-x="489" 
d="M453 1520l229 -217q-37 -57 -82 -68l-190 156l-254 -158q-43 17 -56 70l301 217h52zM414 1067l-226 -1057q-26 -10 -75 -10q-24 0 -42 2.5t-24 5.5l-6 2l225 1057q23 10 76 10q22 0 40 -2.5t25 -4.5z" />
    <glyph glyph-name="idieresis" unicode="&#xef;" horiz-adv-x="489" 
d="M326 1434l-29 -136q-27 -8 -78 -8q-22 0 -40 2t-25 4l-7 2l29 136q27 8 76 8q23 0 41.5 -2t25.5 -4zM649 1434l-28 -136q-27 -8 -76 -8q-23 0 -41.5 2t-25.5 4l-7 2l29 136q27 8 78 8q22 0 39.5 -2t24.5 -4zM414 1067l-226 -1057q-26 -10 -75 -10q-24 0 -42 2.5t-24 5.5
l-6 2l225 1057q23 10 76 10q22 0 40 -2.5t25 -4.5z" />
    <glyph glyph-name="eth" unicode="&#xf0;" horiz-adv-x="1134" 
d="M1016 1425l-142 -77q113 -120 149 -297t-13 -422q-38 -184 -93.5 -311t-129.5 -200.5t-160.5 -105.5t-198.5 -32q-210 0 -300.5 144.5t-29.5 426.5q30 142 80.5 241t119.5 155.5t148 81t179 24.5q95 0 172 -40t108 -106q-3 227 -149 373l-224 -123q-21 12 -35 34.5
t-14 45.5l191 104q-98 69 -225 95q7 70 51 108q153 -26 299 -131l180 100q37 -30 37 -88zM440 96q68 0 123 20.5t105 67t88.5 130t64.5 202.5q21 98 21.5 171t-15 119.5t-48 75.5t-74 40.5t-97.5 11.5q-68 0 -121 -20t-100.5 -66.5t-83.5 -129t-61 -202.5
q-21 -96 -22.5 -168.5t12.5 -120t44 -77.5t70 -42t94 -12z" />
    <glyph glyph-name="ntilde" unicode="&#xf1;" horiz-adv-x="1126" 
d="M446 1370q2 4 6 10.5t19 23t32.5 29t47 23t61.5 10.5q59 0 127.5 -34.5t104.5 -34.5q27 0 53 15.5t39 30.5l12 15q22 -9 36.5 -29t14.5 -43q-2 -4 -6.5 -10.5t-19.5 -23t-33 -29t-47.5 -23t-61.5 -10.5q-47 0 -88 17.5t-76 35t-67 17.5q-27 0 -53 -15.5t-39 -30.5
l-12 -16q-50 24 -50 72zM997 762l-159 -752q-29 -10 -76 -10q-23 0 -41 2.5t-25 5.5l-6 2l160 752q47 213 -176 213q-86 0 -174 -50t-152 -137l-166 -778q-27 -10 -76 -10q-23 0 -40.5 2.5t-23.5 5.5l-7 2l225 1057q25 10 76 10q22 0 40 -2.5t25 -4.5l7 -3l-29 -129
q163 160 354 160q152 0 224.5 -90.5t39.5 -245.5z" />
    <glyph glyph-name="ograve" unicode="&#xf2;" horiz-adv-x="1103" 
d="M621 1587l155 -295q-35 -41 -96 -47l-199 283q22 27 62.5 44.5t77.5 14.5zM104 573q32 150 82.5 253t121.5 162t153.5 84.5t189.5 25.5q211 0 294 -145.5t20 -442.5q-32 -150 -83 -254t-122.5 -164t-155 -86t-190.5 -26q-210 0 -291.5 147.5t-18.5 445.5zM819 539
q21 101 23.5 177t-11 126.5t-43.5 81.5t-70 44t-95 13q-69 0 -124 -21.5t-104 -71t-86 -136.5t-63 -213q-24 -128 -24.5 -213.5t29.5 -136.5t76 -72t115 -21t123.5 21.5t103.5 71.5t86.5 137t63.5 213z" />
    <glyph glyph-name="oacute" unicode="&#xf3;" horiz-adv-x="1103" 
d="M520 1292l277 295q39 3 73.5 -13.5t44.5 -45.5l-317 -285q-63 6 -78 49zM104 573q32 150 82.5 253t121.5 162t153.5 84.5t189.5 25.5q211 0 294 -145.5t20 -442.5q-32 -150 -83 -254t-122.5 -164t-155 -86t-190.5 -26q-210 0 -291.5 147.5t-18.5 445.5zM819 539
q21 101 23.5 177t-11 126.5t-43.5 81.5t-70 44t-95 13q-69 0 -124 -21.5t-104 -71t-86 -136.5t-63 -213q-24 -128 -24.5 -213.5t29.5 -136.5t76 -72t115 -21t123.5 21.5t103.5 71.5t86.5 137t63.5 213z" />
    <glyph glyph-name="ocircumflex" unicode="&#xf4;" horiz-adv-x="1103" 
d="M750 1516l229 -213q-37 -57 -82 -68l-190 156l-254 -158q-43 16 -56 70l301 213h52zM104 573q32 150 82.5 253t121.5 162t153.5 84.5t189.5 25.5q211 0 294 -145.5t20 -442.5q-32 -150 -83 -254t-122.5 -164t-155 -86t-190.5 -26q-210 0 -291.5 147.5t-18.5 445.5z
M819 539q21 101 23.5 177t-11 126.5t-43.5 81.5t-70 44t-95 13q-69 0 -124 -21.5t-104 -71t-86 -136.5t-63 -213q-24 -128 -24.5 -213.5t29.5 -136.5t76 -72t115 -21t123.5 21.5t103.5 71.5t86.5 137t63.5 213z" />
    <glyph glyph-name="otilde" unicode="&#xf5;" horiz-adv-x="1103" 
d="M428 1358q2 4 6 10.5t19 23t32.5 29t47 23t61.5 10.5q47 0 88 -17.5t76 -35t67 -17.5q27 0 53.5 15t39.5 30l12 15q49 -16 49 -70q-2 -4 -6 -10.5t-19 -23t-32.5 -29t-47 -23t-61.5 -10.5q-47 0 -88 18t-76 36t-67 18q-27 0 -54 -15.5t-40 -30.5l-13 -16q-47 21 -47 70z
M104 573q32 150 82.5 253t121.5 162t153.5 84.5t189.5 25.5q211 0 294 -145.5t20 -442.5q-32 -150 -83 -254t-122.5 -164t-155 -86t-190.5 -26q-210 0 -291.5 147.5t-18.5 445.5zM819 539q21 101 23.5 177t-11 126.5t-43.5 81.5t-70 44t-95 13q-69 0 -124 -21.5t-104 -71
t-86 -136.5t-63 -213q-24 -128 -24.5 -213.5t29.5 -136.5t76 -72t115 -21t123.5 21.5t103.5 71.5t86.5 137t63.5 213z" />
    <glyph glyph-name="odieresis" unicode="&#xf6;" horiz-adv-x="1103" 
d="M483 1442q25 8 76 8q22 0 40.5 -2t26.5 -4l7 -2l-29 -135q-27 -9 -76 -9q-23 0 -41 2t-25 4l-7 3zM807 1442q25 8 76 8q22 0 40 -2t25 -4l8 -2l-28 -135q-27 -9 -76 -9q-23 0 -41.5 2t-25.5 4l-7 3zM104 573q32 150 82.5 253t121.5 162t153.5 84.5t189.5 25.5
q211 0 294 -145.5t20 -442.5q-32 -150 -83 -254t-122.5 -164t-155 -86t-190.5 -26q-210 0 -291.5 147.5t-18.5 445.5zM819 539q21 101 23.5 177t-11 126.5t-43.5 81.5t-70 44t-95 13q-69 0 -124 -21.5t-104 -71t-86 -136.5t-63 -213q-24 -128 -24.5 -213.5t29.5 -136.5
t76 -72t115 -21t123.5 21.5t103.5 71.5t86.5 137t63.5 213z" />
    <glyph glyph-name="divide" unicode="&#xf7;" horiz-adv-x="1110" 
d="M717 999l-33 -149q-31 -10 -86 -10q-25 0 -45.5 2.5t-28.5 5.5l-8 2l33 149q29 11 86 11q24 0 44.5 -3t28.5 -5zM942 537h-815q-6 20 2 57q3 16 8.5 30.5t10.5 20.5l4 6h815q2 -20 -4 -57q-4 -16 -9 -30.5t-8 -20.5zM575 338l-30 -150q-33 -10 -88 -10q-25 0 -45 2.5
t-28 5.5l-7 2l31 150q29 10 86 10q24 0 44.5 -2.5t28.5 -5.5z" />
    <glyph glyph-name="oslash" unicode="&#xf8;" horiz-adv-x="1099" 
d="M1059 1122l-125 -155q95 -149 29 -457q-32 -150 -83 -254t-122.5 -164t-155 -86t-190.5 -26q-136 0 -213 57l-105 -129q-53 3 -82 47l121 151q-97 151 -31 467q32 150 82.5 253t121.5 162t153.5 84.5t189.5 25.5q138 0 221 -62l105 133q55 -6 84 -47zM621 981
q-69 0 -124 -21.5t-104 -71t-86 -136.5t-63 -213q-42 -204 -11 -310l549 699q-53 53 -161 53zM440 96q69 0 123.5 21.5t103.5 71.5t86.5 137t63.5 213q39 194 12 297l-544 -693q52 -47 155 -47z" />
    <glyph glyph-name="ugrave" unicode="&#xf9;" 
d="M655 1585l152 -293q-37 -43 -92 -49l-195 285q22 27 60.5 43.5t74.5 13.5zM92 322l158 745q29 10 76 10q23 0 40.5 -2.5t23.5 -4.5l7 -3l-159 -752q-47 -213 178 -213q83 0 170.5 49.5t152.5 137.5l166 778q27 10 76 10q23 0 41 -2.5t24 -4.5l7 -3l-226 -1057
q-14 -10 -65 -10q-22 0 -39.5 2.5t-24.5 5.5l-6 2l13 119q-149 -149 -351 -149q-150 0 -222.5 96.5t-39.5 245.5z" />
    <glyph glyph-name="uacute" unicode="&#xfa;" 
d="M942 1528l-317 -285q-63 6 -78 49l276 295q39 3 74 -13.5t45 -45.5zM92 322l158 745q29 10 76 10q23 0 40.5 -2.5t23.5 -4.5l7 -3l-159 -752q-47 -213 178 -213q83 0 170.5 49.5t152.5 137.5l166 778q27 10 76 10q23 0 41 -2.5t24 -4.5l7 -3l-226 -1057q-14 -10 -65 -10
q-22 0 -39.5 2.5t-24.5 5.5l-6 2l13 119q-149 -149 -351 -149q-150 0 -222.5 96.5t-39.5 245.5z" />
    <glyph glyph-name="ucircumflex" unicode="&#xfb;" 
d="M768 1518l225 -215q-33 -57 -82 -68l-190 156l-254 -158q-43 17 -53 70l303 215h51zM92 322l158 745q29 10 76 10q23 0 40.5 -2.5t23.5 -4.5l7 -3l-159 -752q-47 -213 178 -213q83 0 170.5 49.5t152.5 137.5l166 778q27 10 76 10q23 0 41 -2.5t24 -4.5l7 -3l-226 -1057
q-14 -10 -65 -10q-22 0 -39.5 2.5t-24.5 5.5l-6 2l13 119q-149 -149 -351 -149q-150 0 -222.5 96.5t-39.5 245.5z" />
    <glyph glyph-name="udieresis" unicode="&#xfc;" 
d="M492 1444q26 10 77 10q22 0 40.5 -2.5t26.5 -5.5l7 -2l-29 -133q-28 -11 -77 -11q-23 0 -41.5 3t-25.5 5l-7 3zM815 1444q27 10 78 10q22 0 40.5 -2.5t26.5 -5.5l7 -2l-29 -133q-29 -11 -78 -11q-23 0 -41.5 3t-25.5 5l-7 3zM92 322l158 745q29 10 76 10q23 0 40.5 -2.5
t23.5 -4.5l7 -3l-159 -752q-47 -213 178 -213q83 0 170.5 49.5t152.5 137.5l166 778q27 10 76 10q23 0 41 -2.5t24 -4.5l7 -3l-226 -1057q-14 -10 -65 -10q-22 0 -39.5 2.5t-24.5 5.5l-6 2l13 119q-149 -149 -351 -149q-150 0 -222.5 96.5t-39.5 245.5z" />
    <glyph glyph-name="yacute" unicode="&#xfd;" 
d="M944 1528l-317 -285q-63 6 -78 49l276 295q39 3 74 -13.5t45 -45.5zM907 1067q27 10 76 10q23 0 41 -2.5t24 -4.5l7 -3l-217 -1014q-46 -214 -113.5 -334t-178.5 -175.5t-290 -55.5q-84 0 -156.5 16t-102.5 32l-30 15q16 67 66 105q104 -43 235 -43q90 0 151 18t113.5 67
t89.5 134.5t68 220.5l15 64q-75 -74 -158 -105.5t-191 -31.5q-109 0 -177 47t-87.5 122t0.5 170l160 748q29 10 76 10q23 0 40.5 -2.5t23.5 -4.5l7 -3l-159 -752q-47 -213 178 -213q83 0 170.5 49.5t152.5 137.5z" />
    <glyph glyph-name="thorn" unicode="&#xfe;" horiz-adv-x="1138" 
d="M356 1526q25 10 76 10q23 0 41 -2.5t25 -5.5l6 -2l-125 -588q131 160 350 160q188 0 261 -142.5t9 -445.5q-32 -153 -81.5 -258.5t-116 -164t-140.5 -83t-169 -24.5q-221 0 -283 159l-131 -618q-25 -10 -76 -10q-23 0 -41 2.5t-25 4.5l-6 3zM850 539q26 122 26.5 204.5
t-24.5 134t-73.5 73.5t-125.5 22q-122 0 -211.5 -88t-117.5 -211l-58 -264q-25 -123 27.5 -214.5t175.5 -91.5q153 0 241 98t140 337z" />
    <glyph glyph-name="ydieresis" unicode="&#xff;" 
d="M657 1446l-28 -133q-29 -10 -78 -10q-23 0 -41.5 2.5t-25.5 4.5l-7 3l29 133q27 10 78 10q22 0 40 -2.5t26 -5.5zM981 1446l-29 -133q-29 -10 -78 -10q-23 0 -41 2.5t-25 4.5l-7 3l28 133q27 10 78 10q22 0 40.5 -2.5t26.5 -5.5zM907 1067q27 10 76 10q23 0 41 -2.5
t24 -4.5l7 -3l-217 -1014q-46 -214 -113.5 -334t-178.5 -175.5t-290 -55.5q-84 0 -156.5 16t-102.5 32l-30 15q16 67 66 105q104 -43 235 -43q90 0 151 18t113.5 67t89.5 134.5t68 220.5l15 64q-75 -74 -158 -105.5t-191 -31.5q-109 0 -177 47t-87.5 122t0.5 170l160 748
q29 10 76 10q23 0 40.5 -2.5t23.5 -4.5l7 -3l-159 -752q-47 -213 178 -213q83 0 170.5 49.5t152.5 137.5z" />
    <glyph glyph-name="Amacron" unicode="&#x100;" horiz-adv-x="1323" 
d="M596 1733h559q6 -21 -1 -49.5t-21 -51.5h-560q-6 50 23 101zM756 1462q35 13 86 13q24 0 44.5 -3.5t29.5 -6.5l8 -3l233 -1450q-29 -12 -86 -12q-17 0 -32.5 3t-22.5 6l-6 3l-64 391h-653l-230 -391q-27 -12 -90 -12q-22 0 -39 3t-24 6l-6 3zM815 1313h-6
q-25 -62 -72 -142l-372 -641h563l-103 641q-5 36 -7.5 71.5t-2.5 53.5v17z" />
    <glyph glyph-name="amacron" unicode="&#x101;" horiz-adv-x="1134" 
d="M483 1421h490q8 -43 -21 -96h-489q-3 51 20 96zM934 1067q14 10 65 10q23 0 39.5 -2.5t21.5 -4.5l5 -3l-225 -1057q-27 -10 -64 -10q-17 0 -32 2.5t-21 5.5l-6 2l14 131q-126 -161 -346 -161q-403 0 -279 591q26 123 63.5 215t82 151t102 95.5t118.5 51t136 14.5
q222 0 287 -166zM834 672q15 77 -2.5 144.5t-72 112t-136.5 44.5q-152 0 -237.5 -97t-135.5 -337q-51 -243 -8 -339t194 -96q124 0 219.5 92.5t120.5 213.5z" />
    <glyph glyph-name="Abreve" unicode="&#x102;" horiz-adv-x="1323" 
d="M885 1712q63 0 123.5 18.5t89.5 37.5l30 18q49 -14 56 -72q-5 -5 -13.5 -12.5t-38.5 -27.5t-63 -35t-86 -27.5t-109 -12.5t-106.5 12t-82 28.5t-55.5 33.5t-34 29l-10 12q26 54 82 72q9 -8 25.5 -20.5t72.5 -33t119 -20.5zM756 1462q35 13 86 13q24 0 44.5 -3.5
t29.5 -6.5l8 -3l233 -1450q-29 -12 -86 -12q-17 0 -32.5 3t-22.5 6l-6 3l-64 391h-653l-230 -391q-27 -12 -90 -12q-22 0 -39 3t-24 6l-6 3zM815 1313h-6q-25 -62 -72 -142l-372 -641h563l-103 641q-5 36 -7.5 71.5t-2.5 53.5v17z" />
    <glyph glyph-name="abreve" unicode="&#x103;" horiz-adv-x="1134" 
d="M737 1401q60 0 119 18.5t88 36.5l29 19q44 -16 51 -72q-4 -5 -12.5 -13t-37 -28.5t-60.5 -36t-83 -28.5t-104 -13t-100 12.5t-77 30t-52.5 34.5t-32.5 29l-10 13q29 55 80 72q8 -8 22.5 -20.5t67 -33t112.5 -20.5zM934 1067q14 10 65 10q23 0 39.5 -2.5t21.5 -4.5l5 -3
l-225 -1057q-27 -10 -64 -10q-17 0 -32 2.5t-21 5.5l-6 2l14 131q-126 -161 -346 -161q-403 0 -279 591q26 123 63.5 215t82 151t102 95.5t118.5 51t136 14.5q222 0 287 -166zM834 672q15 77 -2.5 144.5t-72 112t-136.5 44.5q-152 0 -237.5 -97t-135.5 -337
q-51 -243 -8 -339t194 -96q124 0 219.5 92.5t120.5 213.5z" />
    <glyph glyph-name="Aogonek" unicode="&#x104;" horiz-adv-x="1320" 
d="M1036 -285q19 0 38.5 4.5t29.5 8.5l10 4q23 -21 12 -72q-59 -35 -135 -35q-51 0 -88.5 16.5t-56.5 44.5t-25.5 63t4 74.5t31.5 77t58 71.5t83 57l-51 374h-653l-230 -391q-27 -12 -90 -12q-22 0 -39 3t-24 6l-6 3l852 1450q35 13 86 13q24 0 44.5 -3.5t29.5 -6.5l8 -3
l233 -1450l-18 -6q-99 -14 -160 -96q-51 -68 -39 -129q22 -62 96 -66zM928 530l-105 627q-4 36 -6.5 71.5t-2.5 52.5l-1 17h-6q-27 -61 -72 -141l-370 -627h563z" />
    <glyph glyph-name="aogonek" unicode="&#x105;" horiz-adv-x="1132" 
d="M709 -285q19 0 38.5 4.5t28.5 8.5l10 4q23 -20 13 -66q-64 -37 -140 -37q-90 0 -128.5 44.5t-20.5 121.5q12 61 66 121t133 100l14 127q-128 -163 -348 -163q-87 0 -150.5 33.5t-103 105t-44 183.5t26.5 269q26 123 64 215t83.5 151t103 95.5t117.5 51t132 14.5
q227 0 287 -172l39 141q14 10 65 10q23 0 39.5 -2.5t21.5 -4.5l5 -3l-225 -1057q-27 -8 -57 -23.5t-65 -40.5t-62 -63.5t-36 -83.5q-9 -41 15 -62.5t78 -21.5zM772 410l57 262q15 77 -2.5 144.5t-72 112t-136.5 44.5q-151 0 -236.5 -97t-135.5 -337q-50 -243 -6 -339
t196 -96q124 0 217.5 92t118.5 214z" />
    <glyph glyph-name="Cacute" unicode="&#x106;" horiz-adv-x="1140" 
d="M1167 1833l-315 -285q-63 6 -78 49l275 295q40 3 74 -13.5t44 -45.5zM565 -20q-570 0 -411 757q80 376 264 567t469 191q100 0 183 -17t116 -34l33 -17q-10 -63 -72 -114q-12 6 -33.5 14.5t-91.5 22.5t-143 14q-80 0 -147.5 -18t-132 -62.5t-116.5 -115.5t-95.5 -180
t-74.5 -253t-33 -252t19.5 -177.5t67.5 -112.5t105.5 -60.5t139.5 -17.5t158.5 12.5t117.5 25.5l38 13q36 -44 22 -117q-6 -3 -17 -7.5t-48 -16.5t-78.5 -21t-106.5 -16.5t-133 -7.5z" />
    <glyph glyph-name="cacute" unicode="&#x107;" horiz-adv-x="907" 
d="M907 1528l-317 -291q-29 3 -49.5 18t-28.5 37l276 295q39 3 74 -13.5t45 -45.5zM651 973q-163 0 -261 -107t-144 -327q-47 -220 8 -324t221 -104q123 0 207 39q20 -18 30.5 -48t4.5 -61q-53 -28 -118 -44.5t-175 -16.5q-217 0 -300 156t-24 433q58 270 195.5 399.5
t355.5 129.5q79 0 141 -12t84 -24l23 -13q-12 -67 -63 -111q-70 35 -185 35z" />
    <glyph glyph-name="Ccircumflex" unicode="&#x108;" horiz-adv-x="1140" 
d="M999 1831l224 -221q-36 -59 -84 -70l-197 160l-258 -162q-45 17 -55 72l317 221h53zM565 -20q-570 0 -411 757q80 376 264 567t469 191q100 0 183 -17t116 -34l33 -17q-10 -59 -72 -114q-12 6 -33.5 14.5t-91.5 22.5t-143 14q-80 0 -147.5 -18t-132 -62.5t-116.5 -115.5
t-95.5 -180t-74.5 -253t-33 -252t19.5 -177.5t67.5 -112.5t105.5 -60.5t139.5 -17.5t158.5 12.5t117.5 25.5l38 13q35 -41 22 -117q-6 -3 -17 -7.5t-48 -16.5t-78.5 -21t-106.5 -16.5t-133 -7.5z" />
    <glyph glyph-name="ccircumflex" unicode="&#x109;" horiz-adv-x="907" 
d="M727 1520l238 -213q-40 -57 -86 -70l-187 158l-256 -158q-43 17 -53 70l293 213h51zM651 973q-163 0 -261 -107t-144 -327q-47 -220 8 -324t221 -104q123 0 207 39q20 -18 30.5 -48t4.5 -61q-53 -28 -118 -44.5t-175 -16.5q-217 0 -300 156t-24 433q58 270 195.5 399.5
t355.5 129.5q79 0 141 -12t84 -24l23 -13q-12 -67 -63 -111q-70 35 -185 35z" />
    <glyph glyph-name="Cdotaccent" unicode="&#x10a;" horiz-adv-x="1140" 
d="M1024 1747l-29 -139q-29 -11 -80 -11q-24 0 -43 2.5t-26 5.5l-6 3l28 139q25 8 80 8q23 0 42 -2t26 -4zM565 -20q-570 0 -411 757q80 376 264 567t469 191q100 0 183 -17t116 -34l33 -17q-11 -66 -72 -114q-12 6 -33.5 14.5t-91.5 22.5t-143 14q-80 0 -147.5 -18
t-132 -62.5t-116.5 -115.5t-95.5 -180t-74.5 -253t-33 -252t19.5 -177.5t67.5 -112.5t105.5 -60.5t139.5 -17.5t158.5 12.5t117.5 25.5l38 13q36 -44 22 -117q-6 -3 -17 -7.5t-48 -16.5t-78.5 -21t-106.5 -16.5t-133 -7.5z" />
    <glyph glyph-name="cdotaccent" unicode="&#x10b;" horiz-adv-x="907" 
d="M784 1452l-30 -139q-29 -10 -80 -10q-24 0 -43 2.5t-26 4.5l-7 3l31 139q27 8 80 8q23 0 41.5 -2t25.5 -4zM651 973q-163 0 -261 -107t-144 -327q-47 -220 8 -324t221 -104q123 0 207 39q20 -18 30.5 -48t4.5 -61q-53 -28 -118 -44.5t-175 -16.5q-217 0 -300 156t-24 433
q58 270 195.5 399.5t355.5 129.5q79 0 141 -12t84 -24l23 -13q-12 -67 -63 -111q-70 35 -185 35z" />
    <glyph glyph-name="Ccaron" unicode="&#x10c;" horiz-adv-x="1140" 
d="M877 1563l-226 221q33 54 86 71l195 -161l258 159q42 -13 55 -69l-315 -221h-53zM565 -20q-570 0 -411 757q80 376 264 567t469 191q100 0 183 -17t116 -34l33 -17q-10 -62 -72 -114q-12 6 -33.5 14.5t-91.5 22.5t-143 14q-80 0 -147.5 -18t-132 -62.5t-116.5 -115.5
t-95.5 -180t-74.5 -253t-33 -252t19.5 -177.5t67.5 -112.5t105.5 -60.5t139.5 -17.5t158.5 12.5t117.5 25.5l38 13q36 -44 22 -117q-6 -3 -17 -7.5t-48 -16.5t-78.5 -21t-106.5 -16.5t-133 -7.5z" />
    <glyph glyph-name="ccaron" unicode="&#x10d;" horiz-adv-x="907" 
d="M674 1235l-228 203q28 48 80 67l179 -149l237 147q36 -13 49 -65l-270 -203h-47zM651 973q-163 0 -261 -107t-144 -327q-47 -220 8 -324t221 -104q123 0 207 39q20 -18 30.5 -48t4.5 -61q-53 -28 -118 -44.5t-175 -16.5q-217 0 -300 156t-24 433q58 270 195.5 399.5
t355.5 129.5q79 0 141 -12t84 -24l23 -13q-12 -67 -63 -111q-70 35 -185 35z" />
    <glyph glyph-name="Dcaron" unicode="&#x10e;" horiz-adv-x="1355" 
d="M784 1563l-237 221q29 52 86 71l194 -161l258 159q43 -15 56 -69l-303 -221h-54zM381 1475h428q117 0 204 -26.5t147.5 -84t89.5 -147t26.5 -217.5t-37.5 -293q-43 -205 -110 -343.5t-162 -218t-207.5 -112.5t-263.5 -33h-428zM246 129h264q89 0 158.5 16t135 56.5
t115.5 108.5t92.5 175t73.5 252q31 146 34 253t-18 175t-69 108.5t-110.5 56.5t-151.5 16h-264z" />
    <glyph glyph-name="dcaron" unicode="&#x10f;" horiz-adv-x="1161" 
d="M1202 1231q74 64 112 135t52 166q87 20 127 -14q-24 -99 -86.5 -190.5t-142.5 -135.5q-51 6 -62 39zM1016 1526q25 10 76 10q23 0 40.5 -2.5t23.5 -5.5l7 -2l-321 -1516q-27 -10 -64 -10q-17 0 -33 2.5t-23 5.5l-7 2l14 125q-122 -155 -356 -155q-84 0 -146 33
t-102 104.5t-45 183t26 268.5q32 153 82 258.5t116.5 163.5t140 82.5t165.5 24.5q103 0 177.5 -42.5t103.5 -117.5zM836 672q15 76 -4.5 144.5t-72 112.5t-126.5 44q-149 0 -240 -99t-141 -335q-37 -160 -24 -256.5t66 -137.5t155 -41q83 0 154.5 45.5t115 114t59.5 146.5z
" />
    <glyph glyph-name="Dcroat" unicode="&#x110;" horiz-adv-x="1378" 
d="M399 1475h428q298 0 409 -183.5t24 -589.5q-35 -164 -86 -285t-115.5 -201t-150 -128t-180 -68t-214.5 -20h-428l143 676h-168q-3 57 23 108h168zM524 1346l-121 -562h320q4 -53 -23 -108h-319l-117 -547h264q89 0 158.5 16t135 56.5t116 108.5t93 175t73.5 252
q31 146 34 253t-18 175t-69.5 108.5t-111 56.5t-151.5 16h-264z" />
    <glyph glyph-name="dcroat" unicode="&#x111;" horiz-adv-x="1134" 
d="M1128 1368h144q2 -16 -4 -49q-4 -15 -8 -27t-6 -17l-3 -5h-145l-266 -1260q-27 -10 -64 -10q-17 0 -33 2.5t-23 5.5l-7 2l14 125q-122 -155 -356 -155q-84 0 -146 33t-102 104.5t-45 183t26 268.5q32 153 82 258.5t116.5 163.5t140 82.5t165.5 24.5q103 0 177.5 -42.5
t103.5 -117.5l69 332h-233q-6 16 2 49q3 15 7.5 27t7.5 17l3 5h236l33 158q25 10 76 10q23 0 40.5 -2.5t23.5 -5.5l7 -2zM776 410l58 262q15 76 -4.5 144.5t-72 112.5t-126.5 44q-149 0 -240 -99t-141 -335q-37 -160 -24.5 -256.5t65.5 -137.5t155 -41q124 0 214.5 91.5
t115.5 214.5z" />
    <glyph glyph-name="Emacron" unicode="&#x112;" horiz-adv-x="1138" 
d="M1104 1614h-582q-3 49 23 100h581q6 -42 -22 -100zM381 1475h813q6 -26 0 -62q-9 -38 -27 -65h-661l-115 -539h559q6 -28 0 -59q-9 -38 -26 -66h-559l-119 -557h682q6 -27 0 -61q-10 -37 -27 -66h-833z" />
    <glyph glyph-name="emacron" unicode="&#x113;" horiz-adv-x="1034" 
d="M936 1325h-510q-6 49 20 100h510q8 -58 -20 -100zM883 492h-650q-33 -206 25 -293.5t211 -87.5q69 0 135 16.5t98 33.5l31 17q20 -18 30.5 -48.5t4.5 -61.5q-6 -4 -16 -9.5t-45.5 -21t-73.5 -27t-98 -21t-121 -9.5q-217 0 -295.5 155.5t-18.5 439.5q31 141 85.5 244
t127.5 163t156 88t180 28q170 0 254.5 -107.5t46.5 -290.5q-13 -56 -29.5 -108t-26.5 -76zM813 719q24 113 -21 185.5t-169 72.5q-268 0 -367 -375h522q14 24 35 117z" />
    <glyph glyph-name="Ebreve" unicode="&#x114;" horiz-adv-x="1138" 
d="M1133 1726q-5 -5 -14.5 -12.5t-42 -27t-67.5 -34.5t-89 -27.5t-109 -12.5q-56 0 -105.5 11.5t-79 28.5t-51.5 34t-31 28l-9 12q30 55 86 72q8 -8 24 -20.5t71.5 -33t119.5 -20.5q63 0 124 18.5t91 37.5l30 18q52 -16 52 -72zM381 1475h813q6 -26 0 -62q-9 -38 -27 -65
h-661l-115 -539h559q6 -28 0 -59q-9 -38 -26 -66h-559l-119 -557h682q6 -27 0 -61q-10 -37 -27 -66h-833z" />
    <glyph glyph-name="ebreve" unicode="&#x115;" horiz-adv-x="1034" 
d="M997 1393q-4 -5 -12.5 -13t-37.5 -29t-61 -37t-83.5 -29t-106.5 -13q-54 0 -102.5 12.5t-79.5 30t-54.5 35.5t-33.5 30l-10 13q30 56 84 73q3 -3 8.5 -8t25 -18t41.5 -23t58 -18t74 -8q61 0 120.5 18.5t88.5 37.5l30 19q48 -17 51 -73zM883 492h-650q-33 -206 25 -293.5
t211 -87.5q69 0 135 16.5t98 33.5l31 17q20 -18 30.5 -48.5t4.5 -61.5q-6 -4 -16 -9.5t-45.5 -21t-73.5 -27t-98 -21t-121 -9.5q-217 0 -295.5 155.5t-18.5 439.5q31 141 85.5 244t127.5 163t156 88t180 28q170 0 254.5 -107.5t46.5 -290.5q-13 -56 -29.5 -108t-26.5 -76z
M813 719q24 113 -21 185.5t-169 72.5q-268 0 -367 -375h522q14 24 35 117z" />
    <glyph glyph-name="Edotaccent" unicode="&#x116;" horiz-adv-x="1138" 
d="M928 1747l-29 -139q-31 -11 -80 -11q-24 0 -43.5 2.5t-27.5 5.5l-7 3l29 139q27 8 82 8q22 0 41 -2t27 -4zM381 1475h813q6 -26 0 -62q-9 -38 -27 -65h-661l-115 -539h559q6 -28 0 -59q-9 -38 -26 -66h-559l-119 -557h682q6 -27 0 -61q-10 -37 -27 -66h-833z" />
    <glyph glyph-name="edotaccent" unicode="&#x117;" horiz-adv-x="1034" 
d="M799 1442l-31 -139q-29 -11 -80 -11q-24 0 -43 3t-26 5l-7 3l31 139q27 10 80 10q23 0 42 -2.5t27 -5.5zM883 492h-650q-33 -206 25 -293.5t211 -87.5q69 0 135 16.5t98 33.5l31 17q20 -18 30.5 -48.5t4.5 -61.5q-6 -4 -16 -9.5t-45.5 -21t-73.5 -27t-98 -21t-121 -9.5
q-217 0 -295.5 155.5t-18.5 439.5q31 141 85.5 244t127.5 163t156 88t180 28q170 0 254.5 -107.5t46.5 -290.5q-13 -56 -29.5 -108t-26.5 -76zM813 719q24 113 -21 185.5t-169 72.5q-268 0 -367 -375h522q14 24 35 117z" />
    <glyph glyph-name="Eogonek" unicode="&#x118;" horiz-adv-x="1138" 
d="M381 1475h813q6 -26 0 -62q-9 -38 -27 -65h-661l-115 -539h559q6 -28 0 -59q-9 -38 -26 -66h-559l-119 -557h682q6 -27 0 -61q-10 -37 -27 -66h-2q-85 -27 -140 -67t-67 -103q-12 -51 13 -77.5t75 -26.5q19 0 38 4t28 8l10 4q21 -18 14 -66q-63 -36 -139 -36
q-85 0 -125.5 47.5t-23.5 126.5q26 121 151 186h-665z" />
    <glyph glyph-name="eogonek" unicode="&#x119;" horiz-adv-x="1038" 
d="M100 567q61 272 203.5 401.5t347.5 129.5q178 0 260.5 -106.5t44.5 -291.5q-13 -56 -29.5 -108t-26.5 -76l-11 -24h-653q-33 -206 24.5 -293.5t210.5 -87.5q69 0 135 16.5t98 33.5l31 17q19 -18 28 -47t3 -61q-67 -47 -182 -72q-85 -22 -144.5 -76.5t-74.5 -126.5
q-11 -48 15 -64t81 -16q19 0 38.5 4.5t29.5 8.5l10 4q22 -20 12 -70q-63 -35 -139 -35q-89 0 -133 38t-27 114q12 61 49 114.5t92 86.5q-205 7 -279.5 160.5t-13.5 426.5zM819 719q13 52 6.5 99t-27 82t-65 56t-108.5 21q-268 0 -367 -375h526q14 24 35 117z" />
    <glyph glyph-name="Ecaron" unicode="&#x11a;" horiz-adv-x="1138" 
d="M754 1563l-226 221q33 54 86 71l195 -161l258 159q42 -13 55 -69l-315 -221h-53zM381 1475h813q6 -26 0 -62q-9 -38 -27 -65h-661l-115 -539h559q6 -28 0 -59q-9 -38 -26 -66h-559l-119 -557h682q6 -27 0 -61q-10 -37 -27 -66h-833z" />
    <glyph glyph-name="ecaron" unicode="&#x11b;" horiz-adv-x="1034" 
d="M664 1237l-230 207q30 52 82 67l184 -155l248 153q41 -11 51 -65l-284 -207h-51zM883 492h-650q-33 -206 25 -293.5t211 -87.5q69 0 135 16.5t98 33.5l31 17q20 -18 30.5 -48.5t4.5 -61.5q-6 -4 -16 -9.5t-45.5 -21t-73.5 -27t-98 -21t-121 -9.5q-217 0 -295.5 155.5
t-18.5 439.5q31 141 85.5 244t127.5 163t156 88t180 28q170 0 254.5 -107.5t46.5 -290.5q-13 -56 -29.5 -108t-26.5 -76zM813 719q24 113 -21 185.5t-169 72.5q-268 0 -367 -375h522q14 24 35 117z" />
    <glyph glyph-name="Gcircumflex" unicode="&#x11c;" horiz-adv-x="1284" 
d="M1055 1855l223 -221q-40 -57 -86 -71l-195 161l-260 -161q-47 18 -53 71l317 221h54zM596 -20q-292 0 -405.5 190.5t-34.5 566.5q79 373 274.5 565.5t487.5 192.5q107 0 198 -17t128 -34l38 -17q-16 -69 -72 -112q-14 5 -40.5 13.5t-105.5 22t-155 13.5q-82 0 -152.5 -18
t-139.5 -63t-124 -115.5t-101.5 -180t-76.5 -252.5t-30.5 -252t24.5 -178.5t75 -113t113 -61t146 -17.5q128 0 242 26l112 531h-335q-6 24 2 63q4 19 10.5 35t11.5 22l4 7h481l-159 -750q-19 -8 -53.5 -19t-143 -29.5t-219.5 -18.5z" />
    <glyph glyph-name="gcircumflex" unicode="&#x11d;" horiz-adv-x="1136" 
d="M772 1520l225 -217q-37 -57 -82 -68l-190 156l-254 -158q-43 17 -53 70l303 217h51zM707 53l18 74q-122 -147 -354 -147q-84 0 -146.5 33t-102.5 104.5t-44.5 183t26.5 268.5q32 153 81 258.5t115 163.5t139.5 82.5t168.5 24.5q215 0 281 -162l35 131q18 10 69 10
q23 0 41 -2.5t24 -4.5l7 -3l-217 -1014q-31 -148 -75 -250.5t-113 -175t-165.5 -106t-228.5 -33.5q-84 0 -156.5 16t-102.5 32l-30 15q16 67 66 105q105 -43 236 -43q72 0 124.5 10.5t100.5 38.5t83 77.5t65 126.5t55 187zM250 539q-24 -121 -24 -204.5t29 -134.5
t75.5 -73.5t115.5 -22.5q66 0 124 28t98 72.5t67 94.5t39 100l60 275q6 40 6.5 81t-13 80t-36.5 70t-64.5 49.5t-95.5 18.5q-153 0 -242 -98t-139 -336z" />
    <glyph glyph-name="Gbreve" unicode="&#x11e;" horiz-adv-x="1284" 
d="M1264 1720q-5 -5 -13.5 -12.5t-38 -27t-63 -34.5t-86 -27.5t-107.5 -12.5q-56 0 -106.5 11.5t-82.5 28.5t-56 34t-35 28l-10 12q26 53 84 72q9 -8 25.5 -20.5t72.5 -33t119 -20.5t123.5 18.5t89.5 37.5l30 18q51 -15 54 -72zM596 -20q-292 0 -405.5 190.5t-34.5 566.5
q79 373 274.5 565.5t487.5 192.5q107 0 198 -17t128 -34l38 -17q-16 -69 -72 -112q-14 5 -40.5 13.5t-105.5 22t-155 13.5q-82 0 -152.5 -18t-139.5 -63t-124 -115.5t-101.5 -180t-76.5 -252.5t-30.5 -252t24.5 -178.5t75 -113t113 -61t146 -17.5q128 0 242 26l112 531h-335
q-6 24 2 63q4 19 10.5 35t11.5 22l4 7h481l-159 -750q-19 -8 -53.5 -19t-143 -29.5t-219.5 -18.5z" />
    <glyph glyph-name="gbreve" unicode="&#x11f;" horiz-adv-x="1136" 
d="M1020 1393q-4 -5 -13 -13.5t-38.5 -29.5t-62 -37t-84.5 -29.5t-107 -13.5q-54 0 -102.5 12.5t-79 31t-53 36.5t-32.5 30l-10 13q30 56 84 73q3 -3 8.5 -8t25 -18t41.5 -23t58 -18t74 -8t77 7.5t67 18.5t50.5 22.5t34.5 18.5l11 8q48 -17 51 -73zM707 53l18 74
q-122 -147 -354 -147q-84 0 -146.5 33t-102.5 104.5t-44.5 183t26.5 268.5q32 153 81 258.5t115 163.5t139.5 82.5t168.5 24.5q215 0 281 -162l35 131q18 10 69 10q23 0 41 -2.5t24 -4.5l7 -3l-217 -1014q-31 -148 -75 -250.5t-113 -175t-165.5 -106t-228.5 -33.5
q-84 0 -156.5 16t-102.5 32l-30 15q16 67 66 105q105 -43 236 -43q72 0 124.5 10.5t100.5 38.5t83 77.5t65 126.5t55 187zM250 539q-24 -121 -24 -204.5t29 -134.5t75.5 -73.5t115.5 -22.5q66 0 124 28t98 72.5t67 94.5t39 100l60 275q6 40 6.5 81t-13 80t-36.5 70
t-64.5 49.5t-95.5 18.5q-153 0 -242 -98t-139 -336z" />
    <glyph glyph-name="Gdotaccent" unicode="&#x120;" horiz-adv-x="1284" 
d="M1053 1747l-29 -139q-29 -11 -80 -11q-24 0 -43 2.5t-26 5.5l-7 3l29 139q27 8 80 8q23 0 42 -2t27 -4zM596 -20q-292 0 -405.5 190.5t-34.5 566.5q79 373 274.5 565.5t487.5 192.5q107 0 198 -17t128 -34l38 -17q-16 -69 -72 -112q-14 5 -40.5 13.5t-105.5 22t-155 13.5
q-82 0 -152.5 -18t-139.5 -63t-124 -115.5t-101.5 -180t-76.5 -252.5t-30.5 -252t24.5 -178.5t75 -113t113 -61t146 -17.5q128 0 242 26l112 531h-335q-6 24 2 63q4 19 10.5 35t11.5 22l4 7h481l-159 -750q-19 -8 -53.5 -19t-143 -29.5t-219.5 -18.5z" />
    <glyph glyph-name="gdotaccent" unicode="&#x121;" horiz-adv-x="1136" 
d="M786 1440l-28 -140q-29 -10 -80 -10q-24 0 -43 2.5t-26 5.5l-7 2l29 140q27 10 80 10q23 0 41.5 -2.5t25.5 -5.5zM707 53l18 74q-122 -147 -354 -147q-84 0 -146.5 33t-102.5 104.5t-44.5 183t26.5 268.5q32 153 81 258.5t115 163.5t139.5 82.5t168.5 24.5
q215 0 281 -162l35 131q18 10 69 10q23 0 41 -2.5t24 -4.5l7 -3l-217 -1014q-31 -148 -75 -250.5t-113 -175t-165.5 -106t-228.5 -33.5q-84 0 -156.5 16t-102.5 32l-30 15q16 67 66 105q105 -43 236 -43q72 0 124.5 10.5t100.5 38.5t83 77.5t65 126.5t55 187zM250 539
q-24 -121 -24 -204.5t29 -134.5t75.5 -73.5t115.5 -22.5q66 0 124 28t98 72.5t67 94.5t39 100l60 275q6 40 6.5 81t-13 80t-36.5 70t-64.5 49.5t-95.5 18.5q-153 0 -242 -98t-139 -336z" />
    <glyph glyph-name="Gcommaaccent" unicode="&#x122;" horiz-adv-x="1284" 
d="M596 -20q-292 0 -405.5 190.5t-34.5 566.5q79 373 274.5 565.5t487.5 192.5q107 0 198 -17t128 -34l38 -17q-15 -65 -72 -112q-14 5 -40.5 13.5t-105.5 22t-155 13.5q-82 0 -152.5 -18t-139.5 -63t-124 -115.5t-101.5 -180t-76.5 -252.5t-30.5 -252t24.5 -178.5t75 -113
t113 -61t146 -17.5q128 0 242 26l112 531h-335q-6 24 2 63q4 19 10.5 35t11.5 22l4 7h481l-159 -750q-19 -8 -53.5 -19t-143 -29.5t-219.5 -18.5zM467 -479l-53 37q3 2 9 7t21.5 22t29.5 36t30 49.5t26 63.5q-18 1 -32.5 3.5t-19.5 4.5l-5 2l29 139q33 11 92 11
q25 0 46.5 -3t30.5 -5l9 -3l-21 -96q-10 -49 -34 -95t-50 -76t-51 -53t-41 -33z" />
    <glyph glyph-name="gcommaaccent" unicode="&#x123;" horiz-adv-x="1136" 
d="M776 1583l51 -33q-3 -2 -8 -6.5t-19.5 -20.5t-27 -33.5t-27.5 -45.5t-24 -58q16 -1 29.5 -3t18.5 -3l5 -2l-29 -131q-28 -6 -81 -6q-24 0 -45 1.5t-30 3.5l-9 1l20 90q10 45 31.5 87t45.5 70t47 49t38 31zM707 53l18 74q-122 -147 -354 -147q-84 0 -146.5 33
t-102.5 104.5t-44.5 183t26.5 268.5q32 153 81 258.5t115 163.5t139.5 82.5t168.5 24.5q215 0 281 -162l35 131q18 10 69 10q23 0 41 -2.5t24 -4.5l7 -3l-217 -1014q-31 -148 -75 -250.5t-113 -175t-165.5 -106t-228.5 -33.5q-84 0 -156.5 16t-102.5 32l-30 15q16 67 66 105
q105 -43 236 -43q72 0 124.5 10.5t100.5 38.5t83 77.5t65 126.5t55 187zM250 539q-24 -121 -24 -204.5t29 -134.5t75.5 -73.5t115.5 -22.5q66 0 124 28t98 72.5t67 94.5t39 100l60 275q6 40 6.5 81t-13 80t-36.5 70t-64.5 49.5t-95.5 18.5q-153 0 -242 -98t-139 -336z" />
    <glyph glyph-name="Hcircumflex" unicode="&#x124;" horiz-adv-x="1396" 
d="M1001 1855l224 -221q-40 -57 -86 -71l-195 161l-260 -161q-47 18 -53 71l317 221h53zM1085 823l138 639q28 13 77 13q22 0 40.5 -3.5t25.5 -6.5l8 -3l-309 -1450q-27 -12 -78 -12q-24 0 -42.5 3t-24.5 6l-7 3l144 676h-692l-144 -676q-29 -12 -78 -12q-24 0 -42.5 3
t-24.5 6l-6 3l309 1450q29 13 78 13q22 0 40 -3.5t25 -6.5l8 -3l-137 -639h692z" />
    <glyph glyph-name="hcircumflex" unicode="&#x125;" horiz-adv-x="1126" 
d="M528 1847l222 -213q-34 -53 -82 -67l-187 155l-248 -155q-47 18 -53 67l297 213h51zM997 762l-159 -752q-29 -10 -76 -10q-23 0 -41 2.5t-25 5.5l-6 2l160 752q47 213 -176 213q-86 0 -174 -50t-152 -137l-166 -778q-27 -10 -76 -10q-23 0 -40.5 2.5t-23.5 5.5l-7 2
l321 1516q25 10 76 10q22 0 40 -2.5t25 -5.5l7 -2l-125 -578q153 150 354 150q150 0 223 -93t41 -243z" />
    <glyph glyph-name="Hbar" unicode="&#x126;" horiz-adv-x="1431" 
d="M1337 1225h154q5 -42 -21 -101h-153l-238 -1112q-27 -12 -78 -12q-24 0 -42.5 3t-24.5 6l-6 3l143 676h-692l-143 -676q-29 -12 -78 -12q-24 0 -42.5 3t-25.5 6l-6 3l238 1112h-134q-6 52 21 101h133l51 237q29 13 78 13q22 0 40.5 -3.5t26.5 -6.5l7 -3l-51 -237h692
l51 237q29 13 78 13q22 0 40.5 -3.5t26.5 -6.5l7 -3zM473 1124l-65 -301h692l65 301h-692z" />
    <glyph glyph-name="hbar" unicode="&#x127;" horiz-adv-x="1126" 
d="M379 948q153 150 354 150q150 0 223 -93t41 -243l-159 -752q-29 -10 -76 -10q-23 0 -41 2.5t-25 5.5l-6 2l160 752q47 213 -176 213q-86 0 -174 -50t-152 -137l-166 -778q-27 -10 -76 -10q-23 0 -40.5 2.5t-23.5 5.5l-7 2l266 1258h-139q-7 54 20 100h142l32 158
q25 10 76 10q22 0 40 -2.5t25 -5.5l7 -2l-35 -158h285q9 -45 -21 -100h-284z" />
    <glyph glyph-name="Itilde" unicode="&#x128;" horiz-adv-x="552" 
d="M625 1663q25 0 50 13.5t37 26.5l13 13q41 -16 41 -63q-2 -7 -23 -27.5t-64.5 -42.5t-88.5 -22q-36 0 -66 10.5t-47 23t-41.5 23t-50.5 10.5t-51 -13t-37 -25l-12 -13q-43 21 -43 63q3 4 8 10t22 21.5t36.5 27.5t49.5 22t62 10q56 0 112 -34t93 -34zM70 12l309 1450
q27 13 78 13q23 0 41 -3.5t25 -6.5l7 -3l-309 -1450q-29 -12 -78 -12q-24 0 -42 3t-25 6z" />
    <glyph glyph-name="itilde" unicode="&#x129;" horiz-adv-x="489" 
d="M502 1380q22 0 44 14.5t33 29.5l11 14q40 -18 37 -68q-53 -92 -135 -92q-46 0 -102 34t-87 34q-22 0 -43.5 -14t-31.5 -28l-11 -14q-43 24 -37 68q6 13 18 30t44 37.5t71 20.5q47 0 103 -33t86 -33zM414 1067l-226 -1057q-26 -10 -75 -10q-24 0 -42 2.5t-24 5.5l-6 2
l225 1057q23 10 76 10q22 0 40 -2.5t25 -4.5z" />
    <glyph glyph-name="Imacron" unicode="&#x12a;" horiz-adv-x="552" 
d="M768 1563h-580q-13 51 23 100h580q12 -44 -23 -100zM70 12l309 1450q27 13 78 13q23 0 41 -3.5t25 -6.5l7 -3l-309 -1450q-29 -12 -78 -12q-24 0 -42 3t-25 6z" />
    <glyph glyph-name="imacron" unicode="&#x12b;" horiz-adv-x="489" 
d="M588 1327h-381q-4 55 20 96h381q3 -51 -20 -96zM414 1067l-226 -1057q-26 -10 -75 -10q-24 0 -42 2.5t-24 5.5l-6 2l225 1057q23 10 76 10q22 0 40 -2.5t25 -4.5z" />
    <glyph glyph-name="Ibreve" unicode="&#x12c;" horiz-adv-x="552" 
d="M803 1714q-5 -5 -14.5 -12.5t-42 -27.5t-67.5 -35t-89.5 -27.5t-110.5 -12.5t-104.5 12t-78.5 28.5t-51.5 33.5t-30.5 29l-9 12q26 54 82 72q9 -8 25.5 -20.5t72.5 -33t119 -20.5t124 18.5t90 37.5l30 18q48 -14 55 -72zM70 12l309 1450q27 13 78 13q23 0 41 -3.5
t25 -6.5l7 -3l-309 -1450q-29 -12 -78 -12q-24 0 -42 3t-25 6z" />
    <glyph glyph-name="ibreve" unicode="&#x12d;" horiz-adv-x="489" 
d="M698 1397q-4 -5 -12.5 -13.5t-38 -29.5t-62 -37t-84 -29.5t-106.5 -13.5q-54 0 -102.5 12.5t-79 31t-53.5 36.5t-33 30l-10 13q27 56 82 71q3 -3 8.5 -8t25.5 -17.5t42.5 -22t58.5 -17.5t74 -8q61 0 120 18.5t88 36.5l29 18q50 -15 53 -71zM414 1067l-226 -1057
q-26 -10 -75 -10q-24 0 -42 2.5t-24 5.5l-6 2l225 1057q23 10 76 10q22 0 40 -2.5t25 -4.5z" />
    <glyph glyph-name="Iogonek" unicode="&#x12e;" horiz-adv-x="552" 
d="M221 12v-2q-225 -55 -256 -188q-10 -51 15.5 -78t74.5 -27q19 0 38 4.5t29 8.5l9 4q21 -18 14 -66q-61 -37 -139 -37q-84 0 -125 47.5t-24 126.5q15 75 72 131.5t143 86.5l307 1439q27 13 78 13q23 0 41 -3.5t25 -6.5l7 -3z" />
    <glyph glyph-name="iogonek" unicode="&#x12f;" horiz-adv-x="489" 
d="M326 1401q29 10 86 10q24 0 44.5 -2.5t29.5 -4.5l8 -3l-31 -150q-31 -10 -86 -10q-25 0 -45.5 2.5t-28.5 4.5l-8 3zM266 1067q23 10 76 10q22 0 40 -2.5t25 -4.5l7 -3l-226 -1057q-88 -28 -145.5 -85t-71.5 -124q-10 -49 15 -68.5t77 -19.5q19 0 38.5 4.5t29.5 8.5l10 4
q10 -10 12.5 -32t-3.5 -42q-60 -35 -136 -35q-89 0 -135.5 42.5t-28.5 121.5q14 67 65 129t126 98z" />
    <glyph glyph-name="Idotaccent" unicode="&#x130;" horiz-adv-x="552" 
d="M430 1737q29 10 84 10q24 0 44.5 -2.5t29.5 -4.5l8 -3l-31 -150q-31 -10 -86 -10q-24 0 -44 2.5t-28 4.5l-8 3zM379 1462q27 13 78 13q23 0 41 -3.5t25 -6.5l7 -3l-309 -1450q-29 -12 -78 -12q-24 0 -42 3t-25 6l-6 3z" />
    <glyph glyph-name="dotlessi" unicode="&#x131;" horiz-adv-x="489" 
d="M414 1067l-226 -1057q-26 -10 -75 -10q-24 0 -42 2.5t-24 5.5l-6 2l225 1057q23 10 76 10q22 0 40 -2.5t25 -4.5z" />
    <glyph glyph-name="IJ" unicode="&#x132;" horiz-adv-x="1349" 
d="M70 12l309 1450q27 13 78 13q23 0 41 -3.5t25 -6.5l7 -3l-309 -1450q-29 -12 -78 -12q-24 0 -42 3t-25 6zM950 356l236 1106q23 13 78 13q22 0 40 -3.5t26 -6.5l7 -3l-235 -1106q-80 -376 -443 -376q-70 0 -139 15t-103 31l-34 15q13 74 68 117q96 -43 213 -43
q234 0 286 241z" />
    <glyph glyph-name="ij" unicode="&#x133;" horiz-adv-x="946" 
d="M508 1460l-33 -149q-31 -11 -86 -11q-25 0 -45.5 3t-28.5 5l-8 3l33 149q29 10 86 10q24 0 44.5 -2.5t29.5 -5.5zM414 1067l-226 -1057q-26 -10 -75 -10q-24 0 -42 2.5t-24 5.5l-6 2l225 1057q23 10 76 10q22 0 40 -2.5t25 -4.5zM963 1464l-33 -149q-31 -12 -84 -12
q-25 0 -45.5 3t-28.5 6l-8 3l33 149q29 11 86 11q24 0 44 -2.5t28 -5.5zM455 -188l268 1255q23 10 76 10q22 0 39.5 -2.5t24.5 -4.5l7 -3l-266 -1247q-35 -165 -126.5 -248.5t-229.5 -83.5q-38 0 -69 4.5t-43 9.5l-11 4q-4 15 0 35q5 23 13.5 42t13.5 27l6 7q31 -8 80 -8
q88 0 142 49t75 154z" />
    <glyph glyph-name="Jcircumflex" unicode="&#x134;" horiz-adv-x="890" 
d="M913 1855l224 -221q-40 -57 -86 -71l-195 161l-260 -161q-47 18 -53 71l317 221h53zM492 356l235 1106q23 13 78 13q23 0 41.5 -3.5t25.5 -6.5l7 -3l-236 -1102q-41 -192 -153 -286t-287 -94q-71 0 -140.5 15t-102.5 31l-34 15q12 73 66 117q96 -43 213 -43
q235 0 287 241z" />
    <glyph glyph-name="jcircumflex" unicode="&#x135;" horiz-adv-x="489" 
d="M455 1481l217 -215q-36 -59 -84 -70l-191 158l-254 -160q-44 17 -53 72l311 215h54zM-2 -188l268 1255q23 10 76 10q22 0 40 -2.5t25 -4.5l7 -3l-267 -1247q-35 -165 -126.5 -248.5t-229.5 -83.5q-38 0 -69 4.5t-42 9.5l-12 4q-4 15 0 35q5 23 13.5 42t14.5 27l5 7
q31 -8 80 -8q88 0 142 49t75 154z" />
    <glyph glyph-name="Kcommaaccent" unicode="&#x136;" horiz-adv-x="1251" 
d="M422 -485l-49 41q9 7 22.5 21.5t43.5 63.5t46 105q-16 1 -29 3.5t-18 4.5l-4 2l31 150q31 10 84 10q24 0 44.5 -2.5t28.5 -5.5l9 -2l-21 -103q-11 -53 -35 -102.5t-49.5 -81.5t-49 -57t-38.5 -36zM604 829l563 633q35 13 95 13q44 0 79 -13l-624 -700l375 -750
q-32 -12 -91 -12q-16 0 -32.5 3t-25.5 6l-9 3l-342 690h-223l-148 -690q-25 -12 -78 -12q-22 0 -40 3t-25 6l-8 3l309 1450q29 13 80 13q22 0 39.5 -3.5t24.5 -6.5l7 -3l-135 -633h209z" />
    <glyph glyph-name="kcommaaccent" unicode="&#x137;" horiz-adv-x="1019" 
d="M281 -483l-50 41q9 7 22.5 21.5t44 63t46.5 103.5q-17 1 -30.5 3.5t-17.5 4.5l-5 2l31 150q31 10 84 10q24 0 44.5 -2.5t28.5 -5.5l8 -2l-20 -103q-11 -53 -34.5 -102t-49 -81t-49 -56.5t-38.5 -35.5zM485 621l385 446q44 10 95 10q20 0 37.5 -2.5t24.5 -4.5l7 -3
l-438 -510l262 -545q-35 -12 -86 -12q-19 0 -37 3t-27 6l-8 3l-229 492h-184l-105 -494q-28 -10 -73 -10q-22 0 -40.5 2.5t-26.5 5.5l-7 2l323 1518q29 8 76 8q19 0 37 -2t27 -4l8 -2l-195 -907h174z" />
    <glyph glyph-name="kgreenlandic" unicode="&#x138;" horiz-adv-x="1036" 
d="M1057 1067l-475 -440l297 -611q-34 -16 -91 -16q-9 0 -17.5 0.5t-14.5 1t-11.5 1.5t-9 2t-6 2t-4 2t-2.5 1.5t-1 1.5h-1l-254 508l-219 -205l-66 -303q-34 -12 -73 -12q-47 0 -74 12l225 1057q31 8 78 8q51 0 70 -8l-115 -539l577 539q36 8 107 8q51 0 80 -10z" />
    <glyph glyph-name="Lacute" unicode="&#x139;" horiz-adv-x="1044" 
d="M762 1833l-316 -285q-62 6 -77 49l274 295q40 3 74.5 -13.5t44.5 -45.5zM68 0l311 1462q29 13 78 13q23 0 41 -3.5t25 -6.5l7 -3l-282 -1329h641q0 -47 -4 -65q-6 -31 -25 -68h-792z" />
    <glyph glyph-name="lacute" unicode="&#x13a;" horiz-adv-x="497" 
d="M723 1876l-317 -285q-63 7 -78 49l276 295q39 3 74 -13.5t45 -45.5zM514 1526l-321 -1516q-27 -10 -76 -10q-24 0 -42 2.5t-24 5.5l-6 2l322 1516q22 10 75 10q22 0 40 -2.5t25 -5.5z" />
    <glyph glyph-name="Lcommaaccent" unicode="&#x13b;" horiz-adv-x="1044" 
d="M68 0l311 1462q29 13 78 13q23 0 41 -3.5t25 -6.5l7 -3l-282 -1329h641q0 -47 -4 -65q-6 -31 -25 -68h-792zM332 -483l-49 41q9 7 22.5 21.5t43.5 63.5t46 105q-16 1 -29.5 3.5t-18.5 4.5l-5 2l31 150q31 10 86 10q24 0 44 -2.5t28 -5.5l8 -2l-21 -103
q-11 -53 -34.5 -102.5t-49 -81.5t-49 -57t-38.5 -36z" />
    <glyph glyph-name="lcommaaccent" unicode="&#x13c;" horiz-adv-x="497" 
d="M516 1526l-321 -1516q-27 -10 -76 -10q-24 0 -42 2.5t-24 5.5l-6 2l322 1516q22 10 75 10q22 0 40 -2.5t25 -5.5zM-25 -483l-49 41q9 7 22.5 21.5t44 63.5t46.5 105q-17 1 -30.5 3.5t-18.5 4.5l-4 2l30 150q31 10 84 10q24 0 44.5 -2.5t29.5 -5.5l8 -2l-20 -103
q-11 -53 -34.5 -102.5t-49 -81.5t-49 -57t-39.5 -36z" />
    <glyph glyph-name="Lcaron" unicode="&#x13d;" horiz-adv-x="1044" 
d="M719 1198q-42 9 -55 45q79 58 124 126.5t68 164.5q88 6 123 -29q-33 -99 -104 -184.5t-156 -122.5zM68 0l311 1462q29 13 78 13q23 0 41 -3.5t25 -6.5l7 -3l-282 -1329h641q0 -47 -4 -65q-6 -31 -25 -68h-792z" />
    <glyph glyph-name="lcaron" unicode="&#x13e;" horiz-adv-x="514" 
d="M614 1192q-50 6 -61 39q75 64 113.5 135.5t50.5 165.5q88 19 127 -14q-24 -100 -86 -191t-144 -135zM514 1526l-321 -1516q-27 -10 -76 -10q-24 0 -42 2.5t-24 5.5l-6 2l322 1516q22 10 75 10q22 0 40 -2.5t25 -5.5z" />
    <glyph glyph-name="Ldot" unicode="&#x13f;" horiz-adv-x="1048" 
d="M68 0l311 1462q29 13 78 13q23 0 41 -3.5t25 -6.5l7 -3l-282 -1329h641q0 -47 -4 -65q-6 -31 -25 -68h-792zM797 752l-29 -134q-29 -12 -78 -12q-23 0 -41.5 3t-25.5 6l-7 3l29 134q27 10 78 10q22 0 40.5 -2.5t26.5 -5.5z" />
    <glyph glyph-name="ldot" unicode="&#x140;" horiz-adv-x="651" 
d="M514 1526l-321 -1516q-27 -10 -76 -10q-24 0 -42 2.5t-24 5.5l-6 2l322 1516q22 10 75 10q22 0 40 -2.5t25 -5.5zM682 752l-29 -134q-29 -12 -78 -12q-24 0 -42 3t-25 6l-6 3l28 134q25 10 78 10q22 0 40.5 -2.5t25.5 -5.5z" />
    <glyph glyph-name="Lslash" unicode="&#x141;" horiz-adv-x="1071" 
d="M408 1462q28 13 77 13q23 0 41.5 -3.5t25.5 -6.5l7 -3l-127 -596l244 127q36 -31 33 -88l-301 -155l-132 -617h642q0 -43 -5 -65q-7 -34 -24 -68h-793l142 662l-142 -72q-36 32 -33 86l199 102z" />
    <glyph glyph-name="lslash" unicode="&#x142;" horiz-adv-x="673" 
d="M446 1526q23 10 76 10q22 0 40 -2.5t25 -5.5l7 -2l-127 -600l186 94q16 -8 25 -37q6 -20 6 -51l-242 -125l-170 -797q-26 -10 -75 -10q-24 0 -42 2.5t-24 5.5l-6 2l151 711l-174 -88q-13 4 -26 37q-12 32 -6 49l231 121z" />
    <glyph glyph-name="Nacute" unicode="&#x143;" horiz-adv-x="1433" 
d="M1206 1833l-315 -285q-63 6 -78 49l274 295q40 3 74.5 -13.5t44.5 -45.5zM924 12l-375 1043q-20 55 -38 113.5t-26 89.5l-8 32h-6q-14 -120 -57 -321l-203 -957q-25 -12 -74 -12q-21 0 -37.5 3t-23.5 6l-6 3l309 1450q35 13 92 13q27 0 49 -3.5t30 -6.5l9 -3l371 -1030
q19 -53 38 -114.5t28 -96.5l10 -35h6q16 140 53 314l205 962q25 13 76 13q22 0 38 -3.5t22 -6.5l5 -3l-309 -1450q-29 -12 -88 -12q-27 0 -49.5 3t-31.5 6z" />
    <glyph glyph-name="nacute" unicode="&#x144;" horiz-adv-x="1126" 
d="M932 1528l-318 -285q-62 6 -77 49l276 295q39 3 74 -13.5t45 -45.5zM997 762l-159 -752q-29 -10 -76 -10q-23 0 -41 2.5t-25 5.5l-6 2l160 752q47 213 -176 213q-86 0 -174 -50t-152 -137l-166 -778q-27 -10 -76 -10q-23 0 -40.5 2.5t-23.5 5.5l-7 2l225 1057
q25 10 76 10q22 0 40 -2.5t25 -4.5l7 -3l-29 -129q163 160 354 160q152 0 224.5 -90.5t39.5 -245.5z" />
    <glyph glyph-name="Ncommaaccent" unicode="&#x145;" horiz-adv-x="1433" 
d="M446 -496l-49 41q3 3 8.5 8t21 23t29 38.5t29 53.5t25.5 68q-16 1 -29 3.5t-17 4.5l-5 2l30 150q31 10 84 10q24 0 44.5 -2.5t28.5 -5.5l9 -2l-20 -103q-11 -53 -35 -102.5t-49.5 -82t-49.5 -57t-39 -35.5zM924 12l-375 1043q-20 55 -38 113.5t-26 89.5l-8 32h-6
q-14 -120 -57 -321l-203 -957q-25 -12 -74 -12q-21 0 -37.5 3t-23.5 6l-6 3l309 1450q35 13 92 13q27 0 49 -3.5t30 -6.5l9 -3l371 -1030q19 -53 38 -114.5t28 -96.5l10 -35h6q16 140 53 314l205 962q25 13 76 13q22 0 38 -3.5t22 -6.5l5 -3l-309 -1450q-29 -12 -88 -12
q-27 0 -49.5 3t-31.5 6z" />
    <glyph glyph-name="ncommaaccent" unicode="&#x146;" horiz-adv-x="1126" 
d="M297 -487l-47 41q8 7 21 21.5t43 63t46 103.5q-16 1 -29.5 3.5t-18.5 4.5l-5 2l33 152q31 10 86 10q24 0 44 -2.5t28 -5.5l8 -2l-23 -105q-11 -53 -34 -101.5t-48.5 -80.5t-49 -57t-39.5 -36zM997 762l-159 -752q-29 -10 -76 -10q-23 0 -41 2.5t-25 5.5l-6 2l160 752
q47 213 -176 213q-86 0 -174 -50t-152 -137l-166 -778q-27 -10 -76 -10q-23 0 -40.5 2.5t-23.5 5.5l-7 2l225 1057q25 10 76 10q22 0 40 -2.5t25 -4.5l7 -3l-29 -129q163 160 354 160q152 0 224.5 -90.5t39.5 -245.5z" />
    <glyph glyph-name="Ncaron" unicode="&#x147;" horiz-adv-x="1433" 
d="M887 1567l-244 217q29 52 86 71l195 -161l258 159q42 -14 55 -69l-297 -217h-53zM924 12l-375 1043q-20 55 -38 113.5t-26 89.5l-8 32h-6q-14 -120 -57 -321l-203 -957q-25 -12 -74 -12q-21 0 -37.5 3t-23.5 6l-6 3l309 1450q35 13 92 13q27 0 49 -3.5t30 -6.5l9 -3
l371 -1030q19 -53 38 -114.5t28 -96.5l10 -35h6q16 140 53 314l205 962q25 13 76 13q22 0 38 -3.5t22 -6.5l5 -3l-309 -1450q-29 -12 -88 -12q-27 0 -49.5 3t-31.5 6z" />
    <glyph glyph-name="ncaron" unicode="&#x148;" horiz-adv-x="1126" 
d="M717 1343l241 148q39 -11 52 -66l-281 -198h-47l-217 198q29 53 78 68zM997 762l-159 -752q-29 -10 -76 -10q-23 0 -41 2.5t-25 5.5l-6 2l160 752q47 213 -176 213q-86 0 -174 -50t-152 -137l-166 -778q-27 -10 -76 -10q-23 0 -40.5 2.5t-23.5 5.5l-7 2l225 1057
q25 10 76 10q22 0 40 -2.5t25 -4.5l7 -3l-29 -129q163 160 354 160q152 0 224.5 -90.5t39.5 -245.5z" />
    <glyph glyph-name="napostrophe" unicode="&#x149;" horiz-adv-x="1126" 
d="M342 1198q-42 9 -55 45q79 58 124 126.5t68 164.5q88 6 123 -29q-33 -99 -104 -184.5t-156 -122.5zM997 762l-159 -752q-29 -10 -76 -10q-23 0 -41 2.5t-25 5.5l-6 2l160 752q47 213 -176 213q-86 0 -174 -50t-152 -137l-166 -778q-27 -10 -76 -10q-23 0 -40.5 2.5
t-23.5 5.5l-7 2l225 1057q25 10 76 10q22 0 40 -2.5t25 -4.5l7 -3l-29 -129q163 160 354 160q152 0 224.5 -90.5t39.5 -245.5z" />
    <glyph glyph-name="Eng" unicode="&#x14a;" horiz-adv-x="1433" 
d="M1270 1462q24 13 73 13q23 0 40 -3.5t23 -6.5l5 -3l-332 -1560q-34 -154 -105 -240t-214 -129q-46 37 -23 111q83 28 127 85t68 171l20 104l-28 8l-377 1043q-20 55 -37.5 111t-25.5 85l-7 29h-6q-14 -110 -57 -311l-203 -957q-25 -12 -74 -12q-22 0 -38.5 3t-22.5 6
l-6 3l309 1450q33 13 92 13q26 0 47.5 -3.5t29.5 -6.5l9 -3l371 -1030q19 -53 38.5 -112t29.5 -92l10 -33h6q16 131 53 305z" />
    <glyph glyph-name="eng" unicode="&#x14b;" horiz-adv-x="1128" 
d="M379 938q163 160 354 160q150 0 223.5 -92t42.5 -240l-184 -864q-32 -153 -104 -239.5t-215 -129.5q-44 38 -25 109q84 28 128 85.5t69 172.5l182 862q47 213 -176 213q-86 0 -174 -50t-152 -137l-166 -778q-27 -10 -76 -10q-23 0 -40.5 2.5t-23.5 5.5l-7 2l225 1057
q25 10 76 10q22 0 40 -2.5t25 -4.5l7 -3z" />
    <glyph glyph-name="Omacron" unicode="&#x14c;" horiz-adv-x="1386" 
d="M647 1741h563q6 -43 -22 -101h-563q-6 50 22 101zM162 764q79 383 257.5 557t450.5 174q267 0 375 -199.5t27 -588.5q-40 -196 -107 -337t-158.5 -226t-201 -124.5t-244.5 -39.5q-268 0 -373.5 197t-25.5 587zM1118 737q30 140 34.5 247t-13.5 179.5t-59 118.5t-97.5 66
t-132.5 20q-96 0 -174.5 -32.5t-148.5 -105t-124.5 -196t-91.5 -297.5q-30 -140 -34 -247t15 -179.5t60 -118.5t97.5 -66t132.5 -20q95 0 174 32.5t148 105t123 196t91 297.5z" />
    <glyph glyph-name="omacron" unicode="&#x14d;" horiz-adv-x="1103" 
d="M467 1421h496q6 -47 -21 -100h-496q-3 50 21 100zM104 573q32 150 82.5 253t121.5 162t153.5 84.5t189.5 25.5q211 0 294 -145.5t20 -442.5q-32 -150 -83 -254t-122.5 -164t-155 -86t-190.5 -26q-210 0 -291.5 147.5t-18.5 445.5zM819 539q21 101 23.5 177t-11 126.5
t-43.5 81.5t-70 44t-95 13q-69 0 -124 -21.5t-104 -71t-86 -136.5t-63 -213q-24 -128 -24.5 -213.5t29.5 -136.5t76 -72t115 -21t123.5 21.5t103.5 71.5t86.5 137t63.5 213z" />
    <glyph glyph-name="Obreve" unicode="&#x14e;" horiz-adv-x="1386" 
d="M928 1733q63 0 123.5 18.5t90.5 36.5l29 18q50 -14 56 -71q-4 -5 -13 -12.5t-38.5 -27.5t-63 -35t-86 -27.5t-108.5 -12.5t-106.5 12t-82.5 29t-55.5 33.5t-33.5 28.5l-11 12q26 53 82 71q3 -3 9 -8t26.5 -17.5t44 -22t61 -17.5t76.5 -8zM162 764q79 383 257.5 557
t450.5 174q267 0 375 -199.5t27 -588.5q-40 -196 -107 -337t-158.5 -226t-201 -124.5t-244.5 -39.5q-268 0 -373.5 197t-25.5 587zM1118 737q30 140 34.5 247t-13.5 179.5t-59 118.5t-97.5 66t-132.5 20q-96 0 -174.5 -32.5t-148.5 -105t-124.5 -196t-91.5 -297.5
q-30 -140 -34 -247t15 -179.5t60 -118.5t97.5 -66t132.5 -20q95 0 174 32.5t148 105t123 196t91 297.5z" />
    <glyph glyph-name="obreve" unicode="&#x14f;" horiz-adv-x="1103" 
d="M713 1401q61 0 120.5 19t88.5 38l30 19q47 -14 54 -74q-5 -5 -13.5 -13t-38 -28.5t-62.5 -36t-85 -28.5t-107 -13q-54 0 -102.5 12.5t-78.5 30t-53 34.5t-32 29l-10 13q27 56 82 74q3 -3 8.5 -8t25 -18.5t41.5 -23.5t58 -18t74 -8zM104 573q32 150 82.5 253t121.5 162
t153.5 84.5t189.5 25.5q211 0 294 -145.5t20 -442.5q-32 -150 -83 -254t-122.5 -164t-155 -86t-190.5 -26q-210 0 -291.5 147.5t-18.5 445.5zM819 539q21 101 23.5 177t-11 126.5t-43.5 81.5t-70 44t-95 13q-69 0 -124 -21.5t-104 -71t-86 -136.5t-63 -213
q-24 -128 -24.5 -213.5t29.5 -136.5t76 -72t115 -21t123.5 21.5t103.5 71.5t86.5 137t63.5 213z" />
    <glyph glyph-name="Ohungarumlaut" unicode="&#x150;" horiz-adv-x="1386" 
d="M659 1606l240 272q40 3 75 -13t48 -44l-287 -262q-62 10 -76 47zM969 1606l241 272q40 3 74.5 -13t46.5 -44l-287 -262q-58 9 -75 47zM162 764q79 383 257.5 557t450.5 174q267 0 375 -199.5t27 -588.5q-40 -196 -107 -337t-158.5 -226t-201 -124.5t-244.5 -39.5
q-268 0 -373.5 197t-25.5 587zM1118 737q30 140 34.5 247t-13.5 179.5t-59 118.5t-97.5 66t-132.5 20q-96 0 -174.5 -32.5t-148.5 -105t-124.5 -196t-91.5 -297.5q-30 -140 -34 -247t15 -179.5t60 -118.5t97.5 -66t132.5 -20q95 0 174 32.5t148 105t123 196t91 297.5z" />
    <glyph glyph-name="ohungarumlaut" unicode="&#x151;" horiz-adv-x="1103" 
d="M479 1282l211 225q37 3 70 -11.5t45 -37.5l-252 -219q-61 10 -74 43zM778 1282l209 225q37 3 71 -11.5t46 -37.5l-252 -219q-61 10 -74 43zM104 573q32 150 82.5 253t121.5 162t153.5 84.5t189.5 25.5q211 0 294 -145.5t20 -442.5q-32 -150 -83 -254t-122.5 -164
t-155 -86t-190.5 -26q-210 0 -291.5 147.5t-18.5 445.5zM819 539q21 101 23.5 177t-11 126.5t-43.5 81.5t-70 44t-95 13q-69 0 -124 -21.5t-104 -71t-86 -136.5t-63 -213q-24 -128 -24.5 -213.5t29.5 -136.5t76 -72t115 -21t123.5 21.5t103.5 71.5t86.5 137t63.5 213z" />
    <glyph glyph-name="OE" unicode="&#x152;" horiz-adv-x="1734" 
d="M162 768q42 196 111.5 337t163.5 226t206 124.5t250 39.5q86 0 172 -20h725q6 -29 -2 -64q-5 -34 -25 -63h-575l-115 -539h473q6 -27 0 -61q-10 -37 -26 -64h-473l-119 -557h596q6 -28 0 -64q-8 -32 -27 -63h-747q-94 -20 -179 -20q-274 0 -382.5 199.5t-26.5 588.5z
M1042 1335q-74 33 -176 33q-99 0 -180.5 -32.5t-153.5 -105t-128 -196t-93 -297.5q-29 -140 -32.5 -247.5t17 -179.5t63.5 -118t102 -66t137 -20q101 0 188 33z" />
    <glyph glyph-name="oe" unicode="&#x153;" horiz-adv-x="1665" 
d="M1516 492h-603q-33 -209 15 -298.5t188 -89.5q64 0 128 16.5t96 33.5l32 16q36 -29 29 -100q-5 -4 -14.5 -10t-42.5 -21.5t-69.5 -27.5t-94 -21.5t-117.5 -9.5q-236 0 -277 221q-137 -221 -380 -221q-207 0 -288 143t-18 440q32 150 83 254.5t121 165.5t152.5 88
t186.5 27q123 0 191 -53.5t90 -170.5q140 224 374 224q176 0 250 -105.5t35 -292.5q-13 -56 -29.5 -108t-27.5 -76zM618 981q-67 0 -120.5 -21.5t-101.5 -71t-86 -137t-64 -212.5q-25 -128 -26.5 -213.5t27 -136.5t72.5 -72t111 -21q136 0 219 98.5t135 346.5q27 127 30 213
t-20.5 135.5t-65.5 70.5t-110 21zM1446 719q24 115 -15.5 186.5t-158.5 71.5q-117 0 -200 -90t-136 -285h475q20 51 35 117z" />
    <glyph glyph-name="Racute" unicode="&#x154;" horiz-adv-x="1282" 
d="M655 1597l275 295q40 3 74.5 -13.5t44.5 -45.5l-316 -285q-63 6 -78 49zM381 1475h508q128 0 213.5 -59.5t115 -160.5t1.5 -227q-32 -152 -129 -247.5t-246 -129.5l217 -639q-33 -12 -90 -12q-25 0 -43.5 3t-24.5 6l-6 3l-203 623h-340l-133 -623q-27 -12 -76 -12
q-24 0 -43 3t-26 6l-6 3zM723 764q131 0 221 76.5t119 214.5q29 137 -28 214t-187 77h-342l-125 -582h342z" />
    <glyph glyph-name="racute" unicode="&#x155;" horiz-adv-x="798" 
d="M434 1292l277 295q39 3 73.5 -13.5t44.5 -45.5l-317 -285q-63 6 -78 49zM375 918q43 56 87 94t85.5 55t73.5 23t69 6q92 0 166 -49q-26 -72 -88 -119q-47 35 -137 35q-69 0 -146 -55.5t-143 -149.5l-160 -748q-25 -10 -76 -10q-23 0 -40.5 2.5t-23.5 5.5l-7 2l225 1057
q25 10 76 10q23 0 41 -2.5t25 -4.5l6 -3z" />
    <glyph glyph-name="Rcommaaccent" unicode="&#x156;" horiz-adv-x="1282" 
d="M424 -92q31 10 84 10q24 0 44.5 -2.5t29.5 -5.5l8 -2l-21 -103q-11 -53 -35 -102.5t-49.5 -81.5t-49 -57t-39.5 -36l-15 -11l-49 41q9 7 22.5 21.5t43.5 63.5t46 105q-16 1 -29 3.5t-17 4.5l-5 2zM381 1475h508q128 0 213.5 -59.5t115 -160.5t1.5 -227
q-32 -152 -129 -247.5t-246 -129.5l217 -639q-33 -12 -90 -12q-25 0 -43.5 3t-24.5 6l-6 3l-203 623h-340l-133 -623q-27 -12 -76 -12q-24 0 -43 3t-26 6l-6 3zM723 764q131 0 221 76.5t119 214.5q29 137 -28 214t-187 77h-342l-125 -582h342z" />
    <glyph glyph-name="rcommaaccent" unicode="&#x157;" horiz-adv-x="798" 
d="M12 -98q31 10 86 10q24 0 44 -2.5t28 -5.5l8 -2l-20 -103q-11 -53 -34.5 -102.5t-49 -81.5t-49 -57t-39.5 -36l-15 -11l-49 40q3 3 8.5 8t21 23t29 38.5t29 53.5t25.5 68q-16 1 -29.5 3.5t-18.5 4.5l-5 2zM377 918q43 56 87 94t85.5 55t73.5 23t69 6q92 0 166 -49
q-26 -72 -88 -119q-47 35 -137 35q-69 0 -146 -55.5t-143 -149.5l-160 -748q-24 -10 -75 -10q-23 0 -41 2.5t-24 5.5l-7 2l225 1057q25 10 76 10q23 0 41 -2.5t25 -4.5l6 -3z" />
    <glyph glyph-name="Rcaron" unicode="&#x158;" horiz-adv-x="1282" 
d="M827 1694l258 159q43 -15 56 -69l-303 -221h-54l-237 221q29 52 86 71zM381 1475h508q128 0 213.5 -59.5t115 -160.5t1.5 -227q-32 -152 -129 -247.5t-246 -129.5l217 -639q-33 -12 -90 -12q-25 0 -43.5 3t-24.5 6l-6 3l-203 623h-340l-133 -623q-27 -12 -76 -12
q-24 0 -43 3t-26 6l-6 3zM723 764q131 0 221 76.5t119 214.5q29 137 -28 214t-187 77h-342l-125 -582h342z" />
    <glyph glyph-name="rcaron" unicode="&#x159;" horiz-adv-x="798" 
d="M573 1356l238 147q36 -13 49 -65l-276 -205h-47l-222 205q28 48 80 67zM375 918q43 56 87 94t85.5 55t73.5 23t69 6q92 0 166 -49q-26 -72 -88 -119q-47 35 -137 35q-69 0 -146 -55.5t-143 -149.5l-160 -748q-25 -10 -76 -10q-23 0 -40.5 2.5t-23.5 5.5l-7 2l225 1057
q25 10 76 10q23 0 41 -2.5t25 -4.5l6 -3z" />
    <glyph glyph-name="Sacute" unicode="&#x15a;" horiz-adv-x="1161" 
d="M1085 1837l-309 -264q-62 10 -74 53l267 277q39 1 72 -18.5t44 -47.5zM231 1120q38 185 181.5 280t382.5 95q105 0 198.5 -13.5t134.5 -27.5l41 -14q-13 -70 -65 -119q-138 43 -316 43q-177 0 -280.5 -70t-130.5 -198q-6 -27 -7.5 -51t6 -45t12.5 -37.5t24.5 -33
t29.5 -27t39.5 -24t42 -20t50.5 -19.5t50.5 -17t56.5 -18q1 0 1.5 -0.5t1.5 -0.5q38 -12 69.5 -25t66 -30.5t61 -38t51.5 -46t41.5 -57t26.5 -68t9.5 -81t-10.5 -95.5q-80 -382 -583 -382q-73 0 -142 8.5t-116 20t-83.5 23.5t-53.5 20l-17 9q18 73 66 121q19 -7 53 -17.5
t129.5 -28t181.5 -17.5q173 0 279 69.5t135 202.5q13 64 0.5 112.5t-51 81t-82 53t-109.5 40.5q-163 55 -231 95q-161 97 -154 271q1 36 10 76z" />
    <glyph glyph-name="sacute" unicode="&#x15b;" horiz-adv-x="907" 
d="M846 1528l-318 -285q-62 6 -77 49l276 295q39 3 74 -13.5t45 -45.5zM154 813q30 138 138 211.5t292 73.5q81 0 147.5 -13t92.5 -25l26 -13q-11 -69 -66 -109q-90 35 -211 35q-120 0 -191.5 -46t-90.5 -134q-9 -42 3 -73.5t50 -55t68 -36t90 -32.5q32 -10 56.5 -20t51 -23
t45.5 -28t37 -34t29 -41.5t17.5 -50t5.5 -61t-9 -72.5q-32 -147 -138.5 -216.5t-295.5 -69.5q-57 0 -110.5 7t-88.5 17t-62 20.5t-40 17.5l-12 7q15 79 65 115q14 -6 38 -15t94 -24.5t134 -15.5q109 0 182.5 45t92.5 137q4 20 4.5 37.5t-4 32.5t-9.5 27t-17 23.5t-21 19.5
t-27 17l-29 14.5t-33.5 13l-34.5 11.5t-36 11q-31 9 -57.5 20t-55 26.5t-49 33.5t-39.5 42t-27 52.5t-12 64t7 76.5z" />
    <glyph glyph-name="Scircumflex" unicode="&#x15c;" horiz-adv-x="1161" 
d="M885 1862l231 -215q-35 -57 -84 -72l-194 162l-260 -162q-47 19 -56 72l309 215h54zM231 1120q38 185 181.5 280t382.5 95q105 0 198.5 -13.5t134.5 -27.5l41 -14q-13 -70 -65 -119q-138 43 -316 43q-177 0 -280.5 -70t-130.5 -198q-6 -27 -7.5 -51t6 -45t12.5 -37.5
t24.5 -33t29.5 -27t39.5 -24t42 -20t50.5 -19.5t50.5 -17t56.5 -18q1 0 1.5 -0.5t1.5 -0.5q38 -12 69.5 -25t66 -30.5t61 -38t51.5 -46t41.5 -57t26.5 -68t9.5 -81t-10.5 -95.5q-80 -382 -583 -382q-73 0 -142 8.5t-116 20t-83.5 23.5t-53.5 20l-17 9q18 73 66 121
q19 -7 53 -17.5t129.5 -28t181.5 -17.5q173 0 279 69.5t135 202.5q13 64 0.5 112.5t-51 81t-82 53t-109.5 40.5q-163 55 -231 95q-161 97 -154 271q1 36 10 76z" />
    <glyph glyph-name="scircumflex" unicode="&#x15d;" horiz-adv-x="907" 
d="M674 1501l227 -211q-39 -56 -82 -69l-190 157l-254 -157q-47 18 -53 69l301 211h51zM154 813q30 138 138 211.5t292 73.5q81 0 147.5 -13t92.5 -25l26 -13q-11 -69 -66 -109q-90 35 -211 35q-120 0 -191.5 -46t-90.5 -134q-9 -42 3 -73.5t50 -55t68 -36t90 -32.5
q32 -10 56.5 -20t51 -23t45.5 -28t37 -34t29 -41.5t17.5 -50t5.5 -61t-9 -72.5q-32 -147 -138.5 -216.5t-295.5 -69.5q-57 0 -110.5 7t-88.5 17t-62 20.5t-40 17.5l-12 7q15 79 65 115q14 -6 38 -15t94 -24.5t134 -15.5q109 0 182.5 45t92.5 137q4 20 4.5 37.5t-4 32.5
t-9.5 27t-17 23.5t-21 19.5t-27 17l-29 14.5t-33.5 13l-34.5 11.5t-36 11q-31 9 -57.5 20t-55 26.5t-49 33.5t-39.5 42t-27 52.5t-12 64t7 76.5z" />
    <glyph glyph-name="Scedilla" unicode="&#x15e;" horiz-adv-x="1161" 
d="M231 1120q38 185 181.5 280t382.5 95q105 0 198.5 -13.5t134.5 -27.5l41 -14q-13 -70 -65 -119q-138 43 -316 43q-177 0 -280.5 -70t-130.5 -198q-6 -27 -7.5 -51t6 -45t12.5 -37.5t24.5 -33t29.5 -27t39.5 -24t42 -20t50.5 -19.5t50.5 -17t56.5 -18q1 0 1.5 -0.5
t1.5 -0.5q38 -12 69.5 -25t66 -30.5t61 -38t51.5 -46t41.5 -57t26.5 -68t9.5 -81t-10.5 -95.5q-74 -361 -530 -380l-39 -101q114 0 162.5 -54t28.5 -142q-21 -98 -97.5 -146.5t-195.5 -48.5q-50 0 -93.5 12t-62.5 24l-18 11q9 48 49 72q66 -33 137 -33q143 0 166 119
q22 106 -105 106h-71l-15 25l62 154q-105 4 -198 24t-134 38l-41 19q18 73 66 121q19 -7 53 -17.5t129.5 -28t181.5 -17.5q173 0 279 69.5t135 202.5q13 64 0.5 112.5t-51 81t-82 53t-109.5 40.5q-163 55 -231 95q-161 97 -154 271q1 36 10 76z" />
    <glyph glyph-name="scedilla" unicode="&#x15f;" horiz-adv-x="907" 
d="M154 813q30 138 138 211.5t292 73.5q81 0 147.5 -13t92.5 -25l26 -13q-11 -69 -66 -109q-90 35 -211 35q-120 0 -191.5 -46t-90.5 -134q-9 -42 3 -73.5t50 -55t68 -36t90 -32.5q32 -10 56.5 -20t51 -23t45.5 -28t37 -34t29 -41.5t17.5 -50t5.5 -61t-9 -72.5
q-31 -138 -126 -207t-261 -77l-39 -99q110 0 152 -51.5t24 -136.5q-40 -189 -274 -189q-49 0 -91.5 12t-60.5 24l-18 12q9 45 49 67q55 -33 131 -33q141 0 164 117q11 48 -14.5 75t-87.5 27h-70l-16 23l61 152q-78 4 -145.5 20.5t-96.5 31.5l-28 15q15 79 65 115
q14 -6 38 -15t94 -24.5t134 -15.5q109 0 182.5 45t92.5 137q4 20 4.5 37.5t-4 32.5t-9.5 27t-17 23.5t-21 19.5t-27 17l-29 14.5t-33.5 13l-34.5 11.5t-36 11q-31 9 -57.5 20t-55 26.5t-49 33.5t-39.5 42t-27 52.5t-12 64t7 76.5z" />
    <glyph glyph-name="Scaron" unicode="&#x160;" horiz-adv-x="1161" 
d="M803 1585l-236 215q33 58 86 72l193 -162l260 160q44 -11 55 -70l-305 -215h-53zM231 1120q38 185 181.5 280t382.5 95q105 0 198.5 -13.5t134.5 -27.5l41 -14q-13 -70 -65 -119q-138 43 -316 43q-177 0 -280.5 -70t-130.5 -198q-6 -27 -7.5 -51t6 -45t12.5 -37.5
t24.5 -33t29.5 -27t39.5 -24t42 -20t50.5 -19.5t50.5 -17t56.5 -18q1 0 1.5 -0.5t1.5 -0.5q38 -12 69.5 -25t66 -30.5t61 -38t51.5 -46t41.5 -57t26.5 -68t9.5 -81t-10.5 -95.5q-80 -382 -583 -382q-73 0 -142 8.5t-116 20t-83.5 23.5t-53.5 20l-17 9q18 73 66 121
q19 -7 53 -17.5t129.5 -28t181.5 -17.5q173 0 279 69.5t135 202.5q13 64 0.5 112.5t-51 81t-82 53t-109.5 40.5q-163 55 -231 95q-161 97 -154 271q1 36 10 76z" />
    <glyph glyph-name="scaron" unicode="&#x161;" horiz-adv-x="907" 
d="M590 1241l-211 201q28 49 78 63l174 -145l235 145q39 -14 49 -63l-276 -201h-49zM154 813q30 138 138 211.5t292 73.5q81 0 147.5 -13t92.5 -25l26 -13q-11 -69 -66 -109q-90 35 -211 35q-120 0 -191.5 -46t-90.5 -134q-9 -42 3 -73.5t50 -55t68 -36t90 -32.5
q32 -10 56.5 -20t51 -23t45.5 -28t37 -34t29 -41.5t17.5 -50t5.5 -61t-9 -72.5q-32 -147 -138.5 -216.5t-295.5 -69.5q-57 0 -110.5 7t-88.5 17t-62 20.5t-40 17.5l-12 7q15 79 65 115q14 -6 38 -15t94 -24.5t134 -15.5q109 0 182.5 45t92.5 137q4 20 4.5 37.5t-4 32.5
t-9.5 27t-17 23.5t-21 19.5t-27 17l-29 14.5t-33.5 13l-34.5 11.5t-36 11q-31 9 -57.5 20t-55 26.5t-49 33.5t-39.5 42t-27 52.5t-12 64t7 76.5z" />
    <glyph glyph-name="Tcommaaccent" unicode="&#x162;" horiz-adv-x="1089" 
d="M244 1475h960q6 -25 -2 -66q-4 -17 -10.5 -34t-11.5 -25l-4 -9h-400l-282 -1329q-29 -12 -78 -12q-24 0 -42.5 3t-25.5 6l-6 3l283 1329h-410q-6 27 2 68q4 17 10.5 33.5t11.5 24.5zM270 -506l-47 41q9 7 22.5 21.5t43.5 63.5t45 104q-16 1 -29.5 3.5t-18.5 4.5l-5 2
l32 149q31 11 86 11q24 0 44 -3t28 -5l8 -3l-22 -102q-11 -53 -34 -101.5t-48.5 -81t-49.5 -57t-39 -35.5z" />
    <glyph glyph-name="Tcommaaccent" unicode="&#x21a;" horiz-adv-x="1089" 
d="M244 1475h960q6 -25 -2 -66q-4 -17 -10.5 -34t-11.5 -25l-4 -9h-400l-282 -1329q-29 -12 -78 -12q-24 0 -42.5 3t-25.5 6l-6 3l283 1329h-410q-6 27 2 68q4 17 10.5 33.5t11.5 24.5zM270 -506l-47 41q9 7 22.5 21.5t43.5 63.5t45 104q-16 1 -29.5 3.5t-18.5 4.5l-5 2
l32 149q31 11 86 11q24 0 44 -3t28 -5l8 -3l-22 -102q-11 -53 -34 -101.5t-48.5 -81t-49.5 -57t-39 -35.5z" />
    <glyph glyph-name="tcommaaccent" unicode="&#x163;" horiz-adv-x="735" 
d="M436 961l-125 -588q-36 -148 -7 -209.5t147 -61.5q23 0 53.5 3t49.5 5l19 3q6 -25 -2 -62q-3 -16 -7.5 -29.5t-7.5 -19.5l-3 -6q-61 -16 -147 -16q-176 0 -230.5 96t-13.5 291l127 594h-160q-6 20 2 57q4 18 9.5 33t9.5 21l4 5h159l41 195q66 40 154 33l-47 -228h293
q6 -20 -2 -57q-4 -16 -9.5 -31t-9.5 -21l-4 -7h-293zM172 -528l-47 39q3 3 8.5 8t20.5 23t28 38t28.5 53t25.5 68q-16 1 -29.5 3.5t-18.5 4.5l-6 2l33 150q31 10 86 10q24 0 44 -2.5t28 -4.5l8 -3l-23 -103q-11 -53 -34.5 -102t-49 -81t-49 -56.5t-38.5 -35.5z" />
    <glyph glyph-name="tcommaaccent" unicode="&#x21b;" horiz-adv-x="735" 
d="M436 961l-125 -588q-36 -148 -7 -209.5t147 -61.5q23 0 53.5 3t49.5 5l19 3q6 -25 -2 -62q-3 -16 -7.5 -29.5t-7.5 -19.5l-3 -6q-61 -16 -147 -16q-176 0 -230.5 96t-13.5 291l127 594h-160q-6 20 2 57q4 18 9.5 33t9.5 21l4 5h159l41 195q66 40 154 33l-47 -228h293
q6 -20 -2 -57q-4 -16 -9.5 -31t-9.5 -21l-4 -7h-293zM172 -528l-47 39q3 3 8.5 8t20.5 23t28 38t28.5 53t25.5 68q-16 1 -29.5 3.5t-18.5 4.5l-6 2l33 150q31 10 86 10q24 0 44 -2.5t28 -4.5l8 -3l-23 -103q-11 -53 -34.5 -102t-49 -81t-49 -56.5t-38.5 -35.5z" />
    <glyph glyph-name="Tcaron" unicode="&#x164;" horiz-adv-x="1089" 
d="M700 1563l-237 221q29 52 86 71l194 -161l258 159q43 -15 56 -69l-303 -221h-54zM244 1475h960q6 -25 -2 -66q-4 -17 -10.5 -34t-11.5 -25l-4 -9h-400l-282 -1329q-29 -12 -78 -12q-24 0 -42.5 3t-25.5 6l-6 3l283 1329h-410q-6 27 2 68q4 17 10.5 33.5t11.5 24.5z" />
    <glyph glyph-name="tcaron" unicode="&#x165;" horiz-adv-x="735" 
d="M725 1198q-42 9 -55 45q79 58 124 126.5t68 164.5q88 6 123 -29q-33 -99 -104 -184.5t-156 -122.5zM436 961l-125 -588q-36 -148 -7 -209.5t147 -61.5q23 0 53.5 3t49.5 5l19 3q6 -25 -2 -62q-3 -16 -7.5 -29.5t-7.5 -19.5l-3 -6q-61 -16 -147 -16q-176 0 -230.5 96
t-13.5 291l127 594h-160q-6 20 2 57q4 18 9.5 33t9.5 21l4 5h159l41 195q66 40 154 33l-47 -228h293q6 -20 -2 -57q-4 -16 -9.5 -31t-9.5 -21l-4 -7h-293z" />
    <glyph glyph-name="Tbar" unicode="&#x166;" horiz-adv-x="1122" 
d="M664 754h268q5 -39 -21 -101h-268l-137 -641q-29 -12 -78 -12q-24 0 -42.5 3t-25.5 6l-6 3l138 641h-254q-3 50 20 101h254l125 587h-410q-6 27 2 68q4 17 10.5 33.5t11.5 24.5l5 8h961q5 -25 -3 -66q-4 -17 -10.5 -34t-11.5 -25l-4 -9h-400z" />
    <glyph glyph-name="tbar" unicode="&#x167;" horiz-adv-x="739" 
d="M455 102q23 0 53.5 3t49.5 5l20 3q5 -25 -3 -62q-3 -16 -7.5 -29.5t-7.5 -19.5l-3 -6q-61 -16 -147 -16q-176 0 -230.5 96t-13.5 291l35 165h-138q0 52 21 99h137l72 330h-160q-6 20 2 57q4 18 9.5 33t9.5 21l4 5h159l41 195q66 40 154 33l-47 -228h293q6 -20 -2 -57
q-4 -16 -9.5 -31t-9.5 -21l-4 -7h-293l-71 -330h219q5 -41 -21 -99h-219l-33 -159q-36 -148 -7 -209.5t147 -61.5z" />
    <glyph glyph-name="Utilde" unicode="&#x168;" horiz-adv-x="1376" 
d="M1026 1733q27 0 52.5 13.5t37.5 27.5l12 14q21 -9 33.5 -27.5t14.5 -40.5q-2 -4 -5.5 -9.5t-17.5 -21t-31 -27t-46 -21t-62 -9.5q-55 0 -123.5 35t-106.5 35q-27 0 -53 -14t-39 -28l-12 -15q-44 21 -47 65q2 4 6 10t19 22t32 28t46.5 22t62.5 10q46 0 86 -17t74 -34.5
t67 -17.5zM1366 1462l-209 -981q-51 -240 -205.5 -370.5t-380.5 -130.5q-231 0 -346 134t-65 367l209 981q28 13 77 13q23 0 41.5 -3.5t25.5 -6.5l7 -3l-213 -1003q-35 -166 37 -258t238 -92q164 0 275.5 92t146.5 258l213 1003q26 13 75 13q22 0 40.5 -3.5t25.5 -6.5z" />
    <glyph glyph-name="utilde" unicode="&#x169;" 
d="M446 1368q2 4 6 10.5t19.5 23t33 29t47 23t62.5 10.5q58 0 126 -34.5t106 -34.5q27 0 53 14.5t39 29.5l12 15q46 -15 49 -70q-2 -4 -6 -10t-19.5 -22.5t-33 -29t-47 -22.5t-62.5 -10q-47 0 -87.5 17.5t-75.5 35t-68 17.5q-27 0 -53.5 -15.5t-39.5 -30.5l-13 -16
q-48 23 -48 70zM92 322l158 745q29 10 76 10q23 0 40.5 -2.5t23.5 -4.5l7 -3l-159 -752q-47 -213 178 -213q83 0 170.5 49.5t152.5 137.5l166 778q27 10 76 10q23 0 41 -2.5t24 -4.5l7 -3l-226 -1057q-14 -10 -65 -10q-22 0 -39.5 2.5t-24.5 5.5l-6 2l13 119
q-149 -149 -351 -149q-150 0 -222.5 96.5t-39.5 245.5z" />
    <glyph glyph-name="Umacron" unicode="&#x16a;" horiz-adv-x="1376" 
d="M1194 1659h-580q-9 49 21 100h579q7 -48 -20 -100zM1366 1462l-209 -981q-51 -240 -205.5 -370.5t-380.5 -130.5q-231 0 -346 134t-65 367l209 981q28 13 77 13q23 0 41.5 -3.5t25.5 -6.5l7 -3l-213 -1003q-35 -166 37 -258t238 -92q164 0 275.5 92t146.5 258l213 1003
q26 13 75 13q22 0 40.5 -3.5t25.5 -6.5z" />
    <glyph glyph-name="umacron" unicode="&#x16b;" 
d="M498 1432h473q8 -38 -21 -95h-473q-6 49 21 95zM92 322l158 745q29 10 76 10q23 0 40.5 -2.5t23.5 -4.5l7 -3l-159 -752q-47 -213 178 -213q83 0 170.5 49.5t152.5 137.5l166 778q27 10 76 10q23 0 41 -2.5t24 -4.5l7 -3l-226 -1057q-14 -10 -65 -10q-22 0 -39.5 2.5
t-24.5 5.5l-6 2l13 119q-149 -149 -351 -149q-150 0 -222.5 96.5t-39.5 245.5z" />
    <glyph glyph-name="Ubreve" unicode="&#x16c;" horiz-adv-x="1376" 
d="M1219 1714q-5 -5 -13.5 -12.5t-38.5 -27.5t-63.5 -35t-86.5 -27.5t-108 -12.5q-56 0 -106.5 12t-82 28.5t-55.5 33.5t-34 29l-10 12q26 53 84 72q9 -8 25.5 -20.5t72.5 -33t119 -20.5t123.5 18.5t90.5 37.5l29 18q51 -15 54 -72zM1366 1462l-209 -981
q-51 -240 -205.5 -370.5t-380.5 -130.5q-231 0 -346 134t-65 367l209 981q28 13 77 13q23 0 41.5 -3.5t25.5 -6.5l7 -3l-213 -1003q-35 -166 37 -258t238 -92q164 0 275.5 92t146.5 258l213 1003q26 13 75 13q22 0 40.5 -3.5t25.5 -6.5z" />
    <glyph glyph-name="ubreve" unicode="&#x16d;" 
d="M702 1397q61 0 121 18.5t89 36.5l30 18q24 -7 38.5 -30.5t14.5 -50.5q-4 -4 -12.5 -11.5t-37 -26.5t-60.5 -33t-83 -26t-106 -12q-54 0 -103 12.5t-80.5 30t-55.5 34.5t-35 29l-10 13q30 56 84 71q3 -3 8.5 -8t24.5 -17.5t41 -22t58 -17.5t74 -8zM92 322l158 745
q29 10 76 10q23 0 40.5 -2.5t23.5 -4.5l7 -3l-159 -752q-47 -213 178 -213q83 0 170.5 49.5t152.5 137.5l166 778q27 10 76 10q23 0 41 -2.5t24 -4.5l7 -3l-226 -1057q-14 -10 -65 -10q-22 0 -39.5 2.5t-24.5 5.5l-6 2l13 119q-149 -149 -351 -149q-150 0 -222.5 96.5
t-39.5 245.5z" />
    <glyph glyph-name="Uring" unicode="&#x16e;" horiz-adv-x="1376" 
d="M903 1567q-106 0 -164.5 60.5t-36.5 164.5t100.5 161.5t176.5 57.5q62 0 113 -23t79 -74.5t13 -121.5q-23 -106 -100.5 -165.5t-180.5 -59.5zM1085 1792q11 57 -18 96t-98 39q-68 0 -113.5 -40t-56.5 -95q-11 -57 16.5 -97t95.5 -40q69 0 116 40.5t58 96.5zM1366 1462
l-209 -981q-51 -240 -205.5 -370.5t-380.5 -130.5q-231 0 -346 134t-65 367l209 981q28 13 77 13q23 0 41.5 -3.5t25.5 -6.5l7 -3l-213 -1003q-35 -166 37 -258t238 -92q164 0 275.5 92t146.5 258l213 1003q26 13 75 13q22 0 40.5 -3.5t25.5 -6.5z" />
    <glyph glyph-name="uring" unicode="&#x16f;" 
d="M492 1436q22 103 104.5 161t181.5 58q97 0 157 -57.5t38 -161.5q-22 -105 -104.5 -165.5t-186.5 -60.5t-158.5 60.5t-31.5 165.5zM874 1436q11 57 -18 96t-98 39q-68 0 -113.5 -40t-56.5 -95q-11 -57 16.5 -97.5t95.5 -40.5q69 0 116 41t58 97zM92 322l158 745
q29 10 76 10q23 0 40.5 -2.5t23.5 -4.5l7 -3l-159 -752q-47 -213 178 -213q83 0 170.5 49.5t152.5 137.5l166 778q27 10 76 10q23 0 41 -2.5t24 -4.5l7 -3l-226 -1057q-14 -10 -65 -10q-22 0 -39.5 2.5t-24.5 5.5l-6 2l13 119q-149 -149 -351 -149q-150 0 -222.5 96.5
t-39.5 245.5z" />
    <glyph glyph-name="Uhungarumlaut" unicode="&#x170;" horiz-adv-x="1376" 
d="M1032 1825l-295 -269q-59 6 -78 48l250 278q41 3 76 -13t47 -44zM1346 1825l-295 -269q-59 6 -78 48l250 278q41 3 76 -13t47 -44zM1366 1462l-209 -981q-51 -240 -205.5 -370.5t-380.5 -130.5q-231 0 -346 134t-65 367l209 981q28 13 77 13q23 0 41.5 -3.5t25.5 -6.5
l7 -3l-213 -1003q-35 -166 37 -258t238 -92q164 0 275.5 92t146.5 258l213 1003q26 13 75 13q22 0 40.5 -3.5t25.5 -6.5z" />
    <glyph glyph-name="uhungarumlaut" unicode="&#x171;" 
d="M827 1503l-292 -262q-55 6 -74 45l250 270q38 3 71 -12t45 -41zM1126 1503l-290 -262q-57 6 -76 45l250 270q37 3 70 -12t46 -41zM92 322l158 745q29 10 76 10q23 0 40.5 -2.5t23.5 -4.5l7 -3l-159 -752q-47 -213 178 -213q83 0 170.5 49.5t152.5 137.5l166 778
q27 10 76 10q23 0 41 -2.5t24 -4.5l7 -3l-226 -1057q-14 -10 -65 -10q-22 0 -39.5 2.5t-24.5 5.5l-6 2l13 119q-149 -149 -351 -149q-150 0 -222.5 96.5t-39.5 245.5z" />
    <glyph glyph-name="Uogonek" unicode="&#x172;" horiz-adv-x="1376" 
d="M1217 1462q26 13 75 13q22 0 40.5 -3.5t25.5 -6.5l8 -3l-209 -981q-38 -181 -136.5 -301t-244.5 -168q-151 -61 -174 -176q-13 -56 14.5 -85.5t83.5 -29.5q21 0 42 4.5t32 9.5l10 5q25 -25 15 -74q-70 -41 -154 -41q-94 0 -139 52.5t-25 140.5q21 95 94 162h-4
q-231 0 -346 134t-65 367l209 981q28 13 77 13q23 0 41.5 -3.5t25.5 -6.5l7 -3l-213 -1003q-35 -166 37 -258t238 -92q164 0 275.5 92t146.5 258z" />
    <glyph glyph-name="uogonek" unicode="&#x173;" horiz-adv-x="1126" 
d="M907 1067q27 10 76 10q23 0 41 -2.5t24 -4.5l7 -3l-228 -1065q-86 -25 -149.5 -79t-77.5 -126q-9 -43 16 -61.5t76 -18.5q19 0 38 3.5t28 7.5l10 4q20 -18 12 -72q-61 -35 -139 -35q-84 0 -126.5 42.5t-27.5 113.5q15 72 69 134t128 97l25 127q-159 -159 -353 -159
q-151 0 -225 84.5t-45 222.5l166 780q29 10 76 10q23 0 40.5 -2.5t23.5 -4.5l7 -3l-159 -752q-47 -213 178 -213q83 0 170.5 49.5t152.5 137.5z" />
    <glyph glyph-name="Wcircumflex" unicode="&#x174;" horiz-adv-x="1955" 
d="M1264 1851l235 -217q-40 -57 -86 -71l-194 161l-261 -161q-47 18 -53 71l305 217h54zM1186 12l-56 1037q-3 81 -1 136t6 83l4 28h-6q-19 -87 -99 -247l-516 -1037q-36 -12 -92 -12q-50 0 -82 12l-111 1450q27 13 78 13q24 0 41.5 -3.5t23.5 -6.5l5 -3l80 -1046
q4 -56 4.5 -115.5t-1.5 -90.5l-1 -32h6q35 111 96 236l525 1048q24 13 77 13q24 0 43 -3.5t26 -6.5l7 -3l62 -1046q3 -67 1 -120t-6 -86l-4 -32h7q36 103 102 236l518 1048q35 13 80 13q20 0 37.5 -3.5t25.5 -6.5l7 -3l-719 -1450q-33 -12 -84 -12q-22 0 -43 3t-31 6z" />
    <glyph glyph-name="wcircumflex" unicode="&#x175;" horiz-adv-x="1619" 
d="M1026 1520l227 -217q-33 -57 -82 -68l-190 156l-254 -158q-40 15 -53 70l301 217h51zM946 10l-59 629q-16 184 -2 272h-6q-29 -91 -127 -272l-338 -629q-45 -10 -80 -10q-30 0 -80 10l-102 1057q22 10 71 10q23 0 39.5 -2.5t21.5 -4.5l5 -3l73 -717q10 -94 3 -186h6
q32 86 84 186l381 717q34 10 79 10q22 0 40 -2.5t25 -4.5l7 -3l64 -713q7 -90 0 -190h6q27 73 88 188l375 715q26 10 69 10q21 0 38.5 -2.5t24.5 -4.5l7 -3l-553 -1057q-58 -10 -82 -10q-20 0 -78 10z" />
    <glyph glyph-name="Ycircumflex" unicode="&#x176;" horiz-adv-x="1273" 
d="M934 1853l233 -219q-34 -56 -86 -71l-192 161l-260 -161q-47 17 -56 71l308 219h53zM1233 1462q47 13 102 13q24 0 45 -3.5t30 -6.5l9 -3l-710 -841l-129 -609q-27 -12 -76 -12q-24 0 -43 3t-26 6l-7 3l129 604l-336 846q33 13 94 13q25 0 42 -3.5t21 -6.5l5 -3l276 -686
z" />
    <glyph glyph-name="ycircumflex" unicode="&#x177;" 
d="M758 1518l225 -215q-33 -57 -82 -68l-190 156l-254 -158q-44 17 -54 70l304 215h51zM907 1067q27 10 76 10q23 0 41 -2.5t24 -4.5l7 -3l-217 -1014q-46 -214 -113.5 -334t-178.5 -175.5t-290 -55.5q-84 0 -156.5 16t-102.5 32l-30 15q16 67 66 105q104 -43 235 -43
q90 0 151 18t113.5 67t89.5 134.5t68 220.5l15 64q-75 -74 -158 -105.5t-191 -31.5q-109 0 -177 47t-87.5 122t0.5 170l160 748q29 10 76 10q23 0 40.5 -2.5t23.5 -4.5l7 -3l-159 -752q-47 -213 178 -213q83 0 170.5 49.5t152.5 137.5z" />
    <glyph glyph-name="Ydieresis" unicode="&#x178;" horiz-adv-x="1273" 
d="M637 1774q27 10 78 10q22 0 40 -2.5t25 -5.5l8 -2l-26 -134q-31 -10 -80 -10q-23 0 -41 2.5t-25 5.5l-6 2zM961 1774q26 10 77 10q22 0 40.5 -2.5t25.5 -5.5l8 -2l-27 -134q-30 -10 -79 -10q-23 0 -41 2.5t-25 5.5l-6 2zM1233 1462q47 13 102 13q24 0 45 -3.5t30 -6.5
l9 -3l-710 -841l-129 -609q-27 -12 -76 -12q-24 0 -43 3t-26 6l-7 3l129 604l-336 846q33 13 94 13q25 0 42 -3.5t21 -6.5l5 -3l276 -686z" />
    <glyph glyph-name="Zacute" unicode="&#x179;" horiz-adv-x="1196" 
d="M698 1610l263 282q40 3 74 -13.5t44 -45.5l-301 -272q-62 10 -80 49zM328 1475h923q7 -20 -2 -66q-8 -38 -26 -70l-1067 -1204h837q4 -24 -4 -65q-9 -46 -24 -70h-1008q0 49 4 70q3 13 25 65l1063 1204h-750q0 51 4 72q5 24 25 64z" />
    <glyph glyph-name="zacute" unicode="&#x17a;" horiz-adv-x="933" 
d="M903 1528l-317 -285q-63 6 -78 49l274 295q39 3 74 -13.5t47 -45.5zM141 125h582q8 -21 -2 -64q-4 -17 -10 -32.5t-11 -22.5l-4 -6h-739q-5 18 4 66q7 36 23 59l755 827h-538q-6 23 2 64q4 18 10 33.5t10 21.5l4 6h697q0 -2 1 -13t0.5 -22t-3.5 -24q-3 -15 -25 -66z" />
    <glyph glyph-name="Zdotaccent" unicode="&#x17b;" horiz-adv-x="1196" 
d="M756 1767q27 9 80 9q23 0 41.5 -2t26.5 -4l7 -3l-28 -139q-29 -10 -80 -10q-24 0 -43 2.5t-26 5.5l-7 2zM328 1475h923q7 -20 -2 -66q-8 -38 -26 -70l-1067 -1204h837q4 -24 -4 -65q-9 -46 -24 -70h-1008q0 49 4 70q3 13 25 65l1063 1204h-750q0 51 4 72q5 24 25 64z" />
    <glyph glyph-name="zdotaccent" unicode="&#x17c;" horiz-adv-x="933" 
d="M743 1454l-30 -139q-29 -10 -80 -10q-24 0 -43 2.5t-26 4.5l-7 3l31 139q27 8 80 8q23 0 41.5 -2t26.5 -4zM141 125h582q8 -21 -2 -64q-4 -17 -10 -32.5t-11 -22.5l-4 -6h-739q-5 18 4 66q7 36 23 59l755 827h-538q-6 23 2 64q4 18 10 33.5t10 21.5l4 6h697q0 -2 1 -13
t0.5 -22t-3.5 -24q-3 -15 -25 -66z" />
    <glyph glyph-name="Zcaron" unicode="&#x17d;" horiz-adv-x="1196" 
d="M817 1706l258 160q41 -14 55 -70l-305 -219h-53l-235 219q29 54 86 72zM328 1475h923q7 -20 -2 -66q-8 -38 -26 -70l-1067 -1204h837q4 -24 -4 -65q-9 -46 -24 -70h-1008q0 49 4 70q3 13 25 65l1063 1204h-750q0 51 4 72q5 24 25 64z" />
    <glyph glyph-name="zcaron" unicode="&#x17e;" horiz-adv-x="933" 
d="M602 1233l-213 201q31 48 78 65l174 -147l236 145q35 -11 49 -63l-277 -201h-47zM141 125h582q8 -21 -2 -64q-4 -17 -10 -32.5t-11 -22.5l-4 -6h-739q-4 26 4 66q5 22 23 59l755 827h-538q-6 23 2 64q4 18 10 33.5t10 21.5l4 6h697q0 -2 1 -13t0.5 -22t-3.5 -24
q-3 -15 -25 -66z" />
    <glyph glyph-name="longs" unicode="&#x17f;" horiz-adv-x="571" 
d="M489 1210l-256 -1200q-24 -10 -75 -10q-23 0 -41 2.5t-25 5.5l-6 2l203 951h-146q0 58 25 116h145l27 123q33 162 124.5 249t268.5 87q55 0 105.5 -9t73.5 -17l24 -9q-15 -65 -64 -108q-57 22 -151 22q-107 0 -158.5 -52t-73.5 -153z" />
    <glyph glyph-name="florin" unicode="&#x192;" horiz-adv-x="925" 
d="M547 834l-248 -807q-52 -161 -141 -238.5t-236 -77.5q-49 0 -95 10.5t-67 21.5l-22 11q13 62 61 99q60 -23 140 -23q79 0 131 43t84 147l252 814h-183q-4 20 2 57q4 15 9.5 28t9.5 19l4 6h192l49 156q51 162 137.5 238.5t233.5 76.5q53 0 99.5 -9.5t66.5 -18.5l21 -9
q-11 -56 -58 -100q-63 22 -145 22q-79 0 -128.5 -44.5t-82.5 -151.5l-49 -160h190q6 -20 -2 -55q-3 -16 -8.5 -29.5t-9.5 -19.5l-4 -6h-203z" />
    <glyph glyph-name="Aringacute" unicode="&#x1fa;" horiz-adv-x="1323" 
d="M1227 2111l-285 -213q-58 11 -74 37l246 222q36 3 69 -11t44 -35zM930 1423l227 -1411q-29 -12 -86 -12q-22 0 -37 3t-20 6l-4 3l-64 391h-653l-230 -391q-27 -12 -90 -12q-22 0 -39 3t-24 6l-6 3l825 1407q-61 19 -89 71.5t-11 129.5q22 102 105.5 160.5t180.5 58.5
t157 -58t38 -161q-17 -74 -65.5 -125t-114.5 -72zM1014 1620q11 56 -19 94.5t-100 38.5q-68 0 -113.5 -39t-56.5 -94q-11 -57 17 -97t96 -40q69 0 117 41t59 96zM928 530l-101 648q-5 36 -7.5 71.5t-2.5 52.5v17h-6q-25 -61 -72 -141l-374 -648h563z" />
    <glyph glyph-name="aringacute" unicode="&#x1fb;" horiz-adv-x="1134" 
d="M659 1686l246 221q36 3 69 -10.5t44 -34.5l-289 -220q-49 9 -70 44zM489 1391q18 97 96.5 151.5t174.5 54.5q60 0 108 -22t75 -70.5t15 -113.5q-17 -99 -95 -156t-179 -57t-156.5 56.5t-38.5 156.5zM858 1391q11 49 -17 84.5t-93 35.5q-62 0 -105 -36t-53 -84
q-10 -52 16 -88.5t88 -36.5q65 0 109.5 37t54.5 88zM934 1067q14 10 65 10q23 0 39.5 -2.5t21.5 -4.5l5 -3l-225 -1057q-27 -10 -64 -10q-17 0 -32 2.5t-21 5.5l-6 2l14 131q-126 -161 -346 -161q-403 0 -279 591q26 123 63.5 215t82 151t102 95.5t118.5 51t136 14.5
q222 0 287 -166zM834 672q15 77 -2.5 144.5t-72 112t-136.5 44.5q-152 0 -237.5 -97t-135.5 -337q-51 -243 -8 -339t194 -96q124 0 219.5 92.5t120.5 213.5z" />
    <glyph glyph-name="AEacute" unicode="&#x1fc;" horiz-adv-x="1751" 
d="M1655 1845l-316 -284q-62 6 -77 49l272 295q40 3 74.5 -14t46.5 -46zM1087 1475h719q14 -56 -26 -127h-570l-114 -539h467q10 -65 -27 -127h-467l-119 -555h590q6 -31 -1 -66t-26 -61h-716l82 389h-512l-306 -377q-38 -12 -94 -12q-54 0 -78 12zM471 516h436l164 758z
" />
    <glyph glyph-name="aeacute" unicode="&#x1fd;" horiz-adv-x="1619" 
d="M1225 1458l-318 -284q-62 6 -80 49l277 295q39 3 74 -14t47 -46zM1270 1098q176 0 242 -102t26 -291q-11 -50 -27.5 -99.5t-26.5 -73.5l-11 -24h-596q-33 -208 16.5 -306t183.5 -98q65 0 127 16.5t92 33.5l29 16q36 -31 29 -100q-5 -4 -14 -10t-40.5 -21.5t-66 -27.5
t-90 -21.5t-113.5 -9.5q-183 0 -229 163l-37 -133q-13 -10 -55 -10q-17 0 -31 2.5t-20 5.5l-5 2l15 121q-62 -79 -135.5 -115t-184.5 -36q-77 0 -134.5 33t-95 104.5t-41.5 183t27 268.5q111 529 465 529q116 0 177.5 -39t89.5 -127l38 135q15 10 66 10q16 0 29 -2.5
t19 -4.5l5 -3l-22 -125q139 156 299 156zM899 618h479q13 35 27 101q13 52 9 99t-21.5 82t-58 56t-99.5 21q-112 0 -199 -85.5t-137 -273.5zM723 410l53 245q14 59 7 116t-28 102t-64 72.5t-99 27.5q-125 0 -210 -100.5t-134 -333.5q-26 -119 -27 -204t22 -135t63.5 -73
t101.5 -23q122 0 205.5 90.5t109.5 215.5z" />
    <glyph glyph-name="Oslashacute" unicode="&#x1fe;" horiz-adv-x="1384" 
d="M1178 1860l-318 -285q-63 6 -78 49l275 295q39 3 74 -13.5t47 -45.5zM1380 1513l-153 -190q130 -199 43 -616q-40 -196 -107 -337t-158.5 -226t-201 -124.5t-244.5 -39.5q-201 0 -309 108l-141 -182q-64 6 -99 53l174 221q-103 196 -24 584q79 383 257.5 557t450.5 174
q181 0 287 -90l127 162q63 -6 98 -54zM848 1368q-96 0 -174.5 -32.5t-148.5 -105t-124.5 -196t-91.5 -297.5q-60 -276 -18 -430l774 989q-75 72 -217 72zM580 106q95 0 174 32.5t148 105t123 196t91 297.5q66 311 10 461l-784 -997q74 -95 238 -95z" />
    <glyph glyph-name="oslashacute" unicode="&#x1ff;" horiz-adv-x="1101" 
d="M918 1528l-318 -285q-63 6 -78 49l277 295q39 3 74 -13.5t45 -45.5zM1059 1122l-125 -155q95 -149 29 -457q-32 -150 -83 -254t-122.5 -164t-155 -86t-190.5 -26q-136 0 -213 57l-105 -129q-53 3 -82 47l121 151q-97 151 -31 467q32 150 82.5 253t121.5 162t153.5 84.5
t189.5 25.5q138 0 221 -62l105 133q55 -6 84 -47zM621 981q-69 0 -124 -21.5t-104 -71t-86 -136.5t-63 -213q-42 -204 -11 -310l549 699q-53 53 -161 53zM440 96q69 0 123.5 21.5t103.5 71.5t86.5 137t63.5 213q39 194 12 297l-544 -693q52 -47 155 -47z" />
    <glyph glyph-name="Scommaaccent" unicode="&#x218;" horiz-adv-x="1161" 
d="M299 -506l-47 41q3 3 8.5 8t20.5 23t28.5 38.5t28.5 53t24 66.5q-16 1 -29.5 3.5t-18.5 4.5l-5 2l33 149q31 11 86 11q24 0 44 -3t28 -5l8 -3l-23 -102q-11 -53 -34 -101.5t-48.5 -81t-49 -57t-39.5 -35.5zM231 1120q38 185 181.5 280t382.5 95q105 0 198.5 -13.5
t134.5 -27.5l41 -14q-13 -70 -65 -119q-138 43 -316 43q-177 0 -280.5 -70t-130.5 -198q-6 -27 -7.5 -51t6 -45t12.5 -37.5t24.5 -33t29.5 -27t39.5 -24t42 -20t50.5 -19.5t50.5 -17t56.5 -18q1 0 1.5 -0.5t1.5 -0.5q38 -12 69.5 -25t66 -30.5t61 -38t51.5 -46t41.5 -57
t26.5 -68t9.5 -81t-10.5 -95.5q-80 -382 -583 -382q-73 0 -142 8.5t-116 20t-83.5 23.5t-53.5 20l-17 9q18 73 66 121q19 -7 53 -17.5t129.5 -28t181.5 -17.5q173 0 279 69.5t135 202.5q13 64 0.5 112.5t-51 81t-82 53t-109.5 40.5q-163 55 -231 95q-161 97 -154 271
q1 36 10 76z" />
    <glyph glyph-name="scommaaccent" unicode="&#x219;" horiz-adv-x="907" 
d="M170 -528l-47 39q8 7 21.5 21.5t43 63.5t45.5 105q-16 1 -29 3.5t-18 4.5l-6 2l33 150q31 10 86 10q24 0 44 -2.5t28 -4.5l8 -3l-23 -103q-11 -53 -34.5 -102t-49 -81t-49 -56.5t-38.5 -35.5zM154 813q30 138 138 211.5t292 73.5q81 0 147.5 -13t92.5 -25l26 -13
q-11 -69 -66 -109q-90 35 -211 35q-120 0 -191.5 -46t-90.5 -134q-9 -42 3 -73.5t50 -55t68 -36t90 -32.5q32 -10 56.5 -20t51 -23t45.5 -28t37 -34t29 -41.5t17.5 -50t5.5 -61t-9 -72.5q-32 -147 -138.5 -216.5t-295.5 -69.5q-57 0 -110.5 7t-88.5 17t-62 20.5t-40 17.5
l-12 7q15 79 65 115q14 -6 38 -15t94 -24.5t134 -15.5q109 0 182.5 45t92.5 137q4 20 4.5 37.5t-4 32.5t-9.5 27t-17 23.5t-21 19.5t-27 17l-29 14.5t-33.5 13l-34.5 11.5t-36 11q-31 9 -57.5 20t-55 26.5t-49 33.5t-39.5 42t-27 52.5t-12 64t7 76.5z" />
    <glyph glyph-name="dotlessj" unicode="&#x237;" horiz-adv-x="489" 
d="M-2 -188l268 1255q23 10 76 10q22 0 40 -2.5t25 -4.5l7 -3l-267 -1247q-35 -165 -126.5 -248.5t-229.5 -83.5q-38 0 -69 4.5t-42 9.5l-12 4q-4 15 0 35q5 23 13.5 42t14.5 27l5 7q31 -8 80 -8q88 0 142 49t75 154z" />
    <glyph glyph-name="circumflex" unicode="&#x2c6;" horiz-adv-x="811" 
d="M426 1442l223 -221q-41 -59 -86 -70l-194 160l-260 -162q-48 18 -54 72l318 221h53z" />
    <glyph glyph-name="caron" unicode="&#x2c7;" horiz-adv-x="827" 
d="M305 1126l-223 222q28 55 84 71l194 -162l261 160q41 -11 55 -69l-318 -222h-53z" />
    <glyph glyph-name="breve" unicode="&#x2d8;" horiz-adv-x="663" 
d="M598 1380q-5 -5 -14.5 -13.5t-41 -29.5t-66 -37t-87.5 -29.5t-108 -13.5q-54 0 -101 12.5t-76 30.5t-50 36.5t-30 31.5l-8 12q31 57 84 74q3 -3 8.5 -8t25 -18.5t41.5 -23.5t58 -18t74 -8q61 0 121 19t90 38l29 19q48 -17 51 -74z" />
    <glyph glyph-name="dotaccent" unicode="&#x2d9;" horiz-adv-x="360" 
d="M238 1384l-31 -139q-29 -10 -80 -10q-24 0 -43 2.5t-26 4.5l-7 3l31 139q27 11 80 11q23 0 42 -2.5t26 -5.5z" />
    <glyph glyph-name="ring" unicode="&#x2da;" horiz-adv-x="704" 
d="M254 1034q-104 0 -157.5 60.5t-30.5 165.5q22 103 103.5 161t180.5 58q62 0 111 -23.5t75 -74.5t11 -121q-22 -105 -105.5 -165.5t-187.5 -60.5zM449 1260q11 57 -18 96t-99 39q-68 0 -113.5 -40t-56.5 -95q-13 -57 14.5 -97.5t95.5 -40.5q69 0 117.5 41.5t59.5 96.5z
" />
    <glyph glyph-name="ogonek" unicode="&#x2db;" horiz-adv-x="579" 
d="M-47 -342q21 -18 14 -66q-63 -36 -139 -36q-85 0 -126 47.5t-24 126.5q23 106 122 172t243 75v-43q-226 -55 -254 -188q-12 -51 13 -77.5t75 -26.5q19 0 38 4t29 8z" />
    <glyph glyph-name="tilde" unicode="&#x2dc;" horiz-adv-x="669" 
d="M446 1370q26 0 52.5 15t39.5 30l13 15q22 -9 34.5 -28t12.5 -42q-3 -4 -8.5 -10.5t-24 -23t-38.5 -29t-51.5 -23t-63.5 -10.5q-47 0 -82.5 18t-65 35.5t-61.5 17.5q-27 0 -54.5 -15.5t-40.5 -30.5l-14 -15q-47 24 -47 69q3 4 8.5 10.5t24.5 23t39 29.5t52 23.5t65 10.5
q37 0 67.5 -11t48 -24t42.5 -24t52 -11z" />
    <glyph glyph-name="hungarumlaut" unicode="&#x2dd;" horiz-adv-x="790" 
d="M416 1595l-318 -284q-62 6 -80 49l269 295q42 3 79 -14t50 -46zM739 1595l-317 -284q-63 6 -78 49l268 295q41 3 77.5 -14t49.5 -46z" />
    <glyph glyph-name="pi" unicode="&#x3c0;" horiz-adv-x="1249" 
d="M506 1077h758q4 -35 -4 -61q-6 -33 -23 -64h-147l-101 -467q-20 -93 -30 -173.5t-10.5 -129t2 -84t6.5 -49.5l4 -14q-41 -35 -111 -35q-36 0 -49 8q-4 13 -8 41.5t4.5 150.5t42.5 283l100 469h-502l-200 -940q-25 -12 -76 -12q-22 0 -40 3t-25 6l-7 3l199 934
q-40 -4 -76.5 -9.5t-52.5 -8.5l-17 -4q-3 31 2 63q11 44 25 62q107 28 336 28z" />
    <glyph glyph-name="uni0401" unicode="&#x401;" horiz-adv-x="1138" 
d="M631 1772q27 10 78 10q22 0 40 -2.5t25 -5.5l8 -2l-28 -134q-29 -10 -78 -10q-23 0 -41.5 2.5t-25.5 5.5l-7 2zM954 1772q27 10 78 10q22 0 40.5 -2.5t25.5 -5.5l8 -2l-29 -134q-29 -10 -78 -10q-23 0 -41 2.5t-25 5.5l-7 2zM381 1475h813q4 -37 0 -62q-9 -38 -27 -65
h-661l-115 -539h559q4 -38 0 -59q-9 -38 -26 -66h-559l-119 -557h682q4 -37 0 -61q-10 -37 -27 -66h-833z" />
    <glyph glyph-name="uni0410" unicode="&#x410;" horiz-adv-x="1323" 
d="M756 1462q35 13 86 13q24 0 44.5 -3.5t29.5 -6.5l8 -3l233 -1450q-29 -12 -86 -12q-17 0 -32.5 3t-22.5 6l-6 3l-64 391h-653l-230 -391q-27 -12 -90 -12q-22 0 -39 3t-24 6l-6 3zM815 1313h-6q-25 -62 -72 -142l-372 -641h563l-103 641q-5 36 -7.5 71.5t-2.5 53.5v17z
" />
    <glyph glyph-name="uni0411" unicode="&#x411;" horiz-adv-x="1261" 
d="M381 1475h813q6 -25 -2 -68q-4 -17 -10.5 -33.5t-11.5 -24.5l-5 -8h-661l-105 -495h389q190 0 279 -127.5t47 -321.5q-39 -189 -174.5 -293t-331.5 -104h-540zM373 725l-127 -604h362q142 0 234.5 81.5t122.5 221.5q30 141 -29 221t-201 80h-362z" />
    <glyph glyph-name="uni0412" unicode="&#x412;" horiz-adv-x="1286" 
d="M381 1475h510q82 0 145 -23t99.5 -63t58.5 -94t21.5 -116t-11.5 -128q-14 -69 -46 -126t-70.5 -92.5t-72.5 -57t-65 -32.5q23 -5 48 -20t53 -44t44.5 -70.5t23 -99.5t-10.5 -132q-79 -377 -512 -377h-528zM389 805h336q275 0 334 274q58 273 -219 273h-334zM246 123h350
q162 0 249 71.5t116 208.5q31 146 -29 214.5t-217 68.5h-350z" />
    <glyph glyph-name="uni0413" unicode="&#x413;" horiz-adv-x="1028" 
d="M381 1475h766q6 -25 -2 -66q-4 -16 -10.5 -33t-11.5 -26l-5 -9h-614l-283 -1329q-29 -12 -78 -12q-22 0 -40 3t-25 6l-8 3z" />
    <glyph glyph-name="uni0414" unicode="&#x414;" horiz-adv-x="1411" 
d="M1047 127h159l-86 -410q-32 -12 -71 -12q-40 0 -68 12l59 283h-993l-59 -283q-36 -12 -74 -12t-66 12l86 410h121q84 75 156 227.5t143 397.5l209 723h770zM674 1356l-176 -617q-127 -435 -271 -612h668l262 1229h-483z" />
    <glyph glyph-name="uni0415" unicode="&#x415;" horiz-adv-x="1138" 
d="M381 1475h813q6 -26 0 -62q-9 -38 -27 -65h-661l-115 -537h559q6 -27 0 -61q-10 -37 -26 -64h-559l-119 -559h682q6 -27 0 -61q-10 -37 -27 -66h-833z" />
    <glyph glyph-name="uni0416" unicode="&#x416;" horiz-adv-x="1910" 
d="M1833 1462q30 13 86 13q43 0 78 -13l-590 -702l344 -748q-33 -12 -92 -12q-25 0 -45 3t-28 6l-7 3l-301 690h-225l-148 -690q-25 -12 -78 -12q-22 0 -40 3t-25 6l-8 3l147 690h-225l-594 -690q-33 -12 -88 -12q-26 0 -47.5 3t-30.5 6l-8 3l665 787l-294 663q35 13 81 13
t76 -13l275 -635h217l135 635q29 13 78 13q23 0 41 -3.5t25 -6.5l7 -3l-135 -635h215z" />
    <glyph glyph-name="uni0417" unicode="&#x417;" horiz-adv-x="1118" 
d="M268 1425q19 8 53 19.5t137 31t204 19.5q226 0 324 -114t58 -300q-51 -246 -290 -336l-2 -4q17 -6 33 -14t37 -20.5t38 -29t34.5 -37.5t29 -49t19 -60t6.5 -73t-11 -87q-39 -183 -190 -287t-429 -104q-108 0 -199 16.5t-128 32.5l-37 16q5 33 23.5 64.5t44.5 50.5
q133 -45 305 -45q203 0 316 73t142 207q8 46 9.5 83t-10 66t-26 51t-40 38t-51.5 26.5t-60.5 17t-68 9t-72.5 2.5h-125q-10 71 29 129h125q56 0 104 7t97 25.5t86.5 49t67.5 81t44 116.5q28 130 -45 199t-232 69q-80 0 -161 -13t-123 -25l-41 -13q-39 45 -25 112z" />
    <glyph glyph-name="uni0418" unicode="&#x418;" horiz-adv-x="1417" 
d="M1219 1462q29 13 90 13q27 0 48.5 -3.5t29.5 -6.5l8 -3l-310 -1450q-26 -12 -77 -12q-24 0 -42.5 3t-25.5 6l-6 3l180 850q28 129 52.5 230t35.5 138l10 36h-6q-49 -91 -215 -314l-741 -940l-4 -1q-5 -1 -13 -3t-18.5 -4t-26 -3t-32.5 -1q-28 0 -49.5 3t-28.5 6l-8 3
l309 1450q27 13 78 13q23 0 41 -3.5t25 -6.5l7 -3l-182 -858q-23 -108 -48 -209.5t-38 -149.5l-14 -48h6q49 93 231 335z" />
    <glyph glyph-name="uni0419" unicode="&#x419;" horiz-adv-x="1417" 
d="M952 1794q64 0 129.5 19t98.5 38l34 19q24 -7 39 -29t17 -49q-5 -5 -14.5 -13t-42.5 -29t-68.5 -37t-91.5 -29t-113 -13t-109 12.5t-86.5 30.5t-60.5 35.5t-38 30.5l-11 12q36 63 88 78q4 -3 10.5 -8t29.5 -18.5t47.5 -23.5t63.5 -18t78 -8zM1219 1462q29 13 90 13
q27 0 48.5 -3.5t29.5 -6.5l8 -3l-310 -1450q-26 -12 -77 -12q-24 0 -42.5 3t-25.5 6l-6 3l180 850q28 129 52.5 230t35.5 138l10 36h-6q-49 -91 -215 -314l-741 -940l-4 -1q-5 -1 -13 -3t-18.5 -4t-26 -3t-32.5 -1q-28 0 -49.5 3t-28.5 6l-8 3l309 1450q27 13 78 13
q23 0 41 -3.5t25 -6.5l7 -3l-182 -858q-23 -108 -48 -209.5t-38 -149.5l-14 -48h6q49 93 231 335z" />
    <glyph glyph-name="uni041A" unicode="&#x41a;" horiz-adv-x="1251" 
d="M604 829l563 633q35 13 95 13q44 0 79 -13l-624 -700l375 -750q-32 -12 -91 -12q-16 0 -32.5 3t-25.5 6l-9 3l-342 690h-223l-148 -690q-25 -12 -78 -12q-22 0 -40 3t-25 6l-8 3l309 1450q29 13 80 13q22 0 39.5 -3.5t24.5 -6.5l7 -3l-135 -633h209z" />
    <glyph glyph-name="uni041B" unicode="&#x41b;" horiz-adv-x="1361" 
d="M-4 -12q-48 0 -80 14q-6 19 0 55q4 23 25 60q4 0 14.5 -0.5t21 -0.5t21.5 1q29 1 53.5 11t65.5 51t80 111.5t91 204.5t105 318l193 662h755l-311 -1463q-29 -12 -78 -12q-56 0 -73 12l284 1340h-469l-155 -543q-45 -156 -92 -281.5t-88 -209.5t-84.5 -146.5t-79 -97
t-74 -54.5t-66 -26t-59.5 -6z" />
    <glyph glyph-name="uni041C" unicode="&#x41c;" horiz-adv-x="1726" 
d="M1505 1462q50 13 101 13q27 0 51.5 -3.5t35.5 -6.5l11 -3l-309 -1450q-29 -12 -78 -12q-22 0 -40.5 3t-26.5 6l-7 3l184 869q76 342 99 409h-6q-54 -98 -203 -301l-471 -606q-22 -8 -53 -8q-13 0 -24 2t-16 4l-5 2l-201 602q-73 227 -76 305h-6q0 -76 -70 -399l-186 -879
q-25 -12 -72 -12q-20 0 -36.5 3t-23.5 6l-7 3l309 1450q31 13 88 13q22 0 42 -3.5t29 -6.5l9 -3l278 -893h6z" />
    <glyph glyph-name="uni041D" unicode="&#x41d;" horiz-adv-x="1396" 
d="M1085 823l138 639q28 13 77 13q22 0 40.5 -3.5t25.5 -6.5l8 -3l-309 -1450q-27 -12 -78 -12q-24 0 -42.5 3t-24.5 6l-7 3l144 676h-692l-144 -676q-29 -12 -78 -12q-24 0 -42.5 3t-24.5 6l-6 3l309 1450q29 13 78 13q22 0 40 -3.5t25 -6.5l8 -3l-137 -639h692z" />
    <glyph glyph-name="uni041E" unicode="&#x41e;" horiz-adv-x="1386" 
d="M162 764q79 383 257.5 557t450.5 174q267 0 375 -199.5t27 -588.5q-40 -196 -107 -337t-158.5 -226t-201 -124.5t-244.5 -39.5q-268 0 -373.5 197t-25.5 587zM1118 737q30 140 34.5 247t-13.5 179.5t-59 118.5t-97.5 66t-132.5 20q-96 0 -174.5 -32.5t-148.5 -105
t-124.5 -196t-91.5 -297.5q-30 -140 -34 -247t15 -179.5t60 -118.5t97.5 -66t132.5 -20q95 0 174 32.5t148 105t123 196t91 297.5z" />
    <glyph glyph-name="uni041F" unicode="&#x41f;" horiz-adv-x="1372" 
d="M1352 1475l-312 -1463q-28 -12 -75 -12q-24 0 -43 3t-26 6l-7 3l282 1329h-667l-283 -1329q-29 -12 -78 -12q-24 0 -42 3t-25 6l-6 3l311 1463h971z" />
    <glyph glyph-name="uni0420" unicode="&#x420;" horiz-adv-x="1232" 
d="M346 598l-125 -586q-27 -12 -76 -12q-24 0 -43 3t-26 6l-6 3l311 1463h518q127 0 210.5 -64t110.5 -171t-1 -239q-41 -193 -174.5 -298t-331.5 -105h-367zM375 729h352q132 0 222 81.5t120 223.5q31 147 -23.5 229.5t-187.5 82.5h-352z" />
    <glyph glyph-name="uni0421" unicode="&#x421;" horiz-adv-x="1140" 
d="M154 737q80 376 265 567t470 191q99 0 181.5 -17t115.5 -34l33 -17q-10 -63 -72 -114q-12 6 -33.5 14.5t-91.5 22.5t-143 14q-80 0 -147.5 -18t-132 -62.5t-116.5 -115.5t-95.5 -180t-74.5 -253t-33 -252t19.5 -177.5t67.5 -112.5t105.5 -60.5t139.5 -17.5t158.5 12.5
t117.5 25.5l38 13q35 -45 22 -117q-6 -3 -17 -7.5t-48 -16.5t-78 -21t-106 -16.5t-132 -7.5q-572 0 -413 757z" />
    <glyph glyph-name="uni0422" unicode="&#x422;" horiz-adv-x="1089" 
d="M244 1475h960q6 -25 -2 -66q-4 -17 -10.5 -34t-11.5 -25l-4 -9h-400l-282 -1329q-29 -12 -78 -12q-24 0 -42.5 3t-25.5 6l-6 3l283 1329h-410q-6 27 2 68q4 17 10.5 33.5t11.5 24.5z" />
    <glyph glyph-name="uni0423" unicode="&#x423;" horiz-adv-x="1247" 
d="M1212 1462q29 13 80 13q20 0 39.5 -3.5t28.5 -6.5l10 -3l-645 -1067q-76 -126 -141.5 -207t-124.5 -121t-107.5 -53.5t-109.5 -13.5q-31 0 -64.5 4t-51.5 8l-17 4q-6 19 2 64q7 32 20 59q70 -6 111 -6q42 0 71.5 6.5t65.5 28t74.5 66t85.5 116.5h-15l-315 1112
q29 13 86 13q26 0 45 -3.5t25 -6.5l6 -3l217 -796q13 -48 24 -107.5t11 -73.5h6q4 6 15.5 26.5t31.5 56t39 67.5z" />
    <glyph glyph-name="uni0424" unicode="&#x424;" horiz-adv-x="1640" 
d="M903 1335l31 152q29 12 78 12q23 0 41 -3t25 -6l7 -3l-30 -152q79 0 147 -9.5t128.5 -30t107 -52.5t80.5 -79t51.5 -106.5t17 -137.5t-19.5 -170q-28 -128 -80.5 -224.5t-120.5 -157.5t-159 -98.5t-185 -52t-209 -14.5l-41 -191q-31 -12 -78 -12q-24 0 -42.5 3t-24.5 6
l-6 3l41 191q-93 0 -170.5 13.5t-145 42.5t-113 75t-75 111.5t-31 152t19.5 195.5q27 128 80 224t121 156t159.5 97t186 51t209.5 14zM688 324l189 890q-112 0 -199.5 -20t-166 -68t-132.5 -137t-82 -219q-16 -75 -17 -137t11.5 -108t39 -81t61.5 -57.5t82.5 -36.5t99 -20
t114.5 -6zM1028 1214l-188 -890q88 0 160.5 12t141.5 42.5t121 80.5t93 128.5t63 182.5q16 75 16.5 137t-12 107.5t-39 80.5t-61.5 57t-82.5 36.5t-99 20t-113.5 5.5z" />
    <glyph glyph-name="uni0425" unicode="&#x425;" horiz-adv-x="1247" 
d="M1171 1462q35 13 99 13q47 0 82 -13l-609 -704l326 -744q-33 -14 -90 -14q-25 0 -43 3t-24 6l-5 3l-278 629l-531 -631q-35 -10 -96 -10q-41 0 -86 10l643 762l-301 690q33 13 92 13q24 0 41.5 -3.5t22.5 -6.5l6 -3l256 -575z" />
    <glyph glyph-name="uni0426" unicode="&#x426;" horiz-adv-x="1441" 
d="M68 0l311 1462q25 13 78 13q22 0 40 -3.5t25 -6.5l8 -3l-282 -1329h680l282 1329q25 13 78 13q22 0 40.5 -3.5t25.5 -6.5l8 -3l-283 -1329h158l-88 -416q-35 -12 -74 -12q-35 0 -65 12l59 283h-1001z" />
    <glyph glyph-name="uni0427" unicode="&#x427;" horiz-adv-x="1302" 
d="M987 799l141 663q29 13 78 13q22 0 40.5 -3.5t25.5 -6.5l8 -3l-309 -1450q-29 -12 -78 -12q-24 0 -42.5 3t-24.5 6l-7 3l139 652q-27 -11 -69.5 -24.5t-135 -29.5t-182.5 -16q-71 0 -128 10t-105 31.5t-79.5 58t-49 88t-17.5 123t19 160.5l86 397q29 13 78 13
q22 0 40.5 -3.5t26.5 -6.5l7 -3l-87 -397q-39 -188 24 -263t237 -75q85 0 172.5 17t126.5 30.5t65 24.5z" />
    <glyph glyph-name="uni0428" unicode="&#x428;" horiz-adv-x="1961" 
d="M68 0l311 1462q25 13 78 13q23 0 41 -3.5t25 -6.5l7 -3l-282 -1329h553l282 1329q21 13 78 13q24 0 42.5 -3.5t24.5 -6.5l7 -3l-283 -1329h553l283 1329q23 13 78 13q23 0 41 -3.5t25 -6.5l7 -3l-311 -1462h-1560z" />
    <glyph glyph-name="uni0429" unicode="&#x429;" horiz-adv-x="2019" 
d="M68 0l311 1462q25 13 78 13q22 0 40 -3.5t25 -6.5l8 -3l-282 -1329h553l282 1329q25 13 78 13q23 0 41.5 -3.5t25.5 -6.5l7 -3l-283 -1329h553l283 1329q25 13 78 13q22 0 40 -3.5t26 -6.5l7 -3l-282 -1329h158l-89 -416q-28 -12 -73 -12q-36 0 -66 12l60 283h-1579z" />
    <glyph glyph-name="uni042A" unicode="&#x42a;" horiz-adv-x="1431" 
d="M571 850h387q193 0 284.5 -124.5t49.5 -317.5q-39 -191 -178 -299.5t-336 -108.5h-538l284 1341h-315q-6 25 2 66q4 18 10.5 35t11.5 25l5 8h467zM545 721l-127 -592h366q138 0 230.5 79.5t122.5 217.5t-29 216.5t-197 78.5h-366z" />
    <glyph glyph-name="uni042B" unicode="&#x42b;" horiz-adv-x="1779" 
d="M379 1462q25 13 80 13q22 0 39.5 -3.5t24.5 -6.5l7 -3l-131 -612h387q191 0 280.5 -128.5t47.5 -322.5q-39 -191 -174.5 -295t-333.5 -104h-538zM1606 1462q26 13 77 13q23 0 41.5 -3.5t25.5 -6.5l7 -3l-309 -1450q-27 -12 -78 -12q-24 0 -42.5 3t-25.5 6l-6 3zM373 721
l-127 -592h366q138 0 230.5 79.5t122.5 217.5t-29 216.5t-197 78.5h-366z" />
    <glyph glyph-name="uni042C" unicode="&#x42c;" horiz-adv-x="1253" 
d="M399 850h387q192 0 281 -126.5t47 -320.5q-39 -191 -175 -297t-333 -106h-538l311 1462q25 13 80 13q22 0 39.5 -3.5t24.5 -6.5l7 -3zM246 129h366q138 0 230.5 79.5t122.5 217.5t-29 216.5t-197 78.5h-366z" />
    <glyph glyph-name="uni042D" unicode="&#x42d;" horiz-adv-x="1187" 
d="M268 1427q16 8 46.5 19t130 30t204.5 19q291 0 397.5 -202.5t26.5 -581.5q-79 -375 -264 -553t-481 -178q-70 0 -134.5 7t-106 17t-73.5 20.5t-46 17.5l-15 7q20 75 72 115q14 -6 39.5 -14.5t107.5 -22.5t166 -14q81 0 148.5 16.5t133 56.5t117.5 104t96.5 164t75.5 232
h-559q-6 25 2 64q4 18 10 34t10 22l5 7h557q24 127 17.5 220.5t-30.5 157t-72 102t-107.5 55t-137.5 16.5q-77 0 -155.5 -12t-118.5 -24l-39 -13q-37 40 -23 112z" />
    <glyph glyph-name="uni042E" unicode="&#x42e;" horiz-adv-x="1945" 
d="M76 12l297 1450q27 13 76 13q23 0 41.5 -3.5t25.5 -6.5l8 -3l-135 -661h338q84 353 263.5 523.5t439.5 170.5q272 0 380 -185.5t27 -572.5q-156 -757 -717 -757q-537 0 -420 694h-338l-135 -662q-30 -12 -77 -12q-24 0 -42.5 3t-25.5 6zM1409 1368q-96 0 -175 -32.5
t-148.5 -105t-123.5 -196t-92 -297.5q-30 -140 -34 -247t14.5 -179.5t59.5 -118.5t97.5 -66t133.5 -20q97 0 176 32.5t148 105t122 196t90 297.5q30 140 35 247t-13 179.5t-58.5 118.5t-97.5 66t-134 20z" />
    <glyph glyph-name="uni042F" unicode="&#x42f;" horiz-adv-x="1284" 
d="M1264 1475l-312 -1463q-23 -12 -78 -12q-23 0 -41 3t-25 6l-7 3l129 604h-330l-459 -604q-35 -12 -90 -12q-24 0 -45 3t-30 6l-9 3l475 621q-132 35 -186 150.5t-18 277.5q40 192 176.5 303t333.5 111h516zM1085 1346h-352q-131 0 -224 -79.5t-122 -219.5
q-31 -145 16 -222t175 -77h380z" />
    <glyph glyph-name="uni0430" unicode="&#x430;" horiz-adv-x="1134" 
d="M934 1067q14 10 65 10q23 0 39.5 -2.5t21.5 -4.5l5 -3l-225 -1057q-27 -10 -64 -10q-17 0 -32 2.5t-21 5.5l-6 2l14 131q-126 -161 -346 -161q-403 0 -279 591q26 123 63.5 215t82 151t102 95.5t118.5 51t136 14.5q222 0 287 -166zM834 672q15 77 -2.5 144.5t-72 112
t-136.5 44.5q-152 0 -237.5 -97t-135.5 -337q-51 -243 -8 -339t194 -96q124 0 219.5 92.5t120.5 213.5z" />
    <glyph glyph-name="uni0431" unicode="&#x431;" horiz-adv-x="1159" 
d="M162 719q28 131 62 230.5t70.5 172.5t92 126.5t106 88.5t132.5 62.5t152 43.5t184 36q42 7 53 9.5t33 10.5t32.5 19.5t22.5 31.5q73 -7 88 -53q-34 -72 -81.5 -105.5t-139.5 -48.5q-83 -15 -126.5 -24t-106 -23.5t-94.5 -27.5t-77 -34t-69.5 -45t-55.5 -57t-51 -75
t-41 -94.5t-39 -118.5h6q131 209 396 209q201 0 283 -136.5t24 -414.5q-60 -278 -191 -400t-344 -122q-86 0 -149.5 17.5t-116.5 66t-77 129.5t-20 214t42 312zM678 936q-67 0 -121.5 -19t-106.5 -64t-92.5 -129.5t-66.5 -207.5q-21 -97 -22.5 -171t13.5 -120.5t46.5 -76
t71 -41t92.5 -11.5q67 0 121 19.5t104 65.5t89.5 130t65.5 205q21 98 22.5 171t-12 120t-43.5 76.5t-69 41t-92 11.5z" />
    <glyph glyph-name="uni0432" unicode="&#x432;" horiz-adv-x="1050" 
d="M705 1077q135 0 196 -83t33 -218q-34 -161 -184 -231q76 -31 107 -103.5t11 -167.5q-60 -274 -381 -274h-454l229 1077h443zM307 600h260q90 0 148.5 48.5t77.5 135.5q19 88 -19 134.5t-129 46.5h-262zM205 113h278q199 0 240 184q40 192 -160 192h-278z" />
    <glyph glyph-name="uni0433" unicode="&#x433;" horiz-adv-x="819" 
d="M262 1077h600q6 -24 -2 -63q-4 -16 -10 -31.5t-10 -22.5l-4 -8h-453l-201 -942q-25 -10 -76 -10q-23 0 -40.5 2.5t-23.5 5.5l-7 2z" />
    <glyph glyph-name="uni0434" unicode="&#x434;" horiz-adv-x="1177" 
d="M-57 115h84q57 46 109.5 153t113.5 322l143 487h664l-205 -962h129l-78 -367q-35 -10 -65 -10q-37 0 -72 10l53 252h-766l-53 -252q-35 -10 -70 -10q-45 0 -65 10zM492 958l-109 -376q-89 -312 -195 -467h517l178 843h-391z" />
    <glyph glyph-name="uni0435" unicode="&#x435;" horiz-adv-x="1034" 
d="M883 492h-650q-33 -206 25 -293.5t211 -87.5q69 0 135 16.5t98 33.5l31 17q20 -18 30.5 -48.5t4.5 -61.5q-6 -4 -16 -9.5t-45.5 -21t-73.5 -27t-98 -21t-121 -9.5q-217 0 -295.5 155.5t-18.5 439.5q31 141 85.5 244t127.5 163t156 88t180 28q170 0 254.5 -107.5
t46.5 -290.5q-13 -56 -29.5 -108t-26.5 -76zM813 719q24 113 -21 185.5t-169 72.5q-268 0 -367 -375h522q14 24 35 117z" />
    <glyph glyph-name="uni0436" unicode="&#x436;" horiz-adv-x="1566" 
d="M1423 1067q31 10 82 10q21 0 39 -2.5t26 -4.5l7 -3l-424 -510l248 -545q-29 -12 -86 -12q-24 0 -44.5 3t-28.5 6l-9 3l-207 492h-190l-105 -494q-29 -10 -76 -10q-22 0 -39.5 2.5t-24.5 5.5l-7 2l104 494h-192l-416 -492q-33 -12 -86 -12q-26 0 -46.5 3t-27.5 6l-8 3
l473 580l-199 475q31 10 80 10q23 0 42 -2.5t26 -4.5l8 -3l178 -446h193l96 446q27 10 76 10q20 0 37.5 -2.5t25.5 -4.5l8 -3l-96 -446h193z" />
    <glyph glyph-name="uni0437" unicode="&#x437;" horiz-adv-x="925" 
d="M190 1049q12 5 36.5 13.5t108.5 22t179 13.5q190 0 262 -87t41 -233q-19 -87 -65 -142t-129 -85v-4q82 -29 112.5 -94.5t9.5 -159.5q-65 -313 -497 -313q-89 0 -164.5 15t-105.5 29l-31 15q13 64 65 104q10 -5 30 -11.5t86.5 -18t139.5 -11.5q149 0 227.5 49t100.5 150
q21 95 -37 141.5t-188 46.5h-129q-6 25 2 60q3 15 8.5 28.5t9.5 20.5l4 6h129q238 0 277 187q22 97 -30 142.5t-181 45.5q-64 0 -127.5 -8.5t-95.5 -17.5l-31 -9q-34 34 -17 105z" />
    <glyph glyph-name="uni0438" unicode="&#x438;" horiz-adv-x="1183" 
d="M958 1067q29 10 80 10q23 0 42 -2.5t26 -4.5l8 -3l-225 -1057q-29 -10 -76 -10q-20 0 -38.5 2.5t-26.5 5.5l-9 2l125 584q16 77 32.5 147t25.5 103.5t10 34.5h-6q4 -1 -56 -78.5t-133 -165.5l-547 -625q-30 -10 -81 -10q-22 0 -40.5 2.5t-26.5 5.5l-7 2l225 1057
q29 10 76 10q22 0 40 -2.5t25 -4.5l7 -3l-127 -592q-13 -63 -29 -130.5t-26 -106t-11 -39.5h4q49 75 127 163z" />
    <glyph glyph-name="uni0439" unicode="&#x439;" horiz-adv-x="1183" 
d="M750 1391q61 0 120.5 18.5t89.5 37.5l29 19q48 -17 51 -73q-4 -5 -13 -13t-38.5 -29t-62 -37t-84.5 -29t-107 -13q-54 0 -102.5 12.5t-78.5 30t-53 35.5t-33 30l-9 13q30 56 84 73q3 -3 8.5 -8t25 -18t41.5 -23t58 -18t74 -8zM958 1067q29 10 80 10q23 0 42 -2.5t26 -4.5
l8 -3l-225 -1057q-29 -10 -76 -10q-20 0 -38.5 2.5t-26.5 5.5l-9 2l125 584q16 77 32.5 146.5t25.5 102.5t10 36h-6q-53 -82 -131 -172l-605 -697q-30 -10 -81 -10q-22 0 -40.5 2.5t-26.5 5.5l-7 2l225 1057q29 10 76 10q22 0 40 -2.5t25 -4.5l7 -3l-127 -592
q-13 -65 -29 -132.5t-26 -105.5t-11 -38h4q49 75 127 163z" />
    <glyph glyph-name="uni043A" unicode="&#x43a;" horiz-adv-x="1019" 
d="M483 621l385 446q44 10 95 10q20 0 37.5 -2.5t24.5 -4.5l7 -3l-438 -510l262 -545q-35 -12 -86 -12q-19 0 -37 3t-27 6l-8 3l-229 492h-184l-105 -494q-29 -10 -74 -10q-22 0 -40 2.5t-26 5.5l-7 2l227 1059q29 8 76 8q19 0 37 -2t27 -4l8 -2l-99 -448h174z" />
    <glyph glyph-name="uni043B" unicode="&#x43b;" horiz-adv-x="1130" 
d="M410 594q-48 -157 -91 -267t-79.5 -176t-76.5 -102.5t-74 -48.5t-79 -12q-18 0 -41.5 3t-38.5 6l-14 3q-6 18 0 51q3 14 8.5 27.5t9.5 20.5l5 7q5 -1 13 -1.5t31.5 -1.5t36.5 1q61 5 118.5 115.5t135.5 382.5l140 475h647l-227 -1067q-33 -10 -74 -10q-22 0 -40.5 2.5
t-25.5 5.5l-8 2l201 948h-373z" />
    <glyph glyph-name="uni043C" unicode="&#x43c;" horiz-adv-x="1372" 
d="M1128 1067q46 10 97 10q20 0 39.5 -2.5t29.5 -4.5l9 -3l-226 -1057q-24 -10 -71 -10q-22 0 -40 2.5t-25 5.5l-7 2l133 625q23 112 63 244h-6q-2 -3 -12.5 -20t-21.5 -34t-32 -46.5t-44 -59.5l-377 -471q-16 -8 -41 -8q-11 0 -20.5 2t-13.5 4l-3 2l-164 461
q-29 82 -47 170h-6q0 -69 -37 -246l-133 -623q-29 -10 -72 -10q-18 0 -34.5 2.5t-23.5 5.5l-7 2l225 1057q35 10 84 10q23 0 40 -2.5t22 -4.5l6 -3l213 -643h6z" />
    <glyph glyph-name="uni043D" unicode="&#x43d;" horiz-adv-x="1148" 
d="M285 494l-103 -484q-27 -10 -76 -10q-22 0 -39.5 2.5t-24.5 5.5l-7 2l225 1057q27 10 76 10q22 0 40 -2.5t25 -4.5l7 -3l-97 -451h525l96 451q29 10 76 10q22 0 39.5 -2.5t24.5 -4.5l7 -3l-225 -1057q-27 -10 -78 -10q-21 0 -38 2.5t-24 5.5l-7 2l102 484h-524z" />
    <glyph glyph-name="uni043E" unicode="&#x43e;" horiz-adv-x="1103" 
d="M104 573q32 150 82.5 253t121.5 162t153.5 84.5t189.5 25.5q211 0 294 -145.5t20 -442.5q-32 -150 -83 -254t-122.5 -164t-155 -86t-190.5 -26q-210 0 -291.5 147.5t-18.5 445.5zM819 539q21 101 23.5 177t-11 126.5t-43.5 81.5t-70 44t-95 13q-69 0 -124 -21.5t-104 -71
t-86 -136.5t-63 -213q-24 -128 -24.5 -213.5t29.5 -136.5t76 -72t115 -21t123.5 21.5t103.5 71.5t86.5 137t63.5 213z" />
    <glyph glyph-name="uni043F" unicode="&#x43f;" horiz-adv-x="1128" 
d="M383 952l-201 -942q-29 -10 -76 -10q-21 0 -38.5 2.5t-25.5 5.5l-7 2l227 1067h797l-228 -1067q-26 -10 -75 -10q-20 0 -38 2.5t-26 5.5l-8 2l201 942h-502z" />
    <glyph glyph-name="uni0440" unicode="&#x440;" horiz-adv-x="1138" 
d="M379 938q131 160 342 160q92 0 157 -33t105 -103.5t43.5 -181.5t-27.5 -268q-32 -153 -83 -259t-119 -164.5t-143.5 -83.5t-170.5 -25q-100 0 -172 43.5t-102 115.5l-131 -618q-25 -10 -76 -10q-23 0 -41 2.5t-25 4.5l-6 3l330 1546q25 10 76 10q23 0 38.5 -2.5
t19.5 -4.5l5 -3zM850 539q26 122 26.5 204.5t-24.5 134t-73.5 73.5t-125.5 22q-122 0 -211.5 -88t-117.5 -211l-58 -264q-15 -67 3.5 -137t71.5 -119.5t128 -49.5q153 0 241 98t140 337z" />
    <glyph glyph-name="uni0441" unicode="&#x441;" horiz-adv-x="907" 
d="M651 973q-163 0 -261 -107t-144 -327q-47 -220 8 -324t221 -104q123 0 207 39q20 -18 30.5 -48t4.5 -61q-53 -28 -118 -44.5t-175 -16.5q-217 0 -300 156t-24 433q58 270 195.5 399.5t355.5 129.5q79 0 141 -12t84 -24l23 -13q-12 -67 -63 -111q-70 35 -185 35z" />
    <glyph glyph-name="uni0442" unicode="&#x442;" horiz-adv-x="892" 
d="M152 1077h786q6 -22 -2 -63q-4 -18 -10 -34t-10 -23l-5 -7h-319l-201 -940q-27 -10 -76 -10q-24 0 -41.5 2.5t-23.5 5.5l-6 2l200 940h-319q-1 3 -2 7.5t-3 21.5t3 35q4 18 11 34t12 22z" />
    <glyph glyph-name="uni0443" unicode="&#x443;" 
d="M907 1067q27 10 76 10q23 0 41 -2.5t24 -4.5l7 -3l-217 -1014q-46 -214 -113.5 -334t-178.5 -175.5t-290 -55.5q-84 0 -156.5 16t-102.5 32l-30 15q16 67 66 105q104 -43 235 -43q90 0 151 18t113.5 67t89.5 134.5t68 220.5l15 64q-75 -74 -158 -105.5t-191 -31.5
q-109 0 -177 47t-87.5 122t0.5 170l160 748q29 10 76 10q23 0 40.5 -2.5t23.5 -4.5l7 -3l-159 -752q-47 -213 178 -213q83 0 170.5 49.5t152.5 137.5z" />
    <glyph glyph-name="uni0444" unicode="&#x444;" horiz-adv-x="1587" 
d="M909 1526q23 10 76 10q22 0 40 -2.5t25 -5.5l7 -2l-101 -471q12 5 32.5 12.5t82.5 19.5t121 11q134 -1 205 -71.5t79 -200.5t-30 -314q-59 -278 -174 -405t-318 -127q-62 0 -115.5 12t-76.5 24l-23 13l-112 -531q-27 -10 -76 -10q-24 0 -42 2.5t-24 5.5l-6 2l113 531
q-11 -5 -31.5 -13.5t-82.5 -22t-124 -13.5q-133 0 -203 70.5t-77.5 200.5t30.5 314q59 278 173 405.5t315 127.5q59 0 113.5 -11t78.5 -21l25 -11zM788 934l-8 4q-8 4 -24 11t-37.5 13.5t-55.5 11.5t-71 5q-135 0 -215.5 -104t-130.5 -336q-51 -229 -14.5 -334t171.5 -105
q55 0 110 13.5t83 26.5l27 14zM1303 539q51 229 14 334.5t-172 105.5q-37 0 -73 -5t-61 -11.5t-45 -13.5t-30 -11l-10 -4l-166 -780q8 -6 23.5 -15t66.5 -24t106 -15q135 0 216 104t131 335z" />
    <glyph glyph-name="uni0445" unicode="&#x445;" horiz-adv-x="1083" 
d="M1083 1067l-473 -524l264 -533q-20 -10 -75 -10q-24 0 -42 2.5t-24 5.5l-6 2l-211 432l-389 -432q-43 -10 -96 -10q-22 0 -40.5 2.5t-26.5 5.5l-7 2l496 549l-254 508q29 10 82 10q24 0 41.5 -2.5t22.5 -4.5l5 -3l199 -408l364 408q42 10 93 10q23 0 42 -2.5t27 -4.5z
" />
    <glyph glyph-name="uni0446" unicode="&#x446;" horiz-adv-x="1181" 
d="M911 1067q29 10 76 10q21 0 39 -2.5t26 -4.5l7 -3l-201 -942h129l-80 -377q-35 -10 -67 -10q-43 0 -68 10l53 252h-792l227 1067q27 10 74 10q24 0 42.5 -2.5t25.5 -4.5l6 -3l-201 -942h504z" />
    <glyph glyph-name="uni0447" unicode="&#x447;" horiz-adv-x="1062" 
d="M993 1067l-225 -1057q-27 -10 -78 -10q-22 0 -39 2.5t-23 5.5l-7 2l96 451q-127 -58 -287 -58q-191 0 -265.5 84t-39.5 252l70 328q26 10 75 10q21 0 39 -2.5t25 -4.5l8 -3l-72 -330q-23 -110 24.5 -161.5t176.5 -51.5q148 0 272 64l103 479q25 10 74 10q23 0 41 -2.5
t25 -4.5z" />
    <glyph glyph-name="uni0448" unicode="&#x448;" horiz-adv-x="1593" 
d="M33 0l227 1067q23 10 76 10q23 0 41 -2.5t25 -4.5l6 -3l-201 -942h409l201 942q23 10 74 10q23 0 41.5 -2.5t25.5 -4.5l7 -3l-201 -942h410l200 942q23 10 76 10q22 0 40 -2.5t25 -4.5l7 -3l-228 -1067h-1261z" />
    <glyph glyph-name="uni0449" unicode="&#x449;" horiz-adv-x="1644" 
d="M1450 125l-80 -377q-35 -10 -70 -10q-40 0 -65 10l53 252h-1255l227 1067q23 10 76 10q23 0 41 -2.5t25 -4.5l6 -3l-201 -942h409l201 942q23 10 74 10q23 0 41.5 -2.5t25.5 -4.5l7 -3l-201 -942h410l200 942q23 10 76 10q22 0 40 -2.5t25 -4.5l7 -3l-201 -942h129z" />
    <glyph glyph-name="uni044A" unicode="&#x44a;" horiz-adv-x="1146" 
d="M444 629h314q146 0 208.5 -95t30.5 -241q-29 -140 -125.5 -216.5t-246.5 -76.5h-461l203 950h-240q-10 24 -2 66q8 40 29 61h387zM336 113h287q96 0 155 51.5t80 148.5q21 96 -16.5 149.5t-132.5 53.5h-287z" />
    <glyph glyph-name="uni044B" unicode="&#x44b;" horiz-adv-x="1470" 
d="M260 1067q40 10 76 10q37 0 72 -10l-95 -438h314q147 0 210 -94t31 -240q-29 -140 -126.5 -217.5t-247.5 -77.5h-461zM1253 1067q40 10 76 10q37 0 72 -10l-225 -1057q-35 -10 -76 -10q-32 0 -72 10zM291 516l-86 -403h287q96 0 155 51.5t80 148.5q21 96 -16.5 149.5
t-132.5 53.5h-287z" />
    <glyph glyph-name="uni044C" unicode="&#x44c;" horiz-adv-x="1019" 
d="M313 629h314q147 0 211 -94t32 -240q-29 -140 -127.5 -217.5t-248.5 -77.5h-461l227 1067q40 10 76 10q37 0 72 -10zM205 113h287q96 0 155 51.5t80 148.5q21 96 -16.5 149.5t-132.5 53.5h-287z" />
    <glyph glyph-name="uni044D" unicode="&#x44d;" horiz-adv-x="925" 
d="M629 485h-416q0 48 2 60q4 14 9 26.5t9.5 21t4.5 9.5h413q62 377 -235 377q-53 0 -105.5 -8.5t-78.5 -16.5l-27 -8q-31 39 -19 103q12 5 34 13.5t95.5 22t153.5 13.5q217 0 300.5 -143t25.5 -416t-204 -416t-362 -143q-52 0 -100 6.5t-79.5 15t-55 17.5t-34.5 15l-11 7
q18 66 67 102q84 -39 205 -39q314 0 408 381z" />
    <glyph glyph-name="uni044E" unicode="&#x44e;" horiz-adv-x="1591" 
d="M590 594q125 504 547 504q440 0 317 -580q-32 -150 -83.5 -255t-123.5 -166.5t-156.5 -89t-191.5 -27.5q-202 0 -290 116t-48 371h-282l-97 -457q-35 -10 -76 -10q-31 0 -71 10l225 1057q40 10 76 10q37 0 72 -10l-101 -473h283zM1309 539q21 101 24 177t-10.5 126.5
t-43.5 81.5t-71 44t-96 13q-69 0 -125 -21.5t-106 -71t-89 -137t-65 -212.5q-22 -101 -24.5 -177.5t11 -126.5t44 -81.5t71 -44.5t95.5 -13q70 0 125.5 21.5t105.5 71.5t88.5 137t65.5 213z" />
    <glyph glyph-name="uni044F" unicode="&#x44f;" horiz-adv-x="1069" 
d="M442 432l-321 -422q-40 -10 -90 -10q-38 0 -78 10l344 445q-88 31 -120.5 120.5t-8.5 204.5q31 145 133.5 221t265.5 76h432l-227 -1067q-40 -10 -76 -10t-71 10l90 422h-273zM569 965q-106 0 -172 -55t-88 -156q-46 -209 154 -209h274l90 420h-258z" />
    <glyph glyph-name="uni0451" unicode="&#x451;" horiz-adv-x="1034" 
d="M467 1436q27 10 78 10q22 0 40 -2.5t25 -5.5l8 -2l-28 -136q-29 -8 -78 -8q-23 0 -41.5 2t-25.5 4l-7 2zM791 1436q26 10 77 10q22 0 40.5 -2.5t25.5 -5.5l8 -2l-29 -136q-28 -8 -77 -8q-23 0 -41.5 2t-25.5 4l-7 2zM883 492h-650q-33 -206 25 -293.5t211 -87.5
q69 0 135 16.5t98 33.5l31 17q20 -18 30.5 -48.5t4.5 -61.5q-6 -4 -16 -9.5t-45.5 -21t-73.5 -27t-98 -21t-121 -9.5q-217 0 -295.5 155.5t-18.5 439.5q31 141 85.5 244t127.5 163t156 88t180 28q170 0 254.5 -107.5t46.5 -290.5q-13 -56 -29.5 -108t-26.5 -76zM813 719
q24 113 -21 185.5t-169 72.5q-268 0 -367 -375h522q14 24 35 117z" />
    <glyph glyph-name="Wgrave" unicode="&#x1e80;" horiz-adv-x="1955" 
d="M1184 1554l-187 275q22 27 65 44.5t79 14.5l141 -284q-35 -44 -98 -50zM1186 12l-56 1037q-3 81 -1 136t6 83l4 28h-6q-19 -87 -99 -247l-516 -1037q-36 -12 -92 -12q-50 0 -82 12l-111 1450q27 13 78 13q24 0 41.5 -3.5t23.5 -6.5l5 -3l80 -1046q4 -56 4.5 -115.5
t-1.5 -90.5l-1 -32h6q35 111 96 236l525 1048q24 13 77 13q24 0 43 -3.5t26 -6.5l7 -3l62 -1046q3 -67 1 -120t-6 -86l-4 -32h7q36 103 102 236l518 1048q35 13 80 13q20 0 37.5 -3.5t25.5 -6.5l7 -3l-719 -1450q-33 -12 -84 -12q-22 0 -43 3t-31 6z" />
    <glyph glyph-name="wgrave" unicode="&#x1e81;" horiz-adv-x="1619" 
d="M936 1243l-195 285q22 27 61 43.5t75 13.5l157 -293q-37 -43 -98 -49zM946 10l-59 629q-16 184 -2 272h-6q-29 -91 -127 -272l-338 -629q-45 -10 -80 -10q-30 0 -80 10l-102 1057q22 10 71 10q23 0 39.5 -2.5t21.5 -4.5l5 -3l73 -717q10 -94 3 -186h6q32 86 84 186
l381 717q34 10 79 10q22 0 40 -2.5t25 -4.5l7 -3l64 -713q7 -90 0 -190h6q27 73 88 188l375 715q26 10 69 10q21 0 38.5 -2.5t24.5 -4.5l7 -3l-553 -1057q-58 -10 -82 -10q-20 0 -78 10z" />
    <glyph glyph-name="Wacute" unicode="&#x1e82;" horiz-adv-x="1955" 
d="M1423 1833l-305 -277q-63 10 -78 50l265 286q40 3 74 -13.5t44 -45.5zM1186 12l-56 1037q-3 81 -1 136t6 83l4 28h-6q-19 -87 -99 -247l-516 -1037q-36 -12 -92 -12q-50 0 -82 12l-111 1450q27 13 78 13q24 0 41.5 -3.5t23.5 -6.5l5 -3l80 -1046q4 -56 4.5 -115.5
t-1.5 -90.5l-1 -32h6q35 111 96 236l525 1048q24 13 77 13q24 0 43 -3.5t26 -6.5l7 -3l62 -1046q3 -67 1 -120t-6 -86l-4 -32h7q36 103 102 236l518 1048q35 13 80 13q20 0 37.5 -3.5t25.5 -6.5l7 -3l-719 -1450q-33 -12 -84 -12q-22 0 -43 3t-31 6z" />
    <glyph glyph-name="wacute" unicode="&#x1e83;" horiz-adv-x="1619" 
d="M1178 1528l-318 -285q-63 6 -78 49l277 295q39 3 74 -13.5t45 -45.5zM946 10l-59 629q-16 184 -2 272h-6q-29 -91 -127 -272l-338 -629q-45 -10 -80 -10q-30 0 -80 10l-102 1057q22 10 71 10q23 0 39.5 -2.5t21.5 -4.5l5 -3l73 -717q10 -94 3 -186h6q32 86 84 186
l381 717q34 10 79 10q22 0 40 -2.5t25 -4.5l7 -3l64 -713q7 -90 0 -190h6q27 73 88 188l375 715q26 10 69 10q21 0 38.5 -2.5t24.5 -4.5l7 -3l-553 -1057q-58 -10 -82 -10q-20 0 -78 10z" />
    <glyph glyph-name="Wdieresis" unicode="&#x1e84;" horiz-adv-x="1955" 
d="M1135 1772l-29 -136q-27 -8 -76 -8q-23 0 -41.5 2t-25.5 4l-7 2l29 136q27 8 78 8q22 0 40 -2t25 -4zM1458 1772l-28 -136q-27 -8 -76 -8q-23 0 -41.5 2t-25.5 4l-7 2l29 136q26 8 77 8q22 0 40 -2t25 -4zM1186 12l-56 1037q-3 81 -1 136t6 83l4 28h-6q-19 -87 -99 -247
l-516 -1037q-36 -12 -92 -12q-50 0 -82 12l-111 1450q27 13 78 13q24 0 41.5 -3.5t23.5 -6.5l5 -3l80 -1046q4 -56 4.5 -115.5t-1.5 -90.5l-1 -32h6q35 111 96 236l525 1048q24 13 77 13q24 0 43 -3.5t26 -6.5l7 -3l62 -1046q3 -67 1 -120t-6 -86l-4 -32h7q36 103 102 236
l518 1048q35 13 80 13q20 0 37.5 -3.5t25.5 -6.5l7 -3l-719 -1450q-33 -12 -84 -12q-22 0 -43 3t-31 6z" />
    <glyph glyph-name="wdieresis" unicode="&#x1e85;" horiz-adv-x="1619" 
d="M905 1436l-28 -136q-29 -8 -78 -8q-23 0 -41.5 2t-25.5 4l-7 2l29 136q26 10 77 10q22 0 40.5 -2.5t26.5 -5.5zM1229 1436l-29 -136q-29 -8 -78 -8q-23 0 -41 2t-25 4l-7 2l28 136q27 10 78 10q22 0 40.5 -2.5t26.5 -5.5zM946 10l-59 629q-16 184 -2 272h-6
q-29 -91 -127 -272l-338 -629q-45 -10 -80 -10q-30 0 -80 10l-102 1057q22 10 71 10q23 0 39.5 -2.5t21.5 -4.5l5 -3l73 -717q10 -94 3 -186h6q32 86 84 186l381 717q34 10 79 10q22 0 40 -2.5t25 -4.5l7 -3l64 -713q7 -90 0 -190h6q27 73 88 188l375 715q26 10 69 10
q21 0 38.5 -2.5t24.5 -4.5l7 -3l-553 -1057q-58 -10 -82 -10q-20 0 -78 10z" />
    <glyph glyph-name="Ygrave" unicode="&#x1ef2;" horiz-adv-x="1273" 
d="M799 1888l149 -295q-37 -43 -98 -49l-195 285q22 27 65 44.5t79 14.5zM1233 1462q47 13 102 13q24 0 45 -3.5t30 -6.5l9 -3l-710 -841l-129 -609q-27 -12 -76 -12q-24 0 -43 3t-26 6l-7 3l129 604l-336 846q33 13 94 13q25 0 42 -3.5t21 -6.5l5 -3l276 -686z" />
    <glyph glyph-name="ygrave" unicode="&#x1ef3;" 
d="M719 1243l-195 285q23 27 60 44.5t73 14.5l156 -295q-37 -43 -94 -49zM907 1067q27 10 76 10q23 0 41 -2.5t24 -4.5l7 -3l-217 -1014q-46 -214 -113.5 -334t-178.5 -175.5t-290 -55.5q-84 0 -156.5 16t-102.5 32l-30 15q16 67 66 105q104 -43 235 -43q90 0 151 18
t113.5 67t89.5 134.5t68 220.5l15 64q-75 -74 -158 -105.5t-191 -31.5q-109 0 -177 47t-87.5 122t0.5 170l160 748q29 10 76 10q23 0 40.5 -2.5t23.5 -4.5l7 -3l-159 -752q-47 -213 178 -213q83 0 170.5 49.5t152.5 137.5z" />
    <glyph glyph-name="endash" unicode="&#x2013;" horiz-adv-x="1187" 
d="M981 537h-813q-6 20 2 57q3 16 8.5 30.5t9.5 20.5l5 6h813q1 -20 -5 -57q-4 -16 -9 -30.5t-8 -20.5z" />
    <glyph glyph-name="emdash" unicode="&#x2014;" horiz-adv-x="1699" 
d="M1493 537h-1325q-6 20 2 57q3 16 8.5 30.5t9.5 20.5l5 6h1325q1 -20 -5 -57q-4 -16 -9 -30.5t-8 -20.5z" />
    <glyph glyph-name="quoteleft" unicode="&#x2018;" horiz-adv-x="442" 
d="M436 1475l49 -41q-9 -7 -22.5 -21.5t-44.5 -64t-47 -105.5q17 -1 31 -3t19 -4l5 -1l-31 -150q-31 -12 -88 -12q-24 0 -43.5 3t-27.5 6l-7 3l21 103q11 53 34.5 101.5t49 81t49 57t38.5 36.5z" />
    <glyph glyph-name="quoteright" unicode="&#x2019;" horiz-adv-x="425" 
d="M274 1073l-47 41q8 7 21.5 21.5t43.5 64t46 105.5q-16 1 -29.5 3.5t-18.5 4.5l-5 2l32 149q29 11 84 11q24 0 44.5 -2.5t28.5 -5.5l9 -3l-22 -102q-11 -53 -34 -102.5t-48.5 -82t-49.5 -57t-39 -36.5z" />
    <glyph glyph-name="quotesinglbase" unicode="&#x201a;" horiz-adv-x="456" 
d="M10 -229l-49 39q9 8 23 22.5t44 63.5t46 104q-16 1 -29 3.5t-17 4.5l-5 2l32 150q27 10 84 10q24 0 44.5 -2.5t28.5 -5.5l9 -2l-22 -103q-11 -53 -35 -102t-49.5 -81t-49.5 -56.5t-39 -35.5z" />
    <glyph glyph-name="quotedblleft" unicode="&#x201c;" horiz-adv-x="663" 
d="M692 1475l47 -41q-8 -7 -21.5 -21.5t-44 -64t-46.5 -105.5q16 -1 29.5 -3.5t18.5 -4.5l5 -2l-33 -150q-27 -10 -84 -10q-24 0 -44.5 2.5t-28.5 4.5l-9 3l23 103q11 53 34.5 102.5t49 82t49.5 57t39 36.5zM434 1475l47 -41q-8 -7 -21 -21.5t-43 -64t-46 -105.5
q16 -1 29 -3.5t18 -4.5l6 -2l-33 -150q-29 -10 -86 -10q-24 0 -44 2.5t-28 4.5l-8 3l23 103q11 53 34 102.5t48.5 82t49 57t38.5 36.5z" />
    <glyph glyph-name="quotedblright" unicode="&#x201d;" horiz-adv-x="684" 
d="M274 1073l-47 41q3 3 8.5 8t20.5 23t28.5 38.5t29.5 53.5t26 68q-16 1 -29.5 3.5t-18.5 4.5l-5 2l32 149q27 11 84 11q24 0 44.5 -2.5t28.5 -5.5l9 -3l-22 -102q-11 -53 -34.5 -102.5t-49 -82t-50 -57t-39.5 -36.5zM532 1073l-47 41q8 7 21.5 21.5t43.5 64t46 105.5
q-16 1 -29 3.5t-19 4.5l-5 2l32 149q30 11 87 11q24 0 43.5 -2.5t27.5 -5.5l8 -3l-22 -102q-11 -53 -34 -102.5t-48.5 -82t-49.5 -57t-39 -36.5z" />
    <glyph glyph-name="quotedblbase" unicode="&#x201e;" horiz-adv-x="716" 
d="M12 -229l-49 39q9 8 22.5 22.5t44 63.5t46.5 104q-16 1 -29.5 3.5t-18.5 4.5l-5 2l32 150q29 10 86 10q24 0 44 -2.5t28 -5.5l8 -2l-22 -103q-11 -53 -34.5 -102t-49 -81t-49 -56.5t-38.5 -35.5zM272 -229l-49 39q9 8 23 22.5t44 63.5t46 104q-16 1 -29.5 3.5t-18.5 4.5
l-5 2l32 150q29 10 86 10q24 0 44 -2.5t28 -5.5l8 -2l-22 -103q-11 -53 -34.5 -102t-49 -81t-49 -56.5t-38.5 -35.5z" />
    <glyph glyph-name="dagger" unicode="&#x2020;" horiz-adv-x="1157" 
d="M395 -260l-57 41l248 1100l-471 -15q-4 25 4 62q4 17 9 32t8 21l3 6l467 -12l82 452q29 9 68 9q17 0 32.5 -2t21.5 -4l7 -3l-110 -452l462 12q4 -22 -4 -59q-4 -16 -9 -31.5t-8 -22.5l-3 -8l-459 15l-219 -1100z" />
    <glyph glyph-name="daggerdbl" unicode="&#x2021;" horiz-adv-x="1282" 
d="M625 305l471 14q4 -22 -4 -61q-4 -18 -9.5 -33t-8.5 -21l-3 -5l-467 14l-82 -455q-26 -8 -67 -8q-18 0 -33.5 2t-21.5 4l-7 2l111 455l-469 -14q-4 22 4 59q4 17 9 32.5t8 21.5l3 7l465 -14l45 287l76 289l-471 -15q-4 23 4 62q4 18 9 33t9 21l3 5l467 -12l82 452
q26 9 67 9q18 0 33.5 -2t21.5 -4l7 -3l-111 -452l469 12q4 -22 -4 -59q-4 -17 -9 -32.5t-8 -22.5l-4 -7l-465 15l-47 -289z" />
    <glyph glyph-name="bullet" unicode="&#x2022;" horiz-adv-x="649" 
d="M440 578q-12 -56 -54.5 -90.5t-98.5 -34.5q-55 0 -84 34.5t-17 90.5q12 57 55.5 92t98.5 35q56 0 84 -34.5t16 -92.5z" />
    <glyph glyph-name="ellipsis" unicode="&#x2026;" horiz-adv-x="1202" 
d="M221 160l-33 -150q-31 -10 -86 -10q-25 0 -45.5 2.5t-28.5 5.5l-8 2l33 150q29 10 86 10q24 0 44.5 -2.5t28.5 -5.5zM592 160l-33 -150q-31 -10 -84 -10q-25 0 -45.5 2.5t-28.5 5.5l-8 2l33 150q29 10 86 10q24 0 44 -2.5t28 -5.5zM963 160l-33 -150q-31 -10 -86 -10
q-25 0 -45 2.5t-27 5.5l-8 2l33 150q27 10 84 10q24 0 44.5 -2.5t28.5 -5.5z" />
    <glyph glyph-name="perthousand" unicode="&#x2030;" horiz-adv-x="2197" 
d="M1405 1427l-1098 -1437q-24 -10 -67 -10q-18 0 -33.5 2.5t-22.5 5.5l-6 2l1100 1437q20 11 65 11q19 0 34.5 -3t21.5 -5zM383 707q-134 0 -185.5 84t-11.5 270q74 354 349 354q272 0 196 -354t-348 -354zM514 1319q-77 0 -127.5 -57.5t-81.5 -200.5q-24 -100 -15 -156.5
t35.5 -78t77.5 -21.5q75 0 126 56t81 200q23 99 14.5 156.5t-35 79.5t-75.5 22zM1036 -20q-133 0 -184.5 84t-11.5 270q74 354 346 354q132 0 184 -84.5t14 -269.5q-76 -354 -348 -354zM1700 -20q-133 0 -184 84t-11 270q74 354 344 354q274 0 201 -354q-76 -354 -350 -354z
M1165 592q-76 0 -127 -57.5t-80 -200.5q-16 -74 -16.5 -125t14.5 -79.5t39.5 -40t61.5 -11.5q76 0 126 56t81 200q22 99 13 156.5t-36 79.5t-76 22zM1829 592q-76 0 -126 -57.5t-79 -200.5q-16 -75 -16.5 -125.5t13.5 -79t38 -40t61 -11.5q76 0 126 56t81 200
q22 99 13 156.5t-35.5 79.5t-75.5 22z" />
    <glyph glyph-name="guilsinglleft" unicode="&#x2039;" horiz-adv-x="694" 
d="M111 614l507 428q33 -26 33 -92l-438 -397l268 -399q-26 -66 -71 -93l-326 426q-8 23 0 62q4 18 10.5 34.5t11.5 23.5z" />
    <glyph glyph-name="guilsinglright" unicode="&#x203a;" horiz-adv-x="694" 
d="M250 1042l328 -428q5 -24 -3 -65q-4 -17 -10 -32.5t-10 -22.5l-4 -7l-510 -426q-35 28 -31 93l436 399l-266 397q21 63 70 92z" />
    <glyph glyph-name="fraction" unicode="&#x2044;" horiz-adv-x="268" 
d="M-461 -10l1098 1437q22 11 63 11q18 0 33 -3t21 -5l6 -3l-1100 -1437q-24 -10 -63 -10q-16 0 -30.5 2.5t-20.5 5.5z" />
    <glyph glyph-name="zeroinferior" unicode="&#x2080;" horiz-adv-x="706" 
d="M174 -207q-135 0 -182 88t-8 275q39 184 125 272t221 88q134 0 182.5 -87t9.5 -273q-76 -363 -348 -363zM311 430q-87 0 -139 -62.5t-84 -211.5q-31 -154 -6 -214.5t113 -60.5q86 0 137.5 62t83.5 213q31 151 6 212.5t-111 61.5z" />
    <glyph glyph-name="oneinferior" unicode="&#x2081;" horiz-adv-x="497" 
d="M-4 365q143 37 252 135q21 6 51 6q29 0 47 -6l-147 -690q-21 -7 -47 -7q-33 0 -56 7l103 483q5 19 11.5 47t8.5 37q-97 -71 -217 -94q-23 29 -6 82z" />
    <glyph glyph-name="twoinferior" unicode="&#x2082;" horiz-adv-x="616" 
d="M-86 -113q16 77 66 132.5t110.5 86.5t120.5 58t105.5 64t56.5 87q10 53 -21.5 84t-109.5 31q-41 0 -87 -7.5t-61 -12.5q-20 38 -6 77q82 29 191 29q117 0 167 -51.5t29 -142.5q-12 -58 -47 -102.5t-79 -69.5t-95.5 -51.5t-97 -49.5t-84 -63t-54.5 -92h351q4 -31 0 -46
q-2 -15 -19 -45h-444q-2 37 8 84z" />
    <glyph glyph-name="threeinferior" unicode="&#x2083;" horiz-adv-x="614" 
d="M401 -4q-47 -203 -323 -203q-50 0 -94.5 8.5t-63.5 17.5l-20 9q12 51 45 72q61 -21 147 -21q100 0 146.5 33t58.5 92q28 125 -121 125h-92q-6 43 18 84h93q125 0 147 106q12 56 -17.5 83.5t-99.5 27.5q-38 0 -77.5 -4.5t-59.5 -9.5l-20 -4q-24 27 -11 73q82 31 193 31
q115 0 167 -48t32 -136q-20 -110 -125 -158q103 -47 77 -178z" />
    <glyph glyph-name="fourinferior" unicode="&#x2084;" horiz-adv-x="667" 
d="M393 66h82q3 -16 0 -41q-5 -21 -18 -39h-82l-37 -176q-42 -7 -45 -7q-10 0 -45 7l37 176h-361q0 20 2 32q1 10 13 33l448 447q20 8 49 8t49 -8zM369 377l-312 -311h246z" />
    <glyph glyph-name="fiveinferior" unicode="&#x2085;" horiz-adv-x="610" 
d="M174 416l-39 -180q159 0 227.5 -52t43.5 -172q-45 -219 -326 -219q-51 0 -95.5 8.5t-63.5 17.5l-19 9q7 48 43 74q61 -23 143 -23q186 0 213 131q17 79 -29 108t-168 29h-86l76 359h377q9 -44 -18 -90h-279z" />
    <glyph glyph-name="sixinferior" unicode="&#x2086;" horiz-adv-x="634" 
d="M-33 90q39 182 167 292.5t331 129.5q12 -35 -16 -82q-122 -14 -211.5 -73t-131.5 -162q82 34 154 34q102 0 151.5 -56.5t26.5 -158.5q-22 -108 -101.5 -164.5t-184.5 -56.5q-119 0 -167 75t-18 222zM334 14q14 60 -14 95.5t-91 35.5q-74 0 -153 -41q-50 -229 94 -229
q62 0 106.5 37t57.5 102z" />
    <glyph glyph-name="seveninferior" unicode="&#x2087;" horiz-adv-x="567" 
d="M358 414h-340q-10 46 19 92h440q2 -27 -6 -60q-12 -55 -37 -103t-57 -84t-69 -70.5t-74 -71.5t-70 -78.5t-60 -100.5t-41 -128q-53 -12 -102 0q22 99 62 176t86 126.5t91 91.5t89 95.5t69 114.5z" />
    <glyph glyph-name="eightinferior" unicode="&#x2088;" horiz-adv-x="661" 
d="M41 340q18 80 88 128t180 48q105 0 155.5 -45.5t31.5 -128.5q-21 -109 -142 -176q54 -32 79 -73t13 -105q-20 -92 -97 -143.5t-195 -51.5q-115 0 -172 49t-37 142q25 120 166 192q-90 62 -70 164zM399 336q11 50 -17.5 76t-92.5 26q-59 0 -98 -25.5t-48 -68.5
q-6 -27 1.5 -48t28.5 -36.5t43.5 -27t55.5 -25.5l15 -6q96 58 112 135zM344 -18q1 16 2 28t-6 24.5t-12.5 21t-18 18t-22.5 15.5t-25.5 14t-27 13t-27.5 12.5t-27 12.5q-22 -11 -45 -26.5t-52.5 -50.5t-37.5 -74q-23 -115 131 -115q65 0 111.5 27.5t56.5 79.5z" />
    <glyph glyph-name="nineinferior" unicode="&#x2089;" horiz-adv-x="630" 
d="M-4 295q22 108 101.5 164.5t183.5 56.5q120 0 167 -74.5t17 -222.5q-39 -183 -165.5 -293.5t-328.5 -128.5q-7 15 -3 39t16 43q123 14 212 73t132 163q-78 -33 -156 -33q-102 0 -150.5 55.5t-25.5 157.5zM358 205q47 229 -96 229q-62 0 -105.5 -36.5t-56.5 -102.5
q-14 -61 13.5 -96t91.5 -35q16 0 31 1.5t29.5 5t24.5 6t22.5 7.5t17.5 7.5l16 8t12 5.5z" />
    <glyph glyph-name="Euro" unicode="&#x20ac;" horiz-adv-x="1198" 
d="M334 901q177 492 602 492q91 0 164 -16t100 -32l27 -16q-20 -71 -68 -104q-10 5 -28.5 12.5t-78 20t-122.5 12.5q-151 0 -261.5 -84.5t-183.5 -284.5h529q0 -55 -39 -100h-524q-15 -55 -27 -117q-19 -93 -21 -109h459q-4 -57 -41 -100h-428q-7 -105 10 -178.5t57 -115
t93.5 -59.5t128.5 -18q69 0 136 11.5t100 22.5l32 12q36 -33 25 -105q-14 -7 -40.5 -18t-114 -29t-183.5 -18q-430 0 -393 495h-172q3 53 41 100h143q6 53 18 111q13 62 29 115h-162q3 52 39 100h154z" />
    <glyph glyph-name="uni2113" unicode="&#x2113;" horiz-adv-x="935" 
d="M338 1085q47 227 142 339t276 112q146 0 203.5 -82t27.5 -223q-40 -185 -205.5 -369t-416.5 -338l-48 -229q-22 -103 7 -146t106 -43q37 0 77.5 11.5t73 28t59.5 33.5t42 29l14 11q26 -6 41.5 -26t14.5 -48q-7 -7 -19 -18t-52 -39.5t-82.5 -50t-106.5 -39.5t-127 -18
q-139 0 -183 85.5t0 288.5l17 80q-75 -38 -156 -74q-37 37 -20 103q86 35 204 104zM844 1229q44 198 -107 198q-91 0 -148 -62t-91 -220l-99 -465q180 134 298.5 275t146.5 274z" />
    <glyph glyph-name="uni2117" unicode="&#x2117;" horiz-adv-x="1644" 
d="M139 696q40 190 168 351t309 254.5t371 93.5t331 -93.5t199.5 -254.5t18.5 -351t-167.5 -351t-308 -254t-370.5 -93q-114 0 -213.5 35.5t-171 99t-119.5 151t-58.5 191.5t11.5 221zM1432 696q34 162 -15.5 298.5t-169.5 216t-282 79.5q-161 0 -315.5 -79.5t-264 -216.5
t-143.5 -298t16.5 -298.5t171 -217.5t281.5 -80q162 0 316 80t262.5 217t142.5 299zM700 1071h293q121 0 178.5 -72t32.5 -190q-26 -120 -114 -192t-209 -72h-185l-51 -250q-28 -12 -58 -12t-50 12zM788 977l-71 -336h174q76 0 129.5 43t71.5 125q17 81 -18 124.5t-111 43.5
h-175z" />
    <glyph glyph-name="trademark" unicode="&#x2122;" horiz-adv-x="1273" 
d="M254 1475h416q3 -13 0 -29q-2 -13 -13 -31h-172l-112 -524q-10 -6 -35 -6q-11 0 -19.5 1.5t-10.5 3.5l-3 1l113 524h-176v29q3 17 12 31zM770 1468q14 7 43 7q9 0 15.5 -1t12.5 -3l9 -3l61 -200q23 -81 37 -154q21 38 101 146l147 208q22 7 45 7q12 0 22.5 -1.5
t14.5 -3.5l4 -2l-123 -577q-13 -6 -33 -6q-10 0 -18.5 1.5t-11.5 3.5l-4 1l55 254q6 29 51 233q-63 -93 -88 -127l-147 -202q-13 -7 -33 -7q-9 0 -16 2t-10 4l-3 1l-57 200q-6 24 -18 65.5t-17 63.5q-1 -9 -45 -233l-55 -254q-13 -6 -31 -6q-9 0 -16.5 1.5t-11.5 3.5l-3 1z
" />
    <glyph glyph-name="Omega" unicode="&#x2126;" horiz-adv-x="1474" 
d="M188 778q39 185 109.5 324t166 224t209.5 127t247 42q134 0 229.5 -41t155.5 -128.5t70 -223t-27 -324.5q-20 -95 -62.5 -188t-82 -154.5t-99.5 -130.5t-85.5 -93.5t-69.5 -64.5q-11 -10 -15 -14h303q4 -43 0 -65q-8 -33 -29 -68h-481q-17 69 29 137q43 30 85 66t97.5 97
t101 127.5t86.5 159t62 191.5q125 590 -295 590t-545 -590q-18 -83 -20 -161t10 -140.5t29.5 -116t44 -97t48.5 -72.5t46 -54q15 -65 -29 -137h-481q-7 37 0 66q5 33 29 67h301q-65 96 -96 168q-96 224 -42 477z" />
    <glyph glyph-name="estimated" unicode="&#x212e;" horiz-adv-x="1648" 
d="M1135 195h137q-247 -215 -565 -215q-195 0 -341 96.5t-207.5 262.5t-19.5 361q31 146 116.5 279.5t202.5 230t262.5 154t291.5 57.5q117 0 219.5 -37t176.5 -102.5t123.5 -156t60.5 -198t-11 -227.5l-10 -49h-1114l-97 -446q157 -137 365 -137q203 0 410 127zM1358 1194
q-69 66 -163.5 102.5t-201.5 36.5q-213 0 -422 -137l-96 -455h787z" />
    <glyph glyph-name="uni2153" unicode="&#x2153;" horiz-adv-x="1454" 
d="M1186 1427q18 11 57 11q17 0 30.5 -3t18.5 -5l4 -3l-1097 -1439q-23 -8 -60 -8q-15 0 -28 2t-19 4l-6 2zM455 1403q19 8 51 8q19 0 47 -8l-147 -688q-21 -6 -48 -6q-37 0 -55 6l103 483q20 80 20 82q-101 -71 -217 -94q-24 27 -6 84q146 37 252 133zM928 682
q81 31 192 31q114 0 166 -48.5t33 -136.5q-23 -111 -127 -157q51 -23 71.5 -65t6.5 -113q-43 -203 -320 -203q-51 0 -95.5 8.5t-63.5 17.5l-19 9q4 47 41 71q66 -20 152 -20q179 0 204 125q26 125 -120 125h-95q-6 40 17 84h94q62 0 100 28t49 78q10 56 -20 83.5t-98 27.5
q-38 0 -78 -4.5t-61 -9.5l-21 -5q-21 28 -8 74z" />
    <glyph glyph-name="uni2154" unicode="&#x2154;" horiz-adv-x="1585" 
d="M219 -12l1100 1439q18 11 57 11q17 0 30.5 -3t18.5 -5l5 -3l-1098 -1439q-23 -8 -60 -8q-15 0 -28 2t-19 4zM129 793q16 77 66 132.5t110.5 86.5t120.5 58t105.5 64t56.5 87q10 50 -21 81.5t-106 32.5q-82 0 -152 -20q-17 33 -8 78q84 28 193 28q116 0 167.5 -52
t30.5 -142q-12 -58 -47 -102.5t-79 -69.5t-96.5 -51.5t-98 -49.5t-84 -63t-54.5 -92h353q4 -25 -2 -45q-7 -27 -17 -45h-446q-2 37 8 84zM1403 193q-43 -203 -320 -203q-51 0 -95.5 8.5t-63.5 17.5l-19 9q4 47 41 71q66 -20 152 -20q180 0 205 125q26 125 -121 125h-95
q-6 40 17 84h94q62 0 100.5 28t49.5 78q10 56 -20 83.5t-99 27.5q-38 0 -78 -4.5t-61 -9.5l-21 -5q-21 28 -8 74q81 31 192 31q114 0 166 -48.5t33 -136.5q-23 -111 -127 -157q51 -23 71.5 -65t6.5 -113z" />
    <glyph glyph-name="oneeighth" unicode="&#x215b;" horiz-adv-x="1452" 
d="M1186 1427q18 11 57 11q17 0 30.5 -3t18.5 -5l4 -3l-1097 -1439q-23 -8 -60 -8q-15 0 -28 2t-19 4l-6 2zM455 1403q19 8 51 8q19 0 47 -8l-147 -688q-21 -6 -48 -6q-37 0 -55 6l103 483q20 80 20 82q-101 -71 -217 -94q-24 27 -6 84q146 37 252 133zM864 537
q15 80 85.5 128t180.5 48q105 0 155.5 -45.5t33.5 -128.5q-23 -110 -141 -177q54 -32 79 -73t11 -105q-20 -92 -96.5 -143t-194.5 -51q-116 0 -173 48.5t-36 141.5q23 119 166 193q-93 61 -70 164zM1221 532q11 50 -17 76.5t-92 26.5q-59 0 -98.5 -25.5t-48.5 -68.5
q-5 -27 2 -48t30 -38t42 -27t55 -25q9 -4 14 -6q97 56 113 135zM1165 178q1 16 2.5 28t-6 24.5t-13 21t-18 18t-22.5 16t-25.5 14t-27 13t-27.5 13t-27 12.5q-22 -11 -44.5 -26.5t-52.5 -51t-38 -74.5q-23 -114 131 -114q65 0 111.5 27t56.5 79z" />
    <glyph glyph-name="threeeighths" unicode="&#x215c;" horiz-adv-x="1546" 
d="M1280 1427q18 11 57 11q17 0 30.5 -3t18.5 -5l5 -3l-1098 -1439q-23 -8 -60 -8q-15 0 -28 2t-19 4l-6 2zM276 1391q82 30 193 30q114 0 166 -48t33 -136q-23 -111 -125 -158q105 -48 75 -178q-43 -203 -319 -203q-51 0 -95.5 8.5t-63.5 17.5l-19 9q8 49 41 72
q65 -21 151 -21q180 0 205 125q26 125 -121 125h-94q-6 42 19 84h94q124 0 147 107q12 56 -18 83t-99 27q-38 0 -78 -4.5t-60 -8.5l-21 -5q-24 27 -11 74zM958 537q15 80 86 128t181 48q105 0 155 -45.5t33 -128.5q-23 -110 -141 -177q54 -32 79 -73t11 -105
q-20 -92 -96.5 -143t-194.5 -51q-116 0 -173 48.5t-36 141.5q23 119 166 193q-93 61 -70 164zM1315 532q11 50 -17 76.5t-92 26.5q-59 0 -98.5 -25.5t-48.5 -68.5q-5 -27 2 -48t30 -38t42 -27t55 -25q9 -4 14 -6q97 56 113 135zM1260 178q1 16 2.5 28t-6 24.5t-13 21t-18 18
t-22.5 16t-25.5 14t-27 13t-27.5 13t-27 12.5q-22 -11 -44.5 -26.5t-52.5 -51t-38 -74.5q-23 -114 131 -114q65 0 111.5 27t56.5 79z" />
    <glyph glyph-name="fiveeighths" unicode="&#x215d;" horiz-adv-x="1542" 
d="M1276 1427q18 11 57 11q17 0 30.5 -3t18.5 -5l4 -3l-1097 -1439q-23 -8 -60 -8q-15 0 -28 2t-19 4l-6 2zM311 1411h379q7 -48 -18 -90h-281l-39 -180q159 0 228.5 -51.5t44.5 -171.5q-45 -220 -326 -220q-51 0 -95.5 8.5t-63.5 17.5l-19 9q7 47 41 74q63 -23 143 -23
q186 0 213 131q17 79 -28.5 108.5t-165.5 29.5h-88zM954 537q15 80 86 128t181 48q105 0 155 -45.5t33 -128.5q-23 -110 -141 -177q54 -32 79 -73t11 -105q-20 -92 -96.5 -143t-194.5 -51q-116 0 -173 48.5t-36 141.5q23 119 166 193q-93 61 -70 164zM1311 532
q11 50 -17 76.5t-92 26.5q-59 0 -98.5 -25.5t-48.5 -68.5q-5 -27 2 -48t30 -38t42 -27t55 -25q9 -4 14 -6q97 56 113 135zM1255 178q1 16 2.5 28t-6 24.5t-12.5 21t-18 18t-22.5 16t-25 14.5t-27 13t-27.5 12.5t-27 12.5q-15 -8 -31 -18.5t-39.5 -29.5t-41.5 -46.5
t-24 -57.5q-23 -114 131 -114q65 0 111.5 27t56.5 79z" />
    <glyph glyph-name="seveneighths" unicode="&#x215e;" horiz-adv-x="1370" 
d="M1104 1427q18 11 57 11q17 0 30.5 -3t18.5 -5l4 -3l-1097 -1439q-23 -8 -60 -8q-15 0 -28 2t-19 4l-6 2zM268 1411h443q2 -26 -6 -57q-12 -56 -37 -104t-56 -84t-66.5 -71t-72 -72.5t-68.5 -79t-59.5 -100.5t-42.5 -128q-53 -12 -100 0q22 98 61 174.5t83.5 126.5
t88 92.5t86.5 96t68 114.5h-340q-7 47 18 92zM782 537q15 80 86 128t181 48q105 0 155 -45.5t33 -128.5q-23 -110 -141 -177q54 -32 79 -73t11 -105q-20 -92 -96.5 -143t-194.5 -51q-116 0 -173 48.5t-36 141.5q23 119 166 193q-93 61 -70 164zM1139 532q11 50 -17 76.5
t-92 26.5q-59 0 -98.5 -25.5t-48.5 -68.5q-5 -27 2 -48t30 -38t42 -27t55 -25q9 -4 14 -6q97 56 113 135zM1083 178q1 16 2.5 28t-6 24.5t-12.5 21t-18 18t-22.5 16t-25 14.5t-27 13t-27.5 12.5t-27 12.5q-15 -8 -31 -18.5t-39.5 -29.5t-41.5 -46.5t-24 -57.5
q-23 -114 131 -114q65 0 111.5 27t56.5 79z" />
    <glyph glyph-name="arrowleft" unicode="&#x2190;" horiz-adv-x="1275" 
d="M104 717l535 440q44 -16 53 -67l-387 -320h895q4 -20 -4 -53q-5 -31 -18 -53h-895l252 -320q-34 -56 -82 -68z" />
    <glyph glyph-name="arrowup" unicode="&#x2191;" horiz-adv-x="1005" 
d="M639 1262l346 -439q-22 -48 -80 -69l-252 319l-188 -893q-23 -10 -57 -10q-27 0 -52 10l189 893l-385 -319q-51 18 -54 69z" />
    <glyph glyph-name="arrowright" unicode="&#x2192;" horiz-adv-x="1271" 
d="M1204 717l-530 -441q-22 6 -37.5 24.5t-18.5 43.5l388 320h-893q-5 24 0 53q9 36 22 53h893l-252 320q27 50 84 67z" />
    <glyph glyph-name="arrowdown" unicode="&#x2193;" horiz-adv-x="1007" 
d="M584 1253q27 9 55 9q26 0 53 -9l-190 -895l387 320q22 -9 35.5 -27.5t15.5 -40.5l-532 -440l-347 440q24 49 82 68l250 -320z" />
    <glyph glyph-name="uni2196" unicode="&#x2196;" horiz-adv-x="1044" 
d="M250 1102h622q6 -22 0 -47q-3 -21 -20 -49h-451l500 -631q-30 -52 -94 -78l-498 635l-94 -453q-21 -8 -49 -8q-31 0 -47 8z" />
    <glyph glyph-name="uni2197" unicode="&#x2197;" horiz-adv-x="1050" 
d="M997 1102l-131 -623q-21 -8 -51 -8q-29 0 -45 8l94 451l-764 -633q-25 11 -41.5 31.5t-19.5 46.5l766 631h-451q-3 24 0 49q5 18 21 47h622z" />
    <glyph glyph-name="uni2198" unicode="&#x2198;" horiz-adv-x="1036" 
d="M743 455l97 450q21 8 49 8q31 0 47 -8l-133 -622h-623q-4 30 0 47q4 14 21 49h450l-497 631q27 53 94 77z" />
    <glyph glyph-name="uni2199" unicode="&#x2199;" horiz-adv-x="1046" 
d="M217 455l766 632q52 -23 61 -77l-768 -631h451q6 -22 0 -47q-7 -30 -18 -47h-623l131 620q20 10 51 10q30 0 45 -10z" />
    <glyph glyph-name="partialdiff" unicode="&#x2202;" horiz-adv-x="1136" 
d="M446 1409q0 76 48 127q348 -47 474 -268.5t40 -626.5q-39 -185 -96.5 -314.5t-133.5 -205t-163.5 -108.5t-196.5 -33q-444 0 -328 536q59 279 198 408t339 129q179 0 264 -121q-8 192 -116.5 316t-328.5 161zM879 776q-29 76 -100.5 117t-166.5 41q-68 0 -121 -19.5
t-100.5 -66t-84 -129.5t-62.5 -203q-21 -96 -22.5 -168.5t12.5 -120t44 -77.5t70 -42t94 -12q298 0 387 420q48 244 50 260z" />
    <glyph glyph-name="Delta" unicode="&#x2206;" horiz-adv-x="1312" 
d="M768 1464q44 11 80 11q32 0 76 -11l223 -1382q-19 -48 -68 -82h-1102q-34 30 -34 80zM803 1282h-6q-25 -65 -107 -205l-569 -950h862l-160 952q-11 59 -20 203z" />
    <glyph glyph-name="product" unicode="&#x220f;" horiz-adv-x="1464" 
d="M1421 1419l-389 -1831q-25 -12 -74 -12q-20 0 -36 3t-22 6l-7 3l362 1700h-763l-363 -1700q-23 -12 -74 -12q-19 0 -35.5 3t-23.5 6l-6 3l389 1831h1042z" />
    <glyph glyph-name="summation" unicode="&#x2211;" horiz-adv-x="1191" 
d="M-133 -346l651 881l-256 819l14 67h981q6 -22 -2 -63q-4 -17 -10 -33t-10 -23l-4 -8h-793l238 -762l-608 -827h837q6 -22 -2 -65q-4 -17 -10 -33t-10 -23l-4 -8h-1029z" />
    <glyph glyph-name="minus" unicode="&#x2212;" horiz-adv-x="960" 
d="M780 616h-608q-6 21 2 60q4 17 9.5 32t9.5 21l4 6h608q4 -20 -4 -59q-4 -17 -9 -32t-8 -22z" />
    <glyph glyph-name="uni2215" unicode="&#x2215;" horiz-adv-x="974" 
d="M-106 -10l1097 1437q23 11 64 11q18 0 33 -3t20 -5l6 -3l-1100 -1437q-24 -10 -63 -10q-16 0 -30.5 2.5t-20.5 5.5z" />
    <glyph glyph-name="uni2219" unicode="&#x2219;" horiz-adv-x="485" 
d="M236 598q-36 0 -58.5 24t-13.5 66q10 42 42 66t68 24q37 0 58.5 -24t11.5 -66q-9 -42 -40.5 -66t-67.5 -24z" />
    <glyph glyph-name="radical" unicode="&#x221a;" horiz-adv-x="1300" 
d="M492 -31l-158 762l-238 -94q-18 16 -23.5 43.5t5.5 58.5l358 144l150 -731l737 1343q76 11 102 -29l-819 -1497h-114z" />
    <glyph glyph-name="infinity" unicode="&#x221e;" horiz-adv-x="1671" 
d="M1126 324q-70 0 -127 25t-89 60.5t-53.5 71.5t-28.5 61l-7 25q-6 -10 -18.5 -26.5t-53 -58t-84.5 -73.5t-112.5 -58.5t-138.5 -26.5q-88 0 -152.5 29.5t-95.5 77.5t-42.5 109.5t5.5 125.5q14 66 49 125.5t88 109t129 78.5t164 29q70 0 127 -25.5t88.5 -61.5t52.5 -72
t28 -61l7 -26q7 10 20 26.5t55.5 59t87.5 75t112.5 59t134.5 26.5q71 0 126.5 -19t88.5 -52t54 -77t21.5 -93t-8.5 -101q-14 -66 -48.5 -125.5t-87 -109t-128.5 -78.5t-164 -29zM434 440q56 0 111 23.5t92.5 56.5t67.5 66t45 56l14 24q-1 9 -5 24t-20.5 54t-40 68.5t-69 54
t-101.5 24.5q-117 0 -187.5 -66.5t-90.5 -158.5q-5 -32 -6 -64t11.5 -61.5t33.5 -51.5t58.5 -35.5t86.5 -13.5zM1249 891q-56 0 -110.5 -23t-92.5 -56.5t-67.5 -66.5t-44.5 -56l-14 -23q1 -9 4.5 -24.5t20.5 -54.5t40.5 -68.5t68.5 -54t101 -24.5q117 0 188 67t91 159
q11 40 4.5 80t-24.5 72t-61 52.5t-104 20.5z" />
    <glyph glyph-name="integral" unicode="&#x222b;" horiz-adv-x="1015" 
d="M295 -61l256 1206q33 158 126 245t238 87q121 0 236 -80q-22 -61 -72 -90q-93 62 -192 57q-169 -7 -215 -217l-256 -1208q-36 -168 -131 -249t-234 -81q-105 0 -221 80q18 59 72 90q87 -67 188 -62q158 12 205 222z" />
    <glyph glyph-name="approxequal" unicode="&#x2248;" horiz-adv-x="1103" 
d="M414 750q-44 0 -86 -19t-62 -38l-20 -19q-29 7 -43.5 28t-12.5 50q4 5 11 12.5t31.5 27.5t51.5 35.5t70.5 28t89.5 12.5q45 0 85.5 -16t66.5 -36t65 -36t82 -16q44 0 86 19t62 38l20 19q58 -19 58 -76q-4 -5 -10.5 -13t-31 -28.5t-52 -36t-71.5 -28.5t-91 -13
q-45 0 -85.5 16.5t-66.5 36t-65 36t-82 16.5zM340 406q-44 0 -86 -19t-62 -38l-20 -19q-55 17 -55 78q4 5 11 13t32 28t52.5 35.5t71 28.5t89.5 13q45 0 85.5 -16t66.5 -36t65 -36t82 -16q44 0 85.5 18.5t60.5 37.5l20 18q56 -15 59 -76q-4 -5 -11 -13t-31.5 -28.5t-52 -36
t-72 -28.5t-91.5 -13q-45 0 -85.5 16.5t-66.5 36t-65 36t-82 16.5z" />
    <glyph glyph-name="notequal" unicode="&#x2260;" horiz-adv-x="989" 
d="M350 356l-143 -188q-30 -10 -62 -10q-24 0 -49 10l146 188h-160q-4 30 2 58q5 26 22 59h224l184 242h-356q-4 21 2 59q6 29 22 55h420l133 172q33 11 60 11q23 0 51 -11l-133 -172h178q5 -24 -2 -55q-3 -18 -23 -59h-241l-185 -242h375q5 -27 -2 -57q-4 -18 -22 -60h-441
z" />
    <glyph glyph-name="lessequal" unicode="&#x2264;" horiz-adv-x="962" 
d="M750 455l-568 235q-4 29 4 68q4 18 9.5 34.5t9.5 23.5l4 7l670 238q6 -19 -2 -60q-4 -18 -9.5 -33.5t-9.5 -21.5l-4 -6l-524 -184l446 -181q6 -20 -4 -61q-4 -17 -9.5 -32t-8.5 -21zM700 221h-618q-6 21 2 60q4 16 9.5 30.5t8.5 20.5l4 6h619q6 -20 -2 -57
q-4 -17 -9.5 -32t-9.5 -21z" />
    <glyph glyph-name="greaterequal" unicode="&#x2265;" horiz-adv-x="956" 
d="M807 690l-670 -235q-6 20 2 59q4 18 10.5 33.5t10.5 21.5l4 6l520 181l-442 184q-6 20 2 61q4 18 9.5 33t8.5 21l4 6l568 -238q5 -24 -3 -65q-4 -17 -10 -34t-10 -26zM707 221h-619q-6 21 2 60q4 16 9.5 30.5t9.5 20.5l4 6h618q6 -20 -2 -57q-4 -17 -9.5 -32t-9.5 -21z
" />
    <glyph glyph-name="lozenge" unicode="&#x25ca;" horiz-adv-x="1130" 
d="M399 14l-282 707l583 704h66l289 -704l-590 -707h-66zM911 719l-215 536l-432 -536l205 -537z" />
    <glyph glyph-name="commaaccentcomb" unicode="&#xf6c3;" horiz-adv-x="0" 
d="M-219 -229l-49 39q9 8 22.5 22.5t43.5 63.5t46 104q-16 1 -29 3.5t-17 4.5l-5 2l33 150q27 10 84 10q24 0 44.5 -2.5t29.5 -5.5l8 -2l-23 -103q-11 -53 -35 -102t-49.5 -81t-49 -56.5t-39.5 -35.5z" />
    <glyph glyph-name="CR" horiz-adv-x="659" 
 />
    <glyph glyph-name="_0020" horiz-adv-x="0" 
 />
    <glyph glyph-name="_375" horiz-adv-x="1323" 
d="M588 1464q44 11 80 11q31 0 75 -11l224 -1382q-19 -48 -68 -82h-1102q-35 30 -35 80zM623 1282h-7q-27 -70 -106 -205l-569 -950h862l-160 952q-11 59 -20 203z" />
    </font>
</defs>
</svg>
