<?xml version="1.0" standalone="no"?>
<!DOCTYPE svg PUBLIC "-//W3C//DTD SVG 1.1//EN" "http://www.w3.org/Graphics/SVG/1.1/DTD/svg11.dtd" >
<svg xmlns="http://www.w3.org/2000/svg" xmlns:xlink="http://www.w3.org/1999/xlink" version="1.1">
<metadata>
Created by FontForge 20170731 at Wed Sep  8 13:44:14 2021
 By Aleksey,,,
Copyright (c) 2014 by Fontfabric LLC. All rights reserved.
</metadata>
<defs>
<font id="GloberBoldItalic" horiz-adv-x="1124" >
  <font-face 
    font-family="Glober Bold Italic"
    font-weight="700"
    font-style="italic"
    font-stretch="normal"
    units-per-em="2048"
    panose-1="0 0 0 0 0 0 0 0 0 0"
    ascent="1536"
    descent="-512"
    x-height="1077"
    cap-height="1475"
    bbox="-485 -631 2131.36 2127.31"
    underline-thickness="102"
    underline-position="-307"
    unicode-range="U+0020-FB02"
  />
<missing-glyph horiz-adv-x="1265" 
d="M864 0h-1102l314 1475h1102zM852 997q15 83 2 140t-56 92.5t-99.5 51t-129.5 15.5q-76 0 -146 -15t-102 -29l-32 -15q-28 -92 33 -147q71 38 180 38q78 0 116 -30t21 -109q-9 -45 -29 -78t-45 -54.5t-54 -40.5t-59 -43.5t-57.5 -55.5t-51 -83.5t-38.5 -121.5
q27 -20 78 -20q24 0 44.5 5t28.5 10l9 5q10 47 33.5 82.5t53.5 59.5t65 45.5t70.5 46.5t67 56t58 81t39.5 114zM459 367q-35 14 -103 14q-32 0 -58 -3.5t-36 -7.5l-10 -3l-41 -189q28 -12 100 -12q30 0 57 3t38 6l12 3z" />
    <glyph glyph-name="fi" unicode="fi" horiz-adv-x="1208" 
d="M330 1200q33 159 153 247.5t316 88.5q122 0 230.5 -17.5t156.5 -34.5l47 -18q-25 -101 -105 -178q-15 5 -43.5 12.5t-121.5 20t-191 12.5q-156 0 -182 -123l-29 -133h475q37 0 68.5 -4t43.5 -8l13 -4l-221 -1045q-49 -16 -133 -16q-40 0 -71.5 4t-42.5 8l-11 4l184 871
h-346l-184 -871q-49 -16 -133 -16q-40 0 -71.5 4t-42.5 8l-11 4l184 871h-131q-4 41 8 98q5 24 13.5 47t13.5 34l6 11h131z" />
    <glyph glyph-name="fl" unicode="fl" horiz-adv-x="1210" 
d="M330 1200q33 159 153 247.5t316 88.5q109 0 221 -17.5t170 -34.5l57 -18l-307 -1450q-49 -16 -133 -16q-40 0 -71.5 4t-42.5 8l-11 4l276 1307q-88 10 -186 10q-156 0 -182 -123l-29 -133h168q3 -39 -8 -94q-6 -32 -33 -96h-168l-184 -871q-49 -16 -133 -16
q-40 0 -71.5 4t-42.5 8l-11 4l184 871h-131q0 44 10 96q9 48 31 94h131z" />
    <glyph glyph-name=".notdef" horiz-adv-x="1265" 
d="M864 0h-1102l314 1475h1102zM852 997q15 83 2 140t-56 92.5t-99.5 51t-129.5 15.5q-76 0 -146 -15t-102 -29l-32 -15q-28 -92 33 -147q71 38 180 38q78 0 116 -30t21 -109q-9 -45 -29 -78t-45 -54.5t-54 -40.5t-59 -43.5t-57.5 -55.5t-51 -83.5t-38.5 -121.5
q27 -20 78 -20q24 0 44.5 5t28.5 10l9 5q10 47 33.5 82.5t53.5 59.5t65 45.5t70.5 46.5t67 56t58 81t39.5 114zM459 367q-35 14 -103 14q-32 0 -58 -3.5t-36 -7.5l-10 -3l-41 -189q28 -12 100 -12q30 0 57 3t38 6l12 3z" />
    <glyph glyph-name=".null" horiz-adv-x="0" 
 />
    <glyph glyph-name="nonmarkingreturn" horiz-adv-x="682" 
 />
    <glyph glyph-name="space" unicode=" " horiz-adv-x="452" 
 />
    <glyph glyph-name="exclam" unicode="!" horiz-adv-x="587" 
d="M156 424l176 1034q53 17 143 17q37 0 71 -4.5t49 -8.5l15 -4l-262 -1034q-39 -18 -98 -18q-26 0 -49.5 4.5t-34.5 9.5zM344 252l-49 -236q-49 -16 -133 -16q-40 0 -71.5 4t-42.5 8l-11 4l49 236q43 16 133 16q37 0 68.5 -4t44.5 -8z" />
    <glyph glyph-name="quotedbl" unicode="&#x22;" horiz-adv-x="786" 
d="M225 1038l45 420q41 17 131 17q37 0 68 -4.5t43 -8.5l12 -4l-131 -420q-33 -14 -88 -14q-24 0 -44 3.5t-28 6.5zM561 1038l45 420q41 17 131 17q37 0 68 -4.5t43 -8.5l12 -4l-131 -420q-33 -14 -88 -14q-24 0 -44 3.5t-28 6.5z" />
    <glyph glyph-name="numbersign" unicode="#" horiz-adv-x="1363" 
d="M1120 1257q62 19 117 19q58 0 104 -19l-114 -231h137q7 -47 -2 -94q-13 -59 -41 -111h-195l-190 -387h133q8 -41 -6 -102q-5 -26 -14.5 -52t-16.5 -38l-6 -13h-190l-105 -211q-53 -18 -113 -18q-58 0 -108 18l104 211h-249l-105 -211q-56 -18 -119 -18q-55 0 -102 18
l104 211h-147q-6 38 6 101q6 31 15.5 57t15.5 37l6 10h205l190 387h-143q-3 56 8 105q13 58 35 100h201l114 231q59 19 113 19q59 0 108 -19l-114 -231h250zM655 821l-190 -387h250l190 387h-250z" />
    <glyph glyph-name="dollar" unicode="$" horiz-adv-x="1150" 
d="M682 1599q46 17 109 17q30 0 55.5 -4t35.5 -8l11 -5l-68 -233q82 -4 161 -17.5t117 -24.5l38 -11q-6 -46 -37 -103q-14 -24 -32.5 -45.5t-29.5 -30.5l-12 -10q-13 5 -37 12t-98 19t-147 12q-138 0 -217.5 -37t-98.5 -124q-11 -52 21 -88.5t91.5 -59t132.5 -43t144 -51
t125.5 -72.5t79 -117t2.5 -176q-72 -352 -493 -391l-35 -256q-37 -16 -107 -16q-29 0 -55 4t-38 8l-11 4l71 252q-65 3 -127.5 12.5t-105 21t-75.5 22.5t-48 18l-16 8q-1 35 28 98q13 27 30 51t28 34l10 10q21 -7 57 -17t135 -26.5t183 -16.5q135 0 208.5 37t92.5 127
q11 54 -11.5 93t-68 60.5t-105.5 42t-123.5 36.5t-121.5 44.5t-100 66.5t-59.5 102t1.5 151q35 168 156.5 265.5t320.5 117.5z" />
    <glyph glyph-name="percent" unicode="%" horiz-adv-x="1568" 
d="M1452 1423l-1094 -1429q-32 -14 -98 -14q-28 0 -51.5 3.5t-32.5 6.5l-10 4l1094 1429q32 15 98 15q28 0 51.5 -4t32.5 -8zM373 707q-142 0 -196.5 84t-14.5 270q74 354 362 354q141 0 197 -84t16 -270t-131.5 -270t-232.5 -84zM494 1274q-55 0 -89.5 -44t-60.5 -169
q-22 -88 -17 -135t22 -61.5t54 -14.5q54 0 87.5 42t60.5 169q20 86 16 133.5t-21 63.5t-52 16zM1075 -20q-142 0 -196.5 84t-14.5 270q74 354 361 354q141 0 197 -84t18 -270q-40 -186 -132 -270t-233 -84zM1196 547q-55 0 -89 -44t-60 -169q-22 -88 -17 -135t22 -61.5
t54 -14.5q54 0 86.5 42t60.5 169q20 86 16 133.5t-21 63.5t-52 16z" />
    <glyph glyph-name="ampersand" unicode="&#x26;" horiz-adv-x="1310" 
d="M815 1413q149 0 221.5 -68t46.5 -190q-15 -73 -54 -137t-100.5 -117.5t-117 -91t-135.5 -82.5q70 -157 198 -293q40 50 117 174q60 7 108 -13t68 -60q-68 -106 -170 -211q95 -72 195 -121q-7 -59 -53 -118t-103 -87q-126 56 -241 147q-82 -66 -197 -115.5t-256 -49.5
q-79 0 -145 21t-115 62.5t-68 111t0 159.5q13 65 48 127t76.5 106.5t94 85t92.5 65t81 44.5q-42 181 -9 323q31 149 137 238.5t281 89.5zM766 1247q-110 0 -143 -149q-21 -103 6 -224q89 54 144.5 115.5t74.5 149.5q11 51 -10 79.5t-72 28.5zM428 186q130 0 248 72
q-146 162 -221 354q-164 -110 -193 -241q-18 -81 26.5 -133t139.5 -52z" />
    <glyph glyph-name="quotesingle" unicode="'" horiz-adv-x="450" 
d="M225 1038l45 420q41 17 131 17q37 0 68 -4.5t43 -8.5l12 -4l-131 -420q-33 -14 -88 -14q-24 0 -44 3.5t-28 6.5z" />
    <glyph glyph-name="parenleft" unicode="(" horiz-adv-x="622" 
d="M680 1632q24 -15 41.5 -33t22.5 -29l6 -11q-11 -14 -31 -41.5t-74.5 -118.5t-102.5 -189t-102.5 -249.5t-87.5 -305.5t-43.5 -303.5t-2.5 -253t21 -185t25 -121.5l13 -40q-31 -45 -97 -74q-29 -13 -58 -20t-44 -8h-14q-7 18 -18 52t-34 141.5t-34 219t-5 274.5t39 318
t94.5 316t125.5 279.5t123.5 214.5t96.5 146l38 50q51 2 102 -29z" />
    <glyph glyph-name="parenright" unicode=")" horiz-adv-x="622" 
d="M283 655q33 154 43.5 303.5t2.5 253.5t-21 185.5t-26 121.5l-12 40q31 40 99 73q30 14 58.5 21t42.5 7l13 1q7 -18 18 -52t34 -141.5t34 -219t5 -275t-39 -318.5t-94.5 -316t-125.5 -279t-123.5 -214.5t-97.5 -145.5l-37 -50q-51 -1 -104 28q-24 13 -41 31.5t-22 30.5
l-5 12q11 14 31 41.5t74.5 118t102.5 189t102.5 249.5t87.5 305z" />
    <glyph glyph-name="asterisk" unicode="*" horiz-adv-x="688" 
d="M416 1298l33 158q70 21 133 -2l-33 -156l160 50q28 -44 12 -125l-158 -49l68 -127q-64 -56 -127 -76l-64 125l-116 -125q-67 22 -95 76l117 124l-135 52q15 76 68 125z" />
    <glyph glyph-name="plus" unicode="+" horiz-adv-x="952" 
d="M354 500h-284q-6 37 6 94q5 25 13.5 48.5t14.5 34.5l5 11h284l62 285q39 14 96 14q25 0 48 -3.5t33 -7.5l11 -3l-61 -285h284q8 -37 -4 -94q-5 -25 -14 -48.5t-15 -34.5l-6 -11h-284l-62 -285q-39 -14 -96 -14q-25 0 -48 3.5t-33 7.5l-11 3z" />
    <glyph glyph-name="comma" unicode="," horiz-adv-x="501" 
d="M23 -281l-78 62q10 9 25 25.5t49 73.5t51 120q-24 2 -43 6t-26 7l-7 3l49 236q49 16 133 16q37 0 68.5 -4t43.5 -8l13 -4l-33 -154q-15 -71 -45.5 -136t-64 -107t-64.5 -74.5t-51 -46.5z" />
    <glyph glyph-name="hyphen" unicode="-" horiz-adv-x="741" 
d="M569 500h-450q-6 37 6 94q5 25 13.5 48.5t13.5 34.5l6 11h450q8 -37 -4 -94q-5 -25 -14 -48.5t-15 -34.5z" />
    <glyph glyph-name="period" unicode="." horiz-adv-x="497" 
d="M301 252l-49 -236q-49 -16 -133 -16q-40 0 -71.5 4t-42.5 8l-11 4l49 236q43 16 133 16q37 0 68.5 -4t43.5 -8z" />
    <glyph glyph-name="slash" unicode="/" horiz-adv-x="1019" 
d="M-106 -78l1019 1596q49 18 129 18q37 0 68.5 -4.5t43.5 -9.5l13 -4l-1020 -1596q-49 -18 -129 -18q-37 0 -68 4.5t-44 9.5z" />
    <glyph glyph-name="zero" unicode="0" horiz-adv-x="1257" 
d="M492 -20q-252 0 -345 188.5t-12 566.5q40 187 102 318.5t146 210t185 114t229 35.5q252 0 344.5 -188t11.5 -566q-40 -189 -101.5 -321t-146 -210t-185 -113t-228.5 -35zM750 1196q-62 0 -108.5 -20.5t-92 -73.5t-83 -153.5t-69.5 -252.5q-32 -151 -37 -251t17.5 -153.5
t60 -74t99.5 -20.5q63 0 110 20.5t91.5 74t80.5 153t68 251.5q32 153 38.5 252.5t-15 153t-59.5 74t-101 20.5z" />
    <glyph glyph-name="one" unicode="1" horiz-adv-x="866" 
d="M154 1120q134 34 236 94t198 160q41 19 129 19q38 0 70 -4.5t45 -9.5l12 -5l-289 -1356q-45 -18 -133 -18q-36 0 -68.5 4.5t-46.5 9.5l-14 4l166 785q34 146 65 256q-153 -106 -354 -152q-30 37 -34.5 94t18.5 119z" />
    <glyph glyph-name="two" unicode="2" horiz-adv-x="1089" 
d="M330 1155q-73 69 -35 184q20 8 56.5 20.5t141.5 33t201 20.5q204 0 309.5 -105.5t63.5 -306.5q-10 -46 -23 -84.5t-33 -72t-39.5 -60t-50.5 -53t-57 -46t-68.5 -44.5t-75.5 -43t-87 -46q-12 -6 -18.5 -9.5t-16.5 -9t-18 -9.5q-19 -11 -64.5 -34.5t-69.5 -37t-61 -37.5
t-58 -44.5t-40 -49t-25 -59.5q-2 -10 -2 -31h608q14 -40 0 -114q-13 -67 -49 -117h-850q5 65 17 137q15 82 40 149.5t60.5 118.5t72 90t87 73.5t93 59.5t101.5 57q37 20 56 30q164 91 229 151.5t86 153.5q20 91 -35 135.5t-168 44.5q-62 0 -131.5 -11t-108.5 -23z" />
    <glyph glyph-name="three" unicode="3" horiz-adv-x="1085" 
d="M930 383q-43 -199 -190 -301t-423 -102q-66 0 -126.5 7.5t-100 18t-69 21.5t-43.5 19l-13 7q9 53 38 106t67 85q122 -43 276 -43q142 0 220.5 47t103.5 166q23 109 -24.5 159t-176.5 50h-174q-11 50 0.5 104t42.5 100h174q200 0 240 181q21 101 -29 145.5t-168 44.5
q-65 0 -129.5 -11t-96.5 -21l-32 -11q-79 67 -41 184q17 8 47.5 20.5t127.5 33t196 20.5q223 0 327.5 -95t65.5 -280q-49 -226 -229 -305q196 -84 139 -350z" />
    <glyph glyph-name="four" unicode="4" horiz-adv-x="1189" 
d="M55 543l791 831q47 19 133 19q38 0 69 -4.5t42 -9.5l12 -5l-178 -831h168q10 -37 -2 -103q-6 -29 -16.5 -54.5t-17.5 -36.5l-7 -11h-168l-68 -320q-49 -18 -123 -18q-35 0 -65.5 4.5t-44.5 9.5l-13 4l68 320h-623q-12 36 2 102q5 29 15.5 55t18.5 37zM784 1042l-475 -499
h369z" />
    <glyph glyph-name="five" unicode="5" horiz-adv-x="1079" 
d="M541 1167l-70 -327q23 2 76 2q236 0 334.5 -103.5t52.5 -324.5q-45 -213 -203 -323.5t-426 -110.5q-71 0 -132 7.5t-97.5 18t-63 21.5t-36.5 19l-11 7q9 53 38 106t67 85q11 -5 31.5 -12t88 -19t138.5 -12q144 0 230 50t110 163q8 39 8.5 69.5t-6.5 53t-23 39t-37.5 27.5
t-54 17t-68.5 8.5t-84 2.5q-127 0 -231 -8l162 770h747q19 -119 -47 -226h-493z" />
    <glyph glyph-name="six" unicode="6" horiz-adv-x="1132" 
d="M1065 1393q11 -45 -1 -101.5t-42 -105.5q-217 -24 -354 -108t-219 -253q118 27 217 27q90 0 161 -29t119.5 -87.5t62.5 -146.5t-10 -206q-23 -112 -69 -190.5t-116 -125t-156 -67t-199 -20.5q-227 0 -329.5 135t-43.5 411q89 420 336.5 631.5t642.5 235.5zM737 416
q27 118 -17 176.5t-140 58.5t-209 -33q-17 -68 -23 -100q-73 -342 133 -342q203 0 256 240z" />
    <glyph glyph-name="seven" unicode="7" horiz-adv-x="1015" 
d="M242 1393h858q7 -57 -15 -144q-24 -94 -72.5 -181t-107.5 -158t-126.5 -143t-135.5 -150.5t-128.5 -164t-111 -199t-77.5 -241.5q-58 -12 -125 -12q-71 0 -123 12q29 137 77 257t104 208.5t117.5 165.5t125 142t119 123t106 124t80.5 131h-612q-10 45 6 117q6 33 16.5 61
t17.5 40z" />
    <glyph glyph-name="eight" unicode="8" horiz-adv-x="1181" 
d="M444 -20q-221 0 -327 105t-66 290q44 203 309 332q-79 56 -113.5 147t-8.5 215q35 165 170 254.5t348 89.5q198 0 292 -103t58 -270q-13 -58 -36 -104t-60 -82t-67 -58t-79 -53q96 -60 141.5 -160.5t16.5 -234.5q-79 -368 -578 -368zM715 1223q-94 0 -154.5 -41.5
t-75.5 -114.5q-9 -44 2.5 -78.5t53.5 -66.5t71.5 -48.5t98.5 -49.5l3 -1.5l3 -1.5l4 -2q135 100 162 232q17 83 -26 127.5t-142 44.5zM496 180q105 0 177.5 48t92.5 134q8 37 -2 69.5t-27.5 54.5t-55.5 47t-66.5 39.5t-80.5 39.5q-8 4 -12.5 6t-11 5t-12.5 6
q-173 -107 -207 -264q-19 -88 34.5 -136.5t170.5 -48.5z" />
    <glyph glyph-name="nine" unicode="9" 
d="M88 0q-15 109 43 207q216 22 353.5 106t222.5 254q-102 -26 -220 -26q-85 0 -153.5 27.5t-116.5 84.5t-63 143.5t8 204.5q48 219 186.5 315.5t366.5 96.5q225 0 319.5 -134t34.5 -413q-90 -420 -338 -631t-643 -235zM416 977q-49 -236 159 -236q92 0 205 31q3 13 13 47
t14 55q73 343 -135 343q-203 0 -256 -240z" />
    <glyph glyph-name="colon" unicode=":" horiz-adv-x="520" 
d="M481 1061l-49 -236q-49 -16 -133 -16q-40 0 -71.5 4t-42.5 8l-11 4l49 236q43 16 133 16q37 0 68.5 -4t43.5 -8zM309 252l-49 -236q-49 -16 -133 -16q-40 0 -71.5 4t-42.5 8l-11 4l49 236q43 16 133 16q37 0 68.5 -4t43.5 -8z" />
    <glyph glyph-name="semicolon" unicode=";" horiz-adv-x="520" 
d="M481 1061l-49 -236q-49 -16 -133 -16q-40 0 -71.5 4t-42.5 8l-11 4l49 236q43 16 133 16q37 0 68.5 -4t43.5 -8zM31 -281l-78 62q10 9 25 25.5t49 73.5t51 120q-24 2 -43 6t-26 7l-7 3l49 236q43 16 133 16q37 0 68.5 -4t43.5 -8l13 -4l-33 -154q-15 -71 -45.5 -136
t-64 -107t-64.5 -74.5t-51 -46.5z" />
    <glyph glyph-name="less" unicode="&#x3c;" horiz-adv-x="894" 
d="M662 205l-592 293q-6 43 6 98q5 25 13.5 48t14.5 34l5 10l718 293q8 -31 -6 -94q-5 -27 -14 -51t-15 -34l-6 -11l-485 -201l401 -195q8 -31 -6 -94q-5 -27 -13.5 -51t-14.5 -34z" />
    <glyph glyph-name="equal" unicode="=" horiz-adv-x="1069" 
d="M926 688h-758q-6 107 41 191h758q13 -94 -41 -191zM846 307h-758q-6 107 41 191h758q6 -42 -5.5 -94t-35.5 -97z" />
    <glyph glyph-name="greater" unicode="&#x3e;" horiz-adv-x="894" 
d="M772 498l-719 -293q-6 35 6 96q6 28 15 51.5t14 33.5l6 9l484 195l-400 201q-6 35 6 96q6 28 15 51.5t15 33.5l5 9l592 -293q8 -35 -4 -92q-5 -24 -14 -48.5t-15 -37.5z" />
    <glyph glyph-name="question" unicode="?" horiz-adv-x="894" 
d="M911 1040q-17 -81 -50 -143t-72.5 -101t-84 -70t-88.5 -58t-81.5 -57t-67 -75t-41.5 -104q-34 -24 -102 -24q-28 0 -52 6t-34 12l-11 6q18 86 48 152t63.5 105t71 69.5t73.5 55t67 51t56 68t37 97.5q21 98 -26 135t-144 37q-61 0 -117 -12t-82 -24l-26 -11
q-79 67 -41 184q15 8 44 20.5t120 33t186 20.5q72 0 131.5 -12.5t110 -39.5t80 -70.5t40.5 -106t-8 -144.5zM418 252l-49 -236q-49 -16 -133 -16q-40 0 -71 4t-43 8l-11 4l49 236q43 16 133 16q37 0 68.5 -4t44.5 -8z" />
    <glyph glyph-name="at" unicode="@" horiz-adv-x="1869" 
d="M1761 621q-45 -216 -170 -331.5t-301 -115.5q-211 0 -250 115q-98 -115 -286 -115q-152 0 -215.5 92t-18.5 303q45 213 147.5 305.5t254.5 92.5q157 0 217 -72l12 61q39 21 115 21q34 0 59.5 -5.5t34.5 -10.5l8 -5l-106 -505q-12 -54 4.5 -80.5t66.5 -26.5q79 0 136.5 71
t86.5 206q60 276 -61 442t-399 166q-298 0 -504.5 -175t-272.5 -483q-30 -137 -16 -242.5t56 -180t114.5 -122.5t158.5 -70t187 -22q130 0 275 38.5t280 109.5q62 -37 49 -127q-329 -193 -671 -193q-162 0 -298 48.5t-236 148.5t-135 252.5t5 359.5q41 190 140 346t237 260
t308.5 160t356.5 56q245 0 405 -95t218 -269t8 -408zM756 569q-13 -72 -14.5 -118.5t16 -72.5t43.5 -36t67 -10q65 0 114 39t67 100l43 201q8 61 -24 99t-97 38q-85 0 -135 -49.5t-80 -190.5z" />
    <glyph glyph-name="A" unicode="A" horiz-adv-x="1359" 
d="M696 1456q72 19 164 19q44 0 83 -4.5t56 -9.5l17 -5l184 -1438q-51 -18 -147 -18q-39 0 -65 4.5t-32 9.5l-6 4l-41 328h-559l-180 -328q-70 -18 -152 -18q-35 0 -64 4.5t-40 9.5l-12 4zM811 1208h-8q-41 -112 -109 -235l-227 -416h416l-56 416q-7 56 -11 115t-4 90z" />
    <glyph glyph-name="B" unicode="B" horiz-adv-x="1292" 
d="M350 1475h578q181 0 265.5 -125.5t43.5 -315.5q-42 -188 -219 -274q82 -43 118.5 -144t10.5 -219q-39 -190 -174.5 -293.5t-335.5 -103.5h-600zM479 846h256q96 0 157.5 58.5t82.5 154.5q21 100 -16 157.5t-134 57.5h-256zM342 201h268q111 0 179 58.5t90 166.5
q25 116 -17.5 171.5t-154.5 55.5h-269z" />
    <glyph glyph-name="C" unicode="C" horiz-adv-x="1148" 
d="M137 778q79 366 270.5 541.5t499.5 175.5q101 0 186 -18t119 -36l35 -18q-25 -111 -121 -194q-106 43 -237 43q-68 0 -126 -15t-114 -52.5t-101 -97.5t-84 -154t-65 -218t-27.5 -217.5t18 -152t60.5 -94.5t92 -50t120 -14q65 0 134.5 11t106.5 22l37 12q30 -34 39 -89.5
t-4 -111.5q-6 -3 -17.5 -7.5t-50.5 -17t-81.5 -22t-107.5 -17t-132 -7.5q-300 0 -414 211t-35 587z" />
    <glyph glyph-name="D" unicode="D" horiz-adv-x="1359" 
d="M350 1475h481q288 0 405.5 -189.5t33.5 -576.5q-42 -196 -109 -334t-160.5 -220t-206.5 -118.5t-257 -36.5h-500zM344 217h201q64 0 115.5 12.5t104 46.5t93.5 91t78 150.5t63 219.5q28 127 30.5 220.5t-14 150.5t-55 91t-84.5 46t-110 12h-201z" />
    <glyph glyph-name="E" unicode="E" horiz-adv-x="1134" 
d="M350 1475h846q9 -47 0 -99q-13 -63 -45 -112h-584l-88 -414h482q9 -50 0 -102q-13 -58 -46 -109h-481l-90 -428h604q7 -61 -2 -102q-14 -65 -43 -109h-866z" />
    <glyph glyph-name="F" unicode="F" horiz-adv-x="1089" 
d="M428 610l-125 -592q-49 -18 -137 -18q-38 0 -69.5 4.5t-43.5 9.5l-12 4l309 1457h826q9 -52 -2 -105q-13 -58 -44 -106h-563l-94 -443h502q12 -44 0 -100q-13 -66 -45 -111h-502z" />
    <glyph glyph-name="G" unicode="G" horiz-adv-x="1294" 
d="M137 774q79 366 280.5 543.5t524.5 177.5q110 0 204 -18t132 -36l39 -18q-12 -54 -44 -106t-75 -86q-122 43 -274 43q-75 0 -138 -15t-123.5 -53t-108.5 -98t-88.5 -154.5t-66.5 -218.5t-26 -217.5t22.5 -152.5t67.5 -95.5t101.5 -50.5t131.5 -14q34 0 70 2t55 4l19 2
l88 416h-264q-12 38 2 104q6 30 17 57t19 38l7 12h503l-168 -789q-19 -8 -53.5 -20t-144.5 -31.5t-225 -19.5q-316 0 -439.5 209.5t-44.5 584.5z" />
    <glyph glyph-name="H" unicode="H" horiz-adv-x="1400" 
d="M1022 868l125 588q49 19 135 19q38 0 70 -4.5t44 -9.5l13 -5l-305 -1438q-47 -18 -133 -18q-43 0 -75 4.5t-43 9.5l-11 4l133 625h-541l-133 -625q-51 -18 -135 -18q-42 0 -73.5 4.5t-42.5 9.5l-11 4l305 1438q47 19 133 19q39 0 71.5 -4.5t45.5 -9.5l12 -5l-125 -588
h541z" />
    <glyph glyph-name="I" unicode="I" horiz-adv-x="598" 
d="M39 18l305 1438q47 19 133 19q39 0 71.5 -4.5t45.5 -9.5l12 -5l-305 -1438q-51 -18 -135 -18q-42 0 -73.5 4.5t-42.5 9.5z" />
    <glyph glyph-name="J" unicode="J" horiz-adv-x="927" 
d="M463 412l221 1044q41 19 135 19q39 0 71 -4.5t44 -9.5l12 -5l-219 -1036q-46 -215 -188 -327.5t-334 -112.5q-75 0 -149 15t-111 31l-37 15q22 122 112 197q76 -31 170 -31q103 0 176.5 49t96.5 156z" />
    <glyph glyph-name="K" unicode="K" horiz-adv-x="1263" 
d="M571 870l516 586q74 19 150 19q61 0 135 -19l-598 -684l356 -754q-45 -18 -147 -18q-42 0 -76.5 4.5t-48.5 9.5l-14 4l-299 644h-107l-137 -644q-41 -18 -135 -18q-37 0 -69 4.5t-45 9.5l-13 4l305 1438q49 19 137 19q38 0 69.5 -4.5t43.5 -9.5l12 -5l-125 -586h90z" />
    <glyph glyph-name="L" unicode="L" horiz-adv-x="1069" 
d="M37 0l309 1456q47 19 133 19q39 0 71.5 -4.5t45.5 -9.5l12 -5l-262 -1231h588q11 -47 -2 -112q-10 -48 -45 -113h-850z" />
    <glyph glyph-name="M" unicode="M" horiz-adv-x="1708" 
d="M1360 1456q90 19 190 19q44 0 85.5 -4.5t60.5 -9.5l20 -5l-305 -1438q-49 -18 -133 -18q-37 0 -69.5 4.5t-46.5 9.5l-13 4l94 449q11 51 36.5 172t41 192.5t38.5 162.5t44 151h-12q-22 -45 -65 -114.5t-79 -122.5t-101 -148l-91 -133l-207 -301q-33 -11 -78 -11
q-20 0 -36 2.5t-22 5.5l-5 3q-8 29 -37 131t-45 159q-36 126 -55 195t-40.5 171.5t-23.5 162.5h-12q0 -41 -6.5 -95.5t-20 -128t-24 -126.5t-30.5 -146t-28 -131l-106 -500q-47 -18 -127 -18q-32 0 -60 4.5t-40 9.5l-13 4l305 1438q68 19 162 19q35 0 68 -4.5t49 -9.5l16 -5
l199 -776h10z" />
    <glyph glyph-name="N" unicode="N" horiz-adv-x="1441" 
d="M831 18l-245 824q-19 64 -37.5 139.5t-27.5 118.5l-9 43h-8q-19 -162 -64 -375l-159 -750q-43 -18 -127 -18q-36 0 -65 4.5t-39 9.5l-11 4l305 1438q60 19 162 19q46 0 84 -4.5t52 -9.5l15 -5l242 -819q20 -67 39.5 -143.5t29.5 -119.5l9 -44h8q21 172 66 381l157 745
q41 19 127 19q38 0 67 -4.5t38 -9.5l10 -5l-305 -1438q-54 -18 -158 -18q-45 0 -84 4.5t-55 9.5z" />
    <glyph glyph-name="O" unicode="O" horiz-adv-x="1388" 
d="M137 774q42 194 111 333.5t163 224t206.5 124t250.5 39.5q278 0 396 -199.5t34 -586.5q-82 -386 -263 -557.5t-466 -171.5q-282 0 -398.5 202.5t-33.5 591.5zM1032 737q34 159 36 267t-28 167t-79.5 83t-126.5 24q-75 0 -134.5 -24t-116 -83t-102.5 -167t-80 -267
q-26 -127 -31 -222t8.5 -155t46 -97t75.5 -51.5t102 -14.5q77 0 137 24.5t116 83t100 166.5t77 266z" />
    <glyph glyph-name="P" unicode="P" horiz-adv-x="1241" 
d="M416 553l-113 -535q-47 -18 -133 -18q-43 0 -75 4.5t-43 9.5l-11 4l309 1457h549q134 0 223.5 -67t120 -179.5t0.5 -249.5q-42 -203 -186.5 -314.5t-354.5 -111.5h-286zM463 770h250q106 0 175.5 63.5t94.5 180.5q25 116 -18 179.5t-150 63.5h-250z" />
    <glyph glyph-name="Q" unicode="Q" horiz-adv-x="1388" 
d="M868 1495q278 0 396 -199.5t34 -586.5q-88 -423 -309 -598q92 -86 248 -115q-22 -68 -75.5 -130.5t-114.5 -90.5q-170 65 -259 233q-95 -28 -219 -28q-282 0 -398.5 202.5t-33.5 591.5q42 194 111 333.5t163 224t206.5 124t250.5 39.5zM401 737q-26 -127 -31 -222
t8.5 -155t46 -97t75.5 -51.5t102 -14.5q77 0 137 24.5t116 83t100 166.5t77 266q34 159 36 267t-28 167t-79.5 83t-126.5 24q-75 0 -134.5 -24t-116 -83t-102.5 -167t-80 -267z" />
    <glyph glyph-name="R" unicode="R" horiz-adv-x="1294" 
d="M350 1475h539q203 0 300.5 -134.5t53.5 -336.5q-32 -151 -126 -248.5t-238 -139.5l231 -598q-47 -18 -149 -18q-42 0 -75.5 4.5t-45.5 9.5l-13 4l-209 572h-194l-121 -572q-47 -18 -133 -18q-43 0 -75 4.5t-43 9.5l-11 4zM711 807q106 0 174.5 58.5t91.5 166.5t-21 166.5
t-151 58.5h-240l-94 -450h240z" />
    <glyph glyph-name="S" unicode="S" horiz-adv-x="1169" 
d="M207 1104q39 187 189.5 289t406.5 102q113 0 212.5 -15.5t142.5 -30.5l44 -15q-13 -57 -43 -112.5t-72 -92.5q-14 5 -39 12.5t-102 20t-153 12.5q-150 0 -232 -47t-102 -146q-9 -43 3.5 -75.5t53.5 -58t72 -38.5t99 -37q17 -6 26.5 -9.5t24 -8.5t26.5 -10
q39 -15 71.5 -32.5t65.5 -41.5t56.5 -52t44.5 -64t29 -78t10.5 -94t-11.5 -111q-40 -209 -189 -300t-419 -91q-79 0 -153 9.5t-123.5 22.5t-87.5 26t-56 22l-18 10q9 51 38 107t68 102q21 -7 56.5 -17.5t133 -28.5t181.5 -18q140 0 215.5 49.5t97.5 149.5q16 77 -27.5 124
t-138.5 83q-18 7 -54 20q-153 57 -218 101q-161 109 -138 310q3 25 9 52z" />
    <glyph glyph-name="T" unicode="T" 
d="M244 1475h997q10 -50 -2 -111q-6 -29 -17.5 -58t-19.5 -43l-8 -14h-363l-262 -1231q-51 -18 -135 -18q-42 0 -73.5 4.5t-42.5 9.5l-11 4l262 1231h-372q-12 43 2 111q6 29 17.5 58t19.5 43z" />
    <glyph glyph-name="U" unicode="U" horiz-adv-x="1386" 
d="M1403 1456l-207 -979q-104 -497 -614 -497q-248 0 -374 144t-73 392l201 940q47 19 133 19q39 0 71.5 -4.5t45.5 -9.5l12 -5l-209 -969q-28 -131 29.5 -208.5t187.5 -77.5q131 0 216.5 72t113.5 202l209 981q45 19 131 19q38 0 70 -4.5t44 -9.5z" />
    <glyph glyph-name="V" unicode="V" horiz-adv-x="1335" 
d="M465 1454l104 -879q8 -72 11.5 -145.5t2.5 -111.5l-1 -37h8q51 131 141 297l479 876q56 21 140 21q36 0 69 -5.5t47 -10.5l15 -5l-785 -1438q-71 -16 -161 -16q-41 0 -79.5 4t-56.5 8l-18 4l-174 1434q55 25 151 25q39 0 66 -5.5t34 -10.5z" />
    <glyph glyph-name="W" unicode="W" horiz-adv-x="1990" 
d="M1114 18l-8 842q0 96 6 183.5t12 126.5l6 40h-10q-35 -133 -129 -350l-362 -842q-77 -18 -178 -18q-85 0 -152 18l-78 1438q49 19 137 19q40 0 68.5 -4.5t37.5 -9.5l9 -5l43 -876q3 -63 3 -139t-1 -121l-2 -44h8q54 159 117 302l387 878q62 19 158 19q44 0 75.5 -4.5
t40.5 -9.5l9 -5l12 -876q1 -68 -2.5 -144t-7.5 -118l-4 -42h8q49 140 127 302l418 878q63 19 133 19q34 0 66 -4.5t47 -9.5l16 -5l-694 -1438q-66 -18 -158 -18q-40 0 -79.5 4.5t-58.5 9.5z" />
    <glyph glyph-name="X" unicode="X" horiz-adv-x="1310" 
d="M1141 1456q68 19 151 19q76 0 135 -19l-575 -678l315 -753q-59 -25 -157 -25q-39 0 -71 5t-44 10l-12 5l-234 551l-467 -555q-62 -16 -145 -16q-100 0 -152 16l647 766l-278 674q58 19 156 19q39 0 72 -4.5t46 -9.5l13 -5l200 -471z" />
    <glyph glyph-name="Y" unicode="Y" horiz-adv-x="1302" 
d="M1163 1456q70 19 158 19q37 0 72.5 -4.5t52.5 -9.5l16 -5l-684 -842l-127 -596q-47 -18 -131 -18q-42 0 -74.5 4.5t-44.5 9.5l-12 4l125 590l-311 848q60 19 164 19q42 0 73 -4.5t42 -9.5l10 -5l210 -579z" />
    <glyph glyph-name="Z" unicode="Z" horiz-adv-x="1224" 
d="M326 1475h960q9 -41 -4 -109q-17 -71 -45 -121l-944 -1014h756q3 -51 -9 -110q-17 -68 -41 -121h-1044q-6 60 6 119q12 57 43 112l932 1014h-660q-2 44 13 123q12 59 37 107z" />
    <glyph glyph-name="bracketleft" unicode="[" horiz-adv-x="690" 
d="M395 1659h436q8 -33 -6 -96q-5 -28 -13.5 -51.5t-14.5 -33.5l-6 -10h-199l-344 -1626h198q6 -33 -6 -96q-6 -28 -14.5 -51.5t-13.5 -32.5l-6 -10h-437z" />
    <glyph glyph-name="backslash" unicode="\" horiz-adv-x="1024" 
d="M492 1518l344 -1596q-52 -18 -138 -18q-36 0 -67.5 4.5t-44.5 9.5l-13 4l-344 1596q52 18 138 18q36 0 67.5 -4.5t44.5 -9.5z" />
    <glyph glyph-name="bracketright" unicode="]" horiz-adv-x="690" 
d="M309 -348h-436q-8 31 6 94q5 28 14 52t15 34l6 10h199l344 1626h-199q-6 32 6 95q6 28 15 52t15 34l5 10h436z" />
    <glyph glyph-name="asciicircum" unicode="^" horiz-adv-x="1067" 
d="M817 1460l244 -520q-41 -14 -98 -14q-26 0 -52.5 3.5t-39.5 6.5l-13 4l-174 371l-330 -371q-53 -14 -112 -14q-25 0 -47.5 3.5t-32.5 6.5l-10 4l464 520q40 15 103 15q28 0 52.5 -3.5t34.5 -7.5z" />
    <glyph glyph-name="underscore" unicode="_" horiz-adv-x="1134" 
d="M844 -209h-901q-8 27 4 84q5 25 13.5 46t13.5 29l6 9h901q8 -27 -4 -84q-5 -25 -13.5 -46t-13.5 -29z" />
    <glyph glyph-name="grave" unicode="`" horiz-adv-x="487" 
d="M264 1300l-198 267q37 43 109.5 71t131.5 21l117 -281q-55 -61 -160 -78z" />
    <glyph glyph-name="a" unicode="a" horiz-adv-x="1136" 
d="M856 1065q31 14 117 14q38 0 69 -4t42 -8l12 -4l-222 -1047q-49 -16 -112 -16q-29 0 -57 3.5t-41 6.5l-13 4l-2 90q-115 -124 -293 -124q-118 0 -192.5 62t-100.5 195t19 341q26 122 65 214t85.5 150t105.5 93.5t119 49t133 13.5q82 0 142.5 -33t92.5 -88zM752 657
q21 96 -17 164t-119 68q-52 0 -90 -14t-74 -50.5t-64 -106t-50 -175.5t-23.5 -177t18.5 -109.5t52.5 -53.5t83.5 -15q84 0 145.5 61.5t83.5 160.5z" />
    <glyph glyph-name="b" unicode="b" horiz-adv-x="1142" 
d="M584 1520l-113 -529q110 107 295 107q118 0 188.5 -59.5t94 -190t-22.5 -338.5q-32 -153 -81 -258.5t-114 -164t-136.5 -83t-162.5 -24.5q-173 0 -249 124l-31 -92q-37 -12 -123 -12q-38 0 -69 4t-42 8l-12 4l320 1504q43 16 129 16q38 0 70.5 -4t45.5 -8zM764 539
q22 106 24.5 176t-17 107.5t-51 52t-83.5 14.5q-86 0 -151 -61.5t-85 -159.5l-49 -230q-22 -107 13.5 -178.5t119.5 -71.5q52 0 90 14.5t74 52t64.5 108t50.5 176.5z" />
    <glyph glyph-name="c" unicode="c" horiz-adv-x="905" 
d="M641 889q-130 0 -202 -82t-111 -268q-38 -183 2.5 -262.5t171.5 -79.5q46 0 93.5 7t72.5 14l24 7q26 -29 36.5 -80.5t0.5 -103.5q-12 -7 -35 -17t-107 -27t-181 -17q-229 0 -308.5 155.5t-19.5 437.5q58 273 194 399t371 126q59 0 108.5 -5.5t77.5 -13.5t48 -16t27 -13
l7 -6q-25 -120 -104 -182q-64 27 -166 27z" />
    <glyph glyph-name="d" unicode="d" horiz-adv-x="1140" 
d="M936 1520q47 16 133 16q38 0 69.5 -4t43.5 -8l12 -4l-320 -1504q-49 -16 -112 -16q-29 0 -58 4t-43 8l-14 4l2 88q-115 -124 -307 -124q-180 0 -252 146.5t-8 448.5q32 153 80 257.5t111.5 161.5t134 80.5t161.5 23.5q83 0 150.5 -37.5t97.5 -97.5zM756 676
q17 95 -20.5 154t-119.5 59q-52 0 -90 -14.5t-74 -52t-64 -107.5t-50 -176q-18 -85 -22 -147t4 -101.5t29.5 -62.5t50 -31.5t69.5 -8.5q85 0 146.5 61.5t82.5 160.5z" />
    <glyph glyph-name="e" unicode="e" horiz-adv-x="1042" 
d="M909 459h-592q-5 -55 -5 -95.5t12 -69.5t27.5 -48t42 -30t54.5 -15t66 -4q61 0 122 12.5t92 24.5l30 12q27 -31 38.5 -82.5t2.5 -104.5q-6 -3 -16.5 -8.5t-47 -19t-76.5 -24t-101.5 -19t-125.5 -8.5q-98 0 -171.5 29t-118 82t-66.5 128.5t-20.5 166.5t24.5 198
q30 142 84 243t128 159.5t160 85t191 26.5q86 0 154.5 -25t117 -77t64 -132t-5.5 -190q-13 -58 -29 -112t-26 -78zM748 705q16 92 -15 142t-123 50q-93 0 -152 -59.5t-100 -200.5h371q2 7 9.5 31t9.5 37z" />
    <glyph glyph-name="f" unicode="f" horiz-adv-x="739" 
d="M330 1200q69 336 428 336q68 0 126 -12t82 -24l25 -13q-26 -103 -104 -178q-58 24 -156 24q-61 0 -94 -29t-47 -94l-29 -133h225q0 -54 -8 -98q-11 -44 -33 -92h-225l-184 -871q-49 -16 -133 -16q-40 0 -71.5 4t-42.5 8l-11 4l184 871h-131q0 43 10 98q14 56 31 92h131z
" />
    <glyph glyph-name="g" unicode="g" horiz-adv-x="1148" 
d="M637 53l8 33q-112 -106 -280 -106q-409 0 -285 587q26 123 64 215.5t83 152t102.5 96.5t117 52t131.5 15q93 0 156 -35t91 -92l33 90q37 16 123 16q38 0 69 -4t42 -8l12 -4l-217 -1032q-62 -292 -206.5 -416.5t-397.5 -124.5q-64 0 -120.5 8.5t-91.5 21t-61 25t-36 21.5
l-11 8q14 51 42.5 98t64.5 74q10 -5 28 -12t75.5 -19t115.5 -12q52 0 91.5 7t81.5 29t73 59.5t58 102.5t44 154zM346 539q-18 -85 -22 -147t4 -101.5t29.5 -62.5t50 -31.5t69.5 -8.5q82 0 144 58.5t84 152.5l57 269q22 98 -15 159.5t-122 61.5q-52 0 -90 -14.5t-74 -52
t-64.5 -107.5t-50.5 -176z" />
    <glyph glyph-name="h" unicode="h" 
d="M1020 739l-154 -723q-49 -16 -133 -16q-40 0 -71.5 4t-42.5 8l-11 4l154 725q30 148 -133 148q-102 0 -197 -76l-168 -797q-49 -16 -133 -16q-40 0 -71.5 4t-42.5 8l-11 4l320 1504q41 16 131 16q37 0 69 -4t45 -8l13 -4l-111 -521q126 99 281 99q157 0 228.5 -99
t37.5 -260z" />
    <glyph glyph-name="i" unicode="i" horiz-adv-x="532" 
d="M580 1493l-52 -236q-47 -16 -131 -16q-40 0 -71.5 4t-43.5 8l-12 4l52 236q43 16 133 16q37 0 68.5 -4t44.5 -8zM487 1061l-221 -1045q-49 -16 -133 -16q-40 0 -71.5 4t-42.5 8l-11 4l221 1045q43 16 133 16q37 0 68.5 -4t43.5 -8z" />
    <glyph glyph-name="j" unicode="j" horiz-adv-x="536" 
d="M582 1493l-52 -236q-47 -16 -131 -16q-40 0 -71.5 4t-43.5 8l-12 4l52 236q43 16 133 16q37 0 68.5 -4t44.5 -8zM-35 -188l266 1249q44 16 134 16q37 0 68 -4t43 -8l13 -4l-264 -1241q-34 -160 -130.5 -246t-248.5 -86q-38 0 -73.5 4.5t-51.5 9.5l-16 4q-4 27 4 60
q8 40 21.5 73t23.5 47l10 13q31 -8 66 -8q112 0 135 121z" />
    <glyph glyph-name="k" unicode="k" horiz-adv-x="1034" 
d="M469 657l319 404q74 16 150 16q31 0 61.5 -4t44.5 -8l15 -4l-400 -506l236 -539q-72 -18 -156 -18q-36 0 -65.5 4.5t-41.5 9.5l-11 4l-181 451h-82l-94 -451q-55 -16 -131 -16q-36 0 -67.5 4t-45.5 8l-14 4l320 1508q55 12 133 12q30 0 61.5 -3t47.5 -6l16 -3l-185 -867
h70z" />
    <glyph glyph-name="l" unicode="l" horiz-adv-x="540" 
d="M590 1520l-320 -1504q-49 -16 -133 -16q-40 0 -71.5 4t-42.5 8l-11 4l320 1504q41 16 131 16q37 0 69 -4t45 -8z" />
    <glyph glyph-name="m" unicode="m" horiz-adv-x="1685" 
d="M997 977q147 121 328 121q149 0 218.5 -102.5t35.5 -262.5l-152 -717q-49 -16 -133 -16q-40 0 -71 4t-43 8l-11 4l154 725q30 148 -123 148q-101 0 -184 -74l-170 -799q-49 -16 -133 -16q-40 0 -71.5 4t-42.5 8l-11 4l153 725q30 148 -123 148q-101 0 -184 -74l-170 -799
q-49 -16 -133 -16q-40 0 -71.5 4t-42.5 8l-11 4l221 1045q43 16 133 16q37 0 66 -4t39 -8l10 -4l-6 -74q60 51 133 81t139 30q194 0 256 -121z" />
    <glyph glyph-name="n" unicode="n" 
d="M1020 735l-154 -719q-49 -16 -133 -16q-40 0 -71.5 4t-42.5 8l-11 4l154 725q30 148 -133 148q-91 0 -199 -90l-166 -783q-49 -16 -133 -16q-40 0 -71.5 4t-42.5 8l-11 4l221 1045q37 16 127 16q37 0 66 -4t39 -8l10 -4l-2 -78q69 60 138 87.5t153 27.5q158 0 227.5 -96
t34.5 -267z" />
    <glyph glyph-name="o" unicode="o" horiz-adv-x="1114" 
d="M78 569q32 150 83.5 253.5t124 163.5t158.5 86t199 26q226 0 322.5 -149t33.5 -445q-32 -150 -82.5 -253t-122.5 -162t-157.5 -84t-198.5 -25q-225 0 -323.5 147t-36.5 442zM743 539q22 106 22.5 179t-20 112t-52 55t-79.5 16q-50 0 -89 -16t-75.5 -55.5t-66 -111.5
t-51.5 -179q-22 -106 -22.5 -179t20 -112t52 -55.5t79.5 -16.5q49 0 88 16.5t75.5 55.5t66.5 112t52 179z" />
    <glyph glyph-name="p" unicode="p" horiz-adv-x="1140" 
d="M467 979q122 119 283 119q181 0 258 -148.5t14 -449.5q-26 -122 -64.5 -214t-83.5 -149.5t-102 -93.5t-114.5 -49.5t-125.5 -13.5q-170 0 -253 106l-113 -528q-49 -17 -135 -17q-38 0 -69 4.5t-42 8.5l-12 4l319 1503q45 16 131 16q38 0 67.5 -4t39.5 -8l10 -4zM764 539
q76 350 -131 350q-85 0 -147.5 -61t-84.5 -160l-51 -234q-22 -100 16.5 -173t122.5 -73q101 0 166.5 79t108.5 272z" />
    <glyph glyph-name="q" unicode="q" horiz-adv-x="1136" 
d="M516 -442l113 528q-58 -55 -121.5 -80.5t-157.5 -25.5q-392 0 -268 591q32 153 79.5 258t111 163t133.5 82t161 24q92 0 156 -37t94 -94l27 94q35 16 121 16q38 0 70.5 -4t45.5 -8l13 -4l-320 -1503q-45 -17 -131 -17q-38 0 -70 4.5t-45 8.5zM336 539q-18 -85 -22 -147
t4 -101.5t29.5 -62.5t50 -31.5t69.5 -8.5q82 0 143.5 58.5t83.5 152.5l58 269q21 95 -19.5 158t-118.5 63q-52 0 -90 -14.5t-74 -52t-64 -107.5t-50 -176z" />
    <glyph glyph-name="r" unicode="r" horiz-adv-x="815" 
d="M461 944q143 152 260 152q96 0 168 -54q-22 -71 -59.5 -123t-98.5 -96q-42 45 -108 45q-103 0 -201 -106l-158 -746q-49 -16 -133 -16q-40 0 -71.5 4t-42.5 8l-11 4l221 1045q43 16 133 16q37 0 68.5 -4t43.5 -8l13 -4z" />
    <glyph glyph-name="s" unicode="s" horiz-adv-x="907" 
d="M129 799q33 150 144.5 224.5t310.5 74.5q163 0 280 -62q-21 -117 -96 -180q-90 33 -203 33q-91 0 -139.5 -26.5t-60.5 -88.5q-4 -21 3.5 -38.5t21 -29t39 -23.5t47.5 -19t57.5 -18.5t58.5 -20.5q46 -17 81.5 -44t63 -69.5t34 -98t-6.5 -128.5q-33 -161 -143.5 -233
t-313.5 -72q-62 0 -121 8t-98 19.5t-69 22.5t-44 19l-14 8q33 114 102 191q132 -49 271 -49q161 0 182 114q7 32 -3.5 56t-41 42.5t-57.5 29.5t-76 26q-34 11 -62 24t-57.5 33.5t-48 45t-34 59t-15.5 75.5t8 95z" />
    <glyph glyph-name="t" unicode="t" horiz-adv-x="784" 
d="M516 887l-104 -488q-27 -128 0.5 -170.5t128.5 -42.5l94 7q8 -46 -4 -103q-4 -24 -12.5 -47t-14.5 -34l-6 -11q-68 -18 -156 -18q-194 0 -263.5 101t-26.5 306l106 500h-156q-5 37 7 94q5 28 13.5 52t14.5 34l6 10h156l37 176q120 65 268 52l-47 -228h242q6 -35 -6 -94
q-5 -24 -14 -48t-15 -36l-6 -12h-242z" />
    <glyph glyph-name="u" unicode="u" 
d="M68 348l151 713q49 16 133 16q40 0 71 -4t43 -8l11 -4l-153 -725q-30 -148 133 -148q54 0 108.5 26t89.5 75l166 772q49 16 133 16q40 0 71 -4t43 -8l11 -4l-221 -1045q-43 -16 -133 -16q-35 0 -62 4t-37 8l-10 4l7 86q-110 -122 -291 -122q-87 0 -148.5 29.5t-89.5 80
t-36.5 117t10.5 141.5z" />
    <glyph glyph-name="v" unicode="v" horiz-adv-x="1071" 
d="M371 1061l61 -594q5 -52 7 -109.5t1 -88.5v-31h9q46 110 112 231l316 592q63 16 137 16q36 0 64.5 -4t39.5 -8l10 -4l-561 -1045q-72 -16 -164 -16q-44 0 -82.5 4t-55.5 8l-17 4l-127 1045q53 16 137 16q40 0 68 -4t36 -8z" />
    <glyph glyph-name="w" unicode="w" horiz-adv-x="1624" 
d="M858 16l-18 488q-5 149 18 313h-8q-49 -171 -119 -313l-227 -488q-68 -16 -156 -16q-94 0 -151 16l-72 1045q51 16 133 16q39 0 63 -4t29 -8l4 -4l39 -594q7 -89 -2 -215h6q43 115 92 217l277 592q69 16 147 16q37 0 68 -4t43 -8l12 -4l21 -590q2 -97 -6 -219h6
q16 41 98 217l281 592q55 16 137 16q35 0 61 -4t34 -8l9 -4l-514 -1045q-73 -16 -155 -16q-85 0 -150 16z" />
    <glyph glyph-name="x" unicode="x" horiz-adv-x="1044" 
d="M356 551l-215 510q56 16 144 16q42 0 72 -4t39 -8l10 -4l135 -318l274 318q67 16 143 16q37 0 69.5 -4t46.5 -8l13 -4l-430 -494l238 -551q-55 -16 -143 -16q-42 0 -71 4t-37 8l-9 4l-156 359l-311 -359q-72 -16 -148 -16q-37 0 -69.5 4t-46.5 8l-13 4z" />
    <glyph glyph-name="y" unicode="y" 
d="M823 1061q49 16 133 16q40 0 71 -4t43 -8l11 -4l-217 -1018q-62 -294 -208 -424.5t-396 -130.5q-64 0 -120.5 8.5t-91.5 21t-60.5 25t-35.5 21.5l-11 8q14 51 42 96t64 72q10 -5 28 -13t75.5 -21t115.5 -13q51 0 89.5 7t79 28.5t70 59.5t56.5 102t45 153l6 25
q-64 -49 -125.5 -68.5t-146.5 -19.5q-168 0 -237 100.5t-35 255.5l153 725q49 16 133 16q40 0 71 -4t43 -8l11 -4l-153 -725q-30 -148 133 -148q102 0 194 76z" />
    <glyph glyph-name="z" unicode="z" horiz-adv-x="966" 
d="M272 211h504q8 -39 -6 -107q-6 -27 -16 -53t-16 -39l-7 -12h-776q-3 46 8 111q12 51 37 100l649 655h-483q-4 48 8 109q6 28 15.5 53.5t15.5 37.5l6 11h754q4 -29 -7 -98q-12 -60 -38 -113z" />
    <glyph glyph-name="braceleft" unicode="{" horiz-adv-x="731" 
d="M707 1659h163q6 -44 -6 -94q-7 -39 -35 -97h-112q-86 0 -105 -86l-100 -479q-32 -148 -137 -217q74 -69 43 -219l-101 -479q-19 -86 68 -86h113q5 -37 -6 -99q-12 -51 -35 -92h-164q-133 0 -187.5 73.5t-27.5 199.5l110 520q19 86 -67 86h-51q-5 34 6 96q10 43 35 94h51
q85 0 104 86l111 520q27 127 112 200t218 73z" />
    <glyph glyph-name="bar" unicode="|" horiz-adv-x="606" 
d="M381 1602q43 16 133 16q37 0 68.5 -4t43.5 -8l13 -4l-422 -1989q-49 -16 -133 -16q-40 0 -71.5 4t-42.5 8l-11 4z" />
    <glyph glyph-name="braceright" unicode="}" horiz-adv-x="729" 
d="M297 1659h164q133 0 187.5 -73.5t27.5 -199.5l-111 -520q-19 -86 68 -86h51q4 -54 -6 -94q-8 -47 -35 -96h-51q-86 0 -105 -86l-110 -520q-27 -127 -112 -200t-218 -73h-164q-6 43 6 92q8 47 35 99h113q85 0 104 86l101 479q31 149 135 219q-72 69 -41 217l100 479
q19 86 -67 86h-113q-3 46 6 97q13 55 35 94z" />
    <glyph glyph-name="asciitilde" unicode="~" horiz-adv-x="1050" 
d="M340 520q-27 0 -53.5 -8t-44 -19t-31.5 -22t-21 -19l-6 -8q-42 15 -63.5 48t-18.5 75q4 6 12 16t35 35t57 44t78.5 35t100.5 16q45 0 85.5 -16.5t66.5 -36t65 -36t82 -16.5q27 0 53.5 8t44 19t31.5 22t21 19l6 8q42 -15 63.5 -48t18.5 -75q-2 -3 -6 -8t-18 -20.5
t-29.5 -29t-41 -30t-52 -29t-62.5 -20.5t-74 -8q-45 0 -85.5 16t-66.5 36t-65 36t-82 16z" />
    <glyph glyph-name="exclamdown" unicode="&#xa1;" horiz-adv-x="561" 
d="M240 1044q49 17 133 17q40 0 71 -4.5t42 -8.5l12 -4l-49 -235q-44 -16 -134 -16q-37 0 -68.5 4t-44.5 8l-12 4zM186 637q40 14 99 14q26 0 49.5 -3.5t33.5 -7.5l11 -3l-176 -1034q-54 -17 -144 -17q-37 0 -71 4t-49 8l-15 5z" />
    <glyph glyph-name="cent" unicode="&#xa2;" horiz-adv-x="946" 
d="M594 1284q49 21 108 21q30 0 56 -5.5t36 -10.5l11 -5l-60 -190q63 -5 110 -17.5t63 -22.5l16 -10q-21 -97 -107 -170q-66 27 -168 27q-129 0 -202.5 -87.5t-112.5 -274.5q-39 -184 1.5 -269.5t170.5 -85.5q46 0 94 7t72 15l25 7q53 -59 34 -170q-8 -5 -24.5 -13
t-76.5 -24t-130 -22l-23 -191q-42 -20 -110 -20q-26 0 -51.5 5t-37.5 10l-12 5l58 193q-361 48 -254 553q107 502 489 553z" />
    <glyph glyph-name="sterling" unicode="&#xa3;" horiz-adv-x="1099" 
d="M846 600h-316q-7 -100 -55 -190t-160 -179h586q10 -44 -4 -114q-6 -32 -17.5 -61.5t-19.5 -42.5l-8 -13h-850l49 231q127 104 176 191t49 178h-167q-6 33 6 92q4 24 12 46t14 32l6 10h115q-15 135 8 246q22 102 71.5 178t120 121.5t155.5 67.5t184 22q183 0 346 -76
q-12 -113 -113 -184q-111 44 -233 47q-227 0 -264 -182q-20 -93 -9 -240h357q8 -33 -4 -86q-5 -24 -14 -47.5t-15 -34.5z" />
    <glyph glyph-name="currency" unicode="&#xa4;" horiz-adv-x="1222" 
d="M872 47l-120 150q-117 -68 -246 -68q-126 0 -219 68l-181 -150q-38 2 -71 47q-15 18 -21.5 37.5t-5.5 30.5v10l185 152q-48 102 -21 231q22 115 119 231l-121 152q12 39 63 80q23 20 45 31t33 13l11 1l118 -152q118 70 248 70q124 0 217 -70l182 152q37 0 72 -45
q14 -18 20.5 -38t6.5 -31v-11l-182 -152q44 -101 20 -231q-25 -118 -121 -233l121 -150q-10 -41 -61 -82q-23 -20 -45.5 -30.5t-33.5 -11.5zM651 807q-105 0 -194 -73.5t-111 -178.5q-23 -105 34.5 -178.5t162.5 -73.5q106 0 195 73t112 179q22 106 -35.5 179t-163.5 73z
" />
    <glyph glyph-name="yen" unicode="&#xa5;" horiz-adv-x="1280" 
d="M1130 1384q52 17 136 17q33 0 63.5 -4.5t44.5 -8.5l15 -4l-533 -651h236q5 -32 -5 -78q-8 -34 -28 -80h-322l-30 -139h321q6 -34 -4 -76q-9 -42 -29 -81h-321l-56 -261q-46 -18 -124 -18q-34 0 -62.5 4.5t-40.5 9.5l-12 4l55 261h-328q-3 39 7 83q5 30 26 74h328l31 139
h-328q-3 49 4 80q7 33 29 78h239l-231 645q53 23 147 23q39 0 72.5 -5.5t47.5 -10.5l14 -5l190 -555z" />
    <glyph glyph-name="brokenbar" unicode="&#xa6;" horiz-adv-x="593" 
d="M193 739l182 863q43 16 133 16q37 0 68.5 -4t43.5 -8l13 -4l-182 -863q-50 -16 -134 -16q-40 0 -71 4t-42 8zM-47 -387l186 883q43 16 133 16q37 0 68.5 -4t43.5 -8l13 -4l-186 -883q-49 -16 -133 -16q-40 0 -71.5 4t-42.5 8z" />
    <glyph glyph-name="section" unicode="&#xa7;" horiz-adv-x="995" 
d="M580 281q7 33 -11 56.5t-53 36.5t-81 26t-94 24t-91.5 31t-75.5 47t-45 72.5t0 107.5q23 117 143 221q-59 71 -32 205q31 150 154 227.5t302 77.5q149 0 279 -47q-3 -41 -26 -87t-60 -73q-97 27 -197 27q-205 0 -231 -121q-8 -37 15.5 -61.5t66.5 -38t96.5 -25t105 -29.5
t91.5 -45t58 -78t3 -122q-23 -108 -133 -207q84 -77 53 -230q-16 -77 -62.5 -135.5t-113 -93t-144.5 -51t-165 -16.5q-86 0 -169 13t-123 27l-40 13q0 45 23 91.5t65 72.5q124 -33 254 -33q215 0 238 117zM410 819q-50 -54 -60 -104q-5 -24 4.5 -42t26.5 -29t47 -20.5
t57 -15t66.5 -14t66.5 -16.5q47 50 58 102q6 28 -6.5 47.5t-42.5 32t-60.5 20.5t-78.5 18.5t-78 20.5z" />
    <glyph glyph-name="dieresis" unicode="&#xa8;" horiz-adv-x="931" 
d="M381 1464l-43 -198q-41 -15 -113 -15q-34 0 -61 3.5t-37 7.5l-10 4l43 198q36 15 112 15q32 0 59.5 -3.5t38.5 -7.5zM752 1464l-43 -198q-41 -15 -113 -15q-34 0 -61 3.5t-37 7.5l-11 4l43 198q37 15 113 15q32 0 59.5 -3.5t38.5 -7.5z" />
    <glyph glyph-name="copyright" unicode="&#xa9;" horiz-adv-x="1632" 
d="M680 -20q-117 0 -219 36.5t-175.5 101.5t-122.5 154.5t-59.5 196.5t11.5 227q31 146 116 279t201.5 229t261.5 152.5t291 56.5q195 0 339.5 -96t204.5 -261t19 -360q-31 -146 -115.5 -279t-200.5 -228.5t-261 -152t-291 -56.5zM948 1247q-228 0 -422.5 -161t-244.5 -390
q-17 -92 -8.5 -174.5t46 -151.5t93.5 -119t134.5 -78t168.5 -28q150 0 292.5 73.5t243 200.5t131.5 277q32 150 -14.5 277t-158 200.5t-261.5 73.5zM756 301q-179 0 -250 106t-29 304q43 201 158 304t295 103q60 0 112.5 -11t74.5 -23l22 -11q-17 -83 -88 -135
q-66 29 -138 29q-89 0 -151.5 -59t-91.5 -199q-13 -75 -12 -123t23.5 -75.5t52 -38.5t73.5 -11q36 0 75 5.5t60 11.5l21 5q52 -37 32 -135q-11 -5 -31 -13t-82.5 -21t-125.5 -13z" />
    <glyph glyph-name="ordfeminine" unicode="&#xaa;" horiz-adv-x="739" 
d="M272 1235q13 6 35 15t86.5 24.5t122.5 15.5q136 0 183 -57t20 -178l-90 -424q-27 -17 -74 -17q-17 0 -34.5 4t-26.5 8l-9 5l-6 45q-72 -72 -190 -72q-93 0 -135 56.5t-19 162.5q46 207 295 207l107 -4l6 27q9 40 -10.5 64t-69.5 24q-35 0 -76.5 -7.5t-65.5 -15.5l-24 -8
q-36 59 -25 125zM512 903q-39 2 -90 2q-90 0 -109 -82q-9 -44 7.5 -63t56.5 -19q52 0 85 41t44 95zM84 500h512q9 -70 -33 -150h-512q-3 87 33 150z" />
    <glyph glyph-name="guillemotleft" unicode="&#xab;" horiz-adv-x="1091" 
d="M111 659l493 383q49 -47 53 -149l-362 -342l217 -340q-46 -101 -117 -150l-332 377q-9 39 5 105q7 32 18 61t18 42zM532 653l469 365q46 -46 50 -141l-344 -326l206 -324q-48 -97 -110 -141l-316 358q-10 38 2 99q6 30 17 57.5t18 39.5z" />
    <glyph glyph-name="logicalnot" unicode="&#xac;" horiz-adv-x="1239" 
d="M1153 899l-117 -553q-44 -22 -112 -22q-30 0 -57 5.5t-39 10.5l-11 6l72 336h-764q-14 45 0 106q6 29 17.5 57t19.5 41l8 13h983z" />
    <glyph glyph-name="uni00AD" unicode="&#xad;" horiz-adv-x="624" 
 />
    <glyph glyph-name="registered" unicode="&#xae;" horiz-adv-x="1075" 
d="M514 516q-122 0 -213 60t-129 163.5t-12 225.5q40 186 199.5 317t345.5 131q122 0 212.5 -60t128 -163t11.5 -225q-40 -186 -198.5 -317.5t-344.5 -131.5zM680 1303q-140 0 -259.5 -98.5t-150.5 -239.5q-29 -141 49 -239.5t218 -98.5q141 0 260.5 98.5t148.5 239.5
q31 141 -47 239.5t-219 98.5zM688 1206q73 0 110 -40t23 -105q-9 -46 -41 -82t-78 -51l82 -172q-32 -17 -71 -17q-16 0 -29.5 2.5t-19.5 5.5l-5 3l-81 165h-33l-35 -165q-28 -11 -55 -11q-15 0 -28.5 2.5t-19.5 5.5l-6 3l97 456h190zM563 1006h72q61 0 74 55q12 55 -50 55
h-71z" />
    <glyph glyph-name="macron" unicode="&#xaf;" horiz-adv-x="833" 
d="M694 1290h-661q-6 80 30 148h662q10 -72 -31 -148z" />
    <glyph glyph-name="degree" unicode="&#xb0;" horiz-adv-x="706" 
d="M217 1264q24 106 114 186t216 80q84 0 138 -38.5t70.5 -96.5t2.5 -125q-23 -106 -110 -183t-212 -77q-130 0 -185.5 74.5t-33.5 179.5zM608 1268q10 50 -14 86.5t-80 36.5q-58 0 -97.5 -37.5t-51.5 -87.5q-10 -49 14.5 -84t83.5 -35q57 0 95.5 35.5t49.5 85.5z" />
    <glyph glyph-name="plusminus" unicode="&#xb1;" horiz-adv-x="1034" 
d="M446 729h-284q-8 37 4 94q5 25 14 49t15 35l6 11h284l47 223q42 14 99 14q25 0 47.5 -3.5t32.5 -7.5l10 -3l-47 -223h284q6 -38 -6 -95q-5 -25 -13 -48.5t-13 -34.5l-6 -11h-285l-49 -223q-40 -14 -97 -14q-25 0 -48 3.5t-33 6.5l-11 4zM815 242h-758q-6 37 6 94
q5 25 14 48.5t15 34.5l6 11h758q6 -37 -6 -94q-5 -25 -14 -48.5t-15 -34.5z" />
    <glyph glyph-name="twosuperior" unicode="&#xb2;" horiz-adv-x="618" 
d="M90 793q16 77 62 135t101.5 91t109 59t94.5 56.5t49 67.5q15 76 -103 76q-62 0 -127 -18q-39 50 -16 126q94 35 211 35q112 0 174.5 -53.5t40.5 -155.5q-13 -60 -46.5 -104.5t-80 -73.5t-94 -52.5t-100 -55.5t-86.5 -68h296q6 -39 -2 -76q-5 -32 -28 -73h-463q-2 37 8 84
z" />
    <glyph glyph-name="threesuperior" unicode="&#xb3;" horiz-adv-x="614" 
d="M608 905q-44 -207 -338 -207q-58 0 -106 11t-67 23l-19 11q6 33 26 66.5t48 54.5q59 -22 141 -22q126 0 143 84q9 42 -10.5 61t-75.5 19h-98q-9 70 31 137h98q80 0 94 63q9 39 -12 56.5t-72 17.5q-32 0 -68 -5t-55 -10l-20 -5q-17 19 -22.5 52t3.5 70q86 39 205 39
q121 0 181.5 -50t41.5 -140q-25 -108 -116 -152q93 -46 67 -174z" />
    <glyph glyph-name="acute" unicode="&#xb4;" horiz-adv-x="458" 
d="M453 1567l-314 -267q-94 17 -127 78l236 281q62 7 124 -21t81 -71z" />
    <glyph glyph-name="mu" unicode="&#xb5;" horiz-adv-x="1200" 
d="M864 1061q49 16 133 16q40 0 71 -4t42 -8l12 -4l-221 -1045q-43 -16 -133 -16q-37 0 -68.5 4t-43.5 8l-13 4l8 39q-103 -75 -229 -75q-103 0 -162 59q-16 -136 -18.5 -260t2.5 -180l6 -56q-59 -41 -149.5 -52t-143.5 11q0 128 74 469l231 1090q49 16 133 16q40 0 71 -4
t42 -8l12 -4l-153 -725q-30 -148 133 -148q99 0 194 76z" />
    <glyph glyph-name="paragraph" unicode="&#xb6;" horiz-adv-x="1341" 
d="M260 -453l207 973q-86 2 -153.5 28.5t-108.5 70t-66 101.5t-25.5 122.5t11.5 132.5q20 88 67.5 168.5t116 145.5t165 104t204.5 39h184l-401 -1885q-37 -12 -103 -12q-31 0 -55.5 3t-33.5 6zM1321 1419l-397 -1872q-37 -12 -103 -12q-31 0 -55.5 3t-33.5 6l-9 3l397 1872
q35 13 105 13q29 0 53 -3t34 -7z" />
    <glyph glyph-name="periodcentered" unicode="&#xb7;" horiz-adv-x="483" 
d="M365 682l-43 -199q-43 -16 -115 -16q-35 0 -61.5 4t-35.5 8l-10 4l43 199q35 16 113 16q32 0 59 -4t39 -8z" />
    <glyph glyph-name="cedilla" unicode="&#xb8;" horiz-adv-x="606" 
d="M-78 109l127 -37l-49 -125q109 0 147 -54.5t19 -146.5q-23 -101 -102.5 -154t-198.5 -53q-56 0 -101 12.5t-62 24.5l-17 12q6 33 26 61.5t47 43.5q52 -27 119 -27q117 0 135 88q8 38 -11.5 61t-70.5 23h-80l-20 33z" />
    <glyph glyph-name="onesuperior" unicode="&#xb9;" horiz-adv-x="507" 
d="M174 1284q133 33 223 115q36 10 88 10q35 0 80 -10l-145 -682q-45 -10 -84 -10q-51 0 -92 10l86 399q5 29 18 82q-68 -43 -158 -53q-41 50 -16 139z" />
    <glyph glyph-name="ordmasculine" unicode="&#xba;" horiz-adv-x="763" 
d="M162 948q40 183 129 262.5t231 79.5t198.5 -79t16.5 -263q-38 -184 -128 -264t-232 -80q-143 0 -198 79.5t-17 264.5zM551 948q14 62 16 102t-7.5 61.5t-25 29.5t-42.5 8q-55 0 -88.5 -41t-59.5 -160q-20 -83 -14 -127t23.5 -57.5t54.5 -13.5q36 0 59.5 13.5t45 58
t38.5 126.5zM96 500h512q4 -41 -4 -72q-5 -36 -29 -78h-512q-2 20 7 78q12 48 26 72z" />
    <glyph glyph-name="guillemotright" unicode="&#xbb;" horiz-adv-x="1089" 
d="M664 1042l329 -383q10 -44 -6 -116q-6 -29 -16.5 -55.5t-17.5 -37.5l-7 -12l-491 -377q-52 52 -52 150l361 340l-215 342q40 95 115 149zM258 1018l313 -365q8 -42 -6 -110q-5 -27 -15 -52t-17 -36l-7 -11l-467 -358q-49 46 -49 141l342 324l-205 326q43 95 111 141z" />
    <glyph glyph-name="onequarter" unicode="&#xbc;" horiz-adv-x="1396" 
d="M74 -6l1093 1429q33 15 99 15q29 0 52.5 -4t32.5 -8l9 -3l-1096 -1429q-41 -14 -98 -14q-24 0 -47 3.5t-34 6.5zM193 1284q133 33 223 115q36 10 88 10q35 0 80 -10l-146 -682q-45 -10 -84 -10q-51 0 -92 10l86 399q2 12 19 82q-68 -43 -158 -53q-41 50 -16 139z
M1171 283h76q5 -29 -2 -64q-5 -24 -24 -61h-76l-31 -148q-39 -10 -76 -10q-40 0 -71 10l30 148h-335q-4 32 2 57q8 36 20 55l410 420q40 12 86 12q42 0 80 -12zM1071 500l-211 -217h164z" />
    <glyph glyph-name="onehalf" unicode="&#xbd;" horiz-adv-x="1490" 
d="M1167 1423q33 15 99 15q29 0 52.5 -4t32.5 -8l9 -3l-1096 -1429q-41 -14 -98 -14q-24 0 -47 3.5t-34 6.5l-11 4zM416 1399q36 10 88 10q35 0 80 -10l-146 -682q-45 -10 -84 -10q-51 0 -92 10l86 399q2 12 19 82q-68 -43 -158 -53q-41 50 -16 139q133 33 223 115zM967 678
q96 35 213 35q111 0 173 -53.5t40 -155.5q-13 -60 -46.5 -104.5t-79.5 -73.5t-93.5 -52.5t-100.5 -55.5t-88 -68h297q7 -29 0 -76q-10 -41 -31 -74h-463q1 37 11 84q12 57 40 103t63 76.5t75 55.5t79 44.5t71.5 38t55.5 42t29 50.5q8 40 -19.5 57.5t-76.5 17.5
q-72 3 -133 -18q-38 53 -16 127z" />
    <glyph glyph-name="threequarters" unicode="&#xbe;" horiz-adv-x="1476" 
d="M1249 1423q33 15 99 15q29 0 52.5 -4t32.5 -8l9 -3l-1096 -1429q-41 -14 -98 -14q-24 0 -47 3.5t-34 6.5l-11 4zM250 1382q86 39 205 39q121 0 181.5 -50t41.5 -140q-24 -107 -117 -152q94 -46 68 -174q-44 -207 -338 -207q-58 0 -106.5 11t-67.5 23l-19 11q6 33 26 66.5
t48 54.5q59 -22 141 -22q127 0 144 84q9 42 -10.5 61t-75.5 19h-99q-9 70 31 137h98q81 0 95 63q9 39 -12 56.5t-72 17.5q-32 0 -68 -5t-56 -10l-20 -5q-17 19 -22 52t4 70zM1176 690q40 12 86 12q42 0 79 -12l-88 -407h76q5 -29 -2 -64q-5 -24 -24 -61h-76l-31 -148
q-39 -10 -76 -10q-40 0 -71 10l30 148h-336q-3 27 5 61t18 51zM942 283h164l47 217z" />
    <glyph glyph-name="questiondown" unicode="&#xbf;" horiz-adv-x="884" 
d="M432 813l51 236q47 16 131 16q40 0 71.5 -4t43.5 -8l12 -4l-51 -236q-41 -16 -131 -16q-37 0 -69 4t-45 8zM-59 25q17 81 50 143t72.5 101t84 70t88 58t81.5 57t67 75t42 104q30 14 98 14q28 0 53.5 -3.5t36.5 -7.5l11 -3q-19 -86 -49 -152t-64 -105t-71.5 -69.5t-73 -55
t-67 -51t-56 -68t-35.5 -97.5q-21 -98 26 -135t144 -37q61 0 117 11.5t82 23.5l26 12q77 -68 39 -184q-15 -8 -43.5 -20.5t-119 -33t-185.5 -20.5q-72 0 -131.5 12.5t-110 39.5t-80 70.5t-40.5 106t8 144.5z" />
    <glyph glyph-name="Agrave" unicode="&#xc0;" horiz-adv-x="1359" 
d="M911 1892l117 -284q-61 -68 -160 -74l-198 266q37 43 109.5 71t131.5 21zM696 1456q72 19 164 19q44 0 83 -4.5t56 -9.5l17 -5l184 -1438q-51 -18 -147 -18q-39 0 -65 4.5t-32 9.5l-6 4l-41 328h-559l-180 -328q-70 -18 -152 -18q-35 0 -64 4.5t-40 9.5l-12 4zM811 1208
h-8q-41 -112 -109 -235l-227 -416h416l-56 416q-7 56 -11 115t-4 90z" />
    <glyph glyph-name="Aacute" unicode="&#xc1;" horiz-adv-x="1359" 
d="M760 1614l237 282q62 7 126 -22t83 -72l-297 -266q-118 21 -149 78zM696 1456q72 19 164 19q44 0 83 -4.5t56 -9.5l17 -5l184 -1438q-51 -18 -147 -18q-39 0 -65 4.5t-32 9.5l-6 4l-41 328h-559l-180 -328q-70 -18 -152 -18q-35 0 -64 4.5t-40 9.5l-12 4zM811 1208h-8
q-41 -112 -109 -235l-227 -416h416l-56 416q-7 56 -11 115t-4 90z" />
    <glyph glyph-name="Acircumflex" unicode="&#xc2;" horiz-adv-x="1359" 
d="M958 1890l252 -241q-67 -89 -141 -111l-176 129l-227 -127q-69 24 -97 109l336 241h53zM696 1456q72 19 164 19q44 0 83 -4.5t56 -9.5l17 -5l184 -1438q-51 -18 -147 -18q-39 0 -65 4.5t-32 9.5l-6 4l-41 328h-559l-180 -328q-70 -18 -152 -18q-35 0 -64 4.5t-40 9.5
l-12 4zM811 1208h-8q-41 -112 -109 -235l-227 -416h416l-56 416q-7 56 -11 115t-4 90z" />
    <glyph glyph-name="Atilde" unicode="&#xc3;" horiz-adv-x="1359" 
d="M573 1706q2 5 7 12.5t22 28t37 36.5t54 30.5t71 17.5q42 3 79.5 -8t60.5 -25.5t53 -25.5t59 -9q24 2 47.5 15t34.5 25l12 12q63 -32 96 -89q-3 -4 -8.5 -11.5t-24.5 -27t-40.5 -35t-56.5 -29t-72 -15.5q-53 -3 -96 14t-78 34t-70 15q-29 -2 -53.5 -14t-34.5 -23l-10 -12
q-64 29 -89 84zM696 1456q72 19 164 19q44 0 83 -4.5t56 -9.5l17 -5l184 -1438q-51 -18 -147 -18q-39 0 -65 4.5t-32 9.5l-6 4l-41 328h-559l-180 -328q-70 -18 -152 -18q-35 0 -64 4.5t-40 9.5l-12 4zM811 1208h-8q-41 -112 -109 -235l-227 -416h416l-56 416q-7 56 -11 115
t-4 90z" />
    <glyph glyph-name="Adieresis" unicode="&#xc4;" horiz-adv-x="1359" 
d="M614 1790q39 14 115 14q32 0 58.5 -3.5t37.5 -6.5l11 -4l-41 -199q-43 -14 -115 -14q-34 0 -60.5 3.5t-36.5 7.5l-10 3zM985 1790q39 14 115 14q32 0 58.5 -3.5t37.5 -6.5l10 -4l-41 -199q-42 -14 -114 -14q-34 0 -60.5 3.5t-36.5 7.5l-10 3zM696 1456q72 19 164 19
q44 0 83 -4.5t56 -9.5l17 -5l184 -1438q-51 -18 -147 -18q-39 0 -65 4.5t-32 9.5l-6 4l-41 328h-559l-180 -328q-70 -18 -152 -18q-35 0 -64 4.5t-40 9.5l-12 4zM811 1208h-8q-41 -112 -109 -235l-227 -416h416l-56 416q-7 56 -11 115t-4 90z" />
    <glyph glyph-name="Aring" unicode="&#xc5;" horiz-adv-x="1359" 
d="M1020 1417l180 -1399q-51 -18 -147 -18q-39 0 -65.5 4.5t-33.5 9.5l-6 4l-41 328h-559l-180 -328q-68 -18 -150 -18q-35 0 -64 4.5t-40 9.5l-12 4l768 1391q-67 64 -43 182q24 108 110.5 169t190.5 61q102 0 165 -60.5t40 -169.5q-22 -106 -113 -174zM993 1591
q10 44 -14.5 76.5t-79.5 32.5q-53 0 -89 -32.5t-46 -76.5t13 -76t77 -32q55 0 93 32.5t46 75.5zM881 557l-52 416q-7 56 -10.5 113t-3.5 86v28h-8q-43 -104 -111 -227l-231 -416h416z" />
    <glyph glyph-name="AE" unicode="&#xc6;" horiz-adv-x="1767" 
d="M1069 1475h762q22 -98 -45 -211h-522l-88 -414h419q16 -112 -45 -211h-420l-90 -428h543q8 -55 -4 -112t-41 -99h-770l74 346h-426l-262 -326q-65 -20 -148 -20q-89 0 -133 20zM586 557h301l125 537z" />
    <glyph glyph-name="Ccedilla" unicode="&#xc7;" horiz-adv-x="1150" 
d="M981 160q5 -29 4 -53.5t-5 -40.5l-3 -15q-16 -8 -46.5 -19t-128 -30.5t-198.5 -21.5l-31 -74q109 0 146.5 -54.5t17.5 -146.5q-21 -101 -100.5 -154t-198.5 -53q-56 0 -101 12t-62 24l-17 13q4 32 25 61t49 44q48 -27 119 -27q117 0 135 88q8 38 -11.5 61t-70.5 23h-80
l-23 33l64 160q-231 36 -313.5 244t-12.5 544q79 366 270.5 541.5t499.5 175.5q101 0 186 -18t119 -36l35 -18q-4 -43 -39 -102q-17 -28 -37 -50.5t-31 -30.5l-12 -9q-108 43 -239 43q-86 0 -156.5 -25.5t-135.5 -84.5t-115 -167t-83 -262q-26 -124 -27.5 -217.5t18 -152.5
t60.5 -95.5t92 -50.5t120 -14q65 0 134.5 10.5t106.5 21.5l37 11q27 -29 39 -88z" />
    <glyph glyph-name="Egrave" unicode="&#xc8;" horiz-adv-x="1134" 
d="M788 1534l-198 266q37 43 109.5 71t131.5 21l117 -280q-55 -61 -160 -78zM350 1475h846q9 -47 0 -99q-13 -63 -45 -112h-584l-88 -414h482q9 -50 0 -102q-13 -58 -46 -109h-481l-90 -428h604q7 -61 -2 -102q-14 -65 -43 -109h-866z" />
    <glyph glyph-name="Eacute" unicode="&#xc9;" horiz-adv-x="1134" 
d="M1081 1804l-311 -266q-99 17 -127 78l236 280q62 7 122.5 -21t79.5 -71zM350 1475h846q9 -47 0 -99q-13 -63 -45 -112h-584l-88 -414h482q9 -50 0 -102q-13 -58 -46 -109h-481l-90 -428h604q7 -61 -2 -102q-14 -65 -43 -109h-866z" />
    <glyph glyph-name="Ecircumflex" unicode="&#xca;" horiz-adv-x="1134" 
d="M889 1890l244 -241q-67 -88 -142 -111l-176 129l-227 -127q-68 23 -96 109l344 241h53zM350 1475h846q9 -47 0 -99q-13 -63 -45 -112h-584l-88 -414h482q9 -50 0 -102q-13 -58 -46 -109h-481l-90 -428h604q7 -61 -2 -102q-14 -65 -43 -109h-866z" />
    <glyph glyph-name="Edieresis" unicode="&#xcb;" horiz-adv-x="1134" 
d="M754 1769l-41 -198q-43 -15 -115 -15q-34 0 -60.5 4t-35.5 8l-10 3l40 198q39 15 115 15q32 0 59 -4t38 -8zM1124 1769l-41 -198q-42 -15 -114 -15q-34 0 -60.5 4t-36.5 8l-10 3l41 198q39 15 115 15q32 0 58.5 -4t37.5 -8zM350 1475h846q9 -47 0 -99q-13 -63 -45 -112
h-584l-88 -414h482q9 -50 0 -102q-13 -58 -46 -109h-481l-90 -428h604q7 -61 -2 -102q-14 -65 -43 -109h-866z" />
    <glyph glyph-name="Igrave" unicode="&#xcc;" horiz-adv-x="598" 
d="M500 1534l-199 266q37 43 110 71t132 21l116 -280q-55 -61 -159 -78zM39 18l305 1438q47 19 133 19q39 0 71.5 -4.5t45.5 -9.5l12 -5l-305 -1438q-51 -18 -135 -18q-42 0 -73.5 4.5t-42.5 9.5z" />
    <glyph glyph-name="Iacute" unicode="&#xcd;" horiz-adv-x="598" 
d="M772 1804l-311 -266q-99 17 -127 78l235 280q62 7 123 -21t80 -71zM39 18l305 1438q47 19 133 19q39 0 71.5 -4.5t45.5 -9.5l12 -5l-305 -1438q-51 -18 -135 -18q-42 0 -73.5 4.5t-42.5 9.5z" />
    <glyph glyph-name="Icircumflex" unicode="&#xce;" horiz-adv-x="598" 
d="M594 1890l244 -241q-67 -88 -142 -111l-176 129l-227 -127q-68 23 -96 109l344 241h53zM39 18l305 1438q47 19 133 19q39 0 71.5 -4.5t45.5 -9.5l12 -5l-305 -1438q-51 -18 -135 -18q-42 0 -73.5 4.5t-42.5 9.5z" />
    <glyph glyph-name="Idieresis" unicode="&#xcf;" horiz-adv-x="598" 
d="M463 1765l-41 -198q-43 -15 -115 -15q-34 0 -60.5 4t-36.5 8l-9 3l41 198q38 15 114 15q32 0 59 -4t37 -8zM834 1765l-41 -198q-43 -15 -115 -15q-34 0 -60.5 4t-36.5 8l-10 3l41 198q39 15 115 15q32 0 59 -4t38 -8zM39 18l305 1438q47 19 133 19q39 0 71.5 -4.5
t45.5 -9.5l12 -5l-305 -1438q-51 -18 -135 -18q-42 0 -73.5 4.5t-42.5 9.5z" />
    <glyph glyph-name="Eth" unicode="&#xd0;" horiz-adv-x="1396" 
d="M387 1475h481q288 0 405.5 -190.5t33.5 -577.5q-42 -195 -112 -333.5t-167.5 -219.5t-212.5 -117.5t-260 -36.5h-481l137 643h-158q-3 40 7.5 90t29.5 84h158zM602 1257l-92 -440h246q4 -35 -7 -86.5t-30 -87.5h-246l-92 -426h201q64 0 115.5 12.5t104 46.5t93.5 91
t78 150.5t63 219.5q28 127 30.5 220.5t-14 150.5t-55 91t-84.5 46t-110 12h-201z" />
    <glyph glyph-name="Ntilde" unicode="&#xd1;" horiz-adv-x="1441" 
d="M1094 1720q29 0 57 13.5t41 26.5l14 14q30 -15 48 -48t16 -69q-3 -4 -9 -11t-25.5 -25.5t-41.5 -32t-57 -25t-72 -11.5q-53 0 -95.5 16.5t-77 33t-69.5 16.5q-29 0 -56.5 -13t-40.5 -27l-13 -13q-69 43 -66 116q3 4 9 11t26 25.5t42.5 32t57.5 25t72 11.5q53 0 95 -16.5
t76 -33t69 -16.5zM831 18l-243 824q-19 64 -38 139.5t-28 118.5l-10 43h-8q-19 -162 -64 -375l-159 -750q-43 -18 -127 -18q-36 0 -65 4.5t-39 9.5l-11 4l305 1438q60 19 162 19q46 0 84 -4.5t52 -9.5l15 -5l242 -819q20 -67 39.5 -143.5t29.5 -119.5l9 -44h8q21 172 66 381
l157 745q41 19 127 19q38 0 67 -4.5t38 -9.5l10 -5l-305 -1438q-54 -18 -158 -18q-45 0 -84 4.5t-55 9.5z" />
    <glyph glyph-name="Ograve" unicode="&#xd2;" horiz-adv-x="1388" 
d="M932 1886l112 -270q-56 -59 -153 -76l-193 256q35 42 105.5 69t128.5 21zM137 774q42 194 111 333.5t163 224t206.5 124t250.5 39.5q278 0 396 -199.5t34 -586.5q-82 -386 -263 -557.5t-466 -171.5q-282 0 -398.5 202.5t-33.5 591.5zM1032 737q34 159 36 267t-28 167
t-79.5 83t-126.5 24q-75 0 -134.5 -24t-116 -83t-102.5 -167t-80 -267q-26 -127 -31 -222t8.5 -155t46 -97t75.5 -51.5t102 -14.5q77 0 137 24.5t116 83t100 166.5t77 266z" />
    <glyph glyph-name="Oacute" unicode="&#xd3;" horiz-adv-x="1388" 
d="M791 1649l235 280q62 7 124 -21t81 -71l-313 -266q-94 17 -127 78zM137 774q42 194 111 333.5t163 224t206.5 124t250.5 39.5q278 0 396 -199.5t34 -586.5q-82 -386 -263 -557.5t-466 -171.5q-282 0 -398.5 202.5t-33.5 591.5zM1032 737q34 159 36 267t-28 167t-79.5 83
t-126.5 24q-75 0 -134.5 -24t-116 -83t-102.5 -167t-80 -267q-26 -127 -31 -222t8.5 -155t46 -97t75.5 -51.5t102 -14.5q77 0 137 24.5t116 83t100 166.5t77 266z" />
    <glyph glyph-name="Ocircumflex" unicode="&#xd4;" horiz-adv-x="1388" 
d="M983 1890l252 -241q-67 -89 -141 -111l-176 133l-228 -131q-68 23 -96 109l336 241h53zM137 774q42 194 111 333.5t163 224t206.5 124t250.5 39.5q278 0 396 -199.5t34 -586.5q-82 -386 -263 -557.5t-466 -171.5q-282 0 -398.5 202.5t-33.5 591.5zM1032 737
q34 159 36 267t-28 167t-79.5 83t-126.5 24q-75 0 -134.5 -24t-116 -83t-102.5 -167t-80 -267q-26 -127 -31 -222t8.5 -155t46 -97t75.5 -51.5t102 -14.5q77 0 137 24.5t116 83t100 166.5t77 266z" />
    <glyph glyph-name="Otilde" unicode="&#xd5;" horiz-adv-x="1388" 
d="M1063 1741q29 1 57 15t41 28l13 14q31 -13 50 -46t19 -69q-3 -4 -8.5 -11.5t-25 -26t-41.5 -32.5t-57.5 -26.5t-72.5 -13.5q-53 -2 -127.5 28t-115.5 29q-29 -1 -57 -15t-41 -28l-13 -14q-70 39 -70 115q3 4 8.5 11.5t25 26t41.5 32.5t57.5 26.5t72.5 13.5q67 2 136 -28
t108 -29zM139 774q42 194 111 333.5t163 224t206.5 124t250.5 39.5q278 0 396 -199.5t34 -586.5q-82 -386 -263 -557.5t-466 -171.5q-282 0 -398.5 202.5t-33.5 591.5zM1034 737q34 159 36 267t-28 167t-79.5 83t-126.5 24q-75 0 -134.5 -24t-116 -83t-102.5 -167t-80 -267
q-26 -127 -31 -222t8.5 -155t46 -97t75.5 -51.5t102 -14.5q77 0 137 24.5t116 83t100 166.5t77 266z" />
    <glyph glyph-name="Odieresis" unicode="&#xd6;" horiz-adv-x="1388" 
d="M647 1810q37 15 113 15q32 0 59 -3.5t38 -7.5l11 -4l-43 -198q-40 -15 -112 -15q-34 0 -61 3.5t-38 7.5l-10 4zM1018 1810q36 15 112 15q32 0 59 -3.5t39 -7.5l11 -4l-43 -198q-41 -15 -113 -15q-34 0 -61 3.5t-37 7.5l-10 4zM137 774q42 194 111 333.5t163 224
t206.5 124t250.5 39.5q278 0 396 -199.5t34 -586.5q-82 -386 -263 -557.5t-466 -171.5q-282 0 -398.5 202.5t-33.5 591.5zM1032 737q34 159 36 267t-28 167t-79.5 83t-126.5 24q-75 0 -134.5 -24t-116 -83t-102.5 -167t-80 -267q-26 -127 -31 -222t8.5 -155t46 -97
t75.5 -51.5t102 -14.5q77 0 137 24.5t116 83t100 166.5t77 266z" />
    <glyph glyph-name="multiply" unicode="&#xd7;" horiz-adv-x="974" 
d="M453 459l-295 -242q-33 14 -66 55q-15 18 -24.5 37.5t-11.5 30.5l-3 10l293 242l-190 242q22 36 73 77q22 18 44 32t33 19l11 5l191 -242l293 242q34 -15 67 -56q14 -18 23 -37.5t11 -29.5l3 -10l-293 -242l191 -242q-23 -37 -72 -78q-22 -18 -44.5 -32t-34.5 -18l-11 -5
z" />
    <glyph glyph-name="Oslash" unicode="&#xd8;" horiz-adv-x="1388" 
d="M1448 1493l-176 -213q107 -202 26 -571q-82 -386 -263 -557.5t-466 -171.5q-182 0 -297 86l-133 -164q-114 0 -162 82l183 219q-100 211 -23 571q42 194 111 333.5t163 224t206.5 124t250.5 39.5q177 0 289 -80l131 158q49 0 92 -23t68 -57zM834 1278q-75 0 -134.5 -24
t-116 -83t-102.5 -167t-80 -267q-35 -162 -32 -280l632 768q-56 53 -167 53zM602 197q77 0 137 24.5t116 83t100 166.5t77 266q38 174 35 293l-637 -776q57 -57 172 -57z" />
    <glyph glyph-name="Ugrave" unicode="&#xd9;" horiz-adv-x="1386" 
d="M881 1534l-199 266q37 43 110 71t132 21l116 -280q-55 -61 -159 -78zM1403 1456l-207 -979q-104 -497 -614 -497q-248 0 -374 144t-73 392l201 940q47 19 133 19q39 0 71.5 -4.5t45.5 -9.5l12 -5l-209 -969q-28 -131 29.5 -208.5t187.5 -77.5q131 0 216.5 72t113.5 202
l209 981q45 19 131 19q38 0 70 -4.5t44 -9.5z" />
    <glyph glyph-name="Uacute" unicode="&#xda;" horiz-adv-x="1386" 
d="M1194 1804l-311 -266q-43 8 -79.5 32t-51.5 56l239 270q62 7 123 -21t80 -71zM1403 1456l-207 -979q-104 -497 -614 -497q-248 0 -374 144t-73 392l201 940q47 19 133 19q39 0 71.5 -4.5t45.5 -9.5l12 -5l-209 -969q-28 -131 29.5 -208.5t187.5 -77.5q131 0 216.5 72
t113.5 202l209 981q45 19 131 19q38 0 70 -4.5t44 -9.5z" />
    <glyph glyph-name="Ucircumflex" unicode="&#xdb;" horiz-adv-x="1386" 
d="M987 1890l244 -241q-67 -89 -141 -111l-177 135l-227 -133q-68 23 -96 109l344 241h53zM1403 1456l-207 -979q-104 -497 -614 -497q-248 0 -374 144t-73 392l201 940q47 19 133 19q39 0 71.5 -4.5t45.5 -9.5l12 -5l-209 -969q-28 -131 29.5 -208.5t187.5 -77.5
q131 0 216.5 72t113.5 202l209 981q45 19 131 19q38 0 70 -4.5t44 -9.5z" />
    <glyph glyph-name="Udieresis" unicode="&#xdc;" horiz-adv-x="1386" 
d="M862 1790l-41 -199q-42 -14 -114 -14q-34 0 -60.5 3.5t-36.5 7.5l-10 3l41 199q39 14 115 14q32 0 58.5 -3.5t37.5 -6.5zM1233 1790l-41 -199q-43 -14 -115 -14q-34 0 -60.5 3.5t-36.5 7.5l-9 3l41 199q38 14 114 14q32 0 58.5 -3.5t37.5 -6.5zM1403 1456l-207 -979
q-104 -497 -614 -497q-248 0 -374 144t-73 392l201 940q47 19 133 19q39 0 71.5 -4.5t45.5 -9.5l12 -5l-209 -969q-28 -131 29.5 -208.5t187.5 -77.5q131 0 216.5 72t113.5 202l209 981q45 19 131 19q38 0 70 -4.5t44 -9.5z" />
    <glyph glyph-name="Yacute" unicode="&#xdd;" horiz-adv-x="1302" 
d="M707 1616l231 285q62 7 125 -23t82 -74l-309 -276q-43 8 -78.5 32t-50.5 56zM1163 1456q70 19 158 19q37 0 72.5 -4.5t52.5 -9.5l16 -5l-684 -842l-127 -596q-47 -18 -131 -18q-42 0 -74.5 4.5t-44.5 9.5l-12 4l125 590l-311 848q60 19 164 19q42 0 73 -4.5t42 -9.5
l10 -5l210 -579z" />
    <glyph glyph-name="Thorn" unicode="&#xde;" horiz-adv-x="1245" 
d="M344 1456q47 19 133 19q39 0 71.5 -4.5t45.5 -9.5l12 -5l-53 -248h287q135 0 225.5 -65t123 -174.5t3.5 -243.5q-42 -198 -187.5 -306t-355.5 -108h-287l-61 -293q-51 -18 -135 -18q-42 0 -73.5 4.5t-42.5 9.5l-11 4zM508 991l-98 -463h249q107 0 176.5 60.5t92.5 171.5
t-20 171t-150 60h-250z" />
    <glyph glyph-name="germandbls" unicode="&#xdf;" horiz-adv-x="1173" 
d="M6 16l238 1123q42 200 179.5 298.5t354.5 98.5q82 0 147 -19t105.5 -52t66 -78.5t28 -99t-8.5 -111.5q-22 -101 -84 -191q-4 -1 -10.5 -2t-25.5 -7t-37 -14t-40.5 -22t-40.5 -31t-33.5 -42t-21.5 -54q-9 -46 7 -86.5t46.5 -71t66 -68.5t64 -78.5t40 -101.5t-4.5 -137
q-61 -290 -424 -290q-63 0 -120 10t-83 20l-26 10q9 102 90 177q67 -23 139 -23q68 0 117 28t62 91q7 35 -4 68t-33.5 60t-51.5 58t-56.5 62.5t-48.5 73t-28 89t5 111.5q13 59 41.5 106.5t61 73.5t62.5 43.5t50 23.5l20 5q35 68 41 102q14 72 -17.5 118t-105.5 46
q-96 0 -152.5 -47t-78.5 -147l-238 -1123q-49 -16 -133 -16q-40 0 -71.5 4t-42.5 8z" />
    <glyph glyph-name="agrave" unicode="&#xe0;" horiz-adv-x="1136" 
d="M750 1597l114 -286q-55 -61 -159 -78l-199 266q38 44 112 74.5t132 23.5zM856 1065q31 14 117 14q38 0 69 -4t42 -8l12 -4l-222 -1047q-49 -16 -112 -16q-29 0 -57 3.5t-41 6.5l-13 4l-2 90q-115 -124 -293 -124q-118 0 -192.5 62t-100.5 195t19 341q26 122 65 214
t85.5 150t105.5 93.5t119 49t133 13.5q82 0 142.5 -33t92.5 -88zM752 657q21 96 -17 164t-119 68q-52 0 -90 -14t-74 -50.5t-64 -106t-50 -175.5t-23.5 -177t18.5 -109.5t52.5 -53.5t83.5 -15q84 0 145.5 61.5t83.5 160.5z" />
    <glyph glyph-name="aacute" unicode="&#xe1;" horiz-adv-x="1136" 
d="M549 1305l235 280q64 7 125 -21t80 -71l-313 -266q-94 17 -127 78zM856 1065q31 14 117 14q38 0 69 -4t42 -8l12 -4l-222 -1047q-49 -16 -112 -16q-29 0 -57 3.5t-41 6.5l-13 4l-2 90q-115 -124 -293 -124q-118 0 -192.5 62t-100.5 195t19 341q26 122 65 214t85.5 150
t105.5 93.5t119 49t133 13.5q82 0 142.5 -33t92.5 -88zM752 657q21 96 -17 164t-119 68q-52 0 -90 -14t-74 -50.5t-64 -106t-50 -175.5t-23.5 -177t18.5 -109.5t52.5 -53.5t83.5 -15q84 0 145.5 61.5t83.5 160.5z" />
    <glyph glyph-name="acircumflex" unicode="&#xe2;" horiz-adv-x="1136" 
d="M758 1561l254 -232q-64 -85 -140 -108l-170 125l-223 -123q-67 23 -94 106l322 232h51zM856 1065q31 14 117 14q38 0 69 -4t42 -8l12 -4l-222 -1047q-49 -16 -112 -16q-29 0 -57 3.5t-41 6.5l-13 4l-2 90q-115 -124 -293 -124q-118 0 -192.5 62t-100.5 195t19 341
q26 122 65 214t85.5 150t105.5 93.5t119 49t133 13.5q82 0 142.5 -33t92.5 -88zM752 657q21 96 -17 164t-119 68q-52 0 -90 -14t-74 -50.5t-64 -106t-50 -175.5t-23.5 -177t18.5 -109.5t52.5 -53.5t83.5 -15q84 0 145.5 61.5t83.5 160.5z" />
    <glyph glyph-name="atilde" unicode="&#xe3;" horiz-adv-x="1136" 
d="M403 1370q3 4 9 11t26 25.5t42.5 32t57.5 25t72 11.5q53 0 95 -16.5t76 -33t69 -16.5q29 0 57.5 13.5t42.5 26.5l13 13q31 -14 48 -46.5t17 -69.5q-3 -4 -9 -11t-26 -25.5t-42.5 -32t-57.5 -25t-72 -11.5q-53 0 -94.5 16.5t-75.5 33t-69 16.5q-29 0 -57.5 -13.5
t-42.5 -27.5l-13 -13q-69 43 -66 117zM856 1065q31 14 117 14q38 0 69 -4t42 -8l12 -4l-222 -1047q-49 -16 -112 -16q-29 0 -57 3.5t-41 6.5l-13 4l-2 90q-115 -124 -293 -124q-118 0 -192.5 62t-100.5 195t19 341q26 122 65 214t85.5 150t105.5 93.5t119 49t133 13.5
q82 0 142.5 -33t92.5 -88zM752 657q21 96 -17 164t-119 68q-52 0 -90 -14t-74 -50.5t-64 -106t-50 -175.5t-23.5 -177t18.5 -109.5t52.5 -53.5t83.5 -15q84 0 145.5 61.5t83.5 160.5z" />
    <glyph glyph-name="adieresis" unicode="&#xe4;" horiz-adv-x="1136" 
d="M446 1446q39 14 115 14q32 0 58.5 -3.5t37.5 -6.5l11 -4l-43 -199q-41 -14 -113 -14q-34 0 -61 3.5t-37 7.5l-11 3zM817 1446q39 14 115 14q32 0 58.5 -3.5t37.5 -6.5l10 -4l-43 -199q-40 -14 -112 -14q-34 0 -61 3.5t-38 7.5l-10 3zM856 1065q31 14 117 14q38 0 69 -4
t42 -8l12 -4l-222 -1047q-49 -16 -112 -16q-29 0 -57 3.5t-41 6.5l-13 4l-2 90q-115 -124 -293 -124q-118 0 -192.5 62t-100.5 195t19 341q26 122 65 214t85.5 150t105.5 93.5t119 49t133 13.5q82 0 142.5 -33t92.5 -88zM752 657q21 96 -17 164t-119 68q-52 0 -90 -14
t-74 -50.5t-64 -106t-50 -175.5t-23.5 -177t18.5 -109.5t52.5 -53.5t83.5 -15q84 0 145.5 61.5t83.5 160.5z" />
    <glyph glyph-name="aring" unicode="&#xe5;" horiz-adv-x="1136" 
d="M481 1415q19 102 104.5 160.5t188.5 58.5q102 0 167 -58t46 -161q-20 -105 -105 -165t-194 -60t-168 60.5t-39 164.5zM838 1415q8 39 -14.5 65.5t-73.5 26.5q-48 0 -80.5 -27t-40.5 -65q-8 -39 13 -66.5t69 -27.5q51 0 85 28t42 66zM856 1065q31 14 117 14q38 0 69 -4
t42 -8l12 -4l-222 -1047q-49 -16 -112 -16q-29 0 -57 3.5t-41 6.5l-13 4l-2 90q-115 -124 -293 -124q-118 0 -192.5 62t-100.5 195t19 341q26 122 65 214t85.5 150t105.5 93.5t119 49t133 13.5q82 0 142.5 -33t92.5 -88zM752 657q21 96 -17 164t-119 68q-52 0 -90 -14
t-74 -50.5t-64 -106t-50 -175.5t-23.5 -177t18.5 -109.5t52.5 -53.5t83.5 -15q84 0 145.5 61.5t83.5 160.5z" />
    <glyph glyph-name="ae" unicode="&#xe6;" horiz-adv-x="1595" 
d="M1272 1098q162 0 230.5 -108t25.5 -316q-11 -53 -28 -103.5t-28 -74.5l-12 -25h-567q-19 -151 27.5 -216t154.5 -65q58 0 117.5 12t89.5 24l31 12q49 -55 35 -168q-3 -3 -9.5 -8.5t-30.5 -20t-53 -25t-78 -19.5t-104 -9q-189 0 -260 118l-18 -90q-42 -16 -101 -16
q-29 0 -54 4t-36 8l-10 4l2 88q-60 -68 -117.5 -96t-159.5 -28q-78 0 -134.5 33t-93 104t-39.5 182t28 268q32 152 83 258.5t115.5 164.5t133 83t149.5 25q86 0 132.5 -28t78.5 -93l27 86q30 16 116 16q36 0 61.5 -4t32.5 -8l7 -4l-17 -78q118 113 273 113zM930 647h342
q10 29 16 58q42 192 -114 192q-79 0 -140.5 -57.5t-103.5 -192.5zM651 410l58 266q18 98 -11.5 155.5t-109.5 57.5q-41 0 -74 -14.5t-66 -51.5t-60.5 -108t-49.5 -176t-24 -176t15 -108t43.5 -52t67.5 -15q83 0 136.5 60t74.5 162z" />
    <glyph glyph-name="ccedilla" unicode="&#xe7;" horiz-adv-x="905" 
d="M76 573q58 273 194 399t371 126q59 0 108.5 -5.5t77.5 -13.5t48 -16t27 -13l7 -6q-25 -120 -104 -182q-64 27 -166 27q-130 0 -202 -82t-111 -268q-38 -183 2.5 -262.5t171.5 -79.5q46 0 93.5 7t72.5 14l24 7q26 -29 36.5 -80.5t0.5 -103.5q-9 -5 -28 -13.5t-87 -25
t-147 -20.5l-33 -86q109 0 146.5 -54.5t17.5 -146.5q-21 -101 -100.5 -154t-198.5 -53q-56 0 -101 12t-62 24l-17 13q4 32 24.5 61t48.5 44q48 -27 119 -27q117 0 135 88q8 38 -11.5 61t-70.5 23h-79l-23 33l66 166q-183 26 -244 179t-6 408z" />
    <glyph glyph-name="egrave" unicode="&#xe8;" horiz-adv-x="1042" 
d="M659 1194l-198 266q38 44 104.5 71.5t124.5 20.5l125 -280q-56 -62 -156 -78zM909 459h-592q-5 -55 -5 -95.5t12 -69.5t27.5 -48t42 -30t54.5 -15t66 -4q61 0 122 12.5t92 24.5l30 12q27 -31 38.5 -82.5t2.5 -104.5q-6 -3 -16.5 -8.5t-47 -19t-76.5 -24t-101.5 -19
t-125.5 -8.5q-98 0 -171.5 29t-118 82t-66.5 128.5t-20.5 166.5t24.5 198q30 142 84 243t128 159.5t160 85t191 26.5q86 0 154.5 -25t117 -77t64 -132t-5.5 -190q-13 -58 -29 -112t-26 -78zM748 705q16 92 -15 142t-123 50q-93 0 -152 -59.5t-100 -200.5h371q2 7 9.5 31
t9.5 37z" />
    <glyph glyph-name="eacute" unicode="&#xe9;" horiz-adv-x="1042" 
d="M936 1479l-313 -267q-94 17 -127 78l235 281q62 7 124 -21t81 -71zM909 459h-592q-5 -55 -5 -95.5t12 -69.5t27.5 -48t42 -30t54.5 -15t66 -4q61 0 122 12.5t92 24.5l30 12q27 -31 38.5 -82.5t2.5 -104.5q-6 -3 -16.5 -8.5t-47 -19t-76.5 -24t-101.5 -19t-125.5 -8.5
q-98 0 -171.5 29t-118 82t-66.5 128.5t-20.5 166.5t24.5 198q30 142 84 243t128 159.5t160 85t191 26.5q86 0 154.5 -25t117 -77t64 -132t-5.5 -190q-13 -58 -29 -112t-26 -78zM748 705q16 92 -15 142t-123 50q-93 0 -152 -59.5t-100 -200.5h371q2 7 9.5 31t9.5 37z" />
    <glyph glyph-name="ecircumflex" unicode="&#xea;" horiz-adv-x="1042" 
d="M750 1556l237 -235q-66 -88 -139 -109l-170 125l-223 -123q-68 23 -95 107l338 235h52zM909 459h-592q-5 -55 -5 -95.5t12 -69.5t27.5 -48t42 -30t54.5 -15t66 -4q61 0 122 12.5t92 24.5l30 12q27 -31 38.5 -82.5t2.5 -104.5q-6 -3 -16.5 -8.5t-47 -19t-76.5 -24
t-101.5 -19t-125.5 -8.5q-98 0 -171.5 29t-118 82t-66.5 128.5t-20.5 166.5t24.5 198q30 142 84 243t128 159.5t160 85t191 26.5q86 0 154.5 -25t117 -77t64 -132t-5.5 -190q-13 -58 -29 -112t-26 -78zM748 705q16 92 -15 142t-123 50q-93 0 -152 -59.5t-100 -200.5h371
q2 7 9.5 31t9.5 37z" />
    <glyph glyph-name="edieresis" unicode="&#xeb;" horiz-adv-x="1042" 
d="M637 1460l-43 -198q-41 -15 -113 -15q-34 0 -61 3.5t-37 7.5l-10 4l43 198q38 15 114 15q32 0 59 -3.5t37 -7.5zM1008 1460l-43 -198q-41 -15 -113 -15q-34 0 -61 3.5t-37 7.5l-11 4l43 198q39 15 115 15q32 0 59 -3.5t38 -7.5zM909 459h-592q-5 -55 -5 -95.5t12 -69.5
t27.5 -48t42 -30t54.5 -15t66 -4q61 0 122 12.5t92 24.5l30 12q27 -31 38.5 -82.5t2.5 -104.5q-6 -3 -16.5 -8.5t-47 -19t-76.5 -24t-101.5 -19t-125.5 -8.5q-98 0 -171.5 29t-118 82t-66.5 128.5t-20.5 166.5t24.5 198q30 142 84 243t128 159.5t160 85t191 26.5
q86 0 154.5 -25t117 -77t64 -132t-5.5 -190q-13 -58 -29 -112t-26 -78zM748 705q16 92 -15 142t-123 50q-93 0 -152 -59.5t-100 -200.5h371q2 7 9.5 31t9.5 37z" />
    <glyph glyph-name="igrave" unicode="&#xec;" horiz-adv-x="532" 
d="M391 1237l-198 266q37 43 110.5 71t132.5 21l115 -280q-55 -61 -160 -78zM487 1061l-221 -1045q-49 -16 -133 -16q-40 0 -71.5 4t-42.5 8l-11 4l221 1045q43 16 133 16q37 0 68.5 -4t43.5 -8z" />
    <glyph glyph-name="iacute" unicode="&#xed;" horiz-adv-x="532" 
d="M696 1499l-313 -266q-94 17 -127 78l236 280q62 7 123.5 -21t80.5 -71zM487 1061l-221 -1045q-49 -16 -133 -16q-40 0 -71.5 4t-42.5 8l-11 4l221 1045q43 16 133 16q37 0 68.5 -4t43.5 -8z" />
    <glyph glyph-name="icircumflex" unicode="&#xee;" horiz-adv-x="532" 
d="M496 1577l237 -236q-65 -87 -139 -108l-170 125l-223 -123q-68 23 -95 106l338 236h52zM487 1061l-221 -1045q-49 -16 -133 -16q-40 0 -71.5 4t-42.5 8l-11 4l221 1045q43 16 133 16q37 0 68.5 -4t43.5 -8z" />
    <glyph glyph-name="idieresis" unicode="&#xef;" horiz-adv-x="532" 
d="M360 1446l-43 -199q-40 -14 -112 -14q-34 0 -61 3.5t-38 7.5l-10 3l43 199q39 14 115 14q32 0 58.5 -3.5t37.5 -6.5zM731 1446l-43 -199q-41 -14 -113 -14q-34 0 -61 3.5t-37 7.5l-10 3l43 199q39 14 115 14q32 0 58.5 -3.5t36.5 -6.5zM487 1061l-221 -1045
q-49 -16 -133 -16q-40 0 -71.5 4t-42.5 8l-11 4l221 1045q43 16 133 16q37 0 68.5 -4t43.5 -8z" />
    <glyph glyph-name="eth" unicode="&#xf0;" horiz-adv-x="1140" 
d="M1014 1397l-105 -60q72 -81 112.5 -185t48 -236.5t-27.5 -286.5q-39 -187 -95 -314t-132.5 -200t-166 -104t-208.5 -31q-226 0 -326.5 143t-39.5 428q55 265 181.5 382.5t319.5 117.5q73 0 149.5 -24t125.5 -73q-9 78 -45.5 151.5t-89.5 123.5l-213 -119q-55 58 -58 131
l140 76q-75 35 -166 59q13 104 86 160q163 -23 289 -102l165 94q25 -23 39.5 -58.5t16.5 -72.5zM461 176q50 0 88.5 14.5t75.5 50.5t65.5 104.5t50.5 170.5q17 84 20 144.5t-6 98t-31 59.5t-50 30t-68 8q-67 0 -113.5 -26t-88.5 -102t-74 -212q-80 -340 131 -340z" />
    <glyph glyph-name="ntilde" unicode="&#xf1;" 
d="M389 1362q3 4 9 11t26 25t42.5 32t57.5 25t72 11q53 0 95 -16.5t76 -32.5t69 -16q29 0 57 13.5t41 26.5l14 13q31 -15 49.5 -48t16.5 -69q-3 -4 -9 -11t-25.5 -25t-41.5 -32t-57 -25t-72 -11q-53 0 -95.5 16.5t-77 32.5t-69.5 16q-29 0 -57 -13t-42 -27l-13 -13
q-69 43 -66 117zM1020 735l-154 -719q-49 -16 -133 -16q-40 0 -71.5 4t-42.5 8l-11 4l154 725q30 148 -133 148q-91 0 -199 -90l-166 -783q-49 -16 -133 -16q-40 0 -71.5 4t-42.5 8l-11 4l221 1045q37 16 127 16q37 0 66 -4t39 -8l10 -4l-2 -78q69 60 138 87.5t153 27.5
q158 0 227.5 -96t34.5 -267z" />
    <glyph glyph-name="ograve" unicode="&#xf2;" horiz-adv-x="1114" 
d="M694 1550l117 -280q-55 -61 -160 -78l-198 266q37 43 109.5 71t131.5 21zM78 569q32 150 83.5 253.5t124 163.5t158.5 86t199 26q226 0 322.5 -149t33.5 -445q-32 -150 -82.5 -253t-122.5 -162t-157.5 -84t-198.5 -25q-225 0 -323.5 147t-36.5 442zM743 539
q22 106 22.5 179t-20 112t-52 55t-79.5 16q-50 0 -89 -16t-75.5 -55.5t-66 -111.5t-51.5 -179q-22 -106 -22.5 -179t20 -112t52 -55.5t79.5 -16.5q49 0 88 16.5t75.5 55.5t66.5 112t52 179z" />
    <glyph glyph-name="oacute" unicode="&#xf3;" horiz-adv-x="1114" 
d="M510 1290l235 281q62 7 124 -21t81 -71l-313 -267q-94 17 -127 78zM78 569q32 150 83.5 253.5t124 163.5t158.5 86t199 26q226 0 322.5 -149t33.5 -445q-32 -150 -82.5 -253t-122.5 -162t-157.5 -84t-198.5 -25q-225 0 -323.5 147t-36.5 442zM743 539q22 106 22.5 179
t-20 112t-52 55t-79.5 16q-50 0 -89 -16t-75.5 -55.5t-66 -111.5t-51.5 -179q-22 -106 -22.5 -179t20 -112t52 -55.5t79.5 -16.5q49 0 88 16.5t75.5 55.5t66.5 112t52 179z" />
    <glyph glyph-name="ocircumflex" unicode="&#xf4;" horiz-adv-x="1114" 
d="M731 1548l258 -227q-66 -88 -139 -109l-170 125l-223 -123q-68 23 -95 107l318 227h51zM78 569q32 150 83.5 253.5t124 163.5t158.5 86t199 26q226 0 322.5 -149t33.5 -445q-32 -150 -82.5 -253t-122.5 -162t-157.5 -84t-198.5 -25q-225 0 -323.5 147t-36.5 442zM743 539
q22 106 22.5 179t-20 112t-52 55t-79.5 16q-50 0 -89 -16t-75.5 -55.5t-66 -111.5t-51.5 -179q-22 -106 -22.5 -179t20 -112t52 -55.5t79.5 -16.5q49 0 88 16.5t75.5 55.5t66.5 112t52 179z" />
    <glyph glyph-name="otilde" unicode="&#xf5;" horiz-adv-x="1114" 
d="M365 1362q3 4 9 11t26 25t42 32t57 25t72 11q53 0 95 -16.5t76 -32.5t69 -16q29 0 57.5 13.5t41.5 26.5l14 13q31 -15 49 -48t16 -69q-3 -4 -9 -11t-26 -25t-42.5 -32t-57.5 -25t-72 -11q-53 0 -94.5 16.5t-75.5 32.5t-69 16q-29 0 -57.5 -13t-41.5 -27l-14 -13
q-68 42 -65 117zM78 569q32 150 83.5 253.5t124 163.5t158.5 86t199 26q226 0 322.5 -149t33.5 -445q-32 -150 -82.5 -253t-122.5 -162t-157.5 -84t-198.5 -25q-225 0 -323.5 147t-36.5 442zM743 539q22 106 22.5 179t-20 112t-52 55t-79.5 16q-50 0 -89 -16t-75.5 -55.5
t-66 -111.5t-51.5 -179q-22 -106 -22.5 -179t20 -112t52 -55.5t79.5 -16.5q49 0 88 16.5t75.5 55.5t66.5 112t52 179z" />
    <glyph glyph-name="odieresis" unicode="&#xf6;" horiz-adv-x="1114" 
d="M422 1446q39 14 115 14q32 0 58.5 -3.5t36.5 -6.5l11 -4l-43 -199q-41 -14 -113 -14q-34 0 -61 3.5t-37 7.5l-10 3zM793 1446q38 14 114 14q32 0 58.5 -3.5t37.5 -6.5l11 -4l-43 -199q-41 -14 -113 -14q-34 0 -61 3.5t-37 7.5l-10 3zM78 569q32 150 83.5 253.5t124 163.5
t158.5 86t199 26q226 0 322.5 -149t33.5 -445q-32 -150 -82.5 -253t-122.5 -162t-157.5 -84t-198.5 -25q-225 0 -323.5 147t-36.5 442zM743 539q22 106 22.5 179t-20 112t-52 55t-79.5 16q-50 0 -89 -16t-75.5 -55.5t-66 -111.5t-51.5 -179q-22 -106 -22.5 -179t20 -112
t52 -55.5t79.5 -16.5q49 0 88 16.5t75.5 55.5t66.5 112t52 179z" />
    <glyph glyph-name="divide" unicode="&#xf7;" horiz-adv-x="1073" 
d="M754 1044l-49 -235q-50 -16 -134 -16q-40 0 -71.5 4t-42.5 8l-11 4l50 235q43 17 133 17q37 0 68.5 -4.5t44.5 -8.5zM940 500h-862q-6 37 6 94q5 25 13.5 48.5t14.5 34.5l5 11h862q8 -37 -4 -94q-5 -25 -14 -48.5t-15 -34.5zM612 379l-49 -236q-49 -16 -133 -16
q-40 0 -71 4t-43 8l-11 4l49 236q43 16 133 16q37 0 68.5 -4t44.5 -8z" />
    <glyph glyph-name="oslash" unicode="&#xf8;" horiz-adv-x="1114" 
d="M1098 1108l-133 -160q96 -154 34 -444q-32 -150 -82.5 -253t-122.5 -162t-157.5 -84t-198.5 -25q-136 0 -227 55l-113 -137q-90 0 -131 67l142 172q-90 152 -31 432q32 150 83.5 253.5t124 163.5t158.5 86t199 26q133 0 219 -51l107 129q38 0 73 -20t56 -48zM717 870
q-36 31 -103 31q-50 0 -89 -16t-75.5 -55.5t-66 -111.5t-51.5 -179q-20 -89 -23 -162zM356 209q36 -33 105 -33q49 0 88 16.5t75.5 55.5t66.5 112t52 179q20 96 23 168z" />
    <glyph glyph-name="ugrave" unicode="&#xf9;" 
d="M702 1571l117 -281q-55 -61 -160 -78l-198 267q37 43 109.5 71t131.5 21zM68 348l151 713q49 16 133 16q40 0 71 -4t43 -8l11 -4l-153 -725q-30 -148 133 -148q54 0 108.5 26t89.5 75l166 772q49 16 133 16q40 0 71 -4t43 -8l11 -4l-221 -1045q-43 -16 -133 -16
q-35 0 -62 4t-37 8l-10 4l7 86q-110 -122 -291 -122q-87 0 -148.5 29.5t-89.5 80t-36.5 117t10.5 141.5z" />
    <glyph glyph-name="uacute" unicode="&#xfa;" 
d="M969 1479l-314 -267q-94 17 -127 78l236 281q62 7 124 -21t81 -71zM68 348l151 713q49 16 133 16q40 0 71 -4t43 -8l11 -4l-153 -725q-30 -148 133 -148q54 0 108.5 26t89.5 75l166 772q49 16 133 16q40 0 71 -4t43 -8l11 -4l-221 -1045q-43 -16 -133 -16q-35 0 -62 4
t-37 8l-10 4l7 86q-110 -122 -291 -122q-87 0 -148.5 29.5t-89.5 80t-36.5 117t10.5 141.5z" />
    <glyph glyph-name="ucircumflex" unicode="&#xfb;" 
d="M774 1548l246 -223q-65 -87 -139 -108l-170 124l-224 -122q-67 23 -94 106l330 223h51zM68 348l151 713q49 16 133 16q40 0 71 -4t43 -8l11 -4l-153 -725q-30 -148 133 -148q54 0 108.5 26t89.5 75l166 772q49 16 133 16q40 0 71 -4t43 -8l11 -4l-221 -1045
q-43 -16 -133 -16q-35 0 -62 4t-37 8l-10 4l7 86q-110 -122 -291 -122q-87 0 -148.5 29.5t-89.5 80t-36.5 117t10.5 141.5z" />
    <glyph glyph-name="udieresis" unicode="&#xfc;" 
d="M442 1446q39 14 115 14q32 0 58.5 -3.5t37.5 -6.5l11 -4l-43 -199q-41 -14 -113 -14q-34 0 -61 3.5t-37 7.5l-11 3zM813 1446q39 14 115 14q32 0 58.5 -3.5t37.5 -6.5l10 -4l-43 -199q-40 -14 -112 -14q-34 0 -61 3.5t-38 7.5l-10 3zM68 348l151 713q49 16 133 16
q40 0 71 -4t43 -8l11 -4l-153 -725q-30 -148 133 -148q54 0 108.5 26t89.5 75l166 772q49 16 133 16q40 0 71 -4t43 -8l11 -4l-221 -1045q-43 -16 -133 -16q-35 0 -62 4t-37 8l-10 4l7 86q-110 -122 -291 -122q-87 0 -148.5 29.5t-89.5 80t-36.5 117t10.5 141.5z" />
    <glyph glyph-name="yacute" unicode="&#xfd;" 
d="M987 1499l-313 -266q-94 17 -127 78l235 280q62 7 124 -21t81 -71zM823 1061q49 16 133 16q40 0 71 -4t43 -8l11 -4l-217 -1018q-62 -294 -208 -424.5t-396 -130.5q-64 0 -120.5 8.5t-91.5 21t-60.5 25t-35.5 21.5l-11 8q14 51 42 96t64 72q10 -5 28 -13t75.5 -21
t115.5 -13q51 0 89.5 7t79 28.5t70 59.5t56.5 102t45 153l6 25q-64 -49 -125.5 -68.5t-146.5 -19.5q-168 0 -237 100.5t-35 255.5l153 725q49 16 133 16q40 0 71 -4t43 -8l11 -4l-153 -725q-30 -148 133 -148q102 0 194 76z" />
    <glyph glyph-name="thorn" unicode="&#xfe;" horiz-adv-x="1140" 
d="M326 1520q43 16 129 16q38 0 70.5 -4t45.5 -8l13 -4l-113 -529q110 107 289 107q84 0 145.5 -33.5t100.5 -105t43 -183t-27 -268.5q-32 -153 -80.5 -258t-112.5 -163t-135 -82.5t-162 -24.5q-85 0 -153.5 27.5t-99.5 78.5l-113 -528q-49 -17 -135 -17q-38 0 -69 4.5
t-42 8.5l-12 4zM764 539q18 85 22 147t-4 101t-29.5 62t-50 31.5t-69.5 8.5q-85 0 -147.5 -61t-84.5 -160l-55 -258q-21 -98 16.5 -160t122.5 -62q52 0 90 14.5t74 52t64.5 108t50.5 176.5z" />
    <glyph glyph-name="ydieresis" unicode="&#xff;" 
d="M657 1446l-43 -199q-40 -14 -112 -14q-34 0 -61 3.5t-37 7.5l-11 3l43 199q39 14 115 14q32 0 58.5 -3.5t36.5 -6.5zM1028 1446l-43 -199q-41 -14 -113 -14q-34 0 -61 3.5t-37 7.5l-10 3l43 199q39 14 115 14q32 0 58.5 -3.5t37.5 -6.5zM823 1061q49 16 133 16
q40 0 71 -4t43 -8l11 -4l-217 -1018q-62 -294 -208 -424.5t-396 -130.5q-64 0 -120.5 8.5t-91.5 21t-60.5 25t-35.5 21.5l-11 8q14 51 42 96t64 72q10 -5 28 -13t75.5 -21t115.5 -13q51 0 89.5 7t79 28.5t70 59.5t56.5 102t45 153l6 25q-64 -49 -125.5 -68.5t-146.5 -19.5
q-168 0 -237 100.5t-35 255.5l153 725q49 16 133 16q40 0 71 -4t43 -8l11 -4l-153 -725q-30 -148 133 -148q102 0 194 76z" />
    <glyph glyph-name="Amacron" unicode="&#x100;" horiz-adv-x="1359" 
d="M588 1755h612q9 -68 -31 -149h-612q-6 77 31 149zM696 1456q72 19 164 19q44 0 83 -4.5t56 -9.5l17 -5l184 -1438q-51 -18 -147 -18q-39 0 -65 4.5t-32 9.5l-6 4l-41 328h-559l-180 -328q-70 -18 -152 -18q-35 0 -64 4.5t-40 9.5l-12 4zM811 1208h-8q-41 -112 -109 -235
l-227 -416h416l-56 416q-7 56 -11 115t-4 90z" />
    <glyph glyph-name="amacron" unicode="&#x101;" horiz-adv-x="1136" 
d="M444 1423h566q10 -68 -31 -141h-565q-3 82 30 141zM856 1065q31 14 117 14q38 0 69 -4t42 -8l12 -4l-222 -1047q-49 -16 -112 -16q-29 0 -57 3.5t-41 6.5l-13 4l-2 90q-115 -124 -293 -124q-118 0 -192.5 62t-100.5 195t19 341q26 122 65 214t85.5 150t105.5 93.5t119 49
t133 13.5q82 0 142.5 -33t92.5 -88zM752 657q21 96 -17 164t-119 68q-52 0 -90 -14t-74 -50.5t-64 -106t-50 -175.5t-23.5 -177t18.5 -109.5t52.5 -53.5t83.5 -15q84 0 145.5 61.5t83.5 160.5z" />
    <glyph glyph-name="Abreve" unicode="&#x102;" horiz-adv-x="1359" 
d="M913 1765q63 0 121.5 14t85.5 28l27 14q34 -12 57.5 -44.5t28.5 -70.5q-5 -5 -14.5 -13.5t-42.5 -30.5t-70 -39t-96 -30.5t-121 -13.5t-118.5 13t-92 31.5t-62 37.5t-38.5 32l-11 13q21 38 59.5 70.5t78.5 44.5q8 -6 23 -15.5t68.5 -25t116.5 -15.5zM696 1456
q72 19 164 19q44 0 83 -4.5t56 -9.5l17 -5l184 -1438q-51 -18 -147 -18q-39 0 -65 4.5t-32 9.5l-6 4l-41 328h-559l-180 -328q-70 -18 -152 -18q-35 0 -64 4.5t-40 9.5l-12 4zM811 1208h-8q-41 -112 -109 -235l-227 -416h416l-56 416q-7 56 -11 115t-4 90z" />
    <glyph glyph-name="abreve" unicode="&#x103;" horiz-adv-x="1136" 
d="M752 1432q61 0 117 14t82 28l26 15q34 -12 56.5 -45.5t27.5 -73.5l-14 -14t-40.5 -32t-67 -40.5t-92.5 -32t-118 -14.5t-115.5 13.5t-89.5 33t-61 39.5t-37 33l-12 14q21 39 58.5 73t74.5 46q8 -6 23 -15.5t68 -25.5t114 -16zM856 1065q31 14 117 14q38 0 69 -4t42 -8
l12 -4l-222 -1047q-49 -16 -112 -16q-29 0 -57 3.5t-41 6.5l-13 4l-2 90q-115 -124 -293 -124q-118 0 -192.5 62t-100.5 195t19 341q26 122 65 214t85.5 150t105.5 93.5t119 49t133 13.5q82 0 142.5 -33t92.5 -88zM752 657q21 96 -17 164t-119 68q-52 0 -90 -14t-74 -50.5
t-64 -106t-50 -175.5t-23.5 -177t18.5 -109.5t52.5 -53.5t83.5 -15q84 0 145.5 61.5t83.5 160.5z" />
    <glyph glyph-name="Aogonek" unicode="&#x104;" horiz-adv-x="1359" 
d="M1065 -266q15 0 29.5 2.5t21.5 5.5l8 2q18 -16 26 -45t1 -57q-84 -39 -164 -39q-93 0 -149 59t-35 156q25 115 147 188l-41 340h-559l-180 -328q-70 -18 -152 -18q-35 0 -64 4.5t-40 9.5l-12 4l794 1438q72 19 164 19q44 0 83 -4.5t56 -9.5l17 -5l184 -1438
q-100 -22 -153 -63.5t-66 -112.5q-11 -54 13.5 -81t70.5 -27zM883 557l-52 416q-7 56 -10.5 113t-3.5 86v28h-8q-43 -104 -111 -227l-231 -416h416z" />
    <glyph glyph-name="aogonek" unicode="&#x105;" horiz-adv-x="1134" 
d="M754 -254q15 2 29.5 5.5t22.5 6.5l7 2q33 -29 14 -104q-73 -35 -153 -35q-97 0 -151 44.5t-34 139.5q26 129 166 207l-8 99q-121 -131 -295 -131q-188 0 -261 145.5t-9 449.5q32 152 83 257t118.5 162t140.5 80.5t164 23.5q75 0 139 -32.5t96 -88.5l27 86q35 16 121 16
q38 0 69 -4t42 -8l12 -4l-222 -1047q-179 -65 -206 -188q-11 -52 13.5 -69.5t74.5 -12.5zM696 410l58 266q17 95 -20.5 154t-119.5 59q-52 0 -90 -14.5t-74 -52t-64 -107.5t-50 -176q-18 -85 -22 -147t4 -101.5t29.5 -62.5t50 -31.5t69.5 -8.5q85 0 146.5 61.5t82.5 160.5z
" />
    <glyph glyph-name="Cacute" unicode="&#x106;" horiz-adv-x="1148" 
d="M1200 1823l-311 -267q-99 17 -127 78l235 289q61 7 122.5 -24.5t80.5 -75.5zM137 778q79 366 270.5 541.5t499.5 175.5q101 0 186 -18t119 -36l35 -18q-25 -111 -121 -194q-106 43 -237 43q-68 0 -126 -15t-114 -52.5t-101 -97.5t-84 -154t-65 -218t-27.5 -217.5t18 -152
t60.5 -94.5t92 -50t120 -14q65 0 134.5 11t106.5 22l37 12q30 -34 39 -89.5t-4 -111.5q-6 -3 -17.5 -7.5t-50.5 -17t-81.5 -22t-107.5 -17t-132 -7.5q-300 0 -414 211t-35 587z" />
    <glyph glyph-name="cacute" unicode="&#x107;" horiz-adv-x="905" 
d="M909 1448l-297 -258q-94 17 -127 78l236 280q60 7 114 -24t74 -76zM641 889q-130 0 -202 -82t-111 -268q-38 -183 2.5 -262.5t171.5 -79.5q46 0 93.5 7t72.5 14l24 7q26 -29 36.5 -80.5t0.5 -103.5q-12 -7 -35 -17t-107 -27t-181 -17q-229 0 -308.5 155.5t-19.5 437.5
q58 273 194 399t371 126q59 0 108.5 -5.5t77.5 -13.5t48 -16t27 -13l7 -6q-25 -120 -104 -182q-64 27 -166 27z" />
    <glyph glyph-name="Ccircumflex" unicode="&#x108;" horiz-adv-x="1148" 
d="M1016 1905l252 -238q-67 -88 -142 -111l-176 130l-227 -127q-68 23 -96 108l336 238h53zM137 778q79 366 270.5 541.5t499.5 175.5q101 0 186 -18t119 -36l35 -18q-25 -111 -121 -194q-106 43 -237 43q-68 0 -126 -15t-114 -52.5t-101 -97.5t-84 -154t-65 -218
t-27.5 -217.5t18 -152t60.5 -94.5t92 -50t120 -14q65 0 134.5 11t106.5 22l37 12q30 -34 39 -89.5t-4 -111.5q-6 -3 -17.5 -7.5t-50.5 -17t-81.5 -22t-107.5 -17t-132 -7.5q-300 0 -414 211t-35 587z" />
    <glyph glyph-name="ccircumflex" unicode="&#x109;" horiz-adv-x="905" 
d="M733 1536l238 -236q-65 -86 -140 -108l-169 125l-224 -123q-67 23 -94 106l338 236h51zM641 889q-130 0 -202 -82t-111 -268q-38 -183 2.5 -262.5t171.5 -79.5q46 0 93.5 7t72.5 14l24 7q26 -29 36.5 -80.5t0.5 -103.5q-12 -7 -35 -17t-107 -27t-181 -17
q-229 0 -308.5 155.5t-19.5 437.5q58 273 194 399t371 126q59 0 108.5 -5.5t77.5 -13.5t48 -16t27 -13l7 -6q-25 -120 -104 -182q-64 27 -166 27z" />
    <glyph glyph-name="Cdotaccent" unicode="&#x10a;" horiz-adv-x="1148" 
d="M1085 1821l-45 -211q-44 -15 -120 -15q-36 0 -64.5 3.5t-38.5 7.5l-10 4l45 211q37 14 119 14q34 0 62.5 -3.5t40.5 -7.5zM137 778q79 366 270.5 541.5t499.5 175.5q101 0 186 -18t119 -36l35 -18q-25 -111 -121 -194q-106 43 -237 43q-68 0 -126 -15t-114 -52.5
t-101 -97.5t-84 -154t-65 -218t-27.5 -217.5t18 -152t60.5 -94.5t92 -50t120 -14q65 0 134.5 11t106.5 22l37 12q30 -34 39 -89.5t-4 -111.5q-6 -3 -17.5 -7.5t-50.5 -17t-81.5 -22t-107.5 -17t-132 -7.5q-300 0 -414 211t-35 587z" />
    <glyph glyph-name="cdotaccent" unicode="&#x10b;" horiz-adv-x="905" 
d="M823 1458l-45 -211q-43 -14 -119 -14q-36 0 -64.5 3.5t-38.5 7.5l-11 3l45 211q39 15 121 15q34 0 62 -3.5t39 -7.5zM641 889q-130 0 -202 -82t-111 -268q-38 -183 2.5 -262.5t171.5 -79.5q46 0 93.5 7t72.5 14l24 7q26 -29 36.5 -80.5t0.5 -103.5q-12 -7 -35 -17
t-107 -27t-181 -17q-229 0 -308.5 155.5t-19.5 437.5q58 273 194 399t371 126q59 0 108.5 -5.5t77.5 -13.5t48 -16t27 -13l7 -6q-25 -120 -104 -182q-64 27 -166 27z" />
    <glyph glyph-name="Ccaron" unicode="&#x10c;" horiz-adv-x="1148" 
d="M909 1554l-256 226q66 88 142 110l176 -129l227 127q68 -23 96 -108l-331 -226h-54zM137 778q79 366 270.5 541.5t499.5 175.5q101 0 186 -18t119 -36l35 -18q-25 -111 -121 -194q-106 43 -237 43q-68 0 -126 -15t-114 -52.5t-101 -97.5t-84 -154t-65 -218t-27.5 -217.5
t18 -152t60.5 -94.5t92 -50t120 -14q65 0 134.5 11t106.5 22l37 12q30 -34 39 -89.5t-4 -111.5q-6 -3 -17.5 -7.5t-50.5 -17t-81.5 -22t-107.5 -17t-132 -7.5q-300 0 -414 211t-35 587z" />
    <glyph glyph-name="ccaron" unicode="&#x10d;" horiz-adv-x="905" 
d="M631 1192l-244 221q62 84 131 103l158 -119l211 116q61 -20 86 -100l-295 -221h-47zM641 889q-130 0 -202 -82t-111 -268q-38 -183 2.5 -262.5t171.5 -79.5q46 0 93.5 7t72.5 14l24 7q26 -29 36.5 -80.5t0.5 -103.5q-12 -7 -35 -17t-107 -27t-181 -17
q-229 0 -308.5 155.5t-19.5 437.5q58 273 194 399t371 126q59 0 108.5 -5.5t77.5 -13.5t48 -16t27 -13l7 -6q-25 -120 -104 -182q-64 27 -166 27z" />
    <glyph glyph-name="Dcaron" unicode="&#x10e;" horiz-adv-x="1359" 
d="M791 1546l-265 234q66 88 142 110l176 -129l227 127q68 -23 96 -108l-323 -234h-53zM350 1475h481q288 0 405.5 -189.5t33.5 -576.5q-42 -196 -109 -334t-160.5 -220t-206.5 -118.5t-257 -36.5h-500zM344 217h201q64 0 115.5 12.5t104 46.5t93.5 91t78 150.5t63 219.5
q28 127 30.5 220.5t-14 150.5t-55 91t-84.5 46t-110 12h-201z" />
    <glyph glyph-name="dcaron" unicode="&#x10f;" horiz-adv-x="1171" 
d="M1219 1239q73 73 105.5 134t45.5 155q139 25 207 -31q-31 -106 -103.5 -194t-158.5 -125q-73 10 -96 61zM936 1520q47 16 133 16q38 0 69.5 -4t43.5 -8l12 -4l-320 -1504q-49 -16 -112 -16q-29 0 -58 4t-43 8l-14 4l2 88q-115 -124 -307 -124q-180 0 -252 146.5t-8 448.5
q32 153 80 257.5t111.5 161.5t134 80.5t161.5 23.5q83 0 150.5 -37.5t97.5 -97.5zM756 676q17 95 -20.5 154t-119.5 59q-52 0 -90 -14.5t-74 -52t-64 -107.5t-50 -176q-18 -85 -22 -147t4 -101.5t29.5 -62.5t50 -31.5t69.5 -8.5q85 0 146.5 61.5t82.5 160.5z" />
    <glyph glyph-name="Dcroat" unicode="&#x110;" horiz-adv-x="1402" 
d="M387 1475h481q289 0 409 -194t36 -581q-42 -195 -113 -332.5t-169.5 -217t-214.5 -115t-261 -35.5h-481l137 643h-158q-3 40 7.5 90t29.5 84h158zM602 1257l-92 -440h246q4 -35 -7 -86.5t-30 -87.5h-246l-92 -426h201q64 0 115.5 12.5t104 46.5t93.5 91t78 150.5
t63 219.5q28 127 30.5 220.5t-14 150.5t-55 91t-84.5 46t-110 12h-201z" />
    <glyph glyph-name="dcroat" unicode="&#x111;" horiz-adv-x="1140" 
d="M1167 1395h138q3 -29 -7 -76q-4 -21 -10.5 -40t-11.5 -27l-4 -9h-137l-261 -1227q-49 -16 -112 -16q-29 0 -58 4t-43 8l-14 4l2 88q-115 -124 -307 -124q-180 0 -252 146.5t-8 448.5q32 153 80 257.5t111.5 161.5t134 80.5t161.5 23.5q83 0 150.5 -37.5t97.5 -97.5
l60 280h-220q-3 29 7 76q4 21 10.5 40t11.5 27l4 9h219l27 125q47 16 133 16q38 0 69.5 -4t43.5 -8l12 -4zM698 410l58 266q17 95 -20.5 154t-119.5 59q-52 0 -90 -14.5t-74 -52t-64 -107.5t-50 -176q-18 -85 -22 -147t4 -101.5t29.5 -62.5t50 -31.5t69.5 -8.5
q85 0 146.5 61.5t82.5 160.5z" />
    <glyph glyph-name="Emacron" unicode="&#x112;" horiz-adv-x="1134" 
d="M1102 1589h-625q-6 77 31 150h625q9 -69 -31 -150zM350 1475h846q9 -47 0 -99q-13 -63 -45 -112h-584l-88 -414h482q9 -50 0 -102q-13 -58 -46 -109h-481l-90 -428h604q7 -61 -2 -102q-14 -65 -43 -109h-866z" />
    <glyph glyph-name="emacron" unicode="&#x113;" horiz-adv-x="1042" 
d="M961 1272h-551q-4 88 32 151h551q8 -85 -32 -151zM909 459h-592q-5 -55 -5 -95.5t12 -69.5t27.5 -48t42 -30t54.5 -15t66 -4q61 0 122 12.5t92 24.5l30 12q27 -31 38.5 -82.5t2.5 -104.5q-6 -3 -16.5 -8.5t-47 -19t-76.5 -24t-101.5 -19t-125.5 -8.5q-98 0 -171.5 29
t-118 82t-66.5 128.5t-20.5 166.5t24.5 198q30 142 84 243t128 159.5t160 85t191 26.5q86 0 154.5 -25t117 -77t64 -132t-5.5 -190q-13 -58 -29 -112t-26 -78zM748 705q16 92 -15 142t-123 50q-93 0 -152 -59.5t-100 -200.5h371q2 7 9.5 31t9.5 37z" />
    <glyph glyph-name="Ebreve" unicode="&#x114;" horiz-adv-x="1134" 
d="M1143 1706q-6 -5 -16.5 -14t-46.5 -31.5t-75 -40t-100 -31.5t-123 -14t-116.5 13.5t-87.5 32.5t-57 38.5t-34 32.5l-10 14q21 38 59 70.5t78 44.5q8 -6 23 -15.5t69 -25t117 -15.5t121.5 14t85.5 28l27 14q34 -12 57.5 -44.5t28.5 -70.5zM350 1475h846q9 -47 0 -99
q-13 -63 -45 -112h-584l-88 -414h482q9 -50 0 -102q-13 -58 -46 -109h-481l-90 -428h604q7 -61 -2 -102q-14 -65 -43 -109h-866z" />
    <glyph glyph-name="ebreve" unicode="&#x115;" horiz-adv-x="1042" 
d="M1018 1374q-5 -6 -14 -15t-40.5 -32.5t-67 -41.5t-92.5 -33t-118 -15t-115.5 14t-89.5 34.5t-61 40.5t-38 34l-11 14q21 39 58.5 73t74.5 46q8 -6 23 -15.5t68 -25.5t114 -16t117 14t82 28l26 15q34 -12 56.5 -45.5t27.5 -73.5zM909 459h-592q-5 -55 -5 -95.5t12 -69.5
t27.5 -48t42 -30t54.5 -15t66 -4q61 0 122 12.5t92 24.5l30 12q27 -31 38.5 -82.5t2.5 -104.5q-6 -3 -16.5 -8.5t-47 -19t-76.5 -24t-101.5 -19t-125.5 -8.5q-98 0 -171.5 29t-118 82t-66.5 128.5t-20.5 166.5t24.5 198q30 142 84 243t128 159.5t160 85t191 26.5
q86 0 154.5 -25t117 -77t64 -132t-5.5 -190q-13 -58 -29 -112t-26 -78zM748 705q16 92 -15 142t-123 50q-93 0 -152 -59.5t-100 -200.5h371q2 7 9.5 31t9.5 37z" />
    <glyph glyph-name="Edotaccent" unicode="&#x116;" horiz-adv-x="1134" 
d="M958 1800l-45 -211q-44 -14 -120 -14q-36 0 -64.5 3.5t-38.5 7.5l-10 3l45 211q37 15 119 15q34 0 62.5 -3.5t39.5 -7.5zM350 1475h846q9 -47 0 -99q-13 -63 -45 -112h-584l-88 -414h482q9 -50 0 -102q-13 -58 -46 -109h-481l-90 -428h604q7 -61 -2 -102
q-14 -65 -43 -109h-866z" />
    <glyph glyph-name="edotaccent" unicode="&#x117;" horiz-adv-x="1042" 
d="M829 1458l-45 -211q-42 -14 -118 -14q-36 0 -65 3.5t-39 7.5l-11 3l45 211q39 15 121 15q34 0 62 -3.5t39 -7.5zM909 459h-592q-5 -55 -5 -95.5t12 -69.5t27.5 -48t42 -30t54.5 -15t66 -4q61 0 122 12.5t92 24.5l30 12q27 -31 38.5 -82.5t2.5 -104.5q-6 -3 -16.5 -8.5
t-47 -19t-76.5 -24t-101.5 -19t-125.5 -8.5q-98 0 -171.5 29t-118 82t-66.5 128.5t-20.5 166.5t24.5 198q30 142 84 243t128 159.5t160 85t191 26.5q86 0 154.5 -25t117 -77t64 -132t-5.5 -190q-13 -58 -29 -112t-26 -78zM748 705q16 92 -15 142t-123 50q-93 0 -152 -59.5
t-100 -200.5h371q2 7 9.5 31t9.5 37z" />
    <glyph glyph-name="Eogonek" unicode="&#x118;" horiz-adv-x="1134" 
d="M350 1475h846q9 -47 0 -99q-13 -63 -45 -112h-584l-88 -414h482q9 -50 0 -102q-13 -58 -46 -109h-481l-90 -428h604q7 -61 -2 -102q-14 -65 -43 -109q-116 -35 -176.5 -73.5t-73.5 -102.5q-11 -54 13.5 -81.5t70.5 -27.5q15 0 30 2.5t23 5.5l7 3q35 -30 18 -95
q-76 -39 -156 -39q-92 0 -143.5 55t-30.5 152q29 137 181 201h-629z" />
    <glyph glyph-name="eogonek" unicode="&#x119;" horiz-adv-x="1042" 
d="M80 584q30 142 84 243t128 159.5t160 85t191 26.5q86 0 154.5 -25t117 -77t64 -132t-5.5 -190q-13 -58 -29 -112t-26 -78l-9 -25h-592q-5 -55 -5 -95.5t12 -69.5t27.5 -48t42 -30t54.5 -15t66 -4q61 0 122 12.5t92 24.5l30 12q27 -31 38.5 -82.5t2.5 -104.5
q-27 -14 -74 -32q-133 -57 -154 -162q-13 -58 14 -87.5t77 -29.5q16 0 31.5 2.5t23.5 5.5l8 2q38 -31 18 -100q-82 -41 -168 -41q-99 0 -152.5 58.5t-31.5 162.5q18 85 92 144l-51 -2q-98 0 -171.5 29t-118 82t-66.5 128.5t-20.5 166.5t24.5 198zM729 637q2 7 9.5 31t9.5 37
q16 92 -15 142t-123 50q-93 0 -152 -59.5t-100 -200.5h371z" />
    <glyph glyph-name="Ecaron" unicode="&#x11a;" horiz-adv-x="1134" 
d="M729 1538l-244 242q66 88 142 110l176 -129l227 127q68 -23 96 -108l-344 -242h-53zM350 1475h846q9 -47 0 -99q-13 -63 -45 -112h-584l-88 -414h482q9 -50 0 -102q-13 -58 -46 -109h-481l-90 -428h604q7 -61 -2 -102q-14 -65 -43 -109h-866z" />
    <glyph glyph-name="ecaron" unicode="&#x11b;" horiz-adv-x="1042" 
d="M621 1212l-232 230q63 85 135 104l168 -123l215 121q68 -20 92 -102l-327 -230h-51zM909 459h-592q-5 -55 -5 -95.5t12 -69.5t27.5 -48t42 -30t54.5 -15t66 -4q61 0 122 12.5t92 24.5l30 12q27 -31 38.5 -82.5t2.5 -104.5q-6 -3 -16.5 -8.5t-47 -19t-76.5 -24t-101.5 -19
t-125.5 -8.5q-98 0 -171.5 29t-118 82t-66.5 128.5t-20.5 166.5t24.5 198q30 142 84 243t128 159.5t160 85t191 26.5q86 0 154.5 -25t117 -77t64 -132t-5.5 -190q-13 -58 -29 -112t-26 -78zM748 705q16 92 -15 142t-123 50q-93 0 -152 -59.5t-100 -200.5h371q2 7 9.5 31
t9.5 37z" />
    <glyph glyph-name="Gcircumflex" unicode="&#x11c;" horiz-adv-x="1294" 
d="M1032 1898l262 -237q-67 -89 -141 -111l-176 129l-227 -127q-69 24 -97 109l326 237h53zM137 774q79 366 280.5 543.5t524.5 177.5q110 0 204 -18t132 -36l39 -18q-12 -54 -44 -106t-75 -86q-122 43 -274 43q-75 0 -138 -15t-123.5 -53t-108.5 -98t-88.5 -154.5
t-66.5 -218.5t-26 -217.5t22.5 -152.5t67.5 -95.5t101.5 -50.5t131.5 -14q34 0 70 2t55 4l19 2l88 416h-264q-12 38 2 104q6 30 17 57t19 38l7 12h503l-168 -789q-19 -8 -53.5 -20t-144.5 -31.5t-225 -19.5q-316 0 -439.5 209.5t-44.5 584.5z" />
    <glyph glyph-name="gcircumflex" unicode="&#x11d;" horiz-adv-x="1148" 
d="M786 1577l238 -236q-65 -87 -139 -108l-170 125l-223 -123q-68 23 -95 106l338 236h51zM637 53l8 33q-112 -106 -280 -106q-409 0 -285 587q26 123 64 215.5t83 152t102.5 96.5t117 52t131.5 15q93 0 156 -35t91 -92l33 90q37 16 123 16q38 0 69 -4t42 -8l12 -4
l-217 -1032q-62 -292 -206.5 -416.5t-397.5 -124.5q-64 0 -120.5 8.5t-91.5 21t-61 25t-36 21.5l-11 8q14 51 42.5 98t64.5 74q10 -5 28 -12t75.5 -19t115.5 -12q52 0 91.5 7t81.5 29t73 59.5t58 102.5t44 154zM346 539q-18 -85 -22 -147t4 -101.5t29.5 -62.5t50 -31.5
t69.5 -8.5q82 0 144 58.5t84 152.5l57 269q22 98 -15 159.5t-122 61.5q-52 0 -90 -14.5t-74 -52t-64.5 -107.5t-50.5 -176z" />
    <glyph glyph-name="Gbreve" unicode="&#x11e;" horiz-adv-x="1294" 
d="M1315 1716q-5 -5 -14.5 -14t-42.5 -31.5t-70 -40t-96 -31.5t-121 -14t-117.5 13.5t-90 32.5t-60 38.5t-35.5 32.5l-11 14q21 38 59.5 70.5t78.5 44.5q8 -6 23 -15t69 -24.5t117 -15.5t119 14t81 28l25 13q34 -12 57.5 -44.5t28.5 -70.5zM137 774q79 366 280.5 543.5
t524.5 177.5q110 0 204 -18t132 -36l39 -18q-12 -54 -44 -106t-75 -86q-122 43 -274 43q-75 0 -138 -15t-123.5 -53t-108.5 -98t-88.5 -154.5t-66.5 -218.5t-26 -217.5t22.5 -152.5t67.5 -95.5t101.5 -50.5t131.5 -14q34 0 70 2t55 4l19 2l88 416h-264q-12 38 2 104
q6 30 17 57t19 38l7 12h503l-168 -789q-19 -8 -53.5 -20t-144.5 -31.5t-225 -19.5q-316 0 -439.5 209.5t-44.5 584.5z" />
    <glyph glyph-name="gbreve" unicode="&#x11f;" horiz-adv-x="1148" 
d="M1026 1370l-14 -14t-40.5 -32t-67 -40.5t-92.5 -32t-118 -14.5t-115.5 13.5t-89.5 33t-61 39.5t-38 33l-11 14q21 39 58.5 73t74.5 46q8 -6 23 -15.5t68 -25.5t114 -16t117 14t82 28l26 15q34 -12 56.5 -45.5t27.5 -73.5zM637 53l8 33q-112 -106 -280 -106
q-409 0 -285 587q26 123 64 215.5t83 152t102.5 96.5t117 52t131.5 15q93 0 156 -35t91 -92l33 90q37 16 123 16q38 0 69 -4t42 -8l12 -4l-217 -1032q-62 -292 -206.5 -416.5t-397.5 -124.5q-64 0 -120.5 8.5t-91.5 21t-61 25t-36 21.5l-11 8q14 51 42.5 98t64.5 74
q10 -5 28 -12t75.5 -19t115.5 -12q52 0 91.5 7t81.5 29t73 59.5t58 102.5t44 154zM346 539q-18 -85 -22 -147t4 -101.5t29.5 -62.5t50 -31.5t69.5 -8.5q82 0 144 58.5t84 152.5l57 269q22 98 -15 159.5t-122 61.5q-52 0 -90 -14.5t-74 -52t-64.5 -107.5t-50.5 -176z" />
    <glyph glyph-name="Gdotaccent" unicode="&#x120;" horiz-adv-x="1294" 
d="M1128 1800l-45 -211q-44 -14 -120 -14q-36 0 -64.5 3.5t-38.5 7.5l-10 3l45 211q37 15 119 15q34 0 62.5 -3.5t39.5 -7.5zM137 774q79 366 280.5 543.5t524.5 177.5q110 0 204 -18t132 -36l39 -18q-12 -54 -44 -106t-75 -86q-122 43 -274 43q-75 0 -138 -15t-123.5 -53
t-108.5 -98t-88.5 -154.5t-66.5 -218.5t-26 -217.5t22.5 -152.5t67.5 -95.5t101.5 -50.5t131.5 -14q34 0 70 2t55 4l19 2l88 416h-264q-12 38 2 104q6 30 17 57t19 38l7 12h503l-168 -789q-19 -8 -53.5 -20t-144.5 -31.5t-225 -19.5q-316 0 -439.5 209.5t-44.5 584.5z" />
    <glyph glyph-name="gdotaccent" unicode="&#x121;" horiz-adv-x="1148" 
d="M866 1458l-45 -211q-43 -14 -119 -14q-36 0 -64.5 3.5t-39.5 7.5l-10 3l45 211q39 15 121 15q34 0 62 -3.5t39 -7.5zM637 53l8 33q-112 -106 -280 -106q-409 0 -285 587q26 123 64 215.5t83 152t102.5 96.5t117 52t131.5 15q93 0 156 -35t91 -92l33 90q37 16 123 16
q38 0 69 -4t42 -8l12 -4l-217 -1032q-62 -292 -206.5 -416.5t-397.5 -124.5q-64 0 -120.5 8.5t-91.5 21t-61 25t-36 21.5l-11 8q14 51 42.5 98t64.5 74q10 -5 28 -12t75.5 -19t115.5 -12q52 0 91.5 7t81.5 29t73 59.5t58 102.5t44 154zM346 539q-18 -85 -22 -147t4 -101.5
t29.5 -62.5t50 -31.5t69.5 -8.5q82 0 144 58.5t84 152.5l57 269q22 98 -15 159.5t-122 61.5q-52 0 -90 -14.5t-74 -52t-64.5 -107.5t-50.5 -176z" />
    <glyph glyph-name="Gcommaaccent" unicode="&#x122;" horiz-adv-x="1294" 
d="M463 -598l-84 57q4 3 10 8.5t23 25t32 41.5t32.5 57.5t27.5 72.5q-24 2 -44 5.5t-28 6.5l-8 2l47 222q49 16 139 16q40 0 74 -4t48 -8l13 -4l-30 -144q-14 -66 -45.5 -127t-65.5 -100.5t-66.5 -69.5t-53.5 -43zM137 774q79 366 280.5 543.5t524.5 177.5q110 0 204 -18
t132 -36l39 -18q-12 -54 -44 -106t-75 -86q-122 43 -274 43q-75 0 -138 -15t-123.5 -53t-108.5 -98t-88.5 -154.5t-66.5 -218.5t-26 -217.5t22.5 -152.5t67.5 -95.5t101.5 -50.5t131.5 -14q34 0 70 2t55 4l19 2l88 416h-264q-12 38 2 104q6 30 17 57t19 38l7 12h503
l-168 -789q-19 -8 -53.5 -20t-144.5 -31.5t-225 -19.5q-316 0 -439.5 209.5t-44.5 584.5z" />
    <glyph glyph-name="gcommaaccent" unicode="&#x123;" horiz-adv-x="1148" 
d="M836 1712l77 -53q-9 -8 -23.5 -22.5t-45.5 -63.5t-47 -103q24 -2 42.5 -5.5t25.5 -6.5l7 -2l-43 -203q-47 -14 -129 -14q-37 0 -69 3.5t-45 7.5l-13 3l29 133q13 60 41.5 116t60.5 92.5t62.5 64.5t49.5 41zM637 53l8 33q-112 -106 -280 -106q-409 0 -285 587
q26 123 64 215.5t83 152t102.5 96.5t117 52t131.5 15q93 0 156 -35t91 -92l33 90q37 16 123 16q38 0 69 -4t42 -8l12 -4l-217 -1032q-62 -292 -206.5 -416.5t-397.5 -124.5q-64 0 -120.5 8.5t-91.5 21t-61 25t-36 21.5l-11 8q14 51 42.5 98t64.5 74q10 -5 28 -12t75.5 -19
t115.5 -12q52 0 91.5 7t81.5 29t73 59.5t58 102.5t44 154zM346 539q-18 -85 -22 -147t4 -101.5t29.5 -62.5t50 -31.5t69.5 -8.5q82 0 144 58.5t84 152.5l57 269q22 98 -15 159.5t-122 61.5q-52 0 -90 -14.5t-74 -52t-64.5 -107.5t-50.5 -176z" />
    <glyph glyph-name="Hcircumflex" unicode="&#x124;" horiz-adv-x="1400" 
d="M1008 1890l243 -241q-67 -89 -141 -111l-176 129l-227 -127q-69 24 -97 109l344 241h54zM1022 868l125 588q49 19 135 19q38 0 70 -4.5t44 -9.5l13 -5l-305 -1438q-47 -18 -133 -18q-43 0 -75 4.5t-43 9.5l-11 4l133 625h-541l-133 -625q-51 -18 -135 -18
q-42 0 -73.5 4.5t-42.5 9.5l-11 4l305 1438q47 19 133 19q39 0 71.5 -4.5t45.5 -9.5l12 -5l-125 -588h541z" />
    <glyph glyph-name="hcircumflex" unicode="&#x125;" 
d="M545 1909l233 -234q-66 -84 -137 -106l-168 125l-219 -123q-63 19 -92 104l332 234h51zM1020 739l-154 -723q-49 -16 -133 -16q-40 0 -71.5 4t-42.5 8l-11 4l154 725q30 148 -133 148q-102 0 -197 -76l-168 -797q-49 -16 -133 -16q-40 0 -71.5 4t-42.5 8l-11 4l320 1504
q41 16 131 16q37 0 69 -4t45 -8l13 -4l-111 -521q126 99 281 99q157 0 228.5 -99t37.5 -260z" />
    <glyph glyph-name="Hbar" unicode="&#x126;" horiz-adv-x="1458" 
d="M1389 1251h153q9 -73 -33 -153h-153l-230 -1080q-47 -18 -133 -18q-43 0 -75 4.5t-43 9.5l-11 4l133 625h-540l-133 -625q-52 -18 -136 -18q-42 0 -73.5 4.5t-42.5 9.5l-11 4l230 1080h-133q-6 84 32 153h134l43 205q47 19 133 19q39 0 71.5 -4.5t44.5 -9.5l13 -5
l-43 -205h540l43 205q50 19 136 19q38 0 70 -4.5t45 -9.5l12 -5zM553 1098l-49 -230h540l50 230h-541z" />
    <glyph glyph-name="hbar" unicode="&#x127;" 
d="M473 999q126 99 281 99q157 0 228.5 -99t37.5 -260l-154 -723q-49 -16 -133 -16q-40 0 -71.5 4t-42.5 8l-11 4l154 725q30 148 -133 148q-102 0 -197 -76l-168 -797q-49 -16 -133 -16q-40 0 -71.5 4t-42.5 8l-11 4l260 1225h-137q-7 84 33 154h137l27 125q41 16 131 16
q37 0 69 -4t45 -8l13 -4l-27 -125h281q6 -71 -33 -154h-281z" />
    <glyph glyph-name="Itilde" unicode="&#x128;" horiz-adv-x="598" 
d="M641 1710q28 0 55.5 13t40.5 25l13 13q30 -15 47.5 -46.5t15.5 -65.5q-3 -4 -8.5 -11t-25 -25t-41 -31.5t-56 -24.5t-70.5 -11q-51 0 -92 16t-75 32t-68 16q-28 0 -54.5 -13t-39.5 -25l-13 -13q-69 42 -63 112q3 4 8.5 11t25 25t41 31.5t55 24.5t69.5 11q52 0 93 -16
t74.5 -32t67.5 -16zM39 18l305 1438q47 19 133 19q39 0 71.5 -4.5t45.5 -9.5l12 -5l-305 -1438q-51 -18 -135 -18q-42 0 -73.5 4.5t-42.5 9.5z" />
    <glyph glyph-name="itilde" unicode="&#x129;" horiz-adv-x="532" 
d="M528 1393q24 0 47.5 12.5t35.5 25.5l12 13q24 -15 37 -46t10 -65q-2 -4 -7 -11t-21 -24t-34 -30t-46 -24t-58 -11q-54 0 -110 30.5t-87 30.5q-24 0 -46.5 -12t-32.5 -24l-11 -13q-55 40 -49 111q2 4 7 11t21 24t34 30t46 24t58 11q43 0 76.5 -16t61.5 -31.5t56 -15.5z
M487 1061l-221 -1045q-49 -16 -133 -16q-40 0 -71.5 4t-42.5 8l-11 4l221 1045q43 16 133 16q37 0 68.5 -4t43.5 -8z" />
    <glyph glyph-name="Imacron" unicode="&#x12a;" horiz-adv-x="598" 
d="M784 1559h-604q-6 82 31 149h604q5 -63 -31 -149zM39 18l305 1438q47 19 133 19q39 0 71.5 -4.5t45.5 -9.5l12 -5l-305 -1438q-51 -18 -135 -18q-42 0 -73.5 4.5t-42.5 9.5z" />
    <glyph glyph-name="imacron" unicode="&#x12b;" horiz-adv-x="532" 
d="M614 1288h-409q0 78 28 142h410q3 -62 -29 -142zM487 1061l-221 -1045q-49 -16 -133 -16q-40 0 -71.5 4t-42.5 8l-11 4l221 1045q43 16 133 16q37 0 68.5 -4t43.5 -8z" />
    <glyph glyph-name="Ibreve" unicode="&#x12c;" horiz-adv-x="598" 
d="M856 1706q-6 -5 -16.5 -14t-46 -31.5t-74.5 -40t-100 -31.5t-123 -14t-116.5 13.5t-88 32.5t-57.5 38.5t-34 32.5l-10 14q21 38 59.5 70.5t78.5 44.5q8 -6 23 -15.5t69 -25t117 -15.5t121 14t85 28l27 14q34 -12 57.5 -44.5t28.5 -70.5zM39 18l305 1438q47 19 133 19
q39 0 71.5 -4.5t45.5 -9.5l12 -5l-305 -1438q-51 -18 -135 -18q-42 0 -73.5 4.5t-42.5 9.5z" />
    <glyph glyph-name="ibreve" unicode="&#x12d;" horiz-adv-x="532" 
d="M745 1370q-6 -6 -16 -15t-45 -32.5t-73.5 -41.5t-97.5 -33t-120 -15t-113.5 14t-84.5 34.5t-55 40.5t-32 34l-10 14q21 39 58.5 73t74.5 46q8 -6 23 -15.5t68 -25.5t114 -16t117.5 14t82.5 28l26 15q34 -12 56 -45.5t27 -73.5zM487 1061l-221 -1045q-49 -16 -133 -16
q-40 0 -71.5 4t-42.5 8l-11 4l221 1045q43 16 133 16q37 0 68.5 -4t43.5 -8z" />
    <glyph glyph-name="Iogonek" unicode="&#x12e;" horiz-adv-x="598" 
d="M301 18l-14 -4q-188 -55 -215 -192q-11 -53 15 -70.5t85 -17.5q15 0 29.5 2.5t22.5 5.5l7 2q36 -31 19 -98q-76 -37 -156 -37q-105 0 -158 46t-32 142q28 127 147 215l-12 6l305 1438q47 19 133 19q39 0 71.5 -4.5t45.5 -9.5l12 -5z" />
    <glyph glyph-name="iogonek" unicode="&#x12f;" horiz-adv-x="534" 
d="M326 1493q43 16 133 16q37 0 68.5 -4t44.5 -8l12 -4l-52 -236q-47 -16 -131 -16q-40 0 -71.5 4t-43.5 8l-12 4zM233 1061q44 16 134 16q37 0 68.5 -4t44.5 -8l12 -4l-222 -1045q-206 -63 -233 -200q-10 -48 15.5 -65t76.5 -17q15 0 29.5 2.5t21.5 5.5l8 2
q16 -14 19.5 -49.5t-4.5 -63.5q-76 -39 -156 -39q-97 0 -161 52t-44 147q13 61 57.5 116.5t108.5 92.5z" />
    <glyph glyph-name="Idotaccent" unicode="&#x130;" horiz-adv-x="598" 
d="M418 1804q41 17 131 17q37 0 69 -4.5t45 -8.5l13 -4l-51 -235q-47 -17 -131 -17q-40 0 -71.5 4t-43.5 8l-12 5zM344 1456q47 19 133 19q39 0 71.5 -4.5t45.5 -9.5l12 -5l-305 -1438q-51 -18 -135 -18q-42 0 -73.5 4.5t-42.5 9.5l-11 4z" />
    <glyph glyph-name="dotlessi" unicode="&#x131;" horiz-adv-x="532" 
d="M487 1061l-221 -1045q-49 -16 -133 -16q-40 0 -71.5 4t-42.5 8l-11 4l221 1045q43 16 133 16q37 0 68.5 -4t43.5 -8z" />
    <glyph glyph-name="IJ" unicode="&#x132;" horiz-adv-x="1480" 
d="M39 18l305 1438q47 19 133 19q39 0 71.5 -4.5t45.5 -9.5l12 -5l-305 -1438q-51 -18 -135 -18q-42 0 -73.5 4.5t-42.5 9.5zM1014 412l221 1044q41 19 135 19q39 0 71 -4.5t44 -9.5l12 -5l-221 -1044q-23 -109 -73 -192.5t-119.5 -135.5t-152 -78t-175.5 -26q-75 0 -149 15
t-111 31l-37 15q22 122 112 197q76 -31 170 -31q103 0 176.5 49t96.5 156z" />
    <glyph glyph-name="ij" unicode="&#x133;" horiz-adv-x="1081" 
d="M272 1257l52 236q43 16 133 16q37 0 68.5 -4t44.5 -8l12 -4l-52 -236q-47 -16 -131 -16q-40 0 -71.5 4t-43.5 8zM997 1509h4q37 0 68.5 -4t44.5 -8l12 -4l-51 -236q-47 -16 -131 -16h-4h-2q-40 0 -71.5 4t-43.5 8l-12 4l51 236q43 16 133 16h2zM10 16l221 1045
q44 16 134 16q37 0 68 -4t43 -8l13 -4l-221 -1045q-49 -16 -133 -16q-40 0 -71.5 4t-42.5 8zM510 -188l266 1249q43 16 133 16q37 0 68.5 -4t44.5 -8l12 -4l-264 -1241q-34 -160 -130.5 -246t-248.5 -86q-38 0 -73.5 4.5t-51.5 9.5l-16 4q-4 27 4 60q8 40 22 73t24 47l9 13
q31 -8 66 -8q112 0 135 121z" />
    <glyph glyph-name="Jcircumflex" unicode="&#x134;" horiz-adv-x="927" 
d="M932 1890l244 -241q-67 -88 -142 -111l-176 129l-227 -127q-68 23 -96 109l344 241h53zM463 412l221 1044q41 19 135 19q39 0 71 -4.5t44 -9.5l12 -5l-219 -1036q-46 -215 -188 -327.5t-334 -112.5q-75 0 -149 15t-111 31l-37 15q22 122 112 197q76 -31 170 -31
q103 0 176.5 49t96.5 156z" />
    <glyph glyph-name="jcircumflex" unicode="&#x135;" horiz-adv-x="536" 
d="M453 1536l254 -233q-65 -86 -140 -109l-172 127l-223 -125q-66 23 -94 107l321 233h54zM-35 -188l266 1249q44 16 134 16q37 0 68 -4t43 -8l13 -4l-264 -1241q-34 -160 -130.5 -246t-248.5 -86q-38 0 -73.5 4.5t-51.5 9.5l-16 4q-4 27 4 60q8 40 21.5 73t23.5 47l10 13
q31 -8 66 -8q112 0 135 121z" />
    <glyph glyph-name="Kcommaaccent" unicode="&#x136;" horiz-adv-x="1263" 
d="M408 -616l-74 59q9 9 24 25t48.5 72t50.5 118q-24 2 -43.5 6t-27.5 7l-7 3l51 232q45 14 129 14q36 0 67 -3.5t44 -6.5l12 -4l-31 -152q-15 -69 -45.5 -133t-63.5 -105t-63.5 -72.5t-50.5 -45.5zM571 870l516 586q74 19 150 19q61 0 135 -19l-598 -684l356 -754
q-45 -18 -147 -18q-42 0 -76.5 4.5t-48.5 9.5l-14 4l-299 644h-107l-137 -644q-41 -18 -135 -18q-37 0 -69 4.5t-45 9.5l-13 4l305 1438q49 19 137 19q38 0 69.5 -4.5t43.5 -9.5l12 -5l-125 -586h90z" />
    <glyph glyph-name="kcommaaccent" unicode="&#x137;" horiz-adv-x="1034" 
d="M270 -623l-71 60q9 9 23.5 25t47 71.5t49.5 116.5q-24 2 -42.5 6t-25.5 7l-7 3l49 228q45 16 127 16q36 0 67 -4t43 -8l13 -4l-31 -148q-14 -69 -44.5 -132.5t-63 -104.5t-63.5 -72.5t-51 -45.5zM469 657l319 404q74 16 150 16q31 0 61.5 -4t44.5 -8l15 -4l-400 -506
l236 -539q-72 -18 -156 -18q-36 0 -65.5 4.5t-41.5 9.5l-11 4l-181 451h-82l-94 -451q-55 -16 -131 -16q-36 0 -67.5 4t-45.5 8l-14 4l320 1508q55 12 133 12q30 0 61.5 -3t47.5 -6l16 -3l-185 -867h70z" />
    <glyph glyph-name="kgreenlandic" unicode="&#x138;" horiz-adv-x="1056" 
d="M1094 1061l-439 -424l265 -608q-40 -29 -140 -29q-41 0 -74 5t-46 10l-13 5l-176 437l-143 -138l-64 -301q-62 -18 -131 -18q-75 0 -127 18l221 1047q61 12 138 12q71 0 120 -12l-82 -389l392 389q68 12 163 12q76 0 136 -16z" />
    <glyph glyph-name="Lacute" unicode="&#x139;" horiz-adv-x="1069" 
d="M795 1804l-312 -266q-99 17 -127 78l236 280q62 7 123 -21t80 -71zM37 0l309 1456q47 19 133 19q39 0 71.5 -4.5t45.5 -9.5l12 -5l-262 -1231h588q11 -47 -2 -112q-10 -48 -45 -113h-850z" />
    <glyph glyph-name="lacute" unicode="&#x13a;" horiz-adv-x="540" 
d="M772 1847l-313 -266q-94 17 -127 78l235 280q62 7 124 -21t81 -71zM590 1520l-320 -1504q-49 -16 -133 -16q-40 0 -71.5 4t-42.5 8l-11 4l320 1504q41 16 131 16q37 0 69 -4t45 -8z" />
    <glyph glyph-name="Lcommaaccent" unicode="&#x13b;" horiz-adv-x="1069" 
d="M37 0l309 1456q47 19 133 19q39 0 71.5 -4.5t45.5 -9.5l12 -5l-262 -1231h588q11 -47 -2 -112q-10 -48 -45 -113h-850zM303 -631l-76 62q10 9 25 25.5t49 73.5t51 120q-24 2 -43.5 6t-26.5 7l-8 3l52 236q47 16 131 16q37 0 69 -4t45 -8l13 -4l-33 -154q-15 -71 -46 -136
t-64.5 -107t-65 -74.5t-51.5 -46.5z" />
    <glyph glyph-name="lcommaaccent" unicode="&#x13c;" horiz-adv-x="540" 
d="M590 1520l-320 -1504q-49 -16 -133 -16q-40 0 -71.5 4t-42.5 8l-11 4l320 1504q41 16 131 16q37 0 69 -4t45 -8zM-33 -631l-76 62q10 9 25 25.5t49 73.5t51 120q-24 2 -43.5 6t-26.5 7l-7 3l51 236q47 16 131 16q37 0 69 -4t45 -8l13 -4l-33 -154q-15 -71 -46 -136
t-64.5 -107t-65 -74.5t-51.5 -46.5z" />
    <glyph glyph-name="Lcaron" unicode="&#x13d;" horiz-adv-x="1069" 
d="M801 1157q-75 7 -99 60q70 78 100.5 141.5t39.5 157.5q139 29 207 -25q-31 -111 -98.5 -203t-149.5 -131zM37 0l309 1456q47 19 133 19q39 0 71.5 -4.5t45.5 -9.5l12 -5l-262 -1231h588q11 -47 -2 -112q-10 -48 -45 -113h-850z" />
    <glyph glyph-name="lcaron" unicode="&#x13e;" horiz-adv-x="567" 
d="M709 1178q-74 10 -97 61q73 73 106 134t46 155q139 25 207 -31q-31 -106 -103.5 -194t-158.5 -125zM590 1520l-320 -1504q-49 -16 -133 -16q-40 0 -71.5 4t-42.5 8l-11 4l320 1504q41 16 131 16q37 0 69 -4t45 -8z" />
    <glyph glyph-name="Ldot" unicode="&#x13f;" horiz-adv-x="1081" 
d="M37 0l309 1456q47 19 133 19q39 0 71.5 -4.5t45.5 -9.5l12 -5l-262 -1231h588q11 -47 -2 -112q-10 -48 -45 -113h-850zM903 784l-41 -198q-42 -17 -114 -17q-35 0 -61.5 4.5t-36.5 8.5l-9 4l41 198q37 17 115 17q32 0 58.5 -4.5t36.5 -8.5z" />
    <glyph glyph-name="ldot" unicode="&#x140;" horiz-adv-x="794" 
d="M590 1520l-320 -1504q-49 -16 -133 -16q-40 0 -71.5 4t-42.5 8l-11 4l320 1504q41 16 131 16q37 0 69 -4t45 -8zM813 784l-41 -198q-43 -17 -115 -17q-35 0 -61.5 4.5t-35.5 8.5l-9 4l41 198q37 17 115 17q32 0 58.5 -4.5t36.5 -8.5z" />
    <glyph glyph-name="Lslash" unicode="&#x141;" horiz-adv-x="1122" 
d="M399 1456q47 19 133 19q39 0 71.5 -4.5t45.5 -9.5l13 -5l-109 -514l229 119q46 -62 49 -135l-317 -164l-115 -537h588q11 -47 -2 -112q-10 -48 -45 -113h-850l129 610l-135 -69q-39 49 -49 133l223 117z" />
    <glyph glyph-name="lslash" unicode="&#x142;" horiz-adv-x="702" 
d="M410 1520q41 16 131 16q37 0 69 -4t45 -8l13 -4l-113 -531l137 72q17 -17 35 -60q8 -22 11.5 -40.5t3.5 -26.5l-1 -8l-225 -117l-168 -793q-49 -16 -133 -16q-40 0 -71.5 4t-42.5 8l-11 4l135 643l-133 -67q-17 16 -33 59q-8 22 -12 40.5t-4 26.5v7l221 113z" />
    <glyph glyph-name="Nacute" unicode="&#x143;" horiz-adv-x="1441" 
d="M1235 1804l-311 -266q-99 17 -127 78l235 280q62 7 123 -21t80 -71zM831 18l-245 824q-19 64 -37.5 139.5t-27.5 118.5l-9 43h-8q-19 -162 -64 -375l-159 -750q-43 -18 -127 -18q-36 0 -65 4.5t-39 9.5l-11 4l305 1438q60 19 162 19q46 0 84 -4.5t52 -9.5l15 -5l240 -819
q19 -67 39 -143.5t30 -119.5l11 -44h8q21 172 66 381l157 745q41 19 127 19q38 0 67 -4.5t38 -9.5l10 -5l-305 -1438q-54 -18 -158 -18q-45 0 -84 4.5t-55 9.5z" />
    <glyph glyph-name="nacute" unicode="&#x144;" 
d="M958 1458l-313 -266q-94 17 -127 78l236 280q62 7 123.5 -21t80.5 -71zM1020 735l-154 -719q-49 -16 -133 -16q-40 0 -71.5 4t-42.5 8l-11 4l154 725q30 148 -133 148q-91 0 -199 -90l-166 -783q-49 -16 -133 -16q-40 0 -71.5 4t-42.5 8l-11 4l221 1045q37 16 127 16
q37 0 66 -4t39 -8l10 -4l-2 -78q69 60 138 87.5t153 27.5q158 0 227.5 -96t34.5 -267z" />
    <glyph glyph-name="Ncommaaccent" unicode="&#x145;" horiz-adv-x="1441" 
d="M831 18l-245 824q-19 64 -37.5 139.5t-27.5 118.5l-9 43h-8q-19 -162 -64 -375l-159 -750q-43 -18 -127 -18q-36 0 -65 4.5t-39 9.5l-11 4l305 1438q60 19 162 19q46 0 84 -4.5t52 -9.5l15 -5l240 -819q19 -67 39 -143.5t30 -119.5l11 -44h8q21 172 66 381l157 745
q41 19 127 19q38 0 67 -4.5t38 -9.5l10 -5l-305 -1438q-54 -18 -158 -18q-45 0 -84 4.5t-55 9.5zM436 -631l-76 62q10 9 25 25.5t49 73.5t51 120q-24 2 -43.5 6t-26.5 7l-7 3l51 236q47 16 131 16q37 0 69 -4t45 -8l13 -4l-33 -154q-15 -71 -46 -136t-64.5 -107t-65 -74.5
t-52.5 -46.5z" />
    <glyph glyph-name="ncommaaccent" unicode="&#x146;" 
d="M270 -614l-75 61l9 9t23 27.5t31.5 45t31.5 61t27 76.5q-24 2 -42.5 6t-25.5 8l-7 3l49 235q49 16 133 16q37 0 68.5 -4t43.5 -8l13 -4l-31 -154q-15 -71 -46.5 -135.5t-65 -107t-65 -74.5t-51.5 -47zM1020 735l-154 -719q-49 -16 -133 -16q-40 0 -71.5 4t-42.5 8l-11 4
l154 725q30 148 -133 148q-91 0 -199 -90l-166 -783q-49 -16 -133 -16q-40 0 -71.5 4t-42.5 8l-11 4l221 1045q37 16 127 16q37 0 66 -4t39 -8l10 -4l-2 -78q69 60 138 87.5t153 27.5q158 0 227.5 -96t34.5 -267z" />
    <glyph glyph-name="Ncaron" unicode="&#x147;" horiz-adv-x="1441" 
d="M883 1532l-265 244q66 88 142 110l176 -129l227 127q69 -24 97 -108l-324 -244h-53zM831 18l-243 824q-19 64 -38 139.5t-28 118.5l-10 43h-8q-19 -162 -64 -375l-159 -750q-43 -18 -127 -18q-36 0 -65 4.5t-39 9.5l-11 4l305 1438q60 19 162 19q46 0 84 -4.5t52 -9.5
l15 -5l242 -819q20 -67 39.5 -143.5t29.5 -119.5l9 -44h8q21 172 66 381l157 745q41 19 127 19q38 0 67 -4.5t38 -9.5l10 -5l-305 -1438q-54 -18 -158 -18q-45 0 -84 4.5t-55 9.5z" />
    <glyph glyph-name="ncaron" unicode="&#x148;" 
d="M709 1419l211 117q61 -20 86 -100l-295 -219h-47l-244 219q61 83 131 102zM1020 735l-154 -719q-49 -16 -133 -16q-40 0 -71.5 4t-42.5 8l-11 4l154 725q30 148 -133 148q-91 0 -199 -90l-166 -783q-49 -16 -133 -16q-40 0 -71.5 4t-42.5 8l-11 4l221 1045q37 16 127 16
q37 0 66 -4t39 -8l10 -4l-2 -78q69 60 138 87.5t153 27.5q158 0 227.5 -96t34.5 -267z" />
    <glyph glyph-name="napostrophe" unicode="&#x149;" 
d="M367 1184q-73 16 -91 71q80 68 119 127t62 152q140 10 200 -53q-45 -106 -124 -188t-166 -109zM1020 735l-154 -719q-49 -16 -133 -16q-40 0 -71.5 4t-42.5 8l-11 4l154 725q30 148 -133 148q-91 0 -199 -90l-166 -783q-49 -16 -133 -16q-40 0 -71.5 4t-42.5 8l-11 4
l221 1045q37 16 127 16q37 0 66 -4t39 -8l10 -4l-2 -78q69 60 138 87.5t153 27.5q158 0 227.5 -96t34.5 -267z" />
    <glyph glyph-name="Eng" unicode="&#x14a;" horiz-adv-x="1443" 
d="M1210 1456q41 19 127 19q38 0 67 -4.5t38 -9.5l10 -5l-326 -1534q-35 -161 -121 -252.5t-237 -136.5q-74 62 -45 186q59 22 92 67.5t53 135.5l19 84l-53 12l-246 824q-19 64 -37.5 139.5t-27.5 118.5l-9 43h-8q-19 -162 -64 -375l-159 -750q-43 -18 -127 -18
q-36 0 -65 4.5t-39 9.5l-11 4l305 1438q60 19 162 19q46 0 84 -4.5t52 -9.5l15 -5l242 -819q20 -67 39.5 -143.5t29.5 -119.5l9 -44h8q21 172 66 381z" />
    <glyph glyph-name="eng" unicode="&#x14b;" 
d="M469 979q151 119 297 119q157 0 223.5 -97t30.5 -264l-174 -815q-35 -161 -121.5 -252.5t-237.5 -136.5q-74 62 -45 186q59 22 92.5 67.5t53.5 135.5l174 819q30 148 -133 148q-91 0 -199 -86l-166 -787q-49 -16 -133 -16q-40 0 -71.5 4t-42.5 8l-11 4l221 1045
q43 16 133 16q37 0 67 -4t41 -8l11 -4z" />
    <glyph glyph-name="Omacron" unicode="&#x14c;" horiz-adv-x="1388" 
d="M643 1765h584q5 -63 -31 -149h-584q-6 82 31 149zM139 774q42 194 111 333.5t163 224t206.5 124t250.5 39.5q278 0 396 -199.5t34 -586.5q-82 -386 -263 -557.5t-466 -171.5q-282 0 -398.5 202.5t-33.5 591.5zM1034 737q34 159 36 267t-28 167t-79.5 83t-126.5 24
q-75 0 -134.5 -24t-116 -83t-102.5 -167t-80 -267q-26 -127 -31 -222t8.5 -155t46 -97t75.5 -51.5t102 -14.5q77 0 137 24.5t116 83t100 166.5t77 266z" />
    <glyph glyph-name="omacron" unicode="&#x14d;" horiz-adv-x="1114" 
d="M436 1419h533q9 -64 -31 -145h-532q0 77 30 145zM78 569q32 150 83.5 253.5t124 163.5t158.5 86t199 26q226 0 322.5 -149t33.5 -445q-32 -150 -82.5 -253t-122.5 -162t-157.5 -84t-198.5 -25q-225 0 -323.5 147t-36.5 442zM743 539q22 106 22.5 179t-20 112t-52 55
t-79.5 16q-50 0 -89 -16t-75.5 -55.5t-66 -111.5t-51.5 -179q-22 -106 -22.5 -179t20 -112t52 -55.5t79.5 -16.5q49 0 88 16.5t75.5 55.5t66.5 112t52 179z" />
    <glyph glyph-name="Obreve" unicode="&#x14e;" horiz-adv-x="1388" 
d="M936 1784q63 0 121 14t85 28l27 13q34 -12 57.5 -44.5t28.5 -70.5q-5 -5 -14.5 -13.5t-42.5 -30.5t-70 -39t-96 -30.5t-121 -13.5t-118.5 13t-91.5 31.5t-61.5 37.5t-37.5 32l-12 13q21 38 59 70.5t78 44.5q8 -6 23 -15t69 -24.5t117 -15.5zM137 774q42 194 111 333.5
t163 224t206.5 124t250.5 39.5q278 0 396 -199.5t34 -586.5q-82 -386 -263 -557.5t-466 -171.5q-282 0 -398.5 202.5t-33.5 591.5zM1032 737q34 159 36 267t-28 167t-79.5 83t-126.5 24q-75 0 -134.5 -24t-116 -83t-102.5 -167t-80 -267q-26 -127 -31 -222t8.5 -155t46 -97
t75.5 -51.5t102 -14.5q77 0 137 24.5t116 83t100 166.5t77 266z" />
    <glyph glyph-name="obreve" unicode="&#x14f;" horiz-adv-x="1114" 
d="M707 1432q61 0 117 14t82 28l26 15q34 -12 56.5 -45.5t27.5 -73.5q-5 -6 -14 -15t-40.5 -32.5t-67 -41.5t-92.5 -33t-118 -15t-115.5 14t-89.5 34.5t-61 40.5t-38 34l-11 14q21 39 58.5 73t74.5 46q8 -6 23 -15.5t68 -25.5t114 -16zM78 569q32 150 83.5 253.5t124 163.5
t158.5 86t199 26q226 0 322.5 -149t33.5 -445q-32 -150 -82.5 -253t-122.5 -162t-157.5 -84t-198.5 -25q-225 0 -323.5 147t-36.5 442zM743 539q22 106 22.5 179t-20 112t-52 55t-79.5 16q-50 0 -89 -16t-75.5 -55.5t-66 -111.5t-51.5 -179q-22 -106 -22.5 -179t20 -112
t52 -55.5t79.5 -16.5q49 0 88 16.5t75.5 55.5t66.5 112t52 179z" />
    <glyph glyph-name="Ohungarumlaut" unicode="&#x150;" horiz-adv-x="1388" 
d="M596 1612l225 268q59 7 118.5 -19.5t78.5 -68.5l-299 -254q-95 17 -123 74zM950 1612l226 268q59 7 118 -19.5t76 -68.5l-297 -254q-95 17 -123 74zM137 774q42 194 111 333.5t163 224t206.5 124t250.5 39.5q278 0 396 -199.5t34 -586.5q-82 -386 -263 -557.5
t-466 -171.5q-282 0 -398.5 202.5t-33.5 591.5zM1032 737q34 159 36 267t-28 167t-79.5 83t-126.5 24q-75 0 -134.5 -24t-116 -83t-102.5 -167t-80 -267q-26 -127 -31 -222t8.5 -155t46 -97t75.5 -51.5t102 -14.5q77 0 137 24.5t116 83t100 166.5t77 266z" />
    <glyph glyph-name="ohungarumlaut" unicode="&#x151;" horiz-adv-x="1114" 
d="M414 1249l176 260q55 13 114 -1.5t82 -47.5l-249 -258q-90 0 -123 47zM733 1249l176 260q55 13 114.5 -2t82.5 -47l-250 -258q-90 0 -123 47zM78 569q32 150 83.5 253.5t124 163.5t158.5 86t199 26q226 0 322.5 -149t33.5 -445q-32 -150 -82.5 -253t-122.5 -162
t-157.5 -84t-198.5 -25q-225 0 -323.5 147t-36.5 442zM743 539q22 106 22.5 179t-20 112t-52 55t-79.5 16q-50 0 -89 -16t-75.5 -55.5t-66 -111.5t-51.5 -179q-22 -106 -22.5 -179t20 -112t52 -55.5t79.5 -16.5q49 0 88 16.5t75.5 55.5t66.5 112t52 179z" />
    <glyph glyph-name="OE" unicode="&#x152;" horiz-adv-x="1794" 
d="M139 768q42 196 112.5 337t167.5 226t213 124.5t259 39.5q100 0 176 -20h791q9 -49 -3 -105q-12 -54 -43 -106h-522l-88 -414h420q9 -52 -2 -105q-8 -48 -43 -106h-420l-90 -428h543q7 -64 -2 -107q-9 -42 -43 -104h-813q-95 -20 -183 -20q-284 0 -398 200.5t-32 587.5z
M1044 1237q-83 41 -198 41q-78 0 -140 -24.5t-120.5 -83.5t-104.5 -167t-80 -266q-27 -128 -31.5 -223t10 -155t49 -96.5t79 -51t106.5 -14.5q122 0 220 41z" />
    <glyph glyph-name="oe" unicode="&#x153;" horiz-adv-x="1646" 
d="M1511 459h-575q-20 -153 21.5 -214t152.5 -61q61 0 123.5 12t94.5 24l32 11q47 -53 37 -168q-5 -3 -15.5 -9t-45.5 -20t-74.5 -25t-102.5 -20t-129 -9q-194 0 -270 149q-140 -149 -340 -149q-224 0 -316 147.5t-26 443.5q63 282 197 404.5t356 122.5q93 0 176 -43.5
t117 -118.5q152 162 329 162q197 0 284 -105t42 -319q-13 -58 -30 -112t-27 -78zM614 901q-50 0 -89 -16t-75.5 -55.5t-66 -111.5t-51.5 -179q-18 -85 -21 -149t6 -104.5t30.5 -65.5t49 -34.5t64.5 -9.5q66 0 111 29.5t83 110t68 223.5q23 107 26 179t-13.5 111.5
t-45.5 55.5t-76 16zM1339 705q42 192 -129 192q-80 0 -136 -60t-99 -200h346q2 8 6 21.5t7 25t5 21.5z" />
    <glyph glyph-name="Racute" unicode="&#x154;" horiz-adv-x="1294" 
d="M643 1616l236 287q61 7 122 -24t80 -75l-293 -268q-48 8 -89.5 29t-55.5 51zM350 1475h539q203 0 300.5 -134.5t53.5 -336.5q-32 -151 -126 -248.5t-238 -139.5l231 -598q-47 -18 -149 -18q-42 0 -75.5 4.5t-45.5 9.5l-13 4l-209 572h-194l-121 -572q-47 -18 -133 -18
q-43 0 -75 4.5t-43 9.5l-11 4zM711 807q106 0 174.5 58.5t91.5 166.5t-21 166.5t-151 58.5h-240l-94 -450h240z" />
    <glyph glyph-name="racute" unicode="&#x155;" horiz-adv-x="815" 
d="M416 1311l235 280q62 7 124 -21t81 -71l-313 -266q-94 17 -127 78zM461 944q143 152 260 152q96 0 168 -54q-22 -71 -59.5 -123t-98.5 -96q-42 45 -108 45q-103 0 -201 -106l-158 -746q-49 -16 -133 -16q-40 0 -71.5 4t-42.5 8l-11 4l221 1045q43 16 133 16q37 0 68.5 -4
t43.5 -8l13 -4z" />
    <glyph glyph-name="Rcommaaccent" unicode="&#x156;" horiz-adv-x="1294" 
d="M432 -92q47 16 131 16q37 0 69 -4t45 -8l13 -4l-33 -154q-15 -71 -46 -136t-64.5 -107t-64.5 -74.5t-52 -46.5l-20 -15l-76 62q10 9 25 25.5t49 73.5t51 120q-24 2 -43.5 6t-27.5 7l-7 3zM350 1475h539q203 0 300.5 -134.5t53.5 -336.5q-32 -151 -126 -248.5t-238 -139.5
l231 -598q-47 -18 -149 -18q-42 0 -75.5 4.5t-45.5 9.5l-13 4l-209 572h-194l-121 -572q-47 -18 -133 -18q-43 0 -75 4.5t-43 9.5l-11 4zM711 807q106 0 174.5 58.5t91.5 166.5t-21 166.5t-151 58.5h-240l-94 -450h240z" />
    <glyph glyph-name="rcommaaccent" unicode="&#x157;" horiz-adv-x="815" 
d="M461 944q143 152 260 152q96 0 168 -54q-22 -71 -59.5 -123t-98.5 -96q-42 45 -108 45q-103 0 -201 -106l-158 -746q-49 -16 -133 -16q-40 0 -71.5 4t-42.5 8l-11 4l221 1045q43 16 133 16q37 0 68.5 -4t43.5 -8l13 -4zM-16 -98q47 16 131 16q37 0 69 -4t45 -8l13 -4
l-33 -154q-15 -71 -46 -136t-64.5 -107t-65 -74.5t-51.5 -46.5l-21 -15l-76 62q10 9 25 25.5t49 73.5t51 120q-24 2 -43.5 6t-26.5 7l-8 3z" />
    <glyph glyph-name="Rcaron" unicode="&#x158;" horiz-adv-x="1294" 
d="M844 1761l227 127q68 -23 96 -108l-331 -242h-54l-256 242q66 88 142 110zM350 1475h539q203 0 300.5 -134.5t53.5 -336.5q-32 -151 -126 -248.5t-238 -139.5l231 -598q-47 -18 -149 -18q-42 0 -75.5 4.5t-45.5 9.5l-13 4l-209 572h-194l-121 -572q-47 -18 -133 -18
q-43 0 -75 4.5t-43 9.5l-11 4zM711 807q106 0 174.5 58.5t91.5 166.5t-21 166.5t-151 58.5h-240l-94 -450h240z" />
    <glyph glyph-name="rcaron" unicode="&#x159;" horiz-adv-x="815" 
d="M586 1440l211 116q61 -20 86 -100l-316 -223h-47l-223 223q62 84 131 103zM461 944q143 152 260 152q96 0 168 -54q-22 -71 -59.5 -123t-98.5 -96q-42 45 -108 45q-103 0 -201 -106l-158 -746q-49 -16 -133 -16q-40 0 -71.5 4t-42.5 8l-11 4l221 1045q43 16 133 16
q37 0 68.5 -4t43.5 -8l13 -4z" />
    <glyph glyph-name="Sacute" unicode="&#x15a;" horiz-adv-x="1169" 
d="M1126 1808l-327 -247q-96 24 -119 88l252 280q59 3 118.5 -36t75.5 -85zM207 1104q42 188 191.5 289.5t404.5 101.5q113 0 212.5 -15.5t142.5 -30.5l44 -15q-13 -57 -43 -112.5t-72 -92.5q-14 5 -39 12.5t-102 20t-153 12.5q-150 0 -232 -47t-102 -146q-9 -43 3.5 -75.5
t53.5 -58t72 -38.5t99 -37q17 -6 26.5 -9.5t24 -8.5t26.5 -10q54 -21 98.5 -50t84.5 -70.5t62 -92.5t30.5 -117t-9.5 -143q-45 -209 -192 -300t-416 -91q-79 0 -153 9.5t-123.5 22.5t-87.5 26t-56 22l-18 10q9 51 38 107t68 102q21 -7 56.5 -17.5t133 -28.5t181.5 -18
q140 0 215.5 49.5t97.5 149.5q16 77 -27.5 124t-138.5 83q-10 4 -31 12q-43 17 -66 26t-65 28t-66 33.5t-58 39t-52.5 48t-39 56t-27.5 67.5t-7 79.5t11 93.5z" />
    <glyph glyph-name="sacute" unicode="&#x15b;" horiz-adv-x="907" 
d="M852 1479l-313 -267q-94 17 -127 78l235 281q62 7 124 -21t81 -71zM129 799q33 150 144.5 224.5t310.5 74.5q163 0 280 -62q-21 -117 -96 -180q-90 33 -203 33q-91 0 -139.5 -26.5t-60.5 -88.5q-4 -21 3.5 -38.5t21 -29t39 -23.5t47.5 -19t57.5 -18.5t58.5 -20.5
q46 -17 81.5 -44t63 -69.5t34 -98t-6.5 -128.5q-33 -161 -143.5 -233t-313.5 -72q-62 0 -121 8t-98 19.5t-69 22.5t-44 19l-14 8q33 114 102 191q132 -49 271 -49q161 0 182 114q7 32 -3.5 56t-41 42.5t-57.5 29.5t-76 26q-34 11 -62 24t-57.5 33.5t-48 45t-34 59
t-15.5 75.5t8 95z" />
    <glyph glyph-name="Scircumflex" unicode="&#x15c;" horiz-adv-x="1169" 
d="M887 1903l264 -236q-67 -89 -141 -111l-176 130l-228 -127q-68 22 -96 108l324 236h53zM207 1104q39 187 189.5 289t406.5 102q113 0 212.5 -15.5t142.5 -30.5l44 -15q-13 -57 -43 -112.5t-72 -92.5q-14 5 -39 12.5t-102 20t-153 12.5q-150 0 -232 -47t-102 -146
q-9 -43 3.5 -75.5t53.5 -58t72 -38.5t99 -37q17 -6 26.5 -9.5t24 -8.5t26.5 -10q39 -15 71.5 -32.5t65.5 -41.5t56.5 -52t44.5 -64t29 -78t10.5 -94t-11.5 -111q-40 -209 -189 -300t-419 -91q-79 0 -153 9.5t-123.5 22.5t-87.5 26t-56 22l-18 10q9 51 38 107t68 102
q21 -7 56.5 -17.5t133 -28.5t181.5 -18q140 0 215.5 49.5t97.5 149.5q16 77 -27.5 124t-138.5 83q-18 7 -54 20q-153 57 -218 101q-161 109 -138 310q3 25 9 52z" />
    <glyph glyph-name="scircumflex" unicode="&#x15d;" horiz-adv-x="907" 
d="M686 1520l240 -230q-64 -85 -140 -108l-170 125l-223 -123q-67 23 -94 106l336 230h51zM129 799q33 150 144.5 224.5t310.5 74.5q163 0 280 -62q-21 -117 -96 -180q-90 33 -203 33q-91 0 -139.5 -26.5t-60.5 -88.5q-4 -21 3.5 -38.5t21 -29t39 -23.5t47.5 -19t57.5 -18.5
t58.5 -20.5q46 -17 81.5 -44t63 -69.5t34 -98t-6.5 -128.5q-33 -161 -143.5 -233t-313.5 -72q-62 0 -121 8t-98 19.5t-69 22.5t-44 19l-14 8q33 114 102 191q132 -49 271 -49q161 0 182 114q7 32 -3.5 56t-41 42.5t-57.5 29.5t-76 26q-34 11 -62 24t-57.5 33.5t-48 45
t-34 59t-15.5 75.5t8 95z" />
    <glyph glyph-name="Scedilla" unicode="&#x15e;" horiz-adv-x="1169" 
d="M207 1104q39 187 189.5 289t406.5 102q113 0 212.5 -15.5t142.5 -30.5l44 -15q-13 -57 -43 -112.5t-72 -92.5q-14 5 -39 12.5t-102 20t-153 12.5q-150 0 -232 -47t-102 -146q-9 -43 3.5 -75.5t53.5 -58t72 -38.5t99 -37q17 -6 26.5 -9.5t24 -8.5t26.5 -10
q39 -15 71.5 -32.5t65.5 -41.5t56.5 -52t44.5 -64t29 -78t10.5 -94t-11.5 -111q-36 -188 -161.5 -280.5t-346.5 -106.5l-39 -103q205 0 164 -200q-21 -101 -101 -154t-200 -53q-56 0 -101 12t-62 24l-17 13q6 32 26 60.5t48 43.5q50 -26 120 -26q118 0 136 88q8 38 -12.5 61
t-71.5 23h-80l-21 32l70 175q-114 4 -213 26.5t-142 43.5l-42 20q9 51 38 107t68 102q21 -7 56.5 -17.5t133 -28.5t181.5 -18q140 0 215.5 49.5t97.5 149.5q16 77 -27.5 124t-138.5 83q-18 7 -54 20q-153 57 -218 101q-161 109 -138 310q3 25 9 52z" />
    <glyph glyph-name="scedilla" unicode="&#x15f;" horiz-adv-x="907" 
d="M768 856q-90 33 -203 33q-91 0 -139.5 -26.5t-60.5 -88.5q-4 -21 3.5 -38.5t21 -29t39 -23.5t47.5 -19t57.5 -18.5t58.5 -20.5q46 -17 81.5 -44t63 -69.5t34 -98t-6.5 -128.5q-30 -145 -121.5 -217t-255.5 -86l-35 -91q203 0 162 -192q-21 -97 -99 -148t-194 -51
q-56 0 -100 12t-60 24l-16 11q4 30 23.5 58t46.5 43q52 -27 118 -27q116 0 134 86q6 36 -13 58t-69 22h-78l-23 31l66 164q-83 4 -155 23t-103 35l-31 17q33 114 102 191q132 -49 271 -49q161 0 182 114q7 32 -3.5 56t-41 42.5t-57.5 29.5t-76 26q-34 11 -62 24t-57.5 33.5
t-48 45t-34 59t-15.5 75.5t8 95q33 150 144.5 224.5t310.5 74.5q163 0 280 -62q-21 -117 -96 -180z" />
    <glyph glyph-name="Scaron" unicode="&#x160;" horiz-adv-x="1169" 
d="M778 1571l-266 219q67 89 141 111l176 -129l228 126q68 -23 96 -108l-322 -219h-53zM207 1104q39 187 189.5 289t406.5 102q113 0 212.5 -15.5t142.5 -30.5l44 -15q-13 -57 -43 -112.5t-72 -92.5q-14 5 -39 12.5t-102 20t-153 12.5q-150 0 -232 -47t-102 -146
q-9 -43 3.5 -75.5t53.5 -58t72 -38.5t99 -37q17 -6 26.5 -9.5t24 -8.5t26.5 -10q39 -15 71.5 -32.5t65.5 -41.5t56.5 -52t44.5 -64t29 -78t10.5 -94t-11.5 -111q-40 -209 -189 -300t-419 -91q-79 0 -153 9.5t-123.5 22.5t-87.5 26t-56 22l-18 10q9 51 38 107t68 102
q21 -7 56.5 -17.5t133 -28.5t181.5 -18q140 0 215.5 49.5t97.5 149.5q16 77 -27.5 124t-138.5 83q-18 7 -54 20q-153 57 -218 101q-161 109 -138 310q3 25 9 52z" />
    <glyph glyph-name="scaron" unicode="&#x161;" horiz-adv-x="909" 
d="M549 1212l-219 220q61 79 129 98l157 -117l207 117q58 -23 86 -98l-311 -220h-49zM131 799q33 150 144.5 224.5t310.5 74.5q163 0 280 -62q-21 -117 -96 -180q-90 33 -203 33q-91 0 -139.5 -26.5t-60.5 -88.5q-4 -21 3.5 -38.5t21 -29t39 -23.5t47.5 -19t57.5 -18.5
t58.5 -20.5q46 -17 81.5 -44t63 -69.5t34 -98t-6.5 -128.5q-33 -161 -143.5 -233t-313.5 -72q-62 0 -121 8t-98 19.5t-69 22.5t-44 19l-14 8q33 112 103 191q131 -49 270 -49q161 0 182 114q7 32 -3.5 56t-41 42.5t-57.5 29.5t-76 26q-34 11 -62 24t-57.5 33.5t-48 45
t-34 59t-15.5 75.5t8 95z" />
    <glyph glyph-name="Tcommaaccent" unicode="&#x162;" 
d="M244 1475h997q10 -50 -2 -111q-6 -29 -17.5 -58t-19.5 -43l-8 -14h-363l-262 -1231q-51 -18 -135 -18q-42 0 -73.5 4.5t-42.5 9.5l-11 4l262 1231h-372q-12 43 2 111q6 29 17.5 58t19.5 43zM264 -631l-76 62q10 9 25 25.5t49 73.5t51 120q-24 2 -43.5 6t-26.5 7l-7 3
l51 236q47 16 131 16q37 0 69 -4t45 -8l13 -4l-33 -154q-15 -71 -46 -136t-64.5 -107t-65 -74.5t-52.5 -46.5z" />
    <glyph glyph-name="Tcommaaccent" unicode="&#x21a;" 
d="M244 1475h997q10 -50 -2 -111q-6 -29 -17.5 -58t-19.5 -43l-8 -14h-363l-262 -1231q-51 -18 -135 -18q-42 0 -73.5 4.5t-42.5 9.5l-11 4l262 1231h-372q-12 43 2 111q6 29 17.5 58t19.5 43zM264 -631l-76 62q10 9 25 25.5t49 73.5t51 120q-24 2 -43.5 6t-26.5 7l-7 3
l51 236q47 16 131 16q37 0 69 -4t45 -8l13 -4l-33 -154q-15 -71 -46 -136t-64.5 -107t-65 -74.5t-52.5 -46.5z" />
    <glyph glyph-name="tcommaaccent" unicode="&#x163;" horiz-adv-x="784" 
d="M516 887l-104 -488q-27 -128 0.5 -170.5t128.5 -42.5l94 7q8 -46 -4 -103q-4 -24 -12.5 -47t-14.5 -34l-6 -11q-68 -18 -156 -18q-194 0 -263.5 101t-26.5 306l106 500h-156q-5 37 7 94q5 28 13.5 52t14.5 34l6 10h156l37 176q120 65 268 52l-47 -228h242q6 -35 -6 -94
q-5 -24 -14 -48t-15 -36l-6 -12h-242zM188 -625l-71 60q9 9 24 25t47.5 71.5t49.5 116.5q-24 2 -43 6t-26 7l-7 3l49 227q45 17 127 17q36 0 67 -4t43 -8l13 -5l-31 -147q-14 -69 -44.5 -132.5t-63 -104.5t-63.5 -72.5t-51 -45.5z" />
    <glyph glyph-name="tcommaaccent" unicode="&#x21b;" horiz-adv-x="784" 
d="M516 887l-104 -488q-27 -128 0.5 -170.5t128.5 -42.5l94 7q8 -46 -4 -103q-4 -24 -12.5 -47t-14.5 -34l-6 -11q-68 -18 -156 -18q-194 0 -263.5 101t-26.5 306l106 500h-156q-5 37 7 94q5 28 13.5 52t14.5 34l6 10h156l37 176q120 65 268 52l-47 -228h242q6 -35 -6 -94
q-5 -24 -14 -48t-15 -36l-6 -12h-242zM188 -625l-71 60q9 9 24 25t47.5 71.5t49.5 116.5q-24 2 -43 6t-26 7l-7 3l49 227q45 17 127 17q36 0 67 -4t43 -8l13 -5l-31 -147q-14 -69 -44.5 -132.5t-63 -104.5t-63.5 -72.5t-51 -45.5z" />
    <glyph glyph-name="Tcaron" unicode="&#x164;" 
d="M737 1538l-243 242q67 88 141 110l176 -129l227 127q69 -24 97 -108l-344 -242h-54zM244 1475h997q10 -50 -2 -111q-6 -29 -17.5 -58t-19.5 -43l-8 -14h-363l-262 -1231q-51 -18 -135 -18q-42 0 -73.5 4.5t-42.5 9.5l-11 4l262 1231h-372q-12 43 2 111q6 29 17.5 58
t19.5 43z" />
    <glyph glyph-name="tcaron" unicode="&#x165;" horiz-adv-x="784" 
d="M766 1184q-72 16 -90 71q80 67 118.5 126.5t61.5 152.5q141 10 201 -53q-45 -105 -124.5 -187.5t-166.5 -109.5zM516 887l-104 -488q-27 -128 0.5 -170.5t128.5 -42.5l94 7q8 -46 -4 -103q-4 -24 -12.5 -47t-14.5 -34l-6 -11q-68 -18 -156 -18q-194 0 -263.5 101
t-26.5 306l106 500h-156q-5 37 7 94q5 28 13.5 52t14.5 34l6 10h156l37 176q120 65 268 52l-47 -228h242q6 -35 -6 -94q-5 -24 -14 -48t-15 -36l-6 -12h-242z" />
    <glyph glyph-name="Tbar" unicode="&#x166;" horiz-adv-x="1163" 
d="M748 780h272q9 -73 -33 -153h-272l-129 -609q-51 -18 -135 -18q-42 0 -73.5 4.5t-42.5 9.5l-11 4l129 609h-265q-3 88 33 153h264l101 469h-373q-12 43 2 111q6 29 17.5 58t19.5 43l8 14h997q10 -50 -2 -111q-6 -29 -17.5 -58t-19.5 -43l-8 -14h-362z" />
    <glyph glyph-name="tbar" unicode="&#x167;" horiz-adv-x="790" 
d="M545 186l94 7q8 -46 -4 -103q-4 -24 -12.5 -47t-14.5 -34l-6 -11q-68 -18 -156 -18q-194 0 -263.5 101t-26.5 306l24 117h-135q-3 82 33 153h135l49 230h-156q-5 37 7 94q5 28 13.5 52t14.5 34l6 10h156l37 176q120 65 268 52l-47 -228h242q6 -35 -6 -94q-5 -24 -14 -48
t-15 -36l-6 -12h-242l-49 -230h201q9 -73 -33 -153h-201l-22 -105q-27 -128 0.5 -170.5t128.5 -42.5z" />
    <glyph glyph-name="Utilde" unicode="&#x168;" horiz-adv-x="1386" 
d="M1057 1761q29 0 57 12.5t42 25.5l13 13q32 -15 50 -46t16 -66q-3 -4 -9 -11t-25.5 -24.5t-41.5 -30.5t-57 -24t-72 -11q-67 0 -135.5 31t-106.5 31q-29 0 -56.5 -12.5t-40.5 -25.5l-13 -13q-71 44 -68 112q3 4 9 11t26 24.5t42.5 30.5t57.5 24t72 11q53 0 95 -15.5
t76 -31t69 -15.5zM1403 1456l-207 -979q-104 -497 -614 -497q-248 0 -374 144t-73 392l201 940q47 19 133 19q39 0 71.5 -4.5t45.5 -9.5l12 -5l-209 -969q-28 -131 29.5 -208.5t187.5 -77.5q131 0 216.5 72t113.5 202l209 981q45 19 131 19q38 0 70 -4.5t44 -9.5z" />
    <glyph glyph-name="utilde" unicode="&#x169;" 
d="M381 1370q3 4 9 11t26 25.5t42.5 32t57.5 25t72 11.5q53 0 94.5 -16.5t75.5 -33t69 -16.5q29 0 57.5 13.5t41.5 26.5l14 13q32 -15 50 -47.5t16 -68.5q-3 -4 -9 -11t-26 -25.5t-42.5 -32t-57.5 -25t-72 -11.5q-53 0 -95 16.5t-76 33t-69 16.5q-29 0 -57.5 -13.5
t-41.5 -27.5l-14 -13q-68 42 -65 117zM68 348l151 713q49 16 133 16q40 0 71 -4t43 -8l11 -4l-153 -725q-30 -148 133 -148q54 0 108.5 26t89.5 75l166 772q49 16 133 16q40 0 71 -4t43 -8l11 -4l-221 -1045q-43 -16 -133 -16q-35 0 -62 4t-37 8l-10 4l7 86
q-110 -122 -291 -122q-87 0 -148.5 29.5t-89.5 80t-36.5 117t10.5 141.5z" />
    <glyph glyph-name="Umacron" unicode="&#x16a;" horiz-adv-x="1386" 
d="M1192 1626h-584q-3 85 33 150h584q6 -70 -33 -150zM1403 1456l-207 -979q-104 -497 -614 -497q-248 0 -374 144t-73 392l201 940q47 19 133 19q39 0 71.5 -4.5t45.5 -9.5l12 -5l-209 -969q-28 -131 29.5 -208.5t187.5 -77.5q131 0 216.5 72t113.5 202l209 981
q45 19 131 19q38 0 70 -4.5t44 -9.5z" />
    <glyph glyph-name="umacron" unicode="&#x16b;" 
d="M459 1432h510q6 -65 -31 -138h-510q0 78 31 138zM68 348l151 713q49 16 133 16q40 0 71 -4t43 -8l11 -4l-153 -725q-30 -148 133 -148q54 0 108.5 26t89.5 75l166 772q49 16 133 16q40 0 71 -4t43 -8l11 -4l-221 -1045q-43 -16 -133 -16q-35 0 -62 4t-37 8l-10 4l7 86
q-110 -122 -291 -122q-87 0 -148.5 29.5t-89.5 80t-36.5 117t10.5 141.5z" />
    <glyph glyph-name="Ubreve" unicode="&#x16c;" horiz-adv-x="1386" 
d="M1268 1706q-5 -5 -15 -14t-43.5 -31.5t-71 -40t-97 -31.5t-121.5 -14t-118 13.5t-91 32.5t-61 38.5t-37 32.5l-11 14q21 38 59 70.5t78 44.5q8 -6 23 -15.5t69 -25t117 -15.5t121.5 14t85.5 28l27 14q34 -12 57.5 -44.5t28.5 -70.5zM1403 1456l-207 -979
q-104 -497 -614 -497q-248 0 -374 144t-73 392l201 940q47 19 133 19q39 0 71.5 -4.5t45.5 -9.5l12 -5l-209 -969q-28 -131 29.5 -208.5t187.5 -77.5q131 0 216.5 72t113.5 202l209 981q45 19 131 19q38 0 70 -4.5t44 -9.5z" />
    <glyph glyph-name="ubreve" unicode="&#x16d;" 
d="M727 1432q61 0 117 14t82 28l26 15q34 -12 56.5 -45.5t27.5 -73.5l-14 -14t-41 -32t-68 -40.5t-93 -32t-118 -14.5t-115.5 13.5t-89 33t-60.5 39.5t-37 33l-11 14q21 39 58.5 73t74.5 46q8 -6 23 -15.5t68 -25.5t114 -16zM68 348l151 713q49 16 133 16q40 0 71 -4t43 -8
l11 -4l-153 -725q-30 -148 133 -148q54 0 108.5 26t89.5 75l166 772q49 16 133 16q40 0 71 -4t43 -8l11 -4l-221 -1045q-43 -16 -133 -16q-35 0 -62 4t-37 8l-10 4l7 86q-110 -122 -291 -122q-87 0 -148.5 29.5t-89.5 80t-36.5 117t10.5 141.5z" />
    <glyph glyph-name="Uring" unicode="&#x16e;" horiz-adv-x="1386" 
d="M901 1556q-109 0 -167 63.5t-34 172.5q23 108 110 168.5t191 60.5q102 0 165 -60t40 -169q-24 -110 -110 -173t-195 -63zM1067 1792q10 44 -14.5 76.5t-79.5 32.5q-54 0 -90.5 -33t-44.5 -76q-10 -45 13 -77t77 -32q55 0 92 32.5t47 76.5zM1403 1456l-207 -979
q-104 -497 -614 -497q-248 0 -374 144t-73 392l201 940q47 19 133 19q39 0 71.5 -4.5t45.5 -9.5l12 -5l-209 -969q-28 -131 29.5 -208.5t187.5 -77.5q131 0 216.5 72t113.5 202l209 981q45 19 131 19q38 0 70 -4.5t44 -9.5z" />
    <glyph glyph-name="uring" unicode="&#x16f;" 
d="M438 1415q19 108 103 169t188 61q102 0 168 -60.5t47 -169.5q-20 -110 -103 -172.5t-192 -62.5q-110 0 -170.5 63t-40.5 172zM805 1415q10 44 -14.5 76.5t-79.5 32.5q-54 0 -91 -33t-45 -76q-10 -44 13.5 -76t77.5 -32q55 0 92 32t47 76zM68 348l151 713q49 16 133 16
q40 0 71 -4t43 -8l11 -4l-153 -725q-30 -148 133 -148q54 0 108.5 26t89.5 75l166 772q49 16 133 16q40 0 71 -4t43 -8l11 -4l-221 -1045q-43 -16 -133 -16q-35 0 -62 4t-37 8l-10 4l7 86q-110 -122 -291 -122q-87 0 -148.5 29.5t-89.5 80t-36.5 117t10.5 141.5z" />
    <glyph glyph-name="Uhungarumlaut" unicode="&#x170;" horiz-adv-x="1386" 
d="M1036 1796l-301 -258q-94 13 -123 76l230 272q59 7 118 -20.5t76 -69.5zM1393 1796l-299 -258q-96 13 -125 76l229 272q61 7 119 -20.5t76 -69.5zM1403 1456l-207 -979q-104 -497 -614 -497q-248 0 -374 144t-73 392l201 940q47 19 133 19q39 0 71.5 -4.5t45.5 -9.5
l12 -5l-209 -969q-28 -131 29.5 -208.5t187.5 -77.5q131 0 216.5 72t113.5 202l209 981q45 19 131 19q38 0 70 -4.5t44 -9.5z" />
    <glyph glyph-name="uhungarumlaut" unicode="&#x171;" 
d="M793 1479l-269 -262q-94 7 -121 63l199 270q57 11 114.5 -10.5t76.5 -60.5zM1118 1481l-268 -262q-91 7 -125 63l199 270q58 10 116 -11t78 -60zM68 348l151 713q49 16 133 16q40 0 71 -4t43 -8l11 -4l-153 -725q-30 -148 133 -148q54 0 108.5 26t89.5 75l166 772
q49 16 133 16q40 0 71 -4t43 -8l11 -4l-221 -1045q-43 -16 -133 -16q-35 0 -62 4t-37 8l-10 4l7 86q-110 -122 -291 -122q-87 0 -148.5 29.5t-89.5 80t-36.5 117t10.5 141.5z" />
    <glyph glyph-name="Uogonek" unicode="&#x172;" horiz-adv-x="1384" 
d="M1145 1456q45 19 131 19q38 0 70 -4.5t44 -9.5l13 -5l-207 -979q-74 -352 -356 -457q-101 -53 -117 -133q-13 -57 12.5 -85.5t73.5 -28.5q16 0 31.5 2.5t23.5 4.5l8 3q18 -17 23.5 -48t-2.5 -61q-84 -41 -168 -41q-99 0 -157 62.5t-36 165.5q13 65 74 119h-24
q-248 0 -374 144t-73 392l201 940q47 19 133 19q39 0 71.5 -4.5t45.5 -9.5l12 -5l-209 -969q-28 -131 29.5 -208.5t187.5 -77.5q131 0 216.5 72t113.5 202z" />
    <glyph glyph-name="uogonek" unicode="&#x173;" 
d="M821 1061q49 16 133 16q40 0 71 -4t43 -8l11 -4l-221 -1045q-206 -65 -237 -204q-4 -22 1.5 -37.5t15 -23.5t27.5 -12.5t32.5 -5.5t35.5 -1q15 0 30 2.5t23 5.5l7 2q16 -14 19.5 -47.5t-5.5 -61.5q-76 -39 -156 -39q-97 0 -156.5 49t-39.5 144q12 61 51.5 115t101.5 92
l15 100q-129 -114 -297 -114q-156 0 -225 101t-33 263l151 717q49 16 133 16q40 0 71 -4t43 -8l11 -4l-153 -725q-30 -148 133 -148q105 0 198 93z" />
    <glyph glyph-name="Wcircumflex" unicode="&#x174;" horiz-adv-x="1990" 
d="M1290 1890l252 -241q-67 -89 -141 -111l-176 137l-228 -135q-68 23 -96 109l336 241h53zM1114 18l-8 842q0 96 6 183.5t12 126.5l6 40h-10q-35 -133 -129 -350l-362 -842q-77 -18 -178 -18q-85 0 -152 18l-78 1438q49 19 137 19q40 0 68.5 -4.5t37.5 -9.5l9 -5l43 -876
q3 -63 3 -139t-1 -121l-2 -44h8q54 159 117 302l387 878q62 19 158 19q44 0 75.5 -4.5t40.5 -9.5l9 -5l12 -876q1 -68 -2.5 -144t-7.5 -118l-4 -42h8q49 140 127 302l418 878q63 19 133 19q34 0 66 -4.5t47 -9.5l16 -5l-694 -1438q-66 -18 -158 -18q-40 0 -79.5 4.5
t-58.5 9.5z" />
    <glyph glyph-name="wcircumflex" unicode="&#x175;" horiz-adv-x="1624" 
d="M1047 1571l247 -230q-65 -87 -139 -108l-170 125l-223 -123q-67 23 -94 106l327 230h52zM858 16l-18 488q-5 149 18 313h-8q-49 -171 -119 -313l-227 -488q-68 -16 -156 -16q-94 0 -151 16l-72 1045q51 16 133 16q39 0 63 -4t29 -8l4 -4l39 -594q7 -89 -2 -215h6
q43 115 92 217l277 592q69 16 147 16q37 0 68 -4t43 -8l12 -4l21 -590q2 -97 -6 -219h6q16 41 98 217l281 592q55 16 137 16q35 0 61 -4t34 -8l9 -4l-514 -1045q-73 -16 -155 -16q-85 0 -150 16z" />
    <glyph glyph-name="Ycircumflex" unicode="&#x176;" horiz-adv-x="1302" 
d="M950 1890l262 -241q-67 -89 -141 -111l-176 129l-227 -127q-69 24 -97 109l326 241h53zM1163 1456q70 19 158 19q37 0 72.5 -4.5t52.5 -9.5l16 -5l-684 -842l-127 -596q-47 -18 -131 -18q-42 0 -74.5 4.5t-44.5 9.5l-12 4l125 590l-311 848q60 19 164 19q42 0 73 -4.5
t42 -9.5l10 -5l210 -579z" />
    <glyph glyph-name="ycircumflex" unicode="&#x177;" 
d="M768 1565l248 -226q-65 -87 -139 -108l-170 125l-224 -123q-67 23 -94 106l328 226h51zM823 1061q49 16 133 16q40 0 71 -4t43 -8l11 -4l-217 -1018q-62 -294 -208 -424.5t-396 -130.5q-64 0 -120.5 8.5t-91.5 21t-60.5 25t-35.5 21.5l-11 8q14 51 42 96t64 72
q10 -5 28 -13t75.5 -21t115.5 -13q51 0 89.5 7t79 28.5t70 59.5t56.5 102t45 153l6 25q-64 -49 -125.5 -68.5t-146.5 -19.5q-168 0 -237 100.5t-35 255.5l153 725q49 16 133 16q40 0 71 -4t43 -8l11 -4l-153 -725q-30 -148 133 -148q102 0 194 76z" />
    <glyph glyph-name="Ydieresis" unicode="&#x178;" horiz-adv-x="1302" 
d="M600 1772q37 14 113 14q32 0 59 -3.5t38 -6.5l11 -4l-43 -199q-40 -14 -112 -14q-34 0 -61 3.5t-37 7.5l-11 3zM971 1772q36 14 112 14q32 0 59 -3.5t38 -6.5l12 -4l-43 -199q-41 -14 -113 -14q-34 0 -61 3.5t-37 7.5l-10 3zM1163 1456q70 19 158 19q37 0 72.5 -4.5
t52.5 -9.5l16 -5l-684 -842l-127 -596q-47 -18 -131 -18q-42 0 -74.5 4.5t-44.5 9.5l-12 4l125 590l-311 848q60 19 164 19q42 0 73 -4.5t42 -9.5l10 -5l210 -579z" />
    <glyph glyph-name="Zacute" unicode="&#x179;" horiz-adv-x="1224" 
d="M686 1616l236 280q62 7 122.5 -21t79.5 -71l-311 -266q-99 17 -127 78zM326 1475h960q9 -41 -4 -109q-17 -71 -45 -121l-944 -1014h756q3 -51 -9 -110q-17 -68 -41 -121h-1044q-6 60 6 119q12 57 43 112l932 1014h-660q-2 44 13 123q12 59 37 107z" />
    <glyph glyph-name="zacute" unicode="&#x17a;" horiz-adv-x="966" 
d="M936 1499l-313 -266q-94 17 -127 78l235 280q62 7 124 -21t81 -71zM272 211h504q8 -39 -6 -107q-6 -27 -16 -53t-16 -39l-7 -12h-776q-3 46 8 111q12 51 37 100l649 655h-483q-4 48 8 109q6 28 15.5 53.5t15.5 37.5l6 11h754q4 -29 -7 -98q-12 -60 -38 -113z" />
    <glyph glyph-name="Zdotaccent" unicode="&#x17b;" horiz-adv-x="1224" 
d="M752 1800q36 15 118 15q34 0 62.5 -3.5t40.5 -7.5l12 -4l-45 -211q-45 -14 -121 -14q-36 0 -64 3.5t-38 7.5l-10 3zM326 1475h960q9 -41 -4 -109q-17 -71 -45 -121l-944 -1014h756q3 -51 -9 -110q-17 -68 -41 -121h-1044q-6 60 6 119q12 57 43 112l932 1014h-660
q-2 44 13 123q12 59 37 107z" />
    <glyph glyph-name="zdotaccent" unicode="&#x17c;" horiz-adv-x="966" 
d="M799 1458l-45 -211q-43 -14 -119 -14q-36 0 -65 3.5t-40 7.5l-10 3l45 211q39 15 121 15q34 0 62 -3.5t40 -7.5zM272 211h504q8 -39 -6 -107q-6 -27 -16 -53t-16 -39l-7 -12h-776q-3 46 8 111q12 51 37 100l649 655h-483q-4 48 8 109q6 28 15.5 53.5t15.5 37.5l6 11h754
q4 -29 -7 -98q-12 -60 -38 -113z" />
    <glyph glyph-name="Zcaron" unicode="&#x17d;" horiz-adv-x="1224" 
d="M831 1765l228 127q68 -23 96 -108l-324 -242h-53l-264 242q67 88 141 110zM326 1475h960q9 -41 -4 -109q-17 -71 -45 -121l-944 -1014h756q3 -51 -9 -110q-17 -68 -41 -121h-1044q-6 60 6 119q12 57 43 112l932 1014h-660q-2 44 13 123q12 59 37 107z" />
    <glyph glyph-name="zcaron" unicode="&#x17e;" horiz-adv-x="966" 
d="M608 1233l-219 219q56 77 127 100l158 -116l207 114q58 -20 86 -98l-312 -219h-47zM272 211h504q8 -39 -6 -107q-6 -27 -16 -53t-16 -39l-7 -12h-776q-3 46 8 111q12 51 37 100l649 655h-483q-4 48 8 109q6 28 15.5 53.5t15.5 37.5l6 11h754q4 -29 -7 -98
q-12 -60 -38 -113z" />
    <glyph glyph-name="longs" unicode="&#x17f;" horiz-adv-x="641" 
d="M590 1210l-254 -1194q-49 -16 -133 -16q-40 0 -71.5 4t-42.5 8l-11 4l184 871h-131q0 103 41 190h131l27 123q69 336 428 336q68 0 126 -12t82 -24l25 -13q-26 -103 -104 -178q-58 24 -156 24q-61 0 -94 -29t-47 -94z" />
    <glyph glyph-name="florin" unicode="&#x192;" horiz-adv-x="983" 
d="M623 799l-236 -766q-23 -74 -55 -130t-80.5 -100t-119.5 -67t-163 -23q-64 0 -119 11.5t-78 23.5l-24 12q27 100 100 168q54 -22 146 -22q58 0 92 27.5t53 89.5l240 776h-152q-8 35 4 90q5 24 14 46.5t15 32.5l6 11h168l37 117q18 59 41 105.5t58 87.5t79.5 68t105 42.5
t134.5 15.5q64 0 119 -11.5t78 -23.5l24 -12q-26 -99 -98 -168q-56 23 -148 23q-58 0 -92 -27.5t-53 -89.5l-39 -127h162q6 -35 -6 -90q-5 -24 -13.5 -46.5t-14.5 -32.5l-5 -11h-180z" />
    <glyph glyph-name="Aringacute" unicode="&#x1fa;" horiz-adv-x="1359" 
d="M1266 2056l-283 -196q-89 13 -121 57l209 209q59 6 117.5 -15.5t77.5 -54.5zM1020 1417l180 -1399q-51 -18 -147 -18q-39 0 -65.5 4.5t-33.5 9.5l-6 4l-41 328h-559l-180 -328q-68 -18 -150 -18q-35 0 -64 4.5t-40 9.5l-12 4l768 1391q-67 64 -43 182q24 108 110.5 169
t190.5 61q102 0 165 -60.5t40 -169.5q-22 -106 -113 -174zM993 1591q10 44 -14.5 76.5t-79.5 32.5q-53 0 -89 -32.5t-46 -76.5t13 -76t77 -32q55 0 93 32.5t46 75.5zM881 557l-52 416q-7 56 -10.5 113t-3.5 86v28h-8q-43 -104 -111 -227l-231 -416h416z" />
    <glyph glyph-name="aringacute" unicode="&#x1fb;" horiz-adv-x="1136" 
d="M1051 1845l-281 -196q-89 13 -121 57l209 209q59 6 117 -15.5t76 -54.5zM977 1378q-20 -110 -104 -172.5t-193 -62.5t-169 63t-40 172q19 108 103 169t188 61q102 0 168 -60.5t47 -169.5zM618 1378q-8 -40 13 -69t69 -29q51 0 85 29t42 69t-13.5 69.5t-72.5 29.5
q-48 0 -81.5 -29.5t-41.5 -69.5zM856 1065q31 14 117 14q38 0 69 -4t42 -8l12 -4l-222 -1047q-49 -16 -112 -16q-29 0 -57 3.5t-41 6.5l-13 4l-2 90q-115 -124 -293 -124q-118 0 -192.5 62t-100.5 195t19 341q26 122 65 214t85.5 150t105.5 93.5t119 49t133 13.5
q82 0 142.5 -33t92.5 -88zM752 657q21 96 -17 164t-119 68q-52 0 -90 -14t-74 -50.5t-64 -106t-50 -175.5t-23.5 -177t18.5 -109.5t52.5 -53.5t83.5 -15q84 0 145.5 61.5t83.5 160.5z" />
    <glyph glyph-name="AEacute" unicode="&#x1fc;" horiz-adv-x="1767" 
d="M1677 1806l-311 -266q-99 17 -127 78l236 280q62 7 122.5 -21t79.5 -71zM1069 1475h762q22 -98 -45 -211h-522l-88 -414h419q16 -112 -45 -211h-420l-90 -428h543q8 -55 -4 -112t-41 -99h-770l74 346h-426l-262 -326q-65 -20 -148 -20q-89 0 -133 20zM586 557h301
l125 537z" />
    <glyph glyph-name="aeacute" unicode="&#x1fd;" horiz-adv-x="1595" 
d="M1171 1466l-305 -260q-93 16 -125 76l232 274q61 7 120 -20t78 -70zM1272 1098q162 0 230.5 -108t25.5 -316q-11 -53 -28 -103.5t-28 -74.5l-12 -25h-567q-19 -151 27.5 -216t154.5 -65q58 0 117.5 12t89.5 24l31 12q49 -55 35 -168q-3 -3 -9.5 -8.5t-30.5 -20t-53 -25
t-78 -19.5t-104 -9q-189 0 -260 118l-18 -90q-42 -16 -101 -16q-29 0 -54 4t-36 8l-10 4l2 88q-60 -68 -117.5 -96t-159.5 -28q-78 0 -134.5 33t-93 104t-39.5 182t28 268q32 152 83 258.5t115.5 164.5t133 83t149.5 25q86 0 132.5 -28t78.5 -93l27 86q30 16 116 16
q36 0 61.5 -4t32.5 -8l7 -4l-17 -78q118 113 273 113zM930 647h342q10 29 16 58q42 192 -114 192q-79 0 -140.5 -57.5t-103.5 -192.5zM651 410l58 266q18 98 -11.5 155.5t-109.5 57.5q-41 0 -74 -14.5t-66 -51.5t-60.5 -108t-49.5 -176t-24 -176t15 -108t43.5 -52t67.5 -15
q83 0 136.5 60t74.5 162z" />
    <glyph glyph-name="Oslashacute" unicode="&#x1fe;" horiz-adv-x="1388" 
d="M1227 1853l-314 -266q-94 17 -127 78l236 281q62 7 124 -21.5t81 -71.5zM1448 1493l-176 -213q107 -202 26 -571q-82 -386 -263 -557.5t-466 -171.5q-182 0 -297 86l-133 -164q-114 0 -162 82l183 219q-100 211 -23 571q42 194 111 333.5t163 224t206.5 124t250.5 39.5
q177 0 289 -80l131 158q49 0 92 -23t68 -57zM834 1278q-75 0 -134.5 -24t-116 -83t-102.5 -167t-80 -267q-35 -162 -32 -280l632 768q-56 53 -167 53zM602 197q77 0 137 24.5t116 83t100 166.5t77 266q38 174 35 293l-637 -776q57 -57 172 -57z" />
    <glyph glyph-name="oslashacute" unicode="&#x1ff;" horiz-adv-x="1114" 
d="M950 1479l-313 -267q-94 17 -127 78l235 281q62 7 124 -21t81 -71zM1098 1108l-133 -160q96 -154 34 -444q-32 -150 -82.5 -253t-122.5 -162t-157.5 -84t-198.5 -25q-136 0 -227 55l-113 -137q-90 0 -131 67l142 172q-90 152 -31 432q32 150 83.5 253.5t124 163.5
t158.5 86t199 26q133 0 219 -51l107 129q38 0 73 -20t56 -48zM717 870q-36 31 -103 31q-50 0 -89 -16t-75.5 -55.5t-66 -111.5t-51.5 -179q-20 -89 -23 -162zM356 209q36 -33 105 -33q49 0 88 16.5t75.5 55.5t66.5 112t52 179q20 96 23 168z" />
    <glyph glyph-name="Scommaaccent" unicode="&#x218;" horiz-adv-x="1169" 
d="M270 -631l-75 62l9 9t23 27.5t32 45t32 61t28 76.5q-24 2 -43.5 6t-26.5 7l-7 3l51 236q47 16 131 16q37 0 69 -4t45 -8l13 -4l-33 -154q-15 -71 -46 -136t-64.5 -107t-65 -74.5t-52.5 -46.5zM207 1104q39 187 189.5 289t406.5 102q113 0 212.5 -15.5t142.5 -30.5l44 -15
q-13 -57 -43 -112.5t-72 -92.5q-14 5 -39 12.5t-102 20t-153 12.5q-150 0 -232 -47t-102 -146q-9 -43 3.5 -75.5t53.5 -58t72 -38.5t99 -37q17 -6 26.5 -9.5t24 -8.5t26.5 -10q39 -15 71.5 -32.5t65.5 -41.5t56.5 -52t44.5 -64t29 -78t10.5 -94t-11.5 -111
q-40 -209 -189 -300t-419 -91q-79 0 -153 9.5t-123.5 22.5t-87.5 26t-56 22l-18 10q9 51 38 107t68 102q21 -7 56.5 -17.5t133 -28.5t181.5 -18q140 0 215.5 49.5t97.5 149.5q16 77 -27.5 124t-138.5 83q-18 7 -54 20q-153 57 -218 101q-161 109 -138 310q3 25 9 52z" />
    <glyph glyph-name="scommaaccent" unicode="&#x219;" horiz-adv-x="907" 
d="M186 -625l-71 60q9 9 24 25t47.5 71.5t49.5 116.5q-24 2 -43 6t-26 7l-7 3l49 227q45 17 127 17q36 0 67 -4t43 -8l13 -5l-31 -147q-14 -69 -44.5 -132.5t-63 -104.5t-63.5 -72.5t-51 -45.5zM129 799q33 150 144.5 224.5t310.5 74.5q163 0 280 -62q-21 -117 -96 -180
q-90 33 -203 33q-91 0 -139.5 -26.5t-60.5 -88.5q-4 -21 3.5 -38.5t21 -29t39 -23.5t47.5 -19t57.5 -18.5t58.5 -20.5q46 -17 81.5 -44t63 -69.5t34 -98t-6.5 -128.5q-33 -161 -143.5 -233t-313.5 -72q-62 0 -121 8t-98 19.5t-69 22.5t-44 19l-14 8q33 114 102 191
q132 -49 271 -49q161 0 182 114q7 32 -3.5 56t-41 42.5t-57.5 29.5t-76 26q-34 11 -62 24t-57.5 33.5t-48 45t-34 59t-15.5 75.5t8 95z" />
    <glyph glyph-name="dotlessj" unicode="&#x237;" horiz-adv-x="536" 
d="M-35 -188l266 1249q44 16 134 16q37 0 68 -4t43 -8l13 -4l-264 -1241q-34 -160 -130.5 -246t-248.5 -86q-38 0 -73.5 4.5t-51.5 9.5l-16 4q-4 27 4 60q8 40 21.5 73t23.5 47l10 13q31 -8 66 -8q112 0 135 121z" />
    <glyph glyph-name="circumflex" unicode="&#x2c6;" horiz-adv-x="811" 
d="M436 1501l244 -241q-67 -89 -143 -111l-175 129l-229 -127q-66 22 -94 109l344 241h53z" />
    <glyph glyph-name="caron" unicode="&#x2c7;" horiz-adv-x="827" 
d="M305 1126l-244 242q67 88 142 111l176 -129l227 127q68 -22 96 -109l-344 -242h-53z" />
    <glyph glyph-name="breve" unicode="&#x2d8;" horiz-adv-x="663" 
d="M627 1358q-6 -6 -16 -15t-45.5 -32.5t-73.5 -41.5t-97.5 -33t-120.5 -15t-113.5 14t-84 34.5t-55 40.5t-32.5 34l-9 14q21 39 58.5 73t74.5 46q7 -6 21.5 -16t67 -26t113.5 -16t118 14.5t83 28.5l27 15q34 -12 56.5 -45.5t27.5 -73.5z" />
    <glyph glyph-name="dotaccent" unicode="&#x2d9;" horiz-adv-x="360" 
d="M293 1462l-45 -211q-45 -14 -121 -14q-36 0 -64.5 3.5t-38.5 7.5l-10 3l45 211q37 15 119 15q34 0 62.5 -3.5t40.5 -7.5z" />
    <glyph glyph-name="ring" unicode="&#x2da;" horiz-adv-x="704" 
d="M252 1024q-109 0 -166 63.5t-33 172.5q22 108 108.5 168.5t190.5 60.5q103 0 166.5 -60t40.5 -169q-24 -110 -111 -173t-196 -63zM420 1260q8 45 -15.5 76.5t-78.5 31.5q-54 0 -91 -32.5t-45 -75.5q-10 -45 12.5 -77t76.5 -32q55 0 93 32.5t48 76.5z" />
    <glyph glyph-name="ogonek" unicode="&#x2db;" horiz-adv-x="579" 
d="M-33 -334q35 -31 19 -94q-78 -39 -158 -39q-92 0 -142.5 55t-29.5 152q23 107 126.5 173.5t276.5 70.5l15 -43q-115 -34 -176 -73.5t-74 -103.5q-11 -54 13.5 -81t70.5 -27q15 0 29.5 2.5t22.5 5.5z" />
    <glyph glyph-name="tilde" unicode="&#x2dc;" horiz-adv-x="669" 
d="M451 1434q29 0 56.5 13t40.5 27l13 13q31 -15 49.5 -48t16.5 -69q-4 -4 -11.5 -11t-31 -25t-48.5 -32t-62.5 -25t-74.5 -11q-53 0 -89.5 16.5t-65.5 32.5t-64 16q-29 0 -56.5 -13.5t-40.5 -26.5l-13 -13q-72 44 -66 117l11 11t31 25t49 32t62 25t74 11q53 0 90 -16.5
t66 -32.5t64 -16z" />
    <glyph glyph-name="hungarumlaut" unicode="&#x2dd;" horiz-adv-x="790" 
d="M430 1567l-313 -267q-94 17 -127 78l235 281q62 7 124 -21t81 -71zM778 1567l-313 -267q-94 17 -127 78l235 281q62 7 124 -21t81 -71z" />
    <glyph glyph-name="pi" unicode="&#x3c0;" horiz-adv-x="1290" 
d="M586 1077h721q10 -50 -2 -104q-11 -52 -43 -107h-142l-80 -379q-28 -129 -38 -237t-6 -152l5 -43q-63 -55 -182 -55q-71 0 -96 14q-2 12 -3 40t12.5 148t47.5 281l82 383h-340l-180 -848q-49 -18 -135 -18q-37 0 -68 4.5t-43 9.5l-12 4l176 832q-42 -5 -76.5 -11.5
t-48.5 -10.5l-14 -3q-11 54 0 103q13 65 45 108q16 5 48 11.5t141 18t231 11.5z" />
    <glyph glyph-name="uni0401" unicode="&#x401;" horiz-adv-x="1134" 
d="M569 1812q39 15 115 15q32 0 59 -3.5t37 -7.5l11 -4l-43 -198q-41 -15 -113 -15q-34 0 -61 3.5t-38 7.5l-10 4zM940 1812q39 15 115 15q32 0 58.5 -3.5t36.5 -7.5l11 -4l-43 -198q-40 -15 -112 -15q-34 0 -61 3.5t-37 7.5l-11 4zM350 1475h846q9 -47 0 -99
q-13 -63 -45 -112h-584l-88 -414h482q9 -50 0 -102q-13 -58 -46 -109h-481l-90 -428h604q7 -61 -2 -102q-14 -65 -43 -109h-866z" />
    <glyph glyph-name="uni0410" unicode="&#x410;" horiz-adv-x="1359" 
d="M696 1456q72 19 164 19q44 0 83 -4.5t56 -9.5l17 -5l184 -1438q-51 -18 -147 -18q-39 0 -65 4.5t-32 9.5l-6 4l-41 328h-559l-180 -328q-70 -18 -152 -18q-35 0 -64 4.5t-40 9.5l-12 4zM811 1208h-8q-41 -112 -109 -235l-227 -416h416l-56 416q-7 56 -11 115t-4 90z" />
    <glyph glyph-name="uni0411" unicode="&#x411;" horiz-adv-x="1280" 
d="M350 1475h881q12 -41 -4 -113q-5 -29 -16 -57.5t-19 -42.5l-8 -13h-619l-78 -360h324q132 0 222 -65.5t122 -175t4 -242.5q-42 -196 -185.5 -301t-350.5 -105h-586zM444 688l-102 -487h270q115 0 185.5 63t95.5 180q25 116 -19 180t-159 64h-271z" />
    <glyph glyph-name="uni0412" unicode="&#x412;" horiz-adv-x="1292" 
d="M350 1475h578q181 0 265.5 -125.5t43.5 -315.5q-42 -188 -219 -274q82 -43 118.5 -144t10.5 -219q-39 -190 -174.5 -293.5t-335.5 -103.5h-600zM479 846h256q96 0 157.5 58.5t82.5 154.5q21 100 -16 157.5t-134 57.5h-256zM342 201h268q111 0 179 58.5t90 166.5
q25 116 -17.5 171.5t-154.5 55.5h-269z" />
    <glyph glyph-name="uni0413" unicode="&#x413;" horiz-adv-x="1048" 
d="M350 1475h819q12 -39 -2 -111q-6 -28 -17.5 -57t-19.5 -43l-8 -15h-557l-262 -1231q-49 -18 -137 -18q-38 0 -69.5 4.5t-43.5 9.5l-12 4z" />
    <glyph glyph-name="uni0414" unicode="&#x414;" horiz-adv-x="1452" 
d="M1120 211h160l-104 -494q-65 -20 -119 -20q-68 0 -115 20l59 283h-862l-59 -283q-61 -18 -121 -18q-67 0 -113 18l105 494h108q152 87 281 541l209 723h840zM739 1280l-153 -541q-96 -337 -228 -528h502l227 1069h-348z" />
    <glyph glyph-name="uni0415" unicode="&#x415;" horiz-adv-x="1134" 
d="M350 1475h846q9 -47 0 -99q-13 -63 -45 -112h-584l-86 -410h482q7 -61 -2 -102q-12 -54 -43 -109h-482l-92 -432h604q7 -61 -2 -102q-14 -65 -43 -109h-866z" />
    <glyph glyph-name="uni0416" unicode="&#x416;" horiz-adv-x="1869" 
d="M1706 1456q74 19 135 19t135 -19l-583 -688l342 -750q-58 -18 -160 -18q-42 0 -76 4.5t-47 9.5l-14 4l-277 644h-84l-137 -644q-41 -18 -135 -18q-37 0 -69 4.5t-45 9.5l-13 4l137 644h-72l-555 -644q-59 -18 -153 -18q-45 0 -83 4.5t-54 9.5l-15 4l666 783l-297 655
q82 19 143 19t127 -19l264 -586h72l125 586q49 19 137 19q38 0 69.5 -4.5t43.5 -9.5l12 -5l-125 -586h72z" />
    <glyph glyph-name="uni0417" unicode="&#x417;" horiz-adv-x="1138" 
d="M252 1421q19 8 53.5 20.5t142.5 33t216 20.5q245 0 355.5 -119.5t67.5 -320.5q-22 -108 -90.5 -185.5t-154.5 -105.5l-2 -8q97 -46 135.5 -139t11.5 -220q-41 -199 -206 -308t-459 -109q-76 0 -143.5 7.5t-109 17.5t-72 20.5t-43.5 18.5l-13 7q9 58 40.5 111.5t75.5 87.5
q131 -43 273 -43q348 0 393 221q26 118 -35.5 167.5t-214.5 49.5h-154q-9 49 4 108t42 105h153q134 0 206 47.5t95 157.5q24 114 -40.5 163.5t-186.5 49.5q-75 0 -149.5 -11t-112.5 -21l-37 -11q-71 62 -41 188z" />
    <glyph glyph-name="uni0418" unicode="&#x418;" horiz-adv-x="1421" 
d="M1126 1456q50 19 156 19q47 0 84 -4.5t50 -9.5l14 -5l-306 -1438q-47 -18 -133 -18q-43 0 -75 4.5t-43 9.5l-11 4l107 500q37 176 73.5 323t53.5 206l18 59h-8q-69 -126 -334 -500l-418 -588l-8 -2q-7 -2 -21 -4.5t-32.5 -5t-46 -4.5t-56.5 -2q-51 0 -89 4.5t-50 9.5
l-12 4l305 1438q47 19 133 19q25 0 47 -2t36.5 -4.5t25.5 -5.5t16 -5l6 -2l-106 -498q-35 -164 -73 -320.5t-59 -231.5l-20 -74h8q75 146 355 540z" />
    <glyph glyph-name="uni0419" unicode="&#x419;" horiz-adv-x="1421" 
d="M954 1835q67 0 130 17.5t92 35.5l30 17q36 -13 60.5 -50t29.5 -81q-5 -6 -15 -15.5t-45 -34t-74.5 -43t-102 -34t-129.5 -15.5t-126.5 14.5t-97 35.5t-66 42t-40.5 36l-12 14q24 44 64.5 81t82.5 50q8 -8 23.5 -19.5t72 -31t123.5 -19.5zM1126 1456q50 19 156 19
q47 0 84 -4.5t50 -9.5l14 -5l-306 -1438q-47 -18 -133 -18q-43 0 -75 4.5t-43 9.5l-11 4l107 500q37 176 73.5 323t53.5 206l18 59h-8q-69 -126 -334 -500l-418 -588l-8 -2q-7 -2 -21 -4.5t-32.5 -5t-46 -4.5t-56.5 -2q-51 0 -89 4.5t-50 9.5l-12 4l305 1438q47 19 133 19
q25 0 47 -2t36.5 -4.5t25.5 -5.5t16 -5l6 -2l-106 -498q-35 -164 -73 -320.5t-59 -231.5l-20 -74h8q75 146 355 540z" />
    <glyph glyph-name="uni041A" unicode="&#x41a;" horiz-adv-x="1263" 
d="M571 870l516 586q74 19 150 19q61 0 135 -19l-598 -684l356 -754q-45 -18 -147 -18q-42 0 -76.5 4.5t-48.5 9.5l-14 4l-299 644h-107l-137 -644q-41 -18 -135 -18q-37 0 -69 4.5t-45 9.5l-13 4l305 1438q49 19 137 19q38 0 69.5 -4.5t43.5 -9.5l12 -5l-125 -586h90z" />
    <glyph glyph-name="uni041B" unicode="&#x41b;" horiz-adv-x="1386" 
d="M51 -10q-77 0 -135 16q-6 51 2 94q13 53 39 99q61 0 100 4q36 4 68.5 30t73.5 89.5t89 188t101 308.5l191 656h819l-309 -1457q-48 -18 -134 -18q-15 0 -29.5 0.5t-25.5 1.5t-21 2.5t-17 3t-13 3t-10 3t-6.5 2.5t-3.5 2h-1l267 1256h-328l-131 -459q-45 -154 -90 -276.5
t-86 -208t-84.5 -148t-82 -99t-82 -58t-80 -28.5t-81.5 -7z" />
    <glyph glyph-name="uni041C" unicode="&#x41c;" horiz-adv-x="1708" 
d="M1360 1456q90 19 190 19q44 0 85.5 -4.5t60.5 -9.5l20 -5l-305 -1438q-49 -18 -133 -18q-37 0 -69.5 4.5t-46.5 9.5l-13 4l94 449q11 51 36.5 172t41 192.5t38.5 162.5t44 151h-12q-22 -45 -65 -114.5t-79 -122.5t-101 -148l-91 -133l-207 -301q-33 -11 -78 -11
q-20 0 -36 2.5t-22 5.5l-5 3q-8 29 -37 131t-45 159q-36 126 -55 195t-40.5 171.5t-23.5 162.5h-12q0 -41 -6.5 -95.5t-20 -128t-24 -126.5t-30.5 -146t-28 -131l-106 -500q-47 -18 -127 -18q-32 0 -60 4.5t-40 9.5l-13 4l305 1438q68 19 162 19q35 0 68 -4.5t49 -9.5l16 -5
l199 -776h10z" />
    <glyph glyph-name="uni041D" unicode="&#x41d;" horiz-adv-x="1400" 
d="M1022 868l125 588q49 19 135 19q38 0 70 -4.5t44 -9.5l13 -5l-305 -1438q-47 -18 -133 -18q-43 0 -75 4.5t-43 9.5l-11 4l133 625h-541l-133 -625q-51 -18 -135 -18q-42 0 -73.5 4.5t-42.5 9.5l-11 4l305 1438q47 19 133 19q39 0 71.5 -4.5t45.5 -9.5l12 -5l-125 -588
h541z" />
    <glyph glyph-name="uni041E" unicode="&#x41e;" horiz-adv-x="1388" 
d="M137 774q42 194 111 333.5t163 224t206.5 124t250.5 39.5q278 0 396 -199.5t34 -586.5q-82 -386 -263 -557.5t-466 -171.5q-282 0 -398.5 202.5t-33.5 591.5zM1032 737q34 159 36 267t-28 167t-79.5 83t-126.5 24q-75 0 -134.5 -24t-116 -83t-102.5 -167t-80 -267
q-26 -127 -31 -222t8.5 -155t46 -97t75.5 -51.5t102 -14.5q77 0 137 24.5t116 83t100 166.5t77 266z" />
    <glyph glyph-name="uni041F" unicode="&#x41f;" horiz-adv-x="1378" 
d="M1391 1475l-310 -1457q-47 -18 -133 -18q-43 0 -75 4.5t-43 9.5l-11 4l262 1231h-516l-262 -1231q-51 -18 -135 -18q-42 0 -73.5 4.5t-42.5 9.5l-11 4l309 1457h1041z" />
    <glyph glyph-name="uni0420" unicode="&#x420;" horiz-adv-x="1241" 
d="M416 553l-113 -535q-47 -18 -133 -18q-43 0 -75 4.5t-43 9.5l-11 4l309 1457h549q134 0 223.5 -67t120 -179.5t0.5 -249.5q-42 -203 -186.5 -314.5t-354.5 -111.5h-286zM463 770h250q106 0 175.5 63.5t94.5 180.5q25 116 -18 179.5t-150 63.5h-250z" />
    <glyph glyph-name="uni0421" unicode="&#x421;" horiz-adv-x="1148" 
d="M137 778q79 366 270.5 541.5t499.5 175.5q101 0 186 -18t119 -36l35 -18q-25 -111 -121 -194q-106 43 -237 43q-68 0 -126 -15t-114 -52.5t-101 -97.5t-84 -154t-65 -218t-27.5 -217.5t18 -152t60.5 -94.5t92 -50t120 -14q65 0 134.5 11t106.5 22l37 12q30 -34 39 -89.5
t-4 -111.5q-6 -3 -17.5 -7.5t-50.5 -17t-81.5 -22t-107.5 -17t-132 -7.5q-300 0 -414 211t-35 587z" />
    <glyph glyph-name="uni0422" unicode="&#x422;" 
d="M244 1475h997q10 -50 -2 -111q-6 -29 -17.5 -58t-19.5 -43l-8 -14h-363l-262 -1231q-51 -18 -135 -18q-42 0 -73.5 4.5t-42.5 9.5l-11 4l262 1231h-372q-12 43 2 111q6 29 17.5 58t19.5 43z" />
    <glyph glyph-name="uni0423" unicode="&#x423;" horiz-adv-x="1251" 
d="M1120 1456q56 19 140 19q33 0 65 -4.5t48 -9.5l16 -5l-627 -1061q-60 -100 -122 -174t-115 -115.5t-110 -66t-100 -32t-92 -7.5q-36 0 -71 5t-52 10l-16 5q-12 42 2 105q5 25 14 51t15 40l6 13q53 -4 98 -4q73 0 143 45t152 170h-39l-280 1016q51 19 147 19q47 0 83 -4.5
t48 -9.5l12 -5l144 -567q13 -55 22.5 -108t12.5 -79l4 -26h8q43 98 115 219z" />
    <glyph glyph-name="uni0424" unicode="&#x424;" horiz-adv-x="1671" 
d="M866 1352l29 135q47 18 133 18q39 0 71.5 -4.5t44.5 -8.5l13 -5l-29 -135q139 0 242.5 -34.5t174 -109t88.5 -191t-13 -280.5q-28 -129 -79 -225.5t-116.5 -157.5t-153.5 -98.5t-181 -52.5t-207 -15l-37 -170q-51 -18 -135 -18q-42 0 -73.5 4.5t-42.5 9.5l-11 4l37 170
q-139 0 -242.5 34.5t-173.5 109t-87.5 191t15.5 280.5q34 153 101.5 261.5t165 170.5t211 89.5t255.5 27.5zM662 387l163 766q-79 0 -143 -17t-123 -58t-102.5 -118.5t-67.5 -189.5q-16 -76 -16.5 -136t14.5 -101.5t39.5 -70.5t62.5 -45t79.5 -23t93.5 -7zM1087 1153
l-163 -766q79 0 143 17t123 58t102.5 118.5t67.5 189.5q16 76 16.5 136t-14.5 101.5t-39.5 70.5t-62.5 45t-79.5 23t-93.5 7z" />
    <glyph glyph-name="uni0425" unicode="&#x425;" horiz-adv-x="1310" 
d="M1141 1456q68 19 151 19q76 0 135 -19l-575 -678l315 -753q-59 -25 -157 -25q-39 0 -71 5t-44 10l-12 5l-234 551l-467 -555q-62 -16 -145 -16q-100 0 -152 16l647 766l-278 674q58 19 156 19q39 0 72 -4.5t46 -9.5l13 -5l200 -471z" />
    <glyph glyph-name="uni0426" unicode="&#x426;" horiz-adv-x="1454" 
d="M37 0l309 1456q41 19 135 19q37 0 69 -4.5t45 -9.5l13 -5l-262 -1231h516l262 1231q42 19 138 19q38 0 69 -4.5t43 -9.5l12 -5l-262 -1231h158l-106 -508q-65 -20 -117 -20q-67 0 -117 20l59 283h-964z" />
    <glyph glyph-name="uni0427" unicode="&#x427;" horiz-adv-x="1312" 
d="M924 823l135 633q49 19 135 19q38 0 70 -4.5t44 -9.5l13 -5l-305 -1438q-47 -18 -133 -18q-43 0 -75 4.5t-43 9.5l-11 4l123 580q-139 -55 -316 -55q-76 0 -136 10.5t-110 33t-82.5 60t-50.5 89.5t-17.5 123.5t19.5 160.5l92 436q48 19 134 19q39 0 71.5 -4.5t44.5 -9.5
l13 -5l-93 -436q-29 -140 21 -196t178 -56q159 0 279 55z" />
    <glyph glyph-name="uni0428" unicode="&#x428;" horiz-adv-x="1951" 
d="M37 0l309 1456q41 19 135 19q37 0 69 -4.5t45 -9.5l13 -5l-262 -1231h414l262 1231q41 19 137 19q38 0 69.5 -4.5t43.5 -9.5l12 -5l-262 -1231h414l262 1231q41 19 137 19q38 0 69.5 -4.5t43.5 -9.5l12 -5l-309 -1456h-1614z" />
    <glyph glyph-name="uni0429" unicode="&#x429;" horiz-adv-x="2027" 
d="M37 0l309 1456q41 19 135 19q37 0 69 -4.5t45 -9.5l13 -5l-262 -1231h414l262 1231q41 19 137 19q38 0 69.5 -4.5t43.5 -9.5l12 -5l-262 -1231h414l262 1231q41 19 137 19q38 0 69.5 -4.5t43.5 -9.5l12 -5l-262 -1231h157l-106 -508q-49 -20 -121 -20q-65 0 -112 20
l59 283h-1538z" />
    <glyph glyph-name="uni042A" unicode="&#x42a;" horiz-adv-x="1470" 
d="M690 897h318q135 0 225.5 -65t122.5 -174.5t4 -243.5q-42 -198 -187.5 -306t-355.5 -108h-579l266 1249h-316q-12 43 2 111q6 29 17.5 58t20.5 43l8 14h577zM645 680l-100 -463h280q106 0 176 60.5t95 171.5q23 111 -20 171t-150 60h-281z" />
    <glyph glyph-name="uni042B" unicode="&#x42b;" horiz-adv-x="1808" 
d="M346 1456q41 19 137 19q38 0 69.5 -4.5t43.5 -9.5l12 -5l-119 -559h318q205 0 302.5 -135t55.5 -348q-39 -197 -188 -305.5t-361 -108.5h-579zM1554 1456q48 19 134 19q39 0 71.5 -4.5t44.5 -9.5l13 -5l-306 -1438q-51 -18 -135 -18q-42 0 -73.5 4.5t-42.5 9.5l-11 4z
M444 680l-100 -463h281q106 0 175.5 60.5t94.5 171.5q23 111 -20 171t-150 60h-281z" />
    <glyph glyph-name="uni042C" unicode="&#x42c;" horiz-adv-x="1271" 
d="M489 897h318q203 0 299.5 -135t54.5 -340q-42 -199 -189 -310.5t-356 -111.5h-579l309 1456q41 19 137 19q38 0 69.5 -4.5t43.5 -9.5l12 -5zM344 217h281q106 0 175.5 60.5t94.5 171.5q23 111 -20 171t-150 60h-281z" />
    <glyph glyph-name="uni042D" unicode="&#x42d;" horiz-adv-x="1198" 
d="M252 1423q17 8 48.5 20t133 32t207.5 20q154 0 263 -56.5t165 -161t67.5 -253.5t-30.5 -334q-77 -365 -273.5 -537.5t-513.5 -172.5q-69 0 -134 7.5t-107.5 17.5t-75.5 20.5t-48 18.5l-15 7q12 59 44.5 113t75.5 84q121 -43 279 -43q66 0 122 12t111.5 42t100 79t84 126
t67.5 179h-499q-12 43 2 109q6 29 17 54.5t19 36.5l7 11h497q14 97 3.5 168.5t-33.5 120t-65.5 77.5t-92 41.5t-113.5 12.5q-63 0 -132 -11t-107 -21l-37 -11q-63 69 -37 192z" />
    <glyph glyph-name="uni042E" unicode="&#x42e;" horiz-adv-x="1964" 
d="M41 18l305 1438q47 19 133 19q39 0 71.5 -4.5t45.5 -9.5l12 -5l-129 -612h242q171 651 725 651q185 0 299.5 -88.5t150.5 -265t-22 -441.5q-42 -195 -112.5 -335.5t-168 -224t-212.5 -122t-257 -38.5q-261 0 -375 158t-75 493h-242l-129 -613q-51 -18 -135 -18
q-42 0 -73.5 4.5t-42.5 9.5zM1401 1278q-75 0 -134.5 -24t-116 -83t-102 -167t-79.5 -267q-26 -126 -30 -221.5t11 -155.5t48 -97t74.5 -51.5t96.5 -14.5q77 0 137 24.5t116 83t100 166.5t77 266q23 106 30.5 190.5t-1 143t-27 99.5t-50 64.5t-68 33.5t-82.5 10z" />
    <glyph glyph-name="uni042F" unicode="&#x42f;" horiz-adv-x="1292" 
d="M1305 1475l-310 -1457q-41 -18 -137 -18q-38 0 -69.5 4.5t-43.5 9.5l-12 4l117 547h-184l-430 -547q-60 -18 -154 -18q-42 0 -77.5 4.5t-50.5 9.5l-15 4l458 584q-253 121 -182 451q42 201 186.5 311.5t354.5 110.5h549zM995 1257h-250q-106 0 -174.5 -61t-93.5 -176
t18 -176.5t150 -61.5h250z" />
    <glyph glyph-name="uni0430" unicode="&#x430;" horiz-adv-x="1136" 
d="M856 1065q31 14 117 14q38 0 69 -4t42 -8l12 -4l-222 -1047q-49 -16 -112 -16q-29 0 -57 3.5t-41 6.5l-13 4l-2 90q-115 -124 -293 -124q-118 0 -192.5 62t-100.5 195t19 341q26 122 65 214t85.5 150t105.5 93.5t119 49t133 13.5q82 0 142.5 -33t92.5 -88zM752 657
q21 96 -17 164t-119 68q-52 0 -90 -14t-74 -50.5t-64 -106t-50 -175.5t-23.5 -177t18.5 -109.5t52.5 -53.5t83.5 -15q84 0 145.5 61.5t83.5 160.5z" />
    <glyph glyph-name="uni0431" unicode="&#x431;" horiz-adv-x="1165" 
d="M131 719q28 131 62.5 230.5t71 172.5t92.5 127t107 88.5t134.5 62.5t154.5 44t187 37q61 11 84 22t53 47q54 -6 92.5 -31t53.5 -65q-44 -93 -107.5 -138t-159.5 -61q-84 -14 -135.5 -23.5t-110 -24t-92.5 -28t-72 -34.5t-60.5 -44.5t-47 -58.5t-41.5 -76t-35 -96h5
q63 91 145.5 137t200.5 46q450 0 338 -537q-61 -285 -202.5 -410.5t-367.5 -125.5q-91 0 -160 20t-124 71t-81.5 133t-24 212t39.5 303zM651 856q-51 0 -88.5 -13.5t-74.5 -49t-65 -104.5t-50 -173q-17 -82 -20.5 -142.5t5.5 -98t30.5 -60t49.5 -31t68 -8.5q50 0 88.5 14.5
t74.5 50.5t64.5 104.5t50.5 170.5q17 82 20 142.5t-6 98t-30.5 60t-49 31t-67.5 8.5z" />
    <glyph glyph-name="uni0432" unicode="&#x432;" horiz-adv-x="1052" 
d="M711 1077q140 0 205.5 -91t39.5 -226q-13 -71 -61.5 -129.5t-110.5 -85.5q148 -88 111 -262q-29 -139 -129.5 -211t-259.5 -72h-504l229 1077h480zM391 631h174q57 0 95.5 37t50.5 96q13 58 -9.5 94.5t-78.5 36.5h-174zM297 182h180q68 0 111 34.5t57 98.5
q29 140 -110 140h-181z" />
    <glyph glyph-name="uni0433" unicode="&#x433;" horiz-adv-x="837" 
d="M231 1077h654q10 -45 -2 -106q-6 -27 -17 -53.5t-18 -39.5l-8 -12h-396l-180 -850q-49 -16 -133 -16q-40 0 -71.5 4t-42.5 8l-11 4z" />
    <glyph glyph-name="uni0434" unicode="&#x434;" horiz-adv-x="1214" 
d="M-45 188h72q57 29 109 123.5t106 278.5l143 487h721l-188 -889h129l-95 -434q-46 -16 -108 -16q-73 0 -129 16l53 246h-616l-54 -246q-53 -16 -121 -16q-80 0 -116 16zM559 883l-88 -301q-66 -238 -168 -394h359l147 695h-250z" />
    <glyph glyph-name="uni0435" unicode="&#x435;" horiz-adv-x="1042" 
d="M909 459h-592q-5 -55 -5 -95.5t12 -69.5t27.5 -48t42 -30t54.5 -15t66 -4q61 0 122 12.5t92 24.5l30 12q27 -31 38.5 -82.5t2.5 -104.5q-6 -3 -16.5 -8.5t-47 -19t-76.5 -24t-101.5 -19t-125.5 -8.5q-98 0 -171.5 29t-118 82t-66.5 128.5t-20.5 166.5t24.5 198
q30 142 84 243t128 159.5t160 85t191 26.5q86 0 154.5 -25t117 -77t64 -132t-5.5 -190q-13 -58 -29 -112t-26 -78zM748 705q16 92 -15 142t-123 50q-93 0 -152 -59.5t-100 -200.5h371q2 7 9.5 31t9.5 37z" />
    <glyph glyph-name="uni0436" unicode="&#x436;" horiz-adv-x="1542" 
d="M1309 1061q61 16 139 16q32 0 62.5 -4t45.5 -8l15 -4l-381 -500l205 -545q-48 -16 -146 -16q-38 0 -70.5 4t-45.5 8l-13 4l-149 451h-103l-94 -451q-53 -16 -131 -16q-36 0 -68 4t-45 8l-14 4l94 451h-94l-340 -451q-57 -16 -143 -16q-44 0 -78 4.5t-47 9.5l-12 4
l440 588l-174 455q61 16 137 16q36 0 66.5 -4t43.5 -8l13 -4l135 -404h94l86 404q53 16 135 16q32 0 62.5 -4t45.5 -8l15 -4l-86 -404h97z" />
    <glyph glyph-name="uni0437" unicode="&#x437;" horiz-adv-x="946" 
d="M166 1044q12 6 36 15t115.5 24t202.5 15q202 0 284.5 -90.5t57.5 -235.5q-28 -159 -188 -223v-4q153 -62 114 -256q-32 -149 -159 -229t-371 -80q-94 0 -175 16.5t-115 32.5l-34 16q10 48 37.5 95t69.5 79q10 -4 29 -10t84.5 -16.5t138.5 -10.5q102 0 160 31t75 104
q15 71 -21.5 101.5t-131.5 30.5h-156q-10 41 2 100q4 24 13.5 46.5t16.5 32.5l7 11h156q82 0 126.5 32t57.5 101q16 73 -29 102t-131 29q-59 0 -119 -7.5t-90 -15.5l-30 -8q-52 60 -33 172z" />
    <glyph glyph-name="uni0438" unicode="&#x438;" horiz-adv-x="1177" 
d="M879 1061q53 16 133 16q34 0 65 -4t45 -8l15 -4l-222 -1045q-53 -16 -129 -16q-36 0 -68 4t-46 8l-15 4l56 260q26 125 50 231.5t38.5 160.5t17.5 57h-6q9 -3 -69 -106t-207 -265l-275 -338q-53 -16 -135 -16q-35 0 -65.5 4t-43.5 8l-14 4l221 1045q53 16 129 16
q37 0 69.5 -4t46.5 -8l13 -4l-55 -262q-34 -159 -68.5 -303.5t-40.5 -145.5h7q67 109 141 203z" />
    <glyph glyph-name="uni0439" unicode="&#x439;" horiz-adv-x="1177" 
d="M754 1427q61 0 117 15.5t82 31.5l26 15q34 -12 56.5 -45.5t27.5 -73.5q-5 -5 -13.5 -14.5t-40 -32.5t-66.5 -41t-92 -32.5t-118 -14.5t-116 14t-90 33.5t-61.5 39.5t-37.5 34l-12 14q21 39 58.5 73t74.5 46q8 -7 23 -17.5t68 -27.5t114 -17zM879 1061q53 16 133 16
q34 0 65 -4t45 -8l15 -4l-222 -1045q-53 -16 -129 -16q-36 0 -68 4t-46 8l-15 4l56 260q26 125 50 231.5t38.5 160.5t17.5 57h-6q-53 -94 -141 -203l-410 -506q-53 -16 -135 -16q-35 0 -65.5 4t-43.5 8l-14 4l221 1045q53 16 129 16q37 0 69.5 -4t46.5 -8l13 -4l-55 -262
q-34 -159 -68.5 -303.5t-40.5 -145.5h7q67 109 141 203z" />
    <glyph glyph-name="uni043A" unicode="&#x43a;" horiz-adv-x="1036" 
d="M469 657l319 404q74 16 150 16q31 0 61.5 -4t44.5 -8l15 -4l-400 -506l236 -539q-72 -18 -156 -18q-36 0 -65.5 4.5t-41.5 9.5l-11 4l-181 451h-82l-94 -451q-55 -16 -131 -16q-36 0 -67.5 4t-45.5 8l-14 4l221 1051q55 12 133 12q30 0 61.5 -3t47.5 -6l16 -3l-86 -410
h70z" />
    <glyph glyph-name="uni043B" unicode="&#x43b;" horiz-adv-x="1138" 
d="M496 594q-57 -190 -109 -309.5t-110 -185t-116.5 -88.5t-140.5 -23q-25 0 -52 4t-42 8l-14 4q-8 35 2 86q4 22 13.5 44.5t16.5 33.5l7 12q43 -4 84 2q60 9 108.5 98.5t114.5 321.5l139 475h701l-226 -1061q-61 -16 -129 -16q-36 0 -67.5 4t-45.5 8l-14 4l185 867h-219z
" />
    <glyph glyph-name="uni043C" unicode="&#x43c;" horiz-adv-x="1361" 
d="M1022 1061q78 16 162 16q34 0 68 -4t52 -8l17 -4l-221 -1045q-45 -16 -127 -16q-35 0 -65 4t-43 8l-13 4l76 357q23 107 47 199.5t37 131.5l12 39h-8q-31 -59 -119 -182l-248 -346q-24 -10 -61 -10q-16 0 -30.5 2.5t-21.5 4.5l-6 3l-100 332q-18 59 -29.5 107.5
t-13.5 67.5l-2 19h-8q-13 -130 -64 -370l-73 -355q-55 -16 -123 -16q-28 0 -56 4t-43 8l-14 4l221 1045q72 16 152 16q38 0 68.5 -4t41.5 -8l11 -4l147 -541h8z" />
    <glyph glyph-name="uni043D" unicode="&#x43d;" horiz-adv-x="1142" 
d="M354 451l-92 -435q-51 -16 -135 -16q-36 0 -67 4t-44 8l-12 4l221 1045q47 16 133 16q36 0 67 -4t45 -8l13 -4l-86 -404h361l86 404q55 16 133 16q36 0 67 -4t44 -8l14 -4l-221 -1045q-50 -16 -136 -16q-35 0 -65.5 4t-43.5 8l-13 4l92 435h-361z" />
    <glyph glyph-name="uni043E" unicode="&#x43e;" horiz-adv-x="1114" 
d="M78 569q32 150 83.5 253.5t124 163.5t158.5 86t199 26q226 0 322.5 -149t33.5 -445q-32 -150 -82.5 -253t-122.5 -162t-157.5 -84t-198.5 -25q-225 0 -323.5 147t-36.5 442zM743 539q22 106 22.5 179t-20 112t-52 55t-79.5 16q-50 0 -89 -16t-75.5 -55.5t-66 -111.5
t-51.5 -179q-22 -106 -22.5 -179t20 -112t52 -55.5t79.5 -16.5q49 0 88 16.5t75.5 55.5t66.5 112t52 179z" />
    <glyph glyph-name="uni043F" unicode="&#x43f;" horiz-adv-x="1126" 
d="M444 864l-180 -848q-57 -16 -135 -16q-35 0 -65.5 4t-43.5 8l-14 4l225 1061h856l-225 -1061q-55 -16 -135 -16q-32 0 -62.5 4t-45.5 8l-15 4l180 848h-340z" />
    <glyph glyph-name="uni0440" unicode="&#x440;" horiz-adv-x="1140" 
d="M467 979q122 119 283 119q181 0 258 -148.5t14 -449.5q-26 -122 -64.5 -214t-83.5 -149.5t-102 -93.5t-114.5 -49.5t-125.5 -13.5q-170 0 -253 106l-113 -528q-49 -17 -135 -17q-38 0 -69 4.5t-42 8.5l-12 4l319 1503q45 16 131 16q38 0 67.5 -4t39.5 -8l10 -4zM764 539
q76 350 -131 350q-85 0 -147.5 -61t-84.5 -160l-51 -234q-22 -100 16.5 -173t122.5 -73q101 0 166.5 79t108.5 272z" />
    <glyph glyph-name="uni0441" unicode="&#x441;" horiz-adv-x="905" 
d="M641 889q-130 0 -202 -82t-111 -268q-38 -183 2.5 -262.5t171.5 -79.5q46 0 93.5 7t72.5 14l24 7q26 -29 36.5 -80.5t0.5 -103.5q-12 -7 -35 -17t-107 -27t-181 -17q-229 0 -308.5 155.5t-19.5 437.5q58 273 194 399t371 126q59 0 108.5 -5.5t77.5 -13.5t48 -16t27 -13
l7 -6q-25 -120 -104 -182q-64 27 -166 27z" />
    <glyph glyph-name="uni0442" unicode="&#x442;" horiz-adv-x="948" 
d="M150 1077h843q10 -42 -4 -108q-5 -28 -16 -55t-19 -40l-8 -12h-293l-178 -846q-49 -16 -133 -16q-40 0 -71 4t-43 8l-11 4l178 846h-293q-12 44 0 107q6 29 18 56t21 39z" />
    <glyph glyph-name="uni0443" unicode="&#x443;" 
d="M823 1061q49 16 133 16q40 0 71 -4t43 -8l11 -4l-217 -1018q-62 -294 -208 -424.5t-396 -130.5q-64 0 -120.5 8.5t-91.5 21t-60.5 25t-35.5 21.5l-11 8q14 51 42 96t64 72q10 -5 28 -13t75.5 -21t115.5 -13q51 0 89.5 7t79 28.5t70 59.5t56.5 102t45 153l6 25
q-64 -49 -125.5 -68.5t-146.5 -19.5q-168 0 -237 100.5t-35 255.5l153 725q49 16 133 16q40 0 71 -4t43 -8l11 -4l-153 -725q-30 -148 133 -148q102 0 194 76z" />
    <glyph glyph-name="uni0444" unicode="&#x444;" horiz-adv-x="1597" 
d="M856 1520q41 16 131 16q37 0 69 -4t45 -8l13 -4l-98 -459q77 37 188 37q202 0 269.5 -154.5t7.5 -435.5q-58 -273 -182.5 -400.5t-331.5 -127.5q-47 0 -90 10.5t-63 21.5l-19 11l-109 -519q-49 -16 -133 -16q-40 0 -71.5 4t-42.5 8l-11 4l109 519q-83 -43 -189 -43
q-201 0 -264.5 153t-3.5 436q59 275 179.5 402t326.5 127q49 0 92 -9t62 -19l18 -9zM729 866l-5 3q-6 3 -17.5 8.5t-27 10.5t-40.5 9t-53 4q-96 0 -157 -82t-103 -280q-40 -203 -15 -282t121 -79q40 0 80 11t60 21l20 11zM1227 539q40 203 13.5 282.5t-122.5 79.5
q-44 0 -82.5 -9.5t-55.5 -17.5l-17 -8l-138 -645q6 -5 16.5 -12t47 -19t76.5 -12q97 0 158.5 82t103.5 279z" />
    <glyph glyph-name="uni0445" unicode="&#x445;" horiz-adv-x="1105" 
d="M393 551l-215 510q56 16 144 16q42 0 72 -4t39 -8l9 -4l136 -318l274 318q67 16 143 16q37 0 69.5 -4t45.5 -8l14 -4l-430 -494l238 -551q-56 -16 -144 -16q-42 0 -71 4t-37 8l-8 4l-156 359l-311 -359q-72 -16 -148 -16q-37 0 -69.5 4t-45.5 8l-14 4z" />
    <glyph glyph-name="uni0446" unicode="&#x446;" horiz-adv-x="1196" 
d="M825 1061q53 16 131 16q36 0 67.5 -4t45.5 -8l14 -4l-180 -848h129l-98 -459q-50 -16 -115 -16q-84 0 -123 16l54 246h-748l225 1061q51 16 131 16q41 0 72.5 -4t43.5 -8l11 -4l-180 -848h340z" />
    <glyph glyph-name="uni0447" unicode="&#x447;" horiz-adv-x="1071" 
d="M1030 1061l-221 -1045q-47 -16 -135 -16q-36 0 -67 4t-43 8l-13 4l80 383q-64 -22 -199 -22q-197 0 -283.5 82.5t-48.5 267.5l72 334q53 16 133 16q36 0 67 -4t44 -8l14 -4l-72 -336q-17 -78 18.5 -114t123.5 -36q49 0 92.5 6.5t62.5 13.5l19 7l98 459q49 16 131 16
q39 0 71 -4t44 -8z" />
    <glyph glyph-name="uni0448" unicode="&#x448;" horiz-adv-x="1519" 
d="M2 0l225 1061q41 16 131 16q38 0 70 -4t44 -8l13 -4l-180 -848h238l180 848q41 16 131 16q38 0 70 -4t44 -8l13 -4l-180 -848h237l181 848q41 16 131 16q38 0 70 -4t44 -8l13 -4l-226 -1061h-1249z" />
    <glyph glyph-name="uni0449" unicode="&#x449;" horiz-adv-x="1589" 
d="M1425 213l-98 -459q-50 -16 -121 -16q-77 0 -116 16l53 246h-1141l225 1061q41 16 131 16q38 0 70 -4t44 -8l13 -4l-180 -848h238l180 848q41 16 131 16q38 0 70 -4t44 -8l13 -4l-180 -848h237l181 848q41 16 131 16q38 0 70 -4t44 -8l13 -4l-181 -848h129z" />
    <glyph glyph-name="uni044A" unicode="&#x44a;" horiz-adv-x="1177" 
d="M555 664h229q155 0 228.5 -103t40.5 -256q-30 -147 -139.5 -226t-270.5 -79h-487l182 862h-236q-12 51 0 111q13 60 48 104h493zM453 182h180q64 0 108 40.5t58 109.5q15 68 -12 108.5t-91 40.5h-180z" />
    <glyph glyph-name="uni044B" unicode="&#x44b;" horiz-adv-x="1497" 
d="M227 1061q52 16 131 16q80 0 127 -16l-84 -397h230q154 0 226 -103.5t42 -257.5q-30 -151 -138 -227t-272 -76h-487zM1198 1061q52 16 133 16q78 0 125 -16l-221 -1045q-55 -16 -135 -16q-79 0 -123 16zM362 481l-63 -299h180q64 0 108 40.5t58 109.5q15 68 -11.5 108.5
t-90.5 40.5h-181z" />
    <glyph glyph-name="uni044C" unicode="&#x44c;" horiz-adv-x="1024" 
d="M401 664h230q155 0 229 -102.5t41 -254.5q-30 -147 -140.5 -227t-271.5 -80h-487l225 1061q52 16 131 16q80 0 127 -16zM299 182h180q64 0 108 40.5t58 109.5q15 68 -11.5 108.5t-90.5 40.5h-181z" />
    <glyph glyph-name="uni044D" unicode="&#x44d;" horiz-adv-x="940" 
d="M553 449h-363q-12 33 0 94q6 27 16 50.5t16 33.5l7 10h361q15 134 -32 199t-159 65q-50 0 -100 -7.5t-75 -14.5l-25 -7q-50 61 -33 172q12 6 36.5 15t108 24t178.5 15q230 0 314 -153t24 -433q-58 -272 -200.5 -402t-378.5 -130q-61 0 -116 6.5t-89.5 16t-61 18.5
t-37.5 15l-12 7q26 110 107 174q86 -33 201 -33q229 0 313 265z" />
    <glyph glyph-name="uni044E" unicode="&#x44e;" horiz-adv-x="1597" 
d="M571 639q136 459 566 459q225 0 317 -144.5t29 -441.5q-25 -120 -66 -211t-93 -151.5t-119.5 -99t-141.5 -54.5t-164 -16q-204 0 -301 105.5t-72 338.5h-176l-86 -408q-55 -16 -135 -16q-79 0 -123 16l221 1045q52 16 133 16q78 0 125 -16l-90 -422h176zM1223 539
q22 107 23.5 179t-18.5 111.5t-52 55.5t-82 16t-89 -16t-76 -55.5t-66.5 -112t-51.5 -178.5q-22 -107 -23.5 -179.5t18.5 -112t52 -55.5t82 -16t89 16t76 55.5t66.5 112.5t51.5 179z" />
    <glyph glyph-name="uni044F" unicode="&#x44f;" horiz-adv-x="1073" 
d="M502 397l-291 -381q-62 -16 -152 -16q-76 0 -135 16l334 414q-78 39 -109.5 127t-9.5 197q34 152 146.5 237.5t275.5 85.5h473l-225 -1061q-55 -16 -131 -16q-83 0 -127 16l80 381h-129zM571 895q-68 0 -116.5 -42.5t-65.5 -115.5q-17 -71 11 -114t96 -43h174l67 315
h-166z" />
    <glyph glyph-name="uni0451" unicode="&#x451;" horiz-adv-x="1042" 
d="M403 1444q39 14 115 14q32 0 58.5 -3.5t37.5 -6.5l11 -4l-43 -199q-41 -14 -113 -14q-34 0 -61 3.5t-38 7.5l-10 3zM774 1444q39 14 115 14q32 0 58.5 -3.5t36.5 -6.5l11 -4l-43 -199q-40 -14 -112 -14q-34 0 -61 3.5t-37 7.5l-11 3zM909 459h-592q-5 -55 -5 -95.5
t12 -69.5t27.5 -48t42 -30t54.5 -15t66 -4q61 0 122 12.5t92 24.5l30 12q27 -31 38.5 -82.5t2.5 -104.5q-6 -3 -16.5 -8.5t-47 -19t-76.5 -24t-101.5 -19t-125.5 -8.5q-98 0 -171.5 29t-118 82t-66.5 128.5t-20.5 166.5t24.5 198q30 142 84 243t128 159.5t160 85t191 26.5
q86 0 154.5 -25t117 -77t64 -132t-5.5 -190q-13 -58 -29 -112t-26 -78zM748 705q16 92 -15 142t-123 50q-93 0 -152 -59.5t-100 -200.5h371q2 7 9.5 31t9.5 37z" />
    <glyph glyph-name="Wgrave" unicode="&#x1e80;" horiz-adv-x="1990" 
d="M1169 1534l-198 266q37 43 109.5 71t131.5 21l117 -280q-55 -61 -160 -78zM1114 18l-8 842q0 96 6 183.5t12 126.5l6 40h-10q-35 -133 -129 -350l-362 -842q-77 -18 -178 -18q-85 0 -152 18l-78 1438q49 19 137 19q40 0 68.5 -4.5t37.5 -9.5l9 -5l43 -876q3 -63 3 -139
t-1 -121l-2 -44h8q54 159 117 302l387 878q62 19 158 19q44 0 75.5 -4.5t40.5 -9.5l9 -5l12 -876q1 -68 -2.5 -144t-7.5 -118l-4 -42h8q49 140 127 302l418 878q63 19 133 19q34 0 66 -4.5t47 -9.5l16 -5l-694 -1438q-66 -18 -158 -18q-40 0 -79.5 4.5t-58.5 9.5z" />
    <glyph glyph-name="wgrave" unicode="&#x1e81;" horiz-adv-x="1624" 
d="M901 1233l-199 266q37 43 110 71t132 21l117 -280q-55 -61 -160 -78zM858 16l-18 488q-5 149 18 313h-8q-49 -171 -119 -313l-227 -488q-68 -16 -156 -16q-94 0 -151 16l-72 1045q51 16 133 16q39 0 63 -4t29 -8l4 -4l39 -594q7 -89 -2 -215h6q43 115 92 217l277 592
q69 16 147 16q37 0 68 -4t43 -8l12 -4l21 -590q2 -97 -6 -219h6q16 41 98 217l281 592q55 16 137 16q35 0 61 -4t34 -8l9 -4l-514 -1045q-73 -16 -155 -16q-85 0 -150 16z" />
    <glyph glyph-name="Wacute" unicode="&#x1e82;" horiz-adv-x="1990" 
d="M1466 1804l-311 -266q-99 17 -127 78l236 280q62 7 122.5 -21t79.5 -71zM1114 18l-8 842q0 96 6 183.5t12 126.5l6 40h-10q-35 -133 -129 -350l-362 -842q-77 -18 -178 -18q-85 0 -152 18l-78 1438q49 19 137 19q40 0 68.5 -4.5t37.5 -9.5l9 -5l43 -876q3 -63 3 -139
t-1 -121l-2 -44h8q54 159 117 302l387 878q62 19 158 19q44 0 75.5 -4.5t40.5 -9.5l9 -5l12 -876q1 -68 -2.5 -144t-7.5 -118l-4 -42h8q49 140 127 302l418 878q63 19 133 19q34 0 66 -4.5t47 -9.5l16 -5l-694 -1438q-66 -18 -158 -18q-40 0 -79.5 4.5t-58.5 9.5z" />
    <glyph glyph-name="wacute" unicode="&#x1e83;" horiz-adv-x="1624" 
d="M1206 1499l-313 -266q-94 17 -127 78l235 280q62 7 124 -21t81 -71zM858 16l-18 488q-5 149 18 313h-8q-49 -171 -119 -313l-227 -488q-68 -16 -156 -16q-94 0 -151 16l-72 1045q51 16 133 16q39 0 63 -4t29 -8l4 -4l39 -594q7 -89 -2 -215h6q43 115 92 217l277 592
q69 16 147 16q37 0 68 -4t43 -8l12 -4l21 -590q2 -97 -6 -219h6q16 41 98 217l281 592q55 16 137 16q35 0 61 -4t34 -8l9 -4l-514 -1045q-73 -16 -155 -16q-85 0 -150 16z" />
    <glyph glyph-name="Wdieresis" unicode="&#x1e84;" horiz-adv-x="1990" 
d="M1171 1810l-43 -198q-40 -15 -112 -15q-34 0 -61 3.5t-37 7.5l-11 4l43 198q37 15 113 15q32 0 59 -3.5t38 -7.5zM1542 1810l-43 -198q-41 -15 -113 -15q-34 0 -61 3.5t-37 7.5l-10 4l43 198q37 15 113 15q32 0 59 -3.5t38 -7.5zM1114 18l-8 842q0 96 6 183.5t12 126.5
l6 40h-10q-35 -133 -129 -350l-362 -842q-77 -18 -178 -18q-85 0 -152 18l-78 1438q49 19 137 19q40 0 68.5 -4.5t37.5 -9.5l9 -5l43 -876q3 -63 3 -139t-1 -121l-2 -44h8q54 159 117 302l387 878q62 19 158 19q44 0 75.5 -4.5t40.5 -9.5l9 -5l12 -876q1 -68 -2.5 -144
t-7.5 -118l-4 -42h8q49 140 127 302l418 878q63 19 133 19q34 0 66 -4.5t47 -9.5l16 -5l-694 -1438q-66 -18 -158 -18q-40 0 -79.5 4.5t-58.5 9.5z" />
    <glyph glyph-name="wdieresis" unicode="&#x1e85;" horiz-adv-x="1624" 
d="M905 1446l-43 -199q-40 -14 -112 -14q-34 0 -61 3.5t-37 7.5l-11 3l43 199q39 14 115 14q32 0 58.5 -3.5t36.5 -6.5zM1276 1446l-43 -199q-41 -14 -113 -14q-34 0 -61 3.5t-37 7.5l-10 3l43 199q38 14 114 14q32 0 58.5 -3.5t37.5 -6.5zM858 16l-18 488q-5 149 18 313h-8
q-49 -171 -119 -313l-227 -488q-68 -16 -156 -16q-94 0 -151 16l-72 1045q51 16 133 16q39 0 63 -4t29 -8l4 -4l39 -594q7 -89 -2 -215h6q43 115 92 217l277 592q69 16 147 16q37 0 68 -4t43 -8l12 -4l21 -590q2 -97 -6 -219h6q16 41 98 217l281 592q55 16 137 16
q35 0 61 -4t34 -8l9 -4l-514 -1045q-73 -16 -155 -16q-85 0 -150 16z" />
    <glyph glyph-name="Ygrave" unicode="&#x1ef2;" horiz-adv-x="1302" 
d="M872 1892l117 -280q-55 -61 -160 -78l-198 266q37 43 109.5 71t131.5 21zM1163 1456q70 19 158 19q37 0 72.5 -4.5t52.5 -9.5l16 -5l-684 -842l-127 -596q-47 -18 -131 -18q-42 0 -74.5 4.5t-44.5 9.5l-12 4l125 590l-311 848q60 19 164 19q42 0 73 -4.5t42 -9.5l10 -5
l210 -579z" />
    <glyph glyph-name="ygrave" unicode="&#x1ef3;" 
d="M668 1212l-199 267q37 43 110 71t132 21l116 -281q-55 -61 -159 -78zM823 1061q49 16 133 16q40 0 71 -4t43 -8l11 -4l-217 -1018q-62 -294 -208 -424.5t-396 -130.5q-64 0 -120.5 8.5t-91.5 21t-60.5 25t-35.5 21.5l-11 8q14 51 42 96t64 72q10 -5 28 -13t75.5 -21
t115.5 -13q51 0 89.5 7t79 28.5t70 59.5t56.5 102t45 153l6 25q-64 -49 -125.5 -68.5t-146.5 -19.5q-168 0 -237 100.5t-35 255.5l153 725q49 16 133 16q40 0 71 -4t43 -8l11 -4l-153 -725q-30 -148 133 -148q102 0 194 76z" />
    <glyph glyph-name="endash" unicode="&#x2013;" horiz-adv-x="1165" 
d="M985 500h-860q-6 37 6 94q5 25 13.5 48.5t13.5 34.5l6 11h860q8 -37 -4 -94q-5 -25 -14 -48.5t-15 -34.5z" />
    <glyph glyph-name="emdash" unicode="&#x2014;" horiz-adv-x="1677" 
d="M1497 500h-1372q-6 37 6 94q5 25 13.5 48.5t13.5 34.5l6 11h1372q8 -37 -4 -94q-5 -25 -14 -48.5t-15 -34.5z" />
    <glyph glyph-name="quoteleft" unicode="&#x2018;" horiz-adv-x="483" 
d="M453 1475l77 -62q-10 -9 -25 -26t-49.5 -74t-52.5 -121q24 -2 43.5 -5.5t27.5 -6.5l7 -2l-49 -236q-43 -16 -133 -16q-37 0 -68.5 4t-44.5 8l-12 4l33 154q15 71 45.5 136t64 107t65 74.5t51.5 46.5z" />
    <glyph glyph-name="quoteright" unicode="&#x2019;" horiz-adv-x="468" 
d="M266 926l-78 61q10 9 25 25.5t49 73t51 120.5q-24 2 -42.5 6t-25.5 8l-7 3l49 235q43 17 133 17q37 0 68.5 -4.5t43.5 -8.5l13 -4l-33 -153q-15 -71 -45.5 -136t-64 -107t-65 -74.5t-51.5 -47.5z" />
    <glyph glyph-name="quotesinglbase" unicode="&#x201a;" horiz-adv-x="497" 
d="M23 -281l-78 62q10 9 25 25.5t49 73.5t51 120q-24 2 -43 6t-26 7l-7 3l49 236q43 16 133 16q37 0 68.5 -4t43.5 -8l13 -4l-33 -154q-15 -71 -45.5 -136t-64 -107t-64.5 -74.5t-51 -46.5z" />
    <glyph glyph-name="quotedblleft" unicode="&#x201c;" horiz-adv-x="811" 
d="M453 1475l77 -62q-10 -9 -25 -26t-49.5 -74t-52.5 -121q24 -2 43.5 -5.5t27.5 -6.5l7 -2l-49 -236q-43 -16 -133 -16q-37 0 -68.5 4t-44.5 8l-12 4l33 154q15 71 45.5 136t64 107t65 74.5t51.5 46.5zM780 1475l78 -62q-10 -9 -25 -26t-49.5 -74t-52.5 -121
q24 -2 43.5 -5.5t27.5 -6.5l7 -2l-49 -236q-43 -16 -133 -16q-37 0 -68.5 4t-44.5 8l-12 4l33 154q15 71 45.5 136t64 107t64.5 74.5t51 46.5z" />
    <glyph glyph-name="quotedblright" unicode="&#x201d;" horiz-adv-x="796" 
d="M266 926l-78 61q10 9 25 25.5t49 73t51 120.5q-24 2 -42.5 6t-25.5 8l-7 3l49 235q43 17 133 17q37 0 68.5 -4.5t43.5 -8.5l13 -4l-33 -153q-15 -71 -45.5 -136t-64 -107t-65 -74.5t-51.5 -47.5zM594 926l-78 61q10 9 25 25.5t49 73t51 120.5q-24 2 -43 6t-26 8l-7 3
l49 235q44 17 134 17q37 0 68 -4.5t44 -8.5l12 -4l-32 -153q-15 -71 -45.5 -136t-64 -107t-65 -74.5t-51.5 -47.5z" />
    <glyph glyph-name="quotedblbase" unicode="&#x201e;" horiz-adv-x="825" 
d="M23 -281l-78 62q10 9 25 25.5t49 73.5t51 120q-24 2 -43 6t-26 7l-7 3l49 236q43 16 133 16q37 0 68.5 -4t43.5 -8l13 -4l-33 -154q-15 -71 -45.5 -136t-64 -107t-64.5 -74.5t-51 -46.5zM350 -281l-78 62q10 9 25 25.5t49 73.5t51 120q-24 2 -43 6t-26 7l-6 3l49 236
q43 16 133 16q37 0 68.5 -4t43.5 -8l13 -4l-33 -154q-15 -71 -45.5 -136t-64 -107t-65 -74.5t-51.5 -46.5z" />
    <glyph glyph-name="dagger" unicode="&#x2020;" horiz-adv-x="1138" 
d="M395 -260l-92 53l240 1053l-439 -15q1 42 11 97q6 28 13.5 51.5t11.5 32.5l5 10l433 -14l73 417q48 11 103 11q25 0 49 -3t35 -5l12 -3l-102 -417l411 14q4 -39 -8 -94q-5 -25 -13.5 -49.5t-13.5 -36.5l-6 -11l-405 15l-211 -1053z" />
    <glyph glyph-name="daggerdbl" unicode="&#x2021;" horiz-adv-x="1282" 
d="M668 340l438 14q0 -41 -10 -96q-6 -28 -14 -51.5t-12 -32.5l-5 -10l-432 14l-74 -418q-47 -10 -102 -10q-25 0 -49.5 2.5t-35.5 5.5l-12 2l103 418l-434 -14q-4 39 8 94q5 25 13.5 49t13.5 35l6 12l428 -14l39 252l69 254l-438 -15q0 42 10 97q6 28 14 51.5t12 32.5l5 10
l432 -14l74 417q47 11 102 11q25 0 49 -3t36 -5l11 -3l-102 -417l434 14q4 -39 -8 -94q-5 -25 -13.5 -49.5t-13.5 -36.5l-6 -11l-428 15l-41 -254z" />
    <glyph glyph-name="bullet" unicode="&#x2022;" horiz-adv-x="739" 
d="M573 578q-20 -94 -93 -152.5t-165 -58.5q-94 0 -143 58.5t-29 152.5q20 95 94.5 154t168.5 59q92 0 139.5 -59t27.5 -154z" />
    <glyph glyph-name="ellipsis" unicode="&#x2026;" horiz-adv-x="1425" 
d="M301 252l-49 -236q-49 -16 -133 -16q-40 0 -71.5 4t-42.5 8l-11 4l49 236q43 16 133 16q37 0 68.5 -4t43.5 -8zM766 252l-49 -236q-49 -16 -133 -16q-40 0 -71 4t-43 8l-11 4l49 236q43 16 133 16q37 0 68.5 -4t44.5 -8zM1227 252l-49 -236q-50 -16 -134 -16q-40 0 -71 4
t-42 8l-11 4l49 236q43 16 133 16q37 0 68.5 -4t43.5 -8z" />
    <glyph glyph-name="perthousand" unicode="&#x2030;" horiz-adv-x="2238" 
d="M1452 1423l-1094 -1429q-32 -14 -98 -14q-28 0 -51.5 3.5t-32.5 6.5l-10 4l1094 1429q32 15 98 15q28 0 51.5 -4t32.5 -8zM373 707q-142 0 -196.5 84t-14.5 270q74 354 362 354q141 0 197 -84t16 -270t-131.5 -270t-232.5 -84zM494 1274q-55 0 -89.5 -44t-60.5 -169
q-22 -88 -17 -135t22 -61.5t54 -14.5q54 0 87.5 42t60.5 169q20 86 16 133.5t-21 63.5t-52 16zM1075 -20q-142 0 -196.5 84t-14.5 270q74 354 361 354q141 0 197 -84t18 -270q-40 -186 -132 -270t-233 -84zM1751 -20q-142 0 -196.5 84t-14.5 270q74 354 361 354
q141 0 197 -84t18 -270q-40 -186 -132 -270t-233 -84zM1196 547q-55 0 -89 -44t-60 -169q-22 -88 -17 -135t22 -61.5t54 -14.5q54 0 86.5 42t60.5 169q20 86 16 133.5t-21 63.5t-52 16zM1872 547q-55 0 -89.5 -44t-60.5 -169q-22 -88 -17 -135t22.5 -61.5t54.5 -14.5
q54 0 86.5 42t60.5 169q20 86 16 133.5t-21 63.5t-52 16z" />
    <glyph glyph-name="guilsinglleft" unicode="&#x2039;" horiz-adv-x="690" 
d="M111 659l493 383q49 -47 53 -149l-362 -342l217 -340q-46 -101 -117 -150l-332 377q-9 39 5 105q7 32 18 61t18 42z" />
    <glyph glyph-name="guilsinglright" unicode="&#x203a;" horiz-adv-x="688" 
d="M262 1042l330 -383q10 -44 -6 -116q-6 -29 -16.5 -55.5t-17.5 -37.5l-7 -12l-492 -377q-51 51 -51 150l360 340l-215 342q40 95 115 149z" />
    <glyph glyph-name="fraction" unicode="&#x2044;" horiz-adv-x="286" 
d="M-485 -6l1093 1429q33 15 99 15q29 0 52.5 -4t32.5 -8l9 -3l-1096 -1429q-41 -14 -98 -14q-24 0 -47 3.5t-34 6.5z" />
    <glyph glyph-name="zeroinferior" unicode="&#x2080;" horiz-adv-x="708" 
d="M174 -207q-140 0 -194 87.5t-15 275.5q76 360 365 360q288 0 211 -360q-75 -363 -367 -363zM299 375q-55 0 -90.5 -47t-61.5 -172q-14 -66 -16.5 -109.5t7 -66.5t26 -32t43.5 -9q53 0 86 44.5t61 172.5q25 132 11.5 175.5t-66.5 43.5z" />
    <glyph glyph-name="oneinferior" unicode="&#x2081;" horiz-adv-x="507" 
d="M-16 381q133 33 223 115q36 10 88 10q35 0 80 -10l-144 -682q-53 -11 -84 -11q-49 0 -92 11l84 399q7 38 21 82q-72 -43 -160 -53q-41 50 -16 139z" />
    <glyph glyph-name="twoinferior" unicode="&#x2082;" horiz-adv-x="620" 
d="M-100 -113q16 77 62.5 135.5t101.5 91t109 59t94 57t48 67.5q8 40 -20 58t-78 18q-68 3 -131 -19q-39 50 -16 127q96 35 213 35q111 0 173 -53.5t40 -155.5q-13 -60 -46.5 -104.5t-80 -73.5t-94 -52.5t-100.5 -55.5t-87 -68h297q8 -32 -2 -76q-5 -31 -29 -74h-463
q-1 37 9 84z" />
    <glyph glyph-name="threeinferior" unicode="&#x2083;" horiz-adv-x="614" 
d="M418 0q-44 -207 -338 -207q-58 0 -106.5 11t-67.5 22l-19 12q6 33 26 66.5t48 54.5q59 -22 141 -22q127 0 144 83q9 42 -10.5 61t-75.5 19h-99q-9 71 31 138h98q81 0 95 63q9 39 -12 56.5t-72 17.5q-32 0 -68 -5.5t-56 -10.5l-20 -5q-17 19 -22 52.5t4 70.5q88 39 207 39
q121 0 180.5 -50t40.5 -140q-21 -105 -117 -152q94 -46 68 -174z" />
    <glyph glyph-name="fourinferior" unicode="&#x2084;" horiz-adv-x="675" 
d="M420 86h76q4 -23 -4 -63q-3 -17 -23 -62h-76l-31 -147q-43 -11 -75 -11q-38 0 -72 11l31 147h-336q-4 37 2 62q7 29 20 51l408 420q44 12 86 12q46 0 80 -12zM317 303l-208 -217h163z" />
    <glyph glyph-name="fiveinferior" unicode="&#x2085;" horiz-adv-x="618" 
d="M213 356l-20 -98q144 0 203 -57t34 -176q-27 -119 -110 -175.5t-238 -56.5q-59 0 -107.5 11t-66.5 22l-19 12q17 75 72 121q55 -22 129 -22q140 0 160 88q10 54 -17 72t-104 18h-133l82 391h414q9 -77 -31 -150h-248z" />
    <glyph glyph-name="sixinferior" unicode="&#x2086;" horiz-adv-x="638" 
d="M-53 74q84 407 532 438q11 -26 3 -66.5t-31 -70.5q-180 -8 -267 -129q37 6 84 6q104 0 159 -56.5t30 -172.5q-24 -113 -106 -171.5t-204 -58.5q-124 0 -177.5 69.5t-22.5 211.5zM281 23q19 94 -66 94q-34 0 -84 -8q-42 -183 45 -183q40 0 68 25t37 72z" />
    <glyph glyph-name="seveninferior" unicode="&#x2087;" horiz-adv-x="585" 
d="M305 354h-299q-6 77 31 152h473q2 -41 -6 -82q-11 -50 -37.5 -95t-60 -80t-72.5 -69.5t-78 -72t-72.5 -78.5t-60 -97t-37.5 -120q-95 -17 -168 0q27 115 74.5 198.5t91.5 124.5t111 102.5t110 116.5z" />
    <glyph glyph-name="eightinferior" unicode="&#x2088;" horiz-adv-x="663" 
d="M18 322q20 90 97.5 142t195.5 52q111 0 165.5 -49t37.5 -133q-21 -93 -115 -158q93 -67 70 -176q-22 -100 -104 -153.5t-211 -53.5q-124 0 -184 51t-40 146q21 103 138 168q-71 61 -50 164zM352 322q8 32 -10 49.5t-59 17.5q-38 0 -62.5 -16.5t-30.5 -44.5
q-7 -31 21 -52.5t82 -42.5q47 29 59 89zM297 -6q3 17 -3 31t-21 25t-29 19t-35 17.5t-31 15.5q-7 -4 -18.5 -12.5t-33.5 -34.5t-28 -53q-7 -38 15 -57t73 -19q43 0 74 17.5t37 50.5z" />
    <glyph glyph-name="nineinferior" unicode="&#x2089;" horiz-adv-x="641" 
d="M-16 287q24 113 105.5 171t203.5 58q124 0 178 -69t23 -211q-84 -408 -533 -439q-11 26 -2.5 66.5t31.5 70.5q180 8 264 129q-38 -6 -82 -6q-103 0 -158 57t-30 173zM309 201q20 88 10.5 135t-55.5 47q-40 0 -67.5 -24.5t-36.5 -71.5q-19 -94 65 -94q48 0 84 8z" />
    <glyph glyph-name="Euro" unicode="&#x20ac;" horiz-adv-x="1212" 
d="M326 930q191 463 635 463q90 0 164 -17t103 -34l29 -17q-23 -114 -110 -178q-90 39 -203 39q-115 0 -204.5 -58.5t-153.5 -197.5h473q3 -35 -15.5 -81t-46.5 -77h-467q-10 -36 -20 -88q-13 -61 -16 -82h411q3 -35 -15 -81t-46 -77h-363q3 -140 68.5 -197t183.5 -57
q57 0 117 10t92 20l31 9q60 -49 33 -182q-15 -8 -42.5 -19t-117 -29.5t-184.5 -18.5q-223 0 -334 117.5t-105 346.5h-174q-2 35 16 81t46 77h127q3 23 16 84q11 54 20 86h-155q-2 36 16 82t45 76h146z" />
    <glyph glyph-name="uni2113" unicode="&#x2113;" horiz-adv-x="976" 
d="M328 1108q14 67 34 123t56 114.5t83.5 99t119.5 66t161 25.5q166 0 234 -83t39 -222q-39 -181 -191.5 -358t-398.5 -336l-47 -220q-26 -120 78 -120q50 0 105.5 26.5t85.5 52.5l30 27q96 -30 96 -127q-7 -8 -20.5 -21t-58 -47t-92 -60t-120 -47t-145.5 -21
q-52 0 -91.5 9.5t-73 32.5t-48.5 62t-19 97t15 138l12 54q-39 -20 -121 -56q-62 52 -39 168q103 43 205 103zM817 1231q14 66 -1.5 97.5t-65.5 31.5q-58 0 -95.5 -53.5t-68.5 -202.5l-64 -297q124 113 200.5 226t94.5 198z" />
    <glyph glyph-name="uni2117" unicode="&#x2117;" horiz-adv-x="1632" 
d="M115 696q31 146 116 279t201.5 229t261.5 152.5t291 56.5q195 0 339.5 -96t204.5 -261t19 -360q-31 -146 -115.5 -279t-200.5 -228.5t-261 -152t-291 -56.5q-117 0 -219 36.5t-175.5 101.5t-122.5 154.5t-59.5 196.5t11.5 227zM1382 696q32 150 -14.5 277t-158 200.5
t-261.5 73.5q-228 0 -422.5 -161t-244.5 -390q-17 -92 -8.5 -174.5t46 -151.5t93.5 -119t134.5 -78t168.5 -28q150 0 292.5 73.5t243 200.5t131.5 277zM682 1071h317q121 0 178.5 -72t32.5 -190q-26 -120 -114 -192t-209 -72h-144l-51 -244q-41 -19 -89 -19t-85 19zM825 924
l-49 -228h125q105 0 129 113q11 55 -9.5 85t-70.5 30h-125z" />
    <glyph glyph-name="trademark" unicode="&#x2122;" horiz-adv-x="1255" 
d="M244 1475h415q4 -12 0 -41q-7 -23 -18 -43h-154l-104 -498q-20 -8 -55 -8q-16 0 -28.5 2t-16.5 4l-4 2l104 498h-158q0 34 2 41q3 18 17 43zM741 1466q27 9 66 9q26 0 59 -9l45 -149q26 -94 35 -162q7 14 98 148l111 163q41 9 70 9q17 0 33.5 -2.5t23.5 -4.5l8 -2
l-121 -573q-20 -8 -53 -8q-16 0 -28.5 2t-17.5 4l-5 2l47 227q38 181 51 223q-48 -80 -84 -133l-114 -161q-18 -7 -45 -7q-12 0 -22 2t-14 4l-5 1l-43 161q-19 66 -31 133q-3 -54 -41 -223l-47 -227q-20 -8 -51 -8q-13 0 -24 2t-16 4l-5 2z" />
    <glyph glyph-name="Omega" unicode="&#x2126;" horiz-adv-x="1495" 
d="M180 778q77 367 270.5 542t483.5 175q142 0 242.5 -41t162 -128.5t72 -223t-26.5 -324.5q-70 -325 -305 -553h213q6 -61 -2 -112q-11 -50 -45 -113h-504q-22 114 47 225q238 169 322 553q26 122 29 211t-12 144t-51 88t-80.5 45t-106.5 12q-79 0 -139 -20.5t-117 -73.5
t-101.5 -154t-76.5 -252q-83 -382 84 -553q14 -108 -47 -225h-504q-10 60 0 111q12 57 47 114h213q-138 226 -68 553z" />
    <glyph glyph-name="estimated" unicode="&#x212e;" horiz-adv-x="1603" 
d="M1110 195h137q-247 -215 -565 -215q-98 0 -186 26t-156.5 72.5t-122 112.5t-82 146t-36 172t15.5 191q31 146 116 279.5t202 230t262.5 154t291.5 57.5q117 0 219.5 -37t176.5 -102.5t123.5 -156t60.5 -198t-11 -227.5l-10 -49h-1114l-96 -446q157 -137 364 -137
q203 0 410 127zM1333 1194q-71 65 -165 102t-199 37q-203 0 -422 -137l-96 -455h786z" />
    <glyph glyph-name="uni2153" unicode="&#x2153;" horiz-adv-x="1501" 
d="M1167 1423q33 15 99 15q29 0 52.5 -4t32.5 -8l9 -3l-1096 -1429q-41 -14 -98 -14q-24 0 -47 3.5t-34 6.5l-11 4zM416 1399q36 10 88 10q35 0 80 -10l-146 -682q-45 -10 -84 -10q-51 0 -92 10l86 399q2 12 19 82q-68 -43 -158 -53q-41 50 -16 139q133 33 223 115zM961 674
q85 39 204 39q121 0 181 -50.5t40 -140.5q-11 -54 -38 -90.5t-78 -60.5q95 -47 67 -174q-44 -207 -336 -207q-58 0 -106 11t-67 23l-19 11q6 33 25 66.5t47 54.5q61 -23 143 -23q124 0 141 84q9 42 -9.5 61t-74.5 19h-98q-12 68 29 137h98q82 0 96 64q7 39 -14 56t-72 17
q-32 0 -68 -5t-56 -10l-19 -5q-35 44 -16 123z" />
    <glyph glyph-name="uni2154" unicode="&#x2154;" horiz-adv-x="1619" 
d="M197 -6l1093 1429q33 15 99 15q29 0 52.5 -4t32.5 -8l9 -3l-1096 -1429q-41 -14 -98 -14q-24 0 -47 3.5t-34 6.5zM109 793q16 77 62 135t101 91t109 59t94.5 56.5t48.5 67.5q7 38 -20 56t-74 20q-74 3 -135 -18q-39 50 -16 126q93 35 210 35q112 0 175 -53.5t41 -155.5
q-13 -60 -46.5 -104.5t-80 -73.5t-94 -52.5t-100.5 -55.5t-87 -68h297q6 -39 -2 -76q-5 -30 -29 -73h-463q-1 37 9 84zM1460 197q-44 -207 -336 -207q-58 0 -106 11t-67 23l-19 11q6 33 25 66.5t47 54.5q61 -23 143 -23q124 0 141 84q9 42 -9.5 61t-74.5 19h-98
q-12 68 29 137h98q82 0 96 64q7 39 -14 56t-72 17q-32 0 -67.5 -5t-55.5 -10l-20 -5q-15 19 -20.5 52.5t3.5 70.5q86 39 205 39q121 0 181 -50.5t40 -140.5q-11 -54 -38 -90.5t-78 -60.5q95 -47 67 -174z" />
    <glyph glyph-name="oneeighth" unicode="&#x215b;" horiz-adv-x="1497" 
d="M1167 1423q33 15 99 15q29 0 52.5 -4t32.5 -8l9 -3l-1096 -1429q-41 -14 -98 -14q-24 0 -47 3.5t-34 6.5l-11 4zM416 1399q36 10 88 10q35 0 80 -10l-146 -682q-45 -10 -84 -10q-51 0 -92 10l86 399q2 12 19 82q-68 -43 -158 -53q-41 50 -16 139q133 33 223 115zM889 518
q19 90 96 142.5t195 52.5q111 0 166 -49.5t36 -133.5q-17 -89 -112 -157q90 -65 67 -176q-20 -99 -102 -153t-211 -54q-124 0 -184.5 50.5t-40.5 145.5q22 106 139 168q-71 58 -49 164zM1223 518q6 33 -11.5 50.5t-58.5 17.5q-38 0 -63 -17t-31 -45q-5 -31 22.5 -52.5
t81.5 -41.5q45 28 60 88zM1167 190q4 21 -8.5 39t-28 27t-45 23.5t-38.5 19.5q-7 -4 -18.5 -12.5t-33 -34.5t-26.5 -53q-9 -38 13.5 -57t74.5 -19q43 0 73 17t37 50z" />
    <glyph glyph-name="threeeighths" unicode="&#x215c;" horiz-adv-x="1576" 
d="M1249 1423q33 15 99 15q29 0 52.5 -4t32.5 -8l9 -3l-1096 -1429q-41 -14 -98 -14q-24 0 -47 3.5t-34 6.5l-11 4zM250 1382q86 39 205 39q121 0 181.5 -50t41.5 -140q-24 -107 -117 -152q94 -46 68 -174q-44 -207 -338 -207q-58 0 -106.5 11t-67.5 23l-19 11q6 33 26 66.5
t48 54.5q59 -22 141 -22q127 0 144 84q9 42 -10.5 61t-75.5 19h-99q-9 70 31 137h98q81 0 95 63q9 39 -12 56.5t-72 17.5q-32 0 -68 -5t-56 -10l-20 -5q-17 19 -22 52t4 70zM971 518q19 90 96 142.5t195 52.5q111 0 166 -49.5t36 -133.5q-17 -89 -112 -157q90 -65 67 -176
q-20 -99 -102 -153t-211 -54q-124 0 -184.5 50.5t-40.5 145.5q22 106 139 168q-71 58 -49 164zM1305 518q6 33 -11.5 50.5t-58.5 17.5q-38 0 -63 -17t-31 -45q-5 -31 22.5 -52.5t81.5 -41.5q45 28 60 88zM1249 190q3 17 -3 31t-21.5 25.5t-30 19t-35.5 17.5t-31 16
q-7 -4 -18.5 -12.5t-32.5 -34.5t-26 -53q-9 -38 13.5 -57t74.5 -19q43 0 73 17t37 50z" />
    <glyph glyph-name="fiveeighths" unicode="&#x215d;" horiz-adv-x="1576" 
d="M1249 1423q33 15 99 15q29 0 52.5 -4t32.5 -8l9 -3l-1096 -1429q-41 -14 -98 -14q-24 0 -47 3.5t-34 6.5l-11 4zM287 1411h413q10 -78 -30 -149h-248l-21 -99q144 0 203 -57t33 -176q-25 -118 -108 -175t-238 -57q-59 0 -107.5 11t-67.5 23l-18 11q17 77 72 121
q55 -22 129 -22q141 0 158 88q12 54 -15 72t-104 18h-133zM971 518q19 90 96 142.5t195 52.5q111 0 166 -49.5t36 -133.5q-17 -89 -112 -157q90 -65 67 -176q-20 -99 -102 -153t-211 -54q-124 0 -184.5 50.5t-40.5 145.5q22 106 139 168q-71 58 -49 164zM1305 518
q6 33 -11.5 50.5t-58.5 17.5q-38 0 -63 -17t-31 -45q-5 -31 22.5 -52.5t81.5 -41.5q45 28 60 88zM1249 190q3 17 -3 31t-21.5 25.5t-30 19t-35.5 17.5t-31 16q-7 -4 -18.5 -12.5t-32.5 -34.5t-26 -53q-9 -38 13.5 -57t74.5 -19q43 0 73 17t37 50z" />
    <glyph glyph-name="seveneighths" unicode="&#x215e;" horiz-adv-x="1419" 
d="M1092 1423q32 15 98 15q29 0 52.5 -4t32.5 -8l9 -3l-1096 -1429q-41 -14 -98 -14q-24 0 -47 3.5t-34 6.5l-11 4zM258 1411h473q2 -41 -6 -82q-11 -50 -35.5 -95t-55.5 -80.5t-66.5 -70t-72 -72t-68.5 -78.5t-58.5 -96.5t-40.5 -119.5q-95 -17 -168 0q22 92 52 160.5
t68 117t74 84.5t85.5 85t86.5 96h-299q-6 76 31 151zM813 518q19 90 96 142.5t195 52.5q111 0 166.5 -49.5t36.5 -133.5q-17 -89 -113 -157q91 -66 68 -176q-20 -99 -102 -153t-212 -54q-124 0 -184.5 50.5t-40.5 145.5q22 106 139 168q-71 58 -49 164zM1147 518
q6 33 -11.5 50.5t-58.5 17.5q-38 0 -63 -17t-31 -45q-5 -31 22.5 -52.5t81.5 -41.5q45 28 60 88zM1092 190q3 17 -3 31t-21.5 25.5t-30 19t-35.5 17.5t-31 16q-7 -4 -18.5 -12.5t-33 -34.5t-26.5 -53q-9 -38 13.5 -57t74.5 -19q43 0 73.5 17t37.5 50z" />
    <glyph glyph-name="arrowleft" unicode="&#x2190;" horiz-adv-x="1277" 
d="M74 717l575 475q32 -10 54 -38t30 -67l-348 -284h844q6 -40 -4 -86q-6 -31 -33 -86h-844l227 -285q-50 -82 -129 -104z" />
    <glyph glyph-name="arrowup" unicode="&#x2191;" horiz-adv-x="1050" 
d="M668 1292l374 -473q-39 -74 -127 -106l-223 286l-180 -843q-46 -15 -88 -15q-33 0 -84 15l180 843l-346 -286q-35 15 -57 43t-25 63z" />
    <glyph glyph-name="arrowright" unicode="&#x2192;" horiz-adv-x="1273" 
d="M1239 717l-573 -475q-32 10 -54 38t-30 66l346 285h-844q-3 50 4 86q9 42 33 86h844l-226 284q51 84 129 105z" />
    <glyph glyph-name="arrowdown" unicode="&#x2193;" horiz-adv-x="1050" 
d="M580 1278q51 14 88 14q46 0 84 -14l-181 -844l347 287q35 -15 56.5 -43.5t24.5 -63.5l-575 -473l-375 473q40 75 127 107l223 -287z" />
    <glyph glyph-name="uni2196" unicode="&#x2196;" horiz-adv-x="1050" 
d="M231 1124h672q6 -36 -2 -73q-10 -41 -31 -74h-403l469 -596q-20 -40 -60.5 -73.5t-84.5 -47.5l-469 596l-86 -403q-40 -15 -78 -15q-40 0 -70 15z" />
    <glyph glyph-name="uni2197" unicode="&#x2197;" horiz-adv-x="1058" 
d="M1036 1124l-143 -671q-37 -15 -78 -15q-35 0 -70 15l86 403l-722 -596q-38 14 -65.5 47.5t-31.5 73.5l723 596h-403q-6 39 2 74q9 42 31 73h671z" />
    <glyph glyph-name="uni2198" unicode="&#x2198;" horiz-adv-x="1048" 
d="M748 528l86 404q38 14 75 14q44 0 72 -14l-143 -672h-672q-8 30 2 74q5 31 29 74h403l-469 596q21 40 62.5 73t85.5 47z" />
    <glyph glyph-name="uni2199" unicode="&#x2199;" horiz-adv-x="1054" 
d="M260 528l723 596q38 -14 64.5 -47t29.5 -73l-723 -596h404q7 -30 0 -74q-8 -36 -31 -74h-672l144 672q35 14 75 14t72 -14z" />
    <glyph glyph-name="partialdiff" unicode="&#x2202;" horiz-adv-x="1142" 
d="M416 1313q0 138 76 223q277 -20 418 -121.5t165.5 -289.5t-35.5 -468q-33 -156 -79.5 -273t-101.5 -193.5t-125 -124t-144 -67t-164 -19.5q-89 0 -156 18t-118 57.5t-76 102t-29 152t23 206.5q112 537 563 537q91 0 176 -29q-15 128 -105 194.5t-288 94.5zM799 811
q-59 45 -185 45q-51 0 -88.5 -13.5t-74.5 -49t-65 -104.5t-50 -173q-17 -82 -20.5 -142.5t5.5 -98t30.5 -60t49.5 -31t68 -8.5q50 0 88.5 14.5t75 50.5t65 104.5t50.5 170.5q38 181 51 295z" />
    <glyph glyph-name="Delta" unicode="&#x2206;" horiz-adv-x="1331" 
d="M719 1458q70 17 135 17q68 0 131 -17l193 -1333q-37 -76 -105 -125h-1073q-54 48 -51 123zM774 1126h-8q-57 -121 -137 -262l-371 -653h631l-92 655q-23 170 -23 260z" />
    <glyph glyph-name="product" unicode="&#x220f;" horiz-adv-x="1470" 
d="M1454 1419l-387 -1822q-45 -21 -121 -21q-33 0 -61 5t-39 11l-12 5l342 1603h-633l-342 -1603q-45 -21 -123 -21q-32 0 -60 5t-40 11l-11 5l387 1822h1100z" />
    <glyph glyph-name="summation" unicode="&#x2211;" horiz-adv-x="1232" 
d="M-137 -299l641 834l-264 772l22 114h1038q10 -40 -4 -106q-5 -27 -15 -53.5t-17 -39.5l-7 -12h-725l236 -680l-565 -737h764q10 -42 -4 -110q-5 -27 -15.5 -54t-17.5 -40l-8 -13h-1086z" />
    <glyph glyph-name="minus" unicode="&#x2212;" horiz-adv-x="964" 
d="M799 582h-656q-5 37 7 94q5 25 13.5 48.5t14.5 34.5l6 11h656q6 -37 -6 -94q-5 -25 -14 -48.5t-15 -34.5z" />
    <glyph glyph-name="uni2215" unicode="&#x2215;" horiz-adv-x="997" 
d="M-129 -6l1094 1429q32 15 98 15q29 0 52.5 -4t32.5 -8l9 -3l-1096 -1429q-41 -14 -98 -14q-24 0 -47 3.5t-34 6.5z" />
    <glyph glyph-name="uni2219" unicode="&#x2219;" horiz-adv-x="509" 
d="M236 545q-60 0 -94.5 37.5t-20.5 105.5q14 67 65 105t111 38q58 0 93.5 -38t21.5 -105q-14 -68 -65.5 -105.5t-110.5 -37.5z" />
    <glyph glyph-name="radical" unicode="&#x221a;" horiz-adv-x="1331" 
d="M483 -31l-168 719l-221 -88q-30 24 -39.5 67t6.5 93l422 170l148 -664l680 1229q51 8 95.5 -3t70.5 -40l-818 -1483h-176z" />
    <glyph glyph-name="infinity" unicode="&#x221e;" horiz-adv-x="1640" 
d="M1102 311q-61 0 -115 21.5t-87.5 52.5t-58 61.5t-34.5 51.5l-10 22q-7 -8 -20.5 -22.5t-55.5 -50.5t-86 -63.5t-108.5 -50t-125.5 -22.5q-72 0 -130 20t-93 54t-58 80t-25 96.5t7 104.5q14 67 51.5 129.5t94 113t136 81t169.5 30.5q61 0 115 -21.5t87.5 -53t58 -62.5
t34.5 -53l10 -21q7 9 20.5 23t55.5 50.5t85.5 64t108 50.5t125.5 23q72 0 130 -20t93 -54t58 -79.5t25 -96t-7 -104.5q-14 -67 -51.5 -130t-93.5 -113.5t-135.5 -81t-169.5 -30.5zM438 506q40 0 81.5 16.5t72.5 40t56.5 47t38.5 40.5l13 16q-2 6 -6 17t-20.5 38.5t-36 48.5
t-54.5 38t-75 17q-84 0 -139 -47.5t-68 -111.5q-14 -64 19.5 -112t117.5 -48zM1217 825q-40 0 -82 -16.5t-73 -39.5t-56.5 -46.5t-38.5 -40.5l-13 -16q2 -7 6 -17.5t20.5 -38t36.5 -48.5t55 -38.5t75 -17.5q84 0 139 48t68 112q14 64 -19.5 111.5t-117.5 47.5z" />
    <glyph glyph-name="integral" unicode="&#x222b;" horiz-adv-x="1013" 
d="M258 -2l231 1087q38 183 150 286.5t287 103.5q60 0 119 -23.5t87 -46.5l29 -23q-36 -96 -121 -155q-36 35 -85 51.5t-97 9.5q-60 -8 -105.5 -58t-64.5 -145l-231 -1087q-84 -391 -418 -391q-61 0 -116 23t-80 46l-25 23q37 98 119 154q82 -79 167 -64q51 10 92 61t62 148
z" />
    <glyph glyph-name="approxequal" unicode="&#x2248;" horiz-adv-x="1071" 
d="M393 725q-44 0 -82.5 -19t-55.5 -38l-17 -19q-42 15 -63.5 48t-18.5 75q4 6 11.5 16t34.5 35t57 44t78.5 35t100.5 16q45 0 85.5 -16.5t66.5 -36t65 -36t82 -16.5q27 0 53.5 8t44 19t31.5 22t20 19l7 8q42 -15 63.5 -48t18.5 -75q-2 -3 -6 -8t-18 -20.5t-29.5 -29
t-41 -30t-52 -29t-62.5 -20.5t-74 -8q-45 0 -85.5 16.5t-66.5 35.5t-65 35.5t-82 16.5zM315 356q-44 0 -82.5 -19t-55.5 -37l-17 -19q-42 15 -63.5 47.5t-18.5 74.5q4 6 11.5 16t34.5 35t57 44t78.5 35t100.5 16q45 0 85.5 -16.5t66.5 -36t65 -36t82 -16.5q27 0 53.5 8
t44 19t31.5 22t20 19l7 8q42 -15 63.5 -48t18.5 -75q-2 -3 -6 -8t-18 -20.5t-29.5 -29t-41 -30t-52 -29t-62.5 -20.5t-74 -8q-45 0 -85.5 16t-66.5 36t-65 36t-82 16z" />
    <glyph glyph-name="notequal" unicode="&#x2260;" horiz-adv-x="1024" 
d="M360 307l-131 -172q-41 -14 -92 -14q-36 0 -76 14l132 172h-127q-4 57 6 94q9 51 34 97h234l143 190h-338q-3 50 9 100q8 45 32 91h443l119 153q46 15 92 15q35 0 78 -15l-119 -153h145q6 -40 -4 -91q-14 -60 -37 -100h-252l-143 -190h356q5 -34 -6 -92q-9 -48 -35 -99
h-463z" />
    <glyph glyph-name="lessequal" unicode="&#x2264;" horiz-adv-x="944" 
d="M754 430l-607 232q-5 43 7 98q5 25 13 48t13 34l6 10l705 231q8 -31 -4 -94q-6 -27 -15 -51t-14 -34l-6 -11l-444 -139l385 -133q7 -32 -5 -95q-6 -27 -14.5 -51t-13.5 -35zM696 168h-655q-6 37 6 94q5 25 14 48.5t15 34.5l6 11h655q6 -37 -6 -94q-5 -25 -14 -48.5
t-15 -34.5z" />
    <glyph glyph-name="greaterequal" unicode="&#x2265;" horiz-adv-x="940" 
d="M813 662l-704 -232q-8 35 6 96q5 28 13 51.5t14 33.5l5 10l443 133l-383 139q-8 35 6 96q5 28 13.5 51.5t13.5 33.5l6 9l606 -231q8 -35 -4 -92q-5 -24 -14 -48.5t-15 -37.5zM707 168h-656q-6 37 6 94q5 25 14 48.5t15 34.5l6 11h656q5 -37 -7 -94q-5 -25 -13.5 -48.5
t-14.5 -34.5z" />
    <glyph glyph-name="lozenge" unicode="&#x25ca;" horiz-adv-x="1146" 
d="M385 14l-291 707l592 704h113l299 -704l-600 -707h-113zM860 719l-172 434l-352 -434l168 -434z" />
    </font>
</defs>
</svg>
